<svg width="834" height="484" viewBox="0 0 834 484" fill="none" xmlns="http://www.w3.org/2000/svg">
<g filter="url(#filter0_ddii_398_56)">
<rect x="20" y="20" width="794" height="444" rx="60" fill="#7E40D0" fill-opacity="0.8" shape-rendering="crispEdges"/>
<rect x="20.5" y="20.5" width="793" height="443" rx="59.5" stroke="#C53D41" shape-rendering="crispEdges"/>
</g>
<path d="M369.17 76V46.9091H389.043V52.6193H376.202V57.1648H380.037C382.404 57.1648 384.464 57.5483 386.216 58.3153C387.977 59.0824 389.336 60.1619 390.293 61.554C391.259 62.946 391.741 64.5843 391.741 66.4688C391.741 68.3532 391.259 70.0104 390.293 71.4403C389.336 72.8703 387.977 73.9877 386.216 74.7926C384.464 75.5975 382.404 76 380.037 76H369.17ZM376.202 70.4318H380.037C381.06 70.4318 381.921 70.2566 382.622 69.9062C383.332 69.5464 383.867 69.0634 384.227 68.4574C384.597 67.8419 384.781 67.16 384.781 66.4119C384.781 65.3324 384.374 64.4328 383.56 63.7131C382.745 62.9839 381.571 62.6193 380.037 62.6193H376.202V70.4318ZM399.355 84.1818C398.522 84.1818 397.736 84.1155 396.997 83.983C396.259 83.8598 395.624 83.6941 395.094 83.4858L396.628 78.4432C397.31 78.6705 397.925 78.803 398.474 78.8409C399.033 78.8788 399.511 78.7888 399.909 78.571C400.316 78.3627 400.629 77.9886 400.847 77.4489L401.116 76.7955L393.361 54.1818H400.634L404.653 69.75H404.881L408.957 54.1818H416.273L408.048 78.0881C407.651 79.2813 407.087 80.3324 406.358 81.2415C405.638 82.16 404.705 82.8797 403.56 83.4006C402.423 83.9214 401.022 84.1818 399.355 84.1818ZM415.673 82.4347V70.6449H417.306C417.799 70.3987 418.192 69.9252 418.485 69.2244C418.779 68.5142 419.011 67.6856 419.181 66.7386C419.361 65.7822 419.494 64.7879 419.579 63.7557C419.674 62.714 419.759 61.7339 419.835 60.8153L420.346 54.1818H438.016V70.6449H441.425V82.4347H434.835V76H422.434V82.4347H415.673ZM424.067 70.6449H431.539V59.3523H426.141L426.028 60.8153C425.895 63.1638 425.687 65.1335 425.403 66.7244C425.119 68.3153 424.674 69.6222 424.067 70.6449ZM58.8438 100.619V94.9091H83.4318V100.619H74.6108V124H67.679V100.619H58.8438ZM90.0476 124.369C88.6555 124.369 87.4197 124.137 86.3402 123.673C85.2701 123.2 84.4226 122.49 83.7976 121.543C83.1821 120.586 82.8743 119.388 82.8743 117.949C82.8743 116.737 83.0874 115.714 83.5135 114.881C83.9396 114.047 84.5268 113.37 85.2749 112.849C86.023 112.329 86.8847 111.936 87.8601 111.67C88.8355 111.396 89.8771 111.211 90.9851 111.116C92.2256 111.003 93.2247 110.884 93.9822 110.761C94.7398 110.629 95.2891 110.444 95.63 110.207C95.9804 109.961 96.1555 109.616 96.1555 109.17V109.099C96.1555 108.37 95.9046 107.807 95.4027 107.409C94.9008 107.011 94.2237 106.812 93.3714 106.812C92.4529 106.812 91.7143 107.011 91.1555 107.409C90.5968 107.807 90.2417 108.356 90.0902 109.057L83.6839 108.83C83.8733 107.504 84.361 106.32 85.147 105.278C85.9425 104.227 87.0315 103.403 88.4141 102.807C89.8061 102.201 91.4775 101.898 93.4283 101.898C94.8203 101.898 96.1035 102.063 97.2777 102.395C98.4519 102.717 99.4747 103.19 100.346 103.815C101.217 104.431 101.889 105.188 102.363 106.088C102.846 106.988 103.087 108.015 103.087 109.17V124H96.5533V120.96H96.3828C95.9946 121.699 95.4974 122.324 94.8913 122.835C94.2947 123.347 93.5893 123.73 92.7749 123.986C91.9699 124.241 91.0608 124.369 90.0476 124.369ZM92.1925 119.824C92.9406 119.824 93.6129 119.672 94.2095 119.369C94.8156 119.066 95.2985 118.65 95.6584 118.119C96.0182 117.58 96.1982 116.955 96.1982 116.244V114.17C95.9993 114.275 95.7578 114.369 95.4737 114.455C95.1991 114.54 94.8961 114.62 94.5646 114.696C94.2332 114.772 93.8923 114.838 93.5419 114.895C93.1915 114.952 92.8554 115.004 92.5334 115.051C91.88 115.155 91.3213 115.316 90.8572 115.534C90.4027 115.752 90.0523 116.036 89.8061 116.386C89.5694 116.727 89.451 117.134 89.451 117.608C89.451 118.328 89.7067 118.877 90.218 119.256C90.7389 119.634 91.397 119.824 92.1925 119.824ZM105.406 107.494V102.182H125.861V107.494H118.886V124H112.295V107.494H105.406ZM134.657 124.369C133.265 124.369 132.029 124.137 130.95 123.673C129.879 123.2 129.032 122.49 128.407 121.543C127.791 120.586 127.484 119.388 127.484 117.949C127.484 116.737 127.697 115.714 128.123 114.881C128.549 114.047 129.136 113.37 129.884 112.849C130.632 112.329 131.494 111.936 132.469 111.67C133.445 111.396 134.487 111.211 135.594 111.116C136.835 111.003 137.834 110.884 138.592 110.761C139.349 110.629 139.898 110.444 140.239 110.207C140.59 109.961 140.765 109.616 140.765 109.17V109.099C140.765 108.37 140.514 107.807 140.012 107.409C139.51 107.011 138.833 106.812 137.981 106.812C137.062 106.812 136.324 107.011 135.765 107.409C135.206 107.807 134.851 108.356 134.7 109.057L128.293 108.83C128.483 107.504 128.97 106.32 129.756 105.278C130.552 104.227 131.641 103.403 133.023 102.807C134.415 102.201 136.087 101.898 138.038 101.898C139.43 101.898 140.713 102.063 141.887 102.395C143.061 102.717 144.084 103.19 144.955 103.815C145.826 104.431 146.499 105.188 146.972 106.088C147.455 106.988 147.697 108.015 147.697 109.17V124H141.163V120.96H140.992C140.604 121.699 140.107 122.324 139.501 122.835C138.904 123.347 138.199 123.73 137.384 123.986C136.579 124.241 135.67 124.369 134.657 124.369ZM136.802 119.824C137.55 119.824 138.222 119.672 138.819 119.369C139.425 119.066 139.908 118.65 140.268 118.119C140.628 117.58 140.808 116.955 140.808 116.244V114.17C140.609 114.275 140.367 114.369 140.083 114.455C139.808 114.54 139.505 114.62 139.174 114.696C138.843 114.772 138.502 114.838 138.151 114.895C137.801 114.952 137.465 115.004 137.143 115.051C136.489 115.155 135.931 115.316 135.467 115.534C135.012 115.752 134.662 116.036 134.415 116.386C134.179 116.727 134.06 117.134 134.06 117.608C134.06 118.328 134.316 118.877 134.827 119.256C135.348 119.634 136.006 119.824 136.802 119.824ZM157.853 102.182L161.447 109.369L165.168 102.182H172.171L166.077 113.091L172.398 124H165.452L161.447 116.756L157.54 124H150.495L156.83 113.091L150.808 102.182H157.853ZM189.845 102.182L193.439 109.369L197.161 102.182H204.163L198.07 113.091L204.391 124H197.445L193.439 116.756L189.533 124H182.487L188.822 113.091L182.8 102.182H189.845ZM205.587 102.182H212.548L216.283 116.77L219.82 102.182H226.724L219.423 123.915V132.182H212.888V123.915L205.587 102.182ZM248.425 102.182V124H241.891V102.182H248.425ZM245.115 111.486V116.798C244.746 116.988 244.225 117.172 243.553 117.352C242.89 117.523 242.189 117.665 241.45 117.778C240.721 117.892 240.072 117.949 239.504 117.949C236.152 117.949 233.524 117.31 231.621 116.031C229.727 114.743 228.78 112.651 228.78 109.753V102.168H235.271V109.753C235.271 110.501 235.39 111.083 235.626 111.5C235.873 111.917 236.299 112.21 236.905 112.381C237.52 112.551 238.387 112.636 239.504 112.636C240.357 112.636 241.228 112.542 242.118 112.352C243.018 112.153 244.017 111.865 245.115 111.486ZM368.272 120.733C367.249 120.733 366.373 120.373 365.644 119.653C364.924 118.934 364.569 118.062 364.579 117.04C364.569 116.036 364.924 115.179 365.644 114.469C366.373 113.749 367.249 113.389 368.272 113.389C369.238 113.389 370.09 113.749 370.829 114.469C371.577 115.179 371.956 116.036 371.965 117.04C371.956 117.722 371.776 118.342 371.425 118.901C371.085 119.459 370.635 119.904 370.076 120.236C369.527 120.567 368.925 120.733 368.272 120.733ZM368.272 106.614C367.249 106.614 366.373 106.254 365.644 105.534C364.924 104.814 364.569 103.943 364.579 102.92C364.569 101.917 364.924 101.06 365.644 100.349C366.373 99.6297 367.249 99.2699 368.272 99.2699C369.238 99.2699 370.09 99.6297 370.829 100.349C371.577 101.06 371.956 101.917 371.965 102.92C371.956 103.602 371.776 104.223 371.425 104.781C371.085 105.34 370.635 105.785 370.076 106.116C369.527 106.448 368.925 106.614 368.272 106.614ZM396.156 124.398C393.94 124.398 391.975 124.019 390.261 123.261C388.556 122.494 387.211 121.438 386.227 120.094C385.242 118.749 384.74 117.201 384.721 115.449H391.795C391.823 116.083 392.027 116.647 392.406 117.139C392.784 117.622 393.3 118.001 393.954 118.276C394.607 118.55 395.351 118.688 396.184 118.688C397.017 118.688 397.751 118.541 398.386 118.247C399.03 117.944 399.531 117.532 399.891 117.011C400.251 116.481 400.426 115.875 400.417 115.193C400.426 114.511 400.232 113.905 399.835 113.375C399.437 112.845 398.873 112.433 398.144 112.139C397.424 111.846 396.572 111.699 395.587 111.699H392.761V106.699H395.587C396.449 106.699 397.207 106.557 397.86 106.273C398.523 105.989 399.039 105.591 399.408 105.08C399.778 104.559 399.958 103.962 399.948 103.29C399.958 102.636 399.801 102.063 399.479 101.571C399.167 101.069 398.727 100.681 398.158 100.406C397.6 100.132 396.951 99.9943 396.212 99.9943C395.436 99.9943 394.73 100.132 394.096 100.406C393.471 100.681 392.974 101.069 392.604 101.571C392.235 102.073 392.041 102.655 392.022 103.318H385.303C385.322 101.585 385.805 100.061 386.752 98.7443C387.699 97.4186 388.987 96.3816 390.616 95.6335C392.254 94.8854 394.12 94.5114 396.212 94.5114C398.296 94.5114 400.128 94.8759 401.71 95.6051C403.291 96.3343 404.522 97.3286 405.403 98.5881C406.283 99.8381 406.724 101.254 406.724 102.835C406.733 104.473 406.198 105.823 405.119 106.884C404.049 107.944 402.671 108.598 400.985 108.844V109.071C403.239 109.336 404.939 110.065 406.085 111.259C407.24 112.452 407.813 113.943 407.803 115.733C407.803 117.419 407.306 118.915 406.312 120.222C405.327 121.519 403.954 122.542 402.192 123.29C400.441 124.028 398.428 124.398 396.156 124.398ZM414.913 124.412C413.89 124.412 413.014 124.052 412.285 123.332C411.565 122.613 411.21 121.741 411.219 120.719C411.21 119.715 411.565 118.858 412.285 118.148C413.014 117.428 413.89 117.068 414.913 117.068C415.879 117.068 416.731 117.428 417.469 118.148C418.218 118.858 418.596 119.715 418.606 120.719C418.596 121.401 418.416 122.021 418.066 122.58C417.725 123.138 417.275 123.583 416.717 123.915C416.167 124.246 415.566 124.412 414.913 124.412ZM423.123 124L434.856 100.761V100.577H421.134V94.9091H442.129V100.619L430.353 124H423.123ZM467.849 116.585L473.19 102.182H478.276L470.08 124H465.619L457.636 102.182H462.707L467.849 116.585ZM461.216 102.182V124H454.639V102.182H461.216ZM474.881 124V102.182H481.372V124H474.881ZM499.043 93.5455L489.668 128.375H483.744L493.119 93.5455H499.043ZM511.816 124.412C509.515 124.412 507.54 123.938 505.893 122.991C504.254 122.045 502.995 120.728 502.114 119.043C501.234 117.348 500.793 115.387 500.793 113.162C500.793 110.927 501.234 108.967 502.114 107.281C503.004 105.586 504.269 104.265 505.907 103.318C507.555 102.371 509.52 101.898 511.802 101.898C513.819 101.898 515.576 102.262 517.072 102.991C518.577 103.721 519.752 104.753 520.594 106.088C521.447 107.414 521.897 108.972 521.944 110.761H515.452C515.32 109.644 514.941 108.768 514.316 108.134C513.701 107.499 512.896 107.182 511.901 107.182C511.096 107.182 510.391 107.409 509.785 107.864C509.179 108.309 508.705 108.972 508.364 109.852C508.033 110.723 507.867 111.803 507.867 113.091C507.867 114.379 508.033 115.468 508.364 116.358C508.705 117.239 509.179 117.906 509.785 118.361C510.391 118.806 511.096 119.028 511.901 119.028C512.545 119.028 513.113 118.891 513.606 118.616C514.108 118.342 514.52 117.939 514.842 117.409C515.164 116.869 515.367 116.216 515.452 115.449H521.944C521.878 117.248 521.428 118.82 520.594 120.165C519.771 121.509 518.611 122.556 517.114 123.304C515.628 124.043 513.862 124.412 511.816 124.412ZM524.973 109.455V106.017L531.976 100.605C532.459 100.226 532.885 99.8807 533.254 99.5682C533.624 99.2462 533.912 98.9195 534.121 98.5881C534.339 98.2566 534.447 97.8826 534.447 97.4659C534.447 96.8409 534.182 96.3674 533.652 96.0455C533.131 95.714 532.501 95.5483 531.763 95.5483C530.967 95.5483 530.328 95.733 529.845 96.1023C529.362 96.4716 529.121 97.0303 529.121 97.7784H524.533C524.533 95.8845 525.214 94.4119 526.578 93.3608C527.951 92.3097 529.698 91.7841 531.82 91.7841C533.278 91.7841 534.542 92.035 535.612 92.5369C536.692 93.0388 537.525 93.7159 538.112 94.5682C538.699 95.4205 538.993 96.3674 538.993 97.4091C538.993 98.2614 538.813 99.0521 538.453 99.7812C538.103 100.51 537.558 101.216 536.82 101.898C536.09 102.58 535.153 103.271 534.007 103.972L531.848 105.392V105.548H539.092V109.455H524.973ZM58.8438 148.619V142.909H83.4318V148.619H74.6108V172H67.679V148.619H58.8438ZM93.9006 172.412C91.6184 172.412 89.6487 171.962 87.9915 171.062C86.3438 170.153 85.0748 168.861 84.1847 167.185C83.304 165.499 82.8636 163.496 82.8636 161.176C82.8636 158.922 83.3087 156.953 84.1989 155.267C85.089 153.572 86.3438 152.256 87.9631 151.318C89.5824 150.371 91.4905 149.898 93.6875 149.898C95.2405 149.898 96.661 150.139 97.9489 150.622C99.2367 151.105 100.349 151.82 101.287 152.767C102.224 153.714 102.954 154.884 103.474 156.276C103.995 157.658 104.256 159.244 104.256 161.034V162.767H85.2926V158.733H97.7926C97.7831 157.994 97.608 157.336 97.267 156.759C96.9261 156.181 96.4574 155.731 95.8608 155.409C95.2737 155.078 94.5966 154.912 93.8295 154.912C93.053 154.912 92.357 155.087 91.7415 155.438C91.1259 155.778 90.6383 156.247 90.2784 156.844C89.9186 157.431 89.7292 158.098 89.7102 158.847V162.952C89.7102 163.842 89.8854 164.623 90.2358 165.295C90.5862 165.958 91.0833 166.474 91.7273 166.844C92.3712 167.213 93.1383 167.398 94.0284 167.398C94.6439 167.398 95.2027 167.312 95.7045 167.142C96.2064 166.972 96.6373 166.721 96.9972 166.389C97.357 166.058 97.6269 165.651 97.8068 165.168L104.185 165.352C103.92 166.782 103.337 168.027 102.438 169.088C101.547 170.139 100.378 170.958 98.929 171.545C97.4801 172.123 95.804 172.412 93.9006 172.412ZM121.013 164.585L126.354 150.182H131.44L123.244 172H118.783L110.8 150.182H115.871L121.013 164.585ZM114.38 150.182V172H107.803V150.182H114.38ZM128.045 172V150.182H134.536V172H128.045ZM138.741 172V150.182H158.442V172H151.866V155.494H145.232V172H138.741ZM173.041 172.412C170.759 172.412 168.789 171.962 167.132 171.062C165.484 170.153 164.215 168.861 163.325 167.185C162.445 165.499 162.004 163.496 162.004 161.176C162.004 158.922 162.449 156.953 163.339 155.267C164.23 153.572 165.484 152.256 167.104 151.318C168.723 150.371 170.631 149.898 172.828 149.898C174.381 149.898 175.802 150.139 177.089 150.622C178.377 151.105 179.49 151.82 180.428 152.767C181.365 153.714 182.094 154.884 182.615 156.276C183.136 157.658 183.396 159.244 183.396 161.034V162.767H164.433V158.733H176.933C176.924 157.994 176.749 157.336 176.408 156.759C176.067 156.181 175.598 155.731 175.001 155.409C174.414 155.078 173.737 154.912 172.97 154.912C172.194 154.912 171.498 155.087 170.882 155.438C170.267 155.778 169.779 156.247 169.419 156.844C169.059 157.431 168.87 158.098 168.851 158.847V162.952C168.851 163.842 169.026 164.623 169.376 165.295C169.727 165.958 170.224 166.474 170.868 166.844C171.512 167.213 172.279 167.398 173.169 167.398C173.785 167.398 174.343 167.312 174.845 167.142C175.347 166.972 175.778 166.721 176.138 166.389C176.498 166.058 176.768 165.651 176.947 165.168L183.325 165.352C183.06 166.782 182.478 168.027 181.578 169.088C180.688 170.139 179.518 170.958 178.07 171.545C176.621 172.123 174.945 172.412 173.041 172.412ZM186.944 180.182V150.182H193.819V153.918H194.032C194.316 153.255 194.719 152.616 195.239 152C195.77 151.384 196.442 150.883 197.256 150.494C198.08 150.097 199.065 149.898 200.211 149.898C201.726 149.898 203.142 150.295 204.458 151.091C205.784 151.886 206.854 153.113 207.668 154.77C208.483 156.427 208.89 158.539 208.89 161.105C208.89 163.577 208.497 165.646 207.711 167.312C206.934 168.979 205.883 170.229 204.558 171.062C203.241 171.896 201.778 172.312 200.168 172.312C199.07 172.312 198.118 172.133 197.313 171.773C196.508 171.413 195.831 170.939 195.282 170.352C194.742 169.765 194.326 169.135 194.032 168.463H193.89V180.182H186.944ZM193.748 161.091C193.748 162.265 193.904 163.288 194.217 164.159C194.539 165.03 194.998 165.707 195.594 166.19C196.201 166.664 196.925 166.901 197.768 166.901C198.62 166.901 199.344 166.664 199.941 166.19C200.538 165.707 200.987 165.03 201.29 164.159C201.603 163.288 201.759 162.265 201.759 161.091C201.759 159.917 201.603 158.899 201.29 158.037C200.987 157.175 200.538 156.508 199.941 156.034C199.354 155.561 198.629 155.324 197.768 155.324C196.915 155.324 196.191 155.556 195.594 156.02C194.998 156.484 194.539 157.147 194.217 158.009C193.904 158.87 193.748 159.898 193.748 161.091ZM218.68 172.369C217.288 172.369 216.053 172.137 214.973 171.673C213.903 171.2 213.055 170.49 212.43 169.543C211.815 168.586 211.507 167.388 211.507 165.949C211.507 164.737 211.72 163.714 212.146 162.881C212.572 162.047 213.16 161.37 213.908 160.849C214.656 160.329 215.518 159.936 216.493 159.67C217.468 159.396 218.51 159.211 219.618 159.116C220.858 159.003 221.857 158.884 222.615 158.761C223.373 158.629 223.922 158.444 224.263 158.207C224.613 157.961 224.788 157.616 224.788 157.17V157.099C224.788 156.37 224.537 155.807 224.036 155.409C223.534 155.011 222.857 154.812 222.004 154.812C221.086 154.812 220.347 155.011 219.788 155.409C219.23 155.807 218.875 156.356 218.723 157.057L212.317 156.83C212.506 155.504 212.994 154.32 213.78 153.278C214.575 152.227 215.664 151.403 217.047 150.807C218.439 150.201 220.11 149.898 222.061 149.898C223.453 149.898 224.736 150.063 225.911 150.395C227.085 150.717 228.107 151.19 228.979 151.815C229.85 152.431 230.522 153.188 230.996 154.088C231.479 154.988 231.72 156.015 231.72 157.17V172H225.186V168.96H225.016C224.627 169.699 224.13 170.324 223.524 170.835C222.928 171.347 222.222 171.73 221.408 171.986C220.603 172.241 219.694 172.369 218.68 172.369ZM220.825 167.824C221.573 167.824 222.246 167.672 222.842 167.369C223.448 167.066 223.931 166.65 224.291 166.119C224.651 165.58 224.831 164.955 224.831 164.244V162.17C224.632 162.275 224.391 162.369 224.107 162.455C223.832 162.54 223.529 162.62 223.197 162.696C222.866 162.772 222.525 162.838 222.175 162.895C221.824 162.952 221.488 163.004 221.166 163.051C220.513 163.155 219.954 163.316 219.49 163.534C219.036 163.752 218.685 164.036 218.439 164.386C218.202 164.727 218.084 165.134 218.084 165.608C218.084 166.328 218.339 166.877 218.851 167.256C219.372 167.634 220.03 167.824 220.825 167.824ZM234.039 155.494V150.182H254.494V155.494H247.519V172H240.928V155.494H234.039ZM262.05 180.182C261.217 180.182 260.431 180.116 259.692 179.983C258.954 179.86 258.319 179.694 257.789 179.486L259.323 174.443C260.005 174.67 260.621 174.803 261.17 174.841C261.728 174.879 262.207 174.789 262.604 174.571C263.012 174.363 263.324 173.989 263.542 173.449L263.812 172.795L256.056 150.182H263.329L267.349 165.75H267.576L271.653 150.182H278.968L270.744 174.088C270.346 175.281 269.782 176.332 269.053 177.241C268.334 178.16 267.401 178.88 266.255 179.401C265.119 179.921 263.717 180.182 262.05 180.182ZM281.631 180.182V150.182H288.506V153.918H288.719C289.004 153.255 289.406 152.616 289.927 152C290.457 151.384 291.129 150.883 291.944 150.494C292.768 150.097 293.753 149.898 294.898 149.898C296.414 149.898 297.829 150.295 299.146 151.091C300.471 151.886 301.541 153.113 302.356 154.77C303.17 156.427 303.577 158.539 303.577 161.105C303.577 163.577 303.184 165.646 302.398 167.312C301.622 168.979 300.571 170.229 299.245 171.062C297.929 171.896 296.466 172.312 294.856 172.312C293.757 172.312 292.806 172.133 292.001 171.773C291.196 171.413 290.519 170.939 289.969 170.352C289.43 169.765 289.013 169.135 288.719 168.463H288.577V180.182H281.631ZM288.435 161.091C288.435 162.265 288.592 163.288 288.904 164.159C289.226 165.03 289.685 165.707 290.282 166.19C290.888 166.664 291.612 166.901 292.455 166.901C293.308 166.901 294.032 166.664 294.629 166.19C295.225 165.707 295.675 165.03 295.978 164.159C296.29 163.288 296.447 162.265 296.447 161.091C296.447 159.917 296.29 158.899 295.978 158.037C295.675 157.175 295.225 156.508 294.629 156.034C294.041 155.561 293.317 155.324 292.455 155.324C291.603 155.324 290.879 155.556 290.282 156.02C289.685 156.484 289.226 157.147 288.904 158.009C288.592 158.87 288.435 159.898 288.435 161.091ZM371.28 172.412C370.257 172.412 369.381 172.052 368.652 171.332C367.932 170.613 367.577 169.741 367.587 168.719C367.577 167.715 367.932 166.858 368.652 166.148C369.381 165.428 370.257 165.068 371.28 165.068C372.246 165.068 373.098 165.428 373.837 166.148C374.585 166.858 374.964 167.715 374.973 168.719C374.964 169.401 374.784 170.021 374.433 170.58C374.092 171.138 373.643 171.583 373.084 171.915C372.535 172.246 371.933 172.412 371.28 172.412ZM371.28 157.44C370.257 157.44 369.381 157.085 368.652 156.375C367.932 155.655 367.577 154.779 367.587 153.747C367.577 152.743 367.932 151.886 368.652 151.176C369.381 150.456 370.257 150.097 371.28 150.097C372.246 150.097 373.098 150.456 373.837 151.176C374.585 151.886 374.964 152.743 374.973 153.747C374.964 154.429 374.784 155.049 374.433 155.608C374.092 156.167 373.643 156.612 373.084 156.943C372.535 157.275 371.933 157.44 371.28 157.44ZM402.118 154.784V160.125H388.652V154.784H402.118ZM420.417 142.909V172H413.4V149.472H413.229L406.724 153.449V147.369L413.897 142.909H420.417ZM428.084 172L439.817 148.761V148.577H426.095V142.909H447.089V148.619L435.314 172H428.084ZM461.351 172.398C459.135 172.398 457.17 172.019 455.456 171.261C453.751 170.494 452.407 169.438 451.422 168.094C450.437 166.749 449.935 165.201 449.916 163.449H456.99C457.018 164.083 457.222 164.647 457.601 165.139C457.98 165.622 458.496 166.001 459.149 166.276C459.803 166.55 460.546 166.688 461.379 166.688C462.213 166.688 462.946 166.541 463.581 166.247C464.225 165.944 464.727 165.532 465.087 165.011C465.446 164.481 465.622 163.875 465.612 163.193C465.622 162.511 465.428 161.905 465.03 161.375C464.632 160.845 464.069 160.433 463.339 160.139C462.62 159.846 461.768 159.699 460.783 159.699H457.956V154.699H460.783C461.644 154.699 462.402 154.557 463.055 154.273C463.718 153.989 464.234 153.591 464.604 153.08C464.973 152.559 465.153 151.962 465.143 151.29C465.153 150.636 464.997 150.063 464.675 149.571C464.362 149.069 463.922 148.681 463.354 148.406C462.795 148.132 462.146 147.994 461.408 147.994C460.631 147.994 459.926 148.132 459.291 148.406C458.666 148.681 458.169 149.069 457.8 149.571C457.43 150.073 457.236 150.655 457.217 151.318H450.499C450.518 149.585 451 148.061 451.947 146.744C452.894 145.419 454.182 144.382 455.811 143.634C457.449 142.885 459.315 142.511 461.408 142.511C463.491 142.511 465.323 142.876 466.905 143.605C468.486 144.334 469.717 145.329 470.598 146.588C471.479 147.838 471.919 149.254 471.919 150.835C471.929 152.473 471.393 153.823 470.314 154.884C469.244 155.944 467.866 156.598 466.18 156.844V157.071C468.434 157.336 470.134 158.065 471.28 159.259C472.435 160.452 473.008 161.943 472.999 163.733C472.999 165.419 472.501 166.915 471.507 168.222C470.522 169.519 469.149 170.542 467.388 171.29C465.636 172.028 463.624 172.398 461.351 172.398ZM502.803 172.298L499.138 168.662L507.675 160.125H488.414V154.784H507.675L499.138 146.261L502.803 142.611L517.647 157.455L502.803 172.298ZM541.038 167.795V147.227H546.763V167.795H541.038ZM533.609 160.381V154.642H554.178V160.381H533.609ZM559.423 167.17V161.688L571.34 142.909H576.212V150.352H573.386L566.411 161.403V161.631H583.67V167.17H559.423ZM573.471 172V165.494L573.613 163.094V142.909H580.19V172H573.471ZM587.356 172V166.943L597.967 157.653C598.762 156.934 599.439 156.276 599.998 155.679C600.557 155.073 600.983 154.467 601.276 153.861C601.57 153.245 601.717 152.578 601.717 151.858C601.717 151.053 601.541 150.366 601.191 149.798C600.841 149.221 600.358 148.776 599.742 148.463C599.127 148.151 598.421 147.994 597.626 147.994C596.821 147.994 596.115 148.16 595.509 148.491C594.903 148.813 594.43 149.282 594.089 149.898C593.757 150.513 593.592 151.261 593.592 152.142H586.93C586.93 150.163 587.375 148.454 588.265 147.014C589.155 145.575 590.405 144.467 592.015 143.69C593.634 142.904 595.514 142.511 597.654 142.511C599.861 142.511 601.778 142.881 603.407 143.619C605.036 144.358 606.295 145.39 607.185 146.716C608.085 148.032 608.535 149.562 608.535 151.304C608.535 152.412 608.312 153.51 607.867 154.599C607.422 155.688 606.622 156.891 605.467 158.207C604.321 159.524 602.692 161.1 600.58 162.938L597.1 166.148V166.332H608.89V172H587.356ZM614.099 172L625.832 148.761V148.577H612.111V142.909H633.105V148.619L621.33 172H614.099ZM652.647 156.972C651.331 156.972 650.133 156.654 649.053 156.02C647.974 155.376 647.112 154.514 646.468 153.435C645.834 152.355 645.516 151.162 645.516 149.855C645.516 148.539 645.834 147.341 646.468 146.261C647.112 145.182 647.974 144.325 649.053 143.69C650.133 143.046 651.331 142.724 652.647 142.724C653.963 142.724 655.156 143.046 656.227 143.69C657.306 144.325 658.163 145.182 658.798 146.261C659.442 147.341 659.763 148.539 659.763 149.855C659.763 151.162 659.442 152.355 658.798 153.435C658.163 154.514 657.306 155.376 656.227 156.02C655.156 156.654 653.963 156.972 652.647 156.972ZM652.647 152.54C653.139 152.54 653.589 152.421 653.996 152.185C654.404 151.938 654.726 151.612 654.962 151.205C655.209 150.797 655.332 150.348 655.332 149.855C655.332 149.353 655.209 148.899 654.962 148.491C654.726 148.084 654.404 147.762 653.996 147.526C653.589 147.279 653.139 147.156 652.647 147.156C652.145 147.156 651.691 147.279 651.283 147.526C650.876 147.762 650.549 148.084 650.303 148.491C650.067 148.899 649.948 149.348 649.948 149.841C649.948 150.343 650.067 150.802 650.303 151.219C650.549 151.626 650.876 151.948 651.283 152.185C651.7 152.421 652.155 152.54 652.647 152.54ZM690.46 153.449H683.357C683.263 152.72 683.068 152.062 682.775 151.474C682.481 150.887 682.093 150.385 681.61 149.969C681.127 149.552 680.554 149.235 679.891 149.017C679.238 148.79 678.513 148.676 677.718 148.676C676.307 148.676 675.09 149.022 674.067 149.713C673.054 150.404 672.273 151.403 671.724 152.71C671.184 154.017 670.914 155.598 670.914 157.455C670.914 159.386 671.189 161.006 671.738 162.312C672.297 163.61 673.078 164.59 674.082 165.253C675.095 165.906 676.293 166.233 677.675 166.233C678.452 166.233 679.157 166.134 679.792 165.935C680.436 165.736 680.999 165.447 681.482 165.068C681.975 164.68 682.377 164.211 682.69 163.662C683.012 163.103 683.234 162.473 683.357 161.773L690.46 161.815C690.336 163.103 689.962 164.372 689.337 165.622C688.722 166.872 687.874 168.013 686.795 169.045C685.715 170.068 684.399 170.883 682.846 171.489C681.302 172.095 679.531 172.398 677.533 172.398C674.901 172.398 672.543 171.82 670.46 170.665C668.386 169.5 666.747 167.805 665.545 165.58C664.342 163.354 663.741 160.646 663.741 157.455C663.741 154.254 664.352 151.541 665.573 149.315C666.795 147.09 668.447 145.4 670.531 144.244C672.614 143.089 674.948 142.511 677.533 142.511C679.295 142.511 680.924 142.758 682.42 143.25C683.916 143.733 685.232 144.443 686.369 145.381C687.505 146.309 688.428 147.45 689.138 148.804C689.849 150.158 690.289 151.706 690.46 153.449ZM58.5312 227.003V214.517H60.5341C61.2064 214.062 61.822 213.428 62.3807 212.614C62.9394 211.79 63.4176 210.634 63.8153 209.148C64.2131 207.652 64.4972 205.677 64.6676 203.224L65.5767 190.909H85.4773V214.517H88.6023V226.989H81.8409V220H65.2926V227.003H58.5312ZM68.6023 214.517H78.7159V196.619H71.8835L71.429 203.224C71.3059 205.071 71.107 206.7 70.8324 208.111C70.5578 209.522 70.2311 210.753 69.8523 211.804C69.4735 212.846 69.0568 213.75 68.6023 214.517ZM97.9773 220.369C96.5852 220.369 95.3494 220.137 94.2699 219.673C93.1998 219.2 92.3523 218.49 91.7273 217.543C91.1117 216.586 90.804 215.388 90.804 213.949C90.804 212.737 91.017 211.714 91.4432 210.881C91.8693 210.047 92.4564 209.37 93.2045 208.849C93.9527 208.329 94.8144 207.936 95.7898 207.67C96.7652 207.396 97.8068 207.211 98.9148 207.116C100.155 207.003 101.154 206.884 101.912 206.761C102.67 206.629 103.219 206.444 103.56 206.207C103.91 205.961 104.085 205.616 104.085 205.17V205.099C104.085 204.37 103.834 203.807 103.332 203.409C102.83 203.011 102.153 202.812 101.301 202.812C100.383 202.812 99.6439 203.011 99.0852 203.409C98.5265 203.807 98.1714 204.356 98.0199 205.057L91.6136 204.83C91.803 203.504 92.2907 202.32 93.0767 201.278C93.8722 200.227 94.9612 199.403 96.3438 198.807C97.7358 198.201 99.4072 197.898 101.358 197.898C102.75 197.898 104.033 198.063 105.207 198.395C106.382 198.717 107.404 199.19 108.276 199.815C109.147 200.431 109.819 201.188 110.293 202.088C110.776 202.988 111.017 204.015 111.017 205.17V220H104.483V216.96H104.312C103.924 217.699 103.427 218.324 102.821 218.835C102.224 219.347 101.519 219.73 100.705 219.986C99.8996 220.241 98.9905 220.369 97.9773 220.369ZM100.122 215.824C100.87 215.824 101.543 215.672 102.139 215.369C102.745 215.066 103.228 214.65 103.588 214.119C103.948 213.58 104.128 212.955 104.128 212.244V210.17C103.929 210.275 103.688 210.369 103.403 210.455C103.129 210.54 102.826 210.62 102.494 210.696C102.163 210.772 101.822 210.838 101.472 210.895C101.121 210.952 100.785 211.004 100.463 211.051C99.8097 211.155 99.2509 211.316 98.7869 211.534C98.3324 211.752 97.982 212.036 97.7358 212.386C97.4991 212.727 97.3807 213.134 97.3807 213.608C97.3807 214.328 97.6364 214.877 98.1477 215.256C98.6686 215.634 99.3267 215.824 100.122 215.824ZM130.69 198.182V203.494H121.983V220H115.264V198.182H130.69ZM138.222 228.182C137.389 228.182 136.603 228.116 135.864 227.983C135.126 227.86 134.491 227.694 133.961 227.486L135.495 222.443C136.177 222.67 136.792 222.803 137.342 222.841C137.9 222.879 138.379 222.789 138.776 222.571C139.183 222.363 139.496 221.989 139.714 221.449L139.984 220.795L132.228 198.182H139.501L143.521 213.75H143.748L147.825 198.182H155.14L146.915 222.088C146.518 223.281 145.954 224.332 145.225 225.241C144.505 226.16 143.573 226.88 142.427 227.401C141.29 227.921 139.889 228.182 138.222 228.182ZM162.05 228.182C161.217 228.182 160.431 228.116 159.692 227.983C158.954 227.86 158.319 227.694 157.789 227.486L159.323 222.443C160.005 222.67 160.621 222.803 161.17 222.841C161.728 222.879 162.207 222.789 162.604 222.571C163.012 222.363 163.324 221.989 163.542 221.449L163.812 220.795L156.056 198.182H163.329L167.349 213.75H167.576L171.653 198.182H178.968L170.744 222.088C170.346 223.281 169.782 224.332 169.053 225.241C168.334 226.16 167.401 226.88 166.255 227.401C165.119 227.921 163.717 228.182 162.05 228.182ZM178.808 220L178.766 214.645H179.462C179.935 214.645 180.347 214.522 180.697 214.276C181.048 214.029 181.341 213.636 181.578 213.097C181.815 212.547 182.004 211.842 182.146 210.98C182.288 210.118 182.378 209.072 182.416 207.841L182.771 198.182H200.044V220H193.467V203.494H188.95L188.609 209.773C188.524 211.619 188.283 213.196 187.885 214.503C187.497 215.8 186.966 216.851 186.294 217.656C185.631 218.461 184.845 219.053 183.936 219.432C183.027 219.811 182 220 180.854 220H178.808ZM208.364 204.489H214.984C217.986 204.489 220.339 205.194 222.043 206.605C223.748 208.007 224.605 209.91 224.614 212.315C224.605 213.878 224.212 215.237 223.435 216.392C222.668 217.538 221.565 218.428 220.126 219.062C218.696 219.688 216.982 220 214.984 220H204.288V198.182H210.864V214.688H214.984C215.893 214.688 216.641 214.465 217.228 214.02C217.815 213.575 218.113 213.002 218.123 212.301C218.113 211.562 217.815 210.961 217.228 210.497C216.641 210.033 215.893 209.801 214.984 209.801H208.364V204.489ZM226.575 220V198.182H233.521V220H226.575ZM253.304 206.378V211.676H242.111V206.378H253.304ZM244.497 198.182V220H237.92V198.182H244.497ZM257.494 198.182V220H250.96V198.182H257.494ZM269.195 203.494V198.182H289.65V203.494H282.675V220H276.085V203.494H269.195ZM302.48 220.412C300.188 220.412 298.219 219.943 296.571 219.006C294.933 218.059 293.669 216.742 292.778 215.057C291.898 213.362 291.457 211.397 291.457 209.162C291.457 206.918 291.898 204.953 292.778 203.267C293.669 201.572 294.933 200.256 296.571 199.318C298.219 198.371 300.188 197.898 302.48 197.898C304.772 197.898 306.737 198.371 308.375 199.318C310.023 200.256 311.287 201.572 312.168 203.267C313.058 204.953 313.503 206.918 313.503 209.162C313.503 211.397 313.058 213.362 312.168 215.057C311.287 216.742 310.023 218.059 308.375 219.006C306.737 219.943 304.772 220.412 302.48 220.412ZM302.523 215.17C303.356 215.17 304.062 214.915 304.639 214.403C305.217 213.892 305.657 213.182 305.96 212.273C306.273 211.364 306.429 210.312 306.429 209.119C306.429 207.907 306.273 206.847 305.96 205.938C305.657 205.028 305.217 204.318 304.639 203.807C304.062 203.295 303.356 203.04 302.523 203.04C301.661 203.04 300.932 203.295 300.335 203.807C299.748 204.318 299.298 205.028 298.986 205.938C298.683 206.847 298.531 207.907 298.531 209.119C298.531 210.312 298.683 211.364 298.986 212.273C299.298 213.182 299.748 213.892 300.335 214.403C300.932 214.915 301.661 215.17 302.523 215.17ZM327.246 220.412C324.954 220.412 322.984 219.943 321.337 219.006C319.698 218.059 318.434 216.742 317.544 215.057C316.663 213.362 316.223 211.397 316.223 209.162C316.223 206.918 316.663 204.953 317.544 203.267C318.434 201.572 319.698 200.256 321.337 199.318C322.984 198.371 324.954 197.898 327.246 197.898C329.537 197.898 331.502 198.371 333.141 199.318C334.788 200.256 336.053 201.572 336.933 203.267C337.823 204.953 338.268 206.918 338.268 209.162C338.268 211.397 337.823 213.362 336.933 215.057C336.053 216.742 334.788 218.059 333.141 219.006C331.502 219.943 329.537 220.412 327.246 220.412ZM327.288 215.17C328.122 215.17 328.827 214.915 329.405 214.403C329.982 213.892 330.423 213.182 330.726 212.273C331.038 211.364 331.195 210.312 331.195 209.119C331.195 207.907 331.038 206.847 330.726 205.938C330.423 205.028 329.982 204.318 329.405 203.807C328.827 203.295 328.122 203.04 327.288 203.04C326.427 203.04 325.697 203.295 325.101 203.807C324.514 204.318 324.064 205.028 323.751 205.938C323.448 206.847 323.297 207.907 323.297 209.119C323.297 210.312 323.448 211.364 323.751 212.273C324.064 213.182 324.514 213.892 325.101 214.403C325.697 214.915 326.427 215.17 327.288 215.17ZM371.514 216.733C370.491 216.733 369.616 216.373 368.886 215.653C368.167 214.934 367.812 214.062 367.821 213.04C367.812 212.036 368.167 211.179 368.886 210.469C369.616 209.749 370.491 209.389 371.514 209.389C372.48 209.389 373.332 209.749 374.071 210.469C374.819 211.179 375.198 212.036 375.207 213.04C375.198 213.722 375.018 214.342 374.668 214.901C374.327 215.459 373.877 215.904 373.318 216.236C372.769 216.567 372.168 216.733 371.514 216.733ZM371.514 202.614C370.491 202.614 369.616 202.254 368.886 201.534C368.167 200.814 367.812 199.943 367.821 198.92C367.812 197.917 368.167 197.06 368.886 196.349C369.616 195.63 370.491 195.27 371.514 195.27C372.48 195.27 373.332 195.63 374.071 196.349C374.819 197.06 375.198 197.917 375.207 198.92C375.198 199.602 375.018 200.223 374.668 200.781C374.327 201.34 373.877 201.785 373.318 202.116C372.769 202.448 372.168 202.614 371.514 202.614ZM400.364 220.71C397.826 220.71 395.638 220.109 393.801 218.906C391.964 217.694 390.548 215.956 389.554 213.693C388.56 211.42 388.067 208.688 388.077 205.497C388.086 202.306 388.583 199.598 389.568 197.372C390.563 195.137 391.973 193.437 393.801 192.273C395.638 191.098 397.826 190.511 400.364 190.511C402.902 190.511 405.089 191.098 406.926 192.273C408.773 193.437 410.193 195.137 411.188 197.372C412.182 199.607 412.674 202.315 412.665 205.497C412.665 208.698 412.168 211.435 411.173 213.707C410.179 215.98 408.763 217.718 406.926 218.92C405.098 220.114 402.911 220.71 400.364 220.71ZM400.364 214.957C401.879 214.957 403.105 214.186 404.043 212.642C404.98 211.089 405.444 208.707 405.435 205.497C405.435 203.395 405.222 201.662 404.795 200.298C404.369 198.925 403.777 197.902 403.02 197.23C402.262 196.558 401.377 196.222 400.364 196.222C398.858 196.222 397.641 196.984 396.713 198.509C395.785 200.024 395.316 202.353 395.307 205.497C395.297 207.628 395.501 209.394 395.918 210.795C396.344 212.197 396.94 213.243 397.707 213.935C398.474 214.616 399.36 214.957 400.364 214.957ZM58.5312 275.003V262.517H60.5341C61.2064 262.062 61.822 261.428 62.3807 260.614C62.9394 259.79 63.4176 258.634 63.8153 257.148C64.2131 255.652 64.4972 253.677 64.6676 251.224L65.5767 238.909H85.4773V262.517H88.6023V274.989H81.8409V268H65.2926V275.003H58.5312ZM68.6023 262.517H78.7159V244.619H71.8835L71.429 251.224C71.3059 253.071 71.107 254.7 70.8324 256.111C70.5578 257.522 70.2311 258.753 69.8523 259.804C69.4735 260.846 69.0568 261.75 68.6023 262.517ZM98.4034 259.009L105.378 246.182H112.054V268H105.477V255.131L98.517 268H91.8267V246.182H98.4034V259.009ZM122.626 268.369C121.234 268.369 119.998 268.137 118.918 267.673C117.848 267.2 117.001 266.49 116.376 265.543C115.76 264.586 115.452 263.388 115.452 261.949C115.452 260.737 115.665 259.714 116.092 258.881C116.518 258.047 117.105 257.37 117.853 256.849C118.601 256.329 119.463 255.936 120.438 255.67C121.414 255.396 122.455 255.211 123.563 255.116C124.804 255.003 125.803 254.884 126.56 254.761C127.318 254.629 127.867 254.444 128.208 254.207C128.558 253.961 128.734 253.616 128.734 253.17V253.099C128.734 252.37 128.483 251.807 127.981 251.409C127.479 251.011 126.802 250.812 125.95 250.812C125.031 250.812 124.292 251.011 123.734 251.409C123.175 251.807 122.82 252.356 122.668 253.057L116.262 252.83C116.451 251.504 116.939 250.32 117.725 249.278C118.521 248.227 119.61 247.403 120.992 246.807C122.384 246.201 124.056 245.898 126.006 245.898C127.398 245.898 128.682 246.063 129.856 246.395C131.03 246.717 132.053 247.19 132.924 247.815C133.795 248.431 134.468 249.188 134.941 250.088C135.424 250.988 135.665 252.015 135.665 253.17V268H129.131V264.96H128.961C128.573 265.699 128.076 266.324 127.469 266.835C126.873 267.347 126.167 267.73 125.353 267.986C124.548 268.241 123.639 268.369 122.626 268.369ZM124.771 263.824C125.519 263.824 126.191 263.672 126.788 263.369C127.394 263.066 127.877 262.65 128.237 262.119C128.596 261.58 128.776 260.955 128.776 260.244V258.17C128.577 258.275 128.336 258.369 128.052 258.455C127.777 258.54 127.474 258.62 127.143 258.696C126.811 258.772 126.47 258.838 126.12 258.895C125.77 258.952 125.433 259.004 125.112 259.051C124.458 259.155 123.899 259.316 123.435 259.534C122.981 259.752 122.63 260.036 122.384 260.386C122.147 260.727 122.029 261.134 122.029 261.608C122.029 262.328 122.285 262.877 122.796 263.256C123.317 263.634 123.975 263.824 124.771 263.824ZM153.123 260.585L158.464 246.182H163.549L155.353 268H150.893L142.91 246.182H147.981L153.123 260.585ZM146.489 246.182V268H139.913V246.182H146.489ZM160.154 268V246.182H166.646V268H160.154ZM181.049 268.412C178.767 268.412 176.797 267.962 175.14 267.062C173.492 266.153 172.223 264.861 171.333 263.185C170.452 261.499 170.012 259.496 170.012 257.176C170.012 254.922 170.457 252.953 171.347 251.267C172.237 249.572 173.492 248.256 175.112 247.318C176.731 246.371 178.639 245.898 180.836 245.898C182.389 245.898 183.809 246.139 185.097 246.622C186.385 247.105 187.498 247.82 188.435 248.767C189.373 249.714 190.102 250.884 190.623 252.276C191.144 253.658 191.404 255.244 191.404 257.034V258.767H172.441V254.733H184.941C184.932 253.994 184.756 253.336 184.415 252.759C184.075 252.181 183.606 251.731 183.009 251.409C182.422 251.078 181.745 250.912 180.978 250.912C180.201 250.912 179.505 251.087 178.89 251.438C178.274 251.778 177.787 252.247 177.427 252.844C177.067 253.431 176.878 254.098 176.859 254.847V258.952C176.859 259.842 177.034 260.623 177.384 261.295C177.735 261.958 178.232 262.474 178.876 262.844C179.52 263.213 180.287 263.398 181.177 263.398C181.792 263.398 182.351 263.312 182.853 263.142C183.355 262.972 183.786 262.721 184.146 262.389C184.505 262.058 184.775 261.651 184.955 261.168L191.333 261.352C191.068 262.782 190.486 264.027 189.586 265.088C188.696 266.139 187.526 266.958 186.077 267.545C184.629 268.123 182.952 268.412 181.049 268.412ZM193.375 251.494V246.182H213.83V251.494H206.855V268H200.264V251.494H193.375ZM217.139 276.182V246.182H224.014V249.918H224.227C224.511 249.255 224.914 248.616 225.435 248C225.965 247.384 226.637 246.883 227.452 246.494C228.276 246.097 229.26 245.898 230.406 245.898C231.921 245.898 233.337 246.295 234.653 247.091C235.979 247.886 237.049 249.113 237.864 250.77C238.678 252.427 239.085 254.539 239.085 257.105C239.085 259.577 238.692 261.646 237.906 263.312C237.13 264.979 236.079 266.229 234.753 267.062C233.437 267.896 231.973 268.312 230.364 268.312C229.265 268.312 228.313 268.133 227.509 267.773C226.704 267.413 226.027 266.939 225.477 266.352C224.938 265.765 224.521 265.135 224.227 264.463H224.085V276.182H217.139ZM223.943 257.091C223.943 258.265 224.099 259.288 224.412 260.159C224.734 261.03 225.193 261.707 225.79 262.19C226.396 262.664 227.12 262.901 227.963 262.901C228.815 262.901 229.54 262.664 230.136 262.19C230.733 261.707 231.183 261.03 231.486 260.159C231.798 259.288 231.955 258.265 231.955 257.091C231.955 255.917 231.798 254.899 231.486 254.037C231.183 253.175 230.733 252.508 230.136 252.034C229.549 251.561 228.825 251.324 227.963 251.324C227.111 251.324 226.386 251.556 225.79 252.02C225.193 252.484 224.734 253.147 224.412 254.009C224.099 254.87 223.943 255.898 223.943 257.091ZM366.944 264.733C365.921 264.733 365.045 264.373 364.316 263.653C363.596 262.934 363.241 262.062 363.251 261.04C363.241 260.036 363.596 259.179 364.316 258.469C365.045 257.749 365.921 257.389 366.944 257.389C367.91 257.389 368.762 257.749 369.501 258.469C370.249 259.179 370.628 260.036 370.637 261.04C370.628 261.722 370.448 262.342 370.097 262.901C369.756 263.459 369.307 263.904 368.748 264.236C368.199 264.567 367.597 264.733 366.944 264.733ZM366.944 250.614C365.921 250.614 365.045 250.254 364.316 249.534C363.596 248.814 363.241 247.943 363.251 246.92C363.241 245.917 363.596 245.06 364.316 244.349C365.045 243.63 365.921 243.27 366.944 243.27C367.91 243.27 368.762 243.63 369.501 244.349C370.249 245.06 370.628 245.917 370.637 246.92C370.628 247.602 370.448 248.223 370.097 248.781C369.756 249.34 369.307 249.785 368.748 250.116C368.199 250.448 367.597 250.614 366.944 250.614ZM383.407 263.17V257.688L395.325 238.909H400.197V246.352H397.37L390.396 257.403V257.631H407.654V263.17H383.407ZM397.455 268V261.494L397.597 259.094V238.909H404.174V268H397.455ZM418.212 264.023L418.084 265.599C417.97 266.906 417.738 268.18 417.388 269.42C417.047 270.67 416.682 271.793 416.294 272.787C415.906 273.781 415.598 274.553 415.371 275.102H410.996C411.147 274.553 411.351 273.781 411.607 272.787C411.872 271.793 412.118 270.67 412.345 269.42C412.572 268.17 412.7 266.902 412.729 265.614L412.757 264.023H418.212ZM433.602 268.398C431.339 268.398 429.317 268.038 427.537 267.318C425.766 266.589 424.374 265.604 423.361 264.364C422.357 263.114 421.855 261.703 421.855 260.131C421.855 258.928 422.144 257.825 422.722 256.821C423.299 255.817 424.08 254.984 425.065 254.321C426.06 253.649 427.168 253.218 428.389 253.028V252.801C426.789 252.508 425.477 251.764 424.455 250.571C423.441 249.378 422.935 247.981 422.935 246.381C422.935 244.866 423.394 243.516 424.312 242.332C425.241 241.149 426.505 240.216 428.105 239.534C429.715 238.852 431.547 238.511 433.602 238.511C435.657 238.511 437.485 238.852 439.085 239.534C440.695 240.216 441.959 241.149 442.878 242.332C443.806 243.516 444.27 244.866 444.27 246.381C444.27 247.991 443.754 249.392 442.722 250.585C441.699 251.769 440.397 252.508 438.815 252.801V253.028C440.027 253.218 441.126 253.649 442.111 254.321C443.105 254.984 443.891 255.817 444.469 256.821C445.056 257.825 445.349 258.928 445.349 260.131C445.349 261.703 444.843 263.114 443.83 264.364C442.816 265.604 441.424 266.589 439.653 267.318C437.892 268.038 435.875 268.398 433.602 268.398ZM433.602 263.412C434.464 263.412 435.222 263.251 435.875 262.929C436.528 262.598 437.04 262.138 437.409 261.551C437.788 260.964 437.977 260.301 437.977 259.562C437.977 258.805 437.788 258.133 437.409 257.545C437.03 256.958 436.509 256.499 435.847 256.168C435.193 255.827 434.445 255.656 433.602 255.656C432.769 255.656 432.021 255.827 431.358 256.168C430.695 256.499 430.174 256.958 429.795 257.545C429.417 258.133 429.227 258.805 429.227 259.562C429.227 260.301 429.412 260.964 429.781 261.551C430.16 262.129 430.676 262.583 431.33 262.915C431.992 263.246 432.75 263.412 433.602 263.412ZM433.602 250.699C434.341 250.699 434.994 250.547 435.562 250.244C436.14 249.941 436.59 249.52 436.912 248.98C437.243 248.44 437.409 247.83 437.409 247.148C437.409 246.466 437.243 245.865 436.912 245.344C436.59 244.823 436.145 244.416 435.577 244.122C435.009 243.819 434.35 243.668 433.602 243.668C432.864 243.668 432.205 243.819 431.628 244.122C431.05 244.416 430.6 244.823 430.278 245.344C429.956 245.865 429.795 246.466 429.795 247.148C429.795 247.83 429.956 248.44 430.278 248.98C430.61 249.51 431.064 249.932 431.642 250.244C432.22 250.547 432.873 250.699 433.602 250.699ZM450.506 268L462.239 244.761V244.577H448.517V238.909H469.511V244.619L457.736 268H450.506ZM483.933 238.511C485.523 238.511 487.043 238.772 488.492 239.293C489.941 239.804 491.234 240.623 492.37 241.75C493.506 242.867 494.401 244.34 495.055 246.168C495.708 247.995 496.035 250.225 496.035 252.858C496.044 255.282 495.76 257.455 495.183 259.378C494.605 261.291 493.776 262.92 492.697 264.264C491.627 265.609 490.339 266.636 488.833 267.347C487.327 268.047 485.647 268.398 483.79 268.398C481.745 268.398 479.941 268.005 478.379 267.219C476.826 266.423 475.58 265.353 474.643 264.009C473.715 262.664 473.161 261.158 472.981 259.491H479.898C480.116 260.457 480.576 261.187 481.276 261.679C481.977 262.162 482.815 262.403 483.79 262.403C485.571 262.403 486.901 261.632 487.782 260.088C488.663 258.545 489.103 256.447 489.103 253.795H488.933C488.525 254.667 487.948 255.415 487.2 256.04C486.461 256.665 485.604 257.143 484.629 257.474C483.653 257.806 482.626 257.972 481.546 257.972C479.804 257.972 478.265 257.574 476.93 256.778C475.604 255.983 474.562 254.889 473.805 253.497C473.057 252.105 472.678 250.514 472.668 248.724C472.659 246.717 473.128 244.946 474.075 243.412C475.022 241.868 476.343 240.666 478.038 239.804C479.733 238.933 481.698 238.502 483.933 238.511ZM483.975 243.909C483.104 243.909 482.327 244.113 481.646 244.52C480.973 244.927 480.443 245.476 480.055 246.168C479.666 246.859 479.477 247.635 479.487 248.497C479.496 249.359 479.69 250.135 480.069 250.827C480.457 251.518 480.983 252.067 481.646 252.474C482.318 252.882 483.085 253.085 483.947 253.085C484.591 253.085 485.187 252.967 485.737 252.73C486.286 252.493 486.764 252.167 487.171 251.75C487.578 251.324 487.896 250.831 488.123 250.273C488.36 249.714 488.473 249.117 488.464 248.483C488.454 247.64 488.255 246.873 487.867 246.182C487.479 245.491 486.944 244.941 486.262 244.534C485.59 244.117 484.827 243.909 483.975 243.909ZM508.545 268V246.182H515.491V254.307H517.026L522.324 246.182H530.364L523.02 257.105L530.435 268H522.295L517.509 260.756H515.491V268H508.545ZM545.818 260.585L551.159 246.182H556.244L548.048 268H543.588L535.605 246.182H540.676L545.818 260.585ZM539.185 246.182V268H532.608V246.182H539.185ZM552.849 268V246.182H559.341V268H552.849ZM59.7955 316V286.909H66.8267V298.585H78.2898V286.909H85.3068V316H78.2898V304.31H66.8267V316H59.7955ZM98.0696 299.253C97.4067 299.253 96.848 299.366 96.3935 299.594C95.9389 299.821 95.598 300.143 95.3707 300.56C95.1529 300.976 95.044 301.483 95.044 302.08H88.8793C88.8793 300.82 89.1065 299.684 89.5611 298.67C90.0156 297.648 90.6548 296.777 91.4787 296.057C92.312 295.328 93.2874 294.774 94.4048 294.395C95.5223 294.007 96.7438 293.812 98.0696 293.812C100.333 293.812 102.232 294.295 103.766 295.261C105.309 296.227 106.474 297.548 107.26 299.224C108.046 300.891 108.439 302.78 108.439 304.892V305.318C108.439 307.439 108.051 309.338 107.274 311.014C106.498 312.681 105.338 313.997 103.794 314.963C102.26 315.92 100.352 316.398 98.0696 316.398C96.2514 316.398 94.651 316.052 93.2685 315.361C91.8954 314.67 90.8205 313.666 90.044 312.349C89.2675 311.033 88.8793 309.438 88.8793 307.562H95.044C95.044 308.178 95.1529 308.741 95.3707 309.253C95.5885 309.755 95.92 310.157 96.3651 310.46C96.8196 310.754 97.3878 310.905 98.0696 310.915C99.1397 310.905 99.9446 310.612 100.484 310.034C101.034 309.456 101.398 308.737 101.578 307.875C101.768 307.013 101.862 306.161 101.862 305.318V304.892C101.862 303.926 101.763 303.017 101.564 302.165C101.375 301.303 101.005 300.602 100.456 300.062C99.9162 299.523 99.1207 299.253 98.0696 299.253ZM103.723 303.259V306.98H96.6349V303.259H103.723ZM127.448 294.182V299.494H118.741V316H112.022V294.182H127.448ZM156.386 303.188V306.994H142.636V303.188H156.386ZM149.511 316.412C147.22 316.412 145.25 315.943 143.602 315.006C141.964 314.059 140.7 312.742 139.81 311.057C138.929 309.362 138.489 307.397 138.489 305.162C138.489 302.918 138.929 300.953 139.81 299.267C140.7 297.572 141.964 296.256 143.602 295.318C145.25 294.371 147.22 293.898 149.511 293.898C151.803 293.898 153.768 294.371 155.406 295.318C157.054 296.256 158.318 297.572 159.199 299.267C160.089 300.953 160.534 302.918 160.534 305.162C160.534 307.397 160.089 309.362 159.199 311.057C158.318 312.742 157.054 314.059 155.406 315.006C153.768 315.943 151.803 316.412 149.511 316.412ZM149.554 311.17C150.387 311.17 151.093 310.915 151.67 310.403C152.248 309.892 152.688 309.182 152.991 308.273C153.304 307.364 153.46 306.312 153.46 305.119C153.46 303.907 153.304 302.847 152.991 301.938C152.688 301.028 152.248 300.318 151.67 299.807C151.093 299.295 150.387 299.04 149.554 299.04C148.692 299.04 147.963 299.295 147.366 299.807C146.779 300.318 146.33 301.028 146.017 301.938C145.714 302.847 145.562 303.907 145.562 305.119C145.562 306.312 145.714 307.364 146.017 308.273C146.33 309.182 146.779 309.892 147.366 310.403C147.963 310.915 148.692 311.17 149.554 311.17ZM162.587 322.435V310.645H164.22C164.713 310.399 165.106 309.925 165.399 309.224C165.693 308.514 165.925 307.686 166.095 306.739C166.275 305.782 166.408 304.788 166.493 303.756C166.588 302.714 166.673 301.734 166.749 300.815L167.26 294.182H184.93V310.645H188.339V322.435H181.749V316H169.348V322.435H162.587ZM170.982 310.645H178.453V299.352H173.055L172.942 300.815C172.809 303.164 172.601 305.134 172.317 306.724C172.033 308.315 171.588 309.622 170.982 310.645ZM208.613 303.188V306.994H194.863V303.188H208.613ZM201.738 316.412C199.446 316.412 197.477 315.943 195.829 315.006C194.191 314.059 192.926 312.742 192.036 311.057C191.156 309.362 190.715 307.397 190.715 305.162C190.715 302.918 191.156 300.953 192.036 299.267C192.926 297.572 194.191 296.256 195.829 295.318C197.477 294.371 199.446 293.898 201.738 293.898C204.03 293.898 205.995 294.371 207.633 295.318C209.281 296.256 210.545 297.572 211.425 299.267C212.316 300.953 212.761 302.918 212.761 305.162C212.761 307.397 212.316 309.362 211.425 311.057C210.545 312.742 209.281 314.059 207.633 315.006C205.995 315.943 204.03 316.412 201.738 316.412ZM201.781 311.17C202.614 311.17 203.319 310.915 203.897 310.403C204.475 309.892 204.915 309.182 205.218 308.273C205.531 307.364 205.687 306.312 205.687 305.119C205.687 303.907 205.531 302.847 205.218 301.938C204.915 301.028 204.475 300.318 203.897 299.807C203.319 299.295 202.614 299.04 201.781 299.04C200.919 299.04 200.19 299.295 199.593 299.807C199.006 300.318 198.556 301.028 198.244 301.938C197.941 302.847 197.789 303.907 197.789 305.119C197.789 306.312 197.941 307.364 198.244 308.273C198.556 309.182 199.006 309.892 199.593 310.403C200.19 310.915 200.919 311.17 201.781 311.17ZM216.319 324.182V294.182H223.194V297.918H223.407C223.691 297.255 224.094 296.616 224.614 296C225.145 295.384 225.817 294.883 226.631 294.494C227.455 294.097 228.44 293.898 229.586 293.898C231.101 293.898 232.517 294.295 233.833 295.091C235.159 295.886 236.229 297.113 237.043 298.77C237.858 300.427 238.265 302.539 238.265 305.105C238.265 307.577 237.872 309.646 237.086 311.312C236.309 312.979 235.258 314.229 233.933 315.062C232.616 315.896 231.153 316.312 229.543 316.312C228.445 316.312 227.493 316.133 226.688 315.773C225.883 315.413 225.206 314.939 224.657 314.352C224.117 313.765 223.701 313.135 223.407 312.463H223.265V324.182H216.319ZM223.123 305.091C223.123 306.265 223.279 307.288 223.592 308.159C223.914 309.03 224.373 309.707 224.969 310.19C225.576 310.664 226.3 310.901 227.143 310.901C227.995 310.901 228.719 310.664 229.316 310.19C229.913 309.707 230.362 309.03 230.665 308.159C230.978 307.288 231.134 306.265 231.134 305.091C231.134 303.917 230.978 302.899 230.665 302.037C230.362 301.175 229.913 300.508 229.316 300.034C228.729 299.561 228.004 299.324 227.143 299.324C226.29 299.324 225.566 299.556 224.969 300.02C224.373 300.484 223.914 301.147 223.592 302.009C223.279 302.87 223.123 303.898 223.123 305.091ZM366.124 312.733C365.101 312.733 364.225 312.373 363.496 311.653C362.776 310.934 362.421 310.062 362.43 309.04C362.421 308.036 362.776 307.179 363.496 306.469C364.225 305.749 365.101 305.389 366.124 305.389C367.089 305.389 367.942 305.749 368.68 306.469C369.429 307.179 369.807 308.036 369.817 309.04C369.807 309.722 369.627 310.342 369.277 310.901C368.936 311.459 368.486 311.904 367.928 312.236C367.378 312.567 366.777 312.733 366.124 312.733ZM366.124 298.614C365.101 298.614 364.225 298.254 363.496 297.534C362.776 296.814 362.421 295.943 362.43 294.92C362.421 293.917 362.776 293.06 363.496 292.349C364.225 291.63 365.101 291.27 366.124 291.27C367.089 291.27 367.942 291.63 368.68 292.349C369.429 293.06 369.807 293.917 369.817 294.92C369.807 295.602 369.627 296.223 369.277 296.781C368.936 297.34 368.486 297.785 367.928 298.116C367.378 298.448 366.777 298.614 366.124 298.614ZM396.393 286.909V316H389.376V293.472H389.206L382.7 297.449V291.369L389.874 286.909H396.393ZM408.485 312.023L408.357 313.599C408.244 314.906 408.012 316.18 407.661 317.42C407.32 318.67 406.956 319.793 406.567 320.787C406.179 321.781 405.871 322.553 405.644 323.102H401.269C401.421 322.553 401.624 321.781 401.88 320.787C402.145 319.793 402.391 318.67 402.619 317.42C402.846 316.17 402.974 314.902 403.002 313.614L403.031 312.023H408.485ZM413.407 311.17V305.688L425.325 286.909H430.197V294.352H427.37L420.396 305.403V305.631H437.654V311.17H413.407ZM427.455 316V309.494L427.597 307.094V286.909H434.174V316H427.455ZM453.371 316.71C450.834 316.71 448.646 316.109 446.809 314.906C444.972 313.694 443.556 311.956 442.562 309.693C441.567 307.42 441.075 304.688 441.085 301.497C441.094 298.306 441.591 295.598 442.576 293.372C443.57 291.137 444.981 289.437 446.809 288.273C448.646 287.098 450.834 286.511 453.371 286.511C455.909 286.511 458.097 287.098 459.934 288.273C461.781 289.437 463.201 291.137 464.195 293.372C465.19 295.607 465.682 298.315 465.673 301.497C465.673 304.698 465.175 307.435 464.181 309.707C463.187 311.98 461.771 313.718 459.934 314.92C458.106 316.114 455.919 316.71 453.371 316.71ZM453.371 310.957C454.887 310.957 456.113 310.186 457.05 308.642C457.988 307.089 458.452 304.707 458.442 301.497C458.442 299.395 458.229 297.662 457.803 296.298C457.377 294.925 456.785 293.902 456.028 293.23C455.27 292.558 454.385 292.222 453.371 292.222C451.866 292.222 450.649 292.984 449.721 294.509C448.793 296.024 448.324 298.353 448.315 301.497C448.305 303.628 448.509 305.394 448.925 306.795C449.352 308.197 449.948 309.243 450.715 309.935C451.482 310.616 452.368 310.957 453.371 310.957ZM481.063 316.398C478.8 316.398 476.778 316.038 474.998 315.318C473.227 314.589 471.835 313.604 470.822 312.364C469.818 311.114 469.316 309.703 469.316 308.131C469.316 306.928 469.605 305.825 470.183 304.821C470.76 303.817 471.541 302.984 472.526 302.321C473.521 301.649 474.629 301.218 475.85 301.028V300.801C474.25 300.508 472.938 299.764 471.915 298.571C470.902 297.378 470.396 295.981 470.396 294.381C470.396 292.866 470.855 291.516 471.773 290.332C472.701 289.149 473.966 288.216 475.566 287.534C477.176 286.852 479.008 286.511 481.063 286.511C483.118 286.511 484.946 286.852 486.546 287.534C488.156 288.216 489.42 289.149 490.339 290.332C491.267 291.516 491.731 292.866 491.731 294.381C491.731 295.991 491.215 297.392 490.183 298.585C489.16 299.769 487.858 300.508 486.276 300.801V301.028C487.488 301.218 488.587 301.649 489.572 302.321C490.566 302.984 491.352 303.817 491.93 304.821C492.517 305.825 492.81 306.928 492.81 308.131C492.81 309.703 492.304 311.114 491.29 312.364C490.277 313.604 488.885 314.589 487.114 315.318C485.353 316.038 483.336 316.398 481.063 316.398ZM481.063 311.412C481.925 311.412 482.683 311.251 483.336 310.929C483.989 310.598 484.501 310.138 484.87 309.551C485.249 308.964 485.438 308.301 485.438 307.562C485.438 306.805 485.249 306.133 484.87 305.545C484.491 304.958 483.97 304.499 483.308 304.168C482.654 303.827 481.906 303.656 481.063 303.656C480.23 303.656 479.482 303.827 478.819 304.168C478.156 304.499 477.635 304.958 477.256 305.545C476.878 306.133 476.688 306.805 476.688 307.562C476.688 308.301 476.873 308.964 477.242 309.551C477.621 310.129 478.137 310.583 478.79 310.915C479.453 311.246 480.211 311.412 481.063 311.412ZM481.063 298.699C481.802 298.699 482.455 298.547 483.023 298.244C483.601 297.941 484.051 297.52 484.373 296.98C484.704 296.44 484.87 295.83 484.87 295.148C484.87 294.466 484.704 293.865 484.373 293.344C484.051 292.823 483.606 292.416 483.038 292.122C482.469 291.819 481.811 291.668 481.063 291.668C480.325 291.668 479.666 291.819 479.089 292.122C478.511 292.416 478.061 292.823 477.739 293.344C477.417 293.865 477.256 294.466 477.256 295.148C477.256 295.83 477.417 296.44 477.739 296.98C478.071 297.51 478.525 297.932 479.103 298.244C479.681 298.547 480.334 298.699 481.063 298.699ZM525.083 294.182V311.469H528.705V323.003H521.987V316H505.381V294.182H511.958V310.688H518.606V294.182H525.083ZM538.094 316.369C536.702 316.369 535.467 316.137 534.387 315.673C533.317 315.2 532.469 314.49 531.844 313.543C531.229 312.586 530.921 311.388 530.921 309.949C530.921 308.737 531.134 307.714 531.56 306.881C531.987 306.047 532.574 305.37 533.322 304.849C534.07 304.329 534.932 303.936 535.907 303.67C536.882 303.396 537.924 303.211 539.032 303.116C540.272 303.003 541.272 302.884 542.029 302.761C542.787 302.629 543.336 302.444 543.677 302.207C544.027 301.961 544.202 301.616 544.202 301.17V301.099C544.202 300.37 543.951 299.807 543.45 299.409C542.948 299.011 542.271 298.812 541.418 298.812C540.5 298.812 539.761 299.011 539.202 299.409C538.644 299.807 538.289 300.356 538.137 301.057L531.731 300.83C531.92 299.504 532.408 298.32 533.194 297.278C533.989 296.227 535.078 295.403 536.461 294.807C537.853 294.201 539.524 293.898 541.475 293.898C542.867 293.898 544.15 294.063 545.325 294.395C546.499 294.717 547.522 295.19 548.393 295.815C549.264 296.431 549.936 297.188 550.41 298.088C550.893 298.988 551.134 300.015 551.134 301.17V316H544.6V312.96H544.43C544.041 313.699 543.544 314.324 542.938 314.835C542.342 315.347 541.636 315.73 540.822 315.986C540.017 316.241 539.108 316.369 538.094 316.369ZM540.239 311.824C540.987 311.824 541.66 311.672 542.256 311.369C542.862 311.066 543.345 310.65 543.705 310.119C544.065 309.58 544.245 308.955 544.245 308.244V306.17C544.046 306.275 543.805 306.369 543.521 306.455C543.246 306.54 542.943 306.62 542.612 306.696C542.28 306.772 541.939 306.838 541.589 306.895C541.238 306.952 540.902 307.004 540.58 307.051C539.927 307.155 539.368 307.316 538.904 307.534C538.45 307.752 538.099 308.036 537.853 308.386C537.616 308.727 537.498 309.134 537.498 309.608C537.498 310.328 537.754 310.877 538.265 311.256C538.786 311.634 539.444 311.824 540.239 311.824ZM570.808 294.182V299.494H562.1V316H555.381V294.182H570.808Z" fill="white"/>
<path d="M119.049 338.909L124.361 348.099H124.588L129.958 338.909H137.827L129.049 353.455L138.111 368H130.043L124.588 358.71H124.361L118.907 368H110.895L119.915 353.455L111.123 338.909H119.049ZM147.614 368.369C146.222 368.369 144.986 368.137 143.907 367.673C142.837 367.2 141.989 366.49 141.364 365.543C140.748 364.586 140.441 363.388 140.441 361.949C140.441 360.737 140.654 359.714 141.08 358.881C141.506 358.047 142.093 357.37 142.841 356.849C143.589 356.329 144.451 355.936 145.426 355.67C146.402 355.396 147.444 355.211 148.551 355.116C149.792 355.003 150.791 354.884 151.549 354.761C152.306 354.629 152.855 354.444 153.196 354.207C153.547 353.961 153.722 353.616 153.722 353.17V353.099C153.722 352.37 153.471 351.807 152.969 351.409C152.467 351.011 151.79 350.812 150.938 350.812C150.019 350.812 149.281 351.011 148.722 351.409C148.163 351.807 147.808 352.356 147.657 353.057L141.25 352.83C141.44 351.504 141.927 350.32 142.713 349.278C143.509 348.227 144.598 347.403 145.98 346.807C147.373 346.201 149.044 345.898 150.995 345.898C152.387 345.898 153.67 346.063 154.844 346.395C156.018 346.717 157.041 347.19 157.912 347.815C158.783 348.431 159.456 349.188 159.929 350.088C160.412 350.988 160.654 352.015 160.654 353.17V368H154.12V364.96H153.949C153.561 365.699 153.064 366.324 152.458 366.835C151.861 367.347 151.156 367.73 150.341 367.986C149.536 368.241 148.627 368.369 147.614 368.369ZM149.759 363.824C150.507 363.824 151.179 363.672 151.776 363.369C152.382 363.066 152.865 362.65 153.225 362.119C153.585 361.58 153.765 360.955 153.765 360.244V358.17C153.566 358.275 153.324 358.369 153.04 358.455C152.766 358.54 152.462 358.62 152.131 358.696C151.8 358.772 151.459 358.838 151.108 358.895C150.758 358.952 150.422 359.004 150.1 359.051C149.446 359.155 148.888 359.316 148.424 359.534C147.969 359.752 147.619 360.036 147.373 360.386C147.136 360.727 147.017 361.134 147.017 361.608C147.017 362.328 147.273 362.877 147.784 363.256C148.305 363.634 148.963 363.824 149.759 363.824ZM178.111 360.585L183.452 346.182H188.537L180.341 368H175.881L167.898 346.182H172.969L178.111 360.585ZM171.478 346.182V368H164.901V346.182H171.478ZM185.142 368V346.182H191.634V368H185.142ZM211.265 346.182V351.494H202.557V368H195.838V346.182H211.265ZM221.126 359.009L228.1 346.182H234.777V368H228.2V355.131L221.24 368H214.549V346.182H221.126V359.009ZM245.775 359.009L252.749 346.182H259.425V368H252.848V355.131L245.888 368H239.198V346.182H245.775V359.009ZM252.124 338.455H256.698C256.688 340.235 256.016 341.665 254.681 342.744C253.355 343.824 251.556 344.364 249.283 344.364C247.01 344.364 245.206 343.824 243.871 342.744C242.545 341.665 241.887 340.235 241.897 338.455H246.428C246.418 339.08 246.632 339.648 247.067 340.159C247.503 340.67 248.241 340.926 249.283 340.926C250.296 340.926 251.021 340.675 251.456 340.173C251.892 339.671 252.114 339.098 252.124 338.455ZM279.23 354.378V359.676H268.037V354.378H279.23ZM270.423 346.182V368H263.846V346.182H270.423ZM283.42 346.182V368H276.886V346.182H283.42ZM294.78 368L302.01 356.551L294.794 346.182H302.692L307.82 354.449H308.459V346.182H315.405V354.449H316.03L321.158 346.182H329.056L321.854 356.551L329.07 368H320.988L315.973 359.761H315.405V368H308.459V359.761H307.891L302.863 368H294.78ZM338.587 359.009L345.561 346.182H352.238V368H345.661V355.131L338.701 368H332.01V346.182H338.587V359.009ZM355.21 368L362.44 356.551L355.224 346.182H363.122L368.25 354.449H368.889V346.182H375.835V354.449H376.46L381.588 346.182H389.485L382.284 356.551L389.5 368H381.417L376.403 359.761H375.835V368H368.889V359.761H368.321L363.292 368H355.21ZM399.017 359.009L405.991 346.182H412.667V368H406.091V355.131L399.13 368H392.44V346.182H399.017V359.009ZM432.515 346.182V351.494H423.807V368H417.088V346.182H432.515ZM459.819 346.182V351.494H451.112V368H444.393V346.182H459.819ZM468.591 368.369C467.199 368.369 465.963 368.137 464.883 367.673C463.813 367.2 462.966 366.49 462.341 365.543C461.725 364.586 461.417 363.388 461.417 361.949C461.417 360.737 461.63 359.714 462.056 358.881C462.483 358.047 463.07 357.37 463.818 356.849C464.566 356.329 465.428 355.936 466.403 355.67C467.378 355.396 468.42 355.211 469.528 355.116C470.769 355.003 471.768 354.884 472.525 354.761C473.283 354.629 473.832 354.444 474.173 354.207C474.523 353.961 474.699 353.616 474.699 353.17V353.099C474.699 352.37 474.448 351.807 473.946 351.409C473.444 351.011 472.767 350.812 471.914 350.812C470.996 350.812 470.257 351.011 469.699 351.409C469.14 351.807 468.785 352.356 468.633 353.057L462.227 352.83C462.416 351.504 462.904 350.32 463.69 349.278C464.485 348.227 465.574 347.403 466.957 346.807C468.349 346.201 470.02 345.898 471.971 345.898C473.363 345.898 474.646 346.063 475.821 346.395C476.995 346.717 478.018 347.19 478.889 347.815C479.76 348.431 480.432 349.188 480.906 350.088C481.389 350.988 481.63 352.015 481.63 353.17V368H475.096V364.96H474.926C474.538 365.699 474.04 366.324 473.434 366.835C472.838 367.347 472.132 367.73 471.318 367.986C470.513 368.241 469.604 368.369 468.591 368.369ZM470.735 363.824C471.484 363.824 472.156 363.672 472.752 363.369C473.359 363.066 473.842 362.65 474.201 362.119C474.561 361.58 474.741 360.955 474.741 360.244V358.17C474.542 358.275 474.301 358.369 474.017 358.455C473.742 358.54 473.439 358.62 473.108 358.696C472.776 358.772 472.435 358.838 472.085 358.895C471.734 358.952 471.398 359.004 471.076 359.051C470.423 359.155 469.864 359.316 469.4 359.534C468.946 359.752 468.595 360.036 468.349 360.386C468.112 360.727 467.994 361.134 467.994 361.608C467.994 362.328 468.25 362.877 468.761 363.256C469.282 363.634 469.94 363.824 470.735 363.824ZM485.877 376.182V346.182H492.752V349.918H492.966C493.25 349.255 493.652 348.616 494.173 348C494.703 347.384 495.376 346.883 496.19 346.494C497.014 346.097 497.999 345.898 499.145 345.898C500.66 345.898 502.075 346.295 503.392 347.091C504.717 347.886 505.788 349.113 506.602 350.77C507.416 352.427 507.824 354.539 507.824 357.105C507.824 359.577 507.431 361.646 506.645 363.312C505.868 364.979 504.817 366.229 503.491 367.062C502.175 367.896 500.712 368.312 499.102 368.312C498.003 368.312 497.052 368.133 496.247 367.773C495.442 367.413 494.765 366.939 494.216 366.352C493.676 365.765 493.259 365.135 492.966 364.463H492.824V376.182H485.877ZM492.681 357.091C492.681 358.265 492.838 359.288 493.15 360.159C493.472 361.03 493.931 361.707 494.528 362.19C495.134 362.664 495.859 362.901 496.701 362.901C497.554 362.901 498.278 362.664 498.875 362.19C499.471 361.707 499.921 361.03 500.224 360.159C500.537 359.288 500.693 358.265 500.693 357.091C500.693 355.917 500.537 354.899 500.224 354.037C499.921 353.175 499.471 352.508 498.875 352.034C498.288 351.561 497.563 351.324 496.701 351.324C495.849 351.324 495.125 351.556 494.528 352.02C493.931 352.484 493.472 353.147 493.15 354.009C492.838 354.87 492.681 355.898 492.681 357.091ZM517.614 368.369C516.222 368.369 514.986 368.137 513.907 367.673C512.837 367.2 511.989 366.49 511.364 365.543C510.748 364.586 510.441 363.388 510.441 361.949C510.441 360.737 510.654 359.714 511.08 358.881C511.506 358.047 512.093 357.37 512.841 356.849C513.589 356.329 514.451 355.936 515.426 355.67C516.402 355.396 517.444 355.211 518.551 355.116C519.792 355.003 520.791 354.884 521.549 354.761C522.306 354.629 522.855 354.444 523.196 354.207C523.547 353.961 523.722 353.616 523.722 353.17V353.099C523.722 352.37 523.471 351.807 522.969 351.409C522.467 351.011 521.79 350.812 520.938 350.812C520.019 350.812 519.281 351.011 518.722 351.409C518.163 351.807 517.808 352.356 517.657 353.057L511.25 352.83C511.44 351.504 511.927 350.32 512.713 349.278C513.509 348.227 514.598 347.403 515.98 346.807C517.373 346.201 519.044 345.898 520.995 345.898C522.387 345.898 523.67 346.063 524.844 346.395C526.018 346.717 527.041 347.19 527.912 347.815C528.783 348.431 529.456 349.188 529.929 350.088C530.412 350.988 530.654 352.015 530.654 353.17V368H524.12V364.96H523.949C523.561 365.699 523.064 366.324 522.458 366.835C521.861 367.347 521.156 367.73 520.341 367.986C519.536 368.241 518.627 368.369 517.614 368.369ZM519.759 363.824C520.507 363.824 521.179 363.672 521.776 363.369C522.382 363.066 522.865 362.65 523.225 362.119C523.585 361.58 523.765 360.955 523.765 360.244V358.17C523.566 358.275 523.324 358.369 523.04 358.455C522.766 358.54 522.462 358.62 522.131 358.696C521.8 358.772 521.459 358.838 521.108 358.895C520.758 358.952 520.422 359.004 520.1 359.051C519.446 359.155 518.888 359.316 518.424 359.534C517.969 359.752 517.619 360.036 517.373 360.386C517.136 360.727 517.017 361.134 517.017 361.608C517.017 362.328 517.273 362.877 517.784 363.256C518.305 363.634 518.963 363.824 519.759 363.824ZM550.327 346.182V351.494H541.62V368H534.901V346.182H550.327ZM580.998 338.227L582.873 342.815C582.277 343.279 581.623 343.63 580.913 343.866C580.212 344.103 579.355 344.264 578.342 344.349C577.329 344.435 576.05 344.482 574.507 344.491C572.764 344.501 571.353 344.742 570.274 345.216C569.194 345.68 568.375 346.442 567.816 347.503C567.267 348.554 566.903 349.955 566.723 351.707H566.907C567.532 350.391 568.422 349.354 569.578 348.597C570.733 347.839 572.225 347.46 574.052 347.46C575.956 347.46 577.613 347.872 579.024 348.696C580.435 349.51 581.524 350.675 582.291 352.19C583.058 353.696 583.441 355.486 583.441 357.56C583.441 359.757 583.001 361.67 582.12 363.298C581.24 364.927 579.98 366.187 578.342 367.077C576.704 367.967 574.743 368.412 572.461 368.412C570.179 368.412 568.214 367.948 566.566 367.02C564.928 366.092 563.664 364.728 562.774 362.929C561.893 361.12 561.453 358.9 561.453 356.267V354.676C561.453 349.278 562.542 345.306 564.72 342.759C566.898 340.211 570.08 338.928 574.265 338.909C575.316 338.9 576.268 338.9 577.12 338.909C577.982 338.909 578.735 338.866 579.379 338.781C580.023 338.687 580.563 338.502 580.998 338.227ZM572.504 363.17C573.299 363.17 573.986 362.957 574.564 362.531C575.141 362.105 575.586 361.494 575.899 360.699C576.211 359.903 576.368 358.947 576.368 357.83C576.368 356.712 576.207 355.76 575.885 354.974C575.572 354.188 575.127 353.592 574.549 353.185C573.972 352.768 573.285 352.56 572.49 352.56C571.884 352.56 571.334 352.678 570.842 352.915C570.35 353.142 569.933 353.483 569.592 353.938C569.251 354.383 568.991 354.932 568.811 355.585C568.631 356.239 568.541 356.987 568.541 357.83C568.541 359.496 568.891 360.803 569.592 361.75C570.293 362.697 571.263 363.17 572.504 363.17ZM604.148 355.188V358.994H590.398V355.188H604.148ZM597.273 368.412C594.981 368.412 593.012 367.943 591.364 367.006C589.726 366.059 588.462 364.742 587.571 363.057C586.691 361.362 586.25 359.397 586.25 357.162C586.25 354.918 586.691 352.953 587.571 351.267C588.462 349.572 589.726 348.256 591.364 347.318C593.012 346.371 594.981 345.898 597.273 345.898C599.565 345.898 601.53 346.371 603.168 347.318C604.816 348.256 606.08 349.572 606.961 351.267C607.851 352.953 608.296 354.918 608.296 357.162C608.296 359.397 607.851 361.362 606.961 363.057C606.08 364.742 604.816 366.059 603.168 367.006C601.53 367.943 599.565 368.412 597.273 368.412ZM597.316 363.17C598.149 363.17 598.855 362.915 599.432 362.403C600.01 361.892 600.45 361.182 600.753 360.273C601.066 359.364 601.222 358.312 601.222 357.119C601.222 355.907 601.066 354.847 600.753 353.938C600.45 353.028 600.01 352.318 599.432 351.807C598.855 351.295 598.149 351.04 597.316 351.04C596.454 351.04 595.725 351.295 595.128 351.807C594.541 352.318 594.091 353.028 593.779 353.938C593.476 354.847 593.324 355.907 593.324 357.119C593.324 358.312 593.476 359.364 593.779 360.273C594.091 361.182 594.541 361.892 595.128 362.403C595.725 362.915 596.454 363.17 597.316 363.17ZM627.28 346.182V351.494H618.573V368H611.854V346.182H627.28ZM646.961 355.188V358.994H633.211V355.188H646.961ZM640.086 368.412C637.794 368.412 635.824 367.943 634.176 367.006C632.538 366.059 631.274 364.742 630.384 363.057C629.503 361.362 629.063 359.397 629.063 357.162C629.063 354.918 629.503 352.953 630.384 351.267C631.274 349.572 632.538 348.256 634.176 347.318C635.824 346.371 637.794 345.898 640.086 345.898C642.377 345.898 644.342 346.371 645.98 347.318C647.628 348.256 648.892 349.572 649.773 351.267C650.663 352.953 651.108 354.918 651.108 357.162C651.108 359.397 650.663 361.362 649.773 363.057C648.892 364.742 647.628 366.059 645.98 367.006C644.342 367.943 642.377 368.412 640.086 368.412ZM640.128 363.17C640.962 363.17 641.667 362.915 642.245 362.403C642.822 361.892 643.263 361.182 643.566 360.273C643.878 359.364 644.034 358.312 644.034 357.119C644.034 355.907 643.878 354.847 643.566 353.938C643.263 353.028 642.822 352.318 642.245 351.807C641.667 351.295 640.962 351.04 640.128 351.04C639.266 351.04 638.537 351.295 637.941 351.807C637.354 352.318 636.904 353.028 636.591 353.938C636.288 354.847 636.137 355.907 636.137 357.119C636.137 358.312 636.288 359.364 636.591 360.273C636.904 361.182 637.354 361.892 637.941 362.403C638.537 362.915 639.266 363.17 640.128 363.17ZM671.726 355.188V358.994H657.976V355.188H671.726ZM664.851 368.412C662.56 368.412 660.59 367.943 658.942 367.006C657.304 366.059 656.04 364.742 655.15 363.057C654.269 361.362 653.828 359.397 653.828 357.162C653.828 354.918 654.269 352.953 655.15 351.267C656.04 349.572 657.304 348.256 658.942 347.318C660.59 346.371 662.56 345.898 664.851 345.898C667.143 345.898 669.108 346.371 670.746 347.318C672.394 348.256 673.658 349.572 674.539 351.267C675.429 352.953 675.874 354.918 675.874 357.162C675.874 359.397 675.429 361.362 674.539 363.057C673.658 364.742 672.394 366.059 670.746 367.006C669.108 367.943 667.143 368.412 664.851 368.412ZM664.894 363.17C665.727 363.17 666.433 362.915 667.01 362.403C667.588 361.892 668.028 361.182 668.331 360.273C668.644 359.364 668.8 358.312 668.8 357.119C668.8 355.907 668.644 354.847 668.331 353.938C668.028 353.028 667.588 352.318 667.01 351.807C666.433 351.295 665.727 351.04 664.894 351.04C664.032 351.04 663.303 351.295 662.706 351.807C662.119 352.318 661.669 353.028 661.357 353.938C661.054 354.847 660.902 355.907 660.902 357.119C660.902 358.312 661.054 359.364 661.357 360.273C661.669 361.182 662.119 361.892 662.706 362.403C663.303 362.915 664.032 363.17 664.894 363.17ZM677.926 374.435V362.645H679.56C680.052 362.399 680.445 361.925 680.739 361.224C681.033 360.514 681.265 359.686 681.435 358.739C681.615 357.782 681.748 356.788 681.833 355.756C681.927 354.714 682.013 353.734 682.088 352.815L682.6 346.182H700.27V362.645H703.679V374.435H697.088V368H684.688V374.435H677.926ZM686.321 362.645H693.793V351.352H688.395L688.282 352.815C688.149 355.164 687.941 357.134 687.657 358.724C687.373 360.315 686.927 361.622 686.321 362.645ZM79.9737 394.182V411.469H83.5959V423.003H76.8771V416H60.272V394.182H66.8487V410.688H73.4964V394.182H79.9737ZM92.9851 416.369C91.593 416.369 90.3572 416.137 89.2777 415.673C88.2076 415.2 87.3601 414.49 86.7351 413.543C86.1196 412.586 85.8118 411.388 85.8118 409.949C85.8118 408.737 86.0249 407.714 86.451 406.881C86.8771 406.047 87.4643 405.37 88.2124 404.849C88.9605 404.329 89.8222 403.936 90.7976 403.67C91.773 403.396 92.8146 403.211 93.9226 403.116C95.1631 403.003 96.1622 402.884 96.9197 402.761C97.6773 402.629 98.2266 402.444 98.5675 402.207C98.9179 401.961 99.093 401.616 99.093 401.17V401.099C99.093 400.37 98.8421 399.807 98.3402 399.409C97.8383 399.011 97.1612 398.812 96.3089 398.812C95.3904 398.812 94.6518 399.011 94.093 399.409C93.5343 399.807 93.1792 400.356 93.0277 401.057L86.6214 400.83C86.8108 399.504 87.2985 398.32 88.0845 397.278C88.88 396.227 89.969 395.403 91.3516 394.807C92.7436 394.201 94.415 393.898 96.3658 393.898C97.7578 393.898 99.041 394.063 100.215 394.395C101.389 394.717 102.412 395.19 103.283 395.815C104.155 396.431 104.827 397.188 105.3 398.088C105.783 398.988 106.025 400.015 106.025 401.17V416H99.4908V412.96H99.3203C98.9321 413.699 98.4349 414.324 97.8288 414.835C97.2322 415.347 96.5268 415.73 95.7124 415.986C94.9074 416.241 93.9983 416.369 92.9851 416.369ZM95.13 411.824C95.8781 411.824 96.5504 411.672 97.147 411.369C97.7531 411.066 98.236 410.65 98.5959 410.119C98.9557 409.58 99.1357 408.955 99.1357 408.244V406.17C98.9368 406.275 98.6953 406.369 98.4112 406.455C98.1366 406.54 97.8336 406.62 97.5021 406.696C97.1707 406.772 96.8298 406.838 96.4794 406.895C96.129 406.952 95.7929 407.004 95.4709 407.051C94.8175 407.155 94.2588 407.316 93.7947 407.534C93.3402 407.752 92.9898 408.036 92.7436 408.386C92.5069 408.727 92.3885 409.134 92.3885 409.608C92.3885 410.328 92.6442 410.877 93.1555 411.256C93.6764 411.634 94.3345 411.824 95.13 411.824ZM125.698 394.182V399.494H116.991V416H110.272V394.182H125.698ZM143.727 416.369C142.335 416.369 141.099 416.137 140.02 415.673C138.95 415.2 138.102 414.49 137.477 413.543C136.862 412.586 136.554 411.388 136.554 409.949C136.554 408.737 136.767 407.714 137.193 406.881C137.619 406.047 138.206 405.37 138.955 404.849C139.703 404.329 140.564 403.936 141.54 403.67C142.515 403.396 143.557 403.211 144.665 403.116C145.905 403.003 146.904 402.884 147.662 402.761C148.42 402.629 148.969 402.444 149.31 402.207C149.66 401.961 149.835 401.616 149.835 401.17V401.099C149.835 400.37 149.584 399.807 149.082 399.409C148.58 399.011 147.903 398.812 147.051 398.812C146.133 398.812 145.394 399.011 144.835 399.409C144.277 399.807 143.921 400.356 143.77 401.057L137.364 400.83C137.553 399.504 138.041 398.32 138.827 397.278C139.622 396.227 140.711 395.403 142.094 394.807C143.486 394.201 145.157 393.898 147.108 393.898C148.5 393.898 149.783 394.063 150.957 394.395C152.132 394.717 153.154 395.19 154.026 395.815C154.897 396.431 155.569 397.188 156.043 398.088C156.526 398.988 156.767 400.015 156.767 401.17V416H150.233V412.96H150.062C149.674 413.699 149.177 414.324 148.571 414.835C147.974 415.347 147.269 415.73 146.455 415.986C145.65 416.241 144.741 416.369 143.727 416.369ZM145.872 411.824C146.62 411.824 147.293 411.672 147.889 411.369C148.495 411.066 148.978 410.65 149.338 410.119C149.698 409.58 149.878 408.955 149.878 408.244V406.17C149.679 406.275 149.438 406.369 149.153 406.455C148.879 406.54 148.576 406.62 148.244 406.696C147.913 406.772 147.572 406.838 147.222 406.895C146.871 406.952 146.535 407.004 146.213 407.051C145.56 407.155 145.001 407.316 144.537 407.534C144.082 407.752 143.732 408.036 143.486 408.386C143.249 408.727 143.131 409.134 143.131 409.608C143.131 410.328 143.386 410.877 143.898 411.256C144.419 411.634 145.077 411.824 145.872 411.824ZM176.44 394.182V399.494H167.733V416H161.014V394.182H176.44ZM185.212 416.369C183.82 416.369 182.584 416.137 181.504 415.673C180.434 415.2 179.587 414.49 178.962 413.543C178.346 412.586 178.038 411.388 178.038 409.949C178.038 408.737 178.251 407.714 178.678 406.881C179.104 406.047 179.691 405.37 180.439 404.849C181.187 404.329 182.049 403.936 183.024 403.67C184 403.396 185.041 403.211 186.149 403.116C187.39 403.003 188.389 402.884 189.146 402.761C189.904 402.629 190.453 402.444 190.794 402.207C191.144 401.961 191.32 401.616 191.32 401.17V401.099C191.32 400.37 191.069 399.807 190.567 399.409C190.065 399.011 189.388 398.812 188.536 398.812C187.617 398.812 186.878 399.011 186.32 399.409C185.761 399.807 185.406 400.356 185.254 401.057L178.848 400.83C179.037 399.504 179.525 398.32 180.311 397.278C181.107 396.227 182.196 395.403 183.578 394.807C184.97 394.201 186.642 393.898 188.592 393.898C189.984 393.898 191.268 394.063 192.442 394.395C193.616 394.717 194.639 395.19 195.51 395.815C196.381 396.431 197.054 397.188 197.527 398.088C198.01 398.988 198.251 400.015 198.251 401.17V416H191.717V412.96H191.547C191.159 413.699 190.661 414.324 190.055 414.835C189.459 415.347 188.753 415.73 187.939 415.986C187.134 416.241 186.225 416.369 185.212 416.369ZM187.357 411.824C188.105 411.824 188.777 411.672 189.374 411.369C189.98 411.066 190.463 410.65 190.822 410.119C191.182 409.58 191.362 408.955 191.362 408.244V406.17C191.163 406.275 190.922 406.369 190.638 406.455C190.363 406.54 190.06 406.62 189.729 406.696C189.397 406.772 189.056 406.838 188.706 406.895C188.356 406.952 188.019 407.004 187.697 407.051C187.044 407.155 186.485 407.316 186.021 407.534C185.567 407.752 185.216 408.036 184.97 408.386C184.733 408.727 184.615 409.134 184.615 409.608C184.615 410.328 184.871 410.877 185.382 411.256C185.903 411.634 186.561 411.824 187.357 411.824ZM208.649 416.369C207.257 416.369 206.021 416.137 204.942 415.673C203.872 415.2 203.024 414.49 202.399 413.543C201.784 412.586 201.476 411.388 201.476 409.949C201.476 408.737 201.689 407.714 202.115 406.881C202.541 406.047 203.128 405.37 203.876 404.849C204.625 404.329 205.486 403.936 206.462 403.67C207.437 403.396 208.479 403.211 209.587 403.116C210.827 403.003 211.826 402.884 212.584 402.761C213.341 402.629 213.891 402.444 214.232 402.207C214.582 401.961 214.757 401.616 214.757 401.17V401.099C214.757 400.37 214.506 399.807 214.004 399.409C213.502 399.011 212.825 398.812 211.973 398.812C211.054 398.812 210.316 399.011 209.757 399.409C209.198 399.807 208.843 400.356 208.692 401.057L202.286 400.83C202.475 399.504 202.963 398.32 203.749 397.278C204.544 396.227 205.633 395.403 207.016 394.807C208.408 394.201 210.079 393.898 212.03 393.898C213.422 393.898 214.705 394.063 215.879 394.395C217.054 394.717 218.076 395.19 218.947 395.815C219.819 396.431 220.491 397.188 220.964 398.088C221.447 398.988 221.689 400.015 221.689 401.17V416H215.155V412.96H214.984C214.596 413.699 214.099 414.324 213.493 414.835C212.896 415.347 212.191 415.73 211.376 415.986C210.571 416.241 209.662 416.369 208.649 416.369ZM210.794 411.824C211.542 411.824 212.214 411.672 212.811 411.369C213.417 411.066 213.9 410.65 214.26 410.119C214.62 409.58 214.8 408.955 214.8 408.244V406.17C214.601 406.275 214.359 406.369 214.075 406.455C213.801 406.54 213.498 406.62 213.166 406.696C212.835 406.772 212.494 406.838 212.143 406.895C211.793 406.952 211.457 407.004 211.135 407.051C210.482 407.155 209.923 407.316 209.459 407.534C209.004 407.752 208.654 408.036 208.408 408.386C208.171 408.727 208.053 409.134 208.053 409.608C208.053 410.328 208.308 410.877 208.82 411.256C209.34 411.634 209.999 411.824 210.794 411.824ZM225.936 424.182V394.182H232.811V397.918H233.024C233.308 397.255 233.711 396.616 234.232 396C234.762 395.384 235.434 394.883 236.249 394.494C237.072 394.097 238.057 393.898 239.203 393.898C240.718 393.898 242.134 394.295 243.45 395.091C244.776 395.886 245.846 397.113 246.661 398.77C247.475 400.427 247.882 402.539 247.882 405.105C247.882 407.577 247.489 409.646 246.703 411.312C245.927 412.979 244.875 414.229 243.55 415.062C242.233 415.896 240.77 416.312 239.161 416.312C238.062 416.312 237.11 416.133 236.305 415.773C235.5 415.413 234.823 414.939 234.274 414.352C233.734 413.765 233.318 413.135 233.024 412.463H232.882V424.182H225.936ZM232.74 405.091C232.74 406.265 232.896 407.288 233.209 408.159C233.531 409.03 233.99 409.707 234.587 410.19C235.193 410.664 235.917 410.901 236.76 410.901C237.612 410.901 238.337 410.664 238.933 410.19C239.53 409.707 239.98 409.03 240.283 408.159C240.595 407.288 240.751 406.265 240.751 405.091C240.751 403.917 240.595 402.899 240.283 402.037C239.98 401.175 239.53 400.508 238.933 400.034C238.346 399.561 237.622 399.324 236.76 399.324C235.908 399.324 235.183 399.556 234.587 400.02C233.99 400.484 233.531 401.147 233.209 402.009C232.896 402.87 232.74 403.898 232.74 405.091ZM273.326 408.585L278.667 394.182H283.752L275.556 416H271.096L263.113 394.182H268.184L273.326 408.585ZM266.692 394.182V416H260.116V394.182H266.692ZM280.357 416V394.182H286.849V416H280.357ZM297.204 416.369C295.812 416.369 294.576 416.137 293.496 415.673C292.426 415.2 291.579 414.49 290.954 413.543C290.338 412.586 290.031 411.388 290.031 409.949C290.031 408.737 290.244 407.714 290.67 406.881C291.096 406.047 291.683 405.37 292.431 404.849C293.179 404.329 294.041 403.936 295.016 403.67C295.992 403.396 297.033 403.211 298.141 403.116C299.382 403.003 300.381 402.884 301.138 402.761C301.896 402.629 302.445 402.444 302.786 402.207C303.137 401.961 303.312 401.616 303.312 401.17V401.099C303.312 400.37 303.061 399.807 302.559 399.409C302.057 399.011 301.38 398.812 300.528 398.812C299.609 398.812 298.871 399.011 298.312 399.409C297.753 399.807 297.398 400.356 297.246 401.057L290.84 400.83C291.03 399.504 291.517 398.32 292.303 397.278C293.099 396.227 294.188 395.403 295.57 394.807C296.962 394.201 298.634 393.898 300.585 393.898C301.977 393.898 303.26 394.063 304.434 394.395C305.608 394.717 306.631 395.19 307.502 395.815C308.373 396.431 309.046 397.188 309.519 398.088C310.002 398.988 310.244 400.015 310.244 401.17V416H303.71V412.96H303.539C303.151 413.699 302.654 414.324 302.048 414.835C301.451 415.347 300.746 415.73 299.931 415.986C299.126 416.241 298.217 416.369 297.204 416.369ZM299.349 411.824C300.097 411.824 300.769 411.672 301.366 411.369C301.972 411.066 302.455 410.65 302.815 410.119C303.174 409.58 303.354 408.955 303.354 408.244V406.17C303.156 406.275 302.914 406.369 302.63 406.455C302.355 406.54 302.052 406.62 301.721 406.696C301.389 406.772 301.049 406.838 300.698 406.895C300.348 406.952 300.012 407.004 299.69 407.051C299.036 407.155 298.478 407.316 298.013 407.534C297.559 407.752 297.209 408.036 296.962 408.386C296.726 408.727 296.607 409.134 296.607 409.608C296.607 410.328 296.863 410.877 297.374 411.256C297.895 411.634 298.553 411.824 299.349 411.824ZM314.491 394.182H321.067V410.645H326.536V394.182H333.113V410.645H338.582V394.182H345.158V416H314.491V394.182ZM363.876 394.182L367.47 401.369L371.192 394.182H378.195L372.101 405.091L378.422 416H371.476L367.47 408.756L363.564 416H356.518L362.854 405.091L356.831 394.182H363.876ZM385.613 424.182C384.78 424.182 383.994 424.116 383.255 423.983C382.516 423.86 381.882 423.694 381.352 423.486L382.886 418.443C383.567 418.67 384.183 418.803 384.732 418.841C385.291 418.879 385.769 418.789 386.167 418.571C386.574 418.363 386.887 417.989 387.104 417.449L387.374 416.795L379.619 394.182H386.891L390.911 409.75H391.138L395.215 394.182H402.531L394.306 418.088C393.908 419.281 393.345 420.332 392.616 421.241C391.896 422.16 390.963 422.88 389.817 423.401C388.681 423.921 387.28 424.182 385.613 424.182ZM405.194 424.182V394.182H412.069V397.918H412.282C412.566 397.255 412.969 396.616 413.489 396C414.02 395.384 414.692 394.883 415.506 394.494C416.33 394.097 417.315 393.898 418.461 393.898C419.976 393.898 421.392 394.295 422.708 395.091C424.034 395.886 425.104 397.113 425.918 398.77C426.733 400.427 427.14 402.539 427.14 405.105C427.14 407.577 426.747 409.646 425.961 411.312C425.184 412.979 424.133 414.229 422.808 415.062C421.491 415.896 420.028 416.312 418.418 416.312C417.32 416.312 416.368 416.133 415.563 415.773C414.758 415.413 414.081 414.939 413.532 414.352C412.992 413.765 412.576 413.135 412.282 412.463H412.14V424.182H405.194ZM411.998 405.091C411.998 406.265 412.154 407.288 412.467 408.159C412.789 409.03 413.248 409.707 413.844 410.19C414.451 410.664 415.175 410.901 416.018 410.901C416.87 410.901 417.594 410.664 418.191 410.19C418.788 409.707 419.237 409.03 419.54 408.159C419.853 407.288 420.009 406.265 420.009 405.091C420.009 403.917 419.853 402.899 419.54 402.037C419.237 401.175 418.788 400.508 418.191 400.034C417.604 399.561 416.879 399.324 416.018 399.324C415.165 399.324 414.441 399.556 413.844 400.02C413.248 400.484 412.789 401.147 412.467 402.009C412.154 402.87 411.998 403.898 411.998 405.091ZM429.274 422.435V410.645H430.908C431.4 410.399 431.793 409.925 432.087 409.224C432.38 408.514 432.612 407.686 432.783 406.739C432.963 405.782 433.095 404.788 433.18 403.756C433.275 402.714 433.36 401.734 433.436 400.815L433.947 394.182H451.618V410.645H455.027V422.435H448.436V416H436.036V422.435H429.274ZM437.669 410.645H445.141V399.352H439.743L439.629 400.815C439.497 403.164 439.288 405.134 439.004 406.724C438.72 408.315 438.275 409.622 437.669 410.645ZM464.391 416.369C462.999 416.369 461.763 416.137 460.684 415.673C459.614 415.2 458.766 414.49 458.141 413.543C457.526 412.586 457.218 411.388 457.218 409.949C457.218 408.737 457.431 407.714 457.857 406.881C458.283 406.047 458.871 405.37 459.619 404.849C460.367 404.329 461.228 403.936 462.204 403.67C463.179 403.396 464.221 403.211 465.329 403.116C466.569 403.003 467.568 402.884 468.326 402.761C469.084 402.629 469.633 402.444 469.974 402.207C470.324 401.961 470.499 401.616 470.499 401.17V401.099C470.499 400.37 470.248 399.807 469.746 399.409C469.245 399.011 468.567 398.812 467.715 398.812C466.797 398.812 466.058 399.011 465.499 399.409C464.941 399.807 464.585 400.356 464.434 401.057L458.028 400.83C458.217 399.504 458.705 398.32 459.491 397.278C460.286 396.227 461.375 395.403 462.758 394.807C464.15 394.201 465.821 393.898 467.772 393.898C469.164 393.898 470.447 394.063 471.621 394.395C472.796 394.717 473.818 395.19 474.69 395.815C475.561 396.431 476.233 397.188 476.707 398.088C477.19 398.988 477.431 400.015 477.431 401.17V416H470.897V412.96H470.727C470.338 413.699 469.841 414.324 469.235 414.835C468.638 415.347 467.933 415.73 467.119 415.986C466.314 416.241 465.405 416.369 464.391 416.369ZM466.536 411.824C467.284 411.824 467.957 411.672 468.553 411.369C469.159 411.066 469.642 410.65 470.002 410.119C470.362 409.58 470.542 408.955 470.542 408.244V406.17C470.343 406.275 470.102 406.369 469.817 406.455C469.543 406.54 469.24 406.62 468.908 406.696C468.577 406.772 468.236 406.838 467.886 406.895C467.535 406.952 467.199 407.004 466.877 407.051C466.224 407.155 465.665 407.316 465.201 407.534C464.746 407.752 464.396 408.036 464.15 408.386C463.913 408.727 463.795 409.134 463.795 409.608C463.795 410.328 464.05 410.877 464.562 411.256C465.083 411.634 465.741 411.824 466.536 411.824ZM497.062 402.378V407.676H485.869V402.378H497.062ZM488.255 394.182V416H481.678V394.182H488.255ZM501.252 394.182V416H494.718V394.182H501.252ZM531.121 403.188V406.994H517.371V403.188H531.121ZM524.246 416.412C521.954 416.412 519.984 415.943 518.337 415.006C516.698 414.059 515.434 412.742 514.544 411.057C513.663 409.362 513.223 407.397 513.223 405.162C513.223 402.918 513.663 400.953 514.544 399.267C515.434 397.572 516.698 396.256 518.337 395.318C519.984 394.371 521.954 393.898 524.246 393.898C526.537 393.898 528.502 394.371 530.141 395.318C531.788 396.256 533.053 397.572 533.933 399.267C534.823 400.953 535.268 402.918 535.268 405.162C535.268 407.397 534.823 409.362 533.933 411.057C533.053 412.742 531.788 414.059 530.141 415.006C528.502 415.943 526.537 416.412 524.246 416.412ZM524.288 411.17C525.122 411.17 525.827 410.915 526.405 410.403C526.982 409.892 527.423 409.182 527.726 408.273C528.038 407.364 528.195 406.312 528.195 405.119C528.195 403.907 528.038 402.847 527.726 401.938C527.423 401.028 526.982 400.318 526.405 399.807C525.827 399.295 525.122 399.04 524.288 399.04C523.427 399.04 522.697 399.295 522.101 399.807C521.514 400.318 521.064 401.028 520.751 401.938C520.448 402.847 520.297 403.907 520.297 405.119C520.297 406.312 520.448 407.364 520.751 408.273C521.064 409.182 521.514 409.892 522.101 410.403C522.697 410.915 523.427 411.17 524.288 411.17ZM555.886 403.188V406.994H542.136V403.188H555.886ZM549.011 416.412C546.72 416.412 544.75 415.943 543.102 415.006C541.464 414.059 540.2 412.742 539.31 411.057C538.429 409.362 537.989 407.397 537.989 405.162C537.989 402.918 538.429 400.953 539.31 399.267C540.2 397.572 541.464 396.256 543.102 395.318C544.75 394.371 546.72 393.898 549.011 393.898C551.303 393.898 553.268 394.371 554.906 395.318C556.554 396.256 557.818 397.572 558.699 399.267C559.589 400.953 560.034 402.918 560.034 405.162C560.034 407.397 559.589 409.362 558.699 411.057C557.818 412.742 556.554 414.059 554.906 415.006C553.268 415.943 551.303 416.412 549.011 416.412ZM549.054 411.17C549.887 411.17 550.593 410.915 551.17 410.403C551.748 409.892 552.188 409.182 552.491 408.273C552.804 407.364 552.96 406.312 552.96 405.119C552.96 403.907 552.804 402.847 552.491 401.938C552.188 401.028 551.748 400.318 551.17 399.807C550.593 399.295 549.887 399.04 549.054 399.04C548.192 399.04 547.463 399.295 546.866 399.807C546.279 400.318 545.83 401.028 545.517 401.938C545.214 402.847 545.062 403.907 545.062 405.119C545.062 406.312 545.214 407.364 545.517 408.273C545.83 409.182 546.279 409.892 546.866 410.403C547.463 410.915 548.192 411.17 549.054 411.17ZM563.592 424.182V394.182H570.467V397.918H570.68C570.964 397.255 571.367 396.616 571.888 396C572.418 395.384 573.09 394.883 573.905 394.494C574.729 394.097 575.714 393.898 576.859 393.898C578.375 393.898 579.79 394.295 581.107 395.091C582.432 395.886 583.502 397.113 584.317 398.77C585.131 400.427 585.538 402.539 585.538 405.105C585.538 407.577 585.145 409.646 584.359 411.312C583.583 412.979 582.532 414.229 581.206 415.062C579.89 415.896 578.427 416.312 576.817 416.312C575.718 416.312 574.767 416.133 573.962 415.773C573.157 415.413 572.48 414.939 571.93 414.352C571.391 413.765 570.974 413.135 570.68 412.463H570.538V424.182H563.592ZM570.396 405.091C570.396 406.265 570.553 407.288 570.865 408.159C571.187 409.03 571.646 409.707 572.243 410.19C572.849 410.664 573.573 410.901 574.416 410.901C575.268 410.901 575.993 410.664 576.589 410.19C577.186 409.707 577.636 409.03 577.939 408.159C578.251 407.288 578.408 406.265 578.408 405.091C578.408 403.917 578.251 402.899 577.939 402.037C577.636 401.175 577.186 400.508 576.589 400.034C576.002 399.561 575.278 399.324 574.416 399.324C573.564 399.324 572.839 399.556 572.243 400.02C571.646 400.484 571.187 401.147 570.865 402.009C570.553 402.87 570.396 403.898 570.396 405.091ZM608.823 394.182V416H602.289V394.182H608.823ZM605.513 403.486V408.798C605.144 408.988 604.623 409.172 603.951 409.352C603.288 409.523 602.587 409.665 601.849 409.778C601.12 409.892 600.471 409.949 599.903 409.949C596.55 409.949 593.923 409.31 592.019 408.031C590.125 406.743 589.178 404.651 589.178 401.753V394.168H595.67V401.753C595.67 402.501 595.788 403.083 596.025 403.5C596.271 403.917 596.697 404.21 597.303 404.381C597.919 404.551 598.785 404.636 599.903 404.636C600.755 404.636 601.626 404.542 602.516 404.352C603.416 404.153 604.415 403.865 605.513 403.486ZM611.98 416L611.938 410.645H612.634C613.107 410.645 613.519 410.522 613.869 410.276C614.22 410.029 614.513 409.636 614.75 409.097C614.987 408.547 615.176 407.842 615.318 406.98C615.46 406.118 615.55 405.072 615.588 403.841L615.943 394.182H633.216V416H626.639V399.494H622.122L621.781 405.773C621.696 407.619 621.455 409.196 621.057 410.503C620.669 411.8 620.138 412.851 619.466 413.656C618.803 414.461 618.017 415.053 617.108 415.432C616.199 415.811 615.171 416 614.026 416H611.98ZM654.519 403.188V406.994H640.769V403.188H654.519ZM647.644 416.412C645.353 416.412 643.383 415.943 641.735 415.006C640.097 414.059 638.833 412.742 637.942 411.057C637.062 409.362 636.621 407.397 636.621 405.162C636.621 402.918 637.062 400.953 637.942 399.267C638.833 397.572 640.097 396.256 641.735 395.318C643.383 394.371 645.353 393.898 647.644 393.898C649.936 393.898 651.901 394.371 653.539 395.318C655.187 396.256 656.451 397.572 657.332 399.267C658.222 400.953 658.667 402.918 658.667 405.162C658.667 407.397 658.222 409.362 657.332 411.057C656.451 412.742 655.187 414.059 653.539 415.006C651.901 415.943 649.936 416.412 647.644 416.412ZM647.687 411.17C648.52 411.17 649.226 410.915 649.803 410.403C650.381 409.892 650.821 409.182 651.124 408.273C651.437 407.364 651.593 406.312 651.593 405.119C651.593 403.907 651.437 402.847 651.124 401.938C650.821 401.028 650.381 400.318 649.803 399.807C649.226 399.295 648.52 399.04 647.687 399.04C646.825 399.04 646.096 399.295 645.499 399.807C644.912 400.318 644.462 401.028 644.15 401.938C643.847 402.847 643.695 403.907 643.695 405.119C643.695 406.312 643.847 407.364 644.15 408.273C644.462 409.182 644.912 409.892 645.499 410.403C646.096 410.915 646.825 411.17 647.687 411.17ZM677.651 394.182V399.494H668.944V416H662.225V394.182H677.651ZM677.673 422.435V410.645H679.306C679.799 410.399 680.192 409.925 680.485 409.224C680.779 408.514 681.011 407.686 681.181 406.739C681.361 405.782 681.494 404.788 681.579 403.756C681.674 402.714 681.759 401.734 681.835 400.815L682.346 394.182H700.016V410.645H703.425V422.435H696.835V416H684.434V422.435H677.673ZM686.067 410.645H693.539V399.352H688.141L688.028 400.815C687.895 403.164 687.687 405.134 687.403 406.724C687.119 408.315 686.674 409.622 686.067 410.645ZM705.134 422.435V410.645H706.767C707.259 410.399 707.652 409.925 707.946 409.224C708.24 408.514 708.472 407.686 708.642 406.739C708.822 405.782 708.955 404.788 709.04 403.756C709.134 402.714 709.22 401.734 709.295 400.815L709.807 394.182H727.477V410.645H730.886V422.435H724.295V416H711.895V422.435H705.134ZM713.528 410.645H721V399.352H715.602L715.489 400.815C715.356 403.164 715.148 405.134 714.864 406.724C714.58 408.315 714.134 409.622 713.528 410.645ZM751.16 403.188V406.994H737.41V403.188H751.16ZM744.285 416.412C741.993 416.412 740.023 415.943 738.376 415.006C736.737 414.059 735.473 412.742 734.583 411.057C733.702 409.362 733.262 407.397 733.262 405.162C733.262 402.918 733.702 400.953 734.583 399.267C735.473 397.572 736.737 396.256 738.376 395.318C740.023 394.371 741.993 393.898 744.285 393.898C746.576 393.898 748.541 394.371 750.18 395.318C751.827 396.256 753.092 397.572 753.972 399.267C754.862 400.953 755.308 402.918 755.308 405.162C755.308 407.397 754.862 409.362 753.972 411.057C753.092 412.742 751.827 414.059 750.18 415.006C748.541 415.943 746.576 416.412 744.285 416.412ZM744.327 411.17C745.161 411.17 745.866 410.915 746.444 410.403C747.022 409.892 747.462 409.182 747.765 408.273C748.077 407.364 748.234 406.312 748.234 405.119C748.234 403.907 748.077 402.847 747.765 401.938C747.462 401.028 747.022 400.318 746.444 399.807C745.866 399.295 745.161 399.04 744.327 399.04C743.466 399.04 742.737 399.295 742.14 399.807C741.553 400.318 741.103 401.028 740.79 401.938C740.487 402.847 740.336 403.907 740.336 405.119C740.336 406.312 740.487 407.364 740.79 408.273C741.103 409.182 741.553 409.892 742.14 410.403C742.737 410.915 743.466 411.17 744.327 411.17ZM774.292 394.182V399.494H765.585V416H758.866V394.182H774.292ZM777.85 416.412C776.827 416.412 775.951 416.052 775.222 415.332C774.503 414.613 774.147 413.741 774.157 412.719C774.147 411.715 774.503 410.858 775.222 410.148C775.951 409.428 776.827 409.068 777.85 409.068C778.816 409.068 779.668 409.428 780.407 410.148C781.155 410.858 781.534 411.715 781.543 412.719C781.534 413.401 781.354 414.021 781.004 414.58C780.663 415.138 780.213 415.583 779.654 415.915C779.105 416.246 778.504 416.412 777.85 416.412Z" fill="white"/>
<defs>
<filter id="filter0_ddii_398_56" x="0" y="0" width="834" height="484" filterUnits="userSpaceOnUse" color-interpolation-filters="sRGB">
<feFlood flood-opacity="0" result="BackgroundImageFix"/>
<feColorMatrix in="SourceAlpha" type="matrix" values="0 0 0 0 0 0 0 0 0 0 0 0 0 0 0 0 0 0 127 0" result="hardAlpha"/>
<feMorphology radius="5" operator="dilate" in="SourceAlpha" result="effect1_dropShadow_398_56"/>
<feOffset dx="-10" dy="-10"/>
<feGaussianBlur stdDeviation="2.5"/>
<feComposite in2="hardAlpha" operator="out"/>
<feColorMatrix type="matrix" values="0 0 0 0 0.133333 0 0 0 0 0.0117647 0 0 0 0 0.396078 0 0 0 0.25 0"/>
<feBlend mode="normal" in2="BackgroundImageFix" result="effect1_dropShadow_398_56"/>
<feColorMatrix in="SourceAlpha" type="matrix" values="0 0 0 0 0 0 0 0 0 0 0 0 0 0 0 0 0 0 127 0" result="hardAlpha"/>
<feMorphology radius="5" operator="dilate" in="SourceAlpha" result="effect2_dropShadow_398_56"/>
<feOffset dx="10" dy="10"/>
<feGaussianBlur stdDeviation="2.5"/>
<feComposite in2="hardAlpha" operator="out"/>
<feColorMatrix type="matrix" values="0 0 0 0 0.133941 0 0 0 0 0.0133056 0 0 0 0 0.395808 0 0 0 0.25 0"/>
<feBlend mode="normal" in2="effect1_dropShadow_398_56" result="effect2_dropShadow_398_56"/>
<feBlend mode="normal" in="SourceGraphic" in2="effect2_dropShadow_398_56" result="shape"/>
<feColorMatrix in="SourceAlpha" type="matrix" values="0 0 0 0 0 0 0 0 0 0 0 0 0 0 0 0 0 0 127 0" result="hardAlpha"/>
<feMorphology radius="5" operator="erode" in="SourceAlpha" result="effect3_innerShadow_398_56"/>
<feOffset dx="-10" dy="-10"/>
<feGaussianBlur stdDeviation="2.5"/>
<feComposite in2="hardAlpha" operator="arithmetic" k2="-1" k3="1"/>
<feColorMatrix type="matrix" values="0 0 0 0 0.509804 0 0 0 0 0.337255 0 0 0 0 0.721569 0 0 0 0.16 0"/>
<feBlend mode="normal" in2="shape" result="effect3_innerShadow_398_56"/>
<feColorMatrix in="SourceAlpha" type="matrix" values="0 0 0 0 0 0 0 0 0 0 0 0 0 0 0 0 0 0 127 0" result="hardAlpha"/>
<feMorphology radius="5" operator="erode" in="SourceAlpha" result="effect4_innerShadow_398_56"/>
<feOffset dx="10" dy="10"/>
<feGaussianBlur stdDeviation="2.5"/>
<feComposite in2="hardAlpha" operator="arithmetic" k2="-1" k3="1"/>
<feColorMatrix type="matrix" values="0 0 0 0 0.505882 0 0 0 0 0.329412 0 0 0 0 0.72549 0 0 0 0.16 0"/>
<feBlend mode="normal" in2="effect3_innerShadow_398_56" result="effect4_innerShadow_398_56"/>
</filter>
</defs>
</svg>
