<svg width="843" height="503" viewBox="0 0 843 503" fill="none" xmlns="http://www.w3.org/2000/svg">
<g filter="url(#filter0_ddii_403_97)">
<rect x="20" y="56" width="803" height="427" rx="60" fill="#7E40D0" fill-opacity="0.8" shape-rendering="crispEdges"/>
<rect x="20.5" y="56.5" width="802" height="426" rx="59.5" stroke="#C53D41" shape-rendering="crispEdges"/>
</g>
<path d="M334.901 107H327.344L337.159 77.9091H346.52L356.335 107H348.778L341.946 85.2386H341.719L334.901 107ZM333.892 95.5511H349.688V100.892H333.892V95.5511ZM374.851 93.3778V98.6761H363.658V93.3778H374.851ZM366.044 85.1818V107H359.467V85.1818H366.044ZM379.041 85.1818V107H372.507V85.1818H379.041ZM398.683 85.1818V90.4943H389.975V107H383.256V85.1818H398.683ZM407.454 107.369C406.062 107.369 404.826 107.137 403.746 106.673C402.676 106.2 401.829 105.49 401.204 104.543C400.588 103.586 400.281 102.388 400.281 100.949C400.281 99.7367 400.494 98.714 400.92 97.8807C401.346 97.0473 401.933 96.3703 402.681 95.8494C403.429 95.3286 404.291 94.9356 405.266 94.6705C406.242 94.3958 407.283 94.2112 408.391 94.1165C409.632 94.0028 410.631 93.8845 411.388 93.7614C412.146 93.6288 412.695 93.4441 413.036 93.2074C413.387 92.9612 413.562 92.6155 413.562 92.1705V92.0994C413.562 91.3703 413.311 90.8068 412.809 90.4091C412.307 90.0114 411.63 89.8125 410.778 89.8125C409.859 89.8125 409.121 90.0114 408.562 90.4091C408.003 90.8068 407.648 91.3561 407.496 92.0568L401.09 91.8295C401.28 90.5038 401.767 89.3201 402.553 88.2784C403.349 87.2273 404.438 86.4034 405.82 85.8068C407.212 85.2008 408.884 84.8977 410.835 84.8977C412.227 84.8977 413.51 85.0634 414.684 85.3949C415.858 85.7169 416.881 86.1903 417.752 86.8153C418.623 87.4309 419.296 88.1884 419.769 89.0881C420.252 89.9877 420.494 91.0152 420.494 92.1705V107H413.96V103.96H413.789C413.401 104.699 412.904 105.324 412.298 105.835C411.701 106.347 410.996 106.73 410.181 106.986C409.376 107.241 408.467 107.369 407.454 107.369ZM409.599 102.824C410.347 102.824 411.019 102.672 411.616 102.369C412.222 102.066 412.705 101.65 413.065 101.119C413.424 100.58 413.604 99.9545 413.604 99.2443V97.1705C413.406 97.2746 413.164 97.3693 412.88 97.4545C412.605 97.5398 412.302 97.6203 411.971 97.696C411.639 97.7718 411.299 97.8381 410.948 97.8949C410.598 97.9517 410.262 98.0038 409.94 98.0511C409.286 98.1553 408.728 98.3163 408.263 98.5341C407.809 98.7519 407.459 99.036 407.212 99.3864C406.976 99.7273 406.857 100.134 406.857 100.608C406.857 101.328 407.113 101.877 407.624 102.256C408.145 102.634 408.803 102.824 409.599 102.824ZM424.741 115.182V85.1818H431.616V88.9176H431.829C432.113 88.2547 432.515 87.6155 433.036 87C433.567 86.3845 434.239 85.8826 435.053 85.4943C435.877 85.0966 436.862 84.8977 438.008 84.8977C439.523 84.8977 440.939 85.2955 442.255 86.0909C443.581 86.8864 444.651 88.1127 445.465 89.7699C446.28 91.4271 446.687 93.5388 446.687 96.1051C446.687 98.5767 446.294 100.646 445.508 102.312C444.731 103.979 443.68 105.229 442.354 106.062C441.038 106.896 439.575 107.312 437.965 107.312C436.867 107.312 435.915 107.133 435.11 106.773C434.305 106.413 433.628 105.939 433.079 105.352C432.539 104.765 432.122 104.135 431.829 103.463H431.687V115.182H424.741ZM431.545 96.0909C431.545 97.2652 431.701 98.2879 432.013 99.1591C432.335 100.03 432.795 100.707 433.391 101.19C433.997 101.664 434.722 101.901 435.565 101.901C436.417 101.901 437.141 101.664 437.738 101.19C438.335 100.707 438.784 100.03 439.087 99.1591C439.4 98.2879 439.556 97.2652 439.556 96.0909C439.556 94.9167 439.4 93.8987 439.087 93.0369C438.784 92.1752 438.335 91.5076 437.738 91.0341C437.151 90.5606 436.426 90.3239 435.565 90.3239C434.712 90.3239 433.988 90.5559 433.391 91.0199C432.795 91.4839 432.335 92.1468 432.013 93.0085C431.701 93.8703 431.545 94.8977 431.545 96.0909ZM456.477 107.369C455.085 107.369 453.849 107.137 452.77 106.673C451.7 106.2 450.852 105.49 450.227 104.543C449.612 103.586 449.304 102.388 449.304 100.949C449.304 99.7367 449.517 98.714 449.943 97.8807C450.369 97.0473 450.956 96.3703 451.705 95.8494C452.453 95.3286 453.314 94.9356 454.29 94.6705C455.265 94.3958 456.307 94.2112 457.415 94.1165C458.655 94.0028 459.654 93.8845 460.412 93.7614C461.17 93.6288 461.719 93.4441 462.06 93.2074C462.41 92.9612 462.585 92.6155 462.585 92.1705V92.0994C462.585 91.3703 462.334 90.8068 461.832 90.4091C461.33 90.0114 460.653 89.8125 459.801 89.8125C458.883 89.8125 458.144 90.0114 457.585 90.4091C457.027 90.8068 456.671 91.3561 456.52 92.0568L450.114 91.8295C450.303 90.5038 450.791 89.3201 451.577 88.2784C452.372 87.2273 453.461 86.4034 454.844 85.8068C456.236 85.2008 457.907 84.8977 459.858 84.8977C461.25 84.8977 462.533 85.0634 463.707 85.3949C464.882 85.7169 465.904 86.1903 466.776 86.8153C467.647 87.4309 468.319 88.1884 468.793 89.0881C469.276 89.9877 469.517 91.0152 469.517 92.1705V107H462.983V103.96H462.812C462.424 104.699 461.927 105.324 461.321 105.835C460.724 106.347 460.019 106.73 459.205 106.986C458.4 107.241 457.491 107.369 456.477 107.369ZM458.622 102.824C459.37 102.824 460.043 102.672 460.639 102.369C461.245 102.066 461.728 101.65 462.088 101.119C462.448 100.58 462.628 99.9545 462.628 99.2443V97.1705C462.429 97.2746 462.188 97.3693 461.903 97.4545C461.629 97.5398 461.326 97.6203 460.994 97.696C460.663 97.7718 460.322 97.8381 459.972 97.8949C459.621 97.9517 459.285 98.0038 458.963 98.0511C458.31 98.1553 457.751 98.3163 457.287 98.5341C456.832 98.7519 456.482 99.036 456.236 99.3864C455.999 99.7273 455.881 100.134 455.881 100.608C455.881 101.328 456.136 101.877 456.648 102.256C457.169 102.634 457.827 102.824 458.622 102.824ZM489.19 85.1818V90.4943H480.483V107H473.764V85.1818H489.19ZM69.8438 131.619V125.909H94.4318V131.619H85.6108V155H78.679V131.619H69.8438ZM101.048 155.369C99.6555 155.369 98.4197 155.137 97.3402 154.673C96.2701 154.2 95.4226 153.49 94.7976 152.543C94.1821 151.586 93.8743 150.388 93.8743 148.949C93.8743 147.737 94.0874 146.714 94.5135 145.881C94.9396 145.047 95.5268 144.37 96.2749 143.849C97.023 143.329 97.8847 142.936 98.8601 142.67C99.8355 142.396 100.877 142.211 101.985 142.116C103.226 142.003 104.225 141.884 104.982 141.761C105.74 141.629 106.289 141.444 106.63 141.207C106.98 140.961 107.156 140.616 107.156 140.17V140.099C107.156 139.37 106.905 138.807 106.403 138.409C105.901 138.011 105.224 137.812 104.371 137.812C103.453 137.812 102.714 138.011 102.156 138.409C101.597 138.807 101.242 139.356 101.09 140.057L94.6839 139.83C94.8733 138.504 95.361 137.32 96.147 136.278C96.9425 135.227 98.0315 134.403 99.4141 133.807C100.806 133.201 102.478 132.898 104.428 132.898C105.82 132.898 107.103 133.063 108.278 133.395C109.452 133.717 110.475 134.19 111.346 134.815C112.217 135.431 112.889 136.188 113.363 137.088C113.846 137.988 114.087 139.015 114.087 140.17V155H107.553V151.96H107.383C106.995 152.699 106.497 153.324 105.891 153.835C105.295 154.347 104.589 154.73 103.775 154.986C102.97 155.241 102.061 155.369 101.048 155.369ZM103.192 150.824C103.941 150.824 104.613 150.672 105.21 150.369C105.816 150.066 106.299 149.65 106.658 149.119C107.018 148.58 107.198 147.955 107.198 147.244V145.17C106.999 145.275 106.758 145.369 106.474 145.455C106.199 145.54 105.896 145.62 105.565 145.696C105.233 145.772 104.892 145.838 104.542 145.895C104.192 145.952 103.855 146.004 103.533 146.051C102.88 146.155 102.321 146.316 101.857 146.534C101.403 146.752 101.052 147.036 100.806 147.386C100.569 147.727 100.451 148.134 100.451 148.608C100.451 149.328 100.707 149.877 101.218 150.256C101.739 150.634 102.397 150.824 103.192 150.824ZM116.406 138.494V133.182H136.861V138.494H129.886V155H123.295V138.494H116.406ZM145.657 155.369C144.265 155.369 143.029 155.137 141.95 154.673C140.879 154.2 140.032 153.49 139.407 152.543C138.791 151.586 138.484 150.388 138.484 148.949C138.484 147.737 138.697 146.714 139.123 145.881C139.549 145.047 140.136 144.37 140.884 143.849C141.632 143.329 142.494 142.936 143.469 142.67C144.445 142.396 145.487 142.211 146.594 142.116C147.835 142.003 148.834 141.884 149.592 141.761C150.349 141.629 150.898 141.444 151.239 141.207C151.59 140.961 151.765 140.616 151.765 140.17V140.099C151.765 139.37 151.514 138.807 151.012 138.409C150.51 138.011 149.833 137.812 148.981 137.812C148.062 137.812 147.324 138.011 146.765 138.409C146.206 138.807 145.851 139.356 145.7 140.057L139.293 139.83C139.483 138.504 139.97 137.32 140.756 136.278C141.552 135.227 142.641 134.403 144.023 133.807C145.415 133.201 147.087 132.898 149.038 132.898C150.43 132.898 151.713 133.063 152.887 133.395C154.061 133.717 155.084 134.19 155.955 134.815C156.826 135.431 157.499 136.188 157.972 137.088C158.455 137.988 158.697 139.015 158.697 140.17V155H152.163V151.96H151.992C151.604 152.699 151.107 153.324 150.501 153.835C149.904 154.347 149.199 154.73 148.384 154.986C147.579 155.241 146.67 155.369 145.657 155.369ZM147.802 150.824C148.55 150.824 149.222 150.672 149.819 150.369C150.425 150.066 150.908 149.65 151.268 149.119C151.628 148.58 151.808 147.955 151.808 147.244V145.17C151.609 145.275 151.367 145.369 151.083 145.455C150.808 145.54 150.505 145.62 150.174 145.696C149.843 145.772 149.502 145.838 149.151 145.895C148.801 145.952 148.465 146.004 148.143 146.051C147.489 146.155 146.931 146.316 146.467 146.534C146.012 146.752 145.662 147.036 145.415 147.386C145.179 147.727 145.06 148.134 145.06 148.608C145.06 149.328 145.316 149.877 145.827 150.256C146.348 150.634 147.006 150.824 147.802 150.824ZM168.853 133.182L172.447 140.369L176.168 133.182H183.171L177.077 144.091L183.398 155H176.452L172.447 147.756L168.54 155H161.495L167.83 144.091L161.808 133.182H168.853ZM200.845 133.182L204.439 140.369L208.161 133.182H215.163L209.07 144.091L215.391 155H208.445L204.439 147.756L200.533 155H193.487L199.822 144.091L193.8 133.182H200.845ZM216.587 133.182H223.548L227.283 147.77L230.82 133.182H237.724L230.423 154.915V163.182H223.888V154.915L216.587 133.182ZM259.425 133.182V155H252.891V133.182H259.425ZM256.115 142.486V147.798C255.746 147.988 255.225 148.172 254.553 148.352C253.89 148.523 253.189 148.665 252.45 148.778C251.721 148.892 251.072 148.949 250.504 148.949C247.152 148.949 244.524 148.31 242.621 147.031C240.727 145.743 239.78 143.651 239.78 140.753V133.168H246.271V140.753C246.271 141.501 246.39 142.083 246.626 142.5C246.873 142.917 247.299 143.21 247.905 143.381C248.52 143.551 249.387 143.636 250.504 143.636C251.357 143.636 252.228 143.542 253.118 143.352C254.018 143.153 255.017 142.865 256.115 142.486ZM370.678 151.733C369.656 151.733 368.78 151.373 368.05 150.653C367.331 149.934 366.976 149.062 366.985 148.04C366.976 147.036 367.331 146.179 368.05 145.469C368.78 144.749 369.656 144.389 370.678 144.389C371.644 144.389 372.496 144.749 373.235 145.469C373.983 146.179 374.362 147.036 374.371 148.04C374.362 148.722 374.182 149.342 373.832 149.901C373.491 150.459 373.041 150.904 372.482 151.236C371.933 151.567 371.332 151.733 370.678 151.733ZM370.678 137.614C369.656 137.614 368.78 137.254 368.05 136.534C367.331 135.814 366.976 134.943 366.985 133.92C366.976 132.917 367.331 132.06 368.05 131.349C368.78 130.63 369.656 130.27 370.678 130.27C371.644 130.27 372.496 130.63 373.235 131.349C373.983 132.06 374.362 132.917 374.371 133.92C374.362 134.602 374.182 135.223 373.832 135.781C373.491 136.34 373.041 136.785 372.482 137.116C371.933 137.448 371.332 137.614 370.678 137.614ZM398.562 155.398C396.346 155.398 394.381 155.019 392.667 154.261C390.962 153.494 389.618 152.438 388.633 151.094C387.648 149.749 387.146 148.201 387.127 146.449H394.201C394.229 147.083 394.433 147.647 394.812 148.139C395.191 148.622 395.707 149.001 396.36 149.276C397.013 149.55 397.757 149.688 398.59 149.688C399.424 149.688 400.157 149.541 400.792 149.247C401.436 148.944 401.938 148.532 402.298 148.011C402.657 147.481 402.833 146.875 402.823 146.193C402.833 145.511 402.638 144.905 402.241 144.375C401.843 143.845 401.28 143.433 400.55 143.139C399.831 142.846 398.978 142.699 397.994 142.699H395.167V137.699H397.994C398.855 137.699 399.613 137.557 400.266 137.273C400.929 136.989 401.445 136.591 401.815 136.08C402.184 135.559 402.364 134.962 402.354 134.29C402.364 133.636 402.208 133.063 401.886 132.571C401.573 132.069 401.133 131.681 400.565 131.406C400.006 131.132 399.357 130.994 398.619 130.994C397.842 130.994 397.137 131.132 396.502 131.406C395.877 131.681 395.38 132.069 395.011 132.571C394.641 133.073 394.447 133.655 394.428 134.318H387.71C387.728 132.585 388.211 131.061 389.158 129.744C390.105 128.419 391.393 127.382 393.022 126.634C394.66 125.885 396.526 125.511 398.619 125.511C400.702 125.511 402.534 125.876 404.116 126.605C405.697 127.334 406.928 128.329 407.809 129.588C408.69 130.838 409.13 132.254 409.13 133.835C409.139 135.473 408.604 136.823 407.525 137.884C406.455 138.944 405.077 139.598 403.391 139.844V140.071C405.645 140.336 407.345 141.065 408.491 142.259C409.646 143.452 410.219 144.943 410.21 146.733C410.21 148.419 409.712 149.915 408.718 151.222C407.733 152.519 406.36 153.542 404.599 154.29C402.847 155.028 400.835 155.398 398.562 155.398ZM417.319 155.412C416.296 155.412 415.42 155.052 414.691 154.332C413.971 153.613 413.616 152.741 413.626 151.719C413.616 150.715 413.971 149.858 414.691 149.148C415.42 148.428 416.296 148.068 417.319 148.068C418.285 148.068 419.137 148.428 419.876 149.148C420.624 149.858 421.003 150.715 421.012 151.719C421.003 152.401 420.823 153.021 420.472 153.58C420.131 154.138 419.682 154.583 419.123 154.915C418.574 155.246 417.972 155.412 417.319 155.412ZM425.529 155L437.262 131.761V131.577H423.54V125.909H444.535V131.619L432.759 155H425.529ZM470.256 147.585L475.597 133.182H480.682L472.486 155H468.026L460.043 133.182H465.114L470.256 147.585ZM463.622 133.182V155H457.045V133.182H463.622ZM477.287 155V133.182H483.778V155H477.287ZM501.449 124.545L492.074 159.375H486.151L495.526 124.545H501.449ZM514.222 155.412C511.921 155.412 509.947 154.938 508.299 153.991C506.661 153.045 505.401 151.728 504.521 150.043C503.64 148.348 503.2 146.387 503.2 144.162C503.2 141.927 503.64 139.967 504.521 138.281C505.411 136.586 506.675 135.265 508.313 134.318C509.961 133.371 511.926 132.898 514.208 132.898C516.225 132.898 517.982 133.262 519.478 133.991C520.984 134.721 522.158 135.753 523.001 137.088C523.853 138.414 524.303 139.972 524.35 141.761H517.859C517.726 140.644 517.347 139.768 516.722 139.134C516.107 138.499 515.302 138.182 514.308 138.182C513.503 138.182 512.797 138.409 512.191 138.864C511.585 139.309 511.112 139.972 510.771 140.852C510.439 141.723 510.273 142.803 510.273 144.091C510.273 145.379 510.439 146.468 510.771 147.358C511.112 148.239 511.585 148.906 512.191 149.361C512.797 149.806 513.503 150.028 514.308 150.028C514.951 150.028 515.52 149.891 516.012 149.616C516.514 149.342 516.926 148.939 517.248 148.409C517.57 147.869 517.773 147.216 517.859 146.449H524.35C524.284 148.248 523.834 149.82 523.001 151.165C522.177 152.509 521.017 153.556 519.521 154.304C518.034 155.043 516.268 155.412 514.222 155.412ZM527.379 140.455V137.017L534.382 131.605C534.865 131.226 535.291 130.881 535.661 130.568C536.03 130.246 536.319 129.92 536.527 129.588C536.745 129.257 536.854 128.883 536.854 128.466C536.854 127.841 536.589 127.367 536.058 127.045C535.537 126.714 534.908 126.548 534.169 126.548C533.374 126.548 532.734 126.733 532.251 127.102C531.768 127.472 531.527 128.03 531.527 128.778H526.939C526.939 126.884 527.621 125.412 528.984 124.361C530.357 123.31 532.105 122.784 534.226 122.784C535.684 122.784 536.948 123.035 538.018 123.537C539.098 124.039 539.931 124.716 540.518 125.568C541.106 126.42 541.399 127.367 541.399 128.409C541.399 129.261 541.219 130.052 540.859 130.781C540.509 131.51 539.964 132.216 539.226 132.898C538.497 133.58 537.559 134.271 536.413 134.972L534.254 136.392V136.548H541.499V140.455H527.379ZM69.8438 179.619V173.909H94.4318V179.619H85.6108V203H78.679V179.619H69.8438ZM104.901 203.412C102.618 203.412 100.649 202.962 98.9915 202.062C97.3438 201.153 96.0748 199.861 95.1847 198.185C94.304 196.499 93.8636 194.496 93.8636 192.176C93.8636 189.922 94.3087 187.953 95.1989 186.267C96.089 184.572 97.3438 183.256 98.9631 182.318C100.582 181.371 102.491 180.898 104.688 180.898C106.241 180.898 107.661 181.139 108.949 181.622C110.237 182.105 111.349 182.82 112.287 183.767C113.224 184.714 113.954 185.884 114.474 187.276C114.995 188.658 115.256 190.244 115.256 192.034V193.767H96.2926V189.733H108.793C108.783 188.994 108.608 188.336 108.267 187.759C107.926 187.181 107.457 186.731 106.861 186.409C106.274 186.078 105.597 185.912 104.83 185.912C104.053 185.912 103.357 186.087 102.741 186.438C102.126 186.778 101.638 187.247 101.278 187.844C100.919 188.431 100.729 189.098 100.71 189.847V193.952C100.71 194.842 100.885 195.623 101.236 196.295C101.586 196.958 102.083 197.474 102.727 197.844C103.371 198.213 104.138 198.398 105.028 198.398C105.644 198.398 106.203 198.312 106.705 198.142C107.206 197.972 107.637 197.721 107.997 197.389C108.357 197.058 108.627 196.651 108.807 196.168L115.185 196.352C114.92 197.782 114.337 199.027 113.438 200.088C112.547 201.139 111.378 201.958 109.929 202.545C108.48 203.123 106.804 203.412 104.901 203.412ZM132.013 195.585L137.354 181.182H142.44L134.244 203H129.783L121.8 181.182H126.871L132.013 195.585ZM125.38 181.182V203H118.803V181.182H125.38ZM139.045 203V181.182H145.536V203H139.045ZM149.741 203V181.182H169.442V203H162.866V186.494H156.232V203H149.741ZM184.041 203.412C181.759 203.412 179.789 202.962 178.132 202.062C176.484 201.153 175.215 199.861 174.325 198.185C173.445 196.499 173.004 194.496 173.004 192.176C173.004 189.922 173.449 187.953 174.339 186.267C175.23 184.572 176.484 183.256 178.104 182.318C179.723 181.371 181.631 180.898 183.828 180.898C185.381 180.898 186.802 181.139 188.089 181.622C189.377 182.105 190.49 182.82 191.428 183.767C192.365 184.714 193.094 185.884 193.615 187.276C194.136 188.658 194.396 190.244 194.396 192.034V193.767H175.433V189.733H187.933C187.924 188.994 187.749 188.336 187.408 187.759C187.067 187.181 186.598 186.731 186.001 186.409C185.414 186.078 184.737 185.912 183.97 185.912C183.194 185.912 182.498 186.087 181.882 186.438C181.267 186.778 180.779 187.247 180.419 187.844C180.059 188.431 179.87 189.098 179.851 189.847V193.952C179.851 194.842 180.026 195.623 180.376 196.295C180.727 196.958 181.224 197.474 181.868 197.844C182.512 198.213 183.279 198.398 184.169 198.398C184.785 198.398 185.343 198.312 185.845 198.142C186.347 197.972 186.778 197.721 187.138 197.389C187.498 197.058 187.768 196.651 187.947 196.168L194.325 196.352C194.06 197.782 193.478 199.027 192.578 200.088C191.688 201.139 190.518 201.958 189.07 202.545C187.621 203.123 185.945 203.412 184.041 203.412ZM197.944 211.182V181.182H204.819V184.918H205.032C205.316 184.255 205.719 183.616 206.239 183C206.77 182.384 207.442 181.883 208.256 181.494C209.08 181.097 210.065 180.898 211.211 180.898C212.726 180.898 214.142 181.295 215.458 182.091C216.784 182.886 217.854 184.113 218.668 185.77C219.483 187.427 219.89 189.539 219.89 192.105C219.89 194.577 219.497 196.646 218.711 198.312C217.934 199.979 216.883 201.229 215.558 202.062C214.241 202.896 212.778 203.312 211.168 203.312C210.07 203.312 209.118 203.133 208.313 202.773C207.508 202.413 206.831 201.939 206.282 201.352C205.742 200.765 205.326 200.135 205.032 199.463H204.89V211.182H197.944ZM204.748 192.091C204.748 193.265 204.904 194.288 205.217 195.159C205.539 196.03 205.998 196.707 206.594 197.19C207.201 197.664 207.925 197.901 208.768 197.901C209.62 197.901 210.344 197.664 210.941 197.19C211.538 196.707 211.987 196.03 212.29 195.159C212.603 194.288 212.759 193.265 212.759 192.091C212.759 190.917 212.603 189.899 212.29 189.037C211.987 188.175 211.538 187.508 210.941 187.034C210.354 186.561 209.629 186.324 208.768 186.324C207.915 186.324 207.191 186.556 206.594 187.02C205.998 187.484 205.539 188.147 205.217 189.009C204.904 189.87 204.748 190.898 204.748 192.091ZM229.68 203.369C228.288 203.369 227.053 203.137 225.973 202.673C224.903 202.2 224.055 201.49 223.43 200.543C222.815 199.586 222.507 198.388 222.507 196.949C222.507 195.737 222.72 194.714 223.146 193.881C223.572 193.047 224.16 192.37 224.908 191.849C225.656 191.329 226.518 190.936 227.493 190.67C228.468 190.396 229.51 190.211 230.618 190.116C231.858 190.003 232.857 189.884 233.615 189.761C234.373 189.629 234.922 189.444 235.263 189.207C235.613 188.961 235.788 188.616 235.788 188.17V188.099C235.788 187.37 235.537 186.807 235.036 186.409C234.534 186.011 233.857 185.812 233.004 185.812C232.086 185.812 231.347 186.011 230.788 186.409C230.23 186.807 229.875 187.356 229.723 188.057L223.317 187.83C223.506 186.504 223.994 185.32 224.78 184.278C225.575 183.227 226.664 182.403 228.047 181.807C229.439 181.201 231.11 180.898 233.061 180.898C234.453 180.898 235.736 181.063 236.911 181.395C238.085 181.717 239.107 182.19 239.979 182.815C240.85 183.431 241.522 184.188 241.996 185.088C242.479 185.988 242.72 187.015 242.72 188.17V203H236.186V199.96H236.016C235.627 200.699 235.13 201.324 234.524 201.835C233.928 202.347 233.222 202.73 232.408 202.986C231.603 203.241 230.694 203.369 229.68 203.369ZM231.825 198.824C232.573 198.824 233.246 198.672 233.842 198.369C234.448 198.066 234.931 197.65 235.291 197.119C235.651 196.58 235.831 195.955 235.831 195.244V193.17C235.632 193.275 235.391 193.369 235.107 193.455C234.832 193.54 234.529 193.62 234.197 193.696C233.866 193.772 233.525 193.838 233.175 193.895C232.824 193.952 232.488 194.004 232.166 194.051C231.513 194.155 230.954 194.316 230.49 194.534C230.036 194.752 229.685 195.036 229.439 195.386C229.202 195.727 229.084 196.134 229.084 196.608C229.084 197.328 229.339 197.877 229.851 198.256C230.372 198.634 231.03 198.824 231.825 198.824ZM245.039 186.494V181.182H265.494V186.494H258.519V203H251.928V186.494H245.039ZM273.05 211.182C272.217 211.182 271.431 211.116 270.692 210.983C269.954 210.86 269.319 210.694 268.789 210.486L270.323 205.443C271.005 205.67 271.621 205.803 272.17 205.841C272.728 205.879 273.207 205.789 273.604 205.571C274.012 205.363 274.324 204.989 274.542 204.449L274.812 203.795L267.056 181.182H274.329L278.349 196.75H278.576L282.653 181.182H289.968L281.744 205.088C281.346 206.281 280.782 207.332 280.053 208.241C279.334 209.16 278.401 209.88 277.255 210.401C276.119 210.921 274.717 211.182 273.05 211.182ZM292.631 211.182V181.182H299.506V184.918H299.719C300.004 184.255 300.406 183.616 300.927 183C301.457 182.384 302.129 181.883 302.944 181.494C303.768 181.097 304.753 180.898 305.898 180.898C307.414 180.898 308.829 181.295 310.146 182.091C311.471 182.886 312.541 184.113 313.356 185.77C314.17 187.427 314.577 189.539 314.577 192.105C314.577 194.577 314.184 196.646 313.398 198.312C312.622 199.979 311.571 201.229 310.245 202.062C308.929 202.896 307.466 203.312 305.856 203.312C304.757 203.312 303.806 203.133 303.001 202.773C302.196 202.413 301.519 201.939 300.969 201.352C300.43 200.765 300.013 200.135 299.719 199.463H299.577V211.182H292.631ZM299.435 192.091C299.435 193.265 299.592 194.288 299.904 195.159C300.226 196.03 300.685 196.707 301.282 197.19C301.888 197.664 302.612 197.901 303.455 197.901C304.308 197.901 305.032 197.664 305.629 197.19C306.225 196.707 306.675 196.03 306.978 195.159C307.29 194.288 307.447 193.265 307.447 192.091C307.447 190.917 307.29 189.899 306.978 189.037C306.675 188.175 306.225 187.508 305.629 187.034C305.041 186.561 304.317 186.324 303.455 186.324C302.603 186.324 301.879 186.556 301.282 187.02C300.685 187.484 300.226 188.147 299.904 189.009C299.592 189.87 299.435 190.898 299.435 192.091ZM373.686 203.412C372.663 203.412 371.787 203.052 371.058 202.332C370.339 201.613 369.983 200.741 369.993 199.719C369.983 198.715 370.339 197.858 371.058 197.148C371.787 196.428 372.663 196.068 373.686 196.068C374.652 196.068 375.504 196.428 376.243 197.148C376.991 197.858 377.37 198.715 377.379 199.719C377.37 200.401 377.19 201.021 376.839 201.58C376.499 202.138 376.049 202.583 375.49 202.915C374.941 203.246 374.339 203.412 373.686 203.412ZM373.686 188.44C372.663 188.44 371.787 188.085 371.058 187.375C370.339 186.655 369.983 185.779 369.993 184.747C369.983 183.743 370.339 182.886 371.058 182.176C371.787 181.456 372.663 181.097 373.686 181.097C374.652 181.097 375.504 181.456 376.243 182.176C376.991 182.886 377.37 183.743 377.379 184.747C377.37 185.429 377.19 186.049 376.839 186.608C376.499 187.167 376.049 187.612 375.49 187.943C374.941 188.275 374.339 188.44 373.686 188.44ZM404.524 185.784V191.125H391.058V185.784H404.524ZM422.823 173.909V203H415.806V180.472H415.636L409.13 184.449V178.369L416.303 173.909H422.823ZM429.254 203V197.943L439.865 188.653C440.661 187.934 441.338 187.276 441.896 186.679C442.455 186.073 442.881 185.467 443.175 184.861C443.468 184.245 443.615 183.578 443.615 182.858C443.615 182.053 443.44 181.366 443.089 180.798C442.739 180.221 442.256 179.776 441.641 179.463C441.025 179.151 440.32 178.994 439.524 178.994C438.719 178.994 438.014 179.16 437.408 179.491C436.802 179.813 436.328 180.282 435.987 180.898C435.656 181.513 435.49 182.261 435.49 183.142H428.828C428.828 181.163 429.273 179.454 430.163 178.014C431.054 176.575 432.304 175.467 433.913 174.69C435.533 173.904 437.412 173.511 439.553 173.511C441.759 173.511 443.677 173.881 445.305 174.619C446.934 175.358 448.194 176.39 449.084 177.716C449.983 179.032 450.433 180.562 450.433 182.304C450.433 183.412 450.211 184.51 449.766 185.599C449.321 186.688 448.52 187.891 447.365 189.207C446.219 190.524 444.59 192.1 442.479 193.938L438.999 197.148V197.332H450.788V203H429.254ZM465.898 203.398C463.777 203.398 461.893 203.014 460.245 202.247C458.597 201.48 457.295 200.424 456.339 199.08C455.392 197.735 454.899 196.191 454.862 194.449H461.68C461.737 195.519 462.172 196.381 462.987 197.034C463.801 197.678 464.772 198 465.898 198C466.779 198 467.56 197.806 468.242 197.418C468.924 197.029 469.459 196.485 469.847 195.784C470.236 195.074 470.425 194.259 470.415 193.341C470.425 192.403 470.231 191.584 469.833 190.884C469.445 190.183 468.905 189.638 468.214 189.25C467.532 188.852 466.746 188.653 465.856 188.653C465.013 188.644 464.213 188.829 463.455 189.207C462.707 189.586 462.139 190.102 461.751 190.756L455.543 189.591L456.808 173.909H475.472V179.577H462.589L461.921 186.438H462.092C462.575 185.633 463.351 184.97 464.421 184.449C465.501 183.919 466.727 183.653 468.1 183.653C469.843 183.653 471.396 184.061 472.759 184.875C474.132 185.68 475.212 186.797 475.998 188.227C476.793 189.657 477.191 191.295 477.191 193.142C477.191 195.14 476.718 196.911 475.771 198.455C474.833 199.998 473.517 201.21 471.822 202.091C470.136 202.962 468.162 203.398 465.898 203.398ZM506.889 203.298L503.224 199.662L511.761 191.125H492.5V185.784H511.761L503.224 177.261L506.889 173.611L521.733 188.455L506.889 203.298ZM545.124 198.795V178.227H550.849V198.795H545.124ZM537.695 191.381V185.642H558.263V191.381H537.695ZM563.239 203V197.943L573.849 188.653C574.645 187.934 575.322 187.276 575.881 186.679C576.439 186.073 576.866 185.467 577.159 184.861C577.453 184.245 577.599 183.578 577.599 182.858C577.599 182.053 577.424 181.366 577.074 180.798C576.723 180.221 576.241 179.776 575.625 179.463C575.009 179.151 574.304 178.994 573.509 178.994C572.704 178.994 571.998 179.16 571.392 179.491C570.786 179.813 570.313 180.282 569.972 180.898C569.64 181.513 569.474 182.261 569.474 183.142H562.812C562.812 181.163 563.258 179.454 564.148 178.014C565.038 176.575 566.288 175.467 567.898 174.69C569.517 173.904 571.397 173.511 573.537 173.511C575.743 173.511 577.661 173.881 579.29 174.619C580.919 175.358 582.178 176.39 583.068 177.716C583.968 179.032 584.418 180.562 584.418 182.304C584.418 183.412 584.195 184.51 583.75 185.599C583.305 186.688 582.505 187.891 581.349 189.207C580.204 190.524 578.575 192.1 576.463 193.938L572.983 197.148V197.332H584.773V203H563.239ZM600.778 203.71C598.24 203.71 596.052 203.109 594.215 201.906C592.378 200.694 590.962 198.956 589.968 196.693C588.974 194.42 588.481 191.688 588.491 188.497C588.5 185.306 588.997 182.598 589.982 180.372C590.977 178.137 592.388 176.437 594.215 175.273C596.052 174.098 598.24 173.511 600.778 173.511C603.316 173.511 605.503 174.098 607.34 175.273C609.187 176.437 610.607 178.137 611.602 180.372C612.596 182.607 613.088 185.315 613.079 188.497C613.079 191.698 612.582 194.435 611.587 196.707C610.593 198.98 609.177 200.718 607.34 201.92C605.513 203.114 603.325 203.71 600.778 203.71ZM600.778 197.957C602.293 197.957 603.519 197.186 604.457 195.642C605.394 194.089 605.858 191.707 605.849 188.497C605.849 186.395 605.636 184.662 605.21 183.298C604.783 181.925 604.192 180.902 603.434 180.23C602.676 179.558 601.791 179.222 600.778 179.222C599.272 179.222 598.055 179.984 597.127 181.509C596.199 183.024 595.73 185.353 595.721 188.497C595.711 190.628 595.915 192.394 596.332 193.795C596.758 195.197 597.354 196.243 598.121 196.935C598.888 197.616 599.774 197.957 600.778 197.957ZM632.788 187.972C631.471 187.972 630.273 187.654 629.194 187.02C628.114 186.376 627.253 185.514 626.609 184.435C625.974 183.355 625.657 182.162 625.657 180.855C625.657 179.539 625.974 178.341 626.609 177.261C627.253 176.182 628.114 175.325 629.194 174.69C630.273 174.046 631.471 173.724 632.788 173.724C634.104 173.724 635.297 174.046 636.367 174.69C637.447 175.325 638.304 176.182 638.938 177.261C639.582 178.341 639.904 179.539 639.904 180.855C639.904 182.162 639.582 183.355 638.938 184.435C638.304 185.514 637.447 186.376 636.367 187.02C635.297 187.654 634.104 187.972 632.788 187.972ZM632.788 183.54C633.28 183.54 633.73 183.421 634.137 183.185C634.544 182.938 634.866 182.612 635.103 182.205C635.349 181.797 635.472 181.348 635.472 180.855C635.472 180.353 635.349 179.899 635.103 179.491C634.866 179.084 634.544 178.762 634.137 178.526C633.73 178.279 633.28 178.156 632.788 178.156C632.286 178.156 631.831 178.279 631.424 178.526C631.017 178.762 630.69 179.084 630.444 179.491C630.207 179.899 630.089 180.348 630.089 180.841C630.089 181.343 630.207 181.802 630.444 182.219C630.69 182.626 631.017 182.948 631.424 183.185C631.841 183.421 632.295 183.54 632.788 183.54ZM670.6 184.449H663.498C663.403 183.72 663.209 183.062 662.915 182.474C662.622 181.887 662.234 181.385 661.751 180.969C661.268 180.552 660.695 180.235 660.032 180.017C659.379 179.79 658.654 179.676 657.859 179.676C656.448 179.676 655.231 180.022 654.208 180.713C653.195 181.404 652.414 182.403 651.864 183.71C651.325 185.017 651.055 186.598 651.055 188.455C651.055 190.386 651.329 192.006 651.879 193.312C652.437 194.61 653.219 195.59 654.222 196.253C655.236 196.906 656.433 197.233 657.816 197.233C658.593 197.233 659.298 197.134 659.933 196.935C660.576 196.736 661.14 196.447 661.623 196.068C662.115 195.68 662.518 195.211 662.83 194.662C663.152 194.103 663.375 193.473 663.498 192.773L670.6 192.815C670.477 194.103 670.103 195.372 669.478 196.622C668.862 197.872 668.015 199.013 666.935 200.045C665.856 201.068 664.54 201.883 662.987 202.489C661.443 203.095 659.672 203.398 657.674 203.398C655.041 203.398 652.683 202.82 650.6 201.665C648.526 200.5 646.888 198.805 645.685 196.58C644.483 194.354 643.881 191.646 643.881 188.455C643.881 185.254 644.492 182.541 645.714 180.315C646.935 178.09 648.588 176.4 650.671 175.244C652.754 174.089 655.089 173.511 657.674 173.511C659.435 173.511 661.064 173.758 662.56 174.25C664.057 174.733 665.373 175.443 666.509 176.381C667.646 177.309 668.569 178.45 669.279 179.804C669.989 181.158 670.43 182.706 670.6 184.449ZM69.5312 258.003V245.517H71.5341C72.2064 245.062 72.822 244.428 73.3807 243.614C73.9394 242.79 74.4176 241.634 74.8153 240.148C75.2131 238.652 75.4972 236.677 75.6676 234.224L76.5767 221.909H96.4773V245.517H99.6023V257.989H92.8409V251H76.2926V258.003H69.5312ZM79.6023 245.517H89.7159V227.619H82.8835L82.429 234.224C82.3059 236.071 82.107 237.7 81.8324 239.111C81.5578 240.522 81.2311 241.753 80.8523 242.804C80.4735 243.846 80.0568 244.75 79.6023 245.517ZM108.977 251.369C107.585 251.369 106.349 251.137 105.27 250.673C104.2 250.2 103.352 249.49 102.727 248.543C102.112 247.586 101.804 246.388 101.804 244.949C101.804 243.737 102.017 242.714 102.443 241.881C102.869 241.047 103.456 240.37 104.205 239.849C104.953 239.329 105.814 238.936 106.79 238.67C107.765 238.396 108.807 238.211 109.915 238.116C111.155 238.003 112.154 237.884 112.912 237.761C113.67 237.629 114.219 237.444 114.56 237.207C114.91 236.961 115.085 236.616 115.085 236.17V236.099C115.085 235.37 114.834 234.807 114.332 234.409C113.83 234.011 113.153 233.812 112.301 233.812C111.383 233.812 110.644 234.011 110.085 234.409C109.527 234.807 109.171 235.356 109.02 236.057L102.614 235.83C102.803 234.504 103.291 233.32 104.077 232.278C104.872 231.227 105.961 230.403 107.344 229.807C108.736 229.201 110.407 228.898 112.358 228.898C113.75 228.898 115.033 229.063 116.207 229.395C117.382 229.717 118.404 230.19 119.276 230.815C120.147 231.431 120.819 232.188 121.293 233.088C121.776 233.988 122.017 235.015 122.017 236.17V251H115.483V247.96H115.312C114.924 248.699 114.427 249.324 113.821 249.835C113.224 250.347 112.519 250.73 111.705 250.986C110.9 251.241 109.991 251.369 108.977 251.369ZM111.122 246.824C111.87 246.824 112.543 246.672 113.139 246.369C113.745 246.066 114.228 245.65 114.588 245.119C114.948 244.58 115.128 243.955 115.128 243.244V241.17C114.929 241.275 114.688 241.369 114.403 241.455C114.129 241.54 113.826 241.62 113.494 241.696C113.163 241.772 112.822 241.838 112.472 241.895C112.121 241.952 111.785 242.004 111.463 242.051C110.81 242.155 110.251 242.316 109.787 242.534C109.332 242.752 108.982 243.036 108.736 243.386C108.499 243.727 108.381 244.134 108.381 244.608C108.381 245.328 108.636 245.877 109.148 246.256C109.669 246.634 110.327 246.824 111.122 246.824ZM141.69 229.182V234.494H132.983V251H126.264V229.182H141.69ZM149.222 259.182C148.389 259.182 147.603 259.116 146.864 258.983C146.126 258.86 145.491 258.694 144.961 258.486L146.495 253.443C147.177 253.67 147.792 253.803 148.342 253.841C148.9 253.879 149.379 253.789 149.776 253.571C150.183 253.363 150.496 252.989 150.714 252.449L150.984 251.795L143.228 229.182H150.501L154.521 244.75H154.748L158.825 229.182H166.14L157.915 253.088C157.518 254.281 156.954 255.332 156.225 256.241C155.505 257.16 154.573 257.88 153.427 258.401C152.29 258.921 150.889 259.182 149.222 259.182ZM173.05 259.182C172.217 259.182 171.431 259.116 170.692 258.983C169.954 258.86 169.319 258.694 168.789 258.486L170.323 253.443C171.005 253.67 171.621 253.803 172.17 253.841C172.728 253.879 173.207 253.789 173.604 253.571C174.012 253.363 174.324 252.989 174.542 252.449L174.812 251.795L167.056 229.182H174.329L178.349 244.75H178.576L182.653 229.182H189.968L181.744 253.088C181.346 254.281 180.782 255.332 180.053 256.241C179.334 257.16 178.401 257.88 177.255 258.401C176.119 258.921 174.717 259.182 173.05 259.182ZM189.808 251L189.766 245.645H190.462C190.935 245.645 191.347 245.522 191.697 245.276C192.048 245.029 192.341 244.636 192.578 244.097C192.815 243.547 193.004 242.842 193.146 241.98C193.288 241.118 193.378 240.072 193.416 238.841L193.771 229.182H211.044V251H204.467V234.494H199.95L199.609 240.773C199.524 242.619 199.283 244.196 198.885 245.503C198.497 246.8 197.966 247.851 197.294 248.656C196.631 249.461 195.845 250.053 194.936 250.432C194.027 250.811 193 251 191.854 251H189.808ZM219.364 235.489H225.984C228.986 235.489 231.339 236.194 233.043 237.605C234.748 239.007 235.605 240.91 235.614 243.315C235.605 244.878 235.212 246.237 234.435 247.392C233.668 248.538 232.565 249.428 231.126 250.062C229.696 250.688 227.982 251 225.984 251H215.288V229.182H221.864V245.688H225.984C226.893 245.688 227.641 245.465 228.228 245.02C228.815 244.575 229.113 244.002 229.123 243.301C229.113 242.562 228.815 241.961 228.228 241.497C227.641 241.033 226.893 240.801 225.984 240.801H219.364V235.489ZM237.575 251V229.182H244.521V251H237.575ZM264.304 237.378V242.676H253.111V237.378H264.304ZM255.497 229.182V251H248.92V229.182H255.497ZM268.494 229.182V251H261.96V229.182H268.494ZM280.195 234.494V229.182H300.65V234.494H293.675V251H287.085V234.494H280.195ZM313.48 251.412C311.188 251.412 309.219 250.943 307.571 250.006C305.933 249.059 304.669 247.742 303.778 246.057C302.898 244.362 302.457 242.397 302.457 240.162C302.457 237.918 302.898 235.953 303.778 234.267C304.669 232.572 305.933 231.256 307.571 230.318C309.219 229.371 311.188 228.898 313.48 228.898C315.772 228.898 317.737 229.371 319.375 230.318C321.023 231.256 322.287 232.572 323.168 234.267C324.058 235.953 324.503 237.918 324.503 240.162C324.503 242.397 324.058 244.362 323.168 246.057C322.287 247.742 321.023 249.059 319.375 250.006C317.737 250.943 315.772 251.412 313.48 251.412ZM313.523 246.17C314.356 246.17 315.062 245.915 315.639 245.403C316.217 244.892 316.657 244.182 316.96 243.273C317.273 242.364 317.429 241.312 317.429 240.119C317.429 238.907 317.273 237.847 316.96 236.938C316.657 236.028 316.217 235.318 315.639 234.807C315.062 234.295 314.356 234.04 313.523 234.04C312.661 234.04 311.932 234.295 311.335 234.807C310.748 235.318 310.298 236.028 309.986 236.938C309.683 237.847 309.531 238.907 309.531 240.119C309.531 241.312 309.683 242.364 309.986 243.273C310.298 244.182 310.748 244.892 311.335 245.403C311.932 245.915 312.661 246.17 313.523 246.17ZM338.246 251.412C335.954 251.412 333.984 250.943 332.337 250.006C330.698 249.059 329.434 247.742 328.544 246.057C327.663 244.362 327.223 242.397 327.223 240.162C327.223 237.918 327.663 235.953 328.544 234.267C329.434 232.572 330.698 231.256 332.337 230.318C333.984 229.371 335.954 228.898 338.246 228.898C340.537 228.898 342.502 229.371 344.141 230.318C345.788 231.256 347.053 232.572 347.933 234.267C348.823 235.953 349.268 237.918 349.268 240.162C349.268 242.397 348.823 244.362 347.933 246.057C347.053 247.742 345.788 249.059 344.141 250.006C342.502 250.943 340.537 251.412 338.246 251.412ZM338.288 246.17C339.122 246.17 339.827 245.915 340.405 245.403C340.982 244.892 341.423 244.182 341.726 243.273C342.038 242.364 342.195 241.312 342.195 240.119C342.195 238.907 342.038 237.847 341.726 236.938C341.423 236.028 340.982 235.318 340.405 234.807C339.827 234.295 339.122 234.04 338.288 234.04C337.427 234.04 336.697 234.295 336.101 234.807C335.514 235.318 335.064 236.028 334.751 236.938C334.448 237.847 334.297 238.907 334.297 240.119C334.297 241.312 334.448 242.364 334.751 243.273C335.064 244.182 335.514 244.892 336.101 245.403C336.697 245.915 337.427 246.17 338.288 246.17ZM373.92 247.733C372.898 247.733 372.022 247.373 371.293 246.653C370.573 245.934 370.218 245.062 370.227 244.04C370.218 243.036 370.573 242.179 371.293 241.469C372.022 240.749 372.898 240.389 373.92 240.389C374.886 240.389 375.739 240.749 376.477 241.469C377.225 242.179 377.604 243.036 377.614 244.04C377.604 244.722 377.424 245.342 377.074 245.901C376.733 246.459 376.283 246.904 375.724 247.236C375.175 247.567 374.574 247.733 373.92 247.733ZM373.92 233.614C372.898 233.614 372.022 233.254 371.293 232.534C370.573 231.814 370.218 230.943 370.227 229.92C370.218 228.917 370.573 228.06 371.293 227.349C372.022 226.63 372.898 226.27 373.92 226.27C374.886 226.27 375.739 226.63 376.477 227.349C377.225 228.06 377.604 228.917 377.614 229.92C377.604 230.602 377.424 231.223 377.074 231.781C376.733 232.34 376.283 232.785 375.724 233.116C375.175 233.448 374.574 233.614 373.92 233.614ZM390.739 251V245.943L401.349 236.653C402.145 235.934 402.822 235.276 403.381 234.679C403.939 234.073 404.366 233.467 404.659 232.861C404.953 232.245 405.099 231.578 405.099 230.858C405.099 230.053 404.924 229.366 404.574 228.798C404.223 228.221 403.741 227.776 403.125 227.463C402.509 227.151 401.804 226.994 401.009 226.994C400.204 226.994 399.498 227.16 398.892 227.491C398.286 227.813 397.813 228.282 397.472 228.898C397.14 229.513 396.974 230.261 396.974 231.142H390.312C390.312 229.163 390.758 227.454 391.648 226.014C392.538 224.575 393.788 223.467 395.398 222.69C397.017 221.904 398.897 221.511 401.037 221.511C403.243 221.511 405.161 221.881 406.79 222.619C408.419 223.358 409.678 224.39 410.568 225.716C411.468 227.032 411.918 228.562 411.918 230.304C411.918 231.412 411.695 232.51 411.25 233.599C410.805 234.688 410.005 235.891 408.849 237.207C407.704 238.524 406.075 240.1 403.963 241.938L400.483 245.148V245.332H412.273V251H390.739ZM69.5312 306.003V293.517H71.5341C72.2064 293.062 72.822 292.428 73.3807 291.614C73.9394 290.79 74.4176 289.634 74.8153 288.148C75.2131 286.652 75.4972 284.677 75.6676 282.224L76.5767 269.909H96.4773V293.517H99.6023V305.989H92.8409V299H76.2926V306.003H69.5312ZM79.6023 293.517H89.7159V275.619H82.8835L82.429 282.224C82.3059 284.071 82.107 285.7 81.8324 287.111C81.5578 288.522 81.2311 289.753 80.8523 290.804C80.4735 291.846 80.0568 292.75 79.6023 293.517ZM109.403 290.009L116.378 277.182H123.054V299H116.477V286.131L109.517 299H102.827V277.182H109.403V290.009ZM133.626 299.369C132.234 299.369 130.998 299.137 129.918 298.673C128.848 298.2 128.001 297.49 127.376 296.543C126.76 295.586 126.452 294.388 126.452 292.949C126.452 291.737 126.665 290.714 127.092 289.881C127.518 289.047 128.105 288.37 128.853 287.849C129.601 287.329 130.463 286.936 131.438 286.67C132.414 286.396 133.455 286.211 134.563 286.116C135.804 286.003 136.803 285.884 137.56 285.761C138.318 285.629 138.867 285.444 139.208 285.207C139.558 284.961 139.734 284.616 139.734 284.17V284.099C139.734 283.37 139.483 282.807 138.981 282.409C138.479 282.011 137.802 281.812 136.95 281.812C136.031 281.812 135.292 282.011 134.734 282.409C134.175 282.807 133.82 283.356 133.668 284.057L127.262 283.83C127.451 282.504 127.939 281.32 128.725 280.278C129.521 279.227 130.61 278.403 131.992 277.807C133.384 277.201 135.056 276.898 137.006 276.898C138.398 276.898 139.682 277.063 140.856 277.395C142.03 277.717 143.053 278.19 143.924 278.815C144.795 279.431 145.468 280.188 145.941 281.088C146.424 281.988 146.665 283.015 146.665 284.17V299H140.131V295.96H139.961C139.573 296.699 139.076 297.324 138.469 297.835C137.873 298.347 137.167 298.73 136.353 298.986C135.548 299.241 134.639 299.369 133.626 299.369ZM135.771 294.824C136.519 294.824 137.191 294.672 137.788 294.369C138.394 294.066 138.877 293.65 139.237 293.119C139.596 292.58 139.776 291.955 139.776 291.244V289.17C139.577 289.275 139.336 289.369 139.052 289.455C138.777 289.54 138.474 289.62 138.143 289.696C137.811 289.772 137.47 289.838 137.12 289.895C136.77 289.952 136.433 290.004 136.112 290.051C135.458 290.155 134.899 290.316 134.435 290.534C133.981 290.752 133.63 291.036 133.384 291.386C133.147 291.727 133.029 292.134 133.029 292.608C133.029 293.328 133.285 293.877 133.796 294.256C134.317 294.634 134.975 294.824 135.771 294.824ZM164.123 291.585L169.464 277.182H174.549L166.353 299H161.893L153.91 277.182H158.981L164.123 291.585ZM157.489 277.182V299H150.913V277.182H157.489ZM171.154 299V277.182H177.646V299H171.154ZM192.049 299.412C189.767 299.412 187.797 298.962 186.14 298.062C184.492 297.153 183.223 295.861 182.333 294.185C181.452 292.499 181.012 290.496 181.012 288.176C181.012 285.922 181.457 283.953 182.347 282.267C183.237 280.572 184.492 279.256 186.112 278.318C187.731 277.371 189.639 276.898 191.836 276.898C193.389 276.898 194.809 277.139 196.097 277.622C197.385 278.105 198.498 278.82 199.435 279.767C200.373 280.714 201.102 281.884 201.623 283.276C202.144 284.658 202.404 286.244 202.404 288.034V289.767H183.441V285.733H195.941C195.932 284.994 195.756 284.336 195.415 283.759C195.075 283.181 194.606 282.731 194.009 282.409C193.422 282.078 192.745 281.912 191.978 281.912C191.201 281.912 190.505 282.087 189.89 282.438C189.274 282.778 188.787 283.247 188.427 283.844C188.067 284.431 187.878 285.098 187.859 285.847V289.952C187.859 290.842 188.034 291.623 188.384 292.295C188.735 292.958 189.232 293.474 189.876 293.844C190.52 294.213 191.287 294.398 192.177 294.398C192.792 294.398 193.351 294.312 193.853 294.142C194.355 293.972 194.786 293.721 195.146 293.389C195.505 293.058 195.775 292.651 195.955 292.168L202.333 292.352C202.068 293.782 201.486 295.027 200.586 296.088C199.696 297.139 198.526 297.958 197.077 298.545C195.629 299.123 193.952 299.412 192.049 299.412ZM204.375 282.494V277.182H224.83V282.494H217.855V299H211.264V282.494H204.375ZM228.139 307.182V277.182H235.014V280.918H235.227C235.511 280.255 235.914 279.616 236.435 279C236.965 278.384 237.637 277.883 238.452 277.494C239.276 277.097 240.26 276.898 241.406 276.898C242.921 276.898 244.337 277.295 245.653 278.091C246.979 278.886 248.049 280.113 248.864 281.77C249.678 283.427 250.085 285.539 250.085 288.105C250.085 290.577 249.692 292.646 248.906 294.312C248.13 295.979 247.079 297.229 245.753 298.062C244.437 298.896 242.973 299.312 241.364 299.312C240.265 299.312 239.313 299.133 238.509 298.773C237.704 298.413 237.027 297.939 236.477 297.352C235.938 296.765 235.521 296.135 235.227 295.463H235.085V307.182H228.139ZM234.943 288.091C234.943 289.265 235.099 290.288 235.412 291.159C235.734 292.03 236.193 292.707 236.79 293.19C237.396 293.664 238.12 293.901 238.963 293.901C239.815 293.901 240.54 293.664 241.136 293.19C241.733 292.707 242.183 292.03 242.486 291.159C242.798 290.288 242.955 289.265 242.955 288.091C242.955 286.917 242.798 285.899 242.486 285.037C242.183 284.175 241.733 283.508 241.136 283.034C240.549 282.561 239.825 282.324 238.963 282.324C238.111 282.324 237.386 282.556 236.79 283.02C236.193 283.484 235.734 284.147 235.412 285.009C235.099 285.87 234.943 286.898 234.943 288.091ZM369.35 295.733C368.327 295.733 367.451 295.373 366.722 294.653C366.003 293.934 365.647 293.062 365.657 292.04C365.647 291.036 366.003 290.179 366.722 289.469C367.451 288.749 368.327 288.389 369.35 288.389C370.316 288.389 371.168 288.749 371.907 289.469C372.655 290.179 373.034 291.036 373.043 292.04C373.034 292.722 372.854 293.342 372.504 293.901C372.163 294.459 371.713 294.904 371.154 295.236C370.605 295.567 370.004 295.733 369.35 295.733ZM369.35 281.614C368.327 281.614 367.451 281.254 366.722 280.534C366.003 279.814 365.647 278.943 365.657 277.92C365.647 276.917 366.003 276.06 366.722 275.349C367.451 274.63 368.327 274.27 369.35 274.27C370.316 274.27 371.168 274.63 371.907 275.349C372.655 276.06 373.034 276.917 373.043 277.92C373.034 278.602 372.854 279.223 372.504 279.781C372.163 280.34 371.713 280.785 371.154 281.116C370.605 281.448 370.004 281.614 369.35 281.614ZM397.83 299.398C396.239 299.398 394.715 299.142 393.256 298.631C391.798 298.11 390.501 297.286 389.364 296.159C388.228 295.023 387.333 293.536 386.68 291.699C386.026 289.852 385.704 287.603 385.714 284.952C385.723 282.556 386.017 280.406 386.594 278.503C387.172 276.59 387.996 274.966 389.066 273.631C390.146 272.295 391.433 271.277 392.93 270.577C394.435 269.866 396.116 269.511 397.972 269.511C400.008 269.511 401.803 269.909 403.356 270.705C404.918 271.491 406.168 272.551 407.106 273.886C408.043 275.212 408.597 276.689 408.768 278.318H401.85C401.642 277.4 401.183 276.704 400.472 276.23C399.772 275.747 398.938 275.506 397.972 275.506C396.192 275.506 394.862 276.277 393.981 277.821C393.11 279.365 392.665 281.429 392.646 284.014H392.83C393.228 283.143 393.801 282.395 394.549 281.77C395.297 281.145 396.154 280.667 397.12 280.335C398.095 279.994 399.128 279.824 400.217 279.824C401.959 279.824 403.498 280.226 404.833 281.031C406.168 281.836 407.215 282.939 407.972 284.341C408.73 285.733 409.104 287.329 409.094 289.128C409.104 291.154 408.63 292.944 407.674 294.497C406.718 296.041 405.392 297.243 403.697 298.105C402.011 298.967 400.056 299.398 397.83 299.398ZM397.788 294C398.649 294 399.421 293.796 400.103 293.389C400.785 292.982 401.32 292.428 401.708 291.727C402.096 291.027 402.286 290.236 402.276 289.355C402.286 288.465 402.096 287.674 401.708 286.983C401.329 286.292 400.799 285.742 400.117 285.335C399.445 284.928 398.673 284.724 397.802 284.724C397.167 284.724 396.576 284.843 396.026 285.08C395.477 285.316 394.999 285.648 394.592 286.074C394.194 286.491 393.881 286.983 393.654 287.551C393.427 288.11 393.308 288.716 393.299 289.369C393.308 290.231 393.507 291.012 393.896 291.713C394.284 292.414 394.814 292.973 395.487 293.389C396.159 293.796 396.926 294 397.788 294ZM419.094 295.023L418.967 296.599C418.853 297.906 418.621 299.18 418.271 300.42C417.93 301.67 417.565 302.793 417.177 303.787C416.789 304.781 416.481 305.553 416.254 306.102H411.879C412.03 305.553 412.234 304.781 412.489 303.787C412.754 302.793 413.001 301.67 413.228 300.42C413.455 299.17 413.583 297.902 413.612 296.614L413.64 295.023H419.094ZM424.357 299L436.09 275.761V275.577H422.369V269.909H443.363V275.619L431.587 299H424.357ZM449.24 299L460.973 275.761V275.577H447.251V269.909H468.246V275.619L456.47 299H449.24ZM482.667 269.511C484.258 269.511 485.778 269.772 487.227 270.293C488.675 270.804 489.968 271.623 491.104 272.75C492.241 273.867 493.136 275.34 493.789 277.168C494.442 278.995 494.769 281.225 494.769 283.858C494.779 286.282 494.495 288.455 493.917 290.378C493.339 292.291 492.511 293.92 491.431 295.264C490.361 296.609 489.073 297.636 487.567 298.347C486.062 299.047 484.381 299.398 482.525 299.398C480.479 299.398 478.675 299.005 477.113 298.219C475.56 297.423 474.315 296.353 473.377 295.009C472.449 293.664 471.895 292.158 471.715 290.491H478.633C478.851 291.457 479.31 292.187 480.011 292.679C480.711 293.162 481.549 293.403 482.525 293.403C484.305 293.403 485.636 292.632 486.516 291.088C487.397 289.545 487.837 287.447 487.837 284.795H487.667C487.26 285.667 486.682 286.415 485.934 287.04C485.195 287.665 484.338 288.143 483.363 288.474C482.388 288.806 481.36 288.972 480.281 288.972C478.538 288.972 476.999 288.574 475.664 287.778C474.338 286.983 473.297 285.889 472.539 284.497C471.791 283.105 471.412 281.514 471.403 279.724C471.393 277.717 471.862 275.946 472.809 274.412C473.756 272.868 475.077 271.666 476.772 270.804C478.467 269.933 480.432 269.502 482.667 269.511ZM482.71 274.909C481.838 274.909 481.062 275.113 480.38 275.52C479.708 275.927 479.177 276.476 478.789 277.168C478.401 277.859 478.211 278.635 478.221 279.497C478.23 280.359 478.424 281.135 478.803 281.827C479.192 282.518 479.717 283.067 480.38 283.474C481.052 283.882 481.819 284.085 482.681 284.085C483.325 284.085 483.922 283.967 484.471 283.73C485.02 283.493 485.498 283.167 485.906 282.75C486.313 282.324 486.63 281.831 486.857 281.273C487.094 280.714 487.208 280.117 487.198 279.483C487.189 278.64 486.99 277.873 486.602 277.182C486.213 276.491 485.678 275.941 484.996 275.534C484.324 275.117 483.562 274.909 482.71 274.909ZM507.28 299V277.182H514.226V285.307H515.76L521.058 277.182H529.098L521.754 288.105L529.169 299H521.03L516.243 291.756H514.226V299H507.28ZM544.553 291.585L549.893 277.182H554.979L546.783 299H542.322L534.339 277.182H539.411L544.553 291.585ZM537.919 277.182V299H531.342V277.182H537.919ZM551.584 299V277.182H558.075V299H551.584ZM70.7955 347V317.909H77.8267V329.585H89.2898V317.909H96.3068V347H89.2898V335.31H77.8267V347H70.7955ZM109.07 330.253C108.407 330.253 107.848 330.366 107.393 330.594C106.939 330.821 106.598 331.143 106.371 331.56C106.153 331.976 106.044 332.483 106.044 333.08H99.8793C99.8793 331.82 100.107 330.684 100.561 329.67C101.016 328.648 101.655 327.777 102.479 327.057C103.312 326.328 104.287 325.774 105.405 325.395C106.522 325.007 107.744 324.812 109.07 324.812C111.333 324.812 113.232 325.295 114.766 326.261C116.309 327.227 117.474 328.548 118.26 330.224C119.046 331.891 119.439 333.78 119.439 335.892V336.318C119.439 338.439 119.051 340.338 118.274 342.014C117.498 343.681 116.338 344.997 114.794 345.963C113.26 346.92 111.352 347.398 109.07 347.398C107.251 347.398 105.651 347.052 104.268 346.361C102.895 345.67 101.821 344.666 101.044 343.349C100.268 342.033 99.8793 340.438 99.8793 338.562H106.044C106.044 339.178 106.153 339.741 106.371 340.253C106.589 340.755 106.92 341.157 107.365 341.46C107.82 341.754 108.388 341.905 109.07 341.915C110.14 341.905 110.945 341.612 111.484 341.034C112.034 340.456 112.398 339.737 112.578 338.875C112.768 338.013 112.862 337.161 112.862 336.318V335.892C112.862 334.926 112.763 334.017 112.564 333.165C112.375 332.303 112.005 331.602 111.456 331.062C110.916 330.523 110.121 330.253 109.07 330.253ZM114.723 334.259V337.98H107.635V334.259H114.723ZM138.448 325.182V330.494H129.741V347H123.022V325.182H138.448ZM167.386 334.188V337.994H153.636V334.188H167.386ZM160.511 347.412C158.22 347.412 156.25 346.943 154.602 346.006C152.964 345.059 151.7 343.742 150.81 342.057C149.929 340.362 149.489 338.397 149.489 336.162C149.489 333.918 149.929 331.953 150.81 330.267C151.7 328.572 152.964 327.256 154.602 326.318C156.25 325.371 158.22 324.898 160.511 324.898C162.803 324.898 164.768 325.371 166.406 326.318C168.054 327.256 169.318 328.572 170.199 330.267C171.089 331.953 171.534 333.918 171.534 336.162C171.534 338.397 171.089 340.362 170.199 342.057C169.318 343.742 168.054 345.059 166.406 346.006C164.768 346.943 162.803 347.412 160.511 347.412ZM160.554 342.17C161.387 342.17 162.093 341.915 162.67 341.403C163.248 340.892 163.688 340.182 163.991 339.273C164.304 338.364 164.46 337.312 164.46 336.119C164.46 334.907 164.304 333.847 163.991 332.938C163.688 332.028 163.248 331.318 162.67 330.807C162.093 330.295 161.387 330.04 160.554 330.04C159.692 330.04 158.963 330.295 158.366 330.807C157.779 331.318 157.33 332.028 157.017 332.938C156.714 333.847 156.562 334.907 156.562 336.119C156.562 337.312 156.714 338.364 157.017 339.273C157.33 340.182 157.779 340.892 158.366 341.403C158.963 341.915 159.692 342.17 160.554 342.17ZM173.587 353.435V341.645H175.22C175.713 341.399 176.106 340.925 176.399 340.224C176.693 339.514 176.925 338.686 177.095 337.739C177.275 336.782 177.408 335.788 177.493 334.756C177.588 333.714 177.673 332.734 177.749 331.815L178.26 325.182H195.93V341.645H199.339V353.435H192.749V347H180.348V353.435H173.587ZM181.982 341.645H189.453V330.352H184.055L183.942 331.815C183.809 334.164 183.601 336.134 183.317 337.724C183.033 339.315 182.588 340.622 181.982 341.645ZM219.613 334.188V337.994H205.863V334.188H219.613ZM212.738 347.412C210.446 347.412 208.477 346.943 206.829 346.006C205.191 345.059 203.926 343.742 203.036 342.057C202.156 340.362 201.715 338.397 201.715 336.162C201.715 333.918 202.156 331.953 203.036 330.267C203.926 328.572 205.191 327.256 206.829 326.318C208.477 325.371 210.446 324.898 212.738 324.898C215.03 324.898 216.995 325.371 218.633 326.318C220.281 327.256 221.545 328.572 222.425 330.267C223.316 331.953 223.761 333.918 223.761 336.162C223.761 338.397 223.316 340.362 222.425 342.057C221.545 343.742 220.281 345.059 218.633 346.006C216.995 346.943 215.03 347.412 212.738 347.412ZM212.781 342.17C213.614 342.17 214.319 341.915 214.897 341.403C215.475 340.892 215.915 340.182 216.218 339.273C216.531 338.364 216.687 337.312 216.687 336.119C216.687 334.907 216.531 333.847 216.218 332.938C215.915 332.028 215.475 331.318 214.897 330.807C214.319 330.295 213.614 330.04 212.781 330.04C211.919 330.04 211.19 330.295 210.593 330.807C210.006 331.318 209.556 332.028 209.244 332.938C208.941 333.847 208.789 334.907 208.789 336.119C208.789 337.312 208.941 338.364 209.244 339.273C209.556 340.182 210.006 340.892 210.593 341.403C211.19 341.915 211.919 342.17 212.781 342.17ZM227.319 355.182V325.182H234.194V328.918H234.407C234.691 328.255 235.094 327.616 235.614 327C236.145 326.384 236.817 325.883 237.631 325.494C238.455 325.097 239.44 324.898 240.586 324.898C242.101 324.898 243.517 325.295 244.833 326.091C246.159 326.886 247.229 328.113 248.043 329.77C248.858 331.427 249.265 333.539 249.265 336.105C249.265 338.577 248.872 340.646 248.086 342.312C247.309 343.979 246.258 345.229 244.933 346.062C243.616 346.896 242.153 347.312 240.543 347.312C239.445 347.312 238.493 347.133 237.688 346.773C236.883 346.413 236.206 345.939 235.657 345.352C235.117 344.765 234.701 344.135 234.407 343.463H234.265V355.182H227.319ZM234.123 336.091C234.123 337.265 234.279 338.288 234.592 339.159C234.914 340.03 235.373 340.707 235.969 341.19C236.576 341.664 237.3 341.901 238.143 341.901C238.995 341.901 239.719 341.664 240.316 341.19C240.913 340.707 241.362 340.03 241.665 339.159C241.978 338.288 242.134 337.265 242.134 336.091C242.134 334.917 241.978 333.899 241.665 333.037C241.362 332.175 240.913 331.508 240.316 331.034C239.729 330.561 239.004 330.324 238.143 330.324C237.29 330.324 236.566 330.556 235.969 331.02C235.373 331.484 234.914 332.147 234.592 333.009C234.279 333.87 234.123 334.898 234.123 336.091ZM368.53 343.733C367.507 343.733 366.631 343.373 365.902 342.653C365.182 341.934 364.827 341.062 364.837 340.04C364.827 339.036 365.182 338.179 365.902 337.469C366.631 336.749 367.507 336.389 368.53 336.389C369.496 336.389 370.348 336.749 371.087 337.469C371.835 338.179 372.214 339.036 372.223 340.04C372.214 340.722 372.034 341.342 371.683 341.901C371.342 342.459 370.893 342.904 370.334 343.236C369.785 343.567 369.183 343.733 368.53 343.733ZM368.53 329.614C367.507 329.614 366.631 329.254 365.902 328.534C365.182 327.814 364.827 326.943 364.837 325.92C364.827 324.917 365.182 324.06 365.902 323.349C366.631 322.63 367.507 322.27 368.53 322.27C369.496 322.27 370.348 322.63 371.087 323.349C371.835 324.06 372.214 324.917 372.223 325.92C372.214 326.602 372.034 327.223 371.683 327.781C371.342 328.34 370.893 328.785 370.334 329.116C369.785 329.448 369.183 329.614 368.53 329.614ZM385.348 347V341.943L395.959 332.653C396.754 331.934 397.431 331.276 397.99 330.679C398.549 330.073 398.975 329.467 399.268 328.861C399.562 328.245 399.709 327.578 399.709 326.858C399.709 326.053 399.534 325.366 399.183 324.798C398.833 324.221 398.35 323.776 397.734 323.463C397.119 323.151 396.413 322.994 395.618 322.994C394.813 322.994 394.107 323.16 393.501 323.491C392.895 323.813 392.422 324.282 392.081 324.898C391.75 325.513 391.584 326.261 391.584 327.142H384.922C384.922 325.163 385.367 323.454 386.257 322.014C387.147 320.575 388.397 319.467 390.007 318.69C391.626 317.904 393.506 317.511 395.646 317.511C397.853 317.511 399.77 317.881 401.399 318.619C403.028 319.358 404.287 320.39 405.178 321.716C406.077 323.032 406.527 324.562 406.527 326.304C406.527 327.412 406.304 328.51 405.859 329.599C405.414 330.688 404.614 331.891 403.459 333.207C402.313 334.524 400.684 336.1 398.572 337.938L395.092 341.148V341.332H406.882V347H385.348ZM409.876 342.17V336.688L421.793 317.909H426.665V325.352H423.839L416.864 336.403V336.631H434.123V342.17H409.876ZM423.924 347V340.494L424.066 338.094V317.909H430.643V347H423.924ZM441.499 347.412C440.476 347.412 439.6 347.052 438.871 346.332C438.151 345.613 437.796 344.741 437.805 343.719C437.796 342.715 438.151 341.858 438.871 341.148C439.6 340.428 440.476 340.068 441.499 340.068C442.464 340.068 443.317 340.428 444.055 341.148C444.804 341.858 445.182 342.715 445.192 343.719C445.182 344.401 445.002 345.021 444.652 345.58C444.311 346.138 443.861 346.583 443.303 346.915C442.753 347.246 442.152 347.412 441.499 347.412ZM460.135 347.398C458.544 347.398 457.019 347.142 455.561 346.631C454.103 346.11 452.805 345.286 451.669 344.159C450.533 343.023 449.638 341.536 448.984 339.699C448.331 337.852 448.009 335.603 448.018 332.952C448.028 330.556 448.321 328.406 448.899 326.503C449.477 324.59 450.301 322.966 451.371 321.631C452.45 320.295 453.738 319.277 455.234 318.577C456.74 317.866 458.421 317.511 460.277 317.511C462.313 317.511 464.107 317.909 465.661 318.705C467.223 319.491 468.473 320.551 469.411 321.886C470.348 323.212 470.902 324.689 471.072 326.318H464.155C463.946 325.4 463.487 324.704 462.777 324.23C462.076 323.747 461.243 323.506 460.277 323.506C458.497 323.506 457.166 324.277 456.286 325.821C455.414 327.365 454.969 329.429 454.95 332.014H455.135C455.533 331.143 456.106 330.395 456.854 329.77C457.602 329.145 458.459 328.667 459.425 328.335C460.4 327.994 461.432 327.824 462.521 327.824C464.264 327.824 465.803 328.226 467.138 329.031C468.473 329.836 469.519 330.939 470.277 332.341C471.035 333.733 471.409 335.329 471.399 337.128C471.409 339.154 470.935 340.944 469.979 342.497C469.022 344.041 467.696 345.243 466.001 346.105C464.316 346.967 462.36 347.398 460.135 347.398ZM460.092 342C460.954 342 461.726 341.796 462.408 341.389C463.089 340.982 463.625 340.428 464.013 339.727C464.401 339.027 464.59 338.236 464.581 337.355C464.59 336.465 464.401 335.674 464.013 334.983C463.634 334.292 463.104 333.742 462.422 333.335C461.75 332.928 460.978 332.724 460.107 332.724C459.472 332.724 458.88 332.843 458.331 333.08C457.782 333.316 457.304 333.648 456.896 334.074C456.499 334.491 456.186 334.983 455.959 335.551C455.732 336.11 455.613 336.716 455.604 337.369C455.613 338.231 455.812 339.012 456.2 339.713C456.589 340.414 457.119 340.973 457.791 341.389C458.464 341.796 459.231 342 460.092 342ZM503.739 325.182V342.469H507.362V354.003H500.643V347H484.038V325.182H490.614V341.688H497.262V325.182H503.739ZM516.751 347.369C515.359 347.369 514.123 347.137 513.043 346.673C511.973 346.2 511.126 345.49 510.501 344.543C509.885 343.586 509.577 342.388 509.577 340.949C509.577 339.737 509.79 338.714 510.217 337.881C510.643 337.047 511.23 336.37 511.978 335.849C512.726 335.329 513.588 334.936 514.563 334.67C515.539 334.396 516.58 334.211 517.688 334.116C518.929 334.003 519.928 333.884 520.685 333.761C521.443 333.629 521.992 333.444 522.333 333.207C522.683 332.961 522.859 332.616 522.859 332.17V332.099C522.859 331.37 522.608 330.807 522.106 330.409C521.604 330.011 520.927 329.812 520.075 329.812C519.156 329.812 518.417 330.011 517.859 330.409C517.3 330.807 516.945 331.356 516.793 332.057L510.387 331.83C510.576 330.504 511.064 329.32 511.85 328.278C512.646 327.227 513.735 326.403 515.117 325.807C516.509 325.201 518.181 324.898 520.131 324.898C521.523 324.898 522.807 325.063 523.981 325.395C525.155 325.717 526.178 326.19 527.049 326.815C527.92 327.431 528.593 328.188 529.066 329.088C529.549 329.988 529.79 331.015 529.79 332.17V347H523.256V343.96H523.086C522.698 344.699 522.201 345.324 521.594 345.835C520.998 346.347 520.292 346.73 519.478 346.986C518.673 347.241 517.764 347.369 516.751 347.369ZM518.896 342.824C519.644 342.824 520.316 342.672 520.913 342.369C521.519 342.066 522.002 341.65 522.362 341.119C522.721 340.58 522.901 339.955 522.901 339.244V337.17C522.702 337.275 522.461 337.369 522.177 337.455C521.902 337.54 521.599 337.62 521.268 337.696C520.936 337.772 520.595 337.838 520.245 337.895C519.895 337.952 519.558 338.004 519.237 338.051C518.583 338.155 518.024 338.316 517.56 338.534C517.106 338.752 516.755 339.036 516.509 339.386C516.272 339.727 516.154 340.134 516.154 340.608C516.154 341.328 516.41 341.877 516.921 342.256C517.442 342.634 518.1 342.824 518.896 342.824ZM549.464 325.182V330.494H540.756V347H534.038V325.182H549.464Z" fill="white"/>
<path d="M94.1385 402.398V396.83H95.63C96.4349 396.83 97.0788 396.749 97.5618 396.588C98.0542 396.418 98.4377 396.148 98.7124 395.778C98.9964 395.409 99.2332 394.917 99.4226 394.301L99.7493 393.406L89.0107 372.909H96.2266L102.69 385.977L107.888 372.909H114.991L104.991 395.963C104.47 397.099 103.854 398.16 103.144 399.145C102.434 400.12 101.539 400.906 100.46 401.503C99.3894 402.099 98.04 402.398 96.4112 402.398H94.1385ZM116.894 402L116.852 396.645H117.548C118.021 396.645 118.433 396.522 118.783 396.276C119.134 396.029 119.427 395.636 119.664 395.097C119.901 394.547 120.09 393.842 120.232 392.98C120.374 392.118 120.464 391.072 120.502 389.841L120.857 380.182H138.13V402H131.553V385.494H127.036L126.695 391.773C126.61 393.619 126.369 395.196 125.971 396.503C125.583 397.8 125.052 398.851 124.38 399.656C123.717 400.461 122.931 401.053 122.022 401.432C121.113 401.811 120.085 402 118.94 402H116.894ZM148.524 402.369C147.132 402.369 145.896 402.137 144.817 401.673C143.747 401.2 142.899 400.49 142.274 399.543C141.659 398.586 141.351 397.388 141.351 395.949C141.351 394.737 141.564 393.714 141.99 392.881C142.416 392.047 143.003 391.37 143.751 390.849C144.5 390.329 145.361 389.936 146.337 389.67C147.312 389.396 148.354 389.211 149.462 389.116C150.702 389.003 151.701 388.884 152.459 388.761C153.216 388.629 153.766 388.444 154.107 388.207C154.457 387.961 154.632 387.616 154.632 387.17V387.099C154.632 386.37 154.381 385.807 153.879 385.409C153.377 385.011 152.7 384.812 151.848 384.812C150.929 384.812 150.191 385.011 149.632 385.409C149.073 385.807 148.718 386.356 148.567 387.057L142.161 386.83C142.35 385.504 142.838 384.32 143.624 383.278C144.419 382.227 145.508 381.403 146.891 380.807C148.283 380.201 149.954 379.898 151.905 379.898C153.297 379.898 154.58 380.063 155.754 380.395C156.929 380.717 157.951 381.19 158.822 381.815C159.694 382.431 160.366 383.188 160.839 384.088C161.322 384.988 161.564 386.015 161.564 387.17V402H155.03V398.96H154.859C154.471 399.699 153.974 400.324 153.368 400.835C152.771 401.347 152.066 401.73 151.251 401.986C150.446 402.241 149.537 402.369 148.524 402.369ZM150.669 397.824C151.417 397.824 152.089 397.672 152.686 397.369C153.292 397.066 153.775 396.65 154.135 396.119C154.495 395.58 154.675 394.955 154.675 394.244V392.17C154.476 392.275 154.234 392.369 153.95 392.455C153.676 392.54 153.373 392.62 153.041 392.696C152.71 392.772 152.369 392.838 152.018 392.895C151.668 392.952 151.332 393.004 151.01 393.051C150.357 393.155 149.798 393.316 149.334 393.534C148.879 393.752 148.529 394.036 148.283 394.386C148.046 394.727 147.928 395.134 147.928 395.608C147.928 396.328 148.183 396.877 148.695 397.256C149.215 397.634 149.874 397.824 150.669 397.824ZM171.962 402.369C170.57 402.369 169.334 402.137 168.254 401.673C167.184 401.2 166.337 400.49 165.712 399.543C165.096 398.586 164.788 397.388 164.788 395.949C164.788 394.737 165.001 393.714 165.428 392.881C165.854 392.047 166.441 391.37 167.189 390.849C167.937 390.329 168.799 389.936 169.774 389.67C170.75 389.396 171.791 389.211 172.899 389.116C174.14 389.003 175.139 388.884 175.896 388.761C176.654 388.629 177.203 388.444 177.544 388.207C177.894 387.961 178.07 387.616 178.07 387.17V387.099C178.07 386.37 177.819 385.807 177.317 385.409C176.815 385.011 176.138 384.812 175.286 384.812C174.367 384.812 173.628 385.011 173.07 385.409C172.511 385.807 172.156 386.356 172.004 387.057L165.598 386.83C165.787 385.504 166.275 384.32 167.061 383.278C167.857 382.227 168.946 381.403 170.328 380.807C171.72 380.201 173.392 379.898 175.342 379.898C176.734 379.898 178.018 380.063 179.192 380.395C180.366 380.717 181.389 381.19 182.26 381.815C183.131 382.431 183.804 383.188 184.277 384.088C184.76 384.988 185.001 386.015 185.001 387.17V402H178.467V398.96H178.297C177.909 399.699 177.411 400.324 176.805 400.835C176.209 401.347 175.503 401.73 174.689 401.986C173.884 402.241 172.975 402.369 171.962 402.369ZM174.107 397.824C174.855 397.824 175.527 397.672 176.124 397.369C176.73 397.066 177.213 396.65 177.572 396.119C177.932 395.58 178.112 394.955 178.112 394.244V392.17C177.913 392.275 177.672 392.369 177.388 392.455C177.113 392.54 176.81 392.62 176.479 392.696C176.147 392.772 175.806 392.838 175.456 392.895C175.106 392.952 174.769 393.004 174.447 393.051C173.794 393.155 173.235 393.316 172.771 393.534C172.317 393.752 171.966 394.036 171.72 394.386C171.483 394.727 171.365 395.134 171.365 395.608C171.365 396.328 171.621 396.877 172.132 397.256C172.653 397.634 173.311 397.824 174.107 397.824ZM204.632 388.378V393.676H193.439V388.378H204.632ZM195.825 380.182V402H189.249V380.182H195.825ZM208.822 380.182V402H202.288V380.182H208.822ZM238.691 389.188V392.994H224.941V389.188H238.691ZM231.816 402.412C229.524 402.412 227.555 401.943 225.907 401.006C224.269 400.059 223.004 398.742 222.114 397.057C221.234 395.362 220.793 393.397 220.793 391.162C220.793 388.918 221.234 386.953 222.114 385.267C223.004 383.572 224.269 382.256 225.907 381.318C227.555 380.371 229.524 379.898 231.816 379.898C234.108 379.898 236.073 380.371 237.711 381.318C239.359 382.256 240.623 383.572 241.504 385.267C242.394 386.953 242.839 388.918 242.839 391.162C242.839 393.397 242.394 395.362 241.504 397.057C240.623 398.742 239.359 400.059 237.711 401.006C236.073 401.943 234.108 402.412 231.816 402.412ZM231.859 397.17C232.692 397.17 233.397 396.915 233.975 396.403C234.553 395.892 234.993 395.182 235.296 394.273C235.609 393.364 235.765 392.312 235.765 391.119C235.765 389.907 235.609 388.847 235.296 387.938C234.993 387.028 234.553 386.318 233.975 385.807C233.397 385.295 232.692 385.04 231.859 385.04C230.997 385.04 230.268 385.295 229.671 385.807C229.084 386.318 228.634 387.028 228.322 387.938C228.019 388.847 227.867 389.907 227.867 391.119C227.867 392.312 228.019 393.364 228.322 394.273C228.634 395.182 229.084 395.892 229.671 396.403C230.268 396.915 230.997 397.17 231.859 397.17ZM261.781 388.378V393.676H250.587V388.378H261.781ZM252.974 380.182V402H246.397V380.182H252.974ZM265.971 380.182V402H259.437V380.182H265.971ZM285.612 380.182V385.494H276.905V402H270.186V380.182H285.612ZM305.293 389.188V392.994H291.543V389.188H305.293ZM298.418 402.412C296.126 402.412 294.156 401.943 292.509 401.006C290.87 400.059 289.606 398.742 288.716 397.057C287.835 395.362 287.395 393.397 287.395 391.162C287.395 388.918 287.835 386.953 288.716 385.267C289.606 383.572 290.87 382.256 292.509 381.318C294.156 380.371 296.126 379.898 298.418 379.898C300.709 379.898 302.674 380.371 304.312 381.318C305.96 382.256 307.224 383.572 308.105 385.267C308.995 386.953 309.44 388.918 309.44 391.162C309.44 393.397 308.995 395.362 308.105 397.057C307.224 398.742 305.96 400.059 304.312 401.006C302.674 401.943 300.709 402.412 298.418 402.412ZM298.46 397.17C299.294 397.17 299.999 396.915 300.577 396.403C301.154 395.892 301.595 395.182 301.898 394.273C302.21 393.364 302.366 392.312 302.366 391.119C302.366 389.907 302.21 388.847 301.898 387.938C301.595 387.028 301.154 386.318 300.577 385.807C299.999 385.295 299.294 385.04 298.46 385.04C297.598 385.04 296.869 385.295 296.273 385.807C295.686 386.318 295.236 387.028 294.923 387.938C294.62 388.847 294.469 389.907 294.469 391.119C294.469 392.312 294.62 393.364 294.923 394.273C295.236 395.182 295.686 395.892 296.273 396.403C296.869 396.915 297.598 397.17 298.46 397.17ZM336.976 388.378V393.676H325.783V388.378H336.976ZM328.169 380.182V402H321.592V380.182H328.169ZM341.166 380.182V402H334.632V380.182H341.166ZM349.458 386.489H356.077C359.079 386.489 361.433 387.194 363.137 388.605C364.842 390.007 365.699 391.91 365.708 394.315C365.699 395.878 365.306 397.237 364.529 398.392C363.762 399.538 362.659 400.428 361.219 401.062C359.79 401.688 358.076 402 356.077 402H345.381V380.182H351.958V396.688H356.077C356.987 396.688 357.735 396.465 358.322 396.02C358.909 395.575 359.207 395.002 359.217 394.301C359.207 393.562 358.909 392.961 358.322 392.497C357.735 392.033 356.987 391.801 356.077 391.801H349.458V386.489ZM376.852 385.494V380.182H397.306V385.494H390.332V402H383.741V385.494H376.852ZM417.011 389.188V392.994H403.261V389.188H417.011ZM410.136 402.412C407.845 402.412 405.875 401.943 404.227 401.006C402.589 400.059 401.325 398.742 400.435 397.057C399.554 395.362 399.114 393.397 399.114 391.162C399.114 388.918 399.554 386.953 400.435 385.267C401.325 383.572 402.589 382.256 404.227 381.318C405.875 380.371 407.845 379.898 410.136 379.898C412.428 379.898 414.393 380.371 416.031 381.318C417.679 382.256 418.943 383.572 419.824 385.267C420.714 386.953 421.159 388.918 421.159 391.162C421.159 393.397 420.714 395.362 419.824 397.057C418.943 398.742 417.679 400.059 416.031 401.006C414.393 401.943 412.428 402.412 410.136 402.412ZM410.179 397.17C411.012 397.17 411.718 396.915 412.295 396.403C412.873 395.892 413.313 395.182 413.616 394.273C413.929 393.364 414.085 392.312 414.085 391.119C414.085 389.907 413.929 388.847 413.616 387.938C413.313 387.028 412.873 386.318 412.295 385.807C411.718 385.295 411.012 385.04 410.179 385.04C409.317 385.04 408.588 385.295 407.991 385.807C407.404 386.318 406.955 387.028 406.642 387.938C406.339 388.847 406.188 389.907 406.188 391.119C406.188 392.312 406.339 393.364 406.642 394.273C406.955 395.182 407.404 395.892 407.991 396.403C408.588 396.915 409.317 397.17 410.179 397.17ZM437.928 394.585L443.268 380.182H448.354L440.158 402H435.697L427.714 380.182H432.786L437.928 394.585ZM431.294 380.182V402H424.717V380.182H431.294ZM444.959 402V380.182H451.45V402H444.959ZM455.655 410.182V380.182H462.53V383.918H462.743C463.027 383.255 463.429 382.616 463.95 382C464.481 381.384 465.153 380.883 465.967 380.494C466.791 380.097 467.776 379.898 468.922 379.898C470.437 379.898 471.853 380.295 473.169 381.091C474.495 381.886 475.565 383.113 476.379 384.77C477.194 386.427 477.601 388.539 477.601 391.105C477.601 393.577 477.208 395.646 476.422 397.312C475.645 398.979 474.594 400.229 473.268 401.062C471.952 401.896 470.489 402.312 468.879 402.312C467.781 402.312 466.829 402.133 466.024 401.773C465.219 401.413 464.542 400.939 463.993 400.352C463.453 399.765 463.036 399.135 462.743 398.463H462.601V410.182H455.655ZM462.459 391.091C462.459 392.265 462.615 393.288 462.928 394.159C463.25 395.03 463.709 395.707 464.305 396.19C464.911 396.664 465.636 396.901 466.479 396.901C467.331 396.901 468.055 396.664 468.652 396.19C469.249 395.707 469.698 395.03 470.001 394.159C470.314 393.288 470.47 392.265 470.47 391.091C470.47 389.917 470.314 388.899 470.001 388.037C469.698 387.175 469.249 386.508 468.652 386.034C468.065 385.561 467.34 385.324 466.479 385.324C465.626 385.324 464.902 385.556 464.305 386.02C463.709 386.484 463.25 387.147 462.928 388.009C462.615 388.87 462.459 389.898 462.459 391.091ZM487.817 393.009L494.792 380.182H501.468V402H494.891V389.131L487.931 402H481.241V380.182H487.817V393.009ZM512.466 393.009L519.44 380.182H526.116V402H519.54V389.131L512.58 402H505.889V380.182H512.466V393.009ZM518.815 372.455H523.389C523.38 374.235 522.707 375.665 521.372 376.744C520.046 377.824 518.247 378.364 515.974 378.364C513.702 378.364 511.898 377.824 510.562 376.744C509.237 375.665 508.579 374.235 508.588 372.455H513.119C513.11 373.08 513.323 373.648 513.759 374.159C514.194 374.67 514.933 374.926 515.974 374.926C516.988 374.926 517.712 374.675 518.148 374.173C518.583 373.671 518.806 373.098 518.815 372.455ZM545.921 388.378V393.676H534.728V388.378H545.921ZM537.114 380.182V402H530.538V380.182H537.114ZM550.112 380.182V402H543.577V380.182H550.112ZM569.497 393.009L576.472 380.182H583.148V402H576.571V389.131L569.611 402H562.92V380.182H569.497V393.009ZM597.754 402.412C595.452 402.412 593.478 401.938 591.83 400.991C590.192 400.045 588.933 398.728 588.052 397.043C587.171 395.348 586.731 393.387 586.731 391.162C586.731 388.927 587.171 386.967 588.052 385.281C588.942 383.586 590.206 382.265 591.844 381.318C593.492 380.371 595.457 379.898 597.739 379.898C599.756 379.898 601.513 380.262 603.009 380.991C604.515 381.721 605.689 382.753 606.532 384.088C607.384 385.414 607.834 386.972 607.881 388.761H601.39C601.257 387.644 600.879 386.768 600.254 386.134C599.638 385.499 598.833 385.182 597.839 385.182C597.034 385.182 596.328 385.409 595.722 385.864C595.116 386.309 594.643 386.972 594.302 387.852C593.97 388.723 593.805 389.803 593.805 391.091C593.805 392.379 593.97 393.468 594.302 394.358C594.643 395.239 595.116 395.906 595.722 396.361C596.328 396.806 597.034 397.028 597.839 397.028C598.483 397.028 599.051 396.891 599.543 396.616C600.045 396.342 600.457 395.939 600.779 395.409C601.101 394.869 601.305 394.216 601.39 393.449H607.881C607.815 395.248 607.365 396.82 606.532 398.165C605.708 399.509 604.548 400.556 603.052 401.304C601.565 402.043 599.799 402.412 597.754 402.412ZM619.788 385.253C619.125 385.253 618.567 385.366 618.112 385.594C617.658 385.821 617.317 386.143 617.089 386.56C616.872 386.976 616.763 387.483 616.763 388.08H610.598C610.598 386.82 610.825 385.684 611.28 384.67C611.734 383.648 612.374 382.777 613.197 382.057C614.031 381.328 615.006 380.774 616.124 380.395C617.241 380.007 618.463 379.812 619.788 379.812C622.052 379.812 623.95 380.295 625.484 381.261C627.028 382.227 628.193 383.548 628.979 385.224C629.765 386.891 630.158 388.78 630.158 390.892V391.318C630.158 393.439 629.769 395.338 628.993 397.014C628.216 398.681 627.056 399.997 625.513 400.963C623.979 401.92 622.071 402.398 619.788 402.398C617.97 402.398 616.37 402.052 614.987 401.361C613.614 400.67 612.539 399.666 611.763 398.349C610.986 397.033 610.598 395.438 610.598 393.562H616.763C616.763 394.178 616.872 394.741 617.089 395.253C617.307 395.755 617.639 396.157 618.084 396.46C618.538 396.754 619.107 396.905 619.788 396.915C620.858 396.905 621.663 396.612 622.203 396.034C622.752 395.456 623.117 394.737 623.297 393.875C623.486 393.013 623.581 392.161 623.581 391.318V390.892C623.581 389.926 623.482 389.017 623.283 388.165C623.093 387.303 622.724 386.602 622.175 386.062C621.635 385.523 620.839 385.253 619.788 385.253ZM625.442 389.259V392.98H618.354V389.259H625.442ZM632.675 402L632.633 396.645H633.329C633.802 396.645 634.214 396.522 634.565 396.276C634.915 396.029 635.209 395.636 635.445 395.097C635.682 394.547 635.871 393.842 636.013 392.98C636.156 392.118 636.246 391.072 636.283 389.841L636.638 380.182H653.911V402H647.335V385.494H642.817L642.477 391.773C642.391 393.619 642.15 395.196 641.752 396.503C641.364 397.8 640.834 398.851 640.161 399.656C639.498 400.461 638.712 401.053 637.803 401.432C636.894 401.811 635.867 402 634.721 402H632.675ZM656.227 385.494V380.182H676.681V385.494H669.707V402H663.116V385.494H656.227ZM688.343 385.253C687.68 385.253 687.121 385.366 686.667 385.594C686.212 385.821 685.871 386.143 685.644 386.56C685.426 386.976 685.317 387.483 685.317 388.08H679.153C679.153 386.82 679.38 385.684 679.835 384.67C680.289 383.648 680.928 382.777 681.752 382.057C682.585 381.328 683.561 380.774 684.678 380.395C685.796 380.007 687.017 379.812 688.343 379.812C690.606 379.812 692.505 380.295 694.039 381.261C695.583 382.227 696.747 383.548 697.533 385.224C698.319 386.891 698.712 388.78 698.712 390.892V391.318C698.712 393.439 698.324 395.338 697.548 397.014C696.771 398.681 695.611 399.997 694.067 400.963C692.533 401.92 690.625 402.398 688.343 402.398C686.525 402.398 684.924 402.052 683.542 401.361C682.169 400.67 681.094 399.666 680.317 398.349C679.541 397.033 679.153 395.438 679.153 393.562H685.317C685.317 394.178 685.426 394.741 685.644 395.253C685.862 395.755 686.193 396.157 686.638 396.46C687.093 396.754 687.661 396.905 688.343 396.915C689.413 396.905 690.218 396.612 690.758 396.034C691.307 395.456 691.672 394.737 691.852 393.875C692.041 393.013 692.136 392.161 692.136 391.318V390.892C692.136 389.926 692.036 389.017 691.837 388.165C691.648 387.303 691.279 386.602 690.729 386.062C690.19 385.523 689.394 385.253 688.343 385.253ZM693.996 389.259V392.98H686.908V389.259H693.996ZM708.872 393.009L715.847 380.182H722.523V402H715.946V389.131L708.986 402H702.295V380.182H708.872V393.009ZM715.222 372.455H719.795C719.786 374.235 719.114 375.665 717.778 376.744C716.453 377.824 714.653 378.364 712.381 378.364C710.108 378.364 708.304 377.824 706.969 376.744C705.643 375.665 704.985 374.235 704.994 372.455H709.526C709.516 373.08 709.729 373.648 710.165 374.159C710.6 374.67 711.339 374.926 712.381 374.926C713.394 374.926 714.118 374.675 714.554 374.173C714.99 373.671 715.212 373.098 715.222 372.455ZM300.099 428.182L303.693 435.369L307.414 428.182H314.417L308.324 439.091L314.645 450H307.699L303.693 442.756L299.787 450H292.741L299.076 439.091L293.054 428.182H300.099ZM326.992 450.412C324.7 450.412 322.73 449.943 321.083 449.006C319.444 448.059 318.18 446.742 317.29 445.057C316.409 443.362 315.969 441.397 315.969 439.162C315.969 436.918 316.409 434.953 317.29 433.267C318.18 431.572 319.444 430.256 321.083 429.318C322.73 428.371 324.7 427.898 326.992 427.898C329.283 427.898 331.248 428.371 332.887 429.318C334.534 430.256 335.799 431.572 336.679 433.267C337.569 434.953 338.015 436.918 338.015 439.162C338.015 441.397 337.569 443.362 336.679 445.057C335.799 446.742 334.534 448.059 332.887 449.006C331.248 449.943 329.283 450.412 326.992 450.412ZM327.034 445.17C327.868 445.17 328.573 444.915 329.151 444.403C329.729 443.892 330.169 443.182 330.472 442.273C330.784 441.364 330.941 440.312 330.941 439.119C330.941 437.907 330.784 436.847 330.472 435.938C330.169 435.028 329.729 434.318 329.151 433.807C328.573 433.295 327.868 433.04 327.034 433.04C326.173 433.04 325.444 433.295 324.847 433.807C324.26 434.318 323.81 435.028 323.498 435.938C323.194 436.847 323.043 437.907 323.043 439.119C323.043 440.312 323.194 441.364 323.498 442.273C323.81 443.182 324.26 443.892 324.847 444.403C325.444 444.915 326.173 445.17 327.034 445.17ZM340.507 450L340.465 444.645H341.161C341.634 444.645 342.046 444.522 342.397 444.276C342.747 444.029 343.041 443.636 343.277 443.097C343.514 442.547 343.703 441.842 343.846 440.98C343.988 440.118 344.078 439.072 344.115 437.841L344.471 428.182H361.743V450H355.167V433.494H350.65L350.309 439.773C350.223 441.619 349.982 443.196 349.584 444.503C349.196 445.8 348.666 446.851 347.993 447.656C347.33 448.461 346.544 449.053 345.635 449.432C344.726 449.811 343.699 450 342.553 450H340.507ZM384.779 420.227L386.654 424.815C386.058 425.279 385.404 425.63 384.694 425.866C383.993 426.103 383.136 426.264 382.123 426.349C381.11 426.435 379.832 426.482 378.288 426.491C376.546 426.501 375.135 426.742 374.055 427.216C372.975 427.68 372.156 428.442 371.598 429.503C371.048 430.554 370.684 431.955 370.504 433.707H370.689C371.314 432.391 372.204 431.354 373.359 430.597C374.514 429.839 376.006 429.46 377.833 429.46C379.737 429.46 381.394 429.872 382.805 430.696C384.216 431.51 385.305 432.675 386.072 434.19C386.839 435.696 387.223 437.486 387.223 439.56C387.223 441.757 386.782 443.67 385.902 445.298C385.021 446.927 383.761 448.187 382.123 449.077C380.485 449.967 378.525 450.412 376.243 450.412C373.96 450.412 371.995 449.948 370.348 449.02C368.709 448.092 367.445 446.728 366.555 444.929C365.674 443.12 365.234 440.9 365.234 438.267V436.676C365.234 431.278 366.323 427.306 368.501 424.759C370.679 422.211 373.861 420.928 378.047 420.909C379.098 420.9 380.049 420.9 380.902 420.909C381.763 420.909 382.516 420.866 383.16 420.781C383.804 420.687 384.344 420.502 384.779 420.227ZM376.285 445.17C377.081 445.17 377.767 444.957 378.345 444.531C378.922 444.105 379.368 443.494 379.68 442.699C379.993 441.903 380.149 440.947 380.149 439.83C380.149 438.712 379.988 437.76 379.666 436.974C379.353 436.188 378.908 435.592 378.331 435.185C377.753 434.768 377.066 434.56 376.271 434.56C375.665 434.56 375.116 434.678 374.623 434.915C374.131 435.142 373.714 435.483 373.373 435.938C373.032 436.383 372.772 436.932 372.592 437.585C372.412 438.239 372.322 438.987 372.322 439.83C372.322 441.496 372.672 442.803 373.373 443.75C374.074 444.697 375.045 445.17 376.285 445.17ZM401.054 450.412C398.763 450.412 396.793 449.943 395.145 449.006C393.507 448.059 392.243 446.742 391.353 445.057C390.472 443.362 390.032 441.397 390.032 439.162C390.032 436.918 390.472 434.953 391.353 433.267C392.243 431.572 393.507 430.256 395.145 429.318C396.793 428.371 398.763 427.898 401.054 427.898C403.346 427.898 405.311 428.371 406.949 429.318C408.597 430.256 409.861 431.572 410.742 433.267C411.632 434.953 412.077 436.918 412.077 439.162C412.077 441.397 411.632 443.362 410.742 445.057C409.861 446.742 408.597 448.059 406.949 449.006C405.311 449.943 403.346 450.412 401.054 450.412ZM401.097 445.17C401.93 445.17 402.636 444.915 403.213 444.403C403.791 443.892 404.231 443.182 404.534 442.273C404.847 441.364 405.003 440.312 405.003 439.119C405.003 437.907 404.847 436.847 404.534 435.938C404.231 435.028 403.791 434.318 403.213 433.807C402.636 433.295 401.93 433.04 401.097 433.04C400.235 433.04 399.506 433.295 398.909 433.807C398.322 434.318 397.873 435.028 397.56 435.938C397.257 436.847 397.105 437.907 397.105 439.119C397.105 440.312 397.257 441.364 397.56 442.273C397.873 443.182 398.322 443.892 398.909 444.403C399.506 444.915 400.235 445.17 401.097 445.17ZM425.82 450.412C423.528 450.412 421.559 449.943 419.911 449.006C418.273 448.059 417.008 446.742 416.118 445.057C415.238 443.362 414.797 441.397 414.797 439.162C414.797 436.918 415.238 434.953 416.118 433.267C417.008 431.572 418.273 430.256 419.911 429.318C421.559 428.371 423.528 427.898 425.82 427.898C428.112 427.898 430.077 428.371 431.715 429.318C433.363 430.256 434.627 431.572 435.507 433.267C436.398 434.953 436.843 436.918 436.843 439.162C436.843 441.397 436.398 443.362 435.507 445.057C434.627 446.742 433.363 448.059 431.715 449.006C430.077 449.943 428.112 450.412 425.82 450.412ZM425.863 445.17C426.696 445.17 427.401 444.915 427.979 444.403C428.557 443.892 428.997 443.182 429.3 442.273C429.613 441.364 429.769 440.312 429.769 439.119C429.769 437.907 429.613 436.847 429.3 435.938C428.997 435.028 428.557 434.318 427.979 433.807C427.401 433.295 426.696 433.04 425.863 433.04C425.001 433.04 424.272 433.295 423.675 433.807C423.088 434.318 422.638 435.028 422.326 435.938C422.023 436.847 421.871 437.907 421.871 439.119C421.871 440.312 422.023 441.364 422.326 442.273C422.638 443.182 423.088 443.892 423.675 444.403C424.272 444.915 425.001 445.17 425.863 445.17ZM438.512 433.494V428.182H458.966V433.494H451.992V450H445.401V433.494H438.512ZM471.797 450.412C469.505 450.412 467.535 449.943 465.887 449.006C464.249 448.059 462.985 446.742 462.095 445.057C461.214 443.362 460.774 441.397 460.774 439.162C460.774 436.918 461.214 434.953 462.095 433.267C462.985 431.572 464.249 430.256 465.887 429.318C467.535 428.371 469.505 427.898 471.797 427.898C474.088 427.898 476.053 428.371 477.691 429.318C479.339 430.256 480.603 431.572 481.484 433.267C482.374 434.953 482.819 436.918 482.819 439.162C482.819 441.397 482.374 443.362 481.484 445.057C480.603 446.742 479.339 448.059 477.691 449.006C476.053 449.943 474.088 450.412 471.797 450.412ZM471.839 445.17C472.672 445.17 473.378 444.915 473.956 444.403C474.533 443.892 474.974 443.182 475.277 442.273C475.589 441.364 475.745 440.312 475.745 439.119C475.745 437.907 475.589 436.847 475.277 435.938C474.974 435.028 474.533 434.318 473.956 433.807C473.378 433.295 472.672 433.04 471.839 433.04C470.977 433.04 470.248 433.295 469.652 433.807C469.065 434.318 468.615 435.028 468.302 435.938C467.999 436.847 467.848 437.907 467.848 439.119C467.848 440.312 467.999 441.364 468.302 442.273C468.615 443.182 469.065 443.892 469.652 444.403C470.248 444.915 470.977 445.17 471.839 445.17ZM492.954 441.009L499.929 428.182H506.605V450H500.028V437.131L493.068 450H486.377V428.182H492.954V441.009ZM499.304 420.455H503.877C503.868 422.235 503.196 423.665 501.86 424.744C500.535 425.824 498.735 426.364 496.463 426.364C494.19 426.364 492.386 425.824 491.051 424.744C489.725 423.665 489.067 422.235 489.076 420.455H493.608C493.598 421.08 493.811 421.648 494.247 422.159C494.682 422.67 495.421 422.926 496.463 422.926C497.476 422.926 498.2 422.675 498.636 422.173C499.072 421.671 499.294 421.098 499.304 420.455ZM514.932 450.412C513.909 450.412 513.033 450.052 512.304 449.332C511.585 448.613 511.23 447.741 511.239 446.719C511.23 445.715 511.585 444.858 512.304 444.148C513.033 443.428 513.909 443.068 514.932 443.068C515.898 443.068 516.75 443.428 517.489 444.148C518.237 444.858 518.616 445.715 518.625 446.719C518.616 447.401 518.436 448.021 518.086 448.58C517.745 449.138 517.295 449.583 516.736 449.915C516.187 450.246 515.586 450.412 514.932 450.412Z" fill="white"/>
<circle cx="785.5" cy="79.5" r="55" fill="white" stroke="#FF6DFE" stroke-width="3"/>
<path d="M774.71 47.9091L784.773 68.0341L795.193 47.9091H814.801L797.739 78.4545L815.438 109H795.989L784.773 88.7159L773.835 109H754.108L771.847 78.4545L754.983 47.9091H774.71Z" fill="black" fill-opacity="0.96"/>
<defs>
<filter id="filter0_ddii_403_97" x="0" y="36" width="843" height="467" filterUnits="userSpaceOnUse" color-interpolation-filters="sRGB">
<feFlood flood-opacity="0" result="BackgroundImageFix"/>
<feColorMatrix in="SourceAlpha" type="matrix" values="0 0 0 0 0 0 0 0 0 0 0 0 0 0 0 0 0 0 127 0" result="hardAlpha"/>
<feMorphology radius="5" operator="dilate" in="SourceAlpha" result="effect1_dropShadow_403_97"/>
<feOffset dx="-10" dy="-10"/>
<feGaussianBlur stdDeviation="2.5"/>
<feComposite in2="hardAlpha" operator="out"/>
<feColorMatrix type="matrix" values="0 0 0 0 0.133333 0 0 0 0 0.0117647 0 0 0 0 0.396078 0 0 0 0.25 0"/>
<feBlend mode="normal" in2="BackgroundImageFix" result="effect1_dropShadow_403_97"/>
<feColorMatrix in="SourceAlpha" type="matrix" values="0 0 0 0 0 0 0 0 0 0 0 0 0 0 0 0 0 0 127 0" result="hardAlpha"/>
<feMorphology radius="5" operator="dilate" in="SourceAlpha" result="effect2_dropShadow_403_97"/>
<feOffset dx="10" dy="10"/>
<feGaussianBlur stdDeviation="2.5"/>
<feComposite in2="hardAlpha" operator="out"/>
<feColorMatrix type="matrix" values="0 0 0 0 0.133941 0 0 0 0 0.0133056 0 0 0 0 0.395808 0 0 0 0.25 0"/>
<feBlend mode="normal" in2="effect1_dropShadow_403_97" result="effect2_dropShadow_403_97"/>
<feBlend mode="normal" in="SourceGraphic" in2="effect2_dropShadow_403_97" result="shape"/>
<feColorMatrix in="SourceAlpha" type="matrix" values="0 0 0 0 0 0 0 0 0 0 0 0 0 0 0 0 0 0 127 0" result="hardAlpha"/>
<feMorphology radius="5" operator="erode" in="SourceAlpha" result="effect3_innerShadow_403_97"/>
<feOffset dx="-10" dy="-10"/>
<feGaussianBlur stdDeviation="2.5"/>
<feComposite in2="hardAlpha" operator="arithmetic" k2="-1" k3="1"/>
<feColorMatrix type="matrix" values="0 0 0 0 0.509804 0 0 0 0 0.337255 0 0 0 0 0.721569 0 0 0 0.16 0"/>
<feBlend mode="normal" in2="shape" result="effect3_innerShadow_403_97"/>
<feColorMatrix in="SourceAlpha" type="matrix" values="0 0 0 0 0 0 0 0 0 0 0 0 0 0 0 0 0 0 127 0" result="hardAlpha"/>
<feMorphology radius="5" operator="erode" in="SourceAlpha" result="effect4_innerShadow_403_97"/>
<feOffset dx="10" dy="10"/>
<feGaussianBlur stdDeviation="2.5"/>
<feComposite in2="hardAlpha" operator="arithmetic" k2="-1" k3="1"/>
<feColorMatrix type="matrix" values="0 0 0 0 0.505882 0 0 0 0 0.329412 0 0 0 0 0.72549 0 0 0 0.16 0"/>
<feBlend mode="normal" in2="effect3_innerShadow_403_97" result="effect4_innerShadow_403_97"/>
</filter>
</defs>
</svg>
