<svg width="845" height="496" viewBox="0 0 845 496" fill="none" xmlns="http://www.w3.org/2000/svg">
<g filter="url(#filter0_ddii_403_96)">
<rect x="20" y="49" width="803" height="427" rx="60" fill="#7E40D0" fill-opacity="0.8" shape-rendering="crispEdges"/>
<rect x="20.5" y="49.5" width="802" height="426" rx="59.5" stroke="#C53D41" shape-rendering="crispEdges"/>
</g>
<path d="M303.233 119V89.9091H323.105V95.6193H310.264V100.165H314.099C316.467 100.165 318.527 100.548 320.278 101.315C322.04 102.082 323.399 103.162 324.355 104.554C325.321 105.946 325.804 107.584 325.804 109.469C325.804 111.353 325.321 113.01 324.355 114.44C323.399 115.87 322.04 116.988 320.278 117.793C318.527 118.598 316.467 119 314.099 119H303.233ZM310.264 113.432H314.099C315.122 113.432 315.984 113.257 316.685 112.906C317.395 112.546 317.93 112.063 318.29 111.457C318.659 110.842 318.844 110.16 318.844 109.412C318.844 108.332 318.437 107.433 317.622 106.713C316.808 105.984 315.634 105.619 314.099 105.619H310.264V113.432ZM335.321 119.369C333.929 119.369 332.693 119.137 331.614 118.673C330.544 118.2 329.696 117.49 329.071 116.543C328.455 115.586 328.148 114.388 328.148 112.949C328.148 111.737 328.361 110.714 328.787 109.881C329.213 109.047 329.8 108.37 330.548 107.849C331.296 107.329 332.158 106.936 333.134 106.67C334.109 106.396 335.151 106.211 336.259 106.116C337.499 106.003 338.498 105.884 339.256 105.761C340.013 105.629 340.563 105.444 340.903 105.207C341.254 104.961 341.429 104.616 341.429 104.17V104.099C341.429 103.37 341.178 102.807 340.676 102.409C340.174 102.011 339.497 101.812 338.645 101.812C337.726 101.812 336.988 102.011 336.429 102.409C335.87 102.807 335.515 103.356 335.364 104.057L328.957 103.83C329.147 102.504 329.634 101.32 330.42 100.278C331.216 99.2273 332.305 98.4034 333.688 97.8068C335.08 97.2008 336.751 96.8977 338.702 96.8977C340.094 96.8977 341.377 97.0634 342.551 97.3949C343.725 97.7169 344.748 98.1903 345.619 98.8153C346.491 99.4309 347.163 100.188 347.636 101.088C348.119 101.988 348.361 103.015 348.361 104.17V119H341.827V115.96H341.656C341.268 116.699 340.771 117.324 340.165 117.835C339.568 118.347 338.863 118.73 338.048 118.986C337.243 119.241 336.334 119.369 335.321 119.369ZM337.466 114.824C338.214 114.824 338.886 114.672 339.483 114.369C340.089 114.066 340.572 113.65 340.932 113.119C341.292 112.58 341.472 111.955 341.472 111.244V109.17C341.273 109.275 341.031 109.369 340.747 109.455C340.473 109.54 340.17 109.62 339.838 109.696C339.507 109.772 339.166 109.838 338.815 109.895C338.465 109.952 338.129 110.004 337.807 110.051C337.153 110.155 336.595 110.316 336.131 110.534C335.676 110.752 335.326 111.036 335.08 111.386C334.843 111.727 334.724 112.134 334.724 112.608C334.724 113.328 334.98 113.877 335.491 114.256C336.012 114.634 336.67 114.824 337.466 114.824ZM352.608 127.182V97.1818H359.483V100.918H359.696C359.98 100.255 360.383 99.6155 360.903 99C361.434 98.3845 362.106 97.8826 362.92 97.4943C363.744 97.0966 364.729 96.8977 365.875 96.8977C367.39 96.8977 368.806 97.2955 370.122 98.0909C371.448 98.8864 372.518 100.113 373.332 101.77C374.147 103.427 374.554 105.539 374.554 108.105C374.554 110.577 374.161 112.646 373.375 114.312C372.598 115.979 371.547 117.229 370.222 118.062C368.905 118.896 367.442 119.312 365.832 119.312C364.734 119.312 363.782 119.133 362.977 118.773C362.172 118.413 361.495 117.939 360.946 117.352C360.406 116.765 359.99 116.135 359.696 115.463H359.554V127.182H352.608ZM359.412 108.091C359.412 109.265 359.568 110.288 359.881 111.159C360.203 112.03 360.662 112.707 361.259 113.19C361.865 113.664 362.589 113.901 363.432 113.901C364.284 113.901 365.009 113.664 365.605 113.19C366.202 112.707 366.652 112.03 366.955 111.159C367.267 110.288 367.423 109.265 367.423 108.091C367.423 106.917 367.267 105.899 366.955 105.037C366.652 104.175 366.202 103.508 365.605 103.034C365.018 102.561 364.294 102.324 363.432 102.324C362.58 102.324 361.855 102.556 361.259 103.02C360.662 103.484 360.203 104.147 359.881 105.009C359.568 105.87 359.412 106.898 359.412 108.091ZM383.322 97.1818L386.915 104.369L390.637 97.1818H397.64L391.546 108.091L397.867 119H390.921L386.915 111.756L383.009 119H375.964L382.299 108.091L376.276 97.1818H383.322ZM406.844 119.369C405.452 119.369 404.217 119.137 403.137 118.673C402.067 118.2 401.219 117.49 400.594 116.543C399.979 115.586 399.671 114.388 399.671 112.949C399.671 111.737 399.884 110.714 400.31 109.881C400.737 109.047 401.324 108.37 402.072 107.849C402.82 107.329 403.682 106.936 404.657 106.67C405.632 106.396 406.674 106.211 407.782 106.116C409.022 106.003 410.022 105.884 410.779 105.761C411.537 105.629 412.086 105.444 412.427 105.207C412.777 104.961 412.952 104.616 412.952 104.17V104.099C412.952 103.37 412.701 102.807 412.2 102.409C411.698 102.011 411.021 101.812 410.168 101.812C409.25 101.812 408.511 102.011 407.952 102.409C407.394 102.807 407.039 103.356 406.887 104.057L400.481 103.83C400.67 102.504 401.158 101.32 401.944 100.278C402.739 99.2273 403.828 98.4034 405.211 97.8068C406.603 97.2008 408.274 96.8977 410.225 96.8977C411.617 96.8977 412.9 97.0634 414.075 97.3949C415.249 97.7169 416.272 98.1903 417.143 98.8153C418.014 99.4309 418.686 100.188 419.16 101.088C419.643 101.988 419.884 103.015 419.884 104.17V119H413.35V115.96H413.18C412.791 116.699 412.294 117.324 411.688 117.835C411.092 118.347 410.386 118.73 409.572 118.986C408.767 119.241 407.858 119.369 406.844 119.369ZM408.989 114.824C409.737 114.824 410.41 114.672 411.006 114.369C411.612 114.066 412.095 113.65 412.455 113.119C412.815 112.58 412.995 111.955 412.995 111.244V109.17C412.796 109.275 412.555 109.369 412.271 109.455C411.996 109.54 411.693 109.62 411.362 109.696C411.03 109.772 410.689 109.838 410.339 109.895C409.988 109.952 409.652 110.004 409.33 110.051C408.677 110.155 408.118 110.316 407.654 110.534C407.2 110.752 406.849 111.036 406.603 111.386C406.366 111.727 406.248 112.134 406.248 112.608C406.248 113.328 406.504 113.877 407.015 114.256C407.536 114.634 408.194 114.824 408.989 114.824ZM434.316 119.412C432.015 119.412 430.04 118.938 428.393 117.991C426.754 117.045 425.495 115.728 424.614 114.043C423.734 112.348 423.293 110.387 423.293 108.162C423.293 105.927 423.734 103.967 424.614 102.281C425.504 100.586 426.769 99.2652 428.407 98.3182C430.055 97.3712 432.02 96.8977 434.302 96.8977C436.319 96.8977 438.076 97.2623 439.572 97.9915C441.077 98.7206 442.252 99.7528 443.094 101.088C443.947 102.414 444.397 103.972 444.444 105.761H437.952C437.82 104.644 437.441 103.768 436.816 103.134C436.201 102.499 435.396 102.182 434.401 102.182C433.596 102.182 432.891 102.409 432.285 102.864C431.679 103.309 431.205 103.972 430.864 104.852C430.533 105.723 430.367 106.803 430.367 108.091C430.367 109.379 430.533 110.468 430.864 111.358C431.205 112.239 431.679 112.906 432.285 113.361C432.891 113.806 433.596 114.028 434.401 114.028C435.045 114.028 435.613 113.891 436.106 113.616C436.608 113.342 437.02 112.939 437.342 112.409C437.664 111.869 437.867 111.216 437.952 110.449H444.444C444.378 112.248 443.928 113.82 443.094 115.165C442.271 116.509 441.111 117.556 439.614 118.304C438.128 119.043 436.362 119.412 434.316 119.412ZM466.791 89.2273L468.666 93.8153C468.07 94.2794 467.416 94.6297 466.706 94.8665C466.005 95.1032 465.148 95.2642 464.135 95.3494C463.122 95.4347 461.843 95.482 460.3 95.4915C458.557 95.5009 457.146 95.7424 456.067 96.2159C454.987 96.6799 454.168 97.4422 453.609 98.5028C453.06 99.554 452.696 100.955 452.516 102.707H452.7C453.325 101.391 454.215 100.354 455.371 99.5966C456.526 98.839 458.018 98.4602 459.845 98.4602C461.749 98.4602 463.406 98.8722 464.817 99.696C466.228 100.51 467.317 101.675 468.084 103.19C468.851 104.696 469.234 106.486 469.234 108.56C469.234 110.757 468.794 112.67 467.913 114.298C467.033 115.927 465.773 117.187 464.135 118.077C462.497 118.967 460.536 119.412 458.254 119.412C455.972 119.412 454.007 118.948 452.359 118.02C450.721 117.092 449.457 115.728 448.567 113.929C447.686 112.12 447.246 109.9 447.246 107.267V105.676C447.246 100.278 448.335 96.3059 450.513 93.7585C452.691 91.2112 455.873 89.928 460.058 89.9091C461.109 89.8996 462.061 89.8996 462.913 89.9091C463.775 89.9091 464.528 89.8665 465.172 89.7812C465.816 89.6866 466.356 89.5019 466.791 89.2273ZM458.297 114.17C459.092 114.17 459.779 113.957 460.357 113.531C460.934 113.105 461.379 112.494 461.692 111.699C462.004 110.903 462.161 109.947 462.161 108.83C462.161 107.712 462 106.76 461.678 105.974C461.365 105.188 460.92 104.592 460.342 104.185C459.765 103.768 459.078 103.56 458.283 103.56C457.677 103.56 457.127 103.678 456.635 103.915C456.143 104.142 455.726 104.483 455.385 104.938C455.044 105.383 454.784 105.932 454.604 106.585C454.424 107.239 454.334 107.987 454.334 108.83C454.334 110.496 454.684 111.803 455.385 112.75C456.086 113.697 457.056 114.17 458.297 114.17ZM479.032 119.369C477.64 119.369 476.404 119.137 475.325 118.673C474.254 118.2 473.407 117.49 472.782 116.543C472.166 115.586 471.859 114.388 471.859 112.949C471.859 111.737 472.072 110.714 472.498 109.881C472.924 109.047 473.511 108.37 474.259 107.849C475.007 107.329 475.869 106.936 476.844 106.67C477.82 106.396 478.862 106.211 479.969 106.116C481.21 106.003 482.209 105.884 482.967 105.761C483.724 105.629 484.273 105.444 484.614 105.207C484.965 104.961 485.14 104.616 485.14 104.17V104.099C485.14 103.37 484.889 102.807 484.387 102.409C483.885 102.011 483.208 101.812 482.356 101.812C481.437 101.812 480.699 102.011 480.14 102.409C479.581 102.807 479.226 103.356 479.075 104.057L472.668 103.83C472.858 102.504 473.345 101.32 474.131 100.278C474.927 99.2273 476.016 98.4034 477.398 97.8068C478.79 97.2008 480.462 96.8977 482.413 96.8977C483.805 96.8977 485.088 97.0634 486.262 97.3949C487.436 97.7169 488.459 98.1903 489.33 98.8153C490.201 99.4309 490.874 100.188 491.347 101.088C491.83 101.988 492.072 103.015 492.072 104.17V119H485.538V115.96H485.367C484.979 116.699 484.482 117.324 483.876 117.835C483.279 118.347 482.574 118.73 481.759 118.986C480.954 119.241 480.045 119.369 479.032 119.369ZM481.177 114.824C481.925 114.824 482.597 114.672 483.194 114.369C483.8 114.066 484.283 113.65 484.643 113.119C485.003 112.58 485.183 111.955 485.183 111.244V109.17C484.984 109.275 484.742 109.369 484.458 109.455C484.183 109.54 483.88 109.62 483.549 109.696C483.218 109.772 482.877 109.838 482.526 109.895C482.176 109.952 481.84 110.004 481.518 110.051C480.864 110.155 480.306 110.316 479.842 110.534C479.387 110.752 479.037 111.036 478.79 111.386C478.554 111.727 478.435 112.134 478.435 112.608C478.435 113.328 478.691 113.877 479.202 114.256C479.723 114.634 480.381 114.824 481.177 114.824ZM494.813 125.435V113.645H496.447C496.939 113.399 497.332 112.925 497.626 112.224C497.919 111.514 498.151 110.686 498.322 109.739C498.502 108.782 498.634 107.788 498.719 106.756C498.814 105.714 498.899 104.734 498.975 103.815L499.487 97.1818H517.157V113.645H520.566V125.435H513.975V119H501.575V125.435H494.813ZM503.208 113.645H510.68V102.352H505.282L505.168 103.815C505.036 106.164 504.827 108.134 504.543 109.724C504.259 111.315 503.814 112.622 503.208 113.645ZM527.857 103.489H534.476C537.478 103.489 539.831 104.194 541.536 105.605C543.24 107.007 544.097 108.91 544.107 111.315C544.097 112.878 543.704 114.237 542.928 115.392C542.161 116.538 541.057 117.428 539.618 118.062C538.188 118.688 536.474 119 534.476 119H523.78V97.1818H530.357V113.688H534.476C535.385 113.688 536.133 113.465 536.72 113.02C537.307 112.575 537.606 112.002 537.615 111.301C537.606 110.562 537.307 109.961 536.72 109.497C536.133 109.033 535.385 108.801 534.476 108.801H527.857V103.489ZM78.8438 143.619V137.909H103.432V143.619H94.6108V167H87.679V143.619H78.8438ZM110.048 167.369C108.656 167.369 107.42 167.137 106.34 166.673C105.27 166.2 104.423 165.49 103.798 164.543C103.182 163.586 102.874 162.388 102.874 160.949C102.874 159.737 103.087 158.714 103.513 157.881C103.94 157.047 104.527 156.37 105.275 155.849C106.023 155.329 106.885 154.936 107.86 154.67C108.835 154.396 109.877 154.211 110.985 154.116C112.226 154.003 113.225 153.884 113.982 153.761C114.74 153.629 115.289 153.444 115.63 153.207C115.98 152.961 116.156 152.616 116.156 152.17V152.099C116.156 151.37 115.905 150.807 115.403 150.409C114.901 150.011 114.224 149.812 113.371 149.812C112.453 149.812 111.714 150.011 111.156 150.409C110.597 150.807 110.242 151.356 110.09 152.057L103.684 151.83C103.873 150.504 104.361 149.32 105.147 148.278C105.942 147.227 107.031 146.403 108.414 145.807C109.806 145.201 111.478 144.898 113.428 144.898C114.82 144.898 116.103 145.063 117.278 145.395C118.452 145.717 119.475 146.19 120.346 146.815C121.217 147.431 121.889 148.188 122.363 149.088C122.846 149.988 123.087 151.015 123.087 152.17V167H116.553V163.96H116.383C115.995 164.699 115.497 165.324 114.891 165.835C114.295 166.347 113.589 166.73 112.775 166.986C111.97 167.241 111.061 167.369 110.048 167.369ZM112.192 162.824C112.941 162.824 113.613 162.672 114.21 162.369C114.816 162.066 115.299 161.65 115.658 161.119C116.018 160.58 116.198 159.955 116.198 159.244V157.17C115.999 157.275 115.758 157.369 115.474 157.455C115.199 157.54 114.896 157.62 114.565 157.696C114.233 157.772 113.892 157.838 113.542 157.895C113.192 157.952 112.855 158.004 112.533 158.051C111.88 158.155 111.321 158.316 110.857 158.534C110.403 158.752 110.052 159.036 109.806 159.386C109.569 159.727 109.451 160.134 109.451 160.608C109.451 161.328 109.707 161.877 110.218 162.256C110.739 162.634 111.397 162.824 112.192 162.824ZM125.406 150.494V145.182H145.861V150.494H138.886V167H132.295V150.494H125.406ZM154.657 167.369C153.265 167.369 152.029 167.137 150.95 166.673C149.879 166.2 149.032 165.49 148.407 164.543C147.791 163.586 147.484 162.388 147.484 160.949C147.484 159.737 147.697 158.714 148.123 157.881C148.549 157.047 149.136 156.37 149.884 155.849C150.632 155.329 151.494 154.936 152.469 154.67C153.445 154.396 154.487 154.211 155.594 154.116C156.835 154.003 157.834 153.884 158.592 153.761C159.349 153.629 159.898 153.444 160.239 153.207C160.59 152.961 160.765 152.616 160.765 152.17V152.099C160.765 151.37 160.514 150.807 160.012 150.409C159.51 150.011 158.833 149.812 157.981 149.812C157.062 149.812 156.324 150.011 155.765 150.409C155.206 150.807 154.851 151.356 154.7 152.057L148.293 151.83C148.483 150.504 148.97 149.32 149.756 148.278C150.552 147.227 151.641 146.403 153.023 145.807C154.415 145.201 156.087 144.898 158.038 144.898C159.43 144.898 160.713 145.063 161.887 145.395C163.061 145.717 164.084 146.19 164.955 146.815C165.826 147.431 166.499 148.188 166.972 149.088C167.455 149.988 167.697 151.015 167.697 152.17V167H161.163V163.96H160.992C160.604 164.699 160.107 165.324 159.501 165.835C158.904 166.347 158.199 166.73 157.384 166.986C156.579 167.241 155.67 167.369 154.657 167.369ZM156.802 162.824C157.55 162.824 158.222 162.672 158.819 162.369C159.425 162.066 159.908 161.65 160.268 161.119C160.628 160.58 160.808 159.955 160.808 159.244V157.17C160.609 157.275 160.367 157.369 160.083 157.455C159.808 157.54 159.505 157.62 159.174 157.696C158.843 157.772 158.502 157.838 158.151 157.895C157.801 157.952 157.465 158.004 157.143 158.051C156.489 158.155 155.931 158.316 155.467 158.534C155.012 158.752 154.662 159.036 154.415 159.386C154.179 159.727 154.06 160.134 154.06 160.608C154.06 161.328 154.316 161.877 154.827 162.256C155.348 162.634 156.006 162.824 156.802 162.824ZM177.853 145.182L181.447 152.369L185.168 145.182H192.171L186.077 156.091L192.398 167H185.452L181.447 159.756L177.54 167H170.495L176.83 156.091L170.808 145.182H177.853ZM209.845 145.182L213.439 152.369L217.161 145.182H224.163L218.07 156.091L224.391 167H217.445L213.439 159.756L209.533 167H202.487L208.822 156.091L202.8 145.182H209.845ZM225.587 145.182H232.548L236.283 159.77L239.82 145.182H246.724L239.423 166.915V175.182H232.888V166.915L225.587 145.182ZM268.425 145.182V167H261.891V145.182H268.425ZM265.115 154.486V159.798C264.746 159.988 264.225 160.172 263.553 160.352C262.89 160.523 262.189 160.665 261.45 160.778C260.721 160.892 260.072 160.949 259.504 160.949C256.152 160.949 253.524 160.31 251.621 159.031C249.727 157.743 248.78 155.651 248.78 152.753V145.168H255.271V152.753C255.271 153.501 255.39 154.083 255.626 154.5C255.873 154.917 256.299 155.21 256.905 155.381C257.52 155.551 258.387 155.636 259.504 155.636C260.357 155.636 261.228 155.542 262.118 155.352C263.018 155.153 264.017 154.865 265.115 154.486ZM379.678 163.733C378.656 163.733 377.78 163.373 377.05 162.653C376.331 161.934 375.976 161.062 375.985 160.04C375.976 159.036 376.331 158.179 377.05 157.469C377.78 156.749 378.656 156.389 379.678 156.389C380.644 156.389 381.496 156.749 382.235 157.469C382.983 158.179 383.362 159.036 383.371 160.04C383.362 160.722 383.182 161.342 382.832 161.901C382.491 162.459 382.041 162.904 381.482 163.236C380.933 163.567 380.332 163.733 379.678 163.733ZM379.678 149.614C378.656 149.614 377.78 149.254 377.05 148.534C376.331 147.814 375.976 146.943 375.985 145.92C375.976 144.917 376.331 144.06 377.05 143.349C377.78 142.63 378.656 142.27 379.678 142.27C380.644 142.27 381.496 142.63 382.235 143.349C382.983 144.06 383.362 144.917 383.371 145.92C383.362 146.602 383.182 147.223 382.832 147.781C382.491 148.34 382.041 148.785 381.482 149.116C380.933 149.448 380.332 149.614 379.678 149.614ZM396.496 167V161.943L407.107 152.653C407.903 151.934 408.58 151.276 409.138 150.679C409.697 150.073 410.123 149.467 410.417 148.861C410.71 148.245 410.857 147.578 410.857 146.858C410.857 146.053 410.682 145.366 410.332 144.798C409.981 144.221 409.498 143.776 408.883 143.463C408.267 143.151 407.562 142.994 406.766 142.994C405.961 142.994 405.256 143.16 404.65 143.491C404.044 143.813 403.57 144.282 403.229 144.898C402.898 145.513 402.732 146.261 402.732 147.142H396.07C396.07 145.163 396.515 143.454 397.406 142.014C398.296 140.575 399.546 139.467 401.156 138.69C402.775 137.904 404.655 137.511 406.795 137.511C409.001 137.511 410.919 137.881 412.548 138.619C414.176 139.358 415.436 140.39 416.326 141.716C417.226 143.032 417.675 144.562 417.675 146.304C417.675 147.412 417.453 148.51 417.008 149.599C416.563 150.688 415.763 151.891 414.607 153.207C413.461 154.524 411.833 156.1 409.721 157.938L406.241 161.148V161.332H418.031V167H396.496ZM421.024 162.17V156.688L432.942 137.909H437.814V145.352H434.987L428.013 156.403V156.631H445.271V162.17H421.024ZM435.072 167V160.494L435.214 158.094V137.909H441.791V167H435.072ZM452.647 167.412C451.624 167.412 450.748 167.052 450.019 166.332C449.299 165.613 448.944 164.741 448.954 163.719C448.944 162.715 449.299 161.858 450.019 161.148C450.748 160.428 451.624 160.068 452.647 160.068C453.613 160.068 454.465 160.428 455.204 161.148C455.952 161.858 456.331 162.715 456.34 163.719C456.331 164.401 456.151 165.021 455.8 165.58C455.46 166.138 455.01 166.583 454.451 166.915C453.902 167.246 453.3 167.412 452.647 167.412ZM470.985 167.398C468.722 167.398 466.7 167.038 464.92 166.318C463.149 165.589 461.757 164.604 460.744 163.364C459.74 162.114 459.238 160.703 459.238 159.131C459.238 157.928 459.527 156.825 460.104 155.821C460.682 154.817 461.463 153.984 462.448 153.321C463.442 152.649 464.55 152.218 465.772 152.028V151.801C464.172 151.508 462.86 150.764 461.837 149.571C460.824 148.378 460.317 146.981 460.317 145.381C460.317 143.866 460.777 142.516 461.695 141.332C462.623 140.149 463.888 139.216 465.488 138.534C467.098 137.852 468.93 137.511 470.985 137.511C473.04 137.511 474.868 137.852 476.468 138.534C478.078 139.216 479.342 140.149 480.261 141.332C481.189 142.516 481.653 143.866 481.653 145.381C481.653 146.991 481.137 148.392 480.104 149.585C479.082 150.769 477.78 151.508 476.198 151.801V152.028C477.41 152.218 478.509 152.649 479.494 153.321C480.488 153.984 481.274 154.817 481.852 155.821C482.439 156.825 482.732 157.928 482.732 159.131C482.732 160.703 482.226 162.114 481.212 163.364C480.199 164.604 478.807 165.589 477.036 166.318C475.275 167.038 473.258 167.398 470.985 167.398ZM470.985 162.412C471.847 162.412 472.604 162.251 473.258 161.929C473.911 161.598 474.423 161.138 474.792 160.551C475.171 159.964 475.36 159.301 475.36 158.562C475.36 157.805 475.171 157.133 474.792 156.545C474.413 155.958 473.892 155.499 473.229 155.168C472.576 154.827 471.828 154.656 470.985 154.656C470.152 154.656 469.404 154.827 468.741 155.168C468.078 155.499 467.557 155.958 467.178 156.545C466.799 157.133 466.61 157.805 466.61 158.562C466.61 159.301 466.795 159.964 467.164 160.551C467.543 161.129 468.059 161.583 468.712 161.915C469.375 162.246 470.133 162.412 470.985 162.412ZM470.985 149.699C471.724 149.699 472.377 149.547 472.945 149.244C473.523 148.941 473.973 148.52 474.295 147.98C474.626 147.44 474.792 146.83 474.792 146.148C474.792 145.466 474.626 144.865 474.295 144.344C473.973 143.823 473.528 143.416 472.96 143.122C472.391 142.819 471.733 142.668 470.985 142.668C470.246 142.668 469.588 142.819 469.011 143.122C468.433 143.416 467.983 143.823 467.661 144.344C467.339 144.865 467.178 145.466 467.178 146.148C467.178 146.83 467.339 147.44 467.661 147.98C467.993 148.51 468.447 148.932 469.025 149.244C469.603 149.547 470.256 149.699 470.985 149.699ZM508.513 159.585L513.854 145.182H518.94L510.744 167H506.283L498.3 145.182H503.371L508.513 159.585ZM501.88 145.182V167H495.303V145.182H501.88ZM515.545 167V145.182H522.036V167H515.545ZM539.707 136.545L530.332 171.375H524.408L533.783 136.545H539.707ZM552.48 167.412C550.179 167.412 548.205 166.938 546.557 165.991C544.919 165.045 543.659 163.728 542.778 162.043C541.898 160.348 541.457 158.387 541.457 156.162C541.457 153.927 541.898 151.967 542.778 150.281C543.669 148.586 544.933 147.265 546.571 146.318C548.219 145.371 550.184 144.898 552.466 144.898C554.483 144.898 556.24 145.262 557.736 145.991C559.241 146.721 560.416 147.753 561.259 149.088C562.111 150.414 562.561 151.972 562.608 153.761H556.116C555.984 152.644 555.605 151.768 554.98 151.134C554.365 150.499 553.56 150.182 552.565 150.182C551.76 150.182 551.055 150.409 550.449 150.864C549.843 151.309 549.369 151.972 549.028 152.852C548.697 153.723 548.531 154.803 548.531 156.091C548.531 157.379 548.697 158.468 549.028 159.358C549.369 160.239 549.843 160.906 550.449 161.361C551.055 161.806 551.76 162.028 552.565 162.028C553.209 162.028 553.777 161.891 554.27 161.616C554.772 161.342 555.184 160.939 555.506 160.409C555.828 159.869 556.031 159.216 556.116 158.449H562.608C562.542 160.248 562.092 161.82 561.259 163.165C560.435 164.509 559.275 165.556 557.778 166.304C556.292 167.043 554.526 167.412 552.48 167.412ZM565.637 152.455V149.017L572.64 143.605C573.123 143.226 573.549 142.881 573.918 142.568C574.288 142.246 574.576 141.92 574.785 141.588C575.003 141.257 575.112 140.883 575.112 140.466C575.112 139.841 574.846 139.367 574.316 139.045C573.795 138.714 573.165 138.548 572.427 138.548C571.631 138.548 570.992 138.733 570.509 139.102C570.026 139.472 569.785 140.03 569.785 140.778H565.197C565.197 138.884 565.879 137.412 567.242 136.361C568.615 135.31 570.362 134.784 572.484 134.784C573.942 134.784 575.206 135.035 576.276 135.537C577.356 136.039 578.189 136.716 578.776 137.568C579.363 138.42 579.657 139.367 579.657 140.409C579.657 141.261 579.477 142.052 579.117 142.781C578.767 143.51 578.222 144.216 577.484 144.898C576.754 145.58 575.817 146.271 574.671 146.972L572.512 148.392V148.548H579.756V152.455H565.637ZM78.8438 191.619V185.909H103.432V191.619H94.6108V215H87.679V191.619H78.8438ZM113.901 215.412C111.618 215.412 109.649 214.962 107.991 214.062C106.344 213.153 105.075 211.861 104.185 210.185C103.304 208.499 102.864 206.496 102.864 204.176C102.864 201.922 103.309 199.953 104.199 198.267C105.089 196.572 106.344 195.256 107.963 194.318C109.582 193.371 111.491 192.898 113.688 192.898C115.241 192.898 116.661 193.139 117.949 193.622C119.237 194.105 120.349 194.82 121.287 195.767C122.224 196.714 122.954 197.884 123.474 199.276C123.995 200.658 124.256 202.244 124.256 204.034V205.767H105.293V201.733H117.793C117.783 200.994 117.608 200.336 117.267 199.759C116.926 199.181 116.457 198.731 115.861 198.409C115.274 198.078 114.597 197.912 113.83 197.912C113.053 197.912 112.357 198.087 111.741 198.438C111.126 198.778 110.638 199.247 110.278 199.844C109.919 200.431 109.729 201.098 109.71 201.847V205.952C109.71 206.842 109.885 207.623 110.236 208.295C110.586 208.958 111.083 209.474 111.727 209.844C112.371 210.213 113.138 210.398 114.028 210.398C114.644 210.398 115.203 210.312 115.705 210.142C116.206 209.972 116.637 209.721 116.997 209.389C117.357 209.058 117.627 208.651 117.807 208.168L124.185 208.352C123.92 209.782 123.337 211.027 122.438 212.088C121.547 213.139 120.378 213.958 118.929 214.545C117.48 215.123 115.804 215.412 113.901 215.412ZM141.013 207.585L146.354 193.182H151.44L143.244 215H138.783L130.8 193.182H135.871L141.013 207.585ZM134.38 193.182V215H127.803V193.182H134.38ZM148.045 215V193.182H154.536V215H148.045ZM158.741 215V193.182H178.442V215H171.866V198.494H165.232V215H158.741ZM193.041 215.412C190.759 215.412 188.789 214.962 187.132 214.062C185.484 213.153 184.215 211.861 183.325 210.185C182.445 208.499 182.004 206.496 182.004 204.176C182.004 201.922 182.449 199.953 183.339 198.267C184.23 196.572 185.484 195.256 187.104 194.318C188.723 193.371 190.631 192.898 192.828 192.898C194.381 192.898 195.802 193.139 197.089 193.622C198.377 194.105 199.49 194.82 200.428 195.767C201.365 196.714 202.094 197.884 202.615 199.276C203.136 200.658 203.396 202.244 203.396 204.034V205.767H184.433V201.733H196.933C196.924 200.994 196.749 200.336 196.408 199.759C196.067 199.181 195.598 198.731 195.001 198.409C194.414 198.078 193.737 197.912 192.97 197.912C192.194 197.912 191.498 198.087 190.882 198.438C190.267 198.778 189.779 199.247 189.419 199.844C189.059 200.431 188.87 201.098 188.851 201.847V205.952C188.851 206.842 189.026 207.623 189.376 208.295C189.727 208.958 190.224 209.474 190.868 209.844C191.512 210.213 192.279 210.398 193.169 210.398C193.785 210.398 194.343 210.312 194.845 210.142C195.347 209.972 195.778 209.721 196.138 209.389C196.498 209.058 196.768 208.651 196.947 208.168L203.325 208.352C203.06 209.782 202.478 211.027 201.578 212.088C200.688 213.139 199.518 213.958 198.07 214.545C196.621 215.123 194.945 215.412 193.041 215.412ZM206.944 223.182V193.182H213.819V196.918H214.032C214.316 196.255 214.719 195.616 215.239 195C215.77 194.384 216.442 193.883 217.256 193.494C218.08 193.097 219.065 192.898 220.211 192.898C221.726 192.898 223.142 193.295 224.458 194.091C225.784 194.886 226.854 196.113 227.668 197.77C228.483 199.427 228.89 201.539 228.89 204.105C228.89 206.577 228.497 208.646 227.711 210.312C226.934 211.979 225.883 213.229 224.558 214.062C223.241 214.896 221.778 215.312 220.168 215.312C219.07 215.312 218.118 215.133 217.313 214.773C216.508 214.413 215.831 213.939 215.282 213.352C214.742 212.765 214.326 212.135 214.032 211.463H213.89V223.182H206.944ZM213.748 204.091C213.748 205.265 213.904 206.288 214.217 207.159C214.539 208.03 214.998 208.707 215.594 209.19C216.201 209.664 216.925 209.901 217.768 209.901C218.62 209.901 219.344 209.664 219.941 209.19C220.538 208.707 220.987 208.03 221.29 207.159C221.603 206.288 221.759 205.265 221.759 204.091C221.759 202.917 221.603 201.899 221.29 201.037C220.987 200.175 220.538 199.508 219.941 199.034C219.354 198.561 218.629 198.324 217.768 198.324C216.915 198.324 216.191 198.556 215.594 199.02C214.998 199.484 214.539 200.147 214.217 201.009C213.904 201.87 213.748 202.898 213.748 204.091ZM238.68 215.369C237.288 215.369 236.053 215.137 234.973 214.673C233.903 214.2 233.055 213.49 232.43 212.543C231.815 211.586 231.507 210.388 231.507 208.949C231.507 207.737 231.72 206.714 232.146 205.881C232.572 205.047 233.16 204.37 233.908 203.849C234.656 203.329 235.518 202.936 236.493 202.67C237.468 202.396 238.51 202.211 239.618 202.116C240.858 202.003 241.857 201.884 242.615 201.761C243.373 201.629 243.922 201.444 244.263 201.207C244.613 200.961 244.788 200.616 244.788 200.17V200.099C244.788 199.37 244.537 198.807 244.036 198.409C243.534 198.011 242.857 197.812 242.004 197.812C241.086 197.812 240.347 198.011 239.788 198.409C239.23 198.807 238.875 199.356 238.723 200.057L232.317 199.83C232.506 198.504 232.994 197.32 233.78 196.278C234.575 195.227 235.664 194.403 237.047 193.807C238.439 193.201 240.11 192.898 242.061 192.898C243.453 192.898 244.736 193.063 245.911 193.395C247.085 193.717 248.107 194.19 248.979 194.815C249.85 195.431 250.522 196.188 250.996 197.088C251.479 197.988 251.72 199.015 251.72 200.17V215H245.186V211.96H245.016C244.627 212.699 244.13 213.324 243.524 213.835C242.928 214.347 242.222 214.73 241.408 214.986C240.603 215.241 239.694 215.369 238.68 215.369ZM240.825 210.824C241.573 210.824 242.246 210.672 242.842 210.369C243.448 210.066 243.931 209.65 244.291 209.119C244.651 208.58 244.831 207.955 244.831 207.244V205.17C244.632 205.275 244.391 205.369 244.107 205.455C243.832 205.54 243.529 205.62 243.197 205.696C242.866 205.772 242.525 205.838 242.175 205.895C241.824 205.952 241.488 206.004 241.166 206.051C240.513 206.155 239.954 206.316 239.49 206.534C239.036 206.752 238.685 207.036 238.439 207.386C238.202 207.727 238.084 208.134 238.084 208.608C238.084 209.328 238.339 209.877 238.851 210.256C239.372 210.634 240.03 210.824 240.825 210.824ZM254.039 198.494V193.182H274.494V198.494H267.519V215H260.928V198.494H254.039ZM282.05 223.182C281.217 223.182 280.431 223.116 279.692 222.983C278.954 222.86 278.319 222.694 277.789 222.486L279.323 217.443C280.005 217.67 280.621 217.803 281.17 217.841C281.728 217.879 282.207 217.789 282.604 217.571C283.012 217.363 283.324 216.989 283.542 216.449L283.812 215.795L276.056 193.182H283.329L287.349 208.75H287.576L291.653 193.182H298.968L290.744 217.088C290.346 218.281 289.782 219.332 289.053 220.241C288.334 221.16 287.401 221.88 286.255 222.401C285.119 222.921 283.717 223.182 282.05 223.182ZM301.631 223.182V193.182H308.506V196.918H308.719C309.004 196.255 309.406 195.616 309.927 195C310.457 194.384 311.129 193.883 311.944 193.494C312.768 193.097 313.753 192.898 314.898 192.898C316.414 192.898 317.829 193.295 319.146 194.091C320.471 194.886 321.541 196.113 322.356 197.77C323.17 199.427 323.577 201.539 323.577 204.105C323.577 206.577 323.184 208.646 322.398 210.312C321.622 211.979 320.571 213.229 319.245 214.062C317.929 214.896 316.466 215.312 314.856 215.312C313.757 215.312 312.806 215.133 312.001 214.773C311.196 214.413 310.519 213.939 309.969 213.352C309.43 212.765 309.013 212.135 308.719 211.463H308.577V223.182H301.631ZM308.435 204.091C308.435 205.265 308.592 206.288 308.904 207.159C309.226 208.03 309.685 208.707 310.282 209.19C310.888 209.664 311.612 209.901 312.455 209.901C313.308 209.901 314.032 209.664 314.629 209.19C315.225 208.707 315.675 208.03 315.978 207.159C316.29 206.288 316.447 205.265 316.447 204.091C316.447 202.917 316.29 201.899 315.978 201.037C315.675 200.175 315.225 199.508 314.629 199.034C314.041 198.561 313.317 198.324 312.455 198.324C311.603 198.324 310.879 198.556 310.282 199.02C309.685 199.484 309.226 200.147 308.904 201.009C308.592 201.87 308.435 202.898 308.435 204.091ZM382.686 215.412C381.663 215.412 380.787 215.052 380.058 214.332C379.339 213.613 378.983 212.741 378.993 211.719C378.983 210.715 379.339 209.858 380.058 209.148C380.787 208.428 381.663 208.068 382.686 208.068C383.652 208.068 384.504 208.428 385.243 209.148C385.991 209.858 386.37 210.715 386.379 211.719C386.37 212.401 386.19 213.021 385.839 213.58C385.499 214.138 385.049 214.583 384.49 214.915C383.941 215.246 383.339 215.412 382.686 215.412ZM382.686 200.44C381.663 200.44 380.787 200.085 380.058 199.375C379.339 198.655 378.983 197.779 378.993 196.747C378.983 195.743 379.339 194.886 380.058 194.176C380.787 193.456 381.663 193.097 382.686 193.097C383.652 193.097 384.504 193.456 385.243 194.176C385.991 194.886 386.37 195.743 386.379 196.747C386.37 197.429 386.19 198.049 385.839 198.608C385.499 199.167 385.049 199.612 384.49 199.943C383.941 200.275 383.339 200.44 382.686 200.44ZM413.524 197.784V203.125H400.058V197.784H413.524ZM431.823 185.909V215H424.806V192.472H424.636L418.13 196.449V190.369L425.303 185.909H431.823ZM437.899 210.17V204.688L449.817 185.909H454.689V193.352H451.862L444.888 204.403V204.631H462.146V210.17H437.899ZM451.947 215V208.494L452.089 206.094V185.909H458.666V215H451.947ZM476.969 215.398C474.848 215.398 472.963 215.014 471.315 214.247C469.668 213.48 468.366 212.424 467.409 211.08C466.462 209.735 465.97 208.191 465.932 206.449H472.75C472.807 207.519 473.242 208.381 474.057 209.034C474.871 209.678 475.842 210 476.969 210C477.849 210 478.631 209.806 479.312 209.418C479.994 209.029 480.529 208.485 480.918 207.784C481.306 207.074 481.495 206.259 481.486 205.341C481.495 204.403 481.301 203.584 480.903 202.884C480.515 202.183 479.975 201.638 479.284 201.25C478.602 200.852 477.816 200.653 476.926 200.653C476.083 200.644 475.283 200.829 474.526 201.207C473.777 201.586 473.209 202.102 472.821 202.756L466.614 201.591L467.878 185.909H486.543V191.577H473.659L472.991 198.438H473.162C473.645 197.633 474.421 196.97 475.491 196.449C476.571 195.919 477.797 195.653 479.17 195.653C480.913 195.653 482.466 196.061 483.83 196.875C485.203 197.68 486.282 198.797 487.068 200.227C487.864 201.657 488.261 203.295 488.261 205.142C488.261 207.14 487.788 208.911 486.841 210.455C485.903 211.998 484.587 213.21 482.892 214.091C481.206 214.962 479.232 215.398 476.969 215.398ZM507.803 199.972C506.487 199.972 505.289 199.654 504.21 199.02C503.13 198.376 502.268 197.514 501.624 196.435C500.99 195.355 500.673 194.162 500.673 192.855C500.673 191.539 500.99 190.341 501.624 189.261C502.268 188.182 503.13 187.325 504.21 186.69C505.289 186.046 506.487 185.724 507.803 185.724C509.12 185.724 510.313 186.046 511.383 186.69C512.462 187.325 513.319 188.182 513.954 189.261C514.598 190.341 514.92 191.539 514.92 192.855C514.92 194.162 514.598 195.355 513.954 196.435C513.319 197.514 512.462 198.376 511.383 199.02C510.313 199.654 509.12 199.972 507.803 199.972ZM507.803 195.54C508.296 195.54 508.746 195.421 509.153 195.185C509.56 194.938 509.882 194.612 510.119 194.205C510.365 193.797 510.488 193.348 510.488 192.855C510.488 192.353 510.365 191.899 510.119 191.491C509.882 191.084 509.56 190.762 509.153 190.526C508.746 190.279 508.296 190.156 507.803 190.156C507.301 190.156 506.847 190.279 506.44 190.526C506.032 190.762 505.706 191.084 505.46 191.491C505.223 191.899 505.104 192.348 505.104 192.841C505.104 193.343 505.223 193.802 505.46 194.219C505.706 194.626 506.032 194.948 506.44 195.185C506.856 195.421 507.311 195.54 507.803 195.54ZM545.616 196.449H538.513C538.419 195.72 538.225 195.062 537.931 194.474C537.638 193.887 537.249 193.385 536.766 192.969C536.283 192.552 535.71 192.235 535.048 192.017C534.394 191.79 533.67 191.676 532.874 191.676C531.463 191.676 530.246 192.022 529.224 192.713C528.21 193.404 527.429 194.403 526.88 195.71C526.34 197.017 526.07 198.598 526.07 200.455C526.07 202.386 526.345 204.006 526.894 205.312C527.453 206.61 528.234 207.59 529.238 208.253C530.251 208.906 531.449 209.233 532.832 209.233C533.608 209.233 534.314 209.134 534.948 208.935C535.592 208.736 536.156 208.447 536.638 208.068C537.131 207.68 537.533 207.211 537.846 206.662C538.168 206.103 538.39 205.473 538.513 204.773L545.616 204.815C545.493 206.103 545.119 207.372 544.494 208.622C543.878 209.872 543.031 211.013 541.951 212.045C540.871 213.068 539.555 213.883 538.002 214.489C536.459 215.095 534.688 215.398 532.69 215.398C530.057 215.398 527.699 214.82 525.616 213.665C523.542 212.5 521.904 210.805 520.701 208.58C519.498 206.354 518.897 203.646 518.897 200.455C518.897 197.254 519.508 194.541 520.729 192.315C521.951 190.09 523.603 188.4 525.687 187.244C527.77 186.089 530.104 185.511 532.69 185.511C534.451 185.511 536.08 185.758 537.576 186.25C539.072 186.733 540.388 187.443 541.525 188.381C542.661 189.309 543.585 190.45 544.295 191.804C545.005 193.158 545.445 194.706 545.616 196.449ZM78.5312 270.003V257.517H80.5341C81.2064 257.062 81.822 256.428 82.3807 255.614C82.9394 254.79 83.4176 253.634 83.8153 252.148C84.2131 250.652 84.4972 248.677 84.6676 246.224L85.5767 233.909H105.477V257.517H108.602V269.989H101.841V263H85.2926V270.003H78.5312ZM88.6023 257.517H98.7159V239.619H91.8835L91.429 246.224C91.3059 248.071 91.107 249.7 90.8324 251.111C90.5578 252.522 90.2311 253.753 89.8523 254.804C89.4735 255.846 89.0568 256.75 88.6023 257.517ZM117.977 263.369C116.585 263.369 115.349 263.137 114.27 262.673C113.2 262.2 112.352 261.49 111.727 260.543C111.112 259.586 110.804 258.388 110.804 256.949C110.804 255.737 111.017 254.714 111.443 253.881C111.869 253.047 112.456 252.37 113.205 251.849C113.953 251.329 114.814 250.936 115.79 250.67C116.765 250.396 117.807 250.211 118.915 250.116C120.155 250.003 121.154 249.884 121.912 249.761C122.67 249.629 123.219 249.444 123.56 249.207C123.91 248.961 124.085 248.616 124.085 248.17V248.099C124.085 247.37 123.834 246.807 123.332 246.409C122.83 246.011 122.153 245.812 121.301 245.812C120.383 245.812 119.644 246.011 119.085 246.409C118.527 246.807 118.171 247.356 118.02 248.057L111.614 247.83C111.803 246.504 112.291 245.32 113.077 244.278C113.872 243.227 114.961 242.403 116.344 241.807C117.736 241.201 119.407 240.898 121.358 240.898C122.75 240.898 124.033 241.063 125.207 241.395C126.382 241.717 127.404 242.19 128.276 242.815C129.147 243.431 129.819 244.188 130.293 245.088C130.776 245.988 131.017 247.015 131.017 248.17V263H124.483V259.96H124.312C123.924 260.699 123.427 261.324 122.821 261.835C122.224 262.347 121.519 262.73 120.705 262.986C119.9 263.241 118.991 263.369 117.977 263.369ZM120.122 258.824C120.87 258.824 121.543 258.672 122.139 258.369C122.745 258.066 123.228 257.65 123.588 257.119C123.948 256.58 124.128 255.955 124.128 255.244V253.17C123.929 253.275 123.688 253.369 123.403 253.455C123.129 253.54 122.826 253.62 122.494 253.696C122.163 253.772 121.822 253.838 121.472 253.895C121.121 253.952 120.785 254.004 120.463 254.051C119.81 254.155 119.251 254.316 118.787 254.534C118.332 254.752 117.982 255.036 117.736 255.386C117.499 255.727 117.381 256.134 117.381 256.608C117.381 257.328 117.636 257.877 118.148 258.256C118.669 258.634 119.327 258.824 120.122 258.824ZM150.69 241.182V246.494H141.983V263H135.264V241.182H150.69ZM158.222 271.182C157.389 271.182 156.603 271.116 155.864 270.983C155.126 270.86 154.491 270.694 153.961 270.486L155.495 265.443C156.177 265.67 156.792 265.803 157.342 265.841C157.9 265.879 158.379 265.789 158.776 265.571C159.183 265.363 159.496 264.989 159.714 264.449L159.984 263.795L152.228 241.182H159.501L163.521 256.75H163.748L167.825 241.182H175.14L166.915 265.088C166.518 266.281 165.954 267.332 165.225 268.241C164.505 269.16 163.573 269.88 162.427 270.401C161.29 270.921 159.889 271.182 158.222 271.182ZM182.05 271.182C181.217 271.182 180.431 271.116 179.692 270.983C178.954 270.86 178.319 270.694 177.789 270.486L179.323 265.443C180.005 265.67 180.621 265.803 181.17 265.841C181.728 265.879 182.207 265.789 182.604 265.571C183.012 265.363 183.324 264.989 183.542 264.449L183.812 263.795L176.056 241.182H183.329L187.349 256.75H187.576L191.653 241.182H198.968L190.744 265.088C190.346 266.281 189.782 267.332 189.053 268.241C188.334 269.16 187.401 269.88 186.255 270.401C185.119 270.921 183.717 271.182 182.05 271.182ZM198.808 263L198.766 257.645H199.462C199.935 257.645 200.347 257.522 200.697 257.276C201.048 257.029 201.341 256.636 201.578 256.097C201.815 255.547 202.004 254.842 202.146 253.98C202.288 253.118 202.378 252.072 202.416 250.841L202.771 241.182H220.044V263H213.467V246.494H208.95L208.609 252.773C208.524 254.619 208.283 256.196 207.885 257.503C207.497 258.8 206.966 259.851 206.294 260.656C205.631 261.461 204.845 262.053 203.936 262.432C203.027 262.811 202 263 200.854 263H198.808ZM228.364 247.489H234.984C237.986 247.489 240.339 248.194 242.043 249.605C243.748 251.007 244.605 252.91 244.614 255.315C244.605 256.878 244.212 258.237 243.435 259.392C242.668 260.538 241.565 261.428 240.126 262.062C238.696 262.688 236.982 263 234.984 263H224.288V241.182H230.864V257.688H234.984C235.893 257.688 236.641 257.465 237.228 257.02C237.815 256.575 238.113 256.002 238.123 255.301C238.113 254.562 237.815 253.961 237.228 253.497C236.641 253.033 235.893 252.801 234.984 252.801H228.364V247.489ZM246.575 263V241.182H253.521V263H246.575ZM273.304 249.378V254.676H262.111V249.378H273.304ZM264.497 241.182V263H257.92V241.182H264.497ZM277.494 241.182V263H270.96V241.182H277.494ZM289.195 246.494V241.182H309.65V246.494H302.675V263H296.085V246.494H289.195ZM322.48 263.412C320.188 263.412 318.219 262.943 316.571 262.006C314.933 261.059 313.669 259.742 312.778 258.057C311.898 256.362 311.457 254.397 311.457 252.162C311.457 249.918 311.898 247.953 312.778 246.267C313.669 244.572 314.933 243.256 316.571 242.318C318.219 241.371 320.188 240.898 322.48 240.898C324.772 240.898 326.737 241.371 328.375 242.318C330.023 243.256 331.287 244.572 332.168 246.267C333.058 247.953 333.503 249.918 333.503 252.162C333.503 254.397 333.058 256.362 332.168 258.057C331.287 259.742 330.023 261.059 328.375 262.006C326.737 262.943 324.772 263.412 322.48 263.412ZM322.523 258.17C323.356 258.17 324.062 257.915 324.639 257.403C325.217 256.892 325.657 256.182 325.96 255.273C326.273 254.364 326.429 253.312 326.429 252.119C326.429 250.907 326.273 249.847 325.96 248.938C325.657 248.028 325.217 247.318 324.639 246.807C324.062 246.295 323.356 246.04 322.523 246.04C321.661 246.04 320.932 246.295 320.335 246.807C319.748 247.318 319.298 248.028 318.986 248.938C318.683 249.847 318.531 250.907 318.531 252.119C318.531 253.312 318.683 254.364 318.986 255.273C319.298 256.182 319.748 256.892 320.335 257.403C320.932 257.915 321.661 258.17 322.523 258.17ZM347.246 263.412C344.954 263.412 342.984 262.943 341.337 262.006C339.698 261.059 338.434 259.742 337.544 258.057C336.663 256.362 336.223 254.397 336.223 252.162C336.223 249.918 336.663 247.953 337.544 246.267C338.434 244.572 339.698 243.256 341.337 242.318C342.984 241.371 344.954 240.898 347.246 240.898C349.537 240.898 351.502 241.371 353.141 242.318C354.788 243.256 356.053 244.572 356.933 246.267C357.823 247.953 358.268 249.918 358.268 252.162C358.268 254.397 357.823 256.362 356.933 258.057C356.053 259.742 354.788 261.059 353.141 262.006C351.502 262.943 349.537 263.412 347.246 263.412ZM347.288 258.17C348.122 258.17 348.827 257.915 349.405 257.403C349.982 256.892 350.423 256.182 350.726 255.273C351.038 254.364 351.195 253.312 351.195 252.119C351.195 250.907 351.038 249.847 350.726 248.938C350.423 248.028 349.982 247.318 349.405 246.807C348.827 246.295 348.122 246.04 347.288 246.04C346.427 246.04 345.697 246.295 345.101 246.807C344.514 247.318 344.064 248.028 343.751 248.938C343.448 249.847 343.297 250.907 343.297 252.119C343.297 253.312 343.448 254.364 343.751 255.273C344.064 256.182 344.514 256.892 345.101 257.403C345.697 257.915 346.427 258.17 347.288 258.17ZM382.92 259.733C381.898 259.733 381.022 259.373 380.293 258.653C379.573 257.934 379.218 257.062 379.227 256.04C379.218 255.036 379.573 254.179 380.293 253.469C381.022 252.749 381.898 252.389 382.92 252.389C383.886 252.389 384.739 252.749 385.477 253.469C386.225 254.179 386.604 255.036 386.614 256.04C386.604 256.722 386.424 257.342 386.074 257.901C385.733 258.459 385.283 258.904 384.724 259.236C384.175 259.567 383.574 259.733 382.92 259.733ZM382.92 245.614C381.898 245.614 381.022 245.254 380.293 244.534C379.573 243.814 379.218 242.943 379.227 241.92C379.218 240.917 379.573 240.06 380.293 239.349C381.022 238.63 381.898 238.27 382.92 238.27C383.886 238.27 384.739 238.63 385.477 239.349C386.225 240.06 386.604 240.917 386.614 241.92C386.604 242.602 386.424 243.223 386.074 243.781C385.733 244.34 385.283 244.785 384.724 245.116C384.175 245.448 383.574 245.614 382.92 245.614ZM410.69 233.511C412.281 233.511 413.801 233.772 415.25 234.293C416.699 234.804 417.991 235.623 419.128 236.75C420.264 237.867 421.159 239.34 421.812 241.168C422.466 242.995 422.793 245.225 422.793 247.858C422.802 250.282 422.518 252.455 421.94 254.378C421.363 256.291 420.534 257.92 419.455 259.264C418.384 260.609 417.097 261.636 415.591 262.347C414.085 263.047 412.404 263.398 410.548 263.398C408.503 263.398 406.699 263.005 405.136 262.219C403.583 261.423 402.338 260.353 401.401 259.009C400.473 257.664 399.919 256.158 399.739 254.491H406.656C406.874 255.457 407.333 256.187 408.034 256.679C408.735 257.162 409.573 257.403 410.548 257.403C412.329 257.403 413.659 256.632 414.54 255.088C415.42 253.545 415.861 251.447 415.861 248.795H415.69C415.283 249.667 414.705 250.415 413.957 251.04C413.219 251.665 412.362 252.143 411.386 252.474C410.411 252.806 409.384 252.972 408.304 252.972C406.562 252.972 405.023 252.574 403.688 251.778C402.362 250.983 401.32 249.889 400.562 248.497C399.814 247.105 399.436 245.514 399.426 243.724C399.417 241.717 399.885 239.946 400.832 238.412C401.779 236.868 403.1 235.666 404.795 234.804C406.491 233.933 408.455 233.502 410.69 233.511ZM410.733 238.909C409.862 238.909 409.085 239.113 408.403 239.52C407.731 239.927 407.201 240.476 406.812 241.168C406.424 241.859 406.235 242.635 406.244 243.497C406.254 244.359 406.448 245.135 406.827 245.827C407.215 246.518 407.741 247.067 408.403 247.474C409.076 247.882 409.843 248.085 410.705 248.085C411.348 248.085 411.945 247.967 412.494 247.73C413.044 247.493 413.522 247.167 413.929 246.75C414.336 246.324 414.653 245.831 414.881 245.273C415.117 244.714 415.231 244.117 415.222 243.483C415.212 242.64 415.013 241.873 414.625 241.182C414.237 240.491 413.702 239.941 413.02 239.534C412.348 239.117 411.585 238.909 410.733 238.909ZM437.789 263.398C435.668 263.398 433.783 263.014 432.136 262.247C430.488 261.48 429.186 260.424 428.229 259.08C427.282 257.735 426.79 256.191 426.752 254.449H433.57C433.627 255.519 434.063 256.381 434.877 257.034C435.692 257.678 436.662 258 437.789 258C438.67 258 439.451 257.806 440.133 257.418C440.815 257.029 441.35 256.485 441.738 255.784C442.126 255.074 442.316 254.259 442.306 253.341C442.316 252.403 442.121 251.584 441.724 250.884C441.335 250.183 440.796 249.638 440.104 249.25C439.423 248.852 438.637 248.653 437.746 248.653C436.904 248.644 436.103 248.829 435.346 249.207C434.598 249.586 434.03 250.102 433.641 250.756L427.434 249.591L428.698 233.909H447.363V239.577H434.479L433.812 246.438H433.982C434.465 245.633 435.242 244.97 436.312 244.449C437.391 243.919 438.618 243.653 439.991 243.653C441.733 243.653 443.286 244.061 444.65 244.875C446.023 245.68 447.103 246.797 447.888 248.227C448.684 249.657 449.082 251.295 449.082 253.142C449.082 255.14 448.608 256.911 447.661 258.455C446.724 259.998 445.407 261.21 443.712 262.091C442.027 262.962 440.052 263.398 437.789 263.398ZM78.5312 318.003V305.517H80.5341C81.2064 305.062 81.822 304.428 82.3807 303.614C82.9394 302.79 83.4176 301.634 83.8153 300.148C84.2131 298.652 84.4972 296.677 84.6676 294.224L85.5767 281.909H105.477V305.517H108.602V317.989H101.841V311H85.2926V318.003H78.5312ZM88.6023 305.517H98.7159V287.619H91.8835L91.429 294.224C91.3059 296.071 91.107 297.7 90.8324 299.111C90.5578 300.522 90.2311 301.753 89.8523 302.804C89.4735 303.846 89.0568 304.75 88.6023 305.517ZM118.403 302.009L125.378 289.182H132.054V311H125.477V298.131L118.517 311H111.827V289.182H118.403V302.009ZM142.626 311.369C141.234 311.369 139.998 311.137 138.918 310.673C137.848 310.2 137.001 309.49 136.376 308.543C135.76 307.586 135.452 306.388 135.452 304.949C135.452 303.737 135.665 302.714 136.092 301.881C136.518 301.047 137.105 300.37 137.853 299.849C138.601 299.329 139.463 298.936 140.438 298.67C141.414 298.396 142.455 298.211 143.563 298.116C144.804 298.003 145.803 297.884 146.56 297.761C147.318 297.629 147.867 297.444 148.208 297.207C148.558 296.961 148.734 296.616 148.734 296.17V296.099C148.734 295.37 148.483 294.807 147.981 294.409C147.479 294.011 146.802 293.812 145.95 293.812C145.031 293.812 144.292 294.011 143.734 294.409C143.175 294.807 142.82 295.356 142.668 296.057L136.262 295.83C136.451 294.504 136.939 293.32 137.725 292.278C138.521 291.227 139.61 290.403 140.992 289.807C142.384 289.201 144.056 288.898 146.006 288.898C147.398 288.898 148.682 289.063 149.856 289.395C151.03 289.717 152.053 290.19 152.924 290.815C153.795 291.431 154.468 292.188 154.941 293.088C155.424 293.988 155.665 295.015 155.665 296.17V311H149.131V307.96H148.961C148.573 308.699 148.076 309.324 147.469 309.835C146.873 310.347 146.167 310.73 145.353 310.986C144.548 311.241 143.639 311.369 142.626 311.369ZM144.771 306.824C145.519 306.824 146.191 306.672 146.788 306.369C147.394 306.066 147.877 305.65 148.237 305.119C148.596 304.58 148.776 303.955 148.776 303.244V301.17C148.577 301.275 148.336 301.369 148.052 301.455C147.777 301.54 147.474 301.62 147.143 301.696C146.811 301.772 146.47 301.838 146.12 301.895C145.77 301.952 145.433 302.004 145.112 302.051C144.458 302.155 143.899 302.316 143.435 302.534C142.981 302.752 142.63 303.036 142.384 303.386C142.147 303.727 142.029 304.134 142.029 304.608C142.029 305.328 142.285 305.877 142.796 306.256C143.317 306.634 143.975 306.824 144.771 306.824ZM173.123 303.585L178.464 289.182H183.549L175.353 311H170.893L162.91 289.182H167.981L173.123 303.585ZM166.489 289.182V311H159.913V289.182H166.489ZM180.154 311V289.182H186.646V311H180.154ZM201.049 311.412C198.767 311.412 196.797 310.962 195.14 310.062C193.492 309.153 192.223 307.861 191.333 306.185C190.452 304.499 190.012 302.496 190.012 300.176C190.012 297.922 190.457 295.953 191.347 294.267C192.237 292.572 193.492 291.256 195.112 290.318C196.731 289.371 198.639 288.898 200.836 288.898C202.389 288.898 203.809 289.139 205.097 289.622C206.385 290.105 207.498 290.82 208.435 291.767C209.373 292.714 210.102 293.884 210.623 295.276C211.144 296.658 211.404 298.244 211.404 300.034V301.767H192.441V297.733H204.941C204.932 296.994 204.756 296.336 204.415 295.759C204.075 295.181 203.606 294.731 203.009 294.409C202.422 294.078 201.745 293.912 200.978 293.912C200.201 293.912 199.505 294.087 198.89 294.438C198.274 294.778 197.787 295.247 197.427 295.844C197.067 296.431 196.878 297.098 196.859 297.847V301.952C196.859 302.842 197.034 303.623 197.384 304.295C197.735 304.958 198.232 305.474 198.876 305.844C199.52 306.213 200.287 306.398 201.177 306.398C201.792 306.398 202.351 306.312 202.853 306.142C203.355 305.972 203.786 305.721 204.146 305.389C204.505 305.058 204.775 304.651 204.955 304.168L211.333 304.352C211.068 305.782 210.486 307.027 209.586 308.088C208.696 309.139 207.526 309.958 206.077 310.545C204.629 311.123 202.952 311.412 201.049 311.412ZM213.375 294.494V289.182H233.83V294.494H226.855V311H220.264V294.494H213.375ZM237.139 319.182V289.182H244.014V292.918H244.227C244.511 292.255 244.914 291.616 245.435 291C245.965 290.384 246.637 289.883 247.452 289.494C248.276 289.097 249.26 288.898 250.406 288.898C251.921 288.898 253.337 289.295 254.653 290.091C255.979 290.886 257.049 292.113 257.864 293.77C258.678 295.427 259.085 297.539 259.085 300.105C259.085 302.577 258.692 304.646 257.906 306.312C257.13 307.979 256.079 309.229 254.753 310.062C253.437 310.896 251.973 311.312 250.364 311.312C249.265 311.312 248.313 311.133 247.509 310.773C246.704 310.413 246.027 309.939 245.477 309.352C244.938 308.765 244.521 308.135 244.227 307.463H244.085V319.182H237.139ZM243.943 300.091C243.943 301.265 244.099 302.288 244.412 303.159C244.734 304.03 245.193 304.707 245.79 305.19C246.396 305.664 247.12 305.901 247.963 305.901C248.815 305.901 249.54 305.664 250.136 305.19C250.733 304.707 251.183 304.03 251.486 303.159C251.798 302.288 251.955 301.265 251.955 300.091C251.955 298.917 251.798 297.899 251.486 297.037C251.183 296.175 250.733 295.508 250.136 295.034C249.549 294.561 248.825 294.324 247.963 294.324C247.111 294.324 246.386 294.556 245.79 295.02C245.193 295.484 244.734 296.147 244.412 297.009C244.099 297.87 243.943 298.898 243.943 300.091ZM386.944 307.733C385.921 307.733 385.045 307.373 384.316 306.653C383.596 305.934 383.241 305.062 383.251 304.04C383.241 303.036 383.596 302.179 384.316 301.469C385.045 300.749 385.921 300.389 386.944 300.389C387.91 300.389 388.762 300.749 389.501 301.469C390.249 302.179 390.628 303.036 390.637 304.04C390.628 304.722 390.448 305.342 390.097 305.901C389.756 306.459 389.307 306.904 388.748 307.236C388.199 307.567 387.597 307.733 386.944 307.733ZM386.944 293.614C385.921 293.614 385.045 293.254 384.316 292.534C383.596 291.814 383.241 290.943 383.251 289.92C383.241 288.917 383.596 288.06 384.316 287.349C385.045 286.63 385.921 286.27 386.944 286.27C387.91 286.27 388.762 286.63 389.501 287.349C390.249 288.06 390.628 288.917 390.637 289.92C390.628 290.602 390.448 291.223 390.097 291.781C389.756 292.34 389.307 292.785 388.748 293.116C388.199 293.448 387.597 293.614 386.944 293.614ZM417.214 281.909V311H410.197V288.472H410.026L403.521 292.449V286.369L410.694 281.909H417.214ZM434.71 311.398C432.494 311.398 430.529 311.019 428.815 310.261C427.111 309.494 425.766 308.438 424.781 307.094C423.796 305.749 423.295 304.201 423.276 302.449H430.349C430.378 303.083 430.581 303.647 430.96 304.139C431.339 304.622 431.855 305.001 432.509 305.276C433.162 305.55 433.905 305.688 434.739 305.688C435.572 305.688 436.306 305.541 436.94 305.247C437.584 304.944 438.086 304.532 438.446 304.011C438.806 303.481 438.981 302.875 438.972 302.193C438.981 301.511 438.787 300.905 438.389 300.375C437.991 299.845 437.428 299.433 436.699 299.139C435.979 298.846 435.127 298.699 434.142 298.699H431.315V293.699H434.142C435.004 293.699 435.761 293.557 436.415 293.273C437.078 292.989 437.594 292.591 437.963 292.08C438.332 291.559 438.512 290.962 438.503 290.29C438.512 289.636 438.356 289.063 438.034 288.571C437.722 288.069 437.281 287.681 436.713 287.406C436.154 287.132 435.506 286.994 434.767 286.994C433.991 286.994 433.285 287.132 432.651 287.406C432.026 287.681 431.528 288.069 431.159 288.571C430.79 289.073 430.596 289.655 430.577 290.318H423.858C423.877 288.585 424.36 287.061 425.307 285.744C426.254 284.419 427.542 283.382 429.17 282.634C430.809 281.885 432.674 281.511 434.767 281.511C436.85 281.511 438.683 281.876 440.264 282.605C441.846 283.334 443.077 284.329 443.957 285.588C444.838 286.838 445.278 288.254 445.278 289.835C445.288 291.473 444.753 292.823 443.673 293.884C442.603 294.944 441.225 295.598 439.54 295.844V296.071C441.794 296.336 443.493 297.065 444.639 298.259C445.795 299.452 446.367 300.943 446.358 302.733C446.358 304.419 445.861 305.915 444.866 307.222C443.882 308.519 442.509 309.542 440.747 310.29C438.995 311.028 436.983 311.398 434.71 311.398ZM461.276 281.511C462.867 281.511 464.387 281.772 465.836 282.293C467.285 282.804 468.577 283.623 469.714 284.75C470.85 285.867 471.745 287.34 472.398 289.168C473.052 290.995 473.379 293.225 473.379 295.858C473.388 298.282 473.104 300.455 472.526 302.378C471.949 304.291 471.12 305.92 470.04 307.264C468.97 308.609 467.683 309.636 466.177 310.347C464.671 311.047 462.99 311.398 461.134 311.398C459.089 311.398 457.285 311.005 455.722 310.219C454.169 309.423 452.924 308.353 451.987 307.009C451.058 305.664 450.504 304.158 450.325 302.491H457.242C457.46 303.457 457.919 304.187 458.62 304.679C459.321 305.162 460.159 305.403 461.134 305.403C462.915 305.403 464.245 304.632 465.126 303.088C466.006 301.545 466.447 299.447 466.447 296.795H466.276C465.869 297.667 465.291 298.415 464.543 299.04C463.805 299.665 462.948 300.143 461.972 300.474C460.997 300.806 459.969 300.972 458.89 300.972C457.147 300.972 455.609 300.574 454.273 299.778C452.948 298.983 451.906 297.889 451.148 296.497C450.4 295.105 450.022 293.514 450.012 291.724C450.003 289.717 450.471 287.946 451.418 286.412C452.365 284.868 453.686 283.666 455.381 282.804C457.076 281.933 459.041 281.502 461.276 281.511ZM461.319 286.909C460.448 286.909 459.671 287.113 458.989 287.52C458.317 287.927 457.787 288.476 457.398 289.168C457.01 289.859 456.821 290.635 456.83 291.497C456.84 292.359 457.034 293.135 457.413 293.827C457.801 294.518 458.326 295.067 458.989 295.474C459.662 295.882 460.429 296.085 461.29 296.085C461.934 296.085 462.531 295.967 463.08 295.73C463.629 295.493 464.108 295.167 464.515 294.75C464.922 294.324 465.239 293.831 465.467 293.273C465.703 292.714 465.817 292.117 465.808 291.483C465.798 290.64 465.599 289.873 465.211 289.182C464.823 288.491 464.288 287.941 463.606 287.534C462.933 287.117 462.171 286.909 461.319 286.909ZM483.134 307.023L483.006 308.599C482.892 309.906 482.66 311.18 482.31 312.42C481.969 313.67 481.604 314.793 481.216 315.787C480.828 316.781 480.52 317.553 480.293 318.102H475.918C476.069 317.553 476.273 316.781 476.528 315.787C476.794 314.793 477.04 313.67 477.267 312.42C477.494 311.17 477.622 309.902 477.651 308.614L477.679 307.023H483.134ZM498.524 311.398C496.261 311.398 494.239 311.038 492.459 310.318C490.688 309.589 489.296 308.604 488.283 307.364C487.279 306.114 486.777 304.703 486.777 303.131C486.777 301.928 487.066 300.825 487.643 299.821C488.221 298.817 489.002 297.984 489.987 297.321C490.982 296.649 492.089 296.218 493.311 296.028V295.801C491.711 295.508 490.399 294.764 489.376 293.571C488.363 292.378 487.857 290.981 487.857 289.381C487.857 287.866 488.316 286.516 489.234 285.332C490.162 284.149 491.427 283.216 493.027 282.534C494.637 281.852 496.469 281.511 498.524 281.511C500.579 281.511 502.407 281.852 504.007 282.534C505.617 283.216 506.881 284.149 507.8 285.332C508.728 286.516 509.192 287.866 509.192 289.381C509.192 290.991 508.676 292.392 507.643 293.585C506.621 294.769 505.319 295.508 503.737 295.801V296.028C504.949 296.218 506.048 296.649 507.033 297.321C508.027 297.984 508.813 298.817 509.391 299.821C509.978 300.825 510.271 301.928 510.271 303.131C510.271 304.703 509.765 306.114 508.751 307.364C507.738 308.604 506.346 309.589 504.575 310.318C502.814 311.038 500.797 311.398 498.524 311.398ZM498.524 306.412C499.386 306.412 500.143 306.251 500.797 305.929C501.45 305.598 501.962 305.138 502.331 304.551C502.71 303.964 502.899 303.301 502.899 302.562C502.899 301.805 502.71 301.133 502.331 300.545C501.952 299.958 501.431 299.499 500.768 299.168C500.115 298.827 499.367 298.656 498.524 298.656C497.691 298.656 496.943 298.827 496.28 299.168C495.617 299.499 495.096 299.958 494.717 300.545C494.339 301.133 494.149 301.805 494.149 302.562C494.149 303.301 494.334 303.964 494.703 304.551C495.082 305.129 495.598 305.583 496.251 305.915C496.914 306.246 497.672 306.412 498.524 306.412ZM498.524 293.699C499.263 293.699 499.916 293.547 500.484 293.244C501.062 292.941 501.512 292.52 501.834 291.98C502.165 291.44 502.331 290.83 502.331 290.148C502.331 289.466 502.165 288.865 501.834 288.344C501.512 287.823 501.067 287.416 500.499 287.122C499.93 286.819 499.272 286.668 498.524 286.668C497.786 286.668 497.127 286.819 496.55 287.122C495.972 287.416 495.522 287.823 495.2 288.344C494.878 288.865 494.717 289.466 494.717 290.148C494.717 290.83 494.878 291.44 495.2 291.98C495.532 292.51 495.986 292.932 496.564 293.244C497.142 293.547 497.795 293.699 498.524 293.699ZM514.192 311V305.943L524.803 296.653C525.598 295.934 526.275 295.276 526.834 294.679C527.393 294.073 527.819 293.467 528.112 292.861C528.406 292.245 528.553 291.578 528.553 290.858C528.553 290.053 528.377 289.366 528.027 288.798C527.677 288.221 527.194 287.776 526.578 287.463C525.963 287.151 525.257 286.994 524.462 286.994C523.657 286.994 522.951 287.16 522.345 287.491C521.739 287.813 521.266 288.282 520.925 288.898C520.593 289.513 520.428 290.261 520.428 291.142H513.766C513.766 289.163 514.211 287.454 515.101 286.014C515.991 284.575 517.241 283.467 518.851 282.69C520.47 281.904 522.35 281.511 524.49 281.511C526.696 281.511 528.614 281.881 530.243 282.619C531.872 283.358 533.131 284.39 534.021 285.716C534.921 287.032 535.371 288.562 535.371 290.304C535.371 291.412 535.148 292.51 534.703 293.599C534.258 294.688 533.458 295.891 532.303 297.207C531.157 298.524 529.528 300.1 527.416 301.938L523.936 305.148V305.332H535.726V311H514.192ZM551.731 311.71C549.193 311.71 547.005 311.109 545.168 309.906C543.331 308.694 541.915 306.956 540.921 304.693C539.927 302.42 539.434 299.688 539.444 296.497C539.453 293.306 539.951 290.598 540.935 288.372C541.93 286.137 543.341 284.437 545.168 283.273C547.005 282.098 549.193 281.511 551.731 281.511C554.269 281.511 556.456 282.098 558.293 283.273C560.14 284.437 561.56 286.137 562.555 288.372C563.549 290.607 564.041 293.315 564.032 296.497C564.032 299.698 563.535 302.435 562.54 304.707C561.546 306.98 560.13 308.718 558.293 309.92C556.466 311.114 554.278 311.71 551.731 311.71ZM551.731 305.957C553.246 305.957 554.472 305.186 555.41 303.642C556.347 302.089 556.811 299.707 556.802 296.497C556.802 294.395 556.589 292.662 556.163 291.298C555.737 289.925 555.145 288.902 554.387 288.23C553.629 287.558 552.744 287.222 551.731 287.222C550.225 287.222 549.008 287.984 548.08 289.509C547.152 291.024 546.683 293.353 546.674 296.497C546.665 298.628 546.868 300.394 547.285 301.795C547.711 303.197 548.308 304.243 549.075 304.935C549.842 305.616 550.727 305.957 551.731 305.957ZM576.71 311V289.182H583.656V297.307H585.19L590.488 289.182H598.528L591.184 300.105L598.599 311H590.46L585.673 303.756H583.656V311H576.71ZM613.982 303.585L619.323 289.182H624.408L616.212 311H611.752L603.769 289.182H608.84L613.982 303.585ZM607.349 289.182V311H600.772V289.182H607.349ZM621.013 311V289.182H627.505V311H621.013ZM79.7955 359V329.909H86.8267V341.585H98.2898V329.909H105.307V359H98.2898V347.31H86.8267V359H79.7955ZM118.07 342.253C117.407 342.253 116.848 342.366 116.393 342.594C115.939 342.821 115.598 343.143 115.371 343.56C115.153 343.976 115.044 344.483 115.044 345.08H108.879C108.879 343.82 109.107 342.684 109.561 341.67C110.016 340.648 110.655 339.777 111.479 339.057C112.312 338.328 113.287 337.774 114.405 337.395C115.522 337.007 116.744 336.812 118.07 336.812C120.333 336.812 122.232 337.295 123.766 338.261C125.309 339.227 126.474 340.548 127.26 342.224C128.046 343.891 128.439 345.78 128.439 347.892V348.318C128.439 350.439 128.051 352.338 127.274 354.014C126.498 355.681 125.338 356.997 123.794 357.963C122.26 358.92 120.352 359.398 118.07 359.398C116.251 359.398 114.651 359.052 113.268 358.361C111.895 357.67 110.821 356.666 110.044 355.349C109.268 354.033 108.879 352.438 108.879 350.562H115.044C115.044 351.178 115.153 351.741 115.371 352.253C115.589 352.755 115.92 353.157 116.365 353.46C116.82 353.754 117.388 353.905 118.07 353.915C119.14 353.905 119.945 353.612 120.484 353.034C121.034 352.456 121.398 351.737 121.578 350.875C121.768 350.013 121.862 349.161 121.862 348.318V347.892C121.862 346.926 121.763 346.017 121.564 345.165C121.375 344.303 121.005 343.602 120.456 343.062C119.916 342.523 119.121 342.253 118.07 342.253ZM123.723 346.259V349.98H116.635V346.259H123.723ZM147.448 337.182V342.494H138.741V359H132.022V337.182H147.448ZM176.386 346.188V349.994H162.636V346.188H176.386ZM169.511 359.412C167.22 359.412 165.25 358.943 163.602 358.006C161.964 357.059 160.7 355.742 159.81 354.057C158.929 352.362 158.489 350.397 158.489 348.162C158.489 345.918 158.929 343.953 159.81 342.267C160.7 340.572 161.964 339.256 163.602 338.318C165.25 337.371 167.22 336.898 169.511 336.898C171.803 336.898 173.768 337.371 175.406 338.318C177.054 339.256 178.318 340.572 179.199 342.267C180.089 343.953 180.534 345.918 180.534 348.162C180.534 350.397 180.089 352.362 179.199 354.057C178.318 355.742 177.054 357.059 175.406 358.006C173.768 358.943 171.803 359.412 169.511 359.412ZM169.554 354.17C170.387 354.17 171.093 353.915 171.67 353.403C172.248 352.892 172.688 352.182 172.991 351.273C173.304 350.364 173.46 349.312 173.46 348.119C173.46 346.907 173.304 345.847 172.991 344.938C172.688 344.028 172.248 343.318 171.67 342.807C171.093 342.295 170.387 342.04 169.554 342.04C168.692 342.04 167.963 342.295 167.366 342.807C166.779 343.318 166.33 344.028 166.017 344.938C165.714 345.847 165.562 346.907 165.562 348.119C165.562 349.312 165.714 350.364 166.017 351.273C166.33 352.182 166.779 352.892 167.366 353.403C167.963 353.915 168.692 354.17 169.554 354.17ZM182.587 365.435V353.645H184.22C184.713 353.399 185.106 352.925 185.399 352.224C185.693 351.514 185.925 350.686 186.095 349.739C186.275 348.782 186.408 347.788 186.493 346.756C186.588 345.714 186.673 344.734 186.749 343.815L187.26 337.182H204.93V353.645H208.339V365.435H201.749V359H189.348V365.435H182.587ZM190.982 353.645H198.453V342.352H193.055L192.942 343.815C192.809 346.164 192.601 348.134 192.317 349.724C192.033 351.315 191.588 352.622 190.982 353.645ZM228.613 346.188V349.994H214.863V346.188H228.613ZM221.738 359.412C219.446 359.412 217.477 358.943 215.829 358.006C214.191 357.059 212.926 355.742 212.036 354.057C211.156 352.362 210.715 350.397 210.715 348.162C210.715 345.918 211.156 343.953 212.036 342.267C212.926 340.572 214.191 339.256 215.829 338.318C217.477 337.371 219.446 336.898 221.738 336.898C224.03 336.898 225.995 337.371 227.633 338.318C229.281 339.256 230.545 340.572 231.425 342.267C232.316 343.953 232.761 345.918 232.761 348.162C232.761 350.397 232.316 352.362 231.425 354.057C230.545 355.742 229.281 357.059 227.633 358.006C225.995 358.943 224.03 359.412 221.738 359.412ZM221.781 354.17C222.614 354.17 223.319 353.915 223.897 353.403C224.475 352.892 224.915 352.182 225.218 351.273C225.531 350.364 225.687 349.312 225.687 348.119C225.687 346.907 225.531 345.847 225.218 344.938C224.915 344.028 224.475 343.318 223.897 342.807C223.319 342.295 222.614 342.04 221.781 342.04C220.919 342.04 220.19 342.295 219.593 342.807C219.006 343.318 218.556 344.028 218.244 344.938C217.941 345.847 217.789 346.907 217.789 348.119C217.789 349.312 217.941 350.364 218.244 351.273C218.556 352.182 219.006 352.892 219.593 353.403C220.19 353.915 220.919 354.17 221.781 354.17ZM236.319 367.182V337.182H243.194V340.918H243.407C243.691 340.255 244.094 339.616 244.614 339C245.145 338.384 245.817 337.883 246.631 337.494C247.455 337.097 248.44 336.898 249.586 336.898C251.101 336.898 252.517 337.295 253.833 338.091C255.159 338.886 256.229 340.113 257.043 341.77C257.858 343.427 258.265 345.539 258.265 348.105C258.265 350.577 257.872 352.646 257.086 354.312C256.309 355.979 255.258 357.229 253.933 358.062C252.616 358.896 251.153 359.312 249.543 359.312C248.445 359.312 247.493 359.133 246.688 358.773C245.883 358.413 245.206 357.939 244.657 357.352C244.117 356.765 243.701 356.135 243.407 355.463H243.265V367.182H236.319ZM243.123 348.091C243.123 349.265 243.279 350.288 243.592 351.159C243.914 352.03 244.373 352.707 244.969 353.19C245.576 353.664 246.3 353.901 247.143 353.901C247.995 353.901 248.719 353.664 249.316 353.19C249.913 352.707 250.362 352.03 250.665 351.159C250.978 350.288 251.134 349.265 251.134 348.091C251.134 346.917 250.978 345.899 250.665 345.037C250.362 344.175 249.913 343.508 249.316 343.034C248.729 342.561 248.004 342.324 247.143 342.324C246.29 342.324 245.566 342.556 244.969 343.02C244.373 343.484 243.914 344.147 243.592 345.009C243.279 345.87 243.123 346.898 243.123 348.091ZM386.124 355.733C385.101 355.733 384.225 355.373 383.496 354.653C382.776 353.934 382.421 353.062 382.43 352.04C382.421 351.036 382.776 350.179 383.496 349.469C384.225 348.749 385.101 348.389 386.124 348.389C387.089 348.389 387.942 348.749 388.68 349.469C389.429 350.179 389.807 351.036 389.817 352.04C389.807 352.722 389.627 353.342 389.277 353.901C388.936 354.459 388.486 354.904 387.928 355.236C387.378 355.567 386.777 355.733 386.124 355.733ZM386.124 341.614C385.101 341.614 384.225 341.254 383.496 340.534C382.776 339.814 382.421 338.943 382.43 337.92C382.421 336.917 382.776 336.06 383.496 335.349C384.225 334.63 385.101 334.27 386.124 334.27C387.089 334.27 387.942 334.63 388.68 335.349C389.429 336.06 389.807 336.917 389.817 337.92C389.807 338.602 389.627 339.223 389.277 339.781C388.936 340.34 388.486 340.785 387.928 341.116C387.378 341.448 386.777 341.614 386.124 341.614ZM413.893 329.511C415.484 329.511 417.004 329.772 418.453 330.293C419.902 330.804 421.195 331.623 422.331 332.75C423.467 333.867 424.362 335.34 425.016 337.168C425.669 338.995 425.996 341.225 425.996 343.858C426.005 346.282 425.721 348.455 425.143 350.378C424.566 352.291 423.737 353.92 422.658 355.264C421.588 356.609 420.3 357.636 418.794 358.347C417.288 359.047 415.607 359.398 413.751 359.398C411.706 359.398 409.902 359.005 408.339 358.219C406.786 357.423 405.541 356.353 404.604 355.009C403.676 353.664 403.122 352.158 402.942 350.491H409.859C410.077 351.457 410.536 352.187 411.237 352.679C411.938 353.162 412.776 353.403 413.751 353.403C415.532 353.403 416.862 352.632 417.743 351.088C418.624 349.545 419.064 347.447 419.064 344.795H418.893C418.486 345.667 417.909 346.415 417.161 347.04C416.422 347.665 415.565 348.143 414.589 348.474C413.614 348.806 412.587 348.972 411.507 348.972C409.765 348.972 408.226 348.574 406.891 347.778C405.565 346.983 404.523 345.889 403.766 344.497C403.018 343.105 402.639 341.514 402.629 339.724C402.62 337.717 403.089 335.946 404.036 334.412C404.982 332.868 406.304 331.666 407.999 330.804C409.694 329.933 411.659 329.502 413.893 329.511ZM413.936 334.909C413.065 334.909 412.288 335.113 411.607 335.52C410.934 335.927 410.404 336.476 410.016 337.168C409.627 337.859 409.438 338.635 409.447 339.497C409.457 340.359 409.651 341.135 410.03 341.827C410.418 342.518 410.944 343.067 411.607 343.474C412.279 343.882 413.046 344.085 413.908 344.085C414.552 344.085 415.148 343.967 415.697 343.73C416.247 343.493 416.725 343.167 417.132 342.75C417.539 342.324 417.857 341.831 418.084 341.273C418.321 340.714 418.434 340.117 418.425 339.483C418.415 338.64 418.216 337.873 417.828 337.182C417.44 336.491 416.905 335.941 416.223 335.534C415.551 335.117 414.788 334.909 413.936 334.909ZM432.569 359.412C431.546 359.412 430.67 359.052 429.941 358.332C429.221 357.613 428.866 356.741 428.876 355.719C428.866 354.715 429.221 353.858 429.941 353.148C430.67 352.428 431.546 352.068 432.569 352.068C433.535 352.068 434.387 352.428 435.126 353.148C435.874 353.858 436.253 354.715 436.262 355.719C436.253 356.401 436.073 357.021 435.722 357.58C435.381 358.138 434.932 358.583 434.373 358.915C433.824 359.246 433.222 359.412 432.569 359.412ZM451.12 329.511C452.711 329.511 454.231 329.772 455.68 330.293C457.129 330.804 458.421 331.623 459.558 332.75C460.694 333.867 461.589 335.34 462.242 337.168C462.896 338.995 463.222 341.225 463.222 343.858C463.232 346.282 462.948 348.455 462.37 350.378C461.792 352.291 460.964 353.92 459.884 355.264C458.814 356.609 457.526 357.636 456.021 358.347C454.515 359.047 452.834 359.398 450.978 359.398C448.933 359.398 447.129 359.005 445.566 358.219C444.013 357.423 442.768 356.353 441.83 355.009C440.902 353.664 440.348 352.158 440.168 350.491H447.086C447.304 351.457 447.763 352.187 448.464 352.679C449.165 353.162 450.003 353.403 450.978 353.403C452.758 353.403 454.089 352.632 454.969 351.088C455.85 349.545 456.29 347.447 456.29 344.795H456.12C455.713 345.667 455.135 346.415 454.387 347.04C453.648 347.665 452.791 348.143 451.816 348.474C450.841 348.806 449.813 348.972 448.734 348.972C446.991 348.972 445.452 348.574 444.117 347.778C442.791 346.983 441.75 345.889 440.992 344.497C440.244 343.105 439.865 341.514 439.856 339.724C439.846 337.717 440.315 335.946 441.262 334.412C442.209 332.868 443.53 331.666 445.225 330.804C446.92 329.933 448.885 329.502 451.12 329.511ZM451.163 334.909C450.291 334.909 449.515 335.113 448.833 335.52C448.161 335.927 447.63 336.476 447.242 337.168C446.854 337.859 446.665 338.635 446.674 339.497C446.683 340.359 446.878 341.135 447.256 341.827C447.645 342.518 448.17 343.067 448.833 343.474C449.505 343.882 450.272 344.085 451.134 344.085C451.778 344.085 452.375 343.967 452.924 343.73C453.473 343.493 453.951 343.167 454.359 342.75C454.766 342.324 455.083 341.831 455.31 341.273C455.547 340.714 455.661 340.117 455.651 339.483C455.642 338.64 455.443 337.873 455.055 337.182C454.666 336.491 454.131 335.941 453.45 335.534C452.777 335.117 452.015 334.909 451.163 334.909ZM495.435 337.182V354.469H499.057V366.003H492.338V359H475.733V337.182H482.31V353.688H488.957V337.182H495.435ZM508.446 359.369C507.054 359.369 505.818 359.137 504.739 358.673C503.669 358.2 502.821 357.49 502.196 356.543C501.58 355.586 501.273 354.388 501.273 352.949C501.273 351.737 501.486 350.714 501.912 349.881C502.338 349.047 502.925 348.37 503.673 347.849C504.421 347.329 505.283 346.936 506.259 346.67C507.234 346.396 508.276 346.211 509.384 346.116C510.624 346.003 511.623 345.884 512.381 345.761C513.138 345.629 513.688 345.444 514.028 345.207C514.379 344.961 514.554 344.616 514.554 344.17V344.099C514.554 343.37 514.303 342.807 513.801 342.409C513.299 342.011 512.622 341.812 511.77 341.812C510.851 341.812 510.113 342.011 509.554 342.409C508.995 342.807 508.64 343.356 508.489 344.057L502.082 343.83C502.272 342.504 502.759 341.32 503.545 340.278C504.341 339.227 505.43 338.403 506.812 337.807C508.205 337.201 509.876 336.898 511.827 336.898C513.219 336.898 514.502 337.063 515.676 337.395C516.85 337.717 517.873 338.19 518.744 338.815C519.616 339.431 520.288 340.188 520.761 341.088C521.244 341.988 521.486 343.015 521.486 344.17V359H514.952V355.96H514.781C514.393 356.699 513.896 357.324 513.29 357.835C512.693 358.347 511.988 358.73 511.173 358.986C510.368 359.241 509.459 359.369 508.446 359.369ZM510.591 354.824C511.339 354.824 512.011 354.672 512.608 354.369C513.214 354.066 513.697 353.65 514.057 353.119C514.417 352.58 514.597 351.955 514.597 351.244V349.17C514.398 349.275 514.156 349.369 513.872 349.455C513.598 349.54 513.295 349.62 512.963 349.696C512.632 349.772 512.291 349.838 511.94 349.895C511.59 349.952 511.254 350.004 510.932 350.051C510.278 350.155 509.72 350.316 509.256 350.534C508.801 350.752 508.451 351.036 508.205 351.386C507.968 351.727 507.849 352.134 507.849 352.608C507.849 353.328 508.105 353.877 508.616 354.256C509.137 354.634 509.795 354.824 510.591 354.824ZM541.159 337.182V342.494H532.452V359H525.733V337.182H541.159Z" fill="white"/>
<path d="M124.643 399V369.909H131.674V381.585H143.137V369.909H150.154V399H143.137V387.31H131.674V399H124.643ZM160.716 399.369C159.324 399.369 158.088 399.137 157.008 398.673C155.938 398.2 155.091 397.49 154.466 396.543C153.85 395.586 153.542 394.388 153.542 392.949C153.542 391.737 153.755 390.714 154.181 389.881C154.608 389.047 155.195 388.37 155.943 387.849C156.691 387.329 157.553 386.936 158.528 386.67C159.503 386.396 160.545 386.211 161.653 386.116C162.894 386.003 163.893 385.884 164.65 385.761C165.408 385.629 165.957 385.444 166.298 385.207C166.648 384.961 166.824 384.616 166.824 384.17V384.099C166.824 383.37 166.573 382.807 166.071 382.409C165.569 382.011 164.892 381.812 164.039 381.812C163.121 381.812 162.382 382.011 161.824 382.409C161.265 382.807 160.91 383.356 160.758 384.057L154.352 383.83C154.541 382.504 155.029 381.32 155.815 380.278C156.61 379.227 157.699 378.403 159.082 377.807C160.474 377.201 162.145 376.898 164.096 376.898C165.488 376.898 166.771 377.063 167.946 377.395C169.12 377.717 170.143 378.19 171.014 378.815C171.885 379.431 172.557 380.188 173.031 381.088C173.514 381.988 173.755 383.015 173.755 384.17V399H167.221V395.96H167.051C166.663 396.699 166.165 397.324 165.559 397.835C164.963 398.347 164.257 398.73 163.443 398.986C162.638 399.241 161.729 399.369 160.716 399.369ZM162.86 394.824C163.609 394.824 164.281 394.672 164.877 394.369C165.484 394.066 165.967 393.65 166.326 393.119C166.686 392.58 166.866 391.955 166.866 391.244V389.17C166.667 389.275 166.426 389.369 166.142 389.455C165.867 389.54 165.564 389.62 165.233 389.696C164.901 389.772 164.56 389.838 164.21 389.895C163.859 389.952 163.523 390.004 163.201 390.051C162.548 390.155 161.989 390.316 161.525 390.534C161.071 390.752 160.72 391.036 160.474 391.386C160.237 391.727 160.119 392.134 160.119 392.608C160.119 393.328 160.375 393.877 160.886 394.256C161.407 394.634 162.065 394.824 162.86 394.824ZM178.002 407.182V377.182H184.877V380.918H185.091C185.375 380.255 185.777 379.616 186.298 379C186.828 378.384 187.501 377.883 188.315 377.494C189.139 377.097 190.124 376.898 191.27 376.898C192.785 376.898 194.2 377.295 195.517 378.091C196.842 378.886 197.913 380.113 198.727 381.77C199.541 383.427 199.949 385.539 199.949 388.105C199.949 390.577 199.556 392.646 198.77 394.312C197.993 395.979 196.942 397.229 195.616 398.062C194.3 398.896 192.837 399.312 191.227 399.312C190.128 399.312 189.177 399.133 188.372 398.773C187.567 398.413 186.89 397.939 186.341 397.352C185.801 396.765 185.384 396.135 185.091 395.463H184.949V407.182H178.002ZM184.806 388.091C184.806 389.265 184.963 390.288 185.275 391.159C185.597 392.03 186.056 392.707 186.653 393.19C187.259 393.664 187.984 393.901 188.826 393.901C189.679 393.901 190.403 393.664 191 393.19C191.596 392.707 192.046 392.03 192.349 391.159C192.662 390.288 192.818 389.265 192.818 388.091C192.818 386.917 192.662 385.899 192.349 385.037C192.046 384.175 191.596 383.508 191 383.034C190.413 382.561 189.688 382.324 188.826 382.324C187.974 382.324 187.25 382.556 186.653 383.02C186.056 383.484 185.597 384.147 185.275 385.009C184.963 385.87 184.806 386.898 184.806 388.091ZM218.972 385.378V390.676H207.779V385.378H218.972ZM210.165 377.182V399H203.588V377.182H210.165ZM223.162 377.182V399H216.628V377.182H223.162ZM231.454 383.489H238.074C241.075 383.489 243.429 384.194 245.133 385.605C246.838 387.007 247.695 388.91 247.704 391.315C247.695 392.878 247.302 394.237 246.525 395.392C245.758 396.538 244.655 397.428 243.216 398.062C241.786 398.688 240.072 399 238.074 399H227.377V377.182H233.954V393.688H238.074C238.983 393.688 239.731 393.465 240.318 393.02C240.905 392.575 241.203 392.002 241.213 391.301C241.203 390.562 240.905 389.961 240.318 389.497C239.731 389.033 238.983 388.801 238.074 388.801H231.454V383.489ZM249.664 399V377.182H256.61V399H249.664ZM275.755 399.369C274.363 399.369 273.127 399.137 272.047 398.673C270.977 398.2 270.13 397.49 269.505 396.543C268.889 395.586 268.581 394.388 268.581 392.949C268.581 391.737 268.794 390.714 269.221 389.881C269.647 389.047 270.234 388.37 270.982 387.849C271.73 387.329 272.592 386.936 273.567 386.67C274.542 386.396 275.584 386.211 276.692 386.116C277.933 386.003 278.932 385.884 279.689 385.761C280.447 385.629 280.996 385.444 281.337 385.207C281.687 384.961 281.863 384.616 281.863 384.17V384.099C281.863 383.37 281.612 382.807 281.11 382.409C280.608 382.011 279.931 381.812 279.078 381.812C278.16 381.812 277.421 382.011 276.863 382.409C276.304 382.807 275.949 383.356 275.797 384.057L269.391 383.83C269.58 382.504 270.068 381.32 270.854 380.278C271.65 379.227 272.739 378.403 274.121 377.807C275.513 377.201 277.185 376.898 279.135 376.898C280.527 376.898 281.81 377.063 282.985 377.395C284.159 377.717 285.182 378.19 286.053 378.815C286.924 379.431 287.596 380.188 288.07 381.088C288.553 381.988 288.794 383.015 288.794 384.17V399H282.26V395.96H282.09C281.702 396.699 281.204 397.324 280.598 397.835C280.002 398.347 279.296 398.73 278.482 398.986C277.677 399.241 276.768 399.369 275.755 399.369ZM277.9 394.824C278.648 394.824 279.32 394.672 279.917 394.369C280.523 394.066 281.006 393.65 281.365 393.119C281.725 392.58 281.905 391.955 281.905 391.244V389.17C281.706 389.275 281.465 389.369 281.181 389.455C280.906 389.54 280.603 389.62 280.272 389.696C279.94 389.772 279.599 389.838 279.249 389.895C278.899 389.952 278.562 390.004 278.24 390.051C277.587 390.155 277.028 390.316 276.564 390.534C276.11 390.752 275.759 391.036 275.513 391.386C275.276 391.727 275.158 392.134 275.158 392.608C275.158 393.328 275.414 393.877 275.925 394.256C276.446 394.634 277.104 394.824 277.9 394.824ZM299.618 390.009L306.593 377.182H313.269V399H306.692V386.131L299.732 399H293.042V377.182H299.618V390.009ZM305.968 369.455H310.542C310.532 371.235 309.86 372.665 308.525 373.744C307.199 374.824 305.4 375.364 303.127 375.364C300.854 375.364 299.05 374.824 297.715 373.744C296.389 372.665 295.731 371.235 295.74 369.455H300.272C300.262 370.08 300.475 370.648 300.911 371.159C301.346 371.67 302.085 371.926 303.127 371.926C304.14 371.926 304.864 371.675 305.3 371.173C305.736 370.671 305.958 370.098 305.968 369.455ZM330.9 391.585L336.241 377.182H341.326L333.13 399H328.67L320.687 377.182H325.758L330.9 391.585ZM324.267 377.182V399H317.69V377.182H324.267ZM337.931 399V377.182H344.423V399H337.931ZM364.054 377.182V382.494H355.346V399H348.627V377.182H364.054ZM373.915 390.009L380.89 377.182H387.566V399H380.989V386.131L374.029 399H367.338V377.182H373.915V390.009ZM398.564 390.009L405.538 377.182H412.214V399H405.637V386.131L398.677 399H391.987V377.182H398.564V390.009ZM404.913 369.455H409.487C409.477 371.235 408.805 372.665 407.47 373.744C406.144 374.824 404.345 375.364 402.072 375.364C399.799 375.364 397.995 374.824 396.66 373.744C395.334 372.665 394.676 371.235 394.686 369.455H399.217C399.208 370.08 399.421 370.648 399.856 371.159C400.292 371.67 401.03 371.926 402.072 371.926C403.085 371.926 403.81 371.675 404.245 371.173C404.681 370.671 404.904 370.098 404.913 369.455ZM432.019 385.378V390.676H420.826V385.378H432.019ZM423.212 377.182V399H416.635V377.182H423.212ZM436.209 377.182V399H429.675V377.182H436.209ZM454.927 377.182L458.521 384.369L462.243 377.182H469.245L463.152 388.091L469.473 399H462.527L458.521 391.756L454.615 399H447.569L453.904 388.091L447.882 377.182H454.927ZM478.45 399.369C477.058 399.369 475.822 399.137 474.743 398.673C473.672 398.2 472.825 397.49 472.2 396.543C471.584 395.586 471.277 394.388 471.277 392.949C471.277 391.737 471.49 390.714 471.916 389.881C472.342 389.047 472.929 388.37 473.677 387.849C474.425 387.329 475.287 386.936 476.262 386.67C477.238 386.396 478.279 386.211 479.387 386.116C480.628 386.003 481.627 385.884 482.385 385.761C483.142 385.629 483.691 385.444 484.032 385.207C484.383 384.961 484.558 384.616 484.558 384.17V384.099C484.558 383.37 484.307 382.807 483.805 382.409C483.303 382.011 482.626 381.812 481.774 381.812C480.855 381.812 480.117 382.011 479.558 382.409C478.999 382.807 478.644 383.356 478.493 384.057L472.086 383.83C472.276 382.504 472.763 381.32 473.549 380.278C474.345 379.227 475.434 378.403 476.816 377.807C478.208 377.201 479.88 376.898 481.831 376.898C483.223 376.898 484.506 377.063 485.68 377.395C486.854 377.717 487.877 378.19 488.748 378.815C489.619 379.431 490.292 380.188 490.765 381.088C491.248 381.988 491.49 383.015 491.49 384.17V399H484.956V395.96H484.785C484.397 396.699 483.9 397.324 483.294 397.835C482.697 398.347 481.992 398.73 481.177 398.986C480.372 399.241 479.463 399.369 478.45 399.369ZM480.595 394.824C481.343 394.824 482.015 394.672 482.612 394.369C483.218 394.066 483.701 393.65 484.061 393.119C484.421 392.58 484.6 391.955 484.6 391.244V389.17C484.402 389.275 484.16 389.369 483.876 389.455C483.601 389.54 483.298 389.62 482.967 389.696C482.636 389.772 482.295 389.838 481.944 389.895C481.594 389.952 481.258 390.004 480.936 390.051C480.282 390.155 479.724 390.316 479.26 390.534C478.805 390.752 478.455 391.036 478.208 391.386C477.972 391.727 477.853 392.134 477.853 392.608C477.853 393.328 478.109 393.877 478.62 394.256C479.141 394.634 479.799 394.824 480.595 394.824ZM508.947 391.585L514.288 377.182H519.373L511.177 399H506.717L498.734 377.182H503.805L508.947 391.585ZM502.314 377.182V399H495.737V377.182H502.314ZM515.978 399V377.182H522.47V399H515.978ZM542.1 377.182V382.494H533.393V399H526.674V377.182H542.1ZM551.962 390.009L558.936 377.182H565.613V399H559.036V386.131L552.076 399H545.385V377.182H551.962V390.009ZM576.61 390.009L583.585 377.182H590.261V399H583.684V386.131L576.724 399H570.034V377.182H576.61V390.009ZM582.96 369.455H587.534C587.524 371.235 586.852 372.665 585.517 373.744C584.191 374.824 582.392 375.364 580.119 375.364C577.846 375.364 576.042 374.824 574.707 373.744C573.381 372.665 572.723 371.235 572.733 369.455H577.264C577.254 370.08 577.467 370.648 577.903 371.159C578.339 371.67 579.077 371.926 580.119 371.926C581.132 371.926 581.857 371.675 582.292 371.173C582.728 370.671 582.95 370.098 582.96 369.455ZM610.066 385.378V390.676H598.873V385.378H610.066ZM601.259 377.182V399H594.682V377.182H601.259ZM614.256 377.182V399H607.722V377.182H614.256ZM625.957 382.494V377.182H646.412V382.494H639.437V399H632.846V382.494H625.957ZM659.242 399.412C656.95 399.412 654.98 398.943 653.333 398.006C651.694 397.059 650.43 395.742 649.54 394.057C648.659 392.362 648.219 390.397 648.219 388.162C648.219 385.918 648.659 383.953 649.54 382.267C650.43 380.572 651.694 379.256 653.333 378.318C654.98 377.371 656.95 376.898 659.242 376.898C661.533 376.898 663.498 377.371 665.137 378.318C666.784 379.256 668.049 380.572 668.929 382.267C669.819 383.953 670.265 385.918 670.265 388.162C670.265 390.397 669.819 392.362 668.929 394.057C668.049 395.742 666.784 397.059 665.137 398.006C663.498 398.943 661.533 399.412 659.242 399.412ZM659.284 394.17C660.118 394.17 660.823 393.915 661.401 393.403C661.979 392.892 662.419 392.182 662.722 391.273C663.034 390.364 663.191 389.312 663.191 388.119C663.191 386.907 663.034 385.847 662.722 384.938C662.419 384.028 661.979 383.318 661.401 382.807C660.823 382.295 660.118 382.04 659.284 382.04C658.423 382.04 657.694 382.295 657.097 382.807C656.51 383.318 656.06 384.028 655.748 384.938C655.444 385.847 655.293 386.907 655.293 388.119C655.293 389.312 655.444 390.364 655.748 391.273C656.06 392.182 656.51 392.892 657.097 393.403C657.694 393.915 658.423 394.17 659.284 394.17ZM687.033 391.585L692.374 377.182H697.459L689.263 399H684.803L676.82 377.182H681.891L687.033 391.585ZM680.4 377.182V399H673.823V377.182H680.4ZM694.064 399V377.182H700.556V399H694.064ZM372.159 425.182V430.494H363.452V447H356.733V425.182H372.159ZM380.93 447.369C379.538 447.369 378.303 447.137 377.223 446.673C376.153 446.2 375.305 445.49 374.68 444.543C374.065 443.586 373.757 442.388 373.757 440.949C373.757 439.737 373.97 438.714 374.396 437.881C374.822 437.047 375.41 436.37 376.158 435.849C376.906 435.329 377.768 434.936 378.743 434.67C379.718 434.396 380.76 434.211 381.868 434.116C383.108 434.003 384.107 433.884 384.865 433.761C385.623 433.629 386.172 433.444 386.513 433.207C386.863 432.961 387.038 432.616 387.038 432.17V432.099C387.038 431.37 386.787 430.807 386.286 430.409C385.784 430.011 385.107 429.812 384.254 429.812C383.336 429.812 382.597 430.011 382.038 430.409C381.48 430.807 381.125 431.356 380.973 432.057L374.567 431.83C374.756 430.504 375.244 429.32 376.03 428.278C376.825 427.227 377.914 426.403 379.297 425.807C380.689 425.201 382.36 424.898 384.311 424.898C385.703 424.898 386.986 425.063 388.161 425.395C389.335 425.717 390.357 426.19 391.229 426.815C392.1 427.431 392.772 428.188 393.246 429.088C393.729 429.988 393.97 431.015 393.97 432.17V447H387.436V443.96H387.266C386.877 444.699 386.38 445.324 385.774 445.835C385.178 446.347 384.472 446.73 383.658 446.986C382.853 447.241 381.944 447.369 380.93 447.369ZM383.075 442.824C383.823 442.824 384.496 442.672 385.092 442.369C385.698 442.066 386.181 441.65 386.541 441.119C386.901 440.58 387.081 439.955 387.081 439.244V437.17C386.882 437.275 386.641 437.369 386.357 437.455C386.082 437.54 385.779 437.62 385.447 437.696C385.116 437.772 384.775 437.838 384.425 437.895C384.074 437.952 383.738 438.004 383.416 438.051C382.763 438.155 382.204 438.316 381.74 438.534C381.286 438.752 380.935 439.036 380.689 439.386C380.452 439.727 380.334 440.134 380.334 440.608C380.334 441.328 380.589 441.877 381.101 442.256C381.622 442.634 382.28 442.824 383.075 442.824ZM398.217 455.182V425.182H405.092V428.918H405.305C405.589 428.255 405.992 427.616 406.513 427C407.043 426.384 407.715 425.883 408.53 425.494C409.354 425.097 410.339 424.898 411.484 424.898C413 424.898 414.415 425.295 415.732 426.091C417.057 426.886 418.127 428.113 418.942 429.77C419.756 431.427 420.163 433.539 420.163 436.105C420.163 438.577 419.77 440.646 418.984 442.312C418.208 443.979 417.157 445.229 415.831 446.062C414.515 446.896 413.052 447.312 411.442 447.312C410.343 447.312 409.392 447.133 408.587 446.773C407.782 446.413 407.105 445.939 406.555 445.352C406.016 444.765 405.599 444.135 405.305 443.463H405.163V455.182H398.217ZM405.021 436.091C405.021 437.265 405.178 438.288 405.49 439.159C405.812 440.03 406.271 440.707 406.868 441.19C407.474 441.664 408.198 441.901 409.041 441.901C409.893 441.901 410.618 441.664 411.214 441.19C411.811 440.707 412.261 440.03 412.564 439.159C412.876 438.288 413.033 437.265 413.033 436.091C413.033 434.917 412.876 433.899 412.564 433.037C412.261 432.175 411.811 431.508 411.214 431.034C410.627 430.561 409.903 430.324 409.041 430.324C408.189 430.324 407.464 430.556 406.868 431.02C406.271 431.484 405.812 432.147 405.49 433.009C405.178 433.87 405.021 434.898 405.021 436.091ZM429.954 447.369C428.562 447.369 427.326 447.137 426.246 446.673C425.176 446.2 424.329 445.49 423.704 444.543C423.088 443.586 422.781 442.388 422.781 440.949C422.781 439.737 422.994 438.714 423.42 437.881C423.846 437.047 424.433 436.37 425.181 435.849C425.929 435.329 426.791 434.936 427.766 434.67C428.742 434.396 429.783 434.211 430.891 434.116C432.132 434.003 433.131 433.884 433.888 433.761C434.646 433.629 435.195 433.444 435.536 433.207C435.887 432.961 436.062 432.616 436.062 432.17V432.099C436.062 431.37 435.811 430.807 435.309 430.409C434.807 430.011 434.13 429.812 433.278 429.812C432.359 429.812 431.621 430.011 431.062 430.409C430.503 430.807 430.148 431.356 429.996 432.057L423.59 431.83C423.78 430.504 424.267 429.32 425.053 428.278C425.849 427.227 426.938 426.403 428.32 425.807C429.712 425.201 431.384 424.898 433.335 424.898C434.727 424.898 436.01 425.063 437.184 425.395C438.358 425.717 439.381 426.19 440.252 426.815C441.123 427.431 441.796 428.188 442.269 429.088C442.752 429.988 442.994 431.015 442.994 432.17V447H436.46V443.96H436.289C435.901 444.699 435.404 445.324 434.798 445.835C434.201 446.347 433.496 446.73 432.681 446.986C431.876 447.241 430.967 447.369 429.954 447.369ZM432.099 442.824C432.847 442.824 433.519 442.672 434.116 442.369C434.722 442.066 435.205 441.65 435.565 441.119C435.924 440.58 436.104 439.955 436.104 439.244V437.17C435.906 437.275 435.664 437.369 435.38 437.455C435.105 437.54 434.802 437.62 434.471 437.696C434.139 437.772 433.799 437.838 433.448 437.895C433.098 437.952 432.762 438.004 432.44 438.051C431.786 438.155 431.228 438.316 430.763 438.534C430.309 438.752 429.959 439.036 429.712 439.386C429.476 439.727 429.357 440.134 429.357 440.608C429.357 441.328 429.613 441.877 430.124 442.256C430.645 442.634 431.303 442.824 432.099 442.824ZM462.667 425.182V430.494H453.96V447H447.241V425.182H462.667ZM466.225 447.412C465.202 447.412 464.326 447.052 463.597 446.332C462.878 445.613 462.522 444.741 462.532 443.719C462.522 442.715 462.878 441.858 463.597 441.148C464.326 440.428 465.202 440.068 466.225 440.068C467.191 440.068 468.043 440.428 468.782 441.148C469.53 441.858 469.909 442.715 469.918 443.719C469.909 444.401 469.729 445.021 469.379 445.58C469.038 446.138 468.588 446.583 468.029 446.915C467.48 447.246 466.879 447.412 466.225 447.412Z" fill="white"/>
<circle cx="788.5" cy="79.5" r="55" fill="white" stroke="#FF6DFE" stroke-width="3"/>
<path d="M777.71 47.9091L787.773 68.0341L798.193 47.9091H817.801L800.739 78.4545L818.438 109H798.989L787.773 88.7159L776.835 109H757.108L774.847 78.4545L757.983 47.9091H777.71Z" fill="black" fill-opacity="0.96"/>
<defs>
<filter id="filter0_ddii_403_96" x="0" y="29" width="843" height="467" filterUnits="userSpaceOnUse" color-interpolation-filters="sRGB">
<feFlood flood-opacity="0" result="BackgroundImageFix"/>
<feColorMatrix in="SourceAlpha" type="matrix" values="0 0 0 0 0 0 0 0 0 0 0 0 0 0 0 0 0 0 127 0" result="hardAlpha"/>
<feMorphology radius="5" operator="dilate" in="SourceAlpha" result="effect1_dropShadow_403_96"/>
<feOffset dx="-10" dy="-10"/>
<feGaussianBlur stdDeviation="2.5"/>
<feComposite in2="hardAlpha" operator="out"/>
<feColorMatrix type="matrix" values="0 0 0 0 0.133333 0 0 0 0 0.0117647 0 0 0 0 0.396078 0 0 0 0.25 0"/>
<feBlend mode="normal" in2="BackgroundImageFix" result="effect1_dropShadow_403_96"/>
<feColorMatrix in="SourceAlpha" type="matrix" values="0 0 0 0 0 0 0 0 0 0 0 0 0 0 0 0 0 0 127 0" result="hardAlpha"/>
<feMorphology radius="5" operator="dilate" in="SourceAlpha" result="effect2_dropShadow_403_96"/>
<feOffset dx="10" dy="10"/>
<feGaussianBlur stdDeviation="2.5"/>
<feComposite in2="hardAlpha" operator="out"/>
<feColorMatrix type="matrix" values="0 0 0 0 0.133941 0 0 0 0 0.0133056 0 0 0 0 0.395808 0 0 0 0.25 0"/>
<feBlend mode="normal" in2="effect1_dropShadow_403_96" result="effect2_dropShadow_403_96"/>
<feBlend mode="normal" in="SourceGraphic" in2="effect2_dropShadow_403_96" result="shape"/>
<feColorMatrix in="SourceAlpha" type="matrix" values="0 0 0 0 0 0 0 0 0 0 0 0 0 0 0 0 0 0 127 0" result="hardAlpha"/>
<feMorphology radius="5" operator="erode" in="SourceAlpha" result="effect3_innerShadow_403_96"/>
<feOffset dx="-10" dy="-10"/>
<feGaussianBlur stdDeviation="2.5"/>
<feComposite in2="hardAlpha" operator="arithmetic" k2="-1" k3="1"/>
<feColorMatrix type="matrix" values="0 0 0 0 0.509804 0 0 0 0 0.337255 0 0 0 0 0.721569 0 0 0 0.16 0"/>
<feBlend mode="normal" in2="shape" result="effect3_innerShadow_403_96"/>
<feColorMatrix in="SourceAlpha" type="matrix" values="0 0 0 0 0 0 0 0 0 0 0 0 0 0 0 0 0 0 127 0" result="hardAlpha"/>
<feMorphology radius="5" operator="erode" in="SourceAlpha" result="effect4_innerShadow_403_96"/>
<feOffset dx="10" dy="10"/>
<feGaussianBlur stdDeviation="2.5"/>
<feComposite in2="hardAlpha" operator="arithmetic" k2="-1" k3="1"/>
<feColorMatrix type="matrix" values="0 0 0 0 0.505882 0 0 0 0 0.329412 0 0 0 0 0.72549 0 0 0 0.16 0"/>
<feBlend mode="normal" in2="effect3_innerShadow_403_96" result="effect4_innerShadow_403_96"/>
</filter>
</defs>
</svg>
