<svg width="834" height="484" viewBox="0 0 834 484" fill="none" xmlns="http://www.w3.org/2000/svg">
<g filter="url(#filter0_ddii_398_56)">
<rect x="20" y="20" width="794" height="444" rx="60" fill="#7E40D0" fill-opacity="0.5" shape-rendering="crispEdges"/>
<rect x="20.5" y="20.5" width="793" height="443" rx="59.5" stroke="#C53D41" shape-rendering="crispEdges"/>
</g>
<path d="M367.523 76V46.9091H385.08V50.0341H371.045V59.125H378.432C380.515 59.125 382.272 59.4659 383.702 60.1477C385.141 60.8295 386.23 61.7907 386.969 63.0312C387.717 64.2718 388.091 65.7348 388.091 67.4205C388.091 69.1061 387.717 70.5928 386.969 71.8807C386.23 73.1686 385.141 74.1771 383.702 74.9062C382.272 75.6354 380.515 76 378.432 76H367.523ZM371.045 72.9318H378.432C379.758 72.9318 380.88 72.6667 381.798 72.1364C382.726 71.5966 383.427 70.9053 383.901 70.0625C384.384 69.2102 384.625 68.3106 384.625 67.3636C384.625 65.9716 384.09 64.7737 383.02 63.7699C381.95 62.7566 380.42 62.25 378.432 62.25H371.045V72.9318ZM395.594 84.1818C395.026 84.1818 394.52 84.1345 394.075 84.0398C393.629 83.9545 393.322 83.8693 393.151 83.7841L394.004 80.8295C394.818 81.0379 395.538 81.1136 396.163 81.0568C396.788 81 397.342 80.7206 397.825 80.2188C398.317 79.7263 398.767 78.9261 399.174 77.8182L399.799 76.1136L391.731 54.1818H395.367L401.39 71.5682H401.617L407.64 54.1818H411.276L402.015 79.1818C401.598 80.3087 401.082 81.2415 400.467 81.9801C399.851 82.7282 399.136 83.2822 398.322 83.642C397.517 84.0019 396.608 84.1818 395.594 84.1818ZM411.536 82.25V72.875H413.354C413.799 72.411 414.182 71.9091 414.504 71.3693C414.826 70.8295 415.106 70.1903 415.342 69.4517C415.589 68.7036 415.797 67.7945 415.967 66.7244C416.138 65.6449 416.289 64.3428 416.422 62.8182L417.161 54.1818H431.024V72.875H434.376V82.25H431.024V76H414.888V82.25H411.536ZM417.161 72.875H427.672V57.3068H420.286L419.717 62.8182C419.481 65.1004 419.187 67.0937 418.837 68.7983C418.486 70.5028 417.928 71.8617 417.161 72.875ZM62.1818 98.0341V94.9091H84V98.0341H74.8523V124H71.3295V98.0341H62.1818ZM92.4339 124.511C91.0514 124.511 89.7966 124.251 88.6697 123.73C87.5429 123.2 86.648 122.438 85.9851 121.443C85.3222 120.439 84.9908 119.227 84.9908 117.807C84.9908 116.557 85.237 115.544 85.7294 114.767C86.2218 113.981 86.88 113.366 87.7038 112.92C88.5277 112.475 89.4368 112.144 90.4311 111.926C91.4349 111.699 92.4434 111.519 93.4567 111.386C94.7824 111.216 95.8572 111.088 96.6811 111.003C97.5144 110.908 98.1205 110.752 98.4993 110.534C98.8875 110.316 99.0817 109.937 99.0817 109.398V109.284C99.0817 107.883 98.6982 106.794 97.9311 106.017C97.1735 105.241 96.023 104.852 94.4794 104.852C92.879 104.852 91.6243 105.203 90.7152 105.903C89.8061 106.604 89.1669 107.352 88.7976 108.148L85.6158 107.011C86.1839 105.686 86.9415 104.653 87.8885 103.915C88.8449 103.167 89.8866 102.646 91.0135 102.352C92.1499 102.049 93.2673 101.898 94.3658 101.898C95.0665 101.898 95.8714 101.983 96.7805 102.153C97.6991 102.314 98.5845 102.651 99.4368 103.162C100.299 103.673 101.013 104.445 101.582 105.477C102.15 106.509 102.434 107.892 102.434 109.625V124H99.0817V121.045H98.9112C98.6839 121.519 98.3052 122.026 97.7749 122.565C97.2446 123.105 96.5391 123.564 95.6584 123.943C94.7777 124.322 93.7029 124.511 92.4339 124.511ZM92.9453 121.5C94.2711 121.5 95.3885 121.24 96.2976 120.719C97.2161 120.198 97.9074 119.526 98.3714 118.702C98.8449 117.878 99.0817 117.011 99.0817 116.102V113.034C98.9396 113.205 98.6271 113.361 98.1442 113.503C97.6707 113.635 97.1214 113.754 96.4964 113.858C95.8809 113.953 95.2796 114.038 94.6925 114.114C94.1148 114.18 93.6461 114.237 93.2862 114.284C92.415 114.398 91.6006 114.582 90.843 114.838C90.0949 115.084 89.4889 115.458 89.0249 115.96C88.5703 116.453 88.343 117.125 88.343 117.977C88.343 119.142 88.7739 120.023 89.6357 120.619C90.5069 121.206 91.6101 121.5 92.9453 121.5ZM105.584 105.307V102.182H123.311V105.307H116.152V124H112.8V105.307H105.584ZM133.489 124.511C132.106 124.511 130.851 124.251 129.724 123.73C128.598 123.2 127.703 122.438 127.04 121.443C126.377 120.439 126.045 119.227 126.045 117.807C126.045 116.557 126.292 115.544 126.784 114.767C127.277 113.981 127.935 113.366 128.759 112.92C129.582 112.475 130.491 112.144 131.486 111.926C132.49 111.699 133.498 111.519 134.511 111.386C135.837 111.216 136.912 111.088 137.736 111.003C138.569 110.908 139.175 110.752 139.554 110.534C139.942 110.316 140.136 109.937 140.136 109.398V109.284C140.136 107.883 139.753 106.794 138.986 106.017C138.228 105.241 137.078 104.852 135.534 104.852C133.934 104.852 132.679 105.203 131.77 105.903C130.861 106.604 130.222 107.352 129.852 108.148L126.67 107.011C127.239 105.686 127.996 104.653 128.943 103.915C129.9 103.167 130.941 102.646 132.068 102.352C133.205 102.049 134.322 101.898 135.42 101.898C136.121 101.898 136.926 101.983 137.835 102.153C138.754 102.314 139.639 102.651 140.491 103.162C141.353 103.673 142.068 104.445 142.636 105.477C143.205 106.509 143.489 107.892 143.489 109.625V124H140.136V121.045H139.966C139.739 121.519 139.36 122.026 138.83 122.565C138.299 123.105 137.594 123.564 136.713 123.943C135.832 124.322 134.758 124.511 133.489 124.511ZM134 121.5C135.326 121.5 136.443 121.24 137.352 120.719C138.271 120.198 138.962 119.526 139.426 118.702C139.9 117.878 140.136 117.011 140.136 116.102V113.034C139.994 113.205 139.682 113.361 139.199 113.503C138.725 113.635 138.176 113.754 137.551 113.858C136.936 113.953 136.334 114.038 135.747 114.114C135.17 114.18 134.701 114.237 134.341 114.284C133.47 114.398 132.655 114.582 131.898 114.838C131.15 115.084 130.544 115.458 130.08 115.96C129.625 116.453 129.398 117.125 129.398 117.977C129.398 119.142 129.829 120.023 130.69 120.619C131.562 121.206 132.665 121.5 134 121.5ZM152.107 102.182L157.335 111.102L162.562 102.182H166.425L159.38 113.091L166.425 124H162.562L157.335 115.534L152.107 124H148.244L155.175 113.091L148.244 102.182H152.107ZM184.959 102.182L190.186 111.102L195.413 102.182H199.277L192.232 113.091L199.277 124H195.413L190.186 115.534L184.959 124H181.095L188.027 113.091L181.095 102.182H184.959ZM202.356 102.182H205.992L211.731 118.773L217.356 102.182H220.992L213.379 123.545V132.182H210.026V123.545L202.356 102.182ZM241.582 102.182V124H238.229V102.182H241.582ZM240.275 112.58V115.705C239.517 115.989 238.764 116.24 238.016 116.457C237.268 116.666 236.482 116.831 235.658 116.955C234.835 117.068 233.93 117.125 232.945 117.125C230.474 117.125 228.49 116.457 226.994 115.122C225.507 113.787 224.763 111.784 224.763 109.114V102.125H228.116V109.114C228.116 110.231 228.329 111.15 228.755 111.869C229.181 112.589 229.759 113.124 230.488 113.474C231.217 113.825 232.036 114 232.945 114C234.366 114 235.649 113.872 236.795 113.616C237.95 113.351 239.11 113.006 240.275 112.58ZM362.675 120.278C361.975 120.278 361.373 120.027 360.871 119.526C360.37 119.024 360.119 118.422 360.119 117.722C360.119 117.021 360.37 116.42 360.871 115.918C361.373 115.416 361.975 115.165 362.675 115.165C363.376 115.165 363.978 115.416 364.479 115.918C364.981 116.42 365.232 117.021 365.232 117.722C365.232 118.186 365.114 118.612 364.877 119C364.65 119.388 364.342 119.701 363.954 119.938C363.575 120.165 363.149 120.278 362.675 120.278ZM362.675 105.562C361.975 105.562 361.373 105.312 360.871 104.81C360.37 104.308 360.119 103.706 360.119 103.006C360.119 102.305 360.37 101.704 360.871 101.202C361.373 100.7 361.975 100.449 362.675 100.449C363.376 100.449 363.978 100.7 364.479 101.202C364.981 101.704 365.232 102.305 365.232 103.006C365.232 103.47 365.114 103.896 364.877 104.284C364.65 104.672 364.342 104.985 363.954 105.222C363.575 105.449 363.149 105.562 362.675 105.562ZM392.271 124.398C390.396 124.398 388.724 124.076 387.256 123.432C385.798 122.788 384.638 121.893 383.776 120.747C382.924 119.592 382.46 118.252 382.384 116.727H385.964C386.04 117.665 386.362 118.474 386.93 119.156C387.498 119.829 388.241 120.349 389.16 120.719C390.078 121.088 391.096 121.273 392.214 121.273C393.464 121.273 394.572 121.055 395.538 120.619C396.504 120.184 397.261 119.578 397.81 118.801C398.36 118.025 398.634 117.125 398.634 116.102C398.634 115.032 398.369 114.09 397.839 113.276C397.308 112.452 396.532 111.808 395.509 111.344C394.487 110.88 393.237 110.648 391.759 110.648H389.43V107.523H391.759C392.915 107.523 393.928 107.314 394.799 106.898C395.68 106.481 396.366 105.894 396.859 105.136C397.361 104.379 397.612 103.489 397.612 102.466C397.612 101.481 397.394 100.624 396.958 99.8949C396.522 99.1657 395.907 98.5975 395.112 98.1903C394.326 97.7831 393.397 97.5795 392.327 97.5795C391.324 97.5795 390.377 97.7642 389.487 98.1335C388.606 98.4934 387.886 99.0189 387.327 99.7102C386.769 100.392 386.466 101.216 386.418 102.182H383.009C383.066 100.657 383.525 99.322 384.387 98.1761C385.249 97.0208 386.376 96.1212 387.768 95.4773C389.169 94.8333 390.708 94.5114 392.384 94.5114C394.183 94.5114 395.727 94.8759 397.015 95.6051C398.303 96.3248 399.292 97.2765 399.984 98.4602C400.675 99.6439 401.021 100.922 401.021 102.295C401.021 103.934 400.59 105.33 399.728 106.486C398.876 107.641 397.716 108.441 396.248 108.886V109.114C398.085 109.417 399.52 110.198 400.552 111.457C401.584 112.707 402.1 114.256 402.1 116.102C402.1 117.684 401.669 119.104 400.808 120.364C399.955 121.614 398.79 122.598 397.313 123.318C395.836 124.038 394.155 124.398 392.271 124.398ZM409.511 124.227C408.811 124.227 408.209 123.976 407.707 123.474C407.205 122.973 406.955 122.371 406.955 121.67C406.955 120.97 407.205 120.368 407.707 119.866C408.209 119.365 408.811 119.114 409.511 119.114C410.212 119.114 410.813 119.365 411.315 119.866C411.817 120.368 412.068 120.97 412.068 121.67C412.068 122.134 411.95 122.561 411.713 122.949C411.486 123.337 411.178 123.65 410.79 123.886C410.411 124.114 409.985 124.227 409.511 124.227ZM418.35 124L431.362 98.2614V98.0341H416.362V94.9091H434.998V98.2045L422.043 124H418.35ZM463.531 119.455L471.145 102.182H474.327L464.895 124H462.168L452.906 102.182H456.031L463.531 119.455ZM454.952 102.182V124H451.599V102.182H454.952ZM472.111 124V102.182H475.463V124H472.111ZM491.884 93.5455L482.509 128.375H479.44L488.815 93.5455H491.884ZM504.721 124.455C502.675 124.455 500.914 123.972 499.437 123.006C497.96 122.04 496.823 120.709 496.028 119.014C495.232 117.319 494.835 115.383 494.835 113.205C494.835 110.989 495.242 109.033 496.056 107.338C496.88 105.634 498.026 104.303 499.494 103.347C500.971 102.381 502.694 101.898 504.664 101.898C506.198 101.898 507.581 102.182 508.812 102.75C510.043 103.318 511.051 104.114 511.837 105.136C512.623 106.159 513.111 107.352 513.3 108.716H509.948C509.692 107.722 509.124 106.841 508.244 106.074C507.372 105.297 506.198 104.909 504.721 104.909C503.414 104.909 502.268 105.25 501.283 105.932C500.308 106.604 499.546 107.556 498.996 108.787C498.457 110.009 498.187 111.443 498.187 113.091C498.187 114.777 498.452 116.244 498.982 117.494C499.522 118.744 500.28 119.715 501.255 120.406C502.24 121.098 503.395 121.443 504.721 121.443C505.592 121.443 506.383 121.292 507.093 120.989C507.803 120.686 508.405 120.25 508.897 119.682C509.389 119.114 509.74 118.432 509.948 117.636H513.3C513.111 118.924 512.642 120.084 511.894 121.116C511.156 122.139 510.175 122.954 508.954 123.56C507.742 124.156 506.331 124.455 504.721 124.455ZM517.121 109.455V107.239L523.769 101.33C524.432 100.742 524.986 100.217 525.431 99.7528C525.876 99.2888 526.212 98.839 526.44 98.4034C526.667 97.9678 526.781 97.5038 526.781 97.0114C526.781 96.1591 526.454 95.482 525.8 94.9801C525.147 94.4782 524.337 94.2273 523.371 94.2273C522.349 94.2273 521.525 94.5019 520.9 95.0511C520.275 95.5909 519.962 96.3011 519.962 97.1818H517.008C517.008 95.5625 517.609 94.2604 518.812 93.2756C520.014 92.2812 521.553 91.7841 523.428 91.7841C524.678 91.7841 525.777 92.0114 526.724 92.4659C527.671 92.911 528.409 93.5265 528.94 94.3125C529.47 95.089 529.735 95.9697 529.735 96.9545C529.735 97.7311 529.579 98.4508 529.266 99.1136C528.954 99.7765 528.466 100.463 527.803 101.173C527.14 101.884 526.288 102.693 525.246 103.602L521.553 106.841V106.955H530.246V109.455H517.121ZM62.1818 146.034V142.909H84V146.034H74.8523V172H71.3295V146.034H62.1818ZM94.9659 172.455C92.8636 172.455 91.0502 171.991 89.5256 171.062C88.0104 170.125 86.8409 168.818 86.017 167.142C85.2027 165.456 84.7955 163.496 84.7955 161.261C84.7955 159.027 85.2027 157.057 86.017 155.352C86.8409 153.638 87.9867 152.303 89.4545 151.347C90.9318 150.381 92.6553 149.898 94.625 149.898C95.7614 149.898 96.8835 150.087 97.9915 150.466C99.0994 150.845 100.108 151.46 101.017 152.312C101.926 153.155 102.651 154.273 103.19 155.665C103.73 157.057 104 158.771 104 160.807V162.227H87.1818V159.33H100.591C100.591 158.098 100.345 157 99.8523 156.034C99.3693 155.068 98.678 154.306 97.7784 153.747C96.8883 153.188 95.8371 152.909 94.625 152.909C93.2898 152.909 92.1345 153.241 91.1591 153.903C90.1932 154.557 89.4498 155.409 88.929 156.46C88.4081 157.511 88.1477 158.638 88.1477 159.841V161.773C88.1477 163.42 88.4318 164.817 89 165.963C89.5777 167.099 90.3778 167.966 91.4006 168.562C92.4233 169.15 93.6117 169.443 94.9659 169.443C95.8466 169.443 96.642 169.32 97.3523 169.074C98.072 168.818 98.6922 168.439 99.2131 167.938C99.7339 167.426 100.136 166.792 100.42 166.034L103.659 166.943C103.318 168.042 102.745 169.008 101.94 169.841C101.135 170.665 100.141 171.309 98.9574 171.773C97.7737 172.227 96.4432 172.455 94.9659 172.455ZM121.031 167.455L128.645 150.182H131.827L122.395 172H119.668L110.406 150.182H113.531L121.031 167.455ZM112.452 150.182V172H109.099V150.182H112.452ZM129.611 172V150.182H132.963V172H129.611ZM139.099 172V150.182H156.259V172H152.906V153.307H142.452V172H139.099ZM171.528 172.455C169.426 172.455 167.613 171.991 166.088 171.062C164.573 170.125 163.403 168.818 162.58 167.142C161.765 165.456 161.358 163.496 161.358 161.261C161.358 159.027 161.765 157.057 162.58 155.352C163.403 153.638 164.549 152.303 166.017 151.347C167.494 150.381 169.218 149.898 171.188 149.898C172.324 149.898 173.446 150.087 174.554 150.466C175.662 150.845 176.67 151.46 177.58 152.312C178.489 153.155 179.213 154.273 179.753 155.665C180.293 157.057 180.562 158.771 180.562 160.807V162.227H163.744V159.33H177.153C177.153 158.098 176.907 157 176.415 156.034C175.932 155.068 175.241 154.306 174.341 153.747C173.451 153.188 172.4 152.909 171.188 152.909C169.852 152.909 168.697 153.241 167.722 153.903C166.756 154.557 166.012 155.409 165.491 156.46C164.971 157.511 164.71 158.638 164.71 159.841V161.773C164.71 163.42 164.994 164.817 165.562 165.963C166.14 167.099 166.94 167.966 167.963 168.562C168.986 169.15 170.174 169.443 171.528 169.443C172.409 169.443 173.205 169.32 173.915 169.074C174.634 168.818 175.255 168.439 175.776 167.938C176.296 167.426 176.699 166.792 176.983 166.034L180.222 166.943C179.881 168.042 179.308 169.008 178.503 169.841C177.698 170.665 176.704 171.309 175.52 171.773C174.336 172.227 173.006 172.455 171.528 172.455ZM185.662 180.182V150.182H188.901V153.648H189.298C189.545 153.269 189.885 152.786 190.321 152.199C190.766 151.602 191.401 151.072 192.224 150.608C193.058 150.134 194.185 149.898 195.605 149.898C197.442 149.898 199.062 150.357 200.463 151.276C201.865 152.194 202.958 153.496 203.744 155.182C204.53 156.867 204.923 158.856 204.923 161.148C204.923 163.458 204.53 165.461 203.744 167.156C202.958 168.842 201.869 170.149 200.477 171.077C199.085 171.995 197.48 172.455 195.662 172.455C194.26 172.455 193.138 172.223 192.295 171.759C191.453 171.285 190.804 170.75 190.349 170.153C189.895 169.547 189.545 169.045 189.298 168.648H189.014V180.182H185.662ZM188.957 161.091C188.957 162.739 189.199 164.192 189.682 165.452C190.165 166.702 190.87 167.682 191.798 168.392C192.726 169.093 193.863 169.443 195.207 169.443C196.609 169.443 197.778 169.074 198.716 168.335C199.663 167.587 200.373 166.583 200.847 165.324C201.33 164.055 201.571 162.644 201.571 161.091C201.571 159.557 201.334 158.174 200.861 156.943C200.397 155.703 199.691 154.723 198.744 154.003C197.807 153.274 196.628 152.909 195.207 152.909C193.844 152.909 192.698 153.255 191.77 153.946C190.842 154.628 190.141 155.584 189.668 156.815C189.194 158.037 188.957 159.462 188.957 161.091ZM216.457 172.511C215.075 172.511 213.82 172.251 212.693 171.73C211.566 171.2 210.671 170.438 210.009 169.443C209.346 168.439 209.014 167.227 209.014 165.807C209.014 164.557 209.26 163.544 209.753 162.767C210.245 161.981 210.903 161.366 211.727 160.92C212.551 160.475 213.46 160.144 214.455 159.926C215.458 159.699 216.467 159.519 217.48 159.386C218.806 159.216 219.881 159.088 220.705 159.003C221.538 158.908 222.144 158.752 222.523 158.534C222.911 158.316 223.105 157.937 223.105 157.398V157.284C223.105 155.883 222.722 154.794 221.955 154.017C221.197 153.241 220.046 152.852 218.503 152.852C216.902 152.852 215.648 153.203 214.739 153.903C213.83 154.604 213.19 155.352 212.821 156.148L209.639 155.011C210.207 153.686 210.965 152.653 211.912 151.915C212.868 151.167 213.91 150.646 215.037 150.352C216.173 150.049 217.291 149.898 218.389 149.898C219.09 149.898 219.895 149.983 220.804 150.153C221.723 150.314 222.608 150.651 223.46 151.162C224.322 151.673 225.037 152.445 225.605 153.477C226.173 154.509 226.457 155.892 226.457 157.625V172H223.105V169.045H222.935C222.707 169.519 222.329 170.026 221.798 170.565C221.268 171.105 220.563 171.564 219.682 171.943C218.801 172.322 217.726 172.511 216.457 172.511ZM216.969 169.5C218.295 169.5 219.412 169.24 220.321 168.719C221.24 168.198 221.931 167.526 222.395 166.702C222.868 165.878 223.105 165.011 223.105 164.102V161.034C222.963 161.205 222.651 161.361 222.168 161.503C221.694 161.635 221.145 161.754 220.52 161.858C219.904 161.953 219.303 162.038 218.716 162.114C218.138 162.18 217.67 162.237 217.31 162.284C216.438 162.398 215.624 162.582 214.866 162.838C214.118 163.084 213.512 163.458 213.048 163.96C212.594 164.453 212.366 165.125 212.366 165.977C212.366 167.142 212.797 168.023 213.659 168.619C214.53 169.206 215.634 169.5 216.969 169.5ZM229.607 153.307V150.182H247.335V153.307H240.175V172H236.823V153.307H229.607ZM254.384 180.182C253.815 180.182 253.309 180.134 252.864 180.04C252.419 179.955 252.111 179.869 251.94 179.784L252.793 176.83C253.607 177.038 254.327 177.114 254.952 177.057C255.577 177 256.131 176.721 256.614 176.219C257.106 175.726 257.556 174.926 257.963 173.818L258.588 172.114L250.52 150.182H254.156L260.179 167.568H260.406L266.429 150.182H270.065L260.804 175.182C260.387 176.309 259.871 177.241 259.256 177.98C258.64 178.728 257.925 179.282 257.111 179.642C256.306 180.002 255.397 180.182 254.384 180.182ZM274.49 180.182V150.182H277.729V153.648H278.126C278.373 153.269 278.714 152.786 279.149 152.199C279.594 151.602 280.229 151.072 281.053 150.608C281.886 150.134 283.013 149.898 284.433 149.898C286.27 149.898 287.89 150.357 289.291 151.276C290.693 152.194 291.786 153.496 292.572 155.182C293.358 156.867 293.751 158.856 293.751 161.148C293.751 163.458 293.358 165.461 292.572 167.156C291.786 168.842 290.697 170.149 289.305 171.077C287.913 171.995 286.308 172.455 284.49 172.455C283.089 172.455 281.966 172.223 281.124 171.759C280.281 171.285 279.632 170.75 279.178 170.153C278.723 169.547 278.373 169.045 278.126 168.648H277.842V180.182H274.49ZM277.786 161.091C277.786 162.739 278.027 164.192 278.51 165.452C278.993 166.702 279.698 167.682 280.626 168.392C281.554 169.093 282.691 169.443 284.036 169.443C285.437 169.443 286.607 169.074 287.544 168.335C288.491 167.587 289.201 166.583 289.675 165.324C290.158 164.055 290.399 162.644 290.399 161.091C290.399 159.557 290.162 158.174 289.689 156.943C289.225 155.703 288.519 154.723 287.572 154.003C286.635 153.274 285.456 152.909 284.036 152.909C282.672 152.909 281.526 153.255 280.598 153.946C279.67 154.628 278.969 155.584 278.496 156.815C278.022 158.037 277.786 159.462 277.786 161.091ZM368.808 172.227C368.107 172.227 367.506 171.976 367.004 171.474C366.502 170.973 366.251 170.371 366.251 169.67C366.251 168.97 366.502 168.368 367.004 167.866C367.506 167.365 368.107 167.114 368.808 167.114C369.509 167.114 370.11 167.365 370.612 167.866C371.114 168.368 371.365 168.97 371.365 169.67C371.365 170.134 371.247 170.561 371.01 170.949C370.783 171.337 370.475 171.65 370.087 171.886C369.708 172.114 369.282 172.227 368.808 172.227ZM368.808 156.034C368.107 156.034 367.506 155.783 367.004 155.281C366.502 154.779 366.251 154.178 366.251 153.477C366.251 152.777 366.502 152.175 367.004 151.673C367.506 151.171 368.107 150.92 368.808 150.92C369.509 150.92 370.11 151.171 370.612 151.673C371.114 152.175 371.365 152.777 371.365 153.477C371.365 153.941 371.247 154.367 371.01 154.756C370.783 155.144 370.475 155.456 370.087 155.693C369.708 155.92 369.282 156.034 368.808 156.034ZM401.131 155.892V159.017H388.403V155.892H401.131ZM417.2 142.909V172H413.677V146.602H413.506L406.404 151.318V147.739L413.677 142.909H417.2ZM426.475 172L439.487 146.261V146.034H424.487V142.909H443.123V146.205L430.168 172H426.475ZM457.583 172.398C455.708 172.398 454.037 172.076 452.569 171.432C451.111 170.788 449.951 169.893 449.089 168.747C448.237 167.592 447.772 166.252 447.697 164.727H451.276C451.352 165.665 451.674 166.474 452.242 167.156C452.81 167.829 453.554 168.349 454.472 168.719C455.391 169.088 456.409 169.273 457.526 169.273C458.776 169.273 459.884 169.055 460.85 168.619C461.816 168.184 462.574 167.578 463.123 166.801C463.672 166.025 463.947 165.125 463.947 164.102C463.947 163.032 463.682 162.09 463.151 161.276C462.621 160.452 461.844 159.808 460.822 159.344C459.799 158.88 458.549 158.648 457.072 158.648H454.742V155.523H457.072C458.227 155.523 459.24 155.314 460.112 154.898C460.992 154.481 461.679 153.894 462.171 153.136C462.673 152.379 462.924 151.489 462.924 150.466C462.924 149.481 462.706 148.624 462.271 147.895C461.835 147.166 461.219 146.598 460.424 146.19C459.638 145.783 458.71 145.58 457.64 145.58C456.636 145.58 455.689 145.764 454.799 146.134C453.918 146.493 453.199 147.019 452.64 147.71C452.081 148.392 451.778 149.216 451.731 150.182H448.322C448.379 148.657 448.838 147.322 449.7 146.176C450.561 145.021 451.688 144.121 453.08 143.477C454.482 142.833 456.021 142.511 457.697 142.511C459.496 142.511 461.04 142.876 462.327 143.605C463.615 144.325 464.605 145.277 465.296 146.46C465.987 147.644 466.333 148.922 466.333 150.295C466.333 151.934 465.902 153.33 465.04 154.486C464.188 155.641 463.028 156.441 461.56 156.886V157.114C463.397 157.417 464.832 158.198 465.864 159.457C466.897 160.707 467.413 162.256 467.413 164.102C467.413 165.684 466.982 167.104 466.12 168.364C465.268 169.614 464.103 170.598 462.626 171.318C461.148 172.038 459.468 172.398 457.583 172.398ZM502.967 170.182L500.779 168.023L509.785 159.017H486.461V155.892H509.785L500.779 146.915L502.967 144.727L515.694 157.455L502.967 170.182ZM542.466 166.886V148.136H545.648V166.886H542.466ZM534.682 159.102V155.92H553.432V159.102H534.682ZM559.572 166.034V163.136L572.356 142.909H574.458V147.398H573.038L563.379 162.682V162.909H580.594V166.034H559.572ZM573.265 172V165.153V163.804V142.909H576.617V172H573.265ZM585.918 172V169.443L595.52 158.932C596.647 157.701 597.575 156.631 598.304 155.722C599.033 154.803 599.573 153.941 599.923 153.136C600.283 152.322 600.463 151.47 600.463 150.58C600.463 149.557 600.217 148.671 599.724 147.923C599.241 147.175 598.579 146.598 597.736 146.19C596.893 145.783 595.946 145.58 594.895 145.58C593.777 145.58 592.802 145.812 591.969 146.276C591.145 146.73 590.506 147.369 590.051 148.193C589.606 149.017 589.384 149.983 589.384 151.091H586.031C586.031 149.386 586.424 147.89 587.21 146.602C587.996 145.314 589.066 144.311 590.42 143.591C591.784 142.871 593.313 142.511 595.009 142.511C596.713 142.511 598.223 142.871 599.54 143.591C600.856 144.311 601.888 145.281 602.636 146.503C603.384 147.724 603.759 149.083 603.759 150.58C603.759 151.65 603.564 152.696 603.176 153.719C602.797 154.732 602.134 155.864 601.188 157.114C600.25 158.354 598.948 159.869 597.281 161.659L590.747 168.648V168.875H604.27V172H585.918ZM611.045 172L624.057 146.261V146.034H609.057V142.909H627.693V146.205L614.739 172H611.045ZM650.317 155.75C649.115 155.75 648.016 155.456 647.022 154.869C646.037 154.282 645.251 153.496 644.664 152.511C644.077 151.517 643.783 150.419 643.783 149.216C643.783 148.013 644.077 146.92 644.664 145.935C645.251 144.94 646.037 144.15 647.022 143.562C648.016 142.975 649.115 142.682 650.317 142.682C651.52 142.682 652.614 142.975 653.599 143.562C654.593 144.15 655.384 144.94 655.971 145.935C656.558 146.92 656.852 148.013 656.852 149.216C656.852 150.419 656.558 151.517 655.971 152.511C655.384 153.496 654.593 154.282 653.599 154.869C652.614 155.456 651.52 155.75 650.317 155.75ZM650.317 152.909C650.999 152.909 651.62 152.743 652.178 152.412C652.737 152.08 653.182 151.635 653.513 151.077C653.845 150.518 654.011 149.898 654.011 149.216C654.011 148.534 653.845 147.914 653.513 147.355C653.182 146.796 652.737 146.351 652.178 146.02C651.62 145.688 650.999 145.523 650.317 145.523C649.636 145.523 649.015 145.688 648.457 146.02C647.898 146.351 647.453 146.796 647.121 147.355C646.79 147.914 646.624 148.534 646.624 149.216C646.624 149.898 646.79 150.518 647.121 151.077C647.453 151.635 647.898 152.08 648.457 152.412C649.015 152.743 649.636 152.909 650.317 152.909ZM686.322 152H682.8C682.591 150.987 682.227 150.097 681.706 149.33C681.195 148.562 680.57 147.919 679.831 147.398C679.102 146.867 678.292 146.47 677.402 146.205C676.512 145.939 675.584 145.807 674.618 145.807C672.857 145.807 671.261 146.252 669.831 147.142C668.411 148.032 667.279 149.344 666.436 151.077C665.603 152.81 665.186 154.936 665.186 157.455C665.186 159.973 665.603 162.099 666.436 163.832C667.279 165.565 668.411 166.877 669.831 167.767C671.261 168.657 672.857 169.102 674.618 169.102C675.584 169.102 676.512 168.97 677.402 168.705C678.292 168.439 679.102 168.046 679.831 167.526C680.57 166.995 681.195 166.347 681.706 165.58C682.227 164.803 682.591 163.913 682.8 162.909H686.322C686.057 164.396 685.574 165.726 684.874 166.901C684.173 168.075 683.302 169.074 682.26 169.898C681.218 170.712 680.049 171.332 678.751 171.759C677.464 172.185 676.086 172.398 674.618 172.398C672.137 172.398 669.93 171.792 667.999 170.58C666.067 169.367 664.547 167.644 663.439 165.409C662.331 163.174 661.777 160.523 661.777 157.455C661.777 154.386 662.331 151.735 663.439 149.5C664.547 147.265 666.067 145.542 667.999 144.33C669.93 143.117 672.137 142.511 674.618 142.511C676.086 142.511 677.464 142.724 678.751 143.151C680.049 143.577 681.218 144.202 682.26 145.026C683.302 145.84 684.173 146.834 684.874 148.009C685.574 149.173 686.057 150.504 686.322 152ZM61.2727 227.045V216.875H63.1477C63.7917 216.288 64.3977 215.459 64.9659 214.389C65.5436 213.31 66.0312 211.87 66.429 210.071C66.8362 208.262 67.1061 205.966 67.2386 203.182L67.8636 190.909H85.1364V216.875H88.4886V226.989H85.1364V220H64.625V227.045H61.2727ZM67.3523 216.875H81.7841V194.034H71.0455L70.5909 203.182C70.4773 205.303 70.2784 207.225 69.9943 208.949C69.7102 210.663 69.3456 212.183 68.9006 213.509C68.4555 214.825 67.9394 215.947 67.3523 216.875ZM99.7777 220.511C98.3951 220.511 97.1404 220.251 96.0135 219.73C94.8866 219.2 93.9917 218.438 93.3288 217.443C92.666 216.439 92.3345 215.227 92.3345 213.807C92.3345 212.557 92.5807 211.544 93.0732 210.767C93.5656 209.981 94.2237 209.366 95.0476 208.92C95.8714 208.475 96.7805 208.144 97.7749 207.926C98.7786 207.699 99.7872 207.519 100.8 207.386C102.126 207.216 103.201 207.088 104.025 207.003C104.858 206.908 105.464 206.752 105.843 206.534C106.231 206.316 106.425 205.937 106.425 205.398V205.284C106.425 203.883 106.042 202.794 105.275 202.017C104.517 201.241 103.367 200.852 101.823 200.852C100.223 200.852 98.968 201.203 98.0589 201.903C97.1499 202.604 96.5107 203.352 96.1413 204.148L92.9595 203.011C93.5277 201.686 94.2853 200.653 95.2322 199.915C96.1887 199.167 97.2304 198.646 98.3572 198.352C99.4936 198.049 100.611 197.898 101.71 197.898C102.41 197.898 103.215 197.983 104.124 198.153C105.043 198.314 105.928 198.651 106.781 199.162C107.642 199.673 108.357 200.445 108.925 201.477C109.494 202.509 109.778 203.892 109.778 205.625V220H106.425V217.045H106.255C106.028 217.519 105.649 218.026 105.119 218.565C104.588 219.105 103.883 219.564 103.002 219.943C102.121 220.322 101.047 220.511 99.7777 220.511ZM100.289 217.5C101.615 217.5 102.732 217.24 103.641 216.719C104.56 216.198 105.251 215.526 105.715 214.702C106.189 213.878 106.425 213.011 106.425 212.102V209.034C106.283 209.205 105.971 209.361 105.488 209.503C105.014 209.635 104.465 209.754 103.84 209.858C103.225 209.953 102.623 210.038 102.036 210.114C101.459 210.18 100.99 210.237 100.63 210.284C99.7588 210.398 98.9444 210.582 98.1868 210.838C97.4387 211.084 96.8326 211.458 96.3686 211.96C95.9141 212.453 95.6868 213.125 95.6868 213.977C95.6868 215.142 96.1177 216.023 96.9794 216.619C97.8506 217.206 98.9538 217.5 100.289 217.5ZM129.362 198.182V201.307H119.249V220H115.896V198.182H129.362ZM136.415 228.182C135.847 228.182 135.34 228.134 134.895 228.04C134.45 227.955 134.142 227.869 133.972 227.784L134.824 224.83C135.638 225.038 136.358 225.114 136.983 225.057C137.608 225 138.162 224.721 138.645 224.219C139.137 223.726 139.587 222.926 139.994 221.818L140.619 220.114L132.551 198.182H136.188L142.21 215.568H142.438L148.46 198.182H152.097L142.835 223.182C142.419 224.309 141.902 225.241 141.287 225.98C140.671 226.728 139.956 227.282 139.142 227.642C138.337 228.002 137.428 228.182 136.415 228.182ZM158.68 228.182C158.112 228.182 157.606 228.134 157.161 228.04C156.715 227.955 156.408 227.869 156.237 227.784L157.089 224.83C157.904 225.038 158.624 225.114 159.249 225.057C159.874 225 160.428 224.721 160.911 224.219C161.403 223.726 161.853 222.926 162.26 221.818L162.885 220.114L154.817 198.182H158.453L164.476 215.568H164.703L170.726 198.182H174.362L165.101 223.182C164.684 224.309 164.168 225.241 163.553 225.98C162.937 226.728 162.222 227.282 161.408 227.642C160.603 228.002 159.694 228.182 158.68 228.182ZM175.019 220V216.875H175.815C176.468 216.875 177.013 216.747 177.448 216.491C177.884 216.226 178.234 215.767 178.499 215.114C178.774 214.451 178.982 213.532 179.124 212.358C179.276 211.174 179.385 209.669 179.451 207.841L179.849 198.182H194.394V220H191.042V201.307H183.031L182.69 209.091C182.614 210.881 182.453 212.457 182.207 213.821C181.97 215.175 181.605 216.312 181.113 217.23C180.63 218.149 179.986 218.84 179.181 219.304C178.376 219.768 177.368 220 176.156 220H175.019ZM203.442 206.08H209.692C212.249 206.08 214.205 206.728 215.559 208.026C216.913 209.323 217.59 210.966 217.59 212.955C217.59 214.261 217.287 215.45 216.681 216.52C216.075 217.58 215.185 218.428 214.011 219.062C212.836 219.688 211.397 220 209.692 220H200.545V198.182H203.897V216.875H209.692C211.018 216.875 212.107 216.525 212.96 215.824C213.812 215.123 214.238 214.223 214.238 213.125C214.238 211.97 213.812 211.027 212.96 210.298C212.107 209.569 211.018 209.205 209.692 209.205H203.442V206.08ZM221.056 220V198.182H224.408V220H221.056ZM245.147 207.557V210.682H233.102V207.557H245.147ZM233.897 198.182V220H230.545V198.182H233.897ZM247.704 198.182V220H244.352V198.182H247.704ZM263.826 201.307V198.182H281.553V201.307H274.394V220H271.042V201.307H263.826ZM294.174 220.455C292.204 220.455 290.476 219.986 288.989 219.048C287.512 218.111 286.357 216.799 285.523 215.114C284.7 213.428 284.288 211.458 284.288 209.205C284.288 206.932 284.7 204.948 285.523 203.253C286.357 201.558 287.512 200.241 288.989 199.304C290.476 198.366 292.204 197.898 294.174 197.898C296.144 197.898 297.867 198.366 299.344 199.304C300.831 200.241 301.987 201.558 302.81 203.253C303.644 204.948 304.06 206.932 304.06 209.205C304.06 211.458 303.644 213.428 302.81 215.114C301.987 216.799 300.831 218.111 299.344 219.048C297.867 219.986 296.144 220.455 294.174 220.455ZM294.174 217.443C295.67 217.443 296.901 217.06 297.867 216.293C298.833 215.526 299.548 214.517 300.012 213.267C300.476 212.017 300.708 210.663 300.708 209.205C300.708 207.746 300.476 206.387 300.012 205.128C299.548 203.868 298.833 202.85 297.867 202.074C296.901 201.297 295.67 200.909 294.174 200.909C292.678 200.909 291.447 201.297 290.481 202.074C289.515 202.85 288.8 203.868 288.336 205.128C287.872 206.387 287.64 207.746 287.64 209.205C287.64 210.663 287.872 212.017 288.336 213.267C288.8 214.517 289.515 215.526 290.481 216.293C291.447 217.06 292.678 217.443 294.174 217.443ZM318.041 220.455C316.071 220.455 314.343 219.986 312.857 219.048C311.379 218.111 310.224 216.799 309.391 215.114C308.567 213.428 308.155 211.458 308.155 209.205C308.155 206.932 308.567 204.948 309.391 203.253C310.224 201.558 311.379 200.241 312.857 199.304C314.343 198.366 316.071 197.898 318.041 197.898C320.011 197.898 321.734 198.366 323.212 199.304C324.698 200.241 325.854 201.558 326.678 203.253C327.511 204.948 327.928 206.932 327.928 209.205C327.928 211.458 327.511 213.428 326.678 215.114C325.854 216.799 324.698 218.111 323.212 219.048C321.734 219.986 320.011 220.455 318.041 220.455ZM318.041 217.443C319.537 217.443 320.768 217.06 321.734 216.293C322.7 215.526 323.415 214.517 323.879 213.267C324.343 212.017 324.575 210.663 324.575 209.205C324.575 207.746 324.343 206.387 323.879 205.128C323.415 203.868 322.7 202.85 321.734 202.074C320.768 201.297 319.537 200.909 318.041 200.909C316.545 200.909 315.314 201.297 314.348 202.074C313.382 202.85 312.667 203.868 312.203 205.128C311.739 206.387 311.507 207.746 311.507 209.205C311.507 210.663 311.739 212.017 312.203 213.267C312.667 214.517 313.382 215.526 314.348 216.293C315.314 217.06 316.545 217.443 318.041 217.443ZM369.238 216.278C368.537 216.278 367.936 216.027 367.434 215.526C366.932 215.024 366.681 214.422 366.681 213.722C366.681 213.021 366.932 212.42 367.434 211.918C367.936 211.416 368.537 211.165 369.238 211.165C369.939 211.165 370.54 211.416 371.042 211.918C371.544 212.42 371.795 213.021 371.795 213.722C371.795 214.186 371.676 214.612 371.44 215C371.212 215.388 370.905 215.701 370.516 215.938C370.138 216.165 369.711 216.278 369.238 216.278ZM369.238 201.562C368.537 201.562 367.936 201.312 367.434 200.81C366.932 200.308 366.681 199.706 366.681 199.006C366.681 198.305 366.932 197.704 367.434 197.202C367.936 196.7 368.537 196.449 369.238 196.449C369.939 196.449 370.54 196.7 371.042 197.202C371.544 197.704 371.795 198.305 371.795 199.006C371.795 199.47 371.676 199.896 371.44 200.284C371.212 200.672 370.905 200.985 370.516 201.222C370.138 201.449 369.711 201.562 369.238 201.562ZM398.492 220.398C396.352 220.398 394.529 219.815 393.023 218.651C391.518 217.476 390.367 215.777 389.572 213.551C388.776 211.316 388.379 208.617 388.379 205.455C388.379 202.311 388.776 199.626 389.572 197.401C390.377 195.166 391.532 193.461 393.038 192.287C394.553 191.103 396.371 190.511 398.492 190.511C400.613 190.511 402.427 191.103 403.933 192.287C405.448 193.461 406.603 195.166 407.398 197.401C408.203 199.626 408.606 202.311 408.606 205.455C408.606 208.617 408.208 211.316 407.413 213.551C406.617 215.777 405.467 217.476 403.961 218.651C402.455 219.815 400.632 220.398 398.492 220.398ZM398.492 217.273C400.613 217.273 402.261 216.25 403.435 214.205C404.61 212.159 405.197 209.242 405.197 205.455C405.197 202.936 404.927 200.791 404.387 199.02C403.857 197.249 403.09 195.9 402.086 194.972C401.092 194.044 399.894 193.58 398.492 193.58C396.39 193.58 394.747 194.616 393.563 196.69C392.379 198.755 391.788 201.676 391.788 205.455C391.788 207.973 392.053 210.114 392.583 211.875C393.113 213.636 393.876 214.976 394.87 215.895C395.874 216.813 397.081 217.273 398.492 217.273ZM61.2727 275.045V264.875H63.1477C63.7917 264.288 64.3977 263.459 64.9659 262.389C65.5436 261.31 66.0312 259.87 66.429 258.071C66.8362 256.262 67.1061 253.966 67.2386 251.182L67.8636 238.909H85.1364V264.875H88.4886V274.989H85.1364V268H64.625V275.045H61.2727ZM67.3523 264.875H81.7841V242.034H71.0455L70.5909 251.182C70.4773 253.303 70.2784 255.225 69.9943 256.949C69.7102 258.663 69.3456 260.183 68.9006 261.509C68.4555 262.825 67.9394 263.947 67.3523 264.875ZM96.7095 263.057L107.221 246.182H111.085V268H107.732V251.125L97.2777 268H93.3572V246.182H96.7095V263.057ZM123.645 268.511C122.262 268.511 121.008 268.251 119.881 267.73C118.754 267.2 117.859 266.438 117.196 265.443C116.533 264.439 116.202 263.227 116.202 261.807C116.202 260.557 116.448 259.544 116.94 258.767C117.433 257.981 118.091 257.366 118.915 256.92C119.739 256.475 120.648 256.144 121.642 255.926C122.646 255.699 123.654 255.519 124.668 255.386C125.993 255.216 127.068 255.088 127.892 255.003C128.725 254.908 129.331 254.752 129.71 254.534C130.098 254.316 130.293 253.937 130.293 253.398V253.284C130.293 251.883 129.909 250.794 129.142 250.017C128.384 249.241 127.234 248.852 125.69 248.852C124.09 248.852 122.835 249.203 121.926 249.903C121.017 250.604 120.378 251.352 120.009 252.148L116.827 251.011C117.395 249.686 118.152 248.653 119.099 247.915C120.056 247.167 121.098 246.646 122.224 246.352C123.361 246.049 124.478 245.898 125.577 245.898C126.277 245.898 127.082 245.983 127.991 246.153C128.91 246.314 129.795 246.651 130.648 247.162C131.509 247.673 132.224 248.445 132.793 249.477C133.361 250.509 133.645 251.892 133.645 253.625V268H130.293V265.045H130.122C129.895 265.519 129.516 266.026 128.986 266.565C128.455 267.105 127.75 267.564 126.869 267.943C125.989 268.322 124.914 268.511 123.645 268.511ZM124.156 265.5C125.482 265.5 126.599 265.24 127.509 264.719C128.427 264.198 129.118 263.526 129.582 262.702C130.056 261.878 130.293 261.011 130.293 260.102V257.034C130.151 257.205 129.838 257.361 129.355 257.503C128.882 257.635 128.332 257.754 127.707 257.858C127.092 257.953 126.491 258.038 125.903 258.114C125.326 258.18 124.857 258.237 124.497 258.284C123.626 258.398 122.812 258.582 122.054 258.838C121.306 259.084 120.7 259.458 120.236 259.96C119.781 260.453 119.554 261.125 119.554 261.977C119.554 263.142 119.985 264.023 120.847 264.619C121.718 265.206 122.821 265.5 124.156 265.5ZM151.695 263.455L159.309 246.182H162.491L153.059 268H150.332L141.07 246.182H144.195L151.695 263.455ZM143.116 246.182V268H139.763V246.182H143.116ZM160.275 268V246.182H163.627V268H160.275ZM178.911 268.455C176.809 268.455 174.996 267.991 173.471 267.062C171.956 266.125 170.786 264.818 169.962 263.142C169.148 261.456 168.741 259.496 168.741 257.261C168.741 255.027 169.148 253.057 169.962 251.352C170.786 249.638 171.932 248.303 173.4 247.347C174.877 246.381 176.601 245.898 178.57 245.898C179.707 245.898 180.829 246.087 181.937 246.466C183.045 246.845 184.053 247.46 184.962 248.312C185.871 249.155 186.596 250.273 187.136 251.665C187.675 253.057 187.945 254.771 187.945 256.807V258.227H171.127V255.33H184.536C184.536 254.098 184.29 253 183.798 252.034C183.315 251.068 182.623 250.306 181.724 249.747C180.834 249.188 179.782 248.909 178.57 248.909C177.235 248.909 176.08 249.241 175.104 249.903C174.138 250.557 173.395 251.409 172.874 252.46C172.353 253.511 172.093 254.638 172.093 255.841V257.773C172.093 259.42 172.377 260.817 172.945 261.963C173.523 263.099 174.323 263.966 175.346 264.562C176.369 265.15 177.557 265.443 178.911 265.443C179.792 265.443 180.587 265.32 181.298 265.074C182.017 264.818 182.638 264.439 183.158 263.938C183.679 263.426 184.082 262.792 184.366 262.034L187.604 262.943C187.263 264.042 186.691 265.008 185.886 265.841C185.081 266.665 184.086 267.309 182.903 267.773C181.719 268.227 180.388 268.455 178.911 268.455ZM191.013 249.307V246.182H208.741V249.307H201.582V268H198.229V249.307H191.013ZM213.631 276.182V246.182H216.869V249.648H217.267C217.513 249.269 217.854 248.786 218.29 248.199C218.735 247.602 219.369 247.072 220.193 246.608C221.027 246.134 222.153 245.898 223.574 245.898C225.411 245.898 227.03 246.357 228.432 247.276C229.833 248.194 230.927 249.496 231.713 251.182C232.499 252.867 232.892 254.856 232.892 257.148C232.892 259.458 232.499 261.461 231.713 263.156C230.927 264.842 229.838 266.149 228.446 267.077C227.054 267.995 225.449 268.455 223.631 268.455C222.229 268.455 221.107 268.223 220.264 267.759C219.421 267.285 218.773 266.75 218.318 266.153C217.864 265.547 217.513 265.045 217.267 264.648H216.983V276.182H213.631ZM216.926 257.091C216.926 258.739 217.168 260.192 217.651 261.452C218.134 262.702 218.839 263.682 219.767 264.392C220.695 265.093 221.831 265.443 223.176 265.443C224.578 265.443 225.747 265.074 226.685 264.335C227.632 263.587 228.342 262.583 228.815 261.324C229.298 260.055 229.54 258.644 229.54 257.091C229.54 255.557 229.303 254.174 228.83 252.943C228.366 251.703 227.66 250.723 226.713 250.003C225.776 249.274 224.597 248.909 223.176 248.909C221.813 248.909 220.667 249.255 219.739 249.946C218.811 250.628 218.11 251.584 217.636 252.815C217.163 254.037 216.926 255.462 216.926 257.091ZM364.199 264.278C363.498 264.278 362.897 264.027 362.395 263.526C361.893 263.024 361.642 262.422 361.642 261.722C361.642 261.021 361.893 260.42 362.395 259.918C362.897 259.416 363.498 259.165 364.199 259.165C364.9 259.165 365.501 259.416 366.003 259.918C366.505 260.42 366.756 261.021 366.756 261.722C366.756 262.186 366.637 262.612 366.401 263C366.173 263.388 365.866 263.701 365.477 263.938C365.098 264.165 364.672 264.278 364.199 264.278ZM364.199 249.562C363.498 249.562 362.897 249.312 362.395 248.81C361.893 248.308 361.642 247.706 361.642 247.006C361.642 246.305 361.893 245.704 362.395 245.202C362.897 244.7 363.498 244.449 364.199 244.449C364.9 244.449 365.501 244.7 366.003 245.202C366.505 245.704 366.756 246.305 366.756 247.006C366.756 247.47 366.637 247.896 366.401 248.284C366.173 248.672 365.866 248.985 365.477 249.222C365.098 249.449 364.672 249.562 364.199 249.562ZM383.283 262.034V259.136L396.067 238.909H398.169V243.398H396.749L387.089 258.682V258.909H404.305V262.034H383.283ZM396.976 268V261.153V259.804V238.909H400.328V268H396.976ZM413.318 264.023L413.091 265.557C412.93 266.636 412.684 267.792 412.352 269.023C412.03 270.254 411.694 271.414 411.344 272.503C410.993 273.592 410.705 274.458 410.477 275.102H407.92C408.044 274.496 408.205 273.696 408.403 272.702C408.602 271.707 408.801 270.595 409 269.364C409.208 268.142 409.379 266.892 409.511 265.614L409.682 264.023H413.318ZM427.892 268.398C425.941 268.398 424.218 268.052 422.722 267.361C421.235 266.66 420.075 265.699 419.241 264.477C418.408 263.246 417.996 261.845 418.006 260.273C417.996 259.042 418.238 257.905 418.73 256.864C419.223 255.812 419.895 254.937 420.747 254.236C421.609 253.526 422.57 253.076 423.631 252.886V252.716C422.239 252.356 421.131 251.575 420.307 250.372C419.483 249.16 419.076 247.782 419.085 246.239C419.076 244.761 419.45 243.44 420.207 242.276C420.965 241.111 422.007 240.192 423.332 239.52C424.668 238.848 426.188 238.511 427.892 238.511C429.578 238.511 431.083 238.848 432.409 239.52C433.735 240.192 434.777 241.111 435.534 242.276C436.301 243.44 436.689 244.761 436.699 246.239C436.689 247.782 436.268 249.16 435.435 250.372C434.611 251.575 433.517 252.356 432.153 252.716V252.886C433.205 253.076 434.152 253.526 434.994 254.236C435.837 254.937 436.509 255.812 437.011 256.864C437.513 257.905 437.769 259.042 437.778 260.273C437.769 261.845 437.343 263.246 436.5 264.477C435.667 265.699 434.507 266.66 433.02 267.361C431.543 268.052 429.833 268.398 427.892 268.398ZM427.892 265.273C429.208 265.273 430.345 265.06 431.301 264.634C432.258 264.207 432.996 263.606 433.517 262.83C434.038 262.053 434.303 261.144 434.312 260.102C434.303 259.004 434.019 258.033 433.46 257.19C432.902 256.348 432.139 255.685 431.173 255.202C430.217 254.719 429.123 254.477 427.892 254.477C426.652 254.477 425.544 254.719 424.568 255.202C423.602 255.685 422.84 256.348 422.281 257.19C421.732 258.033 421.462 259.004 421.472 260.102C421.462 261.144 421.713 262.053 422.224 262.83C422.745 263.606 423.489 264.207 424.455 264.634C425.42 265.06 426.566 265.273 427.892 265.273ZM427.892 251.466C428.934 251.466 429.857 251.258 430.662 250.841C431.476 250.424 432.116 249.842 432.58 249.094C433.044 248.346 433.28 247.47 433.29 246.466C433.28 245.481 433.048 244.624 432.594 243.895C432.139 243.156 431.509 242.588 430.705 242.19C429.9 241.783 428.962 241.58 427.892 241.58C426.803 241.58 425.851 241.783 425.037 242.19C424.223 242.588 423.593 243.156 423.148 243.895C422.703 244.624 422.485 245.481 422.494 246.466C422.485 247.47 422.707 248.346 423.162 249.094C423.626 249.842 424.265 250.424 425.08 250.841C425.894 251.258 426.831 251.466 427.892 251.466ZM444.131 268L457.143 242.261V242.034H442.143V238.909H460.779V242.205L447.825 268H444.131ZM474.945 238.511C476.138 238.521 477.331 238.748 478.524 239.193C479.717 239.638 480.806 240.377 481.791 241.409C482.776 242.432 483.567 243.829 484.163 245.599C484.76 247.37 485.058 249.591 485.058 252.261C485.058 254.847 484.812 257.143 484.32 259.151C483.837 261.149 483.136 262.834 482.217 264.207C481.308 265.58 480.2 266.622 478.893 267.332C477.596 268.043 476.128 268.398 474.49 268.398C472.861 268.398 471.408 268.076 470.129 267.432C468.86 266.778 467.819 265.874 467.004 264.719C466.199 263.554 465.683 262.205 465.456 260.67H468.922C469.234 262.006 469.855 263.109 470.783 263.98C471.72 264.842 472.956 265.273 474.49 265.273C476.734 265.273 478.505 264.293 479.803 262.332C481.109 260.372 481.763 257.602 481.763 254.023H481.536C481.005 254.818 480.375 255.505 479.646 256.082C478.917 256.66 478.107 257.105 477.217 257.418C476.327 257.73 475.38 257.886 474.376 257.886C472.71 257.886 471.18 257.474 469.788 256.651C468.406 255.817 467.298 254.676 466.464 253.227C465.641 251.769 465.229 250.102 465.229 248.227C465.229 246.447 465.626 244.818 466.422 243.341C467.227 241.854 468.354 240.67 469.803 239.79C471.261 238.909 472.975 238.483 474.945 238.511ZM474.945 241.636C473.751 241.636 472.677 241.935 471.72 242.531C470.773 243.118 470.02 243.914 469.462 244.918C468.912 245.912 468.638 247.015 468.638 248.227C468.638 249.439 468.903 250.543 469.433 251.537C469.973 252.522 470.707 253.308 471.635 253.895C472.572 254.473 473.638 254.761 474.831 254.761C475.731 254.761 476.569 254.586 477.345 254.236C478.122 253.876 478.799 253.388 479.376 252.773C479.964 252.148 480.423 251.442 480.754 250.656C481.086 249.861 481.251 249.032 481.251 248.17C481.251 247.034 480.977 245.969 480.428 244.974C479.888 243.98 479.14 243.175 478.183 242.56C477.236 241.944 476.157 241.636 474.945 241.636ZM501.951 268V246.182H505.303V255.67H507.519L515.36 246.182H519.678L510.871 256.693L519.792 268H515.474L508.315 258.795H505.303V268H501.951ZM535.367 263.455L542.981 246.182H546.163L536.731 268H534.004L524.742 246.182H527.867L535.367 263.455ZM526.788 246.182V268H523.435V246.182H526.788ZM543.947 268V246.182H547.299V268H543.947ZM63.7727 316V286.909H67.2955V299.864H82.8068V286.909H86.3295V316H82.8068V302.989H67.2955V316H63.7727ZM100.143 297.023C99.3859 297.032 98.6236 297.226 97.8565 297.605C97.099 297.984 96.4645 298.486 95.9531 299.111C95.4512 299.726 95.2003 300.413 95.2003 301.17H91.9048C91.9048 300.223 92.1321 299.314 92.5866 298.443C93.0412 297.572 93.652 296.795 94.419 296.114C95.1955 295.432 96.0762 294.892 97.0611 294.494C98.0554 294.097 99.0829 293.898 100.143 293.898C102.132 293.898 103.818 294.4 105.2 295.403C106.592 296.407 107.648 297.733 108.368 299.381C109.097 301.028 109.462 302.818 109.462 304.75V305.545C109.462 307.468 109.097 309.258 108.368 310.915C107.648 312.562 106.592 313.888 105.2 314.892C103.818 315.896 102.132 316.398 100.143 316.398C98.5526 316.398 97.1368 316.047 95.8963 315.347C94.6558 314.636 93.6804 313.689 92.9702 312.506C92.2599 311.322 91.9048 310.006 91.9048 308.557H95.2003C95.2003 309.381 95.4323 310.152 95.8963 310.872C96.3698 311.582 96.9806 312.16 97.7287 312.605C98.4863 313.041 99.2912 313.263 100.143 313.273C101.412 313.263 102.492 312.866 103.382 312.08C104.272 311.294 104.949 310.309 105.413 309.125C105.877 307.941 106.109 306.748 106.109 305.545V304.75C106.109 303.519 105.877 302.316 105.413 301.142C104.959 299.958 104.286 298.978 103.396 298.202C102.516 297.425 101.431 297.032 100.143 297.023ZM107.473 303.443V306.568H97.9276V303.443H107.473ZM128.034 294.182V297.307H117.92V316H114.568V294.182H128.034ZM160.683 303.642V306.54H145.399V303.642H160.683ZM153.041 316.455C151.071 316.455 149.343 315.986 147.857 315.048C146.379 314.111 145.224 312.799 144.391 311.114C143.567 309.428 143.155 307.458 143.155 305.205C143.155 302.932 143.567 300.948 144.391 299.253C145.224 297.558 146.379 296.241 147.857 295.304C149.343 294.366 151.071 293.898 153.041 293.898C155.011 293.898 156.734 294.366 158.212 295.304C159.698 296.241 160.854 297.558 161.678 299.253C162.511 300.948 162.928 302.932 162.928 305.205C162.928 307.458 162.511 309.428 161.678 311.114C160.854 312.799 159.698 314.111 158.212 315.048C156.734 315.986 155.011 316.455 153.041 316.455ZM153.041 313.443C154.537 313.443 155.768 313.06 156.734 312.293C157.7 311.526 158.415 310.517 158.879 309.267C159.343 308.017 159.575 306.663 159.575 305.205C159.575 303.746 159.343 302.387 158.879 301.128C158.415 299.868 157.7 298.85 156.734 298.074C155.768 297.297 154.537 296.909 153.041 296.909C151.545 296.909 150.314 297.297 149.348 298.074C148.382 298.85 147.667 299.868 147.203 301.128C146.739 302.387 146.507 303.746 146.507 305.205C146.507 306.663 146.739 308.017 147.203 309.267C147.667 310.517 148.382 311.526 149.348 312.293C150.314 313.06 151.545 313.443 153.041 313.443ZM165.715 322.25V312.875H167.533C167.978 312.411 168.362 311.909 168.684 311.369C169.006 310.83 169.285 310.19 169.522 309.452C169.768 308.704 169.977 307.795 170.147 306.724C170.317 305.645 170.469 304.343 170.602 302.818L171.34 294.182H185.204V312.875H188.556V322.25H185.204V316H169.067V322.25H165.715ZM171.34 312.875H181.852V297.307H174.465L173.897 302.818C173.66 305.1 173.367 307.094 173.016 308.798C172.666 310.503 172.107 311.862 171.34 312.875ZM209.511 303.642V306.54H194.227V303.642H209.511ZM201.869 316.455C199.9 316.455 198.171 315.986 196.685 315.048C195.207 314.111 194.052 312.799 193.219 311.114C192.395 309.428 191.983 307.458 191.983 305.205C191.983 302.932 192.395 300.948 193.219 299.253C194.052 297.558 195.207 296.241 196.685 295.304C198.171 294.366 199.9 293.898 201.869 293.898C203.839 293.898 205.563 294.366 207.04 295.304C208.527 296.241 209.682 297.558 210.506 299.253C211.339 300.948 211.756 302.932 211.756 305.205C211.756 307.458 211.339 309.428 210.506 311.114C209.682 312.799 208.527 314.111 207.04 315.048C205.563 315.986 203.839 316.455 201.869 316.455ZM201.869 313.443C203.366 313.443 204.597 313.06 205.562 312.293C206.528 311.526 207.243 310.517 207.707 309.267C208.171 308.017 208.403 306.663 208.403 305.205C208.403 303.746 208.171 302.387 207.707 301.128C207.243 299.868 206.528 298.85 205.562 298.074C204.597 297.297 203.366 296.909 201.869 296.909C200.373 296.909 199.142 297.297 198.176 298.074C197.21 298.85 196.495 299.868 196.031 301.128C195.567 302.387 195.335 303.746 195.335 305.205C195.335 306.663 195.567 308.017 196.031 309.267C196.495 310.517 197.21 311.526 198.176 312.293C199.142 313.06 200.373 313.443 201.869 313.443ZM216.873 324.182V294.182H220.112V297.648H220.509C220.755 297.269 221.096 296.786 221.532 296.199C221.977 295.602 222.612 295.072 223.435 294.608C224.269 294.134 225.396 293.898 226.816 293.898C228.653 293.898 230.272 294.357 231.674 295.276C233.076 296.194 234.169 297.496 234.955 299.182C235.741 300.867 236.134 302.856 236.134 305.148C236.134 307.458 235.741 309.461 234.955 311.156C234.169 312.842 233.08 314.149 231.688 315.077C230.296 315.995 228.691 316.455 226.873 316.455C225.471 316.455 224.349 316.223 223.506 315.759C222.664 315.285 222.015 314.75 221.56 314.153C221.106 313.547 220.755 313.045 220.509 312.648H220.225V324.182H216.873ZM220.168 305.091C220.168 306.739 220.41 308.192 220.893 309.452C221.376 310.702 222.081 311.682 223.009 312.392C223.937 313.093 225.074 313.443 226.418 313.443C227.82 313.443 228.989 313.074 229.927 312.335C230.874 311.587 231.584 310.583 232.058 309.324C232.54 308.055 232.782 306.644 232.782 305.091C232.782 303.557 232.545 302.174 232.072 300.943C231.608 299.703 230.902 298.723 229.955 298.003C229.018 297.274 227.839 296.909 226.418 296.909C225.055 296.909 223.909 297.255 222.981 297.946C222.053 298.628 221.352 299.584 220.879 300.815C220.405 302.037 220.168 303.462 220.168 305.091ZM367.441 312.278C366.74 312.278 366.139 312.027 365.637 311.526C365.135 311.024 364.884 310.422 364.884 309.722C364.884 309.021 365.135 308.42 365.637 307.918C366.139 307.416 366.74 307.165 367.441 307.165C368.142 307.165 368.743 307.416 369.245 307.918C369.747 308.42 369.998 309.021 369.998 309.722C369.998 310.186 369.879 310.612 369.643 311C369.415 311.388 369.108 311.701 368.719 311.938C368.341 312.165 367.915 312.278 367.441 312.278ZM367.441 297.562C366.74 297.562 366.139 297.312 365.637 296.81C365.135 296.308 364.884 295.706 364.884 295.006C364.884 294.305 365.135 293.704 365.637 293.202C366.139 292.7 366.74 292.449 367.441 292.449C368.142 292.449 368.743 292.7 369.245 293.202C369.747 293.704 369.998 294.305 369.998 295.006C369.998 295.47 369.879 295.896 369.643 296.284C369.415 296.672 369.108 296.985 368.719 297.222C368.341 297.449 367.915 297.562 367.441 297.562ZM397.434 286.909V316H393.911V290.602H393.741L386.638 295.318V291.739L393.911 286.909H397.434ZM409.138 312.023L408.911 313.557C408.75 314.636 408.504 315.792 408.173 317.023C407.851 318.254 407.514 319.414 407.164 320.503C406.814 321.592 406.525 322.458 406.298 323.102H403.741C403.864 322.496 404.025 321.696 404.224 320.702C404.423 319.707 404.621 318.595 404.82 317.364C405.029 316.142 405.199 314.892 405.332 313.614L405.502 312.023H409.138ZM414.611 310.034V307.136L427.395 286.909H429.497V291.398H428.077L418.418 306.682V306.909H435.634V310.034H414.611ZM428.304 316V309.153V307.804V286.909H431.656V316H428.304ZM450.445 316.398C448.305 316.398 446.482 315.815 444.977 314.651C443.471 313.476 442.32 311.777 441.525 309.551C440.729 307.316 440.332 304.617 440.332 301.455C440.332 298.311 440.729 295.626 441.525 293.401C442.33 291.166 443.485 289.461 444.991 288.287C446.506 287.103 448.324 286.511 450.445 286.511C452.567 286.511 454.38 287.103 455.886 288.287C457.401 289.461 458.556 291.166 459.352 293.401C460.156 295.626 460.559 298.311 460.559 301.455C460.559 304.617 460.161 307.316 459.366 309.551C458.57 311.777 457.42 313.476 455.914 314.651C454.408 315.815 452.585 316.398 450.445 316.398ZM450.445 313.273C452.567 313.273 454.214 312.25 455.388 310.205C456.563 308.159 457.15 305.242 457.15 301.455C457.15 298.936 456.88 296.791 456.34 295.02C455.81 293.249 455.043 291.9 454.039 290.972C453.045 290.044 451.847 289.58 450.445 289.58C448.343 289.58 446.7 290.616 445.516 292.69C444.333 294.755 443.741 297.676 443.741 301.455C443.741 303.973 444.006 306.114 444.536 307.875C445.067 309.636 445.829 310.976 446.823 311.895C447.827 312.813 449.034 313.273 450.445 313.273ZM475.275 316.398C473.324 316.398 471.601 316.052 470.104 315.361C468.618 314.66 467.458 313.699 466.624 312.477C465.791 311.246 465.379 309.845 465.388 308.273C465.379 307.042 465.621 305.905 466.113 304.864C466.605 303.812 467.278 302.937 468.13 302.236C468.992 301.526 469.953 301.076 471.013 300.886V300.716C469.621 300.356 468.513 299.575 467.69 298.372C466.866 297.16 466.459 295.782 466.468 294.239C466.459 292.761 466.833 291.44 467.59 290.276C468.348 289.111 469.389 288.192 470.715 287.52C472.05 286.848 473.57 286.511 475.275 286.511C476.96 286.511 478.466 286.848 479.792 287.52C481.118 288.192 482.159 289.111 482.917 290.276C483.684 291.44 484.072 292.761 484.082 294.239C484.072 295.782 483.651 297.16 482.817 298.372C481.994 299.575 480.9 300.356 479.536 300.716V300.886C480.587 301.076 481.534 301.526 482.377 302.236C483.22 302.937 483.892 303.812 484.394 304.864C484.896 305.905 485.152 307.042 485.161 308.273C485.152 309.845 484.726 311.246 483.883 312.477C483.049 313.699 481.889 314.66 480.403 315.361C478.925 316.052 477.216 316.398 475.275 316.398ZM475.275 313.273C476.591 313.273 477.728 313.06 478.684 312.634C479.64 312.207 480.379 311.606 480.9 310.83C481.421 310.053 481.686 309.144 481.695 308.102C481.686 307.004 481.402 306.033 480.843 305.19C480.284 304.348 479.522 303.685 478.556 303.202C477.6 302.719 476.506 302.477 475.275 302.477C474.034 302.477 472.926 302.719 471.951 303.202C470.985 303.685 470.223 304.348 469.664 305.19C469.115 306.033 468.845 307.004 468.854 308.102C468.845 309.144 469.096 310.053 469.607 310.83C470.128 311.606 470.871 312.207 471.837 312.634C472.803 313.06 473.949 313.273 475.275 313.273ZM475.275 299.466C476.317 299.466 477.24 299.258 478.045 298.841C478.859 298.424 479.498 297.842 479.962 297.094C480.426 296.346 480.663 295.47 480.673 294.466C480.663 293.481 480.431 292.624 479.977 291.895C479.522 291.156 478.892 290.588 478.087 290.19C477.282 289.783 476.345 289.58 475.275 289.58C474.186 289.58 473.234 289.783 472.42 290.19C471.605 290.588 470.976 291.156 470.531 291.895C470.085 292.624 469.868 293.481 469.877 294.466C469.868 295.47 470.09 296.346 470.545 297.094C471.009 297.842 471.648 298.424 472.462 298.841C473.277 299.258 474.214 299.466 475.275 299.466ZM519.071 294.182V312.875H522.139V323.045H518.787V316H501.912V294.182H505.264V312.875H515.719V294.182H519.071ZM533.723 316.511C532.34 316.511 531.086 316.251 529.959 315.73C528.832 315.2 527.937 314.438 527.274 313.443C526.611 312.439 526.28 311.227 526.28 309.807C526.28 308.557 526.526 307.544 527.018 306.767C527.511 305.981 528.169 305.366 528.993 304.92C529.817 304.475 530.726 304.144 531.72 303.926C532.724 303.699 533.732 303.519 534.746 303.386C536.071 303.216 537.146 303.088 537.97 303.003C538.804 302.908 539.41 302.752 539.788 302.534C540.177 302.316 540.371 301.937 540.371 301.398V301.284C540.371 299.883 539.987 298.794 539.22 298.017C538.463 297.241 537.312 296.852 535.768 296.852C534.168 296.852 532.913 297.203 532.004 297.903C531.095 298.604 530.456 299.352 530.087 300.148L526.905 299.011C527.473 297.686 528.231 296.653 529.178 295.915C530.134 295.167 531.176 294.646 532.303 294.352C533.439 294.049 534.556 293.898 535.655 293.898C536.356 293.898 537.161 293.983 538.07 294.153C538.988 294.314 539.874 294.651 540.726 295.162C541.588 295.673 542.303 296.445 542.871 297.477C543.439 298.509 543.723 299.892 543.723 301.625V316H540.371V313.045H540.2C539.973 313.519 539.594 314.026 539.064 314.565C538.534 315.105 537.828 315.564 536.947 315.943C536.067 316.322 534.992 316.511 533.723 316.511ZM534.234 313.5C535.56 313.5 536.678 313.24 537.587 312.719C538.505 312.198 539.196 311.526 539.661 310.702C540.134 309.878 540.371 309.011 540.371 308.102V305.034C540.229 305.205 539.916 305.361 539.433 305.503C538.96 305.635 538.411 305.754 537.786 305.858C537.17 305.953 536.569 306.038 535.982 306.114C535.404 306.18 534.935 306.237 534.575 306.284C533.704 306.398 532.89 306.582 532.132 306.838C531.384 307.084 530.778 307.458 530.314 307.96C529.859 308.453 529.632 309.125 529.632 309.977C529.632 311.142 530.063 312.023 530.925 312.619C531.796 313.206 532.899 313.5 534.234 313.5ZM563.308 294.182V297.307H553.194V316H549.842V294.182H563.308Z" fill="black"/>
<path d="M121.774 338.909L129.274 351.011H129.501L137.001 338.909H141.149L132.001 353.455L141.149 368H137.001L129.501 356.125H129.274L121.774 368H117.626L127.001 353.455L117.626 338.909H121.774ZM151.7 368.511C150.317 368.511 149.062 368.251 147.935 367.73C146.808 367.2 145.914 366.438 145.251 365.443C144.588 364.439 144.256 363.227 144.256 361.807C144.256 360.557 144.503 359.544 144.995 358.767C145.487 357.981 146.146 357.366 146.969 356.92C147.793 356.475 148.702 356.144 149.697 355.926C150.701 355.699 151.709 355.519 152.722 355.386C154.048 355.216 155.123 355.088 155.947 355.003C156.78 354.908 157.386 354.752 157.765 354.534C158.153 354.316 158.347 353.937 158.347 353.398V353.284C158.347 351.883 157.964 350.794 157.197 350.017C156.439 349.241 155.289 348.852 153.745 348.852C152.145 348.852 150.89 349.203 149.981 349.903C149.072 350.604 148.433 351.352 148.063 352.148L144.881 351.011C145.45 349.686 146.207 348.653 147.154 347.915C148.111 347.167 149.152 346.646 150.279 346.352C151.415 346.049 152.533 345.898 153.631 345.898C154.332 345.898 155.137 345.983 156.046 346.153C156.965 346.314 157.85 346.651 158.702 347.162C159.564 347.673 160.279 348.445 160.847 349.477C161.415 350.509 161.7 351.892 161.7 353.625V368H158.347V365.045H158.177C157.95 365.519 157.571 366.026 157.04 366.565C156.51 367.105 155.805 367.564 154.924 367.943C154.043 368.322 152.969 368.511 151.7 368.511ZM152.211 365.5C153.537 365.5 154.654 365.24 155.563 364.719C156.482 364.198 157.173 363.526 157.637 362.702C158.111 361.878 158.347 361.011 158.347 360.102V357.034C158.205 357.205 157.893 357.361 157.41 357.503C156.936 357.635 156.387 357.754 155.762 357.858C155.147 357.953 154.545 358.038 153.958 358.114C153.38 358.18 152.912 358.237 152.552 358.284C151.681 358.398 150.866 358.582 150.109 358.838C149.361 359.084 148.754 359.458 148.29 359.96C147.836 360.453 147.609 361.125 147.609 361.977C147.609 363.142 148.04 364.023 148.901 364.619C149.772 365.206 150.876 365.5 152.211 365.5ZM179.75 363.455L187.364 346.182H190.545L181.114 368H178.386L169.125 346.182H172.25L179.75 363.455ZM171.17 346.182V368H167.818V346.182H171.17ZM188.33 368V346.182H191.682V368H188.33ZM211.284 346.182V349.307H201.17V368H197.818V346.182H211.284ZM219.53 363.057L230.041 346.182H233.905V368H230.553V351.125L220.098 368H216.178V346.182H219.53V363.057ZM243.397 363.057L253.908 346.182H257.772V368H254.42V351.125L243.965 368H240.045V346.182H243.397V363.057ZM251.692 338.909H254.817C254.817 340.443 254.287 341.698 253.227 342.673C252.166 343.649 250.727 344.136 248.908 344.136C247.119 344.136 245.693 343.649 244.633 342.673C243.582 341.698 243.056 340.443 243.056 338.909H246.181C246.181 339.648 246.385 340.296 246.792 340.855C247.209 341.414 247.914 341.693 248.908 341.693C249.903 341.693 250.613 341.414 251.039 340.855C251.475 340.296 251.692 339.648 251.692 338.909ZM278.514 355.557V358.682H266.469V355.557H278.514ZM267.264 346.182V368H263.912V346.182H267.264ZM281.071 346.182V368H277.719V346.182H281.071ZM297.08 368L305.943 356.92L297.193 346.182H301.17L308.443 355.5H310.261V346.182H313.614V355.5H315.375L322.648 346.182H326.625L317.932 356.92L326.739 368H322.705L315.318 358.625H313.614V368H310.261V358.625H308.557L301.114 368H297.08ZM334.881 363.057L345.393 346.182H349.256V368H345.904V351.125L335.45 368H331.529V346.182H334.881V363.057ZM354.033 368L362.896 356.92L354.146 346.182H358.124L365.396 355.5H367.214V346.182H370.567V355.5H372.328L379.601 346.182H383.578L374.885 356.92L383.692 368H379.658L372.271 358.625H370.567V368H367.214V358.625H365.51L358.067 368H354.033ZM391.835 363.057L402.346 346.182H406.21V368H402.857V351.125L392.403 368H388.482V346.182H391.835V363.057ZM425.815 346.182V349.307H415.702V368H412.349V346.182H425.815ZM455.425 346.182V349.307H445.311V368H441.959V346.182H455.425ZM465.606 368.511C464.223 368.511 462.969 368.251 461.842 367.73C460.715 367.2 459.82 366.438 459.157 365.443C458.494 364.439 458.163 363.227 458.163 361.807C458.163 360.557 458.409 359.544 458.901 358.767C459.394 357.981 460.052 357.366 460.876 356.92C461.7 356.475 462.609 356.144 463.603 355.926C464.607 355.699 465.615 355.519 466.629 355.386C467.954 355.216 469.029 355.088 469.853 355.003C470.686 354.908 471.292 354.752 471.671 354.534C472.059 354.316 472.254 353.937 472.254 353.398V353.284C472.254 351.883 471.87 350.794 471.103 350.017C470.345 349.241 469.195 348.852 467.651 348.852C466.051 348.852 464.796 349.203 463.887 349.903C462.978 350.604 462.339 351.352 461.969 352.148L458.788 351.011C459.356 349.686 460.113 348.653 461.06 347.915C462.017 347.167 463.058 346.646 464.185 346.352C465.322 346.049 466.439 345.898 467.538 345.898C468.238 345.898 469.043 345.983 469.952 346.153C470.871 346.314 471.756 346.651 472.609 347.162C473.47 347.673 474.185 348.445 474.754 349.477C475.322 350.509 475.606 351.892 475.606 353.625V368H472.254V365.045H472.083C471.856 365.519 471.477 366.026 470.947 366.565C470.416 367.105 469.711 367.564 468.83 367.943C467.95 368.322 466.875 368.511 465.606 368.511ZM466.117 365.5C467.443 365.5 468.56 365.24 469.469 364.719C470.388 364.198 471.079 363.526 471.543 362.702C472.017 361.878 472.254 361.011 472.254 360.102V357.034C472.112 357.205 471.799 357.361 471.316 357.503C470.843 357.635 470.293 357.754 469.668 357.858C469.053 357.953 468.451 358.038 467.864 358.114C467.287 358.18 466.818 358.237 466.458 358.284C465.587 358.398 464.772 358.582 464.015 358.838C463.267 359.084 462.661 359.458 462.197 359.96C461.742 360.453 461.515 361.125 461.515 361.977C461.515 363.142 461.946 364.023 462.808 364.619C463.679 365.206 464.782 365.5 466.117 365.5ZM481.724 376.182V346.182H484.963V349.648H485.361C485.607 349.269 485.948 348.786 486.384 348.199C486.829 347.602 487.463 347.072 488.287 346.608C489.12 346.134 490.247 345.898 491.668 345.898C493.505 345.898 495.124 346.357 496.526 347.276C497.927 348.194 499.021 349.496 499.807 351.182C500.593 352.867 500.986 354.856 500.986 357.148C500.986 359.458 500.593 361.461 499.807 363.156C499.021 364.842 497.932 366.149 496.54 367.077C495.148 367.995 493.543 368.455 491.724 368.455C490.323 368.455 489.201 368.223 488.358 367.759C487.515 367.285 486.866 366.75 486.412 366.153C485.957 365.547 485.607 365.045 485.361 364.648H485.077V376.182H481.724ZM485.02 357.091C485.02 358.739 485.261 360.192 485.744 361.452C486.227 362.702 486.933 363.682 487.861 364.392C488.789 365.093 489.925 365.443 491.27 365.443C492.671 365.443 493.841 365.074 494.778 364.335C495.725 363.587 496.436 362.583 496.909 361.324C497.392 360.055 497.634 358.644 497.634 357.091C497.634 355.557 497.397 354.174 496.923 352.943C496.459 351.703 495.754 350.723 494.807 350.003C493.869 349.274 492.69 348.909 491.27 348.909C489.906 348.909 488.76 349.255 487.832 349.946C486.904 350.628 486.204 351.584 485.73 352.815C485.257 354.037 485.02 355.462 485.02 357.091ZM512.52 368.511C511.137 368.511 509.883 368.251 508.756 367.73C507.629 367.2 506.734 366.438 506.071 365.443C505.408 364.439 505.077 363.227 505.077 361.807C505.077 360.557 505.323 359.544 505.815 358.767C506.308 357.981 506.966 357.366 507.79 356.92C508.614 356.475 509.523 356.144 510.517 355.926C511.521 355.699 512.529 355.519 513.543 355.386C514.868 355.216 515.943 355.088 516.767 355.003C517.6 354.908 518.206 354.752 518.585 354.534C518.973 354.316 519.168 353.937 519.168 353.398V353.284C519.168 351.883 518.784 350.794 518.017 350.017C517.259 349.241 516.109 348.852 514.565 348.852C512.965 348.852 511.71 349.203 510.801 349.903C509.892 350.604 509.253 351.352 508.884 352.148L505.702 351.011C506.27 349.686 507.027 348.653 507.974 347.915C508.931 347.167 509.973 346.646 511.099 346.352C512.236 346.049 513.353 345.898 514.452 345.898C515.152 345.898 515.957 345.983 516.866 346.153C517.785 346.314 518.67 346.651 519.523 347.162C520.384 347.673 521.099 348.445 521.668 349.477C522.236 350.509 522.52 351.892 522.52 353.625V368H519.168V365.045H518.997C518.77 365.519 518.391 366.026 517.861 366.565C517.33 367.105 516.625 367.564 515.744 367.943C514.864 368.322 513.789 368.511 512.52 368.511ZM513.031 365.5C514.357 365.5 515.474 365.24 516.384 364.719C517.302 364.198 517.993 363.526 518.457 362.702C518.931 361.878 519.168 361.011 519.168 360.102V357.034C519.026 357.205 518.713 357.361 518.23 357.503C517.757 357.635 517.207 357.754 516.582 357.858C515.967 357.953 515.366 358.038 514.778 358.114C514.201 358.18 513.732 358.237 513.372 358.284C512.501 358.398 511.687 358.582 510.929 358.838C510.181 359.084 509.575 359.458 509.111 359.96C508.656 360.453 508.429 361.125 508.429 361.977C508.429 363.142 508.86 364.023 509.722 364.619C510.593 365.206 511.696 365.5 513.031 365.5ZM542.104 346.182V349.307H531.991V368H528.638V346.182H542.104ZM574.441 338L576.146 340.045C575.483 340.689 574.716 341.139 573.844 341.395C572.973 341.651 571.988 341.807 570.89 341.864C569.791 341.92 568.57 341.977 567.225 342.034C565.71 342.091 564.455 342.46 563.461 343.142C562.467 343.824 561.7 344.809 561.16 346.097C560.62 347.384 560.274 348.966 560.123 350.841H560.407C561.146 349.477 562.168 348.473 563.475 347.83C564.782 347.186 566.183 346.864 567.68 346.864C569.384 346.864 570.918 347.261 572.282 348.057C573.646 348.852 574.725 350.031 575.521 351.594C576.316 353.156 576.714 355.083 576.714 357.375C576.714 359.657 576.307 361.627 575.492 363.284C574.687 364.941 573.556 366.22 572.097 367.119C570.648 368.009 568.949 368.455 566.998 368.455C565.047 368.455 563.338 367.995 561.87 367.077C560.402 366.149 559.261 364.776 558.447 362.957C557.632 361.13 557.225 358.871 557.225 356.182V353.852C557.225 348.994 558.049 345.311 559.697 342.801C561.354 340.292 563.844 338.994 567.168 338.909C568.343 338.871 569.389 338.862 570.308 338.881C571.226 338.9 572.026 338.857 572.708 338.753C573.39 338.649 573.968 338.398 574.441 338ZM566.998 365.443C568.314 365.443 569.446 365.112 570.393 364.449C571.349 363.786 572.083 362.853 572.594 361.651C573.106 360.438 573.362 359.013 573.362 357.375C573.362 355.784 573.101 354.43 572.58 353.312C572.069 352.195 571.335 351.343 570.379 350.756C569.422 350.169 568.276 349.875 566.941 349.875C565.966 349.875 565.09 350.041 564.313 350.372C563.537 350.704 562.874 351.191 562.325 351.835C561.775 352.479 561.349 353.265 561.046 354.193C560.753 355.121 560.596 356.182 560.577 357.375C560.577 359.818 561.15 361.774 562.296 363.241C563.442 364.709 565.009 365.443 566.998 365.443ZM598.347 355.642V358.54H583.063V355.642H598.347ZM590.705 368.455C588.736 368.455 587.007 367.986 585.521 367.048C584.043 366.111 582.888 364.799 582.055 363.114C581.231 361.428 580.819 359.458 580.819 357.205C580.819 354.932 581.231 352.948 582.055 351.253C582.888 349.558 584.043 348.241 585.521 347.304C587.007 346.366 588.736 345.898 590.705 345.898C592.675 345.898 594.398 346.366 595.876 347.304C597.362 348.241 598.518 349.558 599.342 351.253C600.175 352.948 600.592 354.932 600.592 357.205C600.592 359.458 600.175 361.428 599.342 363.114C598.518 364.799 597.362 366.111 595.876 367.048C594.398 367.986 592.675 368.455 590.705 368.455ZM590.705 365.443C592.201 365.443 593.433 365.06 594.398 364.293C595.364 363.526 596.079 362.517 596.543 361.267C597.007 360.017 597.239 358.663 597.239 357.205C597.239 355.746 597.007 354.387 596.543 353.128C596.079 351.868 595.364 350.85 594.398 350.074C593.433 349.297 592.201 348.909 590.705 348.909C589.209 348.909 587.978 349.297 587.012 350.074C586.046 350.85 585.331 351.868 584.867 353.128C584.403 354.387 584.171 355.746 584.171 357.205C584.171 358.663 584.403 360.017 584.867 361.267C585.331 362.517 586.046 363.526 587.012 364.293C587.978 365.06 589.209 365.443 590.705 365.443ZM619.175 346.182V349.307H609.061V368H605.709V346.182H619.175ZM639.441 355.642V358.54H624.157V355.642H639.441ZM631.799 368.455C629.829 368.455 628.101 367.986 626.614 367.048C625.137 366.111 623.982 364.799 623.148 363.114C622.325 361.428 621.913 359.458 621.913 357.205C621.913 354.932 622.325 352.948 623.148 351.253C623.982 349.558 625.137 348.241 626.614 347.304C628.101 346.366 629.829 345.898 631.799 345.898C633.769 345.898 635.492 346.366 636.969 347.304C638.456 348.241 639.612 349.558 640.435 351.253C641.269 352.948 641.685 354.932 641.685 357.205C641.685 359.458 641.269 361.428 640.435 363.114C639.612 364.799 638.456 366.111 636.969 367.048C635.492 367.986 633.769 368.455 631.799 368.455ZM631.799 365.443C633.295 365.443 634.526 365.06 635.492 364.293C636.458 363.526 637.173 362.517 637.637 361.267C638.101 360.017 638.333 358.663 638.333 357.205C638.333 355.746 638.101 354.387 637.637 353.128C637.173 351.868 636.458 350.85 635.492 350.074C634.526 349.297 633.295 348.909 631.799 348.909C630.303 348.909 629.072 349.297 628.106 350.074C627.14 350.85 626.425 351.868 625.961 353.128C625.497 354.387 625.265 355.746 625.265 357.205C625.265 358.663 625.497 360.017 625.961 361.267C626.425 362.517 627.14 363.526 628.106 364.293C629.072 365.06 630.303 365.443 631.799 365.443ZM663.308 355.642V358.54H648.024V355.642H663.308ZM655.666 368.455C653.696 368.455 651.968 367.986 650.482 367.048C649.004 366.111 647.849 364.799 647.016 363.114C646.192 361.428 645.78 359.458 645.78 357.205C645.78 354.932 646.192 352.948 647.016 351.253C647.849 349.558 649.004 348.241 650.482 347.304C651.968 346.366 653.696 345.898 655.666 345.898C657.636 345.898 659.359 346.366 660.837 347.304C662.323 348.241 663.479 349.558 664.303 351.253C665.136 352.948 665.553 354.932 665.553 357.205C665.553 359.458 665.136 361.428 664.303 363.114C663.479 364.799 662.323 366.111 660.837 367.048C659.359 367.986 657.636 368.455 655.666 368.455ZM655.666 365.443C657.162 365.443 658.393 365.06 659.359 364.293C660.325 363.526 661.04 362.517 661.504 361.267C661.968 360.017 662.2 358.663 662.2 357.205C662.2 355.746 661.968 354.387 661.504 353.128C661.04 351.868 660.325 350.85 659.359 350.074C658.393 349.297 657.162 348.909 655.666 348.909C654.17 348.909 652.939 349.297 651.973 350.074C651.007 350.85 650.292 351.868 649.828 353.128C649.364 354.387 649.132 355.746 649.132 357.205C649.132 358.663 649.364 360.017 649.828 361.267C650.292 362.517 651.007 363.526 651.973 364.293C652.939 365.06 654.17 365.443 655.666 365.443ZM668.34 374.25V364.875H670.158C670.603 364.411 670.987 363.909 671.309 363.369C671.631 362.83 671.91 362.19 672.147 361.452C672.393 360.704 672.602 359.795 672.772 358.724C672.942 357.645 673.094 356.343 673.227 354.818L673.965 346.182H687.829V364.875H691.181V374.25H687.829V368H671.692V374.25H668.34ZM673.965 364.875H684.477V349.307H677.09L676.522 354.818C676.285 357.1 675.992 359.094 675.641 360.798C675.291 362.503 674.732 363.862 673.965 364.875ZM89.5671 394.182V412.875H92.6353V423.045H89.283V416H72.408V394.182H75.7603V412.875H86.2148V394.182H89.5671ZM104.219 416.511C102.837 416.511 101.582 416.251 100.455 415.73C99.328 415.2 98.4331 414.438 97.7702 413.443C97.1074 412.439 96.7759 411.227 96.7759 409.807C96.7759 408.557 97.0221 407.544 97.5146 406.767C98.007 405.981 98.6651 405.366 99.489 404.92C100.313 404.475 101.222 404.144 102.216 403.926C103.22 403.699 104.229 403.519 105.242 403.386C106.568 403.216 107.642 403.088 108.466 403.003C109.3 402.908 109.906 402.752 110.284 402.534C110.673 402.316 110.867 401.937 110.867 401.398V401.284C110.867 399.883 110.483 398.794 109.716 398.017C108.959 397.241 107.808 396.852 106.265 396.852C104.664 396.852 103.409 397.203 102.5 397.903C101.591 398.604 100.952 399.352 100.583 400.148L97.4009 399.011C97.9691 397.686 98.7267 396.653 99.6737 395.915C100.63 395.167 101.672 394.646 102.799 394.352C103.935 394.049 105.052 393.898 106.151 393.898C106.852 393.898 107.657 393.983 108.566 394.153C109.484 394.314 110.37 394.651 111.222 395.162C112.084 395.673 112.799 396.445 113.367 397.477C113.935 398.509 114.219 399.892 114.219 401.625V416H110.867V413.045H110.696C110.469 413.519 110.09 414.026 109.56 414.565C109.03 415.105 108.324 415.564 107.444 415.943C106.563 416.322 105.488 416.511 104.219 416.511ZM104.73 413.5C106.056 413.5 107.174 413.24 108.083 412.719C109.001 412.198 109.693 411.526 110.157 410.702C110.63 409.878 110.867 409.011 110.867 408.102V405.034C110.725 405.205 110.412 405.361 109.929 405.503C109.456 405.635 108.907 405.754 108.282 405.858C107.666 405.953 107.065 406.038 106.478 406.114C105.9 406.18 105.431 406.237 105.071 406.284C104.2 406.398 103.386 406.582 102.628 406.838C101.88 407.084 101.274 407.458 100.81 407.96C100.355 408.453 100.128 409.125 100.128 409.977C100.128 411.142 100.559 412.023 101.421 412.619C102.292 413.206 103.395 413.5 104.73 413.5ZM133.804 394.182V397.307H123.69V416H120.338V394.182H133.804ZM156.368 416.511C154.985 416.511 153.73 416.251 152.603 415.73C151.476 415.2 150.582 414.438 149.919 413.443C149.256 412.439 148.924 411.227 148.924 409.807C148.924 408.557 149.171 407.544 149.663 406.767C150.155 405.981 150.814 405.366 151.637 404.92C152.461 404.475 153.37 404.144 154.365 403.926C155.368 403.699 156.377 403.519 157.39 403.386C158.716 403.216 159.791 403.088 160.615 403.003C161.448 402.908 162.054 402.752 162.433 402.534C162.821 402.316 163.015 401.937 163.015 401.398V401.284C163.015 399.883 162.632 398.794 161.865 398.017C161.107 397.241 159.957 396.852 158.413 396.852C156.813 396.852 155.558 397.203 154.649 397.903C153.74 398.604 153.1 399.352 152.731 400.148L149.549 399.011C150.118 397.686 150.875 396.653 151.822 395.915C152.779 395.167 153.82 394.646 154.947 394.352C156.083 394.049 157.201 393.898 158.299 393.898C159 393.898 159.805 393.983 160.714 394.153C161.633 394.314 162.518 394.651 163.37 395.162C164.232 395.673 164.947 396.445 165.515 397.477C166.083 398.509 166.368 399.892 166.368 401.625V416H163.015V413.045H162.845C162.618 413.519 162.239 414.026 161.708 414.565C161.178 415.105 160.473 415.564 159.592 415.943C158.711 416.322 157.636 416.511 156.368 416.511ZM156.879 413.5C158.205 413.5 159.322 413.24 160.231 412.719C161.15 412.198 161.841 411.526 162.305 410.702C162.779 409.878 163.015 409.011 163.015 408.102V405.034C162.873 405.205 162.561 405.361 162.078 405.503C161.604 405.635 161.055 405.754 160.43 405.858C159.815 405.953 159.213 406.038 158.626 406.114C158.048 406.18 157.58 406.237 157.22 406.284C156.349 406.398 155.534 406.582 154.777 406.838C154.029 407.084 153.422 407.458 152.958 407.96C152.504 408.453 152.277 409.125 152.277 409.977C152.277 411.142 152.708 412.023 153.569 412.619C154.44 413.206 155.544 413.5 156.879 413.5ZM185.952 394.182V397.307H175.838V416H172.486V394.182H185.952ZM196.133 416.511C194.751 416.511 193.496 416.251 192.369 415.73C191.242 415.2 190.347 414.438 189.684 413.443C189.021 412.439 188.69 411.227 188.69 409.807C188.69 408.557 188.936 407.544 189.429 406.767C189.921 405.981 190.579 405.366 191.403 404.92C192.227 404.475 193.136 404.144 194.13 403.926C195.134 403.699 196.143 403.519 197.156 403.386C198.482 403.216 199.556 403.088 200.38 403.003C201.214 402.908 201.82 402.752 202.199 402.534C202.587 402.316 202.781 401.937 202.781 401.398V401.284C202.781 399.883 202.397 398.794 201.63 398.017C200.873 397.241 199.722 396.852 198.179 396.852C196.578 396.852 195.324 397.203 194.414 397.903C193.505 398.604 192.866 399.352 192.497 400.148L189.315 399.011C189.883 397.686 190.641 396.653 191.588 395.915C192.544 395.167 193.586 394.646 194.713 394.352C195.849 394.049 196.967 393.898 198.065 393.898C198.766 393.898 199.571 393.983 200.48 394.153C201.398 394.314 202.284 394.651 203.136 395.162C203.998 395.673 204.713 396.445 205.281 397.477C205.849 398.509 206.133 399.892 206.133 401.625V416H202.781V413.045H202.61C202.383 413.519 202.004 414.026 201.474 414.565C200.944 415.105 200.238 415.564 199.358 415.943C198.477 416.322 197.402 416.511 196.133 416.511ZM196.645 413.5C197.97 413.5 199.088 413.24 199.997 412.719C200.915 412.198 201.607 411.526 202.071 410.702C202.544 409.878 202.781 409.011 202.781 408.102V405.034C202.639 405.205 202.326 405.361 201.843 405.503C201.37 405.635 200.821 405.754 200.196 405.858C199.58 405.953 198.979 406.038 198.392 406.114C197.814 406.18 197.345 406.237 196.985 406.284C196.114 406.398 195.3 406.582 194.542 406.838C193.794 407.084 193.188 407.458 192.724 407.96C192.27 408.453 192.042 409.125 192.042 409.977C192.042 411.142 192.473 412.023 193.335 412.619C194.206 413.206 195.309 413.5 196.645 413.5ZM218.672 416.511C217.29 416.511 216.035 416.251 214.908 415.73C213.781 415.2 212.886 414.438 212.223 413.443C211.56 412.439 211.229 411.227 211.229 409.807C211.229 408.557 211.475 407.544 211.968 406.767C212.46 405.981 213.118 405.366 213.942 404.92C214.766 404.475 215.675 404.144 216.669 403.926C217.673 403.699 218.682 403.519 219.695 403.386C221.021 403.216 222.096 403.088 222.919 403.003C223.753 402.908 224.359 402.752 224.738 402.534C225.126 402.316 225.32 401.937 225.32 401.398V401.284C225.32 399.883 224.936 398.794 224.169 398.017C223.412 397.241 222.261 396.852 220.718 396.852C219.117 396.852 217.863 397.203 216.953 397.903C216.044 398.604 215.405 399.352 215.036 400.148L211.854 399.011C212.422 397.686 213.18 396.653 214.127 395.915C215.083 395.167 216.125 394.646 217.252 394.352C218.388 394.049 219.506 393.898 220.604 393.898C221.305 393.898 222.11 393.983 223.019 394.153C223.937 394.314 224.823 394.651 225.675 395.162C226.537 395.673 227.252 396.445 227.82 397.477C228.388 398.509 228.672 399.892 228.672 401.625V416H225.32V413.045H225.15C224.922 413.519 224.543 414.026 224.013 414.565C223.483 415.105 222.777 415.564 221.897 415.943C221.016 416.322 219.941 416.511 218.672 416.511ZM219.184 413.5C220.509 413.5 221.627 413.24 222.536 412.719C223.454 412.198 224.146 411.526 224.61 410.702C225.083 409.878 225.32 409.011 225.32 408.102V405.034C225.178 405.205 224.865 405.361 224.382 405.503C223.909 405.635 223.36 405.754 222.735 405.858C222.119 405.953 221.518 406.038 220.931 406.114C220.353 406.18 219.884 406.237 219.525 406.284C218.653 406.398 217.839 406.582 217.081 406.838C216.333 407.084 215.727 407.458 215.263 407.96C214.809 408.453 214.581 409.125 214.581 409.977C214.581 411.142 215.012 412.023 215.874 412.619C216.745 413.206 217.848 413.5 219.184 413.5ZM234.791 424.182V394.182H238.029V397.648H238.427C238.673 397.269 239.014 396.786 239.45 396.199C239.895 395.602 240.529 395.072 241.353 394.608C242.187 394.134 243.314 393.898 244.734 393.898C246.571 393.898 248.19 394.357 249.592 395.276C250.993 396.194 252.087 397.496 252.873 399.182C253.659 400.867 254.052 402.856 254.052 405.148C254.052 407.458 253.659 409.461 252.873 411.156C252.087 412.842 250.998 414.149 249.606 415.077C248.214 415.995 246.609 416.455 244.791 416.455C243.389 416.455 242.267 416.223 241.424 415.759C240.582 415.285 239.933 414.75 239.478 414.153C239.024 413.547 238.673 413.045 238.427 412.648H238.143V424.182H234.791ZM238.086 405.091C238.086 406.739 238.328 408.192 238.811 409.452C239.294 410.702 239.999 411.682 240.927 412.392C241.855 413.093 242.992 413.443 244.336 413.443C245.738 413.443 246.907 413.074 247.845 412.335C248.792 411.587 249.502 410.583 249.975 409.324C250.458 408.055 250.7 406.644 250.7 405.091C250.7 403.557 250.463 402.174 249.99 400.943C249.526 399.703 248.82 398.723 247.873 398.003C246.936 397.274 245.757 396.909 244.336 396.909C242.973 396.909 241.827 397.255 240.899 397.946C239.971 398.628 239.27 399.584 238.797 400.815C238.323 402.037 238.086 403.462 238.086 405.091ZM282.348 411.455L289.961 394.182H293.143L283.711 416H280.984L271.723 394.182H274.848L282.348 411.455ZM273.768 394.182V416H270.416V394.182H273.768ZM290.927 416V394.182H294.279V416H290.927ZM306.836 416.511C305.454 416.511 304.199 416.251 303.072 415.73C301.945 415.2 301.05 414.438 300.387 413.443C299.725 412.439 299.393 411.227 299.393 409.807C299.393 408.557 299.639 407.544 300.132 406.767C300.624 405.981 301.282 405.366 302.106 404.92C302.93 404.475 303.839 404.144 304.833 403.926C305.837 403.699 306.846 403.519 307.859 403.386C309.185 403.216 310.26 403.088 311.083 403.003C311.917 402.908 312.523 402.752 312.902 402.534C313.29 402.316 313.484 401.937 313.484 401.398V401.284C313.484 399.883 313.1 398.794 312.333 398.017C311.576 397.241 310.425 396.852 308.882 396.852C307.281 396.852 306.027 397.203 305.118 397.903C304.208 398.604 303.569 399.352 303.2 400.148L300.018 399.011C300.586 397.686 301.344 396.653 302.291 395.915C303.247 395.167 304.289 394.646 305.416 394.352C306.552 394.049 307.67 393.898 308.768 393.898C309.469 393.898 310.274 393.983 311.183 394.153C312.101 394.314 312.987 394.651 313.839 395.162C314.701 395.673 315.416 396.445 315.984 397.477C316.552 398.509 316.836 399.892 316.836 401.625V416H313.484V413.045H313.314C313.086 413.519 312.708 414.026 312.177 414.565C311.647 415.105 310.941 415.564 310.061 415.943C309.18 416.322 308.105 416.511 306.836 416.511ZM307.348 413.5C308.673 413.5 309.791 413.24 310.7 412.719C311.618 412.198 312.31 411.526 312.774 410.702C313.247 409.878 313.484 409.011 313.484 408.102V405.034C313.342 405.205 313.029 405.361 312.547 405.503C312.073 405.635 311.524 405.754 310.899 405.858C310.283 405.953 309.682 406.038 309.095 406.114C308.517 406.18 308.048 406.237 307.689 406.284C306.817 406.398 306.003 406.582 305.245 406.838C304.497 407.084 303.891 407.458 303.427 407.96C302.973 408.453 302.745 409.125 302.745 409.977C302.745 411.142 303.176 412.023 304.038 412.619C304.909 413.206 306.012 413.5 307.348 413.5ZM322.955 394.182H326.307V412.875H334.546V394.182H337.898V412.875H346.137V394.182H349.489V416H322.955V394.182ZM369.361 394.182L374.588 403.102L379.816 394.182H383.679L376.634 405.091L383.679 416H379.816L374.588 407.534L369.361 416H365.498L372.429 405.091L365.498 394.182H369.361ZM390.622 424.182C390.054 424.182 389.547 424.134 389.102 424.04C388.657 423.955 388.349 423.869 388.179 423.784L389.031 420.83C389.845 421.038 390.565 421.114 391.19 421.057C391.815 421 392.369 420.721 392.852 420.219C393.344 419.726 393.794 418.926 394.201 417.818L394.826 416.114L386.758 394.182H390.395L396.417 411.568H396.645L402.667 394.182H406.304L397.042 419.182C396.626 420.309 396.109 421.241 395.494 421.98C394.878 422.728 394.163 423.282 393.349 423.642C392.544 424.002 391.635 424.182 390.622 424.182ZM410.728 424.182V394.182H413.967V397.648H414.365C414.611 397.269 414.952 396.786 415.387 396.199C415.833 395.602 416.467 395.072 417.291 394.608C418.124 394.134 419.251 393.898 420.672 393.898C422.509 393.898 424.128 394.357 425.529 395.276C426.931 396.194 428.025 397.496 428.811 399.182C429.597 400.867 429.99 402.856 429.99 405.148C429.99 407.458 429.597 409.461 428.811 411.156C428.025 412.842 426.936 414.149 425.544 415.077C424.152 415.995 422.547 416.455 420.728 416.455C419.327 416.455 418.205 416.223 417.362 415.759C416.519 415.285 415.87 414.75 415.416 414.153C414.961 413.547 414.611 413.045 414.365 412.648H414.081V424.182H410.728ZM414.024 405.091C414.024 406.739 414.265 408.192 414.748 409.452C415.231 410.702 415.937 411.682 416.865 412.392C417.793 413.093 418.929 413.443 420.274 413.443C421.675 413.443 422.845 413.074 423.782 412.335C424.729 411.587 425.44 410.583 425.913 409.324C426.396 408.055 426.637 406.644 426.637 405.091C426.637 403.557 426.401 402.174 425.927 400.943C425.463 399.703 424.758 398.723 423.811 398.003C422.873 397.274 421.694 396.909 420.274 396.909C418.91 396.909 417.764 397.255 416.836 397.946C415.908 398.628 415.208 399.584 414.734 400.815C414.261 402.037 414.024 403.462 414.024 405.091ZM432.774 422.25V412.875H434.592C435.037 412.411 435.421 411.909 435.743 411.369C436.065 410.83 436.344 410.19 436.581 409.452C436.827 408.704 437.035 407.795 437.206 406.724C437.376 405.645 437.528 404.343 437.66 402.818L438.399 394.182H452.262V412.875H455.615V422.25H452.262V416H436.126V422.25H432.774ZM438.399 412.875H448.91V397.307H441.524L440.956 402.818C440.719 405.1 440.425 407.094 440.075 408.798C439.725 410.503 439.166 411.862 438.399 412.875ZM466.485 416.511C465.102 416.511 463.847 416.251 462.721 415.73C461.594 415.2 460.699 414.438 460.036 413.443C459.373 412.439 459.042 411.227 459.042 409.807C459.042 408.557 459.288 407.544 459.78 406.767C460.273 405.981 460.931 405.366 461.755 404.92C462.578 404.475 463.488 404.144 464.482 403.926C465.486 403.699 466.494 403.519 467.507 403.386C468.833 403.216 469.908 403.088 470.732 403.003C471.565 402.908 472.171 402.752 472.55 402.534C472.938 402.316 473.132 401.937 473.132 401.398V401.284C473.132 399.883 472.749 398.794 471.982 398.017C471.224 397.241 470.074 396.852 468.53 396.852C466.93 396.852 465.675 397.203 464.766 397.903C463.857 398.604 463.218 399.352 462.848 400.148L459.667 399.011C460.235 397.686 460.992 396.653 461.939 395.915C462.896 395.167 463.937 394.646 465.064 394.352C466.201 394.049 467.318 393.898 468.417 393.898C469.117 393.898 469.922 393.983 470.831 394.153C471.75 394.314 472.635 394.651 473.488 395.162C474.349 395.673 475.064 396.445 475.632 397.477C476.201 398.509 476.485 399.892 476.485 401.625V416H473.132V413.045H472.962C472.735 413.519 472.356 414.026 471.826 414.565C471.295 415.105 470.59 415.564 469.709 415.943C468.828 416.322 467.754 416.511 466.485 416.511ZM466.996 413.5C468.322 413.5 469.439 413.24 470.348 412.719C471.267 412.198 471.958 411.526 472.422 410.702C472.896 409.878 473.132 409.011 473.132 408.102V405.034C472.99 405.205 472.678 405.361 472.195 405.503C471.721 405.635 471.172 405.754 470.547 405.858C469.932 405.953 469.33 406.038 468.743 406.114C468.166 406.18 467.697 406.237 467.337 406.284C466.466 406.398 465.651 406.582 464.894 406.838C464.146 407.084 463.54 407.458 463.076 407.96C462.621 408.453 462.394 409.125 462.394 409.977C462.394 411.142 462.825 412.023 463.686 412.619C464.558 413.206 465.661 413.5 466.996 413.5ZM497.206 403.557V406.682H485.16V403.557H497.206ZM485.956 394.182V416H482.603V394.182H485.956ZM499.762 394.182V416H496.41V394.182H499.762ZM533.64 403.642V406.54H518.356V403.642H533.64ZM525.998 416.455C524.029 416.455 522.3 415.986 520.814 415.048C519.336 414.111 518.181 412.799 517.348 411.114C516.524 409.428 516.112 407.458 516.112 405.205C516.112 402.932 516.524 400.948 517.348 399.253C518.181 397.558 519.336 396.241 520.814 395.304C522.3 394.366 524.029 393.898 525.998 393.898C527.968 393.898 529.691 394.366 531.169 395.304C532.655 396.241 533.811 397.558 534.635 399.253C535.468 400.948 535.885 402.932 535.885 405.205C535.885 407.458 535.468 409.428 534.635 411.114C533.811 412.799 532.655 414.111 531.169 415.048C529.691 415.986 527.968 416.455 525.998 416.455ZM525.998 413.443C527.494 413.443 528.725 413.06 529.691 412.293C530.657 411.526 531.372 410.517 531.836 409.267C532.3 408.017 532.532 406.663 532.532 405.205C532.532 403.746 532.3 402.387 531.836 401.128C531.372 399.868 530.657 398.85 529.691 398.074C528.725 397.297 527.494 396.909 525.998 396.909C524.502 396.909 523.271 397.297 522.305 398.074C521.339 398.85 520.624 399.868 520.16 401.128C519.696 402.387 519.464 403.746 519.464 405.205C519.464 406.663 519.696 408.017 520.16 409.267C520.624 410.517 521.339 411.526 522.305 412.293C523.271 413.06 524.502 413.443 525.998 413.443ZM557.507 403.642V406.54H542.223V403.642H557.507ZM549.865 416.455C547.896 416.455 546.167 415.986 544.681 415.048C543.203 414.111 542.048 412.799 541.215 411.114C540.391 409.428 539.979 407.458 539.979 405.205C539.979 402.932 540.391 400.948 541.215 399.253C542.048 397.558 543.203 396.241 544.681 395.304C546.167 394.366 547.896 393.898 549.865 393.898C551.835 393.898 553.559 394.366 555.036 395.304C556.523 396.241 557.678 397.558 558.502 399.253C559.335 400.948 559.752 402.932 559.752 405.205C559.752 407.458 559.335 409.428 558.502 411.114C557.678 412.799 556.523 414.111 555.036 415.048C553.559 415.986 551.835 416.455 549.865 416.455ZM549.865 413.443C551.362 413.443 552.593 413.06 553.559 412.293C554.525 411.526 555.239 410.517 555.703 409.267C556.167 408.017 556.4 406.663 556.4 405.205C556.4 403.746 556.167 402.387 555.703 401.128C555.239 399.868 554.525 398.85 553.559 398.074C552.593 397.297 551.362 396.909 549.865 396.909C548.369 396.909 547.138 397.297 546.172 398.074C545.206 398.85 544.491 399.868 544.027 401.128C543.563 402.387 543.331 403.746 543.331 405.205C543.331 406.663 543.563 408.017 544.027 409.267C544.491 410.517 545.206 411.526 546.172 412.293C547.138 413.06 548.369 413.443 549.865 413.443ZM564.869 424.182V394.182H568.108V397.648H568.505C568.752 397.269 569.092 396.786 569.528 396.199C569.973 395.602 570.608 395.072 571.431 394.608C572.265 394.134 573.392 393.898 574.812 393.898C576.649 393.898 578.269 394.357 579.67 395.276C581.072 396.194 582.165 397.496 582.951 399.182C583.737 400.867 584.13 402.856 584.13 405.148C584.13 407.458 583.737 409.461 582.951 411.156C582.165 412.842 581.076 414.149 579.684 415.077C578.292 415.995 576.687 416.455 574.869 416.455C573.467 416.455 572.345 416.223 571.502 415.759C570.66 415.285 570.011 414.75 569.556 414.153C569.102 413.547 568.752 413.045 568.505 412.648H568.221V424.182H564.869ZM568.164 405.091C568.164 406.739 568.406 408.192 568.889 409.452C569.372 410.702 570.077 411.682 571.005 412.392C571.933 413.093 573.07 413.443 574.414 413.443C575.816 413.443 576.985 413.074 577.923 412.335C578.87 411.587 579.58 410.583 580.054 409.324C580.537 408.055 580.778 406.644 580.778 405.091C580.778 403.557 580.541 402.174 580.068 400.943C579.604 399.703 578.898 398.723 577.951 398.003C577.014 397.274 575.835 396.909 574.414 396.909C573.051 396.909 571.905 397.255 570.977 397.946C570.049 398.628 569.348 399.584 568.875 400.815C568.401 402.037 568.164 403.462 568.164 405.091ZM606.062 394.182V416H602.71V394.182H606.062ZM604.755 404.58V407.705C603.998 407.989 603.245 408.24 602.497 408.457C601.749 408.666 600.963 408.831 600.139 408.955C599.315 409.068 598.411 409.125 597.426 409.125C594.954 409.125 592.97 408.457 591.474 407.122C589.987 405.787 589.244 403.784 589.244 401.114V394.125H592.596V401.114C592.596 402.231 592.809 403.15 593.235 403.869C593.662 404.589 594.239 405.124 594.968 405.474C595.698 405.825 596.517 406 597.426 406C598.846 406 600.129 405.872 601.275 405.616C602.431 405.351 603.591 405.006 604.755 404.58ZM610.281 416V412.875H611.076C611.73 412.875 612.274 412.747 612.71 412.491C613.145 412.226 613.496 411.767 613.761 411.114C614.036 410.451 614.244 409.532 614.386 408.358C614.538 407.174 614.646 405.669 614.713 403.841L615.11 394.182H629.656V416H626.304V397.307H618.292L617.951 405.091C617.876 406.881 617.715 408.457 617.468 409.821C617.232 411.175 616.867 412.312 616.375 413.23C615.892 414.149 615.248 414.84 614.443 415.304C613.638 415.768 612.629 416 611.417 416H610.281ZM652.312 403.642V406.54H637.028V403.642H652.312ZM644.67 416.455C642.7 416.455 640.972 415.986 639.485 415.048C638.008 414.111 636.853 412.799 636.02 411.114C635.196 409.428 634.784 407.458 634.784 405.205C634.784 402.932 635.196 400.948 636.02 399.253C636.853 397.558 638.008 396.241 639.485 395.304C640.972 394.366 642.7 393.898 644.67 393.898C646.64 393.898 648.363 394.366 649.841 395.304C651.327 396.241 652.483 397.558 653.306 399.253C654.14 400.948 654.556 402.932 654.556 405.205C654.556 407.458 654.14 409.428 653.306 411.114C652.483 412.799 651.327 414.111 649.841 415.048C648.363 415.986 646.64 416.455 644.67 416.455ZM644.67 413.443C646.166 413.443 647.397 413.06 648.363 412.293C649.329 411.526 650.044 410.517 650.508 409.267C650.972 408.017 651.204 406.663 651.204 405.205C651.204 403.746 650.972 402.387 650.508 401.128C650.044 399.868 649.329 398.85 648.363 398.074C647.397 397.297 646.166 396.909 644.67 396.909C643.174 396.909 641.943 397.297 640.977 398.074C640.011 398.85 639.296 399.868 638.832 401.128C638.368 402.387 638.136 403.746 638.136 405.205C638.136 406.663 638.368 408.017 638.832 409.267C639.296 410.517 640.011 411.526 640.977 412.293C641.943 413.06 643.174 413.443 644.67 413.443ZM673.14 394.182V397.307H663.026V416H659.674V394.182H673.14ZM673.868 422.25V412.875H675.686C676.131 412.411 676.514 411.909 676.836 411.369C677.158 410.83 677.438 410.19 677.674 409.452C677.921 408.704 678.129 407.795 678.299 406.724C678.47 405.645 678.621 404.343 678.754 402.818L679.493 394.182H693.356V412.875H696.708V422.25H693.356V416H677.22V422.25H673.868ZM679.493 412.875H690.004V397.307H682.618L682.049 402.818C681.813 405.1 681.519 407.094 681.169 408.798C680.818 410.503 680.26 411.862 679.493 412.875ZM698.828 422.25V412.875H700.647C701.092 412.411 701.475 411.909 701.797 411.369C702.119 410.83 702.399 410.19 702.635 409.452C702.882 408.704 703.09 407.795 703.26 406.724C703.431 405.645 703.582 404.343 703.715 402.818L704.453 394.182H718.317V412.875H721.669V422.25H718.317V416H702.181V422.25H698.828ZM704.453 412.875H714.965V397.307H707.578L707.01 402.818C706.774 405.1 706.48 407.094 706.13 408.798C705.779 410.503 705.221 411.862 704.453 412.875ZM742.625 403.642V406.54H727.341V403.642H742.625ZM734.983 416.455C733.013 416.455 731.285 415.986 729.798 415.048C728.321 414.111 727.165 412.799 726.332 411.114C725.508 409.428 725.096 407.458 725.096 405.205C725.096 402.932 725.508 400.948 726.332 399.253C727.165 397.558 728.321 396.241 729.798 395.304C731.285 394.366 733.013 393.898 734.983 393.898C736.952 393.898 738.676 394.366 740.153 395.304C741.64 396.241 742.795 397.558 743.619 399.253C744.452 400.948 744.869 402.932 744.869 405.205C744.869 407.458 744.452 409.428 743.619 411.114C742.795 412.799 741.64 414.111 740.153 415.048C738.676 415.986 736.952 416.455 734.983 416.455ZM734.983 413.443C736.479 413.443 737.71 413.06 738.676 412.293C739.642 411.526 740.357 410.517 740.821 409.267C741.285 408.017 741.517 406.663 741.517 405.205C741.517 403.746 741.285 402.387 740.821 401.128C740.357 399.868 739.642 398.85 738.676 398.074C737.71 397.297 736.479 396.909 734.983 396.909C733.486 396.909 732.255 397.297 731.289 398.074C730.324 398.85 729.609 399.868 729.145 401.128C728.681 402.387 728.449 403.746 728.449 405.205C728.449 406.663 728.681 408.017 729.145 409.267C729.609 410.517 730.324 411.526 731.289 412.293C732.255 413.06 733.486 413.443 734.983 413.443ZM763.452 394.182V397.307H753.338V416H749.986V394.182H763.452ZM767.156 416.227C766.455 416.227 765.854 415.976 765.352 415.474C764.85 414.973 764.599 414.371 764.599 413.67C764.599 412.97 764.85 412.368 765.352 411.866C765.854 411.365 766.455 411.114 767.156 411.114C767.857 411.114 768.458 411.365 768.96 411.866C769.462 412.368 769.713 412.97 769.713 413.67C769.713 414.134 769.594 414.561 769.358 414.949C769.13 415.337 768.823 415.65 768.434 415.886C768.056 416.114 767.629 416.227 767.156 416.227Z" fill="black"/>
<defs>
<filter id="filter0_ddii_398_56" x="0" y="0" width="834" height="484" filterUnits="userSpaceOnUse" color-interpolation-filters="sRGB">
<feFlood flood-opacity="0" result="BackgroundImageFix"/>
<feColorMatrix in="SourceAlpha" type="matrix" values="0 0 0 0 0 0 0 0 0 0 0 0 0 0 0 0 0 0 127 0" result="hardAlpha"/>
<feMorphology radius="5" operator="dilate" in="SourceAlpha" result="effect1_dropShadow_398_56"/>
<feOffset dx="-10" dy="-10"/>
<feGaussianBlur stdDeviation="2.5"/>
<feComposite in2="hardAlpha" operator="out"/>
<feColorMatrix type="matrix" values="0 0 0 0 0.133333 0 0 0 0 0.0117647 0 0 0 0 0.396078 0 0 0 0.25 0"/>
<feBlend mode="normal" in2="BackgroundImageFix" result="effect1_dropShadow_398_56"/>
<feColorMatrix in="SourceAlpha" type="matrix" values="0 0 0 0 0 0 0 0 0 0 0 0 0 0 0 0 0 0 127 0" result="hardAlpha"/>
<feMorphology radius="5" operator="dilate" in="SourceAlpha" result="effect2_dropShadow_398_56"/>
<feOffset dx="10" dy="10"/>
<feGaussianBlur stdDeviation="2.5"/>
<feComposite in2="hardAlpha" operator="out"/>
<feColorMatrix type="matrix" values="0 0 0 0 0.133941 0 0 0 0 0.0133056 0 0 0 0 0.395808 0 0 0 0.25 0"/>
<feBlend mode="normal" in2="effect1_dropShadow_398_56" result="effect2_dropShadow_398_56"/>
<feBlend mode="normal" in="SourceGraphic" in2="effect2_dropShadow_398_56" result="shape"/>
<feColorMatrix in="SourceAlpha" type="matrix" values="0 0 0 0 0 0 0 0 0 0 0 0 0 0 0 0 0 0 127 0" result="hardAlpha"/>
<feMorphology radius="5" operator="erode" in="SourceAlpha" result="effect3_innerShadow_398_56"/>
<feOffset dx="-10" dy="-10"/>
<feGaussianBlur stdDeviation="2.5"/>
<feComposite in2="hardAlpha" operator="arithmetic" k2="-1" k3="1"/>
<feColorMatrix type="matrix" values="0 0 0 0 0.509804 0 0 0 0 0.337255 0 0 0 0 0.721569 0 0 0 0.16 0"/>
<feBlend mode="normal" in2="shape" result="effect3_innerShadow_398_56"/>
<feColorMatrix in="SourceAlpha" type="matrix" values="0 0 0 0 0 0 0 0 0 0 0 0 0 0 0 0 0 0 127 0" result="hardAlpha"/>
<feMorphology radius="5" operator="erode" in="SourceAlpha" result="effect4_innerShadow_398_56"/>
<feOffset dx="10" dy="10"/>
<feGaussianBlur stdDeviation="2.5"/>
<feComposite in2="hardAlpha" operator="arithmetic" k2="-1" k3="1"/>
<feColorMatrix type="matrix" values="0 0 0 0 0.505882 0 0 0 0 0.329412 0 0 0 0 0.72549 0 0 0 0.16 0"/>
<feBlend mode="normal" in2="effect3_innerShadow_398_56" result="effect4_innerShadow_398_56"/>
</filter>
</defs>
</svg>
