<svg width="834" height="484" viewBox="0 0 834 484" fill="none" xmlns="http://www.w3.org/2000/svg">
<g filter="url(#filter0_ddii_398_56)">
<rect x="20" y="20" width="794" height="444" rx="60" fill="#7E40D0" fill-opacity="0.5" shape-rendering="crispEdges"/>
<rect x="20.5" y="20.5" width="793" height="443" rx="59.5" stroke="#C53D41" shape-rendering="crispEdges"/>
</g>
<path d="M367.523 76V46.9091H385.08V50.0341H371.045V59.125H378.432C380.515 59.125 382.272 59.4659 383.702 60.1477C385.141 60.8295 386.23 61.7907 386.969 63.0312C387.717 64.2718 388.091 65.7348 388.091 67.4205C388.091 69.1061 387.717 70.5928 386.969 71.8807C386.23 73.1686 385.141 74.1771 383.702 74.9062C382.272 75.6354 380.515 76 378.432 76H367.523ZM371.045 72.9318H378.432C379.758 72.9318 380.88 72.6667 381.798 72.1364C382.726 71.5966 383.427 70.9053 383.901 70.0625C384.384 69.2102 384.625 68.3106 384.625 67.3636C384.625 65.9716 384.09 64.7737 383.02 63.7699C381.95 62.7566 380.42 62.25 378.432 62.25H371.045V72.9318ZM395.594 84.1818C395.026 84.1818 394.52 84.1345 394.075 84.0398C393.629 83.9545 393.322 83.8693 393.151 83.7841L394.004 80.8295C394.818 81.0379 395.538 81.1136 396.163 81.0568C396.788 81 397.342 80.7206 397.825 80.2188C398.317 79.7263 398.767 78.9261 399.174 77.8182L399.799 76.1136L391.731 54.1818H395.367L401.39 71.5682H401.617L407.64 54.1818H411.276L402.015 79.1818C401.598 80.3087 401.082 81.2415 400.467 81.9801C399.851 82.7282 399.136 83.2822 398.322 83.642C397.517 84.0019 396.608 84.1818 395.594 84.1818ZM411.536 82.25V72.875H413.354C413.799 72.411 414.182 71.9091 414.504 71.3693C414.826 70.8295 415.106 70.1903 415.342 69.4517C415.589 68.7036 415.797 67.7945 415.967 66.7244C416.138 65.6449 416.289 64.3428 416.422 62.8182L417.161 54.1818H431.024V72.875H434.376V82.25H431.024V76H414.888V82.25H411.536ZM417.161 72.875H427.672V57.3068H420.286L419.717 62.8182C419.481 65.1004 419.187 67.0937 418.837 68.7983C418.486 70.5028 417.928 71.8617 417.161 72.875ZM49 126.8H89V86.8H49V126.8ZM102.182 98.0341V94.9091H124V98.0341H114.852V124H111.33V98.0341H102.182ZM132.434 124.511C131.051 124.511 129.797 124.251 128.67 123.73C127.543 123.2 126.648 122.438 125.985 121.443C125.322 120.439 124.991 119.227 124.991 117.807C124.991 116.557 125.237 115.544 125.729 114.767C126.222 113.981 126.88 113.366 127.704 112.92C128.528 112.475 129.437 112.144 130.431 111.926C131.435 111.699 132.443 111.519 133.457 111.386C134.782 111.216 135.857 111.088 136.681 111.003C137.514 110.908 138.121 110.752 138.499 110.534C138.888 110.316 139.082 109.937 139.082 109.398V109.284C139.082 107.883 138.698 106.794 137.931 106.017C137.174 105.241 136.023 104.852 134.479 104.852C132.879 104.852 131.624 105.203 130.715 105.903C129.806 106.604 129.167 107.352 128.798 108.148L125.616 107.011C126.184 105.686 126.942 104.653 127.888 103.915C128.845 103.167 129.887 102.646 131.013 102.352C132.15 102.049 133.267 101.898 134.366 101.898C135.067 101.898 135.871 101.983 136.781 102.153C137.699 102.314 138.585 102.651 139.437 103.162C140.299 103.673 141.013 104.445 141.582 105.477C142.15 106.509 142.434 107.892 142.434 109.625V124H139.082V121.045H138.911C138.684 121.519 138.305 122.026 137.775 122.565C137.245 123.105 136.539 123.564 135.658 123.943C134.778 124.322 133.703 124.511 132.434 124.511ZM132.945 121.5C134.271 121.5 135.388 121.24 136.298 120.719C137.216 120.198 137.907 119.526 138.371 118.702C138.845 117.878 139.082 117.011 139.082 116.102V113.034C138.94 113.205 138.627 113.361 138.144 113.503C137.671 113.635 137.121 113.754 136.496 113.858C135.881 113.953 135.28 114.038 134.692 114.114C134.115 114.18 133.646 114.237 133.286 114.284C132.415 114.398 131.601 114.582 130.843 114.838C130.095 115.084 129.489 115.458 129.025 115.96C128.57 116.453 128.343 117.125 128.343 117.977C128.343 119.142 128.774 120.023 129.636 120.619C130.507 121.206 131.61 121.5 132.945 121.5ZM145.584 105.307V102.182H163.311V105.307H156.152V124H152.8V105.307H145.584ZM173.489 124.511C172.106 124.511 170.851 124.251 169.724 123.73C168.598 123.2 167.703 122.438 167.04 121.443C166.377 120.439 166.045 119.227 166.045 117.807C166.045 116.557 166.292 115.544 166.784 114.767C167.277 113.981 167.935 113.366 168.759 112.92C169.582 112.475 170.491 112.144 171.486 111.926C172.49 111.699 173.498 111.519 174.511 111.386C175.837 111.216 176.912 111.088 177.736 111.003C178.569 110.908 179.175 110.752 179.554 110.534C179.942 110.316 180.136 109.937 180.136 109.398V109.284C180.136 107.883 179.753 106.794 178.986 106.017C178.228 105.241 177.078 104.852 175.534 104.852C173.934 104.852 172.679 105.203 171.77 105.903C170.861 106.604 170.222 107.352 169.852 108.148L166.67 107.011C167.239 105.686 167.996 104.653 168.943 103.915C169.9 103.167 170.941 102.646 172.068 102.352C173.205 102.049 174.322 101.898 175.42 101.898C176.121 101.898 176.926 101.983 177.835 102.153C178.754 102.314 179.639 102.651 180.491 103.162C181.353 103.673 182.068 104.445 182.636 105.477C183.205 106.509 183.489 107.892 183.489 109.625V124H180.136V121.045H179.966C179.739 121.519 179.36 122.026 178.83 122.565C178.299 123.105 177.594 123.564 176.713 123.943C175.832 124.322 174.758 124.511 173.489 124.511ZM174 121.5C175.326 121.5 176.443 121.24 177.352 120.719C178.271 120.198 178.962 119.526 179.426 118.702C179.9 117.878 180.136 117.011 180.136 116.102V113.034C179.994 113.205 179.682 113.361 179.199 113.503C178.725 113.635 178.176 113.754 177.551 113.858C176.936 113.953 176.334 114.038 175.747 114.114C175.17 114.18 174.701 114.237 174.341 114.284C173.47 114.398 172.655 114.582 171.898 114.838C171.15 115.084 170.544 115.458 170.08 115.96C169.625 116.453 169.398 117.125 169.398 117.977C169.398 119.142 169.829 120.023 170.69 120.619C171.562 121.206 172.665 121.5 174 121.5ZM192.107 102.182L197.335 111.102L202.562 102.182H206.425L199.38 113.091L206.425 124H202.562L197.335 115.534L192.107 124H188.244L195.175 113.091L188.244 102.182H192.107ZM224.959 102.182L230.186 111.102L235.413 102.182H239.277L232.232 113.091L239.277 124H235.413L230.186 115.534L224.959 124H221.095L228.027 113.091L221.095 102.182H224.959ZM242.356 102.182H245.992L251.731 118.773L257.356 102.182H260.992L253.379 123.545V132.182H250.026V123.545L242.356 102.182ZM281.582 102.182V124H278.229V102.182H281.582ZM280.275 112.58V115.705C279.517 115.989 278.764 116.24 278.016 116.457C277.268 116.666 276.482 116.831 275.658 116.955C274.835 117.068 273.93 117.125 272.945 117.125C270.474 117.125 268.49 116.457 266.994 115.122C265.507 113.787 264.763 111.784 264.763 109.114V102.125H268.116V109.114C268.116 110.231 268.329 111.15 268.755 111.869C269.181 112.589 269.759 113.124 270.488 113.474C271.217 113.825 272.036 114 272.945 114C274.366 114 275.649 113.872 276.795 113.616C277.95 113.351 279.11 113.006 280.275 112.58ZM402.675 120.278C401.975 120.278 401.373 120.027 400.871 119.526C400.37 119.024 400.119 118.422 400.119 117.722C400.119 117.021 400.37 116.42 400.871 115.918C401.373 115.416 401.975 115.165 402.675 115.165C403.376 115.165 403.978 115.416 404.479 115.918C404.981 116.42 405.232 117.021 405.232 117.722C405.232 118.186 405.114 118.612 404.877 119C404.65 119.388 404.342 119.701 403.954 119.938C403.575 120.165 403.149 120.278 402.675 120.278ZM402.675 105.562C401.975 105.562 401.373 105.312 400.871 104.81C400.37 104.308 400.119 103.706 400.119 103.006C400.119 102.305 400.37 101.704 400.871 101.202C401.373 100.7 401.975 100.449 402.675 100.449C403.376 100.449 403.978 100.7 404.479 101.202C404.981 101.704 405.232 102.305 405.232 103.006C405.232 103.47 405.114 103.896 404.877 104.284C404.65 104.672 404.342 104.985 403.954 105.222C403.575 105.449 403.149 105.562 402.675 105.562ZM432.271 124.398C430.396 124.398 428.724 124.076 427.256 123.432C425.798 122.788 424.638 121.893 423.776 120.747C422.924 119.592 422.46 118.252 422.384 116.727H425.964C426.04 117.665 426.362 118.474 426.93 119.156C427.498 119.829 428.241 120.349 429.16 120.719C430.078 121.088 431.096 121.273 432.214 121.273C433.464 121.273 434.572 121.055 435.538 120.619C436.504 120.184 437.261 119.578 437.81 118.801C438.36 118.025 438.634 117.125 438.634 116.102C438.634 115.032 438.369 114.09 437.839 113.276C437.308 112.452 436.532 111.808 435.509 111.344C434.487 110.88 433.237 110.648 431.759 110.648H429.43V107.523H431.759C432.915 107.523 433.928 107.314 434.799 106.898C435.68 106.481 436.366 105.894 436.859 105.136C437.361 104.379 437.612 103.489 437.612 102.466C437.612 101.481 437.394 100.624 436.958 99.8949C436.522 99.1657 435.907 98.5975 435.112 98.1903C434.326 97.7831 433.397 97.5795 432.327 97.5795C431.324 97.5795 430.377 97.7642 429.487 98.1335C428.606 98.4934 427.886 99.0189 427.327 99.7102C426.769 100.392 426.466 101.216 426.418 102.182H423.009C423.066 100.657 423.525 99.322 424.387 98.1761C425.249 97.0208 426.376 96.1212 427.768 95.4773C429.169 94.8333 430.708 94.5114 432.384 94.5114C434.183 94.5114 435.727 94.8759 437.015 95.6051C438.303 96.3248 439.292 97.2765 439.984 98.4602C440.675 99.6439 441.021 100.922 441.021 102.295C441.021 103.934 440.59 105.33 439.728 106.486C438.876 107.641 437.716 108.441 436.248 108.886V109.114C438.085 109.417 439.52 110.198 440.552 111.457C441.584 112.707 442.1 114.256 442.1 116.102C442.1 117.684 441.669 119.104 440.808 120.364C439.955 121.614 438.79 122.598 437.313 123.318C435.836 124.038 434.155 124.398 432.271 124.398ZM449.511 124.227C448.811 124.227 448.209 123.976 447.707 123.474C447.205 122.973 446.955 122.371 446.955 121.67C446.955 120.97 447.205 120.368 447.707 119.866C448.209 119.365 448.811 119.114 449.511 119.114C450.212 119.114 450.813 119.365 451.315 119.866C451.817 120.368 452.068 120.97 452.068 121.67C452.068 122.134 451.95 122.561 451.713 122.949C451.486 123.337 451.178 123.65 450.79 123.886C450.411 124.114 449.985 124.227 449.511 124.227ZM458.35 124L471.362 98.2614V98.0341H456.362V94.9091H474.998V98.2045L462.043 124H458.35ZM503.531 119.455L511.145 102.182H514.327L504.895 124H502.168L492.906 102.182H496.031L503.531 119.455ZM494.952 102.182V124H491.599V102.182H494.952ZM512.111 124V102.182H515.463V124H512.111ZM531.884 93.5455L522.509 128.375H519.44L528.815 93.5455H531.884ZM544.721 124.455C542.675 124.455 540.914 123.972 539.437 123.006C537.96 122.04 536.823 120.709 536.028 119.014C535.232 117.319 534.835 115.383 534.835 113.205C534.835 110.989 535.242 109.033 536.056 107.338C536.88 105.634 538.026 104.303 539.494 103.347C540.971 102.381 542.694 101.898 544.664 101.898C546.198 101.898 547.581 102.182 548.812 102.75C550.043 103.318 551.051 104.114 551.837 105.136C552.623 106.159 553.111 107.352 553.3 108.716H549.948C549.692 107.722 549.124 106.841 548.244 106.074C547.372 105.297 546.198 104.909 544.721 104.909C543.414 104.909 542.268 105.25 541.283 105.932C540.308 106.604 539.546 107.556 538.996 108.787C538.457 110.009 538.187 111.443 538.187 113.091C538.187 114.777 538.452 116.244 538.982 117.494C539.522 118.744 540.28 119.715 541.255 120.406C542.24 121.098 543.395 121.443 544.721 121.443C545.592 121.443 546.383 121.292 547.093 120.989C547.803 120.686 548.405 120.25 548.897 119.682C549.389 119.114 549.74 118.432 549.948 117.636H553.3C553.111 118.924 552.642 120.084 551.894 121.116C551.156 122.139 550.175 122.954 548.954 123.56C547.742 124.156 546.331 124.455 544.721 124.455ZM557.121 109.455V107.239L563.769 101.33C564.432 100.742 564.986 100.217 565.431 99.7528C565.876 99.2888 566.212 98.839 566.44 98.4034C566.667 97.9678 566.781 97.5038 566.781 97.0114C566.781 96.1591 566.454 95.482 565.8 94.9801C565.147 94.4782 564.337 94.2273 563.371 94.2273C562.349 94.2273 561.525 94.5019 560.9 95.0511C560.275 95.5909 559.962 96.3011 559.962 97.1818H557.008C557.008 95.5625 557.609 94.2604 558.812 93.2756C560.014 92.2812 561.553 91.7841 563.428 91.7841C564.678 91.7841 565.777 92.0114 566.724 92.4659C567.671 92.911 568.409 93.5265 568.94 94.3125C569.47 95.089 569.735 95.9697 569.735 96.9545C569.735 97.7311 569.579 98.4508 569.266 99.1136C568.954 99.7765 568.466 100.463 567.803 101.173C567.14 101.884 566.288 102.693 565.246 103.602L561.553 106.841V106.955H570.246V109.455H557.121ZM49 174.8H89V134.8H49V174.8ZM102.182 146.034V142.909H124V146.034H114.852V172H111.33V146.034H102.182ZM134.966 172.455C132.864 172.455 131.05 171.991 129.526 171.062C128.01 170.125 126.841 168.818 126.017 167.142C125.203 165.456 124.795 163.496 124.795 161.261C124.795 159.027 125.203 157.057 126.017 155.352C126.841 153.638 127.987 152.303 129.455 151.347C130.932 150.381 132.655 149.898 134.625 149.898C135.761 149.898 136.884 150.087 137.991 150.466C139.099 150.845 140.108 151.46 141.017 152.312C141.926 153.155 142.651 154.273 143.19 155.665C143.73 157.057 144 158.771 144 160.807V162.227H127.182V159.33H140.591C140.591 158.098 140.345 157 139.852 156.034C139.369 155.068 138.678 154.306 137.778 153.747C136.888 153.188 135.837 152.909 134.625 152.909C133.29 152.909 132.134 153.241 131.159 153.903C130.193 154.557 129.45 155.409 128.929 156.46C128.408 157.511 128.148 158.638 128.148 159.841V161.773C128.148 163.42 128.432 164.817 129 165.963C129.578 167.099 130.378 167.966 131.401 168.562C132.423 169.15 133.612 169.443 134.966 169.443C135.847 169.443 136.642 169.32 137.352 169.074C138.072 168.818 138.692 168.439 139.213 167.938C139.734 167.426 140.136 166.792 140.42 166.034L143.659 166.943C143.318 168.042 142.745 169.008 141.94 169.841C141.135 170.665 140.141 171.309 138.957 171.773C137.774 172.227 136.443 172.455 134.966 172.455ZM161.031 167.455L168.645 150.182H171.827L162.395 172H159.668L150.406 150.182H153.531L161.031 167.455ZM152.452 150.182V172H149.099V150.182H152.452ZM169.611 172V150.182H172.963V172H169.611ZM179.099 172V150.182H196.259V172H192.906V153.307H182.452V172H179.099ZM211.528 172.455C209.426 172.455 207.613 171.991 206.088 171.062C204.573 170.125 203.403 168.818 202.58 167.142C201.765 165.456 201.358 163.496 201.358 161.261C201.358 159.027 201.765 157.057 202.58 155.352C203.403 153.638 204.549 152.303 206.017 151.347C207.494 150.381 209.218 149.898 211.188 149.898C212.324 149.898 213.446 150.087 214.554 150.466C215.662 150.845 216.67 151.46 217.58 152.312C218.489 153.155 219.213 154.273 219.753 155.665C220.293 157.057 220.562 158.771 220.562 160.807V162.227H203.744V159.33H217.153C217.153 158.098 216.907 157 216.415 156.034C215.932 155.068 215.241 154.306 214.341 153.747C213.451 153.188 212.4 152.909 211.188 152.909C209.852 152.909 208.697 153.241 207.722 153.903C206.756 154.557 206.012 155.409 205.491 156.46C204.971 157.511 204.71 158.638 204.71 159.841V161.773C204.71 163.42 204.994 164.817 205.562 165.963C206.14 167.099 206.94 167.966 207.963 168.562C208.986 169.15 210.174 169.443 211.528 169.443C212.409 169.443 213.205 169.32 213.915 169.074C214.634 168.818 215.255 168.439 215.776 167.938C216.296 167.426 216.699 166.792 216.983 166.034L220.222 166.943C219.881 168.042 219.308 169.008 218.503 169.841C217.698 170.665 216.704 171.309 215.52 171.773C214.336 172.227 213.006 172.455 211.528 172.455ZM225.662 180.182V150.182H228.901V153.648H229.298C229.545 153.269 229.885 152.786 230.321 152.199C230.766 151.602 231.401 151.072 232.224 150.608C233.058 150.134 234.185 149.898 235.605 149.898C237.442 149.898 239.062 150.357 240.463 151.276C241.865 152.194 242.958 153.496 243.744 155.182C244.53 156.867 244.923 158.856 244.923 161.148C244.923 163.458 244.53 165.461 243.744 167.156C242.958 168.842 241.869 170.149 240.477 171.077C239.085 171.995 237.48 172.455 235.662 172.455C234.26 172.455 233.138 172.223 232.295 171.759C231.453 171.285 230.804 170.75 230.349 170.153C229.895 169.547 229.545 169.045 229.298 168.648H229.014V180.182H225.662ZM228.957 161.091C228.957 162.739 229.199 164.192 229.682 165.452C230.165 166.702 230.87 167.682 231.798 168.392C232.726 169.093 233.863 169.443 235.207 169.443C236.609 169.443 237.778 169.074 238.716 168.335C239.663 167.587 240.373 166.583 240.847 165.324C241.33 164.055 241.571 162.644 241.571 161.091C241.571 159.557 241.334 158.174 240.861 156.943C240.397 155.703 239.691 154.723 238.744 154.003C237.807 153.274 236.628 152.909 235.207 152.909C233.844 152.909 232.698 153.255 231.77 153.946C230.842 154.628 230.141 155.584 229.668 156.815C229.194 158.037 228.957 159.462 228.957 161.091ZM256.457 172.511C255.075 172.511 253.82 172.251 252.693 171.73C251.566 171.2 250.671 170.438 250.009 169.443C249.346 168.439 249.014 167.227 249.014 165.807C249.014 164.557 249.26 163.544 249.753 162.767C250.245 161.981 250.903 161.366 251.727 160.92C252.551 160.475 253.46 160.144 254.455 159.926C255.458 159.699 256.467 159.519 257.48 159.386C258.806 159.216 259.881 159.088 260.705 159.003C261.538 158.908 262.144 158.752 262.523 158.534C262.911 158.316 263.105 157.937 263.105 157.398V157.284C263.105 155.883 262.722 154.794 261.955 154.017C261.197 153.241 260.046 152.852 258.503 152.852C256.902 152.852 255.648 153.203 254.739 153.903C253.83 154.604 253.19 155.352 252.821 156.148L249.639 155.011C250.207 153.686 250.965 152.653 251.912 151.915C252.868 151.167 253.91 150.646 255.037 150.352C256.173 150.049 257.291 149.898 258.389 149.898C259.09 149.898 259.895 149.983 260.804 150.153C261.723 150.314 262.608 150.651 263.46 151.162C264.322 151.673 265.037 152.445 265.605 153.477C266.173 154.509 266.457 155.892 266.457 157.625V172H263.105V169.045H262.935C262.707 169.519 262.329 170.026 261.798 170.565C261.268 171.105 260.563 171.564 259.682 171.943C258.801 172.322 257.726 172.511 256.457 172.511ZM256.969 169.5C258.295 169.5 259.412 169.24 260.321 168.719C261.24 168.198 261.931 167.526 262.395 166.702C262.868 165.878 263.105 165.011 263.105 164.102V161.034C262.963 161.205 262.651 161.361 262.168 161.503C261.694 161.635 261.145 161.754 260.52 161.858C259.904 161.953 259.303 162.038 258.716 162.114C258.138 162.18 257.67 162.237 257.31 162.284C256.438 162.398 255.624 162.582 254.866 162.838C254.118 163.084 253.512 163.458 253.048 163.96C252.594 164.453 252.366 165.125 252.366 165.977C252.366 167.142 252.797 168.023 253.659 168.619C254.53 169.206 255.634 169.5 256.969 169.5ZM269.607 153.307V150.182H287.335V153.307H280.175V172H276.823V153.307H269.607ZM294.384 180.182C293.815 180.182 293.309 180.134 292.864 180.04C292.419 179.955 292.111 179.869 291.94 179.784L292.793 176.83C293.607 177.038 294.327 177.114 294.952 177.057C295.577 177 296.131 176.721 296.614 176.219C297.106 175.726 297.556 174.926 297.963 173.818L298.588 172.114L290.52 150.182H294.156L300.179 167.568H300.406L306.429 150.182H310.065L300.804 175.182C300.387 176.309 299.871 177.241 299.256 177.98C298.64 178.728 297.925 179.282 297.111 179.642C296.306 180.002 295.397 180.182 294.384 180.182ZM314.49 180.182V150.182H317.729V153.648H318.126C318.373 153.269 318.714 152.786 319.149 152.199C319.594 151.602 320.229 151.072 321.053 150.608C321.886 150.134 323.013 149.898 324.433 149.898C326.27 149.898 327.89 150.357 329.291 151.276C330.693 152.194 331.786 153.496 332.572 155.182C333.358 156.867 333.751 158.856 333.751 161.148C333.751 163.458 333.358 165.461 332.572 167.156C331.786 168.842 330.697 170.149 329.305 171.077C327.913 171.995 326.308 172.455 324.49 172.455C323.089 172.455 321.966 172.223 321.124 171.759C320.281 171.285 319.632 170.75 319.178 170.153C318.723 169.547 318.373 169.045 318.126 168.648H317.842V180.182H314.49ZM317.786 161.091C317.786 162.739 318.027 164.192 318.51 165.452C318.993 166.702 319.698 167.682 320.626 168.392C321.554 169.093 322.691 169.443 324.036 169.443C325.437 169.443 326.607 169.074 327.544 168.335C328.491 167.587 329.201 166.583 329.675 165.324C330.158 164.055 330.399 162.644 330.399 161.091C330.399 159.557 330.162 158.174 329.689 156.943C329.225 155.703 328.519 154.723 327.572 154.003C326.635 153.274 325.456 152.909 324.036 152.909C322.672 152.909 321.526 153.255 320.598 153.946C319.67 154.628 318.969 155.584 318.496 156.815C318.022 158.037 317.786 159.462 317.786 161.091ZM408.808 172.227C408.107 172.227 407.506 171.976 407.004 171.474C406.502 170.973 406.251 170.371 406.251 169.67C406.251 168.97 406.502 168.368 407.004 167.866C407.506 167.365 408.107 167.114 408.808 167.114C409.509 167.114 410.11 167.365 410.612 167.866C411.114 168.368 411.365 168.97 411.365 169.67C411.365 170.134 411.247 170.561 411.01 170.949C410.783 171.337 410.475 171.65 410.087 171.886C409.708 172.114 409.282 172.227 408.808 172.227ZM408.808 156.034C408.107 156.034 407.506 155.783 407.004 155.281C406.502 154.779 406.251 154.178 406.251 153.477C406.251 152.777 406.502 152.175 407.004 151.673C407.506 151.171 408.107 150.92 408.808 150.92C409.509 150.92 410.11 151.171 410.612 151.673C411.114 152.175 411.365 152.777 411.365 153.477C411.365 153.941 411.247 154.367 411.01 154.756C410.783 155.144 410.475 155.456 410.087 155.693C409.708 155.92 409.282 156.034 408.808 156.034ZM441.131 155.892V159.017H428.403V155.892H441.131ZM457.2 142.909V172H453.677V146.602H453.506L446.404 151.318V147.739L453.677 142.909H457.2ZM466.475 172L479.487 146.261V146.034H464.487V142.909H483.123V146.205L470.168 172H466.475ZM497.583 172.398C495.708 172.398 494.037 172.076 492.569 171.432C491.111 170.788 489.951 169.893 489.089 168.747C488.237 167.592 487.772 166.252 487.697 164.727H491.276C491.352 165.665 491.674 166.474 492.242 167.156C492.81 167.829 493.554 168.349 494.472 168.719C495.391 169.088 496.409 169.273 497.526 169.273C498.776 169.273 499.884 169.055 500.85 168.619C501.816 168.184 502.574 167.578 503.123 166.801C503.672 166.025 503.947 165.125 503.947 164.102C503.947 163.032 503.682 162.09 503.151 161.276C502.621 160.452 501.844 159.808 500.822 159.344C499.799 158.88 498.549 158.648 497.072 158.648H494.742V155.523H497.072C498.227 155.523 499.24 155.314 500.112 154.898C500.992 154.481 501.679 153.894 502.171 153.136C502.673 152.379 502.924 151.489 502.924 150.466C502.924 149.481 502.706 148.624 502.271 147.895C501.835 147.166 501.219 146.598 500.424 146.19C499.638 145.783 498.71 145.58 497.64 145.58C496.636 145.58 495.689 145.764 494.799 146.134C493.918 146.493 493.199 147.019 492.64 147.71C492.081 148.392 491.778 149.216 491.731 150.182H488.322C488.379 148.657 488.838 147.322 489.7 146.176C490.561 145.021 491.688 144.121 493.08 143.477C494.482 142.833 496.021 142.511 497.697 142.511C499.496 142.511 501.04 142.876 502.327 143.605C503.615 144.325 504.605 145.277 505.296 146.46C505.987 147.644 506.333 148.922 506.333 150.295C506.333 151.934 505.902 153.33 505.04 154.486C504.188 155.641 503.028 156.441 501.56 156.886V157.114C503.397 157.417 504.832 158.198 505.864 159.457C506.897 160.707 507.413 162.256 507.413 164.102C507.413 165.684 506.982 167.104 506.12 168.364C505.268 169.614 504.103 170.598 502.626 171.318C501.148 172.038 499.468 172.398 497.583 172.398ZM542.967 170.182L540.779 168.023L549.785 159.017H526.461V155.892H549.785L540.779 146.915L542.967 144.727L555.694 157.455L542.967 170.182ZM582.466 166.886V148.136H585.648V166.886H582.466ZM574.682 159.102V155.92H593.432V159.102H574.682ZM599.572 166.034V163.136L612.356 142.909H614.458V147.398H613.038L603.379 162.682V162.909H620.594V166.034H599.572ZM613.265 172V165.153V163.804V142.909H616.617V172H613.265ZM625.918 172V169.443L635.52 158.932C636.647 157.701 637.575 156.631 638.304 155.722C639.033 154.803 639.573 153.941 639.923 153.136C640.283 152.322 640.463 151.47 640.463 150.58C640.463 149.557 640.217 148.671 639.724 147.923C639.241 147.175 638.579 146.598 637.736 146.19C636.893 145.783 635.946 145.58 634.895 145.58C633.777 145.58 632.802 145.812 631.969 146.276C631.145 146.73 630.506 147.369 630.051 148.193C629.606 149.017 629.384 149.983 629.384 151.091H626.031C626.031 149.386 626.424 147.89 627.21 146.602C627.996 145.314 629.066 144.311 630.42 143.591C631.784 142.871 633.313 142.511 635.009 142.511C636.713 142.511 638.223 142.871 639.54 143.591C640.856 144.311 641.888 145.281 642.636 146.503C643.384 147.724 643.759 149.083 643.759 150.58C643.759 151.65 643.564 152.696 643.176 153.719C642.797 154.732 642.134 155.864 641.188 157.114C640.25 158.354 638.948 159.869 637.281 161.659L630.747 168.648V168.875H644.27V172H625.918ZM651.045 172L664.057 146.261V146.034H649.057V142.909H667.693V146.205L654.739 172H651.045ZM690.317 155.75C689.115 155.75 688.016 155.456 687.022 154.869C686.037 154.282 685.251 153.496 684.664 152.511C684.077 151.517 683.783 150.419 683.783 149.216C683.783 148.013 684.077 146.92 684.664 145.935C685.251 144.94 686.037 144.15 687.022 143.562C688.016 142.975 689.115 142.682 690.317 142.682C691.52 142.682 692.614 142.975 693.599 143.562C694.593 144.15 695.384 144.94 695.971 145.935C696.558 146.92 696.852 148.013 696.852 149.216C696.852 150.419 696.558 151.517 695.971 152.511C695.384 153.496 694.593 154.282 693.599 154.869C692.614 155.456 691.52 155.75 690.317 155.75ZM690.317 152.909C690.999 152.909 691.62 152.743 692.178 152.412C692.737 152.08 693.182 151.635 693.513 151.077C693.845 150.518 694.011 149.898 694.011 149.216C694.011 148.534 693.845 147.914 693.513 147.355C693.182 146.796 692.737 146.351 692.178 146.02C691.62 145.688 690.999 145.523 690.317 145.523C689.636 145.523 689.015 145.688 688.457 146.02C687.898 146.351 687.453 146.796 687.121 147.355C686.79 147.914 686.624 148.534 686.624 149.216C686.624 149.898 686.79 150.518 687.121 151.077C687.453 151.635 687.898 152.08 688.457 152.412C689.015 152.743 689.636 152.909 690.317 152.909ZM726.322 152H722.8C722.591 150.987 722.227 150.097 721.706 149.33C721.195 148.562 720.57 147.919 719.831 147.398C719.102 146.867 718.292 146.47 717.402 146.205C716.512 145.939 715.584 145.807 714.618 145.807C712.857 145.807 711.261 146.252 709.831 147.142C708.411 148.032 707.279 149.344 706.436 151.077C705.603 152.81 705.186 154.936 705.186 157.455C705.186 159.973 705.603 162.099 706.436 163.832C707.279 165.565 708.411 166.877 709.831 167.767C711.261 168.657 712.857 169.102 714.618 169.102C715.584 169.102 716.512 168.97 717.402 168.705C718.292 168.439 719.102 168.046 719.831 167.526C720.57 166.995 721.195 166.347 721.706 165.58C722.227 164.803 722.591 163.913 722.8 162.909H726.322C726.057 164.396 725.574 165.726 724.874 166.901C724.173 168.075 723.302 169.074 722.26 169.898C721.218 170.712 720.049 171.332 718.751 171.759C717.464 172.185 716.086 172.398 714.618 172.398C712.137 172.398 709.93 171.792 707.999 170.58C706.067 169.367 704.547 167.644 703.439 165.409C702.331 163.174 701.777 160.523 701.777 157.455C701.777 154.386 702.331 151.735 703.439 149.5C704.547 147.265 706.067 145.542 707.999 144.33C709.93 143.117 712.137 142.511 714.618 142.511C716.086 142.511 717.464 142.724 718.751 143.151C720.049 143.577 721.218 144.202 722.26 145.026C723.302 145.84 724.173 146.834 724.874 148.009C725.574 149.173 726.057 150.504 726.322 152ZM49 222.8H89V182.8H49V222.8ZM101.273 227.045V216.875H103.148C103.792 216.288 104.398 215.459 104.966 214.389C105.544 213.31 106.031 211.87 106.429 210.071C106.836 208.262 107.106 205.966 107.239 203.182L107.864 190.909H125.136V216.875H128.489V226.989H125.136V220H104.625V227.045H101.273ZM107.352 216.875H121.784V194.034H111.045L110.591 203.182C110.477 205.303 110.278 207.225 109.994 208.949C109.71 210.663 109.346 212.183 108.901 213.509C108.455 214.825 107.939 215.947 107.352 216.875ZM139.778 220.511C138.395 220.511 137.14 220.251 136.013 219.73C134.887 219.2 133.992 218.438 133.329 217.443C132.666 216.439 132.335 215.227 132.335 213.807C132.335 212.557 132.581 211.544 133.073 210.767C133.566 209.981 134.224 209.366 135.048 208.92C135.871 208.475 136.781 208.144 137.775 207.926C138.779 207.699 139.787 207.519 140.8 207.386C142.126 207.216 143.201 207.088 144.025 207.003C144.858 206.908 145.464 206.752 145.843 206.534C146.231 206.316 146.425 205.937 146.425 205.398V205.284C146.425 203.883 146.042 202.794 145.275 202.017C144.517 201.241 143.367 200.852 141.823 200.852C140.223 200.852 138.968 201.203 138.059 201.903C137.15 202.604 136.511 203.352 136.141 204.148L132.96 203.011C133.528 201.686 134.285 200.653 135.232 199.915C136.189 199.167 137.23 198.646 138.357 198.352C139.494 198.049 140.611 197.898 141.71 197.898C142.41 197.898 143.215 197.983 144.124 198.153C145.043 198.314 145.928 198.651 146.781 199.162C147.642 199.673 148.357 200.445 148.925 201.477C149.494 202.509 149.778 203.892 149.778 205.625V220H146.425V217.045H146.255C146.028 217.519 145.649 218.026 145.119 218.565C144.588 219.105 143.883 219.564 143.002 219.943C142.121 220.322 141.047 220.511 139.778 220.511ZM140.289 217.5C141.615 217.5 142.732 217.24 143.641 216.719C144.56 216.198 145.251 215.526 145.715 214.702C146.189 213.878 146.425 213.011 146.425 212.102V209.034C146.283 209.205 145.971 209.361 145.488 209.503C145.014 209.635 144.465 209.754 143.84 209.858C143.225 209.953 142.623 210.038 142.036 210.114C141.459 210.18 140.99 210.237 140.63 210.284C139.759 210.398 138.944 210.582 138.187 210.838C137.439 211.084 136.833 211.458 136.369 211.96C135.914 212.453 135.687 213.125 135.687 213.977C135.687 215.142 136.118 216.023 136.979 216.619C137.851 217.206 138.954 217.5 140.289 217.5ZM169.362 198.182V201.307H159.249V220H155.896V198.182H169.362ZM176.415 228.182C175.847 228.182 175.34 228.134 174.895 228.04C174.45 227.955 174.142 227.869 173.972 227.784L174.824 224.83C175.638 225.038 176.358 225.114 176.983 225.057C177.608 225 178.162 224.721 178.645 224.219C179.137 223.726 179.587 222.926 179.994 221.818L180.619 220.114L172.551 198.182H176.188L182.21 215.568H182.438L188.46 198.182H192.097L182.835 223.182C182.419 224.309 181.902 225.241 181.287 225.98C180.671 226.728 179.956 227.282 179.142 227.642C178.337 228.002 177.428 228.182 176.415 228.182ZM198.68 228.182C198.112 228.182 197.606 228.134 197.161 228.04C196.715 227.955 196.408 227.869 196.237 227.784L197.089 224.83C197.904 225.038 198.624 225.114 199.249 225.057C199.874 225 200.428 224.721 200.911 224.219C201.403 223.726 201.853 222.926 202.26 221.818L202.885 220.114L194.817 198.182H198.453L204.476 215.568H204.703L210.726 198.182H214.362L205.101 223.182C204.684 224.309 204.168 225.241 203.553 225.98C202.937 226.728 202.222 227.282 201.408 227.642C200.603 228.002 199.694 228.182 198.68 228.182ZM215.019 220V216.875H215.815C216.468 216.875 217.013 216.747 217.448 216.491C217.884 216.226 218.234 215.767 218.499 215.114C218.774 214.451 218.982 213.532 219.124 212.358C219.276 211.174 219.385 209.669 219.451 207.841L219.849 198.182H234.394V220H231.042V201.307H223.031L222.69 209.091C222.614 210.881 222.453 212.457 222.207 213.821C221.97 215.175 221.605 216.312 221.113 217.23C220.63 218.149 219.986 218.84 219.181 219.304C218.376 219.768 217.368 220 216.156 220H215.019ZM243.442 206.08H249.692C252.249 206.08 254.205 206.728 255.559 208.026C256.913 209.323 257.59 210.966 257.59 212.955C257.59 214.261 257.287 215.45 256.681 216.52C256.075 217.58 255.185 218.428 254.011 219.062C252.836 219.688 251.397 220 249.692 220H240.545V198.182H243.897V216.875H249.692C251.018 216.875 252.107 216.525 252.96 215.824C253.812 215.123 254.238 214.223 254.238 213.125C254.238 211.97 253.812 211.027 252.96 210.298C252.107 209.569 251.018 209.205 249.692 209.205H243.442V206.08ZM261.056 220V198.182H264.408V220H261.056ZM285.147 207.557V210.682H273.102V207.557H285.147ZM273.897 198.182V220H270.545V198.182H273.897ZM287.704 198.182V220H284.352V198.182H287.704ZM303.826 201.307V198.182H321.553V201.307H314.394V220H311.042V201.307H303.826ZM334.174 220.455C332.204 220.455 330.476 219.986 328.989 219.048C327.512 218.111 326.357 216.799 325.523 215.114C324.7 213.428 324.288 211.458 324.288 209.205C324.288 206.932 324.7 204.948 325.523 203.253C326.357 201.558 327.512 200.241 328.989 199.304C330.476 198.366 332.204 197.898 334.174 197.898C336.144 197.898 337.867 198.366 339.344 199.304C340.831 200.241 341.987 201.558 342.81 203.253C343.644 204.948 344.06 206.932 344.06 209.205C344.06 211.458 343.644 213.428 342.81 215.114C341.987 216.799 340.831 218.111 339.344 219.048C337.867 219.986 336.144 220.455 334.174 220.455ZM334.174 217.443C335.67 217.443 336.901 217.06 337.867 216.293C338.833 215.526 339.548 214.517 340.012 213.267C340.476 212.017 340.708 210.663 340.708 209.205C340.708 207.746 340.476 206.387 340.012 205.128C339.548 203.868 338.833 202.85 337.867 202.074C336.901 201.297 335.67 200.909 334.174 200.909C332.678 200.909 331.447 201.297 330.481 202.074C329.515 202.85 328.8 203.868 328.336 205.128C327.872 206.387 327.64 207.746 327.64 209.205C327.64 210.663 327.872 212.017 328.336 213.267C328.8 214.517 329.515 215.526 330.481 216.293C331.447 217.06 332.678 217.443 334.174 217.443ZM358.041 220.455C356.071 220.455 354.343 219.986 352.857 219.048C351.379 218.111 350.224 216.799 349.391 215.114C348.567 213.428 348.155 211.458 348.155 209.205C348.155 206.932 348.567 204.948 349.391 203.253C350.224 201.558 351.379 200.241 352.857 199.304C354.343 198.366 356.071 197.898 358.041 197.898C360.011 197.898 361.734 198.366 363.212 199.304C364.698 200.241 365.854 201.558 366.678 203.253C367.511 204.948 367.928 206.932 367.928 209.205C367.928 211.458 367.511 213.428 366.678 215.114C365.854 216.799 364.698 218.111 363.212 219.048C361.734 219.986 360.011 220.455 358.041 220.455ZM358.041 217.443C359.537 217.443 360.768 217.06 361.734 216.293C362.7 215.526 363.415 214.517 363.879 213.267C364.343 212.017 364.575 210.663 364.575 209.205C364.575 207.746 364.343 206.387 363.879 205.128C363.415 203.868 362.7 202.85 361.734 202.074C360.768 201.297 359.537 200.909 358.041 200.909C356.545 200.909 355.314 201.297 354.348 202.074C353.382 202.85 352.667 203.868 352.203 205.128C351.739 206.387 351.507 207.746 351.507 209.205C351.507 210.663 351.739 212.017 352.203 213.267C352.667 214.517 353.382 215.526 354.348 216.293C355.314 217.06 356.545 217.443 358.041 217.443ZM409.238 216.278C408.537 216.278 407.936 216.027 407.434 215.526C406.932 215.024 406.681 214.422 406.681 213.722C406.681 213.021 406.932 212.42 407.434 211.918C407.936 211.416 408.537 211.165 409.238 211.165C409.939 211.165 410.54 211.416 411.042 211.918C411.544 212.42 411.795 213.021 411.795 213.722C411.795 214.186 411.676 214.612 411.44 215C411.212 215.388 410.905 215.701 410.516 215.938C410.138 216.165 409.711 216.278 409.238 216.278ZM409.238 201.562C408.537 201.562 407.936 201.312 407.434 200.81C406.932 200.308 406.681 199.706 406.681 199.006C406.681 198.305 406.932 197.704 407.434 197.202C407.936 196.7 408.537 196.449 409.238 196.449C409.939 196.449 410.54 196.7 411.042 197.202C411.544 197.704 411.795 198.305 411.795 199.006C411.795 199.47 411.676 199.896 411.44 200.284C411.212 200.672 410.905 200.985 410.516 201.222C410.138 201.449 409.711 201.562 409.238 201.562ZM438.492 220.398C436.352 220.398 434.529 219.815 433.023 218.651C431.518 217.476 430.367 215.777 429.572 213.551C428.776 211.316 428.379 208.617 428.379 205.455C428.379 202.311 428.776 199.626 429.572 197.401C430.377 195.166 431.532 193.461 433.038 192.287C434.553 191.103 436.371 190.511 438.492 190.511C440.613 190.511 442.427 191.103 443.933 192.287C445.448 193.461 446.603 195.166 447.398 197.401C448.203 199.626 448.606 202.311 448.606 205.455C448.606 208.617 448.208 211.316 447.413 213.551C446.617 215.777 445.467 217.476 443.961 218.651C442.455 219.815 440.632 220.398 438.492 220.398ZM438.492 217.273C440.613 217.273 442.261 216.25 443.435 214.205C444.61 212.159 445.197 209.242 445.197 205.455C445.197 202.936 444.927 200.791 444.387 199.02C443.857 197.249 443.09 195.9 442.086 194.972C441.092 194.044 439.894 193.58 438.492 193.58C436.39 193.58 434.747 194.616 433.563 196.69C432.379 198.755 431.788 201.676 431.788 205.455C431.788 207.973 432.053 210.114 432.583 211.875C433.113 213.636 433.876 214.976 434.87 215.895C435.874 216.813 437.081 217.273 438.492 217.273ZM49 270.8H89V230.8H49V270.8ZM101.273 275.045V264.875H103.148C103.792 264.288 104.398 263.459 104.966 262.389C105.544 261.31 106.031 259.87 106.429 258.071C106.836 256.262 107.106 253.966 107.239 251.182L107.864 238.909H125.136V264.875H128.489V274.989H125.136V268H104.625V275.045H101.273ZM107.352 264.875H121.784V242.034H111.045L110.591 251.182C110.477 253.303 110.278 255.225 109.994 256.949C109.71 258.663 109.346 260.183 108.901 261.509C108.455 262.825 107.939 263.947 107.352 264.875ZM136.71 263.057L147.221 246.182H151.085V268H147.732V251.125L137.278 268H133.357V246.182H136.71V263.057ZM163.645 268.511C162.262 268.511 161.008 268.251 159.881 267.73C158.754 267.2 157.859 266.438 157.196 265.443C156.533 264.439 156.202 263.227 156.202 261.807C156.202 260.557 156.448 259.544 156.94 258.767C157.433 257.981 158.091 257.366 158.915 256.92C159.739 256.475 160.648 256.144 161.642 255.926C162.646 255.699 163.654 255.519 164.668 255.386C165.993 255.216 167.068 255.088 167.892 255.003C168.725 254.908 169.331 254.752 169.71 254.534C170.098 254.316 170.293 253.937 170.293 253.398V253.284C170.293 251.883 169.909 250.794 169.142 250.017C168.384 249.241 167.234 248.852 165.69 248.852C164.09 248.852 162.835 249.203 161.926 249.903C161.017 250.604 160.378 251.352 160.009 252.148L156.827 251.011C157.395 249.686 158.152 248.653 159.099 247.915C160.056 247.167 161.098 246.646 162.224 246.352C163.361 246.049 164.478 245.898 165.577 245.898C166.277 245.898 167.082 245.983 167.991 246.153C168.91 246.314 169.795 246.651 170.648 247.162C171.509 247.673 172.224 248.445 172.793 249.477C173.361 250.509 173.645 251.892 173.645 253.625V268H170.293V265.045H170.122C169.895 265.519 169.516 266.026 168.986 266.565C168.455 267.105 167.75 267.564 166.869 267.943C165.989 268.322 164.914 268.511 163.645 268.511ZM164.156 265.5C165.482 265.5 166.599 265.24 167.509 264.719C168.427 264.198 169.118 263.526 169.582 262.702C170.056 261.878 170.293 261.011 170.293 260.102V257.034C170.151 257.205 169.838 257.361 169.355 257.503C168.882 257.635 168.332 257.754 167.707 257.858C167.092 257.953 166.491 258.038 165.903 258.114C165.326 258.18 164.857 258.237 164.497 258.284C163.626 258.398 162.812 258.582 162.054 258.838C161.306 259.084 160.7 259.458 160.236 259.96C159.781 260.453 159.554 261.125 159.554 261.977C159.554 263.142 159.985 264.023 160.847 264.619C161.718 265.206 162.821 265.5 164.156 265.5ZM191.695 263.455L199.309 246.182H202.491L193.059 268H190.332L181.07 246.182H184.195L191.695 263.455ZM183.116 246.182V268H179.763V246.182H183.116ZM200.275 268V246.182H203.627V268H200.275ZM218.911 268.455C216.809 268.455 214.996 267.991 213.471 267.062C211.956 266.125 210.786 264.818 209.962 263.142C209.148 261.456 208.741 259.496 208.741 257.261C208.741 255.027 209.148 253.057 209.962 251.352C210.786 249.638 211.932 248.303 213.4 247.347C214.877 246.381 216.601 245.898 218.57 245.898C219.707 245.898 220.829 246.087 221.937 246.466C223.045 246.845 224.053 247.46 224.962 248.312C225.871 249.155 226.596 250.273 227.136 251.665C227.675 253.057 227.945 254.771 227.945 256.807V258.227H211.127V255.33H224.536C224.536 254.098 224.29 253 223.798 252.034C223.315 251.068 222.623 250.306 221.724 249.747C220.834 249.188 219.782 248.909 218.57 248.909C217.235 248.909 216.08 249.241 215.104 249.903C214.138 250.557 213.395 251.409 212.874 252.46C212.353 253.511 212.093 254.638 212.093 255.841V257.773C212.093 259.42 212.377 260.817 212.945 261.963C213.523 263.099 214.323 263.966 215.346 264.562C216.369 265.15 217.557 265.443 218.911 265.443C219.792 265.443 220.587 265.32 221.298 265.074C222.017 264.818 222.638 264.439 223.158 263.938C223.679 263.426 224.082 262.792 224.366 262.034L227.604 262.943C227.263 264.042 226.691 265.008 225.886 265.841C225.081 266.665 224.086 267.309 222.903 267.773C221.719 268.227 220.388 268.455 218.911 268.455ZM231.013 249.307V246.182H248.741V249.307H241.582V268H238.229V249.307H231.013ZM253.631 276.182V246.182H256.869V249.648H257.267C257.513 249.269 257.854 248.786 258.29 248.199C258.735 247.602 259.369 247.072 260.193 246.608C261.027 246.134 262.153 245.898 263.574 245.898C265.411 245.898 267.03 246.357 268.432 247.276C269.833 248.194 270.927 249.496 271.713 251.182C272.499 252.867 272.892 254.856 272.892 257.148C272.892 259.458 272.499 261.461 271.713 263.156C270.927 264.842 269.838 266.149 268.446 267.077C267.054 267.995 265.449 268.455 263.631 268.455C262.229 268.455 261.107 268.223 260.264 267.759C259.421 267.285 258.773 266.75 258.318 266.153C257.864 265.547 257.513 265.045 257.267 264.648H256.983V276.182H253.631ZM256.926 257.091C256.926 258.739 257.168 260.192 257.651 261.452C258.134 262.702 258.839 263.682 259.767 264.392C260.695 265.093 261.831 265.443 263.176 265.443C264.578 265.443 265.747 265.074 266.685 264.335C267.632 263.587 268.342 262.583 268.815 261.324C269.298 260.055 269.54 258.644 269.54 257.091C269.54 255.557 269.303 254.174 268.83 252.943C268.366 251.703 267.66 250.723 266.713 250.003C265.776 249.274 264.597 248.909 263.176 248.909C261.813 248.909 260.667 249.255 259.739 249.946C258.811 250.628 258.11 251.584 257.636 252.815C257.163 254.037 256.926 255.462 256.926 257.091ZM404.199 264.278C403.498 264.278 402.897 264.027 402.395 263.526C401.893 263.024 401.642 262.422 401.642 261.722C401.642 261.021 401.893 260.42 402.395 259.918C402.897 259.416 403.498 259.165 404.199 259.165C404.9 259.165 405.501 259.416 406.003 259.918C406.505 260.42 406.756 261.021 406.756 261.722C406.756 262.186 406.637 262.612 406.401 263C406.173 263.388 405.866 263.701 405.477 263.938C405.098 264.165 404.672 264.278 404.199 264.278ZM404.199 249.562C403.498 249.562 402.897 249.312 402.395 248.81C401.893 248.308 401.642 247.706 401.642 247.006C401.642 246.305 401.893 245.704 402.395 245.202C402.897 244.7 403.498 244.449 404.199 244.449C404.9 244.449 405.501 244.7 406.003 245.202C406.505 245.704 406.756 246.305 406.756 247.006C406.756 247.47 406.637 247.896 406.401 248.284C406.173 248.672 405.866 248.985 405.477 249.222C405.098 249.449 404.672 249.562 404.199 249.562ZM423.283 262.034V259.136L436.067 238.909H438.169V243.398H436.749L427.089 258.682V258.909H444.305V262.034H423.283ZM436.976 268V261.153V259.804V238.909H440.328V268H436.976ZM453.318 264.023L453.091 265.557C452.93 266.636 452.684 267.792 452.352 269.023C452.03 270.254 451.694 271.414 451.344 272.503C450.993 273.592 450.705 274.458 450.477 275.102H447.92C448.044 274.496 448.205 273.696 448.403 272.702C448.602 271.707 448.801 270.595 449 269.364C449.208 268.142 449.379 266.892 449.511 265.614L449.682 264.023H453.318ZM467.892 268.398C465.941 268.398 464.218 268.052 462.722 267.361C461.235 266.66 460.075 265.699 459.241 264.477C458.408 263.246 457.996 261.845 458.006 260.273C457.996 259.042 458.238 257.905 458.73 256.864C459.223 255.812 459.895 254.937 460.747 254.236C461.609 253.526 462.57 253.076 463.631 252.886V252.716C462.239 252.356 461.131 251.575 460.307 250.372C459.483 249.16 459.076 247.782 459.085 246.239C459.076 244.761 459.45 243.44 460.207 242.276C460.965 241.111 462.007 240.192 463.332 239.52C464.668 238.848 466.188 238.511 467.892 238.511C469.578 238.511 471.083 238.848 472.409 239.52C473.735 240.192 474.777 241.111 475.534 242.276C476.301 243.44 476.689 244.761 476.699 246.239C476.689 247.782 476.268 249.16 475.435 250.372C474.611 251.575 473.517 252.356 472.153 252.716V252.886C473.205 253.076 474.152 253.526 474.994 254.236C475.837 254.937 476.509 255.812 477.011 256.864C477.513 257.905 477.769 259.042 477.778 260.273C477.769 261.845 477.343 263.246 476.5 264.477C475.667 265.699 474.507 266.66 473.02 267.361C471.543 268.052 469.833 268.398 467.892 268.398ZM467.892 265.273C469.208 265.273 470.345 265.06 471.301 264.634C472.258 264.207 472.996 263.606 473.517 262.83C474.038 262.053 474.303 261.144 474.312 260.102C474.303 259.004 474.019 258.033 473.46 257.19C472.902 256.348 472.139 255.685 471.173 255.202C470.217 254.719 469.123 254.477 467.892 254.477C466.652 254.477 465.544 254.719 464.568 255.202C463.602 255.685 462.84 256.348 462.281 257.19C461.732 258.033 461.462 259.004 461.472 260.102C461.462 261.144 461.713 262.053 462.224 262.83C462.745 263.606 463.489 264.207 464.455 264.634C465.42 265.06 466.566 265.273 467.892 265.273ZM467.892 251.466C468.934 251.466 469.857 251.258 470.662 250.841C471.476 250.424 472.116 249.842 472.58 249.094C473.044 248.346 473.28 247.47 473.29 246.466C473.28 245.481 473.048 244.624 472.594 243.895C472.139 243.156 471.509 242.588 470.705 242.19C469.9 241.783 468.962 241.58 467.892 241.58C466.803 241.58 465.851 241.783 465.037 242.19C464.223 242.588 463.593 243.156 463.148 243.895C462.703 244.624 462.485 245.481 462.494 246.466C462.485 247.47 462.707 248.346 463.162 249.094C463.626 249.842 464.265 250.424 465.08 250.841C465.894 251.258 466.831 251.466 467.892 251.466ZM484.131 268L497.143 242.261V242.034H482.143V238.909H500.779V242.205L487.825 268H484.131ZM514.945 238.511C516.138 238.521 517.331 238.748 518.524 239.193C519.717 239.638 520.806 240.377 521.791 241.409C522.776 242.432 523.567 243.829 524.163 245.599C524.76 247.37 525.058 249.591 525.058 252.261C525.058 254.847 524.812 257.143 524.32 259.151C523.837 261.149 523.136 262.834 522.217 264.207C521.308 265.58 520.2 266.622 518.893 267.332C517.596 268.043 516.128 268.398 514.49 268.398C512.861 268.398 511.408 268.076 510.129 267.432C508.86 266.778 507.819 265.874 507.004 264.719C506.199 263.554 505.683 262.205 505.456 260.67H508.922C509.234 262.006 509.855 263.109 510.783 263.98C511.72 264.842 512.956 265.273 514.49 265.273C516.734 265.273 518.505 264.293 519.803 262.332C521.109 260.372 521.763 257.602 521.763 254.023H521.536C521.005 254.818 520.375 255.505 519.646 256.082C518.917 256.66 518.107 257.105 517.217 257.418C516.327 257.73 515.38 257.886 514.376 257.886C512.71 257.886 511.18 257.474 509.788 256.651C508.406 255.817 507.298 254.676 506.464 253.227C505.641 251.769 505.229 250.102 505.229 248.227C505.229 246.447 505.626 244.818 506.422 243.341C507.227 241.854 508.354 240.67 509.803 239.79C511.261 238.909 512.975 238.483 514.945 238.511ZM514.945 241.636C513.751 241.636 512.677 241.935 511.72 242.531C510.773 243.118 510.02 243.914 509.462 244.918C508.912 245.912 508.638 247.015 508.638 248.227C508.638 249.439 508.903 250.543 509.433 251.537C509.973 252.522 510.707 253.308 511.635 253.895C512.572 254.473 513.638 254.761 514.831 254.761C515.731 254.761 516.569 254.586 517.345 254.236C518.122 253.876 518.799 253.388 519.376 252.773C519.964 252.148 520.423 251.442 520.754 250.656C521.086 249.861 521.251 249.032 521.251 248.17C521.251 247.034 520.977 245.969 520.428 244.974C519.888 243.98 519.14 243.175 518.183 242.56C517.236 241.944 516.157 241.636 514.945 241.636ZM541.951 268V246.182H545.303V255.67H547.519L555.36 246.182H559.678L550.871 256.693L559.792 268H555.474L548.315 258.795H545.303V268H541.951ZM575.367 263.455L582.981 246.182H586.163L576.731 268H574.004L564.742 246.182H567.867L575.367 263.455ZM566.788 246.182V268H563.435V246.182H566.788ZM583.947 268V246.182H587.299V268H583.947ZM49 318.8H89V278.8H49V318.8ZM103.773 316V286.909H107.295V299.864H122.807V286.909H126.33V316H122.807V302.989H107.295V316H103.773ZM140.143 297.023C139.386 297.032 138.624 297.226 137.857 297.605C137.099 297.984 136.464 298.486 135.953 299.111C135.451 299.726 135.2 300.413 135.2 301.17H131.905C131.905 300.223 132.132 299.314 132.587 298.443C133.041 297.572 133.652 296.795 134.419 296.114C135.196 295.432 136.076 294.892 137.061 294.494C138.055 294.097 139.083 293.898 140.143 293.898C142.132 293.898 143.818 294.4 145.2 295.403C146.592 296.407 147.648 297.733 148.368 299.381C149.097 301.028 149.462 302.818 149.462 304.75V305.545C149.462 307.468 149.097 309.258 148.368 310.915C147.648 312.562 146.592 313.888 145.2 314.892C143.818 315.896 142.132 316.398 140.143 316.398C138.553 316.398 137.137 316.047 135.896 315.347C134.656 314.636 133.68 313.689 132.97 312.506C132.26 311.322 131.905 310.006 131.905 308.557H135.2C135.2 309.381 135.432 310.152 135.896 310.872C136.37 311.582 136.981 312.16 137.729 312.605C138.486 313.041 139.291 313.263 140.143 313.273C141.412 313.263 142.492 312.866 143.382 312.08C144.272 311.294 144.949 310.309 145.413 309.125C145.877 307.941 146.109 306.748 146.109 305.545V304.75C146.109 303.519 145.877 302.316 145.413 301.142C144.959 299.958 144.286 298.978 143.396 298.202C142.516 297.425 141.431 297.032 140.143 297.023ZM147.473 303.443V306.568H137.928V303.443H147.473ZM168.034 294.182V297.307H157.92V316H154.568V294.182H168.034ZM200.683 303.642V306.54H185.399V303.642H200.683ZM193.041 316.455C191.071 316.455 189.343 315.986 187.857 315.048C186.379 314.111 185.224 312.799 184.391 311.114C183.567 309.428 183.155 307.458 183.155 305.205C183.155 302.932 183.567 300.948 184.391 299.253C185.224 297.558 186.379 296.241 187.857 295.304C189.343 294.366 191.071 293.898 193.041 293.898C195.011 293.898 196.734 294.366 198.212 295.304C199.698 296.241 200.854 297.558 201.678 299.253C202.511 300.948 202.928 302.932 202.928 305.205C202.928 307.458 202.511 309.428 201.678 311.114C200.854 312.799 199.698 314.111 198.212 315.048C196.734 315.986 195.011 316.455 193.041 316.455ZM193.041 313.443C194.537 313.443 195.768 313.06 196.734 312.293C197.7 311.526 198.415 310.517 198.879 309.267C199.343 308.017 199.575 306.663 199.575 305.205C199.575 303.746 199.343 302.387 198.879 301.128C198.415 299.868 197.7 298.85 196.734 298.074C195.768 297.297 194.537 296.909 193.041 296.909C191.545 296.909 190.314 297.297 189.348 298.074C188.382 298.85 187.667 299.868 187.203 301.128C186.739 302.387 186.507 303.746 186.507 305.205C186.507 306.663 186.739 308.017 187.203 309.267C187.667 310.517 188.382 311.526 189.348 312.293C190.314 313.06 191.545 313.443 193.041 313.443ZM205.715 322.25V312.875H207.533C207.978 312.411 208.362 311.909 208.684 311.369C209.006 310.83 209.285 310.19 209.522 309.452C209.768 308.704 209.977 307.795 210.147 306.724C210.317 305.645 210.469 304.343 210.602 302.818L211.34 294.182H225.204V312.875H228.556V322.25H225.204V316H209.067V322.25H205.715ZM211.34 312.875H221.852V297.307H214.465L213.897 302.818C213.66 305.1 213.367 307.094 213.016 308.798C212.666 310.503 212.107 311.862 211.34 312.875ZM249.511 303.642V306.54H234.227V303.642H249.511ZM241.869 316.455C239.9 316.455 238.171 315.986 236.685 315.048C235.207 314.111 234.052 312.799 233.219 311.114C232.395 309.428 231.983 307.458 231.983 305.205C231.983 302.932 232.395 300.948 233.219 299.253C234.052 297.558 235.207 296.241 236.685 295.304C238.171 294.366 239.9 293.898 241.869 293.898C243.839 293.898 245.563 294.366 247.04 295.304C248.527 296.241 249.682 297.558 250.506 299.253C251.339 300.948 251.756 302.932 251.756 305.205C251.756 307.458 251.339 309.428 250.506 311.114C249.682 312.799 248.527 314.111 247.04 315.048C245.563 315.986 243.839 316.455 241.869 316.455ZM241.869 313.443C243.366 313.443 244.597 313.06 245.562 312.293C246.528 311.526 247.243 310.517 247.707 309.267C248.171 308.017 248.403 306.663 248.403 305.205C248.403 303.746 248.171 302.387 247.707 301.128C247.243 299.868 246.528 298.85 245.562 298.074C244.597 297.297 243.366 296.909 241.869 296.909C240.373 296.909 239.142 297.297 238.176 298.074C237.21 298.85 236.495 299.868 236.031 301.128C235.567 302.387 235.335 303.746 235.335 305.205C235.335 306.663 235.567 308.017 236.031 309.267C236.495 310.517 237.21 311.526 238.176 312.293C239.142 313.06 240.373 313.443 241.869 313.443ZM256.873 324.182V294.182H260.112V297.648H260.509C260.755 297.269 261.096 296.786 261.532 296.199C261.977 295.602 262.612 295.072 263.435 294.608C264.269 294.134 265.396 293.898 266.816 293.898C268.653 293.898 270.272 294.357 271.674 295.276C273.076 296.194 274.169 297.496 274.955 299.182C275.741 300.867 276.134 302.856 276.134 305.148C276.134 307.458 275.741 309.461 274.955 311.156C274.169 312.842 273.08 314.149 271.688 315.077C270.296 315.995 268.691 316.455 266.873 316.455C265.471 316.455 264.349 316.223 263.506 315.759C262.664 315.285 262.015 314.75 261.56 314.153C261.106 313.547 260.755 313.045 260.509 312.648H260.225V324.182H256.873ZM260.168 305.091C260.168 306.739 260.41 308.192 260.893 309.452C261.376 310.702 262.081 311.682 263.009 312.392C263.937 313.093 265.074 313.443 266.418 313.443C267.82 313.443 268.989 313.074 269.927 312.335C270.874 311.587 271.584 310.583 272.058 309.324C272.54 308.055 272.782 306.644 272.782 305.091C272.782 303.557 272.545 302.174 272.072 300.943C271.608 299.703 270.902 298.723 269.955 298.003C269.018 297.274 267.839 296.909 266.418 296.909C265.055 296.909 263.909 297.255 262.981 297.946C262.053 298.628 261.352 299.584 260.879 300.815C260.405 302.037 260.168 303.462 260.168 305.091ZM407.441 312.278C406.74 312.278 406.139 312.027 405.637 311.526C405.135 311.024 404.884 310.422 404.884 309.722C404.884 309.021 405.135 308.42 405.637 307.918C406.139 307.416 406.74 307.165 407.441 307.165C408.142 307.165 408.743 307.416 409.245 307.918C409.747 308.42 409.998 309.021 409.998 309.722C409.998 310.186 409.879 310.612 409.643 311C409.415 311.388 409.108 311.701 408.719 311.938C408.341 312.165 407.915 312.278 407.441 312.278ZM407.441 297.562C406.74 297.562 406.139 297.312 405.637 296.81C405.135 296.308 404.884 295.706 404.884 295.006C404.884 294.305 405.135 293.704 405.637 293.202C406.139 292.7 406.74 292.449 407.441 292.449C408.142 292.449 408.743 292.7 409.245 293.202C409.747 293.704 409.998 294.305 409.998 295.006C409.998 295.47 409.879 295.896 409.643 296.284C409.415 296.672 409.108 296.985 408.719 297.222C408.341 297.449 407.915 297.562 407.441 297.562ZM437.434 286.909V316H433.911V290.602H433.741L426.638 295.318V291.739L433.911 286.909H437.434ZM449.138 312.023L448.911 313.557C448.75 314.636 448.504 315.792 448.173 317.023C447.851 318.254 447.514 319.414 447.164 320.503C446.814 321.592 446.525 322.458 446.298 323.102H443.741C443.864 322.496 444.025 321.696 444.224 320.702C444.423 319.707 444.621 318.595 444.82 317.364C445.029 316.142 445.199 314.892 445.332 313.614L445.502 312.023H449.138ZM454.611 310.034V307.136L467.395 286.909H469.497V291.398H468.077L458.418 306.682V306.909H475.634V310.034H454.611ZM468.304 316V309.153V307.804V286.909H471.656V316H468.304ZM490.445 316.398C488.305 316.398 486.482 315.815 484.977 314.651C483.471 313.476 482.32 311.777 481.525 309.551C480.729 307.316 480.332 304.617 480.332 301.455C480.332 298.311 480.729 295.626 481.525 293.401C482.33 291.166 483.485 289.461 484.991 288.287C486.506 287.103 488.324 286.511 490.445 286.511C492.567 286.511 494.38 287.103 495.886 288.287C497.401 289.461 498.556 291.166 499.352 293.401C500.156 295.626 500.559 298.311 500.559 301.455C500.559 304.617 500.161 307.316 499.366 309.551C498.57 311.777 497.42 313.476 495.914 314.651C494.408 315.815 492.585 316.398 490.445 316.398ZM490.445 313.273C492.567 313.273 494.214 312.25 495.388 310.205C496.563 308.159 497.15 305.242 497.15 301.455C497.15 298.936 496.88 296.791 496.34 295.02C495.81 293.249 495.043 291.9 494.039 290.972C493.045 290.044 491.847 289.58 490.445 289.58C488.343 289.58 486.7 290.616 485.516 292.69C484.333 294.755 483.741 297.676 483.741 301.455C483.741 303.973 484.006 306.114 484.536 307.875C485.067 309.636 485.829 310.976 486.823 311.895C487.827 312.813 489.034 313.273 490.445 313.273ZM515.275 316.398C513.324 316.398 511.601 316.052 510.104 315.361C508.618 314.66 507.458 313.699 506.624 312.477C505.791 311.246 505.379 309.845 505.388 308.273C505.379 307.042 505.621 305.905 506.113 304.864C506.605 303.812 507.278 302.937 508.13 302.236C508.992 301.526 509.953 301.076 511.013 300.886V300.716C509.621 300.356 508.513 299.575 507.69 298.372C506.866 297.16 506.459 295.782 506.468 294.239C506.459 292.761 506.833 291.44 507.59 290.276C508.348 289.111 509.389 288.192 510.715 287.52C512.05 286.848 513.57 286.511 515.275 286.511C516.96 286.511 518.466 286.848 519.792 287.52C521.118 288.192 522.159 289.111 522.917 290.276C523.684 291.44 524.072 292.761 524.082 294.239C524.072 295.782 523.651 297.16 522.817 298.372C521.994 299.575 520.9 300.356 519.536 300.716V300.886C520.587 301.076 521.534 301.526 522.377 302.236C523.22 302.937 523.892 303.812 524.394 304.864C524.896 305.905 525.152 307.042 525.161 308.273C525.152 309.845 524.726 311.246 523.883 312.477C523.049 313.699 521.889 314.66 520.403 315.361C518.925 316.052 517.216 316.398 515.275 316.398ZM515.275 313.273C516.591 313.273 517.728 313.06 518.684 312.634C519.64 312.207 520.379 311.606 520.9 310.83C521.421 310.053 521.686 309.144 521.695 308.102C521.686 307.004 521.402 306.033 520.843 305.19C520.284 304.348 519.522 303.685 518.556 303.202C517.6 302.719 516.506 302.477 515.275 302.477C514.034 302.477 512.926 302.719 511.951 303.202C510.985 303.685 510.223 304.348 509.664 305.19C509.115 306.033 508.845 307.004 508.854 308.102C508.845 309.144 509.096 310.053 509.607 310.83C510.128 311.606 510.871 312.207 511.837 312.634C512.803 313.06 513.949 313.273 515.275 313.273ZM515.275 299.466C516.317 299.466 517.24 299.258 518.045 298.841C518.859 298.424 519.498 297.842 519.962 297.094C520.426 296.346 520.663 295.47 520.673 294.466C520.663 293.481 520.431 292.624 519.977 291.895C519.522 291.156 518.892 290.588 518.087 290.19C517.282 289.783 516.345 289.58 515.275 289.58C514.186 289.58 513.234 289.783 512.42 290.19C511.605 290.588 510.976 291.156 510.531 291.895C510.085 292.624 509.868 293.481 509.877 294.466C509.868 295.47 510.09 296.346 510.545 297.094C511.009 297.842 511.648 298.424 512.462 298.841C513.277 299.258 514.214 299.466 515.275 299.466ZM559.071 294.182V312.875H562.139V323.045H558.787V316H541.912V294.182H545.264V312.875H555.719V294.182H559.071ZM573.723 316.511C572.34 316.511 571.086 316.251 569.959 315.73C568.832 315.2 567.937 314.438 567.274 313.443C566.611 312.439 566.28 311.227 566.28 309.807C566.28 308.557 566.526 307.544 567.018 306.767C567.511 305.981 568.169 305.366 568.993 304.92C569.817 304.475 570.726 304.144 571.72 303.926C572.724 303.699 573.732 303.519 574.746 303.386C576.071 303.216 577.146 303.088 577.97 303.003C578.804 302.908 579.41 302.752 579.788 302.534C580.177 302.316 580.371 301.937 580.371 301.398V301.284C580.371 299.883 579.987 298.794 579.22 298.017C578.463 297.241 577.312 296.852 575.768 296.852C574.168 296.852 572.913 297.203 572.004 297.903C571.095 298.604 570.456 299.352 570.087 300.148L566.905 299.011C567.473 297.686 568.231 296.653 569.178 295.915C570.134 295.167 571.176 294.646 572.303 294.352C573.439 294.049 574.556 293.898 575.655 293.898C576.356 293.898 577.161 293.983 578.07 294.153C578.988 294.314 579.874 294.651 580.726 295.162C581.588 295.673 582.303 296.445 582.871 297.477C583.439 298.509 583.723 299.892 583.723 301.625V316H580.371V313.045H580.2C579.973 313.519 579.594 314.026 579.064 314.565C578.534 315.105 577.828 315.564 576.947 315.943C576.067 316.322 574.992 316.511 573.723 316.511ZM574.234 313.5C575.56 313.5 576.678 313.24 577.587 312.719C578.505 312.198 579.196 311.526 579.661 310.702C580.134 309.878 580.371 309.011 580.371 308.102V305.034C580.229 305.205 579.916 305.361 579.433 305.503C578.96 305.635 578.411 305.754 577.786 305.858C577.17 305.953 576.569 306.038 575.982 306.114C575.404 306.18 574.935 306.237 574.575 306.284C573.704 306.398 572.89 306.582 572.132 306.838C571.384 307.084 570.778 307.458 570.314 307.96C569.859 308.453 569.632 309.125 569.632 309.977C569.632 311.142 570.063 312.023 570.925 312.619C571.796 313.206 572.899 313.5 574.234 313.5ZM603.308 294.182V297.307H593.194V316H589.842V294.182H603.308Z" fill="black"/>
<path d="M121.774 338.909L129.274 351.011H129.501L137.001 338.909H141.149L132.001 353.455L141.149 368H137.001L129.501 356.125H129.274L121.774 368H117.626L127.001 353.455L117.626 338.909H121.774ZM151.7 368.511C150.317 368.511 149.062 368.251 147.935 367.73C146.808 367.2 145.914 366.438 145.251 365.443C144.588 364.439 144.256 363.227 144.256 361.807C144.256 360.557 144.503 359.544 144.995 358.767C145.487 357.981 146.146 357.366 146.969 356.92C147.793 356.475 148.702 356.144 149.697 355.926C150.701 355.699 151.709 355.519 152.722 355.386C154.048 355.216 155.123 355.088 155.947 355.003C156.78 354.908 157.386 354.752 157.765 354.534C158.153 354.316 158.347 353.937 158.347 353.398V353.284C158.347 351.883 157.964 350.794 157.197 350.017C156.439 349.241 155.289 348.852 153.745 348.852C152.145 348.852 150.89 349.203 149.981 349.903C149.072 350.604 148.433 351.352 148.063 352.148L144.881 351.011C145.45 349.686 146.207 348.653 147.154 347.915C148.111 347.167 149.152 346.646 150.279 346.352C151.415 346.049 152.533 345.898 153.631 345.898C154.332 345.898 155.137 345.983 156.046 346.153C156.965 346.314 157.85 346.651 158.702 347.162C159.564 347.673 160.279 348.445 160.847 349.477C161.415 350.509 161.7 351.892 161.7 353.625V368H158.347V365.045H158.177C157.95 365.519 157.571 366.026 157.04 366.565C156.51 367.105 155.805 367.564 154.924 367.943C154.043 368.322 152.969 368.511 151.7 368.511ZM152.211 365.5C153.537 365.5 154.654 365.24 155.563 364.719C156.482 364.198 157.173 363.526 157.637 362.702C158.111 361.878 158.347 361.011 158.347 360.102V357.034C158.205 357.205 157.893 357.361 157.41 357.503C156.936 357.635 156.387 357.754 155.762 357.858C155.147 357.953 154.545 358.038 153.958 358.114C153.38 358.18 152.912 358.237 152.552 358.284C151.681 358.398 150.866 358.582 150.109 358.838C149.361 359.084 148.754 359.458 148.29 359.96C147.836 360.453 147.609 361.125 147.609 361.977C147.609 363.142 148.04 364.023 148.901 364.619C149.772 365.206 150.876 365.5 152.211 365.5ZM179.75 363.455L187.364 346.182H190.545L181.114 368H178.386L169.125 346.182H172.25L179.75 363.455ZM171.17 346.182V368H167.818V346.182H171.17ZM188.33 368V346.182H191.682V368H188.33ZM211.284 346.182V349.307H201.17V368H197.818V346.182H211.284ZM219.53 363.057L230.041 346.182H233.905V368H230.553V351.125L220.098 368H216.178V346.182H219.53V363.057ZM243.397 363.057L253.908 346.182H257.772V368H254.42V351.125L243.965 368H240.045V346.182H243.397V363.057ZM251.692 338.909H254.817C254.817 340.443 254.287 341.698 253.227 342.673C252.166 343.649 250.727 344.136 248.908 344.136C247.119 344.136 245.693 343.649 244.633 342.673C243.582 341.698 243.056 340.443 243.056 338.909H246.181C246.181 339.648 246.385 340.296 246.792 340.855C247.209 341.414 247.914 341.693 248.908 341.693C249.903 341.693 250.613 341.414 251.039 340.855C251.475 340.296 251.692 339.648 251.692 338.909ZM278.514 355.557V358.682H266.469V355.557H278.514ZM267.264 346.182V368H263.912V346.182H267.264ZM281.071 346.182V368H277.719V346.182H281.071ZM297.08 368L305.943 356.92L297.193 346.182H301.17L308.443 355.5H310.261V346.182H313.614V355.5H315.375L322.648 346.182H326.625L317.932 356.92L326.739 368H322.705L315.318 358.625H313.614V368H310.261V358.625H308.557L301.114 368H297.08ZM334.881 363.057L345.393 346.182H349.256V368H345.904V351.125L335.45 368H331.529V346.182H334.881V363.057ZM354.033 368L362.896 356.92L354.146 346.182H358.124L365.396 355.5H367.214V346.182H370.567V355.5H372.328L379.601 346.182H383.578L374.885 356.92L383.692 368H379.658L372.271 358.625H370.567V368H367.214V358.625H365.51L358.067 368H354.033ZM391.835 363.057L402.346 346.182H406.21V368H402.857V351.125L392.403 368H388.482V346.182H391.835V363.057ZM425.815 346.182V349.307H415.702V368H412.349V346.182H425.815ZM455.425 346.182V349.307H445.311V368H441.959V346.182H455.425ZM465.606 368.511C464.223 368.511 462.969 368.251 461.842 367.73C460.715 367.2 459.82 366.438 459.157 365.443C458.494 364.439 458.163 363.227 458.163 361.807C458.163 360.557 458.409 359.544 458.901 358.767C459.394 357.981 460.052 357.366 460.876 356.92C461.7 356.475 462.609 356.144 463.603 355.926C464.607 355.699 465.615 355.519 466.629 355.386C467.954 355.216 469.029 355.088 469.853 355.003C470.686 354.908 471.292 354.752 471.671 354.534C472.059 354.316 472.254 353.937 472.254 353.398V353.284C472.254 351.883 471.87 350.794 471.103 350.017C470.345 349.241 469.195 348.852 467.651 348.852C466.051 348.852 464.796 349.203 463.887 349.903C462.978 350.604 462.339 351.352 461.969 352.148L458.788 351.011C459.356 349.686 460.113 348.653 461.06 347.915C462.017 347.167 463.058 346.646 464.185 346.352C465.322 346.049 466.439 345.898 467.538 345.898C468.238 345.898 469.043 345.983 469.952 346.153C470.871 346.314 471.756 346.651 472.609 347.162C473.47 347.673 474.185 348.445 474.754 349.477C475.322 350.509 475.606 351.892 475.606 353.625V368H472.254V365.045H472.083C471.856 365.519 471.477 366.026 470.947 366.565C470.416 367.105 469.711 367.564 468.83 367.943C467.95 368.322 466.875 368.511 465.606 368.511ZM466.117 365.5C467.443 365.5 468.56 365.24 469.469 364.719C470.388 364.198 471.079 363.526 471.543 362.702C472.017 361.878 472.254 361.011 472.254 360.102V357.034C472.112 357.205 471.799 357.361 471.316 357.503C470.843 357.635 470.293 357.754 469.668 357.858C469.053 357.953 468.451 358.038 467.864 358.114C467.287 358.18 466.818 358.237 466.458 358.284C465.587 358.398 464.772 358.582 464.015 358.838C463.267 359.084 462.661 359.458 462.197 359.96C461.742 360.453 461.515 361.125 461.515 361.977C461.515 363.142 461.946 364.023 462.808 364.619C463.679 365.206 464.782 365.5 466.117 365.5ZM481.724 376.182V346.182H484.963V349.648H485.361C485.607 349.269 485.948 348.786 486.384 348.199C486.829 347.602 487.463 347.072 488.287 346.608C489.12 346.134 490.247 345.898 491.668 345.898C493.505 345.898 495.124 346.357 496.526 347.276C497.927 348.194 499.021 349.496 499.807 351.182C500.593 352.867 500.986 354.856 500.986 357.148C500.986 359.458 500.593 361.461 499.807 363.156C499.021 364.842 497.932 366.149 496.54 367.077C495.148 367.995 493.543 368.455 491.724 368.455C490.323 368.455 489.201 368.223 488.358 367.759C487.515 367.285 486.866 366.75 486.412 366.153C485.957 365.547 485.607 365.045 485.361 364.648H485.077V376.182H481.724ZM485.02 357.091C485.02 358.739 485.261 360.192 485.744 361.452C486.227 362.702 486.933 363.682 487.861 364.392C488.789 365.093 489.925 365.443 491.27 365.443C492.671 365.443 493.841 365.074 494.778 364.335C495.725 363.587 496.436 362.583 496.909 361.324C497.392 360.055 497.634 358.644 497.634 357.091C497.634 355.557 497.397 354.174 496.923 352.943C496.459 351.703 495.754 350.723 494.807 350.003C493.869 349.274 492.69 348.909 491.27 348.909C489.906 348.909 488.76 349.255 487.832 349.946C486.904 350.628 486.204 351.584 485.73 352.815C485.257 354.037 485.02 355.462 485.02 357.091ZM512.52 368.511C511.137 368.511 509.883 368.251 508.756 367.73C507.629 367.2 506.734 366.438 506.071 365.443C505.408 364.439 505.077 363.227 505.077 361.807C505.077 360.557 505.323 359.544 505.815 358.767C506.308 357.981 506.966 357.366 507.79 356.92C508.614 356.475 509.523 356.144 510.517 355.926C511.521 355.699 512.529 355.519 513.543 355.386C514.868 355.216 515.943 355.088 516.767 355.003C517.6 354.908 518.206 354.752 518.585 354.534C518.973 354.316 519.168 353.937 519.168 353.398V353.284C519.168 351.883 518.784 350.794 518.017 350.017C517.259 349.241 516.109 348.852 514.565 348.852C512.965 348.852 511.71 349.203 510.801 349.903C509.892 350.604 509.253 351.352 508.884 352.148L505.702 351.011C506.27 349.686 507.027 348.653 507.974 347.915C508.931 347.167 509.973 346.646 511.099 346.352C512.236 346.049 513.353 345.898 514.452 345.898C515.152 345.898 515.957 345.983 516.866 346.153C517.785 346.314 518.67 346.651 519.523 347.162C520.384 347.673 521.099 348.445 521.668 349.477C522.236 350.509 522.52 351.892 522.52 353.625V368H519.168V365.045H518.997C518.77 365.519 518.391 366.026 517.861 366.565C517.33 367.105 516.625 367.564 515.744 367.943C514.864 368.322 513.789 368.511 512.52 368.511ZM513.031 365.5C514.357 365.5 515.474 365.24 516.384 364.719C517.302 364.198 517.993 363.526 518.457 362.702C518.931 361.878 519.168 361.011 519.168 360.102V357.034C519.026 357.205 518.713 357.361 518.23 357.503C517.757 357.635 517.207 357.754 516.582 357.858C515.967 357.953 515.366 358.038 514.778 358.114C514.201 358.18 513.732 358.237 513.372 358.284C512.501 358.398 511.687 358.582 510.929 358.838C510.181 359.084 509.575 359.458 509.111 359.96C508.656 360.453 508.429 361.125 508.429 361.977C508.429 363.142 508.86 364.023 509.722 364.619C510.593 365.206 511.696 365.5 513.031 365.5ZM542.104 346.182V349.307H531.991V368H528.638V346.182H542.104ZM574.441 338L576.146 340.045C575.483 340.689 574.716 341.139 573.844 341.395C572.973 341.651 571.988 341.807 570.89 341.864C569.791 341.92 568.57 341.977 567.225 342.034C565.71 342.091 564.455 342.46 563.461 343.142C562.467 343.824 561.7 344.809 561.16 346.097C560.62 347.384 560.274 348.966 560.123 350.841H560.407C561.146 349.477 562.168 348.473 563.475 347.83C564.782 347.186 566.183 346.864 567.68 346.864C569.384 346.864 570.918 347.261 572.282 348.057C573.646 348.852 574.725 350.031 575.521 351.594C576.316 353.156 576.714 355.083 576.714 357.375C576.714 359.657 576.307 361.627 575.492 363.284C574.687 364.941 573.556 366.22 572.097 367.119C570.648 368.009 568.949 368.455 566.998 368.455C565.047 368.455 563.338 367.995 561.87 367.077C560.402 366.149 559.261 364.776 558.447 362.957C557.632 361.13 557.225 358.871 557.225 356.182V353.852C557.225 348.994 558.049 345.311 559.697 342.801C561.354 340.292 563.844 338.994 567.168 338.909C568.343 338.871 569.389 338.862 570.308 338.881C571.226 338.9 572.026 338.857 572.708 338.753C573.39 338.649 573.968 338.398 574.441 338ZM566.998 365.443C568.314 365.443 569.446 365.112 570.393 364.449C571.349 363.786 572.083 362.853 572.594 361.651C573.106 360.438 573.362 359.013 573.362 357.375C573.362 355.784 573.101 354.43 572.58 353.312C572.069 352.195 571.335 351.343 570.379 350.756C569.422 350.169 568.276 349.875 566.941 349.875C565.966 349.875 565.09 350.041 564.313 350.372C563.537 350.704 562.874 351.191 562.325 351.835C561.775 352.479 561.349 353.265 561.046 354.193C560.753 355.121 560.596 356.182 560.577 357.375C560.577 359.818 561.15 361.774 562.296 363.241C563.442 364.709 565.009 365.443 566.998 365.443ZM598.347 355.642V358.54H583.063V355.642H598.347ZM590.705 368.455C588.736 368.455 587.007 367.986 585.521 367.048C584.043 366.111 582.888 364.799 582.055 363.114C581.231 361.428 580.819 359.458 580.819 357.205C580.819 354.932 581.231 352.948 582.055 351.253C582.888 349.558 584.043 348.241 585.521 347.304C587.007 346.366 588.736 345.898 590.705 345.898C592.675 345.898 594.398 346.366 595.876 347.304C597.362 348.241 598.518 349.558 599.342 351.253C600.175 352.948 600.592 354.932 600.592 357.205C600.592 359.458 600.175 361.428 599.342 363.114C598.518 364.799 597.362 366.111 595.876 367.048C594.398 367.986 592.675 368.455 590.705 368.455ZM590.705 365.443C592.201 365.443 593.433 365.06 594.398 364.293C595.364 363.526 596.079 362.517 596.543 361.267C597.007 360.017 597.239 358.663 597.239 357.205C597.239 355.746 597.007 354.387 596.543 353.128C596.079 351.868 595.364 350.85 594.398 350.074C593.433 349.297 592.201 348.909 590.705 348.909C589.209 348.909 587.978 349.297 587.012 350.074C586.046 350.85 585.331 351.868 584.867 353.128C584.403 354.387 584.171 355.746 584.171 357.205C584.171 358.663 584.403 360.017 584.867 361.267C585.331 362.517 586.046 363.526 587.012 364.293C587.978 365.06 589.209 365.443 590.705 365.443ZM619.175 346.182V349.307H609.061V368H605.709V346.182H619.175ZM639.441 355.642V358.54H624.157V355.642H639.441ZM631.799 368.455C629.829 368.455 628.101 367.986 626.614 367.048C625.137 366.111 623.982 364.799 623.148 363.114C622.325 361.428 621.913 359.458 621.913 357.205C621.913 354.932 622.325 352.948 623.148 351.253C623.982 349.558 625.137 348.241 626.614 347.304C628.101 346.366 629.829 345.898 631.799 345.898C633.769 345.898 635.492 346.366 636.969 347.304C638.456 348.241 639.612 349.558 640.435 351.253C641.269 352.948 641.685 354.932 641.685 357.205C641.685 359.458 641.269 361.428 640.435 363.114C639.612 364.799 638.456 366.111 636.969 367.048C635.492 367.986 633.769 368.455 631.799 368.455ZM631.799 365.443C633.295 365.443 634.526 365.06 635.492 364.293C636.458 363.526 637.173 362.517 637.637 361.267C638.101 360.017 638.333 358.663 638.333 357.205C638.333 355.746 638.101 354.387 637.637 353.128C637.173 351.868 636.458 350.85 635.492 350.074C634.526 349.297 633.295 348.909 631.799 348.909C630.303 348.909 629.072 349.297 628.106 350.074C627.14 350.85 626.425 351.868 625.961 353.128C625.497 354.387 625.265 355.746 625.265 357.205C625.265 358.663 625.497 360.017 625.961 361.267C626.425 362.517 627.14 363.526 628.106 364.293C629.072 365.06 630.303 365.443 631.799 365.443ZM663.308 355.642V358.54H648.024V355.642H663.308ZM655.666 368.455C653.696 368.455 651.968 367.986 650.482 367.048C649.004 366.111 647.849 364.799 647.016 363.114C646.192 361.428 645.78 359.458 645.78 357.205C645.78 354.932 646.192 352.948 647.016 351.253C647.849 349.558 649.004 348.241 650.482 347.304C651.968 346.366 653.696 345.898 655.666 345.898C657.636 345.898 659.359 346.366 660.837 347.304C662.323 348.241 663.479 349.558 664.303 351.253C665.136 352.948 665.553 354.932 665.553 357.205C665.553 359.458 665.136 361.428 664.303 363.114C663.479 364.799 662.323 366.111 660.837 367.048C659.359 367.986 657.636 368.455 655.666 368.455ZM655.666 365.443C657.162 365.443 658.393 365.06 659.359 364.293C660.325 363.526 661.04 362.517 661.504 361.267C661.968 360.017 662.2 358.663 662.2 357.205C662.2 355.746 661.968 354.387 661.504 353.128C661.04 351.868 660.325 350.85 659.359 350.074C658.393 349.297 657.162 348.909 655.666 348.909C654.17 348.909 652.939 349.297 651.973 350.074C651.007 350.85 650.292 351.868 649.828 353.128C649.364 354.387 649.132 355.746 649.132 357.205C649.132 358.663 649.364 360.017 649.828 361.267C650.292 362.517 651.007 363.526 651.973 364.293C652.939 365.06 654.17 365.443 655.666 365.443ZM668.34 374.25V364.875H670.158C670.603 364.411 670.987 363.909 671.309 363.369C671.631 362.83 671.91 362.19 672.147 361.452C672.393 360.704 672.602 359.795 672.772 358.724C672.942 357.645 673.094 356.343 673.227 354.818L673.965 346.182H687.829V364.875H691.181V374.25H687.829V368H671.692V374.25H668.34ZM673.965 364.875H684.477V349.307H677.09L676.522 354.818C676.285 357.1 675.992 359.094 675.641 360.798C675.291 362.503 674.732 363.862 673.965 364.875ZM89.5671 394.182V412.875H92.6353V423.045H89.283V416H72.408V394.182H75.7603V412.875H86.2148V394.182H89.5671ZM104.219 416.511C102.837 416.511 101.582 416.251 100.455 415.73C99.328 415.2 98.4331 414.438 97.7702 413.443C97.1074 412.439 96.7759 411.227 96.7759 409.807C96.7759 408.557 97.0221 407.544 97.5146 406.767C98.007 405.981 98.6651 405.366 99.489 404.92C100.313 404.475 101.222 404.144 102.216 403.926C103.22 403.699 104.229 403.519 105.242 403.386C106.568 403.216 107.642 403.088 108.466 403.003C109.3 402.908 109.906 402.752 110.284 402.534C110.673 402.316 110.867 401.937 110.867 401.398V401.284C110.867 399.883 110.483 398.794 109.716 398.017C108.959 397.241 107.808 396.852 106.265 396.852C104.664 396.852 103.409 397.203 102.5 397.903C101.591 398.604 100.952 399.352 100.583 400.148L97.4009 399.011C97.9691 397.686 98.7267 396.653 99.6737 395.915C100.63 395.167 101.672 394.646 102.799 394.352C103.935 394.049 105.052 393.898 106.151 393.898C106.852 393.898 107.657 393.983 108.566 394.153C109.484 394.314 110.37 394.651 111.222 395.162C112.084 395.673 112.799 396.445 113.367 397.477C113.935 398.509 114.219 399.892 114.219 401.625V416H110.867V413.045H110.696C110.469 413.519 110.09 414.026 109.56 414.565C109.03 415.105 108.324 415.564 107.444 415.943C106.563 416.322 105.488 416.511 104.219 416.511ZM104.73 413.5C106.056 413.5 107.174 413.24 108.083 412.719C109.001 412.198 109.693 411.526 110.157 410.702C110.63 409.878 110.867 409.011 110.867 408.102V405.034C110.725 405.205 110.412 405.361 109.929 405.503C109.456 405.635 108.907 405.754 108.282 405.858C107.666 405.953 107.065 406.038 106.478 406.114C105.9 406.18 105.431 406.237 105.071 406.284C104.2 406.398 103.386 406.582 102.628 406.838C101.88 407.084 101.274 407.458 100.81 407.96C100.355 408.453 100.128 409.125 100.128 409.977C100.128 411.142 100.559 412.023 101.421 412.619C102.292 413.206 103.395 413.5 104.73 413.5ZM133.804 394.182V397.307H123.69V416H120.338V394.182H133.804ZM156.368 416.511C154.985 416.511 153.73 416.251 152.603 415.73C151.476 415.2 150.582 414.438 149.919 413.443C149.256 412.439 148.924 411.227 148.924 409.807C148.924 408.557 149.171 407.544 149.663 406.767C150.155 405.981 150.814 405.366 151.637 404.92C152.461 404.475 153.37 404.144 154.365 403.926C155.368 403.699 156.377 403.519 157.39 403.386C158.716 403.216 159.791 403.088 160.615 403.003C161.448 402.908 162.054 402.752 162.433 402.534C162.821 402.316 163.015 401.937 163.015 401.398V401.284C163.015 399.883 162.632 398.794 161.865 398.017C161.107 397.241 159.957 396.852 158.413 396.852C156.813 396.852 155.558 397.203 154.649 397.903C153.74 398.604 153.1 399.352 152.731 400.148L149.549 399.011C150.118 397.686 150.875 396.653 151.822 395.915C152.779 395.167 153.82 394.646 154.947 394.352C156.083 394.049 157.201 393.898 158.299 393.898C159 393.898 159.805 393.983 160.714 394.153C161.633 394.314 162.518 394.651 163.37 395.162C164.232 395.673 164.947 396.445 165.515 397.477C166.083 398.509 166.368 399.892 166.368 401.625V416H163.015V413.045H162.845C162.618 413.519 162.239 414.026 161.708 414.565C161.178 415.105 160.473 415.564 159.592 415.943C158.711 416.322 157.636 416.511 156.368 416.511ZM156.879 413.5C158.205 413.5 159.322 413.24 160.231 412.719C161.15 412.198 161.841 411.526 162.305 410.702C162.779 409.878 163.015 409.011 163.015 408.102V405.034C162.873 405.205 162.561 405.361 162.078 405.503C161.604 405.635 161.055 405.754 160.43 405.858C159.815 405.953 159.213 406.038 158.626 406.114C158.048 406.18 157.58 406.237 157.22 406.284C156.349 406.398 155.534 406.582 154.777 406.838C154.029 407.084 153.422 407.458 152.958 407.96C152.504 408.453 152.277 409.125 152.277 409.977C152.277 411.142 152.708 412.023 153.569 412.619C154.44 413.206 155.544 413.5 156.879 413.5ZM185.952 394.182V397.307H175.838V416H172.486V394.182H185.952ZM196.133 416.511C194.751 416.511 193.496 416.251 192.369 415.73C191.242 415.2 190.347 414.438 189.684 413.443C189.021 412.439 188.69 411.227 188.69 409.807C188.69 408.557 188.936 407.544 189.429 406.767C189.921 405.981 190.579 405.366 191.403 404.92C192.227 404.475 193.136 404.144 194.13 403.926C195.134 403.699 196.143 403.519 197.156 403.386C198.482 403.216 199.556 403.088 200.38 403.003C201.214 402.908 201.82 402.752 202.199 402.534C202.587 402.316 202.781 401.937 202.781 401.398V401.284C202.781 399.883 202.397 398.794 201.63 398.017C200.873 397.241 199.722 396.852 198.179 396.852C196.578 396.852 195.324 397.203 194.414 397.903C193.505 398.604 192.866 399.352 192.497 400.148L189.315 399.011C189.883 397.686 190.641 396.653 191.588 395.915C192.544 395.167 193.586 394.646 194.713 394.352C195.849 394.049 196.967 393.898 198.065 393.898C198.766 393.898 199.571 393.983 200.48 394.153C201.398 394.314 202.284 394.651 203.136 395.162C203.998 395.673 204.713 396.445 205.281 397.477C205.849 398.509 206.133 399.892 206.133 401.625V416H202.781V413.045H202.61C202.383 413.519 202.004 414.026 201.474 414.565C200.944 415.105 200.238 415.564 199.358 415.943C198.477 416.322 197.402 416.511 196.133 416.511ZM196.645 413.5C197.97 413.5 199.088 413.24 199.997 412.719C200.915 412.198 201.607 411.526 202.071 410.702C202.544 409.878 202.781 409.011 202.781 408.102V405.034C202.639 405.205 202.326 405.361 201.843 405.503C201.37 405.635 200.821 405.754 200.196 405.858C199.58 405.953 198.979 406.038 198.392 406.114C197.814 406.18 197.345 406.237 196.985 406.284C196.114 406.398 195.3 406.582 194.542 406.838C193.794 407.084 193.188 407.458 192.724 407.96C192.27 408.453 192.042 409.125 192.042 409.977C192.042 411.142 192.473 412.023 193.335 412.619C194.206 413.206 195.309 413.5 196.645 413.5ZM218.672 416.511C217.29 416.511 216.035 416.251 214.908 415.73C213.781 415.2 212.886 414.438 212.223 413.443C211.56 412.439 211.229 411.227 211.229 409.807C211.229 408.557 211.475 407.544 211.968 406.767C212.46 405.981 213.118 405.366 213.942 404.92C214.766 404.475 215.675 404.144 216.669 403.926C217.673 403.699 218.682 403.519 219.695 403.386C221.021 403.216 222.096 403.088 222.919 403.003C223.753 402.908 224.359 402.752 224.738 402.534C225.126 402.316 225.32 401.937 225.32 401.398V401.284C225.32 399.883 224.936 398.794 224.169 398.017C223.412 397.241 222.261 396.852 220.718 396.852C219.117 396.852 217.863 397.203 216.953 397.903C216.044 398.604 215.405 399.352 215.036 400.148L211.854 399.011C212.422 397.686 213.18 396.653 214.127 395.915C215.083 395.167 216.125 394.646 217.252 394.352C218.388 394.049 219.506 393.898 220.604 393.898C221.305 393.898 222.11 393.983 223.019 394.153C223.937 394.314 224.823 394.651 225.675 395.162C226.537 395.673 227.252 396.445 227.82 397.477C228.388 398.509 228.672 399.892 228.672 401.625V416H225.32V413.045H225.15C224.922 413.519 224.543 414.026 224.013 414.565C223.483 415.105 222.777 415.564 221.897 415.943C221.016 416.322 219.941 416.511 218.672 416.511ZM219.184 413.5C220.509 413.5 221.627 413.24 222.536 412.719C223.454 412.198 224.146 411.526 224.61 410.702C225.083 409.878 225.32 409.011 225.32 408.102V405.034C225.178 405.205 224.865 405.361 224.382 405.503C223.909 405.635 223.36 405.754 222.735 405.858C222.119 405.953 221.518 406.038 220.931 406.114C220.353 406.18 219.884 406.237 219.525 406.284C218.653 406.398 217.839 406.582 217.081 406.838C216.333 407.084 215.727 407.458 215.263 407.96C214.809 408.453 214.581 409.125 214.581 409.977C214.581 411.142 215.012 412.023 215.874 412.619C216.745 413.206 217.848 413.5 219.184 413.5ZM234.791 424.182V394.182H238.029V397.648H238.427C238.673 397.269 239.014 396.786 239.45 396.199C239.895 395.602 240.529 395.072 241.353 394.608C242.187 394.134 243.314 393.898 244.734 393.898C246.571 393.898 248.19 394.357 249.592 395.276C250.993 396.194 252.087 397.496 252.873 399.182C253.659 400.867 254.052 402.856 254.052 405.148C254.052 407.458 253.659 409.461 252.873 411.156C252.087 412.842 250.998 414.149 249.606 415.077C248.214 415.995 246.609 416.455 244.791 416.455C243.389 416.455 242.267 416.223 241.424 415.759C240.582 415.285 239.933 414.75 239.478 414.153C239.024 413.547 238.673 413.045 238.427 412.648H238.143V424.182H234.791ZM238.086 405.091C238.086 406.739 238.328 408.192 238.811 409.452C239.294 410.702 239.999 411.682 240.927 412.392C241.855 413.093 242.992 413.443 244.336 413.443C245.738 413.443 246.907 413.074 247.845 412.335C248.792 411.587 249.502 410.583 249.975 409.324C250.458 408.055 250.7 406.644 250.7 405.091C250.7 403.557 250.463 402.174 249.99 400.943C249.526 399.703 248.82 398.723 247.873 398.003C246.936 397.274 245.757 396.909 244.336 396.909C242.973 396.909 241.827 397.255 240.899 397.946C239.971 398.628 239.27 399.584 238.797 400.815C238.323 402.037 238.086 403.462 238.086 405.091ZM282.348 411.455L289.961 394.182H293.143L283.711 416H280.984L271.723 394.182H274.848L282.348 411.455ZM273.768 394.182V416H270.416V394.182H273.768ZM290.927 416V394.182H294.279V416H290.927ZM306.836 416.511C305.454 416.511 304.199 416.251 303.072 415.73C301.945 415.2 301.05 414.438 300.387 413.443C299.725 412.439 299.393 411.227 299.393 409.807C299.393 408.557 299.639 407.544 300.132 406.767C300.624 405.981 301.282 405.366 302.106 404.92C302.93 404.475 303.839 404.144 304.833 403.926C305.837 403.699 306.846 403.519 307.859 403.386C309.185 403.216 310.26 403.088 311.083 403.003C311.917 402.908 312.523 402.752 312.902 402.534C313.29 402.316 313.484 401.937 313.484 401.398V401.284C313.484 399.883 313.1 398.794 312.333 398.017C311.576 397.241 310.425 396.852 308.882 396.852C307.281 396.852 306.027 397.203 305.118 397.903C304.208 398.604 303.569 399.352 303.2 400.148L300.018 399.011C300.586 397.686 301.344 396.653 302.291 395.915C303.247 395.167 304.289 394.646 305.416 394.352C306.552 394.049 307.67 393.898 308.768 393.898C309.469 393.898 310.274 393.983 311.183 394.153C312.101 394.314 312.987 394.651 313.839 395.162C314.701 395.673 315.416 396.445 315.984 397.477C316.552 398.509 316.836 399.892 316.836 401.625V416H313.484V413.045H313.314C313.086 413.519 312.708 414.026 312.177 414.565C311.647 415.105 310.941 415.564 310.061 415.943C309.18 416.322 308.105 416.511 306.836 416.511ZM307.348 413.5C308.673 413.5 309.791 413.24 310.7 412.719C311.618 412.198 312.31 411.526 312.774 410.702C313.247 409.878 313.484 409.011 313.484 408.102V405.034C313.342 405.205 313.029 405.361 312.547 405.503C312.073 405.635 311.524 405.754 310.899 405.858C310.283 405.953 309.682 406.038 309.095 406.114C308.517 406.18 308.048 406.237 307.689 406.284C306.817 406.398 306.003 406.582 305.245 406.838C304.497 407.084 303.891 407.458 303.427 407.96C302.973 408.453 302.745 409.125 302.745 409.977C302.745 411.142 303.176 412.023 304.038 412.619C304.909 413.206 306.012 413.5 307.348 413.5ZM322.955 394.182H326.307V412.875H334.546V394.182H337.898V412.875H346.137V394.182H349.489V416H322.955V394.182ZM369.361 394.182L374.588 403.102L379.816 394.182H383.679L376.634 405.091L383.679 416H379.816L374.588 407.534L369.361 416H365.498L372.429 405.091L365.498 394.182H369.361ZM390.622 424.182C390.054 424.182 389.547 424.134 389.102 424.04C388.657 423.955 388.349 423.869 388.179 423.784L389.031 420.83C389.845 421.038 390.565 421.114 391.19 421.057C391.815 421 392.369 420.721 392.852 420.219C393.344 419.726 393.794 418.926 394.201 417.818L394.826 416.114L386.758 394.182H390.395L396.417 411.568H396.645L402.667 394.182H406.304L397.042 419.182C396.626 420.309 396.109 421.241 395.494 421.98C394.878 422.728 394.163 423.282 393.349 423.642C392.544 424.002 391.635 424.182 390.622 424.182ZM410.728 424.182V394.182H413.967V397.648H414.365C414.611 397.269 414.952 396.786 415.387 396.199C415.833 395.602 416.467 395.072 417.291 394.608C418.124 394.134 419.251 393.898 420.672 393.898C422.509 393.898 424.128 394.357 425.529 395.276C426.931 396.194 428.025 397.496 428.811 399.182C429.597 400.867 429.99 402.856 429.99 405.148C429.99 407.458 429.597 409.461 428.811 411.156C428.025 412.842 426.936 414.149 425.544 415.077C424.152 415.995 422.547 416.455 420.728 416.455C419.327 416.455 418.205 416.223 417.362 415.759C416.519 415.285 415.87 414.75 415.416 414.153C414.961 413.547 414.611 413.045 414.365 412.648H414.081V424.182H410.728ZM414.024 405.091C414.024 406.739 414.265 408.192 414.748 409.452C415.231 410.702 415.937 411.682 416.865 412.392C417.793 413.093 418.929 413.443 420.274 413.443C421.675 413.443 422.845 413.074 423.782 412.335C424.729 411.587 425.44 410.583 425.913 409.324C426.396 408.055 426.637 406.644 426.637 405.091C426.637 403.557 426.401 402.174 425.927 400.943C425.463 399.703 424.758 398.723 423.811 398.003C422.873 397.274 421.694 396.909 420.274 396.909C418.91 396.909 417.764 397.255 416.836 397.946C415.908 398.628 415.208 399.584 414.734 400.815C414.261 402.037 414.024 403.462 414.024 405.091ZM432.774 422.25V412.875H434.592C435.037 412.411 435.421 411.909 435.743 411.369C436.065 410.83 436.344 410.19 436.581 409.452C436.827 408.704 437.035 407.795 437.206 406.724C437.376 405.645 437.528 404.343 437.66 402.818L438.399 394.182H452.262V412.875H455.615V422.25H452.262V416H436.126V422.25H432.774ZM438.399 412.875H448.91V397.307H441.524L440.956 402.818C440.719 405.1 440.425 407.094 440.075 408.798C439.725 410.503 439.166 411.862 438.399 412.875ZM466.485 416.511C465.102 416.511 463.847 416.251 462.721 415.73C461.594 415.2 460.699 414.438 460.036 413.443C459.373 412.439 459.042 411.227 459.042 409.807C459.042 408.557 459.288 407.544 459.78 406.767C460.273 405.981 460.931 405.366 461.755 404.92C462.578 404.475 463.488 404.144 464.482 403.926C465.486 403.699 466.494 403.519 467.507 403.386C468.833 403.216 469.908 403.088 470.732 403.003C471.565 402.908 472.171 402.752 472.55 402.534C472.938 402.316 473.132 401.937 473.132 401.398V401.284C473.132 399.883 472.749 398.794 471.982 398.017C471.224 397.241 470.074 396.852 468.53 396.852C466.93 396.852 465.675 397.203 464.766 397.903C463.857 398.604 463.218 399.352 462.848 400.148L459.667 399.011C460.235 397.686 460.992 396.653 461.939 395.915C462.896 395.167 463.937 394.646 465.064 394.352C466.201 394.049 467.318 393.898 468.417 393.898C469.117 393.898 469.922 393.983 470.831 394.153C471.75 394.314 472.635 394.651 473.488 395.162C474.349 395.673 475.064 396.445 475.632 397.477C476.201 398.509 476.485 399.892 476.485 401.625V416H473.132V413.045H472.962C472.735 413.519 472.356 414.026 471.826 414.565C471.295 415.105 470.59 415.564 469.709 415.943C468.828 416.322 467.754 416.511 466.485 416.511ZM466.996 413.5C468.322 413.5 469.439 413.24 470.348 412.719C471.267 412.198 471.958 411.526 472.422 410.702C472.896 409.878 473.132 409.011 473.132 408.102V405.034C472.99 405.205 472.678 405.361 472.195 405.503C471.721 405.635 471.172 405.754 470.547 405.858C469.932 405.953 469.33 406.038 468.743 406.114C468.166 406.18 467.697 406.237 467.337 406.284C466.466 406.398 465.651 406.582 464.894 406.838C464.146 407.084 463.54 407.458 463.076 407.96C462.621 408.453 462.394 409.125 462.394 409.977C462.394 411.142 462.825 412.023 463.686 412.619C464.558 413.206 465.661 413.5 466.996 413.5ZM497.206 403.557V406.682H485.16V403.557H497.206ZM485.956 394.182V416H482.603V394.182H485.956ZM499.762 394.182V416H496.41V394.182H499.762ZM533.64 403.642V406.54H518.356V403.642H533.64ZM525.998 416.455C524.029 416.455 522.3 415.986 520.814 415.048C519.336 414.111 518.181 412.799 517.348 411.114C516.524 409.428 516.112 407.458 516.112 405.205C516.112 402.932 516.524 400.948 517.348 399.253C518.181 397.558 519.336 396.241 520.814 395.304C522.3 394.366 524.029 393.898 525.998 393.898C527.968 393.898 529.691 394.366 531.169 395.304C532.655 396.241 533.811 397.558 534.635 399.253C535.468 400.948 535.885 402.932 535.885 405.205C535.885 407.458 535.468 409.428 534.635 411.114C533.811 412.799 532.655 414.111 531.169 415.048C529.691 415.986 527.968 416.455 525.998 416.455ZM525.998 413.443C527.494 413.443 528.725 413.06 529.691 412.293C530.657 411.526 531.372 410.517 531.836 409.267C532.3 408.017 532.532 406.663 532.532 405.205C532.532 403.746 532.3 402.387 531.836 401.128C531.372 399.868 530.657 398.85 529.691 398.074C528.725 397.297 527.494 396.909 525.998 396.909C524.502 396.909 523.271 397.297 522.305 398.074C521.339 398.85 520.624 399.868 520.16 401.128C519.696 402.387 519.464 403.746 519.464 405.205C519.464 406.663 519.696 408.017 520.16 409.267C520.624 410.517 521.339 411.526 522.305 412.293C523.271 413.06 524.502 413.443 525.998 413.443ZM557.507 403.642V406.54H542.223V403.642H557.507ZM549.865 416.455C547.896 416.455 546.167 415.986 544.681 415.048C543.203 414.111 542.048 412.799 541.215 411.114C540.391 409.428 539.979 407.458 539.979 405.205C539.979 402.932 540.391 400.948 541.215 399.253C542.048 397.558 543.203 396.241 544.681 395.304C546.167 394.366 547.896 393.898 549.865 393.898C551.835 393.898 553.559 394.366 555.036 395.304C556.523 396.241 557.678 397.558 558.502 399.253C559.335 400.948 559.752 402.932 559.752 405.205C559.752 407.458 559.335 409.428 558.502 411.114C557.678 412.799 556.523 414.111 555.036 415.048C553.559 415.986 551.835 416.455 549.865 416.455ZM549.865 413.443C551.362 413.443 552.593 413.06 553.559 412.293C554.525 411.526 555.239 410.517 555.703 409.267C556.167 408.017 556.4 406.663 556.4 405.205C556.4 403.746 556.167 402.387 555.703 401.128C555.239 399.868 554.525 398.85 553.559 398.074C552.593 397.297 551.362 396.909 549.865 396.909C548.369 396.909 547.138 397.297 546.172 398.074C545.206 398.85 544.491 399.868 544.027 401.128C543.563 402.387 543.331 403.746 543.331 405.205C543.331 406.663 543.563 408.017 544.027 409.267C544.491 410.517 545.206 411.526 546.172 412.293C547.138 413.06 548.369 413.443 549.865 413.443ZM564.869 424.182V394.182H568.108V397.648H568.505C568.752 397.269 569.092 396.786 569.528 396.199C569.973 395.602 570.608 395.072 571.431 394.608C572.265 394.134 573.392 393.898 574.812 393.898C576.649 393.898 578.269 394.357 579.67 395.276C581.072 396.194 582.165 397.496 582.951 399.182C583.737 400.867 584.13 402.856 584.13 405.148C584.13 407.458 583.737 409.461 582.951 411.156C582.165 412.842 581.076 414.149 579.684 415.077C578.292 415.995 576.687 416.455 574.869 416.455C573.467 416.455 572.345 416.223 571.502 415.759C570.66 415.285 570.011 414.75 569.556 414.153C569.102 413.547 568.752 413.045 568.505 412.648H568.221V424.182H564.869ZM568.164 405.091C568.164 406.739 568.406 408.192 568.889 409.452C569.372 410.702 570.077 411.682 571.005 412.392C571.933 413.093 573.07 413.443 574.414 413.443C575.816 413.443 576.985 413.074 577.923 412.335C578.87 411.587 579.58 410.583 580.054 409.324C580.537 408.055 580.778 406.644 580.778 405.091C580.778 403.557 580.541 402.174 580.068 400.943C579.604 399.703 578.898 398.723 577.951 398.003C577.014 397.274 575.835 396.909 574.414 396.909C573.051 396.909 571.905 397.255 570.977 397.946C570.049 398.628 569.348 399.584 568.875 400.815C568.401 402.037 568.164 403.462 568.164 405.091ZM606.062 394.182V416H602.71V394.182H606.062ZM604.755 404.58V407.705C603.998 407.989 603.245 408.24 602.497 408.457C601.749 408.666 600.963 408.831 600.139 408.955C599.315 409.068 598.411 409.125 597.426 409.125C594.954 409.125 592.97 408.457 591.474 407.122C589.987 405.787 589.244 403.784 589.244 401.114V394.125H592.596V401.114C592.596 402.231 592.809 403.15 593.235 403.869C593.662 404.589 594.239 405.124 594.968 405.474C595.698 405.825 596.517 406 597.426 406C598.846 406 600.129 405.872 601.275 405.616C602.431 405.351 603.591 405.006 604.755 404.58ZM610.281 416V412.875H611.076C611.73 412.875 612.274 412.747 612.71 412.491C613.145 412.226 613.496 411.767 613.761 411.114C614.036 410.451 614.244 409.532 614.386 408.358C614.538 407.174 614.646 405.669 614.713 403.841L615.11 394.182H629.656V416H626.304V397.307H618.292L617.951 405.091C617.876 406.881 617.715 408.457 617.468 409.821C617.232 411.175 616.867 412.312 616.375 413.23C615.892 414.149 615.248 414.84 614.443 415.304C613.638 415.768 612.629 416 611.417 416H610.281ZM652.312 403.642V406.54H637.028V403.642H652.312ZM644.67 416.455C642.7 416.455 640.972 415.986 639.485 415.048C638.008 414.111 636.853 412.799 636.02 411.114C635.196 409.428 634.784 407.458 634.784 405.205C634.784 402.932 635.196 400.948 636.02 399.253C636.853 397.558 638.008 396.241 639.485 395.304C640.972 394.366 642.7 393.898 644.67 393.898C646.64 393.898 648.363 394.366 649.841 395.304C651.327 396.241 652.483 397.558 653.306 399.253C654.14 400.948 654.556 402.932 654.556 405.205C654.556 407.458 654.14 409.428 653.306 411.114C652.483 412.799 651.327 414.111 649.841 415.048C648.363 415.986 646.64 416.455 644.67 416.455ZM644.67 413.443C646.166 413.443 647.397 413.06 648.363 412.293C649.329 411.526 650.044 410.517 650.508 409.267C650.972 408.017 651.204 406.663 651.204 405.205C651.204 403.746 650.972 402.387 650.508 401.128C650.044 399.868 649.329 398.85 648.363 398.074C647.397 397.297 646.166 396.909 644.67 396.909C643.174 396.909 641.943 397.297 640.977 398.074C640.011 398.85 639.296 399.868 638.832 401.128C638.368 402.387 638.136 403.746 638.136 405.205C638.136 406.663 638.368 408.017 638.832 409.267C639.296 410.517 640.011 411.526 640.977 412.293C641.943 413.06 643.174 413.443 644.67 413.443ZM673.14 394.182V397.307H663.026V416H659.674V394.182H673.14ZM673.868 422.25V412.875H675.686C676.131 412.411 676.514 411.909 676.836 411.369C677.158 410.83 677.438 410.19 677.674 409.452C677.921 408.704 678.129 407.795 678.299 406.724C678.47 405.645 678.621 404.343 678.754 402.818L679.493 394.182H693.356V412.875H696.708V422.25H693.356V416H677.22V422.25H673.868ZM679.493 412.875H690.004V397.307H682.618L682.049 402.818C681.813 405.1 681.519 407.094 681.169 408.798C680.818 410.503 680.26 411.862 679.493 412.875ZM698.828 422.25V412.875H700.647C701.092 412.411 701.475 411.909 701.797 411.369C702.119 410.83 702.399 410.19 702.635 409.452C702.882 408.704 703.09 407.795 703.26 406.724C703.431 405.645 703.582 404.343 703.715 402.818L704.453 394.182H718.317V412.875H721.669V422.25H718.317V416H702.181V422.25H698.828ZM704.453 412.875H714.965V397.307H707.578L707.01 402.818C706.774 405.1 706.48 407.094 706.13 408.798C705.779 410.503 705.221 411.862 704.453 412.875ZM742.625 403.642V406.54H727.341V403.642H742.625ZM734.983 416.455C733.013 416.455 731.285 415.986 729.798 415.048C728.321 414.111 727.165 412.799 726.332 411.114C725.508 409.428 725.096 407.458 725.096 405.205C725.096 402.932 725.508 400.948 726.332 399.253C727.165 397.558 728.321 396.241 729.798 395.304C731.285 394.366 733.013 393.898 734.983 393.898C736.952 393.898 738.676 394.366 740.153 395.304C741.64 396.241 742.795 397.558 743.619 399.253C744.452 400.948 744.869 402.932 744.869 405.205C744.869 407.458 744.452 409.428 743.619 411.114C742.795 412.799 741.64 414.111 740.153 415.048C738.676 415.986 736.952 416.455 734.983 416.455ZM734.983 413.443C736.479 413.443 737.71 413.06 738.676 412.293C739.642 411.526 740.357 410.517 740.821 409.267C741.285 408.017 741.517 406.663 741.517 405.205C741.517 403.746 741.285 402.387 740.821 401.128C740.357 399.868 739.642 398.85 738.676 398.074C737.71 397.297 736.479 396.909 734.983 396.909C733.486 396.909 732.255 397.297 731.289 398.074C730.324 398.85 729.609 399.868 729.145 401.128C728.681 402.387 728.449 403.746 728.449 405.205C728.449 406.663 728.681 408.017 729.145 409.267C729.609 410.517 730.324 411.526 731.289 412.293C732.255 413.06 733.486 413.443 734.983 413.443ZM763.452 394.182V397.307H753.338V416H749.986V394.182H763.452ZM767.156 416.227C766.455 416.227 765.854 415.976 765.352 415.474C764.85 414.973 764.599 414.371 764.599 413.67C764.599 412.97 764.85 412.368 765.352 411.866C765.854 411.365 766.455 411.114 767.156 411.114C767.857 411.114 768.458 411.365 768.96 411.866C769.462 412.368 769.713 412.97 769.713 413.67C769.713 414.134 769.594 414.561 769.358 414.949C769.13 415.337 768.823 415.65 768.434 415.886C768.056 416.114 767.629 416.227 767.156 416.227Z" fill="black"/>
<defs>
<filter id="filter0_ddii_398_56" x="0" y="0" width="834" height="484" filterUnits="userSpaceOnUse" color-interpolation-filters="sRGB">
<feFlood flood-opacity="0" result="BackgroundImageFix"/>
<feColorMatrix in="SourceAlpha" type="matrix" values="0 0 0 0 0 0 0 0 0 0 0 0 0 0 0 0 0 0 127 0" result="hardAlpha"/>
<feMorphology radius="5" operator="dilate" in="SourceAlpha" result="effect1_dropShadow_398_56"/>
<feOffset dx="-10" dy="-10"/>
<feGaussianBlur stdDeviation="2.5"/>
<feComposite in2="hardAlpha" operator="out"/>
<feColorMatrix type="matrix" values="0 0 0 0 0.133333 0 0 0 0 0.0117647 0 0 0 0 0.396078 0 0 0 0.25 0"/>
<feBlend mode="normal" in2="BackgroundImageFix" result="effect1_dropShadow_398_56"/>
<feColorMatrix in="SourceAlpha" type="matrix" values="0 0 0 0 0 0 0 0 0 0 0 0 0 0 0 0 0 0 127 0" result="hardAlpha"/>
<feMorphology radius="5" operator="dilate" in="SourceAlpha" result="effect2_dropShadow_398_56"/>
<feOffset dx="10" dy="10"/>
<feGaussianBlur stdDeviation="2.5"/>
<feComposite in2="hardAlpha" operator="out"/>
<feColorMatrix type="matrix" values="0 0 0 0 0.133941 0 0 0 0 0.0133056 0 0 0 0 0.395808 0 0 0 0.25 0"/>
<feBlend mode="normal" in2="effect1_dropShadow_398_56" result="effect2_dropShadow_398_56"/>
<feBlend mode="normal" in="SourceGraphic" in2="effect2_dropShadow_398_56" result="shape"/>
<feColorMatrix in="SourceAlpha" type="matrix" values="0 0 0 0 0 0 0 0 0 0 0 0 0 0 0 0 0 0 127 0" result="hardAlpha"/>
<feMorphology radius="5" operator="erode" in="SourceAlpha" result="effect3_innerShadow_398_56"/>
<feOffset dx="-10" dy="-10"/>
<feGaussianBlur stdDeviation="2.5"/>
<feComposite in2="hardAlpha" operator="arithmetic" k2="-1" k3="1"/>
<feColorMatrix type="matrix" values="0 0 0 0 0.509804 0 0 0 0 0.337255 0 0 0 0 0.721569 0 0 0 0.16 0"/>
<feBlend mode="normal" in2="shape" result="effect3_innerShadow_398_56"/>
<feColorMatrix in="SourceAlpha" type="matrix" values="0 0 0 0 0 0 0 0 0 0 0 0 0 0 0 0 0 0 127 0" result="hardAlpha"/>
<feMorphology radius="5" operator="erode" in="SourceAlpha" result="effect4_innerShadow_398_56"/>
<feOffset dx="10" dy="10"/>
<feGaussianBlur stdDeviation="2.5"/>
<feComposite in2="hardAlpha" operator="arithmetic" k2="-1" k3="1"/>
<feColorMatrix type="matrix" values="0 0 0 0 0.505882 0 0 0 0 0.329412 0 0 0 0 0.72549 0 0 0 0.16 0"/>
<feBlend mode="normal" in2="effect3_innerShadow_398_56" result="effect4_innerShadow_398_56"/>
</filter>
</defs>
</svg>
