<svg width="825" height="484" viewBox="0 0 825 484" fill="none" xmlns="http://www.w3.org/2000/svg">
<g filter="url(#filter0_ddii_403_98)">
<rect x="20" y="49" width="785" height="415" rx="60" fill="#7E40D0" fill-opacity="0.8" shape-rendering="crispEdges"/>
<rect x="20.5" y="49.5" width="784" height="414" rx="59.5" stroke="#C53D41" shape-rendering="crispEdges"/>
</g>
<path d="M318.75 114.003V101.517H320.753C321.425 101.062 322.041 100.428 322.599 99.6136C323.158 98.7898 323.636 97.6345 324.034 96.1477C324.432 94.6515 324.716 92.6771 324.886 90.2244L325.795 77.9091H345.696V101.517H348.821V113.989H342.06V107H325.511V114.003H318.75ZM328.821 101.517H338.935V83.6193H332.102L331.648 90.2244C331.525 92.071 331.326 93.6998 331.051 95.1108C330.777 96.5218 330.45 97.7528 330.071 98.804C329.692 99.8456 329.276 100.75 328.821 101.517ZM360.398 90.2528C359.735 90.2528 359.176 90.3665 358.722 90.5938C358.267 90.821 357.926 91.143 357.699 91.5597C357.481 91.9763 357.372 92.483 357.372 93.0795H351.207C351.207 91.8201 351.435 90.6837 351.889 89.6705C352.344 88.6477 352.983 87.7765 353.807 87.0568C354.64 86.3277 355.616 85.7737 356.733 85.3949C357.85 85.0066 359.072 84.8125 360.398 84.8125C362.661 84.8125 364.56 85.2955 366.094 86.2614C367.637 87.2273 368.802 88.5483 369.588 90.2244C370.374 91.8911 370.767 93.7803 370.767 95.892V96.3182C370.767 98.4394 370.379 100.338 369.602 102.014C368.826 103.681 367.666 104.997 366.122 105.963C364.588 106.92 362.68 107.398 360.398 107.398C358.58 107.398 356.979 107.052 355.597 106.361C354.223 105.67 353.149 104.666 352.372 103.349C351.596 102.033 351.207 100.438 351.207 98.5625H357.372C357.372 99.178 357.481 99.7415 357.699 100.253C357.917 100.755 358.248 101.157 358.693 101.46C359.148 101.754 359.716 101.905 360.398 101.915C361.468 101.905 362.273 101.612 362.812 101.034C363.362 100.456 363.726 99.7367 363.906 98.875C364.096 98.0133 364.19 97.161 364.19 96.3182V95.892C364.19 94.9261 364.091 94.017 363.892 93.1648C363.703 92.303 363.333 91.6023 362.784 91.0625C362.244 90.5227 361.449 90.2528 360.398 90.2528ZM366.051 94.2585V97.9801H358.963V94.2585H366.051ZM373.285 107L373.242 101.645H373.938C374.412 101.645 374.824 101.522 375.174 101.276C375.524 101.029 375.818 100.636 376.055 100.097C376.291 99.5473 376.481 98.8419 376.623 97.9801C376.765 97.1184 376.855 96.072 376.893 94.8409L377.248 85.1818H394.521V107H387.944V90.4943H383.427L383.086 96.7727C383.001 98.6193 382.759 100.196 382.362 101.503C381.973 102.8 381.443 103.851 380.771 104.656C380.108 105.461 379.322 106.053 378.413 106.432C377.504 106.811 376.476 107 375.33 107H373.285ZM404.673 85.1818L408.267 92.3693L411.989 85.1818H418.991L412.898 96.0909L419.219 107H412.273L408.267 99.7557L404.361 107H397.315L403.651 96.0909L397.628 85.1818H404.673ZM428.739 98.0085L435.714 85.1818H442.39V107H435.813V94.1307L428.853 107H422.163V85.1818H428.739V98.0085ZM453.388 98.0085L460.362 85.1818H467.038V107H460.462V94.1307L453.501 107H446.811V85.1818H453.388V98.0085ZM459.737 77.4545H464.311C464.302 79.2348 463.629 80.6648 462.294 81.7443C460.968 82.8239 459.169 83.3636 456.896 83.3636C454.624 83.3636 452.82 82.8239 451.484 81.7443C450.159 80.6648 449.5 79.2348 449.51 77.4545H454.041C454.032 78.0795 454.245 78.6477 454.68 79.1591C455.116 79.6705 455.855 79.9261 456.896 79.9261C457.91 79.9261 458.634 79.6752 459.07 79.1733C459.505 78.6714 459.728 78.0985 459.737 77.4545ZM69.8438 131.619V125.909H94.4318V131.619H85.6108V155H78.679V131.619H69.8438ZM101.048 155.369C99.6555 155.369 98.4197 155.137 97.3402 154.673C96.2701 154.2 95.4226 153.49 94.7976 152.543C94.1821 151.586 93.8743 150.388 93.8743 148.949C93.8743 147.737 94.0874 146.714 94.5135 145.881C94.9396 145.047 95.5268 144.37 96.2749 143.849C97.023 143.329 97.8847 142.936 98.8601 142.67C99.8355 142.396 100.877 142.211 101.985 142.116C103.226 142.003 104.225 141.884 104.982 141.761C105.74 141.629 106.289 141.444 106.63 141.207C106.98 140.961 107.156 140.616 107.156 140.17V140.099C107.156 139.37 106.905 138.807 106.403 138.409C105.901 138.011 105.224 137.812 104.371 137.812C103.453 137.812 102.714 138.011 102.156 138.409C101.597 138.807 101.242 139.356 101.09 140.057L94.6839 139.83C94.8733 138.504 95.361 137.32 96.147 136.278C96.9425 135.227 98.0315 134.403 99.4141 133.807C100.806 133.201 102.478 132.898 104.428 132.898C105.82 132.898 107.103 133.063 108.278 133.395C109.452 133.717 110.475 134.19 111.346 134.815C112.217 135.431 112.889 136.188 113.363 137.088C113.846 137.988 114.087 139.015 114.087 140.17V155H107.553V151.96H107.383C106.995 152.699 106.497 153.324 105.891 153.835C105.295 154.347 104.589 154.73 103.775 154.986C102.97 155.241 102.061 155.369 101.048 155.369ZM103.192 150.824C103.941 150.824 104.613 150.672 105.21 150.369C105.816 150.066 106.299 149.65 106.658 149.119C107.018 148.58 107.198 147.955 107.198 147.244V145.17C106.999 145.275 106.758 145.369 106.474 145.455C106.199 145.54 105.896 145.62 105.565 145.696C105.233 145.772 104.892 145.838 104.542 145.895C104.192 145.952 103.855 146.004 103.533 146.051C102.88 146.155 102.321 146.316 101.857 146.534C101.403 146.752 101.052 147.036 100.806 147.386C100.569 147.727 100.451 148.134 100.451 148.608C100.451 149.328 100.707 149.877 101.218 150.256C101.739 150.634 102.397 150.824 103.192 150.824ZM116.406 138.494V133.182H136.861V138.494H129.886V155H123.295V138.494H116.406ZM145.657 155.369C144.265 155.369 143.029 155.137 141.95 154.673C140.879 154.2 140.032 153.49 139.407 152.543C138.791 151.586 138.484 150.388 138.484 148.949C138.484 147.737 138.697 146.714 139.123 145.881C139.549 145.047 140.136 144.37 140.884 143.849C141.632 143.329 142.494 142.936 143.469 142.67C144.445 142.396 145.487 142.211 146.594 142.116C147.835 142.003 148.834 141.884 149.592 141.761C150.349 141.629 150.898 141.444 151.239 141.207C151.59 140.961 151.765 140.616 151.765 140.17V140.099C151.765 139.37 151.514 138.807 151.012 138.409C150.51 138.011 149.833 137.812 148.981 137.812C148.062 137.812 147.324 138.011 146.765 138.409C146.206 138.807 145.851 139.356 145.7 140.057L139.293 139.83C139.483 138.504 139.97 137.32 140.756 136.278C141.552 135.227 142.641 134.403 144.023 133.807C145.415 133.201 147.087 132.898 149.038 132.898C150.43 132.898 151.713 133.063 152.887 133.395C154.061 133.717 155.084 134.19 155.955 134.815C156.826 135.431 157.499 136.188 157.972 137.088C158.455 137.988 158.697 139.015 158.697 140.17V155H152.163V151.96H151.992C151.604 152.699 151.107 153.324 150.501 153.835C149.904 154.347 149.199 154.73 148.384 154.986C147.579 155.241 146.67 155.369 145.657 155.369ZM147.802 150.824C148.55 150.824 149.222 150.672 149.819 150.369C150.425 150.066 150.908 149.65 151.268 149.119C151.628 148.58 151.808 147.955 151.808 147.244V145.17C151.609 145.275 151.367 145.369 151.083 145.455C150.808 145.54 150.505 145.62 150.174 145.696C149.843 145.772 149.502 145.838 149.151 145.895C148.801 145.952 148.465 146.004 148.143 146.051C147.489 146.155 146.931 146.316 146.467 146.534C146.012 146.752 145.662 147.036 145.415 147.386C145.179 147.727 145.06 148.134 145.06 148.608C145.06 149.328 145.316 149.877 145.827 150.256C146.348 150.634 147.006 150.824 147.802 150.824ZM168.853 133.182L172.447 140.369L176.168 133.182H183.171L177.077 144.091L183.398 155H176.452L172.447 147.756L168.54 155H161.495L167.83 144.091L161.808 133.182H168.853ZM200.845 133.182L204.439 140.369L208.161 133.182H215.163L209.07 144.091L215.391 155H208.445L204.439 147.756L200.533 155H193.487L199.822 144.091L193.8 133.182H200.845ZM216.587 133.182H223.548L227.283 147.77L230.82 133.182H237.724L230.423 154.915V163.182H223.888V154.915L216.587 133.182ZM259.425 133.182V155H252.891V133.182H259.425ZM256.115 142.486V147.798C255.746 147.988 255.225 148.172 254.553 148.352C253.89 148.523 253.189 148.665 252.45 148.778C251.721 148.892 251.072 148.949 250.504 148.949C247.152 148.949 244.524 148.31 242.621 147.031C240.727 145.743 239.78 143.651 239.78 140.753V133.168H246.271V140.753C246.271 141.501 246.39 142.083 246.626 142.5C246.873 142.917 247.299 143.21 247.905 143.381C248.52 143.551 249.387 143.636 250.504 143.636C251.357 143.636 252.228 143.542 253.118 143.352C254.018 143.153 255.017 142.865 256.115 142.486ZM379.272 151.733C378.249 151.733 377.373 151.373 376.644 150.653C375.924 149.934 375.569 149.062 375.579 148.04C375.569 147.036 375.924 146.179 376.644 145.469C377.373 144.749 378.249 144.389 379.272 144.389C380.238 144.389 381.09 144.749 381.829 145.469C382.577 146.179 382.956 147.036 382.965 148.04C382.956 148.722 382.776 149.342 382.425 149.901C382.085 150.459 381.635 150.904 381.076 151.236C380.527 151.567 379.925 151.733 379.272 151.733ZM379.272 137.614C378.249 137.614 377.373 137.254 376.644 136.534C375.924 135.814 375.569 134.943 375.579 133.92C375.569 132.917 375.924 132.06 376.644 131.349C377.373 130.63 378.249 130.27 379.272 130.27C380.238 130.27 381.09 130.63 381.829 131.349C382.577 132.06 382.956 132.917 382.965 133.92C382.956 134.602 382.776 135.223 382.425 135.781C382.085 136.34 381.635 136.785 381.076 137.116C380.527 137.448 379.925 137.614 379.272 137.614ZM407.042 125.511C408.633 125.511 410.153 125.772 411.602 126.293C413.05 126.804 414.343 127.623 415.479 128.75C416.616 129.867 417.511 131.34 418.164 133.168C418.817 134.995 419.144 137.225 419.144 139.858C419.154 142.282 418.87 144.455 418.292 146.378C417.714 148.291 416.886 149.92 415.806 151.264C414.736 152.609 413.448 153.636 411.942 154.347C410.437 155.047 408.756 155.398 406.9 155.398C404.854 155.398 403.05 155.005 401.488 154.219C399.935 153.423 398.69 152.353 397.752 151.009C396.824 149.664 396.27 148.158 396.09 146.491H403.008C403.226 147.457 403.685 148.187 404.386 148.679C405.086 149.162 405.924 149.403 406.9 149.403C408.68 149.403 410.011 148.632 410.891 147.088C411.772 145.545 412.212 143.447 412.212 140.795H412.042C411.635 141.667 411.057 142.415 410.309 143.04C409.57 143.665 408.713 144.143 407.738 144.474C406.763 144.806 405.735 144.972 404.656 144.972C402.913 144.972 401.374 144.574 400.039 143.778C398.713 142.983 397.672 141.889 396.914 140.497C396.166 139.105 395.787 137.514 395.778 135.724C395.768 133.717 396.237 131.946 397.184 130.412C398.131 128.868 399.452 127.666 401.147 126.804C402.842 125.933 404.807 125.502 407.042 125.511ZM407.085 130.909C406.213 130.909 405.437 131.113 404.755 131.52C404.083 131.927 403.552 132.476 403.164 133.168C402.776 133.859 402.586 134.635 402.596 135.497C402.605 136.359 402.799 137.135 403.178 137.827C403.567 138.518 404.092 139.067 404.755 139.474C405.427 139.882 406.194 140.085 407.056 140.085C407.7 140.085 408.297 139.967 408.846 139.73C409.395 139.493 409.873 139.167 410.281 138.75C410.688 138.324 411.005 137.831 411.232 137.273C411.469 136.714 411.583 136.117 411.573 135.483C411.564 134.64 411.365 133.873 410.977 133.182C410.588 132.491 410.053 131.941 409.371 131.534C408.699 131.117 407.937 130.909 407.085 130.909ZM425.717 155.412C424.695 155.412 423.819 155.052 423.089 154.332C422.37 153.613 422.015 152.741 422.024 151.719C422.015 150.715 422.37 149.858 423.089 149.148C423.819 148.428 424.695 148.068 425.717 148.068C426.683 148.068 427.536 148.428 428.274 149.148C429.022 149.858 429.401 150.715 429.411 151.719C429.401 152.401 429.221 153.021 428.871 153.58C428.53 154.138 428.08 154.583 427.521 154.915C426.972 155.246 426.371 155.412 425.717 155.412ZM444.055 155.398C441.792 155.398 439.77 155.038 437.99 154.318C436.219 153.589 434.827 152.604 433.814 151.364C432.81 150.114 432.308 148.703 432.308 147.131C432.308 145.928 432.597 144.825 433.175 143.821C433.752 142.817 434.534 141.984 435.518 141.321C436.513 140.649 437.621 140.218 438.842 140.028V139.801C437.242 139.508 435.93 138.764 434.908 137.571C433.894 136.378 433.388 134.981 433.388 133.381C433.388 131.866 433.847 130.516 434.766 129.332C435.694 128.149 436.958 127.216 438.558 126.534C440.168 125.852 442 125.511 444.055 125.511C446.11 125.511 447.938 125.852 449.538 126.534C451.148 127.216 452.412 128.149 453.331 129.332C454.259 130.516 454.723 131.866 454.723 133.381C454.723 134.991 454.207 136.392 453.175 137.585C452.152 138.769 450.85 139.508 449.268 139.801V140.028C450.481 140.218 451.579 140.649 452.564 141.321C453.558 141.984 454.344 142.817 454.922 143.821C455.509 144.825 455.803 145.928 455.803 147.131C455.803 148.703 455.296 150.114 454.283 151.364C453.269 152.604 451.877 153.589 450.107 154.318C448.345 155.038 446.328 155.398 444.055 155.398ZM444.055 150.412C444.917 150.412 445.675 150.251 446.328 149.929C446.982 149.598 447.493 149.138 447.862 148.551C448.241 147.964 448.43 147.301 448.43 146.562C448.43 145.805 448.241 145.133 447.862 144.545C447.483 143.958 446.963 143.499 446.3 143.168C445.646 142.827 444.898 142.656 444.055 142.656C443.222 142.656 442.474 142.827 441.811 143.168C441.148 143.499 440.627 143.958 440.249 144.545C439.87 145.133 439.68 145.805 439.68 146.562C439.68 147.301 439.865 147.964 440.234 148.551C440.613 149.129 441.129 149.583 441.783 149.915C442.446 150.246 443.203 150.412 444.055 150.412ZM444.055 137.699C444.794 137.699 445.447 137.547 446.016 137.244C446.593 136.941 447.043 136.52 447.365 135.98C447.696 135.44 447.862 134.83 447.862 134.148C447.862 133.466 447.696 132.865 447.365 132.344C447.043 131.823 446.598 131.416 446.03 131.122C445.462 130.819 444.804 130.668 444.055 130.668C443.317 130.668 442.659 130.819 442.081 131.122C441.503 131.416 441.054 131.823 440.732 132.344C440.41 132.865 440.249 133.466 440.249 134.148C440.249 134.83 440.41 135.44 440.732 135.98C441.063 136.51 441.518 136.932 442.095 137.244C442.673 137.547 443.326 137.699 444.055 137.699ZM481.584 147.585L486.925 133.182H492.01L483.814 155H479.354L471.371 133.182H476.442L481.584 147.585ZM474.95 133.182V155H468.374V133.182H474.95ZM488.615 155V133.182H495.107V155H488.615ZM512.777 124.545L503.402 159.375H497.479L506.854 124.545H512.777ZM525.55 155.412C523.249 155.412 521.275 154.938 519.627 153.991C517.989 153.045 516.729 151.728 515.849 150.043C514.968 148.348 514.528 146.387 514.528 144.162C514.528 141.927 514.968 139.967 515.849 138.281C516.739 136.586 518.003 135.265 519.641 134.318C521.289 133.371 523.254 132.898 525.536 132.898C527.553 132.898 529.31 133.262 530.806 133.991C532.312 134.721 533.486 135.753 534.329 137.088C535.181 138.414 535.631 139.972 535.678 141.761H529.187C529.054 140.644 528.675 139.768 528.05 139.134C527.435 138.499 526.63 138.182 525.636 138.182C524.831 138.182 524.125 138.409 523.519 138.864C522.913 139.309 522.44 139.972 522.099 140.852C521.767 141.723 521.602 142.803 521.602 144.091C521.602 145.379 521.767 146.468 522.099 147.358C522.44 148.239 522.913 148.906 523.519 149.361C524.125 149.806 524.831 150.028 525.636 150.028C526.28 150.028 526.848 149.891 527.34 149.616C527.842 149.342 528.254 148.939 528.576 148.409C528.898 147.869 529.102 147.216 529.187 146.449H535.678C535.612 148.248 535.162 149.82 534.329 151.165C533.505 152.509 532.345 153.556 530.849 154.304C529.362 155.043 527.596 155.412 525.55 155.412ZM538.707 140.455V137.017L545.71 131.605C546.193 131.226 546.619 130.881 546.989 130.568C547.358 130.246 547.647 129.92 547.855 129.588C548.073 129.257 548.182 128.883 548.182 128.466C548.182 127.841 547.917 127.367 547.386 127.045C546.866 126.714 546.236 126.548 545.497 126.548C544.702 126.548 544.063 126.733 543.58 127.102C543.097 127.472 542.855 128.03 542.855 128.778H538.267C538.267 126.884 538.949 125.412 540.312 124.361C541.686 123.31 543.433 122.784 545.554 122.784C547.012 122.784 548.277 123.035 549.347 123.537C550.426 124.039 551.259 124.716 551.847 125.568C552.434 126.42 552.727 127.367 552.727 128.409C552.727 129.261 552.547 130.052 552.188 130.781C551.837 131.51 551.293 132.216 550.554 132.898C549.825 133.58 548.887 134.271 547.741 134.972L545.582 136.392V136.548H552.827V140.455H538.707ZM69.8438 179.619V173.909H94.4318V179.619H85.6108V203H78.679V179.619H69.8438ZM104.901 203.412C102.618 203.412 100.649 202.962 98.9915 202.062C97.3438 201.153 96.0748 199.861 95.1847 198.185C94.304 196.499 93.8636 194.496 93.8636 192.176C93.8636 189.922 94.3087 187.953 95.1989 186.267C96.089 184.572 97.3438 183.256 98.9631 182.318C100.582 181.371 102.491 180.898 104.688 180.898C106.241 180.898 107.661 181.139 108.949 181.622C110.237 182.105 111.349 182.82 112.287 183.767C113.224 184.714 113.954 185.884 114.474 187.276C114.995 188.658 115.256 190.244 115.256 192.034V193.767H96.2926V189.733H108.793C108.783 188.994 108.608 188.336 108.267 187.759C107.926 187.181 107.457 186.731 106.861 186.409C106.274 186.078 105.597 185.912 104.83 185.912C104.053 185.912 103.357 186.087 102.741 186.438C102.126 186.778 101.638 187.247 101.278 187.844C100.919 188.431 100.729 189.098 100.71 189.847V193.952C100.71 194.842 100.885 195.623 101.236 196.295C101.586 196.958 102.083 197.474 102.727 197.844C103.371 198.213 104.138 198.398 105.028 198.398C105.644 198.398 106.203 198.312 106.705 198.142C107.206 197.972 107.637 197.721 107.997 197.389C108.357 197.058 108.627 196.651 108.807 196.168L115.185 196.352C114.92 197.782 114.337 199.027 113.438 200.088C112.547 201.139 111.378 201.958 109.929 202.545C108.48 203.123 106.804 203.412 104.901 203.412ZM132.013 195.585L137.354 181.182H142.44L134.244 203H129.783L121.8 181.182H126.871L132.013 195.585ZM125.38 181.182V203H118.803V181.182H125.38ZM139.045 203V181.182H145.536V203H139.045ZM149.741 203V181.182H169.442V203H162.866V186.494H156.232V203H149.741ZM184.041 203.412C181.759 203.412 179.789 202.962 178.132 202.062C176.484 201.153 175.215 199.861 174.325 198.185C173.445 196.499 173.004 194.496 173.004 192.176C173.004 189.922 173.449 187.953 174.339 186.267C175.23 184.572 176.484 183.256 178.104 182.318C179.723 181.371 181.631 180.898 183.828 180.898C185.381 180.898 186.802 181.139 188.089 181.622C189.377 182.105 190.49 182.82 191.428 183.767C192.365 184.714 193.094 185.884 193.615 187.276C194.136 188.658 194.396 190.244 194.396 192.034V193.767H175.433V189.733H187.933C187.924 188.994 187.749 188.336 187.408 187.759C187.067 187.181 186.598 186.731 186.001 186.409C185.414 186.078 184.737 185.912 183.97 185.912C183.194 185.912 182.498 186.087 181.882 186.438C181.267 186.778 180.779 187.247 180.419 187.844C180.059 188.431 179.87 189.098 179.851 189.847V193.952C179.851 194.842 180.026 195.623 180.376 196.295C180.727 196.958 181.224 197.474 181.868 197.844C182.512 198.213 183.279 198.398 184.169 198.398C184.785 198.398 185.343 198.312 185.845 198.142C186.347 197.972 186.778 197.721 187.138 197.389C187.498 197.058 187.768 196.651 187.947 196.168L194.325 196.352C194.06 197.782 193.478 199.027 192.578 200.088C191.688 201.139 190.518 201.958 189.07 202.545C187.621 203.123 185.945 203.412 184.041 203.412ZM197.944 211.182V181.182H204.819V184.918H205.032C205.316 184.255 205.719 183.616 206.239 183C206.77 182.384 207.442 181.883 208.256 181.494C209.08 181.097 210.065 180.898 211.211 180.898C212.726 180.898 214.142 181.295 215.458 182.091C216.784 182.886 217.854 184.113 218.668 185.77C219.483 187.427 219.89 189.539 219.89 192.105C219.89 194.577 219.497 196.646 218.711 198.312C217.934 199.979 216.883 201.229 215.558 202.062C214.241 202.896 212.778 203.312 211.168 203.312C210.07 203.312 209.118 203.133 208.313 202.773C207.508 202.413 206.831 201.939 206.282 201.352C205.742 200.765 205.326 200.135 205.032 199.463H204.89V211.182H197.944ZM204.748 192.091C204.748 193.265 204.904 194.288 205.217 195.159C205.539 196.03 205.998 196.707 206.594 197.19C207.201 197.664 207.925 197.901 208.768 197.901C209.62 197.901 210.344 197.664 210.941 197.19C211.538 196.707 211.987 196.03 212.29 195.159C212.603 194.288 212.759 193.265 212.759 192.091C212.759 190.917 212.603 189.899 212.29 189.037C211.987 188.175 211.538 187.508 210.941 187.034C210.354 186.561 209.629 186.324 208.768 186.324C207.915 186.324 207.191 186.556 206.594 187.02C205.998 187.484 205.539 188.147 205.217 189.009C204.904 189.87 204.748 190.898 204.748 192.091ZM229.68 203.369C228.288 203.369 227.053 203.137 225.973 202.673C224.903 202.2 224.055 201.49 223.43 200.543C222.815 199.586 222.507 198.388 222.507 196.949C222.507 195.737 222.72 194.714 223.146 193.881C223.572 193.047 224.16 192.37 224.908 191.849C225.656 191.329 226.518 190.936 227.493 190.67C228.468 190.396 229.51 190.211 230.618 190.116C231.858 190.003 232.857 189.884 233.615 189.761C234.373 189.629 234.922 189.444 235.263 189.207C235.613 188.961 235.788 188.616 235.788 188.17V188.099C235.788 187.37 235.537 186.807 235.036 186.409C234.534 186.011 233.857 185.812 233.004 185.812C232.086 185.812 231.347 186.011 230.788 186.409C230.23 186.807 229.875 187.356 229.723 188.057L223.317 187.83C223.506 186.504 223.994 185.32 224.78 184.278C225.575 183.227 226.664 182.403 228.047 181.807C229.439 181.201 231.11 180.898 233.061 180.898C234.453 180.898 235.736 181.063 236.911 181.395C238.085 181.717 239.107 182.19 239.979 182.815C240.85 183.431 241.522 184.188 241.996 185.088C242.479 185.988 242.72 187.015 242.72 188.17V203H236.186V199.96H236.016C235.627 200.699 235.13 201.324 234.524 201.835C233.928 202.347 233.222 202.73 232.408 202.986C231.603 203.241 230.694 203.369 229.68 203.369ZM231.825 198.824C232.573 198.824 233.246 198.672 233.842 198.369C234.448 198.066 234.931 197.65 235.291 197.119C235.651 196.58 235.831 195.955 235.831 195.244V193.17C235.632 193.275 235.391 193.369 235.107 193.455C234.832 193.54 234.529 193.62 234.197 193.696C233.866 193.772 233.525 193.838 233.175 193.895C232.824 193.952 232.488 194.004 232.166 194.051C231.513 194.155 230.954 194.316 230.49 194.534C230.036 194.752 229.685 195.036 229.439 195.386C229.202 195.727 229.084 196.134 229.084 196.608C229.084 197.328 229.339 197.877 229.851 198.256C230.372 198.634 231.03 198.824 231.825 198.824ZM245.039 186.494V181.182H265.494V186.494H258.519V203H251.928V186.494H245.039ZM273.05 211.182C272.217 211.182 271.431 211.116 270.692 210.983C269.954 210.86 269.319 210.694 268.789 210.486L270.323 205.443C271.005 205.67 271.621 205.803 272.17 205.841C272.728 205.879 273.207 205.789 273.604 205.571C274.012 205.363 274.324 204.989 274.542 204.449L274.812 203.795L267.056 181.182H274.329L278.349 196.75H278.576L282.653 181.182H289.968L281.744 205.088C281.346 206.281 280.782 207.332 280.053 208.241C279.334 209.16 278.401 209.88 277.255 210.401C276.119 210.921 274.717 211.182 273.05 211.182ZM292.631 211.182V181.182H299.506V184.918H299.719C300.004 184.255 300.406 183.616 300.927 183C301.457 182.384 302.129 181.883 302.944 181.494C303.768 181.097 304.753 180.898 305.898 180.898C307.414 180.898 308.829 181.295 310.146 182.091C311.471 182.886 312.541 184.113 313.356 185.77C314.17 187.427 314.577 189.539 314.577 192.105C314.577 194.577 314.184 196.646 313.398 198.312C312.622 199.979 311.571 201.229 310.245 202.062C308.929 202.896 307.466 203.312 305.856 203.312C304.757 203.312 303.806 203.133 303.001 202.773C302.196 202.413 301.519 201.939 300.969 201.352C300.43 200.765 300.013 200.135 299.719 199.463H299.577V211.182H292.631ZM299.435 192.091C299.435 193.265 299.592 194.288 299.904 195.159C300.226 196.03 300.685 196.707 301.282 197.19C301.888 197.664 302.612 197.901 303.455 197.901C304.308 197.901 305.032 197.664 305.629 197.19C306.225 196.707 306.675 196.03 306.978 195.159C307.29 194.288 307.447 193.265 307.447 192.091C307.447 190.917 307.29 189.899 306.978 189.037C306.675 188.175 306.225 187.508 305.629 187.034C305.041 186.561 304.317 186.324 303.455 186.324C302.603 186.324 301.879 186.556 301.282 187.02C300.685 187.484 300.226 188.147 299.904 189.009C299.592 189.87 299.435 190.898 299.435 192.091ZM382.28 203.412C381.257 203.412 380.381 203.052 379.652 202.332C378.932 201.613 378.577 200.741 378.587 199.719C378.577 198.715 378.932 197.858 379.652 197.148C380.381 196.428 381.257 196.068 382.28 196.068C383.246 196.068 384.098 196.428 384.837 197.148C385.585 197.858 385.964 198.715 385.973 199.719C385.964 200.401 385.784 201.021 385.433 201.58C385.092 202.138 384.643 202.583 384.084 202.915C383.535 203.246 382.933 203.412 382.28 203.412ZM382.28 188.44C381.257 188.44 380.381 188.085 379.652 187.375C378.932 186.655 378.577 185.779 378.587 184.747C378.577 183.743 378.932 182.886 379.652 182.176C380.381 181.456 381.257 181.097 382.28 181.097C383.246 181.097 384.098 181.456 384.837 182.176C385.585 182.886 385.964 183.743 385.973 184.747C385.964 185.429 385.784 186.049 385.433 186.608C385.092 187.167 384.643 187.612 384.084 187.943C383.535 188.275 382.933 188.44 382.28 188.44ZM413.118 185.784V191.125H399.652V185.784H413.118ZM429.329 203.398C427.066 203.398 425.044 203.038 423.263 202.318C421.493 201.589 420.101 200.604 419.087 199.364C418.084 198.114 417.582 196.703 417.582 195.131C417.582 193.928 417.871 192.825 418.448 191.821C419.026 190.817 419.807 189.984 420.792 189.321C421.786 188.649 422.894 188.218 424.116 188.028V187.801C422.515 187.508 421.204 186.764 420.181 185.571C419.168 184.378 418.661 182.981 418.661 181.381C418.661 179.866 419.121 178.516 420.039 177.332C420.967 176.149 422.231 175.216 423.832 174.534C425.442 173.852 427.274 173.511 429.329 173.511C431.384 173.511 433.211 173.852 434.812 174.534C436.422 175.216 437.686 176.149 438.604 177.332C439.532 178.516 439.996 179.866 439.996 181.381C439.996 182.991 439.48 184.392 438.448 185.585C437.425 186.769 436.123 187.508 434.542 187.801V188.028C435.754 188.218 436.853 188.649 437.837 189.321C438.832 189.984 439.618 190.817 440.195 191.821C440.782 192.825 441.076 193.928 441.076 195.131C441.076 196.703 440.569 198.114 439.556 199.364C438.543 200.604 437.151 201.589 435.38 202.318C433.619 203.038 431.602 203.398 429.329 203.398ZM429.329 198.412C430.191 198.412 430.948 198.251 431.602 197.929C432.255 197.598 432.766 197.138 433.136 196.551C433.514 195.964 433.704 195.301 433.704 194.562C433.704 193.805 433.514 193.133 433.136 192.545C432.757 191.958 432.236 191.499 431.573 191.168C430.92 190.827 430.172 190.656 429.329 190.656C428.496 190.656 427.747 190.827 427.085 191.168C426.422 191.499 425.901 191.958 425.522 192.545C425.143 193.133 424.954 193.805 424.954 194.562C424.954 195.301 425.138 195.964 425.508 196.551C425.887 197.129 426.403 197.583 427.056 197.915C427.719 198.246 428.477 198.412 429.329 198.412ZM429.329 185.699C430.067 185.699 430.721 185.547 431.289 185.244C431.867 184.941 432.317 184.52 432.638 183.98C432.97 183.44 433.136 182.83 433.136 182.148C433.136 181.466 432.97 180.865 432.638 180.344C432.317 179.823 431.871 179.416 431.303 179.122C430.735 178.819 430.077 178.668 429.329 178.668C428.59 178.668 427.932 178.819 427.354 179.122C426.777 179.416 426.327 179.823 426.005 180.344C425.683 180.865 425.522 181.466 425.522 182.148C425.522 182.83 425.683 183.44 426.005 183.98C426.336 184.51 426.791 184.932 427.369 185.244C427.946 185.547 428.6 185.699 429.329 185.699ZM456.36 203.398C454.097 203.398 452.075 203.038 450.295 202.318C448.524 201.589 447.132 200.604 446.119 199.364C445.115 198.114 444.613 196.703 444.613 195.131C444.613 193.928 444.902 192.825 445.479 191.821C446.057 190.817 446.838 189.984 447.823 189.321C448.817 188.649 449.925 188.218 451.147 188.028V187.801C449.547 187.508 448.235 186.764 447.212 185.571C446.199 184.378 445.692 182.981 445.692 181.381C445.692 179.866 446.152 178.516 447.07 177.332C447.998 176.149 449.263 175.216 450.863 174.534C452.473 173.852 454.305 173.511 456.36 173.511C458.415 173.511 460.243 173.852 461.843 174.534C463.453 175.216 464.717 176.149 465.636 177.332C466.564 178.516 467.028 179.866 467.028 181.381C467.028 182.991 466.512 184.392 465.479 185.585C464.457 186.769 463.155 187.508 461.573 187.801V188.028C462.785 188.218 463.884 188.649 464.869 189.321C465.863 189.984 466.649 190.817 467.227 191.821C467.814 192.825 468.107 193.928 468.107 195.131C468.107 196.703 467.601 198.114 466.587 199.364C465.574 200.604 464.182 201.589 462.411 202.318C460.65 203.038 458.633 203.398 456.36 203.398ZM456.36 198.412C457.222 198.412 457.979 198.251 458.633 197.929C459.286 197.598 459.798 197.138 460.167 196.551C460.546 195.964 460.735 195.301 460.735 194.562C460.735 193.805 460.546 193.133 460.167 192.545C459.788 191.958 459.267 191.499 458.604 191.168C457.951 190.827 457.203 190.656 456.36 190.656C455.527 190.656 454.779 190.827 454.116 191.168C453.453 191.499 452.932 191.958 452.553 192.545C452.174 193.133 451.985 193.805 451.985 194.562C451.985 195.301 452.17 195.964 452.539 196.551C452.918 197.129 453.434 197.583 454.087 197.915C454.75 198.246 455.508 198.412 456.36 198.412ZM456.36 185.699C457.099 185.699 457.752 185.547 458.32 185.244C458.898 184.941 459.348 184.52 459.67 183.98C460.001 183.44 460.167 182.83 460.167 182.148C460.167 181.466 460.001 180.865 459.67 180.344C459.348 179.823 458.903 179.416 458.335 179.122C457.766 178.819 457.108 178.668 456.36 178.668C455.621 178.668 454.963 178.819 454.386 179.122C453.808 179.416 453.358 179.823 453.036 180.344C452.714 180.865 452.553 181.466 452.553 182.148C452.553 182.83 452.714 183.44 453.036 183.98C453.368 184.51 453.822 184.932 454.4 185.244C454.978 185.547 455.631 185.699 456.36 185.699ZM497.866 203.298L494.201 199.662L502.738 191.125H483.477V185.784H502.738L494.201 177.261L497.866 173.611L512.71 188.455L497.866 203.298ZM536.101 198.795V178.227H541.825V198.795H536.101ZM528.672 191.381V185.642H549.24V191.381H528.672ZM565.977 203.398C563.855 203.398 561.971 203.014 560.323 202.247C558.675 201.48 557.373 200.424 556.417 199.08C555.47 197.735 554.978 196.191 554.94 194.449H561.758C561.815 195.519 562.25 196.381 563.065 197.034C563.879 197.678 564.85 198 565.977 198C566.857 198 567.638 197.806 568.32 197.418C569.002 197.029 569.537 196.485 569.925 195.784C570.314 195.074 570.503 194.259 570.494 193.341C570.503 192.403 570.309 191.584 569.911 190.884C569.523 190.183 568.983 189.638 568.292 189.25C567.61 188.852 566.824 188.653 565.934 188.653C565.091 188.644 564.291 188.829 563.533 189.207C562.785 189.586 562.217 190.102 561.829 190.756L555.621 189.591L556.886 173.909H575.55V179.577H562.667L561.999 186.438H562.17C562.653 185.633 563.429 184.97 564.499 184.449C565.579 183.919 566.805 183.653 568.178 183.653C569.921 183.653 571.474 184.061 572.837 184.875C574.21 185.68 575.29 186.797 576.076 188.227C576.871 189.657 577.269 191.295 577.269 193.142C577.269 195.14 576.796 196.911 575.849 198.455C574.911 199.998 573.595 201.21 571.9 202.091C570.214 202.962 568.24 203.398 565.977 203.398ZM592.493 203.398C590.23 203.398 588.208 203.038 586.428 202.318C584.657 201.589 583.265 200.604 582.251 199.364C581.248 198.114 580.746 196.703 580.746 195.131C580.746 193.928 581.035 192.825 581.612 191.821C582.19 190.817 582.971 189.984 583.956 189.321C584.95 188.649 586.058 188.218 587.28 188.028V187.801C585.679 187.508 584.368 186.764 583.345 185.571C582.332 184.378 581.825 182.981 581.825 181.381C581.825 179.866 582.285 178.516 583.203 177.332C584.131 176.149 585.395 175.216 586.996 174.534C588.606 173.852 590.438 173.511 592.493 173.511C594.548 173.511 596.375 173.852 597.976 174.534C599.586 175.216 600.85 176.149 601.768 177.332C602.696 178.516 603.161 179.866 603.161 181.381C603.161 182.991 602.644 184.392 601.612 185.585C600.589 186.769 599.287 187.508 597.706 187.801V188.028C598.918 188.218 600.017 188.649 601.001 189.321C601.996 189.984 602.782 190.817 603.359 191.821C603.946 192.825 604.24 193.928 604.24 195.131C604.24 196.703 603.733 198.114 602.72 199.364C601.707 200.604 600.315 201.589 598.544 202.318C596.783 203.038 594.766 203.398 592.493 203.398ZM592.493 198.412C593.355 198.412 594.112 198.251 594.766 197.929C595.419 197.598 595.93 197.138 596.3 196.551C596.679 195.964 596.868 195.301 596.868 194.562C596.868 193.805 596.679 193.133 596.3 192.545C595.921 191.958 595.4 191.499 594.737 191.168C594.084 190.827 593.336 190.656 592.493 190.656C591.66 190.656 590.911 190.827 590.249 191.168C589.586 191.499 589.065 191.958 588.686 192.545C588.307 193.133 588.118 193.805 588.118 194.562C588.118 195.301 588.303 195.964 588.672 196.551C589.051 197.129 589.567 197.583 590.22 197.915C590.883 198.246 591.641 198.412 592.493 198.412ZM592.493 185.699C593.232 185.699 593.885 185.547 594.453 185.244C595.031 184.941 595.481 184.52 595.803 183.98C596.134 183.44 596.3 182.83 596.3 182.148C596.3 181.466 596.134 180.865 595.803 180.344C595.481 179.823 595.036 179.416 594.467 179.122C593.899 178.819 593.241 178.668 592.493 178.668C591.754 178.668 591.096 178.819 590.518 179.122C589.941 179.416 589.491 179.823 589.169 180.344C588.847 180.865 588.686 181.466 588.686 182.148C588.686 182.83 588.847 183.44 589.169 183.98C589.5 184.51 589.955 184.932 590.533 185.244C591.11 185.547 591.764 185.699 592.493 185.699ZM623.842 187.972C622.526 187.972 621.328 187.654 620.249 187.02C619.169 186.376 618.307 185.514 617.663 184.435C617.029 183.355 616.712 182.162 616.712 180.855C616.712 179.539 617.029 178.341 617.663 177.261C618.307 176.182 619.169 175.325 620.249 174.69C621.328 174.046 622.526 173.724 623.842 173.724C625.159 173.724 626.352 174.046 627.422 174.69C628.501 175.325 629.358 176.182 629.993 177.261C630.637 178.341 630.959 179.539 630.959 180.855C630.959 182.162 630.637 183.355 629.993 184.435C629.358 185.514 628.501 186.376 627.422 187.02C626.352 187.654 625.159 187.972 623.842 187.972ZM623.842 183.54C624.335 183.54 624.785 183.421 625.192 183.185C625.599 182.938 625.921 182.612 626.158 182.205C626.404 181.797 626.527 181.348 626.527 180.855C626.527 180.353 626.404 179.899 626.158 179.491C625.921 179.084 625.599 178.762 625.192 178.526C624.785 178.279 624.335 178.156 623.842 178.156C623.34 178.156 622.886 178.279 622.479 178.526C622.071 178.762 621.745 179.084 621.499 179.491C621.262 179.899 621.143 180.348 621.143 180.841C621.143 181.343 621.262 181.802 621.499 182.219C621.745 182.626 622.071 182.948 622.479 183.185C622.895 183.421 623.35 183.54 623.842 183.54ZM661.655 184.449H654.553C654.458 183.72 654.264 183.062 653.97 182.474C653.677 181.887 653.288 181.385 652.805 180.969C652.322 180.552 651.75 180.235 651.087 180.017C650.433 179.79 649.709 179.676 648.913 179.676C647.502 179.676 646.286 180.022 645.263 180.713C644.25 181.404 643.468 182.403 642.919 183.71C642.379 185.017 642.109 186.598 642.109 188.455C642.109 190.386 642.384 192.006 642.933 193.312C643.492 194.61 644.273 195.59 645.277 196.253C646.29 196.906 647.488 197.233 648.871 197.233C649.647 197.233 650.353 197.134 650.987 196.935C651.631 196.736 652.195 196.447 652.678 196.068C653.17 195.68 653.572 195.211 653.885 194.662C654.207 194.103 654.429 193.473 654.553 192.773L661.655 192.815C661.532 194.103 661.158 195.372 660.533 196.622C659.917 197.872 659.07 199.013 657.99 200.045C656.911 201.068 655.594 201.883 654.041 202.489C652.498 203.095 650.727 203.398 648.729 203.398C646.096 203.398 643.738 202.82 641.655 201.665C639.581 200.5 637.943 198.805 636.74 196.58C635.537 194.354 634.936 191.646 634.936 188.455C634.936 185.254 635.547 182.541 636.768 180.315C637.99 178.09 639.643 176.4 641.726 175.244C643.809 174.089 646.143 173.511 648.729 173.511C650.49 173.511 652.119 173.758 653.615 174.25C655.111 174.733 656.428 175.443 657.564 176.381C658.7 177.309 659.624 178.45 660.334 179.804C661.044 181.158 661.484 182.706 661.655 184.449ZM69.5312 258.003V245.517H71.5341C72.2064 245.062 72.822 244.428 73.3807 243.614C73.9394 242.79 74.4176 241.634 74.8153 240.148C75.2131 238.652 75.4972 236.677 75.6676 234.224L76.5767 221.909H96.4773V245.517H99.6023V257.989H92.8409V251H76.2926V258.003H69.5312ZM79.6023 245.517H89.7159V227.619H82.8835L82.429 234.224C82.3059 236.071 82.107 237.7 81.8324 239.111C81.5578 240.522 81.2311 241.753 80.8523 242.804C80.4735 243.846 80.0568 244.75 79.6023 245.517ZM108.977 251.369C107.585 251.369 106.349 251.137 105.27 250.673C104.2 250.2 103.352 249.49 102.727 248.543C102.112 247.586 101.804 246.388 101.804 244.949C101.804 243.737 102.017 242.714 102.443 241.881C102.869 241.047 103.456 240.37 104.205 239.849C104.953 239.329 105.814 238.936 106.79 238.67C107.765 238.396 108.807 238.211 109.915 238.116C111.155 238.003 112.154 237.884 112.912 237.761C113.67 237.629 114.219 237.444 114.56 237.207C114.91 236.961 115.085 236.616 115.085 236.17V236.099C115.085 235.37 114.834 234.807 114.332 234.409C113.83 234.011 113.153 233.812 112.301 233.812C111.383 233.812 110.644 234.011 110.085 234.409C109.527 234.807 109.171 235.356 109.02 236.057L102.614 235.83C102.803 234.504 103.291 233.32 104.077 232.278C104.872 231.227 105.961 230.403 107.344 229.807C108.736 229.201 110.407 228.898 112.358 228.898C113.75 228.898 115.033 229.063 116.207 229.395C117.382 229.717 118.404 230.19 119.276 230.815C120.147 231.431 120.819 232.188 121.293 233.088C121.776 233.988 122.017 235.015 122.017 236.17V251H115.483V247.96H115.312C114.924 248.699 114.427 249.324 113.821 249.835C113.224 250.347 112.519 250.73 111.705 250.986C110.9 251.241 109.991 251.369 108.977 251.369ZM111.122 246.824C111.87 246.824 112.543 246.672 113.139 246.369C113.745 246.066 114.228 245.65 114.588 245.119C114.948 244.58 115.128 243.955 115.128 243.244V241.17C114.929 241.275 114.688 241.369 114.403 241.455C114.129 241.54 113.826 241.62 113.494 241.696C113.163 241.772 112.822 241.838 112.472 241.895C112.121 241.952 111.785 242.004 111.463 242.051C110.81 242.155 110.251 242.316 109.787 242.534C109.332 242.752 108.982 243.036 108.736 243.386C108.499 243.727 108.381 244.134 108.381 244.608C108.381 245.328 108.636 245.877 109.148 246.256C109.669 246.634 110.327 246.824 111.122 246.824ZM141.69 229.182V234.494H132.983V251H126.264V229.182H141.69ZM149.222 259.182C148.389 259.182 147.603 259.116 146.864 258.983C146.126 258.86 145.491 258.694 144.961 258.486L146.495 253.443C147.177 253.67 147.792 253.803 148.342 253.841C148.9 253.879 149.379 253.789 149.776 253.571C150.183 253.363 150.496 252.989 150.714 252.449L150.984 251.795L143.228 229.182H150.501L154.521 244.75H154.748L158.825 229.182H166.14L157.915 253.088C157.518 254.281 156.954 255.332 156.225 256.241C155.505 257.16 154.573 257.88 153.427 258.401C152.29 258.921 150.889 259.182 149.222 259.182ZM173.05 259.182C172.217 259.182 171.431 259.116 170.692 258.983C169.954 258.86 169.319 258.694 168.789 258.486L170.323 253.443C171.005 253.67 171.621 253.803 172.17 253.841C172.728 253.879 173.207 253.789 173.604 253.571C174.012 253.363 174.324 252.989 174.542 252.449L174.812 251.795L167.056 229.182H174.329L178.349 244.75H178.576L182.653 229.182H189.968L181.744 253.088C181.346 254.281 180.782 255.332 180.053 256.241C179.334 257.16 178.401 257.88 177.255 258.401C176.119 258.921 174.717 259.182 173.05 259.182ZM189.808 251L189.766 245.645H190.462C190.935 245.645 191.347 245.522 191.697 245.276C192.048 245.029 192.341 244.636 192.578 244.097C192.815 243.547 193.004 242.842 193.146 241.98C193.288 241.118 193.378 240.072 193.416 238.841L193.771 229.182H211.044V251H204.467V234.494H199.95L199.609 240.773C199.524 242.619 199.283 244.196 198.885 245.503C198.497 246.8 197.966 247.851 197.294 248.656C196.631 249.461 195.845 250.053 194.936 250.432C194.027 250.811 193 251 191.854 251H189.808ZM219.364 235.489H225.984C228.986 235.489 231.339 236.194 233.043 237.605C234.748 239.007 235.605 240.91 235.614 243.315C235.605 244.878 235.212 246.237 234.435 247.392C233.668 248.538 232.565 249.428 231.126 250.062C229.696 250.688 227.982 251 225.984 251H215.288V229.182H221.864V245.688H225.984C226.893 245.688 227.641 245.465 228.228 245.02C228.815 244.575 229.113 244.002 229.123 243.301C229.113 242.562 228.815 241.961 228.228 241.497C227.641 241.033 226.893 240.801 225.984 240.801H219.364V235.489ZM237.575 251V229.182H244.521V251H237.575ZM264.304 237.378V242.676H253.111V237.378H264.304ZM255.497 229.182V251H248.92V229.182H255.497ZM268.494 229.182V251H261.96V229.182H268.494ZM280.195 234.494V229.182H300.65V234.494H293.675V251H287.085V234.494H280.195ZM313.48 251.412C311.188 251.412 309.219 250.943 307.571 250.006C305.933 249.059 304.669 247.742 303.778 246.057C302.898 244.362 302.457 242.397 302.457 240.162C302.457 237.918 302.898 235.953 303.778 234.267C304.669 232.572 305.933 231.256 307.571 230.318C309.219 229.371 311.188 228.898 313.48 228.898C315.772 228.898 317.737 229.371 319.375 230.318C321.023 231.256 322.287 232.572 323.168 234.267C324.058 235.953 324.503 237.918 324.503 240.162C324.503 242.397 324.058 244.362 323.168 246.057C322.287 247.742 321.023 249.059 319.375 250.006C317.737 250.943 315.772 251.412 313.48 251.412ZM313.523 246.17C314.356 246.17 315.062 245.915 315.639 245.403C316.217 244.892 316.657 244.182 316.96 243.273C317.273 242.364 317.429 241.312 317.429 240.119C317.429 238.907 317.273 237.847 316.96 236.938C316.657 236.028 316.217 235.318 315.639 234.807C315.062 234.295 314.356 234.04 313.523 234.04C312.661 234.04 311.932 234.295 311.335 234.807C310.748 235.318 310.298 236.028 309.986 236.938C309.683 237.847 309.531 238.907 309.531 240.119C309.531 241.312 309.683 242.364 309.986 243.273C310.298 244.182 310.748 244.892 311.335 245.403C311.932 245.915 312.661 246.17 313.523 246.17ZM338.246 251.412C335.954 251.412 333.984 250.943 332.337 250.006C330.698 249.059 329.434 247.742 328.544 246.057C327.663 244.362 327.223 242.397 327.223 240.162C327.223 237.918 327.663 235.953 328.544 234.267C329.434 232.572 330.698 231.256 332.337 230.318C333.984 229.371 335.954 228.898 338.246 228.898C340.537 228.898 342.502 229.371 344.141 230.318C345.788 231.256 347.053 232.572 347.933 234.267C348.823 235.953 349.268 237.918 349.268 240.162C349.268 242.397 348.823 244.362 347.933 246.057C347.053 247.742 345.788 249.059 344.141 250.006C342.502 250.943 340.537 251.412 338.246 251.412ZM338.288 246.17C339.122 246.17 339.827 245.915 340.405 245.403C340.982 244.892 341.423 244.182 341.726 243.273C342.038 242.364 342.195 241.312 342.195 240.119C342.195 238.907 342.038 237.847 341.726 236.938C341.423 236.028 340.982 235.318 340.405 234.807C339.827 234.295 339.122 234.04 338.288 234.04C337.427 234.04 336.697 234.295 336.101 234.807C335.514 235.318 335.064 236.028 334.751 236.938C334.448 237.847 334.297 238.907 334.297 240.119C334.297 241.312 334.448 242.364 334.751 243.273C335.064 244.182 335.514 244.892 336.101 245.403C336.697 245.915 337.427 246.17 338.288 246.17ZM382.514 247.733C381.491 247.733 380.616 247.373 379.886 246.653C379.167 245.934 378.812 245.062 378.821 244.04C378.812 243.036 379.167 242.179 379.886 241.469C380.616 240.749 381.491 240.389 382.514 240.389C383.48 240.389 384.332 240.749 385.071 241.469C385.819 242.179 386.198 243.036 386.207 244.04C386.198 244.722 386.018 245.342 385.668 245.901C385.327 246.459 384.877 246.904 384.318 247.236C383.769 247.567 383.168 247.733 382.514 247.733ZM382.514 233.614C381.491 233.614 380.616 233.254 379.886 232.534C379.167 231.814 378.812 230.943 378.821 229.92C378.812 228.917 379.167 228.06 379.886 227.349C380.616 226.63 381.491 226.27 382.514 226.27C383.48 226.27 384.332 226.63 385.071 227.349C385.819 228.06 386.198 228.917 386.207 229.92C386.198 230.602 386.018 231.223 385.668 231.781C385.327 232.34 384.877 232.785 384.318 233.116C383.769 233.448 383.168 233.614 382.514 233.614ZM412.784 221.909V251H405.767V228.472H405.597L399.091 232.449V226.369L406.264 221.909H412.784ZM69.5312 306.003V293.517H71.5341C72.2064 293.062 72.822 292.428 73.3807 291.614C73.9394 290.79 74.4176 289.634 74.8153 288.148C75.2131 286.652 75.4972 284.677 75.6676 282.224L76.5767 269.909H96.4773V293.517H99.6023V305.989H92.8409V299H76.2926V306.003H69.5312ZM79.6023 293.517H89.7159V275.619H82.8835L82.429 282.224C82.3059 284.071 82.107 285.7 81.8324 287.111C81.5578 288.522 81.2311 289.753 80.8523 290.804C80.4735 291.846 80.0568 292.75 79.6023 293.517ZM109.403 290.009L116.378 277.182H123.054V299H116.477V286.131L109.517 299H102.827V277.182H109.403V290.009ZM133.626 299.369C132.234 299.369 130.998 299.137 129.918 298.673C128.848 298.2 128.001 297.49 127.376 296.543C126.76 295.586 126.452 294.388 126.452 292.949C126.452 291.737 126.665 290.714 127.092 289.881C127.518 289.047 128.105 288.37 128.853 287.849C129.601 287.329 130.463 286.936 131.438 286.67C132.414 286.396 133.455 286.211 134.563 286.116C135.804 286.003 136.803 285.884 137.56 285.761C138.318 285.629 138.867 285.444 139.208 285.207C139.558 284.961 139.734 284.616 139.734 284.17V284.099C139.734 283.37 139.483 282.807 138.981 282.409C138.479 282.011 137.802 281.812 136.95 281.812C136.031 281.812 135.292 282.011 134.734 282.409C134.175 282.807 133.82 283.356 133.668 284.057L127.262 283.83C127.451 282.504 127.939 281.32 128.725 280.278C129.521 279.227 130.61 278.403 131.992 277.807C133.384 277.201 135.056 276.898 137.006 276.898C138.398 276.898 139.682 277.063 140.856 277.395C142.03 277.717 143.053 278.19 143.924 278.815C144.795 279.431 145.468 280.188 145.941 281.088C146.424 281.988 146.665 283.015 146.665 284.17V299H140.131V295.96H139.961C139.573 296.699 139.076 297.324 138.469 297.835C137.873 298.347 137.167 298.73 136.353 298.986C135.548 299.241 134.639 299.369 133.626 299.369ZM135.771 294.824C136.519 294.824 137.191 294.672 137.788 294.369C138.394 294.066 138.877 293.65 139.237 293.119C139.596 292.58 139.776 291.955 139.776 291.244V289.17C139.577 289.275 139.336 289.369 139.052 289.455C138.777 289.54 138.474 289.62 138.143 289.696C137.811 289.772 137.47 289.838 137.12 289.895C136.77 289.952 136.433 290.004 136.112 290.051C135.458 290.155 134.899 290.316 134.435 290.534C133.981 290.752 133.63 291.036 133.384 291.386C133.147 291.727 133.029 292.134 133.029 292.608C133.029 293.328 133.285 293.877 133.796 294.256C134.317 294.634 134.975 294.824 135.771 294.824ZM164.123 291.585L169.464 277.182H174.549L166.353 299H161.893L153.91 277.182H158.981L164.123 291.585ZM157.489 277.182V299H150.913V277.182H157.489ZM171.154 299V277.182H177.646V299H171.154ZM192.049 299.412C189.767 299.412 187.797 298.962 186.14 298.062C184.492 297.153 183.223 295.861 182.333 294.185C181.452 292.499 181.012 290.496 181.012 288.176C181.012 285.922 181.457 283.953 182.347 282.267C183.237 280.572 184.492 279.256 186.112 278.318C187.731 277.371 189.639 276.898 191.836 276.898C193.389 276.898 194.809 277.139 196.097 277.622C197.385 278.105 198.498 278.82 199.435 279.767C200.373 280.714 201.102 281.884 201.623 283.276C202.144 284.658 202.404 286.244 202.404 288.034V289.767H183.441V285.733H195.941C195.932 284.994 195.756 284.336 195.415 283.759C195.075 283.181 194.606 282.731 194.009 282.409C193.422 282.078 192.745 281.912 191.978 281.912C191.201 281.912 190.505 282.087 189.89 282.438C189.274 282.778 188.787 283.247 188.427 283.844C188.067 284.431 187.878 285.098 187.859 285.847V289.952C187.859 290.842 188.034 291.623 188.384 292.295C188.735 292.958 189.232 293.474 189.876 293.844C190.52 294.213 191.287 294.398 192.177 294.398C192.792 294.398 193.351 294.312 193.853 294.142C194.355 293.972 194.786 293.721 195.146 293.389C195.505 293.058 195.775 292.651 195.955 292.168L202.333 292.352C202.068 293.782 201.486 295.027 200.586 296.088C199.696 297.139 198.526 297.958 197.077 298.545C195.629 299.123 193.952 299.412 192.049 299.412ZM204.375 282.494V277.182H224.83V282.494H217.855V299H211.264V282.494H204.375ZM228.139 307.182V277.182H235.014V280.918H235.227C235.511 280.255 235.914 279.616 236.435 279C236.965 278.384 237.637 277.883 238.452 277.494C239.276 277.097 240.26 276.898 241.406 276.898C242.921 276.898 244.337 277.295 245.653 278.091C246.979 278.886 248.049 280.113 248.864 281.77C249.678 283.427 250.085 285.539 250.085 288.105C250.085 290.577 249.692 292.646 248.906 294.312C248.13 295.979 247.079 297.229 245.753 298.062C244.437 298.896 242.973 299.312 241.364 299.312C240.265 299.312 239.313 299.133 238.509 298.773C237.704 298.413 237.027 297.939 236.477 297.352C235.938 296.765 235.521 296.135 235.227 295.463H235.085V307.182H228.139ZM234.943 288.091C234.943 289.265 235.099 290.288 235.412 291.159C235.734 292.03 236.193 292.707 236.79 293.19C237.396 293.664 238.12 293.901 238.963 293.901C239.815 293.901 240.54 293.664 241.136 293.19C241.733 292.707 242.183 292.03 242.486 291.159C242.798 290.288 242.955 289.265 242.955 288.091C242.955 286.917 242.798 285.899 242.486 285.037C242.183 284.175 241.733 283.508 241.136 283.034C240.549 282.561 239.825 282.324 238.963 282.324C238.111 282.324 237.386 282.556 236.79 283.02C236.193 283.484 235.734 284.147 235.412 285.009C235.099 285.87 234.943 286.898 234.943 288.091ZM377.944 295.733C376.921 295.733 376.045 295.373 375.316 294.653C374.596 293.934 374.241 293.062 374.251 292.04C374.241 291.036 374.596 290.179 375.316 289.469C376.045 288.749 376.921 288.389 377.944 288.389C378.91 288.389 379.762 288.749 380.501 289.469C381.249 290.179 381.628 291.036 381.637 292.04C381.628 292.722 381.448 293.342 381.097 293.901C380.756 294.459 380.307 294.904 379.748 295.236C379.199 295.567 378.597 295.733 377.944 295.733ZM377.944 281.614C376.921 281.614 376.045 281.254 375.316 280.534C374.596 279.814 374.241 278.943 374.251 277.92C374.241 276.917 374.596 276.06 375.316 275.349C376.045 274.63 376.921 274.27 377.944 274.27C378.91 274.27 379.762 274.63 380.501 275.349C381.249 276.06 381.628 276.917 381.637 277.92C381.628 278.602 381.448 279.223 381.097 279.781C380.756 280.34 380.307 280.785 379.748 281.116C379.199 281.448 378.597 281.614 377.944 281.614ZM408.214 269.909V299H401.197V276.472H401.026L394.521 280.449V274.369L401.694 269.909H408.214ZM414.645 299V293.943L425.256 284.653C426.051 283.934 426.728 283.276 427.287 282.679C427.846 282.073 428.272 281.467 428.565 280.861C428.859 280.245 429.006 279.578 429.006 278.858C429.006 278.053 428.83 277.366 428.48 276.798C428.13 276.221 427.647 275.776 427.031 275.463C426.416 275.151 425.71 274.994 424.915 274.994C424.11 274.994 423.404 275.16 422.798 275.491C422.192 275.813 421.719 276.282 421.378 276.898C421.046 277.513 420.881 278.261 420.881 279.142H414.219C414.219 277.163 414.664 275.454 415.554 274.014C416.444 272.575 417.694 271.467 419.304 270.69C420.923 269.904 422.803 269.511 424.943 269.511C427.15 269.511 429.067 269.881 430.696 270.619C432.325 271.358 433.584 272.39 434.474 273.716C435.374 275.032 435.824 276.562 435.824 278.304C435.824 279.412 435.601 280.51 435.156 281.599C434.711 282.688 433.911 283.891 432.756 285.207C431.61 286.524 429.981 288.1 427.869 289.938L424.389 293.148V293.332H436.179V299H414.645ZM447.298 295.023L447.17 296.599C447.056 297.906 446.824 299.18 446.474 300.42C446.133 301.67 445.768 302.793 445.38 303.787C444.992 304.781 444.684 305.553 444.457 306.102H440.082C440.233 305.553 440.437 304.781 440.692 303.787C440.958 302.793 441.204 301.67 441.431 300.42C441.658 299.17 441.786 297.902 441.815 296.614L441.843 295.023H447.298ZM452.56 299L464.293 275.761V275.577H450.572V269.909H471.566V275.619L459.79 299H452.56ZM472.727 294.17V288.688L484.645 269.909H489.517V277.352H486.69L479.716 288.403V288.631H496.974V294.17H472.727ZM486.776 299V292.494L486.918 290.094V269.909H493.494V299H486.776ZM500.661 299V293.943L511.271 284.653C512.067 283.934 512.744 283.276 513.303 282.679C513.861 282.073 514.287 281.467 514.581 280.861C514.875 280.245 515.021 279.578 515.021 278.858C515.021 278.053 514.846 277.366 514.496 276.798C514.145 276.221 513.662 275.776 513.047 275.463C512.431 275.151 511.726 274.994 510.93 274.994C510.125 274.994 509.42 275.16 508.814 275.491C508.208 275.813 507.734 276.282 507.393 276.898C507.062 277.513 506.896 278.261 506.896 279.142H500.234C500.234 277.163 500.679 275.454 501.57 274.014C502.46 272.575 503.71 271.467 505.32 270.69C506.939 269.904 508.819 269.511 510.959 269.511C513.165 269.511 515.083 269.881 516.712 270.619C518.34 271.358 519.6 272.39 520.49 273.716C521.39 275.032 521.839 276.562 521.839 278.304C521.839 279.412 521.617 280.51 521.172 281.599C520.727 282.688 519.927 283.891 518.771 285.207C517.625 286.524 515.997 288.1 513.885 289.938L510.405 293.148V293.332H522.195V299H500.661ZM534.819 299V277.182H541.765V285.307H543.299L548.597 277.182H556.637L549.293 288.105L556.708 299H548.569L543.782 291.756H541.765V299H534.819ZM572.092 291.585L577.433 277.182H582.518L574.322 299H569.862L561.879 277.182H566.95L572.092 291.585ZM565.458 277.182V299H558.881V277.182H565.458ZM579.123 299V277.182H585.614V299H579.123ZM70.7955 347V317.909H77.8267V329.585H89.2898V317.909H96.3068V347H89.2898V335.31H77.8267V347H70.7955ZM109.07 330.253C108.407 330.253 107.848 330.366 107.393 330.594C106.939 330.821 106.598 331.143 106.371 331.56C106.153 331.976 106.044 332.483 106.044 333.08H99.8793C99.8793 331.82 100.107 330.684 100.561 329.67C101.016 328.648 101.655 327.777 102.479 327.057C103.312 326.328 104.287 325.774 105.405 325.395C106.522 325.007 107.744 324.812 109.07 324.812C111.333 324.812 113.232 325.295 114.766 326.261C116.309 327.227 117.474 328.548 118.26 330.224C119.046 331.891 119.439 333.78 119.439 335.892V336.318C119.439 338.439 119.051 340.338 118.274 342.014C117.498 343.681 116.338 344.997 114.794 345.963C113.26 346.92 111.352 347.398 109.07 347.398C107.251 347.398 105.651 347.052 104.268 346.361C102.895 345.67 101.821 344.666 101.044 343.349C100.268 342.033 99.8793 340.438 99.8793 338.562H106.044C106.044 339.178 106.153 339.741 106.371 340.253C106.589 340.755 106.92 341.157 107.365 341.46C107.82 341.754 108.388 341.905 109.07 341.915C110.14 341.905 110.945 341.612 111.484 341.034C112.034 340.456 112.398 339.737 112.578 338.875C112.768 338.013 112.862 337.161 112.862 336.318V335.892C112.862 334.926 112.763 334.017 112.564 333.165C112.375 332.303 112.005 331.602 111.456 331.062C110.916 330.523 110.121 330.253 109.07 330.253ZM114.723 334.259V337.98H107.635V334.259H114.723ZM138.448 325.182V330.494H129.741V347H123.022V325.182H138.448ZM167.386 334.188V337.994H153.636V334.188H167.386ZM160.511 347.412C158.22 347.412 156.25 346.943 154.602 346.006C152.964 345.059 151.7 343.742 150.81 342.057C149.929 340.362 149.489 338.397 149.489 336.162C149.489 333.918 149.929 331.953 150.81 330.267C151.7 328.572 152.964 327.256 154.602 326.318C156.25 325.371 158.22 324.898 160.511 324.898C162.803 324.898 164.768 325.371 166.406 326.318C168.054 327.256 169.318 328.572 170.199 330.267C171.089 331.953 171.534 333.918 171.534 336.162C171.534 338.397 171.089 340.362 170.199 342.057C169.318 343.742 168.054 345.059 166.406 346.006C164.768 346.943 162.803 347.412 160.511 347.412ZM160.554 342.17C161.387 342.17 162.093 341.915 162.67 341.403C163.248 340.892 163.688 340.182 163.991 339.273C164.304 338.364 164.46 337.312 164.46 336.119C164.46 334.907 164.304 333.847 163.991 332.938C163.688 332.028 163.248 331.318 162.67 330.807C162.093 330.295 161.387 330.04 160.554 330.04C159.692 330.04 158.963 330.295 158.366 330.807C157.779 331.318 157.33 332.028 157.017 332.938C156.714 333.847 156.562 334.907 156.562 336.119C156.562 337.312 156.714 338.364 157.017 339.273C157.33 340.182 157.779 340.892 158.366 341.403C158.963 341.915 159.692 342.17 160.554 342.17ZM173.587 353.435V341.645H175.22C175.713 341.399 176.106 340.925 176.399 340.224C176.693 339.514 176.925 338.686 177.095 337.739C177.275 336.782 177.408 335.788 177.493 334.756C177.588 333.714 177.673 332.734 177.749 331.815L178.26 325.182H195.93V341.645H199.339V353.435H192.749V347H180.348V353.435H173.587ZM181.982 341.645H189.453V330.352H184.055L183.942 331.815C183.809 334.164 183.601 336.134 183.317 337.724C183.033 339.315 182.588 340.622 181.982 341.645ZM219.613 334.188V337.994H205.863V334.188H219.613ZM212.738 347.412C210.446 347.412 208.477 346.943 206.829 346.006C205.191 345.059 203.926 343.742 203.036 342.057C202.156 340.362 201.715 338.397 201.715 336.162C201.715 333.918 202.156 331.953 203.036 330.267C203.926 328.572 205.191 327.256 206.829 326.318C208.477 325.371 210.446 324.898 212.738 324.898C215.03 324.898 216.995 325.371 218.633 326.318C220.281 327.256 221.545 328.572 222.425 330.267C223.316 331.953 223.761 333.918 223.761 336.162C223.761 338.397 223.316 340.362 222.425 342.057C221.545 343.742 220.281 345.059 218.633 346.006C216.995 346.943 215.03 347.412 212.738 347.412ZM212.781 342.17C213.614 342.17 214.319 341.915 214.897 341.403C215.475 340.892 215.915 340.182 216.218 339.273C216.531 338.364 216.687 337.312 216.687 336.119C216.687 334.907 216.531 333.847 216.218 332.938C215.915 332.028 215.475 331.318 214.897 330.807C214.319 330.295 213.614 330.04 212.781 330.04C211.919 330.04 211.19 330.295 210.593 330.807C210.006 331.318 209.556 332.028 209.244 332.938C208.941 333.847 208.789 334.907 208.789 336.119C208.789 337.312 208.941 338.364 209.244 339.273C209.556 340.182 210.006 340.892 210.593 341.403C211.19 341.915 211.919 342.17 212.781 342.17ZM227.319 355.182V325.182H234.194V328.918H234.407C234.691 328.255 235.094 327.616 235.614 327C236.145 326.384 236.817 325.883 237.631 325.494C238.455 325.097 239.44 324.898 240.586 324.898C242.101 324.898 243.517 325.295 244.833 326.091C246.159 326.886 247.229 328.113 248.043 329.77C248.858 331.427 249.265 333.539 249.265 336.105C249.265 338.577 248.872 340.646 248.086 342.312C247.309 343.979 246.258 345.229 244.933 346.062C243.616 346.896 242.153 347.312 240.543 347.312C239.445 347.312 238.493 347.133 237.688 346.773C236.883 346.413 236.206 345.939 235.657 345.352C235.117 344.765 234.701 344.135 234.407 343.463H234.265V355.182H227.319ZM234.123 336.091C234.123 337.265 234.279 338.288 234.592 339.159C234.914 340.03 235.373 340.707 235.969 341.19C236.576 341.664 237.3 341.901 238.143 341.901C238.995 341.901 239.719 341.664 240.316 341.19C240.913 340.707 241.362 340.03 241.665 339.159C241.978 338.288 242.134 337.265 242.134 336.091C242.134 334.917 241.978 333.899 241.665 333.037C241.362 332.175 240.913 331.508 240.316 331.034C239.729 330.561 239.004 330.324 238.143 330.324C237.29 330.324 236.566 330.556 235.969 331.02C235.373 331.484 234.914 332.147 234.592 333.009C234.279 333.87 234.123 334.898 234.123 336.091ZM377.124 343.733C376.101 343.733 375.225 343.373 374.496 342.653C373.776 341.934 373.421 341.062 373.43 340.04C373.421 339.036 373.776 338.179 374.496 337.469C375.225 336.749 376.101 336.389 377.124 336.389C378.089 336.389 378.942 336.749 379.68 337.469C380.429 338.179 380.807 339.036 380.817 340.04C380.807 340.722 380.627 341.342 380.277 341.901C379.936 342.459 379.486 342.904 378.928 343.236C378.378 343.567 377.777 343.733 377.124 343.733ZM377.124 329.614C376.101 329.614 375.225 329.254 374.496 328.534C373.776 327.814 373.421 326.943 373.43 325.92C373.421 324.917 373.776 324.06 374.496 323.349C375.225 322.63 376.101 322.27 377.124 322.27C378.089 322.27 378.942 322.63 379.68 323.349C380.429 324.06 380.807 324.917 380.817 325.92C380.807 326.602 380.627 327.223 380.277 327.781C379.936 328.34 379.486 328.785 378.928 329.116C378.378 329.448 377.777 329.614 377.124 329.614ZM393.942 347V341.943L404.553 332.653C405.348 331.934 406.025 331.276 406.584 330.679C407.143 330.073 407.569 329.467 407.862 328.861C408.156 328.245 408.303 327.578 408.303 326.858C408.303 326.053 408.127 325.366 407.777 324.798C407.427 324.221 406.944 323.776 406.328 323.463C405.713 323.151 405.007 322.994 404.212 322.994C403.407 322.994 402.701 323.16 402.095 323.491C401.489 323.813 401.016 324.282 400.675 324.898C400.343 325.513 400.178 326.261 400.178 327.142H393.516C393.516 325.163 393.961 323.454 394.851 322.014C395.741 320.575 396.991 319.467 398.601 318.69C400.22 317.904 402.1 317.511 404.24 317.511C406.446 317.511 408.364 317.881 409.993 318.619C411.622 319.358 412.881 320.39 413.771 321.716C414.671 323.032 415.121 324.562 415.121 326.304C415.121 327.412 414.898 328.51 414.453 329.599C414.008 330.688 413.208 331.891 412.053 333.207C410.907 334.524 409.278 336.1 407.166 337.938L403.686 341.148V341.332H415.476V347H393.942ZM418.469 342.17V336.688L430.387 317.909H435.259V325.352H432.433L425.458 336.403V336.631H442.717V342.17H418.469ZM432.518 347V340.494L432.66 338.094V317.909H439.237V347H432.518ZM474.755 325.182V342.469H478.377V354.003H471.658V347H455.053V325.182H461.63V341.688H468.278V325.182H474.755ZM487.766 347.369C486.374 347.369 485.138 347.137 484.059 346.673C482.989 346.2 482.141 345.49 481.516 344.543C480.901 343.586 480.593 342.388 480.593 340.949C480.593 339.737 480.806 338.714 481.232 337.881C481.658 337.047 482.246 336.37 482.994 335.849C483.742 335.329 484.603 334.936 485.579 334.67C486.554 334.396 487.596 334.211 488.704 334.116C489.944 334.003 490.943 333.884 491.701 333.761C492.459 333.629 493.008 333.444 493.349 333.207C493.699 332.961 493.874 332.616 493.874 332.17V332.099C493.874 331.37 493.623 330.807 493.121 330.409C492.62 330.011 491.942 329.812 491.09 329.812C490.172 329.812 489.433 330.011 488.874 330.409C488.316 330.807 487.96 331.356 487.809 332.057L481.403 331.83C481.592 330.504 482.08 329.32 482.866 328.278C483.661 327.227 484.75 326.403 486.133 325.807C487.525 325.201 489.196 324.898 491.147 324.898C492.539 324.898 493.822 325.063 494.996 325.395C496.171 325.717 497.193 326.19 498.065 326.815C498.936 327.431 499.608 328.188 500.082 329.088C500.565 329.988 500.806 331.015 500.806 332.17V347H494.272V343.96H494.102C493.713 344.699 493.216 345.324 492.61 345.835C492.013 346.347 491.308 346.73 490.494 346.986C489.689 347.241 488.78 347.369 487.766 347.369ZM489.911 342.824C490.659 342.824 491.332 342.672 491.928 342.369C492.534 342.066 493.017 341.65 493.377 341.119C493.737 340.58 493.917 339.955 493.917 339.244V337.17C493.718 337.275 493.477 337.369 493.192 337.455C492.918 337.54 492.615 337.62 492.283 337.696C491.952 337.772 491.611 337.838 491.261 337.895C490.91 337.952 490.574 338.004 490.252 338.051C489.599 338.155 489.04 338.316 488.576 338.534C488.121 338.752 487.771 339.036 487.525 339.386C487.288 339.727 487.17 340.134 487.17 340.608C487.17 341.328 487.425 341.877 487.937 342.256C488.458 342.634 489.116 342.824 489.911 342.824ZM520.479 325.182V330.494H511.772V347H505.053V325.182H520.479Z" fill="white"/>
<path d="M94.4094 405.56L94.0543 417.875H87.4634V411H85.418V405.56H94.4094ZM65.2759 411V381.909H72.0373V405.489H83.1737V381.909H90.0344V411H65.2759ZM107.804 411.412C105.513 411.412 103.543 410.943 101.895 410.006C100.257 409.059 98.9928 407.742 98.1026 406.057C97.2219 404.362 96.7816 402.397 96.7816 400.162C96.7816 397.918 97.2219 395.953 98.1026 394.267C98.9928 392.572 100.257 391.256 101.895 390.318C103.543 389.371 105.513 388.898 107.804 388.898C110.096 388.898 112.061 389.371 113.699 390.318C115.347 391.256 116.611 392.572 117.492 394.267C118.382 395.953 118.827 397.918 118.827 400.162C118.827 402.397 118.382 404.362 117.492 406.057C116.611 407.742 115.347 409.059 113.699 410.006C112.061 410.943 110.096 411.412 107.804 411.412ZM107.847 406.17C108.68 406.17 109.386 405.915 109.963 405.403C110.541 404.892 110.981 404.182 111.284 403.273C111.597 402.364 111.753 401.312 111.753 400.119C111.753 398.907 111.597 397.847 111.284 396.938C110.981 396.028 110.541 395.318 109.963 394.807C109.386 394.295 108.68 394.04 107.847 394.04C106.985 394.04 106.256 394.295 105.659 394.807C105.072 395.318 104.623 396.028 104.31 396.938C104.007 397.847 103.855 398.907 103.855 400.119C103.855 401.312 104.007 402.364 104.31 403.273C104.623 404.182 105.072 404.892 105.659 405.403C106.256 405.915 106.985 406.17 107.847 406.17ZM122.385 419.182V389.182H129.26V392.918H129.473C129.757 392.255 130.16 391.616 130.681 391C131.211 390.384 131.883 389.883 132.698 389.494C133.522 389.097 134.507 388.898 135.652 388.898C137.167 388.898 138.583 389.295 139.9 390.091C141.225 390.886 142.295 392.113 143.11 393.77C143.924 395.427 144.331 397.539 144.331 400.105C144.331 402.577 143.938 404.646 143.152 406.312C142.376 407.979 141.325 409.229 139.999 410.062C138.683 410.896 137.22 411.312 135.61 411.312C134.511 411.312 133.56 411.133 132.755 410.773C131.95 410.413 131.273 409.939 130.723 409.352C130.184 408.765 129.767 408.135 129.473 407.463H129.331V419.182H122.385ZM129.189 400.091C129.189 401.265 129.346 402.288 129.658 403.159C129.98 404.03 130.439 404.707 131.036 405.19C131.642 405.664 132.366 405.901 133.209 405.901C134.061 405.901 134.786 405.664 135.382 405.19C135.979 404.707 136.429 404.03 136.732 403.159C137.044 402.288 137.201 401.265 137.201 400.091C137.201 398.917 137.044 397.899 136.732 397.037C136.429 396.175 135.979 395.508 135.382 395.034C134.795 394.561 134.071 394.324 133.209 394.324C132.357 394.324 131.632 394.556 131.036 395.02C130.439 395.484 129.98 396.147 129.658 397.009C129.346 397.87 129.189 398.898 129.189 400.091ZM171.991 389.182V394.494H163.284V411H156.565V389.182H171.991ZM180.762 411.369C179.37 411.369 178.135 411.137 177.055 410.673C175.985 410.2 175.137 409.49 174.512 408.543C173.897 407.586 173.589 406.388 173.589 404.949C173.589 403.737 173.802 402.714 174.228 401.881C174.654 401.047 175.242 400.37 175.99 399.849C176.738 399.329 177.6 398.936 178.575 398.67C179.55 398.396 180.592 398.211 181.7 398.116C182.94 398.003 183.94 397.884 184.697 397.761C185.455 397.629 186.004 397.444 186.345 397.207C186.695 396.961 186.87 396.616 186.87 396.17V396.099C186.87 395.37 186.619 394.807 186.118 394.409C185.616 394.011 184.939 393.812 184.086 393.812C183.168 393.812 182.429 394.011 181.87 394.409C181.312 394.807 180.957 395.356 180.805 396.057L174.399 395.83C174.588 394.504 175.076 393.32 175.862 392.278C176.657 391.227 177.746 390.403 179.129 389.807C180.521 389.201 182.192 388.898 184.143 388.898C185.535 388.898 186.818 389.063 187.993 389.395C189.167 389.717 190.19 390.19 191.061 390.815C191.932 391.431 192.604 392.188 193.078 393.088C193.561 393.988 193.802 395.015 193.802 396.17V411H187.268V407.96H187.098C186.709 408.699 186.212 409.324 185.606 409.835C185.01 410.347 184.304 410.73 183.49 410.986C182.685 411.241 181.776 411.369 180.762 411.369ZM182.907 406.824C183.655 406.824 184.328 406.672 184.924 406.369C185.53 406.066 186.013 405.65 186.373 405.119C186.733 404.58 186.913 403.955 186.913 403.244V401.17C186.714 401.275 186.473 401.369 186.189 401.455C185.914 401.54 185.611 401.62 185.279 401.696C184.948 401.772 184.607 401.838 184.257 401.895C183.906 401.952 183.57 402.004 183.248 402.051C182.595 402.155 182.036 402.316 181.572 402.534C181.118 402.752 180.767 403.036 180.521 403.386C180.284 403.727 180.166 404.134 180.166 404.608C180.166 405.328 180.422 405.877 180.933 406.256C181.454 406.634 182.112 406.824 182.907 406.824ZM213.433 397.378V402.676H202.24V397.378H213.433ZM204.626 389.182V411H198.049V389.182H204.626ZM217.623 389.182V411H211.089V389.182H217.623ZM241.54 389.182V406.469H245.162V418.003H238.444V411H221.838V389.182H228.415V405.688H235.063V389.182H241.54ZM263.145 411.369C261.753 411.369 260.517 411.137 259.438 410.673C258.368 410.2 257.52 409.49 256.895 408.543C256.28 407.586 255.972 406.388 255.972 404.949C255.972 403.737 256.185 402.714 256.611 401.881C257.037 401.047 257.624 400.37 258.373 399.849C259.121 399.329 259.982 398.936 260.958 398.67C261.933 398.396 262.975 398.211 264.083 398.116C265.323 398.003 266.322 397.884 267.08 397.761C267.837 397.629 268.387 397.444 268.728 397.207C269.078 396.961 269.253 396.616 269.253 396.17V396.099C269.253 395.37 269.002 394.807 268.5 394.409C267.998 394.011 267.321 393.812 266.469 393.812C265.551 393.812 264.812 394.011 264.253 394.409C263.694 394.807 263.339 395.356 263.188 396.057L256.782 395.83C256.971 394.504 257.459 393.32 258.245 392.278C259.04 391.227 260.129 390.403 261.512 389.807C262.904 389.201 264.575 388.898 266.526 388.898C267.918 388.898 269.201 389.063 270.375 389.395C271.55 389.717 272.572 390.19 273.444 390.815C274.315 391.431 274.987 392.188 275.461 393.088C275.944 393.988 276.185 395.015 276.185 396.17V411H269.651V407.96H269.48C269.092 408.699 268.595 409.324 267.989 409.835C267.392 410.347 266.687 410.73 265.873 410.986C265.068 411.241 264.158 411.369 263.145 411.369ZM265.29 406.824C266.038 406.824 266.711 406.672 267.307 406.369C267.913 406.066 268.396 405.65 268.756 405.119C269.116 404.58 269.296 403.955 269.296 403.244V401.17C269.097 401.275 268.855 401.369 268.571 401.455C268.297 401.54 267.994 401.62 267.662 401.696C267.331 401.772 266.99 401.838 266.64 401.895C266.289 401.952 265.953 402.004 265.631 402.051C264.978 402.155 264.419 402.316 263.955 402.534C263.5 402.752 263.15 403.036 262.904 403.386C262.667 403.727 262.549 404.134 262.549 404.608C262.549 405.328 262.804 405.877 263.316 406.256C263.837 406.634 264.495 406.824 265.29 406.824ZM293.642 403.585L298.983 389.182H304.069L295.873 411H291.412L283.429 389.182H288.5L293.642 403.585ZM287.009 389.182V411H280.432V389.182H287.009ZM300.674 411V389.182H307.165V411H300.674ZM315.446 395.489H322.066C325.068 395.489 327.421 396.194 329.125 397.605C330.83 399.007 331.687 400.91 331.696 403.315C331.687 404.878 331.294 406.237 330.517 407.392C329.75 408.538 328.647 409.428 327.208 410.062C325.778 410.688 324.064 411 322.066 411H311.37V389.182H317.946V405.688H322.066C322.975 405.688 323.723 405.465 324.31 405.02C324.897 404.575 325.195 404.002 325.205 403.301C325.195 402.562 324.897 401.961 324.31 401.497C323.723 401.033 322.975 400.801 322.066 400.801H315.446V395.489ZM333.848 417.435V405.645H335.482C335.974 405.399 336.367 404.925 336.661 404.224C336.954 403.514 337.186 402.686 337.357 401.739C337.537 400.782 337.669 399.788 337.755 398.756C337.849 397.714 337.935 396.734 338.01 395.815L338.522 389.182H356.192V405.645H359.601V417.435H353.01V411H340.61V417.435H333.848ZM342.243 405.645H349.715V394.352H344.317L344.203 395.815C344.071 398.164 343.863 400.134 343.578 401.724C343.294 403.315 342.849 404.622 342.243 405.645ZM362.815 419.182V389.182H369.69V392.918H369.903C370.187 392.255 370.59 391.616 371.11 391C371.641 390.384 372.313 389.883 373.127 389.494C373.951 389.097 374.936 388.898 376.082 388.898C377.597 388.898 379.013 389.295 380.329 390.091C381.655 390.886 382.725 392.113 383.539 393.77C384.354 395.427 384.761 397.539 384.761 400.105C384.761 402.577 384.368 404.646 383.582 406.312C382.806 407.979 381.754 409.229 380.429 410.062C379.112 410.896 377.649 411.312 376.039 411.312C374.941 411.312 373.989 411.133 373.184 410.773C372.379 410.413 371.702 409.939 371.153 409.352C370.613 408.765 370.197 408.135 369.903 407.463H369.761V419.182H362.815ZM369.619 400.091C369.619 401.265 369.775 402.288 370.088 403.159C370.41 404.03 370.869 404.707 371.466 405.19C372.072 405.664 372.796 405.901 373.639 405.901C374.491 405.901 375.216 405.664 375.812 405.19C376.409 404.707 376.859 404.03 377.162 403.159C377.474 402.288 377.63 401.265 377.63 400.091C377.63 398.917 377.474 397.899 377.162 397.037C376.859 396.175 376.409 395.508 375.812 395.034C375.225 394.561 374.501 394.324 373.639 394.324C372.787 394.324 372.062 394.556 371.466 395.02C370.869 395.484 370.41 396.147 370.088 397.009C369.775 397.87 369.619 398.898 369.619 400.091ZM394.551 411.369C393.159 411.369 391.924 411.137 390.844 410.673C389.774 410.2 388.926 409.49 388.301 408.543C387.686 407.586 387.378 406.388 387.378 404.949C387.378 403.737 387.591 402.714 388.017 401.881C388.444 401.047 389.031 400.37 389.779 399.849C390.527 399.329 391.389 398.936 392.364 398.67C393.339 398.396 394.381 398.211 395.489 398.116C396.73 398.003 397.729 397.884 398.486 397.761C399.244 397.629 399.793 397.444 400.134 397.207C400.484 396.961 400.659 396.616 400.659 396.17V396.099C400.659 395.37 400.408 394.807 399.907 394.409C399.405 394.011 398.728 393.812 397.875 393.812C396.957 393.812 396.218 394.011 395.659 394.409C395.101 394.807 394.746 395.356 394.594 396.057L388.188 395.83C388.377 394.504 388.865 393.32 389.651 392.278C390.446 391.227 391.535 390.403 392.918 389.807C394.31 389.201 395.981 388.898 397.932 388.898C399.324 388.898 400.607 389.063 401.782 389.395C402.956 389.717 403.979 390.19 404.85 390.815C405.721 391.431 406.393 392.188 406.867 393.088C407.35 393.988 407.591 395.015 407.591 396.17V411H401.057V407.96H400.887C400.498 408.699 400.001 409.324 399.395 409.835C398.799 410.347 398.093 410.73 397.279 410.986C396.474 411.241 395.565 411.369 394.551 411.369ZM396.696 406.824C397.444 406.824 398.117 406.672 398.713 406.369C399.319 406.066 399.802 405.65 400.162 405.119C400.522 404.58 400.702 403.955 400.702 403.244V401.17C400.503 401.275 400.262 401.369 399.978 401.455C399.703 401.54 399.4 401.62 399.069 401.696C398.737 401.772 398.396 401.838 398.046 401.895C397.695 401.952 397.359 402.004 397.037 402.051C396.384 402.155 395.825 402.316 395.361 402.534C394.907 402.752 394.556 403.036 394.31 403.386C394.073 403.727 393.955 404.134 393.955 404.608C393.955 405.328 394.211 405.877 394.722 406.256C395.243 406.634 395.901 406.824 396.696 406.824ZM410.773 411L410.73 405.645H411.426C411.9 405.645 412.312 405.522 412.662 405.276C413.013 405.029 413.306 404.636 413.543 404.097C413.78 403.547 413.969 402.842 414.111 401.98C414.253 401.118 414.343 400.072 414.381 398.841L414.736 389.182H432.009V411H425.432V394.494H420.915L420.574 400.773C420.489 402.619 420.248 404.196 419.85 405.503C419.462 406.8 418.931 407.851 418.259 408.656C417.596 409.461 416.81 410.053 415.901 410.432C414.992 410.811 413.964 411 412.819 411H410.773ZM451.423 402.009L458.397 389.182H465.074V411H458.497V398.131L451.537 411H444.846V389.182H451.423V402.009ZM468.429 411L468.387 405.645H469.083C469.556 405.645 469.968 405.522 470.319 405.276C470.669 405.029 470.962 404.636 471.199 404.097C471.436 403.547 471.625 402.842 471.767 401.98C471.909 401.118 471.999 400.072 472.037 398.841L472.392 389.182H489.665V411H483.088V394.494H478.571L478.23 400.773C478.145 402.619 477.904 404.196 477.506 405.503C477.118 406.8 476.587 407.851 475.915 408.656C475.252 409.461 474.466 410.053 473.557 410.432C472.648 410.811 471.621 411 470.475 411H468.429ZM502.261 394.253C501.598 394.253 501.039 394.366 500.585 394.594C500.13 394.821 499.789 395.143 499.562 395.56C499.344 395.976 499.235 396.483 499.235 397.08H493.071C493.071 395.82 493.298 394.684 493.752 393.67C494.207 392.648 494.846 391.777 495.67 391.057C496.503 390.328 497.479 389.774 498.596 389.395C499.714 389.007 500.935 388.812 502.261 388.812C504.524 388.812 506.423 389.295 507.957 390.261C509.501 391.227 510.665 392.548 511.451 394.224C512.237 395.891 512.63 397.78 512.63 399.892V400.318C512.63 402.439 512.242 404.338 511.466 406.014C510.689 407.681 509.529 408.997 507.985 409.963C506.451 410.92 504.543 411.398 502.261 411.398C500.443 411.398 498.842 411.052 497.46 410.361C496.087 409.67 495.012 408.666 494.235 407.349C493.459 406.033 493.071 404.438 493.071 402.562H499.235C499.235 403.178 499.344 403.741 499.562 404.253C499.78 404.755 500.111 405.157 500.556 405.46C501.011 405.754 501.579 405.905 502.261 405.915C503.331 405.905 504.136 405.612 504.676 405.034C505.225 404.456 505.59 403.737 505.77 402.875C505.959 402.013 506.054 401.161 506.054 400.318V399.892C506.054 398.926 505.954 398.017 505.755 397.165C505.566 396.303 505.197 395.602 504.647 395.062C504.108 394.523 503.312 394.253 502.261 394.253ZM507.914 398.259V401.98H500.826V398.259H507.914ZM516.213 419.182V389.182H523.088V392.918H523.301C523.586 392.255 523.988 391.616 524.509 391C525.039 390.384 525.712 389.883 526.526 389.494C527.35 389.097 528.335 388.898 529.48 388.898C530.996 388.898 532.411 389.295 533.728 390.091C535.053 390.886 536.123 392.113 536.938 393.77C537.752 395.427 538.159 397.539 538.159 400.105C538.159 402.577 537.766 404.646 536.98 406.312C536.204 407.979 535.153 409.229 533.827 410.062C532.511 410.896 531.048 411.312 529.438 411.312C528.339 411.312 527.388 411.133 526.583 410.773C525.778 410.413 525.101 409.939 524.551 409.352C524.012 408.765 523.595 408.135 523.301 407.463H523.159V419.182H516.213ZM523.017 400.091C523.017 401.265 523.174 402.288 523.486 403.159C523.808 404.03 524.267 404.707 524.864 405.19C525.47 405.664 526.194 405.901 527.037 405.901C527.89 405.901 528.614 405.664 529.211 405.19C529.807 404.707 530.257 404.03 530.56 403.159C530.873 402.288 531.029 401.265 531.029 400.091C531.029 398.917 530.873 397.899 530.56 397.037C530.257 396.175 529.807 395.508 529.211 395.034C528.623 394.561 527.899 394.324 527.037 394.324C526.185 394.324 525.461 394.556 524.864 395.02C524.267 395.484 523.808 396.147 523.486 397.009C523.174 397.87 523.017 398.898 523.017 400.091ZM551.984 411.412C549.683 411.412 547.708 410.938 546.061 409.991C544.422 409.045 543.163 407.728 542.282 406.043C541.402 404.348 540.961 402.387 540.961 400.162C540.961 397.927 541.402 395.967 542.282 394.281C543.172 392.586 544.437 391.265 546.075 390.318C547.723 389.371 549.688 388.898 551.97 388.898C553.987 388.898 555.743 389.262 557.24 389.991C558.745 390.721 559.92 391.753 560.762 393.088C561.615 394.414 562.065 395.972 562.112 397.761H555.62C555.488 396.644 555.109 395.768 554.484 395.134C553.868 394.499 553.064 394.182 552.069 394.182C551.264 394.182 550.559 394.409 549.953 394.864C549.347 395.309 548.873 395.972 548.532 396.852C548.201 397.723 548.035 398.803 548.035 400.091C548.035 401.379 548.201 402.468 548.532 403.358C548.873 404.239 549.347 404.906 549.953 405.361C550.559 405.806 551.264 406.028 552.069 406.028C552.713 406.028 553.281 405.891 553.774 405.616C554.276 405.342 554.688 404.939 555.01 404.409C555.332 403.869 555.535 403.216 555.62 402.449H562.112C562.046 404.248 561.596 405.82 560.762 407.165C559.939 408.509 558.779 409.556 557.282 410.304C555.796 411.043 554.029 411.412 551.984 411.412ZM574.019 394.253C573.356 394.253 572.797 394.366 572.343 394.594C571.888 394.821 571.547 395.143 571.32 395.56C571.102 395.976 570.993 396.483 570.993 397.08H564.828C564.828 395.82 565.056 394.684 565.51 393.67C565.965 392.648 566.604 391.777 567.428 391.057C568.261 390.328 569.237 389.774 570.354 389.395C571.471 389.007 572.693 388.812 574.019 388.812C576.282 388.812 578.181 389.295 579.715 390.261C581.258 391.227 582.423 392.548 583.209 394.224C583.995 395.891 584.388 397.78 584.388 399.892V400.318C584.388 402.439 584 404.338 583.223 406.014C582.447 407.681 581.287 408.997 579.743 409.963C578.209 410.92 576.301 411.398 574.019 411.398C572.201 411.398 570.6 411.052 569.218 410.361C567.845 409.67 566.77 408.666 565.993 407.349C565.217 406.033 564.828 404.438 564.828 402.562H570.993C570.993 403.178 571.102 403.741 571.32 404.253C571.538 404.755 571.869 405.157 572.314 405.46C572.769 405.754 573.337 405.905 574.019 405.915C575.089 405.905 575.894 405.612 576.434 405.034C576.983 404.456 577.347 403.737 577.527 402.875C577.717 402.013 577.811 401.161 577.811 400.318V399.892C577.811 398.926 577.712 398.017 577.513 397.165C577.324 396.303 576.954 395.602 576.405 395.062C575.865 394.523 575.07 394.253 574.019 394.253ZM579.672 398.259V401.98H572.584V398.259H579.672ZM603.355 397.378V402.676H592.162V397.378H603.355ZM594.548 389.182V411H587.971V389.182H594.548ZM607.545 389.182V411H601.011V389.182H607.545ZM635.78 389.182V394.494H627.073V411H620.354V389.182H635.78ZM644.551 411.369C643.159 411.369 641.924 411.137 640.844 410.673C639.774 410.2 638.926 409.49 638.301 408.543C637.686 407.586 637.378 406.388 637.378 404.949C637.378 403.737 637.591 402.714 638.017 401.881C638.444 401.047 639.031 400.37 639.779 399.849C640.527 399.329 641.389 398.936 642.364 398.67C643.339 398.396 644.381 398.211 645.489 398.116C646.73 398.003 647.729 397.884 648.486 397.761C649.244 397.629 649.793 397.444 650.134 397.207C650.484 396.961 650.659 396.616 650.659 396.17V396.099C650.659 395.37 650.408 394.807 649.907 394.409C649.405 394.011 648.728 393.812 647.875 393.812C646.957 393.812 646.218 394.011 645.659 394.409C645.101 394.807 644.746 395.356 644.594 396.057L638.188 395.83C638.377 394.504 638.865 393.32 639.651 392.278C640.446 391.227 641.535 390.403 642.918 389.807C644.31 389.201 645.981 388.898 647.932 388.898C649.324 388.898 650.607 389.063 651.782 389.395C652.956 389.717 653.979 390.19 654.85 390.815C655.721 391.431 656.393 392.188 656.867 393.088C657.35 393.988 657.591 395.015 657.591 396.17V411H651.057V407.96H650.887C650.498 408.699 650.001 409.324 649.395 409.835C648.799 410.347 648.093 410.73 647.279 410.986C646.474 411.241 645.565 411.369 644.551 411.369ZM646.696 406.824C647.444 406.824 648.117 406.672 648.713 406.369C649.319 406.066 649.802 405.65 650.162 405.119C650.522 404.58 650.702 403.955 650.702 403.244V401.17C650.503 401.275 650.262 401.369 649.978 401.455C649.703 401.54 649.4 401.62 649.069 401.696C648.737 401.772 648.396 401.838 648.046 401.895C647.695 401.952 647.359 402.004 647.037 402.051C646.384 402.155 645.825 402.316 645.361 402.534C644.907 402.752 644.556 403.036 644.31 403.386C644.073 403.727 643.955 404.134 643.955 404.608C643.955 405.328 644.211 405.877 644.722 406.256C645.243 406.634 645.901 406.824 646.696 406.824ZM661.838 419.182V389.182H668.713V392.918H668.926C669.211 392.255 669.613 391.616 670.134 391C670.664 390.384 671.337 389.883 672.151 389.494C672.975 389.097 673.96 388.898 675.105 388.898C676.621 388.898 678.036 389.295 679.353 390.091C680.678 390.886 681.748 392.113 682.563 393.77C683.377 395.427 683.784 397.539 683.784 400.105C683.784 402.577 683.391 404.646 682.605 406.312C681.829 407.979 680.778 409.229 679.452 410.062C678.136 410.896 676.673 411.312 675.063 411.312C673.964 411.312 673.013 411.133 672.208 410.773C671.403 410.413 670.726 409.939 670.176 409.352C669.637 408.765 669.22 408.135 668.926 407.463H668.784V419.182H661.838ZM668.642 400.091C668.642 401.265 668.799 402.288 669.111 403.159C669.433 404.03 669.892 404.707 670.489 405.19C671.095 405.664 671.819 405.901 672.662 405.901C673.515 405.901 674.239 405.664 674.836 405.19C675.432 404.707 675.882 404.03 676.185 403.159C676.498 402.288 676.654 401.265 676.654 400.091C676.654 398.917 676.498 397.899 676.185 397.037C675.882 396.175 675.432 395.508 674.836 395.034C674.248 394.561 673.524 394.324 672.662 394.324C671.81 394.324 671.086 394.556 670.489 395.02C669.892 395.484 669.433 396.147 669.111 397.009C668.799 397.87 668.642 398.898 668.642 400.091ZM693.575 411.369C692.183 411.369 690.947 411.137 689.868 410.673C688.797 410.2 687.95 409.49 687.325 408.543C686.709 407.586 686.402 406.388 686.402 404.949C686.402 403.737 686.615 402.714 687.041 401.881C687.467 401.047 688.054 400.37 688.802 399.849C689.55 399.329 690.412 398.936 691.387 398.67C692.363 398.396 693.404 398.211 694.512 398.116C695.753 398.003 696.752 397.884 697.51 397.761C698.267 397.629 698.816 397.444 699.157 397.207C699.508 396.961 699.683 396.616 699.683 396.17V396.099C699.683 395.37 699.432 394.807 698.93 394.409C698.428 394.011 697.751 393.812 696.899 393.812C695.98 393.812 695.242 394.011 694.683 394.409C694.124 394.807 693.769 395.356 693.618 396.057L687.211 395.83C687.401 394.504 687.888 393.32 688.674 392.278C689.47 391.227 690.559 390.403 691.941 389.807C693.333 389.201 695.005 388.898 696.956 388.898C698.348 388.898 699.631 389.063 700.805 389.395C701.979 389.717 703.002 390.19 703.873 390.815C704.744 391.431 705.417 392.188 705.89 393.088C706.373 393.988 706.615 395.015 706.615 396.17V411H700.081V407.96H699.91C699.522 408.699 699.025 409.324 698.419 409.835C697.822 410.347 697.117 410.73 696.302 410.986C695.497 411.241 694.588 411.369 693.575 411.369ZM695.72 406.824C696.468 406.824 697.14 406.672 697.737 406.369C698.343 406.066 698.826 405.65 699.186 405.119C699.546 404.58 699.725 403.955 699.725 403.244V401.17C699.527 401.275 699.285 401.369 699.001 401.455C698.726 401.54 698.423 401.62 698.092 401.696C697.761 401.772 697.42 401.838 697.069 401.895C696.719 401.952 696.383 402.004 696.061 402.051C695.407 402.155 694.849 402.316 694.385 402.534C693.93 402.752 693.58 403.036 693.333 403.386C693.097 403.727 692.978 404.134 692.978 404.608C692.978 405.328 693.234 405.877 693.745 406.256C694.266 406.634 694.924 406.824 695.72 406.824ZM726.288 389.182V394.494H717.581V411H710.862V389.182H726.288ZM729.846 411.412C728.824 411.412 727.948 411.052 727.218 410.332C726.499 409.613 726.144 408.741 726.153 407.719C726.144 406.715 726.499 405.858 727.218 405.148C727.948 404.428 728.824 404.068 729.846 404.068C730.812 404.068 731.664 404.428 732.403 405.148C733.151 405.858 733.53 406.715 733.539 407.719C733.53 408.401 733.35 409.021 733 409.58C732.659 410.138 732.209 410.583 731.65 410.915C731.101 411.246 730.5 411.412 729.846 411.412Z" fill="white"/>
<circle cx="766.5" cy="79.5" r="55" fill="white" stroke="#FF6DFE" stroke-width="3"/>
<path d="M755.71 47.9091L765.773 68.0341L776.193 47.9091H795.801L778.739 78.4545L796.438 109H776.989L765.773 88.7159L754.835 109H735.108L752.847 78.4545L735.983 47.9091H755.71Z" fill="black" fill-opacity="0.96"/>
<defs>
<filter id="filter0_ddii_403_98" x="0" y="29" width="825" height="455" filterUnits="userSpaceOnUse" color-interpolation-filters="sRGB">
<feFlood flood-opacity="0" result="BackgroundImageFix"/>
<feColorMatrix in="SourceAlpha" type="matrix" values="0 0 0 0 0 0 0 0 0 0 0 0 0 0 0 0 0 0 127 0" result="hardAlpha"/>
<feMorphology radius="5" operator="dilate" in="SourceAlpha" result="effect1_dropShadow_403_98"/>
<feOffset dx="-10" dy="-10"/>
<feGaussianBlur stdDeviation="2.5"/>
<feComposite in2="hardAlpha" operator="out"/>
<feColorMatrix type="matrix" values="0 0 0 0 0.133333 0 0 0 0 0.0117647 0 0 0 0 0.396078 0 0 0 0.25 0"/>
<feBlend mode="normal" in2="BackgroundImageFix" result="effect1_dropShadow_403_98"/>
<feColorMatrix in="SourceAlpha" type="matrix" values="0 0 0 0 0 0 0 0 0 0 0 0 0 0 0 0 0 0 127 0" result="hardAlpha"/>
<feMorphology radius="5" operator="dilate" in="SourceAlpha" result="effect2_dropShadow_403_98"/>
<feOffset dx="10" dy="10"/>
<feGaussianBlur stdDeviation="2.5"/>
<feComposite in2="hardAlpha" operator="out"/>
<feColorMatrix type="matrix" values="0 0 0 0 0.133941 0 0 0 0 0.0133056 0 0 0 0 0.395808 0 0 0 0.25 0"/>
<feBlend mode="normal" in2="effect1_dropShadow_403_98" result="effect2_dropShadow_403_98"/>
<feBlend mode="normal" in="SourceGraphic" in2="effect2_dropShadow_403_98" result="shape"/>
<feColorMatrix in="SourceAlpha" type="matrix" values="0 0 0 0 0 0 0 0 0 0 0 0 0 0 0 0 0 0 127 0" result="hardAlpha"/>
<feMorphology radius="5" operator="erode" in="SourceAlpha" result="effect3_innerShadow_403_98"/>
<feOffset dx="-10" dy="-10"/>
<feGaussianBlur stdDeviation="2.5"/>
<feComposite in2="hardAlpha" operator="arithmetic" k2="-1" k3="1"/>
<feColorMatrix type="matrix" values="0 0 0 0 0.509804 0 0 0 0 0.337255 0 0 0 0 0.721569 0 0 0 0.16 0"/>
<feBlend mode="normal" in2="shape" result="effect3_innerShadow_403_98"/>
<feColorMatrix in="SourceAlpha" type="matrix" values="0 0 0 0 0 0 0 0 0 0 0 0 0 0 0 0 0 0 127 0" result="hardAlpha"/>
<feMorphology radius="5" operator="erode" in="SourceAlpha" result="effect4_innerShadow_403_98"/>
<feOffset dx="10" dy="10"/>
<feGaussianBlur stdDeviation="2.5"/>
<feComposite in2="hardAlpha" operator="arithmetic" k2="-1" k3="1"/>
<feColorMatrix type="matrix" values="0 0 0 0 0.505882 0 0 0 0 0.329412 0 0 0 0 0.72549 0 0 0 0.16 0"/>
<feBlend mode="normal" in2="effect3_innerShadow_403_98" result="effect4_innerShadow_403_98"/>
</filter>
</defs>
</svg>
