<svg width="841" height="515" viewBox="0 0 841 515" fill="none" xmlns="http://www.w3.org/2000/svg">
<g filter="url(#filter0_ddii_404_101)">
<rect x="20" y="51" width="794" height="444" rx="60" fill="#7E40D0" fill-opacity="0.8" shape-rendering="crispEdges"/>
<rect x="20.5" y="51.5" width="793" height="443" rx="59.5" stroke="#C53D41" shape-rendering="crispEdges"/>
</g>
<path d="M369.17 107V77.9091H389.043V83.6193H376.202V88.1648H380.037C382.404 88.1648 384.464 88.5483 386.216 89.3153C387.977 90.0824 389.336 91.1619 390.293 92.554C391.259 93.946 391.741 95.5843 391.741 97.4688C391.741 99.3532 391.259 101.01 390.293 102.44C389.336 103.87 387.977 104.988 386.216 105.793C384.464 106.598 382.404 107 380.037 107H369.17ZM376.202 101.432H380.037C381.06 101.432 381.921 101.257 382.622 100.906C383.332 100.546 383.867 100.063 384.227 99.4574C384.597 98.8419 384.781 98.16 384.781 97.4119C384.781 96.3324 384.374 95.4328 383.56 94.7131C382.745 93.9839 381.571 93.6193 380.037 93.6193H376.202V101.432ZM399.355 115.182C398.522 115.182 397.736 115.116 396.997 114.983C396.259 114.86 395.624 114.694 395.094 114.486L396.628 109.443C397.31 109.67 397.925 109.803 398.474 109.841C399.033 109.879 399.511 109.789 399.909 109.571C400.316 109.363 400.629 108.989 400.847 108.449L401.116 107.795L393.361 85.1818H400.634L404.653 100.75H404.881L408.957 85.1818H416.273L408.048 109.088C407.651 110.281 407.087 111.332 406.358 112.241C405.638 113.16 404.705 113.88 403.56 114.401C402.423 114.921 401.022 115.182 399.355 115.182ZM415.673 113.435V101.645H417.306C417.799 101.399 418.192 100.925 418.485 100.224C418.779 99.5142 419.011 98.6856 419.181 97.7386C419.361 96.7822 419.494 95.7879 419.579 94.7557C419.674 93.714 419.759 92.7339 419.835 91.8153L420.346 85.1818H438.016V101.645H441.425V113.435H434.835V107H422.434V113.435H415.673ZM424.067 101.645H431.539V90.3523H426.141L426.028 91.8153C425.895 94.1638 425.687 96.1335 425.403 97.7244C425.119 99.3153 424.674 100.622 424.067 101.645ZM58.8438 131.619V125.909H83.4318V131.619H74.6108V155H67.679V131.619H58.8438ZM90.0476 155.369C88.6555 155.369 87.4197 155.137 86.3402 154.673C85.2701 154.2 84.4226 153.49 83.7976 152.543C83.1821 151.586 82.8743 150.388 82.8743 148.949C82.8743 147.737 83.0874 146.714 83.5135 145.881C83.9396 145.047 84.5268 144.37 85.2749 143.849C86.023 143.329 86.8847 142.936 87.8601 142.67C88.8355 142.396 89.8771 142.211 90.9851 142.116C92.2256 142.003 93.2247 141.884 93.9822 141.761C94.7398 141.629 95.2891 141.444 95.63 141.207C95.9804 140.961 96.1555 140.616 96.1555 140.17V140.099C96.1555 139.37 95.9046 138.807 95.4027 138.409C94.9008 138.011 94.2237 137.812 93.3714 137.812C92.4529 137.812 91.7143 138.011 91.1555 138.409C90.5968 138.807 90.2417 139.356 90.0902 140.057L83.6839 139.83C83.8733 138.504 84.361 137.32 85.147 136.278C85.9425 135.227 87.0315 134.403 88.4141 133.807C89.8061 133.201 91.4775 132.898 93.4283 132.898C94.8203 132.898 96.1035 133.063 97.2777 133.395C98.4519 133.717 99.4747 134.19 100.346 134.815C101.217 135.431 101.889 136.188 102.363 137.088C102.846 137.988 103.087 139.015 103.087 140.17V155H96.5533V151.96H96.3828C95.9946 152.699 95.4974 153.324 94.8913 153.835C94.2947 154.347 93.5893 154.73 92.7749 154.986C91.9699 155.241 91.0608 155.369 90.0476 155.369ZM92.1925 150.824C92.9406 150.824 93.6129 150.672 94.2095 150.369C94.8156 150.066 95.2985 149.65 95.6584 149.119C96.0182 148.58 96.1982 147.955 96.1982 147.244V145.17C95.9993 145.275 95.7578 145.369 95.4737 145.455C95.1991 145.54 94.8961 145.62 94.5646 145.696C94.2332 145.772 93.8923 145.838 93.5419 145.895C93.1915 145.952 92.8554 146.004 92.5334 146.051C91.88 146.155 91.3213 146.316 90.8572 146.534C90.4027 146.752 90.0523 147.036 89.8061 147.386C89.5694 147.727 89.451 148.134 89.451 148.608C89.451 149.328 89.7067 149.877 90.218 150.256C90.7389 150.634 91.397 150.824 92.1925 150.824ZM105.406 138.494V133.182H125.861V138.494H118.886V155H112.295V138.494H105.406ZM134.657 155.369C133.265 155.369 132.029 155.137 130.95 154.673C129.879 154.2 129.032 153.49 128.407 152.543C127.791 151.586 127.484 150.388 127.484 148.949C127.484 147.737 127.697 146.714 128.123 145.881C128.549 145.047 129.136 144.37 129.884 143.849C130.632 143.329 131.494 142.936 132.469 142.67C133.445 142.396 134.487 142.211 135.594 142.116C136.835 142.003 137.834 141.884 138.592 141.761C139.349 141.629 139.898 141.444 140.239 141.207C140.59 140.961 140.765 140.616 140.765 140.17V140.099C140.765 139.37 140.514 138.807 140.012 138.409C139.51 138.011 138.833 137.812 137.981 137.812C137.062 137.812 136.324 138.011 135.765 138.409C135.206 138.807 134.851 139.356 134.7 140.057L128.293 139.83C128.483 138.504 128.97 137.32 129.756 136.278C130.552 135.227 131.641 134.403 133.023 133.807C134.415 133.201 136.087 132.898 138.038 132.898C139.43 132.898 140.713 133.063 141.887 133.395C143.061 133.717 144.084 134.19 144.955 134.815C145.826 135.431 146.499 136.188 146.972 137.088C147.455 137.988 147.697 139.015 147.697 140.17V155H141.163V151.96H140.992C140.604 152.699 140.107 153.324 139.501 153.835C138.904 154.347 138.199 154.73 137.384 154.986C136.579 155.241 135.67 155.369 134.657 155.369ZM136.802 150.824C137.55 150.824 138.222 150.672 138.819 150.369C139.425 150.066 139.908 149.65 140.268 149.119C140.628 148.58 140.808 147.955 140.808 147.244V145.17C140.609 145.275 140.367 145.369 140.083 145.455C139.808 145.54 139.505 145.62 139.174 145.696C138.843 145.772 138.502 145.838 138.151 145.895C137.801 145.952 137.465 146.004 137.143 146.051C136.489 146.155 135.931 146.316 135.467 146.534C135.012 146.752 134.662 147.036 134.415 147.386C134.179 147.727 134.06 148.134 134.06 148.608C134.06 149.328 134.316 149.877 134.827 150.256C135.348 150.634 136.006 150.824 136.802 150.824ZM157.853 133.182L161.447 140.369L165.168 133.182H172.171L166.077 144.091L172.398 155H165.452L161.447 147.756L157.54 155H150.495L156.83 144.091L150.808 133.182H157.853ZM189.845 133.182L193.439 140.369L197.161 133.182H204.163L198.07 144.091L204.391 155H197.445L193.439 147.756L189.533 155H182.487L188.822 144.091L182.8 133.182H189.845ZM205.587 133.182H212.548L216.283 147.77L219.82 133.182H226.724L219.423 154.915V163.182H212.888V154.915L205.587 133.182ZM248.425 133.182V155H241.891V133.182H248.425ZM245.115 142.486V147.798C244.746 147.988 244.225 148.172 243.553 148.352C242.89 148.523 242.189 148.665 241.45 148.778C240.721 148.892 240.072 148.949 239.504 148.949C236.152 148.949 233.524 148.31 231.621 147.031C229.727 145.743 228.78 143.651 228.78 140.753V133.168H235.271V140.753C235.271 141.501 235.39 142.083 235.626 142.5C235.873 142.917 236.299 143.21 236.905 143.381C237.52 143.551 238.387 143.636 239.504 143.636C240.357 143.636 241.228 143.542 242.118 143.352C243.018 143.153 244.017 142.865 245.115 142.486ZM368.272 151.733C367.249 151.733 366.373 151.373 365.644 150.653C364.924 149.934 364.569 149.062 364.579 148.04C364.569 147.036 364.924 146.179 365.644 145.469C366.373 144.749 367.249 144.389 368.272 144.389C369.238 144.389 370.09 144.749 370.829 145.469C371.577 146.179 371.956 147.036 371.965 148.04C371.956 148.722 371.776 149.342 371.425 149.901C371.085 150.459 370.635 150.904 370.076 151.236C369.527 151.567 368.925 151.733 368.272 151.733ZM368.272 137.614C367.249 137.614 366.373 137.254 365.644 136.534C364.924 135.814 364.569 134.943 364.579 133.92C364.569 132.917 364.924 132.06 365.644 131.349C366.373 130.63 367.249 130.27 368.272 130.27C369.238 130.27 370.09 130.63 370.829 131.349C371.577 132.06 371.956 132.917 371.965 133.92C371.956 134.602 371.776 135.223 371.425 135.781C371.085 136.34 370.635 136.785 370.076 137.116C369.527 137.448 368.925 137.614 368.272 137.614ZM396.156 155.398C393.94 155.398 391.975 155.019 390.261 154.261C388.556 153.494 387.211 152.438 386.227 151.094C385.242 149.749 384.74 148.201 384.721 146.449H391.795C391.823 147.083 392.027 147.647 392.406 148.139C392.784 148.622 393.3 149.001 393.954 149.276C394.607 149.55 395.351 149.688 396.184 149.688C397.017 149.688 397.751 149.541 398.386 149.247C399.03 148.944 399.531 148.532 399.891 148.011C400.251 147.481 400.426 146.875 400.417 146.193C400.426 145.511 400.232 144.905 399.835 144.375C399.437 143.845 398.873 143.433 398.144 143.139C397.424 142.846 396.572 142.699 395.587 142.699H392.761V137.699H395.587C396.449 137.699 397.207 137.557 397.86 137.273C398.523 136.989 399.039 136.591 399.408 136.08C399.778 135.559 399.958 134.962 399.948 134.29C399.958 133.636 399.801 133.063 399.479 132.571C399.167 132.069 398.727 131.681 398.158 131.406C397.6 131.132 396.951 130.994 396.212 130.994C395.436 130.994 394.73 131.132 394.096 131.406C393.471 131.681 392.974 132.069 392.604 132.571C392.235 133.073 392.041 133.655 392.022 134.318H385.303C385.322 132.585 385.805 131.061 386.752 129.744C387.699 128.419 388.987 127.382 390.616 126.634C392.254 125.885 394.12 125.511 396.212 125.511C398.296 125.511 400.128 125.876 401.71 126.605C403.291 127.334 404.522 128.329 405.403 129.588C406.283 130.838 406.724 132.254 406.724 133.835C406.733 135.473 406.198 136.823 405.119 137.884C404.049 138.944 402.671 139.598 400.985 139.844V140.071C403.239 140.336 404.939 141.065 406.085 142.259C407.24 143.452 407.813 144.943 407.803 146.733C407.803 148.419 407.306 149.915 406.312 151.222C405.327 152.519 403.954 153.542 402.192 154.29C400.441 155.028 398.428 155.398 396.156 155.398ZM414.913 155.412C413.89 155.412 413.014 155.052 412.285 154.332C411.565 153.613 411.21 152.741 411.219 151.719C411.21 150.715 411.565 149.858 412.285 149.148C413.014 148.428 413.89 148.068 414.913 148.068C415.879 148.068 416.731 148.428 417.469 149.148C418.218 149.858 418.596 150.715 418.606 151.719C418.596 152.401 418.416 153.021 418.066 153.58C417.725 154.138 417.275 154.583 416.717 154.915C416.167 155.246 415.566 155.412 414.913 155.412ZM423.123 155L434.856 131.761V131.577H421.134V125.909H442.129V131.619L430.353 155H423.123ZM467.849 147.585L473.19 133.182H478.276L470.08 155H465.619L457.636 133.182H462.707L467.849 147.585ZM461.216 133.182V155H454.639V133.182H461.216ZM474.881 155V133.182H481.372V155H474.881ZM499.043 124.545L489.668 159.375H483.744L493.119 124.545H499.043ZM511.816 155.412C509.515 155.412 507.54 154.938 505.893 153.991C504.254 153.045 502.995 151.728 502.114 150.043C501.234 148.348 500.793 146.387 500.793 144.162C500.793 141.927 501.234 139.967 502.114 138.281C503.004 136.586 504.269 135.265 505.907 134.318C507.555 133.371 509.52 132.898 511.802 132.898C513.819 132.898 515.576 133.262 517.072 133.991C518.577 134.721 519.752 135.753 520.594 137.088C521.447 138.414 521.897 139.972 521.944 141.761H515.452C515.32 140.644 514.941 139.768 514.316 139.134C513.701 138.499 512.896 138.182 511.901 138.182C511.096 138.182 510.391 138.409 509.785 138.864C509.179 139.309 508.705 139.972 508.364 140.852C508.033 141.723 507.867 142.803 507.867 144.091C507.867 145.379 508.033 146.468 508.364 147.358C508.705 148.239 509.179 148.906 509.785 149.361C510.391 149.806 511.096 150.028 511.901 150.028C512.545 150.028 513.113 149.891 513.606 149.616C514.108 149.342 514.52 148.939 514.842 148.409C515.164 147.869 515.367 147.216 515.452 146.449H521.944C521.878 148.248 521.428 149.82 520.594 151.165C519.771 152.509 518.611 153.556 517.114 154.304C515.628 155.043 513.862 155.412 511.816 155.412ZM524.973 140.455V137.017L531.976 131.605C532.459 131.226 532.885 130.881 533.254 130.568C533.624 130.246 533.912 129.92 534.121 129.588C534.339 129.257 534.447 128.883 534.447 128.466C534.447 127.841 534.182 127.367 533.652 127.045C533.131 126.714 532.501 126.548 531.763 126.548C530.967 126.548 530.328 126.733 529.845 127.102C529.362 127.472 529.121 128.03 529.121 128.778H524.533C524.533 126.884 525.214 125.412 526.578 124.361C527.951 123.31 529.698 122.784 531.82 122.784C533.278 122.784 534.542 123.035 535.612 123.537C536.692 124.039 537.525 124.716 538.112 125.568C538.699 126.42 538.993 127.367 538.993 128.409C538.993 129.261 538.813 130.052 538.453 130.781C538.103 131.51 537.558 132.216 536.82 132.898C536.09 133.58 535.153 134.271 534.007 134.972L531.848 136.392V136.548H539.092V140.455H524.973ZM58.8438 179.619V173.909H83.4318V179.619H74.6108V203H67.679V179.619H58.8438ZM93.9006 203.412C91.6184 203.412 89.6487 202.962 87.9915 202.062C86.3438 201.153 85.0748 199.861 84.1847 198.185C83.304 196.499 82.8636 194.496 82.8636 192.176C82.8636 189.922 83.3087 187.953 84.1989 186.267C85.089 184.572 86.3438 183.256 87.9631 182.318C89.5824 181.371 91.4905 180.898 93.6875 180.898C95.2405 180.898 96.661 181.139 97.9489 181.622C99.2367 182.105 100.349 182.82 101.287 183.767C102.224 184.714 102.954 185.884 103.474 187.276C103.995 188.658 104.256 190.244 104.256 192.034V193.767H85.2926V189.733H97.7926C97.7831 188.994 97.608 188.336 97.267 187.759C96.9261 187.181 96.4574 186.731 95.8608 186.409C95.2737 186.078 94.5966 185.912 93.8295 185.912C93.053 185.912 92.357 186.087 91.7415 186.438C91.1259 186.778 90.6383 187.247 90.2784 187.844C89.9186 188.431 89.7292 189.098 89.7102 189.847V193.952C89.7102 194.842 89.8854 195.623 90.2358 196.295C90.5862 196.958 91.0833 197.474 91.7273 197.844C92.3712 198.213 93.1383 198.398 94.0284 198.398C94.6439 198.398 95.2027 198.312 95.7045 198.142C96.2064 197.972 96.6373 197.721 96.9972 197.389C97.357 197.058 97.6269 196.651 97.8068 196.168L104.185 196.352C103.92 197.782 103.337 199.027 102.438 200.088C101.547 201.139 100.378 201.958 98.929 202.545C97.4801 203.123 95.804 203.412 93.9006 203.412ZM121.013 195.585L126.354 181.182H131.44L123.244 203H118.783L110.8 181.182H115.871L121.013 195.585ZM114.38 181.182V203H107.803V181.182H114.38ZM128.045 203V181.182H134.536V203H128.045ZM138.741 203V181.182H158.442V203H151.866V186.494H145.232V203H138.741ZM173.041 203.412C170.759 203.412 168.789 202.962 167.132 202.062C165.484 201.153 164.215 199.861 163.325 198.185C162.445 196.499 162.004 194.496 162.004 192.176C162.004 189.922 162.449 187.953 163.339 186.267C164.23 184.572 165.484 183.256 167.104 182.318C168.723 181.371 170.631 180.898 172.828 180.898C174.381 180.898 175.802 181.139 177.089 181.622C178.377 182.105 179.49 182.82 180.428 183.767C181.365 184.714 182.094 185.884 182.615 187.276C183.136 188.658 183.396 190.244 183.396 192.034V193.767H164.433V189.733H176.933C176.924 188.994 176.749 188.336 176.408 187.759C176.067 187.181 175.598 186.731 175.001 186.409C174.414 186.078 173.737 185.912 172.97 185.912C172.194 185.912 171.498 186.087 170.882 186.438C170.267 186.778 169.779 187.247 169.419 187.844C169.059 188.431 168.87 189.098 168.851 189.847V193.952C168.851 194.842 169.026 195.623 169.376 196.295C169.727 196.958 170.224 197.474 170.868 197.844C171.512 198.213 172.279 198.398 173.169 198.398C173.785 198.398 174.343 198.312 174.845 198.142C175.347 197.972 175.778 197.721 176.138 197.389C176.498 197.058 176.768 196.651 176.947 196.168L183.325 196.352C183.06 197.782 182.478 199.027 181.578 200.088C180.688 201.139 179.518 201.958 178.07 202.545C176.621 203.123 174.945 203.412 173.041 203.412ZM186.944 211.182V181.182H193.819V184.918H194.032C194.316 184.255 194.719 183.616 195.239 183C195.77 182.384 196.442 181.883 197.256 181.494C198.08 181.097 199.065 180.898 200.211 180.898C201.726 180.898 203.142 181.295 204.458 182.091C205.784 182.886 206.854 184.113 207.668 185.77C208.483 187.427 208.89 189.539 208.89 192.105C208.89 194.577 208.497 196.646 207.711 198.312C206.934 199.979 205.883 201.229 204.558 202.062C203.241 202.896 201.778 203.312 200.168 203.312C199.07 203.312 198.118 203.133 197.313 202.773C196.508 202.413 195.831 201.939 195.282 201.352C194.742 200.765 194.326 200.135 194.032 199.463H193.89V211.182H186.944ZM193.748 192.091C193.748 193.265 193.904 194.288 194.217 195.159C194.539 196.03 194.998 196.707 195.594 197.19C196.201 197.664 196.925 197.901 197.768 197.901C198.62 197.901 199.344 197.664 199.941 197.19C200.538 196.707 200.987 196.03 201.29 195.159C201.603 194.288 201.759 193.265 201.759 192.091C201.759 190.917 201.603 189.899 201.29 189.037C200.987 188.175 200.538 187.508 199.941 187.034C199.354 186.561 198.629 186.324 197.768 186.324C196.915 186.324 196.191 186.556 195.594 187.02C194.998 187.484 194.539 188.147 194.217 189.009C193.904 189.87 193.748 190.898 193.748 192.091ZM218.68 203.369C217.288 203.369 216.053 203.137 214.973 202.673C213.903 202.2 213.055 201.49 212.43 200.543C211.815 199.586 211.507 198.388 211.507 196.949C211.507 195.737 211.72 194.714 212.146 193.881C212.572 193.047 213.16 192.37 213.908 191.849C214.656 191.329 215.518 190.936 216.493 190.67C217.468 190.396 218.51 190.211 219.618 190.116C220.858 190.003 221.857 189.884 222.615 189.761C223.373 189.629 223.922 189.444 224.263 189.207C224.613 188.961 224.788 188.616 224.788 188.17V188.099C224.788 187.37 224.537 186.807 224.036 186.409C223.534 186.011 222.857 185.812 222.004 185.812C221.086 185.812 220.347 186.011 219.788 186.409C219.23 186.807 218.875 187.356 218.723 188.057L212.317 187.83C212.506 186.504 212.994 185.32 213.78 184.278C214.575 183.227 215.664 182.403 217.047 181.807C218.439 181.201 220.11 180.898 222.061 180.898C223.453 180.898 224.736 181.063 225.911 181.395C227.085 181.717 228.107 182.19 228.979 182.815C229.85 183.431 230.522 184.188 230.996 185.088C231.479 185.988 231.72 187.015 231.72 188.17V203H225.186V199.96H225.016C224.627 200.699 224.13 201.324 223.524 201.835C222.928 202.347 222.222 202.73 221.408 202.986C220.603 203.241 219.694 203.369 218.68 203.369ZM220.825 198.824C221.573 198.824 222.246 198.672 222.842 198.369C223.448 198.066 223.931 197.65 224.291 197.119C224.651 196.58 224.831 195.955 224.831 195.244V193.17C224.632 193.275 224.391 193.369 224.107 193.455C223.832 193.54 223.529 193.62 223.197 193.696C222.866 193.772 222.525 193.838 222.175 193.895C221.824 193.952 221.488 194.004 221.166 194.051C220.513 194.155 219.954 194.316 219.49 194.534C219.036 194.752 218.685 195.036 218.439 195.386C218.202 195.727 218.084 196.134 218.084 196.608C218.084 197.328 218.339 197.877 218.851 198.256C219.372 198.634 220.03 198.824 220.825 198.824ZM234.039 186.494V181.182H254.494V186.494H247.519V203H240.928V186.494H234.039ZM262.05 211.182C261.217 211.182 260.431 211.116 259.692 210.983C258.954 210.86 258.319 210.694 257.789 210.486L259.323 205.443C260.005 205.67 260.621 205.803 261.17 205.841C261.728 205.879 262.207 205.789 262.604 205.571C263.012 205.363 263.324 204.989 263.542 204.449L263.812 203.795L256.056 181.182H263.329L267.349 196.75H267.576L271.653 181.182H278.968L270.744 205.088C270.346 206.281 269.782 207.332 269.053 208.241C268.334 209.16 267.401 209.88 266.255 210.401C265.119 210.921 263.717 211.182 262.05 211.182ZM281.631 211.182V181.182H288.506V184.918H288.719C289.004 184.255 289.406 183.616 289.927 183C290.457 182.384 291.129 181.883 291.944 181.494C292.768 181.097 293.753 180.898 294.898 180.898C296.414 180.898 297.829 181.295 299.146 182.091C300.471 182.886 301.541 184.113 302.356 185.77C303.17 187.427 303.577 189.539 303.577 192.105C303.577 194.577 303.184 196.646 302.398 198.312C301.622 199.979 300.571 201.229 299.245 202.062C297.929 202.896 296.466 203.312 294.856 203.312C293.757 203.312 292.806 203.133 292.001 202.773C291.196 202.413 290.519 201.939 289.969 201.352C289.43 200.765 289.013 200.135 288.719 199.463H288.577V211.182H281.631ZM288.435 192.091C288.435 193.265 288.592 194.288 288.904 195.159C289.226 196.03 289.685 196.707 290.282 197.19C290.888 197.664 291.612 197.901 292.455 197.901C293.308 197.901 294.032 197.664 294.629 197.19C295.225 196.707 295.675 196.03 295.978 195.159C296.29 194.288 296.447 193.265 296.447 192.091C296.447 190.917 296.29 189.899 295.978 189.037C295.675 188.175 295.225 187.508 294.629 187.034C294.041 186.561 293.317 186.324 292.455 186.324C291.603 186.324 290.879 186.556 290.282 187.02C289.685 187.484 289.226 188.147 288.904 189.009C288.592 189.87 288.435 190.898 288.435 192.091ZM371.28 203.412C370.257 203.412 369.381 203.052 368.652 202.332C367.932 201.613 367.577 200.741 367.587 199.719C367.577 198.715 367.932 197.858 368.652 197.148C369.381 196.428 370.257 196.068 371.28 196.068C372.246 196.068 373.098 196.428 373.837 197.148C374.585 197.858 374.964 198.715 374.973 199.719C374.964 200.401 374.784 201.021 374.433 201.58C374.092 202.138 373.643 202.583 373.084 202.915C372.535 203.246 371.933 203.412 371.28 203.412ZM371.28 188.44C370.257 188.44 369.381 188.085 368.652 187.375C367.932 186.655 367.577 185.779 367.587 184.747C367.577 183.743 367.932 182.886 368.652 182.176C369.381 181.456 370.257 181.097 371.28 181.097C372.246 181.097 373.098 181.456 373.837 182.176C374.585 182.886 374.964 183.743 374.973 184.747C374.964 185.429 374.784 186.049 374.433 186.608C374.092 187.167 373.643 187.612 373.084 187.943C372.535 188.275 371.933 188.44 371.28 188.44ZM402.118 185.784V191.125H388.652V185.784H402.118ZM420.417 173.909V203H413.4V180.472H413.229L406.724 184.449V178.369L413.897 173.909H420.417ZM428.084 203L439.817 179.761V179.577H426.095V173.909H447.089V179.619L435.314 203H428.084ZM461.351 203.398C459.135 203.398 457.17 203.019 455.456 202.261C453.751 201.494 452.407 200.438 451.422 199.094C450.437 197.749 449.935 196.201 449.916 194.449H456.99C457.018 195.083 457.222 195.647 457.601 196.139C457.98 196.622 458.496 197.001 459.149 197.276C459.803 197.55 460.546 197.688 461.379 197.688C462.213 197.688 462.946 197.541 463.581 197.247C464.225 196.944 464.727 196.532 465.087 196.011C465.446 195.481 465.622 194.875 465.612 194.193C465.622 193.511 465.428 192.905 465.03 192.375C464.632 191.845 464.069 191.433 463.339 191.139C462.62 190.846 461.768 190.699 460.783 190.699H457.956V185.699H460.783C461.644 185.699 462.402 185.557 463.055 185.273C463.718 184.989 464.234 184.591 464.604 184.08C464.973 183.559 465.153 182.962 465.143 182.29C465.153 181.636 464.997 181.063 464.675 180.571C464.362 180.069 463.922 179.681 463.354 179.406C462.795 179.132 462.146 178.994 461.408 178.994C460.631 178.994 459.926 179.132 459.291 179.406C458.666 179.681 458.169 180.069 457.8 180.571C457.43 181.073 457.236 181.655 457.217 182.318H450.499C450.518 180.585 451 179.061 451.947 177.744C452.894 176.419 454.182 175.382 455.811 174.634C457.449 173.885 459.315 173.511 461.408 173.511C463.491 173.511 465.323 173.876 466.905 174.605C468.486 175.334 469.717 176.329 470.598 177.588C471.479 178.838 471.919 180.254 471.919 181.835C471.929 183.473 471.393 184.823 470.314 185.884C469.244 186.944 467.866 187.598 466.18 187.844V188.071C468.434 188.336 470.134 189.065 471.28 190.259C472.435 191.452 473.008 192.943 472.999 194.733C472.999 196.419 472.501 197.915 471.507 199.222C470.522 200.519 469.149 201.542 467.388 202.29C465.636 203.028 463.624 203.398 461.351 203.398ZM502.803 203.298L499.138 199.662L507.675 191.125H488.414V185.784H507.675L499.138 177.261L502.803 173.611L517.647 188.455L502.803 203.298ZM541.038 198.795V178.227H546.763V198.795H541.038ZM533.609 191.381V185.642H554.178V191.381H533.609ZM559.423 198.17V192.688L571.34 173.909H576.212V181.352H573.386L566.411 192.403V192.631H583.67V198.17H559.423ZM573.471 203V196.494L573.613 194.094V173.909H580.19V203H573.471ZM587.356 203V197.943L597.967 188.653C598.762 187.934 599.439 187.276 599.998 186.679C600.557 186.073 600.983 185.467 601.276 184.861C601.57 184.245 601.717 183.578 601.717 182.858C601.717 182.053 601.541 181.366 601.191 180.798C600.841 180.221 600.358 179.776 599.742 179.463C599.127 179.151 598.421 178.994 597.626 178.994C596.821 178.994 596.115 179.16 595.509 179.491C594.903 179.813 594.43 180.282 594.089 180.898C593.757 181.513 593.592 182.261 593.592 183.142H586.93C586.93 181.163 587.375 179.454 588.265 178.014C589.155 176.575 590.405 175.467 592.015 174.69C593.634 173.904 595.514 173.511 597.654 173.511C599.861 173.511 601.778 173.881 603.407 174.619C605.036 175.358 606.295 176.39 607.185 177.716C608.085 179.032 608.535 180.562 608.535 182.304C608.535 183.412 608.312 184.51 607.867 185.599C607.422 186.688 606.622 187.891 605.467 189.207C604.321 190.524 602.692 192.1 600.58 193.938L597.1 197.148V197.332H608.89V203H587.356ZM614.099 203L625.832 179.761V179.577H612.111V173.909H633.105V179.619L621.33 203H614.099ZM652.647 187.972C651.331 187.972 650.133 187.654 649.053 187.02C647.974 186.376 647.112 185.514 646.468 184.435C645.834 183.355 645.516 182.162 645.516 180.855C645.516 179.539 645.834 178.341 646.468 177.261C647.112 176.182 647.974 175.325 649.053 174.69C650.133 174.046 651.331 173.724 652.647 173.724C653.963 173.724 655.156 174.046 656.227 174.69C657.306 175.325 658.163 176.182 658.798 177.261C659.442 178.341 659.763 179.539 659.763 180.855C659.763 182.162 659.442 183.355 658.798 184.435C658.163 185.514 657.306 186.376 656.227 187.02C655.156 187.654 653.963 187.972 652.647 187.972ZM652.647 183.54C653.139 183.54 653.589 183.421 653.996 183.185C654.404 182.938 654.726 182.612 654.962 182.205C655.209 181.797 655.332 181.348 655.332 180.855C655.332 180.353 655.209 179.899 654.962 179.491C654.726 179.084 654.404 178.762 653.996 178.526C653.589 178.279 653.139 178.156 652.647 178.156C652.145 178.156 651.691 178.279 651.283 178.526C650.876 178.762 650.549 179.084 650.303 179.491C650.067 179.899 649.948 180.348 649.948 180.841C649.948 181.343 650.067 181.802 650.303 182.219C650.549 182.626 650.876 182.948 651.283 183.185C651.7 183.421 652.155 183.54 652.647 183.54ZM690.46 184.449H683.357C683.263 183.72 683.068 183.062 682.775 182.474C682.481 181.887 682.093 181.385 681.61 180.969C681.127 180.552 680.554 180.235 679.891 180.017C679.238 179.79 678.513 179.676 677.718 179.676C676.307 179.676 675.09 180.022 674.067 180.713C673.054 181.404 672.273 182.403 671.724 183.71C671.184 185.017 670.914 186.598 670.914 188.455C670.914 190.386 671.189 192.006 671.738 193.312C672.297 194.61 673.078 195.59 674.082 196.253C675.095 196.906 676.293 197.233 677.675 197.233C678.452 197.233 679.157 197.134 679.792 196.935C680.436 196.736 680.999 196.447 681.482 196.068C681.975 195.68 682.377 195.211 682.69 194.662C683.012 194.103 683.234 193.473 683.357 192.773L690.46 192.815C690.336 194.103 689.962 195.372 689.337 196.622C688.722 197.872 687.874 199.013 686.795 200.045C685.715 201.068 684.399 201.883 682.846 202.489C681.302 203.095 679.531 203.398 677.533 203.398C674.901 203.398 672.543 202.82 670.46 201.665C668.386 200.5 666.747 198.805 665.545 196.58C664.342 194.354 663.741 191.646 663.741 188.455C663.741 185.254 664.352 182.541 665.573 180.315C666.795 178.09 668.447 176.4 670.531 175.244C672.614 174.089 674.948 173.511 677.533 173.511C679.295 173.511 680.924 173.758 682.42 174.25C683.916 174.733 685.232 175.443 686.369 176.381C687.505 177.309 688.428 178.45 689.138 179.804C689.849 181.158 690.289 182.706 690.46 184.449ZM58.5312 258.003V245.517H60.5341C61.2064 245.062 61.822 244.428 62.3807 243.614C62.9394 242.79 63.4176 241.634 63.8153 240.148C64.2131 238.652 64.4972 236.677 64.6676 234.224L65.5767 221.909H85.4773V245.517H88.6023V257.989H81.8409V251H65.2926V258.003H58.5312ZM68.6023 245.517H78.7159V227.619H71.8835L71.429 234.224C71.3059 236.071 71.107 237.7 70.8324 239.111C70.5578 240.522 70.2311 241.753 69.8523 242.804C69.4735 243.846 69.0568 244.75 68.6023 245.517ZM97.9773 251.369C96.5852 251.369 95.3494 251.137 94.2699 250.673C93.1998 250.2 92.3523 249.49 91.7273 248.543C91.1117 247.586 90.804 246.388 90.804 244.949C90.804 243.737 91.017 242.714 91.4432 241.881C91.8693 241.047 92.4564 240.37 93.2045 239.849C93.9527 239.329 94.8144 238.936 95.7898 238.67C96.7652 238.396 97.8068 238.211 98.9148 238.116C100.155 238.003 101.154 237.884 101.912 237.761C102.67 237.629 103.219 237.444 103.56 237.207C103.91 236.961 104.085 236.616 104.085 236.17V236.099C104.085 235.37 103.834 234.807 103.332 234.409C102.83 234.011 102.153 233.812 101.301 233.812C100.383 233.812 99.6439 234.011 99.0852 234.409C98.5265 234.807 98.1714 235.356 98.0199 236.057L91.6136 235.83C91.803 234.504 92.2907 233.32 93.0767 232.278C93.8722 231.227 94.9612 230.403 96.3438 229.807C97.7358 229.201 99.4072 228.898 101.358 228.898C102.75 228.898 104.033 229.063 105.207 229.395C106.382 229.717 107.404 230.19 108.276 230.815C109.147 231.431 109.819 232.188 110.293 233.088C110.776 233.988 111.017 235.015 111.017 236.17V251H104.483V247.96H104.312C103.924 248.699 103.427 249.324 102.821 249.835C102.224 250.347 101.519 250.73 100.705 250.986C99.8996 251.241 98.9905 251.369 97.9773 251.369ZM100.122 246.824C100.87 246.824 101.543 246.672 102.139 246.369C102.745 246.066 103.228 245.65 103.588 245.119C103.948 244.58 104.128 243.955 104.128 243.244V241.17C103.929 241.275 103.688 241.369 103.403 241.455C103.129 241.54 102.826 241.62 102.494 241.696C102.163 241.772 101.822 241.838 101.472 241.895C101.121 241.952 100.785 242.004 100.463 242.051C99.8097 242.155 99.2509 242.316 98.7869 242.534C98.3324 242.752 97.982 243.036 97.7358 243.386C97.4991 243.727 97.3807 244.134 97.3807 244.608C97.3807 245.328 97.6364 245.877 98.1477 246.256C98.6686 246.634 99.3267 246.824 100.122 246.824ZM130.69 229.182V234.494H121.983V251H115.264V229.182H130.69ZM138.222 259.182C137.389 259.182 136.603 259.116 135.864 258.983C135.126 258.86 134.491 258.694 133.961 258.486L135.495 253.443C136.177 253.67 136.792 253.803 137.342 253.841C137.9 253.879 138.379 253.789 138.776 253.571C139.183 253.363 139.496 252.989 139.714 252.449L139.984 251.795L132.228 229.182H139.501L143.521 244.75H143.748L147.825 229.182H155.14L146.915 253.088C146.518 254.281 145.954 255.332 145.225 256.241C144.505 257.16 143.573 257.88 142.427 258.401C141.29 258.921 139.889 259.182 138.222 259.182ZM162.05 259.182C161.217 259.182 160.431 259.116 159.692 258.983C158.954 258.86 158.319 258.694 157.789 258.486L159.323 253.443C160.005 253.67 160.621 253.803 161.17 253.841C161.728 253.879 162.207 253.789 162.604 253.571C163.012 253.363 163.324 252.989 163.542 252.449L163.812 251.795L156.056 229.182H163.329L167.349 244.75H167.576L171.653 229.182H178.968L170.744 253.088C170.346 254.281 169.782 255.332 169.053 256.241C168.334 257.16 167.401 257.88 166.255 258.401C165.119 258.921 163.717 259.182 162.05 259.182ZM178.808 251L178.766 245.645H179.462C179.935 245.645 180.347 245.522 180.697 245.276C181.048 245.029 181.341 244.636 181.578 244.097C181.815 243.547 182.004 242.842 182.146 241.98C182.288 241.118 182.378 240.072 182.416 238.841L182.771 229.182H200.044V251H193.467V234.494H188.95L188.609 240.773C188.524 242.619 188.283 244.196 187.885 245.503C187.497 246.8 186.966 247.851 186.294 248.656C185.631 249.461 184.845 250.053 183.936 250.432C183.027 250.811 182 251 180.854 251H178.808ZM208.364 235.489H214.984C217.986 235.489 220.339 236.194 222.043 237.605C223.748 239.007 224.605 240.91 224.614 243.315C224.605 244.878 224.212 246.237 223.435 247.392C222.668 248.538 221.565 249.428 220.126 250.062C218.696 250.688 216.982 251 214.984 251H204.288V229.182H210.864V245.688H214.984C215.893 245.688 216.641 245.465 217.228 245.02C217.815 244.575 218.113 244.002 218.123 243.301C218.113 242.562 217.815 241.961 217.228 241.497C216.641 241.033 215.893 240.801 214.984 240.801H208.364V235.489ZM226.575 251V229.182H233.521V251H226.575ZM253.304 237.378V242.676H242.111V237.378H253.304ZM244.497 229.182V251H237.92V229.182H244.497ZM257.494 229.182V251H250.96V229.182H257.494ZM269.195 234.494V229.182H289.65V234.494H282.675V251H276.085V234.494H269.195ZM302.48 251.412C300.188 251.412 298.219 250.943 296.571 250.006C294.933 249.059 293.669 247.742 292.778 246.057C291.898 244.362 291.457 242.397 291.457 240.162C291.457 237.918 291.898 235.953 292.778 234.267C293.669 232.572 294.933 231.256 296.571 230.318C298.219 229.371 300.188 228.898 302.48 228.898C304.772 228.898 306.737 229.371 308.375 230.318C310.023 231.256 311.287 232.572 312.168 234.267C313.058 235.953 313.503 237.918 313.503 240.162C313.503 242.397 313.058 244.362 312.168 246.057C311.287 247.742 310.023 249.059 308.375 250.006C306.737 250.943 304.772 251.412 302.48 251.412ZM302.523 246.17C303.356 246.17 304.062 245.915 304.639 245.403C305.217 244.892 305.657 244.182 305.96 243.273C306.273 242.364 306.429 241.312 306.429 240.119C306.429 238.907 306.273 237.847 305.96 236.938C305.657 236.028 305.217 235.318 304.639 234.807C304.062 234.295 303.356 234.04 302.523 234.04C301.661 234.04 300.932 234.295 300.335 234.807C299.748 235.318 299.298 236.028 298.986 236.938C298.683 237.847 298.531 238.907 298.531 240.119C298.531 241.312 298.683 242.364 298.986 243.273C299.298 244.182 299.748 244.892 300.335 245.403C300.932 245.915 301.661 246.17 302.523 246.17ZM327.246 251.412C324.954 251.412 322.984 250.943 321.337 250.006C319.698 249.059 318.434 247.742 317.544 246.057C316.663 244.362 316.223 242.397 316.223 240.162C316.223 237.918 316.663 235.953 317.544 234.267C318.434 232.572 319.698 231.256 321.337 230.318C322.984 229.371 324.954 228.898 327.246 228.898C329.537 228.898 331.502 229.371 333.141 230.318C334.788 231.256 336.053 232.572 336.933 234.267C337.823 235.953 338.268 237.918 338.268 240.162C338.268 242.397 337.823 244.362 336.933 246.057C336.053 247.742 334.788 249.059 333.141 250.006C331.502 250.943 329.537 251.412 327.246 251.412ZM327.288 246.17C328.122 246.17 328.827 245.915 329.405 245.403C329.982 244.892 330.423 244.182 330.726 243.273C331.038 242.364 331.195 241.312 331.195 240.119C331.195 238.907 331.038 237.847 330.726 236.938C330.423 236.028 329.982 235.318 329.405 234.807C328.827 234.295 328.122 234.04 327.288 234.04C326.427 234.04 325.697 234.295 325.101 234.807C324.514 235.318 324.064 236.028 323.751 236.938C323.448 237.847 323.297 238.907 323.297 240.119C323.297 241.312 323.448 242.364 323.751 243.273C324.064 244.182 324.514 244.892 325.101 245.403C325.697 245.915 326.427 246.17 327.288 246.17ZM371.514 247.733C370.491 247.733 369.616 247.373 368.886 246.653C368.167 245.934 367.812 245.062 367.821 244.04C367.812 243.036 368.167 242.179 368.886 241.469C369.616 240.749 370.491 240.389 371.514 240.389C372.48 240.389 373.332 240.749 374.071 241.469C374.819 242.179 375.198 243.036 375.207 244.04C375.198 244.722 375.018 245.342 374.668 245.901C374.327 246.459 373.877 246.904 373.318 247.236C372.769 247.567 372.168 247.733 371.514 247.733ZM371.514 233.614C370.491 233.614 369.616 233.254 368.886 232.534C368.167 231.814 367.812 230.943 367.821 229.92C367.812 228.917 368.167 228.06 368.886 227.349C369.616 226.63 370.491 226.27 371.514 226.27C372.48 226.27 373.332 226.63 374.071 227.349C374.819 228.06 375.198 228.917 375.207 229.92C375.198 230.602 375.018 231.223 374.668 231.781C374.327 232.34 373.877 232.785 373.318 233.116C372.769 233.448 372.168 233.614 371.514 233.614ZM400.364 251.71C397.826 251.71 395.638 251.109 393.801 249.906C391.964 248.694 390.548 246.956 389.554 244.693C388.56 242.42 388.067 239.688 388.077 236.497C388.086 233.306 388.583 230.598 389.568 228.372C390.563 226.137 391.973 224.437 393.801 223.273C395.638 222.098 397.826 221.511 400.364 221.511C402.902 221.511 405.089 222.098 406.926 223.273C408.773 224.437 410.193 226.137 411.188 228.372C412.182 230.607 412.674 233.315 412.665 236.497C412.665 239.698 412.168 242.435 411.173 244.707C410.179 246.98 408.763 248.718 406.926 249.92C405.098 251.114 402.911 251.71 400.364 251.71ZM400.364 245.957C401.879 245.957 403.105 245.186 404.043 243.642C404.98 242.089 405.444 239.707 405.435 236.497C405.435 234.395 405.222 232.662 404.795 231.298C404.369 229.925 403.777 228.902 403.02 228.23C402.262 227.558 401.377 227.222 400.364 227.222C398.858 227.222 397.641 227.984 396.713 229.509C395.785 231.024 395.316 233.353 395.307 236.497C395.297 238.628 395.501 240.394 395.918 241.795C396.344 243.197 396.94 244.243 397.707 244.935C398.474 245.616 399.36 245.957 400.364 245.957ZM58.5312 306.003V293.517H60.5341C61.2064 293.062 61.822 292.428 62.3807 291.614C62.9394 290.79 63.4176 289.634 63.8153 288.148C64.2131 286.652 64.4972 284.677 64.6676 282.224L65.5767 269.909H85.4773V293.517H88.6023V305.989H81.8409V299H65.2926V306.003H58.5312ZM68.6023 293.517H78.7159V275.619H71.8835L71.429 282.224C71.3059 284.071 71.107 285.7 70.8324 287.111C70.5578 288.522 70.2311 289.753 69.8523 290.804C69.4735 291.846 69.0568 292.75 68.6023 293.517ZM98.4034 290.009L105.378 277.182H112.054V299H105.477V286.131L98.517 299H91.8267V277.182H98.4034V290.009ZM122.626 299.369C121.234 299.369 119.998 299.137 118.918 298.673C117.848 298.2 117.001 297.49 116.376 296.543C115.76 295.586 115.452 294.388 115.452 292.949C115.452 291.737 115.665 290.714 116.092 289.881C116.518 289.047 117.105 288.37 117.853 287.849C118.601 287.329 119.463 286.936 120.438 286.67C121.414 286.396 122.455 286.211 123.563 286.116C124.804 286.003 125.803 285.884 126.56 285.761C127.318 285.629 127.867 285.444 128.208 285.207C128.558 284.961 128.734 284.616 128.734 284.17V284.099C128.734 283.37 128.483 282.807 127.981 282.409C127.479 282.011 126.802 281.812 125.95 281.812C125.031 281.812 124.292 282.011 123.734 282.409C123.175 282.807 122.82 283.356 122.668 284.057L116.262 283.83C116.451 282.504 116.939 281.32 117.725 280.278C118.521 279.227 119.61 278.403 120.992 277.807C122.384 277.201 124.056 276.898 126.006 276.898C127.398 276.898 128.682 277.063 129.856 277.395C131.03 277.717 132.053 278.19 132.924 278.815C133.795 279.431 134.468 280.188 134.941 281.088C135.424 281.988 135.665 283.015 135.665 284.17V299H129.131V295.96H128.961C128.573 296.699 128.076 297.324 127.469 297.835C126.873 298.347 126.167 298.73 125.353 298.986C124.548 299.241 123.639 299.369 122.626 299.369ZM124.771 294.824C125.519 294.824 126.191 294.672 126.788 294.369C127.394 294.066 127.877 293.65 128.237 293.119C128.596 292.58 128.776 291.955 128.776 291.244V289.17C128.577 289.275 128.336 289.369 128.052 289.455C127.777 289.54 127.474 289.62 127.143 289.696C126.811 289.772 126.47 289.838 126.12 289.895C125.77 289.952 125.433 290.004 125.112 290.051C124.458 290.155 123.899 290.316 123.435 290.534C122.981 290.752 122.63 291.036 122.384 291.386C122.147 291.727 122.029 292.134 122.029 292.608C122.029 293.328 122.285 293.877 122.796 294.256C123.317 294.634 123.975 294.824 124.771 294.824ZM153.123 291.585L158.464 277.182H163.549L155.353 299H150.893L142.91 277.182H147.981L153.123 291.585ZM146.489 277.182V299H139.913V277.182H146.489ZM160.154 299V277.182H166.646V299H160.154ZM181.049 299.412C178.767 299.412 176.797 298.962 175.14 298.062C173.492 297.153 172.223 295.861 171.333 294.185C170.452 292.499 170.012 290.496 170.012 288.176C170.012 285.922 170.457 283.953 171.347 282.267C172.237 280.572 173.492 279.256 175.112 278.318C176.731 277.371 178.639 276.898 180.836 276.898C182.389 276.898 183.809 277.139 185.097 277.622C186.385 278.105 187.498 278.82 188.435 279.767C189.373 280.714 190.102 281.884 190.623 283.276C191.144 284.658 191.404 286.244 191.404 288.034V289.767H172.441V285.733H184.941C184.932 284.994 184.756 284.336 184.415 283.759C184.075 283.181 183.606 282.731 183.009 282.409C182.422 282.078 181.745 281.912 180.978 281.912C180.201 281.912 179.505 282.087 178.89 282.438C178.274 282.778 177.787 283.247 177.427 283.844C177.067 284.431 176.878 285.098 176.859 285.847V289.952C176.859 290.842 177.034 291.623 177.384 292.295C177.735 292.958 178.232 293.474 178.876 293.844C179.52 294.213 180.287 294.398 181.177 294.398C181.792 294.398 182.351 294.312 182.853 294.142C183.355 293.972 183.786 293.721 184.146 293.389C184.505 293.058 184.775 292.651 184.955 292.168L191.333 292.352C191.068 293.782 190.486 295.027 189.586 296.088C188.696 297.139 187.526 297.958 186.077 298.545C184.629 299.123 182.952 299.412 181.049 299.412ZM193.375 282.494V277.182H213.83V282.494H206.855V299H200.264V282.494H193.375ZM217.139 307.182V277.182H224.014V280.918H224.227C224.511 280.255 224.914 279.616 225.435 279C225.965 278.384 226.637 277.883 227.452 277.494C228.276 277.097 229.26 276.898 230.406 276.898C231.921 276.898 233.337 277.295 234.653 278.091C235.979 278.886 237.049 280.113 237.864 281.77C238.678 283.427 239.085 285.539 239.085 288.105C239.085 290.577 238.692 292.646 237.906 294.312C237.13 295.979 236.079 297.229 234.753 298.062C233.437 298.896 231.973 299.312 230.364 299.312C229.265 299.312 228.313 299.133 227.509 298.773C226.704 298.413 226.027 297.939 225.477 297.352C224.938 296.765 224.521 296.135 224.227 295.463H224.085V307.182H217.139ZM223.943 288.091C223.943 289.265 224.099 290.288 224.412 291.159C224.734 292.03 225.193 292.707 225.79 293.19C226.396 293.664 227.12 293.901 227.963 293.901C228.815 293.901 229.54 293.664 230.136 293.19C230.733 292.707 231.183 292.03 231.486 291.159C231.798 290.288 231.955 289.265 231.955 288.091C231.955 286.917 231.798 285.899 231.486 285.037C231.183 284.175 230.733 283.508 230.136 283.034C229.549 282.561 228.825 282.324 227.963 282.324C227.111 282.324 226.386 282.556 225.79 283.02C225.193 283.484 224.734 284.147 224.412 285.009C224.099 285.87 223.943 286.898 223.943 288.091ZM366.944 295.733C365.921 295.733 365.045 295.373 364.316 294.653C363.596 293.934 363.241 293.062 363.251 292.04C363.241 291.036 363.596 290.179 364.316 289.469C365.045 288.749 365.921 288.389 366.944 288.389C367.91 288.389 368.762 288.749 369.501 289.469C370.249 290.179 370.628 291.036 370.637 292.04C370.628 292.722 370.448 293.342 370.097 293.901C369.756 294.459 369.307 294.904 368.748 295.236C368.199 295.567 367.597 295.733 366.944 295.733ZM366.944 281.614C365.921 281.614 365.045 281.254 364.316 280.534C363.596 279.814 363.241 278.943 363.251 277.92C363.241 276.917 363.596 276.06 364.316 275.349C365.045 274.63 365.921 274.27 366.944 274.27C367.91 274.27 368.762 274.63 369.501 275.349C370.249 276.06 370.628 276.917 370.637 277.92C370.628 278.602 370.448 279.223 370.097 279.781C369.756 280.34 369.307 280.785 368.748 281.116C368.199 281.448 367.597 281.614 366.944 281.614ZM383.407 294.17V288.688L395.325 269.909H400.197V277.352H397.37L390.396 288.403V288.631H407.654V294.17H383.407ZM397.455 299V292.494L397.597 290.094V269.909H404.174V299H397.455ZM418.212 295.023L418.084 296.599C417.97 297.906 417.738 299.18 417.388 300.42C417.047 301.67 416.682 302.793 416.294 303.787C415.906 304.781 415.598 305.553 415.371 306.102H410.996C411.147 305.553 411.351 304.781 411.607 303.787C411.872 302.793 412.118 301.67 412.345 300.42C412.572 299.17 412.7 297.902 412.729 296.614L412.757 295.023H418.212ZM433.602 299.398C431.339 299.398 429.317 299.038 427.537 298.318C425.766 297.589 424.374 296.604 423.361 295.364C422.357 294.114 421.855 292.703 421.855 291.131C421.855 289.928 422.144 288.825 422.722 287.821C423.299 286.817 424.08 285.984 425.065 285.321C426.06 284.649 427.168 284.218 428.389 284.028V283.801C426.789 283.508 425.477 282.764 424.455 281.571C423.441 280.378 422.935 278.981 422.935 277.381C422.935 275.866 423.394 274.516 424.312 273.332C425.241 272.149 426.505 271.216 428.105 270.534C429.715 269.852 431.547 269.511 433.602 269.511C435.657 269.511 437.485 269.852 439.085 270.534C440.695 271.216 441.959 272.149 442.878 273.332C443.806 274.516 444.27 275.866 444.27 277.381C444.27 278.991 443.754 280.392 442.722 281.585C441.699 282.769 440.397 283.508 438.815 283.801V284.028C440.027 284.218 441.126 284.649 442.111 285.321C443.105 285.984 443.891 286.817 444.469 287.821C445.056 288.825 445.349 289.928 445.349 291.131C445.349 292.703 444.843 294.114 443.83 295.364C442.816 296.604 441.424 297.589 439.653 298.318C437.892 299.038 435.875 299.398 433.602 299.398ZM433.602 294.412C434.464 294.412 435.222 294.251 435.875 293.929C436.528 293.598 437.04 293.138 437.409 292.551C437.788 291.964 437.977 291.301 437.977 290.562C437.977 289.805 437.788 289.133 437.409 288.545C437.03 287.958 436.509 287.499 435.847 287.168C435.193 286.827 434.445 286.656 433.602 286.656C432.769 286.656 432.021 286.827 431.358 287.168C430.695 287.499 430.174 287.958 429.795 288.545C429.417 289.133 429.227 289.805 429.227 290.562C429.227 291.301 429.412 291.964 429.781 292.551C430.16 293.129 430.676 293.583 431.33 293.915C431.992 294.246 432.75 294.412 433.602 294.412ZM433.602 281.699C434.341 281.699 434.994 281.547 435.562 281.244C436.14 280.941 436.59 280.52 436.912 279.98C437.243 279.44 437.409 278.83 437.409 278.148C437.409 277.466 437.243 276.865 436.912 276.344C436.59 275.823 436.145 275.416 435.577 275.122C435.009 274.819 434.35 274.668 433.602 274.668C432.864 274.668 432.205 274.819 431.628 275.122C431.05 275.416 430.6 275.823 430.278 276.344C429.956 276.865 429.795 277.466 429.795 278.148C429.795 278.83 429.956 279.44 430.278 279.98C430.61 280.51 431.064 280.932 431.642 281.244C432.22 281.547 432.873 281.699 433.602 281.699ZM450.506 299L462.239 275.761V275.577H448.517V269.909H469.511V275.619L457.736 299H450.506ZM483.933 269.511C485.523 269.511 487.043 269.772 488.492 270.293C489.941 270.804 491.234 271.623 492.37 272.75C493.506 273.867 494.401 275.34 495.055 277.168C495.708 278.995 496.035 281.225 496.035 283.858C496.044 286.282 495.76 288.455 495.183 290.378C494.605 292.291 493.776 293.92 492.697 295.264C491.627 296.609 490.339 297.636 488.833 298.347C487.327 299.047 485.647 299.398 483.79 299.398C481.745 299.398 479.941 299.005 478.379 298.219C476.826 297.423 475.58 296.353 474.643 295.009C473.715 293.664 473.161 292.158 472.981 290.491H479.898C480.116 291.457 480.576 292.187 481.276 292.679C481.977 293.162 482.815 293.403 483.79 293.403C485.571 293.403 486.901 292.632 487.782 291.088C488.663 289.545 489.103 287.447 489.103 284.795H488.933C488.525 285.667 487.948 286.415 487.2 287.04C486.461 287.665 485.604 288.143 484.629 288.474C483.653 288.806 482.626 288.972 481.546 288.972C479.804 288.972 478.265 288.574 476.93 287.778C475.604 286.983 474.562 285.889 473.805 284.497C473.057 283.105 472.678 281.514 472.668 279.724C472.659 277.717 473.128 275.946 474.075 274.412C475.022 272.868 476.343 271.666 478.038 270.804C479.733 269.933 481.698 269.502 483.933 269.511ZM483.975 274.909C483.104 274.909 482.327 275.113 481.646 275.52C480.973 275.927 480.443 276.476 480.055 277.168C479.666 277.859 479.477 278.635 479.487 279.497C479.496 280.359 479.69 281.135 480.069 281.827C480.457 282.518 480.983 283.067 481.646 283.474C482.318 283.882 483.085 284.085 483.947 284.085C484.591 284.085 485.187 283.967 485.737 283.73C486.286 283.493 486.764 283.167 487.171 282.75C487.578 282.324 487.896 281.831 488.123 281.273C488.36 280.714 488.473 280.117 488.464 279.483C488.454 278.64 488.255 277.873 487.867 277.182C487.479 276.491 486.944 275.941 486.262 275.534C485.59 275.117 484.827 274.909 483.975 274.909ZM508.545 299V277.182H515.491V285.307H517.026L522.324 277.182H530.364L523.02 288.105L530.435 299H522.295L517.509 291.756H515.491V299H508.545ZM545.818 291.585L551.159 277.182H556.244L548.048 299H543.588L535.605 277.182H540.676L545.818 291.585ZM539.185 277.182V299H532.608V277.182H539.185ZM552.849 299V277.182H559.341V299H552.849ZM59.7955 347V317.909H66.8267V329.585H78.2898V317.909H85.3068V347H78.2898V335.31H66.8267V347H59.7955ZM98.0696 330.253C97.4067 330.253 96.848 330.366 96.3935 330.594C95.9389 330.821 95.598 331.143 95.3707 331.56C95.1529 331.976 95.044 332.483 95.044 333.08H88.8793C88.8793 331.82 89.1065 330.684 89.5611 329.67C90.0156 328.648 90.6548 327.777 91.4787 327.057C92.312 326.328 93.2874 325.774 94.4048 325.395C95.5223 325.007 96.7438 324.812 98.0696 324.812C100.333 324.812 102.232 325.295 103.766 326.261C105.309 327.227 106.474 328.548 107.26 330.224C108.046 331.891 108.439 333.78 108.439 335.892V336.318C108.439 338.439 108.051 340.338 107.274 342.014C106.498 343.681 105.338 344.997 103.794 345.963C102.26 346.92 100.352 347.398 98.0696 347.398C96.2514 347.398 94.651 347.052 93.2685 346.361C91.8954 345.67 90.8205 344.666 90.044 343.349C89.2675 342.033 88.8793 340.438 88.8793 338.562H95.044C95.044 339.178 95.1529 339.741 95.3707 340.253C95.5885 340.755 95.92 341.157 96.3651 341.46C96.8196 341.754 97.3878 341.905 98.0696 341.915C99.1397 341.905 99.9446 341.612 100.484 341.034C101.034 340.456 101.398 339.737 101.578 338.875C101.768 338.013 101.862 337.161 101.862 336.318V335.892C101.862 334.926 101.763 334.017 101.564 333.165C101.375 332.303 101.005 331.602 100.456 331.062C99.9162 330.523 99.1207 330.253 98.0696 330.253ZM103.723 334.259V337.98H96.6349V334.259H103.723ZM127.448 325.182V330.494H118.741V347H112.022V325.182H127.448ZM156.386 334.188V337.994H142.636V334.188H156.386ZM149.511 347.412C147.22 347.412 145.25 346.943 143.602 346.006C141.964 345.059 140.7 343.742 139.81 342.057C138.929 340.362 138.489 338.397 138.489 336.162C138.489 333.918 138.929 331.953 139.81 330.267C140.7 328.572 141.964 327.256 143.602 326.318C145.25 325.371 147.22 324.898 149.511 324.898C151.803 324.898 153.768 325.371 155.406 326.318C157.054 327.256 158.318 328.572 159.199 330.267C160.089 331.953 160.534 333.918 160.534 336.162C160.534 338.397 160.089 340.362 159.199 342.057C158.318 343.742 157.054 345.059 155.406 346.006C153.768 346.943 151.803 347.412 149.511 347.412ZM149.554 342.17C150.387 342.17 151.093 341.915 151.67 341.403C152.248 340.892 152.688 340.182 152.991 339.273C153.304 338.364 153.46 337.312 153.46 336.119C153.46 334.907 153.304 333.847 152.991 332.938C152.688 332.028 152.248 331.318 151.67 330.807C151.093 330.295 150.387 330.04 149.554 330.04C148.692 330.04 147.963 330.295 147.366 330.807C146.779 331.318 146.33 332.028 146.017 332.938C145.714 333.847 145.562 334.907 145.562 336.119C145.562 337.312 145.714 338.364 146.017 339.273C146.33 340.182 146.779 340.892 147.366 341.403C147.963 341.915 148.692 342.17 149.554 342.17ZM162.587 353.435V341.645H164.22C164.713 341.399 165.106 340.925 165.399 340.224C165.693 339.514 165.925 338.686 166.095 337.739C166.275 336.782 166.408 335.788 166.493 334.756C166.588 333.714 166.673 332.734 166.749 331.815L167.26 325.182H184.93V341.645H188.339V353.435H181.749V347H169.348V353.435H162.587ZM170.982 341.645H178.453V330.352H173.055L172.942 331.815C172.809 334.164 172.601 336.134 172.317 337.724C172.033 339.315 171.588 340.622 170.982 341.645ZM208.613 334.188V337.994H194.863V334.188H208.613ZM201.738 347.412C199.446 347.412 197.477 346.943 195.829 346.006C194.191 345.059 192.926 343.742 192.036 342.057C191.156 340.362 190.715 338.397 190.715 336.162C190.715 333.918 191.156 331.953 192.036 330.267C192.926 328.572 194.191 327.256 195.829 326.318C197.477 325.371 199.446 324.898 201.738 324.898C204.03 324.898 205.995 325.371 207.633 326.318C209.281 327.256 210.545 328.572 211.425 330.267C212.316 331.953 212.761 333.918 212.761 336.162C212.761 338.397 212.316 340.362 211.425 342.057C210.545 343.742 209.281 345.059 207.633 346.006C205.995 346.943 204.03 347.412 201.738 347.412ZM201.781 342.17C202.614 342.17 203.319 341.915 203.897 341.403C204.475 340.892 204.915 340.182 205.218 339.273C205.531 338.364 205.687 337.312 205.687 336.119C205.687 334.907 205.531 333.847 205.218 332.938C204.915 332.028 204.475 331.318 203.897 330.807C203.319 330.295 202.614 330.04 201.781 330.04C200.919 330.04 200.19 330.295 199.593 330.807C199.006 331.318 198.556 332.028 198.244 332.938C197.941 333.847 197.789 334.907 197.789 336.119C197.789 337.312 197.941 338.364 198.244 339.273C198.556 340.182 199.006 340.892 199.593 341.403C200.19 341.915 200.919 342.17 201.781 342.17ZM216.319 355.182V325.182H223.194V328.918H223.407C223.691 328.255 224.094 327.616 224.614 327C225.145 326.384 225.817 325.883 226.631 325.494C227.455 325.097 228.44 324.898 229.586 324.898C231.101 324.898 232.517 325.295 233.833 326.091C235.159 326.886 236.229 328.113 237.043 329.77C237.858 331.427 238.265 333.539 238.265 336.105C238.265 338.577 237.872 340.646 237.086 342.312C236.309 343.979 235.258 345.229 233.933 346.062C232.616 346.896 231.153 347.312 229.543 347.312C228.445 347.312 227.493 347.133 226.688 346.773C225.883 346.413 225.206 345.939 224.657 345.352C224.117 344.765 223.701 344.135 223.407 343.463H223.265V355.182H216.319ZM223.123 336.091C223.123 337.265 223.279 338.288 223.592 339.159C223.914 340.03 224.373 340.707 224.969 341.19C225.576 341.664 226.3 341.901 227.143 341.901C227.995 341.901 228.719 341.664 229.316 341.19C229.913 340.707 230.362 340.03 230.665 339.159C230.978 338.288 231.134 337.265 231.134 336.091C231.134 334.917 230.978 333.899 230.665 333.037C230.362 332.175 229.913 331.508 229.316 331.034C228.729 330.561 228.004 330.324 227.143 330.324C226.29 330.324 225.566 330.556 224.969 331.02C224.373 331.484 223.914 332.147 223.592 333.009C223.279 333.87 223.123 334.898 223.123 336.091ZM366.124 343.733C365.101 343.733 364.225 343.373 363.496 342.653C362.776 341.934 362.421 341.062 362.43 340.04C362.421 339.036 362.776 338.179 363.496 337.469C364.225 336.749 365.101 336.389 366.124 336.389C367.089 336.389 367.942 336.749 368.68 337.469C369.429 338.179 369.807 339.036 369.817 340.04C369.807 340.722 369.627 341.342 369.277 341.901C368.936 342.459 368.486 342.904 367.928 343.236C367.378 343.567 366.777 343.733 366.124 343.733ZM366.124 329.614C365.101 329.614 364.225 329.254 363.496 328.534C362.776 327.814 362.421 326.943 362.43 325.92C362.421 324.917 362.776 324.06 363.496 323.349C364.225 322.63 365.101 322.27 366.124 322.27C367.089 322.27 367.942 322.63 368.68 323.349C369.429 324.06 369.807 324.917 369.817 325.92C369.807 326.602 369.627 327.223 369.277 327.781C368.936 328.34 368.486 328.785 367.928 329.116C367.378 329.448 366.777 329.614 366.124 329.614ZM396.393 317.909V347H389.376V324.472H389.206L382.7 328.449V322.369L389.874 317.909H396.393ZM408.485 343.023L408.357 344.599C408.244 345.906 408.012 347.18 407.661 348.42C407.32 349.67 406.956 350.793 406.567 351.787C406.179 352.781 405.871 353.553 405.644 354.102H401.269C401.421 353.553 401.624 352.781 401.88 351.787C402.145 350.793 402.391 349.67 402.619 348.42C402.846 347.17 402.974 345.902 403.002 344.614L403.031 343.023H408.485ZM413.407 342.17V336.688L425.325 317.909H430.197V325.352H427.37L420.396 336.403V336.631H437.654V342.17H413.407ZM427.455 347V340.494L427.597 338.094V317.909H434.174V347H427.455ZM453.371 347.71C450.834 347.71 448.646 347.109 446.809 345.906C444.972 344.694 443.556 342.956 442.562 340.693C441.567 338.42 441.075 335.688 441.085 332.497C441.094 329.306 441.591 326.598 442.576 324.372C443.57 322.137 444.981 320.437 446.809 319.273C448.646 318.098 450.834 317.511 453.371 317.511C455.909 317.511 458.097 318.098 459.934 319.273C461.781 320.437 463.201 322.137 464.195 324.372C465.19 326.607 465.682 329.315 465.673 332.497C465.673 335.698 465.175 338.435 464.181 340.707C463.187 342.98 461.771 344.718 459.934 345.92C458.106 347.114 455.919 347.71 453.371 347.71ZM453.371 341.957C454.887 341.957 456.113 341.186 457.05 339.642C457.988 338.089 458.452 335.707 458.442 332.497C458.442 330.395 458.229 328.662 457.803 327.298C457.377 325.925 456.785 324.902 456.028 324.23C455.27 323.558 454.385 323.222 453.371 323.222C451.866 323.222 450.649 323.984 449.721 325.509C448.793 327.024 448.324 329.353 448.315 332.497C448.305 334.628 448.509 336.394 448.925 337.795C449.352 339.197 449.948 340.243 450.715 340.935C451.482 341.616 452.368 341.957 453.371 341.957ZM481.063 347.398C478.8 347.398 476.778 347.038 474.998 346.318C473.227 345.589 471.835 344.604 470.822 343.364C469.818 342.114 469.316 340.703 469.316 339.131C469.316 337.928 469.605 336.825 470.183 335.821C470.76 334.817 471.541 333.984 472.526 333.321C473.521 332.649 474.629 332.218 475.85 332.028V331.801C474.25 331.508 472.938 330.764 471.915 329.571C470.902 328.378 470.396 326.981 470.396 325.381C470.396 323.866 470.855 322.516 471.773 321.332C472.701 320.149 473.966 319.216 475.566 318.534C477.176 317.852 479.008 317.511 481.063 317.511C483.118 317.511 484.946 317.852 486.546 318.534C488.156 319.216 489.42 320.149 490.339 321.332C491.267 322.516 491.731 323.866 491.731 325.381C491.731 326.991 491.215 328.392 490.183 329.585C489.16 330.769 487.858 331.508 486.276 331.801V332.028C487.488 332.218 488.587 332.649 489.572 333.321C490.566 333.984 491.352 334.817 491.93 335.821C492.517 336.825 492.81 337.928 492.81 339.131C492.81 340.703 492.304 342.114 491.29 343.364C490.277 344.604 488.885 345.589 487.114 346.318C485.353 347.038 483.336 347.398 481.063 347.398ZM481.063 342.412C481.925 342.412 482.683 342.251 483.336 341.929C483.989 341.598 484.501 341.138 484.87 340.551C485.249 339.964 485.438 339.301 485.438 338.562C485.438 337.805 485.249 337.133 484.87 336.545C484.491 335.958 483.97 335.499 483.308 335.168C482.654 334.827 481.906 334.656 481.063 334.656C480.23 334.656 479.482 334.827 478.819 335.168C478.156 335.499 477.635 335.958 477.256 336.545C476.878 337.133 476.688 337.805 476.688 338.562C476.688 339.301 476.873 339.964 477.242 340.551C477.621 341.129 478.137 341.583 478.79 341.915C479.453 342.246 480.211 342.412 481.063 342.412ZM481.063 329.699C481.802 329.699 482.455 329.547 483.023 329.244C483.601 328.941 484.051 328.52 484.373 327.98C484.704 327.44 484.87 326.83 484.87 326.148C484.87 325.466 484.704 324.865 484.373 324.344C484.051 323.823 483.606 323.416 483.038 323.122C482.469 322.819 481.811 322.668 481.063 322.668C480.325 322.668 479.666 322.819 479.089 323.122C478.511 323.416 478.061 323.823 477.739 324.344C477.417 324.865 477.256 325.466 477.256 326.148C477.256 326.83 477.417 327.44 477.739 327.98C478.071 328.51 478.525 328.932 479.103 329.244C479.681 329.547 480.334 329.699 481.063 329.699ZM525.083 325.182V342.469H528.705V354.003H521.987V347H505.381V325.182H511.958V341.688H518.606V325.182H525.083ZM538.094 347.369C536.702 347.369 535.467 347.137 534.387 346.673C533.317 346.2 532.469 345.49 531.844 344.543C531.229 343.586 530.921 342.388 530.921 340.949C530.921 339.737 531.134 338.714 531.56 337.881C531.987 337.047 532.574 336.37 533.322 335.849C534.07 335.329 534.932 334.936 535.907 334.67C536.882 334.396 537.924 334.211 539.032 334.116C540.272 334.003 541.272 333.884 542.029 333.761C542.787 333.629 543.336 333.444 543.677 333.207C544.027 332.961 544.202 332.616 544.202 332.17V332.099C544.202 331.37 543.951 330.807 543.45 330.409C542.948 330.011 542.271 329.812 541.418 329.812C540.5 329.812 539.761 330.011 539.202 330.409C538.644 330.807 538.289 331.356 538.137 332.057L531.731 331.83C531.92 330.504 532.408 329.32 533.194 328.278C533.989 327.227 535.078 326.403 536.461 325.807C537.853 325.201 539.524 324.898 541.475 324.898C542.867 324.898 544.15 325.063 545.325 325.395C546.499 325.717 547.522 326.19 548.393 326.815C549.264 327.431 549.936 328.188 550.41 329.088C550.893 329.988 551.134 331.015 551.134 332.17V347H544.6V343.96H544.43C544.041 344.699 543.544 345.324 542.938 345.835C542.342 346.347 541.636 346.73 540.822 346.986C540.017 347.241 539.108 347.369 538.094 347.369ZM540.239 342.824C540.987 342.824 541.66 342.672 542.256 342.369C542.862 342.066 543.345 341.65 543.705 341.119C544.065 340.58 544.245 339.955 544.245 339.244V337.17C544.046 337.275 543.805 337.369 543.521 337.455C543.246 337.54 542.943 337.62 542.612 337.696C542.28 337.772 541.939 337.838 541.589 337.895C541.238 337.952 540.902 338.004 540.58 338.051C539.927 338.155 539.368 338.316 538.904 338.534C538.45 338.752 538.099 339.036 537.853 339.386C537.616 339.727 537.498 340.134 537.498 340.608C537.498 341.328 537.754 341.877 538.265 342.256C538.786 342.634 539.444 342.824 540.239 342.824ZM570.808 325.182V330.494H562.1V347H555.381V325.182H570.808Z" fill="white"/>
<path d="M119.049 369.909L124.361 379.099H124.588L129.958 369.909H137.827L129.049 384.455L138.111 399H130.043L124.588 389.71H124.361L118.907 399H110.895L119.915 384.455L111.123 369.909H119.049ZM147.614 399.369C146.222 399.369 144.986 399.137 143.907 398.673C142.837 398.2 141.989 397.49 141.364 396.543C140.748 395.586 140.441 394.388 140.441 392.949C140.441 391.737 140.654 390.714 141.08 389.881C141.506 389.047 142.093 388.37 142.841 387.849C143.589 387.329 144.451 386.936 145.426 386.67C146.402 386.396 147.444 386.211 148.551 386.116C149.792 386.003 150.791 385.884 151.549 385.761C152.306 385.629 152.855 385.444 153.196 385.207C153.547 384.961 153.722 384.616 153.722 384.17V384.099C153.722 383.37 153.471 382.807 152.969 382.409C152.467 382.011 151.79 381.812 150.938 381.812C150.019 381.812 149.281 382.011 148.722 382.409C148.163 382.807 147.808 383.356 147.657 384.057L141.25 383.83C141.44 382.504 141.927 381.32 142.713 380.278C143.509 379.227 144.598 378.403 145.98 377.807C147.373 377.201 149.044 376.898 150.995 376.898C152.387 376.898 153.67 377.063 154.844 377.395C156.018 377.717 157.041 378.19 157.912 378.815C158.783 379.431 159.456 380.188 159.929 381.088C160.412 381.988 160.654 383.015 160.654 384.17V399H154.12V395.96H153.949C153.561 396.699 153.064 397.324 152.458 397.835C151.861 398.347 151.156 398.73 150.341 398.986C149.536 399.241 148.627 399.369 147.614 399.369ZM149.759 394.824C150.507 394.824 151.179 394.672 151.776 394.369C152.382 394.066 152.865 393.65 153.225 393.119C153.585 392.58 153.765 391.955 153.765 391.244V389.17C153.566 389.275 153.324 389.369 153.04 389.455C152.766 389.54 152.462 389.62 152.131 389.696C151.8 389.772 151.459 389.838 151.108 389.895C150.758 389.952 150.422 390.004 150.1 390.051C149.446 390.155 148.888 390.316 148.424 390.534C147.969 390.752 147.619 391.036 147.373 391.386C147.136 391.727 147.017 392.134 147.017 392.608C147.017 393.328 147.273 393.877 147.784 394.256C148.305 394.634 148.963 394.824 149.759 394.824ZM178.111 391.585L183.452 377.182H188.537L180.341 399H175.881L167.898 377.182H172.969L178.111 391.585ZM171.478 377.182V399H164.901V377.182H171.478ZM185.142 399V377.182H191.634V399H185.142ZM211.265 377.182V382.494H202.557V399H195.838V377.182H211.265ZM221.126 390.009L228.1 377.182H234.777V399H228.2V386.131L221.24 399H214.549V377.182H221.126V390.009ZM245.775 390.009L252.749 377.182H259.425V399H252.848V386.131L245.888 399H239.198V377.182H245.775V390.009ZM252.124 369.455H256.698C256.688 371.235 256.016 372.665 254.681 373.744C253.355 374.824 251.556 375.364 249.283 375.364C247.01 375.364 245.206 374.824 243.871 373.744C242.545 372.665 241.887 371.235 241.897 369.455H246.428C246.418 370.08 246.632 370.648 247.067 371.159C247.503 371.67 248.241 371.926 249.283 371.926C250.296 371.926 251.021 371.675 251.456 371.173C251.892 370.671 252.114 370.098 252.124 369.455ZM279.23 385.378V390.676H268.037V385.378H279.23ZM270.423 377.182V399H263.846V377.182H270.423ZM283.42 377.182V399H276.886V377.182H283.42ZM294.78 399L302.01 387.551L294.794 377.182H302.692L307.82 385.449H308.459V377.182H315.405V385.449H316.03L321.158 377.182H329.056L321.854 387.551L329.07 399H320.988L315.973 390.761H315.405V399H308.459V390.761H307.891L302.863 399H294.78ZM338.587 390.009L345.561 377.182H352.238V399H345.661V386.131L338.701 399H332.01V377.182H338.587V390.009ZM355.21 399L362.44 387.551L355.224 377.182H363.122L368.25 385.449H368.889V377.182H375.835V385.449H376.46L381.588 377.182H389.485L382.284 387.551L389.5 399H381.417L376.403 390.761H375.835V399H368.889V390.761H368.321L363.292 399H355.21ZM399.017 390.009L405.991 377.182H412.667V399H406.091V386.131L399.13 399H392.44V377.182H399.017V390.009ZM432.515 377.182V382.494H423.807V399H417.088V377.182H432.515ZM459.819 377.182V382.494H451.112V399H444.393V377.182H459.819ZM468.591 399.369C467.199 399.369 465.963 399.137 464.883 398.673C463.813 398.2 462.966 397.49 462.341 396.543C461.725 395.586 461.417 394.388 461.417 392.949C461.417 391.737 461.63 390.714 462.056 389.881C462.483 389.047 463.07 388.37 463.818 387.849C464.566 387.329 465.428 386.936 466.403 386.67C467.378 386.396 468.42 386.211 469.528 386.116C470.769 386.003 471.768 385.884 472.525 385.761C473.283 385.629 473.832 385.444 474.173 385.207C474.523 384.961 474.699 384.616 474.699 384.17V384.099C474.699 383.37 474.448 382.807 473.946 382.409C473.444 382.011 472.767 381.812 471.914 381.812C470.996 381.812 470.257 382.011 469.699 382.409C469.14 382.807 468.785 383.356 468.633 384.057L462.227 383.83C462.416 382.504 462.904 381.32 463.69 380.278C464.485 379.227 465.574 378.403 466.957 377.807C468.349 377.201 470.02 376.898 471.971 376.898C473.363 376.898 474.646 377.063 475.821 377.395C476.995 377.717 478.018 378.19 478.889 378.815C479.76 379.431 480.432 380.188 480.906 381.088C481.389 381.988 481.63 383.015 481.63 384.17V399H475.096V395.96H474.926C474.538 396.699 474.04 397.324 473.434 397.835C472.838 398.347 472.132 398.73 471.318 398.986C470.513 399.241 469.604 399.369 468.591 399.369ZM470.735 394.824C471.484 394.824 472.156 394.672 472.752 394.369C473.359 394.066 473.842 393.65 474.201 393.119C474.561 392.58 474.741 391.955 474.741 391.244V389.17C474.542 389.275 474.301 389.369 474.017 389.455C473.742 389.54 473.439 389.62 473.108 389.696C472.776 389.772 472.435 389.838 472.085 389.895C471.734 389.952 471.398 390.004 471.076 390.051C470.423 390.155 469.864 390.316 469.4 390.534C468.946 390.752 468.595 391.036 468.349 391.386C468.112 391.727 467.994 392.134 467.994 392.608C467.994 393.328 468.25 393.877 468.761 394.256C469.282 394.634 469.94 394.824 470.735 394.824ZM485.877 407.182V377.182H492.752V380.918H492.966C493.25 380.255 493.652 379.616 494.173 379C494.703 378.384 495.376 377.883 496.19 377.494C497.014 377.097 497.999 376.898 499.145 376.898C500.66 376.898 502.075 377.295 503.392 378.091C504.717 378.886 505.788 380.113 506.602 381.77C507.416 383.427 507.824 385.539 507.824 388.105C507.824 390.577 507.431 392.646 506.645 394.312C505.868 395.979 504.817 397.229 503.491 398.062C502.175 398.896 500.712 399.312 499.102 399.312C498.003 399.312 497.052 399.133 496.247 398.773C495.442 398.413 494.765 397.939 494.216 397.352C493.676 396.765 493.259 396.135 492.966 395.463H492.824V407.182H485.877ZM492.681 388.091C492.681 389.265 492.838 390.288 493.15 391.159C493.472 392.03 493.931 392.707 494.528 393.19C495.134 393.664 495.859 393.901 496.701 393.901C497.554 393.901 498.278 393.664 498.875 393.19C499.471 392.707 499.921 392.03 500.224 391.159C500.537 390.288 500.693 389.265 500.693 388.091C500.693 386.917 500.537 385.899 500.224 385.037C499.921 384.175 499.471 383.508 498.875 383.034C498.288 382.561 497.563 382.324 496.701 382.324C495.849 382.324 495.125 382.556 494.528 383.02C493.931 383.484 493.472 384.147 493.15 385.009C492.838 385.87 492.681 386.898 492.681 388.091ZM517.614 399.369C516.222 399.369 514.986 399.137 513.907 398.673C512.837 398.2 511.989 397.49 511.364 396.543C510.748 395.586 510.441 394.388 510.441 392.949C510.441 391.737 510.654 390.714 511.08 389.881C511.506 389.047 512.093 388.37 512.841 387.849C513.589 387.329 514.451 386.936 515.426 386.67C516.402 386.396 517.444 386.211 518.551 386.116C519.792 386.003 520.791 385.884 521.549 385.761C522.306 385.629 522.855 385.444 523.196 385.207C523.547 384.961 523.722 384.616 523.722 384.17V384.099C523.722 383.37 523.471 382.807 522.969 382.409C522.467 382.011 521.79 381.812 520.938 381.812C520.019 381.812 519.281 382.011 518.722 382.409C518.163 382.807 517.808 383.356 517.657 384.057L511.25 383.83C511.44 382.504 511.927 381.32 512.713 380.278C513.509 379.227 514.598 378.403 515.98 377.807C517.373 377.201 519.044 376.898 520.995 376.898C522.387 376.898 523.67 377.063 524.844 377.395C526.018 377.717 527.041 378.19 527.912 378.815C528.783 379.431 529.456 380.188 529.929 381.088C530.412 381.988 530.654 383.015 530.654 384.17V399H524.12V395.96H523.949C523.561 396.699 523.064 397.324 522.458 397.835C521.861 398.347 521.156 398.73 520.341 398.986C519.536 399.241 518.627 399.369 517.614 399.369ZM519.759 394.824C520.507 394.824 521.179 394.672 521.776 394.369C522.382 394.066 522.865 393.65 523.225 393.119C523.585 392.58 523.765 391.955 523.765 391.244V389.17C523.566 389.275 523.324 389.369 523.04 389.455C522.766 389.54 522.462 389.62 522.131 389.696C521.8 389.772 521.459 389.838 521.108 389.895C520.758 389.952 520.422 390.004 520.1 390.051C519.446 390.155 518.888 390.316 518.424 390.534C517.969 390.752 517.619 391.036 517.373 391.386C517.136 391.727 517.017 392.134 517.017 392.608C517.017 393.328 517.273 393.877 517.784 394.256C518.305 394.634 518.963 394.824 519.759 394.824ZM550.327 377.182V382.494H541.62V399H534.901V377.182H550.327ZM580.998 369.227L582.873 373.815C582.277 374.279 581.623 374.63 580.913 374.866C580.212 375.103 579.355 375.264 578.342 375.349C577.329 375.435 576.05 375.482 574.507 375.491C572.764 375.501 571.353 375.742 570.274 376.216C569.194 376.68 568.375 377.442 567.816 378.503C567.267 379.554 566.903 380.955 566.723 382.707H566.907C567.532 381.391 568.422 380.354 569.578 379.597C570.733 378.839 572.225 378.46 574.052 378.46C575.956 378.46 577.613 378.872 579.024 379.696C580.435 380.51 581.524 381.675 582.291 383.19C583.058 384.696 583.441 386.486 583.441 388.56C583.441 390.757 583.001 392.67 582.12 394.298C581.24 395.927 579.98 397.187 578.342 398.077C576.704 398.967 574.743 399.412 572.461 399.412C570.179 399.412 568.214 398.948 566.566 398.02C564.928 397.092 563.664 395.728 562.774 393.929C561.893 392.12 561.453 389.9 561.453 387.267V385.676C561.453 380.278 562.542 376.306 564.72 373.759C566.898 371.211 570.08 369.928 574.265 369.909C575.316 369.9 576.268 369.9 577.12 369.909C577.982 369.909 578.735 369.866 579.379 369.781C580.023 369.687 580.563 369.502 580.998 369.227ZM572.504 394.17C573.299 394.17 573.986 393.957 574.564 393.531C575.141 393.105 575.586 392.494 575.899 391.699C576.211 390.903 576.368 389.947 576.368 388.83C576.368 387.712 576.207 386.76 575.885 385.974C575.572 385.188 575.127 384.592 574.549 384.185C573.972 383.768 573.285 383.56 572.49 383.56C571.884 383.56 571.334 383.678 570.842 383.915C570.35 384.142 569.933 384.483 569.592 384.938C569.251 385.383 568.991 385.932 568.811 386.585C568.631 387.239 568.541 387.987 568.541 388.83C568.541 390.496 568.891 391.803 569.592 392.75C570.293 393.697 571.263 394.17 572.504 394.17ZM604.148 386.188V389.994H590.398V386.188H604.148ZM597.273 399.412C594.981 399.412 593.012 398.943 591.364 398.006C589.726 397.059 588.462 395.742 587.571 394.057C586.691 392.362 586.25 390.397 586.25 388.162C586.25 385.918 586.691 383.953 587.571 382.267C588.462 380.572 589.726 379.256 591.364 378.318C593.012 377.371 594.981 376.898 597.273 376.898C599.565 376.898 601.53 377.371 603.168 378.318C604.816 379.256 606.08 380.572 606.961 382.267C607.851 383.953 608.296 385.918 608.296 388.162C608.296 390.397 607.851 392.362 606.961 394.057C606.08 395.742 604.816 397.059 603.168 398.006C601.53 398.943 599.565 399.412 597.273 399.412ZM597.316 394.17C598.149 394.17 598.855 393.915 599.432 393.403C600.01 392.892 600.45 392.182 600.753 391.273C601.066 390.364 601.222 389.312 601.222 388.119C601.222 386.907 601.066 385.847 600.753 384.938C600.45 384.028 600.01 383.318 599.432 382.807C598.855 382.295 598.149 382.04 597.316 382.04C596.454 382.04 595.725 382.295 595.128 382.807C594.541 383.318 594.091 384.028 593.779 384.938C593.476 385.847 593.324 386.907 593.324 388.119C593.324 389.312 593.476 390.364 593.779 391.273C594.091 392.182 594.541 392.892 595.128 393.403C595.725 393.915 596.454 394.17 597.316 394.17ZM627.28 377.182V382.494H618.573V399H611.854V377.182H627.28ZM646.961 386.188V389.994H633.211V386.188H646.961ZM640.086 399.412C637.794 399.412 635.824 398.943 634.176 398.006C632.538 397.059 631.274 395.742 630.384 394.057C629.503 392.362 629.063 390.397 629.063 388.162C629.063 385.918 629.503 383.953 630.384 382.267C631.274 380.572 632.538 379.256 634.176 378.318C635.824 377.371 637.794 376.898 640.086 376.898C642.377 376.898 644.342 377.371 645.98 378.318C647.628 379.256 648.892 380.572 649.773 382.267C650.663 383.953 651.108 385.918 651.108 388.162C651.108 390.397 650.663 392.362 649.773 394.057C648.892 395.742 647.628 397.059 645.98 398.006C644.342 398.943 642.377 399.412 640.086 399.412ZM640.128 394.17C640.962 394.17 641.667 393.915 642.245 393.403C642.822 392.892 643.263 392.182 643.566 391.273C643.878 390.364 644.034 389.312 644.034 388.119C644.034 386.907 643.878 385.847 643.566 384.938C643.263 384.028 642.822 383.318 642.245 382.807C641.667 382.295 640.962 382.04 640.128 382.04C639.266 382.04 638.537 382.295 637.941 382.807C637.354 383.318 636.904 384.028 636.591 384.938C636.288 385.847 636.137 386.907 636.137 388.119C636.137 389.312 636.288 390.364 636.591 391.273C636.904 392.182 637.354 392.892 637.941 393.403C638.537 393.915 639.266 394.17 640.128 394.17ZM671.726 386.188V389.994H657.976V386.188H671.726ZM664.851 399.412C662.56 399.412 660.59 398.943 658.942 398.006C657.304 397.059 656.04 395.742 655.15 394.057C654.269 392.362 653.828 390.397 653.828 388.162C653.828 385.918 654.269 383.953 655.15 382.267C656.04 380.572 657.304 379.256 658.942 378.318C660.59 377.371 662.56 376.898 664.851 376.898C667.143 376.898 669.108 377.371 670.746 378.318C672.394 379.256 673.658 380.572 674.539 382.267C675.429 383.953 675.874 385.918 675.874 388.162C675.874 390.397 675.429 392.362 674.539 394.057C673.658 395.742 672.394 397.059 670.746 398.006C669.108 398.943 667.143 399.412 664.851 399.412ZM664.894 394.17C665.727 394.17 666.433 393.915 667.01 393.403C667.588 392.892 668.028 392.182 668.331 391.273C668.644 390.364 668.8 389.312 668.8 388.119C668.8 386.907 668.644 385.847 668.331 384.938C668.028 384.028 667.588 383.318 667.01 382.807C666.433 382.295 665.727 382.04 664.894 382.04C664.032 382.04 663.303 382.295 662.706 382.807C662.119 383.318 661.669 384.028 661.357 384.938C661.054 385.847 660.902 386.907 660.902 388.119C660.902 389.312 661.054 390.364 661.357 391.273C661.669 392.182 662.119 392.892 662.706 393.403C663.303 393.915 664.032 394.17 664.894 394.17ZM677.926 405.435V393.645H679.56C680.052 393.399 680.445 392.925 680.739 392.224C681.033 391.514 681.265 390.686 681.435 389.739C681.615 388.782 681.748 387.788 681.833 386.756C681.927 385.714 682.013 384.734 682.088 383.815L682.6 377.182H700.27V393.645H703.679V405.435H697.088V399H684.688V405.435H677.926ZM686.321 393.645H693.793V382.352H688.395L688.282 383.815C688.149 386.164 687.941 388.134 687.657 389.724C687.373 391.315 686.927 392.622 686.321 393.645ZM79.9737 425.182V442.469H83.5959V454.003H76.8771V447H60.272V425.182H66.8487V441.688H73.4964V425.182H79.9737ZM92.9851 447.369C91.593 447.369 90.3572 447.137 89.2777 446.673C88.2076 446.2 87.3601 445.49 86.7351 444.543C86.1196 443.586 85.8118 442.388 85.8118 440.949C85.8118 439.737 86.0249 438.714 86.451 437.881C86.8771 437.047 87.4643 436.37 88.2124 435.849C88.9605 435.329 89.8222 434.936 90.7976 434.67C91.773 434.396 92.8146 434.211 93.9226 434.116C95.1631 434.003 96.1622 433.884 96.9197 433.761C97.6773 433.629 98.2266 433.444 98.5675 433.207C98.9179 432.961 99.093 432.616 99.093 432.17V432.099C99.093 431.37 98.8421 430.807 98.3402 430.409C97.8383 430.011 97.1612 429.812 96.3089 429.812C95.3904 429.812 94.6518 430.011 94.093 430.409C93.5343 430.807 93.1792 431.356 93.0277 432.057L86.6214 431.83C86.8108 430.504 87.2985 429.32 88.0845 428.278C88.88 427.227 89.969 426.403 91.3516 425.807C92.7436 425.201 94.415 424.898 96.3658 424.898C97.7578 424.898 99.041 425.063 100.215 425.395C101.389 425.717 102.412 426.19 103.283 426.815C104.155 427.431 104.827 428.188 105.3 429.088C105.783 429.988 106.025 431.015 106.025 432.17V447H99.4908V443.96H99.3203C98.9321 444.699 98.4349 445.324 97.8288 445.835C97.2322 446.347 96.5268 446.73 95.7124 446.986C94.9074 447.241 93.9983 447.369 92.9851 447.369ZM95.13 442.824C95.8781 442.824 96.5504 442.672 97.147 442.369C97.7531 442.066 98.236 441.65 98.5959 441.119C98.9557 440.58 99.1357 439.955 99.1357 439.244V437.17C98.9368 437.275 98.6953 437.369 98.4112 437.455C98.1366 437.54 97.8336 437.62 97.5021 437.696C97.1707 437.772 96.8298 437.838 96.4794 437.895C96.129 437.952 95.7929 438.004 95.4709 438.051C94.8175 438.155 94.2588 438.316 93.7947 438.534C93.3402 438.752 92.9898 439.036 92.7436 439.386C92.5069 439.727 92.3885 440.134 92.3885 440.608C92.3885 441.328 92.6442 441.877 93.1555 442.256C93.6764 442.634 94.3345 442.824 95.13 442.824ZM125.698 425.182V430.494H116.991V447H110.272V425.182H125.698ZM143.727 447.369C142.335 447.369 141.099 447.137 140.02 446.673C138.95 446.2 138.102 445.49 137.477 444.543C136.862 443.586 136.554 442.388 136.554 440.949C136.554 439.737 136.767 438.714 137.193 437.881C137.619 437.047 138.206 436.37 138.955 435.849C139.703 435.329 140.564 434.936 141.54 434.67C142.515 434.396 143.557 434.211 144.665 434.116C145.905 434.003 146.904 433.884 147.662 433.761C148.42 433.629 148.969 433.444 149.31 433.207C149.66 432.961 149.835 432.616 149.835 432.17V432.099C149.835 431.37 149.584 430.807 149.082 430.409C148.58 430.011 147.903 429.812 147.051 429.812C146.133 429.812 145.394 430.011 144.835 430.409C144.277 430.807 143.921 431.356 143.77 432.057L137.364 431.83C137.553 430.504 138.041 429.32 138.827 428.278C139.622 427.227 140.711 426.403 142.094 425.807C143.486 425.201 145.157 424.898 147.108 424.898C148.5 424.898 149.783 425.063 150.957 425.395C152.132 425.717 153.154 426.19 154.026 426.815C154.897 427.431 155.569 428.188 156.043 429.088C156.526 429.988 156.767 431.015 156.767 432.17V447H150.233V443.96H150.062C149.674 444.699 149.177 445.324 148.571 445.835C147.974 446.347 147.269 446.73 146.455 446.986C145.65 447.241 144.741 447.369 143.727 447.369ZM145.872 442.824C146.62 442.824 147.293 442.672 147.889 442.369C148.495 442.066 148.978 441.65 149.338 441.119C149.698 440.58 149.878 439.955 149.878 439.244V437.17C149.679 437.275 149.438 437.369 149.153 437.455C148.879 437.54 148.576 437.62 148.244 437.696C147.913 437.772 147.572 437.838 147.222 437.895C146.871 437.952 146.535 438.004 146.213 438.051C145.56 438.155 145.001 438.316 144.537 438.534C144.082 438.752 143.732 439.036 143.486 439.386C143.249 439.727 143.131 440.134 143.131 440.608C143.131 441.328 143.386 441.877 143.898 442.256C144.419 442.634 145.077 442.824 145.872 442.824ZM176.44 425.182V430.494H167.733V447H161.014V425.182H176.44ZM185.212 447.369C183.82 447.369 182.584 447.137 181.504 446.673C180.434 446.2 179.587 445.49 178.962 444.543C178.346 443.586 178.038 442.388 178.038 440.949C178.038 439.737 178.251 438.714 178.678 437.881C179.104 437.047 179.691 436.37 180.439 435.849C181.187 435.329 182.049 434.936 183.024 434.67C184 434.396 185.041 434.211 186.149 434.116C187.39 434.003 188.389 433.884 189.146 433.761C189.904 433.629 190.453 433.444 190.794 433.207C191.144 432.961 191.32 432.616 191.32 432.17V432.099C191.32 431.37 191.069 430.807 190.567 430.409C190.065 430.011 189.388 429.812 188.536 429.812C187.617 429.812 186.878 430.011 186.32 430.409C185.761 430.807 185.406 431.356 185.254 432.057L178.848 431.83C179.037 430.504 179.525 429.32 180.311 428.278C181.107 427.227 182.196 426.403 183.578 425.807C184.97 425.201 186.642 424.898 188.592 424.898C189.984 424.898 191.268 425.063 192.442 425.395C193.616 425.717 194.639 426.19 195.51 426.815C196.381 427.431 197.054 428.188 197.527 429.088C198.01 429.988 198.251 431.015 198.251 432.17V447H191.717V443.96H191.547C191.159 444.699 190.661 445.324 190.055 445.835C189.459 446.347 188.753 446.73 187.939 446.986C187.134 447.241 186.225 447.369 185.212 447.369ZM187.357 442.824C188.105 442.824 188.777 442.672 189.374 442.369C189.98 442.066 190.463 441.65 190.822 441.119C191.182 440.58 191.362 439.955 191.362 439.244V437.17C191.163 437.275 190.922 437.369 190.638 437.455C190.363 437.54 190.06 437.62 189.729 437.696C189.397 437.772 189.056 437.838 188.706 437.895C188.356 437.952 188.019 438.004 187.697 438.051C187.044 438.155 186.485 438.316 186.021 438.534C185.567 438.752 185.216 439.036 184.97 439.386C184.733 439.727 184.615 440.134 184.615 440.608C184.615 441.328 184.871 441.877 185.382 442.256C185.903 442.634 186.561 442.824 187.357 442.824ZM208.649 447.369C207.257 447.369 206.021 447.137 204.942 446.673C203.872 446.2 203.024 445.49 202.399 444.543C201.784 443.586 201.476 442.388 201.476 440.949C201.476 439.737 201.689 438.714 202.115 437.881C202.541 437.047 203.128 436.37 203.876 435.849C204.625 435.329 205.486 434.936 206.462 434.67C207.437 434.396 208.479 434.211 209.587 434.116C210.827 434.003 211.826 433.884 212.584 433.761C213.341 433.629 213.891 433.444 214.232 433.207C214.582 432.961 214.757 432.616 214.757 432.17V432.099C214.757 431.37 214.506 430.807 214.004 430.409C213.502 430.011 212.825 429.812 211.973 429.812C211.054 429.812 210.316 430.011 209.757 430.409C209.198 430.807 208.843 431.356 208.692 432.057L202.286 431.83C202.475 430.504 202.963 429.32 203.749 428.278C204.544 427.227 205.633 426.403 207.016 425.807C208.408 425.201 210.079 424.898 212.03 424.898C213.422 424.898 214.705 425.063 215.879 425.395C217.054 425.717 218.076 426.19 218.947 426.815C219.819 427.431 220.491 428.188 220.964 429.088C221.447 429.988 221.689 431.015 221.689 432.17V447H215.155V443.96H214.984C214.596 444.699 214.099 445.324 213.493 445.835C212.896 446.347 212.191 446.73 211.376 446.986C210.571 447.241 209.662 447.369 208.649 447.369ZM210.794 442.824C211.542 442.824 212.214 442.672 212.811 442.369C213.417 442.066 213.9 441.65 214.26 441.119C214.62 440.58 214.8 439.955 214.8 439.244V437.17C214.601 437.275 214.359 437.369 214.075 437.455C213.801 437.54 213.498 437.62 213.166 437.696C212.835 437.772 212.494 437.838 212.143 437.895C211.793 437.952 211.457 438.004 211.135 438.051C210.482 438.155 209.923 438.316 209.459 438.534C209.004 438.752 208.654 439.036 208.408 439.386C208.171 439.727 208.053 440.134 208.053 440.608C208.053 441.328 208.308 441.877 208.82 442.256C209.34 442.634 209.999 442.824 210.794 442.824ZM225.936 455.182V425.182H232.811V428.918H233.024C233.308 428.255 233.711 427.616 234.232 427C234.762 426.384 235.434 425.883 236.249 425.494C237.072 425.097 238.057 424.898 239.203 424.898C240.718 424.898 242.134 425.295 243.45 426.091C244.776 426.886 245.846 428.113 246.661 429.77C247.475 431.427 247.882 433.539 247.882 436.105C247.882 438.577 247.489 440.646 246.703 442.312C245.927 443.979 244.875 445.229 243.55 446.062C242.233 446.896 240.77 447.312 239.161 447.312C238.062 447.312 237.11 447.133 236.305 446.773C235.5 446.413 234.823 445.939 234.274 445.352C233.734 444.765 233.318 444.135 233.024 443.463H232.882V455.182H225.936ZM232.74 436.091C232.74 437.265 232.896 438.288 233.209 439.159C233.531 440.03 233.99 440.707 234.587 441.19C235.193 441.664 235.917 441.901 236.76 441.901C237.612 441.901 238.337 441.664 238.933 441.19C239.53 440.707 239.98 440.03 240.283 439.159C240.595 438.288 240.751 437.265 240.751 436.091C240.751 434.917 240.595 433.899 240.283 433.037C239.98 432.175 239.53 431.508 238.933 431.034C238.346 430.561 237.622 430.324 236.76 430.324C235.908 430.324 235.183 430.556 234.587 431.02C233.99 431.484 233.531 432.147 233.209 433.009C232.896 433.87 232.74 434.898 232.74 436.091ZM273.326 439.585L278.667 425.182H283.752L275.556 447H271.096L263.113 425.182H268.184L273.326 439.585ZM266.692 425.182V447H260.116V425.182H266.692ZM280.357 447V425.182H286.849V447H280.357ZM297.204 447.369C295.812 447.369 294.576 447.137 293.496 446.673C292.426 446.2 291.579 445.49 290.954 444.543C290.338 443.586 290.031 442.388 290.031 440.949C290.031 439.737 290.244 438.714 290.67 437.881C291.096 437.047 291.683 436.37 292.431 435.849C293.179 435.329 294.041 434.936 295.016 434.67C295.992 434.396 297.033 434.211 298.141 434.116C299.382 434.003 300.381 433.884 301.138 433.761C301.896 433.629 302.445 433.444 302.786 433.207C303.137 432.961 303.312 432.616 303.312 432.17V432.099C303.312 431.37 303.061 430.807 302.559 430.409C302.057 430.011 301.38 429.812 300.528 429.812C299.609 429.812 298.871 430.011 298.312 430.409C297.753 430.807 297.398 431.356 297.246 432.057L290.84 431.83C291.03 430.504 291.517 429.32 292.303 428.278C293.099 427.227 294.188 426.403 295.57 425.807C296.962 425.201 298.634 424.898 300.585 424.898C301.977 424.898 303.26 425.063 304.434 425.395C305.608 425.717 306.631 426.19 307.502 426.815C308.373 427.431 309.046 428.188 309.519 429.088C310.002 429.988 310.244 431.015 310.244 432.17V447H303.71V443.96H303.539C303.151 444.699 302.654 445.324 302.048 445.835C301.451 446.347 300.746 446.73 299.931 446.986C299.126 447.241 298.217 447.369 297.204 447.369ZM299.349 442.824C300.097 442.824 300.769 442.672 301.366 442.369C301.972 442.066 302.455 441.65 302.815 441.119C303.174 440.58 303.354 439.955 303.354 439.244V437.17C303.156 437.275 302.914 437.369 302.63 437.455C302.355 437.54 302.052 437.62 301.721 437.696C301.389 437.772 301.049 437.838 300.698 437.895C300.348 437.952 300.012 438.004 299.69 438.051C299.036 438.155 298.478 438.316 298.013 438.534C297.559 438.752 297.209 439.036 296.962 439.386C296.726 439.727 296.607 440.134 296.607 440.608C296.607 441.328 296.863 441.877 297.374 442.256C297.895 442.634 298.553 442.824 299.349 442.824ZM314.491 425.182H321.067V441.645H326.536V425.182H333.113V441.645H338.582V425.182H345.158V447H314.491V425.182ZM363.876 425.182L367.47 432.369L371.192 425.182H378.195L372.101 436.091L378.422 447H371.476L367.47 439.756L363.564 447H356.518L362.854 436.091L356.831 425.182H363.876ZM385.613 455.182C384.78 455.182 383.994 455.116 383.255 454.983C382.516 454.86 381.882 454.694 381.352 454.486L382.886 449.443C383.567 449.67 384.183 449.803 384.732 449.841C385.291 449.879 385.769 449.789 386.167 449.571C386.574 449.363 386.887 448.989 387.104 448.449L387.374 447.795L379.619 425.182H386.891L390.911 440.75H391.138L395.215 425.182H402.531L394.306 449.088C393.908 450.281 393.345 451.332 392.616 452.241C391.896 453.16 390.963 453.88 389.817 454.401C388.681 454.921 387.28 455.182 385.613 455.182ZM405.194 455.182V425.182H412.069V428.918H412.282C412.566 428.255 412.969 427.616 413.489 427C414.02 426.384 414.692 425.883 415.506 425.494C416.33 425.097 417.315 424.898 418.461 424.898C419.976 424.898 421.392 425.295 422.708 426.091C424.034 426.886 425.104 428.113 425.918 429.77C426.733 431.427 427.14 433.539 427.14 436.105C427.14 438.577 426.747 440.646 425.961 442.312C425.184 443.979 424.133 445.229 422.808 446.062C421.491 446.896 420.028 447.312 418.418 447.312C417.32 447.312 416.368 447.133 415.563 446.773C414.758 446.413 414.081 445.939 413.532 445.352C412.992 444.765 412.576 444.135 412.282 443.463H412.14V455.182H405.194ZM411.998 436.091C411.998 437.265 412.154 438.288 412.467 439.159C412.789 440.03 413.248 440.707 413.844 441.19C414.451 441.664 415.175 441.901 416.018 441.901C416.87 441.901 417.594 441.664 418.191 441.19C418.788 440.707 419.237 440.03 419.54 439.159C419.853 438.288 420.009 437.265 420.009 436.091C420.009 434.917 419.853 433.899 419.54 433.037C419.237 432.175 418.788 431.508 418.191 431.034C417.604 430.561 416.879 430.324 416.018 430.324C415.165 430.324 414.441 430.556 413.844 431.02C413.248 431.484 412.789 432.147 412.467 433.009C412.154 433.87 411.998 434.898 411.998 436.091ZM429.274 453.435V441.645H430.908C431.4 441.399 431.793 440.925 432.087 440.224C432.38 439.514 432.612 438.686 432.783 437.739C432.963 436.782 433.095 435.788 433.18 434.756C433.275 433.714 433.36 432.734 433.436 431.815L433.947 425.182H451.618V441.645H455.027V453.435H448.436V447H436.036V453.435H429.274ZM437.669 441.645H445.141V430.352H439.743L439.629 431.815C439.497 434.164 439.288 436.134 439.004 437.724C438.72 439.315 438.275 440.622 437.669 441.645ZM464.391 447.369C462.999 447.369 461.763 447.137 460.684 446.673C459.614 446.2 458.766 445.49 458.141 444.543C457.526 443.586 457.218 442.388 457.218 440.949C457.218 439.737 457.431 438.714 457.857 437.881C458.283 437.047 458.871 436.37 459.619 435.849C460.367 435.329 461.228 434.936 462.204 434.67C463.179 434.396 464.221 434.211 465.329 434.116C466.569 434.003 467.568 433.884 468.326 433.761C469.084 433.629 469.633 433.444 469.974 433.207C470.324 432.961 470.499 432.616 470.499 432.17V432.099C470.499 431.37 470.248 430.807 469.746 430.409C469.245 430.011 468.567 429.812 467.715 429.812C466.797 429.812 466.058 430.011 465.499 430.409C464.941 430.807 464.585 431.356 464.434 432.057L458.028 431.83C458.217 430.504 458.705 429.32 459.491 428.278C460.286 427.227 461.375 426.403 462.758 425.807C464.15 425.201 465.821 424.898 467.772 424.898C469.164 424.898 470.447 425.063 471.621 425.395C472.796 425.717 473.818 426.19 474.69 426.815C475.561 427.431 476.233 428.188 476.707 429.088C477.19 429.988 477.431 431.015 477.431 432.17V447H470.897V443.96H470.727C470.338 444.699 469.841 445.324 469.235 445.835C468.638 446.347 467.933 446.73 467.119 446.986C466.314 447.241 465.405 447.369 464.391 447.369ZM466.536 442.824C467.284 442.824 467.957 442.672 468.553 442.369C469.159 442.066 469.642 441.65 470.002 441.119C470.362 440.58 470.542 439.955 470.542 439.244V437.17C470.343 437.275 470.102 437.369 469.817 437.455C469.543 437.54 469.24 437.62 468.908 437.696C468.577 437.772 468.236 437.838 467.886 437.895C467.535 437.952 467.199 438.004 466.877 438.051C466.224 438.155 465.665 438.316 465.201 438.534C464.746 438.752 464.396 439.036 464.15 439.386C463.913 439.727 463.795 440.134 463.795 440.608C463.795 441.328 464.05 441.877 464.562 442.256C465.083 442.634 465.741 442.824 466.536 442.824ZM497.062 433.378V438.676H485.869V433.378H497.062ZM488.255 425.182V447H481.678V425.182H488.255ZM501.252 425.182V447H494.718V425.182H501.252ZM531.121 434.188V437.994H517.371V434.188H531.121ZM524.246 447.412C521.954 447.412 519.984 446.943 518.337 446.006C516.698 445.059 515.434 443.742 514.544 442.057C513.663 440.362 513.223 438.397 513.223 436.162C513.223 433.918 513.663 431.953 514.544 430.267C515.434 428.572 516.698 427.256 518.337 426.318C519.984 425.371 521.954 424.898 524.246 424.898C526.537 424.898 528.502 425.371 530.141 426.318C531.788 427.256 533.053 428.572 533.933 430.267C534.823 431.953 535.268 433.918 535.268 436.162C535.268 438.397 534.823 440.362 533.933 442.057C533.053 443.742 531.788 445.059 530.141 446.006C528.502 446.943 526.537 447.412 524.246 447.412ZM524.288 442.17C525.122 442.17 525.827 441.915 526.405 441.403C526.982 440.892 527.423 440.182 527.726 439.273C528.038 438.364 528.195 437.312 528.195 436.119C528.195 434.907 528.038 433.847 527.726 432.938C527.423 432.028 526.982 431.318 526.405 430.807C525.827 430.295 525.122 430.04 524.288 430.04C523.427 430.04 522.697 430.295 522.101 430.807C521.514 431.318 521.064 432.028 520.751 432.938C520.448 433.847 520.297 434.907 520.297 436.119C520.297 437.312 520.448 438.364 520.751 439.273C521.064 440.182 521.514 440.892 522.101 441.403C522.697 441.915 523.427 442.17 524.288 442.17ZM555.886 434.188V437.994H542.136V434.188H555.886ZM549.011 447.412C546.72 447.412 544.75 446.943 543.102 446.006C541.464 445.059 540.2 443.742 539.31 442.057C538.429 440.362 537.989 438.397 537.989 436.162C537.989 433.918 538.429 431.953 539.31 430.267C540.2 428.572 541.464 427.256 543.102 426.318C544.75 425.371 546.72 424.898 549.011 424.898C551.303 424.898 553.268 425.371 554.906 426.318C556.554 427.256 557.818 428.572 558.699 430.267C559.589 431.953 560.034 433.918 560.034 436.162C560.034 438.397 559.589 440.362 558.699 442.057C557.818 443.742 556.554 445.059 554.906 446.006C553.268 446.943 551.303 447.412 549.011 447.412ZM549.054 442.17C549.887 442.17 550.593 441.915 551.17 441.403C551.748 440.892 552.188 440.182 552.491 439.273C552.804 438.364 552.96 437.312 552.96 436.119C552.96 434.907 552.804 433.847 552.491 432.938C552.188 432.028 551.748 431.318 551.17 430.807C550.593 430.295 549.887 430.04 549.054 430.04C548.192 430.04 547.463 430.295 546.866 430.807C546.279 431.318 545.83 432.028 545.517 432.938C545.214 433.847 545.062 434.907 545.062 436.119C545.062 437.312 545.214 438.364 545.517 439.273C545.83 440.182 546.279 440.892 546.866 441.403C547.463 441.915 548.192 442.17 549.054 442.17ZM563.592 455.182V425.182H570.467V428.918H570.68C570.964 428.255 571.367 427.616 571.888 427C572.418 426.384 573.09 425.883 573.905 425.494C574.729 425.097 575.714 424.898 576.859 424.898C578.375 424.898 579.79 425.295 581.107 426.091C582.432 426.886 583.502 428.113 584.317 429.77C585.131 431.427 585.538 433.539 585.538 436.105C585.538 438.577 585.145 440.646 584.359 442.312C583.583 443.979 582.532 445.229 581.206 446.062C579.89 446.896 578.427 447.312 576.817 447.312C575.718 447.312 574.767 447.133 573.962 446.773C573.157 446.413 572.48 445.939 571.93 445.352C571.391 444.765 570.974 444.135 570.68 443.463H570.538V455.182H563.592ZM570.396 436.091C570.396 437.265 570.553 438.288 570.865 439.159C571.187 440.03 571.646 440.707 572.243 441.19C572.849 441.664 573.573 441.901 574.416 441.901C575.268 441.901 575.993 441.664 576.589 441.19C577.186 440.707 577.636 440.03 577.939 439.159C578.251 438.288 578.408 437.265 578.408 436.091C578.408 434.917 578.251 433.899 577.939 433.037C577.636 432.175 577.186 431.508 576.589 431.034C576.002 430.561 575.278 430.324 574.416 430.324C573.564 430.324 572.839 430.556 572.243 431.02C571.646 431.484 571.187 432.147 570.865 433.009C570.553 433.87 570.396 434.898 570.396 436.091ZM608.823 425.182V447H602.289V425.182H608.823ZM605.513 434.486V439.798C605.144 439.988 604.623 440.172 603.951 440.352C603.288 440.523 602.587 440.665 601.849 440.778C601.12 440.892 600.471 440.949 599.903 440.949C596.55 440.949 593.923 440.31 592.019 439.031C590.125 437.743 589.178 435.651 589.178 432.753V425.168H595.67V432.753C595.67 433.501 595.788 434.083 596.025 434.5C596.271 434.917 596.697 435.21 597.303 435.381C597.919 435.551 598.785 435.636 599.903 435.636C600.755 435.636 601.626 435.542 602.516 435.352C603.416 435.153 604.415 434.865 605.513 434.486ZM611.98 447L611.938 441.645H612.634C613.107 441.645 613.519 441.522 613.869 441.276C614.22 441.029 614.513 440.636 614.75 440.097C614.987 439.547 615.176 438.842 615.318 437.98C615.46 437.118 615.55 436.072 615.588 434.841L615.943 425.182H633.216V447H626.639V430.494H622.122L621.781 436.773C621.696 438.619 621.455 440.196 621.057 441.503C620.669 442.8 620.138 443.851 619.466 444.656C618.803 445.461 618.017 446.053 617.108 446.432C616.199 446.811 615.171 447 614.026 447H611.98ZM654.519 434.188V437.994H640.769V434.188H654.519ZM647.644 447.412C645.353 447.412 643.383 446.943 641.735 446.006C640.097 445.059 638.833 443.742 637.942 442.057C637.062 440.362 636.621 438.397 636.621 436.162C636.621 433.918 637.062 431.953 637.942 430.267C638.833 428.572 640.097 427.256 641.735 426.318C643.383 425.371 645.353 424.898 647.644 424.898C649.936 424.898 651.901 425.371 653.539 426.318C655.187 427.256 656.451 428.572 657.332 430.267C658.222 431.953 658.667 433.918 658.667 436.162C658.667 438.397 658.222 440.362 657.332 442.057C656.451 443.742 655.187 445.059 653.539 446.006C651.901 446.943 649.936 447.412 647.644 447.412ZM647.687 442.17C648.52 442.17 649.226 441.915 649.803 441.403C650.381 440.892 650.821 440.182 651.124 439.273C651.437 438.364 651.593 437.312 651.593 436.119C651.593 434.907 651.437 433.847 651.124 432.938C650.821 432.028 650.381 431.318 649.803 430.807C649.226 430.295 648.52 430.04 647.687 430.04C646.825 430.04 646.096 430.295 645.499 430.807C644.912 431.318 644.462 432.028 644.15 432.938C643.847 433.847 643.695 434.907 643.695 436.119C643.695 437.312 643.847 438.364 644.15 439.273C644.462 440.182 644.912 440.892 645.499 441.403C646.096 441.915 646.825 442.17 647.687 442.17ZM677.651 425.182V430.494H668.944V447H662.225V425.182H677.651ZM677.673 453.435V441.645H679.306C679.799 441.399 680.192 440.925 680.485 440.224C680.779 439.514 681.011 438.686 681.181 437.739C681.361 436.782 681.494 435.788 681.579 434.756C681.674 433.714 681.759 432.734 681.835 431.815L682.346 425.182H700.016V441.645H703.425V453.435H696.835V447H684.434V453.435H677.673ZM686.067 441.645H693.539V430.352H688.141L688.028 431.815C687.895 434.164 687.687 436.134 687.403 437.724C687.119 439.315 686.674 440.622 686.067 441.645ZM705.134 453.435V441.645H706.767C707.259 441.399 707.652 440.925 707.946 440.224C708.24 439.514 708.472 438.686 708.642 437.739C708.822 436.782 708.955 435.788 709.04 434.756C709.134 433.714 709.22 432.734 709.295 431.815L709.807 425.182H727.477V441.645H730.886V453.435H724.295V447H711.895V453.435H705.134ZM713.528 441.645H721V430.352H715.602L715.489 431.815C715.356 434.164 715.148 436.134 714.864 437.724C714.58 439.315 714.134 440.622 713.528 441.645ZM751.16 434.188V437.994H737.41V434.188H751.16ZM744.285 447.412C741.993 447.412 740.023 446.943 738.376 446.006C736.737 445.059 735.473 443.742 734.583 442.057C733.702 440.362 733.262 438.397 733.262 436.162C733.262 433.918 733.702 431.953 734.583 430.267C735.473 428.572 736.737 427.256 738.376 426.318C740.023 425.371 741.993 424.898 744.285 424.898C746.576 424.898 748.541 425.371 750.18 426.318C751.827 427.256 753.092 428.572 753.972 430.267C754.862 431.953 755.308 433.918 755.308 436.162C755.308 438.397 754.862 440.362 753.972 442.057C753.092 443.742 751.827 445.059 750.18 446.006C748.541 446.943 746.576 447.412 744.285 447.412ZM744.327 442.17C745.161 442.17 745.866 441.915 746.444 441.403C747.022 440.892 747.462 440.182 747.765 439.273C748.077 438.364 748.234 437.312 748.234 436.119C748.234 434.907 748.077 433.847 747.765 432.938C747.462 432.028 747.022 431.318 746.444 430.807C745.866 430.295 745.161 430.04 744.327 430.04C743.466 430.04 742.737 430.295 742.14 430.807C741.553 431.318 741.103 432.028 740.79 432.938C740.487 433.847 740.336 434.907 740.336 436.119C740.336 437.312 740.487 438.364 740.79 439.273C741.103 440.182 741.553 440.892 742.14 441.403C742.737 441.915 743.466 442.17 744.327 442.17ZM774.292 425.182V430.494H765.585V447H758.866V425.182H774.292ZM777.85 447.412C776.827 447.412 775.951 447.052 775.222 446.332C774.503 445.613 774.147 444.741 774.157 443.719C774.147 442.715 774.503 441.858 775.222 441.148C775.951 440.428 776.827 440.068 777.85 440.068C778.816 440.068 779.668 440.428 780.407 441.148C781.155 441.858 781.534 442.715 781.543 443.719C781.534 444.401 781.354 445.021 781.004 445.58C780.663 446.138 780.213 446.583 779.654 446.915C779.105 447.246 778.504 447.412 777.85 447.412Z" fill="white"/>
<circle cx="784.5" cy="79.5" r="55" fill="white" stroke="#FF6DFE" stroke-width="3"/>
<path d="M773.71 47.9091L783.773 68.0341L794.193 47.9091H813.801L796.739 78.4545L814.438 109H794.989L783.773 88.7159L772.835 109H753.108L770.847 78.4545L753.983 47.9091H773.71Z" fill="black"/>
<defs>
<filter id="filter0_ddii_404_101" x="0" y="31" width="834" height="484" filterUnits="userSpaceOnUse" color-interpolation-filters="sRGB">
<feFlood flood-opacity="0" result="BackgroundImageFix"/>
<feColorMatrix in="SourceAlpha" type="matrix" values="0 0 0 0 0 0 0 0 0 0 0 0 0 0 0 0 0 0 127 0" result="hardAlpha"/>
<feMorphology radius="5" operator="dilate" in="SourceAlpha" result="effect1_dropShadow_404_101"/>
<feOffset dx="-10" dy="-10"/>
<feGaussianBlur stdDeviation="2.5"/>
<feComposite in2="hardAlpha" operator="out"/>
<feColorMatrix type="matrix" values="0 0 0 0 0.133333 0 0 0 0 0.0117647 0 0 0 0 0.396078 0 0 0 0.25 0"/>
<feBlend mode="normal" in2="BackgroundImageFix" result="effect1_dropShadow_404_101"/>
<feColorMatrix in="SourceAlpha" type="matrix" values="0 0 0 0 0 0 0 0 0 0 0 0 0 0 0 0 0 0 127 0" result="hardAlpha"/>
<feMorphology radius="5" operator="dilate" in="SourceAlpha" result="effect2_dropShadow_404_101"/>
<feOffset dx="10" dy="10"/>
<feGaussianBlur stdDeviation="2.5"/>
<feComposite in2="hardAlpha" operator="out"/>
<feColorMatrix type="matrix" values="0 0 0 0 0.133941 0 0 0 0 0.0133056 0 0 0 0 0.395808 0 0 0 0.25 0"/>
<feBlend mode="normal" in2="effect1_dropShadow_404_101" result="effect2_dropShadow_404_101"/>
<feBlend mode="normal" in="SourceGraphic" in2="effect2_dropShadow_404_101" result="shape"/>
<feColorMatrix in="SourceAlpha" type="matrix" values="0 0 0 0 0 0 0 0 0 0 0 0 0 0 0 0 0 0 127 0" result="hardAlpha"/>
<feMorphology radius="5" operator="erode" in="SourceAlpha" result="effect3_innerShadow_404_101"/>
<feOffset dx="-10" dy="-10"/>
<feGaussianBlur stdDeviation="2.5"/>
<feComposite in2="hardAlpha" operator="arithmetic" k2="-1" k3="1"/>
<feColorMatrix type="matrix" values="0 0 0 0 0.509804 0 0 0 0 0.337255 0 0 0 0 0.721569 0 0 0 0.16 0"/>
<feBlend mode="normal" in2="shape" result="effect3_innerShadow_404_101"/>
<feColorMatrix in="SourceAlpha" type="matrix" values="0 0 0 0 0 0 0 0 0 0 0 0 0 0 0 0 0 0 127 0" result="hardAlpha"/>
<feMorphology radius="5" operator="erode" in="SourceAlpha" result="effect4_innerShadow_404_101"/>
<feOffset dx="10" dy="10"/>
<feGaussianBlur stdDeviation="2.5"/>
<feComposite in2="hardAlpha" operator="arithmetic" k2="-1" k3="1"/>
<feColorMatrix type="matrix" values="0 0 0 0 0.505882 0 0 0 0 0.329412 0 0 0 0 0.72549 0 0 0 0.16 0"/>
<feBlend mode="normal" in2="effect3_innerShadow_404_101" result="effect4_innerShadow_404_101"/>
</filter>
</defs>
</svg>
