<svg width="838" height="529" viewBox="0 0 838 529" fill="none" xmlns="http://www.w3.org/2000/svg">
<g filter="url(#filter0_ddii_403_95)">
<rect x="20" y="52" width="798" height="457" rx="60" fill="#7E40D0" fill-opacity="0.8" shape-rendering="crispEdges"/>
<rect x="20.5" y="52.5" width="797" height="456" rx="59.5" stroke="#C53D41" shape-rendering="crispEdges"/>
</g>
<path d="M346.827 103.449H339.724C339.63 102.72 339.436 102.062 339.142 101.474C338.848 100.887 338.46 100.385 337.977 99.9688C337.494 99.5521 336.921 99.2348 336.259 99.017C335.605 98.7898 334.881 98.6761 334.085 98.6761C332.674 98.6761 331.457 99.0218 330.435 99.7131C329.421 100.404 328.64 101.403 328.091 102.71C327.551 104.017 327.281 105.598 327.281 107.455C327.281 109.386 327.556 111.006 328.105 112.312C328.664 113.61 329.445 114.59 330.449 115.253C331.462 115.906 332.66 116.233 334.043 116.233C334.819 116.233 335.525 116.134 336.159 115.935C336.803 115.736 337.366 115.447 337.849 115.068C338.342 114.68 338.744 114.211 339.057 113.662C339.379 113.103 339.601 112.473 339.724 111.773L346.827 111.815C346.704 113.103 346.33 114.372 345.705 115.622C345.089 116.872 344.241 118.013 343.162 119.045C342.082 120.068 340.766 120.883 339.213 121.489C337.67 122.095 335.899 122.398 333.901 122.398C331.268 122.398 328.91 121.82 326.827 120.665C324.753 119.5 323.115 117.805 321.912 115.58C320.709 113.354 320.108 110.646 320.108 107.455C320.108 104.254 320.719 101.541 321.94 99.3153C323.162 97.09 324.814 95.3996 326.898 94.2443C328.981 93.089 331.315 92.5114 333.901 92.5114C335.662 92.5114 337.291 92.7576 338.787 93.25C340.283 93.733 341.599 94.4432 342.736 95.3807C343.872 96.3087 344.795 97.4498 345.506 98.804C346.216 100.158 346.656 101.706 346.827 103.449ZM357.001 122.369C355.609 122.369 354.373 122.137 353.293 121.673C352.223 121.2 351.376 120.49 350.751 119.543C350.135 118.586 349.827 117.388 349.827 115.949C349.827 114.737 350.04 113.714 350.467 112.881C350.893 112.047 351.48 111.37 352.228 110.849C352.976 110.329 353.838 109.936 354.813 109.67C355.789 109.396 356.83 109.211 357.938 109.116C359.179 109.003 360.178 108.884 360.935 108.761C361.693 108.629 362.242 108.444 362.583 108.207C362.933 107.961 363.109 107.616 363.109 107.17V107.099C363.109 106.37 362.858 105.807 362.356 105.409C361.854 105.011 361.177 104.812 360.325 104.812C359.406 104.812 358.667 105.011 358.109 105.409C357.55 105.807 357.195 106.356 357.043 107.057L350.637 106.83C350.826 105.504 351.314 104.32 352.1 103.278C352.896 102.227 353.985 101.403 355.367 100.807C356.759 100.201 358.431 99.8977 360.381 99.8977C361.773 99.8977 363.057 100.063 364.231 100.395C365.405 100.717 366.428 101.19 367.299 101.815C368.17 102.431 368.843 103.188 369.316 104.088C369.799 104.988 370.04 106.015 370.04 107.17V122H363.506V118.96H363.336C362.948 119.699 362.451 120.324 361.844 120.835C361.248 121.347 360.542 121.73 359.728 121.986C358.923 122.241 358.014 122.369 357.001 122.369ZM359.146 117.824C359.894 117.824 360.566 117.672 361.163 117.369C361.769 117.066 362.252 116.65 362.612 116.119C362.971 115.58 363.151 114.955 363.151 114.244V112.17C362.952 112.275 362.711 112.369 362.427 112.455C362.152 112.54 361.849 112.62 361.518 112.696C361.186 112.772 360.845 112.838 360.495 112.895C360.145 112.952 359.808 113.004 359.487 113.051C358.833 113.155 358.274 113.316 357.81 113.534C357.356 113.752 357.005 114.036 356.759 114.386C356.522 114.727 356.404 115.134 356.404 115.608C356.404 116.328 356.66 116.877 357.171 117.256C357.692 117.634 358.35 117.824 359.146 117.824ZM389.671 108.378V113.676H378.478V108.378H389.671ZM380.864 100.182V122H374.288V100.182H380.864ZM393.862 100.182V122H387.327V100.182H393.862ZM417.722 100.182V122H411.188V100.182H417.722ZM414.412 109.486V114.798C414.043 114.988 413.522 115.172 412.849 115.352C412.187 115.523 411.486 115.665 410.747 115.778C410.018 115.892 409.369 115.949 408.801 115.949C405.449 115.949 402.821 115.31 400.918 114.031C399.024 112.743 398.077 110.651 398.077 107.753V100.168H404.568V107.753C404.568 108.501 404.687 109.083 404.923 109.5C405.17 109.917 405.596 110.21 406.202 110.381C406.817 110.551 407.684 110.636 408.801 110.636C409.653 110.636 410.525 110.542 411.415 110.352C412.314 110.153 413.313 109.865 414.412 109.486ZM428.521 113.009L435.495 100.182H442.171V122H435.594V109.131L428.634 122H421.944V100.182H428.521V113.009ZM446.592 130.182V100.182H453.467V103.918H453.68C453.964 103.255 454.367 102.616 454.888 102C455.418 101.384 456.09 100.883 456.905 100.494C457.729 100.097 458.714 99.8977 459.859 99.8977C461.375 99.8977 462.79 100.295 464.107 101.091C465.432 101.886 466.502 103.113 467.317 104.77C468.131 106.427 468.538 108.539 468.538 111.105C468.538 113.577 468.145 115.646 467.359 117.312C466.583 118.979 465.532 120.229 464.206 121.062C462.89 121.896 461.427 122.312 459.817 122.312C458.718 122.312 457.767 122.133 456.962 121.773C456.157 121.413 455.48 120.939 454.93 120.352C454.391 119.765 453.974 119.135 453.68 118.463H453.538V130.182H446.592ZM453.396 111.091C453.396 112.265 453.553 113.288 453.865 114.159C454.187 115.03 454.646 115.707 455.243 116.19C455.849 116.664 456.573 116.901 457.416 116.901C458.268 116.901 458.993 116.664 459.589 116.19C460.186 115.707 460.636 115.03 460.939 114.159C461.251 113.288 461.408 112.265 461.408 111.091C461.408 109.917 461.251 108.899 460.939 108.037C460.636 107.175 460.186 106.508 459.589 106.034C459.002 105.561 458.278 105.324 457.416 105.324C456.564 105.324 455.839 105.556 455.243 106.02C454.646 106.484 454.187 107.147 453.865 108.009C453.553 108.87 453.396 109.898 453.396 111.091ZM78.8438 146.619V140.909H103.432V146.619H94.6108V170H87.679V146.619H78.8438ZM110.048 170.369C108.656 170.369 107.42 170.137 106.34 169.673C105.27 169.2 104.423 168.49 103.798 167.543C103.182 166.586 102.874 165.388 102.874 163.949C102.874 162.737 103.087 161.714 103.513 160.881C103.94 160.047 104.527 159.37 105.275 158.849C106.023 158.329 106.885 157.936 107.86 157.67C108.835 157.396 109.877 157.211 110.985 157.116C112.226 157.003 113.225 156.884 113.982 156.761C114.74 156.629 115.289 156.444 115.63 156.207C115.98 155.961 116.156 155.616 116.156 155.17V155.099C116.156 154.37 115.905 153.807 115.403 153.409C114.901 153.011 114.224 152.812 113.371 152.812C112.453 152.812 111.714 153.011 111.156 153.409C110.597 153.807 110.242 154.356 110.09 155.057L103.684 154.83C103.873 153.504 104.361 152.32 105.147 151.278C105.942 150.227 107.031 149.403 108.414 148.807C109.806 148.201 111.478 147.898 113.428 147.898C114.82 147.898 116.103 148.063 117.278 148.395C118.452 148.717 119.475 149.19 120.346 149.815C121.217 150.431 121.889 151.188 122.363 152.088C122.846 152.988 123.087 154.015 123.087 155.17V170H116.553V166.96H116.383C115.995 167.699 115.497 168.324 114.891 168.835C114.295 169.347 113.589 169.73 112.775 169.986C111.97 170.241 111.061 170.369 110.048 170.369ZM112.192 165.824C112.941 165.824 113.613 165.672 114.21 165.369C114.816 165.066 115.299 164.65 115.658 164.119C116.018 163.58 116.198 162.955 116.198 162.244V160.17C115.999 160.275 115.758 160.369 115.474 160.455C115.199 160.54 114.896 160.62 114.565 160.696C114.233 160.772 113.892 160.838 113.542 160.895C113.192 160.952 112.855 161.004 112.533 161.051C111.88 161.155 111.321 161.316 110.857 161.534C110.403 161.752 110.052 162.036 109.806 162.386C109.569 162.727 109.451 163.134 109.451 163.608C109.451 164.328 109.707 164.877 110.218 165.256C110.739 165.634 111.397 165.824 112.192 165.824ZM125.406 153.494V148.182H145.861V153.494H138.886V170H132.295V153.494H125.406ZM154.657 170.369C153.265 170.369 152.029 170.137 150.95 169.673C149.879 169.2 149.032 168.49 148.407 167.543C147.791 166.586 147.484 165.388 147.484 163.949C147.484 162.737 147.697 161.714 148.123 160.881C148.549 160.047 149.136 159.37 149.884 158.849C150.632 158.329 151.494 157.936 152.469 157.67C153.445 157.396 154.487 157.211 155.594 157.116C156.835 157.003 157.834 156.884 158.592 156.761C159.349 156.629 159.898 156.444 160.239 156.207C160.59 155.961 160.765 155.616 160.765 155.17V155.099C160.765 154.37 160.514 153.807 160.012 153.409C159.51 153.011 158.833 152.812 157.981 152.812C157.062 152.812 156.324 153.011 155.765 153.409C155.206 153.807 154.851 154.356 154.7 155.057L148.293 154.83C148.483 153.504 148.97 152.32 149.756 151.278C150.552 150.227 151.641 149.403 153.023 148.807C154.415 148.201 156.087 147.898 158.038 147.898C159.43 147.898 160.713 148.063 161.887 148.395C163.061 148.717 164.084 149.19 164.955 149.815C165.826 150.431 166.499 151.188 166.972 152.088C167.455 152.988 167.697 154.015 167.697 155.17V170H161.163V166.96H160.992C160.604 167.699 160.107 168.324 159.501 168.835C158.904 169.347 158.199 169.73 157.384 169.986C156.579 170.241 155.67 170.369 154.657 170.369ZM156.802 165.824C157.55 165.824 158.222 165.672 158.819 165.369C159.425 165.066 159.908 164.65 160.268 164.119C160.628 163.58 160.808 162.955 160.808 162.244V160.17C160.609 160.275 160.367 160.369 160.083 160.455C159.808 160.54 159.505 160.62 159.174 160.696C158.843 160.772 158.502 160.838 158.151 160.895C157.801 160.952 157.465 161.004 157.143 161.051C156.489 161.155 155.931 161.316 155.467 161.534C155.012 161.752 154.662 162.036 154.415 162.386C154.179 162.727 154.06 163.134 154.06 163.608C154.06 164.328 154.316 164.877 154.827 165.256C155.348 165.634 156.006 165.824 156.802 165.824ZM177.853 148.182L181.447 155.369L185.168 148.182H192.171L186.077 159.091L192.398 170H185.452L181.447 162.756L177.54 170H170.495L176.83 159.091L170.808 148.182H177.853ZM209.845 148.182L213.439 155.369L217.161 148.182H224.163L218.07 159.091L224.391 170H217.445L213.439 162.756L209.533 170H202.487L208.822 159.091L202.8 148.182H209.845ZM225.587 148.182H232.548L236.283 162.77L239.82 148.182H246.724L239.423 169.915V178.182H232.888V169.915L225.587 148.182ZM268.425 148.182V170H261.891V148.182H268.425ZM265.115 157.486V162.798C264.746 162.988 264.225 163.172 263.553 163.352C262.89 163.523 262.189 163.665 261.45 163.778C260.721 163.892 260.072 163.949 259.504 163.949C256.152 163.949 253.524 163.31 251.621 162.031C249.727 160.743 248.78 158.651 248.78 155.753V148.168H255.271V155.753C255.271 156.501 255.39 157.083 255.626 157.5C255.873 157.917 256.299 158.21 256.905 158.381C257.52 158.551 258.387 158.636 259.504 158.636C260.357 158.636 261.228 158.542 262.118 158.352C263.018 158.153 264.017 157.865 265.115 157.486ZM388.272 166.733C387.249 166.733 386.373 166.373 385.644 165.653C384.924 164.934 384.569 164.062 384.579 163.04C384.569 162.036 384.924 161.179 385.644 160.469C386.373 159.749 387.249 159.389 388.272 159.389C389.238 159.389 390.09 159.749 390.829 160.469C391.577 161.179 391.956 162.036 391.965 163.04C391.956 163.722 391.776 164.342 391.425 164.901C391.085 165.459 390.635 165.904 390.076 166.236C389.527 166.567 388.925 166.733 388.272 166.733ZM388.272 152.614C387.249 152.614 386.373 152.254 385.644 151.534C384.924 150.814 384.569 149.943 384.579 148.92C384.569 147.917 384.924 147.06 385.644 146.349C386.373 145.63 387.249 145.27 388.272 145.27C389.238 145.27 390.09 145.63 390.829 146.349C391.577 147.06 391.956 147.917 391.965 148.92C391.956 149.602 391.776 150.223 391.425 150.781C391.085 151.34 390.635 151.785 390.076 152.116C389.527 152.448 388.925 152.614 388.272 152.614ZM418.542 140.909V170H411.525V147.472H411.354L404.849 151.449V145.369L412.022 140.909H418.542ZM437.004 170.71C434.466 170.71 432.279 170.109 430.442 168.906C428.605 167.694 427.189 165.956 426.195 163.693C425.2 161.42 424.708 158.688 424.717 155.497C424.727 152.306 425.224 149.598 426.209 147.372C427.203 145.137 428.614 143.437 430.442 142.273C432.279 141.098 434.466 140.511 437.004 140.511C439.542 140.511 441.73 141.098 443.567 142.273C445.413 143.437 446.834 145.137 447.828 147.372C448.822 149.607 449.315 152.315 449.305 155.497C449.305 158.698 448.808 161.435 447.814 163.707C446.82 165.98 445.404 167.718 443.567 168.92C441.739 170.114 439.552 170.71 437.004 170.71ZM437.004 164.957C438.519 164.957 439.746 164.186 440.683 162.642C441.621 161.089 442.085 158.707 442.075 155.497C442.075 153.395 441.862 151.662 441.436 150.298C441.01 148.925 440.418 147.902 439.661 147.23C438.903 146.558 438.018 146.222 437.004 146.222C435.499 146.222 434.282 146.984 433.354 148.509C432.426 150.024 431.957 152.353 431.947 155.497C431.938 157.628 432.142 159.394 432.558 160.795C432.984 162.197 433.581 163.243 434.348 163.935C435.115 164.616 436 164.957 437.004 164.957ZM456.045 170.412C455.023 170.412 454.147 170.052 453.418 169.332C452.698 168.613 452.343 167.741 452.352 166.719C452.343 165.715 452.698 164.858 453.418 164.148C454.147 163.428 455.023 163.068 456.045 163.068C457.011 163.068 457.864 163.428 458.602 164.148C459.35 164.858 459.729 165.715 459.739 166.719C459.729 167.401 459.549 168.021 459.199 168.58C458.858 169.138 458.408 169.583 457.849 169.915C457.3 170.246 456.699 170.412 456.045 170.412ZM463.915 165.17V159.688L475.832 140.909H480.705V148.352H477.878L470.903 159.403V159.631H488.162V165.17H463.915ZM477.963 170V163.494L478.105 161.094V140.909H484.682V170H477.963ZM513.709 162.585L519.05 148.182H524.135L515.939 170H511.479L503.496 148.182H508.567L513.709 162.585ZM507.075 148.182V170H500.499V148.182H507.075ZM520.74 170V148.182H527.232V170H520.74ZM544.902 139.545L535.527 174.375H529.604L538.979 139.545H544.902ZM557.675 170.412C555.374 170.412 553.4 169.938 551.752 168.991C550.114 168.045 548.854 166.728 547.974 165.043C547.093 163.348 546.653 161.387 546.653 159.162C546.653 156.927 547.093 154.967 547.974 153.281C548.864 151.586 550.128 150.265 551.766 149.318C553.414 148.371 555.379 147.898 557.661 147.898C559.678 147.898 561.435 148.262 562.931 148.991C564.437 149.721 565.611 150.753 566.454 152.088C567.306 153.414 567.756 154.972 567.803 156.761H561.312C561.179 155.644 560.8 154.768 560.175 154.134C559.56 153.499 558.755 153.182 557.761 153.182C556.956 153.182 556.25 153.409 555.644 153.864C555.038 154.309 554.565 154.972 554.224 155.852C553.892 156.723 553.727 157.803 553.727 159.091C553.727 160.379 553.892 161.468 554.224 162.358C554.565 163.239 555.038 163.906 555.644 164.361C556.25 164.806 556.956 165.028 557.761 165.028C558.405 165.028 558.973 164.891 559.465 164.616C559.967 164.342 560.379 163.939 560.701 163.409C561.023 162.869 561.227 162.216 561.312 161.449H567.803C567.737 163.248 567.287 164.82 566.454 166.165C565.63 167.509 564.47 168.556 562.974 169.304C561.487 170.043 559.721 170.412 557.675 170.412ZM570.832 155.455V152.017L577.835 146.605C578.318 146.226 578.744 145.881 579.114 145.568C579.483 145.246 579.772 144.92 579.98 144.588C580.198 144.257 580.307 143.883 580.307 143.466C580.307 142.841 580.042 142.367 579.511 142.045C578.991 141.714 578.361 141.548 577.622 141.548C576.827 141.548 576.188 141.733 575.705 142.102C575.222 142.472 574.98 143.03 574.98 143.778H570.392C570.392 141.884 571.074 140.412 572.438 139.361C573.811 138.31 575.558 137.784 577.679 137.784C579.137 137.784 580.402 138.035 581.472 138.537C582.551 139.039 583.384 139.716 583.972 140.568C584.559 141.42 584.852 142.367 584.852 143.409C584.852 144.261 584.672 145.052 584.312 145.781C583.962 146.51 583.418 147.216 582.679 147.898C581.95 148.58 581.012 149.271 579.866 149.972L577.707 151.392V151.548H584.952V155.455H570.832ZM78.8438 194.619V188.909H103.432V194.619H94.6108V218H87.679V194.619H78.8438ZM113.901 218.412C111.618 218.412 109.649 217.962 107.991 217.062C106.344 216.153 105.075 214.861 104.185 213.185C103.304 211.499 102.864 209.496 102.864 207.176C102.864 204.922 103.309 202.953 104.199 201.267C105.089 199.572 106.344 198.256 107.963 197.318C109.582 196.371 111.491 195.898 113.688 195.898C115.241 195.898 116.661 196.139 117.949 196.622C119.237 197.105 120.349 197.82 121.287 198.767C122.224 199.714 122.954 200.884 123.474 202.276C123.995 203.658 124.256 205.244 124.256 207.034V208.767H105.293V204.733H117.793C117.783 203.994 117.608 203.336 117.267 202.759C116.926 202.181 116.457 201.731 115.861 201.409C115.274 201.078 114.597 200.912 113.83 200.912C113.053 200.912 112.357 201.087 111.741 201.438C111.126 201.778 110.638 202.247 110.278 202.844C109.919 203.431 109.729 204.098 109.71 204.847V208.952C109.71 209.842 109.885 210.623 110.236 211.295C110.586 211.958 111.083 212.474 111.727 212.844C112.371 213.213 113.138 213.398 114.028 213.398C114.644 213.398 115.203 213.312 115.705 213.142C116.206 212.972 116.637 212.721 116.997 212.389C117.357 212.058 117.627 211.651 117.807 211.168L124.185 211.352C123.92 212.782 123.337 214.027 122.438 215.088C121.547 216.139 120.378 216.958 118.929 217.545C117.48 218.123 115.804 218.412 113.901 218.412ZM141.013 210.585L146.354 196.182H151.44L143.244 218H138.783L130.8 196.182H135.871L141.013 210.585ZM134.38 196.182V218H127.803V196.182H134.38ZM148.045 218V196.182H154.536V218H148.045ZM158.741 218V196.182H178.442V218H171.866V201.494H165.232V218H158.741ZM193.041 218.412C190.759 218.412 188.789 217.962 187.132 217.062C185.484 216.153 184.215 214.861 183.325 213.185C182.445 211.499 182.004 209.496 182.004 207.176C182.004 204.922 182.449 202.953 183.339 201.267C184.23 199.572 185.484 198.256 187.104 197.318C188.723 196.371 190.631 195.898 192.828 195.898C194.381 195.898 195.802 196.139 197.089 196.622C198.377 197.105 199.49 197.82 200.428 198.767C201.365 199.714 202.094 200.884 202.615 202.276C203.136 203.658 203.396 205.244 203.396 207.034V208.767H184.433V204.733H196.933C196.924 203.994 196.749 203.336 196.408 202.759C196.067 202.181 195.598 201.731 195.001 201.409C194.414 201.078 193.737 200.912 192.97 200.912C192.194 200.912 191.498 201.087 190.882 201.438C190.267 201.778 189.779 202.247 189.419 202.844C189.059 203.431 188.87 204.098 188.851 204.847V208.952C188.851 209.842 189.026 210.623 189.376 211.295C189.727 211.958 190.224 212.474 190.868 212.844C191.512 213.213 192.279 213.398 193.169 213.398C193.785 213.398 194.343 213.312 194.845 213.142C195.347 212.972 195.778 212.721 196.138 212.389C196.498 212.058 196.768 211.651 196.947 211.168L203.325 211.352C203.06 212.782 202.478 214.027 201.578 215.088C200.688 216.139 199.518 216.958 198.07 217.545C196.621 218.123 194.945 218.412 193.041 218.412ZM206.944 226.182V196.182H213.819V199.918H214.032C214.316 199.255 214.719 198.616 215.239 198C215.77 197.384 216.442 196.883 217.256 196.494C218.08 196.097 219.065 195.898 220.211 195.898C221.726 195.898 223.142 196.295 224.458 197.091C225.784 197.886 226.854 199.113 227.668 200.77C228.483 202.427 228.89 204.539 228.89 207.105C228.89 209.577 228.497 211.646 227.711 213.312C226.934 214.979 225.883 216.229 224.558 217.062C223.241 217.896 221.778 218.312 220.168 218.312C219.07 218.312 218.118 218.133 217.313 217.773C216.508 217.413 215.831 216.939 215.282 216.352C214.742 215.765 214.326 215.135 214.032 214.463H213.89V226.182H206.944ZM213.748 207.091C213.748 208.265 213.904 209.288 214.217 210.159C214.539 211.03 214.998 211.707 215.594 212.19C216.201 212.664 216.925 212.901 217.768 212.901C218.62 212.901 219.344 212.664 219.941 212.19C220.538 211.707 220.987 211.03 221.29 210.159C221.603 209.288 221.759 208.265 221.759 207.091C221.759 205.917 221.603 204.899 221.29 204.037C220.987 203.175 220.538 202.508 219.941 202.034C219.354 201.561 218.629 201.324 217.768 201.324C216.915 201.324 216.191 201.556 215.594 202.02C214.998 202.484 214.539 203.147 214.217 204.009C213.904 204.87 213.748 205.898 213.748 207.091ZM238.68 218.369C237.288 218.369 236.053 218.137 234.973 217.673C233.903 217.2 233.055 216.49 232.43 215.543C231.815 214.586 231.507 213.388 231.507 211.949C231.507 210.737 231.72 209.714 232.146 208.881C232.572 208.047 233.16 207.37 233.908 206.849C234.656 206.329 235.518 205.936 236.493 205.67C237.468 205.396 238.51 205.211 239.618 205.116C240.858 205.003 241.857 204.884 242.615 204.761C243.373 204.629 243.922 204.444 244.263 204.207C244.613 203.961 244.788 203.616 244.788 203.17V203.099C244.788 202.37 244.537 201.807 244.036 201.409C243.534 201.011 242.857 200.812 242.004 200.812C241.086 200.812 240.347 201.011 239.788 201.409C239.23 201.807 238.875 202.356 238.723 203.057L232.317 202.83C232.506 201.504 232.994 200.32 233.78 199.278C234.575 198.227 235.664 197.403 237.047 196.807C238.439 196.201 240.11 195.898 242.061 195.898C243.453 195.898 244.736 196.063 245.911 196.395C247.085 196.717 248.107 197.19 248.979 197.815C249.85 198.431 250.522 199.188 250.996 200.088C251.479 200.988 251.72 202.015 251.72 203.17V218H245.186V214.96H245.016C244.627 215.699 244.13 216.324 243.524 216.835C242.928 217.347 242.222 217.73 241.408 217.986C240.603 218.241 239.694 218.369 238.68 218.369ZM240.825 213.824C241.573 213.824 242.246 213.672 242.842 213.369C243.448 213.066 243.931 212.65 244.291 212.119C244.651 211.58 244.831 210.955 244.831 210.244V208.17C244.632 208.275 244.391 208.369 244.107 208.455C243.832 208.54 243.529 208.62 243.197 208.696C242.866 208.772 242.525 208.838 242.175 208.895C241.824 208.952 241.488 209.004 241.166 209.051C240.513 209.155 239.954 209.316 239.49 209.534C239.036 209.752 238.685 210.036 238.439 210.386C238.202 210.727 238.084 211.134 238.084 211.608C238.084 212.328 238.339 212.877 238.851 213.256C239.372 213.634 240.03 213.824 240.825 213.824ZM254.039 201.494V196.182H274.494V201.494H267.519V218H260.928V201.494H254.039ZM282.05 226.182C281.217 226.182 280.431 226.116 279.692 225.983C278.954 225.86 278.319 225.694 277.789 225.486L279.323 220.443C280.005 220.67 280.621 220.803 281.17 220.841C281.728 220.879 282.207 220.789 282.604 220.571C283.012 220.363 283.324 219.989 283.542 219.449L283.812 218.795L276.056 196.182H283.329L287.349 211.75H287.576L291.653 196.182H298.968L290.744 220.088C290.346 221.281 289.782 222.332 289.053 223.241C288.334 224.16 287.401 224.88 286.255 225.401C285.119 225.921 283.717 226.182 282.05 226.182ZM301.631 226.182V196.182H308.506V199.918H308.719C309.004 199.255 309.406 198.616 309.927 198C310.457 197.384 311.129 196.883 311.944 196.494C312.768 196.097 313.753 195.898 314.898 195.898C316.414 195.898 317.829 196.295 319.146 197.091C320.471 197.886 321.541 199.113 322.356 200.77C323.17 202.427 323.577 204.539 323.577 207.105C323.577 209.577 323.184 211.646 322.398 213.312C321.622 214.979 320.571 216.229 319.245 217.062C317.929 217.896 316.466 218.312 314.856 218.312C313.757 218.312 312.806 218.133 312.001 217.773C311.196 217.413 310.519 216.939 309.969 216.352C309.43 215.765 309.013 215.135 308.719 214.463H308.577V226.182H301.631ZM308.435 207.091C308.435 208.265 308.592 209.288 308.904 210.159C309.226 211.03 309.685 211.707 310.282 212.19C310.888 212.664 311.612 212.901 312.455 212.901C313.308 212.901 314.032 212.664 314.629 212.19C315.225 211.707 315.675 211.03 315.978 210.159C316.29 209.288 316.447 208.265 316.447 207.091C316.447 205.917 316.29 204.899 315.978 204.037C315.675 203.175 315.225 202.508 314.629 202.034C314.041 201.561 313.317 201.324 312.455 201.324C311.603 201.324 310.879 201.556 310.282 202.02C309.685 202.484 309.226 203.147 308.904 204.009C308.592 204.87 308.435 205.898 308.435 207.091ZM391.28 218.412C390.257 218.412 389.381 218.052 388.652 217.332C387.932 216.613 387.577 215.741 387.587 214.719C387.577 213.715 387.932 212.858 388.652 212.148C389.381 211.428 390.257 211.068 391.28 211.068C392.246 211.068 393.098 211.428 393.837 212.148C394.585 212.858 394.964 213.715 394.973 214.719C394.964 215.401 394.784 216.021 394.433 216.58C394.092 217.138 393.643 217.583 393.084 217.915C392.535 218.246 391.933 218.412 391.28 218.412ZM391.28 203.44C390.257 203.44 389.381 203.085 388.652 202.375C387.932 201.655 387.577 200.779 387.587 199.747C387.577 198.743 387.932 197.886 388.652 197.176C389.381 196.456 390.257 196.097 391.28 196.097C392.246 196.097 393.098 196.456 393.837 197.176C394.585 197.886 394.964 198.743 394.973 199.747C394.964 200.429 394.784 201.049 394.433 201.608C394.092 202.167 393.643 202.612 393.084 202.943C392.535 203.275 391.933 203.44 391.28 203.44ZM422.118 200.784V206.125H408.652V200.784H422.118ZM440.417 188.909V218H433.4V195.472H433.229L426.724 199.449V193.369L433.897 188.909H440.417ZM448.084 218L459.817 194.761V194.577H446.095V188.909H467.089V194.619L455.314 218H448.084ZM481.727 218.398C479.464 218.398 477.442 218.038 475.662 217.318C473.891 216.589 472.499 215.604 471.486 214.364C470.482 213.114 469.98 211.703 469.98 210.131C469.98 208.928 470.269 207.825 470.847 206.821C471.424 205.817 472.205 204.984 473.19 204.321C474.185 203.649 475.293 203.218 476.514 203.028V202.801C474.914 202.508 473.602 201.764 472.58 200.571C471.566 199.378 471.06 197.981 471.06 196.381C471.06 194.866 471.519 193.516 472.438 192.332C473.366 191.149 474.63 190.216 476.23 189.534C477.84 188.852 479.672 188.511 481.727 188.511C483.782 188.511 485.61 188.852 487.21 189.534C488.82 190.216 490.084 191.149 491.003 192.332C491.931 193.516 492.395 194.866 492.395 196.381C492.395 197.991 491.879 199.392 490.847 200.585C489.824 201.769 488.522 202.508 486.94 202.801V203.028C488.152 203.218 489.251 203.649 490.236 204.321C491.23 204.984 492.016 205.817 492.594 206.821C493.181 207.825 493.474 208.928 493.474 210.131C493.474 211.703 492.968 213.114 491.955 214.364C490.941 215.604 489.549 216.589 487.778 217.318C486.017 218.038 484 218.398 481.727 218.398ZM481.727 213.412C482.589 213.412 483.347 213.251 484 212.929C484.653 212.598 485.165 212.138 485.534 211.551C485.913 210.964 486.102 210.301 486.102 209.562C486.102 208.805 485.913 208.133 485.534 207.545C485.155 206.958 484.634 206.499 483.972 206.168C483.318 205.827 482.57 205.656 481.727 205.656C480.894 205.656 480.146 205.827 479.483 206.168C478.82 206.499 478.299 206.958 477.92 207.545C477.542 208.133 477.352 208.805 477.352 209.562C477.352 210.301 477.537 210.964 477.906 211.551C478.285 212.129 478.801 212.583 479.455 212.915C480.117 213.246 480.875 213.412 481.727 213.412ZM481.727 200.699C482.466 200.699 483.119 200.547 483.688 200.244C484.265 199.941 484.715 199.52 485.037 198.98C485.368 198.44 485.534 197.83 485.534 197.148C485.534 196.466 485.368 195.865 485.037 195.344C484.715 194.823 484.27 194.416 483.702 194.122C483.134 193.819 482.475 193.668 481.727 193.668C480.989 193.668 480.33 193.819 479.753 194.122C479.175 194.416 478.725 194.823 478.403 195.344C478.081 195.865 477.92 196.466 477.92 197.148C477.92 197.83 478.081 198.44 478.403 198.98C478.735 199.51 479.189 199.932 479.767 200.244C480.345 200.547 480.998 200.699 481.727 200.699ZM523.233 218.298L519.568 214.662L528.105 206.125H508.844V200.784H528.105L519.568 192.261L523.233 188.611L538.077 203.455L523.233 218.298ZM566.766 200.784V206.125H553.3V200.784H566.766ZM585.065 188.909V218H578.048V195.472H577.878L571.372 199.449V193.369L578.545 188.909H585.065ZM602.562 218.398C600.346 218.398 598.381 218.019 596.667 217.261C594.962 216.494 593.618 215.438 592.633 214.094C591.648 212.749 591.146 211.201 591.127 209.449H598.201C598.229 210.083 598.433 210.647 598.812 211.139C599.191 211.622 599.707 212.001 600.36 212.276C601.013 212.55 601.757 212.688 602.59 212.688C603.424 212.688 604.157 212.541 604.792 212.247C605.436 211.944 605.938 211.532 606.298 211.011C606.657 210.481 606.833 209.875 606.823 209.193C606.833 208.511 606.638 207.905 606.241 207.375C605.843 206.845 605.28 206.433 604.55 206.139C603.831 205.846 602.978 205.699 601.994 205.699H599.167V200.699H601.994C602.855 200.699 603.613 200.557 604.266 200.273C604.929 199.989 605.445 199.591 605.815 199.08C606.184 198.559 606.364 197.962 606.354 197.29C606.364 196.636 606.208 196.063 605.886 195.571C605.573 195.069 605.133 194.681 604.565 194.406C604.006 194.132 603.357 193.994 602.619 193.994C601.842 193.994 601.137 194.132 600.502 194.406C599.877 194.681 599.38 195.069 599.011 195.571C598.641 196.073 598.447 196.655 598.428 197.318H591.71C591.728 195.585 592.211 194.061 593.158 192.744C594.105 191.419 595.393 190.382 597.022 189.634C598.66 188.885 600.526 188.511 602.619 188.511C604.702 188.511 606.534 188.876 608.116 189.605C609.697 190.334 610.928 191.329 611.809 192.588C612.69 193.838 613.13 195.254 613.13 196.835C613.139 198.473 612.604 199.823 611.525 200.884C610.455 201.944 609.077 202.598 607.391 202.844V203.071C609.645 203.336 611.345 204.065 612.491 205.259C613.646 206.452 614.219 207.943 614.21 209.733C614.21 211.419 613.712 212.915 612.718 214.222C611.733 215.519 610.36 216.542 608.599 217.29C606.847 218.028 604.835 218.398 602.562 218.398ZM629.128 188.511C630.719 188.511 632.239 188.772 633.688 189.293C635.136 189.804 636.429 190.623 637.565 191.75C638.702 192.867 639.597 194.34 640.25 196.168C640.903 197.995 641.23 200.225 641.23 202.858C641.24 205.282 640.955 207.455 640.378 209.378C639.8 211.291 638.972 212.92 637.892 214.264C636.822 215.609 635.534 216.636 634.028 217.347C632.523 218.047 630.842 218.398 628.986 218.398C626.94 218.398 625.136 218.005 623.574 217.219C622.021 216.423 620.776 215.353 619.838 214.009C618.91 212.664 618.356 211.158 618.176 209.491H625.094C625.312 210.457 625.771 211.187 626.472 211.679C627.172 212.162 628.01 212.403 628.986 212.403C630.766 212.403 632.097 211.632 632.977 210.088C633.858 208.545 634.298 206.447 634.298 203.795H634.128C633.721 204.667 633.143 205.415 632.395 206.04C631.656 206.665 630.799 207.143 629.824 207.474C628.848 207.806 627.821 207.972 626.741 207.972C624.999 207.972 623.46 207.574 622.125 206.778C620.799 205.983 619.758 204.889 619 203.497C618.252 202.105 617.873 200.514 617.864 198.724C617.854 196.717 618.323 194.946 619.27 193.412C620.217 191.868 621.538 190.666 623.233 189.804C624.928 188.933 626.893 188.502 629.128 188.511ZM629.17 193.909C628.299 193.909 627.523 194.113 626.841 194.52C626.169 194.927 625.638 195.476 625.25 196.168C624.862 196.859 624.672 197.635 624.682 198.497C624.691 199.359 624.885 200.135 625.264 200.827C625.652 201.518 626.178 202.067 626.841 202.474C627.513 202.882 628.28 203.085 629.142 203.085C629.786 203.085 630.383 202.967 630.932 202.73C631.481 202.493 631.959 202.167 632.366 201.75C632.774 201.324 633.091 200.831 633.318 200.273C633.555 199.714 633.669 199.117 633.659 198.483C633.65 197.64 633.451 196.873 633.062 196.182C632.674 195.491 632.139 194.941 631.457 194.534C630.785 194.117 630.023 193.909 629.17 193.909ZM660.772 202.972C659.456 202.972 658.258 202.654 657.178 202.02C656.099 201.376 655.237 200.514 654.593 199.435C653.959 198.355 653.641 197.162 653.641 195.855C653.641 194.539 653.959 193.341 654.593 192.261C655.237 191.182 656.099 190.325 657.178 189.69C658.258 189.046 659.456 188.724 660.772 188.724C662.088 188.724 663.281 189.046 664.352 189.69C665.431 190.325 666.288 191.182 666.923 192.261C667.567 193.341 667.888 194.539 667.888 195.855C667.888 197.162 667.567 198.355 666.923 199.435C666.288 200.514 665.431 201.376 664.352 202.02C663.281 202.654 662.088 202.972 660.772 202.972ZM660.772 198.54C661.264 198.54 661.714 198.421 662.121 198.185C662.529 197.938 662.851 197.612 663.087 197.205C663.334 196.797 663.457 196.348 663.457 195.855C663.457 195.353 663.334 194.899 663.087 194.491C662.851 194.084 662.529 193.762 662.121 193.526C661.714 193.279 661.264 193.156 660.772 193.156C660.27 193.156 659.816 193.279 659.408 193.526C659.001 193.762 658.674 194.084 658.428 194.491C658.192 194.899 658.073 195.348 658.073 195.841C658.073 196.343 658.192 196.802 658.428 197.219C658.674 197.626 659.001 197.948 659.408 198.185C659.825 198.421 660.28 198.54 660.772 198.54ZM698.585 199.449H691.482C691.388 198.72 691.193 198.062 690.9 197.474C690.606 196.887 690.218 196.385 689.735 195.969C689.252 195.552 688.679 195.235 688.016 195.017C687.363 194.79 686.638 194.676 685.843 194.676C684.432 194.676 683.215 195.022 682.192 195.713C681.179 196.404 680.398 197.403 679.849 198.71C679.309 200.017 679.039 201.598 679.039 203.455C679.039 205.386 679.314 207.006 679.863 208.312C680.422 209.61 681.203 210.59 682.207 211.253C683.22 211.906 684.418 212.233 685.8 212.233C686.577 212.233 687.282 212.134 687.917 211.935C688.561 211.736 689.124 211.447 689.607 211.068C690.1 210.68 690.502 210.211 690.815 209.662C691.137 209.103 691.359 208.473 691.482 207.773L698.585 207.815C698.461 209.103 698.087 210.372 697.462 211.622C696.847 212.872 695.999 214.013 694.92 215.045C693.84 216.068 692.524 216.883 690.971 217.489C689.427 218.095 687.656 218.398 685.658 218.398C683.026 218.398 680.668 217.82 678.585 216.665C676.511 215.5 674.872 213.805 673.67 211.58C672.467 209.354 671.866 206.646 671.866 203.455C671.866 200.254 672.477 197.541 673.698 195.315C674.92 193.09 676.572 191.4 678.656 190.244C680.739 189.089 683.073 188.511 685.658 188.511C687.42 188.511 689.049 188.758 690.545 189.25C692.041 189.733 693.357 190.443 694.494 191.381C695.63 192.309 696.553 193.45 697.263 194.804C697.974 196.158 698.414 197.706 698.585 199.449ZM78.5312 273.003V260.517H80.5341C81.2064 260.062 81.822 259.428 82.3807 258.614C82.9394 257.79 83.4176 256.634 83.8153 255.148C84.2131 253.652 84.4972 251.677 84.6676 249.224L85.5767 236.909H105.477V260.517H108.602V272.989H101.841V266H85.2926V273.003H78.5312ZM88.6023 260.517H98.7159V242.619H91.8835L91.429 249.224C91.3059 251.071 91.107 252.7 90.8324 254.111C90.5578 255.522 90.2311 256.753 89.8523 257.804C89.4735 258.846 89.0568 259.75 88.6023 260.517ZM117.977 266.369C116.585 266.369 115.349 266.137 114.27 265.673C113.2 265.2 112.352 264.49 111.727 263.543C111.112 262.586 110.804 261.388 110.804 259.949C110.804 258.737 111.017 257.714 111.443 256.881C111.869 256.047 112.456 255.37 113.205 254.849C113.953 254.329 114.814 253.936 115.79 253.67C116.765 253.396 117.807 253.211 118.915 253.116C120.155 253.003 121.154 252.884 121.912 252.761C122.67 252.629 123.219 252.444 123.56 252.207C123.91 251.961 124.085 251.616 124.085 251.17V251.099C124.085 250.37 123.834 249.807 123.332 249.409C122.83 249.011 122.153 248.812 121.301 248.812C120.383 248.812 119.644 249.011 119.085 249.409C118.527 249.807 118.171 250.356 118.02 251.057L111.614 250.83C111.803 249.504 112.291 248.32 113.077 247.278C113.872 246.227 114.961 245.403 116.344 244.807C117.736 244.201 119.407 243.898 121.358 243.898C122.75 243.898 124.033 244.063 125.207 244.395C126.382 244.717 127.404 245.19 128.276 245.815C129.147 246.431 129.819 247.188 130.293 248.088C130.776 248.988 131.017 250.015 131.017 251.17V266H124.483V262.96H124.312C123.924 263.699 123.427 264.324 122.821 264.835C122.224 265.347 121.519 265.73 120.705 265.986C119.9 266.241 118.991 266.369 117.977 266.369ZM120.122 261.824C120.87 261.824 121.543 261.672 122.139 261.369C122.745 261.066 123.228 260.65 123.588 260.119C123.948 259.58 124.128 258.955 124.128 258.244V256.17C123.929 256.275 123.688 256.369 123.403 256.455C123.129 256.54 122.826 256.62 122.494 256.696C122.163 256.772 121.822 256.838 121.472 256.895C121.121 256.952 120.785 257.004 120.463 257.051C119.81 257.155 119.251 257.316 118.787 257.534C118.332 257.752 117.982 258.036 117.736 258.386C117.499 258.727 117.381 259.134 117.381 259.608C117.381 260.328 117.636 260.877 118.148 261.256C118.669 261.634 119.327 261.824 120.122 261.824ZM150.69 244.182V249.494H141.983V266H135.264V244.182H150.69ZM158.222 274.182C157.389 274.182 156.603 274.116 155.864 273.983C155.126 273.86 154.491 273.694 153.961 273.486L155.495 268.443C156.177 268.67 156.792 268.803 157.342 268.841C157.9 268.879 158.379 268.789 158.776 268.571C159.183 268.363 159.496 267.989 159.714 267.449L159.984 266.795L152.228 244.182H159.501L163.521 259.75H163.748L167.825 244.182H175.14L166.915 268.088C166.518 269.281 165.954 270.332 165.225 271.241C164.505 272.16 163.573 272.88 162.427 273.401C161.29 273.921 159.889 274.182 158.222 274.182ZM182.05 274.182C181.217 274.182 180.431 274.116 179.692 273.983C178.954 273.86 178.319 273.694 177.789 273.486L179.323 268.443C180.005 268.67 180.621 268.803 181.17 268.841C181.728 268.879 182.207 268.789 182.604 268.571C183.012 268.363 183.324 267.989 183.542 267.449L183.812 266.795L176.056 244.182H183.329L187.349 259.75H187.576L191.653 244.182H198.968L190.744 268.088C190.346 269.281 189.782 270.332 189.053 271.241C188.334 272.16 187.401 272.88 186.255 273.401C185.119 273.921 183.717 274.182 182.05 274.182ZM198.808 266L198.766 260.645H199.462C199.935 260.645 200.347 260.522 200.697 260.276C201.048 260.029 201.341 259.636 201.578 259.097C201.815 258.547 202.004 257.842 202.146 256.98C202.288 256.118 202.378 255.072 202.416 253.841L202.771 244.182H220.044V266H213.467V249.494H208.95L208.609 255.773C208.524 257.619 208.283 259.196 207.885 260.503C207.497 261.8 206.966 262.851 206.294 263.656C205.631 264.461 204.845 265.053 203.936 265.432C203.027 265.811 202 266 200.854 266H198.808ZM228.364 250.489H234.984C237.986 250.489 240.339 251.194 242.043 252.605C243.748 254.007 244.605 255.91 244.614 258.315C244.605 259.878 244.212 261.237 243.435 262.392C242.668 263.538 241.565 264.428 240.126 265.062C238.696 265.688 236.982 266 234.984 266H224.288V244.182H230.864V260.688H234.984C235.893 260.688 236.641 260.465 237.228 260.02C237.815 259.575 238.113 259.002 238.123 258.301C238.113 257.562 237.815 256.961 237.228 256.497C236.641 256.033 235.893 255.801 234.984 255.801H228.364V250.489ZM246.575 266V244.182H253.521V266H246.575ZM273.304 252.378V257.676H262.111V252.378H273.304ZM264.497 244.182V266H257.92V244.182H264.497ZM277.494 244.182V266H270.96V244.182H277.494ZM289.195 249.494V244.182H309.65V249.494H302.675V266H296.085V249.494H289.195ZM322.48 266.412C320.188 266.412 318.219 265.943 316.571 265.006C314.933 264.059 313.669 262.742 312.778 261.057C311.898 259.362 311.457 257.397 311.457 255.162C311.457 252.918 311.898 250.953 312.778 249.267C313.669 247.572 314.933 246.256 316.571 245.318C318.219 244.371 320.188 243.898 322.48 243.898C324.772 243.898 326.737 244.371 328.375 245.318C330.023 246.256 331.287 247.572 332.168 249.267C333.058 250.953 333.503 252.918 333.503 255.162C333.503 257.397 333.058 259.362 332.168 261.057C331.287 262.742 330.023 264.059 328.375 265.006C326.737 265.943 324.772 266.412 322.48 266.412ZM322.523 261.17C323.356 261.17 324.062 260.915 324.639 260.403C325.217 259.892 325.657 259.182 325.96 258.273C326.273 257.364 326.429 256.312 326.429 255.119C326.429 253.907 326.273 252.847 325.96 251.938C325.657 251.028 325.217 250.318 324.639 249.807C324.062 249.295 323.356 249.04 322.523 249.04C321.661 249.04 320.932 249.295 320.335 249.807C319.748 250.318 319.298 251.028 318.986 251.938C318.683 252.847 318.531 253.907 318.531 255.119C318.531 256.312 318.683 257.364 318.986 258.273C319.298 259.182 319.748 259.892 320.335 260.403C320.932 260.915 321.661 261.17 322.523 261.17ZM347.246 266.412C344.954 266.412 342.984 265.943 341.337 265.006C339.698 264.059 338.434 262.742 337.544 261.057C336.663 259.362 336.223 257.397 336.223 255.162C336.223 252.918 336.663 250.953 337.544 249.267C338.434 247.572 339.698 246.256 341.337 245.318C342.984 244.371 344.954 243.898 347.246 243.898C349.537 243.898 351.502 244.371 353.141 245.318C354.788 246.256 356.053 247.572 356.933 249.267C357.823 250.953 358.268 252.918 358.268 255.162C358.268 257.397 357.823 259.362 356.933 261.057C356.053 262.742 354.788 264.059 353.141 265.006C351.502 265.943 349.537 266.412 347.246 266.412ZM347.288 261.17C348.122 261.17 348.827 260.915 349.405 260.403C349.982 259.892 350.423 259.182 350.726 258.273C351.038 257.364 351.195 256.312 351.195 255.119C351.195 253.907 351.038 252.847 350.726 251.938C350.423 251.028 349.982 250.318 349.405 249.807C348.827 249.295 348.122 249.04 347.288 249.04C346.427 249.04 345.697 249.295 345.101 249.807C344.514 250.318 344.064 251.028 343.751 251.938C343.448 252.847 343.297 253.907 343.297 255.119C343.297 256.312 343.448 257.364 343.751 258.273C344.064 259.182 344.514 259.892 345.101 260.403C345.697 260.915 346.427 261.17 347.288 261.17ZM391.514 262.733C390.491 262.733 389.616 262.373 388.886 261.653C388.167 260.934 387.812 260.062 387.821 259.04C387.812 258.036 388.167 257.179 388.886 256.469C389.616 255.749 390.491 255.389 391.514 255.389C392.48 255.389 393.332 255.749 394.071 256.469C394.819 257.179 395.198 258.036 395.207 259.04C395.198 259.722 395.018 260.342 394.668 260.901C394.327 261.459 393.877 261.904 393.318 262.236C392.769 262.567 392.168 262.733 391.514 262.733ZM391.514 248.614C390.491 248.614 389.616 248.254 388.886 247.534C388.167 246.814 387.812 245.943 387.821 244.92C387.812 243.917 388.167 243.06 388.886 242.349C389.616 241.63 390.491 241.27 391.514 241.27C392.48 241.27 393.332 241.63 394.071 242.349C394.819 243.06 395.198 243.917 395.207 244.92C395.198 245.602 395.018 246.223 394.668 246.781C394.327 247.34 393.877 247.785 393.318 248.116C392.769 248.448 392.168 248.614 391.514 248.614ZM421.784 236.909V266H414.767V243.472H414.597L408.091 247.449V241.369L415.264 236.909H421.784ZM427.86 261.17V255.688L439.778 236.909H444.65V244.352H441.823L434.849 255.403V255.631H452.107V261.17H427.86ZM441.908 266V259.494L442.05 257.094V236.909H448.627V266H441.908ZM467.455 266.398C465.864 266.398 464.34 266.142 462.881 265.631C461.423 265.11 460.126 264.286 458.989 263.159C457.853 262.023 456.958 260.536 456.305 258.699C455.651 256.852 455.329 254.603 455.339 251.952C455.348 249.556 455.642 247.406 456.219 245.503C456.797 243.59 457.621 241.966 458.691 240.631C459.771 239.295 461.058 238.277 462.555 237.577C464.06 236.866 465.741 236.511 467.597 236.511C469.633 236.511 471.428 236.909 472.981 237.705C474.543 238.491 475.793 239.551 476.731 240.886C477.668 242.212 478.222 243.689 478.393 245.318H471.475C471.267 244.4 470.808 243.704 470.097 243.23C469.397 242.747 468.563 242.506 467.597 242.506C465.817 242.506 464.487 243.277 463.606 244.821C462.735 246.365 462.29 248.429 462.271 251.014H462.455C462.853 250.143 463.426 249.395 464.174 248.77C464.922 248.145 465.779 247.667 466.745 247.335C467.72 246.994 468.753 246.824 469.842 246.824C471.584 246.824 473.123 247.226 474.458 248.031C475.793 248.836 476.84 249.939 477.597 251.341C478.355 252.733 478.729 254.329 478.719 256.128C478.729 258.154 478.255 259.944 477.299 261.497C476.343 263.041 475.017 264.243 473.322 265.105C471.636 265.967 469.681 266.398 467.455 266.398ZM467.413 261C468.274 261 469.046 260.796 469.728 260.389C470.41 259.982 470.945 259.428 471.333 258.727C471.721 258.027 471.911 257.236 471.901 256.355C471.911 255.465 471.721 254.674 471.333 253.983C470.954 253.292 470.424 252.742 469.742 252.335C469.07 251.928 468.298 251.724 467.427 251.724C466.792 251.724 466.201 251.843 465.651 252.08C465.102 252.316 464.624 252.648 464.217 253.074C463.819 253.491 463.506 253.983 463.279 254.551C463.052 255.11 462.933 255.716 462.924 256.369C462.933 257.231 463.132 258.012 463.521 258.713C463.909 259.414 464.439 259.973 465.112 260.389C465.784 260.796 466.551 261 467.413 261ZM78.5312 321.003V308.517H80.5341C81.2064 308.062 81.822 307.428 82.3807 306.614C82.9394 305.79 83.4176 304.634 83.8153 303.148C84.2131 301.652 84.4972 299.677 84.6676 297.224L85.5767 284.909H105.477V308.517H108.602V320.989H101.841V314H85.2926V321.003H78.5312ZM88.6023 308.517H98.7159V290.619H91.8835L91.429 297.224C91.3059 299.071 91.107 300.7 90.8324 302.111C90.5578 303.522 90.2311 304.753 89.8523 305.804C89.4735 306.846 89.0568 307.75 88.6023 308.517ZM118.403 305.009L125.378 292.182H132.054V314H125.477V301.131L118.517 314H111.827V292.182H118.403V305.009ZM142.626 314.369C141.234 314.369 139.998 314.137 138.918 313.673C137.848 313.2 137.001 312.49 136.376 311.543C135.76 310.586 135.452 309.388 135.452 307.949C135.452 306.737 135.665 305.714 136.092 304.881C136.518 304.047 137.105 303.37 137.853 302.849C138.601 302.329 139.463 301.936 140.438 301.67C141.414 301.396 142.455 301.211 143.563 301.116C144.804 301.003 145.803 300.884 146.56 300.761C147.318 300.629 147.867 300.444 148.208 300.207C148.558 299.961 148.734 299.616 148.734 299.17V299.099C148.734 298.37 148.483 297.807 147.981 297.409C147.479 297.011 146.802 296.812 145.95 296.812C145.031 296.812 144.292 297.011 143.734 297.409C143.175 297.807 142.82 298.356 142.668 299.057L136.262 298.83C136.451 297.504 136.939 296.32 137.725 295.278C138.521 294.227 139.61 293.403 140.992 292.807C142.384 292.201 144.056 291.898 146.006 291.898C147.398 291.898 148.682 292.063 149.856 292.395C151.03 292.717 152.053 293.19 152.924 293.815C153.795 294.431 154.468 295.188 154.941 296.088C155.424 296.988 155.665 298.015 155.665 299.17V314H149.131V310.96H148.961C148.573 311.699 148.076 312.324 147.469 312.835C146.873 313.347 146.167 313.73 145.353 313.986C144.548 314.241 143.639 314.369 142.626 314.369ZM144.771 309.824C145.519 309.824 146.191 309.672 146.788 309.369C147.394 309.066 147.877 308.65 148.237 308.119C148.596 307.58 148.776 306.955 148.776 306.244V304.17C148.577 304.275 148.336 304.369 148.052 304.455C147.777 304.54 147.474 304.62 147.143 304.696C146.811 304.772 146.47 304.838 146.12 304.895C145.77 304.952 145.433 305.004 145.112 305.051C144.458 305.155 143.899 305.316 143.435 305.534C142.981 305.752 142.63 306.036 142.384 306.386C142.147 306.727 142.029 307.134 142.029 307.608C142.029 308.328 142.285 308.877 142.796 309.256C143.317 309.634 143.975 309.824 144.771 309.824ZM173.123 306.585L178.464 292.182H183.549L175.353 314H170.893L162.91 292.182H167.981L173.123 306.585ZM166.489 292.182V314H159.913V292.182H166.489ZM180.154 314V292.182H186.646V314H180.154ZM201.049 314.412C198.767 314.412 196.797 313.962 195.14 313.062C193.492 312.153 192.223 310.861 191.333 309.185C190.452 307.499 190.012 305.496 190.012 303.176C190.012 300.922 190.457 298.953 191.347 297.267C192.237 295.572 193.492 294.256 195.112 293.318C196.731 292.371 198.639 291.898 200.836 291.898C202.389 291.898 203.809 292.139 205.097 292.622C206.385 293.105 207.498 293.82 208.435 294.767C209.373 295.714 210.102 296.884 210.623 298.276C211.144 299.658 211.404 301.244 211.404 303.034V304.767H192.441V300.733H204.941C204.932 299.994 204.756 299.336 204.415 298.759C204.075 298.181 203.606 297.731 203.009 297.409C202.422 297.078 201.745 296.912 200.978 296.912C200.201 296.912 199.505 297.087 198.89 297.438C198.274 297.778 197.787 298.247 197.427 298.844C197.067 299.431 196.878 300.098 196.859 300.847V304.952C196.859 305.842 197.034 306.623 197.384 307.295C197.735 307.958 198.232 308.474 198.876 308.844C199.52 309.213 200.287 309.398 201.177 309.398C201.792 309.398 202.351 309.312 202.853 309.142C203.355 308.972 203.786 308.721 204.146 308.389C204.505 308.058 204.775 307.651 204.955 307.168L211.333 307.352C211.068 308.782 210.486 310.027 209.586 311.088C208.696 312.139 207.526 312.958 206.077 313.545C204.629 314.123 202.952 314.412 201.049 314.412ZM213.375 297.494V292.182H233.83V297.494H226.855V314H220.264V297.494H213.375ZM237.139 322.182V292.182H244.014V295.918H244.227C244.511 295.255 244.914 294.616 245.435 294C245.965 293.384 246.637 292.883 247.452 292.494C248.276 292.097 249.26 291.898 250.406 291.898C251.921 291.898 253.337 292.295 254.653 293.091C255.979 293.886 257.049 295.113 257.864 296.77C258.678 298.427 259.085 300.539 259.085 303.105C259.085 305.577 258.692 307.646 257.906 309.312C257.13 310.979 256.079 312.229 254.753 313.062C253.437 313.896 251.973 314.312 250.364 314.312C249.265 314.312 248.313 314.133 247.509 313.773C246.704 313.413 246.027 312.939 245.477 312.352C244.938 311.765 244.521 311.135 244.227 310.463H244.085V322.182H237.139ZM243.943 303.091C243.943 304.265 244.099 305.288 244.412 306.159C244.734 307.03 245.193 307.707 245.79 308.19C246.396 308.664 247.12 308.901 247.963 308.901C248.815 308.901 249.54 308.664 250.136 308.19C250.733 307.707 251.183 307.03 251.486 306.159C251.798 305.288 251.955 304.265 251.955 303.091C251.955 301.917 251.798 300.899 251.486 300.037C251.183 299.175 250.733 298.508 250.136 298.034C249.549 297.561 248.825 297.324 247.963 297.324C247.111 297.324 246.386 297.556 245.79 298.02C245.193 298.484 244.734 299.147 244.412 300.009C244.099 300.87 243.943 301.898 243.943 303.091ZM386.944 310.733C385.921 310.733 385.045 310.373 384.316 309.653C383.596 308.934 383.241 308.062 383.251 307.04C383.241 306.036 383.596 305.179 384.316 304.469C385.045 303.749 385.921 303.389 386.944 303.389C387.91 303.389 388.762 303.749 389.501 304.469C390.249 305.179 390.628 306.036 390.637 307.04C390.628 307.722 390.448 308.342 390.097 308.901C389.756 309.459 389.307 309.904 388.748 310.236C388.199 310.567 387.597 310.733 386.944 310.733ZM386.944 296.614C385.921 296.614 385.045 296.254 384.316 295.534C383.596 294.814 383.241 293.943 383.251 292.92C383.241 291.917 383.596 291.06 384.316 290.349C385.045 289.63 385.921 289.27 386.944 289.27C387.91 289.27 388.762 289.63 389.501 290.349C390.249 291.06 390.628 291.917 390.637 292.92C390.628 293.602 390.448 294.223 390.097 294.781C389.756 295.34 389.307 295.785 388.748 296.116C388.199 296.448 387.597 296.614 386.944 296.614ZM417.214 284.909V314H410.197V291.472H410.026L403.521 295.449V289.369L410.694 284.909H417.214ZM437.097 284.909V314H430.08V291.472H429.909L423.403 295.449V289.369L430.577 284.909H437.097ZM455.19 314.398C453.599 314.398 452.074 314.142 450.616 313.631C449.157 313.11 447.86 312.286 446.724 311.159C445.587 310.023 444.692 308.536 444.039 306.699C443.386 304.852 443.064 302.603 443.073 299.952C443.083 297.556 443.376 295.406 443.954 293.503C444.531 291.59 445.355 289.966 446.425 288.631C447.505 287.295 448.793 286.277 450.289 285.577C451.795 284.866 453.476 284.511 455.332 284.511C457.368 284.511 459.162 284.909 460.715 285.705C462.278 286.491 463.528 287.551 464.465 288.886C465.403 290.212 465.957 291.689 466.127 293.318H459.21C459.001 292.4 458.542 291.704 457.832 291.23C457.131 290.747 456.298 290.506 455.332 290.506C453.551 290.506 452.221 291.277 451.34 292.821C450.469 294.365 450.024 296.429 450.005 299.014H450.19C450.587 298.143 451.16 297.395 451.908 296.77C452.656 296.145 453.513 295.667 454.479 295.335C455.455 294.994 456.487 294.824 457.576 294.824C459.318 294.824 460.857 295.226 462.192 296.031C463.528 296.836 464.574 297.939 465.332 299.341C466.089 300.733 466.463 302.329 466.454 304.128C466.463 306.154 465.99 307.944 465.033 309.497C464.077 311.041 462.751 312.243 461.056 313.105C459.371 313.967 457.415 314.398 455.19 314.398ZM455.147 309C456.009 309 456.781 308.796 457.462 308.389C458.144 307.982 458.679 307.428 459.067 306.727C459.456 306.027 459.645 305.236 459.636 304.355C459.645 303.465 459.456 302.674 459.067 301.983C458.689 301.292 458.158 300.742 457.477 300.335C456.804 299.928 456.032 299.724 455.161 299.724C454.527 299.724 453.935 299.843 453.386 300.08C452.836 300.316 452.358 300.648 451.951 301.074C451.553 301.491 451.241 301.983 451.013 302.551C450.786 303.11 450.668 303.716 450.658 304.369C450.668 305.231 450.867 306.012 451.255 306.713C451.643 307.414 452.174 307.973 452.846 308.389C453.518 308.796 454.285 309 455.147 309ZM476.454 310.023L476.326 311.599C476.212 312.906 475.98 314.18 475.63 315.42C475.289 316.67 474.924 317.793 474.536 318.787C474.148 319.781 473.84 320.553 473.613 321.102H469.238C469.389 320.553 469.593 319.781 469.849 318.787C470.114 317.793 470.36 316.67 470.587 315.42C470.815 314.17 470.942 312.902 470.971 311.614L470.999 310.023H476.454ZM481.376 309.17V303.688L493.293 284.909H498.165V292.352H495.339L488.364 303.403V303.631H505.623V309.17H481.376ZM495.424 314V307.494L495.566 305.094V284.909H502.143V314H495.424ZM520.971 314.398C519.38 314.398 517.855 314.142 516.397 313.631C514.939 313.11 513.641 312.286 512.505 311.159C511.369 310.023 510.474 308.536 509.82 306.699C509.167 304.852 508.845 302.603 508.854 299.952C508.864 297.556 509.157 295.406 509.735 293.503C510.313 291.59 511.137 289.966 512.207 288.631C513.286 287.295 514.574 286.277 516.07 285.577C517.576 284.866 519.257 284.511 521.113 284.511C523.149 284.511 524.943 284.909 526.496 285.705C528.059 286.491 529.309 287.551 530.246 288.886C531.184 290.212 531.738 291.689 531.908 293.318H524.991C524.782 292.4 524.323 291.704 523.613 291.23C522.912 290.747 522.079 290.506 521.113 290.506C519.333 290.506 518.002 291.277 517.121 292.821C516.25 294.365 515.805 296.429 515.786 299.014H515.971C516.369 298.143 516.942 297.395 517.69 296.77C518.438 296.145 519.295 295.667 520.261 295.335C521.236 294.994 522.268 294.824 523.357 294.824C525.1 294.824 526.638 295.226 527.974 296.031C529.309 296.836 530.355 297.939 531.113 299.341C531.871 300.733 532.245 302.329 532.235 304.128C532.245 306.154 531.771 307.944 530.815 309.497C529.858 311.041 528.532 312.243 526.837 313.105C525.152 313.967 523.196 314.398 520.971 314.398ZM520.928 309C521.79 309 522.562 308.796 523.244 308.389C523.925 307.982 524.46 307.428 524.849 306.727C525.237 306.027 525.426 305.236 525.417 304.355C525.426 303.465 525.237 302.674 524.849 301.983C524.47 301.292 523.94 300.742 523.258 300.335C522.585 299.928 521.814 299.724 520.942 299.724C520.308 299.724 519.716 299.843 519.167 300.08C518.618 300.316 518.139 300.648 517.732 301.074C517.335 301.491 517.022 301.983 516.795 302.551C516.567 303.11 516.449 303.716 516.44 304.369C516.449 305.231 516.648 306.012 517.036 306.713C517.424 307.414 517.955 307.973 518.627 308.389C519.299 308.796 520.067 309 520.928 309ZM548.254 314.71C545.716 314.71 543.529 314.109 541.692 312.906C539.855 311.694 538.439 309.956 537.445 307.693C536.45 305.42 535.958 302.688 535.967 299.497C535.977 296.306 536.474 293.598 537.459 291.372C538.453 289.137 539.864 287.437 541.692 286.273C543.529 285.098 545.716 284.511 548.254 284.511C550.792 284.511 552.98 285.098 554.817 286.273C556.663 287.437 558.084 289.137 559.078 291.372C560.072 293.607 560.565 296.315 560.555 299.497C560.555 302.698 560.058 305.435 559.064 307.707C558.07 309.98 556.654 311.718 554.817 312.92C552.989 314.114 550.802 314.71 548.254 314.71ZM548.254 308.957C549.769 308.957 550.996 308.186 551.933 306.642C552.871 305.089 553.335 302.707 553.325 299.497C553.325 297.395 553.112 295.662 552.686 294.298C552.26 292.925 551.668 291.902 550.911 291.23C550.153 290.558 549.268 290.222 548.254 290.222C546.749 290.222 545.532 290.984 544.604 292.509C543.676 294.024 543.207 296.353 543.197 299.497C543.188 301.628 543.392 303.394 543.808 304.795C544.234 306.197 544.831 307.243 545.598 307.935C546.365 308.616 547.25 308.957 548.254 308.957ZM573.233 314V292.182H580.179V300.307H581.713L587.011 292.182H595.051L587.707 303.105L595.122 314H586.983L582.196 306.756H580.179V314H573.233ZM610.506 306.585L615.847 292.182H620.932L612.736 314H608.276L600.293 292.182H605.364L610.506 306.585ZM603.872 292.182V314H597.295V292.182H603.872ZM617.537 314V292.182H624.028V314H617.537ZM79.7955 362V332.909H86.8267V344.585H98.2898V332.909H105.307V362H98.2898V350.31H86.8267V362H79.7955ZM118.07 345.253C117.407 345.253 116.848 345.366 116.393 345.594C115.939 345.821 115.598 346.143 115.371 346.56C115.153 346.976 115.044 347.483 115.044 348.08H108.879C108.879 346.82 109.107 345.684 109.561 344.67C110.016 343.648 110.655 342.777 111.479 342.057C112.312 341.328 113.287 340.774 114.405 340.395C115.522 340.007 116.744 339.812 118.07 339.812C120.333 339.812 122.232 340.295 123.766 341.261C125.309 342.227 126.474 343.548 127.26 345.224C128.046 346.891 128.439 348.78 128.439 350.892V351.318C128.439 353.439 128.051 355.338 127.274 357.014C126.498 358.681 125.338 359.997 123.794 360.963C122.26 361.92 120.352 362.398 118.07 362.398C116.251 362.398 114.651 362.052 113.268 361.361C111.895 360.67 110.821 359.666 110.044 358.349C109.268 357.033 108.879 355.438 108.879 353.562H115.044C115.044 354.178 115.153 354.741 115.371 355.253C115.589 355.755 115.92 356.157 116.365 356.46C116.82 356.754 117.388 356.905 118.07 356.915C119.14 356.905 119.945 356.612 120.484 356.034C121.034 355.456 121.398 354.737 121.578 353.875C121.768 353.013 121.862 352.161 121.862 351.318V350.892C121.862 349.926 121.763 349.017 121.564 348.165C121.375 347.303 121.005 346.602 120.456 346.062C119.916 345.523 119.121 345.253 118.07 345.253ZM123.723 349.259V352.98H116.635V349.259H123.723ZM147.448 340.182V345.494H138.741V362H132.022V340.182H147.448ZM176.386 349.188V352.994H162.636V349.188H176.386ZM169.511 362.412C167.22 362.412 165.25 361.943 163.602 361.006C161.964 360.059 160.7 358.742 159.81 357.057C158.929 355.362 158.489 353.397 158.489 351.162C158.489 348.918 158.929 346.953 159.81 345.267C160.7 343.572 161.964 342.256 163.602 341.318C165.25 340.371 167.22 339.898 169.511 339.898C171.803 339.898 173.768 340.371 175.406 341.318C177.054 342.256 178.318 343.572 179.199 345.267C180.089 346.953 180.534 348.918 180.534 351.162C180.534 353.397 180.089 355.362 179.199 357.057C178.318 358.742 177.054 360.059 175.406 361.006C173.768 361.943 171.803 362.412 169.511 362.412ZM169.554 357.17C170.387 357.17 171.093 356.915 171.67 356.403C172.248 355.892 172.688 355.182 172.991 354.273C173.304 353.364 173.46 352.312 173.46 351.119C173.46 349.907 173.304 348.847 172.991 347.938C172.688 347.028 172.248 346.318 171.67 345.807C171.093 345.295 170.387 345.04 169.554 345.04C168.692 345.04 167.963 345.295 167.366 345.807C166.779 346.318 166.33 347.028 166.017 347.938C165.714 348.847 165.562 349.907 165.562 351.119C165.562 352.312 165.714 353.364 166.017 354.273C166.33 355.182 166.779 355.892 167.366 356.403C167.963 356.915 168.692 357.17 169.554 357.17ZM182.587 368.435V356.645H184.22C184.713 356.399 185.106 355.925 185.399 355.224C185.693 354.514 185.925 353.686 186.095 352.739C186.275 351.782 186.408 350.788 186.493 349.756C186.588 348.714 186.673 347.734 186.749 346.815L187.26 340.182H204.93V356.645H208.339V368.435H201.749V362H189.348V368.435H182.587ZM190.982 356.645H198.453V345.352H193.055L192.942 346.815C192.809 349.164 192.601 351.134 192.317 352.724C192.033 354.315 191.588 355.622 190.982 356.645ZM228.613 349.188V352.994H214.863V349.188H228.613ZM221.738 362.412C219.446 362.412 217.477 361.943 215.829 361.006C214.191 360.059 212.926 358.742 212.036 357.057C211.156 355.362 210.715 353.397 210.715 351.162C210.715 348.918 211.156 346.953 212.036 345.267C212.926 343.572 214.191 342.256 215.829 341.318C217.477 340.371 219.446 339.898 221.738 339.898C224.03 339.898 225.995 340.371 227.633 341.318C229.281 342.256 230.545 343.572 231.425 345.267C232.316 346.953 232.761 348.918 232.761 351.162C232.761 353.397 232.316 355.362 231.425 357.057C230.545 358.742 229.281 360.059 227.633 361.006C225.995 361.943 224.03 362.412 221.738 362.412ZM221.781 357.17C222.614 357.17 223.319 356.915 223.897 356.403C224.475 355.892 224.915 355.182 225.218 354.273C225.531 353.364 225.687 352.312 225.687 351.119C225.687 349.907 225.531 348.847 225.218 347.938C224.915 347.028 224.475 346.318 223.897 345.807C223.319 345.295 222.614 345.04 221.781 345.04C220.919 345.04 220.19 345.295 219.593 345.807C219.006 346.318 218.556 347.028 218.244 347.938C217.941 348.847 217.789 349.907 217.789 351.119C217.789 352.312 217.941 353.364 218.244 354.273C218.556 355.182 219.006 355.892 219.593 356.403C220.19 356.915 220.919 357.17 221.781 357.17ZM236.319 370.182V340.182H243.194V343.918H243.407C243.691 343.255 244.094 342.616 244.614 342C245.145 341.384 245.817 340.883 246.631 340.494C247.455 340.097 248.44 339.898 249.586 339.898C251.101 339.898 252.517 340.295 253.833 341.091C255.159 341.886 256.229 343.113 257.043 344.77C257.858 346.427 258.265 348.539 258.265 351.105C258.265 353.577 257.872 355.646 257.086 357.312C256.309 358.979 255.258 360.229 253.933 361.062C252.616 361.896 251.153 362.312 249.543 362.312C248.445 362.312 247.493 362.133 246.688 361.773C245.883 361.413 245.206 360.939 244.657 360.352C244.117 359.765 243.701 359.135 243.407 358.463H243.265V370.182H236.319ZM243.123 351.091C243.123 352.265 243.279 353.288 243.592 354.159C243.914 355.03 244.373 355.707 244.969 356.19C245.576 356.664 246.3 356.901 247.143 356.901C247.995 356.901 248.719 356.664 249.316 356.19C249.913 355.707 250.362 355.03 250.665 354.159C250.978 353.288 251.134 352.265 251.134 351.091C251.134 349.917 250.978 348.899 250.665 348.037C250.362 347.175 249.913 346.508 249.316 346.034C248.729 345.561 248.004 345.324 247.143 345.324C246.29 345.324 245.566 345.556 244.969 346.02C244.373 346.484 243.914 347.147 243.592 348.009C243.279 348.87 243.123 349.898 243.123 351.091ZM386.124 358.733C385.101 358.733 384.225 358.373 383.496 357.653C382.776 356.934 382.421 356.062 382.43 355.04C382.421 354.036 382.776 353.179 383.496 352.469C384.225 351.749 385.101 351.389 386.124 351.389C387.089 351.389 387.942 351.749 388.68 352.469C389.429 353.179 389.807 354.036 389.817 355.04C389.807 355.722 389.627 356.342 389.277 356.901C388.936 357.459 388.486 357.904 387.928 358.236C387.378 358.567 386.777 358.733 386.124 358.733ZM386.124 344.614C385.101 344.614 384.225 344.254 383.496 343.534C382.776 342.814 382.421 341.943 382.43 340.92C382.421 339.917 382.776 339.06 383.496 338.349C384.225 337.63 385.101 337.27 386.124 337.27C387.089 337.27 387.942 337.63 388.68 338.349C389.429 339.06 389.807 339.917 389.817 340.92C389.807 341.602 389.627 342.223 389.277 342.781C388.936 343.34 388.486 343.785 387.928 344.116C387.378 344.448 386.777 344.614 386.124 344.614ZM416.393 332.909V362H409.376V339.472H409.206L402.7 343.449V337.369L409.874 332.909H416.393ZM434.856 362.71C432.318 362.71 430.13 362.109 428.293 360.906C426.456 359.694 425.04 357.956 424.046 355.693C423.052 353.42 422.559 350.688 422.569 347.497C422.578 344.306 423.076 341.598 424.06 339.372C425.055 337.137 426.466 335.437 428.293 334.273C430.13 333.098 432.318 332.511 434.856 332.511C437.394 332.511 439.581 333.098 441.418 334.273C443.265 335.437 444.685 337.137 445.68 339.372C446.674 341.607 447.166 344.315 447.157 347.497C447.157 350.698 446.66 353.435 445.665 355.707C444.671 357.98 443.255 359.718 441.418 360.92C439.591 362.114 437.403 362.71 434.856 362.71ZM434.856 356.957C436.371 356.957 437.597 356.186 438.535 354.642C439.472 353.089 439.936 350.707 439.927 347.497C439.927 345.395 439.714 343.662 439.288 342.298C438.862 340.925 438.27 339.902 437.512 339.23C436.754 338.558 435.869 338.222 434.856 338.222C433.35 338.222 432.133 338.984 431.205 340.509C430.277 342.024 429.808 344.353 429.799 347.497C429.79 349.628 429.993 351.394 430.41 352.795C430.836 354.197 431.433 355.243 432.2 355.935C432.967 356.616 433.852 356.957 434.856 356.957ZM453.897 362.412C452.874 362.412 451.998 362.052 451.269 361.332C450.549 360.613 450.194 359.741 450.204 358.719C450.194 357.715 450.549 356.858 451.269 356.148C451.998 355.428 452.874 355.068 453.897 355.068C454.863 355.068 455.715 355.428 456.454 356.148C457.202 356.858 457.581 357.715 457.59 358.719C457.581 359.401 457.401 360.021 457.05 360.58C456.71 361.138 456.26 361.583 455.701 361.915C455.152 362.246 454.55 362.412 453.897 362.412ZM462.107 362L473.84 338.761V338.577H460.119V332.909H481.113V338.619L469.337 362H462.107ZM513.325 340.182V357.469H516.947V369.003H510.229V362H493.624V340.182H500.2V356.688H506.848V340.182H513.325ZM526.337 362.369C524.945 362.369 523.709 362.137 522.629 361.673C521.559 361.2 520.712 360.49 520.087 359.543C519.471 358.586 519.163 357.388 519.163 355.949C519.163 354.737 519.376 353.714 519.803 352.881C520.229 352.047 520.816 351.37 521.564 350.849C522.312 350.329 523.174 349.936 524.149 349.67C525.125 349.396 526.166 349.211 527.274 349.116C528.515 349.003 529.514 348.884 530.271 348.761C531.029 348.629 531.578 348.444 531.919 348.207C532.269 347.961 532.445 347.616 532.445 347.17V347.099C532.445 346.37 532.194 345.807 531.692 345.409C531.19 345.011 530.513 344.812 529.661 344.812C528.742 344.812 528.003 345.011 527.445 345.409C526.886 345.807 526.531 346.356 526.379 347.057L519.973 346.83C520.162 345.504 520.65 344.32 521.436 343.278C522.232 342.227 523.321 341.403 524.703 340.807C526.095 340.201 527.767 339.898 529.717 339.898C531.109 339.898 532.393 340.063 533.567 340.395C534.741 340.717 535.764 341.19 536.635 341.815C537.506 342.431 538.179 343.188 538.652 344.088C539.135 344.988 539.376 346.015 539.376 347.17V362H532.842V358.96H532.672C532.284 359.699 531.786 360.324 531.18 360.835C530.584 361.347 529.878 361.73 529.064 361.986C528.259 362.241 527.35 362.369 526.337 362.369ZM528.482 357.824C529.23 357.824 529.902 357.672 530.499 357.369C531.105 357.066 531.588 356.65 531.947 356.119C532.307 355.58 532.487 354.955 532.487 354.244V352.17C532.288 352.275 532.047 352.369 531.763 352.455C531.488 352.54 531.185 352.62 530.854 352.696C530.522 352.772 530.181 352.838 529.831 352.895C529.481 352.952 529.144 353.004 528.822 353.051C528.169 353.155 527.61 353.316 527.146 353.534C526.692 353.752 526.341 354.036 526.095 354.386C525.858 354.727 525.74 355.134 525.74 355.608C525.74 356.328 525.996 356.877 526.507 357.256C527.028 357.634 527.686 357.824 528.482 357.824ZM559.05 340.182V345.494H550.342V362H543.624V340.182H559.05Z" fill="white"/>
<path d="M87.7251 398.449H80.6229C80.5282 397.72 80.334 397.062 80.0405 396.474C79.7469 395.887 79.3587 395.385 78.8757 394.969C78.3928 394.552 77.8198 394.235 77.157 394.017C76.5036 393.79 75.7791 393.676 74.9837 393.676C73.5727 393.676 72.3558 394.022 71.3331 394.713C70.3198 395.404 69.5386 396.403 68.9893 397.71C68.4496 399.017 68.1797 400.598 68.1797 402.455C68.1797 404.386 68.4543 406.006 69.0036 407.312C69.5623 408.61 70.3435 409.59 71.3473 410.253C72.3606 410.906 73.5585 411.233 74.9411 411.233C75.7176 411.233 76.4231 411.134 77.0575 410.935C77.7015 410.736 78.2649 410.447 78.7479 410.068C79.2403 409.68 79.6428 409.211 79.9553 408.662C80.2772 408.103 80.4998 407.473 80.6229 406.773L87.7251 406.815C87.602 408.103 87.228 409.372 86.603 410.622C85.9875 411.872 85.1399 413.013 84.0604 414.045C82.9808 415.068 81.6645 415.883 80.1115 416.489C78.5679 417.095 76.7971 417.398 74.799 417.398C72.1664 417.398 69.8085 416.82 67.7251 415.665C65.6513 414.5 64.013 412.805 62.8104 410.58C61.6077 408.354 61.0064 405.646 61.0064 402.455C61.0064 399.254 61.6172 396.541 62.8388 394.315C64.0604 392.09 65.7128 390.4 67.7962 389.244C69.8795 388.089 72.2138 387.511 74.799 387.511C76.5604 387.511 78.1892 387.758 79.6854 388.25C81.1816 388.733 82.4979 389.443 83.6342 390.381C84.7706 391.309 85.6939 392.45 86.4041 393.804C87.1143 395.158 87.5547 396.706 87.7251 398.449ZM97.8991 417.369C96.5071 417.369 95.2713 417.137 94.1918 416.673C93.1217 416.2 92.2741 415.49 91.6491 414.543C91.0336 413.586 90.7259 412.388 90.7259 410.949C90.7259 409.737 90.9389 408.714 91.3651 407.881C91.7912 407.047 92.3783 406.37 93.1264 405.849C93.8745 405.329 94.7363 404.936 95.7116 404.67C96.687 404.396 97.7287 404.211 98.8366 404.116C100.077 404.003 101.076 403.884 101.834 403.761C102.591 403.629 103.141 403.444 103.482 403.207C103.832 402.961 104.007 402.616 104.007 402.17V402.099C104.007 401.37 103.756 400.807 103.254 400.409C102.752 400.011 102.075 399.812 101.223 399.812C100.304 399.812 99.5658 400.011 99.0071 400.409C98.4484 400.807 98.0933 401.356 97.9418 402.057L91.5355 401.83C91.7249 400.504 92.2126 399.32 92.9986 398.278C93.794 397.227 94.883 396.403 96.2656 395.807C97.6577 395.201 99.3291 394.898 101.28 394.898C102.672 394.898 103.955 395.063 105.129 395.395C106.304 395.717 107.326 396.19 108.197 396.815C109.069 397.431 109.741 398.188 110.214 399.088C110.697 399.988 110.939 401.015 110.939 402.17V417H104.405V413.96H104.234C103.846 414.699 103.349 415.324 102.743 415.835C102.146 416.347 101.441 416.73 100.626 416.986C99.8215 417.241 98.9124 417.369 97.8991 417.369ZM100.044 412.824C100.792 412.824 101.464 412.672 102.061 412.369C102.667 412.066 103.15 411.65 103.51 411.119C103.87 410.58 104.05 409.955 104.05 409.244V407.17C103.851 407.275 103.609 407.369 103.325 407.455C103.051 407.54 102.748 407.62 102.416 407.696C102.085 407.772 101.744 407.838 101.393 407.895C101.043 407.952 100.707 408.004 100.385 408.051C99.7315 408.155 99.1728 408.316 98.7088 408.534C98.2543 408.752 97.9039 409.036 97.6577 409.386C97.4209 409.727 97.3026 410.134 97.3026 410.608C97.3026 411.328 97.5582 411.877 98.0696 412.256C98.5904 412.634 99.2486 412.824 100.044 412.824ZM130.57 403.378V408.676H119.376V403.378H130.57ZM121.763 395.182V417H115.186V395.182H121.763ZM134.76 395.182V417H128.226V395.182H134.76ZM158.62 395.182V417H152.086V395.182H158.62ZM155.31 404.486V409.798C154.941 409.988 154.42 410.172 153.748 410.352C153.085 410.523 152.384 410.665 151.646 410.778C150.916 410.892 150.268 410.949 149.7 410.949C146.347 410.949 143.719 410.31 141.816 409.031C139.922 407.743 138.975 405.651 138.975 402.753V395.168H145.467V402.753C145.467 403.501 145.585 404.083 145.822 404.5C146.068 404.917 146.494 405.21 147.1 405.381C147.716 405.551 148.582 405.636 149.7 405.636C150.552 405.636 151.423 405.542 152.313 405.352C153.213 405.153 154.212 404.865 155.31 404.486ZM169.419 408.009L176.393 395.182H183.07V417H176.493V404.131L169.533 417H162.842V395.182H169.419V408.009ZM187.491 425.182V395.182H194.366V398.918H194.579C194.863 398.255 195.265 397.616 195.786 397C196.317 396.384 196.989 395.883 197.803 395.494C198.627 395.097 199.612 394.898 200.758 394.898C202.273 394.898 203.689 395.295 205.005 396.091C206.331 396.886 207.401 398.113 208.215 399.77C209.03 401.427 209.437 403.539 209.437 406.105C209.437 408.577 209.044 410.646 208.258 412.312C207.481 413.979 206.43 415.229 205.104 416.062C203.788 416.896 202.325 417.312 200.715 417.312C199.617 417.312 198.665 417.133 197.86 416.773C197.055 416.413 196.378 415.939 195.829 415.352C195.289 414.765 194.872 414.135 194.579 413.463H194.437V425.182H187.491ZM194.295 406.091C194.295 407.265 194.451 408.288 194.763 409.159C195.085 410.03 195.545 410.707 196.141 411.19C196.747 411.664 197.472 411.901 198.315 411.901C199.167 411.901 199.891 411.664 200.488 411.19C201.085 410.707 201.534 410.03 201.837 409.159C202.15 408.288 202.306 407.265 202.306 406.091C202.306 404.917 202.15 403.899 201.837 403.037C201.534 402.175 201.085 401.508 200.488 401.034C199.901 400.561 199.176 400.324 198.315 400.324C197.462 400.324 196.738 400.556 196.141 401.02C195.545 401.484 195.085 402.147 194.763 403.009C194.451 403.87 194.295 404.898 194.295 406.091ZM217.153 401.489H223.773C226.775 401.489 229.128 402.194 230.832 403.605C232.537 405.007 233.394 406.91 233.403 409.315C233.394 410.878 233.001 412.237 232.224 413.392C231.457 414.538 230.354 415.428 228.915 416.062C227.485 416.688 225.771 417 223.773 417H213.077V395.182H219.653V411.688H223.773C224.682 411.688 225.43 411.465 226.017 411.02C226.604 410.575 226.902 410.002 226.912 409.301C226.902 408.562 226.604 407.961 226.017 407.497C225.43 407.033 224.682 406.801 223.773 406.801H217.153V401.489ZM235.364 417V395.182H242.31V417H235.364ZM262.093 403.378V408.676H250.9V403.378H262.093ZM253.286 395.182V417H246.71V395.182H253.286ZM266.283 395.182V417H259.749V395.182H266.283ZM294.476 403.378V408.676H283.283V403.378H294.476ZM285.669 395.182V417H279.092V395.182H285.669ZM298.666 395.182V417H292.132V395.182H298.666ZM311.234 400.253C310.571 400.253 310.012 400.366 309.558 400.594C309.103 400.821 308.762 401.143 308.535 401.56C308.317 401.976 308.208 402.483 308.208 403.08H302.043C302.043 401.82 302.271 400.684 302.725 399.67C303.18 398.648 303.819 397.777 304.643 397.057C305.476 396.328 306.451 395.774 307.569 395.395C308.686 395.007 309.908 394.812 311.234 394.812C313.497 394.812 315.396 395.295 316.93 396.261C318.473 397.227 319.638 398.548 320.424 400.224C321.21 401.891 321.603 403.78 321.603 405.892V406.318C321.603 408.439 321.215 410.338 320.438 412.014C319.662 413.681 318.502 414.997 316.958 415.963C315.424 416.92 313.516 417.398 311.234 417.398C309.415 417.398 307.815 417.052 306.433 416.361C305.059 415.67 303.985 414.666 303.208 413.349C302.432 412.033 302.043 410.438 302.043 408.562H308.208C308.208 409.178 308.317 409.741 308.535 410.253C308.753 410.755 309.084 411.157 309.529 411.46C309.984 411.754 310.552 411.905 311.234 411.915C312.304 411.905 313.109 411.612 313.648 411.034C314.198 410.456 314.562 409.737 314.742 408.875C314.932 408.013 315.026 407.161 315.026 406.318V405.892C315.026 404.926 314.927 404.017 314.728 403.165C314.539 402.303 314.169 401.602 313.62 401.062C313.08 400.523 312.285 400.253 311.234 400.253ZM316.887 404.259V407.98H309.799V404.259H316.887ZM340.612 395.182V400.494H331.905V417H325.186V395.182H340.612ZM351.042 417L358.272 405.551L351.056 395.182H358.954L364.082 403.449H364.721V395.182H371.667V403.449H372.292L377.42 395.182H385.317L378.116 405.551L385.332 417H377.249L372.235 408.761H371.667V417H364.721V408.761H364.153L359.124 417H351.042ZM394.849 408.009L401.823 395.182H408.499V417H401.923V404.131L394.962 417H388.272V395.182H394.849V408.009ZM411.855 417L411.812 411.645H412.509C412.982 411.645 413.394 411.522 413.744 411.276C414.095 411.029 414.388 410.636 414.625 410.097C414.862 409.547 415.051 408.842 415.193 407.98C415.335 407.118 415.425 406.072 415.463 404.841L415.818 395.182H433.091V417H426.514V400.494H421.997L421.656 406.773C421.571 408.619 421.33 410.196 420.932 411.503C420.544 412.8 420.013 413.851 419.341 414.656C418.678 415.461 417.892 416.053 416.983 416.432C416.074 416.811 415.046 417 413.901 417H411.855ZM461.312 403.378V408.676H450.119V403.378H461.312ZM452.505 395.182V417H445.928V395.182H452.505ZM465.502 395.182V417H458.968V395.182H465.502ZM473.794 401.489H480.413C483.415 401.489 485.768 402.194 487.473 403.605C489.178 405.007 490.035 406.91 490.044 409.315C490.035 410.878 489.642 412.237 488.865 413.392C488.098 414.538 486.995 415.428 485.555 416.062C484.125 416.688 482.411 417 480.413 417H469.717V395.182H476.294V411.688H480.413C481.322 411.688 482.071 411.465 482.658 411.02C483.245 410.575 483.543 410.002 483.553 409.301C483.543 408.562 483.245 407.961 482.658 407.497C482.071 407.033 481.322 406.801 480.413 406.801H473.794V401.489ZM500.79 423.435V411.645H502.423C502.916 411.399 503.309 410.925 503.602 410.224C503.896 409.514 504.128 408.686 504.298 407.739C504.478 406.782 504.611 405.788 504.696 404.756C504.791 403.714 504.876 402.734 504.952 401.815L505.463 395.182H523.134V411.645H526.543V423.435H519.952V417H507.551V423.435H500.79ZM509.185 411.645H516.656V400.352H511.259L511.145 401.815C511.012 404.164 510.804 406.134 510.52 407.724C510.236 409.315 509.791 410.622 509.185 411.645ZM538.109 400.253C537.446 400.253 536.887 400.366 536.433 400.594C535.978 400.821 535.637 401.143 535.41 401.56C535.192 401.976 535.083 402.483 535.083 403.08H528.918C528.918 401.82 529.146 400.684 529.6 399.67C530.055 398.648 530.694 397.777 531.518 397.057C532.351 396.328 533.326 395.774 534.444 395.395C535.561 395.007 536.783 394.812 538.109 394.812C540.372 394.812 542.271 395.295 543.805 396.261C545.348 397.227 546.513 398.548 547.299 400.224C548.085 401.891 548.478 403.78 548.478 405.892V406.318C548.478 408.439 548.09 410.338 547.313 412.014C546.537 413.681 545.377 414.997 543.833 415.963C542.299 416.92 540.391 417.398 538.109 417.398C536.29 417.398 534.69 417.052 533.308 416.361C531.934 415.67 530.86 414.666 530.083 413.349C529.307 412.033 528.918 410.438 528.918 408.562H535.083C535.083 409.178 535.192 409.741 535.41 410.253C535.628 410.755 535.959 411.157 536.404 411.46C536.859 411.754 537.427 411.905 538.109 411.915C539.179 411.905 539.984 411.612 540.523 411.034C541.073 410.456 541.437 409.737 541.617 408.875C541.807 408.013 541.901 407.161 541.901 406.318V405.892C541.901 404.926 541.802 404.017 541.603 403.165C541.414 402.303 541.044 401.602 540.495 401.062C539.955 400.523 539.16 400.253 538.109 400.253ZM543.762 404.259V407.98H536.674V404.259H543.762ZM550.996 417L550.953 411.645H551.649C552.123 411.645 552.535 411.522 552.885 411.276C553.235 411.029 553.529 410.636 553.766 410.097C554.002 409.547 554.192 408.842 554.334 407.98C554.476 407.118 554.566 406.072 554.604 404.841L554.959 395.182H572.232V417H565.655V400.494H561.138L560.797 406.773C560.712 408.619 560.47 410.196 560.072 411.503C559.684 412.8 559.154 413.851 558.482 414.656C557.819 415.461 557.033 416.053 556.124 416.432C555.214 416.811 554.187 417 553.041 417H550.996ZM582.384 395.182L585.978 402.369L589.7 395.182H596.702L590.609 406.091L596.93 417H589.984L585.978 409.756L582.072 417H575.026L581.362 406.091L575.339 395.182H582.384ZM606.45 408.009L613.425 395.182H620.101V417H613.524V404.131L606.564 417H599.874V395.182H606.45V408.009ZM631.099 408.009L638.073 395.182H644.749V417H638.173V404.131L631.212 417H624.522V395.182H631.099V408.009ZM637.448 387.455H642.022C642.013 389.235 641.34 390.665 640.005 391.744C638.679 392.824 636.88 393.364 634.607 393.364C632.335 393.364 630.531 392.824 629.195 391.744C627.87 390.665 627.211 389.235 627.221 387.455H631.752C631.743 388.08 631.956 388.648 632.391 389.159C632.827 389.67 633.566 389.926 634.607 389.926C635.621 389.926 636.345 389.675 636.781 389.173C637.216 388.671 637.439 388.098 637.448 387.455ZM664.554 403.378V408.676H653.361V403.378H664.554ZM655.747 395.182V417H649.17V395.182H655.747ZM668.744 395.182V417H662.21V395.182H668.744ZM681.496 417V411.943L692.107 402.653C692.903 401.934 693.58 401.276 694.138 400.679C694.697 400.073 695.123 399.467 695.417 398.861C695.71 398.245 695.857 397.578 695.857 396.858C695.857 396.053 695.682 395.366 695.332 394.798C694.981 394.221 694.498 393.776 693.883 393.463C693.267 393.151 692.562 392.994 691.766 392.994C690.961 392.994 690.256 393.16 689.65 393.491C689.044 393.813 688.57 394.282 688.229 394.898C687.898 395.513 687.732 396.261 687.732 397.142H681.07C681.07 395.163 681.515 393.454 682.406 392.014C683.296 390.575 684.546 389.467 686.156 388.69C687.775 387.904 689.655 387.511 691.795 387.511C694.001 387.511 695.919 387.881 697.548 388.619C699.176 389.358 700.436 390.39 701.326 391.716C702.226 393.032 702.675 394.562 702.675 396.304C702.675 397.412 702.453 398.51 702.008 399.599C701.563 400.688 700.763 401.891 699.607 403.207C698.461 404.524 696.833 406.1 694.721 407.938L691.241 411.148V411.332H703.031V417H681.496ZM717.956 387.511C719.547 387.511 721.067 387.772 722.516 388.293C723.964 388.804 725.257 389.623 726.393 390.75C727.53 391.867 728.425 393.34 729.078 395.168C729.732 396.995 730.058 399.225 730.058 401.858C730.068 404.282 729.784 406.455 729.206 408.378C728.628 410.291 727.8 411.92 726.72 413.264C725.65 414.609 724.362 415.636 722.857 416.347C721.351 417.047 719.67 417.398 717.814 417.398C715.768 417.398 713.964 417.005 712.402 416.219C710.849 415.423 709.604 414.353 708.666 413.009C707.738 411.664 707.184 410.158 707.004 408.491H713.922C714.14 409.457 714.599 410.187 715.3 410.679C716 411.162 716.839 411.403 717.814 411.403C719.594 411.403 720.925 410.632 721.805 409.088C722.686 407.545 723.126 405.447 723.126 402.795H722.956C722.549 403.667 721.971 404.415 721.223 405.04C720.484 405.665 719.627 406.143 718.652 406.474C717.677 406.806 716.649 406.972 715.57 406.972C713.827 406.972 712.288 406.574 710.953 405.778C709.627 404.983 708.586 403.889 707.828 402.497C707.08 401.105 706.701 399.514 706.692 397.724C706.682 395.717 707.151 393.946 708.098 392.412C709.045 390.868 710.366 389.666 712.061 388.804C713.756 387.933 715.721 387.502 717.956 387.511ZM717.999 392.909C717.127 392.909 716.351 393.113 715.669 393.52C714.997 393.927 714.466 394.476 714.078 395.168C713.69 395.859 713.5 396.635 713.51 397.497C713.519 398.359 713.714 399.135 714.092 399.827C714.481 400.518 715.006 401.067 715.669 401.474C716.341 401.882 717.108 402.085 717.97 402.085C718.614 402.085 719.211 401.967 719.76 401.73C720.309 401.493 720.787 401.167 721.195 400.75C721.602 400.324 721.919 399.831 722.146 399.273C722.383 398.714 722.497 398.117 722.487 397.483C722.478 396.64 722.279 395.873 721.891 395.182C721.502 394.491 720.967 393.941 720.286 393.534C719.613 393.117 718.851 392.909 717.999 392.909ZM736.631 417.412C735.609 417.412 734.733 417.052 734.004 416.332C733.284 415.613 732.929 414.741 732.938 413.719C732.929 412.715 733.284 411.858 734.004 411.148C734.733 410.428 735.609 410.068 736.631 410.068C737.597 410.068 738.45 410.428 739.188 411.148C739.936 411.858 740.315 412.715 740.325 413.719C740.315 414.401 740.135 415.021 739.785 415.58C739.444 416.138 738.994 416.583 738.435 416.915C737.886 417.246 737.285 417.412 736.631 417.412ZM755.875 417.398C753.754 417.398 751.869 417.014 750.222 416.247C748.574 415.48 747.272 414.424 746.315 413.08C745.368 411.735 744.876 410.191 744.838 408.449H751.656C751.713 409.519 752.149 410.381 752.963 411.034C753.777 411.678 754.748 412 755.875 412C756.756 412 757.537 411.806 758.219 411.418C758.901 411.029 759.436 410.485 759.824 409.784C760.212 409.074 760.402 408.259 760.392 407.341C760.402 406.403 760.207 405.584 759.81 404.884C759.421 404.183 758.882 403.638 758.19 403.25C757.509 402.852 756.723 402.653 755.832 402.653C754.99 402.644 754.189 402.829 753.432 403.207C752.684 403.586 752.116 404.102 751.727 404.756L745.52 403.591L746.784 387.909H765.449V393.577H752.565L751.898 400.438H752.068C752.551 399.633 753.328 398.97 754.398 398.449C755.477 397.919 756.704 397.653 758.077 397.653C759.819 397.653 761.372 398.061 762.736 398.875C764.109 399.68 765.188 400.797 765.974 402.227C766.77 403.657 767.168 405.295 767.168 407.142C767.168 409.14 766.694 410.911 765.747 412.455C764.81 413.998 763.493 415.21 761.798 416.091C760.113 416.962 758.138 417.398 755.875 417.398ZM247.468 465L254.698 453.551L247.482 443.182H255.38L260.507 451.449H261.147V443.182H268.093V451.449H268.718L273.846 443.182H281.743L274.542 453.551L281.757 465H273.675L268.661 456.761H268.093V465H261.147V456.761H260.578L255.55 465H247.468ZM291.275 456.009L298.249 443.182H304.925V465H298.348V452.131L291.388 465H284.698V443.182H291.275V456.009ZM308.281 465L308.238 459.645H308.934C309.408 459.645 309.82 459.522 310.17 459.276C310.52 459.029 310.814 458.636 311.051 458.097C311.288 457.547 311.477 456.842 311.619 455.98C311.761 455.118 311.851 454.072 311.889 452.841L312.244 443.182H329.517V465H322.94V448.494H318.423L318.082 454.773C317.997 456.619 317.755 458.196 317.358 459.503C316.969 460.8 316.439 461.851 315.767 462.656C315.104 463.461 314.318 464.053 313.409 464.432C312.5 464.811 311.472 465 310.326 465H308.281ZM331.832 448.494V443.182H352.287V448.494H345.312V465H338.721V448.494H331.832ZM363.949 448.253C363.286 448.253 362.727 448.366 362.272 448.594C361.818 448.821 361.477 449.143 361.25 449.56C361.032 449.976 360.923 450.483 360.923 451.08H354.758C354.758 449.82 354.985 448.684 355.44 447.67C355.895 446.648 356.534 445.777 357.358 445.057C358.191 444.328 359.166 443.774 360.284 443.395C361.401 443.007 362.623 442.812 363.949 442.812C366.212 442.812 368.11 443.295 369.645 444.261C371.188 445.227 372.353 446.548 373.139 448.224C373.925 449.891 374.318 451.78 374.318 453.892V454.318C374.318 456.439 373.93 458.338 373.153 460.014C372.377 461.681 371.217 462.997 369.673 463.963C368.139 464.92 366.231 465.398 363.949 465.398C362.13 465.398 360.53 465.052 359.147 464.361C357.774 463.67 356.699 462.666 355.923 461.349C355.146 460.033 354.758 458.438 354.758 456.562H360.923C360.923 457.178 361.032 457.741 361.25 458.253C361.467 458.755 361.799 459.157 362.244 459.46C362.699 459.754 363.267 459.905 363.949 459.915C365.019 459.905 365.824 459.612 366.363 459.034C366.913 458.456 367.277 457.737 367.457 456.875C367.646 456.013 367.741 455.161 367.741 454.318V453.892C367.741 452.926 367.642 452.017 367.443 451.165C367.253 450.303 366.884 449.602 366.335 449.062C365.795 448.523 365 448.253 363.949 448.253ZM369.602 452.259V455.98H362.514V452.259H369.602ZM384.478 456.009L391.452 443.182H398.128V465H391.551V452.131L384.591 465H377.901V443.182H384.478V456.009ZM390.827 435.455H395.401C395.391 437.235 394.719 438.665 393.384 439.744C392.058 440.824 390.259 441.364 387.986 441.364C385.713 441.364 383.909 440.824 382.574 439.744C381.248 438.665 380.59 437.235 380.6 435.455H385.131C385.122 436.08 385.335 436.648 385.77 437.159C386.206 437.67 386.944 437.926 387.986 437.926C388.999 437.926 389.724 437.675 390.159 437.173C390.595 436.671 390.818 436.098 390.827 435.455ZM410.035 448.494V443.182H430.49V448.494H423.515V465H416.924V448.494H410.035ZM442.152 448.253C441.489 448.253 440.93 448.366 440.475 448.594C440.021 448.821 439.68 449.143 439.453 449.56C439.235 449.976 439.126 450.483 439.126 451.08H432.961C432.961 449.82 433.189 448.684 433.643 447.67C434.098 446.648 434.737 445.777 435.561 445.057C436.394 444.328 437.369 443.774 438.487 443.395C439.604 443.007 440.826 442.812 442.152 442.812C444.415 442.812 446.314 443.295 447.848 444.261C449.391 445.227 450.556 446.548 451.342 448.224C452.128 449.891 452.521 451.78 452.521 453.892V454.318C452.521 456.439 452.133 458.338 451.356 460.014C450.58 461.681 449.42 462.997 447.876 463.963C446.342 464.92 444.434 465.398 442.152 465.398C440.333 465.398 438.733 465.052 437.35 464.361C435.977 463.67 434.903 462.666 434.126 461.349C433.35 460.033 432.961 458.438 432.961 456.562H439.126C439.126 457.178 439.235 457.741 439.453 458.253C439.671 458.755 440.002 459.157 440.447 459.46C440.902 459.754 441.47 459.905 442.152 459.915C443.222 459.905 444.027 459.612 444.566 459.034C445.116 458.456 445.48 457.737 445.66 456.875C445.85 456.013 445.944 455.161 445.944 454.318V453.892C445.944 452.926 445.845 452.017 445.646 451.165C445.457 450.303 445.087 449.602 444.538 449.062C443.998 448.523 443.203 448.253 442.152 448.253ZM447.805 452.259V455.98H440.717V452.259H447.805ZM471.488 451.378V456.676H460.294V451.378H471.488ZM462.681 443.182V465H456.104V443.182H462.681ZM475.678 443.182V465H469.144V443.182H475.678ZM499.595 443.182V460.469H503.217V472.003H496.498V465H479.893V443.182H486.47V459.688H493.118V443.182H499.595ZM504.95 471.435V459.645H506.583C507.076 459.399 507.469 458.925 507.762 458.224C508.056 457.514 508.288 456.686 508.458 455.739C508.638 454.782 508.771 453.788 508.856 452.756C508.951 451.714 509.036 450.734 509.112 449.815L509.623 443.182H527.294V459.645H530.703V471.435H524.112V465H511.711V471.435H504.95ZM513.345 459.645H520.816V448.352H515.419L515.305 449.815C515.172 452.164 514.964 454.134 514.68 455.724C514.396 457.315 513.951 458.622 513.345 459.645ZM542.269 448.253C541.606 448.253 541.047 448.366 540.593 448.594C540.138 448.821 539.797 449.143 539.57 449.56C539.352 449.976 539.243 450.483 539.243 451.08H533.078C533.078 449.82 533.306 448.684 533.76 447.67C534.215 446.648 534.854 445.777 535.678 445.057C536.511 444.328 537.487 443.774 538.604 443.395C539.721 443.007 540.943 442.812 542.269 442.812C544.532 442.812 546.431 443.295 547.965 444.261C549.508 445.227 550.673 446.548 551.459 448.224C552.245 449.891 552.638 451.78 552.638 453.892V454.318C552.638 456.439 552.25 458.338 551.473 460.014C550.697 461.681 549.537 462.997 547.993 463.963C546.459 464.92 544.551 465.398 542.269 465.398C540.451 465.398 538.85 465.052 537.468 464.361C536.095 463.67 535.02 462.666 534.243 461.349C533.467 460.033 533.078 458.438 533.078 456.562H539.243C539.243 457.178 539.352 457.741 539.57 458.253C539.788 458.755 540.119 459.157 540.564 459.46C541.019 459.754 541.587 459.905 542.269 459.915C543.339 459.905 544.144 459.612 544.684 459.034C545.233 458.456 545.597 457.737 545.777 456.875C545.967 456.013 546.061 455.161 546.061 454.318V453.892C546.061 452.926 545.962 452.017 545.763 451.165C545.574 450.303 545.204 449.602 544.655 449.062C544.115 448.523 543.32 448.253 542.269 448.253ZM547.922 452.259V455.98H540.834V452.259H547.922ZM571.647 443.182V448.494H562.94V465H556.221V443.182H571.647ZM575.206 465.412C574.183 465.412 573.307 465.052 572.578 464.332C571.858 463.613 571.503 462.741 571.512 461.719C571.503 460.715 571.858 459.858 572.578 459.148C573.307 458.428 574.183 458.068 575.206 458.068C576.172 458.068 577.024 458.428 577.762 459.148C578.511 459.858 578.889 460.715 578.899 461.719C578.889 462.401 578.709 463.021 578.359 463.58C578.018 464.138 577.568 464.583 577.01 464.915C576.46 465.246 575.859 465.412 575.206 465.412Z" fill="white"/>
<circle cx="779.5" cy="79.5" r="55" fill="white" stroke="#FF6DFE" stroke-width="3"/>
<path d="M768.71 47.9091L778.773 68.0341L789.193 47.9091H808.801L791.739 78.4545L809.438 109H789.989L778.773 88.7159L767.835 109H748.108L765.847 78.4545L748.983 47.9091H768.71Z" fill="black" fill-opacity="0.96"/>
<defs>
<filter id="filter0_ddii_403_95" x="0" y="32" width="838" height="497" filterUnits="userSpaceOnUse" color-interpolation-filters="sRGB">
<feFlood flood-opacity="0" result="BackgroundImageFix"/>
<feColorMatrix in="SourceAlpha" type="matrix" values="0 0 0 0 0 0 0 0 0 0 0 0 0 0 0 0 0 0 127 0" result="hardAlpha"/>
<feMorphology radius="5" operator="dilate" in="SourceAlpha" result="effect1_dropShadow_403_95"/>
<feOffset dx="-10" dy="-10"/>
<feGaussianBlur stdDeviation="2.5"/>
<feComposite in2="hardAlpha" operator="out"/>
<feColorMatrix type="matrix" values="0 0 0 0 0.133333 0 0 0 0 0.0117647 0 0 0 0 0.396078 0 0 0 0.25 0"/>
<feBlend mode="normal" in2="BackgroundImageFix" result="effect1_dropShadow_403_95"/>
<feColorMatrix in="SourceAlpha" type="matrix" values="0 0 0 0 0 0 0 0 0 0 0 0 0 0 0 0 0 0 127 0" result="hardAlpha"/>
<feMorphology radius="5" operator="dilate" in="SourceAlpha" result="effect2_dropShadow_403_95"/>
<feOffset dx="10" dy="10"/>
<feGaussianBlur stdDeviation="2.5"/>
<feComposite in2="hardAlpha" operator="out"/>
<feColorMatrix type="matrix" values="0 0 0 0 0.133941 0 0 0 0 0.0133056 0 0 0 0 0.395808 0 0 0 0.25 0"/>
<feBlend mode="normal" in2="effect1_dropShadow_403_95" result="effect2_dropShadow_403_95"/>
<feBlend mode="normal" in="SourceGraphic" in2="effect2_dropShadow_403_95" result="shape"/>
<feColorMatrix in="SourceAlpha" type="matrix" values="0 0 0 0 0 0 0 0 0 0 0 0 0 0 0 0 0 0 127 0" result="hardAlpha"/>
<feMorphology radius="5" operator="erode" in="SourceAlpha" result="effect3_innerShadow_403_95"/>
<feOffset dx="-10" dy="-10"/>
<feGaussianBlur stdDeviation="2.5"/>
<feComposite in2="hardAlpha" operator="arithmetic" k2="-1" k3="1"/>
<feColorMatrix type="matrix" values="0 0 0 0 0.509804 0 0 0 0 0.337255 0 0 0 0 0.721569 0 0 0 0.16 0"/>
<feBlend mode="normal" in2="shape" result="effect3_innerShadow_403_95"/>
<feColorMatrix in="SourceAlpha" type="matrix" values="0 0 0 0 0 0 0 0 0 0 0 0 0 0 0 0 0 0 127 0" result="hardAlpha"/>
<feMorphology radius="5" operator="erode" in="SourceAlpha" result="effect4_innerShadow_403_95"/>
<feOffset dx="10" dy="10"/>
<feGaussianBlur stdDeviation="2.5"/>
<feComposite in2="hardAlpha" operator="arithmetic" k2="-1" k3="1"/>
<feColorMatrix type="matrix" values="0 0 0 0 0.505882 0 0 0 0 0.329412 0 0 0 0 0.72549 0 0 0 0.16 0"/>
<feBlend mode="normal" in2="effect3_innerShadow_403_95" result="effect4_innerShadow_403_95"/>
</filter>
</defs>
</svg>
