<svg width="845" height="596" viewBox="0 0 845 596" fill="none" xmlns="http://www.w3.org/2000/svg">
<g filter="url(#filter0_ddii_403_100)">
<rect x="20" y="52" width="803" height="441.374" rx="60" fill="#7E40D0" fill-opacity="0.8" shape-rendering="crispEdges"/>
<rect x="20.5" y="52.5" width="802" height="440.374" rx="59.5" stroke="#C53D41" shape-rendering="crispEdges"/>
</g>
<path d="M115.389 393.449H108.287C108.192 392.72 107.998 392.062 107.705 391.474C107.411 390.887 107.023 390.385 106.54 389.969C106.057 389.552 105.484 389.235 104.821 389.017C104.168 388.79 103.443 388.676 102.648 388.676C101.237 388.676 100.02 389.022 98.9972 389.713C97.9839 390.404 97.2027 391.403 96.6534 392.71C96.1136 394.017 95.8438 395.598 95.8438 397.455C95.8438 399.386 96.1184 401.006 96.6676 402.312C97.2263 403.61 98.0076 404.59 99.0114 405.253C100.025 405.906 101.223 406.233 102.605 406.233C103.382 406.233 104.087 406.134 104.722 405.935C105.366 405.736 105.929 405.447 106.412 405.068C106.904 404.68 107.307 404.211 107.619 403.662C107.941 403.103 108.164 402.473 108.287 401.773L115.389 401.815C115.266 403.103 114.892 404.372 114.267 405.622C113.652 406.872 112.804 408.013 111.724 409.045C110.645 410.068 109.329 410.883 107.776 411.489C106.232 412.095 104.461 412.398 102.463 412.398C99.8305 412.398 97.4725 411.82 95.3892 410.665C93.3153 409.5 91.6771 407.805 90.4744 405.58C89.2718 403.354 88.6705 400.646 88.6705 397.455C88.6705 394.254 89.2812 391.541 90.5028 389.315C91.7244 387.09 93.3769 385.4 95.4602 384.244C97.5436 383.089 99.8778 382.511 102.463 382.511C104.224 382.511 105.853 382.758 107.349 383.25C108.846 383.733 110.162 384.443 111.298 385.381C112.435 386.309 113.358 387.45 114.068 388.804C114.778 390.158 115.219 391.706 115.389 393.449ZM124.011 420.182C123.178 420.182 122.392 420.116 121.653 419.983C120.915 419.86 120.28 419.694 119.75 419.486L121.284 414.443C121.966 414.67 122.581 414.803 123.131 414.841C123.689 414.879 124.168 414.789 124.565 414.571C124.973 414.363 125.285 413.989 125.503 413.449L125.773 412.795L118.017 390.182H125.29L129.31 405.75H129.537L133.614 390.182H140.929L132.705 414.088C132.307 415.281 131.743 416.332 131.014 417.241C130.295 418.16 129.362 418.88 128.216 419.401C127.08 419.921 125.678 420.182 124.011 420.182ZM159.018 390.182V395.494H150.311V412H143.592V390.182H159.018ZM167.79 412.369C166.398 412.369 165.162 412.137 164.082 411.673C163.012 411.2 162.165 410.49 161.54 409.543C160.924 408.586 160.616 407.388 160.616 405.949C160.616 404.737 160.83 403.714 161.256 402.881C161.682 402.047 162.269 401.37 163.017 400.849C163.765 400.329 164.627 399.936 165.602 399.67C166.578 399.396 167.619 399.211 168.727 399.116C169.968 399.003 170.967 398.884 171.724 398.761C172.482 398.629 173.031 398.444 173.372 398.207C173.723 397.961 173.898 397.616 173.898 397.17V397.099C173.898 396.37 173.647 395.807 173.145 395.409C172.643 395.011 171.966 394.812 171.114 394.812C170.195 394.812 169.456 395.011 168.898 395.409C168.339 395.807 167.984 396.356 167.832 397.057L161.426 396.83C161.616 395.504 162.103 394.32 162.889 393.278C163.685 392.227 164.774 391.403 166.156 390.807C167.548 390.201 169.22 389.898 171.17 389.898C172.563 389.898 173.846 390.063 175.02 390.395C176.194 390.717 177.217 391.19 178.088 391.815C178.959 392.431 179.632 393.188 180.105 394.088C180.588 394.988 180.83 396.015 180.83 397.17V412H174.295V408.96H174.125C173.737 409.699 173.24 410.324 172.634 410.835C172.037 411.347 171.331 411.73 170.517 411.986C169.712 412.241 168.803 412.369 167.79 412.369ZM169.935 407.824C170.683 407.824 171.355 407.672 171.952 407.369C172.558 407.066 173.041 406.65 173.401 406.119C173.76 405.58 173.94 404.955 173.94 404.244V402.17C173.741 402.275 173.5 402.369 173.216 402.455C172.941 402.54 172.638 402.62 172.307 402.696C171.975 402.772 171.634 402.838 171.284 402.895C170.934 402.952 170.598 403.004 170.276 403.051C169.622 403.155 169.063 403.316 168.599 403.534C168.145 403.752 167.795 404.036 167.548 404.386C167.312 404.727 167.193 405.134 167.193 405.608C167.193 406.328 167.449 406.877 167.96 407.256C168.481 407.634 169.139 407.824 169.935 407.824ZM185.077 420.182V390.182H191.952V393.918H192.165C192.449 393.255 192.851 392.616 193.372 392C193.902 391.384 194.575 390.883 195.389 390.494C196.213 390.097 197.198 389.898 198.344 389.898C199.859 389.898 201.275 390.295 202.591 391.091C203.917 391.886 204.987 393.113 205.801 394.77C206.616 396.427 207.023 398.539 207.023 401.105C207.023 403.577 206.63 405.646 205.844 407.312C205.067 408.979 204.016 410.229 202.69 411.062C201.374 411.896 199.911 412.312 198.301 412.312C197.203 412.312 196.251 412.133 195.446 411.773C194.641 411.413 193.964 410.939 193.415 410.352C192.875 409.765 192.458 409.135 192.165 408.463H192.023V420.182H185.077ZM191.881 401.091C191.881 402.265 192.037 403.288 192.349 404.159C192.671 405.03 193.131 405.707 193.727 406.19C194.333 406.664 195.058 406.901 195.901 406.901C196.753 406.901 197.477 406.664 198.074 406.19C198.67 405.707 199.12 405.03 199.423 404.159C199.736 403.288 199.892 402.265 199.892 401.091C199.892 399.917 199.736 398.899 199.423 398.037C199.12 397.175 198.67 396.508 198.074 396.034C197.487 395.561 196.762 395.324 195.901 395.324C195.048 395.324 194.324 395.556 193.727 396.02C193.131 396.484 192.671 397.147 192.349 398.009C192.037 398.87 191.881 399.898 191.881 401.091ZM238.049 382.227L239.924 386.815C239.327 387.279 238.674 387.63 237.964 387.866C237.263 388.103 236.406 388.264 235.393 388.349C234.379 388.435 233.101 388.482 231.558 388.491C229.815 388.501 228.404 388.742 227.325 389.216C226.245 389.68 225.426 390.442 224.867 391.503C224.318 392.554 223.953 393.955 223.773 395.707H223.958C224.583 394.391 225.473 393.354 226.629 392.597C227.784 391.839 229.275 391.46 231.103 391.46C233.006 391.46 234.664 391.872 236.075 392.696C237.486 393.51 238.575 394.675 239.342 396.19C240.109 397.696 240.492 399.486 240.492 401.56C240.492 403.757 240.052 405.67 239.171 407.298C238.29 408.927 237.031 410.187 235.393 411.077C233.754 411.967 231.794 412.412 229.512 412.412C227.23 412.412 225.265 411.948 223.617 411.02C221.979 410.092 220.715 408.728 219.825 406.929C218.944 405.12 218.504 402.9 218.504 400.267V398.676C218.504 393.278 219.593 389.306 221.771 386.759C223.949 384.211 227.13 382.928 231.316 382.909C232.367 382.9 233.319 382.9 234.171 382.909C235.033 382.909 235.786 382.866 236.43 382.781C237.074 382.687 237.613 382.502 238.049 382.227ZM229.555 407.17C230.35 407.17 231.037 406.957 231.614 406.531C232.192 406.105 232.637 405.494 232.95 404.699C233.262 403.903 233.418 402.947 233.418 401.83C233.418 400.712 233.257 399.76 232.935 398.974C232.623 398.188 232.178 397.592 231.6 397.185C231.022 396.768 230.336 396.56 229.54 396.56C228.934 396.56 228.385 396.678 227.893 396.915C227.4 397.142 226.984 397.483 226.643 397.938C226.302 398.383 226.041 398.932 225.862 399.585C225.682 400.239 225.592 400.987 225.592 401.83C225.592 403.496 225.942 404.803 226.643 405.75C227.344 406.697 228.314 407.17 229.555 407.17ZM254.324 412.412C252.032 412.412 250.063 411.943 248.415 411.006C246.777 410.059 245.512 408.742 244.622 407.057C243.741 405.362 243.301 403.397 243.301 401.162C243.301 398.918 243.741 396.953 244.622 395.267C245.512 393.572 246.777 392.256 248.415 391.318C250.063 390.371 252.032 389.898 254.324 389.898C256.616 389.898 258.58 390.371 260.219 391.318C261.866 392.256 263.131 393.572 264.011 395.267C264.902 396.953 265.347 398.918 265.347 401.162C265.347 403.397 264.902 405.362 264.011 407.057C263.131 408.742 261.866 410.059 260.219 411.006C258.58 411.943 256.616 412.412 254.324 412.412ZM254.366 407.17C255.2 407.17 255.905 406.915 256.483 406.403C257.061 405.892 257.501 405.182 257.804 404.273C258.116 403.364 258.273 402.312 258.273 401.119C258.273 399.907 258.116 398.847 257.804 397.938C257.501 397.028 257.061 396.318 256.483 395.807C255.905 395.295 255.2 395.04 254.366 395.04C253.505 395.04 252.776 395.295 252.179 395.807C251.592 396.318 251.142 397.028 250.83 397.938C250.527 398.847 250.375 399.907 250.375 401.119C250.375 402.312 250.527 403.364 250.83 404.273C251.142 405.182 251.592 405.892 252.179 406.403C252.776 406.915 253.505 407.17 254.366 407.17ZM267.839 412L267.797 406.645H268.493C268.966 406.645 269.378 406.522 269.729 406.276C270.079 406.029 270.373 405.636 270.609 405.097C270.846 404.547 271.036 403.842 271.178 402.98C271.32 402.118 271.41 401.072 271.447 399.841L271.803 390.182H289.075V412H282.499V395.494H277.982L277.641 401.773C277.555 403.619 277.314 405.196 276.916 406.503C276.528 407.8 275.998 408.851 275.325 409.656C274.662 410.461 273.876 411.053 272.967 411.432C272.058 411.811 271.031 412 269.885 412H267.839ZM307.822 390.182L311.415 397.369L315.137 390.182H322.14L316.046 401.091L322.367 412H315.421L311.415 404.756L307.509 412H300.464L306.799 401.091L300.776 390.182H307.822ZM331.344 412.369C329.952 412.369 328.717 412.137 327.637 411.673C326.567 411.2 325.719 410.49 325.094 409.543C324.479 408.586 324.171 407.388 324.171 405.949C324.171 404.737 324.384 403.714 324.81 402.881C325.237 402.047 325.824 401.37 326.572 400.849C327.32 400.329 328.182 399.936 329.157 399.67C330.132 399.396 331.174 399.211 332.282 399.116C333.522 399.003 334.522 398.884 335.279 398.761C336.037 398.629 336.586 398.444 336.927 398.207C337.277 397.961 337.452 397.616 337.452 397.17V397.099C337.452 396.37 337.201 395.807 336.7 395.409C336.198 395.011 335.521 394.812 334.668 394.812C333.75 394.812 333.011 395.011 332.452 395.409C331.894 395.807 331.539 396.356 331.387 397.057L324.981 396.83C325.17 395.504 325.658 394.32 326.444 393.278C327.239 392.227 328.328 391.403 329.711 390.807C331.103 390.201 332.774 389.898 334.725 389.898C336.117 389.898 337.4 390.063 338.575 390.395C339.749 390.717 340.772 391.19 341.643 391.815C342.514 392.431 343.186 393.188 343.66 394.088C344.143 394.988 344.384 396.015 344.384 397.17V412H337.85V408.96H337.68C337.291 409.699 336.794 410.324 336.188 410.835C335.592 411.347 334.886 411.73 334.072 411.986C333.267 412.241 332.358 412.369 331.344 412.369ZM333.489 407.824C334.237 407.824 334.91 407.672 335.506 407.369C336.112 407.066 336.595 406.65 336.955 406.119C337.315 405.58 337.495 404.955 337.495 404.244V402.17C337.296 402.275 337.055 402.369 336.771 402.455C336.496 402.54 336.193 402.62 335.862 402.696C335.53 402.772 335.189 402.838 334.839 402.895C334.488 402.952 334.152 403.004 333.83 403.051C333.177 403.155 332.618 403.316 332.154 403.534C331.7 403.752 331.349 404.036 331.103 404.386C330.866 404.727 330.748 405.134 330.748 405.608C330.748 406.328 331.004 406.877 331.515 407.256C332.036 407.634 332.694 407.824 333.489 407.824ZM361.842 404.585L367.183 390.182H372.268L364.072 412H359.612L351.629 390.182H356.7L361.842 404.585ZM355.208 390.182V412H348.631V390.182H355.208ZM368.873 412V390.182H375.364V412H368.873ZM394.995 390.182V395.494H386.288V412H379.569V390.182H394.995ZM404.857 403.009L411.831 390.182H418.507V412H411.93V399.131L404.97 412H398.28V390.182H404.857V403.009ZM429.505 403.009L436.479 390.182H443.156V412H436.579V399.131L429.619 412H422.928V390.182H429.505V403.009ZM435.854 382.455H440.428C440.419 384.235 439.746 385.665 438.411 386.744C437.085 387.824 435.286 388.364 433.013 388.364C430.741 388.364 428.937 387.824 427.602 386.744C426.276 385.665 425.618 384.235 425.627 382.455H430.158C430.149 383.08 430.362 383.648 430.798 384.159C431.233 384.67 431.972 384.926 433.013 384.926C434.027 384.926 434.751 384.675 435.187 384.173C435.622 383.671 435.845 383.098 435.854 382.455ZM462.96 398.378V403.676H451.767V398.378H462.96ZM454.153 390.182V412H447.577V390.182H454.153ZM467.151 390.182V412H460.616V390.182H467.151ZM485.869 390.182L489.462 397.369L493.184 390.182H500.187L494.093 401.091L500.414 412H493.468L489.462 404.756L485.556 412H478.511L484.846 401.091L478.823 390.182H485.869ZM509.391 412.369C507.999 412.369 506.763 412.137 505.684 411.673C504.614 411.2 503.766 410.49 503.141 409.543C502.526 408.586 502.218 407.388 502.218 405.949C502.218 404.737 502.431 403.714 502.857 402.881C503.283 402.047 503.871 401.37 504.619 400.849C505.367 400.329 506.228 399.936 507.204 399.67C508.179 399.396 509.221 399.211 510.329 399.116C511.569 399.003 512.568 398.884 513.326 398.761C514.084 398.629 514.633 398.444 514.974 398.207C515.324 397.961 515.499 397.616 515.499 397.17V397.099C515.499 396.37 515.248 395.807 514.746 395.409C514.245 395.011 513.567 394.812 512.715 394.812C511.797 394.812 511.058 395.011 510.499 395.409C509.941 395.807 509.585 396.356 509.434 397.057L503.028 396.83C503.217 395.504 503.705 394.32 504.491 393.278C505.286 392.227 506.375 391.403 507.758 390.807C509.15 390.201 510.821 389.898 512.772 389.898C514.164 389.898 515.447 390.063 516.621 390.395C517.796 390.717 518.818 391.19 519.69 391.815C520.561 392.431 521.233 393.188 521.707 394.088C522.19 394.988 522.431 396.015 522.431 397.17V412H515.897V408.96H515.727C515.338 409.699 514.841 410.324 514.235 410.835C513.638 411.347 512.933 411.73 512.119 411.986C511.314 412.241 510.405 412.369 509.391 412.369ZM511.536 407.824C512.284 407.824 512.957 407.672 513.553 407.369C514.159 407.066 514.642 406.65 515.002 406.119C515.362 405.58 515.542 404.955 515.542 404.244V402.17C515.343 402.275 515.102 402.369 514.817 402.455C514.543 402.54 514.24 402.62 513.908 402.696C513.577 402.772 513.236 402.838 512.886 402.895C512.535 402.952 512.199 403.004 511.877 403.051C511.224 403.155 510.665 403.316 510.201 403.534C509.746 403.752 509.396 404.036 509.15 404.386C508.913 404.727 508.795 405.134 508.795 405.608C508.795 406.328 509.05 406.877 509.562 407.256C510.083 407.634 510.741 407.824 511.536 407.824ZM525.613 412L525.57 406.645H526.266C526.74 406.645 527.152 406.522 527.502 406.276C527.853 406.029 528.146 405.636 528.383 405.097C528.62 404.547 528.809 403.842 528.951 402.98C529.093 402.118 529.183 401.072 529.221 399.841L529.576 390.182H546.849V412H540.272V395.494H535.755L535.414 401.773C535.329 403.619 535.087 405.196 534.69 406.503C534.301 407.8 533.771 408.851 533.099 409.656C532.436 410.461 531.65 411.053 530.741 411.432C529.832 411.811 528.804 412 527.658 412H525.613ZM554.558 420.182C553.725 420.182 552.939 420.116 552.2 419.983C551.462 419.86 550.827 419.694 550.297 419.486L551.831 414.443C552.513 414.67 553.128 414.803 553.678 414.841C554.236 414.879 554.714 414.789 555.112 414.571C555.519 414.363 555.832 413.989 556.05 413.449L556.32 412.795L548.564 390.182H555.837L559.857 405.75H560.084L564.161 390.182H571.476L563.251 414.088C562.854 415.281 562.29 416.332 561.561 417.241C560.841 418.16 559.909 418.88 558.763 419.401C557.626 419.921 556.225 420.182 554.558 420.182ZM578.386 420.182C577.553 420.182 576.767 420.116 576.028 419.983C575.29 419.86 574.655 419.694 574.125 419.486L575.659 414.443C576.341 414.67 576.956 414.803 577.506 414.841C578.064 414.879 578.543 414.789 578.94 414.571C579.348 414.363 579.66 413.989 579.878 413.449L580.148 412.795L572.392 390.182H579.665L583.685 405.75H583.912L587.989 390.182H595.304L587.08 414.088C586.682 415.281 586.118 416.332 585.389 417.241C584.67 418.16 583.737 418.88 582.591 419.401C581.455 419.921 580.053 420.182 578.386 420.182ZM613.351 398.378V403.676H602.158V398.378H613.351ZM604.544 390.182V412H597.967V390.182H604.544ZM617.541 390.182V412H611.007V390.182H617.541ZM645.776 390.182V395.494H637.069V412H630.35V390.182H645.776ZM654.548 412.369C653.156 412.369 651.92 412.137 650.84 411.673C649.77 411.2 648.923 410.49 648.298 409.543C647.682 408.586 647.374 407.388 647.374 405.949C647.374 404.737 647.587 403.714 648.013 402.881C648.44 402.047 649.027 401.37 649.775 400.849C650.523 400.329 651.385 399.936 652.36 399.67C653.335 399.396 654.377 399.211 655.485 399.116C656.726 399.003 657.725 398.884 658.482 398.761C659.24 398.629 659.789 398.444 660.13 398.207C660.48 397.961 660.656 397.616 660.656 397.17V397.099C660.656 396.37 660.405 395.807 659.903 395.409C659.401 395.011 658.724 394.812 657.871 394.812C656.953 394.812 656.214 395.011 655.656 395.409C655.097 395.807 654.742 396.356 654.59 397.057L648.184 396.83C648.373 395.504 648.861 394.32 649.647 393.278C650.442 392.227 651.531 391.403 652.914 390.807C654.306 390.201 655.978 389.898 657.928 389.898C659.32 389.898 660.603 390.063 661.778 390.395C662.952 390.717 663.975 391.19 664.846 391.815C665.717 392.431 666.389 393.188 666.863 394.088C667.346 394.988 667.587 396.015 667.587 397.17V412H661.053V408.96H660.883C660.495 409.699 659.997 410.324 659.391 410.835C658.795 411.347 658.089 411.73 657.275 411.986C656.47 412.241 655.561 412.369 654.548 412.369ZM656.692 407.824C657.441 407.824 658.113 407.672 658.71 407.369C659.316 407.066 659.799 406.65 660.158 406.119C660.518 405.58 660.698 404.955 660.698 404.244V402.17C660.499 402.275 660.258 402.369 659.974 402.455C659.699 402.54 659.396 402.62 659.065 402.696C658.733 402.772 658.392 402.838 658.042 402.895C657.692 402.952 657.355 403.004 657.033 403.051C656.38 403.155 655.821 403.316 655.357 403.534C654.903 403.752 654.552 404.036 654.306 404.386C654.069 404.727 653.951 405.134 653.951 405.608C653.951 406.328 654.207 406.877 654.718 407.256C655.239 407.634 655.897 407.824 656.692 407.824ZM671.835 420.182V390.182H678.71V393.918H678.923C679.207 393.255 679.609 392.616 680.13 392C680.66 391.384 681.333 390.883 682.147 390.494C682.971 390.097 683.956 389.898 685.102 389.898C686.617 389.898 688.032 390.295 689.349 391.091C690.674 391.886 691.745 393.113 692.559 394.77C693.373 396.427 693.781 398.539 693.781 401.105C693.781 403.577 693.388 405.646 692.602 407.312C691.825 408.979 690.774 410.229 689.448 411.062C688.132 411.896 686.669 412.312 685.059 412.312C683.96 412.312 683.009 412.133 682.204 411.773C681.399 411.413 680.722 410.939 680.173 410.352C679.633 409.765 679.216 409.135 678.923 408.463H678.781V420.182H671.835ZM678.638 401.091C678.638 402.265 678.795 403.288 679.107 404.159C679.429 405.03 679.888 405.707 680.485 406.19C681.091 406.664 681.816 406.901 682.658 406.901C683.511 406.901 684.235 406.664 684.832 406.19C685.428 405.707 685.878 405.03 686.181 404.159C686.494 403.288 686.65 402.265 686.65 401.091C686.65 399.917 686.494 398.899 686.181 398.037C685.878 397.175 685.428 396.508 684.832 396.034C684.245 395.561 683.52 395.324 682.658 395.324C681.806 395.324 681.082 395.556 680.485 396.02C679.888 396.484 679.429 397.147 679.107 398.009C678.795 398.87 678.638 399.898 678.638 401.091ZM703.571 412.369C702.179 412.369 700.943 412.137 699.864 411.673C698.794 411.2 697.946 410.49 697.321 409.543C696.705 408.586 696.398 407.388 696.398 405.949C696.398 404.737 696.611 403.714 697.037 402.881C697.463 402.047 698.05 401.37 698.798 400.849C699.546 400.329 700.408 399.936 701.384 399.67C702.359 399.396 703.401 399.211 704.509 399.116C705.749 399.003 706.748 398.884 707.506 398.761C708.263 398.629 708.813 398.444 709.153 398.207C709.504 397.961 709.679 397.616 709.679 397.17V397.099C709.679 396.37 709.428 395.807 708.926 395.409C708.424 395.011 707.747 394.812 706.895 394.812C705.976 394.812 705.238 395.011 704.679 395.409C704.12 395.807 703.765 396.356 703.614 397.057L697.207 396.83C697.397 395.504 697.884 394.32 698.67 393.278C699.466 392.227 700.555 391.403 701.938 390.807C703.33 390.201 705.001 389.898 706.952 389.898C708.344 389.898 709.627 390.063 710.801 390.395C711.975 390.717 712.998 391.19 713.869 391.815C714.741 392.431 715.413 393.188 715.886 394.088C716.369 394.988 716.611 396.015 716.611 397.17V412H710.077V408.96H709.906C709.518 409.699 709.021 410.324 708.415 410.835C707.818 411.347 707.113 411.73 706.298 411.986C705.493 412.241 704.584 412.369 703.571 412.369ZM705.716 407.824C706.464 407.824 707.136 407.672 707.733 407.369C708.339 407.066 708.822 406.65 709.182 406.119C709.542 405.58 709.722 404.955 709.722 404.244V402.17C709.523 402.275 709.281 402.369 708.997 402.455C708.723 402.54 708.42 402.62 708.088 402.696C707.757 402.772 707.416 402.838 707.065 402.895C706.715 402.952 706.379 403.004 706.057 403.051C705.403 403.155 704.845 403.316 704.381 403.534C703.926 403.752 703.576 404.036 703.33 404.386C703.093 404.727 702.974 405.134 702.974 405.608C702.974 406.328 703.23 406.877 703.741 407.256C704.262 407.634 704.92 407.824 705.716 407.824ZM736.284 390.182V395.494H727.577V412H720.858V390.182H736.284ZM739.842 412.412C738.82 412.412 737.944 412.052 737.214 411.332C736.495 410.613 736.14 409.741 736.149 408.719C736.14 407.715 736.495 406.858 737.214 406.148C737.944 405.428 738.82 405.068 739.842 405.068C740.808 405.068 741.661 405.428 742.399 406.148C743.147 406.858 743.526 407.715 743.536 408.719C743.526 409.401 743.346 410.021 742.996 410.58C742.655 411.138 742.205 411.583 741.646 411.915C741.097 412.246 740.496 412.412 739.842 412.412ZM203.116 460.398C200.901 460.398 198.936 460.019 197.222 459.261C195.517 458.494 194.172 457.438 193.188 456.094C192.203 454.749 191.701 453.201 191.682 451.449H198.756C198.784 452.083 198.988 452.647 199.366 453.139C199.745 453.622 200.261 454.001 200.915 454.276C201.568 454.55 202.312 454.688 203.145 454.688C203.978 454.688 204.712 454.541 205.347 454.247C205.991 453.944 206.492 453.532 206.852 453.011C207.212 452.481 207.387 451.875 207.378 451.193C207.387 450.511 207.193 449.905 206.795 449.375C206.398 448.845 205.834 448.433 205.105 448.139C204.385 447.846 203.533 447.699 202.548 447.699H199.722V442.699H202.548C203.41 442.699 204.168 442.557 204.821 442.273C205.484 441.989 206 441.591 206.369 441.08C206.739 440.559 206.919 439.962 206.909 439.29C206.919 438.636 206.762 438.063 206.44 437.571C206.128 437.069 205.688 436.681 205.119 436.406C204.561 436.132 203.912 435.994 203.173 435.994C202.397 435.994 201.691 436.132 201.057 436.406C200.432 436.681 199.935 437.069 199.565 437.571C199.196 438.073 199.002 438.655 198.983 439.318H192.264C192.283 437.585 192.766 436.061 193.713 434.744C194.66 433.419 195.948 432.382 197.577 431.634C199.215 430.885 201.08 430.511 203.173 430.511C205.257 430.511 207.089 430.876 208.67 431.605C210.252 432.334 211.483 433.329 212.364 434.588C213.244 435.838 213.685 437.254 213.685 438.835C213.694 440.473 213.159 441.823 212.08 442.884C211.009 443.944 209.632 444.598 207.946 444.844V445.071C210.2 445.336 211.9 446.065 213.045 447.259C214.201 448.452 214.774 449.943 214.764 451.733C214.764 453.419 214.267 454.915 213.273 456.222C212.288 457.519 210.915 458.542 209.153 459.29C207.402 460.028 205.389 460.398 203.116 460.398ZM223.035 468.182C222.201 468.182 221.415 468.116 220.677 467.983C219.938 467.86 219.304 467.694 218.773 467.486L220.308 462.443C220.989 462.67 221.605 462.803 222.154 462.841C222.713 462.879 223.191 462.789 223.589 462.571C223.996 462.363 224.308 461.989 224.526 461.449L224.796 460.795L217.04 438.182H224.313L228.333 453.75H228.56L232.637 438.182H239.952L231.728 462.088C231.33 463.281 230.767 464.332 230.038 465.241C229.318 466.16 228.385 466.88 227.239 467.401C226.103 467.921 224.701 468.182 223.035 468.182ZM246.863 468.182C246.03 468.182 245.244 468.116 244.505 467.983C243.766 467.86 243.132 467.694 242.602 467.486L244.136 462.443C244.817 462.67 245.433 462.803 245.982 462.841C246.541 462.879 247.019 462.789 247.417 462.571C247.824 462.363 248.137 461.989 248.354 461.449L248.624 460.795L240.869 438.182H248.141L252.161 453.75H252.388L256.465 438.182H263.781L255.556 462.088C255.158 463.281 254.595 464.332 253.866 465.241C253.146 466.16 252.213 466.88 251.067 467.401C249.931 467.921 248.53 468.182 246.863 468.182ZM272.353 438.182L275.947 445.369L279.668 438.182H286.671L280.577 449.091L286.898 460H279.952L275.947 452.756L272.04 460H264.995L271.33 449.091L265.308 438.182H272.353ZM305.226 446.378V451.676H294.033V446.378H305.226ZM296.419 438.182V460H289.842V438.182H296.419ZM309.416 438.182V460H302.882V438.182H309.416ZM319.782 460.369C318.39 460.369 317.154 460.137 316.075 459.673C315.004 459.2 314.157 458.49 313.532 457.543C312.916 456.586 312.609 455.388 312.609 453.949C312.609 452.737 312.822 451.714 313.248 450.881C313.674 450.047 314.261 449.37 315.009 448.849C315.757 448.329 316.619 447.936 317.594 447.67C318.57 447.396 319.612 447.211 320.719 447.116C321.96 447.003 322.959 446.884 323.717 446.761C324.474 446.629 325.023 446.444 325.364 446.207C325.715 445.961 325.89 445.616 325.89 445.17V445.099C325.89 444.37 325.639 443.807 325.137 443.409C324.635 443.011 323.958 442.812 323.106 442.812C322.187 442.812 321.449 443.011 320.89 443.409C320.331 443.807 319.976 444.356 319.825 445.057L313.418 444.83C313.608 443.504 314.095 442.32 314.881 441.278C315.677 440.227 316.766 439.403 318.148 438.807C319.54 438.201 321.212 437.898 323.163 437.898C324.555 437.898 325.838 438.063 327.012 438.395C328.186 438.717 329.209 439.19 330.08 439.815C330.951 440.431 331.624 441.188 332.097 442.088C332.58 442.988 332.822 444.015 332.822 445.17V460H326.288V456.96H326.117C325.729 457.699 325.232 458.324 324.626 458.835C324.029 459.347 323.324 459.73 322.509 459.986C321.704 460.241 320.795 460.369 319.782 460.369ZM321.927 455.824C322.675 455.824 323.347 455.672 323.944 455.369C324.55 455.066 325.033 454.65 325.393 454.119C325.753 453.58 325.933 452.955 325.933 452.244V450.17C325.734 450.275 325.492 450.369 325.208 450.455C324.933 450.54 324.63 450.62 324.299 450.696C323.968 450.772 323.627 450.838 323.276 450.895C322.926 450.952 322.59 451.004 322.268 451.051C321.614 451.155 321.056 451.316 320.592 451.534C320.137 451.752 319.787 452.036 319.54 452.386C319.304 452.727 319.185 453.134 319.185 453.608C319.185 454.328 319.441 454.877 319.952 455.256C320.473 455.634 321.131 455.824 321.927 455.824ZM343.219 460.369C341.827 460.369 340.592 460.137 339.512 459.673C338.442 459.2 337.594 458.49 336.969 457.543C336.354 456.586 336.046 455.388 336.046 453.949C336.046 452.737 336.259 451.714 336.685 450.881C337.112 450.047 337.699 449.37 338.447 448.849C339.195 448.329 340.057 447.936 341.032 447.67C342.007 447.396 343.049 447.211 344.157 447.116C345.397 447.003 346.397 446.884 347.154 446.761C347.912 446.629 348.461 446.444 348.802 446.207C349.152 445.961 349.327 445.616 349.327 445.17V445.099C349.327 444.37 349.076 443.807 348.575 443.409C348.073 443.011 347.396 442.812 346.543 442.812C345.625 442.812 344.886 443.011 344.327 443.409C343.769 443.807 343.414 444.356 343.262 445.057L336.856 444.83C337.045 443.504 337.533 442.32 338.319 441.278C339.114 440.227 340.203 439.403 341.586 438.807C342.978 438.201 344.649 437.898 346.6 437.898C347.992 437.898 349.275 438.063 350.45 438.395C351.624 438.717 352.647 439.19 353.518 439.815C354.389 440.431 355.061 441.188 355.535 442.088C356.018 442.988 356.259 444.015 356.259 445.17V460H349.725V456.96H349.555C349.166 457.699 348.669 458.324 348.063 458.835C347.467 459.347 346.761 459.73 345.947 459.986C345.142 460.241 344.233 460.369 343.219 460.369ZM345.364 455.824C346.112 455.824 346.785 455.672 347.381 455.369C347.987 455.066 348.47 454.65 348.83 454.119C349.19 453.58 349.37 452.955 349.37 452.244V450.17C349.171 450.275 348.93 450.369 348.646 450.455C348.371 450.54 348.068 450.62 347.737 450.696C347.405 450.772 347.064 450.838 346.714 450.895C346.363 450.952 346.027 451.004 345.705 451.051C345.052 451.155 344.493 451.316 344.029 451.534C343.575 451.752 343.224 452.036 342.978 452.386C342.741 452.727 342.623 453.134 342.623 453.608C342.623 454.328 342.879 454.877 343.39 455.256C343.911 455.634 344.569 455.824 345.364 455.824ZM370.691 460.412C368.39 460.412 366.415 459.938 364.768 458.991C363.129 458.045 361.87 456.728 360.989 455.043C360.109 453.348 359.668 451.387 359.668 449.162C359.668 446.927 360.109 444.967 360.989 443.281C361.879 441.586 363.144 440.265 364.782 439.318C366.43 438.371 368.395 437.898 370.677 437.898C372.694 437.898 374.451 438.262 375.947 438.991C377.452 439.721 378.627 440.753 379.469 442.088C380.322 443.414 380.772 444.972 380.819 446.761H374.327C374.195 445.644 373.816 444.768 373.191 444.134C372.576 443.499 371.771 443.182 370.776 443.182C369.971 443.182 369.266 443.409 368.66 443.864C368.054 444.309 367.58 444.972 367.239 445.852C366.908 446.723 366.742 447.803 366.742 449.091C366.742 450.379 366.908 451.468 367.239 452.358C367.58 453.239 368.054 453.906 368.66 454.361C369.266 454.806 369.971 455.028 370.776 455.028C371.42 455.028 371.988 454.891 372.481 454.616C372.983 454.342 373.395 453.939 373.717 453.409C374.039 452.869 374.242 452.216 374.327 451.449H380.819C380.753 453.248 380.303 454.82 379.469 456.165C378.646 457.509 377.486 458.556 375.989 459.304C374.503 460.043 372.737 460.412 370.691 460.412ZM412.612 438.182V460H406.078V438.182H412.612ZM409.303 447.486V452.798C408.933 452.988 408.412 453.172 407.74 453.352C407.077 453.523 406.376 453.665 405.638 453.778C404.909 453.892 404.26 453.949 403.692 453.949C400.339 453.949 397.712 453.31 395.808 452.031C393.914 450.743 392.967 448.651 392.967 445.753V438.168H399.459V445.753C399.459 446.501 399.577 447.083 399.814 447.5C400.06 447.917 400.486 448.21 401.092 448.381C401.708 448.551 402.574 448.636 403.692 448.636C404.544 448.636 405.415 448.542 406.305 448.352C407.205 448.153 408.204 447.865 409.303 447.486ZM431.337 438.182L434.931 445.369L438.653 438.182H445.656L439.562 449.091L445.883 460H438.937L434.931 452.756L431.025 460H423.979L430.315 449.091L424.292 438.182H431.337ZM454.86 460.369C453.468 460.369 452.232 460.137 451.153 459.673C450.083 459.2 449.235 458.49 448.61 457.543C447.995 456.586 447.687 455.388 447.687 453.949C447.687 452.737 447.9 451.714 448.326 450.881C448.752 450.047 449.339 449.37 450.087 448.849C450.835 448.329 451.697 447.936 452.673 447.67C453.648 447.396 454.69 447.211 455.798 447.116C457.038 447.003 458.037 446.884 458.795 446.761C459.552 446.629 460.102 446.444 460.442 446.207C460.793 445.961 460.968 445.616 460.968 445.17V445.099C460.968 444.37 460.717 443.807 460.215 443.409C459.713 443.011 459.036 442.812 458.184 442.812C457.265 442.812 456.527 443.011 455.968 443.409C455.409 443.807 455.054 444.356 454.903 445.057L448.496 444.83C448.686 443.504 449.174 442.32 449.96 441.278C450.755 440.227 451.844 439.403 453.227 438.807C454.619 438.201 456.29 437.898 458.241 437.898C459.633 437.898 460.916 438.063 462.09 438.395C463.264 438.717 464.287 439.19 465.158 439.815C466.03 440.431 466.702 441.188 467.175 442.088C467.658 442.988 467.9 444.015 467.9 445.17V460H461.366V456.96H461.195C460.807 457.699 460.31 458.324 459.704 458.835C459.107 459.347 458.402 459.73 457.587 459.986C456.782 460.241 455.873 460.369 454.86 460.369ZM457.005 455.824C457.753 455.824 458.425 455.672 459.022 455.369C459.628 455.066 460.111 454.65 460.471 454.119C460.831 453.58 461.011 452.955 461.011 452.244V450.17C460.812 450.275 460.57 450.369 460.286 450.455C460.012 450.54 459.709 450.62 459.377 450.696C459.046 450.772 458.705 450.838 458.354 450.895C458.004 450.952 457.668 451.004 457.346 451.051C456.692 451.155 456.134 451.316 455.67 451.534C455.215 451.752 454.865 452.036 454.619 452.386C454.382 452.727 454.263 453.134 454.263 453.608C454.263 454.328 454.519 454.877 455.031 455.256C455.551 455.634 456.21 455.824 457.005 455.824ZM471.082 460L471.039 454.645H471.735C472.209 454.645 472.621 454.522 472.971 454.276C473.321 454.029 473.615 453.636 473.852 453.097C474.088 452.547 474.278 451.842 474.42 450.98C474.562 450.118 474.652 449.072 474.69 447.841L475.045 438.182H492.317V460H485.741V443.494H481.224L480.883 449.773C480.798 451.619 480.556 453.196 480.158 454.503C479.77 455.8 479.24 456.851 478.567 457.656C477.905 458.461 477.119 459.053 476.21 459.432C475.3 459.811 474.273 460 473.127 460H471.082ZM500.027 468.182C499.194 468.182 498.408 468.116 497.669 467.983C496.93 467.86 496.296 467.694 495.766 467.486L497.3 462.443C497.982 462.67 498.597 462.803 499.146 462.841C499.705 462.879 500.183 462.789 500.581 462.571C500.988 462.363 501.301 461.989 501.518 461.449L501.788 460.795L494.033 438.182H501.305L505.325 453.75H505.553L509.629 438.182H516.945L508.72 462.088C508.322 463.281 507.759 464.332 507.03 465.241C506.31 466.16 505.377 466.88 504.232 467.401C503.095 467.921 501.694 468.182 500.027 468.182ZM523.855 468.182C523.022 468.182 522.236 468.116 521.497 467.983C520.759 467.86 520.124 467.694 519.594 467.486L521.128 462.443C521.81 462.67 522.425 462.803 522.974 462.841C523.533 462.879 524.011 462.789 524.409 462.571C524.816 462.363 525.129 461.989 525.347 461.449L525.616 460.795L517.861 438.182H525.134L529.153 453.75H529.381L533.457 438.182H540.773L532.548 462.088C532.151 463.281 531.587 464.332 530.858 465.241C530.138 466.16 529.205 466.88 528.06 467.401C526.923 467.921 525.522 468.182 523.855 468.182ZM558.82 446.378V451.676H547.626V446.378H558.82ZM550.013 438.182V460H543.436V438.182H550.013ZM563.01 438.182V460H556.476V438.182H563.01ZM571.131 460.412C570.109 460.412 569.233 460.052 568.504 459.332C567.784 458.613 567.429 457.741 567.438 456.719C567.429 455.715 567.784 454.858 568.504 454.148C569.233 453.428 570.109 453.068 571.131 453.068C572.097 453.068 572.95 453.428 573.688 454.148C574.436 454.858 574.815 455.715 574.825 456.719C574.815 457.401 574.635 458.021 574.285 458.58C573.944 459.138 573.494 459.583 572.935 459.915C572.386 460.246 571.785 460.412 571.131 460.412Z" fill="white"/>
<circle cx="788.5" cy="79.5" r="55" fill="white" stroke="#FF6DFE" stroke-width="3"/>
<path d="M777.71 47.9091L787.773 68.0341L798.193 47.9091H817.801L800.739 78.4545L818.438 109H798.989L787.773 88.7159L776.835 109H757.108L774.847 78.4545L757.983 47.9091H777.71Z" fill="black" fill-opacity="0.96"/>
<path d="M387.389 102.449H380.287C380.192 101.72 379.998 101.062 379.705 100.474C379.411 99.8873 379.023 99.3854 378.54 98.9688C378.057 98.5521 377.484 98.2348 376.821 98.017C376.168 97.7898 375.443 97.6761 374.648 97.6761C373.237 97.6761 372.02 98.0218 370.997 98.7131C369.984 99.4044 369.203 100.403 368.653 101.71C368.114 103.017 367.844 104.598 367.844 106.455C367.844 108.386 368.118 110.006 368.668 111.312C369.226 112.61 370.008 113.59 371.011 114.253C372.025 114.906 373.223 115.233 374.605 115.233C375.382 115.233 376.087 115.134 376.722 114.935C377.366 114.736 377.929 114.447 378.412 114.068C378.904 113.68 379.307 113.211 379.619 112.662C379.941 112.103 380.164 111.473 380.287 110.773L387.389 110.815C387.266 112.103 386.892 113.372 386.267 114.622C385.652 115.872 384.804 117.013 383.724 118.045C382.645 119.068 381.329 119.883 379.776 120.489C378.232 121.095 376.461 121.398 374.463 121.398C371.83 121.398 369.473 120.82 367.389 119.665C365.315 118.5 363.677 116.805 362.474 114.58C361.272 112.354 360.67 109.646 360.67 106.455C360.67 103.254 361.281 100.541 362.503 98.3153C363.724 96.09 365.377 94.3996 367.46 93.2443C369.544 92.089 371.878 91.5114 374.463 91.5114C376.224 91.5114 377.853 91.7576 379.349 92.25C380.846 92.733 382.162 93.4432 383.298 94.3807C384.435 95.3087 385.358 96.4498 386.068 97.804C386.778 99.1581 387.219 100.706 387.389 102.449ZM396.011 129.182C395.178 129.182 394.392 129.116 393.653 128.983C392.915 128.86 392.28 128.694 391.75 128.486L393.284 123.443C393.966 123.67 394.581 123.803 395.131 123.841C395.689 123.879 396.168 123.789 396.565 123.571C396.973 123.363 397.285 122.989 397.503 122.449L397.773 121.795L390.017 99.1818H397.29L401.31 114.75H401.537L405.614 99.1818H412.929L404.705 123.088C404.307 124.281 403.743 125.332 403.014 126.241C402.295 127.16 401.362 127.88 400.216 128.401C399.08 128.921 397.678 129.182 396.011 129.182ZM431.018 99.1818V104.494H422.311V121H415.592V99.1818H431.018ZM439.79 121.369C438.398 121.369 437.162 121.137 436.082 120.673C435.012 120.2 434.165 119.49 433.54 118.543C432.924 117.586 432.616 116.388 432.616 114.949C432.616 113.737 432.83 112.714 433.256 111.881C433.682 111.047 434.269 110.37 435.017 109.849C435.765 109.329 436.627 108.936 437.602 108.67C438.578 108.396 439.619 108.211 440.727 108.116C441.968 108.003 442.967 107.884 443.724 107.761C444.482 107.629 445.031 107.444 445.372 107.207C445.723 106.961 445.898 106.616 445.898 106.17V106.099C445.898 105.37 445.647 104.807 445.145 104.409C444.643 104.011 443.966 103.812 443.114 103.812C442.195 103.812 441.456 104.011 440.898 104.409C440.339 104.807 439.984 105.356 439.832 106.057L433.426 105.83C433.616 104.504 434.103 103.32 434.889 102.278C435.685 101.227 436.774 100.403 438.156 99.8068C439.548 99.2008 441.22 98.8977 443.17 98.8977C444.563 98.8977 445.846 99.0634 447.02 99.3949C448.194 99.7169 449.217 100.19 450.088 100.815C450.959 101.431 451.632 102.188 452.105 103.088C452.588 103.988 452.83 105.015 452.83 106.17V121H446.295V117.96H446.125C445.737 118.699 445.24 119.324 444.634 119.835C444.037 120.347 443.331 120.73 442.517 120.986C441.712 121.241 440.803 121.369 439.79 121.369ZM441.935 116.824C442.683 116.824 443.355 116.672 443.952 116.369C444.558 116.066 445.041 115.65 445.401 115.119C445.76 114.58 445.94 113.955 445.94 113.244V111.17C445.741 111.275 445.5 111.369 445.216 111.455C444.941 111.54 444.638 111.62 444.307 111.696C443.975 111.772 443.634 111.838 443.284 111.895C442.934 111.952 442.598 112.004 442.276 112.051C441.622 112.155 441.063 112.316 440.599 112.534C440.145 112.752 439.795 113.036 439.548 113.386C439.312 113.727 439.193 114.134 439.193 114.608C439.193 115.328 439.449 115.877 439.96 116.256C440.481 116.634 441.139 116.824 441.935 116.824ZM457.077 129.182V99.1818H463.952V102.918H464.165C464.449 102.255 464.851 101.616 465.372 101C465.902 100.384 466.575 99.8826 467.389 99.4943C468.213 99.0966 469.198 98.8977 470.344 98.8977C471.859 98.8977 473.275 99.2955 474.591 100.091C475.917 100.886 476.987 102.113 477.801 103.77C478.616 105.427 479.023 107.539 479.023 110.105C479.023 112.577 478.63 114.646 477.844 116.312C477.067 117.979 476.016 119.229 474.69 120.062C473.374 120.896 471.911 121.312 470.301 121.312C469.203 121.312 468.251 121.133 467.446 120.773C466.641 120.413 465.964 119.939 465.415 119.352C464.875 118.765 464.458 118.135 464.165 117.463H464.023V129.182H457.077ZM463.881 110.091C463.881 111.265 464.037 112.288 464.349 113.159C464.671 114.03 465.131 114.707 465.727 115.19C466.333 115.664 467.058 115.901 467.901 115.901C468.753 115.901 469.477 115.664 470.074 115.19C470.67 114.707 471.12 114.03 471.423 113.159C471.736 112.288 471.892 111.265 471.892 110.091C471.892 108.917 471.736 107.899 471.423 107.037C471.12 106.175 470.67 105.508 470.074 105.034C469.487 104.561 468.762 104.324 467.901 104.324C467.048 104.324 466.324 104.556 465.727 105.02C465.131 105.484 464.671 106.147 464.349 107.009C464.037 107.87 463.881 108.898 463.881 110.091ZM67.8438 145.619V139.909H92.4318V145.619H83.6108V169H76.679V145.619H67.8438ZM99.0476 169.369C97.6555 169.369 96.4197 169.137 95.3402 168.673C94.2701 168.2 93.4226 167.49 92.7976 166.543C92.1821 165.586 91.8743 164.388 91.8743 162.949C91.8743 161.737 92.0874 160.714 92.5135 159.881C92.9396 159.047 93.5268 158.37 94.2749 157.849C95.023 157.329 95.8847 156.936 96.8601 156.67C97.8355 156.396 98.8771 156.211 99.9851 156.116C101.226 156.003 102.225 155.884 102.982 155.761C103.74 155.629 104.289 155.444 104.63 155.207C104.98 154.961 105.156 154.616 105.156 154.17V154.099C105.156 153.37 104.905 152.807 104.403 152.409C103.901 152.011 103.224 151.812 102.371 151.812C101.453 151.812 100.714 152.011 100.156 152.409C99.5968 152.807 99.2417 153.356 99.0902 154.057L92.6839 153.83C92.8733 152.504 93.361 151.32 94.147 150.278C94.9425 149.227 96.0315 148.403 97.4141 147.807C98.8061 147.201 100.478 146.898 102.428 146.898C103.82 146.898 105.103 147.063 106.278 147.395C107.452 147.717 108.475 148.19 109.346 148.815C110.217 149.431 110.889 150.188 111.363 151.088C111.846 151.988 112.087 153.015 112.087 154.17V169H105.553V165.96H105.383C104.995 166.699 104.497 167.324 103.891 167.835C103.295 168.347 102.589 168.73 101.775 168.986C100.97 169.241 100.061 169.369 99.0476 169.369ZM101.192 164.824C101.941 164.824 102.613 164.672 103.21 164.369C103.816 164.066 104.299 163.65 104.658 163.119C105.018 162.58 105.198 161.955 105.198 161.244V159.17C104.999 159.275 104.758 159.369 104.474 159.455C104.199 159.54 103.896 159.62 103.565 159.696C103.233 159.772 102.892 159.838 102.542 159.895C102.192 159.952 101.855 160.004 101.533 160.051C100.88 160.155 100.321 160.316 99.8572 160.534C99.4027 160.752 99.0523 161.036 98.8061 161.386C98.5694 161.727 98.451 162.134 98.451 162.608C98.451 163.328 98.7067 163.877 99.218 164.256C99.7389 164.634 100.397 164.824 101.192 164.824ZM114.406 152.494V147.182H134.861V152.494H127.886V169H121.295V152.494H114.406ZM143.657 169.369C142.265 169.369 141.029 169.137 139.95 168.673C138.879 168.2 138.032 167.49 137.407 166.543C136.791 165.586 136.484 164.388 136.484 162.949C136.484 161.737 136.697 160.714 137.123 159.881C137.549 159.047 138.136 158.37 138.884 157.849C139.632 157.329 140.494 156.936 141.469 156.67C142.445 156.396 143.487 156.211 144.594 156.116C145.835 156.003 146.834 155.884 147.592 155.761C148.349 155.629 148.898 155.444 149.239 155.207C149.59 154.961 149.765 154.616 149.765 154.17V154.099C149.765 153.37 149.514 152.807 149.012 152.409C148.51 152.011 147.833 151.812 146.981 151.812C146.062 151.812 145.324 152.011 144.765 152.409C144.206 152.807 143.851 153.356 143.7 154.057L137.293 153.83C137.483 152.504 137.97 151.32 138.756 150.278C139.552 149.227 140.641 148.403 142.023 147.807C143.415 147.201 145.087 146.898 147.038 146.898C148.43 146.898 149.713 147.063 150.887 147.395C152.061 147.717 153.084 148.19 153.955 148.815C154.826 149.431 155.499 150.188 155.972 151.088C156.455 151.988 156.697 153.015 156.697 154.17V169H150.163V165.96H149.992C149.604 166.699 149.107 167.324 148.501 167.835C147.904 168.347 147.199 168.73 146.384 168.986C145.579 169.241 144.67 169.369 143.657 169.369ZM145.802 164.824C146.55 164.824 147.222 164.672 147.819 164.369C148.425 164.066 148.908 163.65 149.268 163.119C149.628 162.58 149.808 161.955 149.808 161.244V159.17C149.609 159.275 149.367 159.369 149.083 159.455C148.808 159.54 148.505 159.62 148.174 159.696C147.843 159.772 147.502 159.838 147.151 159.895C146.801 159.952 146.465 160.004 146.143 160.051C145.489 160.155 144.931 160.316 144.467 160.534C144.012 160.752 143.662 161.036 143.415 161.386C143.179 161.727 143.06 162.134 143.06 162.608C143.06 163.328 143.316 163.877 143.827 164.256C144.348 164.634 145.006 164.824 145.802 164.824ZM166.853 147.182L170.447 154.369L174.168 147.182H181.171L175.077 158.091L181.398 169H174.452L170.447 161.756L166.54 169H159.495L165.83 158.091L159.808 147.182H166.853ZM198.845 147.182L202.439 154.369L206.161 147.182H213.163L207.07 158.091L213.391 169H206.445L202.439 161.756L198.533 169H191.487L197.822 158.091L191.8 147.182H198.845ZM214.587 147.182H221.548L225.283 161.77L228.82 147.182H235.724L228.423 168.915V177.182H221.888V168.915L214.587 147.182ZM257.425 147.182V169H250.891V147.182H257.425ZM254.115 156.486V161.798C253.746 161.988 253.225 162.172 252.553 162.352C251.89 162.523 251.189 162.665 250.45 162.778C249.721 162.892 249.072 162.949 248.504 162.949C245.152 162.949 242.524 162.31 240.621 161.031C238.727 159.743 237.78 157.651 237.78 154.753V147.168H244.271V154.753C244.271 155.501 244.39 156.083 244.626 156.5C244.873 156.917 245.299 157.21 245.905 157.381C246.52 157.551 247.387 157.636 248.504 157.636C249.357 157.636 250.228 157.542 251.118 157.352C252.018 157.153 253.017 156.865 254.115 156.486ZM377.272 165.733C376.249 165.733 375.373 165.373 374.644 164.653C373.924 163.934 373.569 163.062 373.579 162.04C373.569 161.036 373.924 160.179 374.644 159.469C375.373 158.749 376.249 158.389 377.272 158.389C378.238 158.389 379.09 158.749 379.829 159.469C380.577 160.179 380.956 161.036 380.965 162.04C380.956 162.722 380.776 163.342 380.425 163.901C380.085 164.459 379.635 164.904 379.076 165.236C378.527 165.567 377.925 165.733 377.272 165.733ZM377.272 151.614C376.249 151.614 375.373 151.254 374.644 150.534C373.924 149.814 373.569 148.943 373.579 147.92C373.569 146.917 373.924 146.06 374.644 145.349C375.373 144.63 376.249 144.27 377.272 144.27C378.238 144.27 379.09 144.63 379.829 145.349C380.577 146.06 380.956 146.917 380.965 147.92C380.956 148.602 380.776 149.223 380.425 149.781C380.085 150.34 379.635 150.785 379.076 151.116C378.527 151.448 377.925 151.614 377.272 151.614ZM405.454 169.398C403.191 169.398 401.169 169.038 399.388 168.318C397.618 167.589 396.226 166.604 395.212 165.364C394.209 164.114 393.707 162.703 393.707 161.131C393.707 159.928 393.996 158.825 394.573 157.821C395.151 156.817 395.932 155.984 396.917 155.321C397.911 154.649 399.019 154.218 400.241 154.028V153.801C398.64 153.508 397.329 152.764 396.306 151.571C395.293 150.378 394.786 148.981 394.786 147.381C394.786 145.866 395.246 144.516 396.164 143.332C397.092 142.149 398.356 141.216 399.957 140.534C401.567 139.852 403.399 139.511 405.454 139.511C407.509 139.511 409.336 139.852 410.937 140.534C412.547 141.216 413.811 142.149 414.729 143.332C415.657 144.516 416.121 145.866 416.121 147.381C416.121 148.991 415.605 150.392 414.573 151.585C413.55 152.769 412.248 153.508 410.667 153.801V154.028C411.879 154.218 412.978 154.649 413.962 155.321C414.957 155.984 415.743 156.817 416.32 157.821C416.907 158.825 417.201 159.928 417.201 161.131C417.201 162.703 416.694 164.114 415.681 165.364C414.668 166.604 413.276 167.589 411.505 168.318C409.744 169.038 407.727 169.398 405.454 169.398ZM405.454 164.412C406.316 164.412 407.073 164.251 407.727 163.929C408.38 163.598 408.891 163.138 409.261 162.551C409.639 161.964 409.829 161.301 409.829 160.562C409.829 159.805 409.639 159.133 409.261 158.545C408.882 157.958 408.361 157.499 407.698 157.168C407.045 156.827 406.297 156.656 405.454 156.656C404.621 156.656 403.872 156.827 403.21 157.168C402.547 157.499 402.026 157.958 401.647 158.545C401.268 159.133 401.079 159.805 401.079 160.562C401.079 161.301 401.263 161.964 401.633 162.551C402.012 163.129 402.528 163.583 403.181 163.915C403.844 164.246 404.602 164.412 405.454 164.412ZM405.454 151.699C406.192 151.699 406.846 151.547 407.414 151.244C407.992 150.941 408.442 150.52 408.763 149.98C409.095 149.44 409.261 148.83 409.261 148.148C409.261 147.466 409.095 146.865 408.763 146.344C408.442 145.823 407.996 145.416 407.428 145.122C406.86 144.819 406.202 144.668 405.454 144.668C404.715 144.668 404.057 144.819 403.479 145.122C402.902 145.416 402.452 145.823 402.13 146.344C401.808 146.865 401.647 147.466 401.647 148.148C401.647 148.83 401.808 149.44 402.13 149.98C402.461 150.51 402.916 150.932 403.494 151.244C404.071 151.547 404.725 151.699 405.454 151.699ZM424.264 169.412C423.241 169.412 422.366 169.052 421.636 168.332C420.917 167.613 420.562 166.741 420.571 165.719C420.562 164.715 420.917 163.858 421.636 163.148C422.366 162.428 423.241 162.068 424.264 162.068C425.23 162.068 426.082 162.428 426.821 163.148C427.569 163.858 427.948 164.715 427.957 165.719C427.948 166.401 427.768 167.021 427.418 167.58C427.077 168.138 426.627 168.583 426.068 168.915C425.519 169.246 424.918 169.412 424.264 169.412ZM442.815 139.511C444.406 139.511 445.926 139.772 447.375 140.293C448.824 140.804 450.116 141.623 451.253 142.75C452.389 143.867 453.284 145.34 453.938 147.168C454.591 148.995 454.918 151.225 454.918 153.858C454.927 156.282 454.643 158.455 454.065 160.378C453.488 162.291 452.659 163.92 451.58 165.264C450.509 166.609 449.222 167.636 447.716 168.347C446.21 169.047 444.529 169.398 442.673 169.398C440.628 169.398 438.824 169.005 437.261 168.219C435.708 167.423 434.463 166.353 433.526 165.009C432.598 163.664 432.044 162.158 431.864 160.491H438.781C438.999 161.457 439.458 162.187 440.159 162.679C440.86 163.162 441.698 163.403 442.673 163.403C444.454 163.403 445.784 162.632 446.665 161.088C447.545 159.545 447.986 157.447 447.986 154.795H447.815C447.408 155.667 446.83 156.415 446.082 157.04C445.344 157.665 444.487 158.143 443.511 158.474C442.536 158.806 441.509 158.972 440.429 158.972C438.687 158.972 437.148 158.574 435.812 157.778C434.487 156.983 433.445 155.889 432.688 154.497C431.939 153.105 431.561 151.514 431.551 149.724C431.542 147.717 432.01 145.946 432.957 144.412C433.904 142.868 435.225 141.666 436.92 140.804C438.616 139.933 440.58 139.502 442.815 139.511ZM442.858 144.909C441.987 144.909 441.21 145.113 440.528 145.52C439.856 145.927 439.326 146.476 438.938 147.168C438.549 147.859 438.36 148.635 438.369 149.497C438.379 150.359 438.573 151.135 438.952 151.827C439.34 152.518 439.866 153.067 440.528 153.474C441.201 153.882 441.968 154.085 442.83 154.085C443.473 154.085 444.07 153.967 444.619 153.73C445.169 153.493 445.647 153.167 446.054 152.75C446.461 152.324 446.778 151.831 447.006 151.273C447.242 150.714 447.356 150.117 447.347 149.483C447.337 148.64 447.138 147.873 446.75 147.182C446.362 146.491 445.827 145.941 445.145 145.534C444.473 145.117 443.71 144.909 442.858 144.909ZM480.638 161.585L485.979 147.182H491.065L482.869 169H478.408L470.425 147.182H475.496L480.638 161.585ZM474.005 147.182V169H467.428V147.182H474.005ZM487.67 169V147.182H494.161V169H487.67ZM511.832 138.545L502.457 173.375H496.533L505.908 138.545H511.832ZM524.605 169.412C522.304 169.412 520.33 168.938 518.682 167.991C517.044 167.045 515.784 165.728 514.903 164.043C514.023 162.348 513.582 160.387 513.582 158.162C513.582 155.927 514.023 153.967 514.903 152.281C515.794 150.586 517.058 149.265 518.696 148.318C520.344 147.371 522.309 146.898 524.591 146.898C526.608 146.898 528.365 147.262 529.861 147.991C531.366 148.721 532.541 149.753 533.384 151.088C534.236 152.414 534.686 153.972 534.733 155.761H528.241C528.109 154.644 527.73 153.768 527.105 153.134C526.49 152.499 525.685 152.182 524.69 152.182C523.885 152.182 523.18 152.409 522.574 152.864C521.968 153.309 521.494 153.972 521.153 154.852C520.822 155.723 520.656 156.803 520.656 158.091C520.656 159.379 520.822 160.468 521.153 161.358C521.494 162.239 521.968 162.906 522.574 163.361C523.18 163.806 523.885 164.028 524.69 164.028C525.334 164.028 525.902 163.891 526.395 163.616C526.897 163.342 527.309 162.939 527.631 162.409C527.953 161.869 528.156 161.216 528.241 160.449H534.733C534.667 162.248 534.217 163.82 533.384 165.165C532.56 166.509 531.4 167.556 529.903 168.304C528.417 169.043 526.651 169.412 524.605 169.412ZM537.762 154.455V151.017L544.765 145.605C545.248 145.226 545.674 144.881 546.043 144.568C546.413 144.246 546.701 143.92 546.91 143.588C547.128 143.257 547.237 142.883 547.237 142.466C547.237 141.841 546.971 141.367 546.441 141.045C545.92 140.714 545.29 140.548 544.552 140.548C543.756 140.548 543.117 140.733 542.634 141.102C542.151 141.472 541.91 142.03 541.91 142.778H537.322C537.322 140.884 538.004 139.412 539.367 138.361C540.74 137.31 542.487 136.784 544.609 136.784C546.067 136.784 547.331 137.035 548.401 137.537C549.481 138.039 550.314 138.716 550.901 139.568C551.488 140.42 551.782 141.367 551.782 142.409C551.782 143.261 551.602 144.052 551.242 144.781C550.892 145.51 550.347 146.216 549.609 146.898C548.879 147.58 547.942 148.271 546.796 148.972L544.637 150.392V150.548H551.881V154.455H537.762ZM67.8438 193.619V187.909H92.4318V193.619H83.6108V217H76.679V193.619H67.8438ZM102.901 217.412C100.618 217.412 98.6487 216.962 96.9915 216.062C95.3438 215.153 94.0748 213.861 93.1847 212.185C92.304 210.499 91.8636 208.496 91.8636 206.176C91.8636 203.922 92.3087 201.953 93.1989 200.267C94.089 198.572 95.3438 197.256 96.9631 196.318C98.5824 195.371 100.491 194.898 102.688 194.898C104.241 194.898 105.661 195.139 106.949 195.622C108.237 196.105 109.349 196.82 110.287 197.767C111.224 198.714 111.954 199.884 112.474 201.276C112.995 202.658 113.256 204.244 113.256 206.034V207.767H94.2926V203.733H106.793C106.783 202.994 106.608 202.336 106.267 201.759C105.926 201.181 105.457 200.731 104.861 200.409C104.274 200.078 103.597 199.912 102.83 199.912C102.053 199.912 101.357 200.087 100.741 200.438C100.126 200.778 99.6383 201.247 99.2784 201.844C98.9186 202.431 98.7292 203.098 98.7102 203.847V207.952C98.7102 208.842 98.8854 209.623 99.2358 210.295C99.5862 210.958 100.083 211.474 100.727 211.844C101.371 212.213 102.138 212.398 103.028 212.398C103.644 212.398 104.203 212.312 104.705 212.142C105.206 211.972 105.637 211.721 105.997 211.389C106.357 211.058 106.627 210.651 106.807 210.168L113.185 210.352C112.92 211.782 112.337 213.027 111.438 214.088C110.547 215.139 109.378 215.958 107.929 216.545C106.48 217.123 104.804 217.412 102.901 217.412ZM130.013 209.585L135.354 195.182H140.44L132.244 217H127.783L119.8 195.182H124.871L130.013 209.585ZM123.38 195.182V217H116.803V195.182H123.38ZM137.045 217V195.182H143.536V217H137.045ZM147.741 217V195.182H167.442V217H160.866V200.494H154.232V217H147.741ZM182.041 217.412C179.759 217.412 177.789 216.962 176.132 216.062C174.484 215.153 173.215 213.861 172.325 212.185C171.445 210.499 171.004 208.496 171.004 206.176C171.004 203.922 171.449 201.953 172.339 200.267C173.23 198.572 174.484 197.256 176.104 196.318C177.723 195.371 179.631 194.898 181.828 194.898C183.381 194.898 184.802 195.139 186.089 195.622C187.377 196.105 188.49 196.82 189.428 197.767C190.365 198.714 191.094 199.884 191.615 201.276C192.136 202.658 192.396 204.244 192.396 206.034V207.767H173.433V203.733H185.933C185.924 202.994 185.749 202.336 185.408 201.759C185.067 201.181 184.598 200.731 184.001 200.409C183.414 200.078 182.737 199.912 181.97 199.912C181.194 199.912 180.498 200.087 179.882 200.438C179.267 200.778 178.779 201.247 178.419 201.844C178.059 202.431 177.87 203.098 177.851 203.847V207.952C177.851 208.842 178.026 209.623 178.376 210.295C178.727 210.958 179.224 211.474 179.868 211.844C180.512 212.213 181.279 212.398 182.169 212.398C182.785 212.398 183.343 212.312 183.845 212.142C184.347 211.972 184.778 211.721 185.138 211.389C185.498 211.058 185.768 210.651 185.947 210.168L192.325 210.352C192.06 211.782 191.478 213.027 190.578 214.088C189.688 215.139 188.518 215.958 187.07 216.545C185.621 217.123 183.945 217.412 182.041 217.412ZM195.944 225.182V195.182H202.819V198.918H203.032C203.316 198.255 203.719 197.616 204.239 197C204.77 196.384 205.442 195.883 206.256 195.494C207.08 195.097 208.065 194.898 209.211 194.898C210.726 194.898 212.142 195.295 213.458 196.091C214.784 196.886 215.854 198.113 216.668 199.77C217.483 201.427 217.89 203.539 217.89 206.105C217.89 208.577 217.497 210.646 216.711 212.312C215.934 213.979 214.883 215.229 213.558 216.062C212.241 216.896 210.778 217.312 209.168 217.312C208.07 217.312 207.118 217.133 206.313 216.773C205.508 216.413 204.831 215.939 204.282 215.352C203.742 214.765 203.326 214.135 203.032 213.463H202.89V225.182H195.944ZM202.748 206.091C202.748 207.265 202.904 208.288 203.217 209.159C203.539 210.03 203.998 210.707 204.594 211.19C205.201 211.664 205.925 211.901 206.768 211.901C207.62 211.901 208.344 211.664 208.941 211.19C209.538 210.707 209.987 210.03 210.29 209.159C210.603 208.288 210.759 207.265 210.759 206.091C210.759 204.917 210.603 203.899 210.29 203.037C209.987 202.175 209.538 201.508 208.941 201.034C208.354 200.561 207.629 200.324 206.768 200.324C205.915 200.324 205.191 200.556 204.594 201.02C203.998 201.484 203.539 202.147 203.217 203.009C202.904 203.87 202.748 204.898 202.748 206.091ZM227.68 217.369C226.288 217.369 225.053 217.137 223.973 216.673C222.903 216.2 222.055 215.49 221.43 214.543C220.815 213.586 220.507 212.388 220.507 210.949C220.507 209.737 220.72 208.714 221.146 207.881C221.572 207.047 222.16 206.37 222.908 205.849C223.656 205.329 224.518 204.936 225.493 204.67C226.468 204.396 227.51 204.211 228.618 204.116C229.858 204.003 230.857 203.884 231.615 203.761C232.373 203.629 232.922 203.444 233.263 203.207C233.613 202.961 233.788 202.616 233.788 202.17V202.099C233.788 201.37 233.537 200.807 233.036 200.409C232.534 200.011 231.857 199.812 231.004 199.812C230.086 199.812 229.347 200.011 228.788 200.409C228.23 200.807 227.875 201.356 227.723 202.057L221.317 201.83C221.506 200.504 221.994 199.32 222.78 198.278C223.575 197.227 224.664 196.403 226.047 195.807C227.439 195.201 229.11 194.898 231.061 194.898C232.453 194.898 233.736 195.063 234.911 195.395C236.085 195.717 237.107 196.19 237.979 196.815C238.85 197.431 239.522 198.188 239.996 199.088C240.479 199.988 240.72 201.015 240.72 202.17V217H234.186V213.96H234.016C233.627 214.699 233.13 215.324 232.524 215.835C231.928 216.347 231.222 216.73 230.408 216.986C229.603 217.241 228.694 217.369 227.68 217.369ZM229.825 212.824C230.573 212.824 231.246 212.672 231.842 212.369C232.448 212.066 232.931 211.65 233.291 211.119C233.651 210.58 233.831 209.955 233.831 209.244V207.17C233.632 207.275 233.391 207.369 233.107 207.455C232.832 207.54 232.529 207.62 232.197 207.696C231.866 207.772 231.525 207.838 231.175 207.895C230.824 207.952 230.488 208.004 230.166 208.051C229.513 208.155 228.954 208.316 228.49 208.534C228.036 208.752 227.685 209.036 227.439 209.386C227.202 209.727 227.084 210.134 227.084 210.608C227.084 211.328 227.339 211.877 227.851 212.256C228.372 212.634 229.03 212.824 229.825 212.824ZM243.039 200.494V195.182H263.494V200.494H256.519V217H249.928V200.494H243.039ZM271.05 225.182C270.217 225.182 269.431 225.116 268.692 224.983C267.954 224.86 267.319 224.694 266.789 224.486L268.323 219.443C269.005 219.67 269.621 219.803 270.17 219.841C270.728 219.879 271.207 219.789 271.604 219.571C272.012 219.363 272.324 218.989 272.542 218.449L272.812 217.795L265.056 195.182H272.329L276.349 210.75H276.576L280.653 195.182H287.968L279.744 219.088C279.346 220.281 278.782 221.332 278.053 222.241C277.334 223.16 276.401 223.88 275.255 224.401C274.119 224.921 272.717 225.182 271.05 225.182ZM290.631 225.182V195.182H297.506V198.918H297.719C298.004 198.255 298.406 197.616 298.927 197C299.457 196.384 300.129 195.883 300.944 195.494C301.768 195.097 302.753 194.898 303.898 194.898C305.414 194.898 306.829 195.295 308.146 196.091C309.471 196.886 310.541 198.113 311.356 199.77C312.17 201.427 312.577 203.539 312.577 206.105C312.577 208.577 312.184 210.646 311.398 212.312C310.622 213.979 309.571 215.229 308.245 216.062C306.929 216.896 305.466 217.312 303.856 217.312C302.757 217.312 301.806 217.133 301.001 216.773C300.196 216.413 299.519 215.939 298.969 215.352C298.43 214.765 298.013 214.135 297.719 213.463H297.577V225.182H290.631ZM297.435 206.091C297.435 207.265 297.592 208.288 297.904 209.159C298.226 210.03 298.685 210.707 299.282 211.19C299.888 211.664 300.612 211.901 301.455 211.901C302.308 211.901 303.032 211.664 303.629 211.19C304.225 210.707 304.675 210.03 304.978 209.159C305.29 208.288 305.447 207.265 305.447 206.091C305.447 204.917 305.29 203.899 304.978 203.037C304.675 202.175 304.225 201.508 303.629 201.034C303.041 200.561 302.317 200.324 301.455 200.324C300.603 200.324 299.879 200.556 299.282 201.02C298.685 201.484 298.226 202.147 297.904 203.009C297.592 203.87 297.435 204.898 297.435 206.091ZM380.28 213.733C379.257 213.733 378.381 213.373 377.652 212.653C376.932 211.934 376.577 211.062 376.587 210.04C376.577 209.036 376.932 208.179 377.652 207.469C378.381 206.749 379.257 206.389 380.28 206.389C381.246 206.389 382.098 206.749 382.837 207.469C383.585 208.179 383.964 209.036 383.973 210.04C383.964 210.722 383.784 211.342 383.433 211.901C383.092 212.459 382.643 212.904 382.084 213.236C381.535 213.567 380.933 213.733 380.28 213.733ZM380.28 199.614C379.257 199.614 378.381 199.254 377.652 198.534C376.932 197.814 376.577 196.943 376.587 195.92C376.577 194.917 376.932 194.06 377.652 193.349C378.381 192.63 379.257 192.27 380.28 192.27C381.246 192.27 382.098 192.63 382.837 193.349C383.585 194.06 383.964 194.917 383.973 195.92C383.964 196.602 383.784 197.223 383.433 197.781C383.092 198.34 382.643 198.785 382.084 199.116C381.535 199.448 380.933 199.614 380.28 199.614ZM396.743 212.17V206.688L408.661 187.909H413.533V195.352H410.706L403.732 206.403V206.631H420.99V212.17H396.743ZM410.791 217V210.494L410.933 208.094V187.909H417.51V217H410.791ZM436.338 217.398C434.747 217.398 433.223 217.142 431.764 216.631C430.306 216.11 429.009 215.286 427.872 214.159C426.736 213.023 425.841 211.536 425.188 209.699C424.534 207.852 424.212 205.603 424.222 202.952C424.231 200.556 424.525 198.406 425.102 196.503C425.68 194.59 426.504 192.966 427.574 191.631C428.653 190.295 429.941 189.277 431.438 188.577C432.943 187.866 434.624 187.511 436.48 187.511C438.516 187.511 440.311 187.909 441.864 188.705C443.426 189.491 444.676 190.551 445.614 191.886C446.551 193.212 447.105 194.689 447.276 196.318H440.358C440.15 195.4 439.69 194.704 438.98 194.23C438.279 193.747 437.446 193.506 436.48 193.506C434.7 193.506 433.369 194.277 432.489 195.821C431.617 197.365 431.172 199.429 431.153 202.014H431.338C431.736 201.143 432.309 200.395 433.057 199.77C433.805 199.145 434.662 198.667 435.628 198.335C436.603 197.994 437.635 197.824 438.724 197.824C440.467 197.824 442.006 198.226 443.341 199.031C444.676 199.836 445.723 200.939 446.48 202.341C447.238 203.733 447.612 205.329 447.602 207.128C447.612 209.154 447.138 210.944 446.182 212.497C445.225 214.041 443.9 215.243 442.205 216.105C440.519 216.967 438.563 217.398 436.338 217.398ZM436.295 212C437.157 212 437.929 211.796 438.611 211.389C439.293 210.982 439.828 210.428 440.216 209.727C440.604 209.027 440.794 208.236 440.784 207.355C440.794 206.465 440.604 205.674 440.216 204.983C439.837 204.292 439.307 203.742 438.625 203.335C437.953 202.928 437.181 202.724 436.31 202.724C435.675 202.724 435.083 202.843 434.534 203.08C433.985 203.316 433.507 203.648 433.099 204.074C432.702 204.491 432.389 204.983 432.162 205.551C431.935 206.11 431.816 206.716 431.807 207.369C431.816 208.231 432.015 209.012 432.403 209.713C432.792 210.414 433.322 210.973 433.994 211.389C434.667 211.796 435.434 212 436.295 212ZM451.59 217V211.943L462.201 202.653C462.996 201.934 463.674 201.276 464.232 200.679C464.791 200.073 465.217 199.467 465.511 198.861C465.804 198.245 465.951 197.578 465.951 196.858C465.951 196.053 465.776 195.366 465.425 194.798C465.075 194.221 464.592 193.776 463.977 193.463C463.361 193.151 462.656 192.994 461.86 192.994C461.055 192.994 460.35 193.16 459.744 193.491C459.138 193.813 458.664 194.282 458.323 194.898C457.992 195.513 457.826 196.261 457.826 197.142H451.164C451.164 195.163 451.609 193.454 452.499 192.014C453.389 190.575 454.639 189.467 456.249 188.69C457.869 187.904 459.748 187.511 461.888 187.511C464.095 187.511 466.013 187.881 467.641 188.619C469.27 189.358 470.53 190.39 471.42 191.716C472.319 193.032 472.769 194.562 472.769 196.304C472.769 197.412 472.547 198.51 472.102 199.599C471.656 200.688 470.856 201.891 469.701 203.207C468.555 204.524 466.926 206.1 464.815 207.938L461.335 211.148V211.332H473.124V217H451.59ZM492.78 201.972C491.464 201.972 490.266 201.654 489.186 201.02C488.107 200.376 487.245 199.514 486.601 198.435C485.966 197.355 485.649 196.162 485.649 194.855C485.649 193.539 485.966 192.341 486.601 191.261C487.245 190.182 488.107 189.325 489.186 188.69C490.266 188.046 491.464 187.724 492.78 187.724C494.096 187.724 495.289 188.046 496.359 188.69C497.439 189.325 498.296 190.182 498.93 191.261C499.574 192.341 499.896 193.539 499.896 194.855C499.896 196.162 499.574 197.355 498.93 198.435C498.296 199.514 497.439 200.376 496.359 201.02C495.289 201.654 494.096 201.972 492.78 201.972ZM492.78 197.54C493.272 197.54 493.722 197.421 494.129 197.185C494.536 196.938 494.858 196.612 495.095 196.205C495.341 195.797 495.464 195.348 495.464 194.855C495.464 194.353 495.341 193.899 495.095 193.491C494.858 193.084 494.536 192.762 494.129 192.526C493.722 192.279 493.272 192.156 492.78 192.156C492.278 192.156 491.823 192.279 491.416 192.526C491.009 192.762 490.682 193.084 490.436 193.491C490.199 193.899 490.081 194.348 490.081 194.841C490.081 195.343 490.199 195.802 490.436 196.219C490.682 196.626 491.009 196.948 491.416 197.185C491.833 197.421 492.287 197.54 492.78 197.54ZM530.592 198.449H523.49C523.395 197.72 523.201 197.062 522.908 196.474C522.614 195.887 522.226 195.385 521.743 194.969C521.26 194.552 520.687 194.235 520.024 194.017C519.371 193.79 518.646 193.676 517.851 193.676C516.44 193.676 515.223 194.022 514.2 194.713C513.187 195.404 512.406 196.403 511.857 197.71C511.317 199.017 511.047 200.598 511.047 202.455C511.047 204.386 511.321 206.006 511.871 207.312C512.429 208.61 513.211 209.59 514.214 210.253C515.228 210.906 516.426 211.233 517.808 211.233C518.585 211.233 519.29 211.134 519.925 210.935C520.569 210.736 521.132 210.447 521.615 210.068C522.107 209.68 522.51 209.211 522.822 208.662C523.144 208.103 523.367 207.473 523.49 206.773L530.592 206.815C530.469 208.103 530.095 209.372 529.47 210.622C528.855 211.872 528.007 213.013 526.928 214.045C525.848 215.068 524.532 215.883 522.979 216.489C521.435 217.095 519.664 217.398 517.666 217.398C515.034 217.398 512.676 216.82 510.592 215.665C508.518 214.5 506.88 212.805 505.678 210.58C504.475 208.354 503.874 205.646 503.874 202.455C503.874 199.254 504.484 196.541 505.706 194.315C506.928 192.09 508.58 190.4 510.663 189.244C512.747 188.089 515.081 187.511 517.666 187.511C519.428 187.511 521.056 187.758 522.553 188.25C524.049 188.733 525.365 189.443 526.501 190.381C527.638 191.309 528.561 192.45 529.271 193.804C529.982 195.158 530.422 196.706 530.592 198.449ZM67.5312 272.003V259.517H69.5341C70.2064 259.062 70.822 258.428 71.3807 257.614C71.9394 256.79 72.4176 255.634 72.8153 254.148C73.2131 252.652 73.4972 250.677 73.6676 248.224L74.5767 235.909H94.4773V259.517H97.6023V271.989H90.8409V265H74.2926V272.003H67.5312ZM77.6023 259.517H87.7159V241.619H80.8835L80.429 248.224C80.3059 250.071 80.107 251.7 79.8324 253.111C79.5578 254.522 79.2311 255.753 78.8523 256.804C78.4735 257.846 78.0568 258.75 77.6023 259.517ZM106.977 265.369C105.585 265.369 104.349 265.137 103.27 264.673C102.2 264.2 101.352 263.49 100.727 262.543C100.112 261.586 99.804 260.388 99.804 258.949C99.804 257.737 100.017 256.714 100.443 255.881C100.869 255.047 101.456 254.37 102.205 253.849C102.953 253.329 103.814 252.936 104.79 252.67C105.765 252.396 106.807 252.211 107.915 252.116C109.155 252.003 110.154 251.884 110.912 251.761C111.67 251.629 112.219 251.444 112.56 251.207C112.91 250.961 113.085 250.616 113.085 250.17V250.099C113.085 249.37 112.834 248.807 112.332 248.409C111.83 248.011 111.153 247.812 110.301 247.812C109.383 247.812 108.644 248.011 108.085 248.409C107.527 248.807 107.171 249.356 107.02 250.057L100.614 249.83C100.803 248.504 101.291 247.32 102.077 246.278C102.872 245.227 103.961 244.403 105.344 243.807C106.736 243.201 108.407 242.898 110.358 242.898C111.75 242.898 113.033 243.063 114.207 243.395C115.382 243.717 116.404 244.19 117.276 244.815C118.147 245.431 118.819 246.188 119.293 247.088C119.776 247.988 120.017 249.015 120.017 250.17V265H113.483V261.96H113.312C112.924 262.699 112.427 263.324 111.821 263.835C111.224 264.347 110.519 264.73 109.705 264.986C108.9 265.241 107.991 265.369 106.977 265.369ZM109.122 260.824C109.87 260.824 110.543 260.672 111.139 260.369C111.745 260.066 112.228 259.65 112.588 259.119C112.948 258.58 113.128 257.955 113.128 257.244V255.17C112.929 255.275 112.688 255.369 112.403 255.455C112.129 255.54 111.826 255.62 111.494 255.696C111.163 255.772 110.822 255.838 110.472 255.895C110.121 255.952 109.785 256.004 109.463 256.051C108.81 256.155 108.251 256.316 107.787 256.534C107.332 256.752 106.982 257.036 106.736 257.386C106.499 257.727 106.381 258.134 106.381 258.608C106.381 259.328 106.636 259.877 107.148 260.256C107.669 260.634 108.327 260.824 109.122 260.824ZM139.69 243.182V248.494H130.983V265H124.264V243.182H139.69ZM147.222 273.182C146.389 273.182 145.603 273.116 144.864 272.983C144.126 272.86 143.491 272.694 142.961 272.486L144.495 267.443C145.177 267.67 145.792 267.803 146.342 267.841C146.9 267.879 147.379 267.789 147.776 267.571C148.183 267.363 148.496 266.989 148.714 266.449L148.984 265.795L141.228 243.182H148.501L152.521 258.75H152.748L156.825 243.182H164.14L155.915 267.088C155.518 268.281 154.954 269.332 154.225 270.241C153.505 271.16 152.573 271.88 151.427 272.401C150.29 272.921 148.889 273.182 147.222 273.182ZM171.05 273.182C170.217 273.182 169.431 273.116 168.692 272.983C167.954 272.86 167.319 272.694 166.789 272.486L168.323 267.443C169.005 267.67 169.621 267.803 170.17 267.841C170.728 267.879 171.207 267.789 171.604 267.571C172.012 267.363 172.324 266.989 172.542 266.449L172.812 265.795L165.056 243.182H172.329L176.349 258.75H176.576L180.653 243.182H187.968L179.744 267.088C179.346 268.281 178.782 269.332 178.053 270.241C177.334 271.16 176.401 271.88 175.255 272.401C174.119 272.921 172.717 273.182 171.05 273.182ZM187.808 265L187.766 259.645H188.462C188.935 259.645 189.347 259.522 189.697 259.276C190.048 259.029 190.341 258.636 190.578 258.097C190.815 257.547 191.004 256.842 191.146 255.98C191.288 255.118 191.378 254.072 191.416 252.841L191.771 243.182H209.044V265H202.467V248.494H197.95L197.609 254.773C197.524 256.619 197.283 258.196 196.885 259.503C196.497 260.8 195.966 261.851 195.294 262.656C194.631 263.461 193.845 264.053 192.936 264.432C192.027 264.811 191 265 189.854 265H187.808ZM217.364 249.489H223.984C226.986 249.489 229.339 250.194 231.043 251.605C232.748 253.007 233.605 254.91 233.614 257.315C233.605 258.878 233.212 260.237 232.435 261.392C231.668 262.538 230.565 263.428 229.126 264.062C227.696 264.688 225.982 265 223.984 265H213.288V243.182H219.864V259.688H223.984C224.893 259.688 225.641 259.465 226.228 259.02C226.815 258.575 227.113 258.002 227.123 257.301C227.113 256.562 226.815 255.961 226.228 255.497C225.641 255.033 224.893 254.801 223.984 254.801H217.364V249.489ZM235.575 265V243.182H242.521V265H235.575ZM262.304 251.378V256.676H251.111V251.378H262.304ZM253.497 243.182V265H246.92V243.182H253.497ZM266.494 243.182V265H259.96V243.182H266.494ZM278.195 248.494V243.182H298.65V248.494H291.675V265H285.085V248.494H278.195ZM311.48 265.412C309.188 265.412 307.219 264.943 305.571 264.006C303.933 263.059 302.669 261.742 301.778 260.057C300.898 258.362 300.457 256.397 300.457 254.162C300.457 251.918 300.898 249.953 301.778 248.267C302.669 246.572 303.933 245.256 305.571 244.318C307.219 243.371 309.188 242.898 311.48 242.898C313.772 242.898 315.737 243.371 317.375 244.318C319.023 245.256 320.287 246.572 321.168 248.267C322.058 249.953 322.503 251.918 322.503 254.162C322.503 256.397 322.058 258.362 321.168 260.057C320.287 261.742 319.023 263.059 317.375 264.006C315.737 264.943 313.772 265.412 311.48 265.412ZM311.523 260.17C312.356 260.17 313.062 259.915 313.639 259.403C314.217 258.892 314.657 258.182 314.96 257.273C315.273 256.364 315.429 255.312 315.429 254.119C315.429 252.907 315.273 251.847 314.96 250.938C314.657 250.028 314.217 249.318 313.639 248.807C313.062 248.295 312.356 248.04 311.523 248.04C310.661 248.04 309.932 248.295 309.335 248.807C308.748 249.318 308.298 250.028 307.986 250.938C307.683 251.847 307.531 252.907 307.531 254.119C307.531 255.312 307.683 256.364 307.986 257.273C308.298 258.182 308.748 258.892 309.335 259.403C309.932 259.915 310.661 260.17 311.523 260.17ZM336.246 265.412C333.954 265.412 331.984 264.943 330.337 264.006C328.698 263.059 327.434 261.742 326.544 260.057C325.663 258.362 325.223 256.397 325.223 254.162C325.223 251.918 325.663 249.953 326.544 248.267C327.434 246.572 328.698 245.256 330.337 244.318C331.984 243.371 333.954 242.898 336.246 242.898C338.537 242.898 340.502 243.371 342.141 244.318C343.788 245.256 345.053 246.572 345.933 248.267C346.823 249.953 347.268 251.918 347.268 254.162C347.268 256.397 346.823 258.362 345.933 260.057C345.053 261.742 343.788 263.059 342.141 264.006C340.502 264.943 338.537 265.412 336.246 265.412ZM336.288 260.17C337.122 260.17 337.827 259.915 338.405 259.403C338.982 258.892 339.423 258.182 339.726 257.273C340.038 256.364 340.195 255.312 340.195 254.119C340.195 252.907 340.038 251.847 339.726 250.938C339.423 250.028 338.982 249.318 338.405 248.807C337.827 248.295 337.122 248.04 336.288 248.04C335.427 248.04 334.697 248.295 334.101 248.807C333.514 249.318 333.064 250.028 332.751 250.938C332.448 251.847 332.297 252.907 332.297 254.119C332.297 255.312 332.448 256.364 332.751 257.273C333.064 258.182 333.514 258.892 334.101 259.403C334.697 259.915 335.427 260.17 336.288 260.17ZM380.514 261.733C379.491 261.733 378.616 261.373 377.886 260.653C377.167 259.934 376.812 259.062 376.821 258.04C376.812 257.036 377.167 256.179 377.886 255.469C378.616 254.749 379.491 254.389 380.514 254.389C381.48 254.389 382.332 254.749 383.071 255.469C383.819 256.179 384.198 257.036 384.207 258.04C384.198 258.722 384.018 259.342 383.668 259.901C383.327 260.459 382.877 260.904 382.318 261.236C381.769 261.567 381.168 261.733 380.514 261.733ZM380.514 247.614C379.491 247.614 378.616 247.254 377.886 246.534C377.167 245.814 376.812 244.943 376.821 243.92C376.812 242.917 377.167 242.06 377.886 241.349C378.616 240.63 379.491 240.27 380.514 240.27C381.48 240.27 382.332 240.63 383.071 241.349C383.819 242.06 384.198 242.917 384.207 243.92C384.198 244.602 384.018 245.223 383.668 245.781C383.327 246.34 382.877 246.785 382.318 247.116C381.769 247.448 381.168 247.614 380.514 247.614ZM409.364 265.71C406.826 265.71 404.638 265.109 402.801 263.906C400.964 262.694 399.548 260.956 398.554 258.693C397.56 256.42 397.067 253.688 397.077 250.497C397.086 247.306 397.583 244.598 398.568 242.372C399.563 240.137 400.973 238.437 402.801 237.273C404.638 236.098 406.826 235.511 409.364 235.511C411.902 235.511 414.089 236.098 415.926 237.273C417.773 238.437 419.193 240.137 420.188 242.372C421.182 244.607 421.674 247.315 421.665 250.497C421.665 253.698 421.168 256.435 420.173 258.707C419.179 260.98 417.763 262.718 415.926 263.92C414.098 265.114 411.911 265.71 409.364 265.71ZM409.364 259.957C410.879 259.957 412.105 259.186 413.043 257.642C413.98 256.089 414.444 253.707 414.435 250.497C414.435 248.395 414.222 246.662 413.795 245.298C413.369 243.925 412.777 242.902 412.02 242.23C411.262 241.558 410.377 241.222 409.364 241.222C407.858 241.222 406.641 241.984 405.713 243.509C404.785 245.024 404.316 247.353 404.307 250.497C404.297 252.628 404.501 254.394 404.918 255.795C405.344 257.197 405.94 258.243 406.707 258.935C407.474 259.616 408.36 259.957 409.364 259.957ZM67.5312 320.003V307.517H69.5341C70.2064 307.062 70.822 306.428 71.3807 305.614C71.9394 304.79 72.4176 303.634 72.8153 302.148C73.2131 300.652 73.4972 298.677 73.6676 296.224L74.5767 283.909H94.4773V307.517H97.6023V319.989H90.8409V313H74.2926V320.003H67.5312ZM77.6023 307.517H87.7159V289.619H80.8835L80.429 296.224C80.3059 298.071 80.107 299.7 79.8324 301.111C79.5578 302.522 79.2311 303.753 78.8523 304.804C78.4735 305.846 78.0568 306.75 77.6023 307.517ZM107.403 304.009L114.378 291.182H121.054V313H114.477V300.131L107.517 313H100.827V291.182H107.403V304.009ZM131.626 313.369C130.234 313.369 128.998 313.137 127.918 312.673C126.848 312.2 126.001 311.49 125.376 310.543C124.76 309.586 124.452 308.388 124.452 306.949C124.452 305.737 124.665 304.714 125.092 303.881C125.518 303.047 126.105 302.37 126.853 301.849C127.601 301.329 128.463 300.936 129.438 300.67C130.414 300.396 131.455 300.211 132.563 300.116C133.804 300.003 134.803 299.884 135.56 299.761C136.318 299.629 136.867 299.444 137.208 299.207C137.558 298.961 137.734 298.616 137.734 298.17V298.099C137.734 297.37 137.483 296.807 136.981 296.409C136.479 296.011 135.802 295.812 134.95 295.812C134.031 295.812 133.292 296.011 132.734 296.409C132.175 296.807 131.82 297.356 131.668 298.057L125.262 297.83C125.451 296.504 125.939 295.32 126.725 294.278C127.521 293.227 128.61 292.403 129.992 291.807C131.384 291.201 133.056 290.898 135.006 290.898C136.398 290.898 137.682 291.063 138.856 291.395C140.03 291.717 141.053 292.19 141.924 292.815C142.795 293.431 143.468 294.188 143.941 295.088C144.424 295.988 144.665 297.015 144.665 298.17V313H138.131V309.96H137.961C137.573 310.699 137.076 311.324 136.469 311.835C135.873 312.347 135.167 312.73 134.353 312.986C133.548 313.241 132.639 313.369 131.626 313.369ZM133.771 308.824C134.519 308.824 135.191 308.672 135.788 308.369C136.394 308.066 136.877 307.65 137.237 307.119C137.596 306.58 137.776 305.955 137.776 305.244V303.17C137.577 303.275 137.336 303.369 137.052 303.455C136.777 303.54 136.474 303.62 136.143 303.696C135.811 303.772 135.47 303.838 135.12 303.895C134.77 303.952 134.433 304.004 134.112 304.051C133.458 304.155 132.899 304.316 132.435 304.534C131.981 304.752 131.63 305.036 131.384 305.386C131.147 305.727 131.029 306.134 131.029 306.608C131.029 307.328 131.285 307.877 131.796 308.256C132.317 308.634 132.975 308.824 133.771 308.824ZM162.123 305.585L167.464 291.182H172.549L164.353 313H159.893L151.91 291.182H156.981L162.123 305.585ZM155.489 291.182V313H148.913V291.182H155.489ZM169.154 313V291.182H175.646V313H169.154ZM190.049 313.412C187.767 313.412 185.797 312.962 184.14 312.062C182.492 311.153 181.223 309.861 180.333 308.185C179.452 306.499 179.012 304.496 179.012 302.176C179.012 299.922 179.457 297.953 180.347 296.267C181.237 294.572 182.492 293.256 184.112 292.318C185.731 291.371 187.639 290.898 189.836 290.898C191.389 290.898 192.809 291.139 194.097 291.622C195.385 292.105 196.498 292.82 197.435 293.767C198.373 294.714 199.102 295.884 199.623 297.276C200.144 298.658 200.404 300.244 200.404 302.034V303.767H181.441V299.733H193.941C193.932 298.994 193.756 298.336 193.415 297.759C193.075 297.181 192.606 296.731 192.009 296.409C191.422 296.078 190.745 295.912 189.978 295.912C189.201 295.912 188.505 296.087 187.89 296.438C187.274 296.778 186.787 297.247 186.427 297.844C186.067 298.431 185.878 299.098 185.859 299.847V303.952C185.859 304.842 186.034 305.623 186.384 306.295C186.735 306.958 187.232 307.474 187.876 307.844C188.52 308.213 189.287 308.398 190.177 308.398C190.792 308.398 191.351 308.312 191.853 308.142C192.355 307.972 192.786 307.721 193.146 307.389C193.505 307.058 193.775 306.651 193.955 306.168L200.333 306.352C200.068 307.782 199.486 309.027 198.586 310.088C197.696 311.139 196.526 311.958 195.077 312.545C193.629 313.123 191.952 313.412 190.049 313.412ZM202.375 296.494V291.182H222.83V296.494H215.855V313H209.264V296.494H202.375ZM226.139 321.182V291.182H233.014V294.918H233.227C233.511 294.255 233.914 293.616 234.435 293C234.965 292.384 235.637 291.883 236.452 291.494C237.276 291.097 238.26 290.898 239.406 290.898C240.921 290.898 242.337 291.295 243.653 292.091C244.979 292.886 246.049 294.113 246.864 295.77C247.678 297.427 248.085 299.539 248.085 302.105C248.085 304.577 247.692 306.646 246.906 308.312C246.13 309.979 245.079 311.229 243.753 312.062C242.437 312.896 240.973 313.312 239.364 313.312C238.265 313.312 237.313 313.133 236.509 312.773C235.704 312.413 235.027 311.939 234.477 311.352C233.938 310.765 233.521 310.135 233.227 309.463H233.085V321.182H226.139ZM232.943 302.091C232.943 303.265 233.099 304.288 233.412 305.159C233.734 306.03 234.193 306.707 234.79 307.19C235.396 307.664 236.12 307.901 236.963 307.901C237.815 307.901 238.54 307.664 239.136 307.19C239.733 306.707 240.183 306.03 240.486 305.159C240.798 304.288 240.955 303.265 240.955 302.091C240.955 300.917 240.798 299.899 240.486 299.037C240.183 298.175 239.733 297.508 239.136 297.034C238.549 296.561 237.825 296.324 236.963 296.324C236.111 296.324 235.386 296.556 234.79 297.02C234.193 297.484 233.734 298.147 233.412 299.009C233.099 299.87 232.943 300.898 232.943 302.091ZM375.944 309.733C374.921 309.733 374.045 309.373 373.316 308.653C372.596 307.934 372.241 307.062 372.251 306.04C372.241 305.036 372.596 304.179 373.316 303.469C374.045 302.749 374.921 302.389 375.944 302.389C376.91 302.389 377.762 302.749 378.501 303.469C379.249 304.179 379.628 305.036 379.637 306.04C379.628 306.722 379.448 307.342 379.097 307.901C378.756 308.459 378.307 308.904 377.748 309.236C377.199 309.567 376.597 309.733 375.944 309.733ZM375.944 295.614C374.921 295.614 374.045 295.254 373.316 294.534C372.596 293.814 372.241 292.943 372.251 291.92C372.241 290.917 372.596 290.06 373.316 289.349C374.045 288.63 374.921 288.27 375.944 288.27C376.91 288.27 377.762 288.63 378.501 289.349C379.249 290.06 379.628 290.917 379.637 291.92C379.628 292.602 379.448 293.223 379.097 293.781C378.756 294.34 378.307 294.785 377.748 295.116C377.199 295.448 376.597 295.614 375.944 295.614ZM406.214 283.909V313H399.197V290.472H399.026L392.521 294.449V288.369L399.694 283.909H406.214ZM412.645 313V307.943L423.256 298.653C424.051 297.934 424.728 297.276 425.287 296.679C425.846 296.073 426.272 295.467 426.565 294.861C426.859 294.245 427.006 293.578 427.006 292.858C427.006 292.053 426.83 291.366 426.48 290.798C426.13 290.221 425.647 289.776 425.031 289.463C424.416 289.151 423.71 288.994 422.915 288.994C422.11 288.994 421.404 289.16 420.798 289.491C420.192 289.813 419.719 290.282 419.378 290.898C419.046 291.513 418.881 292.261 418.881 293.142H412.219C412.219 291.163 412.664 289.454 413.554 288.014C414.444 286.575 415.694 285.467 417.304 284.69C418.923 283.904 420.803 283.511 422.943 283.511C425.15 283.511 427.067 283.881 428.696 284.619C430.325 285.358 431.584 286.39 432.474 287.716C433.374 289.032 433.824 290.562 433.824 292.304C433.824 293.412 433.601 294.51 433.156 295.599C432.711 296.688 431.911 297.891 430.756 299.207C429.61 300.524 427.981 302.1 425.869 303.938L422.389 307.148V307.332H434.179V313H412.645ZM445.298 309.023L445.17 310.599C445.056 311.906 444.824 313.18 444.474 314.42C444.133 315.67 443.768 316.793 443.38 317.787C442.992 318.781 442.684 319.553 442.457 320.102H438.082C438.233 319.553 438.437 318.781 438.692 317.787C438.958 316.793 439.204 315.67 439.431 314.42C439.658 313.17 439.786 311.902 439.815 310.614L439.843 309.023H445.298ZM460.315 283.909V313H453.298V290.472H453.128L446.622 294.449V288.369L453.795 283.909H460.315ZM478.778 313.71C476.24 313.71 474.052 313.109 472.215 311.906C470.378 310.694 468.962 308.956 467.968 306.693C466.974 304.42 466.481 301.688 466.491 298.497C466.5 295.306 466.997 292.598 467.982 290.372C468.977 288.137 470.388 286.437 472.215 285.273C474.052 284.098 476.24 283.511 478.778 283.511C481.316 283.511 483.503 284.098 485.34 285.273C487.187 286.437 488.607 288.137 489.602 290.372C490.596 292.607 491.088 295.315 491.079 298.497C491.079 301.698 490.582 304.435 489.587 306.707C488.593 308.98 487.177 310.718 485.34 311.92C483.513 313.114 481.325 313.71 478.778 313.71ZM478.778 307.957C480.293 307.957 481.519 307.186 482.457 305.642C483.394 304.089 483.858 301.707 483.849 298.497C483.849 296.395 483.636 294.662 483.21 293.298C482.783 291.925 482.192 290.902 481.434 290.23C480.676 289.558 479.791 289.222 478.778 289.222C477.272 289.222 476.055 289.984 475.127 291.509C474.199 293.024 473.73 295.353 473.721 298.497C473.711 300.628 473.915 302.394 474.332 303.795C474.758 305.197 475.354 306.243 476.121 306.935C476.888 307.616 477.774 307.957 478.778 307.957ZM494.751 308.17V302.688L506.668 283.909H511.54V291.352H508.714L501.739 302.403V302.631H518.998V308.17H494.751ZM508.799 313V306.494L508.941 304.094V283.909H515.518V313H508.799ZM531.335 313V291.182H538.281V299.307H539.815L545.113 291.182H553.153L545.809 302.105L553.224 313H545.085L540.298 305.756H538.281V313H531.335ZM568.607 305.585L573.948 291.182H579.033L570.837 313H566.377L558.394 291.182H563.465L568.607 305.585ZM561.974 291.182V313H555.397V291.182H561.974ZM575.638 313V291.182H582.13V313H575.638ZM68.7955 361V331.909H75.8267V343.585H87.2898V331.909H94.3068V361H87.2898V349.31H75.8267V361H68.7955ZM107.07 344.253C106.407 344.253 105.848 344.366 105.393 344.594C104.939 344.821 104.598 345.143 104.371 345.56C104.153 345.976 104.044 346.483 104.044 347.08H97.8793C97.8793 345.82 98.1065 344.684 98.5611 343.67C99.0156 342.648 99.6548 341.777 100.479 341.057C101.312 340.328 102.287 339.774 103.405 339.395C104.522 339.007 105.744 338.812 107.07 338.812C109.333 338.812 111.232 339.295 112.766 340.261C114.309 341.227 115.474 342.548 116.26 344.224C117.046 345.891 117.439 347.78 117.439 349.892V350.318C117.439 352.439 117.051 354.338 116.274 356.014C115.498 357.681 114.338 358.997 112.794 359.963C111.26 360.92 109.352 361.398 107.07 361.398C105.251 361.398 103.651 361.052 102.268 360.361C100.895 359.67 99.8205 358.666 99.044 357.349C98.2675 356.033 97.8793 354.438 97.8793 352.562H104.044C104.044 353.178 104.153 353.741 104.371 354.253C104.589 354.755 104.92 355.157 105.365 355.46C105.82 355.754 106.388 355.905 107.07 355.915C108.14 355.905 108.945 355.612 109.484 355.034C110.034 354.456 110.398 353.737 110.578 352.875C110.768 352.013 110.862 351.161 110.862 350.318V349.892C110.862 348.926 110.763 348.017 110.564 347.165C110.375 346.303 110.005 345.602 109.456 345.062C108.916 344.523 108.121 344.253 107.07 344.253ZM112.723 348.259V351.98H105.635V348.259H112.723ZM136.448 339.182V344.494H127.741V361H121.022V339.182H136.448ZM165.386 348.188V351.994H151.636V348.188H165.386ZM158.511 361.412C156.22 361.412 154.25 360.943 152.602 360.006C150.964 359.059 149.7 357.742 148.81 356.057C147.929 354.362 147.489 352.397 147.489 350.162C147.489 347.918 147.929 345.953 148.81 344.267C149.7 342.572 150.964 341.256 152.602 340.318C154.25 339.371 156.22 338.898 158.511 338.898C160.803 338.898 162.768 339.371 164.406 340.318C166.054 341.256 167.318 342.572 168.199 344.267C169.089 345.953 169.534 347.918 169.534 350.162C169.534 352.397 169.089 354.362 168.199 356.057C167.318 357.742 166.054 359.059 164.406 360.006C162.768 360.943 160.803 361.412 158.511 361.412ZM158.554 356.17C159.387 356.17 160.093 355.915 160.67 355.403C161.248 354.892 161.688 354.182 161.991 353.273C162.304 352.364 162.46 351.312 162.46 350.119C162.46 348.907 162.304 347.847 161.991 346.938C161.688 346.028 161.248 345.318 160.67 344.807C160.093 344.295 159.387 344.04 158.554 344.04C157.692 344.04 156.963 344.295 156.366 344.807C155.779 345.318 155.33 346.028 155.017 346.938C154.714 347.847 154.562 348.907 154.562 350.119C154.562 351.312 154.714 352.364 155.017 353.273C155.33 354.182 155.779 354.892 156.366 355.403C156.963 355.915 157.692 356.17 158.554 356.17ZM171.587 367.435V355.645H173.22C173.713 355.399 174.106 354.925 174.399 354.224C174.693 353.514 174.925 352.686 175.095 351.739C175.275 350.782 175.408 349.788 175.493 348.756C175.588 347.714 175.673 346.734 175.749 345.815L176.26 339.182H193.93V355.645H197.339V367.435H190.749V361H178.348V367.435H171.587ZM179.982 355.645H187.453V344.352H182.055L181.942 345.815C181.809 348.164 181.601 350.134 181.317 351.724C181.033 353.315 180.588 354.622 179.982 355.645ZM217.613 348.188V351.994H203.863V348.188H217.613ZM210.738 361.412C208.446 361.412 206.477 360.943 204.829 360.006C203.191 359.059 201.926 357.742 201.036 356.057C200.156 354.362 199.715 352.397 199.715 350.162C199.715 347.918 200.156 345.953 201.036 344.267C201.926 342.572 203.191 341.256 204.829 340.318C206.477 339.371 208.446 338.898 210.738 338.898C213.03 338.898 214.995 339.371 216.633 340.318C218.281 341.256 219.545 342.572 220.425 344.267C221.316 345.953 221.761 347.918 221.761 350.162C221.761 352.397 221.316 354.362 220.425 356.057C219.545 357.742 218.281 359.059 216.633 360.006C214.995 360.943 213.03 361.412 210.738 361.412ZM210.781 356.17C211.614 356.17 212.319 355.915 212.897 355.403C213.475 354.892 213.915 354.182 214.218 353.273C214.531 352.364 214.687 351.312 214.687 350.119C214.687 348.907 214.531 347.847 214.218 346.938C213.915 346.028 213.475 345.318 212.897 344.807C212.319 344.295 211.614 344.04 210.781 344.04C209.919 344.04 209.19 344.295 208.593 344.807C208.006 345.318 207.556 346.028 207.244 346.938C206.941 347.847 206.789 348.907 206.789 350.119C206.789 351.312 206.941 352.364 207.244 353.273C207.556 354.182 208.006 354.892 208.593 355.403C209.19 355.915 209.919 356.17 210.781 356.17ZM225.319 369.182V339.182H232.194V342.918H232.407C232.691 342.255 233.094 341.616 233.614 341C234.145 340.384 234.817 339.883 235.631 339.494C236.455 339.097 237.44 338.898 238.586 338.898C240.101 338.898 241.517 339.295 242.833 340.091C244.159 340.886 245.229 342.113 246.043 343.77C246.858 345.427 247.265 347.539 247.265 350.105C247.265 352.577 246.872 354.646 246.086 356.312C245.309 357.979 244.258 359.229 242.933 360.062C241.616 360.896 240.153 361.312 238.543 361.312C237.445 361.312 236.493 361.133 235.688 360.773C234.883 360.413 234.206 359.939 233.657 359.352C233.117 358.765 232.701 358.135 232.407 357.463H232.265V369.182H225.319ZM232.123 350.091C232.123 351.265 232.279 352.288 232.592 353.159C232.914 354.03 233.373 354.707 233.969 355.19C234.576 355.664 235.3 355.901 236.143 355.901C236.995 355.901 237.719 355.664 238.316 355.19C238.913 354.707 239.362 354.03 239.665 353.159C239.978 352.288 240.134 351.265 240.134 350.091C240.134 348.917 239.978 347.899 239.665 347.037C239.362 346.175 238.913 345.508 238.316 345.034C237.729 344.561 237.004 344.324 236.143 344.324C235.29 344.324 234.566 344.556 233.969 345.02C233.373 345.484 232.914 346.147 232.592 347.009C232.279 347.87 232.123 348.898 232.123 350.091ZM375.124 357.733C374.101 357.733 373.225 357.373 372.496 356.653C371.776 355.934 371.421 355.062 371.43 354.04C371.421 353.036 371.776 352.179 372.496 351.469C373.225 350.749 374.101 350.389 375.124 350.389C376.089 350.389 376.942 350.749 377.68 351.469C378.429 352.179 378.807 353.036 378.817 354.04C378.807 354.722 378.627 355.342 378.277 355.901C377.936 356.459 377.486 356.904 376.928 357.236C376.378 357.567 375.777 357.733 375.124 357.733ZM375.124 343.614C374.101 343.614 373.225 343.254 372.496 342.534C371.776 341.814 371.421 340.943 371.43 339.92C371.421 338.917 371.776 338.06 372.496 337.349C373.225 336.63 374.101 336.27 375.124 336.27C376.089 336.27 376.942 336.63 377.68 337.349C378.429 338.06 378.807 338.917 378.817 339.92C378.807 340.602 378.627 341.223 378.277 341.781C377.936 342.34 377.486 342.785 376.928 343.116C376.378 343.448 375.777 343.614 375.124 343.614ZM403.078 361.398C400.957 361.398 399.072 361.014 397.425 360.247C395.777 359.48 394.475 358.424 393.518 357.08C392.571 355.735 392.079 354.191 392.041 352.449H398.859C398.916 353.519 399.352 354.381 400.166 355.034C400.981 355.678 401.951 356 403.078 356C403.959 356 404.74 355.806 405.422 355.418C406.104 355.029 406.639 354.485 407.027 353.784C407.415 353.074 407.605 352.259 407.595 351.341C407.605 350.403 407.411 349.584 407.013 348.884C406.625 348.183 406.085 347.638 405.393 347.25C404.712 346.852 403.926 346.653 403.036 346.653C402.193 346.644 401.393 346.829 400.635 347.207C399.887 347.586 399.319 348.102 398.93 348.756L392.723 347.591L393.987 331.909H412.652V337.577H399.768L399.101 344.438H399.271C399.754 343.633 400.531 342.97 401.601 342.449C402.68 341.919 403.907 341.653 405.28 341.653C407.022 341.653 408.575 342.061 409.939 342.875C411.312 343.68 412.392 344.797 413.178 346.227C413.973 347.657 414.371 349.295 414.371 351.142C414.371 353.14 413.897 354.911 412.95 356.455C412.013 357.998 410.696 359.21 409.001 360.091C407.316 360.962 405.341 361.398 403.078 361.398ZM424.516 357.023L424.388 358.599C424.275 359.906 424.043 361.18 423.692 362.42C423.352 363.67 422.987 364.793 422.599 365.787C422.21 366.781 421.903 367.553 421.675 368.102H417.3C417.452 367.553 417.656 366.781 417.911 365.787C418.176 364.793 418.423 363.67 418.65 362.42C418.877 361.17 419.005 359.902 419.033 358.614L419.062 357.023H424.516ZM439.907 361.398C437.644 361.398 435.622 361.038 433.842 360.318C432.071 359.589 430.679 358.604 429.665 357.364C428.662 356.114 428.16 354.703 428.16 353.131C428.16 351.928 428.449 350.825 429.026 349.821C429.604 348.817 430.385 347.984 431.37 347.321C432.364 346.649 433.472 346.218 434.694 346.028V345.801C433.094 345.508 431.782 344.764 430.759 343.571C429.746 342.378 429.239 340.981 429.239 339.381C429.239 337.866 429.699 336.516 430.617 335.332C431.545 334.149 432.809 333.216 434.41 332.534C436.02 331.852 437.852 331.511 439.907 331.511C441.962 331.511 443.79 331.852 445.39 332.534C447 333.216 448.264 334.149 449.183 335.332C450.111 336.516 450.575 337.866 450.575 339.381C450.575 340.991 450.058 342.392 449.026 343.585C448.004 344.769 446.701 345.508 445.12 345.801V346.028C446.332 346.218 447.431 346.649 448.415 347.321C449.41 347.984 450.196 348.817 450.773 349.821C451.361 350.825 451.654 351.928 451.654 353.131C451.654 354.703 451.147 356.114 450.134 357.364C449.121 358.604 447.729 359.589 445.958 360.318C444.197 361.038 442.18 361.398 439.907 361.398ZM439.907 356.412C440.769 356.412 441.526 356.251 442.18 355.929C442.833 355.598 443.344 355.138 443.714 354.551C444.093 353.964 444.282 353.301 444.282 352.562C444.282 351.805 444.093 351.133 443.714 350.545C443.335 349.958 442.814 349.499 442.151 349.168C441.498 348.827 440.75 348.656 439.907 348.656C439.074 348.656 438.326 348.827 437.663 349.168C437 349.499 436.479 349.958 436.1 350.545C435.721 351.133 435.532 351.805 435.532 352.562C435.532 353.301 435.717 353.964 436.086 354.551C436.465 355.129 436.981 355.583 437.634 355.915C438.297 356.246 439.055 356.412 439.907 356.412ZM439.907 343.699C440.646 343.699 441.299 343.547 441.867 343.244C442.445 342.941 442.895 342.52 443.217 341.98C443.548 341.44 443.714 340.83 443.714 340.148C443.714 339.466 443.548 338.865 443.217 338.344C442.895 337.823 442.45 337.416 441.881 337.122C441.313 336.819 440.655 336.668 439.907 336.668C439.168 336.668 438.51 336.819 437.933 337.122C437.355 337.416 436.905 337.823 436.583 338.344C436.261 338.865 436.1 339.466 436.1 340.148C436.1 340.83 436.261 341.44 436.583 341.98C436.915 342.51 437.369 342.932 437.947 343.244C438.524 343.547 439.178 343.699 439.907 343.699ZM466.64 361.398C464.424 361.398 462.459 361.019 460.745 360.261C459.04 359.494 457.696 358.438 456.711 357.094C455.726 355.749 455.224 354.201 455.205 352.449H462.279C462.308 353.083 462.511 353.647 462.89 354.139C463.269 354.622 463.785 355.001 464.438 355.276C465.092 355.55 465.835 355.688 466.668 355.688C467.502 355.688 468.236 355.541 468.87 355.247C469.514 354.944 470.016 354.532 470.376 354.011C470.736 353.481 470.911 352.875 470.901 352.193C470.911 351.511 470.717 350.905 470.319 350.375C469.921 349.845 469.358 349.433 468.629 349.139C467.909 348.846 467.057 348.699 466.072 348.699H463.245V343.699H466.072C466.933 343.699 467.691 343.557 468.344 343.273C469.007 342.989 469.523 342.591 469.893 342.08C470.262 341.559 470.442 340.962 470.433 340.29C470.442 339.636 470.286 339.063 469.964 338.571C469.651 338.069 469.211 337.681 468.643 337.406C468.084 337.132 467.435 336.994 466.697 336.994C465.92 336.994 465.215 337.132 464.58 337.406C463.955 337.681 463.458 338.069 463.089 338.571C462.719 339.073 462.525 339.655 462.506 340.318H455.788C455.807 338.585 456.29 337.061 457.237 335.744C458.183 334.419 459.471 333.382 461.1 332.634C462.738 331.885 464.604 331.511 466.697 331.511C468.78 331.511 470.612 331.876 472.194 332.605C473.775 333.334 475.006 334.329 475.887 335.588C476.768 336.838 477.208 338.254 477.208 339.835C477.218 341.473 476.683 342.823 475.603 343.884C474.533 344.944 473.155 345.598 471.469 345.844V346.071C473.723 346.336 475.423 347.065 476.569 348.259C477.724 349.452 478.297 350.943 478.288 352.733C478.288 354.419 477.79 355.915 476.796 357.222C475.811 358.519 474.438 359.542 472.677 360.29C470.925 361.028 468.913 361.398 466.64 361.398ZM482.254 361V355.943L492.865 346.653C493.661 345.934 494.338 345.276 494.896 344.679C495.455 344.073 495.881 343.467 496.175 342.861C496.468 342.245 496.615 341.578 496.615 340.858C496.615 340.053 496.44 339.366 496.089 338.798C495.739 338.221 495.256 337.776 494.641 337.463C494.025 337.151 493.32 336.994 492.524 336.994C491.719 336.994 491.014 337.16 490.408 337.491C489.802 337.813 489.328 338.282 488.987 338.898C488.656 339.513 488.49 340.261 488.49 341.142H481.828C481.828 339.163 482.273 337.454 483.163 336.014C484.054 334.575 485.304 333.467 486.913 332.69C488.533 331.904 490.412 331.511 492.553 331.511C494.759 331.511 496.677 331.881 498.305 332.619C499.934 333.358 501.194 334.39 502.084 335.716C502.983 337.032 503.433 338.562 503.433 340.304C503.433 341.412 503.211 342.51 502.766 343.599C502.321 344.688 501.52 345.891 500.365 347.207C499.219 348.524 497.59 350.1 495.479 351.938L491.999 355.148V355.332H503.788V361H482.254ZM536.114 339.182V356.469H539.737V368.003H533.018V361H516.413V339.182H522.989V355.688H529.637V339.182H536.114ZM549.126 361.369C547.734 361.369 546.498 361.137 545.418 360.673C544.348 360.2 543.501 359.49 542.876 358.543C542.26 357.586 541.952 356.388 541.952 354.949C541.952 353.737 542.165 352.714 542.592 351.881C543.018 351.047 543.605 350.37 544.353 349.849C545.101 349.329 545.963 348.936 546.938 348.67C547.914 348.396 548.955 348.211 550.063 348.116C551.304 348.003 552.303 347.884 553.06 347.761C553.818 347.629 554.367 347.444 554.708 347.207C555.058 346.961 555.234 346.616 555.234 346.17V346.099C555.234 345.37 554.983 344.807 554.481 344.409C553.979 344.011 553.302 343.812 552.45 343.812C551.531 343.812 550.792 344.011 550.234 344.409C549.675 344.807 549.32 345.356 549.168 346.057L542.762 345.83C542.951 344.504 543.439 343.32 544.225 342.278C545.021 341.227 546.11 340.403 547.492 339.807C548.884 339.201 550.556 338.898 552.506 338.898C553.898 338.898 555.182 339.063 556.356 339.395C557.53 339.717 558.553 340.19 559.424 340.815C560.295 341.431 560.968 342.188 561.441 343.088C561.924 343.988 562.165 345.015 562.165 346.17V361H555.631V357.96H555.461C555.073 358.699 554.576 359.324 553.969 359.835C553.373 360.347 552.667 360.73 551.853 360.986C551.048 361.241 550.139 361.369 549.126 361.369ZM551.271 356.824C552.019 356.824 552.691 356.672 553.288 356.369C553.894 356.066 554.377 355.65 554.737 355.119C555.096 354.58 555.276 353.955 555.276 353.244V351.17C555.077 351.275 554.836 351.369 554.552 351.455C554.277 351.54 553.974 351.62 553.643 351.696C553.311 351.772 552.97 351.838 552.62 351.895C552.27 351.952 551.933 352.004 551.612 352.051C550.958 352.155 550.399 352.316 549.935 352.534C549.481 352.752 549.13 353.036 548.884 353.386C548.647 353.727 548.529 354.134 548.529 354.608C548.529 355.328 548.785 355.877 549.296 356.256C549.817 356.634 550.475 356.824 551.271 356.824ZM581.839 339.182V344.494H573.131V361H566.413V339.182H581.839Z" fill="white"/>
<defs>
<filter id="filter0_ddii_403_100" x="0" y="32" width="843" height="481.374" filterUnits="userSpaceOnUse" color-interpolation-filters="sRGB">
<feFlood flood-opacity="0" result="BackgroundImageFix"/>
<feColorMatrix in="SourceAlpha" type="matrix" values="0 0 0 0 0 0 0 0 0 0 0 0 0 0 0 0 0 0 127 0" result="hardAlpha"/>
<feMorphology radius="5" operator="dilate" in="SourceAlpha" result="effect1_dropShadow_403_100"/>
<feOffset dx="-10" dy="-10"/>
<feGaussianBlur stdDeviation="2.5"/>
<feComposite in2="hardAlpha" operator="out"/>
<feColorMatrix type="matrix" values="0 0 0 0 0.133333 0 0 0 0 0.0117647 0 0 0 0 0.396078 0 0 0 0.25 0"/>
<feBlend mode="normal" in2="BackgroundImageFix" result="effect1_dropShadow_403_100"/>
<feColorMatrix in="SourceAlpha" type="matrix" values="0 0 0 0 0 0 0 0 0 0 0 0 0 0 0 0 0 0 127 0" result="hardAlpha"/>
<feMorphology radius="5" operator="dilate" in="SourceAlpha" result="effect2_dropShadow_403_100"/>
<feOffset dx="10" dy="10"/>
<feGaussianBlur stdDeviation="2.5"/>
<feComposite in2="hardAlpha" operator="out"/>
<feColorMatrix type="matrix" values="0 0 0 0 0.133941 0 0 0 0 0.0133056 0 0 0 0 0.395808 0 0 0 0.25 0"/>
<feBlend mode="normal" in2="effect1_dropShadow_403_100" result="effect2_dropShadow_403_100"/>
<feBlend mode="normal" in="SourceGraphic" in2="effect2_dropShadow_403_100" result="shape"/>
<feColorMatrix in="SourceAlpha" type="matrix" values="0 0 0 0 0 0 0 0 0 0 0 0 0 0 0 0 0 0 127 0" result="hardAlpha"/>
<feMorphology radius="5" operator="erode" in="SourceAlpha" result="effect3_innerShadow_403_100"/>
<feOffset dx="-10" dy="-10"/>
<feGaussianBlur stdDeviation="2.5"/>
<feComposite in2="hardAlpha" operator="arithmetic" k2="-1" k3="1"/>
<feColorMatrix type="matrix" values="0 0 0 0 0.509804 0 0 0 0 0.337255 0 0 0 0 0.721569 0 0 0 0.16 0"/>
<feBlend mode="normal" in2="shape" result="effect3_innerShadow_403_100"/>
<feColorMatrix in="SourceAlpha" type="matrix" values="0 0 0 0 0 0 0 0 0 0 0 0 0 0 0 0 0 0 127 0" result="hardAlpha"/>
<feMorphology radius="5" operator="erode" in="SourceAlpha" result="effect4_innerShadow_403_100"/>
<feOffset dx="10" dy="10"/>
<feGaussianBlur stdDeviation="2.5"/>
<feComposite in2="hardAlpha" operator="arithmetic" k2="-1" k3="1"/>
<feColorMatrix type="matrix" values="0 0 0 0 0.505882 0 0 0 0 0.329412 0 0 0 0 0.72549 0 0 0 0.16 0"/>
<feBlend mode="normal" in2="effect3_innerShadow_403_100" result="effect4_innerShadow_403_100"/>
</filter>
</defs>
</svg>
