<svg width="851" height="515" viewBox="0 0 851 515" fill="none" xmlns="http://www.w3.org/2000/svg">
<g filter="url(#filter0_ddii_403_94)">
<rect x="20" y="52" width="805" height="443" rx="60" fill="#7E40D0" fill-opacity="0.8" shape-rendering="crispEdges"/>
<rect x="20.5" y="52.5" width="804" height="442" rx="59.5" stroke="#C53D41" shape-rendering="crispEdges"/>
</g>
<path d="M285.094 98.6193V92.9091H309.682V98.6193H300.861V122H293.929V98.6193H285.094ZM321.468 105.253C320.805 105.253 320.246 105.366 319.792 105.594C319.337 105.821 318.996 106.143 318.769 106.56C318.551 106.976 318.442 107.483 318.442 108.08H312.278C312.278 106.82 312.505 105.684 312.96 104.67C313.414 103.648 314.053 102.777 314.877 102.057C315.71 101.328 316.686 100.774 317.803 100.395C318.921 100.007 320.142 99.8125 321.468 99.8125C323.731 99.8125 325.63 100.295 327.164 101.261C328.708 102.227 329.872 103.548 330.658 105.224C331.444 106.891 331.837 108.78 331.837 110.892V111.318C331.837 113.439 331.449 115.338 330.673 117.014C329.896 118.681 328.736 119.997 327.192 120.963C325.658 121.92 323.75 122.398 321.468 122.398C319.65 122.398 318.049 122.052 316.667 121.361C315.294 120.67 314.219 119.666 313.442 118.349C312.666 117.033 312.278 115.438 312.278 113.562H318.442C318.442 114.178 318.551 114.741 318.769 115.253C318.987 115.755 319.318 116.157 319.763 116.46C320.218 116.754 320.786 116.905 321.468 116.915C322.538 116.905 323.343 116.612 323.883 116.034C324.432 115.456 324.797 114.737 324.977 113.875C325.166 113.013 325.261 112.161 325.261 111.318V110.892C325.261 109.926 325.161 109.017 324.962 108.165C324.773 107.303 324.404 106.602 323.854 106.062C323.315 105.523 322.519 105.253 321.468 105.253ZM327.121 109.259V112.98H320.033V109.259H327.121ZM350.804 108.378V113.676H339.611V108.378H350.804ZM341.997 100.182V122H335.42V100.182H341.997ZM354.994 100.182V122H348.46V100.182H354.994ZM374.636 100.182V105.494H365.928V122H359.21V100.182H374.636ZM386.273 105.253C385.61 105.253 385.051 105.366 384.597 105.594C384.142 105.821 383.801 106.143 383.574 106.56C383.356 106.976 383.247 107.483 383.247 108.08H377.082C377.082 106.82 377.31 105.684 377.764 104.67C378.219 103.648 378.858 102.777 379.682 102.057C380.515 101.328 381.491 100.774 382.608 100.395C383.725 100.007 384.947 99.8125 386.273 99.8125C388.536 99.8125 390.435 100.295 391.969 101.261C393.512 102.227 394.677 103.548 395.463 105.224C396.249 106.891 396.642 108.78 396.642 110.892V111.318C396.642 113.439 396.254 115.338 395.477 117.014C394.701 118.681 393.541 119.997 391.997 120.963C390.463 121.92 388.555 122.398 386.273 122.398C384.455 122.398 382.854 122.052 381.472 121.361C380.098 120.67 379.024 119.666 378.247 118.349C377.471 117.033 377.082 115.438 377.082 113.562H383.247C383.247 114.178 383.356 114.741 383.574 115.253C383.792 115.755 384.123 116.157 384.568 116.46C385.023 116.754 385.591 116.905 386.273 116.915C387.343 116.905 388.148 116.612 388.688 116.034C389.237 115.456 389.601 114.737 389.781 113.875C389.971 113.013 390.065 112.161 390.065 111.318V110.892C390.065 109.926 389.966 109.017 389.767 108.165C389.578 107.303 389.208 106.602 388.659 106.062C388.119 105.523 387.324 105.253 386.273 105.253ZM391.926 109.259V112.98H384.838V109.259H391.926ZM400.225 130.182V100.182H407.1V103.918H407.313C407.597 103.255 408 102.616 408.521 102C409.051 101.384 409.723 100.883 410.538 100.494C411.362 100.097 412.346 99.8977 413.492 99.8977C415.007 99.8977 416.423 100.295 417.739 101.091C419.065 101.886 420.135 103.113 420.95 104.77C421.764 106.427 422.171 108.539 422.171 111.105C422.171 113.577 421.778 115.646 420.992 117.312C420.216 118.979 419.165 120.229 417.839 121.062C416.522 121.896 415.059 122.312 413.45 122.312C412.351 122.312 411.399 122.133 410.594 121.773C409.79 121.413 409.112 120.939 408.563 120.352C408.023 119.765 407.607 119.135 407.313 118.463H407.171V130.182H400.225ZM407.029 111.091C407.029 112.265 407.185 113.288 407.498 114.159C407.82 115.03 408.279 115.707 408.876 116.19C409.482 116.664 410.206 116.901 411.049 116.901C411.901 116.901 412.626 116.664 413.222 116.19C413.819 115.707 414.269 115.03 414.572 114.159C414.884 113.288 415.04 112.265 415.04 111.091C415.04 109.917 414.884 108.899 414.572 108.037C414.269 107.175 413.819 106.508 413.222 106.034C412.635 105.561 411.911 105.324 411.049 105.324C410.197 105.324 409.472 105.556 408.876 106.02C408.279 106.484 407.82 107.147 407.498 108.009C407.185 108.87 407.029 109.898 407.029 111.091ZM432.388 113.009L439.362 100.182H446.038V122H439.462V109.131L432.501 122H425.811V100.182H432.388V113.009ZM457.036 113.009L464.011 100.182H470.687V122H464.11V109.131L457.15 122H450.46V100.182H457.036V113.009ZM463.386 92.4545H467.96C467.95 94.2348 467.278 95.6648 465.942 96.7443C464.617 97.8239 462.817 98.3636 460.545 98.3636C458.272 98.3636 456.468 97.8239 455.133 96.7443C453.807 95.6648 453.149 94.2348 453.158 92.4545H457.69C457.68 93.0795 457.893 93.6477 458.329 94.1591C458.764 94.6705 459.503 94.9261 460.545 94.9261C461.558 94.9261 462.282 94.6752 462.718 94.1733C463.154 93.6714 463.376 93.0985 463.386 92.4545ZM490.491 108.378V113.676H479.298V108.378H490.491ZM481.685 100.182V122H475.108V100.182H481.685ZM494.682 100.182V122H488.148V100.182H494.682ZM507.491 122V100.182H516.908C519.721 100.182 521.937 100.688 523.556 101.702C525.185 102.705 525.999 104.178 525.999 106.119C525.999 107.246 525.54 108.217 524.621 109.031C523.712 109.836 522.42 110.381 520.744 110.665C522.221 110.741 523.447 111.034 524.423 111.545C525.398 112.057 526.127 112.705 526.61 113.491C527.093 114.277 527.335 115.116 527.335 116.006C527.335 117.294 526.989 118.383 526.298 119.273C525.606 120.163 524.593 120.84 523.258 121.304C521.932 121.768 520.303 122 518.371 122H507.491ZM513.954 116.972H518.371C519.11 116.972 519.688 116.796 520.104 116.446C520.531 116.096 520.744 115.613 520.744 114.997C520.744 114.334 520.531 113.813 520.104 113.435C519.688 113.056 519.11 112.866 518.371 112.866H513.954V116.972ZM513.954 109.102H517.093C517.595 109.102 518.026 109.027 518.386 108.875C518.746 108.723 519.02 108.506 519.21 108.222C519.408 107.937 519.508 107.597 519.508 107.199C519.508 106.621 519.276 106.167 518.812 105.835C518.357 105.504 517.723 105.338 516.908 105.338H513.954V109.102ZM536.923 122.369C535.531 122.369 534.295 122.137 533.215 121.673C532.145 121.2 531.298 120.49 530.673 119.543C530.057 118.586 529.749 117.388 529.749 115.949C529.749 114.737 529.962 113.714 530.388 112.881C530.815 112.047 531.402 111.37 532.15 110.849C532.898 110.329 533.76 109.936 534.735 109.67C535.71 109.396 536.752 109.211 537.86 109.116C539.101 109.003 540.1 108.884 540.857 108.761C541.615 108.629 542.164 108.444 542.505 108.207C542.855 107.961 543.031 107.616 543.031 107.17V107.099C543.031 106.37 542.78 105.807 542.278 105.409C541.776 105.011 541.099 104.812 540.246 104.812C539.328 104.812 538.589 105.011 538.031 105.409C537.472 105.807 537.117 106.356 536.965 107.057L530.559 106.83C530.748 105.504 531.236 104.32 532.022 103.278C532.817 102.227 533.906 101.403 535.289 100.807C536.681 100.201 538.353 99.8977 540.303 99.8977C541.695 99.8977 542.978 100.063 544.153 100.395C545.327 100.717 546.35 101.19 547.221 101.815C548.092 102.431 548.764 103.188 549.238 104.088C549.721 104.988 549.962 106.015 549.962 107.17V122H543.428V118.96H543.258C542.87 119.699 542.372 120.324 541.766 120.835C541.17 121.347 540.464 121.73 539.65 121.986C538.845 122.241 537.936 122.369 536.923 122.369ZM539.067 117.824C539.816 117.824 540.488 117.672 541.085 117.369C541.691 117.066 542.174 116.65 542.533 116.119C542.893 115.58 543.073 114.955 543.073 114.244V112.17C542.874 112.275 542.633 112.369 542.349 112.455C542.074 112.54 541.771 112.62 541.44 112.696C541.108 112.772 540.767 112.838 540.417 112.895C540.067 112.952 539.73 113.004 539.408 113.051C538.755 113.155 538.196 113.316 537.732 113.534C537.278 113.752 536.927 114.036 536.681 114.386C536.444 114.727 536.326 115.134 536.326 115.608C536.326 116.328 536.582 116.877 537.093 117.256C537.614 117.634 538.272 117.824 539.067 117.824ZM569.593 108.378V113.676H558.4V108.378H569.593ZM560.786 100.182V122H554.21V100.182H560.786ZM573.783 100.182V122H567.249V100.182H573.783ZM78.8438 146.619V140.909H103.432V146.619H94.6108V170H87.679V146.619H78.8438ZM110.048 170.369C108.656 170.369 107.42 170.137 106.34 169.673C105.27 169.2 104.423 168.49 103.798 167.543C103.182 166.586 102.874 165.388 102.874 163.949C102.874 162.737 103.087 161.714 103.513 160.881C103.94 160.047 104.527 159.37 105.275 158.849C106.023 158.329 106.885 157.936 107.86 157.67C108.835 157.396 109.877 157.211 110.985 157.116C112.226 157.003 113.225 156.884 113.982 156.761C114.74 156.629 115.289 156.444 115.63 156.207C115.98 155.961 116.156 155.616 116.156 155.17V155.099C116.156 154.37 115.905 153.807 115.403 153.409C114.901 153.011 114.224 152.812 113.371 152.812C112.453 152.812 111.714 153.011 111.156 153.409C110.597 153.807 110.242 154.356 110.09 155.057L103.684 154.83C103.873 153.504 104.361 152.32 105.147 151.278C105.942 150.227 107.031 149.403 108.414 148.807C109.806 148.201 111.478 147.898 113.428 147.898C114.82 147.898 116.103 148.063 117.278 148.395C118.452 148.717 119.475 149.19 120.346 149.815C121.217 150.431 121.889 151.188 122.363 152.088C122.846 152.988 123.087 154.015 123.087 155.17V170H116.553V166.96H116.383C115.995 167.699 115.497 168.324 114.891 168.835C114.295 169.347 113.589 169.73 112.775 169.986C111.97 170.241 111.061 170.369 110.048 170.369ZM112.192 165.824C112.941 165.824 113.613 165.672 114.21 165.369C114.816 165.066 115.299 164.65 115.658 164.119C116.018 163.58 116.198 162.955 116.198 162.244V160.17C115.999 160.275 115.758 160.369 115.474 160.455C115.199 160.54 114.896 160.62 114.565 160.696C114.233 160.772 113.892 160.838 113.542 160.895C113.192 160.952 112.855 161.004 112.533 161.051C111.88 161.155 111.321 161.316 110.857 161.534C110.403 161.752 110.052 162.036 109.806 162.386C109.569 162.727 109.451 163.134 109.451 163.608C109.451 164.328 109.707 164.877 110.218 165.256C110.739 165.634 111.397 165.824 112.192 165.824ZM125.406 153.494V148.182H145.861V153.494H138.886V170H132.295V153.494H125.406ZM154.657 170.369C153.265 170.369 152.029 170.137 150.95 169.673C149.879 169.2 149.032 168.49 148.407 167.543C147.791 166.586 147.484 165.388 147.484 163.949C147.484 162.737 147.697 161.714 148.123 160.881C148.549 160.047 149.136 159.37 149.884 158.849C150.632 158.329 151.494 157.936 152.469 157.67C153.445 157.396 154.487 157.211 155.594 157.116C156.835 157.003 157.834 156.884 158.592 156.761C159.349 156.629 159.898 156.444 160.239 156.207C160.59 155.961 160.765 155.616 160.765 155.17V155.099C160.765 154.37 160.514 153.807 160.012 153.409C159.51 153.011 158.833 152.812 157.981 152.812C157.062 152.812 156.324 153.011 155.765 153.409C155.206 153.807 154.851 154.356 154.7 155.057L148.293 154.83C148.483 153.504 148.97 152.32 149.756 151.278C150.552 150.227 151.641 149.403 153.023 148.807C154.415 148.201 156.087 147.898 158.038 147.898C159.43 147.898 160.713 148.063 161.887 148.395C163.061 148.717 164.084 149.19 164.955 149.815C165.826 150.431 166.499 151.188 166.972 152.088C167.455 152.988 167.697 154.015 167.697 155.17V170H161.163V166.96H160.992C160.604 167.699 160.107 168.324 159.501 168.835C158.904 169.347 158.199 169.73 157.384 169.986C156.579 170.241 155.67 170.369 154.657 170.369ZM156.802 165.824C157.55 165.824 158.222 165.672 158.819 165.369C159.425 165.066 159.908 164.65 160.268 164.119C160.628 163.58 160.808 162.955 160.808 162.244V160.17C160.609 160.275 160.367 160.369 160.083 160.455C159.808 160.54 159.505 160.62 159.174 160.696C158.843 160.772 158.502 160.838 158.151 160.895C157.801 160.952 157.465 161.004 157.143 161.051C156.489 161.155 155.931 161.316 155.467 161.534C155.012 161.752 154.662 162.036 154.415 162.386C154.179 162.727 154.06 163.134 154.06 163.608C154.06 164.328 154.316 164.877 154.827 165.256C155.348 165.634 156.006 165.824 156.802 165.824ZM177.853 148.182L181.447 155.369L185.168 148.182H192.171L186.077 159.091L192.398 170H185.452L181.447 162.756L177.54 170H170.495L176.83 159.091L170.808 148.182H177.853ZM209.845 148.182L213.439 155.369L217.161 148.182H224.163L218.07 159.091L224.391 170H217.445L213.439 162.756L209.533 170H202.487L208.822 159.091L202.8 148.182H209.845ZM225.587 148.182H232.548L236.283 162.77L239.82 148.182H246.724L239.423 169.915V178.182H232.888V169.915L225.587 148.182ZM268.425 148.182V170H261.891V148.182H268.425ZM265.115 157.486V162.798C264.746 162.988 264.225 163.172 263.553 163.352C262.89 163.523 262.189 163.665 261.45 163.778C260.721 163.892 260.072 163.949 259.504 163.949C256.152 163.949 253.524 163.31 251.621 162.031C249.727 160.743 248.78 158.651 248.78 155.753V148.168H255.271V155.753C255.271 156.501 255.39 157.083 255.626 157.5C255.873 157.917 256.299 158.21 256.905 158.381C257.52 158.551 258.387 158.636 259.504 158.636C260.357 158.636 261.228 158.542 262.118 158.352C263.018 158.153 264.017 157.865 265.115 157.486ZM379.678 166.733C378.656 166.733 377.78 166.373 377.05 165.653C376.331 164.934 375.976 164.062 375.985 163.04C375.976 162.036 376.331 161.179 377.05 160.469C377.78 159.749 378.656 159.389 379.678 159.389C380.644 159.389 381.496 159.749 382.235 160.469C382.983 161.179 383.362 162.036 383.371 163.04C383.362 163.722 383.182 164.342 382.832 164.901C382.491 165.459 382.041 165.904 381.482 166.236C380.933 166.567 380.332 166.733 379.678 166.733ZM379.678 152.614C378.656 152.614 377.78 152.254 377.05 151.534C376.331 150.814 375.976 149.943 375.985 148.92C375.976 147.917 376.331 147.06 377.05 146.349C377.78 145.63 378.656 145.27 379.678 145.27C380.644 145.27 381.496 145.63 382.235 146.349C382.983 147.06 383.362 147.917 383.371 148.92C383.362 149.602 383.182 150.223 382.832 150.781C382.491 151.34 382.041 151.785 381.482 152.116C380.933 152.448 380.332 152.614 379.678 152.614ZM407.86 170.398C405.597 170.398 403.575 170.038 401.795 169.318C400.024 168.589 398.632 167.604 397.619 166.364C396.615 165.114 396.113 163.703 396.113 162.131C396.113 160.928 396.402 159.825 396.979 158.821C397.557 157.817 398.338 156.984 399.323 156.321C400.317 155.649 401.425 155.218 402.647 155.028V154.801C401.047 154.508 399.735 153.764 398.712 152.571C397.699 151.378 397.192 149.981 397.192 148.381C397.192 146.866 397.652 145.516 398.57 144.332C399.498 143.149 400.763 142.216 402.363 141.534C403.973 140.852 405.805 140.511 407.86 140.511C409.915 140.511 411.743 140.852 413.343 141.534C414.953 142.216 416.217 143.149 417.136 144.332C418.064 145.516 418.528 146.866 418.528 148.381C418.528 149.991 418.012 151.392 416.979 152.585C415.957 153.769 414.655 154.508 413.073 154.801V155.028C414.285 155.218 415.384 155.649 416.369 156.321C417.363 156.984 418.149 157.817 418.727 158.821C419.314 159.825 419.607 160.928 419.607 162.131C419.607 163.703 419.101 165.114 418.087 166.364C417.074 167.604 415.682 168.589 413.911 169.318C412.15 170.038 410.133 170.398 407.86 170.398ZM407.86 165.412C408.722 165.412 409.479 165.251 410.133 164.929C410.786 164.598 411.298 164.138 411.667 163.551C412.046 162.964 412.235 162.301 412.235 161.562C412.235 160.805 412.046 160.133 411.667 159.545C411.288 158.958 410.767 158.499 410.104 158.168C409.451 157.827 408.703 157.656 407.86 157.656C407.027 157.656 406.279 157.827 405.616 158.168C404.953 158.499 404.432 158.958 404.053 159.545C403.674 160.133 403.485 160.805 403.485 161.562C403.485 162.301 403.67 162.964 404.039 163.551C404.418 164.129 404.934 164.583 405.587 164.915C406.25 165.246 407.008 165.412 407.86 165.412ZM407.86 152.699C408.599 152.699 409.252 152.547 409.82 152.244C410.398 151.941 410.848 151.52 411.17 150.98C411.501 150.44 411.667 149.83 411.667 149.148C411.667 148.466 411.501 147.865 411.17 147.344C410.848 146.823 410.403 146.416 409.835 146.122C409.266 145.819 408.608 145.668 407.86 145.668C407.121 145.668 406.463 145.819 405.886 146.122C405.308 146.416 404.858 146.823 404.536 147.344C404.214 147.865 404.053 148.466 404.053 149.148C404.053 149.83 404.214 150.44 404.536 150.98C404.868 151.51 405.322 151.932 405.9 152.244C406.478 152.547 407.131 152.699 407.86 152.699ZM426.67 170.412C425.648 170.412 424.772 170.052 424.043 169.332C423.323 168.613 422.968 167.741 422.977 166.719C422.968 165.715 423.323 164.858 424.043 164.148C424.772 163.428 425.648 163.068 426.67 163.068C427.636 163.068 428.489 163.428 429.227 164.148C429.975 164.858 430.354 165.715 430.364 166.719C430.354 167.401 430.174 168.021 429.824 168.58C429.483 169.138 429.033 169.583 428.474 169.915C427.925 170.246 427.324 170.412 426.67 170.412ZM434.881 170L446.614 146.761V146.577H432.892V140.909H453.886V146.619L442.111 170H434.881ZM479.607 162.585L484.948 148.182H490.033L481.837 170H477.377L469.394 148.182H474.465L479.607 162.585ZM472.974 148.182V170H466.397V148.182H472.974ZM486.638 170V148.182H493.13V170H486.638ZM510.8 139.545L501.425 174.375H495.502L504.877 139.545H510.8ZM523.574 170.412C521.273 170.412 519.298 169.938 517.651 168.991C516.012 168.045 514.753 166.728 513.872 165.043C512.991 163.348 512.551 161.387 512.551 159.162C512.551 156.927 512.991 154.967 513.872 153.281C514.762 151.586 516.027 150.265 517.665 149.318C519.313 148.371 521.277 147.898 523.56 147.898C525.577 147.898 527.333 148.262 528.83 148.991C530.335 149.721 531.509 150.753 532.352 152.088C533.205 153.414 533.654 154.972 533.702 156.761H527.21C527.078 155.644 526.699 154.768 526.074 154.134C525.458 153.499 524.653 153.182 523.659 153.182C522.854 153.182 522.149 153.409 521.543 153.864C520.937 154.309 520.463 154.972 520.122 155.852C519.791 156.723 519.625 157.803 519.625 159.091C519.625 160.379 519.791 161.468 520.122 162.358C520.463 163.239 520.937 163.906 521.543 164.361C522.149 164.806 522.854 165.028 523.659 165.028C524.303 165.028 524.871 164.891 525.364 164.616C525.866 164.342 526.277 163.939 526.599 163.409C526.921 162.869 527.125 162.216 527.21 161.449H533.702C533.635 163.248 533.186 164.82 532.352 166.165C531.528 167.509 530.368 168.556 528.872 169.304C527.385 170.043 525.619 170.412 523.574 170.412ZM536.731 155.455V152.017L543.734 146.605C544.217 146.226 544.643 145.881 545.012 145.568C545.381 145.246 545.67 144.92 545.879 144.588C546.096 144.257 546.205 143.883 546.205 143.466C546.205 142.841 545.94 142.367 545.41 142.045C544.889 141.714 544.259 141.548 543.521 141.548C542.725 141.548 542.086 141.733 541.603 142.102C541.12 142.472 540.879 143.03 540.879 143.778H536.29C536.29 141.884 536.972 140.412 538.336 139.361C539.709 138.31 541.456 137.784 543.577 137.784C545.036 137.784 546.3 138.035 547.37 138.537C548.45 139.039 549.283 139.716 549.87 140.568C550.457 141.42 550.751 142.367 550.751 143.409C550.751 144.261 550.571 145.052 550.211 145.781C549.861 146.51 549.316 147.216 548.577 147.898C547.848 148.58 546.911 149.271 545.765 149.972L543.606 151.392V151.548H550.85V155.455H536.731ZM78.8438 194.619V188.909H103.432V194.619H94.6108V218H87.679V194.619H78.8438ZM113.901 218.412C111.618 218.412 109.649 217.962 107.991 217.062C106.344 216.153 105.075 214.861 104.185 213.185C103.304 211.499 102.864 209.496 102.864 207.176C102.864 204.922 103.309 202.953 104.199 201.267C105.089 199.572 106.344 198.256 107.963 197.318C109.582 196.371 111.491 195.898 113.688 195.898C115.241 195.898 116.661 196.139 117.949 196.622C119.237 197.105 120.349 197.82 121.287 198.767C122.224 199.714 122.954 200.884 123.474 202.276C123.995 203.658 124.256 205.244 124.256 207.034V208.767H105.293V204.733H117.793C117.783 203.994 117.608 203.336 117.267 202.759C116.926 202.181 116.457 201.731 115.861 201.409C115.274 201.078 114.597 200.912 113.83 200.912C113.053 200.912 112.357 201.087 111.741 201.438C111.126 201.778 110.638 202.247 110.278 202.844C109.919 203.431 109.729 204.098 109.71 204.847V208.952C109.71 209.842 109.885 210.623 110.236 211.295C110.586 211.958 111.083 212.474 111.727 212.844C112.371 213.213 113.138 213.398 114.028 213.398C114.644 213.398 115.203 213.312 115.705 213.142C116.206 212.972 116.637 212.721 116.997 212.389C117.357 212.058 117.627 211.651 117.807 211.168L124.185 211.352C123.92 212.782 123.337 214.027 122.438 215.088C121.547 216.139 120.378 216.958 118.929 217.545C117.48 218.123 115.804 218.412 113.901 218.412ZM141.013 210.585L146.354 196.182H151.44L143.244 218H138.783L130.8 196.182H135.871L141.013 210.585ZM134.38 196.182V218H127.803V196.182H134.38ZM148.045 218V196.182H154.536V218H148.045ZM158.741 218V196.182H178.442V218H171.866V201.494H165.232V218H158.741ZM193.041 218.412C190.759 218.412 188.789 217.962 187.132 217.062C185.484 216.153 184.215 214.861 183.325 213.185C182.445 211.499 182.004 209.496 182.004 207.176C182.004 204.922 182.449 202.953 183.339 201.267C184.23 199.572 185.484 198.256 187.104 197.318C188.723 196.371 190.631 195.898 192.828 195.898C194.381 195.898 195.802 196.139 197.089 196.622C198.377 197.105 199.49 197.82 200.428 198.767C201.365 199.714 202.094 200.884 202.615 202.276C203.136 203.658 203.396 205.244 203.396 207.034V208.767H184.433V204.733H196.933C196.924 203.994 196.749 203.336 196.408 202.759C196.067 202.181 195.598 201.731 195.001 201.409C194.414 201.078 193.737 200.912 192.97 200.912C192.194 200.912 191.498 201.087 190.882 201.438C190.267 201.778 189.779 202.247 189.419 202.844C189.059 203.431 188.87 204.098 188.851 204.847V208.952C188.851 209.842 189.026 210.623 189.376 211.295C189.727 211.958 190.224 212.474 190.868 212.844C191.512 213.213 192.279 213.398 193.169 213.398C193.785 213.398 194.343 213.312 194.845 213.142C195.347 212.972 195.778 212.721 196.138 212.389C196.498 212.058 196.768 211.651 196.947 211.168L203.325 211.352C203.06 212.782 202.478 214.027 201.578 215.088C200.688 216.139 199.518 216.958 198.07 217.545C196.621 218.123 194.945 218.412 193.041 218.412ZM206.944 226.182V196.182H213.819V199.918H214.032C214.316 199.255 214.719 198.616 215.239 198C215.77 197.384 216.442 196.883 217.256 196.494C218.08 196.097 219.065 195.898 220.211 195.898C221.726 195.898 223.142 196.295 224.458 197.091C225.784 197.886 226.854 199.113 227.668 200.77C228.483 202.427 228.89 204.539 228.89 207.105C228.89 209.577 228.497 211.646 227.711 213.312C226.934 214.979 225.883 216.229 224.558 217.062C223.241 217.896 221.778 218.312 220.168 218.312C219.07 218.312 218.118 218.133 217.313 217.773C216.508 217.413 215.831 216.939 215.282 216.352C214.742 215.765 214.326 215.135 214.032 214.463H213.89V226.182H206.944ZM213.748 207.091C213.748 208.265 213.904 209.288 214.217 210.159C214.539 211.03 214.998 211.707 215.594 212.19C216.201 212.664 216.925 212.901 217.768 212.901C218.62 212.901 219.344 212.664 219.941 212.19C220.538 211.707 220.987 211.03 221.29 210.159C221.603 209.288 221.759 208.265 221.759 207.091C221.759 205.917 221.603 204.899 221.29 204.037C220.987 203.175 220.538 202.508 219.941 202.034C219.354 201.561 218.629 201.324 217.768 201.324C216.915 201.324 216.191 201.556 215.594 202.02C214.998 202.484 214.539 203.147 214.217 204.009C213.904 204.87 213.748 205.898 213.748 207.091ZM238.68 218.369C237.288 218.369 236.053 218.137 234.973 217.673C233.903 217.2 233.055 216.49 232.43 215.543C231.815 214.586 231.507 213.388 231.507 211.949C231.507 210.737 231.72 209.714 232.146 208.881C232.572 208.047 233.16 207.37 233.908 206.849C234.656 206.329 235.518 205.936 236.493 205.67C237.468 205.396 238.51 205.211 239.618 205.116C240.858 205.003 241.857 204.884 242.615 204.761C243.373 204.629 243.922 204.444 244.263 204.207C244.613 203.961 244.788 203.616 244.788 203.17V203.099C244.788 202.37 244.537 201.807 244.036 201.409C243.534 201.011 242.857 200.812 242.004 200.812C241.086 200.812 240.347 201.011 239.788 201.409C239.23 201.807 238.875 202.356 238.723 203.057L232.317 202.83C232.506 201.504 232.994 200.32 233.78 199.278C234.575 198.227 235.664 197.403 237.047 196.807C238.439 196.201 240.11 195.898 242.061 195.898C243.453 195.898 244.736 196.063 245.911 196.395C247.085 196.717 248.107 197.19 248.979 197.815C249.85 198.431 250.522 199.188 250.996 200.088C251.479 200.988 251.72 202.015 251.72 203.17V218H245.186V214.96H245.016C244.627 215.699 244.13 216.324 243.524 216.835C242.928 217.347 242.222 217.73 241.408 217.986C240.603 218.241 239.694 218.369 238.68 218.369ZM240.825 213.824C241.573 213.824 242.246 213.672 242.842 213.369C243.448 213.066 243.931 212.65 244.291 212.119C244.651 211.58 244.831 210.955 244.831 210.244V208.17C244.632 208.275 244.391 208.369 244.107 208.455C243.832 208.54 243.529 208.62 243.197 208.696C242.866 208.772 242.525 208.838 242.175 208.895C241.824 208.952 241.488 209.004 241.166 209.051C240.513 209.155 239.954 209.316 239.49 209.534C239.036 209.752 238.685 210.036 238.439 210.386C238.202 210.727 238.084 211.134 238.084 211.608C238.084 212.328 238.339 212.877 238.851 213.256C239.372 213.634 240.03 213.824 240.825 213.824ZM254.039 201.494V196.182H274.494V201.494H267.519V218H260.928V201.494H254.039ZM282.05 226.182C281.217 226.182 280.431 226.116 279.692 225.983C278.954 225.86 278.319 225.694 277.789 225.486L279.323 220.443C280.005 220.67 280.621 220.803 281.17 220.841C281.728 220.879 282.207 220.789 282.604 220.571C283.012 220.363 283.324 219.989 283.542 219.449L283.812 218.795L276.056 196.182H283.329L287.349 211.75H287.576L291.653 196.182H298.968L290.744 220.088C290.346 221.281 289.782 222.332 289.053 223.241C288.334 224.16 287.401 224.88 286.255 225.401C285.119 225.921 283.717 226.182 282.05 226.182ZM301.631 226.182V196.182H308.506V199.918H308.719C309.004 199.255 309.406 198.616 309.927 198C310.457 197.384 311.129 196.883 311.944 196.494C312.768 196.097 313.753 195.898 314.898 195.898C316.414 195.898 317.829 196.295 319.146 197.091C320.471 197.886 321.541 199.113 322.356 200.77C323.17 202.427 323.577 204.539 323.577 207.105C323.577 209.577 323.184 211.646 322.398 213.312C321.622 214.979 320.571 216.229 319.245 217.062C317.929 217.896 316.466 218.312 314.856 218.312C313.757 218.312 312.806 218.133 312.001 217.773C311.196 217.413 310.519 216.939 309.969 216.352C309.43 215.765 309.013 215.135 308.719 214.463H308.577V226.182H301.631ZM308.435 207.091C308.435 208.265 308.592 209.288 308.904 210.159C309.226 211.03 309.685 211.707 310.282 212.19C310.888 212.664 311.612 212.901 312.455 212.901C313.308 212.901 314.032 212.664 314.629 212.19C315.225 211.707 315.675 211.03 315.978 210.159C316.29 209.288 316.447 208.265 316.447 207.091C316.447 205.917 316.29 204.899 315.978 204.037C315.675 203.175 315.225 202.508 314.629 202.034C314.041 201.561 313.317 201.324 312.455 201.324C311.603 201.324 310.879 201.556 310.282 202.02C309.685 202.484 309.226 203.147 308.904 204.009C308.592 204.87 308.435 205.898 308.435 207.091ZM382.686 218.412C381.663 218.412 380.787 218.052 380.058 217.332C379.339 216.613 378.983 215.741 378.993 214.719C378.983 213.715 379.339 212.858 380.058 212.148C380.787 211.428 381.663 211.068 382.686 211.068C383.652 211.068 384.504 211.428 385.243 212.148C385.991 212.858 386.37 213.715 386.379 214.719C386.37 215.401 386.19 216.021 385.839 216.58C385.499 217.138 385.049 217.583 384.49 217.915C383.941 218.246 383.339 218.412 382.686 218.412ZM382.686 203.44C381.663 203.44 380.787 203.085 380.058 202.375C379.339 201.655 378.983 200.779 378.993 199.747C378.983 198.743 379.339 197.886 380.058 197.176C380.787 196.456 381.663 196.097 382.686 196.097C383.652 196.097 384.504 196.456 385.243 197.176C385.991 197.886 386.37 198.743 386.379 199.747C386.37 200.429 386.19 201.049 385.839 201.608C385.499 202.167 385.049 202.612 384.49 202.943C383.941 203.275 383.339 203.44 382.686 203.44ZM413.524 200.784V206.125H400.058V200.784H413.524ZM417.746 218V212.943L428.357 203.653C429.153 202.934 429.83 202.276 430.388 201.679C430.947 201.073 431.373 200.467 431.667 199.861C431.96 199.245 432.107 198.578 432.107 197.858C432.107 197.053 431.932 196.366 431.582 195.798C431.231 195.221 430.748 194.776 430.133 194.463C429.517 194.151 428.812 193.994 428.016 193.994C427.211 193.994 426.506 194.16 425.9 194.491C425.294 194.813 424.82 195.282 424.479 195.898C424.148 196.513 423.982 197.261 423.982 198.142H417.32C417.32 196.163 417.765 194.454 418.656 193.014C419.546 191.575 420.796 190.467 422.406 189.69C424.025 188.904 425.905 188.511 428.045 188.511C430.251 188.511 432.169 188.881 433.798 189.619C435.426 190.358 436.686 191.39 437.576 192.716C438.476 194.032 438.925 195.562 438.925 197.304C438.925 198.412 438.703 199.51 438.258 200.599C437.813 201.688 437.013 202.891 435.857 204.207C434.711 205.524 433.083 207.1 430.971 208.938L427.491 212.148V212.332H439.281V218H417.746ZM443.254 218V212.943L453.865 203.653C454.661 202.934 455.338 202.276 455.896 201.679C456.455 201.073 456.881 200.467 457.175 199.861C457.468 199.245 457.615 198.578 457.615 197.858C457.615 197.053 457.44 196.366 457.089 195.798C456.739 195.221 456.256 194.776 455.641 194.463C455.025 194.151 454.32 193.994 453.524 193.994C452.719 193.994 452.014 194.16 451.408 194.491C450.802 194.813 450.328 195.282 449.987 195.898C449.656 196.513 449.49 197.261 449.49 198.142H442.828C442.828 196.163 443.273 194.454 444.163 193.014C445.054 191.575 446.304 190.467 447.913 189.69C449.533 188.904 451.412 188.511 453.553 188.511C455.759 188.511 457.677 188.881 459.305 189.619C460.934 190.358 462.194 191.39 463.084 192.716C463.983 194.032 464.433 195.562 464.433 197.304C464.433 198.412 464.211 199.51 463.766 200.599C463.321 201.688 462.52 202.891 461.365 204.207C460.219 205.524 458.59 207.1 456.479 208.938L452.999 212.148V212.332H464.788V218H443.254ZM467.782 213.17V207.688L479.7 188.909H484.572V196.352H481.745L474.771 207.403V207.631H492.029V213.17H467.782ZM481.83 218V211.494L481.972 209.094V188.909H488.549V218H481.83ZM511.397 202.972C510.081 202.972 508.883 202.654 507.803 202.02C506.724 201.376 505.862 200.514 505.218 199.435C504.584 198.355 504.266 197.162 504.266 195.855C504.266 194.539 504.584 193.341 505.218 192.261C505.862 191.182 506.724 190.325 507.803 189.69C508.883 189.046 510.081 188.724 511.397 188.724C512.713 188.724 513.906 189.046 514.977 189.69C516.056 190.325 516.913 191.182 517.548 192.261C518.192 193.341 518.513 194.539 518.513 195.855C518.513 197.162 518.192 198.355 517.548 199.435C516.913 200.514 516.056 201.376 514.977 202.02C513.906 202.654 512.713 202.972 511.397 202.972ZM511.397 198.54C511.889 198.54 512.339 198.421 512.746 198.185C513.154 197.938 513.476 197.612 513.712 197.205C513.959 196.797 514.082 196.348 514.082 195.855C514.082 195.353 513.959 194.899 513.712 194.491C513.476 194.084 513.154 193.762 512.746 193.526C512.339 193.279 511.889 193.156 511.397 193.156C510.895 193.156 510.441 193.279 510.033 193.526C509.626 193.762 509.299 194.084 509.053 194.491C508.817 194.899 508.698 195.348 508.698 195.841C508.698 196.343 508.817 196.802 509.053 197.219C509.299 197.626 509.626 197.948 510.033 198.185C510.45 198.421 510.905 198.54 511.397 198.54ZM549.21 199.449H542.107C542.013 198.72 541.818 198.062 541.525 197.474C541.231 196.887 540.843 196.385 540.36 195.969C539.877 195.552 539.304 195.235 538.641 195.017C537.988 194.79 537.263 194.676 536.468 194.676C535.057 194.676 533.84 195.022 532.817 195.713C531.804 196.404 531.023 197.403 530.474 198.71C529.934 200.017 529.664 201.598 529.664 203.455C529.664 205.386 529.939 207.006 530.488 208.312C531.047 209.61 531.828 210.59 532.832 211.253C533.845 211.906 535.043 212.233 536.425 212.233C537.202 212.233 537.907 212.134 538.542 211.935C539.186 211.736 539.749 211.447 540.232 211.068C540.725 210.68 541.127 210.211 541.44 209.662C541.762 209.103 541.984 208.473 542.107 207.773L549.21 207.815C549.086 209.103 548.712 210.372 548.087 211.622C547.472 212.872 546.624 214.013 545.545 215.045C544.465 216.068 543.149 216.883 541.596 217.489C540.052 218.095 538.281 218.398 536.283 218.398C533.651 218.398 531.293 217.82 529.21 216.665C527.136 215.5 525.497 213.805 524.295 211.58C523.092 209.354 522.491 206.646 522.491 203.455C522.491 200.254 523.102 197.541 524.323 195.315C525.545 193.09 527.197 191.4 529.281 190.244C531.364 189.089 533.698 188.511 536.283 188.511C538.045 188.511 539.674 188.758 541.17 189.25C542.666 189.733 543.982 190.443 545.119 191.381C546.255 192.309 547.178 193.45 547.888 194.804C548.599 196.158 549.039 197.706 549.21 199.449ZM78.5312 273.003V260.517H80.5341C81.2064 260.062 81.822 259.428 82.3807 258.614C82.9394 257.79 83.4176 256.634 83.8153 255.148C84.2131 253.652 84.4972 251.677 84.6676 249.224L85.5767 236.909H105.477V260.517H108.602V272.989H101.841V266H85.2926V273.003H78.5312ZM88.6023 260.517H98.7159V242.619H91.8835L91.429 249.224C91.3059 251.071 91.107 252.7 90.8324 254.111C90.5578 255.522 90.2311 256.753 89.8523 257.804C89.4735 258.846 89.0568 259.75 88.6023 260.517ZM117.977 266.369C116.585 266.369 115.349 266.137 114.27 265.673C113.2 265.2 112.352 264.49 111.727 263.543C111.112 262.586 110.804 261.388 110.804 259.949C110.804 258.737 111.017 257.714 111.443 256.881C111.869 256.047 112.456 255.37 113.205 254.849C113.953 254.329 114.814 253.936 115.79 253.67C116.765 253.396 117.807 253.211 118.915 253.116C120.155 253.003 121.154 252.884 121.912 252.761C122.67 252.629 123.219 252.444 123.56 252.207C123.91 251.961 124.085 251.616 124.085 251.17V251.099C124.085 250.37 123.834 249.807 123.332 249.409C122.83 249.011 122.153 248.812 121.301 248.812C120.383 248.812 119.644 249.011 119.085 249.409C118.527 249.807 118.171 250.356 118.02 251.057L111.614 250.83C111.803 249.504 112.291 248.32 113.077 247.278C113.872 246.227 114.961 245.403 116.344 244.807C117.736 244.201 119.407 243.898 121.358 243.898C122.75 243.898 124.033 244.063 125.207 244.395C126.382 244.717 127.404 245.19 128.276 245.815C129.147 246.431 129.819 247.188 130.293 248.088C130.776 248.988 131.017 250.015 131.017 251.17V266H124.483V262.96H124.312C123.924 263.699 123.427 264.324 122.821 264.835C122.224 265.347 121.519 265.73 120.705 265.986C119.9 266.241 118.991 266.369 117.977 266.369ZM120.122 261.824C120.87 261.824 121.543 261.672 122.139 261.369C122.745 261.066 123.228 260.65 123.588 260.119C123.948 259.58 124.128 258.955 124.128 258.244V256.17C123.929 256.275 123.688 256.369 123.403 256.455C123.129 256.54 122.826 256.62 122.494 256.696C122.163 256.772 121.822 256.838 121.472 256.895C121.121 256.952 120.785 257.004 120.463 257.051C119.81 257.155 119.251 257.316 118.787 257.534C118.332 257.752 117.982 258.036 117.736 258.386C117.499 258.727 117.381 259.134 117.381 259.608C117.381 260.328 117.636 260.877 118.148 261.256C118.669 261.634 119.327 261.824 120.122 261.824ZM150.69 244.182V249.494H141.983V266H135.264V244.182H150.69ZM158.222 274.182C157.389 274.182 156.603 274.116 155.864 273.983C155.126 273.86 154.491 273.694 153.961 273.486L155.495 268.443C156.177 268.67 156.792 268.803 157.342 268.841C157.9 268.879 158.379 268.789 158.776 268.571C159.183 268.363 159.496 267.989 159.714 267.449L159.984 266.795L152.228 244.182H159.501L163.521 259.75H163.748L167.825 244.182H175.14L166.915 268.088C166.518 269.281 165.954 270.332 165.225 271.241C164.505 272.16 163.573 272.88 162.427 273.401C161.29 273.921 159.889 274.182 158.222 274.182ZM182.05 274.182C181.217 274.182 180.431 274.116 179.692 273.983C178.954 273.86 178.319 273.694 177.789 273.486L179.323 268.443C180.005 268.67 180.621 268.803 181.17 268.841C181.728 268.879 182.207 268.789 182.604 268.571C183.012 268.363 183.324 267.989 183.542 267.449L183.812 266.795L176.056 244.182H183.329L187.349 259.75H187.576L191.653 244.182H198.968L190.744 268.088C190.346 269.281 189.782 270.332 189.053 271.241C188.334 272.16 187.401 272.88 186.255 273.401C185.119 273.921 183.717 274.182 182.05 274.182ZM198.808 266L198.766 260.645H199.462C199.935 260.645 200.347 260.522 200.697 260.276C201.048 260.029 201.341 259.636 201.578 259.097C201.815 258.547 202.004 257.842 202.146 256.98C202.288 256.118 202.378 255.072 202.416 253.841L202.771 244.182H220.044V266H213.467V249.494H208.95L208.609 255.773C208.524 257.619 208.283 259.196 207.885 260.503C207.497 261.8 206.966 262.851 206.294 263.656C205.631 264.461 204.845 265.053 203.936 265.432C203.027 265.811 202 266 200.854 266H198.808ZM228.364 250.489H234.984C237.986 250.489 240.339 251.194 242.043 252.605C243.748 254.007 244.605 255.91 244.614 258.315C244.605 259.878 244.212 261.237 243.435 262.392C242.668 263.538 241.565 264.428 240.126 265.062C238.696 265.688 236.982 266 234.984 266H224.288V244.182H230.864V260.688H234.984C235.893 260.688 236.641 260.465 237.228 260.02C237.815 259.575 238.113 259.002 238.123 258.301C238.113 257.562 237.815 256.961 237.228 256.497C236.641 256.033 235.893 255.801 234.984 255.801H228.364V250.489ZM246.575 266V244.182H253.521V266H246.575ZM273.304 252.378V257.676H262.111V252.378H273.304ZM264.497 244.182V266H257.92V244.182H264.497ZM277.494 244.182V266H270.96V244.182H277.494ZM289.195 249.494V244.182H309.65V249.494H302.675V266H296.085V249.494H289.195ZM322.48 266.412C320.188 266.412 318.219 265.943 316.571 265.006C314.933 264.059 313.669 262.742 312.778 261.057C311.898 259.362 311.457 257.397 311.457 255.162C311.457 252.918 311.898 250.953 312.778 249.267C313.669 247.572 314.933 246.256 316.571 245.318C318.219 244.371 320.188 243.898 322.48 243.898C324.772 243.898 326.737 244.371 328.375 245.318C330.023 246.256 331.287 247.572 332.168 249.267C333.058 250.953 333.503 252.918 333.503 255.162C333.503 257.397 333.058 259.362 332.168 261.057C331.287 262.742 330.023 264.059 328.375 265.006C326.737 265.943 324.772 266.412 322.48 266.412ZM322.523 261.17C323.356 261.17 324.062 260.915 324.639 260.403C325.217 259.892 325.657 259.182 325.96 258.273C326.273 257.364 326.429 256.312 326.429 255.119C326.429 253.907 326.273 252.847 325.96 251.938C325.657 251.028 325.217 250.318 324.639 249.807C324.062 249.295 323.356 249.04 322.523 249.04C321.661 249.04 320.932 249.295 320.335 249.807C319.748 250.318 319.298 251.028 318.986 251.938C318.683 252.847 318.531 253.907 318.531 255.119C318.531 256.312 318.683 257.364 318.986 258.273C319.298 259.182 319.748 259.892 320.335 260.403C320.932 260.915 321.661 261.17 322.523 261.17ZM347.246 266.412C344.954 266.412 342.984 265.943 341.337 265.006C339.698 264.059 338.434 262.742 337.544 261.057C336.663 259.362 336.223 257.397 336.223 255.162C336.223 252.918 336.663 250.953 337.544 249.267C338.434 247.572 339.698 246.256 341.337 245.318C342.984 244.371 344.954 243.898 347.246 243.898C349.537 243.898 351.502 244.371 353.141 245.318C354.788 246.256 356.053 247.572 356.933 249.267C357.823 250.953 358.268 252.918 358.268 255.162C358.268 257.397 357.823 259.362 356.933 261.057C356.053 262.742 354.788 264.059 353.141 265.006C351.502 265.943 349.537 266.412 347.246 266.412ZM347.288 261.17C348.122 261.17 348.827 260.915 349.405 260.403C349.982 259.892 350.423 259.182 350.726 258.273C351.038 257.364 351.195 256.312 351.195 255.119C351.195 253.907 351.038 252.847 350.726 251.938C350.423 251.028 349.982 250.318 349.405 249.807C348.827 249.295 348.122 249.04 347.288 249.04C346.427 249.04 345.697 249.295 345.101 249.807C344.514 250.318 344.064 251.028 343.751 251.938C343.448 252.847 343.297 253.907 343.297 255.119C343.297 256.312 343.448 257.364 343.751 258.273C344.064 259.182 344.514 259.892 345.101 260.403C345.697 260.915 346.427 261.17 347.288 261.17ZM382.92 262.733C381.898 262.733 381.022 262.373 380.293 261.653C379.573 260.934 379.218 260.062 379.227 259.04C379.218 258.036 379.573 257.179 380.293 256.469C381.022 255.749 381.898 255.389 382.92 255.389C383.886 255.389 384.739 255.749 385.477 256.469C386.225 257.179 386.604 258.036 386.614 259.04C386.604 259.722 386.424 260.342 386.074 260.901C385.733 261.459 385.283 261.904 384.724 262.236C384.175 262.567 383.574 262.733 382.92 262.733ZM382.92 248.614C381.898 248.614 381.022 248.254 380.293 247.534C379.573 246.814 379.218 245.943 379.227 244.92C379.218 243.917 379.573 243.06 380.293 242.349C381.022 241.63 381.898 241.27 382.92 241.27C383.886 241.27 384.739 241.63 385.477 242.349C386.225 243.06 386.604 243.917 386.614 244.92C386.604 245.602 386.424 246.223 386.074 246.781C385.733 247.34 385.283 247.785 384.724 248.116C384.175 248.448 383.574 248.614 382.92 248.614ZM399.739 266V260.943L410.349 251.653C411.145 250.934 411.822 250.276 412.381 249.679C412.939 249.073 413.366 248.467 413.659 247.861C413.953 247.245 414.099 246.578 414.099 245.858C414.099 245.053 413.924 244.366 413.574 243.798C413.223 243.221 412.741 242.776 412.125 242.463C411.509 242.151 410.804 241.994 410.009 241.994C409.204 241.994 408.498 242.16 407.892 242.491C407.286 242.813 406.813 243.282 406.472 243.898C406.14 244.513 405.974 245.261 405.974 246.142H399.312C399.312 244.163 399.758 242.454 400.648 241.014C401.538 239.575 402.788 238.467 404.398 237.69C406.017 236.904 407.897 236.511 410.037 236.511C412.243 236.511 414.161 236.881 415.79 237.619C417.419 238.358 418.678 239.39 419.568 240.716C420.468 242.032 420.918 243.562 420.918 245.304C420.918 246.412 420.695 247.51 420.25 248.599C419.805 249.688 419.005 250.891 417.849 252.207C416.704 253.524 415.075 255.1 412.963 256.938L409.483 260.148V260.332H421.273V266H399.739ZM426.482 266L438.215 242.761V242.577H424.494V236.909H445.488V242.619L433.712 266H426.482ZM78.5312 321.003V308.517H80.5341C81.2064 308.062 81.822 307.428 82.3807 306.614C82.9394 305.79 83.4176 304.634 83.8153 303.148C84.2131 301.652 84.4972 299.677 84.6676 297.224L85.5767 284.909H105.477V308.517H108.602V320.989H101.841V314H85.2926V321.003H78.5312ZM88.6023 308.517H98.7159V290.619H91.8835L91.429 297.224C91.3059 299.071 91.107 300.7 90.8324 302.111C90.5578 303.522 90.2311 304.753 89.8523 305.804C89.4735 306.846 89.0568 307.75 88.6023 308.517ZM118.403 305.009L125.378 292.182H132.054V314H125.477V301.131L118.517 314H111.827V292.182H118.403V305.009ZM142.626 314.369C141.234 314.369 139.998 314.137 138.918 313.673C137.848 313.2 137.001 312.49 136.376 311.543C135.76 310.586 135.452 309.388 135.452 307.949C135.452 306.737 135.665 305.714 136.092 304.881C136.518 304.047 137.105 303.37 137.853 302.849C138.601 302.329 139.463 301.936 140.438 301.67C141.414 301.396 142.455 301.211 143.563 301.116C144.804 301.003 145.803 300.884 146.56 300.761C147.318 300.629 147.867 300.444 148.208 300.207C148.558 299.961 148.734 299.616 148.734 299.17V299.099C148.734 298.37 148.483 297.807 147.981 297.409C147.479 297.011 146.802 296.812 145.95 296.812C145.031 296.812 144.292 297.011 143.734 297.409C143.175 297.807 142.82 298.356 142.668 299.057L136.262 298.83C136.451 297.504 136.939 296.32 137.725 295.278C138.521 294.227 139.61 293.403 140.992 292.807C142.384 292.201 144.056 291.898 146.006 291.898C147.398 291.898 148.682 292.063 149.856 292.395C151.03 292.717 152.053 293.19 152.924 293.815C153.795 294.431 154.468 295.188 154.941 296.088C155.424 296.988 155.665 298.015 155.665 299.17V314H149.131V310.96H148.961C148.573 311.699 148.076 312.324 147.469 312.835C146.873 313.347 146.167 313.73 145.353 313.986C144.548 314.241 143.639 314.369 142.626 314.369ZM144.771 309.824C145.519 309.824 146.191 309.672 146.788 309.369C147.394 309.066 147.877 308.65 148.237 308.119C148.596 307.58 148.776 306.955 148.776 306.244V304.17C148.577 304.275 148.336 304.369 148.052 304.455C147.777 304.54 147.474 304.62 147.143 304.696C146.811 304.772 146.47 304.838 146.12 304.895C145.77 304.952 145.433 305.004 145.112 305.051C144.458 305.155 143.899 305.316 143.435 305.534C142.981 305.752 142.63 306.036 142.384 306.386C142.147 306.727 142.029 307.134 142.029 307.608C142.029 308.328 142.285 308.877 142.796 309.256C143.317 309.634 143.975 309.824 144.771 309.824ZM173.123 306.585L178.464 292.182H183.549L175.353 314H170.893L162.91 292.182H167.981L173.123 306.585ZM166.489 292.182V314H159.913V292.182H166.489ZM180.154 314V292.182H186.646V314H180.154ZM201.049 314.412C198.767 314.412 196.797 313.962 195.14 313.062C193.492 312.153 192.223 310.861 191.333 309.185C190.452 307.499 190.012 305.496 190.012 303.176C190.012 300.922 190.457 298.953 191.347 297.267C192.237 295.572 193.492 294.256 195.112 293.318C196.731 292.371 198.639 291.898 200.836 291.898C202.389 291.898 203.809 292.139 205.097 292.622C206.385 293.105 207.498 293.82 208.435 294.767C209.373 295.714 210.102 296.884 210.623 298.276C211.144 299.658 211.404 301.244 211.404 303.034V304.767H192.441V300.733H204.941C204.932 299.994 204.756 299.336 204.415 298.759C204.075 298.181 203.606 297.731 203.009 297.409C202.422 297.078 201.745 296.912 200.978 296.912C200.201 296.912 199.505 297.087 198.89 297.438C198.274 297.778 197.787 298.247 197.427 298.844C197.067 299.431 196.878 300.098 196.859 300.847V304.952C196.859 305.842 197.034 306.623 197.384 307.295C197.735 307.958 198.232 308.474 198.876 308.844C199.52 309.213 200.287 309.398 201.177 309.398C201.792 309.398 202.351 309.312 202.853 309.142C203.355 308.972 203.786 308.721 204.146 308.389C204.505 308.058 204.775 307.651 204.955 307.168L211.333 307.352C211.068 308.782 210.486 310.027 209.586 311.088C208.696 312.139 207.526 312.958 206.077 313.545C204.629 314.123 202.952 314.412 201.049 314.412ZM213.375 297.494V292.182H233.83V297.494H226.855V314H220.264V297.494H213.375ZM237.139 322.182V292.182H244.014V295.918H244.227C244.511 295.255 244.914 294.616 245.435 294C245.965 293.384 246.637 292.883 247.452 292.494C248.276 292.097 249.26 291.898 250.406 291.898C251.921 291.898 253.337 292.295 254.653 293.091C255.979 293.886 257.049 295.113 257.864 296.77C258.678 298.427 259.085 300.539 259.085 303.105C259.085 305.577 258.692 307.646 257.906 309.312C257.13 310.979 256.079 312.229 254.753 313.062C253.437 313.896 251.973 314.312 250.364 314.312C249.265 314.312 248.313 314.133 247.509 313.773C246.704 313.413 246.027 312.939 245.477 312.352C244.938 311.765 244.521 311.135 244.227 310.463H244.085V322.182H237.139ZM243.943 303.091C243.943 304.265 244.099 305.288 244.412 306.159C244.734 307.03 245.193 307.707 245.79 308.19C246.396 308.664 247.12 308.901 247.963 308.901C248.815 308.901 249.54 308.664 250.136 308.19C250.733 307.707 251.183 307.03 251.486 306.159C251.798 305.288 251.955 304.265 251.955 303.091C251.955 301.917 251.798 300.899 251.486 300.037C251.183 299.175 250.733 298.508 250.136 298.034C249.549 297.561 248.825 297.324 247.963 297.324C247.111 297.324 246.386 297.556 245.79 298.02C245.193 298.484 244.734 299.147 244.412 300.009C244.099 300.87 243.943 301.898 243.943 303.091ZM378.35 310.733C377.327 310.733 376.451 310.373 375.722 309.653C375.003 308.934 374.647 308.062 374.657 307.04C374.647 306.036 375.003 305.179 375.722 304.469C376.451 303.749 377.327 303.389 378.35 303.389C379.316 303.389 380.168 303.749 380.907 304.469C381.655 305.179 382.034 306.036 382.043 307.04C382.034 307.722 381.854 308.342 381.504 308.901C381.163 309.459 380.713 309.904 380.154 310.236C379.605 310.567 379.004 310.733 378.35 310.733ZM378.35 296.614C377.327 296.614 376.451 296.254 375.722 295.534C375.003 294.814 374.647 293.943 374.657 292.92C374.647 291.917 375.003 291.06 375.722 290.349C376.451 289.63 377.327 289.27 378.35 289.27C379.316 289.27 380.168 289.63 380.907 290.349C381.655 291.06 382.034 291.917 382.043 292.92C382.034 293.602 381.854 294.223 381.504 294.781C381.163 295.34 380.713 295.785 380.154 296.116C379.605 296.448 379.004 296.614 378.35 296.614ZM406.305 314.398C404.183 314.398 402.299 314.014 400.651 313.247C399.004 312.48 397.701 311.424 396.745 310.08C395.798 308.735 395.306 307.191 395.268 305.449H402.086C402.143 306.519 402.578 307.381 403.393 308.034C404.207 308.678 405.178 309 406.305 309C407.185 309 407.967 308.806 408.648 308.418C409.33 308.029 409.865 307.485 410.254 306.784C410.642 306.074 410.831 305.259 410.822 304.341C410.831 303.403 410.637 302.584 410.239 301.884C409.851 301.183 409.311 300.638 408.62 300.25C407.938 299.852 407.152 299.653 406.262 299.653C405.419 299.644 404.619 299.829 403.862 300.207C403.113 300.586 402.545 301.102 402.157 301.756L395.95 300.591L397.214 284.909H415.879V290.577H402.995L402.327 297.438H402.498C402.981 296.633 403.757 295.97 404.827 295.449C405.907 294.919 407.133 294.653 408.506 294.653C410.249 294.653 411.802 295.061 413.165 295.875C414.539 296.68 415.618 297.797 416.404 299.227C417.2 300.657 417.597 302.295 417.597 304.142C417.597 306.14 417.124 307.911 416.177 309.455C415.239 310.998 413.923 312.21 412.228 313.091C410.542 313.962 408.568 314.398 406.305 314.398ZM433.489 314.71C430.951 314.71 428.763 314.109 426.926 312.906C425.089 311.694 423.673 309.956 422.679 307.693C421.685 305.42 421.192 302.688 421.202 299.497C421.211 296.306 421.708 293.598 422.693 291.372C423.688 289.137 425.098 287.437 426.926 286.273C428.763 285.098 430.951 284.511 433.489 284.511C436.027 284.511 438.214 285.098 440.051 286.273C441.898 287.437 443.318 289.137 444.312 291.372C445.307 293.607 445.799 296.315 445.79 299.497C445.79 302.698 445.293 305.435 444.298 307.707C443.304 309.98 441.888 311.718 440.051 312.92C438.223 314.114 436.036 314.71 433.489 314.71ZM433.489 308.957C435.004 308.957 436.23 308.186 437.168 306.642C438.105 305.089 438.569 302.707 438.56 299.497C438.56 297.395 438.347 295.662 437.92 294.298C437.494 292.925 436.902 291.902 436.145 291.23C435.387 290.558 434.502 290.222 433.489 290.222C431.983 290.222 430.766 290.984 429.838 292.509C428.91 294.024 428.441 296.353 428.432 299.497C428.422 301.628 428.626 303.394 429.043 304.795C429.469 306.197 430.065 307.243 430.832 307.935C431.599 308.616 432.485 308.957 433.489 308.957ZM455.712 310.023L455.584 311.599C455.47 312.906 455.238 314.18 454.888 315.42C454.547 316.67 454.182 317.793 453.794 318.787C453.406 319.781 453.098 320.553 452.871 321.102H448.496C448.647 320.553 448.851 319.781 449.107 318.787C449.372 317.793 449.618 316.67 449.845 315.42C450.072 314.17 450.2 312.902 450.229 311.614L450.257 310.023H455.712ZM460.974 314L472.707 290.761V290.577H458.986V284.909H479.98V290.619L468.205 314H460.974ZM483.84 314V308.943L494.451 299.653C495.246 298.934 495.924 298.276 496.482 297.679C497.041 297.073 497.467 296.467 497.761 295.861C498.054 295.245 498.201 294.578 498.201 293.858C498.201 293.053 498.026 292.366 497.675 291.798C497.325 291.221 496.842 290.776 496.227 290.463C495.611 290.151 494.906 289.994 494.11 289.994C493.305 289.994 492.6 290.16 491.994 290.491C491.388 290.813 490.914 291.282 490.573 291.898C490.242 292.513 490.076 293.261 490.076 294.142H483.414C483.414 292.163 483.859 290.454 484.749 289.014C485.639 287.575 486.889 286.467 488.499 285.69C490.119 284.904 491.998 284.511 494.138 284.511C496.345 284.511 498.263 284.881 499.891 285.619C501.52 286.358 502.78 287.39 503.67 288.716C504.569 290.032 505.019 291.562 505.019 293.304C505.019 294.412 504.797 295.51 504.352 296.599C503.906 297.688 503.106 298.891 501.951 300.207C500.805 301.524 499.176 303.1 497.065 304.938L493.585 308.148V308.332H505.374V314H483.84ZM508.368 309.17V303.688L520.286 284.909H525.158V292.352H522.331L515.357 303.403V303.631H532.615V309.17H508.368ZM522.416 314V307.494L522.558 305.094V284.909H529.135V314H522.416ZM544.952 314V292.182H551.898V300.307H553.432L558.73 292.182H566.77L559.426 303.105L566.841 314H558.702L553.915 306.756H551.898V314H544.952ZM582.224 306.585L587.565 292.182H592.651L584.455 314H579.994L572.011 292.182H577.082L582.224 306.585ZM575.591 292.182V314H569.014V292.182H575.591ZM589.256 314V292.182H595.747V314H589.256ZM79.7955 362V332.909H86.8267V344.585H98.2898V332.909H105.307V362H98.2898V350.31H86.8267V362H79.7955ZM118.07 345.253C117.407 345.253 116.848 345.366 116.393 345.594C115.939 345.821 115.598 346.143 115.371 346.56C115.153 346.976 115.044 347.483 115.044 348.08H108.879C108.879 346.82 109.107 345.684 109.561 344.67C110.016 343.648 110.655 342.777 111.479 342.057C112.312 341.328 113.287 340.774 114.405 340.395C115.522 340.007 116.744 339.812 118.07 339.812C120.333 339.812 122.232 340.295 123.766 341.261C125.309 342.227 126.474 343.548 127.26 345.224C128.046 346.891 128.439 348.78 128.439 350.892V351.318C128.439 353.439 128.051 355.338 127.274 357.014C126.498 358.681 125.338 359.997 123.794 360.963C122.26 361.92 120.352 362.398 118.07 362.398C116.251 362.398 114.651 362.052 113.268 361.361C111.895 360.67 110.821 359.666 110.044 358.349C109.268 357.033 108.879 355.438 108.879 353.562H115.044C115.044 354.178 115.153 354.741 115.371 355.253C115.589 355.755 115.92 356.157 116.365 356.46C116.82 356.754 117.388 356.905 118.07 356.915C119.14 356.905 119.945 356.612 120.484 356.034C121.034 355.456 121.398 354.737 121.578 353.875C121.768 353.013 121.862 352.161 121.862 351.318V350.892C121.862 349.926 121.763 349.017 121.564 348.165C121.375 347.303 121.005 346.602 120.456 346.062C119.916 345.523 119.121 345.253 118.07 345.253ZM123.723 349.259V352.98H116.635V349.259H123.723ZM147.448 340.182V345.494H138.741V362H132.022V340.182H147.448ZM176.386 349.188V352.994H162.636V349.188H176.386ZM169.511 362.412C167.22 362.412 165.25 361.943 163.602 361.006C161.964 360.059 160.7 358.742 159.81 357.057C158.929 355.362 158.489 353.397 158.489 351.162C158.489 348.918 158.929 346.953 159.81 345.267C160.7 343.572 161.964 342.256 163.602 341.318C165.25 340.371 167.22 339.898 169.511 339.898C171.803 339.898 173.768 340.371 175.406 341.318C177.054 342.256 178.318 343.572 179.199 345.267C180.089 346.953 180.534 348.918 180.534 351.162C180.534 353.397 180.089 355.362 179.199 357.057C178.318 358.742 177.054 360.059 175.406 361.006C173.768 361.943 171.803 362.412 169.511 362.412ZM169.554 357.17C170.387 357.17 171.093 356.915 171.67 356.403C172.248 355.892 172.688 355.182 172.991 354.273C173.304 353.364 173.46 352.312 173.46 351.119C173.46 349.907 173.304 348.847 172.991 347.938C172.688 347.028 172.248 346.318 171.67 345.807C171.093 345.295 170.387 345.04 169.554 345.04C168.692 345.04 167.963 345.295 167.366 345.807C166.779 346.318 166.33 347.028 166.017 347.938C165.714 348.847 165.562 349.907 165.562 351.119C165.562 352.312 165.714 353.364 166.017 354.273C166.33 355.182 166.779 355.892 167.366 356.403C167.963 356.915 168.692 357.17 169.554 357.17ZM182.587 368.435V356.645H184.22C184.713 356.399 185.106 355.925 185.399 355.224C185.693 354.514 185.925 353.686 186.095 352.739C186.275 351.782 186.408 350.788 186.493 349.756C186.588 348.714 186.673 347.734 186.749 346.815L187.26 340.182H204.93V356.645H208.339V368.435H201.749V362H189.348V368.435H182.587ZM190.982 356.645H198.453V345.352H193.055L192.942 346.815C192.809 349.164 192.601 351.134 192.317 352.724C192.033 354.315 191.588 355.622 190.982 356.645ZM228.613 349.188V352.994H214.863V349.188H228.613ZM221.738 362.412C219.446 362.412 217.477 361.943 215.829 361.006C214.191 360.059 212.926 358.742 212.036 357.057C211.156 355.362 210.715 353.397 210.715 351.162C210.715 348.918 211.156 346.953 212.036 345.267C212.926 343.572 214.191 342.256 215.829 341.318C217.477 340.371 219.446 339.898 221.738 339.898C224.03 339.898 225.995 340.371 227.633 341.318C229.281 342.256 230.545 343.572 231.425 345.267C232.316 346.953 232.761 348.918 232.761 351.162C232.761 353.397 232.316 355.362 231.425 357.057C230.545 358.742 229.281 360.059 227.633 361.006C225.995 361.943 224.03 362.412 221.738 362.412ZM221.781 357.17C222.614 357.17 223.319 356.915 223.897 356.403C224.475 355.892 224.915 355.182 225.218 354.273C225.531 353.364 225.687 352.312 225.687 351.119C225.687 349.907 225.531 348.847 225.218 347.938C224.915 347.028 224.475 346.318 223.897 345.807C223.319 345.295 222.614 345.04 221.781 345.04C220.919 345.04 220.19 345.295 219.593 345.807C219.006 346.318 218.556 347.028 218.244 347.938C217.941 348.847 217.789 349.907 217.789 351.119C217.789 352.312 217.941 353.364 218.244 354.273C218.556 355.182 219.006 355.892 219.593 356.403C220.19 356.915 220.919 357.17 221.781 357.17ZM236.319 370.182V340.182H243.194V343.918H243.407C243.691 343.255 244.094 342.616 244.614 342C245.145 341.384 245.817 340.883 246.631 340.494C247.455 340.097 248.44 339.898 249.586 339.898C251.101 339.898 252.517 340.295 253.833 341.091C255.159 341.886 256.229 343.113 257.043 344.77C257.858 346.427 258.265 348.539 258.265 351.105C258.265 353.577 257.872 355.646 257.086 357.312C256.309 358.979 255.258 360.229 253.933 361.062C252.616 361.896 251.153 362.312 249.543 362.312C248.445 362.312 247.493 362.133 246.688 361.773C245.883 361.413 245.206 360.939 244.657 360.352C244.117 359.765 243.701 359.135 243.407 358.463H243.265V370.182H236.319ZM243.123 351.091C243.123 352.265 243.279 353.288 243.592 354.159C243.914 355.03 244.373 355.707 244.969 356.19C245.576 356.664 246.3 356.901 247.143 356.901C247.995 356.901 248.719 356.664 249.316 356.19C249.913 355.707 250.362 355.03 250.665 354.159C250.978 353.288 251.134 352.265 251.134 351.091C251.134 349.917 250.978 348.899 250.665 348.037C250.362 347.175 249.913 346.508 249.316 346.034C248.729 345.561 248.004 345.324 247.143 345.324C246.29 345.324 245.566 345.556 244.969 346.02C244.373 346.484 243.914 347.147 243.592 348.009C243.279 348.87 243.123 349.898 243.123 351.091ZM377.53 358.733C376.507 358.733 375.631 358.373 374.902 357.653C374.182 356.934 373.827 356.062 373.837 355.04C373.827 354.036 374.182 353.179 374.902 352.469C375.631 351.749 376.507 351.389 377.53 351.389C378.496 351.389 379.348 351.749 380.087 352.469C380.835 353.179 381.214 354.036 381.223 355.04C381.214 355.722 381.034 356.342 380.683 356.901C380.342 357.459 379.893 357.904 379.334 358.236C378.785 358.567 378.183 358.733 377.53 358.733ZM377.53 344.614C376.507 344.614 375.631 344.254 374.902 343.534C374.182 342.814 373.827 341.943 373.837 340.92C373.827 339.917 374.182 339.06 374.902 338.349C375.631 337.63 376.507 337.27 377.53 337.27C378.496 337.27 379.348 337.63 380.087 338.349C380.835 339.06 381.214 339.917 381.223 340.92C381.214 341.602 381.034 342.223 380.683 342.781C380.342 343.34 379.893 343.785 379.334 344.116C378.785 344.448 378.183 344.614 377.53 344.614ZM407.8 332.909V362H400.783V339.472H400.612L394.107 343.449V337.369L401.28 332.909H407.8ZM415.467 362L427.2 338.761V338.577H413.478V332.909H434.472V338.619L422.697 362H415.467ZM437.295 362.412C436.273 362.412 435.397 362.052 434.668 361.332C433.948 360.613 433.593 359.741 433.602 358.719C433.593 357.715 433.948 356.858 434.668 356.148C435.397 355.428 436.273 355.068 437.295 355.068C438.261 355.068 439.114 355.428 439.852 356.148C440.6 356.858 440.979 357.715 440.989 358.719C440.979 359.401 440.799 360.021 440.449 360.58C440.108 361.138 439.658 361.583 439.099 361.915C438.55 362.246 437.949 362.412 437.295 362.412ZM445.52 362V356.943L456.131 347.653C456.926 346.934 457.603 346.276 458.162 345.679C458.721 345.073 459.147 344.467 459.44 343.861C459.734 343.245 459.881 342.578 459.881 341.858C459.881 341.053 459.705 340.366 459.355 339.798C459.005 339.221 458.522 338.776 457.906 338.463C457.291 338.151 456.585 337.994 455.79 337.994C454.985 337.994 454.279 338.16 453.673 338.491C453.067 338.813 452.594 339.282 452.253 339.898C451.921 340.513 451.756 341.261 451.756 342.142H445.094C445.094 340.163 445.539 338.454 446.429 337.014C447.319 335.575 448.569 334.467 450.179 333.69C451.798 332.904 453.678 332.511 455.818 332.511C458.025 332.511 459.942 332.881 461.571 333.619C463.2 334.358 464.459 335.39 465.349 336.716C466.249 338.032 466.699 339.562 466.699 341.304C466.699 342.412 466.476 343.51 466.031 344.599C465.586 345.688 464.786 346.891 463.631 348.207C462.485 349.524 460.856 351.1 458.744 352.938L455.264 356.148V356.332H467.054V362H445.52ZM499.38 340.182V357.469H503.002V369.003H496.283V362H479.678V340.182H486.255V356.688H492.903V340.182H499.38ZM512.391 362.369C510.999 362.369 509.763 362.137 508.684 361.673C507.614 361.2 506.766 360.49 506.141 359.543C505.526 358.586 505.218 357.388 505.218 355.949C505.218 354.737 505.431 353.714 505.857 352.881C506.283 352.047 506.871 351.37 507.619 350.849C508.367 350.329 509.228 349.936 510.204 349.67C511.179 349.396 512.221 349.211 513.329 349.116C514.569 349.003 515.568 348.884 516.326 348.761C517.084 348.629 517.633 348.444 517.974 348.207C518.324 347.961 518.499 347.616 518.499 347.17V347.099C518.499 346.37 518.248 345.807 517.746 345.409C517.245 345.011 516.567 344.812 515.715 344.812C514.797 344.812 514.058 345.011 513.499 345.409C512.941 345.807 512.585 346.356 512.434 347.057L506.028 346.83C506.217 345.504 506.705 344.32 507.491 343.278C508.286 342.227 509.375 341.403 510.758 340.807C512.15 340.201 513.821 339.898 515.772 339.898C517.164 339.898 518.447 340.063 519.621 340.395C520.796 340.717 521.818 341.19 522.69 341.815C523.561 342.431 524.233 343.188 524.707 344.088C525.19 344.988 525.431 346.015 525.431 347.17V362H518.897V358.96H518.727C518.338 359.699 517.841 360.324 517.235 360.835C516.638 361.347 515.933 361.73 515.119 361.986C514.314 362.241 513.405 362.369 512.391 362.369ZM514.536 357.824C515.284 357.824 515.957 357.672 516.553 357.369C517.159 357.066 517.642 356.65 518.002 356.119C518.362 355.58 518.542 354.955 518.542 354.244V352.17C518.343 352.275 518.102 352.369 517.817 352.455C517.543 352.54 517.24 352.62 516.908 352.696C516.577 352.772 516.236 352.838 515.886 352.895C515.535 352.952 515.199 353.004 514.877 353.051C514.224 353.155 513.665 353.316 513.201 353.534C512.746 353.752 512.396 354.036 512.15 354.386C511.913 354.727 511.795 355.134 511.795 355.608C511.795 356.328 512.05 356.877 512.562 357.256C513.083 357.634 513.741 357.824 514.536 357.824ZM545.104 340.182V345.494H536.397V362H529.678V340.182H545.104Z" fill="white"/>
<path d="M112.245 420V390.909H119.276V402.585H130.739V390.909H137.756V420H130.739V408.31H119.276V420H112.245ZM148.317 420.369C146.925 420.369 145.689 420.137 144.61 419.673C143.54 419.2 142.692 418.49 142.067 417.543C141.452 416.586 141.144 415.388 141.144 413.949C141.144 412.737 141.357 411.714 141.783 410.881C142.209 410.047 142.796 409.37 143.544 408.849C144.292 408.329 145.154 407.936 146.13 407.67C147.105 407.396 148.147 407.211 149.255 407.116C150.495 407.003 151.494 406.884 152.252 406.761C153.009 406.629 153.559 406.444 153.9 406.207C154.25 405.961 154.425 405.616 154.425 405.17V405.099C154.425 404.37 154.174 403.807 153.672 403.409C153.17 403.011 152.493 402.812 151.641 402.812C150.722 402.812 149.984 403.011 149.425 403.409C148.866 403.807 148.511 404.356 148.36 405.057L141.953 404.83C142.143 403.504 142.631 402.32 143.417 401.278C144.212 400.227 145.301 399.403 146.684 398.807C148.076 398.201 149.747 397.898 151.698 397.898C153.09 397.898 154.373 398.063 155.547 398.395C156.721 398.717 157.744 399.19 158.615 399.815C159.487 400.431 160.159 401.188 160.632 402.088C161.115 402.988 161.357 404.015 161.357 405.17V420H154.823V416.96H154.652C154.264 417.699 153.767 418.324 153.161 418.835C152.564 419.347 151.859 419.73 151.044 419.986C150.239 420.241 149.33 420.369 148.317 420.369ZM150.462 415.824C151.21 415.824 151.882 415.672 152.479 415.369C153.085 415.066 153.568 414.65 153.928 414.119C154.288 413.58 154.468 412.955 154.468 412.244V410.17C154.269 410.275 154.027 410.369 153.743 410.455C153.469 410.54 153.166 410.62 152.834 410.696C152.503 410.772 152.162 410.838 151.811 410.895C151.461 410.952 151.125 411.004 150.803 411.051C150.15 411.155 149.591 411.316 149.127 411.534C148.672 411.752 148.322 412.036 148.076 412.386C147.839 412.727 147.721 413.134 147.721 413.608C147.721 414.328 147.976 414.877 148.488 415.256C149.008 415.634 149.667 415.824 150.462 415.824ZM165.604 428.182V398.182H172.479V401.918H172.692C172.976 401.255 173.379 400.616 173.9 400C174.43 399.384 175.102 398.883 175.917 398.494C176.74 398.097 177.725 397.898 178.871 397.898C180.386 397.898 181.802 398.295 183.118 399.091C184.444 399.886 185.514 401.113 186.328 402.77C187.143 404.427 187.55 406.539 187.55 409.105C187.55 411.577 187.157 413.646 186.371 415.312C185.595 416.979 184.543 418.229 183.218 419.062C181.901 419.896 180.438 420.312 178.828 420.312C177.73 420.312 176.778 420.133 175.973 419.773C175.168 419.413 174.491 418.939 173.942 418.352C173.402 417.765 172.986 417.135 172.692 416.463H172.55V428.182H165.604ZM172.408 409.091C172.408 410.265 172.564 411.288 172.877 412.159C173.199 413.03 173.658 413.707 174.255 414.19C174.861 414.664 175.585 414.901 176.428 414.901C177.28 414.901 178.005 414.664 178.601 414.19C179.198 413.707 179.648 413.03 179.951 412.159C180.263 411.288 180.419 410.265 180.419 409.091C180.419 407.917 180.263 406.899 179.951 406.037C179.648 405.175 179.198 404.508 178.601 404.034C178.014 403.561 177.29 403.324 176.428 403.324C175.576 403.324 174.851 403.556 174.255 404.02C173.658 404.484 173.199 405.147 172.877 406.009C172.564 406.87 172.408 407.898 172.408 409.091ZM206.574 406.378V411.676H195.38V406.378H206.574ZM197.767 398.182V420H191.19V398.182H197.767ZM210.764 398.182V420H204.23V398.182H210.764ZM219.056 404.489H225.675C228.677 404.489 231.03 405.194 232.735 406.605C234.439 408.007 235.296 409.91 235.306 412.315C235.296 413.878 234.903 415.237 234.127 416.392C233.36 417.538 232.257 418.428 230.817 419.062C229.387 419.688 227.673 420 225.675 420H214.979V398.182H221.556V414.688H225.675C226.584 414.688 227.332 414.465 227.919 414.02C228.507 413.575 228.805 413.002 228.814 412.301C228.805 411.562 228.507 410.961 227.919 410.497C227.332 410.033 226.584 409.801 225.675 409.801H219.056V404.489ZM237.266 420V398.182H244.212V420H237.266ZM272.632 398.182V403.494H263.924V420H257.206V398.182H272.632ZM284.269 403.253C283.606 403.253 283.047 403.366 282.593 403.594C282.138 403.821 281.797 404.143 281.57 404.56C281.352 404.976 281.243 405.483 281.243 406.08H275.078C275.078 404.82 275.306 403.684 275.76 402.67C276.215 401.648 276.854 400.777 277.678 400.057C278.511 399.328 279.487 398.774 280.604 398.395C281.721 398.007 282.943 397.812 284.269 397.812C286.532 397.812 288.431 398.295 289.965 399.261C291.508 400.227 292.673 401.548 293.459 403.224C294.245 404.891 294.638 406.78 294.638 408.892V409.318C294.638 411.439 294.25 413.338 293.473 415.014C292.697 416.681 291.537 417.997 289.993 418.963C288.459 419.92 286.551 420.398 284.269 420.398C282.451 420.398 280.85 420.052 279.468 419.361C278.095 418.67 277.02 417.666 276.243 416.349C275.467 415.033 275.078 413.438 275.078 411.562H281.243C281.243 412.178 281.352 412.741 281.57 413.253C281.788 413.755 282.119 414.157 282.564 414.46C283.019 414.754 283.587 414.905 284.269 414.915C285.339 414.905 286.144 414.612 286.684 414.034C287.233 413.456 287.597 412.737 287.777 411.875C287.967 411.013 288.061 410.161 288.061 409.318V408.892C288.061 407.926 287.962 407.017 287.763 406.165C287.574 405.303 287.204 404.602 286.655 404.062C286.115 403.523 285.32 403.253 284.269 403.253ZM289.922 407.259V410.98H282.834V407.259H289.922ZM298.221 428.182V398.182H305.096V401.918H305.309C305.593 401.255 305.996 400.616 306.517 400C307.047 399.384 307.719 398.883 308.534 398.494C309.358 398.097 310.342 397.898 311.488 397.898C313.003 397.898 314.419 398.295 315.735 399.091C317.061 399.886 318.131 401.113 318.946 402.77C319.76 404.427 320.167 406.539 320.167 409.105C320.167 411.577 319.774 413.646 318.988 415.312C318.212 416.979 317.161 418.229 315.835 419.062C314.519 419.896 313.056 420.312 311.446 420.312C310.347 420.312 309.395 420.133 308.591 419.773C307.786 419.413 307.109 418.939 306.559 418.352C306.02 417.765 305.603 417.135 305.309 416.463H305.167V428.182H298.221ZM305.025 409.091C305.025 410.265 305.181 411.288 305.494 412.159C305.816 413.03 306.275 413.707 306.872 414.19C307.478 414.664 308.202 414.901 309.045 414.901C309.897 414.901 310.622 414.664 311.218 414.19C311.815 413.707 312.265 413.03 312.568 412.159C312.88 411.288 313.037 410.265 313.037 409.091C313.037 407.917 312.88 406.899 312.568 406.037C312.265 405.175 311.815 404.508 311.218 404.034C310.631 403.561 309.907 403.324 309.045 403.324C308.193 403.324 307.468 403.556 306.872 404.02C306.275 404.484 305.816 405.147 305.494 406.009C305.181 406.87 305.025 407.898 305.025 409.091ZM322.742 420L322.699 414.645H323.395C323.869 414.645 324.281 414.522 324.631 414.276C324.981 414.029 325.275 413.636 325.512 413.097C325.748 412.547 325.938 411.842 326.08 410.98C326.222 410.118 326.312 409.072 326.35 407.841L326.705 398.182H343.978V420H337.401V403.494H332.884L332.543 409.773C332.458 411.619 332.216 413.196 331.819 414.503C331.43 415.8 330.9 416.851 330.228 417.656C329.565 418.461 328.779 419.053 327.87 419.432C326.961 419.811 325.933 420 324.787 420H322.742ZM354.798 411.009L361.772 398.182H368.449V420H361.872V407.131L354.912 420H348.221V398.182H354.798V411.009ZM379.446 411.009L386.421 398.182H393.097V420H386.52V407.131L379.56 420H372.87V398.182H379.446V411.009ZM385.796 390.455H390.37C390.36 392.235 389.688 393.665 388.353 394.744C387.027 395.824 385.228 396.364 382.955 396.364C380.682 396.364 378.878 395.824 377.543 394.744C376.217 393.665 375.559 392.235 375.569 390.455H380.1C380.09 391.08 380.303 391.648 380.739 392.159C381.175 392.67 381.913 392.926 382.955 392.926C383.968 392.926 384.693 392.675 385.128 392.173C385.564 391.671 385.786 391.098 385.796 390.455ZM412.902 406.378V411.676H401.708V406.378H412.902ZM404.095 398.182V420H397.518V398.182H404.095ZM417.092 398.182V420H410.558V398.182H417.092ZM428.395 426.435V414.645H430.029C430.521 414.399 430.914 413.925 431.208 413.224C431.501 412.514 431.733 411.686 431.904 410.739C432.084 409.782 432.216 408.788 432.301 407.756C432.396 406.714 432.481 405.734 432.557 404.815L433.069 398.182H450.739V414.645H454.148V426.435H447.557V420H435.157V426.435H428.395ZM436.79 414.645H444.262V403.352H438.864L438.75 404.815C438.618 407.164 438.409 409.134 438.125 410.724C437.841 412.315 437.396 413.622 436.79 414.645ZM461.609 428.182C460.776 428.182 459.99 428.116 459.251 427.983C458.512 427.86 457.878 427.694 457.348 427.486L458.882 422.443C459.564 422.67 460.179 422.803 460.728 422.841C461.287 422.879 461.765 422.789 462.163 422.571C462.57 422.363 462.883 421.989 463.1 421.449L463.37 420.795L455.615 398.182H462.887L466.907 413.75H467.135L471.211 398.182H478.527L470.302 422.088C469.904 423.281 469.341 424.332 468.612 425.241C467.892 426.16 466.959 426.88 465.814 427.401C464.677 427.921 463.276 428.182 461.609 428.182ZM478.367 420L478.324 414.645H479.02C479.494 414.645 479.906 414.522 480.256 414.276C480.606 414.029 480.9 413.636 481.137 413.097C481.373 412.547 481.563 411.842 481.705 410.98C481.847 410.118 481.937 409.072 481.975 407.841L482.33 398.182H499.603V420H493.026V403.494H488.509L488.168 409.773C488.083 411.619 487.841 413.196 487.444 414.503C487.055 415.8 486.525 416.851 485.853 417.656C485.19 418.461 484.404 419.053 483.495 419.432C482.586 419.811 481.558 420 480.412 420H478.367ZM509.997 420.369C508.605 420.369 507.369 420.137 506.289 419.673C505.219 419.2 504.372 418.49 503.747 417.543C503.131 416.586 502.824 415.388 502.824 413.949C502.824 412.737 503.037 411.714 503.463 410.881C503.889 410.047 504.476 409.37 505.224 408.849C505.972 408.329 506.834 407.936 507.809 407.67C508.785 407.396 509.826 407.211 510.934 407.116C512.175 407.003 513.174 406.884 513.931 406.761C514.689 406.629 515.238 406.444 515.579 406.207C515.93 405.961 516.105 405.616 516.105 405.17V405.099C516.105 404.37 515.854 403.807 515.352 403.409C514.85 403.011 514.173 402.812 513.321 402.812C512.402 402.812 511.663 403.011 511.105 403.409C510.546 403.807 510.191 404.356 510.039 405.057L503.633 404.83C503.823 403.504 504.31 402.32 505.096 401.278C505.892 400.227 506.981 399.403 508.363 398.807C509.755 398.201 511.427 397.898 513.377 397.898C514.77 397.898 516.053 398.063 517.227 398.395C518.401 398.717 519.424 399.19 520.295 399.815C521.166 400.431 521.839 401.188 522.312 402.088C522.795 402.988 523.037 404.015 523.037 405.17V420H516.502V416.96H516.332C515.944 417.699 515.447 418.324 514.841 418.835C514.244 419.347 513.538 419.73 512.724 419.986C511.919 420.241 511.01 420.369 509.997 420.369ZM512.142 415.824C512.89 415.824 513.562 415.672 514.159 415.369C514.765 415.066 515.248 414.65 515.608 414.119C515.967 413.58 516.147 412.955 516.147 412.244V410.17C515.949 410.275 515.707 410.369 515.423 410.455C515.148 410.54 514.845 410.62 514.514 410.696C514.182 410.772 513.842 410.838 513.491 410.895C513.141 410.952 512.805 411.004 512.483 411.051C511.829 411.155 511.27 411.316 510.806 411.534C510.352 411.752 510.002 412.036 509.755 412.386C509.519 412.727 509.4 413.134 509.4 413.608C509.4 414.328 509.656 414.877 510.167 415.256C510.688 415.634 511.346 415.824 512.142 415.824ZM533.434 420.369C532.042 420.369 530.806 420.137 529.727 419.673C528.657 419.2 527.809 418.49 527.184 417.543C526.569 416.586 526.261 415.388 526.261 413.949C526.261 412.737 526.474 411.714 526.9 410.881C527.326 410.047 527.913 409.37 528.662 408.849C529.41 408.329 530.271 407.936 531.247 407.67C532.222 407.396 533.264 407.211 534.372 407.116C535.612 407.003 536.611 406.884 537.369 406.761C538.127 406.629 538.676 406.444 539.017 406.207C539.367 405.961 539.542 405.616 539.542 405.17V405.099C539.542 404.37 539.291 403.807 538.789 403.409C538.288 403.011 537.61 402.812 536.758 402.812C535.84 402.812 535.101 403.011 534.542 403.409C533.984 403.807 533.628 404.356 533.477 405.057L527.071 404.83C527.26 403.504 527.748 402.32 528.534 401.278C529.329 400.227 530.418 399.403 531.801 398.807C533.193 398.201 534.864 397.898 536.815 397.898C538.207 397.898 539.49 398.063 540.664 398.395C541.839 398.717 542.861 399.19 543.733 399.815C544.604 400.431 545.276 401.188 545.75 402.088C546.233 402.988 546.474 404.015 546.474 405.17V420H539.94V416.96H539.77C539.381 417.699 538.884 418.324 538.278 418.835C537.681 419.347 536.976 419.73 536.162 419.986C535.357 420.241 534.448 420.369 533.434 420.369ZM535.579 415.824C536.327 415.824 537 415.672 537.596 415.369C538.202 415.066 538.685 414.65 539.045 414.119C539.405 413.58 539.585 412.955 539.585 412.244V410.17C539.386 410.275 539.145 410.369 538.86 410.455C538.586 410.54 538.283 410.62 537.951 410.696C537.62 410.772 537.279 410.838 536.929 410.895C536.578 410.952 536.242 411.004 535.92 411.051C535.267 411.155 534.708 411.316 534.244 411.534C533.789 411.752 533.439 412.036 533.193 412.386C532.956 412.727 532.838 413.134 532.838 413.608C532.838 414.328 533.093 414.877 533.605 415.256C534.126 415.634 534.784 415.824 535.579 415.824ZM566.105 406.378V411.676H554.912V406.378H566.105ZM557.298 398.182V420H550.721V398.182H557.298ZM570.295 398.182V420H563.761V398.182H570.295ZM601.897 390.227L603.772 394.815C603.175 395.279 602.522 395.63 601.811 395.866C601.111 396.103 600.254 396.264 599.24 396.349C598.227 396.435 596.949 396.482 595.405 396.491C593.663 396.501 592.252 396.742 591.172 397.216C590.093 397.68 589.274 398.442 588.715 399.503C588.166 400.554 587.801 401.955 587.621 403.707H587.806C588.431 402.391 589.321 401.354 590.476 400.597C591.632 399.839 593.123 399.46 594.951 399.46C596.854 399.46 598.511 399.872 599.922 400.696C601.333 401.51 602.422 402.675 603.189 404.19C603.956 405.696 604.34 407.486 604.34 409.56C604.34 411.757 603.9 413.67 603.019 415.298C602.138 416.927 600.879 418.187 599.24 419.077C597.602 419.967 595.642 420.412 593.36 420.412C591.078 420.412 589.113 419.948 587.465 419.02C585.827 418.092 584.562 416.728 583.672 414.929C582.792 413.12 582.351 410.9 582.351 408.267V406.676C582.351 401.278 583.44 397.306 585.618 394.759C587.796 392.211 590.978 390.928 595.164 390.909C596.215 390.9 597.167 390.9 598.019 390.909C598.881 390.909 599.633 390.866 600.277 390.781C600.921 390.687 601.461 390.502 601.897 390.227ZM593.402 415.17C594.198 415.17 594.884 414.957 595.462 414.531C596.04 414.105 596.485 413.494 596.797 412.699C597.11 411.903 597.266 410.947 597.266 409.83C597.266 408.712 597.105 407.76 596.783 406.974C596.471 406.188 596.025 405.592 595.448 405.185C594.87 404.768 594.184 404.56 593.388 404.56C592.782 404.56 592.233 404.678 591.74 404.915C591.248 405.142 590.831 405.483 590.49 405.938C590.15 406.383 589.889 406.932 589.709 407.585C589.529 408.239 589.439 408.987 589.439 409.83C589.439 411.496 589.79 412.803 590.49 413.75C591.191 414.697 592.162 415.17 593.402 415.17ZM614.137 420.369C612.745 420.369 611.51 420.137 610.43 419.673C609.36 419.2 608.512 418.49 607.887 417.543C607.272 416.586 606.964 415.388 606.964 413.949C606.964 412.737 607.177 411.714 607.603 410.881C608.029 410.047 608.617 409.37 609.365 408.849C610.113 408.329 610.975 407.936 611.95 407.67C612.925 407.396 613.967 407.211 615.075 407.116C616.315 407.003 617.315 406.884 618.072 406.761C618.83 406.629 619.379 406.444 619.72 406.207C620.07 405.961 620.245 405.616 620.245 405.17V405.099C620.245 404.37 619.994 403.807 619.493 403.409C618.991 403.011 618.314 402.812 617.461 402.812C616.543 402.812 615.804 403.011 615.245 403.409C614.687 403.807 614.332 404.356 614.18 405.057L607.774 404.83C607.963 403.504 608.451 402.32 609.237 401.278C610.032 400.227 611.121 399.403 612.504 398.807C613.896 398.201 615.567 397.898 617.518 397.898C618.91 397.898 620.193 398.063 621.368 398.395C622.542 398.717 623.565 399.19 624.436 399.815C625.307 400.431 625.979 401.188 626.453 402.088C626.936 402.988 627.177 404.015 627.177 405.17V420H620.643V416.96H620.473C620.084 417.699 619.587 418.324 618.981 418.835C618.385 419.347 617.679 419.73 616.865 419.986C616.06 420.241 615.151 420.369 614.137 420.369ZM616.282 415.824C617.03 415.824 617.703 415.672 618.299 415.369C618.905 415.066 619.388 414.65 619.748 414.119C620.108 413.58 620.288 412.955 620.288 412.244V410.17C620.089 410.275 619.848 410.369 619.564 410.455C619.289 410.54 618.986 410.62 618.654 410.696C618.323 410.772 617.982 410.838 617.632 410.895C617.281 410.952 616.945 411.004 616.623 411.051C615.97 411.155 615.411 411.316 614.947 411.534C614.493 411.752 614.142 412.036 613.896 412.386C613.659 412.727 613.541 413.134 613.541 413.608C613.541 414.328 613.797 414.877 614.308 415.256C614.829 415.634 615.487 415.824 616.282 415.824ZM631.424 428.182V398.182H638.299V401.918H638.512C638.797 401.255 639.199 400.616 639.72 400C640.25 399.384 640.922 398.883 641.737 398.494C642.561 398.097 643.546 397.898 644.691 397.898C646.207 397.898 647.622 398.295 648.939 399.091C650.264 399.886 651.334 401.113 652.149 402.77C652.963 404.427 653.37 406.539 653.37 409.105C653.37 411.577 652.977 413.646 652.191 415.312C651.415 416.979 650.364 418.229 649.038 419.062C647.722 419.896 646.259 420.312 644.649 420.312C643.55 420.312 642.599 420.133 641.794 419.773C640.989 419.413 640.312 418.939 639.762 418.352C639.223 417.765 638.806 417.135 638.512 416.463H638.37V428.182H631.424ZM638.228 409.091C638.228 410.265 638.385 411.288 638.697 412.159C639.019 413.03 639.478 413.707 640.075 414.19C640.681 414.664 641.405 414.901 642.248 414.901C643.1 414.901 643.825 414.664 644.422 414.19C645.018 413.707 645.468 413.03 645.771 412.159C646.083 411.288 646.24 410.265 646.24 409.091C646.24 407.917 646.083 406.899 645.771 406.037C645.468 405.175 645.018 404.508 644.422 404.034C643.834 403.561 643.11 403.324 642.248 403.324C641.396 403.324 640.672 403.556 640.075 404.02C639.478 404.484 639.019 405.147 638.697 406.009C638.385 406.87 638.228 407.898 638.228 409.091ZM663.161 420.369C661.769 420.369 660.533 420.137 659.453 419.673C658.383 419.2 657.536 418.49 656.911 417.543C656.295 416.586 655.988 415.388 655.988 413.949C655.988 412.737 656.201 411.714 656.627 410.881C657.053 410.047 657.64 409.37 658.388 408.849C659.136 408.329 659.998 407.936 660.973 407.67C661.949 407.396 662.99 407.211 664.098 407.116C665.339 407.003 666.338 406.884 667.096 406.761C667.853 406.629 668.402 406.444 668.743 406.207C669.094 405.961 669.269 405.616 669.269 405.17V405.099C669.269 404.37 669.018 403.807 668.516 403.409C668.014 403.011 667.337 402.812 666.485 402.812C665.566 402.812 664.828 403.011 664.269 403.409C663.71 403.807 663.355 404.356 663.203 405.057L656.797 404.83C656.987 403.504 657.474 402.32 658.26 401.278C659.056 400.227 660.145 399.403 661.527 398.807C662.919 398.201 664.591 397.898 666.542 397.898C667.934 397.898 669.217 398.063 670.391 398.395C671.565 398.717 672.588 399.19 673.459 399.815C674.33 400.431 675.003 401.188 675.476 402.088C675.959 402.988 676.201 404.015 676.201 405.17V420H669.667V416.96H669.496C669.108 417.699 668.611 418.324 668.005 418.835C667.408 419.347 666.703 419.73 665.888 419.986C665.083 420.241 664.174 420.369 663.161 420.369ZM665.306 415.824C666.054 415.824 666.726 415.672 667.323 415.369C667.929 415.066 668.412 414.65 668.772 414.119C669.132 413.58 669.311 412.955 669.311 412.244V410.17C669.113 410.275 668.871 410.369 668.587 410.455C668.312 410.54 668.009 410.62 667.678 410.696C667.346 410.772 667.006 410.838 666.655 410.895C666.305 410.952 665.969 411.004 665.647 411.051C664.993 411.155 664.435 411.316 663.971 411.534C663.516 411.752 663.166 412.036 662.919 412.386C662.683 412.727 662.564 413.134 662.564 413.608C662.564 414.328 662.82 414.877 663.331 415.256C663.852 415.634 664.51 415.824 665.306 415.824ZM695.874 398.182V403.494H687.167V420H680.448V398.182H695.874ZM303.076 446.182L306.669 453.369L310.391 446.182H317.394L311.3 457.091L317.621 468H310.675L306.669 460.756L302.763 468H295.718L302.053 457.091L296.03 446.182H303.076ZM318.818 446.182H325.778L329.514 460.77L333.051 446.182H339.954L332.653 467.915V476.182H326.119V467.915L318.818 446.182ZM342.596 476.182V446.182H349.471V449.918H349.684C349.968 449.255 350.371 448.616 350.892 448C351.422 447.384 352.094 446.883 352.909 446.494C353.733 446.097 354.717 445.898 355.863 445.898C357.378 445.898 358.794 446.295 360.11 447.091C361.436 447.886 362.506 449.113 363.321 450.77C364.135 452.427 364.542 454.539 364.542 457.105C364.542 459.577 364.149 461.646 363.363 463.312C362.587 464.979 361.536 466.229 360.21 467.062C358.894 467.896 357.431 468.312 355.821 468.312C354.722 468.312 353.77 468.133 352.966 467.773C352.161 467.413 351.484 466.939 350.934 466.352C350.395 465.765 349.978 465.135 349.684 464.463H349.542V476.182H342.596ZM349.4 457.091C349.4 458.265 349.556 459.288 349.869 460.159C350.191 461.03 350.65 461.707 351.247 462.19C351.853 462.664 352.577 462.901 353.42 462.901C354.272 462.901 354.997 462.664 355.593 462.19C356.19 461.707 356.64 461.03 356.943 460.159C357.255 459.288 357.412 458.265 357.412 457.091C357.412 455.917 357.255 454.899 356.943 454.037C356.64 453.175 356.19 452.508 355.593 452.034C355.006 451.561 354.282 451.324 353.42 451.324C352.568 451.324 351.843 451.556 351.247 452.02C350.65 452.484 350.191 453.147 349.869 454.009C349.556 454.87 349.4 455.898 349.4 457.091ZM366.676 474.435V462.645H368.31C368.802 462.399 369.195 461.925 369.489 461.224C369.783 460.514 370.015 459.686 370.185 458.739C370.365 457.782 370.498 456.788 370.583 455.756C370.677 454.714 370.763 453.734 370.838 452.815L371.35 446.182H389.02V462.645H392.429V474.435H385.838V468H373.438V474.435H366.676ZM375.071 462.645H382.543V451.352H377.145L377.032 452.815C376.899 455.164 376.691 457.134 376.407 458.724C376.123 460.315 375.677 461.622 375.071 462.645ZM403.995 451.253C403.333 451.253 402.774 451.366 402.319 451.594C401.865 451.821 401.524 452.143 401.297 452.56C401.079 452.976 400.97 453.483 400.97 454.08H394.805C394.805 452.82 395.032 451.684 395.487 450.67C395.941 449.648 396.581 448.777 397.404 448.057C398.238 447.328 399.213 446.774 400.331 446.395C401.448 446.007 402.67 445.812 403.995 445.812C406.259 445.812 408.157 446.295 409.691 447.261C411.235 448.227 412.4 449.548 413.186 451.224C413.972 452.891 414.365 454.78 414.365 456.892V457.318C414.365 459.439 413.976 461.338 413.2 463.014C412.423 464.681 411.263 465.997 409.72 466.963C408.186 467.92 406.278 468.398 403.995 468.398C402.177 468.398 400.577 468.052 399.194 467.361C397.821 466.67 396.746 465.666 395.97 464.349C395.193 463.033 394.805 461.438 394.805 459.562H400.97C400.97 460.178 401.079 460.741 401.297 461.253C401.514 461.755 401.846 462.157 402.291 462.46C402.745 462.754 403.314 462.905 403.995 462.915C405.065 462.905 405.87 462.612 406.41 462.034C406.959 461.456 407.324 460.737 407.504 459.875C407.693 459.013 407.788 458.161 407.788 457.318V456.892C407.788 455.926 407.689 455.017 407.49 454.165C407.3 453.303 406.931 452.602 406.382 452.062C405.842 451.523 405.047 451.253 403.995 451.253ZM409.649 455.259V458.98H402.561V455.259H409.649ZM433.374 446.182V451.494H424.667V468H417.948V446.182H433.374ZM452.085 446.182V451.494H443.377V468H436.659V446.182H452.085ZM453.623 446.182H460.583L464.319 460.77L467.855 446.182H474.759L467.458 467.915V476.182H460.924V467.915L453.623 446.182ZM483.978 459.009L490.952 446.182H497.628V468H491.051V455.131L484.091 468H477.401V446.182H483.978V459.009ZM490.327 438.455H494.901C494.891 440.235 494.219 441.665 492.884 442.744C491.558 443.824 489.759 444.364 487.486 444.364C485.213 444.364 483.409 443.824 482.074 442.744C480.748 441.665 480.09 440.235 480.1 438.455H484.631C484.622 439.08 484.835 439.648 485.27 440.159C485.706 440.67 486.444 440.926 487.486 440.926C488.499 440.926 489.224 440.675 489.659 440.173C490.095 439.671 490.318 439.098 490.327 438.455ZM505.956 468.412C504.933 468.412 504.057 468.052 503.328 467.332C502.608 466.613 502.253 465.741 502.262 464.719C502.253 463.715 502.608 462.858 503.328 462.148C504.057 461.428 504.933 461.068 505.956 461.068C506.922 461.068 507.774 461.428 508.512 462.148C509.261 462.858 509.639 463.715 509.649 464.719C509.639 465.401 509.459 466.021 509.109 466.58C508.768 467.138 508.318 467.583 507.76 467.915C507.21 468.246 506.609 468.412 505.956 468.412Z" fill="white"/>
<circle cx="794.5" cy="79.5" r="55" fill="white" stroke="#FF6DFE" stroke-width="3"/>
<path d="M783.71 47.9091L793.773 68.0341L804.193 47.9091H823.801L806.739 78.4545L824.438 109H804.989L793.773 88.7159L782.835 109H763.108L780.847 78.4545L763.983 47.9091H783.71Z" fill="black" fill-opacity="0.96"/>
<defs>
<filter id="filter0_ddii_403_94" x="0" y="32" width="845" height="483" filterUnits="userSpaceOnUse" color-interpolation-filters="sRGB">
<feFlood flood-opacity="0" result="BackgroundImageFix"/>
<feColorMatrix in="SourceAlpha" type="matrix" values="0 0 0 0 0 0 0 0 0 0 0 0 0 0 0 0 0 0 127 0" result="hardAlpha"/>
<feMorphology radius="5" operator="dilate" in="SourceAlpha" result="effect1_dropShadow_403_94"/>
<feOffset dx="-10" dy="-10"/>
<feGaussianBlur stdDeviation="2.5"/>
<feComposite in2="hardAlpha" operator="out"/>
<feColorMatrix type="matrix" values="0 0 0 0 0.133333 0 0 0 0 0.0117647 0 0 0 0 0.396078 0 0 0 0.25 0"/>
<feBlend mode="normal" in2="BackgroundImageFix" result="effect1_dropShadow_403_94"/>
<feColorMatrix in="SourceAlpha" type="matrix" values="0 0 0 0 0 0 0 0 0 0 0 0 0 0 0 0 0 0 127 0" result="hardAlpha"/>
<feMorphology radius="5" operator="dilate" in="SourceAlpha" result="effect2_dropShadow_403_94"/>
<feOffset dx="10" dy="10"/>
<feGaussianBlur stdDeviation="2.5"/>
<feComposite in2="hardAlpha" operator="out"/>
<feColorMatrix type="matrix" values="0 0 0 0 0.133941 0 0 0 0 0.0133056 0 0 0 0 0.395808 0 0 0 0.25 0"/>
<feBlend mode="normal" in2="effect1_dropShadow_403_94" result="effect2_dropShadow_403_94"/>
<feBlend mode="normal" in="SourceGraphic" in2="effect2_dropShadow_403_94" result="shape"/>
<feColorMatrix in="SourceAlpha" type="matrix" values="0 0 0 0 0 0 0 0 0 0 0 0 0 0 0 0 0 0 127 0" result="hardAlpha"/>
<feMorphology radius="5" operator="erode" in="SourceAlpha" result="effect3_innerShadow_403_94"/>
<feOffset dx="-10" dy="-10"/>
<feGaussianBlur stdDeviation="2.5"/>
<feComposite in2="hardAlpha" operator="arithmetic" k2="-1" k3="1"/>
<feColorMatrix type="matrix" values="0 0 0 0 0.509804 0 0 0 0 0.337255 0 0 0 0 0.721569 0 0 0 0.16 0"/>
<feBlend mode="normal" in2="shape" result="effect3_innerShadow_403_94"/>
<feColorMatrix in="SourceAlpha" type="matrix" values="0 0 0 0 0 0 0 0 0 0 0 0 0 0 0 0 0 0 127 0" result="hardAlpha"/>
<feMorphology radius="5" operator="erode" in="SourceAlpha" result="effect4_innerShadow_403_94"/>
<feOffset dx="10" dy="10"/>
<feGaussianBlur stdDeviation="2.5"/>
<feComposite in2="hardAlpha" operator="arithmetic" k2="-1" k3="1"/>
<feColorMatrix type="matrix" values="0 0 0 0 0.505882 0 0 0 0 0.329412 0 0 0 0 0.72549 0 0 0 0.16 0"/>
<feBlend mode="normal" in2="effect3_innerShadow_403_94" result="effect4_innerShadow_403_94"/>
</filter>
</defs>
</svg>
