<svg width="2643" height="1624" viewBox="0 0 2643 1624" fill="none" xmlns="http://www.w3.org/2000/svg">
<path d="M526.293 1316.89C443.128 1354.81 364.865 1358.21 291.554 1327.16H291.503C285.209 1324.53 278.915 1321.58 272.672 1318.39C255.957 1309.82 247.857 1290.42 253.996 1272.68L277.521 1204.89H522.887L545.742 1270.82C552.037 1288.88 543.679 1308.94 526.293 1316.89Z" fill="#9595B5"/>
<path d="M159.805 944.99L37.2872 1010.33C23.9982 1017.41 15.6973 1031.25 15.6973 1046.31V1125.34C15.6973 1147.43 33.2713 1165.49 55.3433 1166.11L215.891 1170.57" fill="#FB132B"/>
<g opacity="0.55">
<path d="M167.684 976.802L65.3273 1031.39C52.0683 1038.51 43.7623 1052.33 43.7623 1067.4V1146.43C43.7623 1153.19 45.4132 1159.64 48.3542 1165.26C29.6782 1161.5 15.6973 1145.04 15.6973 1125.33V1046.3C15.6973 1031.23 24.0033 1017.4 37.2623 1010.34L159.79 944.97L167.684 976.802Z" fill="white"/>
</g>
<path d="M788.168 1046.3V1125.33C788.168 1147.41 770.576 1165.47 748.546 1166.09L587.995 1170.58L622.406 1032.06L644.074 944.971L765.932 1009.98L766.603 1010.34C779.861 1017.4 788.168 1031.23 788.168 1046.3Z" fill="#FB132B"/>
<g opacity="0.3">
<path d="M788.168 1046.29V1125.33C788.168 1147.41 770.576 1165.47 748.546 1166.09L587.995 1170.58L622.406 1032.06L625.295 1022.46C680.549 1150.1 726.104 1126.11 765.932 1009.98L766.603 1010.34C779.861 1017.4 788.168 1031.23 788.168 1046.29Z" fill="#371A45"/>
</g>
<path d="M393.58 1363.08C349.471 1363.08 306.798 1352.63 265.848 1331.72C242.506 1319.81 231.327 1292.31 239.849 1267.75L263.367 1199.98C266.082 1192.15 274.617 1187.99 282.454 1190.73C290.281 1193.44 294.424 1201.98 291.707 1209.81L268.189 1277.58C264.551 1288.07 269.41 1299.86 279.488 1305C354.637 1343.37 433.328 1342.79 520.074 1303.23C530.262 1298.59 535.313 1286.51 531.573 1275.72L508.702 1209.81C505.985 1201.98 510.128 1193.44 517.955 1190.72C525.777 1188 534.327 1192.15 537.042 1199.98L559.913 1265.89C568.822 1291.55 557.044 1319.34 532.523 1330.53C484.943 1352.23 438.517 1363.08 393.58 1363.08Z" fill="#371A45"/>
<path d="M215.899 1185.57C215.757 1185.57 215.616 1185.57 215.474 1185.56L54.9253 1181.1C24.5173 1180.26 0.696289 1155.77 0.696289 1125.34V1046.31C0.696289 1025.67 12.0123 1006.8 30.2273 997.091L152.747 931.754C160.052 927.862 169.141 930.626 173.04 937.931C176.939 945.245 174.173 954.327 166.863 958.229L44.3433 1023.57C35.9253 1028.05 30.6963 1036.77 30.6963 1046.31V1125.34C30.6963 1139.41 41.7043 1150.72 55.7573 1151.11L216.309 1155.57C224.59 1155.8 231.116 1162.7 230.887 1170.98C230.66 1179.12 223.99 1185.57 215.899 1185.57Z" fill="#371A45"/>
<path d="M587.97 1185.57C579.877 1185.57 573.209 1179.12 572.982 1170.98C572.752 1162.7 579.278 1155.8 587.56 1155.57L748.107 1151.11C762.162 1150.72 773.171 1139.41 773.171 1125.34V1046.31C773.171 1036.77 767.942 1028.05 759.523 1023.57L637.006 958.229C629.696 954.328 626.93 945.241 630.829 937.931C634.725 930.626 643.812 927.868 651.122 931.754L773.639 997.091C791.854 1006.8 803.17 1025.66 803.17 1046.31V1125.34C803.17 1155.77 779.349 1180.26 748.939 1181.1L588.395 1185.56C588.253 1185.57 588.109 1185.57 587.97 1185.57Z" fill="#371A45"/>
<path d="M595.579 1153.86C588.821 1177.9 568.958 1196.06 544.452 1200.81C440.909 1220.78 346.343 1219.38 258.793 1201.33C234.855 1196.37 215.715 1178.21 209.059 1154.69C207.976 1150.87 206.892 1147.05 205.912 1143.29H205.86C117.846 826.466 108.302 559.586 177.175 342.647C213.237 229.147 270.761 129.37 349.747 43.2142C378.019 12.3622 426.359 12.3622 454.683 43.2142C470.676 60.6522 485.844 78.7092 500.083 97.2812C556.111 170.385 598.467 252.157 627.203 342.647C696.903 561.959 686.379 832.399 595.579 1153.86Z" fill="#F6F6F6"/>
<path d="M627.205 342.646C505.811 442.733 269.783 440.153 177.177 342.646C213.239 229.146 270.763 129.369 349.749 43.2132C378.021 12.3612 426.361 12.3612 454.685 43.2132C533.671 129.37 591.195 229.146 627.205 342.646Z" fill="#FB132B"/>
<g opacity="0.55">
<path d="M503.799 102.233C496.783 93.8752 489.56 85.7242 482.182 77.6242C453.859 46.7732 405.518 46.7732 377.246 77.6242C300.324 161.511 243.78 258.296 207.615 368.132C196.317 360.497 186.05 352.036 177.176 342.646C213.238 229.146 270.762 129.369 349.748 43.2132C378.02 12.3612 426.36 12.3612 454.684 43.2132C472.123 62.1982 488.529 81.9062 503.799 102.233Z" fill="white"/>
</g>
<g opacity="0.3">
<path d="M595.579 1153.86C588.821 1177.9 568.958 1196.06 544.452 1200.81C440.909 1220.78 346.343 1219.38 258.793 1201.33C234.855 1196.37 215.715 1178.21 209.059 1154.69C207.976 1150.87 206.892 1147.05 205.912 1143.29C659.654 919.949 499.928 97.1772 499.928 97.1772L500.083 97.2803C556.111 170.384 598.467 252.156 627.203 342.646C696.903 561.959 686.379 832.399 595.579 1153.86Z" fill="#371A45"/>
</g>
<path d="M397.318 1235.23C348.695 1235.23 301.07 1230.45 254.747 1220.9C223.455 1214.45 198.57 1191.17 189.803 1160.14C120.386 914.582 97.1965 695.227 120.873 508.166C144.74 319.597 216.781 158.615 334.992 29.7041C352.253 10.8761 376.747 0.0800781 402.197 0.0800781C427.649 0.0800781 452.145 10.8761 469.408 29.7041C587.552 158.547 659.579 319.421 683.485 507.853C707.201 694.777 684.1 913.961 614.828 1159.32C605.939 1190.8 580.419 1214.22 548.226 1220.43C497.15 1230.3 446.717 1235.23 397.318 1235.23ZM402.198 40.0801C387.718 40.0801 374.322 45.9931 364.474 56.7351C138.764 302.882 92.9465 670.461 228.295 1149.26C232.987 1165.86 246.217 1178.3 262.829 1181.72C352.263 1200.17 443.139 1199.99 540.646 1181.15C557.643 1177.87 571.65 1165.04 576.333 1148.45C711.404 670.055 665.51 302.751 439.927 56.7351C430.078 45.9931 416.678 40.0801 402.198 40.0801Z" fill="#371A45"/>
<path d="M162.835 961.222C113.72 964.936 74.2016 908.96 58.8276 840.293C55.4226 825.022 53.1526 809.081 52.2756 793.087C49.2316 739.02 71.3636 686.603 111.708 650.49L132.087 632.33L133.532 725.245C177.642 722.614 208.132 743.663 225.725 774.205V774.257C264.211 840.912 240.944 952.606 162.835 961.222Z" fill="#F6F6F6"/>
<path d="M158.26 981.374C137.244 981.374 116.759 973.103 98.6651 957.243C61.4971 924.66 36.0601 862.189 32.2831 794.211C28.9361 733.962 53.0331 676.149 98.3911 635.593L118.75 617.4C124.585 612.18 132.925 610.852 140.105 613.992C147.275 617.137 151.953 624.173 152.075 632L153.218 705.55C222.244 711.756 258.186 770.804 263.289 831.175C268.938 897.977 236.421 973.216 165.035 981.077C164.81 981.101 164.586 981.126 164.361 981.14C162.323 981.296 160.289 981.374 158.26 981.374ZM112.779 677.614C84.5151 708.884 69.8711 749.699 72.2201 791.994C75.3261 847.873 96.5511 902.194 125.033 927.165C136.666 937.36 148.766 942.038 161.002 941.281C206.969 935.959 227.479 882.385 223.434 834.543C219.762 791.13 194.381 741.608 134.701 745.202C129.235 745.515 123.915 743.605 119.916 739.894C115.917 736.183 113.61 731.002 113.524 725.548L112.779 677.614Z" fill="#371A45"/>
<path d="M140.769 743.876L104.506 743.605C100.58 743.576 97.4204 740.368 97.4494 736.442C97.4644 734.413 98.3454 732.572 99.7174 731.286L126.274 706.594C134.979 698.501 148.596 698.996 156.69 707.7C164.784 716.404 164.289 730.022 155.584 738.115C151.409 741.999 146.053 743.903 140.769 743.876Z" fill="#371A45"/>
<path d="M400.953 1254.86H398.832C380.422 1254.86 365.499 1239.94 365.499 1221.53V994.709C365.499 976.3 380.423 961.376 398.832 961.376H400.953C419.362 961.376 434.286 976.3 434.286 994.709V1221.53C434.286 1239.94 419.362 1254.86 400.953 1254.86Z" fill="#FB132B"/>
<g opacity="0.55">
<path d="M425.484 972.83C424.504 972.727 423.472 972.675 422.44 972.675C403.454 972.675 388.08 988.049 388.08 1007.03V1231.76C388.08 1240.59 391.434 1248.69 396.954 1254.72C379.31 1253.23 365.483 1238.47 365.483 1220.47V995.788C365.483 976.751 380.909 961.377 399.894 961.377C409.387 961.377 418.002 965.195 424.245 971.437C424.71 971.901 425.122 972.365 425.484 972.83Z" fill="white"/>
</g>
<path d="M400.953 1267.36H398.831C373.56 1267.36 352.999 1246.8 352.999 1221.52V994.709C352.999 969.436 373.56 948.874 398.831 948.874H400.953C426.224 948.874 446.785 969.436 446.785 994.709V1221.52C446.786 1246.8 426.224 1267.36 400.953 1267.36ZM398.832 973.874C387.345 973.874 378 983.22 378 994.709V1221.52C378 1233.01 387.346 1242.36 398.832 1242.36H400.954C412.441 1242.36 421.786 1233.01 421.786 1221.52V994.709C421.786 983.22 412.44 973.874 400.954 973.874H398.832Z" fill="#371A45"/>
<path d="M412.858 818.057C491.214 818.057 554.733 754.538 554.733 676.182C554.733 597.827 491.214 534.307 412.858 534.307C334.503 534.307 270.983 597.827 270.983 676.182C270.983 754.538 334.503 818.057 412.858 818.057Z" fill="#FB132B"/>
<g opacity="0.3">
<path d="M554.719 676.182C554.719 754.549 491.211 818.057 412.844 818.057C349.336 818.057 295.578 776.32 277.521 718.796C303.523 749.544 342.372 769.046 385.811 769.046C464.178 769.046 527.686 705.538 527.686 627.171C527.686 612.313 525.416 598.022 521.134 584.557C542.08 609.268 554.719 641.255 554.719 676.182Z" fill="#371A45"/>
</g>
<g opacity="0.55">
<path d="M535.27 604.47C509.32 575.785 471.762 557.78 430.076 557.78C351.709 557.78 288.201 621.288 288.201 699.655C288.201 725.863 295.321 750.472 307.754 771.521C284.899 746.345 270.97 712.914 270.97 676.181C270.97 597.814 334.478 534.306 412.845 534.306C465.055 534.307 510.661 562.475 535.27 604.47Z" fill="white"/>
</g>
<path d="M412.858 828.059C329.113 828.059 260.983 759.929 260.983 676.184C260.983 592.439 329.113 524.309 412.858 524.309C496.603 524.309 564.733 592.439 564.733 676.184C564.733 759.929 496.603 828.059 412.858 828.059ZM412.858 544.309C340.141 544.309 280.983 603.469 280.983 676.184C280.983 748.899 340.141 808.059 412.858 808.059C485.575 808.059 544.733 748.899 544.733 676.184C544.733 603.469 485.575 544.309 412.858 544.309Z" fill="#371A45"/>
<path d="M474.854 738.192C509.105 703.942 509.105 648.411 474.854 614.16C440.604 579.909 385.072 579.909 350.822 614.16C316.571 648.411 316.571 703.942 350.822 738.192C385.072 772.443 440.604 772.443 474.854 738.192Z" fill="#09CBFF"/>
<g opacity="0.3">
<path d="M499.363 661.943C483.782 637.592 456.491 621.444 425.433 621.444C376.989 621.444 337.729 660.705 337.729 709.149C337.729 713.998 338.142 718.693 338.916 723.337C330.197 709.717 325.141 693.569 325.141 676.183C325.141 627.739 364.402 588.479 412.846 588.479C456.439 588.477 492.604 620.257 499.363 661.943Z" fill="#232323"/>
</g>
<path d="M412.858 773.889C358.983 773.889 315.153 730.061 315.153 676.184C315.153 622.307 358.984 578.479 412.858 578.479C466.733 578.479 510.563 622.307 510.563 676.184C510.563 730.061 466.732 773.889 412.858 773.889ZM412.858 598.479C370.011 598.479 335.153 633.337 335.153 676.184C335.153 719.031 370.011 753.889 412.858 753.889C455.705 753.889 490.563 719.031 490.563 676.184C490.563 633.337 455.704 598.479 412.858 598.479Z" fill="#371A45"/>
<path d="M392.816 433.786C302.069 433.786 214.542 407.385 164.505 354.684C157.85 347.672 158.138 336.598 165.147 329.943C172.156 323.292 183.233 323.576 189.886 330.583C276.973 422.316 504.002 421.535 616.068 329.133C623.529 322.981 634.559 324.045 640.702 331.501C646.852 338.957 645.792 349.987 638.334 356.135C575.521 407.932 482.591 433.786 392.816 433.786Z" fill="#371A45"/>
<g opacity="0.3">
<path d="M162.834 961.222C113.719 964.936 74.2011 908.96 58.8271 840.293C151.948 907.361 195.801 857.318 225.724 774.257C264.21 840.912 240.943 952.606 162.834 961.222Z" fill="#371A45"/>
</g>
<g opacity="0.3">
<path d="M526.293 1316.89C443.128 1354.81 364.865 1358.21 291.554 1327.16C375.183 1333.14 423.266 1232.07 423.266 1232.07L454.272 1204.89H522.888L545.743 1270.82C552.037 1288.88 543.679 1308.94 526.293 1316.89Z" fill="#371A45"/>
</g>
<path d="M2116.82 1576.95C2199.99 1614.87 2278.25 1618.28 2351.56 1587.22H2351.61C2357.91 1584.59 2364.2 1581.65 2370.44 1578.45C2387.16 1569.88 2395.26 1550.49 2389.12 1532.74L2365.59 1464.95H2120.23L2097.37 1530.88C2091.08 1548.94 2099.44 1569.01 2116.82 1576.95Z" fill="#9595B5"/>
<path d="M2483.31 1205.05L2605.83 1270.39C2619.12 1277.48 2627.42 1291.31 2627.42 1306.37V1385.41C2627.42 1407.49 2609.84 1425.56 2587.77 1426.17L2427.22 1430.63" fill="#FB132B"/>
<g opacity="0.55">
<path d="M2475.43 1236.86L2577.79 1291.45C2591.05 1298.57 2599.35 1312.39 2599.35 1327.46V1406.49C2599.35 1413.25 2597.7 1419.7 2594.76 1425.33C2613.44 1421.56 2627.42 1405.1 2627.42 1385.39V1306.36C2627.42 1291.29 2619.11 1277.47 2605.85 1270.4L2483.32 1205.03L2475.43 1236.86Z" fill="white"/>
</g>
<path d="M1854.95 1306.36V1385.4C1854.95 1407.48 1872.54 1425.53 1894.57 1426.15L2055.12 1430.64L2020.71 1292.12L1999.04 1205.04L1877.18 1270.04L1876.51 1270.4C1863.25 1277.47 1854.95 1291.29 1854.95 1306.36Z" fill="#FB132B"/>
<g opacity="0.3">
<path d="M1854.95 1306.36V1385.4C1854.95 1407.48 1872.54 1425.53 1894.57 1426.15L2055.12 1430.64L2020.71 1292.12L2017.82 1282.52C1962.57 1410.16 1917.01 1386.17 1877.18 1270.04L1876.51 1270.4C1863.25 1277.47 1854.95 1291.29 1854.95 1306.36Z" fill="#371A45"/>
</g>
<path d="M2249.53 1623.15C2204.6 1623.15 2158.18 1612.3 2110.59 1590.59C2086.07 1579.41 2074.29 1551.62 2083.2 1525.95L2106.07 1460.04C2108.79 1452.21 2117.32 1448.06 2125.16 1450.79C2132.99 1453.5 2137.13 1462.05 2134.41 1469.87L2111.54 1535.79C2107.8 1546.56 2112.85 1558.65 2123.04 1563.3C2209.79 1602.86 2288.48 1603.43 2363.62 1565.06C2373.7 1559.92 2378.56 1548.13 2374.92 1537.65L2351.41 1469.87C2348.69 1462.05 2352.83 1453.5 2360.66 1450.79C2368.48 1448.05 2377.03 1452.21 2379.75 1460.04L2403.26 1527.81C2411.79 1552.37 2400.61 1579.87 2377.26 1591.78C2336.32 1612.69 2293.64 1623.14 2249.53 1623.15Z" fill="#371A45"/>
<path d="M2427.21 1445.63C2419.12 1445.63 2412.45 1439.19 2412.23 1431.05C2412 1422.77 2418.52 1415.87 2426.8 1415.64L2587.35 1411.17C2601.41 1410.79 2612.42 1399.47 2612.42 1385.41V1306.37C2612.42 1296.83 2607.19 1288.12 2598.77 1283.63L2476.25 1218.29C2468.94 1214.39 2466.17 1205.3 2470.07 1197.99C2473.97 1190.69 2483.06 1187.93 2490.37 1191.82L2612.88 1257.15C2631.1 1266.87 2642.42 1285.72 2642.42 1306.37V1385.41C2642.42 1415.83 2618.6 1440.32 2588.19 1441.16L2427.64 1445.63C2427.5 1445.63 2427.35 1445.63 2427.21 1445.63Z" fill="#371A45"/>
<path d="M2055.14 1445.63C2055 1445.63 2054.86 1445.63 2054.72 1445.63L1894.17 1441.16C1863.76 1440.32 1839.94 1415.83 1839.94 1385.41V1306.37C1839.94 1285.73 1851.26 1266.87 1869.48 1257.15L1991.99 1191.82C1999.29 1187.93 2008.39 1190.69 2012.29 1197.99C2016.18 1205.3 2013.42 1214.39 2006.11 1218.29L1883.59 1283.63C1875.17 1288.12 1869.94 1296.83 1869.94 1306.37V1385.41C1869.94 1399.47 1880.95 1410.79 1895 1411.17L2055.55 1415.64C2063.84 1415.87 2070.36 1422.77 2070.13 1431.05C2069.91 1439.19 2063.24 1445.63 2055.14 1445.63Z" fill="#371A45"/>
<path d="M2047.53 1413.93C2054.29 1437.97 2074.16 1456.13 2098.66 1460.87C2202.21 1480.84 2296.77 1479.45 2384.32 1461.39C2408.26 1456.44 2427.4 1438.28 2434.05 1414.75C2435.14 1410.93 2436.22 1407.12 2437.2 1403.35H2437.25C2525.27 1086.53 2534.81 819.65 2465.94 602.711C2429.88 489.211 2372.35 389.434 2293.37 303.277C2265.09 272.425 2216.75 272.425 2188.43 303.277C2172.44 320.715 2157.27 338.772 2143.03 357.344C2087 430.448 2044.65 512.22 2015.91 602.71C1946.21 822.023 1956.74 1092.46 2047.53 1413.93Z" fill="#F6F6F6"/>
<path d="M2015.91 602.71C2137.3 702.796 2373.33 700.217 2465.94 602.71C2429.88 489.21 2372.35 389.433 2293.37 303.276C2265.09 272.424 2216.75 272.424 2188.43 303.276C2109.45 389.434 2051.92 489.21 2015.91 602.71Z" fill="#FB132B"/>
<g opacity="0.55">
<path d="M2139.32 362.297C2146.33 353.939 2153.56 345.788 2160.93 337.688C2189.26 306.837 2237.6 306.837 2265.87 337.688C2342.79 421.575 2399.34 518.36 2435.5 628.196C2446.8 620.561 2457.07 612.1 2465.94 602.71C2429.88 489.21 2372.35 389.433 2293.37 303.276C2265.1 272.424 2216.76 272.424 2188.43 303.276C2170.99 322.262 2154.59 341.97 2139.32 362.297Z" fill="white"/>
</g>
<g opacity="0.3">
<path d="M2047.54 1413.93C2054.29 1437.97 2074.16 1456.13 2098.66 1460.87C2202.21 1480.84 2296.77 1479.45 2384.32 1461.39C2408.26 1456.44 2427.4 1438.28 2434.06 1414.75C2435.14 1410.93 2436.22 1407.12 2437.2 1403.35C1983.46 1180.01 2143.19 357.241 2143.19 357.241L2143.03 357.344C2087 430.448 2044.65 512.22 2015.91 602.71C1946.21 822.023 1956.74 1092.46 2047.54 1413.93Z" fill="#371A45"/>
</g>
<path d="M2245.81 1495.29C2196.4 1495.29 2145.98 1490.36 2094.88 1480.49C2062.69 1474.28 2037.17 1450.87 2028.28 1419.38C1959.01 1174.03 1935.91 954.841 1959.63 767.917C1983.53 579.484 2055.56 418.61 2173.71 289.767C2190.97 270.939 2215.46 260.143 2240.91 260.143C2266.36 260.143 2290.86 270.939 2308.12 289.767C2426.33 418.678 2498.37 579.66 2522.24 768.229C2545.91 955.29 2522.72 1174.64 2453.31 1420.2C2444.54 1451.23 2419.66 1474.51 2388.37 1480.96C2342.06 1490.51 2294.42 1495.29 2245.81 1495.29ZM2066.78 1408.51C2071.46 1425.1 2085.47 1437.94 2102.47 1441.22C2199.98 1460.05 2290.86 1460.24 2380.29 1441.78C2396.9 1438.36 2410.13 1425.92 2414.82 1409.32C2550.17 930.524 2504.35 562.946 2278.64 316.799C2268.79 306.057 2255.39 300.144 2240.92 300.144C2226.44 300.144 2213.04 306.057 2203.19 316.799C1977.61 562.814 1931.71 930.119 2066.78 1408.51Z" fill="#371A45"/>
<path d="M2480.28 1221.28C2529.39 1225 2568.91 1169.02 2584.29 1100.36C2587.69 1085.08 2589.96 1069.14 2590.84 1053.15C2593.88 999.082 2571.75 946.665 2531.41 910.552L2511.03 892.393L2509.58 985.308C2465.47 982.677 2434.98 1003.73 2417.39 1034.27V1034.32C2378.9 1100.97 2402.17 1212.67 2480.28 1221.28Z" fill="#F6F6F6"/>
<path d="M2484.85 1241.44C2482.82 1241.44 2480.79 1241.36 2478.75 1241.2C2478.53 1241.19 2478.3 1241.16 2478.08 1241.14C2406.69 1233.28 2374.17 1158.04 2379.82 1091.24C2384.93 1030.87 2420.88 971.825 2489.89 965.614L2491.04 892.064C2491.16 884.237 2495.84 877.201 2503.01 874.056C2510.18 870.916 2518.53 872.244 2524.36 877.469L2544.72 895.667C2590.08 936.209 2614.18 994.021 2610.83 1054.27C2607.05 1122.25 2581.62 1184.72 2544.45 1217.31C2526.36 1233.17 2505.87 1241.44 2484.85 1241.44ZM2482.11 1201.34C2494.34 1202.13 2506.45 1197.43 2518.08 1187.23C2546.56 1162.26 2567.79 1107.94 2570.89 1052.06C2573.24 1009.77 2558.6 968.953 2530.34 937.688L2529.59 985.613C2529.51 991.067 2527.2 996.248 2523.2 999.959C2519.2 1003.67 2513.85 1005.58 2508.41 1005.27C2448.75 1001.68 2423.35 1051.19 2419.68 1094.61C2415.64 1142.45 2436.15 1196.02 2482.11 1201.34Z" fill="#371A45"/>
<path d="M2516.84 966.657L2543.4 991.352C2546.27 994.025 2546.44 998.525 2543.76 1001.4C2542.38 1002.88 2540.49 1003.65 2538.61 1003.67L2502.35 1003.94C2490.46 1004.03 2480.75 994.465 2480.66 982.58C2480.58 970.693 2490.14 960.986 2502.02 960.898C2507.73 960.854 2512.96 963.068 2516.84 966.657Z" fill="#371A45"/>
<path d="M2242.16 1514.92H2244.28C2262.69 1514.92 2277.61 1500 2277.61 1481.59V1254.77C2277.61 1236.36 2262.69 1221.44 2244.28 1221.44H2242.16C2223.75 1221.44 2208.83 1236.36 2208.83 1254.77V1481.59C2208.83 1500 2223.75 1514.92 2242.16 1514.92Z" fill="#FB132B"/>
<g opacity="0.55">
<path d="M2217.63 1232.89C2218.61 1232.79 2219.64 1232.74 2220.67 1232.74C2239.66 1232.74 2255.03 1248.11 2255.03 1267.1V1491.83C2255.03 1500.65 2251.68 1508.75 2246.16 1514.79C2263.81 1513.29 2277.63 1498.53 2277.63 1480.53V1255.85C2277.63 1236.81 2262.21 1221.44 2243.22 1221.44C2233.73 1221.44 2225.11 1225.26 2218.87 1231.5C2218.4 1231.96 2217.99 1232.43 2217.63 1232.89Z" fill="white"/>
</g>
<path d="M2244.28 1527.42H2242.16C2216.89 1527.42 2196.33 1506.86 2196.33 1481.59V1254.77C2196.33 1229.5 2216.89 1208.94 2242.16 1208.94H2244.28C2269.55 1208.94 2290.12 1229.5 2290.12 1254.77V1481.59C2290.12 1506.86 2269.55 1527.42 2244.28 1527.42ZM2242.16 1233.94C2230.68 1233.94 2221.33 1243.28 2221.33 1254.77V1481.59C2221.33 1493.08 2230.68 1502.42 2242.16 1502.42H2244.28C2255.77 1502.42 2265.12 1493.08 2265.12 1481.59V1254.77C2265.12 1243.28 2255.77 1233.94 2244.28 1233.94H2242.16Z" fill="#371A45"/>
<path d="M2230.26 1078.12C2308.61 1078.12 2372.13 1014.6 2372.13 936.246C2372.13 857.89 2308.61 794.371 2230.26 794.371C2151.9 794.371 2088.38 857.89 2088.38 936.246C2088.38 1014.6 2151.9 1078.12 2230.26 1078.12Z" fill="#FB132B"/>
<g opacity="0.3">
<path d="M2088.39 936.246C2088.39 1014.61 2151.9 1078.12 2230.27 1078.12C2293.78 1078.12 2347.54 1036.38 2365.59 978.86C2339.59 1009.61 2300.74 1029.11 2257.3 1029.11C2178.94 1029.11 2115.43 965.602 2115.43 887.235C2115.43 872.377 2117.7 858.086 2121.98 844.621C2101.03 869.332 2088.39 901.319 2088.39 936.246Z" fill="#371A45"/>
</g>
<g opacity="0.55">
<path d="M2107.84 864.534C2133.79 835.849 2171.35 817.844 2213.04 817.844C2291.4 817.844 2354.91 881.352 2354.91 959.719C2354.91 985.927 2347.79 1010.54 2335.36 1031.58C2358.21 1006.41 2372.14 972.978 2372.14 936.245C2372.14 857.878 2308.64 794.37 2230.27 794.37C2178.06 794.371 2132.45 822.539 2107.84 864.534Z" fill="white"/>
</g>
<path d="M2230.26 1088.12C2146.51 1088.12 2078.38 1019.99 2078.38 936.247C2078.38 852.502 2146.51 784.372 2230.26 784.372C2314 784.372 2382.13 852.502 2382.13 936.247C2382.13 1019.99 2314 1088.12 2230.26 1088.12ZM2230.26 804.372C2157.54 804.372 2098.38 863.532 2098.38 936.247C2098.38 1008.96 2157.54 1068.12 2230.26 1068.12C2302.97 1068.12 2362.13 1008.96 2362.13 936.247C2362.13 863.532 2302.97 804.372 2230.26 804.372Z" fill="#371A45"/>
<path d="M2230.26 1023.95C2278.69 1023.95 2317.96 984.684 2317.96 936.246C2317.96 887.807 2278.69 848.541 2230.26 848.541C2181.82 848.541 2142.55 887.807 2142.55 936.246C2142.55 984.684 2181.82 1023.95 2230.26 1023.95Z" fill="#09CBFF"/>
<g opacity="0.3">
<path d="M2143.75 922.007C2159.33 897.656 2186.62 881.508 2217.68 881.508C2266.13 881.508 2305.39 920.767 2305.39 969.212C2305.39 974.061 2304.97 978.756 2304.2 983.4C2312.92 969.78 2317.98 953.633 2317.98 936.247C2317.98 887.803 2278.71 848.542 2230.27 848.542C2186.68 848.541 2150.51 880.321 2143.75 922.007Z" fill="#232323"/>
</g>
<path d="M2230.26 1033.95C2176.38 1033.95 2132.55 990.124 2132.55 936.247C2132.55 882.37 2176.38 838.542 2230.26 838.542C2284.13 838.542 2327.96 882.37 2327.96 936.247C2327.96 990.124 2284.13 1033.95 2230.26 1033.95ZM2230.26 858.542C2187.41 858.542 2152.55 893.4 2152.55 936.247C2152.55 979.094 2187.41 1013.95 2230.26 1013.95C2273.1 1013.95 2307.96 979.094 2307.96 936.247C2307.96 893.4 2273.1 858.542 2230.26 858.542Z" fill="#371A45"/>
<path d="M2250.3 693.845C2160.51 693.845 2067.6 668 2004.78 616.199C1997.32 610.051 1996.26 599.021 2002.41 591.565C2008.56 584.099 2019.59 583.039 2027.04 589.197C2139.11 681.604 2366.14 682.376 2453.23 590.647C2459.88 583.64 2470.96 583.352 2477.97 590.007C2484.97 596.662 2485.26 607.736 2478.61 614.748C2428.58 667.443 2341.03 693.845 2250.3 693.845Z" fill="#371A45"/>
<g opacity="0.3">
<path d="M2480.28 1221.28C2529.39 1225 2568.91 1169.02 2584.29 1100.36C2491.16 1167.42 2447.31 1117.38 2417.39 1034.32C2378.9 1100.97 2402.17 1212.67 2480.28 1221.28Z" fill="#371A45"/>
</g>
<g opacity="0.3">
<path d="M2116.82 1576.95C2199.99 1614.87 2278.25 1618.28 2351.56 1587.22C2267.93 1593.2 2219.85 1492.14 2219.85 1492.14L2188.84 1464.95H2120.23L2097.37 1530.88C2091.08 1548.94 2099.44 1569.01 2116.82 1576.95Z" fill="#371A45"/>
</g>
</svg>
