<svg width="2212" height="2043" viewBox="0 0 2212 2043" fill="none" xmlns="http://www.w3.org/2000/svg">
<g opacity="0.2">
<path d="M1016.71 2042.75C1563.65 2042.75 2007.03 1962.49 2007.03 1863.49C2007.03 1764.49 1563.65 1684.23 1016.71 1684.23C469.774 1684.23 26.3926 1764.49 26.3926 1863.49C26.3926 1962.49 469.774 2042.75 1016.71 2042.75Z" fill="#371A45"/>
</g>
<path d="M1328.23 51.7861L1317.46 168.558L1311.95 228.035L1217.22 1253.73C1217.22 1253.73 1283.26 1256.43 1372.1 1252.46C1389.48 1251.68 1407.73 1250.66 1426.53 1249.31C1566.62 1239.32 1737.09 1211.3 1803.39 1136.38C1902.5 1024.34 1932.2 466.182 1851.61 242.611C1814.7 140.119 1615.6 91.0171 1473.89 68.7181C1458.06 66.1921 1442.92 64.0361 1428.83 62.1991C1369.42 54.3301 1328.23 51.7861 1328.23 51.7861Z" fill="white"/>
<g opacity="0.3">
<path d="M1317.46 168.558L1311.95 228.035L1236.74 1042.45L1217.22 1253.73C1217.22 1253.73 1218.61 1253.78 1221.23 1253.87C1221.97 1253.87 1222.86 1253.9 1223.8 1253.94C1224.54 1253.95 1225.38 1253.97 1226.22 1254C1226.86 1254.04 1227.51 1254.03 1228.14 1254.08C1228.39 1254.06 1228.69 1254.11 1228.94 1254.09C1230.12 1254.12 1231.46 1254.16 1232.85 1254.16C1233.14 1254.21 1233.44 1254.2 1233.79 1254.2C1234.92 1254.22 1236.11 1254.24 1237.4 1254.28C1239.13 1254.33 1240.91 1254.34 1242.8 1254.36C1244.14 1254.36 1245.57 1254.42 1247.01 1254.43C1248.49 1254.44 1249.98 1254.46 1251.52 1254.48C1253.45 1254.51 1255.48 1254.51 1257.56 1254.56C1261.78 1254.57 1266.24 1254.62 1270.95 1254.6C1275.12 1254.65 1279.49 1254.63 1284.06 1254.59C1289.32 1254.55 1294.83 1254.55 1300.55 1254.47C1321.68 1254.21 1345.88 1253.63 1372.1 1252.46C1377.19 1252.23 1382.39 1251.97 1387.64 1251.71C1391.28 1251.53 1395.04 1251.31 1398.79 1251.09C1407.84 1250.57 1417.16 1249.99 1426.53 1249.31C1566.67 1239.33 1737.09 1211.31 1803.34 1136.37C1884.98 1044.13 1919.58 649.387 1884.2 388.004C1885.86 614.574 1851.1 855.823 1789.57 925.343C1759.15 959.721 1648.59 828.385 1653.82 756.015C1667.3 569.371 1650.01 327.518 1494.74 176.765C1490.71 172.848 1395.63 181.144 1317.46 168.558Z" fill="#371A45"/>
</g>
<path d="M1278.04 1271.25C1243.32 1271.25 1220.54 1270.39 1216.53 1270.23L1199.17 1269.52L1313.27 34.3521L1329.24 35.333C1348.67 36.525 1805.71 66.534 1867.16 236.993C1950.79 469 1919.08 1030.51 1815.75 1147.32C1717.19 1258.74 1410.64 1271.25 1278.04 1271.25ZM1235.25 1237.72C1320.05 1239.41 1689.77 1239.92 1791.03 1125.46C1833.83 1077.08 1868.13 922.019 1878.42 730.432C1888.94 534.553 1872.73 349.768 1836.12 248.186C1792.94 128.42 1479.78 79.914 1343.18 69.387L1235.25 1237.72Z" fill="#371A45"/>
<path d="M1857.68 716.028L1667.44 721.271C1650.46 721.739 1635.87 734.312 1631.98 751.93C1617.73 816.448 1592.08 967.256 1649.08 1020.48C1696.4 1064.66 1776.77 1063.96 1825.8 1024.1C1880.65 979.505 1893.07 830.93 1895.83 757.2C1896.69 734.278 1879.22 715.434 1857.68 716.028Z" fill="white"/>
<g opacity="0.3">
<path d="M1631.99 751.954C1617.71 816.447 1592.08 967.265 1649.1 1020.47C1696.42 1064.66 1776.78 1063.96 1825.83 1024.09C1859.54 996.64 1877.22 929.875 1886.48 865.405C1876.35 897.328 1861.66 922.913 1844.15 939.289C1743.8 1033.11 1678.21 912.877 1678.21 912.877C1678.21 912.877 1664.45 940.52 1654.51 941.607C1612.95 946.151 1628.21 809.138 1637.65 738.432C1635.03 742.4 1633.07 746.947 1631.99 751.954Z" fill="#371A45"/>
</g>
<path d="M1738.79 1070.48C1701.64 1070.48 1664.84 1057.76 1637.82 1032.54C1576.71 975.485 1597.83 830.012 1615.86 748.371C1621.38 723.381 1642.4 705.456 1666.98 704.777L1857.22 699.533H1857.22C1871.76 699.103 1885.55 704.714 1895.99 715.261C1906.97 726.34 1912.92 741.853 1912.32 757.815C1908.5 860.012 1892.19 991.389 1836.21 1036.9C1808.61 1059.34 1773.55 1070.48 1738.79 1070.48ZM1858.13 732.521L1667.89 737.765C1658.48 738.024 1650.34 745.314 1648.09 755.49C1620.4 880.851 1624.98 975.407 1660.35 1008.42C1700.36 1045.77 1771.36 1047.09 1815.39 1011.3C1850.54 982.722 1874.44 887.502 1879.34 756.584C1879.6 749.704 1877.12 743.103 1872.54 738.483C1868.59 734.489 1863.43 732.379 1858.14 732.521H1858.13Z" fill="#371A45"/>
<path d="M1734.21 1066.26C1733.03 1065.51 1732.34 1064.98 1731.62 1064.45C1730.88 1063.9 1730.15 1063.35 1729.52 1062.81C1728.24 1061.73 1726.85 1060.67 1725.69 1059.55C1723.22 1057.35 1720.9 1055.09 1718.73 1052.74C1714.31 1048.1 1710.32 1043.2 1706.65 1038.14C1699.43 1027.94 1693.14 1017.23 1688.37 1005.96C1678.37 983.599 1673.24 959.822 1670.84 936.24L1669.79 918.523C1669.45 912.629 1669.8 906.741 1669.78 900.867C1669.76 889.077 1670.76 877.654 1671.66 866.048C1672.66 854.488 1674.01 842.943 1675.96 831.448C1678.05 819.864 1680.1 808.723 1684.57 796.985C1685.42 794.739 1687.94 793.613 1690.18 794.468C1692.34 795.288 1693.46 797.632 1692.79 799.805L1692.65 800.254C1691.18 804.998 1690.07 810.774 1689.2 816.201C1688.32 821.726 1687.69 827.319 1687.13 832.92C1686.08 844.133 1685.6 855.44 1685.46 866.755C1685.43 878.02 1685.28 889.511 1686.15 900.615C1686.59 906.179 1686.66 911.775 1687.4 917.28L1689.61 933.764C1693.46 955.497 1699.81 976.699 1710.02 995.527C1714.89 1005.06 1721 1013.76 1727.61 1021.78C1730.96 1025.76 1734.52 1029.51 1738.27 1032.89C1740.13 1034.62 1742.03 1036.21 1743.97 1037.69C1744.93 1038.5 1745.89 1039.08 1746.84 1039.78C1747.33 1040.15 1747.77 1040.42 1748.21 1040.69C1748.66 1040.98 1749.13 1041.27 1749.18 1041.27L1749.24 1041.3C1756.24 1045.26 1758.72 1054.15 1754.76 1061.16C1750.8 1068.17 1741.91 1070.64 1734.9 1066.68C1734.68 1066.55 1734.42 1066.4 1734.21 1066.26Z" fill="#371A45"/>
<path d="M1565.38 203.581C1588.9 201.586 1612.24 200.27 1635.73 199.287C1659.19 198.335 1682.69 197.788 1706.26 197.961C1729.83 198.137 1753.46 198.713 1777.2 200.666C1800.96 202.634 1824.79 205.317 1848.96 211.132C1857.83 213.263 1863.28 222.179 1861.15 231.047C1859.02 239.912 1850.1 245.368 1841.24 243.237C1840.94 243.166 1840.65 243.088 1840.36 243.003L1840.16 242.94C1819.23 236.605 1796.72 232.664 1774.13 229.51C1751.49 226.331 1728.48 224.444 1705.42 222.957C1682.36 221.463 1659.18 220.679 1635.99 220.296C1612.82 219.94 1589.49 219.927 1566.43 220.562L1566.33 220.564C1561.63 220.693 1557.72 216.992 1557.59 212.295C1557.47 207.768 1560.92 203.969 1565.38 203.581Z" fill="#371A45"/>
<path d="M874.443 77.4445L708.693 347.895L676.193 400.895C657.243 619.744 339.193 673.245 21.3926 580.195V236.195C73.0426 190.295 128.593 188.145 187.893 228.245C204.243 239.345 223.592 244.695 243.143 244.545L385.343 243.445C415.593 243.245 444.843 232.195 468.193 212.244C605.643 94.8446 741.893 20.0945 874.443 77.4445Z" fill="white"/>
<path d="M309.173 644.216C218.453 644.216 118.226 629.392 15.7716 599.392C7.24861 596.897 1.3916 589.079 1.3916 580.198V236.194C1.3916 230.481 3.8356 225.037 8.1106 221.243C66.1286 169.695 132.174 166.394 199.085 211.692C211.71 220.237 226.712 224.568 243.006 224.563L385.169 223.464C410.601 223.269 435.472 213.879 455.196 197.033C571.986 97.2867 726.09 -8.52917 882.391 59.1078C887.711 61.4078 891.768 65.9048 893.516 71.4318C895.264 76.9588 894.527 82.9698 891.497 87.9158L695.652 407.428C688.443 475.138 653.462 532.199 594.258 572.682C524.874 620.134 424.752 644.216 309.173 644.216ZM41.3926 565.109C254.745 624.557 461.679 614.894 571.681 539.665C622.763 504.733 651.219 457.468 656.266 399.186C656.532 396.09 657.516 393.107 659.14 390.456L844.731 87.6728C744.096 55.8268 630.666 99.7678 481.174 227.453C454.301 250.402 420.315 263.195 385.478 263.464L243.315 264.563C218.991 264.553 196.025 257.922 176.665 244.817C127.065 211.243 83.8716 211.365 41.3936 245.466L41.3926 565.109Z" fill="#371A45"/>
<path d="M38.2207 374.199C40.7837 378.794 43.7197 382.6 46.8477 385.31C50.0127 387.952 53.3227 389.56 57.3197 390.342C65.2937 391.978 76.5077 388.677 86.7237 382.371C97.0477 376.07 106.664 367.166 114.975 357.129C123.269 347.024 130.281 335.657 135.654 323.599L135.736 323.416C138.317 317.623 145.106 315.018 150.899 317.598C156.322 320.013 158.933 326.167 157.131 331.69C152.293 346.338 145.514 360.301 136.896 373.253C128.198 386.149 117.804 398.199 104.634 408.253C98.0297 413.246 90.6827 417.73 82.2747 421.065C73.9017 424.344 64.3147 426.606 54.0157 425.929C43.7797 425.372 33.2737 421.781 24.8017 416.102C16.3207 410.411 9.77269 403.197 4.56369 395.816L4.3497 395.513C-2.0313 386.472 0.125715 373.97 9.16672 367.591C18.2087 361.209 30.7107 363.365 37.0907 372.408C37.4997 372.983 37.8817 373.596 38.2207 374.199Z" fill="#371A45"/>
<path d="M43.1458 598.708C35.6678 598.708 27.5648 598.015 18.7858 596.462C10.6268 595.022 5.18179 587.243 6.62279 579.084C8.06279 570.925 15.8468 565.471 24.0008 566.921C52.4188 571.945 74.0598 566.413 88.3048 550.495C112.524 523.439 114.599 467.629 93.9958 397.37C91.6648 389.421 96.2198 381.091 104.169 378.757C112.106 376.452 120.453 380.979 122.785 388.933C146.718 470.549 142.411 535.032 110.656 570.505C98.4478 584.143 77.3838 598.708 43.1458 598.708Z" fill="#371A45"/>
<path d="M412.716 631.74C406.82 631.74 401.227 628.239 398.842 622.448C395.688 614.792 399.338 606.022 406.996 602.868C480.111 572.741 484.657 406.711 416.92 240.304C413.798 232.633 417.486 223.878 425.16 220.758C432.833 217.623 441.586 221.324 444.708 228.995C511.668 393.497 520.145 588.692 418.426 630.601C416.556 631.374 414.62 631.74 412.716 631.74Z" fill="#371A45"/>
<g opacity="0.3">
<path d="M730.543 188.89C723.492 229.79 716.192 270.59 708.692 311.39L676.192 364.39C657.242 583.239 339.192 636.74 21.3916 543.69V370.49C44.4416 373.49 67.5916 376.44 90.6916 379.39C127.692 384.14 164.742 388.89 201.942 391.989C241.342 395.29 280.892 396.689 320.442 396.239C366.342 395.689 412.642 392.589 456.842 380.239C565.293 349.89 650.393 267.94 730.543 188.89Z" fill="#371A45"/>
</g>
<path d="M1595.59 1885.9C1417.34 1979.1 1236.54 1957.5 1162.99 1896.65C1115.59 1857.4 1112.74 1801.9 1183.89 1750.25C1086.84 1627.8 1041.79 1501.15 996.293 1319.45C990.843 1297.5 985.343 1274.75 979.743 1251.1C994.393 1456.7 988.593 1650.85 947.844 1825.35C937.744 1868.65 899.394 1899.6 854.944 1900.8C725.294 1904.25 599.494 1897.2 478.045 1878.4C421.745 1869.65 386.995 1814.85 398.845 1763.1C400.895 1754.05 404.395 1745.15 409.395 1736.55C429.945 1701.45 468.195 1672.6 521.395 1662.75C521.395 977.746 608.045 532.496 726.395 228.796L859.145 57.7461L1541.39 135.246L1550.19 166.096L1623.24 422.846C1634.74 463.246 1642.89 504.446 1647.59 545.995C1653.34 595.695 1654.14 645.896 1650.04 695.896C1649.59 701.146 1649.15 706.346 1648.59 711.546C1647.64 720.796 1646.65 730.146 1645.55 739.496C1643.9 753.946 1642.05 768.496 1640.15 783.146C1623.7 908.646 1599.25 1042.25 1586.7 1197.15C1579.65 1284.2 1586.09 1371.95 1607.2 1456.7C1633.6 1562.9 1648.7 1672.3 1654.25 1784.45C1656.34 1826.8 1633.24 1866.25 1595.59 1885.9Z" fill="white"/>
<path d="M734.724 232.026C725.684 260.915 715.278 289.233 707.064 318.325C702.723 332.783 697.94 347.085 693.966 361.65L681.689 405.21C677.439 419.675 673.916 434.36 670.089 448.948C666.368 463.567 662.458 478.128 658.895 492.781L648.55 536.839L643.378 558.86L638.654 580.994C612.98 698.931 594.163 818.384 580.224 938.406C566.528 1058.47 556.571 1179.02 550.589 1299.84C548.223 1360.29 545.28 1420.7 544.135 1481.21C543.359 1511.45 542.46 1541.69 542.401 1571.96L541.393 1662.74C541.285 1672.43 534.4 1680.46 525.294 1682.36L525.038 1682.41H525.028C499.083 1687.32 474.405 1697.68 454.77 1714.01C444.863 1722.03 436.408 1731.61 429.518 1742.05L427.033 1746.03C426.209 1747.35 425.715 1748.65 425.025 1749.95C423.822 1752.58 422.152 1755.03 421.429 1757.83C419.296 1763.19 418.027 1768.8 417.175 1774.46C414.062 1797.19 422.744 1821.59 439.516 1837.79C447.822 1845.93 457.956 1852.05 468.998 1855.58C471.656 1856.77 474.616 1857.06 477.436 1857.77C478.929 1858.07 480.123 1858.44 481.859 1858.72L487.24 1859.52C494.419 1860.56 501.579 1861.72 508.773 1862.66C566.247 1870.69 624.128 1876.01 682.159 1878.9C711.175 1880.35 740.228 1881.2 769.296 1881.49C783.829 1881.67 798.368 1881.64 812.906 1881.52L834.714 1881.23L845.618 1880.99L851.07 1880.87C852.896 1880.84 854.798 1880.81 856.107 1880.67C879.515 1879.83 902.023 1867.37 915.683 1848.47C919.202 1843.8 921.852 1838.59 924.294 1833.32C925.206 1830.56 926.524 1827.94 927.165 1825.09L928.352 1820.88L929.513 1815.61C932.589 1801.51 935.837 1787.44 938.414 1773.22C944.101 1744.9 948.344 1716.26 952.343 1687.6C955.884 1658.86 959.143 1630.07 961.218 1601.14C970.318 1485.45 967.844 1368.76 959.775 1252.5C958.997 1241.48 967.299 1231.92 978.319 1231.14C988.226 1230.44 996.96 1237.11 999.186 1246.47C1009.65 1290.47 1020.41 1334.32 1032.25 1377.72C1044.11 1421.1 1057.07 1464.04 1072.38 1505.9C1087.69 1547.76 1105.43 1588.5 1126.54 1627.34C1147.61 1666.2 1172.06 1703.12 1199.56 1737.82C1206.42 1746.48 1204.97 1759.06 1196.31 1765.92L1195.74 1766.36L1195.63 1766.43C1186.24 1773.28 1177.51 1780.7 1170.06 1788.73C1162.67 1796.79 1156.69 1805.48 1152.88 1814.32C1145.23 1832.04 1148.32 1849.75 1160.73 1865.85C1166.8 1873.84 1174.9 1881.08 1183.96 1887.43C1192.99 1893.82 1203.09 1899.29 1213.67 1903.98C1234.88 1913.36 1257.99 1919.67 1281.57 1923.71C1328.88 1931.56 1378.1 1930.47 1426.04 1922.47C1474.03 1914.42 1520.98 1899.52 1565.15 1878.66C1570.69 1876.09 1576.17 1873.39 1581.6 1870.59L1585.69 1868.52C1587.04 1867.83 1588 1867.21 1589.17 1866.56C1591.47 1865.36 1593.62 1863.9 1595.76 1862.45C1604.36 1856.66 1611.76 1849.2 1617.8 1840.83C1623.9 1832.48 1628.34 1823 1631.1 1813.09C1632.58 1808.15 1633.35 1803.06 1633.96 1797.95C1634.03 1795.38 1634.41 1792.83 1634.3 1790.25C1634.26 1787.68 1634.3 1785.26 1634.06 1781.91C1631.53 1731.89 1626.95 1682.01 1620.26 1632.46C1613.55 1582.9 1604.72 1533.66 1593.39 1485.02C1587.75 1461.16 1581.09 1435.4 1576.76 1409.94C1572.21 1384.4 1568.88 1358.64 1566.74 1332.81C1562.44 1281.24 1563.33 1228.82 1568.3 1177.85C1572.74 1127.08 1578.55 1076.48 1585.28 1026.12C1598.58 925.367 1615.79 825.555 1626.91 725.863C1632.87 676.378 1634.18 627.296 1630.51 578.024C1626.87 528.878 1618.37 480.097 1605.17 432.616L1522.15 140.719L1539.13 155.116L856.878 77.6159C845.903 76.3709 838.016 66.461 839.263 55.487C840.51 44.513 850.418 36.6248 861.393 37.8718L1543.65 115.372C1551.94 116.312 1558.47 122.218 1560.63 129.771L1643.71 421.895C1657.61 471.91 1666.57 523.299 1670.4 575.071C1674.3 626.721 1672.83 679.265 1666.67 730.247C1655.33 831.734 1638.1 931.492 1624.93 1031.39C1618.26 1081.33 1612.52 1131.29 1608.15 1181.33C1603.31 1231.08 1602.54 1280.24 1606.61 1329.54C1608.64 1354.13 1611.81 1378.61 1616.13 1402.88C1620.31 1427.33 1626.36 1450.6 1632.35 1475.97C1643.98 1525.89 1653.04 1576.37 1659.9 1627.09C1666.74 1677.82 1671.42 1728.8 1674.01 1779.85C1674.23 1782.81 1674.27 1786.72 1674.3 1790.47C1674.4 1794.22 1673.97 1797.97 1673.79 1801.71C1672.95 1809.17 1671.74 1816.61 1669.64 1823.82C1665.62 1838.27 1659.11 1852.02 1650.31 1864.13C1641.57 1876.27 1630.83 1887 1618.45 1895.39C1615.36 1897.49 1612.25 1899.55 1608.96 1901.32C1607.37 1902.21 1605.63 1903.25 1604.17 1903.99L1599.79 1906.21C1593.98 1909.2 1588.11 1912.1 1582.17 1914.85C1534.85 1937.19 1484.44 1953.23 1432.62 1961.92C1380.83 1970.53 1327.5 1971.86 1274.9 1963.15C1248.64 1958.64 1222.53 1951.62 1197.43 1940.53C1184.9 1934.97 1172.61 1928.37 1160.98 1920.17C1149.36 1911.99 1138.26 1902.31 1128.96 1890.15C1119.67 1878.15 1112.3 1863.23 1109.74 1846.8C1108.51 1838.61 1108.46 1830.22 1109.53 1822.07C1110.75 1813.96 1113 1806.18 1115.97 1798.89C1122.16 1784.45 1130.97 1772.19 1140.66 1761.61C1150.42 1751.09 1161.11 1742.11 1172.15 1734.05L1168.22 1762.66C1139.38 1726.28 1113.55 1687.32 1091.4 1646.44C1069.2 1605.59 1050.65 1562.95 1034.82 1519.65C1018.97 1476.32 1005.72 1432.35 993.667 1388.26C981.635 1344.16 970.778 1299.92 960.262 1255.68L999.672 1249.65C1007.84 1367.36 1010.39 1485.92 1001.1 1604.23C998.971 1633.81 995.641 1663.32 992.002 1692.79C987.902 1722.22 983.535 1751.64 977.681 1780.83C975.024 1795.47 971.679 1809.99 968.501 1824.54L967.293 1830.01L965.527 1836.4C964.461 1840.69 962.63 1844.75 961.129 1848.9C957.505 1856.97 953.355 1864.83 948.069 1871.93C927.401 1900.6 893.43 1919.25 858.022 1920.62C855.677 1920.81 853.912 1920.82 852.072 1920.86L846.529 1920.98L835.442 1921.22L813.262 1921.51C798.474 1921.64 783.682 1921.67 768.889 1921.49C739.304 1921.19 709.716 1920.32 680.149 1918.84C621.015 1915.9 561.959 1910.47 503.247 1902.27C495.9 1901.31 488.581 1900.13 481.247 1899.07L475.749 1898.25C473.865 1897.95 471.506 1897.39 469.41 1896.95C465.114 1895.94 460.731 1895.28 456.599 1893.61C439.733 1888.19 424.103 1878.73 411.474 1866.31C386.06 1841.63 372.773 1804.99 377.49 1769.39C378.745 1760.56 380.805 1751.83 384.065 1743.53C385.362 1739.23 387.65 1735.42 389.567 1731.42C390.588 1729.48 391.536 1727.38 392.641 1725.59L395.981 1720.24C405.203 1706.21 416.46 1693.59 429.33 1683.13C454.942 1661.88 486.176 1649.01 517.729 1643.08L517.741 1643.08L501.387 1662.74C501.749 1601.9 501.504 1541.06 503.419 1480.22C504.248 1449.8 504.562 1419.37 506.059 1388.97L510.139 1297.75C516.983 1176.18 526.814 1054.67 542.459 933.784C557.943 812.898 578.353 692.519 605.718 573.574C607.415 566.137 608.981 558.674 610.849 551.277L616.542 529.104L627.928 484.768C631.957 470.049 636.417 455.439 640.64 440.776C644.97 426.14 648.982 411.423 653.972 396.977C672.234 338.718 694.04 281.581 718.056 225.527C720.001 220.986 725.259 218.881 729.8 220.827C734.046 222.646 736.161 227.363 734.827 231.679L734.724 232.026Z" fill="#371A45"/>
<path d="M1174.89 1732.39C1190.84 1725.41 1207.31 1721.64 1223.55 1719.92C1239.81 1718.21 1255.92 1718.56 1271.67 1720.41C1303.14 1724.23 1333.47 1733.82 1360.64 1749.25C1365.21 1751.84 1366.81 1757.65 1364.22 1762.22C1361.81 1766.46 1356.63 1768.15 1352.24 1766.29L1352.14 1766.25C1326.04 1755.22 1297.61 1749.91 1269.81 1749.86C1255.92 1749.87 1242.14 1751.25 1229.05 1754.23C1215.98 1757.2 1203.58 1761.8 1192.9 1768.1C1183.37 1773.73 1171.08 1770.57 1165.45 1761.03C1159.82 1751.5 1162.99 1739.21 1172.52 1733.58C1173.19 1733.19 1173.88 1732.83 1174.57 1732.52L1174.89 1732.39Z" fill="#371A45"/>
<path d="M520.547 1642.76C532.127 1643.23 543.905 1644.03 555.868 1645.82C567.804 1647.61 579.992 1650.48 591.653 1655.18C603.335 1659.81 614.211 1666.48 623.55 1674.3C632.936 1682.1 640.905 1690.94 648.003 1700.1C651.029 1704 650.317 1709.62 646.415 1712.64C642.912 1715.36 638.027 1715.06 634.876 1712.15L634.781 1712.06C626.961 1704.85 618.715 1698.4 610.029 1693.36C601.345 1688.3 592.274 1684.71 582.799 1682.71C563.899 1678.62 543.35 1680.07 522.236 1682.73C511.239 1684.11 501.203 1676.32 499.818 1665.32C498.434 1654.32 506.227 1644.29 517.225 1642.91C518.303 1642.77 519.495 1642.73 520.547 1642.76Z" fill="#371A45"/>
<path d="M663.203 1095.63C691.88 1127.32 725.752 1153.55 762.703 1173.99C799.676 1194.43 839.674 1209.1 880.853 1218.3L896.336 1221.6C901.466 1222.83 906.762 1223.26 911.962 1224.15C922.408 1225.7 932.813 1227.52 943.387 1228.05C953.923 1228.83 964.428 1230.06 975.018 1229.86C985.587 1229.82 996.153 1230.64 1006.72 1229.9C1049.07 1229.18 1091.2 1224.02 1134.04 1217.34L1134.14 1217.32C1139.15 1216.54 1143.84 1219.97 1144.62 1224.98C1145.28 1229.2 1142.94 1233.2 1139.19 1234.81C1097.96 1252.6 1053.05 1261.69 1007.94 1264.03C1002.29 1264.44 996.645 1264.78 990.985 1264.56L974.014 1264.26C962.688 1264.33 951.425 1262.95 940.15 1261.99C928.843 1261.28 917.682 1259.26 906.498 1257.47C900.929 1256.45 895.266 1255.97 889.784 1254.47L873.255 1250.49C829.291 1239.63 786.805 1222.21 748.419 1198.09C710.061 1174.05 675.813 1143.12 649.583 1106.52C646.774 1102.6 647.674 1097.15 651.593 1094.34C655.24 1091.72 660.215 1092.32 663.152 1095.57L663.203 1095.63Z" fill="#371A45"/>
<path d="M1237.33 1632.91C1183.12 1632.91 1129.97 1625.97 1082.85 1612.12C1073.58 1609.39 1068.27 1599.66 1071 1590.39C1073.72 1581.12 1083.45 1575.8 1092.72 1578.54C1179.19 1603.96 1287.65 1604.46 1382.86 1579.88C1486.78 1553.05 1559.24 1500.82 1586.87 1432.82C1590.51 1423.86 1600.71 1419.54 1609.68 1423.19C1618.63 1426.83 1622.94 1437.04 1619.3 1445.99C1587.39 1524.52 1506.52 1584.1 1391.61 1613.77C1342.15 1626.54 1289.26 1632.91 1237.33 1632.91Z" fill="#371A45"/>
<path d="M792.171 1574.25C711.282 1574.25 627.19 1563.83 571.495 1543.01C536.676 1529.99 515.672 1514.13 507.276 1494.53C503.472 1485.64 507.593 1475.35 516.478 1471.55C525.355 1467.74 535.646 1471.87 539.454 1480.75C541.432 1485.37 549.708 1497.5 583.751 1510.22C686.344 1548.58 900.013 1549.34 977.921 1511.64C986.612 1507.42 997.084 1511.06 1001.3 1519.77C1005.51 1528.46 1001.87 1538.93 993.169 1543.14C950.325 1563.88 872.842 1574.25 792.171 1574.25Z" fill="#371A45"/>
<g opacity="0.3">
<path d="M1557.55 1885.9C1384.96 1979.1 1209.89 1957.5 1138.68 1896.65C1197.01 1897.95 1255.64 1886.85 1309.67 1863.95C1338.24 1851.85 1366.65 1835.5 1383.89 1809C1413.04 1764.25 1402.77 1704.5 1388.93 1652.5C1357.84 1536.05 1314.22 1423.2 1259.03 1316.75C1247.32 1294.2 1234.73 1271.45 1215.8 1255C1165.45 1211.4 1090.41 1225.9 1026.74 1242.8C1013.43 1246.35 999.34 1250.35 990.238 1261C980.023 1272.9 978.668 1290.05 977.893 1305.95C977.7 1310.45 977.457 1314.95 977.264 1319.45C971.987 1297.5 966.662 1274.74 961.239 1251.09C975.424 1456.7 969.808 1650.84 930.352 1825.34C920.572 1868.65 883.439 1899.59 840.399 1900.79C714.863 1904.24 593.054 1897.2 475.457 1878.4C420.943 1869.65 387.295 1814.84 398.769 1763.09C424.138 1794.29 454.009 1820.45 490.755 1834.65C557.033 1860.34 648.293 1826.09 658.412 1753.75C660.252 1740.6 659.864 1725.8 668.53 1715.9C675.744 1707.65 687.17 1705.39 696.949 1700.79C740.327 1680.54 746.428 1620.6 746.185 1571.45C745.701 1459.6 745.217 1347.8 744.684 1235.95C744.635 1217.65 744.248 1198.35 735.098 1182.7C726.093 1167.35 710.165 1158.14 695.98 1147.79C651.73 1115.59 619.583 1066.04 607.577 1011.54C689.105 1071.09 777.218 1133.05 877.048 1135.45C965.645 1137.6 1051 1090.35 1110.26 1022.34C1169.51 954.345 1205.1 867.394 1226.89 778.694L1169.47 912.894C1190.77 853.044 1201.95 789.294 1202.29 725.544C1334.02 751.744 1467.07 770.993 1600.69 783.143C1584.76 908.643 1561.09 1042.24 1548.93 1197.14C1542.11 1284.19 1548.35 1371.94 1568.78 1456.69C1594.35 1562.89 1608.97 1672.29 1614.34 1784.44C1616.37 1826.8 1594.01 1866.24 1557.55 1885.9Z" fill="#371A45"/>
</g>
<path d="M2191.39 402.745V744.795C2180.34 772.896 2149.29 783.345 2119.69 778.795C2100.29 775.795 2080.74 774.195 2061.09 775.245C1907.24 783.345 1767.14 763.245 1650.04 695.895C1588.44 660.545 1533.19 612.045 1485.69 547.745C1444.59 500.295 1419.54 449.595 1409.39 398.045C1395.24 325.945 1410.29 252.095 1451.39 182.745C1486.54 170.395 1519.24 165.145 1550.19 166.095C1649.79 169.196 1730.94 236.796 1814.69 339.895C1842.94 374.695 1882.29 398.745 1926.14 408.046L1959.04 415.046C1998.94 423.546 2040.59 422.446 2079.19 409.446C2115.34 397.245 2156.54 396.145 2191.39 402.745Z" fill="white"/>
<path d="M1491.76 543.247L1508.01 561.528L1516.05 570.69C1517.4 572.204 1518.69 573.772 1520.09 575.237L1524.44 579.507C1536.19 590.708 1546.8 602.966 1559.44 613.096L1577.71 628.938L1596.96 643.493C1603.37 648.347 1609.66 653.335 1616.57 657.464L1636.73 670.613C1691.37 704.3 1752.23 726.924 1814.98 740.676C1878.01 753.64 1942.79 758.354 2007.61 757.434C2015.7 757.517 2023.82 757.107 2031.93 756.742L2056.26 755.696C2060.12 755.545 2064.9 755.265 2069.3 755.202C2073.77 755.117 2078.23 755.157 2082.66 755.303C2091.53 755.589 2100.31 756.287 2108.97 757.293C2113.31 757.793 2117.61 758.362 2121.89 759.007L2126.87 759.617L2131.64 759.866C2137.96 759.956 2144.17 759.119 2149.76 757.388C2161.14 753.898 2168.89 747.027 2172.77 737.498L2172.78 737.486L2171.4 744.8V402.747L2187.66 422.393C2156.83 416.702 2123.87 417.505 2094.04 425.811C2092.16 426.292 2090.32 426.878 2088.49 427.466L2082.38 429.399C2077.87 430.888 2073.29 432.127 2068.71 433.333C2059.53 435.674 2050.21 437.356 2040.86 438.55C2022.15 440.95 2003.26 441.052 1984.67 439.219C1975.36 438.318 1966.12 436.928 1957 435.034L1931.49 429.641L1925.15 428.293L1921.98 427.618L1918.5 426.805C1913.85 425.789 1909.27 424.483 1904.69 423.18C1895.59 420.394 1886.66 417.056 1877.96 413.179C1860.63 405.288 1844.29 395.21 1829.6 383.081C1822.2 377.08 1815.31 370.476 1808.81 363.523C1805.52 360.081 1802.47 356.419 1799.4 352.781L1791.21 342.979C1769.53 316.839 1746.93 291.609 1722.4 269.065C1697.93 246.504 1671.63 226.35 1643.08 211.533C1614.59 196.733 1583.83 187.387 1552.26 186.313C1520.72 184.953 1488.8 190.954 1458.03 201.613L1457.87 201.669C1447.43 205.282 1436.04 199.752 1432.42 189.315C1428.81 178.878 1434.32 167.491 1444.76 163.876C1479.22 151.916 1516.38 144.716 1554.04 146.352C1591.73 147.639 1628.74 158.95 1661.44 175.996C1694.3 193.069 1723.26 215.466 1749.56 239.7C1775.93 263.96 1799.54 290.384 1821.97 317.417L1830.4 327.51C1832.92 330.464 1835.38 333.46 1838.07 336.258C1843.37 341.917 1848.98 347.31 1855.01 352.191C1866.98 362.079 1880.3 370.282 1894.42 376.725C1901.51 379.877 1908.79 382.597 1916.21 384.877C1919.94 385.927 1923.67 387.008 1927.46 387.826L1930.3 388.495L1933.47 389.169L1939.8 390.517L1965.01 395.847C1972.81 397.471 1980.69 398.65 1988.58 399.414C2004.37 400.972 2020.27 400.874 2035.85 398.87C2043.63 397.874 2051.35 396.487 2058.92 394.551C2062.69 393.55 2066.46 392.542 2070.16 391.314L2076.4 389.341C2078.68 388.609 2080.97 387.891 2083.27 387.29C2101.65 382.131 2120.41 379.526 2139.12 378.896C2157.85 378.283 2176.57 379.599 2195.13 383.1C2204.72 384.909 2211.4 393.295 2211.4 402.712L2211.39 402.749V744.802V745.472C2211.39 747.806 2210.87 750.103 2210.01 752.118L2209.99 752.148C2205.88 762.666 2198.97 772.487 2190.35 779.946C2181.77 787.519 2171.68 792.61 2161.5 795.652C2151.31 798.735 2140.95 799.945 2130.79 799.733C2128.25 799.64 2125.72 799.475 2123.2 799.287L2115.9 798.357C2112.03 797.749 2108.16 797.214 2104.3 796.746C2096.58 795.801 2088.9 795.152 2081.28 794.861C2077.47 794.712 2073.67 794.656 2069.89 794.707L2058.2 795.045L2033.06 795.732C2024.69 795.974 2016.31 796.257 2007.91 796.047C1940.83 795.937 1873.2 790.202 1807.3 774.521L1782.77 767.897L1770.52 764.579C1766.46 763.368 1762.47 761.906 1758.45 760.58L1734.36 752.42C1726.39 749.556 1718.64 746.037 1710.77 742.873C1694.9 736.843 1679.92 728.732 1664.71 721.24L1659.03 718.381L1653.54 715.134L1642.6 708.617L1631.7 702.053C1628.05 699.88 1624.4 697.737 1621 695.18C1607.24 685.235 1592.94 676.069 1580.33 664.689C1573.87 659.208 1567.31 653.871 1560.98 648.28L1543.03 630.379L1534.08 621.441C1531.05 618.514 1528.49 615.131 1525.68 611.999C1520.19 605.615 1514.66 599.272 1509.3 592.81L1505.25 587.988C1503.95 586.34 1502.77 584.597 1501.52 582.907L1494.15 572.701C1489.21 565.924 1484.39 559.077 1479.58 552.245C1477.18 548.829 1478 544.11 1481.42 541.708C1484.6 539.469 1488.9 540.025 1491.42 542.867L1491.76 543.247Z" fill="#371A45"/>
<path d="M2195.62 600.134C2180.39 603.852 2164.3 605.49 2148.23 603.354C2132.21 601.281 2116.34 595.195 2103.42 585.122C2090.46 575.134 2080.67 561.287 2075.73 546.125C2070.71 530.969 2070.55 514.699 2074.42 500.026C2075.78 494.87 2081.06 491.794 2086.21 493.151C2090.95 494.401 2093.94 498.971 2093.33 503.708L2093.31 503.798C2091.8 515.58 2093.67 527.328 2098.54 537.299C2103.36 547.294 2111.08 555.441 2120.31 560.771C2129.54 566.142 2140.21 568.698 2151.04 568.652C2161.89 568.632 2172.87 566.079 2183.47 562.024L2183.69 561.939C2194.04 557.981 2205.62 563.155 2209.58 573.494C2213.54 583.836 2208.37 595.425 2198.03 599.383C2197.27 599.672 2196.39 599.941 2195.62 600.134Z" fill="#371A45"/>
<path d="M2151.47 770.749C2125.62 770.749 2103.49 761.296 2087.09 742.761C2051.58 702.629 2050.46 628.523 2084.29 558.357C2087.88 550.896 2096.85 547.747 2104.31 551.36C2111.77 554.959 2114.91 563.923 2111.31 571.384C2083.11 629.875 2082.39 692.175 2109.56 722.883C2130.54 746.599 2162.02 742.38 2184.72 734.675C2192.57 732.019 2201.09 736.213 2203.75 744.06C2206.41 751.902 2202.21 760.422 2194.37 763.083C2179.25 768.21 2164.86 770.749 2151.47 770.749Z" fill="#371A45"/>
<path d="M1722.91 737.746C1712.69 737.746 1703.97 729.948 1703.01 719.572C1691.66 595.636 1760.68 454.689 1870.86 376.818C1879.88 370.451 1892.36 372.594 1898.73 381.608C1905.11 390.627 1902.97 403.107 1893.94 409.484C1794.86 479.509 1732.73 605.519 1742.85 715.92C1743.86 726.921 1735.76 736.652 1724.76 737.663C1724.14 737.722 1723.52 737.746 1722.91 737.746Z" fill="#371A45"/>
<g opacity="0.3">
<path d="M2191.39 575.295V744.795C2180.34 772.896 2149.29 783.345 2119.69 778.795C2100.29 775.795 2080.74 774.195 2061.09 775.245C1907.24 783.345 1767.14 763.245 1650.04 695.895C1649.59 701.145 1649.14 706.345 1648.59 711.545C1647.64 720.795 1646.64 730.145 1645.54 739.495C1609.19 732.845 1570.74 743.645 1533.19 746.445C1473.74 750.895 1412.99 734.045 1364.29 699.695L1357.24 707.745C1272.43 608.724 1256.89 497.379 1293.66 455.872C1311.6 435.617 1356.53 415.595 1384.69 403.045C1389.5 400.904 1398.39 396.056 1409.39 398.045C1419.34 399.844 1429.64 404.994 1438.19 410.495C1478.84 436.795 1514.19 470.644 1554.49 497.545C1583.69 517.045 1615.14 532.595 1647.59 545.995C1682.74 560.546 1719.09 572.645 1755.19 584.595C1792.84 597.095 1830.69 609.595 1869.84 616.145C1908.54 622.595 1948.04 623.096 1987.19 620.345C2056.99 615.446 2125.99 600.145 2191.39 575.295Z" fill="#371A45"/>
</g>
<g opacity="0.3">
<path d="M849.326 26.3098C869.504 84.0828 892.957 143.202 937.247 185.43C973.086 219.601 1019.82 239.925 1066.75 255.716C1173.19 291.527 1289.05 307.3 1398.28 281.206C1507.5 255.111 1608.9 182.758 1652.5 79.2627C1474.21 96.8877 1294.57 77.3197 1116.47 57.7677C1034.21 48.7357 949.75 39.0598 876.382 0.759766C880.969 45.5398 885.555 90.3197 890.142 135.1" fill="#371A45"/>
</g>
<path d="M689.394 545.051C689.394 545.051 657.693 534.537 613.695 542.02C561.588 550.883 548.159 652.608 651.001 666.16C745.712 678.641 751.408 646.636 751.408 646.636L717.356 578.588" fill="white"/>
<g opacity="0.3">
<path d="M657.25 619.911C611.197 613.842 588.513 590.088 582.123 564.915C562.58 598.2 575.124 656.163 651 666.161C745.711 678.641 751.407 646.637 751.407 646.637L736.762 617.372C722.344 622.398 698.082 625.292 657.25 619.911Z" fill="#371A45"/>
</g>
<path d="M690.333 681.516C678.634 681.516 665.084 680.622 649.366 678.552C585.482 670.134 562.042 630.969 561.405 597.121C560.778 563.659 582.355 534.67 611.598 529.694C658.134 521.784 691.913 532.712 693.329 533.185C699.882 535.358 703.432 542.433 701.259 548.986C699.089 555.529 692.038 559.069 685.487 556.925C684.865 556.725 655.604 547.579 615.79 554.342C598.639 557.262 586.002 575.45 586.4 596.652C586.615 608.029 592.023 645.778 652.633 653.766C711.588 661.535 731.205 651.139 737.091 645.958L706.176 584.181C703.088 578.004 705.588 570.494 711.762 567.409C717.936 564.318 725.441 566.823 728.535 572.99L764.441 644.748L763.716 648.83C762.616 655.002 754.132 681.511 690.333 681.516Z" fill="#371A45"/>
<path d="M769.711 870.042L1248.56 916.894C1305.23 922.457 1356.18 880.615 1361.75 823.87L1386.67 569.052C1391.53 519.373 1360.03 474.168 1314.04 459.966C1307.53 457.908 1300.71 456.563 1293.64 455.859L814.872 409.01C758.127 403.443 707.172 445.286 701.679 502.034L681.893 703.852L676.688 756.848C671.122 813.594 713.038 864.479 769.711 870.042Z" fill="white"/>
<path d="M769.711 870.042L1248.56 916.894C1305.23 922.457 1356.18 880.615 1361.75 823.87L1386.67 569.052C1391.53 519.373 1360.03 474.168 1314.04 459.966C1307.53 457.908 1300.71 456.563 1293.64 455.859L814.872 409.01C758.127 403.443 707.172 445.286 701.679 502.034L681.893 703.852L676.688 756.848C671.122 813.594 713.038 864.479 769.711 870.042Z" fill="white"/>
<path d="M769.711 870.042L1248.56 916.894C1305.23 922.457 1356.18 880.615 1361.75 823.87L1386.67 569.052C1391.53 519.373 1360.03 474.168 1314.04 459.966C1307.53 457.908 1300.71 456.563 1293.64 455.859L814.872 409.01C758.127 403.443 707.172 445.286 701.679 502.034L681.893 703.852L676.688 756.848C671.122 813.594 713.038 864.479 769.711 870.042Z" fill="white"/>
<g opacity="0.3">
<path d="M769.001 870.01L1247.85 916.862C1304.52 922.425 1355.47 880.582 1361.04 823.837L1385.96 569.02C1390.82 519.341 1359.32 474.136 1313.33 459.934C1284.37 475.331 1265.98 485.195 1265.98 485.195C1222.65 687.455 1154.42 783.749 900.024 763.045C790.214 754.079 722.644 730.587 681.182 703.82L675.976 756.815C670.411 813.56 712.328 864.446 769.001 870.01Z" fill="#371A45"/>
</g>
<path d="M1279.3 939.543C1276.03 939.543 1272.74 939.382 1269.42 939.06L744.928 887.727C718.263 885.12 694.154 872.214 677.045 851.394C659.936 830.574 651.952 804.421 654.562 777.751L683.976 477.214C689.379 421.985 738.71 381.438 793.947 386.843L1318.44 438.176C1373.68 443.586 1414.21 492.917 1408.81 548.152L1379.4 848.694C1374.32 900.607 1330.42 939.538 1279.3 939.543ZM784.105 426.364C753.297 426.364 726.847 449.826 723.785 481.11L694.371 781.647C692.801 797.682 697.623 813.434 707.948 825.998C718.273 838.562 732.789 846.345 748.822 847.912L1273.32 899.245C1306.62 902.595 1336.33 878.083 1339.59 844.797L1369 544.255C1372.26 510.974 1347.83 481.247 1314.55 477.99L790.052 426.657C788.055 426.462 786.07 426.364 784.105 426.364Z" fill="#371A45"/>
<path d="M939.252 884.846L940.032 886.752L1248.58 916.926C1290.12 920.944 1328.54 899.611 1348.29 865.479C1355.52 853.123 1360.24 839.074 1361.69 823.889L1372.81 710.684L1376.48 673.323L1382.85 607.732L1386.65 569.08C1392.19 512.322 1350.34 461.44 1293.66 455.872L1190.19 445.79C1237 459.442 1269.18 505.045 1264.32 555.182L1256.94 630.826L1250.84 692.845L1239.41 810.133C1233.81 866.749 1182.86 908.626 1126.2 903.129L939.252 884.846Z" fill="white"/>
<g opacity="0.3">
<path d="M890.377 880.038L891.157 881.944L1248.58 916.927C1290.12 920.945 1328.54 899.612 1348.29 865.48C1355.52 853.124 1360.24 839.075 1361.69 823.89L1372.81 710.685L1376.48 673.324L1382.85 607.733C1362.39 602.839 1334.59 603.004 1316.62 632.206C1291.71 672.656 1271.11 656.358 1256.95 630.827L1250.84 692.846L1239.41 810.134C1233.81 866.75 1182.86 908.627 1126.2 903.13L890.377 880.038Z" fill="#371A45"/>
</g>
<path d="M1258.79 933.923C1254.86 933.923 1250.9 933.727 1246.94 933.336L797.115 889.318L798.519 872.969C799.583 861.411 806.737 858.614 816.454 858.482L816.493 858.052L823.436 858.737C825.511 858.883 827.652 859.079 829.835 859.279L1127.72 886.656C1150.81 888.931 1173.44 882.012 1191.48 867.188C1209.53 852.364 1220.7 831.509 1222.94 808.472L1247.88 553.615C1251.95 512.027 1225.75 473.317 1185.58 461.569L1191.81 429.308L1295.24 439.41C1327.07 442.54 1355.83 457.946 1376.25 482.79C1396.67 507.644 1406.2 538.849 1403.07 570.66L1378.13 825.49C1375.04 857.306 1359.64 886.081 1334.78 906.51C1313.03 924.392 1286.41 933.923 1258.79 933.923ZM1207.77 896.344L1250.17 900.495C1273.16 902.731 1295.79 895.837 1313.83 881.017C1331.87 866.183 1343.04 845.332 1345.28 822.295V822.285L1370.22 567.437C1372.49 544.395 1365.57 521.777 1350.75 503.74C1335.93 485.703 1315.07 474.521 1292.02 472.251L1253.58 468.497C1273.48 492.491 1283.93 524.014 1280.72 556.826L1255.78 811.676C1252.69 843.483 1237.3 872.257 1212.44 892.687C1210.9 893.947 1209.34 895.167 1207.77 896.344Z" fill="#371A45"/>
<path d="M1062.83 666.233C1061.97 675.662 1068.21 752.994 1068.21 752.994C1068.21 752.994 1092.33 755.214 1121.93 757.94C1158.92 761.345 1192.43 725.808 1196.78 678.566C1201.13 631.323 1174.67 590.265 1137.68 586.859C1112.72 584.561 1083.97 581.913 1083.97 581.913C1083.97 581.913 1064.25 650.873 1062.83 666.233Z" fill="#22A7F0"/>
<path d="M1062.83 666.233C1061.97 675.662 1068.21 752.994 1068.21 752.994C1068.21 752.994 1092.33 755.214 1121.93 757.94C1158.92 761.345 1192.43 725.808 1196.78 678.566C1201.13 631.323 1174.67 590.265 1137.68 586.859C1112.72 584.561 1083.97 581.913 1083.97 581.913C1083.97 581.913 1064.25 650.873 1062.83 666.233Z" fill="#1C7AEA"/>
<path d="M1126.78 768.166C1124.87 768.166 1122.95 768.078 1121.02 767.897L1083.71 764.459C1069.31 763.136 1058.06 751.725 1056.96 737.325C1052.1 673.804 1052.68 667.413 1052.88 665.313C1053.88 654.395 1062.7 621.041 1069.92 594.976C1073.73 581.197 1086.82 572.08 1101.09 573.448L1138.6 576.9C1181.02 580.806 1211.59 626.827 1206.74 679.483C1202.11 729.743 1166.87 768.161 1126.78 768.166ZM1098.38 593.322C1094.13 593.322 1090.34 596.149 1089.19 600.314C1079.58 635.011 1073.45 659.992 1072.79 667.15C1072.49 670.441 1073.41 690.207 1076.9 735.802C1077.26 740.441 1080.89 744.117 1085.54 744.547L1122.85 747.985C1154.24 750.851 1182.99 719.328 1186.82 677.648C1190.66 635.973 1168.21 599.713 1136.77 596.813L1099.26 593.361C1098.97 593.337 1098.67 593.322 1098.38 593.322Z" fill="#371A45"/>
<path d="M1143.12 673.638C1147.48 626.395 1121.02 585.336 1084.03 581.929C1047.04 578.523 1013.53 614.06 1009.18 661.303C1004.83 708.546 1031.28 749.606 1068.27 753.012C1105.26 756.418 1138.77 720.881 1143.12 673.638Z" fill="#22A7F0"/>
<g opacity="0.7">
<path d="M1143.05 673.643C1142.72 677.203 1142.24 680.647 1141.59 684.03C1137.94 645.889 1114.1 615.591 1082.54 612.669C1048.29 609.515 1017.11 639.708 1009.15 681.646C1008.48 675.061 1008.47 668.235 1009.12 661.277C1013.47 614.027 1046.96 578.524 1083.97 581.913C1120.97 585.303 1147.4 626.393 1143.05 673.643Z" fill="white"/>
</g>
<path d="M1143.05 673.643C1138.7 720.839 1105.21 756.396 1068.2 753.007C1031.2 749.564 1004.77 708.528 1009.12 661.278C1009.79 653.834 1011.21 646.641 1013.25 639.91C1020.08 672.672 1042.28 697.424 1070.65 700.036C1101.77 702.937 1130.49 678.209 1141.37 642.094C1143.4 651.992 1144.04 662.639 1143.05 673.643Z" fill="#1C7AEA"/>
<path d="M1073.07 763.22C1071.15 763.22 1069.23 763.132 1067.3 762.951C1024.88 759.045 994.311 713.024 999.16 660.368C1001.47 635.305 1011.37 612.355 1027.03 595.749C1043.32 578.469 1063.85 569.982 1084.89 571.96C1105.9 573.894 1124.56 585.949 1137.42 605.91C1149.79 625.104 1155.33 649.474 1153.02 674.538C1148.4 724.797 1113.15 763.22 1073.07 763.22ZM1019.08 662.204C1015.24 703.879 1037.7 740.139 1069.14 743.039C1100.51 745.91 1129.27 714.382 1133.11 672.701C1135.01 652.066 1130.57 632.199 1120.61 616.745C1111.15 602.067 1097.81 593.234 1083.05 591.872C1068.27 590.5 1053.56 596.765 1041.58 609.47C1028.97 622.844 1020.98 641.569 1019.08 662.204Z" fill="#371A45"/>
<path d="M918.758 895.144C918.453 895.144 918.143 895.129 917.833 895.11C911.017 894.602 905.899 888.67 906.405 881.853L915.973 752.659C917.887 726.785 906.786 701.858 886.273 685.979C858.517 664.49 843.915 630.798 847.213 595.852L864.369 414.045C865.009 407.238 871.002 402.185 877.853 402.888C884.657 403.528 889.655 409.563 889.013 416.369L871.857 598.176C869.359 624.631 880.414 650.139 901.425 666.408C928.522 687.385 943.188 720.309 940.656 754.484L931.088 883.678C930.607 890.183 925.179 895.144 918.758 895.144Z" fill="#371A45"/>
<path d="M1362.66 673.156C1362.66 673.156 1314.99 664.651 1304.65 714.518C1294.31 764.385 1342.33 783.698 1342.33 783.698C1342.33 783.698 1511.23 839.009 1639.44 807.055C1695.9 765.824 1651.69 701.92 1651.69 701.92C1651.69 701.92 1501.47 719.143 1362.66 673.156Z" fill="white"/>
<g opacity="0.3">
<path d="M1342.35 783.696C1342.35 783.696 1511.23 838.997 1639.42 807.051C1664.57 788.684 1669.76 765.807 1667.76 746.101C1663.57 751.773 1658.09 757.236 1651.04 762.383C1522.85 794.329 1353.93 739.025 1353.93 739.025C1353.93 739.025 1319.31 725.085 1315.22 690.389C1310.57 696.295 1306.81 704.172 1304.66 714.534C1294.32 764.376 1342.35 783.696 1342.35 783.696Z" fill="#371A45"/>
</g>
<path d="M1548.9 829.445C1443.82 829.445 1343.89 797.233 1338.48 795.461L1337.72 795.183C1317.79 787.165 1282.69 759.47 1292.53 712.009C1302.64 663.244 1344.25 657.297 1364.83 660.974L1366.55 661.409C1501.21 706.018 1648.81 689.803 1650.28 689.627L1657.65 688.782L1661.87 694.881C1679.53 720.413 1699.1 778.807 1646.74 817.049L1644.78 818.475L1642.43 819.061C1612.4 826.545 1580.41 829.445 1548.9 829.445ZM1346.65 772.087C1356.47 775.212 1514.39 824.279 1634.02 795.637C1668.88 768.454 1653.14 729.841 1645.11 714.997C1611.83 717.917 1482.64 725.666 1359.75 685.231C1352.23 684.171 1323.9 682.619 1316.77 717.028C1309.04 754.333 1342.55 770.285 1346.65 772.087Z" fill="#371A45"/>
</svg>
