<svg width="2737" height="1699" viewBox="0 0 2737 1699" fill="none" xmlns="http://www.w3.org/2000/svg">
<path d="M2680.5 1165C2680.5 1165 2459.5 410.5 2168.5 299.999C1886.07 192.753 1453 418 1453 418C1453 418 1752 432.499 2098 504.5C2342 652.499 2680.5 1165 2680.5 1165Z" fill="white"/>
<path d="M1882.59 1680.41C1873.2 1680.41 1863.79 1680.22 1854.36 1679.85C1840.87 1679.3 1827.13 1678.38 1813.51 1677.11C1775.75 1673.44 1738.24 1666.79 1702.04 1657.33C1671.1 1649.27 1640.66 1639.14 1611.58 1627.22C1576.87 1613.09 1542.88 1595.99 1510.54 1576.4C1498.67 1569.13 1488.27 1562.42 1478.74 1555.9C1457.95 1541.78 1437.57 1526.27 1418.15 1509.81C1326.44 1432 1256.08 1331.42 1214.66 1218.94C1139.95 1016.05 1162.91 794.328 1277.66 610.636C1344 504.386 1437.78 417.389 1548.88 359.064C1569.94 347.931 1592.26 337.589 1615.22 328.327C1630 322.37 1645.37 316.784 1660.91 311.725C1709.32 295.929 1759.56 285.236 1810.23 279.953C1861.38 274.572 1913.1 274.64 1963.95 280.202C1986.07 282.624 2008.42 286.149 2030.39 290.681C2039.18 292.434 2047.25 294.241 2055.05 296.199C2126.12 313.338 2194.36 341.507 2257.83 379.915C2420.47 478.48 2534.08 633.685 2577.73 816.946C2621.02 998.748 2590.12 1186.52 2490.71 1345.68C2360.68 1553.93 2129.62 1680.41 1882.59 1680.41ZM1217.71 1217.81C1258.94 1329.77 1328.98 1429.88 1420.25 1507.33C1439.58 1523.71 1459.88 1539.15 1480.58 1553.21C1490.06 1559.7 1500.42 1566.38 1512.23 1573.62C1544.41 1593.12 1578.25 1610.14 1612.81 1624.21C1641.76 1636.07 1672.06 1646.16 1702.86 1654.18C1738.9 1663.6 1776.23 1670.22 1813.82 1673.86C1827.38 1675.13 1841.07 1676.05 1854.49 1676.6C2110.91 1686.63 2353.59 1559.14 2487.94 1343.95C2586.89 1185.54 2617.65 998.65 2574.56 817.698C2531.12 635.296 2418.03 480.808 2256.14 382.698C2192.96 344.466 2125.03 316.424 2054.27 299.358C2046.51 297.41 2038.49 295.618 2029.74 293.87C2007.87 289.358 1985.61 285.847 1963.59 283.435C1912.97 277.908 1861.48 277.82 1810.57 283.196C1760.12 288.455 1710.11 299.094 1661.92 314.822C1646.45 319.856 1631.15 325.418 1616.44 331.345C1593.58 340.569 1571.36 350.862 1550.4 361.946C1439.81 420.007 1346.45 506.599 1280.42 612.366C1166.21 795.192 1143.35 1015.87 1217.71 1217.81Z" fill="#371A45"/>
<path d="M2489.32 1344.8C2349.62 1568.62 2102.98 1687.94 1854.41 1678.21C1840.83 1677.67 1827.25 1676.76 1813.67 1675.48C1776.4 1671.88 1739.21 1665.34 1702.46 1655.77C1672.03 1647.82 1641.83 1637.86 1612.22 1625.73C1577.78 1611.73 1544.11 1594.85 1511.36 1575.03C1500.58 1568.36 1489.96 1561.6 1479.65 1554.59C1458.47 1540.18 1438.37 1524.78 1419.2 1508.56C1325.29 1428.87 1256.68 1328.42 1216.18 1218.36C1193.91 1157.92 1180.11 1094.6 1175.26 1030.36C1216.35 1134.49 1282.91 1229.4 1372.5 1305.43C1391.64 1321.71 1411.77 1337.06 1432.95 1351.46C1443.21 1358.49 1453.83 1365.24 1464.67 1371.9C1497.41 1391.73 1531.08 1408.6 1565.47 1422.61C1595.13 1434.73 1625.29 1444.7 1655.72 1452.65C1692.47 1462.22 1729.7 1468.75 1766.93 1472.36C1780.55 1473.63 1794.13 1474.54 1807.71 1475.08C2056.28 1484.82 2302.87 1365.5 2442.62 1141.67C2524.18 1011.12 2557.05 864.602 2546.32 722.705C2624.39 920.219 2610.87 1150.24 2489.32 1344.8Z" fill="#D8D8D8"/>
<path d="M1882.59 1691.31C1873.06 1691.31 1863.51 1691.13 1853.93 1690.75C1840.24 1690.19 1826.31 1689.25 1812.5 1687.96C1774.12 1684.24 1736.05 1677.49 1699.29 1667.89C1667.88 1659.7 1636.98 1649.41 1607.44 1637.32C1572.22 1622.97 1537.71 1605.62 1504.89 1585.73C1492.81 1578.33 1482.26 1571.53 1472.58 1564.91C1451.5 1550.58 1430.8 1534.84 1411.09 1518.13C1317.96 1439.1 1246.49 1336.94 1204.42 1222.71C1128.54 1016.63 1151.86 791.433 1268.41 604.86C1335.77 496.969 1431 408.634 1543.8 349.406C1565.17 338.117 1587.83 327.614 1611.14 318.21C1626.15 312.16 1641.76 306.486 1657.53 301.355C1706.67 285.32 1757.66 274.47 1809.1 269.104C1861 263.64 1913.51 263.718 1965.13 269.358C1987.6 271.819 2010.29 275.398 2032.59 279.998C2041.49 281.77 2049.73 283.616 2057.7 285.618C2129.77 302.996 2199.04 331.595 2263.47 370.579C2428.64 470.677 2544.01 628.299 2588.34 814.417C2632.32 999.08 2600.93 1189.81 2499.96 1351.45C2367.94 1562.9 2133.36 1691.31 1882.59 1691.31ZM1227.95 1214.04C1268.53 1324.23 1337.46 1422.77 1427.31 1499.01C1446.34 1515.14 1466.33 1530.34 1486.71 1544.2C1496.07 1550.6 1506.27 1557.17 1517.93 1564.32C1549.58 1583.49 1582.9 1600.25 1616.92 1614.1C1645.45 1625.79 1675.28 1635.72 1705.61 1643.63C1741.1 1652.89 1777.86 1659.41 1814.87 1663.01C1828.2 1664.25 1841.7 1665.16 1854.93 1665.7C2107.39 1675.58 2346.41 1550.05 2478.69 1338.17C2576.08 1182.26 2606.36 998.312 2563.94 820.226C2521.18 640.68 2409.86 488.61 2250.49 392.028C2188.27 354.377 2121.39 326.764 2051.71 309.963C2044.03 308.034 2036.18 306.276 2027.6 304.567C2006 300.109 1984.09 296.657 1962.4 294.279C1912.56 288.83 1861.85 288.761 1811.71 294.04C1762.02 299.221 1712.76 309.704 1665.3 325.192C1650.06 330.153 1635 335.627 1620.51 341.462C1598 350.544 1576.12 360.681 1555.49 371.589C1446.59 428.767 1354.68 514.016 1289.67 618.142C1177.26 798.093 1154.76 1015.29 1227.95 1214.04Z" fill="#371A45"/>
<path d="M1882.59 1698.78C1872.96 1698.78 1863.31 1698.59 1853.64 1698.21C1839.8 1697.65 1825.74 1696.7 1811.8 1695.4C1773.01 1691.63 1734.54 1684.81 1697.4 1675.11C1665.67 1666.84 1634.45 1656.45 1604.61 1644.22C1569.05 1629.74 1534.18 1612.2 1501.02 1592.12C1488.8 1584.63 1478.15 1577.76 1468.37 1571.07C1447.09 1556.61 1426.18 1540.7 1406.26 1523.83C1312.15 1443.96 1239.93 1340.73 1197.42 1225.29C1120.73 1017.03 1144.29 789.451 1262.08 600.906C1330.14 491.892 1426.36 402.639 1540.33 342.796C1561.9 331.399 1584.8 320.789 1608.34 311.292C1623.52 305.174 1639.29 299.446 1655.22 294.256C1704.85 278.06 1756.36 267.103 1808.32 261.683C1860.75 256.16 1913.79 256.243 1965.94 261.937C1988.64 264.427 2011.57 268.041 2034.1 272.684C2043.07 274.476 2051.43 276.346 2059.52 278.377C2132.27 295.921 2202.25 324.813 2267.34 364.197C2434.23 465.335 2550.8 624.612 2595.59 812.688C2640.04 999.309 2608.33 1192.05 2506.29 1355.41C2372.91 1569.04 2135.92 1698.78 1882.59 1698.78ZM1234.95 1211.47C1275.09 1320.45 1343.27 1417.91 1432.14 1493.32C1450.96 1509.27 1470.74 1524.32 1490.9 1538.02C1500.18 1544.37 1510.28 1550.87 1521.83 1557.96C1553.1 1576.9 1586.08 1593.49 1619.74 1607.19C1647.97 1618.76 1677.48 1628.58 1707.49 1636.4C1742.6 1645.57 1778.97 1652.02 1815.59 1655.58C1828.77 1656.81 1842.13 1657.71 1855.24 1658.24C2104.96 1668.17 2341.49 1543.83 2472.36 1334.22C2568.68 1180.01 2598.63 998.083 2556.68 821.955C2514.39 644.372 2404.27 493.952 2246.62 398.41C2185.06 361.159 2118.89 333.84 2049.96 317.219C2042.32 315.305 2034.6 313.572 2026.14 311.887C2004.72 307.468 1983.04 304.05 1961.59 301.701C1912.27 296.31 1862.1 296.237 1812.49 301.462C1763.31 306.594 1714.58 316.96 1667.62 332.287C1652.53 337.199 1637.63 342.614 1623.3 348.386C1601.03 357.37 1579.39 367.4 1558.98 378.186C1451.23 434.758 1360.31 519.089 1296 622.092C1184.82 800.075 1162.57 1014.89 1234.95 1211.47Z" fill="#371A45"/>
<path d="M1786.56 1662.17C1727.49 1662.17 1667.67 1655.34 1608.5 1641.46L1606.1 1640.69C1570.68 1626.27 1535.99 1608.83 1503 1588.84C1490.86 1581.4 1480.26 1574.57 1470.53 1567.91C1449.35 1553.52 1428.55 1537.69 1408.74 1520.9C1315.12 1441.47 1243.3 1338.79 1201.01 1223.96C1124.73 1016.82 1148.17 790.465 1265.32 602.931C1333.02 494.493 1428.74 405.714 1542.11 346.188L1543.58 345.412L1545.18 344.958C1635.07 319.23 1735.72 313.981 1844.33 329.372C2039.78 357.048 2226.49 473.84 2343.78 641.784C2449.36 792.956 2487.88 967.941 2452.24 1134.5C2413.42 1315.86 2314.21 1461.58 2165.34 1555.89C2054.94 1625.84 1922.78 1662.17 1786.56 1662.17ZM1617.12 1610.26C1803.94 1653.76 1997.39 1624.01 2148.03 1528.57C2289.39 1439.01 2383.65 1300.4 2420.61 1127.73C2454.35 970.041 2417.65 804.04 2317.27 660.304C2205.02 499.581 2026.52 387.838 1839.79 361.393C1736.35 346.745 1640.76 351.525 1555.68 375.597C1448.02 432.453 1357.13 516.954 1292.76 620.065C1180.94 799.059 1158.56 1015.09 1231.36 1212.79C1271.72 1322.39 1340.29 1420.41 1429.66 1496.24C1448.59 1512.28 1468.48 1527.41 1488.75 1541.19C1498.07 1547.56 1508.23 1554.11 1519.83 1561.22C1550.93 1580.06 1583.68 1596.57 1617.12 1610.26Z" fill="#371A45"/>
<path d="M1785.47 1590.56C1607.79 1590.56 1428.87 1520.29 1288.71 1389.6L1287.14 1388.15L1244.47 1319.41C1243.98 1318.29 1194.98 1206.64 1165.84 1088.43C1136.05 967.557 1178.95 804.31 1180.79 797.42L1181.62 795.062C1315.93 490.99 1536.34 358.368 1836.72 400.921C2011.09 425.613 2177.65 529.793 2282.28 679.598C2376.5 814.495 2410.87 970.667 2379.06 1119.34C2332.94 1334.9 2188.18 1495.75 1981.89 1560.66C1917.98 1580.76 1851.81 1590.56 1785.47 1590.56ZM1312.32 1367.39C1496.18 1537.84 1748.82 1600.08 1972.18 1529.8C2167.05 1468.49 2303.82 1316.42 2347.43 1112.57C2377.34 972.77 2344.78 825.578 2255.76 698.117C2156.17 555.534 1997.83 456.403 1832.18 432.941C1548.29 392.736 1339.53 518.576 1211.74 806.93C1207.95 821.74 1170.71 973.033 1197.24 1080.68C1224.24 1190.21 1268.67 1293.94 1273.62 1305.32L1312.32 1367.39Z" fill="#371A45"/>
<path d="M2679.58 1131.03C2667.37 1268.69 2574.68 1377.09 2472.52 1373.13C2370.36 1369.16 2297.45 1254.34 2309.66 1116.67C2309.72 1115.81 2309.83 1114.9 2309.94 1114.03C2323.06 977.622 2415.29 870.627 2516.73 874.576C2595.65 877.636 2657.11 946.862 2675.37 1041.65C2680.73 1069.56 2682.36 1099.72 2679.58 1131.03Z" fill="white"/>
<path d="M2679.58 1131.03C2667.37 1268.69 2574.68 1377.09 2472.52 1373.13C2370.36 1369.16 2297.45 1254.34 2309.66 1116.67C2309.72 1115.81 2309.83 1114.9 2309.94 1114.03C2319.91 1128.59 2336.16 1143.19 2360.26 1139.42C2402.47 1132.8 2484.76 1047.16 2484.76 1047.16C2484.76 1047.16 2567.41 1044.23 2675.37 1041.65C2680.73 1069.55 2682.36 1099.72 2679.58 1131.03Z" fill="#D8D8D8"/>
<path d="M2477.87 1389.39C2475.88 1389.39 2473.9 1389.35 2471.89 1389.27C2427.46 1387.55 2386.97 1367.32 2354.82 1330.79C2308.41 1278.06 2286.08 1199.49 2293.56 1115.23C2306.51 969.334 2406.95 854.353 2517.38 858.416C2561.82 860.145 2602.3 880.369 2634.46 916.902C2680.86 969.627 2703.19 1048.2 2695.71 1132.46C2683 1275.71 2585.96 1389.39 2477.87 1389.39ZM2511.28 890.642C2419.67 890.642 2337.03 991.321 2325.78 1118.09C2319.18 1192.46 2339.11 1263.99 2379.1 1309.42C2405.26 1339.14 2437.78 1355.58 2473.15 1356.95C2566.6 1360.56 2652.05 1258.6 2663.5 1129.6C2670.1 1055.23 2650.16 983.703 2610.18 938.268C2584.02 908.546 2551.5 892.111 2516.13 890.739C2514.51 890.676 2512.89 890.642 2511.28 890.642Z" fill="#371A45"/>
<path d="M2699.79 1177.32C2719.94 1069.32 2670.09 969.411 2588.45 954.178C2506.8 938.945 2424.28 1014.15 2404.13 1122.16C2383.98 1230.17 2433.83 1330.07 2515.47 1345.3C2597.12 1360.54 2679.64 1285.33 2699.79 1177.32Z" fill="white"/>
<path d="M2536.33 1349.01C2514.4 1349.01 2493.18 1342.78 2473.66 1330.46C2400.72 1284.4 2376.42 1165.89 2419.48 1066.27C2443.49 1010.74 2484.13 970.597 2530.98 956.115C2565.8 945.358 2600.22 949.787 2630.53 968.928C2703.47 1014.99 2727.77 1133.5 2684.71 1233.12C2660.7 1288.64 2620.06 1328.79 2573.21 1343.27C2560.82 1347.1 2548.46 1349.01 2536.33 1349.01ZM2567.84 953.767C2556.04 953.767 2544.04 955.622 2531.98 959.348C2486.07 973.537 2446.2 1012.99 2422.59 1067.61C2380.15 1165.76 2403.87 1282.39 2475.47 1327.59C2504.92 1346.19 2538.38 1350.5 2572.21 1340.04C2618.12 1325.85 2657.99 1286.39 2681.6 1231.78C2724.04 1133.62 2700.32 1016.99 2628.73 971.789C2609.77 959.816 2589.15 953.767 2567.84 953.767Z" fill="#371A45"/>
<path d="M2403.03 1221.56C2396.98 1184.37 2401.25 1145.41 2413.45 1109.51C2434.5 1193.14 2506.52 1232.66 2580.72 1198.17C2628.69 1175.91 2666.51 1127.83 2685.35 1072.27C2686.71 1077.54 2687.81 1083.05 2688.74 1088.69C2704.11 1183.38 2652.61 1289.9 2573.7 1326.58C2494.8 1363.27 2418.4 1316.2 2403.03 1221.56Z" fill="#D8D8D8"/>
<path d="M2537.46 1363.98C2536.3 1363.98 2535.15 1363.96 2534 1363.92C2501.09 1362.9 2470.93 1347.91 2446.77 1320.57C2409.29 1278.15 2390.87 1210.18 2397.49 1138.77C2408.5 1020.03 2485.13 925.221 2569.21 925.221C2570.36 925.221 2571.51 925.236 2572.67 925.275C2605.57 926.296 2635.73 941.286 2659.89 968.629C2697.37 1011.05 2715.79 1079.01 2709.17 1150.43C2698.16 1269.17 2621.54 1363.98 2537.46 1363.98ZM2569.07 957.561C2501.4 957.561 2439.19 1039.39 2429.7 1141.75C2423.89 1204.45 2439.33 1263.29 2471.01 1299.15C2489.11 1319.64 2511.24 1330.86 2535 1331.6C2535.86 1331.62 2536.73 1331.64 2537.6 1331.64C2605.27 1331.64 2667.47 1249.81 2676.96 1147.44C2682.78 1084.74 2667.33 1025.91 2635.65 990.047C2617.55 969.559 2595.43 958.343 2571.67 957.601C2570.8 957.575 2569.93 957.561 2569.07 957.561Z" fill="#371A45"/>
<g opacity="0.5">
<path d="M1986.3 582.703C1986.3 582.703 1793.67 538.163 1598.5 689C1598.3 689.159 1479.76 709.598 1479.56 709.757C1438.51 741.538 1406.91 783.694 1387.77 831.547C1362.46 894.83 1354.41 942.084 1348.96 983.95C1332.43 1111.29 1348.85 1173.97 1348.85 1173.97C1284.11 1097.51 1252.62 1015.96 1265.32 909.767C1266.6 899.302 1268.31 888.556 1270.42 877.581C1270.9 875.05 1271.43 872.553 1272 870.044C1271.95 870.013 1271.98 869.96 1272.06 869.898C1277.92 847.963 1286.72 819.422 1299.38 788.044C1337.5 693.383 1410.42 572.81 1542.6 529.14C1789.76 447.482 1998.67 570.734 1986.3 582.703Z" fill="white"/>
</g>
</svg>
