<svg width="1421" height="2121" viewBox="0 0 1421 2121" fill="none" xmlns="http://www.w3.org/2000/svg">
<path d="M1406.87 1211.07L1285.21 1432.79L1206.55 1576.17C1206.55 1576.17 705.944 1354.49 417.204 679.823C373.378 621.206 276.231 460.182 433.274 364.313C447.7 355.511 464.281 347.258 483.272 339.661C447.262 255.15 474.251 224.801 504.308 224.727C567.271 224.617 676.581 288.055 728.405 387.906C740.165 410.586 755.212 530.121 766.57 547.286C766.57 547.286 1014.44 989.16 1406.87 1211.07Z" fill="white"/>
<path d="M1406.87 1211.07L1349.86 1315.01L1336.53 1339.26L1285.21 1432.79L1206.55 1576.17C1206.55 1576.17 705.944 1354.49 417.204 679.822C373.378 621.205 276.231 460.181 433.274 364.312C447.7 355.51 464.281 347.257 483.272 339.66C447.262 255.149 474.251 224.8 504.308 224.726C567.271 224.616 676.581 288.054 728.405 387.905C740.165 410.585 755.212 530.12 766.57 547.285C766.57 547.285 859.408 712.764 1021.38 892.049C1036.98 909.324 1053.19 926.708 1070.06 944.092C1164.22 1041.17 1277.73 1138.02 1406.87 1211.07Z" fill="white"/>
<path d="M1406.87 1211.07L1349.86 1315.01C1125.36 1212.23 1045.34 984.412 1021.38 892.049C1036.98 909.324 1053.19 926.708 1070.06 944.092C1164.22 1041.17 1277.73 1138.02 1406.87 1211.07Z" fill="#E8E8E8"/>
<path d="M1285.21 1432.79L1206.55 1576.17C1206.55 1576.17 705.944 1354.49 417.204 679.823C373.378 621.206 276.231 460.182 433.274 364.313L624.72 502.547C635.786 628.51 542.182 697.39 619.205 877.624C734.723 1147.96 1052.39 1399.37 1239.2 1414.6C1258.95 1416.21 1273.96 1422.75 1285.21 1432.79Z" fill="#E8E8E8"/>
<path d="M1206.53 1590.21C1204.63 1590.21 1202.7 1589.83 1200.85 1589.01C1195.66 1586.71 1071.93 1531.14 910.952 1391.62C762.944 1263.34 555.107 1036.99 404.951 686.896C375.771 647.531 313.535 549.416 339.209 458.205C354.292 404.611 396.616 362.214 465.098 332.04C444.707 277.733 451.88 248.185 462.076 232.726C471.29 218.751 486.671 210.719 504.278 210.685C504.351 210.682 504.424 210.682 504.498 210.682C575.909 210.682 687.843 279.225 740.865 381.439C747.12 393.492 752.657 421.014 761.036 464.913C766.173 491.824 773.932 532.491 778.302 539.566C778.405 539.732 778.717 540.233 778.815 540.406C781.276 544.791 1029.42 981.493 1413.78 1198.82C1420.53 1202.64 1422.91 1211.21 1419.09 1217.97C1415.27 1224.72 1406.69 1227.1 1399.95 1223.28C1013.52 1004.79 763.126 569.669 754.512 554.527C747.681 543.582 742.022 515.201 733.428 470.181C727.774 440.545 720.738 403.66 715.923 394.38C663.911 294.129 557.969 238.784 504.483 238.784C504.434 238.784 504.385 238.787 504.337 238.787C498.58 238.797 490.65 240.437 485.538 248.194C480.797 255.384 472.345 278.155 496.212 334.132C497.696 337.611 497.716 341.539 496.266 345.033C494.811 348.527 492.013 351.285 488.502 352.689C420.909 379.708 379.781 417.77 366.261 465.819C343.678 546.053 402.242 636.334 428.468 671.424C429.137 672.318 429.694 673.284 430.133 674.307C578.009 1019.82 782.726 1243.1 928.419 1369.56C1086.38 1506.68 1210.99 1562.76 1212.23 1563.31C1219.33 1566.46 1222.52 1574.76 1219.38 1581.85C1217.06 1587.1 1211.92 1590.21 1206.53 1590.21Z" fill="#371A45"/>
<path d="M685.318 1133.71C682.354 1133.71 679.361 1133.67 676.343 1133.6C670.527 1133.46 665.918 1128.64 666.055 1122.82C666.197 1117 670.781 1112.4 676.841 1112.53C781.465 1114.98 864.717 1073.24 924.068 988.441C968.843 924.459 982.593 858.627 982.73 857.97C983.887 852.269 989.449 848.561 995.147 849.738C1000.85 850.893 1004.54 856.445 1003.39 862.148C1002.81 864.982 988.828 932.363 941.773 999.902C898.951 1061.36 819.927 1133.71 685.318 1133.71Z" fill="#371A45"/>
<path d="M1114.35 1521.29C493.096 1234.56 507.077 876.889 507.077 876.889C507.077 876.889 836.993 756.555 892.33 737.754C969.987 711.371 1005.11 798.404 1051.63 860.062C1092.54 914.287 1229.84 1116.08 1400.08 1167.85" fill="#685D51"/>
<path d="M1400.09 1167.87L1247.3 1356.83L1114.33 1521.29C493.087 1234.55 507.078 876.871 507.078 876.871C507.078 876.871 837.011 756.555 892.341 737.757C907.001 732.752 920.164 731.846 932.144 734.013C983.651 743.353 1013.88 810.033 1051.63 860.044C1092.54 914.27 1229.84 1116.08 1400.09 1167.87Z" fill="#685D51"/>
<g opacity="0.3">
<path d="M975.961 925.922C950.573 895.058 854.683 935.344 830.604 974.706C806.285 1014.46 834.827 1072.07 914.234 1049.38C967.673 1034.11 999.59 954.648 975.961 925.922Z" fill="white"/>
</g>
<path d="M1247.3 1356.83L1134.98 1495.75C591.137 1243.26 537.54 936.694 532.457 867.61C610.803 839.078 846.351 753.363 892.341 737.757C907.001 732.752 920.164 731.846 932.144 734.013C929.149 759.393 925.562 808.181 876.971 860.477C876.932 860.517 876.893 860.556 876.853 860.595C840.163 900.083 777.857 941.541 670.822 976.537C660.891 979.768 650.605 982.961 639.885 986.074C639.885 986.074 794.724 1382.57 1156.26 1354C1195.99 1350.84 1225.78 1352.78 1247.3 1356.83Z" fill="#494440"/>
<path d="M1247.3 1356.83L1134.98 1495.75C591.137 1243.26 537.54 936.694 532.457 867.61C610.803 839.078 846.351 753.363 892.341 737.757C907.001 732.752 920.164 731.846 932.144 734.013C929.149 759.432 925.562 808.26 876.853 860.595C840.163 900.083 777.857 941.541 670.822 976.537C660.891 979.768 650.605 982.961 639.885 986.074C639.885 986.074 794.724 1382.57 1156.26 1354C1195.99 1350.84 1225.78 1352.78 1247.3 1356.83Z" fill="#494440"/>
<path d="M1114.34 1535.34C1112.37 1535.34 1110.37 1534.93 1108.46 1534.05C784.258 1384.41 634.331 1214.73 565.649 1098.72C490.244 971.364 492.885 880.16 493.032 876.339C493.257 870.641 496.904 865.641 502.261 863.688C505.562 862.485 832.959 743.085 887.808 724.45C960.689 699.706 1001.35 760.778 1037.23 814.672C1045.52 827.128 1054.1 840.011 1062.84 851.601C1066.1 855.917 1069.97 861.162 1074.4 867.187C1122.93 933.071 1251.83 1108.08 1404.17 1154.41C1411.6 1156.67 1415.79 1164.52 1413.53 1171.94C1411.27 1179.37 1403.44 1183.55 1396 1181.3C1234.73 1132.26 1101.81 951.791 1051.77 883.852C1047.41 877.929 1043.61 872.77 1040.41 868.525C1031.17 856.274 1022.36 843.044 1013.84 830.246C973.658 769.892 945.734 734.438 896.852 751.061C847.565 767.804 575.861 866.774 521.383 886.63C522.897 912.135 532.472 988.383 591.115 1086.56C657.995 1198.52 804.084 1362.61 1120.24 1508.53C1127.29 1511.78 1130.36 1520.13 1127.11 1527.18C1124.74 1532.31 1119.65 1535.34 1114.34 1535.34Z" fill="#371A45"/>
<path d="M1140.65 2079.36C1144.66 2100.57 1157.12 2116.72 1178.91 2102.84C1180.4 2101.67 1182.61 2101.97 1183.66 2103.57C1186.97 2109.97 1193.08 2119.71 1201.5 2115.43C1203.99 2114.17 1206.33 2112.17 1208.46 2109.95C1200.97 2127.5 1185.31 2120.61 1177.96 2106.97L1182.95 2108.11C1158.62 2125.76 1138.21 2105.66 1140.65 2079.36Z" fill="#D3AB90"/>
<path d="M420.137 203.969C533.635 238.039 531.307 127.308 598.349 160.412C654.157 187.969 641.657 306.765 641.657 306.765L475.89 326.179" fill="#371A45"/>
<path d="M475.87 340.231C468.844 340.231 462.769 334.965 461.935 327.814C461.032 320.104 466.549 313.124 474.254 312.223L628.522 294.154C630.368 258.258 626.574 190.018 592.13 173.011C571.129 162.638 562.159 169.554 542.13 187.586C518.336 209.002 485.758 238.331 416.1 217.427C408.663 215.196 404.45 207.361 406.681 199.927C408.912 192.495 416.749 188.279 424.176 190.508C478.712 206.873 501.383 186.445 523.326 166.697C543.17 148.838 565.665 128.601 604.571 147.81C668.419 179.338 656.182 302.986 655.631 308.232C654.943 314.768 649.816 319.953 643.292 320.717L477.525 340.131C476.969 340.199 476.417 340.231 475.87 340.231Z" fill="#371A45"/>
<path d="M323.206 430.824C323.206 430.824 216.428 618.245 248.473 667.97C256.794 680.882 286.504 690.465 315.804 680.069C403.705 648.881 574.452 510.21 574.452 510.21" fill="#FF5555"/>
<path d="M323.206 430.824C323.206 430.824 216.428 618.245 248.473 667.97C256.794 680.882 286.504 690.465 315.804 680.069C403.705 648.881 574.452 510.21 574.452 510.21" fill="#FF5555"/>
<path d="M574.446 510.191C574.446 510.191 403.686 648.871 315.804 680.083C312.454 681.265 309.065 682.211 305.755 682.881C279.981 688.201 255.862 679.374 248.493 667.984C216.414 618.25 323.213 430.82 323.213 430.82L368.455 445.126L574.446 510.191Z" fill="#FF5555"/>
<path d="M574.445 510.191C574.445 510.191 403.685 648.871 315.803 680.083C312.453 681.265 309.064 682.211 305.754 682.881C293.3 680.24 283.487 674.526 279.271 667.984C256.059 631.925 327.39 509.677 368.454 445.126L574.445 510.191Z" fill="#E52E2E"/>
<path d="M290.216 698.531C266.153 698.534 245.211 688.846 236.661 675.579C201.773 621.436 292.467 456.402 311.002 423.868C314.835 417.13 323.419 414.771 330.162 418.614C336.905 422.454 339.259 431.036 335.421 437.779C292.843 512.54 241.383 631.024 260.284 660.357C264.127 666.321 286.06 675.711 311.109 666.827C395.714 636.805 563.907 500.672 565.596 499.3C571.617 494.407 580.469 495.328 585.362 501.351C590.255 507.374 589.336 516.224 583.311 521.117C576.265 526.84 409.664 661.679 320.503 693.312C310.313 696.93 300.001 698.531 290.216 698.531Z" fill="#371A45"/>
<path d="M271.465 641.876C271.803 624.747 277.35 606.765 283.462 590.841C302.644 542.711 329.131 498.24 357.326 454.913C362.604 447.256 374.215 455.048 368.918 462.86C349.312 490.425 330.841 519.236 314.218 548.753C298.807 577.804 281.089 608.861 278.49 641.875C278.694 646.796 271.22 646.933 271.465 641.876Z" fill="#371A45"/>
<path d="M301.66 93.6681C184.438 89.6241 115.234 163.399 99.5532 226.868C77.2562 317.117 117.204 390.998 166.756 428.477C293.403 524.266 753.661 546.455 934.363 538.988C1115.07 531.521 1040.39 377.701 1040.39 377.701L598.348 160.412C598.348 160.412 645.577 228.362 570.067 241.802C494.557 255.242 381.805 202.974 389.272 114.116C389.272 114.116 335.64 94.8401 301.66 93.6681Z" fill="#FF5555"/>
<path d="M934.369 538.999C766.92 545.896 359.35 527.334 199.743 448.358C187.093 442.131 176.019 435.511 166.758 428.496C117.221 391.018 77.2596 317.126 99.5646 226.878C115.25 163.391 184.452 89.6171 301.655 93.6761C308.985 93.9121 317.221 95.0161 325.616 96.5921C356.237 102.267 389.262 114.129 389.262 114.129C381.814 202.957 494.563 255.253 570.071 241.814C645.579 228.376 598.367 160.395 598.367 160.395L1040.38 377.696C1040.38 377.696 1115.06 531.511 934.369 538.999Z" fill="#FF5555"/>
<path d="M934.369 538.999C766.92 545.896 359.35 527.334 199.743 448.358C187.093 442.131 176.019 435.511 166.758 428.496C117.221 391.018 77.2596 317.126 99.5646 226.878C103.743 210.011 111.664 192.435 123.289 175.804C155.368 129.695 215.585 90.68 301.655 93.676C308.985 93.912 317.221 95.016 325.616 96.592C356.237 102.267 389.262 114.129 389.262 114.129C381.814 202.957 494.563 255.253 570.071 241.814C645.579 228.376 598.367 160.395 598.367 160.395L1040.38 377.696C1040.38 377.696 1054.61 406.977 1055.63 440.672C1056.93 484.102 1036.2 534.782 934.369 538.999Z" fill="#FF5555"/>
<path d="M1043.3 492.102C1025.05 502.349 999.63 509.285 964.595 510.742C797.146 517.639 389.577 499.077 229.97 420.101C217.319 413.875 206.246 407.254 196.984 400.239C147.447 362.761 107.486 288.869 129.791 198.622C131.525 191.646 133.89 184.513 136.924 177.38C167.978 185.104 191.072 220.652 249.831 246.385C319.349 276.848 839.47 407.608 1055.63 440.672C1056.14 457.777 1053.23 476.023 1043.3 492.102Z" fill="#E52E2E"/>
<path d="M1043.3 492.102C1025.05 502.349 999.63 509.285 964.595 510.742C797.146 517.639 389.577 499.077 229.97 420.101C217.319 413.875 206.246 407.254 196.984 400.239C147.447 362.761 107.486 288.869 129.791 198.622C131.525 191.646 133.89 184.513 136.924 177.38C167.978 185.104 191.072 220.652 249.831 246.385C319.349 276.848 839.47 407.608 1055.63 440.672C1056.14 457.777 1053.23 476.023 1043.3 492.102Z" fill="#E52E2E"/>
<path d="M320.887 269.717C308.316 330.013 282.976 387.905 238.877 424.279C235.843 422.939 232.848 421.521 229.971 420.101C221.301 415.845 213.379 411.392 206.286 406.742C248.847 372.022 274.109 317.283 287.271 259.588C297.124 262.662 308.355 266.051 320.887 269.717Z" fill="#D8D8D8"/>
<path d="M939.878 407.164C952.271 389.076 943.646 361.62 920.614 345.839C897.582 330.057 868.864 331.927 856.47 350.015C844.077 368.103 852.702 395.559 875.734 411.341C898.766 427.122 927.484 425.252 939.878 407.164Z" fill="white"/>
<path d="M199.743 448.358C187.92 442.525 177.477 436.378 168.61 429.875C287.152 377.776 308.867 199.096 295.941 93.558C297.833 93.558 299.724 93.597 301.655 93.676C308.985 93.912 317.221 95.016 325.616 96.592C342.679 199.411 324.788 394.092 199.743 448.358Z" fill="white"/>
<path d="M320.887 269.717C308.316 330.013 282.976 387.905 238.877 424.279C235.843 422.939 232.848 421.521 229.971 420.101C221.301 415.845 213.379 411.392 206.286 406.742C248.847 372.022 274.109 317.283 287.271 259.588C297.124 262.662 308.355 266.051 320.887 269.717Z" fill="#D8D8D8"/>
<path d="M866.093 554.23C669.809 554.23 279.081 531.051 158.281 439.684C109.394 402.709 61.1032 323.903 85.9132 223.497C104.336 148.929 184.619 75.628 302.143 79.625C337.91 80.858 391.752 100.077 394.023 100.894C400.014 103.045 403.808 108.953 403.276 115.293C400.4 149.524 418.745 173.987 434.643 188.479C468.227 219.101 524.14 235.684 567.607 227.969C583.842 225.076 593.828 219.429 597.28 211.177C603.12 197.22 591.367 175.061 586.792 168.399C583.169 163.133 583.55 156.072 587.73 151.238C591.91 146.402 598.804 144.981 604.551 147.8L1046.59 365.09C1049.41 366.469 1051.67 368.747 1053.04 371.565C1054.48 374.529 1087.93 444.817 1055.94 498.335C1035.73 532.144 995.014 550.544 934.941 553.027C916.494 553.79 893.134 554.23 866.093 554.23ZM292.514 107.56C183.383 107.56 125.576 180.126 113.198 230.238C91.6652 317.372 133.159 385.448 175.234 417.272C299.375 511.166 761.86 532.064 933.779 524.948C983.73 522.885 1016.7 509.111 1031.76 484.006C1052.24 449.87 1035.46 402.343 1029.58 388.044L625.741 189.536C627.728 199.846 627.719 211.152 623.251 221.914C615.902 239.609 598.837 250.955 572.528 255.637C520.345 264.939 455.853 245.849 415.707 209.25C389.276 185.153 375.302 155.898 374.872 124.082C358.378 118.711 324.306 108.511 301.176 107.712C298.257 107.611 295.361 107.56 292.514 107.56Z" fill="#371A45"/>
<path d="M543.093 343.353C543.093 343.353 508.745 316.903 543.093 281.377C578.321 244.94 831.319 147.718 881.348 152.945C908.986 155.833 942.577 189.533 942.577 209.694C942.577 229.855 802.929 375.398 758.889 385.915C708.86 397.862 590.135 379.195 543.093 343.353Z" fill="#FF5555"/>
<path d="M942.566 209.697C942.566 212.258 940.32 216.83 936.301 222.899C908.675 264.633 797.344 376.752 758.881 385.934C719.866 395.235 638.959 385.934 582.958 364.338L582.919 364.298C567.155 358.268 553.401 351.214 543.077 343.372C543.077 343.372 508.752 316.889 543.077 281.382C578.309 244.929 831.315 147.707 881.365 152.948C908.99 155.824 942.566 189.519 942.566 209.697Z" fill="#FF5555"/>
<path d="M936.299 222.899C908.673 264.633 797.342 376.752 758.879 385.934C719.864 395.235 638.957 385.934 582.956 364.338L582.917 364.298C520.887 319.056 820.16 194.918 868.594 187.391C890.151 184.041 916.949 202.484 936.299 222.899Z" fill="#E52E2E"/>
<path d="M720.395 403.602C659.467 403.602 574.35 384.832 534.575 354.53C534.555 354.515 534.536 354.501 534.516 354.486C532.582 352.994 515.551 339.266 513.901 316.673C512.758 301.055 519.179 285.894 532.988 271.61C571.87 231.395 830.053 133.346 882.807 138.971C916.616 142.504 956.63 180.839 956.63 209.694C956.63 229.362 906.84 281.847 877.157 311.381C853.011 335.409 793.47 392.104 762.147 399.582C750.747 402.306 736.401 403.602 720.395 403.602ZM551.728 332.269C594.667 364.847 708.051 383.614 755.624 372.247C792.03 363.556 918.466 234.906 928.461 208.629C926.991 195.973 900.673 169.093 879.887 166.92C835.971 162.34 585.683 257.543 553.193 291.146C545.253 299.356 541.46 307.193 541.914 314.432C542.548 324.45 551.064 331.718 551.728 332.269Z" fill="#371A45"/>
<path d="M857.124 192.675C776.348 224.889 694.414 258.291 621.035 305.235C608.368 314.26 562.1 344.5 587.007 358.605C594.677 363.894 586.816 375.407 579.092 370.216C509.043 320.489 738.807 233.113 772.719 217.779C799.846 206.686 827.117 196.076 854.695 186.081C858.821 184.647 861.565 190.894 857.124 192.675Z" fill="#371A45"/>
<g opacity="0.2">
<path d="M216.333 244.577C243.134 131.638 227.345 31.1809 181.067 20.1988C134.789 9.21664 75.5467 91.8687 48.7456 204.807C21.9444 317.746 37.7335 418.204 84.0115 429.186C130.29 440.168 189.532 357.516 216.333 244.577Z" fill="white"/>
</g>
<g opacity="0.2">
<path d="M229.26 148.455C228.59 177.972 224.373 210.722 216.334 244.613C203.92 296.988 184.492 342.86 162.619 375.885C137.358 414.072 108.825 435.117 83.9985 429.206C79.3085 428.102 74.9344 426.092 70.9144 423.176C34.9734 397.797 24.6485 306.368 48.7275 204.85C75.5255 91.903 134.796 9.26202 181.063 20.257C193.714 23.252 204.078 32.907 211.921 47.686C224.176 70.78 230.285 106.366 229.26 148.455Z" fill="white"/>
</g>
<g opacity="0.7">
<path d="M162.62 375.885C137.359 414.072 108.826 435.117 83.9991 429.206C79.3091 428.102 74.935 426.092 70.915 423.176L86.7971 240.16L111.704 229.441L162.62 375.885Z" fill="white"/>
</g>
<g opacity="0.7">
<path d="M229.26 148.455L131.33 206.426L110.521 189.086L211.921 47.686C224.177 70.78 230.285 106.366 229.26 148.455Z" fill="white"/>
</g>
<path d="M93.3294 74.7281C105.609 51.5991 121.79 28.3661 145.636 14.6761C177.103 -3.45691 209.415 11.9451 224.679 42.7051C248.178 91.4551 245.505 147.192 237.706 198.373C232.006 232.17 222.512 265.18 208.596 296.254C207.004 299.809 202.832 301.398 199.277 299.806C196.098 298.384 194.485 294.888 195.327 291.627C210.592 228.614 221.117 163.263 212.576 98.8391C206.58 54.966 186.158 6.14606 137.665 47.2451C125.717 57.0211 115.177 69.4131 105.151 82.3051C99.9214 88.9921 89.4504 82.2141 93.3294 74.7281Z" fill="#371A45"/>
<path d="M174.206 370.746C161.771 394.99 145.364 419.322 120.913 434.069C88.3069 453.714 54.6898 437.485 39.4828 404.976C4.27685 327.131 26.3048 215.952 60.7458 141.442C64.4748 133.813 76.2079 138.134 73.8869 146.42C54.1769 218.608 35.0229 322.454 64.0339 392.943C89.3309 449.771 139.581 394.86 162.202 363.443C167.261 356.531 178.007 363.13 174.206 370.746Z" fill="#371A45"/>
<path d="M130.495 224.252C125.607 244.846 114.804 259.917 106.365 257.915C97.9264 255.912 59.9144 238.175 66.4334 208.456C72.9524 178.737 115.627 181.333 124.066 183.336C132.504 185.339 135.383 203.658 130.495 224.252Z" fill="white"/>
<path d="M107.973 272.152C106.108 272.152 104.462 271.903 103.119 271.586C87.3042 267.836 44.1882 244.269 52.7092 205.443C55.2482 193.873 61.9962 184.361 72.2262 177.933C92.6852 165.074 120.878 168.136 127.309 169.664C133.1 171.038 143.247 176.109 146.161 194.642C147.65 204.134 146.942 215.802 144.164 227.496C141.386 239.193 136.776 249.935 131.181 257.743C122.793 269.45 114.155 272.152 107.973 272.152ZM111.65 196.302C104.169 196.302 94.0472 197.41 87.1772 201.727C83.3152 204.156 81.0832 207.25 80.1602 211.466C76.6102 227.626 98.6172 239.701 106.879 243.229C109.447 240.319 113.964 233.041 116.82 221.007C116.82 221.005 116.82 221.005 116.82 221.005C119.706 208.859 118.9 200.28 117.894 196.581C116.23 196.42 114.077 196.302 111.65 196.302Z" fill="#371A45"/>
<path d="M769.474 630.417C769.474 630.417 734.236 501.567 692.76 443.504C663.582 402.657 596.243 420.909 606.685 492.051C612.237 529.877 631.806 545.917 628.902 552.485C625.998 559.053 609.063 606.594 604.699 659.388" fill="white"/>
<path d="M762.697 632.272C736.596 573.807 717.577 511.906 684.714 457.665C665.716 422.788 621.762 432.568 619.862 472.79C618.709 491.294 624.151 510.864 633.399 527.443C638.319 536.831 646.643 546.687 641.741 558.195C630.634 591.91 622.27 625.661 611.699 659.967C609.643 667.418 598.482 666.526 597.696 658.81C593.663 620.419 601.26 582.233 616.026 546.855C615.167 548.581 615.047 550.944 615.164 551.75C615.212 552.4 615.276 552.595 615.398 553.039C615.208 552.578 613.346 548.965 612.869 548.23C598.902 525.235 589.973 498.102 591.834 470.747C593.548 425.524 637.711 393.309 680.416 414.439C692.629 420.315 702.032 430.44 709.18 441.633C721.736 460.715 731.498 480.872 740.216 501.684C756.99 542.679 769.82 584.698 776.251 628.564C777.312 636.68 765.879 639.82 762.697 632.272Z" fill="#371A45"/>
<path d="M572.755 949.406C565.177 949.406 557.545 949.203 549.835 948.788C495.943 945.89 481.998 926.571 469.366 901.618C465.665 894.303 462.169 887.397 456.358 881.674C421.304 847.167 405.167 815.212 408.399 786.698C410.616 767.108 422.339 749.852 441.407 738.109C444.791 736.031 448.902 735.477 452.711 736.585C456.524 737.698 459.693 740.374 461.422 743.951L476.695 775.491C515.079 775.132 680.201 766.321 812.74 647.112L801.729 630.618C799.278 626.944 798.697 622.332 800.161 618.164C801.621 613.999 804.956 610.762 809.165 609.424C811.704 608.616 871.597 590.139 895.239 629.17C904.629 644.671 913.183 653.831 920.727 661.914C933.408 675.496 944.36 687.227 946.899 715.855C949.126 740.999 929.79 776.756 893.852 813.958C829.288 880.797 712.476 949.401 572.755 949.406ZM443.966 772.382C440.128 777.018 437.125 782.797 436.324 789.86C434.146 809.079 447.891 833.903 476.075 861.647C485.167 870.6 490.094 880.336 494.444 888.925C503.126 906.078 509.395 918.471 551.343 920.727C691.773 928.315 809.883 860.441 873.643 794.435C906.548 760.37 920.083 731.669 918.902 718.336C917.222 699.339 911.529 693.241 900.186 681.092C892.129 672.462 882.1 661.722 871.207 643.731C864.659 632.92 849.449 631.617 836.91 632.706L842.779 641.495C846.578 647.188 845.723 654.791 840.753 659.498C680.44 811.356 475.846 803.91 467.213 803.504C462.057 803.27 457.447 800.232 455.201 795.589L443.966 772.382Z" fill="#371A45"/>
</svg>
