<svg width="1958" height="2378" viewBox="0 0 1958 2378" fill="none" xmlns="http://www.w3.org/2000/svg">
<g opacity="0.2">
<path d="M618.843 2377.47C838.615 2377.47 1016.78 2356.26 1016.78 2330.09C1016.78 2303.93 838.615 2282.72 618.843 2282.72C399.071 2282.72 220.91 2303.93 220.91 2330.09C220.91 2356.26 399.071 2377.47 618.843 2377.47Z" fill="#371A45"/>
</g>
<path d="M1939.87 744.022C1590.97 711.369 1135.73 324.032 1135.73 324.032L957.843 313.035L896.758 581.547C896.758 581.547 1189.85 1058.71 1869.23 1131.15" fill="white"/>
<path d="M1901.33 955.321L1869.24 1131.16C1189.86 1058.72 896.776 581.539 896.776 581.539L923.043 466.091C979.774 416.31 1021.97 378.851 1021.97 378.851C1021.97 378.851 998.865 344.866 1068.41 351.727C1137.96 358.587 1115.13 676.678 1378.52 864.788C1559.09 993.73 1780.15 977.978 1901.33 955.321Z" fill="#E8E8E8"/>
<path d="M1869.25 1148.64C1868.63 1148.64 1868 1148.6 1867.37 1148.54C1512.17 1110.66 1263.38 961.347 1117.21 842.758C958.518 714.01 884.914 595.671 881.857 590.695L878.127 584.618L944.094 294.667L1142.62 306.94L1147.06 310.714C1151.57 314.552 1602.17 694.855 1941.49 726.613C1951.1 727.514 1958.17 736.037 1957.27 745.649C1956.37 755.263 1947.9 762.321 1938.23 761.428C1602.37 729.993 1179.8 383.784 1128.88 341.123L971.593 331.401L915.441 578.225C932.277 603.523 1005.46 707.327 1140.42 816.567C1282.77 931.784 1525.08 1076.87 1871.09 1113.77C1880.69 1114.79 1887.64 1123.41 1886.61 1133.01C1885.66 1141.98 1878.07 1148.64 1869.25 1148.64Z" fill="#371A45"/>
<path d="M1098.92 698.947C1098.92 698.947 1106.97 441.779 1053.02 266.937C1053.02 266.937 1210.49 229.279 1185.99 143.798C1169.84 87.4363 1092.36 111.303 1092.36 111.303C1092.36 111.303 1121.56 27.8953 1044.47 18.6283C1010.99 14.6033 963.676 38.1413 922.314 77.0653C888.452 108.931 858.351 147.802 849.497 191.685C840.696 235.306 870.003 496.113 849.48 549.131" fill="#63FF48"/>
<path d="M814.219 1196.55L868.782 1134.63L896.757 1102.91L977.435 1011.33C1051.18 1065.4 1339.99 1297.81 1339.99 1297.81C1395.85 1340.28 1470.78 1396.39 1455.14 1440.77C1452 1449.64 1447.27 1455.97 1441.62 1460.43C1416.7 1480.14 1373.73 1463.74 1369.8 1470.33C1364.97 1478.44 1420.19 1537.64 1382.12 1573.7C1347.73 1606.24 1221.41 1523.23 1221.41 1523.23C1221.41 1523.23 1171.08 1480.45 1101.47 1423.01C1015.57 1352.17 900.362 1259.07 814.219 1196.55Z" fill="#63FF48"/>
<path d="M819.348 1189.48C897.764 1229.79 962.791 1288.98 1032.1 1342.19C1097.03 1394.81 1174.26 1459.12 1231.21 1508.33C1254.65 1523.7 1349.13 1579.16 1371.48 1559.37C1388.77 1539.73 1367.45 1509.22 1357.54 1489.18C1343.66 1464.86 1357.82 1447.9 1383.58 1451.57C1397.54 1452.91 1417.59 1455.2 1428.65 1448.21C1450.87 1433.29 1434.55 1406.31 1420.17 1390C1393.01 1358.55 1357.22 1333.53 1324.1 1307.46C1251.29 1248.84 1143.27 1162.84 1069.67 1104.67C1035.61 1077.94 1001.41 1050.98 967.093 1025.42C959.199 1019.72 957.477 1008.62 963.309 1000.81C969.075 993.062 980.028 991.46 987.772 997.227C1023.08 1023.52 1057.06 1050.33 1091.29 1077.19C1165.13 1135.65 1273 1221.39 1346.01 1280.21C1388.25 1314.63 1462.2 1361.58 1473.85 1418.18C1478.09 1440.71 1466.83 1466.12 1446.89 1478.03C1424.55 1490.97 1403.4 1488.36 1380.67 1486.41C1378.31 1486.19 1375.7 1486.09 1375.28 1486.15C1377.08 1485.7 1378.2 1485.9 1382.16 1482.62C1385.42 1480.04 1387.97 1473.01 1386.68 1468.97C1386.57 1468.67 1386.85 1469.47 1387.23 1470.27L1388.66 1473.16C1396.83 1488.5 1405.46 1503.14 1410.22 1521.05C1419.57 1549.56 1406.85 1588.53 1375.53 1596.79C1326.9 1608.43 1252.3 1562.93 1211.64 1538.11C1144.37 1482.13 1076.65 1426.31 1008.58 1371.26C974.892 1343.86 941.362 1316.25 907.351 1289.34C873.276 1262.44 839.668 1235.18 809.053 1203.6C802.557 1196.75 810.127 1185.03 819.348 1189.48Z" fill="#371A45"/>
<path d="M1163.34 1456.99C1163.34 1456.99 1195.11 1574.8 1241.67 1571.67C1293.99 1568.15 1258.39 1486.39 1260.72 1470.88C1262.43 1465.87 1305.55 1447.21 1309.58 1375.19" fill="#63FF48"/>
<path d="M1180.22 1452.44C1188.06 1475.65 1215.03 1551.79 1241.6 1552.53C1263.71 1552.75 1243.65 1490.97 1243.27 1476.66C1243.06 1474.66 1242.96 1470.8 1243.6 1467.01C1244.57 1463.24 1247.01 1459.57 1248.73 1457.9C1249.72 1456.91 1251.12 1455.64 1251.88 1455.06C1264.43 1446.08 1275.21 1435.78 1283.15 1422.35C1291.83 1407.86 1296.99 1391.37 1300.89 1374.56C1303.14 1365.01 1317.32 1365.94 1318.3 1375.68C1322.9 1416.06 1306.26 1457.25 1274.04 1481.89C1275.13 1480.76 1276.11 1479.68 1277.27 1476.52L1278.01 1473.47C1278.2 1472.05 1278.09 1472.7 1278.22 1473.33C1284.28 1507.52 1303.1 1553.01 1270.55 1580.83C1199.65 1624.76 1159.43 1513.48 1146.46 1461.54C1141.75 1439.57 1173.31 1431.14 1180.22 1452.44Z" fill="#371A45"/>
<path d="M553.603 886.142C617.495 892.492 730.318 909.006 661.953 942.629C627.494 959.561 596.117 976.084 569.182 990.834C562.939 956.614 557.502 921.329 553.603 886.142Z" fill="#2BC614"/>
<path d="M611.77 1235.88C615.215 990.834 455.004 778.789 553.601 571.365C610.915 450.791 750.38 412.026 852.996 423.427C964.76 435.845 1079.53 501.244 1101.47 658.588C1133.08 885.328 1021.86 1045.09 939.44 1126.99L885.4 1213.68L611.77 1235.88Z" fill="#63FF48"/>
<path d="M594.288 1235.63C595.286 1117.76 555.694 1002.29 526.697 887.797C506.863 808.344 492.586 724.093 509.551 641.853C540.791 479.089 680.69 394.147 840.064 402.884C989.407 412.864 1103.26 508.817 1120.04 660.519C1132.27 752.623 1121.73 848.144 1087.33 934.623C1057.24 1011.5 1008.85 1081.45 945.6 1133.19C937.39 1139.63 926.755 1129.12 933.188 1120.9C957.991 1090.28 981.477 1058.89 1002.07 1025.46C1022.49 992.35 1040.58 957.93 1054.57 921.831C1084.62 845.164 1094.68 761.471 1085.71 679.707C1082.23 646.919 1075.37 613.747 1061.62 583.86C1016.19 477.263 891.17 429.332 781.135 443.228C660.868 457.606 571.266 528.548 547.836 649.717C524.763 765.868 566.434 882.015 594.113 994.555C614.366 1073.1 631.139 1154.11 629.248 1236.12C629.063 1245.78 621.087 1253.45 611.433 1253.27C601.84 1253.09 594.199 1245.2 594.288 1235.63Z" fill="#371A45"/>
<path d="M1098.92 1360.3C1051.56 1261.11 962.94 1181.68 814.231 1152.63C814.231 1152.63 746.393 1142.29 717.324 1145.89L647.717 1146.26C536.365 1157.26 435.64 1193.58 353.891 1246.31C242.176 1318.46 165.987 1421.27 146.834 1531.99C97.3749 1817.68 260.802 2109.16 546.491 2158.59C832.18 2208.02 1084.07 1988.41 1133.5 1702.73C1152.95 1590.32 1148.68 1464.42 1098.92 1360.3Z" fill="#63FF48"/>
<path d="M919.469 1958.79C919.469 1986.15 788.487 2182.83 458.405 2069.95C245.009 1996.98 186.473 1736.51 215.547 1739.9C232.393 1741.86 329.28 1938.26 539.131 1986.15C747.709 2033.75 919.469 1947.28 919.469 1958.79Z" fill="#2BC614"/>
<path d="M1098.92 1360.3C1051.56 1261.11 962.94 1181.68 814.231 1152.63C814.231 1152.63 746.393 1142.29 717.324 1145.89L647.717 1146.26C536.365 1157.26 435.64 1193.58 353.891 1246.31L354.609 1247.36C354.609 1247.36 753.729 1086.07 1098.92 1360.3Z" fill="#2BC614"/>
<path d="M717.231 1154.15C687.366 1165.28 655.598 1163.81 624.633 1168.58C444.57 1192.28 263.167 1294.74 186.007 1464.41C173.555 1492.05 165.533 1521.06 161.52 1551.09C113.067 1869.7 347.353 2187.03 686.042 2144.13C937.513 2111.33 1114.19 1869.04 1124.18 1624.24C1136.13 1450.51 1081.12 1281.9 917.101 1200.89C903.936 1193.19 890.166 1185.6 876.622 1177.35C868.309 1172.48 873.257 1159.35 882.596 1160.94C915.311 1165.76 945.692 1178.97 974.097 1195.99C1060.73 1246.43 1119.74 1336.15 1144.58 1432.04C1176.72 1556.57 1165.72 1697.26 1121.2 1817.45C1028.63 2069.69 763.031 2241.89 495.219 2164.91C232.415 2095.12 85.6605 1804.59 126.918 1546.1C131.328 1513.4 140.321 1480.47 153.738 1450.29C238.773 1261.02 442.187 1145.1 644.497 1130.78C668.989 1128.46 693.548 1128.18 717.403 1136.67C725.702 1139.48 725.449 1151.58 717.231 1154.15Z" fill="#371A45"/>
<path d="M1117.66 1777.02C1149.43 1745.68 1181.6 1655.85 1141.2 1549.86C1100.8 1443.87 1000.63 1418.58 965.158 1456.74C937.922 1486.03 911.049 1571.85 951.448 1677.84C991.847 1783.83 1085.12 1809.11 1117.66 1777.02Z" fill="#371A45"/>
<g opacity="0.5">
<path d="M943.609 1494.47C938.775 1532.62 942.305 1580.09 962.28 1632.49C1002.68 1738.49 1095.95 1763.79 1128.49 1731.7C1139.22 1721.12 1150.01 1703.84 1158.02 1681.52C1152.14 1726.01 1134.83 1760.09 1117.66 1777.03C1085.13 1809.11 991.857 1783.82 951.449 1677.85C922.495 1601.92 928.104 1536.34 943.609 1494.47Z" fill="white"/>
</g>
<g opacity="0.35">
<path d="M965.158 1456.72C1000.64 1418.58 1100.81 1443.89 1141.2 1549.85C1170.75 1627.38 1161.48 1696.25 1141.94 1739.9C1144.29 1705.46 1139.71 1665.78 1123.6 1623.53C1083.22 1517.54 983.048 1492.23 947.561 1530.4C941.938 1536.46 936.324 1544.94 931.316 1555.51C934.149 1508.66 949.61 1473.46 965.158 1456.72Z" fill="#111A28"/>
</g>
<path d="M488.627 1624.5C465.683 1580.99 468.9 1484.67 564.477 1408.83C660.054 1332.99 788.898 1358.57 813.074 1410.01C831.635 1449.5 824.039 1539.65 728.462 1615.49C632.885 1691.33 512.123 1669.07 488.627 1624.5Z" fill="#371A45"/>
<g opacity="0.5">
<path d="M484.757 1519.42C483.929 1543.46 488.71 1564.3 496.487 1579.06C519.984 1623.61 640.74 1645.9 736.324 1570.05C783.719 1532.46 809.496 1491.31 821.153 1454.6C820.159 1499.72 796.803 1561.27 728.459 1615.5C632.88 1691.32 512.119 1669.06 488.622 1624.51C476.249 1601.03 471.469 1562.18 484.757 1519.42Z" fill="white"/>
</g>
<g opacity="0.35">
<path d="M564.492 1408.82C660.04 1333 788.894 1358.57 813.083 1410C823.673 1432.55 825.729 1471.64 807.745 1515.15C806.695 1503.22 803.987 1492.85 800.156 1484.7C775.973 1433.24 647.119 1407.67 551.571 1483.5C513.463 1513.75 490.031 1547.23 477.074 1579.34C474.089 1530.65 494.612 1464.27 564.492 1408.82Z" fill="#111A28"/>
</g>
<path d="M1081.14 1807.51C1073.98 1807.51 1066.49 1806.68 1058.79 1805.01C1017.89 1796.12 963.932 1759.68 935.109 1684.06C891.339 1569.23 921.442 1478.08 952.355 1444.83C970.099 1425.75 998.683 1418.38 1030.79 1424.63C1073.29 1432.92 1128.91 1468.53 1157.54 1543.64C1201.65 1659.38 1164.02 1755.85 1129.93 1789.46C1117.94 1801.3 1100.79 1807.51 1081.14 1807.51ZM1009.2 1457.46C995.91 1457.46 984.748 1461.34 977.961 1468.64C957.702 1490.43 928.561 1568.71 967.785 1671.61C991.633 1734.18 1034.26 1763.9 1066.21 1770.84C1083.05 1774.5 1097.69 1772.16 1105.38 1764.57C1128.85 1741.43 1164.48 1660.02 1124.87 1556.09C1101.34 1494.36 1057.39 1465.44 1024.1 1458.96C1018.93 1457.95 1013.93 1457.46 1009.2 1457.46Z" fill="#371A45"/>
<path d="M589.567 1682.91C575.187 1682.91 560.929 1681.48 547.013 1678.55C511.52 1671.08 484.601 1654.35 473.161 1632.66C448.195 1585.31 447.961 1478.96 553.605 1395.14C619.538 1342.82 697.98 1337.08 749.43 1349.14C788.248 1358.24 817.213 1377.72 828.893 1402.57C849.479 1446.37 843.37 1546.63 739.332 1629.18C695.407 1664.04 641.731 1682.91 589.567 1682.91ZM701.037 1378.72C662.18 1378.72 616.057 1390.22 575.339 1422.53C490.993 1489.45 482.898 1576.16 504.089 1616.35C509.089 1625.83 524.88 1638.16 554.211 1644.33C596.164 1653.15 661.096 1646.62 717.6 1601.79C809.114 1529.18 810.784 1446.23 797.253 1417.45C790.354 1402.77 768.967 1389.64 741.447 1383.18C729.489 1380.38 715.783 1378.72 701.037 1378.72Z" fill="#371A45"/>
<path d="M676.478 1802.11L620.189 1758.83C610.425 1780.57 600.76 1798.07 591.328 1811.94C553.447 1867.71 518.863 1865.65 493.893 1849.24C459.854 1826.86 462.995 1763.5 462.995 1763.5C497.856 1733.88 463.337 1696.47 432.011 1698.95C404.881 1701.09 387.145 1741.01 418.256 1767.03C417.016 1779.68 411.156 1890.16 483.446 1913.62C554.737 1936.71 610.364 1892.05 643.228 1852.53C664.32 1827.14 676.008 1803.9 676.478 1802.11Z" fill="#62ED2E"/>
<g opacity="0.5">
<path d="M665.486 1821.86C664.225 1823.42 662.922 1825 661.619 1826.58C626.895 1868.33 568.568 1914.03 492.785 1891.15C430.113 1872.22 436.244 1771.12 437.56 1757.74C417.26 1743.55 410.64 1721.45 408.253 1713.55C398.425 1728.03 398.342 1750.39 418.254 1767.03C417.014 1779.68 411.154 1890.17 483.444 1913.63C554.735 1936.71 610.362 1892.05 643.226 1852.53C652.529 1841.34 659.983 1830.57 665.486 1821.86Z" fill="white"/>
</g>
<path d="M676.478 1802.11C676.478 1802.11 674.94 1782.6 655.47 1769.49C636 1756.38 620.188 1758.83 620.188 1758.83C610.424 1780.57 600.759 1798.07 591.327 1811.94C613.758 1810.03 646.401 1813.4 643.226 1852.53C664.32 1827.14 676.008 1803.9 676.478 1802.11Z" fill="#31C418"/>
<path d="M684.947 1804.26C684.212 1806.86 682.809 1809.8 681.729 1812.26C658.693 1859.38 623.761 1902.83 574.801 1925.13C538.65 1941.27 494.922 1941.46 459.249 1922.44C405.876 1890.76 396.066 1821.41 400.861 1765.31C400.855 1765.26 407.049 1780.46 407.049 1780.45C373.627 1754.57 377.265 1699.51 419.049 1683.95C474.971 1667.89 524.135 1735.87 474.292 1776.84L480.435 1764.38C481.09 1783.09 483.843 1804.68 492.31 1820.88C499.359 1834.94 515.521 1844.62 530.811 1842.78C548.67 1840.36 564.444 1824.88 576.382 1810.6C589.915 1794.01 601.479 1774.81 612.266 1755.14C617.449 1745.79 631.838 1752.34 628.164 1762.39C615.715 1795.5 600.195 1829.59 573.206 1854.72C539.295 1887.67 484.053 1880.45 460.564 1838.58C447.443 1814.38 444.169 1789.21 445.512 1762.65C445.419 1752.32 456.894 1748.25 459.536 1739.62C463.568 1724.58 437.727 1709.61 426.033 1719.6C415.782 1728.97 417.413 1743.9 429.47 1753.61C434.069 1757.48 436.19 1763.19 435.656 1768.76C435.247 1811.04 439.728 1866.01 477.493 1891.17C517.989 1914.08 568.792 1901.06 603.853 1872.64C628.754 1853.21 650.285 1827.98 667.125 1801.05L667.83 1799.85L668.106 1799.37L668.182 1799.26C668.206 1799.22 668.026 1799.72 668.004 1799.94C671.052 1788.87 687.546 1793 684.947 1804.26Z" fill="#371A45"/>
<path d="M909.748 1420.58C886.643 1433.19 858.905 1427.38 848.929 1407.68C826.699 1363.79 866.317 1311.34 903.695 1324.24C945.245 1338.57 937.007 1405.69 909.748 1420.58Z" fill="#371A45"/>
<path d="M1242.73 1943.67C1227.4 1921.27 1197.1 1936.52 1191.01 1963.49C1183.8 1971.16 1041.54 2066.04 997.753 1915.4C992.677 1897.88 988.913 1877.03 986.855 1852.34L929.136 1856.95C928.557 1858.8 931.571 1887.65 943.538 1922.82C957.995 1965.25 985.521 2016.81 1035.54 2041.04C1112.37 2078.24 1206.01 2002.37 1214.51 1996.29C1238.16 1996.46 1261.97 1971.76 1242.73 1943.67Z" fill="#62ED2E"/>
<path d="M1242.73 1943.67C1227.4 1921.27 1197.1 1936.52 1191.01 1963.49C1183.8 1971.16 1041.54 2066.04 997.753 1915.4C992.677 1897.88 988.913 1877.03 986.855 1852.34L929.136 1856.95C928.557 1858.8 931.571 1887.65 943.538 1922.82C957.995 1965.25 985.521 2016.81 1035.54 2041.04C1112.37 2078.24 1206.01 2002.37 1214.51 1996.29C1238.16 1996.46 1261.97 1971.76 1242.73 1943.67Z" fill="#62ED2E"/>
<g opacity="0.5">
<path d="M1249.7 1962.76C1242.8 1968.13 1221.45 1982.25 1209.45 1974.67C1200.27 1981.23 1115.07 2059.55 1032.21 2019.42C984.222 1996.17 955.441 1949.59 938.691 1907.35C940.121 1912.33 941.72 1917.5 943.536 1922.82C957.993 1965.25 985.519 2016.81 1035.54 2041.04C1112.37 2078.24 1206.01 2002.37 1214.51 1996.29C1232.54 1996.41 1250.7 1982.07 1249.7 1962.76Z" fill="white"/>
</g>
<path d="M997.753 1915.4C992.677 1897.88 988.913 1877.03 986.855 1852.34C986.855 1852.34 972.313 1839.83 954.147 1841.57C935.981 1843.31 929.135 1856.95 929.135 1856.95C928.556 1858.8 931.57 1887.65 943.537 1922.82C948.691 1897.74 965.009 1880.54 997.753 1915.4Z" fill="#31C418"/>
<path d="M937.469 1859.63C937.747 1859.11 937.879 1858.21 937.877 1857.86L937.958 1858.34L938.151 1859.54C950.539 1919.62 979.106 1987.35 1032.72 2019.4C1080.84 2049.16 1139.65 2023.61 1183.43 1996.26C1190.32 1991.91 1197.66 1986.78 1204.36 1982.09C1207.38 1979.8 1211.08 1978.68 1214.63 1978.83C1227.52 1978.68 1237.64 1966.42 1228.99 1954.61C1222.79 1942.88 1209.47 1958.45 1208.08 1967.34C1207.13 1972.36 1203.77 1975.87 1200.05 1978.9C1195.07 1983.01 1189.6 1986.58 1184.19 1989.9C1141.72 2015.59 1084.03 2030.57 1038.81 2002.21C989.69 1970.47 979.623 1906.25 978.148 1853.06C978.029 1842.26 993.788 1840.84 995.556 1851.5C1005.83 1920.24 1032 2002.39 1117.52 1978.54C1138.9 1972.97 1160.17 1963.17 1178.77 1950.96C1178.79 1950.39 1174.08 1959.5 1173.97 1959.65C1177.87 1943.13 1188.04 1927.97 1205.02 1919.7C1235.45 1904.62 1265.21 1930.46 1267.13 1961.22C1269.35 1990.3 1242.47 2014.29 1214.4 2013.79L1224.68 2010.54C1145.26 2074.39 1043.3 2102.55 972.312 2010.39C939.633 1966.69 922.619 1912.81 920.247 1858.83C919.417 1844.06 940.583 1845.28 937.469 1859.63Z" fill="#371A45"/>
<path d="M633.57 710.683C633.775 710.609 633.902 710.686 633.977 710.891C633.492 710.836 633.339 710.758 633.57 710.683Z" fill="#2BC614"/>
<path d="M727.917 1143.96C557.636 1204.22 202.484 1343.06 202.484 1343.06C202.484 1343.06 76.3804 1402.86 55.5704 1358.19C32.7614 1309.23 95.6984 1270.11 93.0064 1261.06C90.3154 1252.01 22.1544 1262.06 17.5954 1211.34C13.3834 1164.49 99.8504 1128.59 164.458 1101.21C164.458 1101.21 500.924 949.74 586.323 929.519C586.323 929.519 656.342 917.295 704.373 977.46C752.405 1037.62 727.917 1143.96 727.917 1143.96Z" fill="#63FF48"/>
<path d="M17.5183 1205.82C20.1903 1161.63 102.385 1127.48 164.47 1101.22C164.47 1101.22 500.919 949.733 586.335 929.518C586.335 929.518 623.306 923.052 661.953 942.629C676.475 949.995 691.239 961.018 704.385 977.467C752.405 1037.61 727.927 1143.96 727.927 1143.96C557.65 1204.24 202.495 1343.07 202.495 1343.07C202.495 1343.07 76.3883 1402.86 55.5683 1358.19C32.7543 1309.22 95.7033 1270.11 93.0133 1261.07C90.3223 1252 22.1523 1262.07 17.6033 1211.35C17.4283 1209.51 17.4173 1207.66 17.5183 1205.82Z" fill="#63FF48"/>
<path d="M367.761 1241.61C313.603 1264.42 276.901 1253.89 329.565 1210.83C401.966 1151.63 628.622 1107.35 648.98 1123.88C669.338 1140.41 416.627 1221.04 367.761 1241.61Z" fill="#2BC614"/>
<path d="M730.834 1152.2C659.5 1191.22 547.455 1228.6 471.261 1259.39C423.204 1276.7 188.079 1369.51 148.185 1382.59C118.902 1390.23 86.2943 1399.83 56.6393 1384.35C36.2693 1372.36 30.0623 1345.2 34.2853 1323.14C39.2493 1297.94 56.1453 1278.67 71.9123 1261.64C73.6043 1259.87 76.3794 1256.52 76.8884 1255.85C74.6834 1259.44 75.5613 1267.39 78.5903 1270.78C81.4703 1274.24 82.2853 1274.25 83.7873 1275.04C69.5533 1272.08 55.7494 1271.34 40.2183 1265.05C-7.14465 1246.9 -12.4236 1191.43 23.0514 1159.17C61.1964 1123.29 110.081 1105.66 156.548 1084.92C256.177 1039.65 358.141 995.026 460.15 955.572C500.6 940.485 540.654 925.745 584.31 921.011C589.161 920.56 593.461 924.124 593.915 928.975C594.289 932.996 591.906 936.612 588.339 938.023L531.225 963.531C395.094 1020.63 259.198 1079.34 123.913 1138.39C95.3083 1152.41 47.1773 1172.85 35.8723 1202.83C29.8163 1233.09 65.8873 1236.46 88.9593 1240.31C100.747 1241.96 113.023 1251.24 110.191 1265.55C108.825 1271.6 106.487 1274.65 103.831 1278.18C90.2344 1294.48 72.9143 1309.73 68.8243 1329.83C67.3703 1337.47 68.3734 1345.71 72.6694 1352.42C73.1384 1352.94 73.7123 1353.45 74.6323 1353.98C104.371 1365.78 165.724 1339.66 194.849 1326.97L195.518 1326.66L195.997 1326.47L326.798 1275.02C414.075 1240.86 501.685 1207.63 589.818 1175.7C633.822 1159.55 678.246 1144.33 725.001 1135.72C729.808 1134.83 734.425 1138.01 735.309 1142.82C736.019 1146.67 734.091 1150.41 730.834 1152.2Z" fill="#371A45"/>
<path d="M296.369 1299.06C296.369 1299.06 235.78 1393.11 190.402 1382.23C145.202 1371.38 197.009 1304.1 198.576 1288.49C198.156 1283.21 160.971 1254.49 174.834 1183.71" fill="#63FF48"/>
<path d="M311.066 1308.53C286.685 1346.82 239.157 1410.92 186.928 1401.01C157.341 1395.05 147.413 1366.98 156.203 1340.75C162.17 1320.41 172.786 1304.78 181.039 1286.54C181.278 1286.02 181.315 1285.5 181.18 1286.74L181.148 1289.88C181.469 1293.21 182.214 1294.55 182.955 1295.88C183.158 1296.16 182.931 1295.79 182.801 1295.57C164.356 1271.93 155.365 1240.74 159.357 1211.11C160.623 1201.03 162.823 1191.26 166.256 1182.03C167.96 1177.45 173.058 1175.11 177.643 1176.82C181.3 1178.18 183.531 1181.7 183.412 1185.39C183.285 1194.37 183.329 1203.11 184.227 1211.58C186.115 1234.13 194.026 1255.16 208.624 1272.28C209.983 1274.14 211.549 1275.77 212.825 1277.93C214.58 1280.61 216.014 1284.37 216.118 1288.94C214.724 1302.03 207.117 1313.35 202.12 1324.87C196.782 1337.29 189.512 1350.82 191.127 1362.33C208.059 1369.63 231.318 1346.38 243.853 1334.47C257.523 1320.77 270.533 1304.67 282.061 1289.07C295.539 1271.59 322.066 1289.47 311.066 1308.53Z" fill="#371A45"/>
<path d="M948.258 806.649C959.042 836.561 988.814 853.228 1014.75 843.876C1040.7 834.524 1052.98 802.694 1042.2 772.782C1031.41 742.87 1001.64 726.203 975.702 735.555" fill="#62ED2E"/>
<path d="M1042.22 772.793C1031.42 742.849 1001.62 726.203 975.711 735.544C975.711 735.544 960.36 741.073 951.794 763.13C943.228 785.188 948.273 806.662 948.273 806.662C951.769 816.359 957.258 824.691 964.004 831.144C950.374 804.064 955.185 773.742 975.794 761.57C997.537 748.713 1028.66 761.108 1045.3 789.266C1045.53 789.644 1045.76 790.022 1045.95 790.415C1045.55 784.576 1044.33 778.66 1042.22 772.793Z" fill="#2BC614"/>
<g opacity="0.7">
<path d="M1042.22 772.793C1039.59 765.501 1035.82 758.989 1031.24 753.457C1039.39 782.054 1027.08 811.257 1002.4 820.158C983.777 826.87 963.135 820.18 949.006 804.742L948.272 806.663C959.053 836.566 988.814 853.228 1014.76 843.872C1040.68 834.53 1053 802.697 1042.22 772.793Z" fill="white"/>
</g>
<path d="M956.482 803.686C971.647 831.963 1013.36 844.85 1026.39 808.509C1036.49 779.557 1012.68 739.728 978.666 743.779C973.625 744.721 968.73 741.231 968.168 736.095C967.748 732.418 969.674 728.999 972.736 727.332C984.236 721.027 998.56 719.956 1011.25 723.434C1051.13 734.22 1073.27 781.589 1059.32 819.943C1044.64 864.37 988.867 876.462 957.216 842.249C949.489 834.717 929.713 803.456 946.847 799.174C950.815 798.334 954.65 800.317 956.482 803.686Z" fill="#371A45"/>
<path d="M1009.49 771.384C1007.78 771.389 1005.32 779.245 997.341 788.96C984.861 786.672 977.971 782.161 976.696 783.289C975.427 784.414 980.09 792.381 992.072 795.762C985.173 806.06 986.681 815.117 988.385 815.12C990.094 815.118 992.54 807.29 1000.54 797.542C1013.02 799.83 1019.9 804.341 1021.18 803.216C1022.45 802.086 1017.81 794.11 1005.81 790.743C1012.71 780.469 1011.19 771.382 1009.49 771.384Z" fill="#371A45"/>
<path d="M538.817 664.461C538.817 664.461 498.893 523.807 471.528 506.705C444.164 489.602 343.525 510.836 283.399 459.388C228.1 412.071 176.942 282.561 208.147 231.352C252.614 158.381 329.006 238.763 329.006 238.763C329.006 238.763 312.775 157.516 372.555 147.219C435.185 136.432 468.678 252.445 468.678 252.445C468.678 252.445 614.345 262.658 681.036 325.416C732.902 374.224 761.133 455.636 761.133 455.636C761.133 455.636 782.23 545.288 708.103 611.095C633.976 676.903 538.817 664.461 538.817 664.461Z" fill="#63FF48"/>
<path d="M526.202 668.041C510.03 624.466 495.041 578.931 473.707 538.077C470.543 532.523 466.702 525.581 462.369 521.752C461.754 521.344 460.875 520.998 459.625 520.502C442.674 515.875 424.352 516.514 404.884 514.96C362.713 512.437 317.358 506.284 281.425 480.9C245.838 455.077 223.348 416.35 205.641 377.375C188.939 337.691 175.566 294.57 182.103 250.605C185.134 231.356 195.923 212.578 211.591 199.152C244.234 169.969 291.1 184.658 321.464 208.977C328.878 214.652 334.934 219.823 341.679 226.717L311.862 242.186C310.572 235.204 310.107 229.754 309.714 223.001C308.46 196.616 313.143 166.88 333.881 147.234C350.54 131.794 375.015 125.443 396.994 131.143C445.948 145.667 470.742 203.397 485.472 247.575C485.523 247.635 469.89 234.995 469.902 235.003C503.394 236.913 535.177 242.08 567.463 250.366C616.073 263.275 666.217 283.107 700.61 321.614C733.869 359.326 755.668 405.024 769.394 452.771C772.059 462.95 757.818 468.468 753.085 458.938C739.843 431.184 724.007 403.513 705.864 378.706C688.193 354.693 668.444 333.097 642.265 318.706C589.393 289.849 525.409 277.466 465.686 269.66C458.773 268.794 453.42 263.677 451.88 257.285C449.041 247.956 445.122 237.624 440.955 228.161C429.583 203.927 414.354 173.573 388.148 164.967C346.729 157.565 340.55 204.259 346.153 235.337C349.501 252.128 328.302 263.027 316.56 251.032C306.948 241.478 294.655 232.192 282.578 226.084C258.062 213.456 237.943 216.269 223.76 240.828C198.65 292.892 249.396 399.027 287.033 437.592C317.788 470.328 364.023 476.333 407.236 479.379C429.846 481.808 457.443 479.518 479.795 491.19C514.722 513.181 541.582 619.969 551.434 660.878C554.752 676.756 531.888 683.614 526.202 668.041Z" fill="#371A45"/>
<path d="M641.534 574.325C599.709 590.369 555.036 578.601 578.124 527.293C601.213 475.985 681.595 417.835 704.684 438.358C727.773 458.881 721.786 543.54 641.534 574.325Z" fill="#2BC614"/>
<path d="M1338.29 982.334C1333.93 982.334 1329.67 980.164 1327.18 976.201C1323.32 970.071 1325.16 961.975 1331.3 958.12C1527.32 834.868 1502.42 591.184 1502.15 588.738C1501.34 581.546 1506.51 575.054 1513.7 574.241C1520.85 573.421 1527.38 578.592 1528.2 585.784C1528.5 588.455 1535.43 652.127 1516.61 732.737C1491.58 839.961 1432.33 925.576 1345.25 980.322C1343.08 981.684 1340.67 982.334 1338.29 982.334Z" fill="#371A45"/>
<path d="M925.308 1081.42C897.109 1094.69 836.134 1101.61 785.636 1086.55C720.646 1067.17 671.618 1001.61 706.394 980.514C741.17 959.421 801.314 1001.04 934.324 999.327C1021.34 998.208 968.92 1060.9 925.308 1081.42Z" fill="#2BC614"/>
<path d="M350.944 349.711C354.991 312.541 391.764 277.966 430.185 284.435C415.003 294.222 401.838 302.774 388.762 314.282C375.526 325.574 364.634 337.923 350.944 349.711Z" fill="#371A45"/>
<path d="M1103.66 249.593C1076.36 261.327 1053.02 266.924 1053.02 266.924C1106.96 441.766 1098.92 698.928 1098.92 698.928L849.479 549.135C870.014 496.105 840.678 235.287 849.479 191.689C850.336 187.582 851.329 183.475 852.548 179.458C864.057 140.554 891.677 105.938 922.322 77.0533C963.663 38.1493 1011.01 14.5903 1044.45 18.6073C1121.58 27.9043 1092.34 111.308 1092.34 111.308C1092.34 111.308 1169.83 87.4333 1185.98 143.803C1201.06 196.382 1147.31 230.863 1103.66 249.593Z" fill="#63FF48"/>
<path d="M1053.02 266.923C1106.96 441.765 1098.92 698.927 1098.92 698.927L849.479 549.134C870.014 496.104 840.678 235.286 849.479 191.688C850.336 187.581 851.329 183.474 852.548 179.457C917.809 182.797 1033.3 196.517 1103.66 249.592C1076.36 261.327 1053.02 266.923 1053.02 266.923Z" fill="#2BC614"/>
<path d="M1098.93 716.431C1098.75 716.431 1098.56 716.426 1098.38 716.421C1088.73 716.121 1081.15 708.052 1081.45 698.401C1081.53 695.859 1088.77 442.068 1036.31 272.092C1034.89 267.473 1035.44 262.47 1037.83 258.274C1040.23 254.077 1044.25 251.057 1048.95 249.932C1073.92 243.926 1143.44 220.301 1164.81 183.64C1171.31 172.483 1172.74 161.025 1169.19 148.616C1166.56 139.471 1161.87 133.33 1154.42 129.292C1136.34 119.507 1106.52 125.232 1097.5 128.013C1091.18 129.942 1084.33 128.181 1079.76 123.428C1075.19 118.677 1073.67 111.753 1075.86 105.528C1078.96 96.4733 1084.77 69.1852 1074.31 52.5152C1068.52 43.2792 1058.07 37.8712 1042.38 35.9872C1015.04 32.6792 972.535 53.8093 934.298 89.7983C896.285 125.567 873.522 161.009 866.637 195.142C863.478 210.784 866.408 268.221 869.24 323.767C875.119 439.004 878.312 523.076 865.783 555.442C862.302 564.446 852.15 568.916 843.171 565.435C834.162 561.949 829.69 551.824 833.176 542.82C843.982 514.91 838.396 405.462 834.323 325.547C830.612 252.776 828.532 207.212 832.36 188.225C840.71 146.85 866.945 105.166 910.334 64.3332C957.204 20.2312 1008.13 -3.34277 1046.55 1.26923C1073.11 4.46223 1092.45 15.5122 1104.04 34.1082C1115.24 52.0742 1116.38 72.9752 1114.74 89.3622C1131.42 87.7852 1152.78 88.6393 1171.07 98.5473C1186.67 106.994 1197.64 120.976 1202.8 138.981C1209.04 160.758 1206.41 181.728 1194.98 201.303C1169.73 244.55 1106 269.123 1074.76 278.932C1123.46 453.305 1116.72 689.215 1116.4 699.493C1116.1 708.96 1108.34 716.431 1098.93 716.431Z" fill="#371A45"/>
<path d="M847.801 178.538C847.801 178.538 929.026 178.538 934.157 242.139C937.649 285.421 885.414 296.44 885.414 296.44C885.414 296.44 926.033 327.225 919.192 385.374C912.073 445.888 915.325 495.259 879.846 492.693C844.367 490.127 811.539 470.205 805.031 413.143C796.48 338.164 828.12 273.778 828.12 273.778C828.12 273.778 782.798 210.926 847.801 178.538Z" fill="white"/>
<path d="M883.005 510.293C881.574 510.293 880.104 510.239 878.586 510.129C848.425 507.949 796.511 492.705 787.663 415.124C780.441 351.816 799.724 296.235 808.444 275.073C801.413 262.236 790.9 237.334 797.243 211.626C802.365 190.874 816.75 174.475 840.002 162.891C842.424 161.683 845.095 161.055 847.8 161.055C881.472 161.055 946.496 177.708 951.584 240.733C954.123 272.198 935.124 292.225 915.378 303.387C927.907 320.845 941.066 349.063 936.555 387.418C935.32 397.921 934.402 408.067 933.518 417.879C929.421 463.335 925.178 510.29 883.005 510.293ZM851.823 196.186C840.344 202.668 833.59 210.444 831.222 219.873C826.954 236.846 837.799 257.202 842.34 263.613C846.041 268.842 846.632 275.739 843.805 281.489C843.527 282.065 814.572 342.483 822.399 411.162C827.033 451.767 846.237 472.734 881.105 475.256C885.016 475.529 887.594 475.722 890.924 466.44C895.074 454.868 896.754 436.272 898.693 414.738C899.601 404.692 900.539 394.303 901.828 383.329C907.351 336.383 876.086 311.337 874.748 310.294C869.396 306.107 866.901 299.151 868.435 292.53C869.973 285.909 875.154 280.736 881.804 279.332C883.245 279.015 918.933 270.802 916.731 243.543C913.478 203.24 866.257 197.114 851.823 196.186Z" fill="#371A45"/>
<path d="M1199.32 428.112C1193.93 346.744 1172.64 229.52 1073.75 238.119C991.033 245.312 948.001 324.222 979.477 358.253C1023.16 405.485 1100.13 358.253 1100.13 358.253" fill="white"/>
<path d="M1186.24 428.979C1177.79 374.072 1167.4 282.679 1109.81 260.323C1072.68 248.025 1026.98 264.319 1002.83 294.149C986.458 315.248 977.81 342.676 1006.09 356.505C1034 369.552 1066.24 359.869 1096.25 350.576C1100.88 349.049 1105.87 351.564 1107.39 356.193C1108.55 359.709 1107.36 363.449 1104.7 365.705C1084.06 382.569 1060.41 393.241 1033.35 395.659C1008.21 398.161 979.899 387.697 963.408 367.108C950.044 350.895 948.123 327.766 953.563 308.566C965.381 267.451 1001.33 237.294 1040.81 225.536C1138.28 197.072 1191.62 266.29 1206.25 354.321C1210.68 378.685 1212.29 403.08 1212.4 427.245C1212.44 434.501 1206.58 440.409 1199.33 440.441C1192.62 440.474 1187.06 435.466 1186.24 428.979Z" fill="#371A45"/>
</svg>
