<svg width="2160" height="3009" viewBox="0 0 2160 3009" fill="none" xmlns="http://www.w3.org/2000/svg">
<path d="M1078.87 1322.01L1050.44 1477.94C931.242 1414.35 865.575 1315.65 834.344 1254.9C916.981 1289.52 1000.61 1314.7 1078.87 1322.01Z" fill="#E8E8E8"/>
<path d="M1742.72 1400.9C1701.1 1437.15 1638.73 1477.76 1549.41 1505.48L1502.12 1309.15C1502.12 1309.15 1621.81 1293.67 1742.72 1400.9Z" fill="#E8E8E8"/>
<path d="M1675.02 1717.5C1596.4 1764.75 1478.92 1806.68 1309.54 1806.68C1172.16 1806.68 1069.8 1764.93 994.742 1710.82L1046.69 1585.71C1382.65 991.411 1470.12 1503.84 1470.12 1503.84C1470.12 1503.84 1588.09 1563.78 1675.02 1717.5Z" fill="#E8E8E8"/>
<path d="M1338.79 1252.56L1334.11 1376.6L1331.7 1439.78L1290.43 2529.36C1290.43 2529.36 1364.88 2527.96 1464.56 2518.05C1484.06 2516.11 1504.53 2513.86 1525.59 2511.22C1682.55 2491.66 1872.52 2451.1 1942.33 2367.69C2046.68 2242.96 2044.57 1651.45 1939.68 1420.47C1891.64 1314.58 1664.54 1275.51 1503.73 1261.07C1485.76 1259.42 1468.59 1258.12 1452.62 1257.08C1385.29 1252.59 1338.79 1252.56 1338.79 1252.56Z" fill="white"/>
<path d="M1334.11 1376.6L1331.7 1439.78L1298.93 2304.92L1290.43 2529.36C1290.43 2529.36 1291.99 2529.32 1294.94 2529.24C1295.78 2529.2 1296.78 2529.18 1297.84 2529.16C1298.67 2529.12 1299.62 2529.09 1300.57 2529.06C1301.29 2529.07 1302.02 2529.02 1302.74 2529.02C1303.02 2528.99 1303.35 2529.02 1303.63 2528.99C1304.97 2528.94 1306.47 2528.9 1308.03 2528.81C1308.36 2528.84 1308.7 2528.81 1309.09 2528.79C1310.37 2528.73 1311.71 2528.68 1313.16 2528.64C1315.11 2528.58 1317.12 2528.48 1319.24 2528.38C1320.74 2528.29 1322.36 2528.26 1323.98 2528.18C1325.65 2528.1 1327.32 2528.02 1329.05 2527.94C1331.23 2527.85 1333.52 2527.72 1335.86 2527.64C1340.6 2527.38 1345.62 2527.14 1350.93 2526.82C1355.61 2526.61 1360.52 2526.31 1365.67 2525.97C1371.59 2525.59 1377.78 2525.23 1384.21 2524.78C1407.96 2523.15 1435.15 2520.98 1464.57 2518.05C1470.28 2517.49 1476.11 2516.87 1482 2516.27C1486.09 2515.84 1490.3 2515.37 1494.5 2514.89C1504.65 2513.76 1515.09 2512.55 1525.59 2511.22C1682.6 2491.67 1872.52 2451.11 1942.28 2367.69C2028.24 2265 2042.03 1845.79 1985.6 1571.96C2001.89 1811.19 1978.14 2068.26 1913.35 2145.66C1881.32 2183.93 1827.28 2031.37 1828.55 1954.59C1831.83 1756.56 1718.32 1523.13 1534.05 1373.87C1529.27 1369.99 1422.85 1384.87 1334.11 1376.6Z" fill="#E5E5E5"/>
<path d="M1272.24 2547.2L1321.97 1235.08L1338.81 1235.09C1340.13 1235.09 1472.93 1235.41 1613.3 1256.37C1806.29 1285.2 1921.46 1337.97 1955.63 1413.22C2064.56 1653.11 2064.63 2248.78 1955.74 2378.93C1825.14 2535.01 1312.5 2546.44 1290.74 2546.85L1272.24 2547.2ZM1355.62 1270.19L1308.59 2511.3C1402.08 2507.76 1821.57 2484.79 1928.92 2356.49C1973.94 2302.69 2002.63 2136.84 2002.01 1933.98C2001.37 1726.52 1971.4 1532.52 1923.8 1427.68C1867.39 1303.44 1509.61 1272.4 1355.62 1270.19Z" fill="#371A45"/>
<path d="M2054.11 1896.08C2020.97 1870.63 1810.69 1877.09 1810.69 1877.09C1787.5 1879.73 1769.04 1897.67 1765.78 1920.78C1753.85 2005.35 1736.45 2201.9 1820.57 2263.34C1890.41 2314.35 1985.24 2288.19 2035.83 2237.19C2075.31 2197.41 2082.15 2125.05 2081.94 2052.95C2081.71 1974.83 2079.98 1915.94 2054.11 1896.08Z" fill="white"/>
<path d="M2081.95 2052.97C2082.1 2090.15 2080.27 2127.39 2073.07 2160.18C2066.41 2191 2054.95 2217.92 2035.83 2237.18C1985.24 2288.18 1890.42 2314.35 1820.57 2263.32C1754.59 2215.13 1751.05 2083.71 1758.36 1988.56C1758.39 1988.48 1758.37 1988.42 1758.37 1988.42C1760.37 1962.33 1763.22 1938.94 1765.77 1920.77C1769.02 1897.68 1787.5 1879.7 1810.69 1877.09C1810.69 1877.09 2020.97 1870.6 2054.14 1896.08C2079.94 1915.93 2081.73 1974.85 2081.95 2052.97Z" fill="white"/>
<path d="M2073.07 2160.18C2066.41 2191 2054.95 2217.92 2035.83 2237.18C1985.24 2288.18 1890.42 2314.35 1820.57 2263.32C1754.59 2215.13 1751.05 2083.71 1758.36 1988.56C1758.94 1992.45 1772.55 2090.61 1804.11 2081.98C1828.95 2075.23 1842.03 2023.93 1842.83 2020.91C1843.64 2027.3 1869.03 2221.29 1974.27 2207.37C2021.6 2201.14 2052.68 2182.15 2073.07 2160.18Z" fill="#E5E5E5"/>
<path d="M1906.99 2308.29C1873.44 2308.29 1839.73 2298.99 1810.26 2277.46C1721.55 2212.66 1733.46 2024.64 1748.47 1918.34C1752.84 1887.37 1777.61 1863.27 1808.71 1859.72L1810.15 1859.61C1860.95 1858.07 2029.41 1855.08 2064.75 1882.21C2096.61 1906.67 2099.16 1965.67 2099.42 2052.9C2099.63 2124.4 2093.72 2203.67 2048.24 2249.51C2013.23 2284.8 1960.3 2308.29 1906.99 2308.29ZM1812.02 1894.54C1797.06 1896.53 1785.2 1908.24 1783.09 1923.22C1774.35 1985.13 1751.98 2191.6 1830.88 2249.22C1891.99 2293.86 1976.77 2271.9 2023.42 2224.88C2060.13 2187.88 2064.64 2113.59 2064.46 2053C2064.28 1996.32 2064.08 1925.77 2043.46 1909.94C2026.11 1896.62 1910.03 1891.58 1812.02 1894.54Z" fill="#371A45"/>
<path d="M1977.73 2292.56C1940.78 2299.89 1905.03 2277.31 1883.66 2249.61C1834.59 2183.68 1833.5 2097.48 1836.83 2019.5C1838.19 2003.42 1839.59 1988.21 1844.28 1972.38C1845.03 1969.95 1847.61 1968.59 1850.05 1969.34C1852.56 1970.12 1853.85 1972.8 1853.06 1975.25C1849.82 1989.38 1849.15 2005.28 1848.86 2020.02C1850.18 2092.35 1855.59 2176.18 1903.32 2233.28C1920.08 2252.27 1945.18 2268.31 1970.53 2262.54C1990.98 2257.61 1998.27 2287.62 1977.73 2292.56Z" fill="#371A45"/>
<path d="M1615.32 1397.63C1694.27 1387.32 1773.32 1380.05 1853.08 1380.93C1879.86 1381.47 1906.75 1382.76 1934.18 1387.32C1943.71 1388.91 1950.15 1397.92 1948.56 1407.45C1946.95 1417.37 1937.12 1423.92 1927.34 1421.61C1877.79 1411.06 1825.05 1409.42 1773.95 1409.12C1721.84 1409.08 1669.33 1411.39 1617.39 1415.54C1605.87 1416.39 1603.75 1399.52 1615.32 1397.63Z" fill="#371A45"/>
<path d="M1541.46 1931.47C1541.46 1931.47 1390.22 2167.59 1351.23 2279.53C1299.06 2429.29 1357.01 2840.02 1316.91 2915.3C1299.46 2948.07 1267.17 2978.83 1099.82 2978.83C972.929 2978.83 886.499 2978.91 883.763 2891.67C881.726 2826.72 966.835 2797.03 966.835 2797.03L871.244 2085.5" fill="white"/>
<path d="M1351.25 2279.51C1299.05 2429.29 1357.02 2840.02 1316.9 2915.29C1299.45 2948.07 1267.19 2978.84 1099.8 2978.84C972.937 2978.84 886.514 2978.92 883.746 2891.65C883.666 2889.69 883.705 2887.72 883.825 2885.84C886.834 2824.97 966.838 2797.05 966.838 2797.05L897.667 2282.16L871.228 2085.48L1541.46 1931.46C1541.46 1931.46 1390.2 2167.58 1351.25 2279.51Z" fill="white"/>
<path d="M1351.25 2279.51C1299.05 2429.29 1357.02 2840.02 1316.9 2915.29C1299.45 2948.07 1267.19 2978.84 1099.8 2978.84C972.937 2978.84 886.514 2978.92 883.746 2891.65C883.666 2889.69 883.705 2887.72 883.825 2885.84C903.003 2900.88 948.301 2923.79 1046.68 2924.47C1193.65 2925.48 1274.97 2911.47 1289.26 2828.78C1303.5 2746.09 1296.4 2604.7 1248.77 2524.1C1200.47 2442.41 1014.22 2460.74 897.667 2282.16L871.228 2085.48L1541.46 1931.46C1541.46 1931.46 1390.2 2167.58 1351.25 2279.51Z" fill="#E8E8E8"/>
<path d="M1556.18 1940.9C1501.05 2028.5 1447.12 2117.77 1400.62 2210.22C1385.99 2240.52 1370.98 2270.74 1362.41 2303.22C1354.39 2335.05 1350.81 2369.15 1348.52 2403.21C1342.18 2506.87 1347.28 2610.47 1349.02 2714.71C1349.13 2776.69 1353.06 2839.74 1340.38 2901.29C1317.68 2994.2 1197.63 2992.76 1121.53 2996.11C1067.88 2996.03 1015.37 2998.26 961.941 2989.66C905.451 2980.59 865.302 2949.7 866.322 2887.57C867.664 2833.75 915.593 2798.06 961.077 2780.52L949.51 2799.36L853.919 2087.83C851.513 2065.29 884.575 2059.97 888.572 2083.17L984.163 2794.7C985.295 2803.08 980.259 2810.87 972.593 2813.54C944.663 2824.4 915.237 2844.41 905.252 2869.16C900.379 2880.36 900.677 2892.45 902.55 2904.4C910.942 2956.32 975.148 2956.97 1017.71 2960.2C1085.13 2961.83 1155.72 2964.02 1221.89 2952.71C1310.59 2936.96 1310.45 2897.77 1314.01 2818.8C1316.53 2714.81 1309.97 2610.87 1310.52 2506.31C1311.34 2435.22 1311.74 2364.81 1328.54 2294.5C1337.65 2259.61 1353.72 2226.85 1369.29 2194.69C1416.58 2100.67 1470.75 2011 1526.74 1922.04C1539.12 1903.37 1568.41 1920.32 1556.18 1940.9Z" fill="#371A45"/>
<path d="M1166.44 2612.14C1091.24 2612.14 1002.21 2598.94 925.432 2551.38C919.275 2547.56 917.375 2539.48 921.189 2533.32C925.007 2527.17 933.084 2525.26 939.241 2529.08C1098.2 2627.58 1322.85 2567.05 1325.11 2566.43C1332.05 2564.51 1339.31 2568.59 1341.24 2575.57C1343.18 2582.54 1339.09 2589.76 1332.12 2591.7C1326.87 2593.16 1256.61 2612.14 1166.44 2612.14Z" fill="#371A45"/>
<path d="M1755.78 2136.45C1753.29 2159.48 1750.33 2181.74 1746.84 2203.21C1699.29 2489.52 1307.54 2558.81 1062.76 2437L914.184 2309.85C898.015 2285.02 885.457 2257.74 877.232 2228C873.18 2213.36 869.769 2198.47 867.001 2183.43C829.165 1978.13 906.12 1740.04 948.648 1602.22L1040.41 1381.27C1311.04 1212.92 1463.85 1299.42 1463.85 1299.42C1463.85 1299.42 1715.34 1427.13 1754.74 1788.07C1768.14 1910.88 1767.26 2031.17 1755.78 2136.45Z" fill="white"/>
<path d="M1762.05 2073.3C1759.56 2096.33 1756.59 2118.6 1753.1 2140.06C1705.56 2426.37 1313.81 2495.66 1069.02 2373.85L920.45 2246.71C904.281 2221.87 891.724 2194.59 883.499 2164.86C879.447 2150.21 876.036 2135.33 873.268 2120.28C1069.46 2242.85 1467.79 2269.54 1762.05 2073.3Z" fill="#E8E8E8"/>
<path d="M913.113 2251.48C896.691 2234.1 883.719 2213.38 873.491 2191.67C870.102 2184.36 866.589 2176.91 865.339 2168.92C857.107 2138.5 851.726 2107.49 848.596 2076.42C836.813 1952.65 857.266 1828.98 889.799 1710.37C906.091 1651.37 925.662 1593.53 946.569 1536.49C948.232 1531.95 953.258 1529.62 957.797 1531.28C962.043 1532.84 964.347 1537.38 963.263 1541.67C907.753 1755.12 840.929 1983.52 912.573 2200.53C916.987 2214.35 922.11 2228.13 927.806 2242.05C931.546 2250.9 919.71 2258.68 913.113 2251.48Z" fill="#371A45"/>
<path d="M1332.95 2409.41C1333.34 2634.73 1376.6 2845.44 1376.6 2845.44C1376.6 2845.44 1331.12 2904.3 1375.86 2958.44C1403.09 2991.38 1470.12 2991.45 1470.12 2991.45H1659.29C1659.29 2991.45 1710.98 2986.48 1730.87 2929.32C1740.69 2901.08 1737.01 2524.06 1748.62 2277.02C1752.16 2201.68 1759.91 2163.44 1765.84 2084.22L1332.95 2409.41Z" fill="white"/>
<path d="M1765.82 2084.24C1759.93 2163.44 1752.14 2201.68 1748.61 2277.03C1745.88 2335.08 1744 2400.36 1742.59 2466.6C1737.98 2682.06 1738.38 2907.74 1730.88 2929.33C1710.98 2986.46 1659.3 2991.44 1659.3 2991.44H1470.13C1470.13 2991.44 1403.08 2991.4 1375.88 2958.42C1331.1 2904.29 1376.6 2845.44 1376.6 2845.44C1376.6 2845.44 1341.94 2676.6 1334.39 2479.6C1333.51 2456.53 1332.99 2433.06 1332.95 2409.43L1765.82 2084.24Z" fill="white"/>
<path d="M1734.77 2888.53C1733.77 2910.31 1732.48 2924.64 1730.88 2929.33C1710.98 2986.46 1659.3 2991.44 1659.3 2991.44H1470.13C1470.13 2991.44 1403.08 2991.4 1375.88 2958.42C1356.7 2935.27 1354.09 2911.24 1357.34 2891.33C1358.51 2892.98 1359.79 2894.62 1361.15 2896.27C1390.64 2932.02 1429.74 2939.98 1541.46 2939.98C1653.18 2939.98 1709.41 2928.13 1734.77 2888.53Z" fill="#E8E8E8"/>
<path d="M1694.1 2138.12C1721.8 2117.32 1760.96 2139.63 1757.2 2174.06C1753.74 2205.79 1750.54 2235.88 1748.61 2277.03C1746.55 2321.01 1744.96 2369.13 1743.71 2418.68C1743.09 2442.93 1721.03 2460.9 1697.16 2456.62C1611.97 2441.34 1507.07 2441.07 1381.02 2468.45C1356.65 2473.74 1333.44 2455.37 1333.11 2430.44C1333.11 2430.2 1333.1 2429.97 1333.1 2429.73C1332.94 2417.06 1338.78 2405.05 1348.91 2397.44L1694.1 2138.12Z" fill="#E8E8E8"/>
<path d="M1341.69 2409.4C1353.63 2517.44 1361.33 2627.05 1375.93 2734.74C1380.83 2770.66 1386.88 2806.74 1393.73 2841.92C1394.73 2847.04 1393.43 2852.08 1390.56 2855.96C1382.5 2867.32 1376.44 2881.67 1374.44 2895.4C1371.14 2915.97 1378.29 2936.46 1392.79 2950.92C1409.13 2965.28 1432.01 2970.12 1454.32 2972.9C1468.27 2974.64 1489.86 2973.77 1504.11 2973.96C1536.97 2973.98 1625.31 2973.95 1659.28 2973.96L1657.61 2974.05C1665.03 2972.85 1672.25 2970.2 1678.89 2966.66C1695.92 2957.79 1708.42 2941.35 1714.35 2923.5C1717.7 2900.23 1717.64 2875.55 1718.63 2851.43C1722.96 2666.31 1722.68 2443.76 1732.03 2259.81C1735.34 2200.69 1744.31 2141.45 1748.4 2082.92C1749.09 2073.29 1757.46 2066.04 1767.09 2066.73C1776.75 2067.42 1784.03 2075.86 1783.27 2085.53C1779.11 2144.98 1770.27 2202.86 1766.93 2261.86C1757.7 2444.66 1757.92 2668.21 1753.58 2852.43C1752.37 2878.63 1752.89 2904.87 1748.4 2931.46C1743.6 2947.9 1734.99 2963.13 1723.27 2975.92C1706.56 2993.79 1683.8 3006.39 1659.28 3008.93C1624.87 3008.93 1537.33 3008.93 1504.09 3008.93C1497.01 3008.86 1474.92 3009.01 1468.1 3008.9C1443 3007.84 1419.35 3004.11 1395.24 2993.58C1356.27 2977.58 1332.75 2931.66 1339.84 2890.32C1343.03 2869.89 1350.76 2851.47 1362.77 2834.75L1359.48 2848.95C1352.25 2812.37 1346.56 2776.23 1341.01 2739.77C1330.07 2666.96 1321.19 2593.7 1320.1 2519.97C1319.25 2483.13 1320.62 2446.18 1324.2 2409.43C1325.36 2399.24 1340.5 2398.79 1341.69 2409.4Z" fill="#371A45"/>
<path d="M1344.76 2619.5C1344.76 2619.5 1470.82 2677.1 1737.01 2612.05L1344.76 2619.5Z" fill="white"/>
<path d="M1502.43 2656.28C1395.6 2656.28 1342.69 2632.97 1339.31 2631.42C1332.73 2628.41 1329.83 2620.63 1332.84 2614.05C1335.85 2607.48 1343.6 2604.57 1350.18 2607.55C1351.41 2608.11 1476.38 2662.25 1733.89 2599.32C1740.96 2597.61 1748.03 2601.91 1749.75 2608.95C1751.46 2615.98 1747.15 2623.08 1740.12 2624.8C1642.63 2648.61 1563.67 2656.28 1502.43 2656.28Z" fill="#371A45"/>
<path d="M1664.46 2827.72C1664.46 2827.72 1551.87 2788.26 1414.55 2828.78L1664.46 2827.72Z" fill="white"/>
<path d="M1661.57 2835.97C1581.37 2818.22 1497.37 2820.73 1417.02 2837.16C1406.51 2839.41 1401.97 2824.2 1412.07 2820.39C1452.57 2805.07 1496.1 2797.64 1539.39 2797.51C1583.1 2797.52 1626.23 2803.34 1667.36 2819.48C1677.48 2823.71 1672.17 2838.98 1661.57 2835.97Z" fill="#371A45"/>
<path d="M958.53 1925.77C958.53 1925.77 889.843 1932.33 866.078 1908.5C866.078 1908.5 775.444 1959.05 839.532 2040.34C888.739 2102.75 1021.03 2087.24 1021.03 2087.24" fill="white"/>
<path d="M1021.03 2087.23C1021.03 2087.23 888.752 2102.76 839.536 2040.34C806.931 1998.94 814.398 1965.52 829.605 1942.72C833.211 1952.6 839.063 1963.04 847.758 1974.08C881.244 2016.64 953.434 2022.93 995.995 2022.65L1021.03 2087.23Z" fill="#E8E8E8"/>
<path d="M985.296 2106.47C939.275 2106.47 863.24 2098.65 825.799 2051.16C803.611 2023.02 795.189 1994.6 800.765 1966.7C810.057 1920.2 855.628 1894.31 857.562 1893.23L869.115 1886.79L878.456 1896.15C890.775 1908.5 931.718 1910.73 956.879 1908.37C966.537 1907.46 975.014 1914.52 975.927 1924.12C976.835 1933.73 969.799 1942.26 960.19 1943.17C948.94 1944.25 897.246 1947.98 865.688 1929.88C855.302 1937.85 839.038 1953.23 835.019 1973.73C831.616 1991.08 837.753 2009.85 853.261 2029.51C888.554 2074.28 984.867 2073.83 1019.01 2069.87C1028.49 2068.78 1037.27 2075.63 1038.39 2085.21C1039.51 2094.8 1032.65 2103.48 1023.07 2104.6C1021.24 2104.82 1006.43 2106.46 985.296 2106.47Z" fill="#371A45"/>
<path d="M968.727 2177.37L1371.84 2195.28C1419.55 2197.41 1460.36 2160.1 1462.5 2112.33L1472.01 1897.81C1473.87 1855.99 1445.48 1819.53 1406.33 1809.69C1400.79 1808.26 1395.01 1807.43 1389.06 1807.16L986.01 1789.25C938.239 1787.12 897.428 1824.43 895.356 1872.2L887.778 2042.1L885.779 2086.72C883.644 2134.49 921.016 2175.24 968.727 2177.37Z" fill="white"/>
<path d="M968.727 2177.37L1371.84 2195.28C1419.55 2197.41 1460.36 2160.1 1462.5 2112.33L1472.01 1897.81C1473.87 1855.99 1445.48 1819.53 1406.33 1809.69C1400.79 1808.26 1395.01 1807.43 1389.06 1807.16L986.01 1789.25C938.239 1787.12 897.428 1824.43 895.356 1872.2L887.778 2042.1L885.779 2086.72C883.644 2134.49 921.016 2175.24 968.727 2177.37Z" fill="white"/>
<path d="M1472.01 1897.81L1467.89 1990.92L1462.49 2112.34C1460.37 2160.1 1419.55 2197.43 1371.84 2195.3L968.726 2177.4C921.011 2175.26 883.643 2134.51 885.761 2086.74L887.763 2042.12L889.545 2002.34L895.334 1872.21C897.453 1824.44 938.221 1787.12 985.986 1789.24L1389.05 1807.16C1395.02 1807.43 1400.81 1808.25 1406.34 1809.66C1445.48 1819.52 1473.86 1856.01 1472.01 1897.81Z" fill="white"/>
<path d="M1467.89 1990.92L1462.49 2112.33C1460.37 2160.1 1419.55 2197.43 1371.84 2195.3L968.726 2177.4C921.011 2175.26 883.643 2134.51 885.761 2086.74L887.763 2042.12L889.545 2002.34C902.067 2040.57 927.274 2088.56 976.329 2102.07C1095.06 2134.74 1157.11 2082.24 1187.57 1979.16C1187.57 1979.16 1301.21 1948.46 1320.12 1977.4C1339.1 2006.38 1328.22 2058.65 1353.34 2054.09C1378.41 2049.55 1377.85 1965.67 1377.85 1965.67L1467.89 1990.92Z" fill="#E8E8E8"/>
<path d="M1388.59 2213.45C1387.22 2213.45 1385.86 2213.42 1384.49 2213.36L954.514 2194.25C930.334 2193.17 907.971 2182.69 891.54 2164.73C875.104 2146.78 866.652 2123.57 867.727 2099.39L878.455 1857.95C880.686 1807.87 923.02 1768.93 973.318 1771.17L1403.29 1790.28C1427.47 1791.35 1449.83 1801.84 1466.26 1819.8C1482.69 1837.75 1491.15 1860.96 1490.08 1885.14L1479.34 2126.58C1478.27 2150.75 1467.79 2173.12 1449.83 2189.55C1432.89 2205.05 1411.28 2213.45 1388.59 2213.45ZM969.251 1806.04C939.534 1806.04 914.72 1829.53 913.387 1859.51L902.659 2100.94C901.995 2115.79 907.21 2130.06 917.337 2141.13C927.464 2152.2 941.219 2158.66 956.067 2159.32L1386.04 2178.43C1400.93 2179.12 1415.16 2173.88 1426.23 2163.75C1437.29 2153.63 1443.75 2139.87 1444.41 2125.02L1455.14 1883.59C1455.8 1868.74 1450.59 1854.47 1440.47 1843.4C1430.34 1832.33 1416.58 1825.87 1401.74 1825.21L971.765 1806.1C970.926 1806.06 970.086 1806.04 969.251 1806.04Z" fill="#371A45"/>
<path d="M1472.01 1897.81L1470.79 1925.88L1468.12 1985.58L1466.69 2017.04L1462.44 2112.35C1461.9 2125.06 1458.56 2137.1 1453.09 2147.79C1438.07 2177.25 1406.82 2196.79 1371.84 2195.3L1268.76 2189.21C1316.46 2191.29 1357.28 2153.96 1359.41 2106.24L1362.82 2029.5L1363.82 2007.55L1368.92 1891.67C1370.8 1849.41 1341.78 1812.66 1301.96 1803.29L1389.05 1807.16C1436.76 1809.29 1474.13 1850.04 1472.01 1897.81Z" fill="white"/>
<path d="M1470.79 1925.88L1468.12 1985.58L1466.69 2017.04L1462.44 2112.35C1461.9 2125.06 1458.56 2137.1 1453.09 2147.79C1438.07 2177.25 1406.82 2196.79 1371.84 2195.3L1268.76 2189.21C1316.46 2191.29 1357.28 2153.96 1359.41 2106.24L1362.82 2029.5C1369.67 2034.4 1378.08 2037.1 1384.09 2028.04C1396 2010.1 1403.9 1930.36 1432.13 1920.98C1441.52 1917.85 1455.86 1920.68 1470.79 1925.88Z" fill="#D8D8D8"/>
<path d="M1375.8 2212.87C1374.23 2212.87 1372.65 2212.83 1371.06 2212.76L1007.46 2195.01L1007.48 2194.62C998.226 2193.2 990.243 2189.29 990.76 2176.82L991.483 2159.41L1009.92 2160.13C1022.55 2160.71 1183.63 2167.88 1269.54 2171.7C1287.98 2172.59 1305.64 2166.07 1319.37 2153.51C1333.1 2140.94 1341.11 2123.88 1341.91 2105.46L1351.45 1890.9C1352.92 1857.64 1330.44 1827.95 1297.98 1820.3L1302.76 1785.81L1389.82 1789.67C1447.36 1792.26 1492.04 1841.12 1489.46 1898.59L1479.93 2113.13C1478.71 2140.88 1466.68 2166.55 1446.05 2185.43C1426.61 2203.22 1401.82 2212.87 1375.8 2212.87ZM1345.9 2176.52L1372.7 2177.83C1391.03 2178.65 1408.72 2172.19 1422.45 2159.63C1436.18 2147.07 1444.19 2130 1444.99 2111.59V2111.57L1454.53 1897.03C1456.25 1858.81 1426.52 1826.32 1388.26 1824.6L1364.26 1823.54C1379.2 1842.61 1387.52 1866.83 1386.38 1892.46L1376.84 2107C1375.69 2133.4 1364.73 2157.95 1345.9 2176.52Z" fill="#371A45"/>
<path d="M1205.13 1993.63C1204.83 2001.56 1213.51 2066.05 1213.51 2066.05C1213.51 2066.05 1233.8 2066.83 1258.71 2067.8C1289.84 2069 1316.32 2037.75 1317.86 1997.99C1319.4 1958.23 1295.41 1925.02 1264.28 1923.82C1243.28 1923 1219.08 1922.07 1219.08 1922.07C1219.08 1922.07 1205.63 1980.7 1205.13 1993.63Z" fill="#22A7F0"/>
<path d="M1205.13 1993.63C1204.83 2001.56 1213.51 2066.05 1213.51 2066.05C1213.51 2066.05 1233.8 2066.83 1258.71 2067.8C1289.84 2069 1316.32 2037.75 1317.86 1997.99C1319.4 1958.23 1295.41 1925.02 1264.28 1923.82C1243.28 1923 1219.08 1922.07 1219.08 1922.07C1219.08 1922.07 1205.63 1980.7 1205.13 1993.63Z" fill="#1675DB"/>
<path d="M1260.43 2080.94C1259.69 2080.94 1258.95 2080.93 1258.21 2080.9L1218.48 2079.36C1208.9 2078.99 1201.04 2071.84 1199.79 2062.35C1191.72 2001.32 1191.96 1995.14 1192.03 1993.12C1192.46 1981.98 1200.4 1945.32 1205.09 1924.46C1207.16 1915.24 1215.54 1908.75 1224.99 1909.17L1264.79 1910.71C1283.96 1911.46 1301.42 1921.42 1313.95 1938.77C1325.78 1955.14 1331.82 1976.35 1330.97 1998.5C1329.19 2044.5 1297.77 2080.94 1260.43 2080.94ZM1225.06 2053.37L1259.22 2054.69C1283.05 2055.71 1303.51 2029.95 1304.76 1997.48C1305.39 1981.17 1301.11 1965.77 1292.69 1954.12C1284.99 1943.45 1274.72 1937.34 1263.78 1936.92L1229.48 1935.59C1222.85 1965.4 1218.49 1988.06 1218.24 1994.09C1218.21 1997.52 1220.31 2017.11 1225.06 2053.37Z" fill="#371A45"/>
<path d="M1272.88 1996.22C1274.42 1956.46 1250.43 1923.25 1219.3 1922.05C1188.17 1920.84 1161.69 1952.1 1160.15 1991.86C1158.61 2031.62 1182.6 2064.83 1213.73 2066.03C1244.86 2067.24 1271.34 2035.98 1272.88 1996.22Z" fill="#22A7F0"/>
<path d="M1272.65 1996.25C1271.13 2035.99 1244.64 2067.26 1213.52 2066.06C1182.35 2064.86 1158.37 2031.64 1159.94 1991.86C1160.13 1986.49 1160.81 1981.25 1161.91 1976.23C1168.86 2003.85 1188.73 2024.11 1212.9 2025.01C1239.79 2026.05 1263.24 2002.88 1270.06 1970.87C1272.07 1978.81 1272.97 1987.37 1272.65 1996.25Z" fill="#1675DB"/>
<path d="M1272.65 1996.25C1272.56 1998.96 1272.33 2001.62 1271.96 2004.24C1266.98 1972.85 1245.75 1948.96 1219.46 1947.96C1190.46 1946.86 1165.44 1973.93 1161.02 2009.83C1160.08 2004.03 1159.72 1998.04 1159.94 1991.86C1161.46 1952.12 1187.95 1920.85 1219.07 1922.05C1250.19 1923.29 1274.17 1956.47 1272.65 1996.25Z" fill="white"/>
<path d="M1215.29 2079.19C1214.52 2079.19 1213.76 2079.18 1213 2079.15C1193.83 2078.41 1176.37 2068.45 1163.84 2051.1C1152.01 2034.72 1145.97 2013.51 1146.82 1991.37C1148.6 1945.36 1180.02 1908.92 1217.36 1908.92C1218.1 1908.92 1218.84 1908.94 1219.58 1908.96C1238.75 1909.71 1256.21 1919.67 1268.74 1937.02C1280.57 1953.39 1286.61 1974.6 1285.76 1996.75C1284.9 2018.89 1277.24 2039.57 1264.18 2054.98C1250.9 2070.66 1233.62 2079.19 1215.29 2079.19ZM1217.32 1935.15C1194.01 1935.15 1174.26 1960.48 1173.03 1992.38C1172.4 2008.7 1176.68 2024.1 1185.1 2035.74C1192.8 2046.41 1203.07 2052.52 1214.01 2052.94C1224.89 2053.38 1235.67 2048.07 1244.17 2038.03C1253.46 2027.07 1258.92 2012.05 1259.55 1995.73C1260.18 1979.42 1255.9 1964.02 1247.48 1952.37C1239.78 1941.7 1229.51 1935.59 1218.57 1935.17C1218.15 1935.15 1217.74 1935.15 1217.32 1935.15Z" fill="#371A45"/>
<path d="M1094.11 2194.5C1094.02 2194.5 1093.93 2194.5 1093.84 2194.5C1086.6 2194.35 1080.85 2188.36 1081 2181.12L1083.52 2059.59C1083.79 2046.84 1077.68 2034.88 1067.19 2027.62L1045.73 2012.75C1027.55 2000.17 1017.24 1979.46 1018.15 1957.37L1024.96 1791.15C1025.25 1783.91 1031.23 1778.26 1038.6 1778.59C1045.83 1778.88 1051.46 1784.99 1051.16 1792.23L1044.35 1958.45C1043.81 1971.51 1049.91 1983.75 1060.66 1991.19L1082.12 2006.06C1099.87 2018.35 1110.19 2038.56 1109.74 2060.14L1107.22 2181.66C1107.07 2188.81 1101.23 2194.5 1094.11 2194.5Z" fill="#371A45"/>
<path d="M1770.87 1937.65C1770.87 1937.65 1671.46 1951.28 1471.47 1945.73C1471.47 1945.73 1410.46 1947.63 1405.11 2008.25C1399.44 2072.61 1464.51 2094.29 1464.51 2094.29C1464.51 2094.29 1635.42 2126.36 1762.05 2073.3C1838.98 2041.06 1770.87 1937.65 1770.87 1937.65Z" fill="white"/>
<path d="M1762.03 2073.28C1635.44 2126.36 1464.52 2094.31 1464.52 2094.31C1464.52 2094.31 1402.28 2073.55 1404.86 2012.49C1404.9 2011.09 1404.99 2009.69 1405.13 2008.25C1410.45 1947.63 1471.47 1945.74 1471.47 1945.74C1526.62 1947.27 1574.15 1947.36 1614.05 1946.64C1718.75 1944.79 1770.88 1937.66 1770.88 1937.66C1770.88 1937.66 1838.98 2041.06 1762.03 2073.28Z" fill="white"/>
<path d="M1762.03 2073.28C1635.44 2126.36 1464.52 2094.31 1464.52 2094.31C1464.52 2094.31 1402.28 2073.55 1404.86 2012.49C1435.68 2031.4 1488.94 2054.96 1549.37 2042.5C1600.64 2031.94 1613.91 1988.52 1614.05 1946.64C1718.75 1944.79 1770.88 1937.66 1770.88 1937.66C1770.88 1937.66 1838.98 2041.06 1762.03 2073.28Z" fill="#E8E8E8"/>
<path d="M1582.66 2121.51C1516.13 2121.51 1465.14 2112.2 1461.28 2111.48C1460.5 2111.33 1459.73 2111.13 1458.98 2110.88C1431.94 2101.87 1382.25 2068.51 1387.69 2006.72C1393 1946.54 1444.46 1929.08 1470.93 1928.26C1471.27 1928.24 1471.61 1928.24 1471.95 1928.25C1667.81 1933.68 1767.52 1920.46 1768.5 1920.33C1775.13 1919.42 1781.76 1922.41 1785.47 1928.03C1789.83 1934.66 1827.66 1994.18 1812.71 2043.27C1806.36 2064.09 1791.18 2080.04 1768.81 2089.42C1708.69 2114.61 1639.92 2121.5 1582.66 2121.51ZM1468.97 2077.33C1484.54 2080.02 1640.65 2105.21 1755.29 2057.17C1768.12 2051.8 1775.96 2043.92 1779.26 2033.07C1786.54 2009.19 1772.08 1975.12 1761.69 1956.33C1730.12 1959.69 1634.41 1967.73 1471.63 1963.22C1465.52 1963.57 1426.26 1967.49 1422.53 2009.79C1418.42 2056.42 1461.4 2074.52 1468.97 2077.33Z" fill="#371A45"/>
<path d="M966.835 2797.03C966.835 2797.03 1062.19 2816.16 1142.32 2810.3L966.835 2797.03Z" fill="white"/>
<path d="M969.414 2784.18C1025.69 2795.88 1084.18 2803.69 1141.69 2801.58C1152.96 2801.21 1154.24 2817.7 1142.96 2819.01C1098.04 2823.07 1053.35 2820.74 1008.76 2815.96C993.902 2814.3 979.305 2812.4 964.259 2809.89C957.113 2808.69 952.286 2801.93 953.48 2794.79C954.691 2787.34 962.076 2782.43 969.414 2784.18Z" fill="#371A45"/>
<path d="M1502.14 1309.15C1502.14 1309.15 1720.84 1280.81 1865.68 1565.75C1893.74 1620.96 1945.83 1760 1950.99 1919.81C1957.16 2110.6 1925.27 2316.16 1837.52 2398.08C1793.12 2439.52 1749.13 2428.97 1714.11 2435.51C1571.76 2492.59 1589.02 2347.13 1588 2322.89C1564.37 2318.61 1531.41 2308.33 1535.41 2266.55C1539.82 2220.42 1604.67 2171.85 1604.67 2171.85C1604.67 2171.85 1676.36 1968.2 1599.87 1715.07" fill="white"/>
<path d="M1536.89 2257.97C1536.16 2260.84 1535.68 2263.69 1535.39 2266.57C1531.4 2308.31 1564.35 2318.62 1588.01 2322.91C1589.03 2347.13 1571.77 2492.6 1714.09 2435.52C1749.12 2428.95 1793.1 2439.53 1837.52 2398.08C1859.46 2377.59 1877.92 2349.39 1893.12 2315.62C1893.18 2315.42 1893.28 2315.27 1893.33 2315.16C1893.44 2314.97 1893.54 2314.78 1893.6 2314.54C1893.65 2314.47 1893.7 2314.39 1893.71 2314.31C1939 2213 1955.6 2062.29 1951 1919.8C1945.81 1760.01 1893.74 1620.95 1865.7 1565.73C1720.86 1280.81 1502.13 1309.13 1502.13 1309.13L1599.89 1715.08C1676.37 1968.21 1604.69 2171.85 1604.69 2171.85C1604.69 2171.85 1547.65 2214.57 1536.89 2257.97Z" fill="white"/>
<path d="M1893.73 2314.31C1893.69 2314.39 1893.65 2314.47 1893.61 2314.55C1893.53 2314.79 1893.45 2314.95 1893.33 2315.15C1893.29 2315.27 1893.17 2315.44 1893.13 2315.64C1877.92 2349.38 1859.46 2377.58 1837.52 2398.09C1793.1 2439.53 1749.13 2428.94 1714.1 2435.52C1571.79 2492.61 1589.04 2347.13 1588 2322.9C1564.37 2318.61 1531.39 2308.29 1535.4 2266.57C1535.68 2263.68 1536.16 2260.83 1536.88 2257.98C1547.64 2214.57 1604.69 2171.84 1604.69 2171.84C1604.69 2171.84 1676.39 1968.22 1599.87 1715.09L1597.15 1703.74L1502.14 1309.14C1502.14 1309.14 1637.39 1291.65 1765.54 1422.64C1800.4 1458.23 1834.75 1504.81 1865.68 1565.72C1893.73 1620.97 1945.81 1759.99 1950.98 1919.79C1955.6 2062.3 1938.99 2213 1893.73 2314.31Z" fill="white"/>
<path d="M1742.71 1400.9C1701.1 1437.15 1638.73 1477.76 1549.41 1505.48L1502.12 1309.15C1502.12 1309.15 1621.81 1293.67 1742.71 1400.9Z" fill="#E8E8E8"/>
<path d="M1535.39 2266.57C1531.4 2308.31 1564.35 2318.62 1588.01 2322.91C1589.03 2347.13 1571.77 2492.6 1714.09 2435.52C1749.12 2428.95 1793.1 2439.53 1837.52 2398.08C1859.46 2377.59 1877.91 2349.39 1893.12 2315.62C1888.42 2325.42 1854.81 2388.37 1767.24 2386.86C1653.67 2384.96 1633.72 2403.99 1620.97 2367.78C1608.23 2331.57 1641.37 2288.77 1605.14 2261.73C1587.05 2282.5 1559.31 2287.8 1536.89 2257.97C1536.16 2260.84 1535.67 2263.69 1535.39 2266.57Z" fill="#E8E8E8"/>
<path d="M1499.9 1291.81C1639.62 1282.4 1766.49 1374.99 1839.94 1487.21C1856.84 1512.83 1873.71 1541.76 1886.9 1569.36C1948.48 1704.78 1974.19 1854.96 1968.68 2003.23C1964.75 2131.9 1940.3 2372.46 1811.65 2436.42C1782.46 2450.71 1746.28 2448.52 1717.32 2452.7L1720.62 2451.74C1692.57 2462.81 1658.25 2472.08 1627.05 2461.25C1576.82 2443.19 1569.03 2382.6 1570.4 2336.52C1570.47 2331.92 1570.62 2326.81 1570.54 2323.62L1584.89 2340.09C1533.56 2332.47 1505.11 2296.1 1522.81 2244.57C1537.09 2208.43 1564.6 2181.73 1594.19 2157.86L1588.18 2166.05C1598.41 2130.34 1605.16 2093.26 1609.9 2056.35C1624.5 1943.42 1615.59 1828.66 1591.51 1717.6C1589.16 1707.04 1604.27 1702.2 1608.24 1712.54C1621.48 1748.73 1633.25 1787.66 1640.07 1825.66C1661.56 1940.36 1657.95 2066.39 1621.16 2177.66C1619.98 2181.06 1617.83 2183.88 1615.12 2185.87C1609.23 2190.42 1602.74 2195.97 1596.91 2201.46C1580.58 2216.79 1563.07 2236.61 1555.69 2256.47C1551.87 2266.7 1550.84 2281.16 1557.22 2289.91C1562.42 2297.77 1575.75 2303.05 1591.12 2305.69C1599.37 2307.03 1605.29 2314.11 1605.47 2322.16C1605.62 2328.25 1605.41 2332.41 1605.36 2337.07C1605.15 2350.08 1605.42 2363.4 1607.22 2375.98C1615.05 2439.4 1657.4 2439.39 1707.75 2419.23C1739.6 2412.41 1769.15 2417.73 1797.22 2404.57C1907.97 2347.18 1930.59 2116.27 1933.73 2002.29C1938.35 1881.68 1921.35 1760.37 1880.6 1646.62C1841.68 1536.58 1771.42 1428.66 1669.22 1369.2C1625.4 1343.77 1575.43 1327.61 1524.66 1325.95C1517.81 1325.63 1510.46 1325.94 1503.81 1326.56C1480.96 1328.6 1476.83 1295.12 1499.9 1291.81Z" fill="#371A45"/>
<path d="M1592.96 2255.37C1592.96 2255.37 1621.01 2281.06 1594.99 2346.46L1592.96 2255.37Z" fill="white"/>
<path d="M1597.39 2250.54C1621.47 2266.98 1622.91 2301.63 1613.9 2326.6C1610.53 2333.74 1601.66 2357.71 1591.32 2349.63C1589.62 2348.17 1588.86 2346.13 1588.9 2344.04C1589.83 2315.94 1597.95 2287.42 1588.53 2260.21L1588.22 2256.02C1587.71 2251.24 1593.47 2247.86 1597.39 2250.54Z" fill="#371A45"/>
<path d="M1634.7 1940.91C1629.27 1940.91 1624.18 1937.5 1622.31 1932.07C1619.95 1925.23 1623.58 1917.76 1630.43 1915.4C1838.71 1843.5 1952.68 1905.71 1957.44 1908.39C1963.74 1911.95 1965.97 1919.95 1962.4 1926.25C1958.84 1932.56 1950.84 1934.78 1944.54 1931.22C1943.51 1930.65 1835.13 1872.47 1638.98 1940.19C1637.57 1940.68 1636.12 1940.91 1634.7 1940.91Z" fill="#371A45"/>
<path d="M1330.51 1424.45C1271.14 1424.45 1211.29 1417.16 1152.26 1402.19C1139.09 1398.82 1125.8 1395.04 1112.77 1390.97C1076.49 1379.51 1041.09 1365.16 1007.54 1348.34C978.857 1333.97 951.113 1317.69 925.083 1299.94C893.984 1278.84 864.199 1254.99 836.558 1229.02C826.455 1219.43 817.652 1210.69 809.644 1202.29C792.203 1184.1 775.434 1164.63 759.814 1144.43C686.079 1048.98 638.022 935.649 620.844 816.681C589.858 602.072 658.604 389.367 809.468 233.102C896.685 142.704 1006.82 76.9203 1127.96 42.8633C1150.88 36.3493 1174.93 30.8593 1199.45 26.5423C1215.18 23.7833 1231.43 21.5103 1247.73 19.7843C1298.5 14.3813 1350.02 14.3693 1400.83 19.7473C1452.13 25.1253 1502.84 35.9903 1551.57 52.0373C1572.77 59.0323 1593.96 67.1493 1614.56 76.1703C1622.81 79.7173 1630.35 83.1723 1637.6 86.7223C1703.74 118.358 1764.8 160.213 1819.06 211.117C1958.06 341.718 2037.14 517.655 2041.75 706.522C2046.32 893.89 1976.86 1071.64 1846.16 1207.04C1710.5 1347.63 1523.15 1424.44 1330.51 1424.45ZM1324.44 19.2433C1298.93 19.2433 1273.43 20.5913 1248.1 23.2863C1231.88 25.0023 1215.71 27.2633 1200.06 30.0103C1175.66 34.3043 1151.73 39.7683 1128.92 46.2503C1008.37 80.1393 898.782 145.598 811.995 235.547C661.897 391.023 593.493 602.656 624.328 816.179C641.418 934.548 689.23 1047.31 762.595 1142.28C778.137 1162.38 794.823 1181.75 812.186 1199.86C820.16 1208.22 828.919 1216.92 838.973 1226.47C866.473 1252.29 896.112 1276.04 927.059 1297.03C952.962 1314.69 980.569 1330.89 1009.11 1345.19C1042.5 1361.93 1077.73 1376.21 1113.82 1387.61C1126.79 1391.67 1140.02 1395.42 1153.13 1398.78C1211.85 1413.67 1271.45 1420.93 1330.52 1420.93C1522.23 1420.94 1708.63 1344.5 1843.63 1204.6C1973.67 1069.88 2042.78 893.027 2038.23 706.609C2033.65 518.691 1954.95 343.633 1816.65 213.684C1762.66 163.027 1701.9 121.377 1636.06 89.8903C1628.85 86.3603 1621.37 82.9293 1613.16 79.3993C1592.65 70.4203 1571.57 62.3393 1550.46 55.3813C1501.98 39.4123 1451.51 28.6013 1400.46 23.2503C1375.24 20.5783 1349.84 19.2433 1324.44 19.2433Z" fill="#371A45"/>
<path d="M1844.89 1205.8C1661.22 1396.2 1394.45 1461.82 1152.68 1400.46C1139.48 1397.1 1126.35 1393.37 1113.3 1389.28C1077.49 1377.98 1042.38 1363.82 1008.34 1346.78C980.152 1332.63 952.599 1316.57 926.089 1298.5C895.234 1277.59 865.725 1254.02 837.745 1227.75C828.554 1218.96 819.546 1210.12 810.899 1201.09C793.133 1182.55 776.629 1163.25 761.209 1143.35C685.716 1045.62 639.366 932.8 622.58 816.409C613.337 752.49 613.004 687.506 621.639 623.495C640.235 734.191 586.981 825.262 659 918.5C674.377 938.455 653.734 953.457 671.5 972C680.101 981.03 692.263 1000.21 701.5 1009C729.48 1035.27 696.692 1028.58 727.5 1049.5C754.057 1067.57 627.452 1115 798 1115C820 1143.35 845.738 1172.2 881.5 1183.5C1013 1265.5 1131.29 1273.14 1144.5 1276.5C1386.26 1337.86 1567.78 1207.9 1751.5 1017.5C1858.71 906.459 2011.42 748.957 2030.46 607.55C2065.86 817.541 2004.65 1040.32 1844.89 1205.8Z" fill="#E8E8E8"/>
<path d="M1330.5 1436.24C1270.17 1436.24 1209.34 1428.83 1149.36 1413.62C1135.97 1410.19 1122.48 1406.36 1109.25 1402.22C1072.35 1390.56 1036.37 1375.98 1002.25 1358.88C973.104 1344.28 944.9 1327.72 918.436 1309.68C886.854 1288.25 856.581 1264 828.485 1237.62C818.192 1227.85 809.252 1218.97 801.107 1210.43C783.402 1191.96 766.356 1172.18 750.482 1151.65C675.511 1054.6 626.644 939.336 609.174 818.367C577.66 600.125 647.572 383.819 800.981 224.915C889.653 133.013 1001.62 66.1363 1124.78 31.5123C1148.04 24.8983 1172.49 19.3172 1197.41 14.9302C1213.41 12.1252 1229.93 9.81325 1246.49 8.06025C1298.09 2.56925 1350.44 2.55726 1402.07 8.02326C1454.19 13.4873 1505.74 24.5293 1555.25 40.8403C1576.82 47.9493 1598.36 56.2012 1619.29 65.3712C1627.65 68.9652 1635.36 72.4982 1642.78 76.1332C1709.93 108.245 1771.99 150.784 1827.13 202.52C1968.45 335.303 2048.85 514.19 2053.54 706.236C2058.19 896.783 1987.55 1077.55 1854.64 1215.23C1716.74 1358.15 1526.31 1436.24 1330.5 1436.24ZM1324.44 31.0352C1299.34 31.0352 1274.27 32.3613 1249.35 35.0123C1233.38 36.7023 1217.49 38.9262 1202.09 41.6232C1178.1 45.8492 1154.56 51.2232 1132.15 57.5922C1013.58 90.9242 905.818 155.29 820.481 243.735C672.932 396.572 605.691 604.604 635.999 814.494C652.801 930.854 699.803 1041.71 771.927 1135.07C787.215 1154.84 803.621 1173.89 820.697 1191.69C828.558 1199.94 837.181 1208.5 847.093 1217.92C874.095 1243.27 903.245 1266.62 933.68 1287.27C959.173 1304.65 986.322 1320.59 1014.4 1334.65C1047.24 1351.11 1081.88 1365.15 1117.37 1376.37C1130.11 1380.35 1143.14 1384.05 1156.05 1387.35C1213.81 1402 1272.44 1409.14 1330.53 1409.14C1519.08 1409.16 1702.38 1333.99 1835.14 1196.41C1962.97 1063.98 2030.91 890.137 2026.44 706.897C2021.93 522.158 1944.56 350.049 1808.58 222.278C1755.48 172.459 1695.72 131.492 1630.98 100.53C1623.84 97.0362 1616.53 93.6872 1608.5 90.2322C1588.26 81.3702 1567.52 73.4232 1546.77 66.5822C1499.09 50.8742 1449.45 40.2423 1399.23 34.9783C1374.41 32.3483 1349.42 31.0352 1324.44 31.0352Z" fill="#371A45"/>
<path d="M1330.5 1440.17C1269.84 1440.17 1208.69 1432.72 1148.4 1417.43C1134.92 1413.98 1121.37 1410.13 1108.07 1405.98C1070.97 1394.25 1034.79 1379.59 1000.49 1362.39C971.184 1347.71 942.83 1331.07 916.223 1312.93C884.475 1291.39 854.035 1267.01 825.793 1240.49C815.437 1230.65 806.452 1221.73 798.264 1213.14C780.466 1194.58 763.332 1174.69 747.375 1154.05C671.98 1056.46 622.849 940.574 605.28 818.929C573.59 599.476 643.888 381.971 798.151 222.183C887.301 129.783 999.88 62.5403 1123.71 27.7273C1147.09 21.0813 1171.68 15.4693 1196.72 11.0593C1212.82 8.23426 1229.42 5.91326 1246.08 4.15026C1297.96 -1.37274 1350.57 -1.38173 1402.48 4.11327C1454.88 9.60627 1506.7 20.7073 1556.48 37.1063C1578.16 44.2543 1599.82 52.5502 1620.87 61.7692C1629.26 65.3802 1637.03 68.9373 1644.51 72.6043C1711.99 104.872 1774.38 147.641 1829.82 199.652C1971.91 333.163 2052.76 513.033 2057.46 706.139C2062.14 897.745 1991.11 1079.51 1857.47 1217.96C1718.82 1361.65 1527.36 1440.17 1330.5 1440.17ZM1324.44 34.9653C1299.49 34.9653 1274.54 36.2832 1249.77 38.9202C1233.88 40.6003 1218.08 42.8123 1202.77 45.4953C1178.91 49.6973 1155.51 55.0393 1133.22 61.3743C1015.31 94.5213 908.161 158.52 823.313 246.464C676.609 398.422 609.753 605.253 639.89 813.932C656.594 929.623 703.328 1039.84 775.036 1132.67C790.236 1152.32 806.555 1171.27 823.532 1188.97C831.354 1197.17 839.933 1205.7 849.797 1215.06C876.633 1240.27 905.622 1263.49 935.886 1284.02C961.242 1301.31 988.24 1317.15 1016.16 1331.13C1048.81 1347.51 1083.26 1361.46 1118.56 1372.62C1131.22 1376.57 1144.18 1380.26 1157.03 1383.54C1400.86 1445.38 1659.62 1372.64 1832.31 1193.68C1959.41 1062.01 2026.96 889.171 2022.51 706.991C2018.03 523.312 1941.1 352.186 1805.88 225.143C1753.08 175.599 1693.65 134.862 1629.28 104.074C1622.17 100.593 1614.92 97.2702 1606.95 93.8422C1586.8 85.0192 1566.18 77.1163 1545.54 70.3143C1498.12 54.6943 1448.76 44.1203 1398.82 38.8863C1374.13 36.2713 1349.29 34.9653 1324.44 34.9653Z" fill="#371A45"/>
<path d="M2013.5 580.5C1880.5 42.5 1206.3 -142.789 873.301 191.018L868.013 205.638C1270.15 -29.44 1639.5 166 1803.5 643C1888.49 611.169 2056.1 675.894 2013.5 580.5Z" fill="white"/>
<path d="M1245.21 1385.89C1135.66 1385.89 1023.87 1361.09 919.687 1312.06L917.651 1310.9C885.976 1289.41 855.644 1265.11 827.495 1238.68C817.178 1228.88 808.222 1219.99 800.062 1211.43C782.318 1192.92 765.244 1173.1 749.34 1152.53C674.213 1055.28 625.248 939.789 607.743 818.573C576.161 599.884 646.214 383.136 799.939 223.908C888.787 131.821 1000.97 64.8093 1124.38 30.1163L1125.86 29.6993L1127.4 29.5943C1220.76 23.1003 1320.38 38.9203 1423.54 76.5913C1609.15 144.367 1767.67 297.582 1847.57 486.442C1919.47 656.4 1920.78 835.705 1851.24 991.32C1775.5 1160.8 1648.07 1282.81 1482.72 1344.17C1407.55 1372.06 1327 1385.89 1245.21 1385.89ZM933.523 1285.41C1108 1367.21 1304.3 1378.38 1472.28 1316.04C1629.91 1257.55 1751.47 1141.03 1823.85 979.08C1889.95 831.148 1888.57 660.342 1819.94 498.133C1743.23 316.795 1591.19 169.744 1413.25 104.771C1314.64 68.7633 1219.71 53.5263 1131.01 59.4173C1013.32 92.7913 906.323 156.851 821.528 244.742C674.287 397.254 607.187 604.845 637.431 814.288C654.199 930.401 701.102 1041.02 773.074 1134.19C788.328 1153.91 804.705 1172.93 821.741 1190.69C829.588 1198.92 838.197 1207.47 848.09 1216.86C874.745 1241.89 903.504 1264.97 933.523 1285.41Z" fill="#371A45"/>
<path d="M1240.77 1313.45C1016.16 1313.45 797.552 1196.59 659.017 998.788L657.879 997.162L630.457 921.163C630.208 919.969 605.437 800.357 601.507 678.438C597.493 553.997 673.46 403.101 676.697 396.739L677.903 394.757C872.659 125.026 1116.01 41.0513 1401.17 145.179C1566.72 205.628 1708.1 342.271 1779.36 510.699C1843.52 662.33 1844.68 822.32 1782.63 961.2C1692.65 1162.59 1517.5 1289.91 1302.1 1310.53C1281.64 1312.49 1261.18 1313.45 1240.77 1313.45ZM684.725 983.193C829.769 1189.12 1065.13 1303.08 1299.24 1280.66C1503.59 1261.11 1669.79 1140.21 1755.24 948.965C1813.86 817.766 1812.61 666.272 1751.74 522.39C1683.66 361.487 1548.75 231.008 1390.87 173.359C1120.21 74.5262 888.754 154.597 702.938 411.337C696.366 424.606 627.889 565.829 631.488 677.472C635.15 790.885 657.22 902.23 659.613 914.005L684.725 983.193Z" fill="#371A45"/>
<path d="M2105.87 854.483C2085.47 991.547 1986.25 1094.54 1884.23 1084.51C1782.22 1074.47 1716.06 955.209 1736.46 818.145C1736.57 817.284 1736.73 816.376 1736.89 815.516C1758.13 679.762 1856.8 578.145 1958.1 588.122C2036.91 595.872 2094.31 668.811 2106.96 764.767C2110.67 793.02 2110.51 823.313 2105.87 854.483Z" fill="white"/>
<path d="M2105.87 854.483C2085.47 991.547 1986.25 1094.54 1884.23 1084.51C1782.22 1074.47 1716.06 955.209 1736.46 818.145C1736.57 817.284 1736.73 816.376 1736.89 815.516C1746.01 830.684 1761.41 846.254 1785.75 843.913C1828.39 839.793 1915.85 758.97 1915.85 758.97C1915.85 758.97 1998.74 760.945 2106.96 764.767C2110.67 793.02 2110.51 823.313 2105.87 854.483Z" fill="#E8E8E8"/>
<path d="M1897.8 1102.64C1892.71 1102.64 1887.63 1102.39 1882.52 1101.89C1837.8 1097.49 1798.17 1074.68 1767.94 1035.92C1724.41 980.116 1706.63 899.796 1719.17 815.555C1740.9 669.63 1848.87 559.791 1959.83 570.726C2004.56 575.128 2044.18 597.94 2074.42 636.698C2117.94 692.499 2135.72 772.826 2123.18 857.059C2102.46 996.267 2003.24 1102.64 1897.8 1102.64ZM1944.22 604.926C1855.85 604.926 1771.94 698.527 1753.75 820.702C1742.79 894.418 1758.39 966.832 1795.51 1014.41C1819.71 1045.44 1850.98 1063.65 1885.95 1067.1C1890.01 1067.49 1894.08 1067.69 1898.13 1067.69C1986.51 1067.7 2070.41 974.091 2088.6 851.913C2099.57 778.197 2083.96 705.783 2046.85 658.202C2022.65 627.179 1991.38 608.964 1956.41 605.521C1952.34 605.124 1948.27 604.926 1944.22 604.926Z" fill="#371A45"/>
<path d="M2117.77 877.272C2140.85 766.476 2098.33 663.907 2022.8 648.177C1947.28 632.447 1867.35 709.514 1844.27 820.309C1821.2 931.105 1863.71 1033.67 1939.24 1049.4C2014.76 1065.13 2094.69 988.068 2117.77 877.272Z" fill="white"/>
<path d="M1950.19 1051.12C2027.33 1058.11 2103.65 973.241 2120.73 861.523C2122.61 849.4 2123.65 837.444 2124.02 825.79C2092.15 899.733 2032.72 948.819 1972.77 943.33C1905.07 937.124 1858.91 863.274 1859.35 770.589C1851.21 790.923 1845.08 813.011 1841.51 836.24C1824.43 947.958 1873.1 1044.14 1950.19 1051.12Z" fill="#E8E8E8"/>
<path d="M1958.87 1069C1955.46 1069 1952.05 1068.85 1948.64 1068.54C1915.41 1065.53 1885.8 1048.57 1863.03 1019.49C1827.82 974.533 1813.32 905.051 1824.25 833.62C1842.67 713.151 1927.55 621.537 2013.63 629.26C2046.86 632.268 2076.46 649.231 2099.24 678.313C2134.44 723.267 2148.94 792.751 2138.02 864.182C2120.33 979.865 2041.28 1069 1958.87 1069ZM2002.97 663.744C1937.58 663.744 1873.91 740.128 1858.81 838.903C1849.32 900.978 1861.18 960.426 1890.55 997.926C1907.23 1019.23 1928.41 1031.6 1951.79 1033.72C2019.73 1039.88 2087.78 961.449 2103.46 858.898C2112.95 796.823 2101.08 737.375 2071.71 699.872C2055.03 678.576 2033.86 666.2 2010.48 664.083C2007.98 663.857 2005.47 663.744 2002.97 663.744Z" fill="#371A45"/>
</svg>
