<svg width="1794" height="1744" viewBox="0 0 1794 1744" fill="none" xmlns="http://www.w3.org/2000/svg">
<path d="M1115.7 1661.1C1111.9 1669.2 1107.3 1677.4 1101.75 1685.7C1091 1701.8 1073.65 1712.25 1054.4 1714.55C863.3 1737.35 632.9 1668.1 657 1488.05C659.05 1472.75 663.85 1457.9 670.85 1444.15L757.55 1274.9C764.3 1261.75 768.55 1247.5 770.15 1232.85C778.7 1155.6 782.7 1071.3 782.5 980.5L1002.5 920.5L1145.35 1123.5L1192.5 1190.5C1167.8 1318.1 1137.65 1437.35 1077.5 1510.5C1118.75 1527.55 1149.25 1589.9 1115.7 1661.1Z" fill="white"/>
<path d="M985.068 1736.08C876.792 1736.08 757.597 1708.4 690.424 1640.25C649.272 1598.49 631.718 1545.07 639.662 1485.75C641.952 1468.64 647.211 1451.96 655.292 1436.18L741.986 1266.91C747.738 1255.69 751.366 1243.57 752.772 1230.9C761.102 1155.66 765.213 1071.43 764.999 980.54C764.979 972.632 770.268 965.696 777.895 963.616L997.895 903.616C1005.01 901.663 1012.57 904.4 1016.81 910.428L1206.81 1180.43C1209.55 1184.32 1210.59 1189.15 1209.68 1193.82C1187.19 1310.06 1158.66 1427.47 1103.4 1505.38C1121.02 1518.64 1134.84 1538.74 1141.97 1562.25C1154.74 1604.36 1145.62 1651.66 1116.31 1695.45C1102.73 1715.73 1080.93 1729.02 1056.49 1731.94C1033.75 1734.65 1009.69 1736.08 985.068 1736.08ZM800 993.866C799.8 1080.96 795.62 1161.94 787.559 1234.76C785.689 1251.66 780.835 1267.85 773.14 1282.87L686.446 1452.14C680.181 1464.37 676.114 1477.24 674.351 1490.39C667.803 1539.28 681.597 1581.43 715.352 1615.68C779.536 1680.8 914.976 1713.55 1052.35 1697.18C1066.63 1695.48 1079.34 1687.75 1087.23 1675.98C1110.6 1641.07 1118.14 1604.29 1108.47 1572.4C1101.93 1550.81 1087.85 1533.71 1070.82 1526.67C1065.69 1524.55 1061.87 1520.13 1060.52 1514.75C1059.18 1509.37 1060.46 1503.66 1063.99 1499.38C1121.33 1429.66 1150.88 1312.15 1173.9 1194.47L995.254 940.613L800 993.866Z" fill="#371A45"/>
<path d="M1105.34 1387.19C970.078 1387.19 853.086 1342.63 757.022 1254.4C749.903 1247.87 749.429 1236.8 755.967 1229.68C762.51 1222.56 773.579 1222.09 780.694 1228.63C879.918 1319.75 1003.5 1360.82 1147.99 1350.67C1157.53 1350.03 1166 1357.26 1166.68 1366.9C1167.36 1376.54 1160.09 1384.91 1150.45 1385.58C1135.2 1386.66 1120.15 1387.19 1105.34 1387.19Z" fill="#371A45"/>
<path d="M1081.65 1531.08C1024.2 1548.99 959.616 1542.54 907.169 1514.6C903.634 1512.78 902.24 1508.44 904.056 1504.91C905.714 1501.68 909.495 1500.25 912.828 1501.4C963.86 1519.62 1019.86 1517.89 1068.34 1494.92C1093.75 1484.5 1107.81 1522.48 1081.65 1531.08Z" fill="#371A45"/>
<g opacity="0.25">
<path d="M960.199 1524.6C956.749 1523.65 953.249 1522.65 949.699 1521.5C953.249 1522.25 956.799 1523.25 960.199 1524.6Z" fill="#371A45"/>
</g>
<g opacity="0.25">
<path d="M1145.35 1123.5C1143.8 1131.05 1142.15 1138.5 1140.45 1145.95L1130.9 1136.9C1086.55 1105.15 1017.1 1117.3 986.15 1162.2C973.6 1180.3 967.3 1201.9 961.15 1223.05C940.05 1295.55 919 1368 897.95 1440.5C894.7 1451.65 891.45 1463.25 893.35 1474.75C897.65 1500.3 924.05 1513.45 949.7 1521.5C923.9 1516 895.2 1525.3 878.2 1545.6C858.85 1568.65 856.1 1604.2 871.7 1629.95C887.1 1655.45 916.6 1669 945.5 1676.2C1001.85 1690.2 1062.45 1684 1115.7 1661.1C1111.9 1669.2 1107.3 1677.4 1101.75 1685.7C1091 1701.8 1073.65 1712.25 1054.4 1714.55C863.3 1737.35 632.9 1668.1 657 1488.05C659.05 1472.75 663.85 1457.9 670.85 1444.15L757.55 1274.9C764.3 1261.75 768.55 1247.5 770.15 1232.85C778.7 1155.6 782.7 1071.3 782.5 980.5L1002.5 920.5L1145.35 1123.5Z" fill="#371A45"/>
</g>
<path d="M1022.5 135.5L1000.8 362.2L942.499 970.5C856.699 1025.65 758.799 1057.7 632.499 1035.5C556.149 1019.6 501.549 983.3 466.099 928.95C447.349 900.25 437.399 866.7 435.849 832.45C435.799 831.9 435.749 831.399 435.749 830.85C427.549 616.049 439.099 404.999 469.249 197.549C471.349 182.849 480.049 169.95 492.749 162.399C564.449 119.799 662.399 98.2491 777.499 90.4991L1022.5 135.5Z" fill="white"/>
<path d="M711.798 1060.19C685.035 1060.19 657.672 1057.69 629.474 1052.74C629.293 1052.7 629.113 1052.67 628.937 1052.63C549.855 1036.17 490.133 997.781 451.432 938.54C431.237 907.62 419.772 870.615 418.278 831.523C410.153 618.818 421.471 404.665 451.911 195.012C454.811 175.051 466.442 157.678 483.82 147.348C553.517 105.912 649.196 81.6031 776.325 73.0371C777.77 72.9371 779.235 73.0171 780.661 73.2861L1025.66 118.286C1034.6 119.927 1040.79 128.127 1039.92 137.168L959.924 972.168C959.411 977.507 956.477 982.317 951.965 985.217C873.516 1035.66 795.635 1060.19 711.798 1060.19ZM635.802 1018.31C740.358 1036.62 832.765 1018.18 925.9 960.292L1003.55 149.811L776.5 108.109C656.08 116.419 566.178 139.105 501.7 177.435C493.443 182.345 487.921 190.585 486.549 200.043C456.412 407.594 445.206 619.606 453.248 830.187C454.503 862.941 464.01 893.791 480.738 919.401C514.59 971.224 565.318 1003.58 635.802 1018.31Z" fill="#371A45"/>
<path d="M610.547 1012.09C642.792 1017.4 653.123 979.964 660.413 955.073C669.526 920.35 673.445 884.528 677.879 848.508C680.269 827.105 683.635 796.408 686.421 775.276C687.407 768.15 698.113 768.404 698.579 775.726C701.108 825.466 702.484 874.686 697.935 924.596C695.237 949.714 691.795 975.246 680.635 1001.02C671.656 1022.49 653.438 1043.36 628.869 1046.96C612.828 1049.52 587.437 1048.26 589.978 1026.58C591.5 1016.72 600.957 1010.45 610.547 1012.09Z" fill="#371A45"/>
<g opacity="0.25">
<path d="M1000.8 362.2L942.5 970.5C856.7 1025.65 758.8 1057.7 632.5 1035.5C556.15 1019.6 501.55 983.3 466.1 928.95C447.35 900.25 437.4 866.7 435.85 832.45L441.2 830.099C461.25 870.65 485.4 911.249 523.05 936.399C560.65 961.549 614.85 966.95 649.5 937.899C685.1 908.149 688.7 855.799 690.55 809.449C693.75 728.599 699.85 647.849 708.9 567.399C710.4 553.899 712.15 539.949 718.9 528.149C726.65 514.649 740.05 505.549 753.1 497.049C832.05 445.8 914.95 400.7 1000.8 362.2Z" fill="#371A45"/>
</g>
<path d="M652.492 307.999C648.605 307.999 644.689 306.71 641.442 304.061C584.206 257.389 526.261 220.316 469.22 193.868C460.455 189.803 456.642 179.398 460.704 170.631C464.771 161.859 475.182 158.058 483.946 162.115C543.634 189.788 604.063 228.421 663.56 276.937C671.05 283.045 672.173 294.068 666.065 301.559C662.604 305.8 657.57 307.999 652.492 307.999Z" fill="#371A45"/>
<path d="M864.432 652.847L744.119 662.153C733.378 662.984 724.543 670.936 722.649 681.541C715.713 720.377 704.351 810.905 742.178 840.706C773.575 865.441 824.455 862.415 854.217 837.111C887.508 808.805 890.567 720.036 889.928 676.095C889.73 662.433 878.053 651.794 864.432 652.847Z" fill="white"/>
<g opacity="0.25">
<path d="M722.66 681.555C715.705 720.377 704.359 810.91 742.191 840.698C773.593 865.445 824.461 862.415 854.238 837.104C874.698 819.682 883.737 779.398 887.51 740.754C882.132 760.07 873.657 775.764 863.095 786.073C802.578 845.138 757.146 775.762 757.146 775.762C757.146 775.762 749.326 792.651 743.066 793.62C716.89 797.674 722.12 715.689 725.811 673.33C724.281 675.774 723.186 678.542 722.66 681.555Z" fill="#371A45"/>
</g>
<path d="M795.015 870.287C772.998 870.287 751.226 863.749 734.444 850.526C692.735 817.667 701.446 729.171 710.347 679.344C713.238 663.155 726.729 650.963 743.155 649.688L863.472 640.384C873.369 639.627 883.301 643.021 890.645 649.725C897.989 656.424 902.286 665.973 902.427 675.916C903.321 737.474 897.09 817.066 862.315 846.634C843.848 862.335 819.288 870.284 795.015 870.287ZM866.29 665.277C865.997 665.277 865.699 665.287 865.401 665.311H865.396L745.083 674.615C740.01 675.008 735.845 678.761 734.956 683.739C721.68 758.043 727.27 813.051 749.912 830.887C775.889 851.351 819.941 849.845 846.123 827.586C866.846 809.964 878.55 753.399 877.427 676.277C877.383 673.159 876.094 670.288 873.794 668.194C871.715 666.295 869.078 665.277 866.29 665.277Z" fill="#371A45"/>
<path d="M797.468 866.45C747.099 833.541 743.939 759.353 757.223 706.433C758.447 702.955 763.839 704.471 762.935 708.128C761.356 714.204 760.805 721.336 760.486 728.117C759.575 766.711 763.92 810.087 792.615 838.287C795.868 841.488 799.368 844.331 803.147 846.74C804.258 847.448 805.793 848.303 806.353 848.531C811.478 850.627 813.934 856.48 811.839 861.605C809.593 867.229 802.656 869.553 797.468 866.45Z" fill="#371A45"/>
<path d="M1774.75 1610.75C1774.35 1616.1 1773.55 1621.65 1772.4 1627.4C1767.35 1652.95 1749.5 1674.15 1725.25 1683.6C1600.05 1732.6 1397.95 1743.7 1277.1 1693.75C1247.4 1681.5 1225.3 1655.8 1217.75 1624.55C1185.05 1489.4 1175.2 1284.45 1088.95 1128.55C1083.6 1118.9 1074.9 1111.55 1064.5 1107.95C1034.45 1097.55 1005.7 1084.05 978.6 1066.6C917.6 1027.25 884.4 956.35 892.25 884.2C900.5 809 903.85 730.75 903.1 649.85V649.4C902.55 592.599 899.95 534.5 895.6 475.3C887.55 366.35 873.5 253.6 855 138L985 18L1355 78L1475 178C1618.45 382.3 1641.2 687.75 1598.45 932.45C1592.15 968.6 1584.45 1003.4 1575.45 1036.35V1036.4C1575.3 1036.95 1575.15 1037.45 1575 1038C1635.45 1170.05 1659 1316.95 1660 1473C1735.85 1500.95 1780.95 1542.35 1774.75 1610.75Z" fill="white"/>
<path d="M1480.06 174.444C1657.53 400.125 1663.27 774.892 1591.88 1042.63C1591.88 1042.63 1590.91 1030.72 1590.91 1030.72C1654.33 1168.93 1676.67 1322.21 1677.62 1472.89L1666.09 1456.46C1744.27 1484.35 1807.99 1537.14 1790.04 1628.88C1784.49 1663.34 1757.6 1692.87 1724.23 1702.8C1718.45 1704.69 1711.24 1707.64 1705.57 1709.44C1658.9 1724.45 1610.53 1733.72 1561.92 1739.19C1471.31 1747.98 1376.85 1746.3 1289.65 1717.34L1270.73 1710.4C1235.94 1696.4 1208.74 1664.87 1200.28 1628.32C1182.81 1553.49 1173.1 1476.91 1158.56 1402.13C1143.28 1321.96 1123.72 1242.93 1089.34 1169.06C1086.85 1163.4 1083.79 1158.06 1081.05 1152.54L1072.79 1136.57C1069.29 1130.47 1063.24 1126.23 1056.58 1124.24C1010.95 1107.56 965.152 1085.85 931.045 1050.33C887.394 1005.08 866.682 940.026 874.703 877.839C875.647 868.601 877.393 849.493 878.328 840.219C884.944 758.433 886.465 676.293 883.647 594.237C878.735 442.282 860.987 290.925 837.273 140.78C836.311 134.68 838.635 128.737 842.83 124.814L972.925 4.91893C977.078 1.08093 982.665 -0.389018 987.849 0.426982L1357.8 60.725C1367.34 62.28 1373.81 71.273 1372.26 80.812C1370.7 90.351 1361.74 96.8279 1352.2 95.2729L982.15 35.571L997.074 31.0799L867.169 151.184L872.716 135.163C912.042 382.236 936.679 635.803 910.233 886.449C904.264 939.618 924.291 994.955 963.299 1031.55C994.378 1060.42 1034.42 1077.94 1073.95 1092.28C1087.93 1098.01 1099.89 1109.42 1106.32 1122.98C1107.77 1125.55 1111.59 1133.41 1113.08 1136.13C1131.12 1170.72 1145.18 1208.05 1157.17 1244.98C1196.73 1368.84 1206.95 1495.67 1235 1619.94C1239.8 1640.46 1252.76 1658.65 1270.36 1670.11C1278.47 1676.19 1292 1679.97 1301.25 1683.63C1312.65 1687.6 1324.44 1690.93 1336.26 1693.71C1408.78 1710.57 1484.11 1711.2 1558.13 1703.89C1604.41 1698.69 1650.22 1689.98 1694.56 1675.77C1700.37 1674.2 1706.22 1671.32 1711.87 1669.61C1728.88 1664.64 1743.82 1652.96 1750.97 1636.59C1758.63 1616.99 1759.62 1593.88 1754.28 1573.59C1749.07 1553.14 1735.04 1535.89 1716.91 1522.13C1698.67 1508.37 1676.65 1498.1 1653.9 1489.54C1646.83 1486.93 1642.43 1480.22 1642.37 1473.11C1641.89 1399.52 1636.36 1326.03 1623.26 1254C1610.2 1182.01 1589.38 1111.51 1559.08 1045.28C1557.31 1041.4 1557.08 1037.19 1558.12 1033.37C1613.63 822.001 1617.86 593.056 1557.39 382.283C1536.46 312.267 1507.8 244.731 1469.93 181.555C1468.15 178.619 1469.1 174.785 1472.05 173.021C1474.74 171.412 1478.15 172.073 1480.06 174.444Z" fill="#371A45"/>
<path d="M1675.14 1483.25C1650.03 1532.83 1595.66 1555.67 1543.3 1556.7C1535.7 1556.98 1534.28 1545.92 1541.7 1544.3C1584.9 1535.29 1627.26 1510.9 1639.86 1467.75C1649.7 1441.04 1688.14 1457.84 1675.14 1483.25Z" fill="#371A45"/>
<path d="M1343.31 1387.3C1278.81 1387.3 1215.93 1378.42 1158.68 1360.28C1148.53 1357.07 1142.91 1346.25 1146.13 1336.1C1149.34 1325.96 1160.19 1320.35 1170.31 1323.55C1312.71 1368.65 1492.67 1352.75 1639.97 1282.04C1649.55 1277.43 1661.06 1281.48 1665.67 1291.07C1670.27 1300.66 1666.23 1312.17 1656.63 1316.77C1559.78 1363.27 1449.36 1387.3 1343.31 1387.3Z" fill="#371A45"/>
<path d="M1578.19 1090.57C1552.98 1034.14 1533.21 973.821 1489.94 928.258C1483.9 921.695 1492.83 911.987 1499.87 917.539C1550.93 958.164 1579.22 1020.19 1609.71 1075.36C1620.69 1097.12 1588.48 1112.78 1578.19 1090.57Z" fill="#371A45"/>
<g opacity="0.25">
<path d="M1284.15 635.3C1271.75 668.1 1233.9 682.35 1199.7 690.15C1199.65 690.15 1199.55 690.2 1199.5 690.2C1159.3 699.3 1117.9 704.85 1076.7 701.8C1017.05 697.35 960.6 675.2 905.7 650.55C905.65 650.55 905.65 650.55 905.6 650.55C904.75 650.15 903.9 649.8 903.1 649.4C902.55 592.599 899.95 534.5 895.6 475.3C907.8 451.7 925.05 430.9 947.7 417.35L949 408.65C971.55 389.3 1005.2 378.15 1031.1 392.7C1070.2 414.601 1064.65 474.3 1093.1 508.95C1111.8 531.8 1142.9 540.5 1172.4 542.65C1211.25 545.5 1250.8 538.95 1286.7 523.8C1287.35 546.201 1287.95 568.601 1288.6 591C1289.05 605.95 1289.4 621.3 1284.15 635.3Z" fill="#371A45"/>
</g>
<g opacity="0.25">
<path d="M1774.75 1610.75C1774.35 1616.1 1773.55 1621.65 1772.4 1627.4C1767.35 1652.95 1749.5 1674.15 1725.25 1683.6C1600.05 1732.6 1397.95 1743.7 1277.1 1693.75C1247.4 1681.5 1225.3 1655.8 1217.75 1624.55C1185.05 1489.4 1175.2 1284.45 1088.95 1128.55C1083.6 1118.9 1074.9 1111.55 1064.5 1107.95C1034.45 1097.55 1005.7 1084.05 978.599 1066.6C917.599 1027.25 884.399 956.35 892.249 884.2C900.499 809 903.849 730.75 903.099 649.85C903.949 650.15 904.799 650.4 905.699 650.55C1001.5 676.05 1100.55 689.35 1199.7 690.15C1232.9 690.5 1266.15 689.35 1299.25 686.85C1314.05 685.75 1330.5 684.8 1342.1 694.1C1351.55 701.65 1355.3 714.2 1358.15 726C1366.55 760.7 1371.95 796.15 1374.25 831.8L1384.15 847.35C1321.6 853.65 1272.9 910.75 1259.5 972.2C1246.15 1033.6 1261.55 1097.75 1283.95 1156.5C1306.4 1215.2 1335.95 1271.4 1352.6 1332C1367.45 1386.3 1372 1444.1 1397.25 1494.4C1405.8 1511.55 1416.95 1527.8 1432.45 1539.05C1474.9 1569.9 1533.85 1554.75 1583.7 1538.35C1558.55 1548.05 1530.7 1560.3 1521.05 1585.5C1509.9 1614.7 1530.7 1648.65 1559.2 1661.6C1587.65 1674.5 1620.75 1671.3 1651.3 1664.6C1695.1 1655.05 1738.85 1637.3 1774.75 1610.75Z" fill="#371A45"/>
</g>
<g opacity="0.25">
<path d="M1598.45 932.45C1592.15 968.6 1584.45 1003.4 1575.45 1036.35C1565.55 1018.25 1555.65 1000.2 1545.8 982.1C1536.35 964.799 1526.55 947.1 1511.4 934.5L1502.9 923.899C1530.75 938.449 1564.55 947.699 1593.3 934.999C1595.05 934.2 1596.8 933.35 1598.45 932.45Z" fill="#371A45"/>
</g>
<path d="M1653.28 820.884L1317.44 852.704C1277.7 856.485 1242.51 821.409 1239.29 774.724L1224.87 565.084C1222.05 524.213 1244.64 487.522 1277.01 476.497C1281.59 474.898 1286.39 473.888 1291.34 473.407L1627.13 441.589C1666.92 437.806 1702.11 472.882 1705.28 519.569L1716.74 685.607L1719.76 729.207C1722.98 775.892 1693.03 817.103 1653.28 820.884Z" fill="white"/>
<g opacity="0.25">
<path d="M1653.28 820.884L1317.45 852.704C1277.7 856.485 1242.52 821.409 1239.3 774.724L1224.87 565.084C1222.06 524.213 1244.64 487.522 1277.02 476.497C1297.11 489.546 1309.87 497.904 1309.87 497.904C1337.81 664.632 1384.44 744.674 1562.81 731.207C1639.81 725.371 1687.4 707.015 1716.74 685.607L1719.76 729.207C1722.99 775.892 1693.03 817.103 1653.28 820.884Z" fill="#371A45"/>
</g>
<path d="M1311.67 867.999C1292.96 867.999 1274.67 861.124 1259.51 848.255C1239.15 830.972 1226.33 804.554 1224.35 775.777L1209.91 566.109C1206.14 511.292 1242.03 463.004 1289.93 458.463L1625.74 426.637C1646.89 424.655 1668.01 431.517 1685.12 446.036C1705.48 463.319 1718.29 489.737 1720.28 518.514L1734.72 728.184C1738.49 782.998 1702.6 831.287 1654.7 835.828L1318.89 867.657C1316.48 867.885 1314.07 867.999 1311.67 867.999ZM1632.9 456.3C1631.46 456.3 1630.02 456.368 1628.57 456.505L1292.76 488.331C1260.91 491.349 1237.17 525.316 1239.84 564.049L1254.28 773.717C1255.7 794.471 1264.69 813.304 1278.92 825.384C1289.81 834.62 1302.95 839.031 1316.06 837.789L1651.87 805.96C1683.72 802.942 1707.46 768.975 1704.79 730.245L1690.34 520.575C1688.92 499.821 1679.93 480.99 1665.7 468.91C1656.02 460.695 1644.52 456.3 1632.9 456.3Z" fill="#371A45"/>
<path d="M1666.66 818.056C1662.38 819.529 1657.94 820.471 1653.28 820.884L1317.45 852.704C1288.32 855.449 1261.65 837.394 1248.22 809.086C1243.33 798.809 1240.18 787.18 1239.35 774.722L1232.9 681.59L1230.78 650.862L1224.87 565.084C1221.65 518.4 1251.6 477.188 1291.35 473.407L1363.92 466.552C1330.98 477.117 1307.89 514.116 1310.71 555.404L1318.48 668.648L1325.14 765.103C1328.36 811.729 1363.54 846.864 1403.29 843.083L1666.66 818.056Z" fill="white"/>
<g opacity="0.25">
<path d="M1666.66 818.056C1662.38 819.529 1657.94 820.471 1653.28 820.884L1317.45 852.704C1277.7 856.485 1242.52 821.409 1239.35 774.723L1230.78 650.862C1240.73 671.947 1257.76 697.373 1282.23 697.893C1295.66 698.213 1308 685.725 1318.48 668.647L1325.14 765.102C1328.36 811.728 1363.54 846.863 1403.29 843.082L1666.66 818.056Z" fill="#371A45"/>
</g>
<path d="M1311.62 865.497C1293.53 865.497 1275.84 858.834 1261.14 846.364C1241.28 829.506 1228.78 803.715 1226.86 775.602L1212.42 565.939C1208.71 512.492 1243.59 465.385 1290.17 460.939L1362.72 454.081C1369.1 453.466 1374.85 457.763 1376.14 464.008C1377.42 470.258 1373.8 476.471 1367.72 478.425C1339.5 487.502 1320.77 519.526 1323.19 554.568L1337.63 764.234C1339.09 785.665 1348.39 805.132 1363.15 817.652C1374.55 827.325 1388.36 831.939 1402.09 830.626L1665.49 805.636C1671.85 805.04 1677.59 809.274 1678.9 815.49C1680.22 821.703 1676.67 827.919 1670.64 829.933C1665.34 831.708 1659.87 832.85 1654.38 833.334L1318.63 865.165C1316.29 865.387 1313.95 865.497 1311.62 865.497ZM1319.93 483.236L1292.53 485.826C1259.34 488.995 1234.58 524.161 1237.36 564.215L1251.8 773.883C1251.8 773.885 1251.8 773.888 1251.8 773.89C1253.26 795.316 1262.56 814.784 1277.31 827.303C1288.71 836.973 1302.5 841.58 1316.26 840.274L1347.67 837.298C1347.43 837.103 1347.2 836.907 1346.97 836.71C1327.1 819.85 1314.6 794.056 1312.69 765.943L1298.25 556.285C1296.35 528.829 1304.7 502.638 1319.93 483.236Z" fill="#371A45"/>
<path d="M1450.46 649.408C1450.96 657.164 1445.66 720.594 1445.66 720.594C1445.66 720.594 1428.76 722.082 1407.99 723.909C1382.05 726.191 1359.01 696.537 1356.53 657.674C1354.04 618.811 1373.05 585.456 1398.99 583.174C1416.5 581.633 1436.66 579.859 1436.66 579.859C1436.66 579.859 1449.65 636.772 1450.46 649.408Z" fill="#22A7F0"/>
<g opacity="0.25">
<path d="M1450.46 649.408C1450.96 657.164 1445.66 720.594 1445.66 720.594C1445.66 720.594 1428.76 722.082 1407.99 723.909C1382.05 726.191 1359.01 696.537 1356.53 657.674C1354.04 618.811 1373.05 585.456 1398.99 583.174C1416.5 581.633 1436.66 579.859 1436.66 579.859C1436.66 579.859 1449.65 636.772 1450.46 649.408Z" fill="#371A45"/>
</g>
<path d="M1405.14 735.846C1393.93 735.846 1383.05 731.564 1373.47 723.334C1357.19 709.35 1346.44 685.084 1344.74 658.429C1341.81 612.516 1365.18 574.291 1397.96 571.405L1424.26 569.091C1436.87 567.978 1448.15 576.899 1451.1 590.299C1458.03 621.705 1461.78 641.337 1462.25 648.649C1462.25 648.654 1462.25 648.656 1462.25 648.661C1462.36 650.416 1462.7 655.758 1458.53 708.056C1457.45 721.638 1447.63 732.282 1435.19 733.373L1409.03 735.675C1407.73 735.787 1406.43 735.846 1405.14 735.846ZM1426.31 592.623L1400.03 594.94C1380.8 596.632 1366.27 625.016 1368.31 656.92C1369.62 677.359 1377.3 695.487 1388.86 705.411C1392.87 708.856 1399.28 712.828 1406.96 712.142L1433.12 709.837C1433.5 709.805 1434.79 708.599 1434.99 706.172C1438.78 658.491 1438.72 651.148 1438.68 650.149C1438.3 644.356 1434.32 623.889 1428.04 595.386C1427.61 593.468 1426.57 592.675 1426.31 592.623Z" fill="#371A45"/>
<path d="M1444.17 720.777C1470.17 719.619 1489.85 687.136 1488.11 648.223C1486.38 609.31 1463.9 578.704 1437.9 579.862C1411.9 581.021 1392.23 613.504 1393.96 652.417C1395.69 691.33 1418.17 721.935 1444.17 720.777Z" fill="#22A7F0"/>
<g opacity="0.7">
<path d="M1488.05 660.644C1481.54 629.082 1461.14 606.778 1438.53 608.781C1415.82 610.784 1398.47 636.499 1396.11 668.927C1395.15 664.271 1394.5 659.399 1394.18 654.364C1391.73 615.494 1410.74 582.145 1436.68 579.872C1462.62 577.598 1485.65 607.211 1488.14 646.081C1488.46 651.062 1488.42 655.934 1488.05 660.644Z" fill="white"/>
</g>
<g opacity="0.25">
<path d="M1445.68 720.573C1419.75 722.901 1396.67 693.234 1394.18 654.364C1393.62 645.431 1394.18 636.824 1395.7 628.757C1404.15 654.58 1422.47 671.796 1442.45 670.009C1462.44 668.222 1478.31 648.084 1483.39 621.123C1485.93 628.757 1487.59 637.202 1488.14 646.08C1490.63 684.952 1471.62 718.3 1445.68 720.573Z" fill="#371A45"/>
</g>
<path d="M1442.81 732.533C1431.6 732.533 1420.73 728.251 1411.14 720.021C1394.86 706.037 1384.12 681.771 1382.41 655.114C1379.48 609.201 1402.85 570.976 1435.63 568.093C1448.23 566.972 1460.5 571.26 1471.19 580.437C1487.48 594.424 1498.22 618.687 1499.92 645.339V645.341C1502.85 691.254 1479.47 729.477 1446.7 732.36C1445.4 732.474 1444.1 732.533 1442.81 732.533ZM1439.43 591.547C1438.86 591.547 1438.29 591.571 1437.7 591.625C1418.47 593.317 1403.95 621.701 1405.99 653.605C1407.3 674.044 1414.98 692.174 1426.53 702.099C1430.54 705.541 1436.92 709.501 1444.63 708.83C1463.86 707.136 1478.38 678.752 1476.35 646.845C1475.04 626.41 1467.36 608.285 1455.8 598.356C1452.09 595.175 1446.35 591.547 1439.43 591.547Z" fill="#371A45"/>
<path d="M1554.22 841.073C1547.96 841.073 1542.74 836.156 1542.44 829.835L1536.18 701.097C1535.49 686.925 1541.01 673.26 1550.95 664.547L1582.09 637.24C1586.7 633.195 1589.28 626.271 1588.81 619.166L1577.44 446.595C1577.01 440.086 1581.94 434.461 1588.45 434.032C1595.02 433.58 1600.59 438.536 1601.02 445.043L1612.39 617.616C1613.34 632.116 1607.83 646.093 1597.66 655.006L1566.52 682.308C1562.02 686.253 1559.43 693.016 1559.77 699.952L1566.03 828.687C1566.35 835.203 1561.32 840.743 1554.81 841.058C1554.61 841.068 1554.42 841.073 1554.22 841.073Z" fill="#371A45"/>
<path d="M908.113 571.535C908.113 571.535 875.273 601.659 875.002 646.535C874.688 698.419 905.113 718.487 905.113 718.487C905.113 718.487 1037.74 786.986 1246.07 732.056C1246.07 732.056 1305.49 645.401 1235.47 599.787C1235.48 599.788 1015.1 639.823 908.113 571.535Z" fill="white"/>
<g opacity="0.25">
<path d="M875.016 646.568C874.702 698.392 905.108 718.457 905.108 718.457C905.108 718.457 1037.71 786.984 1246.09 732.036C1246.09 732.036 1265.62 703.465 1269.05 670.589C1268.11 672.237 1267.49 673.099 1267.49 673.099C1115.21 713.279 1003.38 687.465 954.247 670.672C920.115 659.007 896.631 626.409 896.416 589.177C896.413 588.665 896.413 588.15 896.416 587.632C896.411 586.767 896.406 585.902 896.533 585.068C887.066 598.091 875.16 619.681 875.016 646.568Z" fill="#371A45"/>
</g>
<path d="M1086.49 768.536C971.163 768.536 902.222 733.878 898.228 731.815C897.754 731.571 897.296 731.302 896.856 731.009C895.332 730.006 859.644 705.78 860.001 646.446C860.309 595.611 896.432 561.89 897.97 560.482C902.985 555.887 910.455 555.233 916.183 558.89C1017.05 623.265 1230.65 585.418 1232.79 585.03C1236.57 584.346 1240.45 585.13 1243.66 587.22C1265.12 601.199 1278.31 619.908 1282.86 642.823C1292.32 690.421 1259.83 738.514 1258.44 740.54C1256.41 743.506 1253.37 745.643 1249.89 746.561C1188.53 762.74 1133.63 768.536 1086.49 768.536ZM912.896 705.597C924.605 711.166 1048.87 766.732 1236.5 719.039C1243.18 707.64 1259.06 676.688 1253.42 648.563C1250.77 635.36 1243.72 624.535 1231.92 615.611C1195.46 621.566 1015.05 647.181 911.09 590.687C902.76 601.275 890.152 621.434 890.001 646.627C889.766 685.529 909.029 702.57 912.896 705.597Z" fill="#371A45"/>
</svg>
