<svg width="1034" height="575" viewBox="0 0 1034 575" fill="none" xmlns="http://www.w3.org/2000/svg">
<path d="M999.35 276.85C987.5 288.1 977.05 300.75 966.9 313.55C912.35 382.2 861.55 457.851 787.5 477.5C621.25 507 436.25 533.4 237.5 557.5L125.15 360.9L17.5 172.5C278.7 185.25 534 169.6 783.5 126.7C799.25 124 814.1 117.35 826.65 107.45L932.3 24.45C939.6 18.7 948.8 16.5001 957.5 18.0001C958.25 18.1001 958.95 18.25 959.7 18.45C964.45 19.55 969 21.85 972.9 25.251C981.2 32.551 987.55 42.4511 992 54.5001C1004.1 87.0501 1002.4 135.4 987.75 191.451C987.7 191.801 987.6 192.15 987.5 192.501C1001.1 201.051 1010.3 213.801 1013.85 227.551C1018.25 244.4 1014.2 262.75 999.35 276.85Z" fill="white"/>
<path d="M237.496 574.999C231.275 574.999 225.445 571.676 222.306 566.181L2.30593 181.181C-0.863074 175.634 -0.755997 168.796 2.584 163.349C5.929 157.9 12.052 154.733 18.355 155.021C275.308 167.568 531.734 152.235 780.547 109.464C793.291 107.274 805.493 101.82 815.84 93.6901L921.47 10.6991C940.249 -4.0669 966.739 -3.46389 984.439 12.1151C1018.27 41.8901 1026.43 104.713 1007.29 185.516C1021.62 198.177 1030.88 215.474 1032.7 233.712C1034.79 254.686 1027.23 274.515 1011.41 289.547C1000.91 299.518 991.5 310.704 980.592 324.432C974.049 332.674 967.555 341.021 961.066 349.356C912.76 411.439 862.809 475.635 791.989 494.415C791.515 494.54 791.042 494.644 790.558 494.73C630.885 523.065 450.67 549.281 239.606 574.872C238.902 574.958 238.194 574.999 237.496 574.999ZM48.4529 191.391L246.93 538.725C452.072 513.693 627.76 488.056 783.702 460.4C842.774 444.394 886.822 387.785 933.443 327.864C940.001 319.436 946.568 311.001 953.189 302.666C965.01 287.783 975.333 275.542 987.305 264.172C997.315 254.66 998.575 244.245 997.871 237.182C996.709 225.497 989.35 214.333 978.188 207.316C971.713 203.244 968.627 195.441 970.576 188.046C989.223 117.177 985.674 59.8311 961.313 38.3901C956.284 33.9591 948.618 33.8782 943.095 38.2172L837.46 121.213C822.558 132.922 804.926 140.788 786.474 143.957C545.416 185.4 297.31 201.33 48.4529 191.391Z" fill="#371A45"/>
<path d="M1001.27 196.06L911.394 257.102C905.522 261.155 898.631 252.992 903.606 247.899L978.659 169.345C997.244 151.585 1021.89 180.621 1001.27 196.06Z" fill="#371A45"/>
<g opacity="0.25">
<path d="M999.351 276.85C987.501 288.1 977.05 300.75 966.9 313.55C912.35 382.2 861.55 457.851 787.5 477.5C621.25 507 436.25 533.4 237.5 557.5L125.15 360.9C138.6 338.75 155.8 319.051 176.5 303.3L193.551 304.65C243.901 338.1 302.001 357.5 359.351 376.551C385.951 385.4 412.901 394.351 440.851 396.801C463.501 398.851 486.301 396.601 508.851 393.951C643.351 378.3 776.25 348.851 904.75 306.251C932.1 297.201 959.95 287.151 981.7 268.301C994.9 256.851 1005.15 242.752 1013.85 227.551C1018.25 244.4 1014.2 262.75 999.351 276.85Z" fill="#371A45"/>
</g>
<g opacity="0.25">
<path d="M910.115 250.454C938.654 219.322 960.325 181.409 969.612 140.209C978.898 99.0091 975.334 54.5191 956.792 16.5731C995.437 40.5811 1012 90.1951 1008.64 135.565C1007.85 146.22 1006.11 156.888 1002.29 166.864C990.442 197.758 960.855 217.601 932.974 235.417L910.115 250.454Z" fill="#371A45"/>
</g>
</svg>
