<svg width="1008" height="630" viewBox="0 0 1008 630" fill="none" xmlns="http://www.w3.org/2000/svg">
<path d="M1002.5 412.5C806.699 566.75 567.199 617.4 310.299 607.95C223.149 604.75 142.049 561.65 92.4988 489.9C74.5988 463.95 59.6488 435.8 48.1488 407.25C45.2988 400.15 42.6488 393.05 40.1988 385.95C39.4488 383.75 38.6988 381.551 37.9988 379.4C26.8488 344.95 20.7988 310.65 20.4488 279.25C19.6988 206.7 97.0488 161.1 159.549 197.9C186.749 213.9 211.799 238.95 237.499 262.5C509.249 282.9 713.399 194.5 862.499 17.5L970.899 323.4L1002.5 412.5Z" fill="white"/>
<path d="M875.807 28.712C715.891 222.813 482.533 300.259 236.197 279.85C232.141 279.564 228.511 277.893 225.739 275.326C198.809 251.786 175.501 227.632 146.352 212.279C115.774 195.526 74.5962 205.878 54.7332 234.351C38.0342 256.136 39.9122 284.666 43.4302 310.482C49.4782 354.833 64.6352 397.871 85.6142 437.474C134.591 535.473 226.006 590.061 335.573 587.467C356.361 588.224 384.804 587.888 405.599 587.721C537.295 585.06 669.163 563.105 792.169 515.586C864.872 487.718 933.564 451.517 998.929 407.968C1001.59 406.196 1005.18 406.915 1006.95 409.575C1008.55 411.974 1008.12 415.135 1006.07 417.032C935.772 482.253 850.417 531.569 760.553 565.401C640.071 609.929 510.64 628.034 382.648 629.694C370.689 629.986 346.631 629.895 334.677 629.507C185.817 632.287 79.7632 548.521 27.5022 412.144C15.3672 381.159 6.65415 348.906 2.47915 315.748C-2.78885 279.758 -0.934855 240.222 22.6591 210.577C58.1841 162.621 126.529 151.775 175.387 185.707C203.302 204.018 225.641 227.532 249.257 249.671L238.8 245.146C295.983 249.207 353.404 248.8 410.043 242.232C523.093 229.577 632.999 189.91 724.977 122.661C770.946 89.366 812.458 49.9019 849.191 6.28793C863.969 -10.5991 890.33 10.263 875.807 28.712Z" fill="#371A45"/>
<path d="M347.5 402.5C343.875 297.366 319.985 238.167 289.416 222.185C272.837 213.518 252.619 224.965 250.345 243.534C246.662 273.601 240.3 301.117 227.5 322.499C206.326 336.796 177.5 362.499 172.5 402.499L347.5 402.5Z" fill="white"/>
<path d="M166.979 401.81C167.101 365.06 190.037 330.975 217.761 308.078L212.568 313.562C218.115 303.418 222.365 291.898 225.446 279.656C230.877 262.519 229.591 241.506 237.549 225.226C248.363 204.766 275.876 195.072 296.755 206.262C322.676 220.273 335.903 249.282 343.947 275.209C356.274 316.436 358.57 360.106 353.713 402.285C353.293 405.735 350.156 408.193 346.706 407.773C343.928 407.435 341.779 405.327 341.286 402.713C335.932 375.56 331.337 348.806 325.08 322.923C317.623 294.39 309.256 260.71 286.585 241.172C283.749 238.999 281.224 237.21 277.968 237.005C273.416 236.773 268.701 241.115 268.315 245.817C266.601 260.035 264.284 274.439 260.29 288.85C256.278 303.461 250.772 318.433 241.982 332.149C240.739 334.117 239.061 335.746 237.226 336.927C223.613 343.802 210.861 352.377 200.412 363.359C189.948 374.286 182.011 387.796 178.019 403.188C176.513 409.555 166.872 408.423 166.979 401.81Z" fill="#371A45"/>
<path d="M658.403 594.294C658.374 594.294 658.339 594.294 658.305 594.294C648.696 594.238 640.947 586.403 641 576.794C641.566 476.682 603.29 304.145 519.345 251.76C511.191 246.672 508.71 235.937 513.798 227.785C518.881 219.623 529.623 217.153 537.772 222.233C634.017 282.296 676.429 465.841 675.804 576.989C675.752 586.567 667.968 594.294 658.403 594.294Z" fill="#371A45"/>
<g opacity="0.25">
<path d="M50.05 374.15C49.1 382.3 48.5 390.4 48.25 398.55C45.55 394.35 42.85 390.15 40.2 385.95C38.95 384.001 37.75 382 36.5 380.05L38 379.4L50.05 374.15Z" fill="#371A45"/>
</g>
<g opacity="0.25">
<path d="M1002.5 412.5C806.698 566.75 567.198 617.4 310.298 607.95C223.148 604.75 142.048 561.65 92.4984 489.9C74.5984 463.95 59.6484 435.8 48.1484 407.25C48.1484 404.35 48.1984 401.45 48.2484 398.55C67.3484 428.05 88.2484 456.65 116.648 476.95C136.898 491.45 160.298 501.1 184.148 508.249C301.048 543.299 426.598 519.149 545.598 492.199C675.298 462.85 807.348 429.1 917.398 354.449C933.948 343.248 952.198 330.798 970.898 323.398L1002.5 412.5Z" fill="#371A45"/>
</g>
</svg>
