<svg width="1578" height="1471" viewBox="0 0 1578 1471" fill="none" xmlns="http://www.w3.org/2000/svg">
<path d="M849.378 1454.75C624.285 1454.75 409.94 1349.55 275.145 1168.4C163.138 1017.93 117.049 833.377 145.379 648.719C173.934 462.586 274.476 298.702 428.485 187.252C488.592 143.819 554.276 110.199 623.71 87.3229C631.327 84.7329 639.218 82.2769 647.826 79.8209C669.34 73.5169 691.327 68.1829 713.153 63.9709C763.363 54.2959 814.911 50.0159 866.278 51.2019C917.186 52.3369 968.109 58.8949 1017.63 70.6919C1033.52 74.4659 1049.3 78.7779 1064.5 83.5069C1088.19 90.8869 1111.27 99.3739 1133.11 108.729C1248.54 157.787 1349.06 236.817 1423.81 337.276C1553.09 510.933 1594.03 729.957 1536.13 938.184C1504.02 1053.62 1442.11 1159.56 1357.09 1244.55C1339.1 1262.52 1320.05 1279.63 1300.47 1295.41C1291.51 1302.68 1281.69 1310.21 1270.48 1318.42C1239.85 1340.57 1207.37 1360.37 1173.93 1377.28C1145.94 1391.53 1116.44 1404.1 1086.27 1414.65C1050.95 1427.02 1014.13 1436.71 976.834 1443.43C963.47 1445.79 949.856 1447.83 936.355 1449.5C907.288 1453.02 878.235 1454.75 849.378 1454.75ZM849.392 54.5079C803.835 54.5079 758.313 58.8369 713.816 67.4079C692.097 71.6019 670.217 76.9099 648.797 83.1839C640.237 85.6279 632.396 88.0669 624.818 90.6419C555.712 113.411 490.35 146.868 430.536 190.088C277.294 300.984 177.25 464.05 148.842 649.251C120.654 832.974 166.508 1016.6 277.958 1166.31C412.074 1346.55 625.399 1451.24 849.374 1451.25C878.109 1451.25 906.991 1449.53 935.932 1446.02C949.365 1444.37 962.924 1442.33 976.215 1439.98C1013.33 1433.29 1049.97 1423.66 1085.11 1411.35C1115.13 1400.85 1144.49 1388.33 1172.35 1374.16C1205.63 1357.33 1237.95 1337.62 1268.42 1315.59C1279.58 1307.42 1289.35 1299.93 1298.27 1292.69C1317.76 1276.98 1336.71 1259.95 1354.62 1242.07C1439.21 1157.51 1500.81 1052.1 1532.75 937.246C1590.36 730.068 1549.63 512.148 1420.99 339.365C1346.62 239.407 1246.6 160.766 1131.74 111.948C1110 102.639 1087.03 94.1939 1063.46 86.8499C1048.33 82.1459 1032.64 77.8559 1016.82 74.0989C967.538 62.3579 916.864 55.8319 866.2 54.7019C860.598 54.5739 854.998 54.5079 849.392 54.5079Z" fill="#371A45"/>
<g opacity="0.25">
<path d="M276.549 1167.34C433.941 1378.91 689.337 1477.68 936.151 1447.74C949.636 1446.1 963.087 1444.08 976.504 1441.7C1013.34 1435.08 1049.85 1425.53 1085.68 1413.01C1115.34 1402.61 1144.62 1390.24 1173.13 1375.74C1206.29 1358.98 1238.46 1339.44 1269.46 1317.02C1279.66 1309.5 1289.69 1301.9 1299.38 1294.08C1319.3 1278 1338.07 1261.02 1355.85 1243.3C1442.9 1156.28 1503.06 1050.63 1534.45 937.695C1551.71 875.677 1560.29 811.475 1559.89 747.094C1527.44 854.169 1468.87 954.131 1385.82 1037.16C1368.08 1054.93 1349.28 1071.86 1329.36 1087.93C1319.71 1095.77 1309.68 1103.36 1299.43 1110.88C1268.43 1133.29 1236.26 1152.84 1203.15 1169.6C1174.59 1184.09 1145.36 1196.47 1115.7 1206.88C1079.87 1219.4 1043.32 1228.93 1006.52 1235.56C993.061 1237.94 979.61 1239.95 966.124 1241.6C719.31 1271.54 463.959 1172.77 306.522 961.194C214.646 837.793 169.97 694.527 169.11 552.308C107.428 755.414 139.63 983.442 276.549 1167.34Z" fill="#371A45"/>
</g>
<path d="M849.392 1466.49C620.613 1466.49 402.742 1359.54 265.73 1175.41C151.829 1022.41 104.968 834.725 133.777 646.939C162.81 457.679 265.027 291.048 421.599 177.742C482.693 133.599 549.456 99.4269 620.037 76.1719C627.732 73.5549 635.809 71.0429 644.603 68.5329C666.395 62.1489 688.739 56.7259 710.926 52.4439C761.961 42.6099 814.285 38.2639 866.556 39.4659C918.275 40.6209 970.028 47.2859 1020.35 59.2729C1036.5 63.1079 1052.53 67.4909 1067.99 72.2979C1092.06 79.7999 1115.52 88.4259 1137.73 97.9379C1255.05 147.799 1357.24 228.143 1433.22 330.269C1564.69 506.856 1606.32 729.581 1547.43 941.329C1514.79 1058.71 1451.84 1166.43 1365.39 1252.85C1347.1 1271.11 1327.74 1288.51 1307.84 1304.55C1298.75 1311.92 1288.78 1319.56 1277.41 1327.89C1246.23 1350.44 1213.22 1370.57 1179.23 1387.76C1150.79 1402.22 1120.81 1415.01 1090.14 1425.73C1054.25 1438.31 1016.82 1448.15 978.914 1454.98C965.315 1457.39 951.492 1459.46 937.791 1461.15C908.245 1464.73 878.728 1466.49 849.392 1466.49ZM849.397 66.2459C804.578 66.2459 759.802 70.5009 716.038 78.9339C694.681 83.0579 673.167 88.2769 652.098 94.4489C643.646 96.8629 635.99 99.2439 628.597 101.756C560.531 124.183 496.248 157.091 437.41 199.603C286.736 308.639 188.372 468.961 160.442 651.031C132.737 831.624 177.815 1012.13 287.371 1159.3C436.194 1359.3 684.182 1464.69 934.519 1434.37C947.727 1432.74 961.077 1430.74 974.172 1428.42C1010.64 1421.85 1046.67 1412.38 1081.23 1400.27C1110.76 1389.94 1139.63 1377.63 1167.02 1363.7C1199.78 1347.14 1231.56 1327.75 1261.54 1306.07C1272.49 1298.06 1282.11 1290.68 1290.88 1283.57C1310.07 1268.1 1328.71 1251.35 1346.32 1233.77C1429.48 1150.64 1490.04 1047.01 1521.44 934.103C1578.08 730.446 1538.03 516.23 1411.58 346.376C1338.45 248.082 1240.09 170.756 1127.14 122.753C1105.75 113.588 1083.16 105.282 1059.97 98.0579C1045.1 93.4339 1029.67 89.2149 1014.11 85.5209C965.624 73.9679 915.775 67.5499 865.936 66.4389C860.427 66.3099 854.91 66.2459 849.397 66.2459Z" fill="#371A45"/>
<path d="M849.402 1470.4C619.387 1470.4 400.344 1362.88 262.59 1177.74C148.059 1023.9 100.94 835.175 129.909 646.347C159.103 456.044 261.877 288.498 419.308 174.574C480.729 130.192 547.848 95.8391 618.81 72.4571C626.535 69.8321 634.669 67.3011 643.527 64.7711C665.407 58.3601 687.878 52.9081 710.187 48.6041C761.486 38.7141 814.127 34.3291 866.642 35.5551C918.639 36.7151 970.66 43.4141 1021.26 55.4671C1037.48 59.3221 1053.6 63.729 1069.15 68.563C1093.35 76.105 1116.94 84.776 1139.27 94.342C1257.21 144.469 1359.96 225.25 1436.36 327.933C1568.56 505.496 1610.42 729.454 1551.2 942.379C1518.38 1060.41 1455.08 1168.73 1368.15 1255.62C1349.77 1273.98 1330.3 1291.47 1310.29 1307.6C1301.16 1315 1291.14 1322.68 1279.72 1331.05C1248.36 1353.73 1215.17 1373.97 1180.99 1391.25C1152.41 1405.79 1122.26 1418.64 1091.44 1429.43C1055.34 1442.07 1017.72 1451.96 979.606 1458.83C965.929 1461.25 952.038 1463.33 938.268 1465.03C908.567 1468.63 878.889 1470.4 849.402 1470.4ZM849.397 70.1581C804.822 70.1581 760.295 74.3911 716.775 82.7781C695.54 86.8771 674.148 92.0681 653.196 98.2051C644.783 100.607 637.185 102.971 629.856 105.461C562.136 127.773 498.21 160.498 439.7 202.776C289.886 311.191 192.078 470.598 164.309 651.626C136.765 831.177 181.584 1010.64 290.51 1156.96C438.493 1355.84 685.119 1460.67 934.045 1430.49C947.18 1428.87 960.461 1426.88 973.488 1424.57C1009.74 1418.04 1045.57 1408.62 1079.94 1396.58C1109.31 1386.31 1138.01 1374.07 1165.25 1360.21C1197.83 1343.74 1229.44 1324.46 1259.24 1302.91C1270.12 1294.94 1279.69 1287.6 1288.42 1280.53C1307.5 1265.15 1326.04 1248.49 1343.56 1231C1426.24 1148.35 1486.45 1045.32 1517.67 933.054C1573.98 730.574 1534.17 517.588 1408.44 348.713C1335.72 250.976 1237.92 174.086 1125.61 126.355C1104.32 117.236 1081.86 108.979 1058.8 101.794C1044.02 97.1971 1028.67 93.0021 1013.2 89.3281C964.981 77.8391 915.411 71.4571 865.85 70.3511C860.369 70.2211 854.881 70.1581 849.397 70.1581Z" fill="#371A45"/>
<path d="M132.001 711C190.288 218.446 750.5 -81 1162.66 125.001L1172.03 137.342C719.601 33.0158 293.837 405.529 225.5 902.5C181.928 813.704 119.777 814.417 132.001 711Z" fill="white"/>
<path d="M132.001 711C190.288 218.446 750.5 -81 1162.66 125.001L1172.03 137.342C719.601 33.0158 293.837 405.529 225.5 902.5C181.928 813.704 119.777 814.417 132.001 711Z" fill="white"/>
<path d="M940.563 1430.01C825.963 1430.01 714.132 1403.86 615.895 1352.33C459.621 1270.34 348.717 1133.02 295.177 955.195C246.007 791.853 270.162 614.065 363.195 454.58C466.525 277.446 643.293 145.683 836.056 102.119C943.175 77.9101 1044.04 74.9321 1135.83 93.2761C1136.99 93.5081 1138.13 93.8591 1139.22 94.3231C1257.21 144.469 1359.96 225.251 1436.36 327.934C1568.56 505.497 1610.42 729.455 1551.2 942.38C1518.38 1060.41 1455.08 1168.73 1368.15 1255.62C1349.77 1273.98 1330.3 1291.47 1310.29 1307.6C1301.16 1315 1291.14 1322.69 1279.72 1331.05C1248.36 1353.74 1215.17 1373.97 1180.99 1391.25C1180.19 1391.66 1179.35 1392 1178.48 1392.28C1100.26 1417.52 1019.75 1430.01 940.563 1430.01ZM1012.43 116.234C958.6 116.234 902.204 122.85 843.732 136.063C660.211 177.54 491.808 303.167 393.258 472.115C305.143 623.167 282.145 791.165 328.502 945.162C379.283 1113.83 484.254 1243.97 632.062 1321.51C789.577 1404.14 984.303 1417.98 1166.5 1359.58C1198.61 1343.26 1229.81 1324.2 1259.24 1302.91C1270.12 1294.94 1279.69 1287.6 1288.41 1280.53C1307.5 1265.15 1326.04 1248.49 1343.56 1231C1426.24 1148.35 1486.45 1045.32 1517.67 933.054C1573.98 730.574 1534.17 517.588 1408.44 348.713C1336.07 251.452 1238.88 174.838 1127.26 127.055C1090.52 119.84 1052.17 116.234 1012.43 116.234Z" fill="#371A45"/>
<path d="M69.6178 969.899C92.9978 1106.03 194.159 1206.46 295.598 1194.19C397.037 1181.92 460.31 1061.6 436.93 925.469C436.8 924.614 436.62 923.712 436.442 922.859C412.255 788.05 311.675 688.983 210.949 701.178C132.586 710.654 77.0038 784.616 66.5328 880.52C63.4668 908.757 64.3038 938.941 69.6178 969.899Z" fill="white"/>
<g opacity="0.25">
<path d="M69.6195 969.899C92.9995 1106.03 194.16 1206.46 295.599 1194.19C397.038 1181.92 460.311 1061.6 436.931 925.469C436.801 924.614 436.621 923.712 436.443 922.859C427.69 938.178 412.696 954.035 388.384 952.244C345.8 949.087 256.851 870.491 256.851 870.491C256.851 870.491 174.291 874.303 66.5355 880.52C63.4685 908.757 64.3055 938.941 69.6195 969.899Z" fill="#371A45"/>
</g>
<path d="M278.987 1212.58C175.178 1212.58 75.9299 1109.58 52.4489 972.85V972.848C38.0789 889.186 54.0069 808.759 96.1359 752.186C125.399 712.897 164.368 689.286 208.841 683.905C319.202 670.528 429.193 777.594 454.075 922.511C468.445 1006.17 452.517 1086.6 410.384 1143.17C381.126 1182.46 342.156 1206.07 297.689 1211.45C291.453 1212.21 285.208 1212.58 278.987 1212.58ZM86.7459 966.957C108.548 1093.88 201.258 1188.06 293.509 1176.9C328.284 1172.69 359.046 1153.84 382.474 1122.39C418.407 1074.14 432.352 1001.62 419.779 928.4C397.977 801.476 305.14 707.279 213.021 718.456C178.246 722.665 147.479 741.518 124.051 772.975C88.1179 821.217 74.1769 893.741 86.7459 966.957Z" fill="#371A45"/>
<path d="M250.34 1169.96C330.429 1148.14 371.95 1044.56 343.081 938.615C314.211 832.669 225.883 764.474 145.795 786.297C65.706 808.121 24.1846 911.699 53.0542 1017.65C81.9237 1123.59 170.252 1191.79 250.34 1169.96Z" fill="white"/>
<path d="M220.495 1175.88C211.432 1175.88 202.194 1174.85 192.839 1172.78C144.953 1162.16 101.169 1125.45 72.7173 1072.07C21.6773 976.293 36.2473 856.186 105.202 804.333C133.869 782.773 167.844 775.554 203.425 783.437C251.316 794.052 295.095 830.759 323.547 884.145C374.592 979.916 360.022 1100.02 291.067 1151.88C269.928 1167.77 245.915 1175.88 220.495 1175.88ZM75.9293 1070.36C103.878 1122.8 146.779 1158.84 193.624 1169.22C228.16 1176.87 261.085 1169.87 288.878 1148.97C356.461 1098.15 370.572 980.112 320.333 885.857C292.384 833.411 249.488 797.376 202.638 786.99C168.112 779.334 135.182 786.34 107.389 807.244C39.8063 858.063 25.6953 976.095 75.9293 1070.36Z" fill="#371A45"/>
<g opacity="0.25">
<path d="M352.47 1037.55C355.471 1000.02 348.038 961.55 332.968 926.787C318.814 1011.81 250.292 1057.03 173.564 1028.73C123.976 1010.46 82.3862 965.645 59.0952 911.84C58.1672 917.197 57.5182 922.775 57.0512 928.465C49.4552 1024.04 109.425 1125.95 191.015 1156.06C272.605 1186.18 344.867 1133.08 352.47 1037.55Z" fill="#371A45"/>
</g>
<path d="M221.012 1191.98C139.782 1191.98 60.4993 1105.54 40.5093 991.847C28.0383 920.914 40.9393 851.356 75.0163 805.782C97.0623 776.3 126.178 758.741 159.22 755.006C244.738 745.353 331.432 834.786 352.462 954.418C364.933 1025.35 352.032 1094.9 317.95 1140.48C295.904 1169.96 266.788 1187.52 233.746 1191.26C229.504 1191.74 225.256 1191.98 221.012 1191.98ZM74.7872 985.822C92.6922 1087.68 162.355 1164.27 229.836 1156.68C253.098 1154.05 273.928 1141.24 290.08 1119.64C318.518 1081.61 329.025 1022.1 318.185 960.444C300.28 858.593 230.802 781.892 163.127 789.59C139.87 792.219 119.04 805.027 102.893 826.626C74.4553 864.655 63.9472 924.166 74.7872 985.822Z" fill="#371A45"/>
<path d="M332 1211C411.5 1326.5 623.326 1471.92 862 1456.5C967 1456.5 1198.02 1415.62 1249 1315.5C1172.27 1380.75 919.5 1420 886 1401.5C638.809 1417.47 465.5 1273.5 394.999 1151C388.981 1173.18 305.001 1206.5 332 1211Z" fill="#F9FBFC"/>
</svg>
