<svg width="3053" height="3459" viewBox="0 0 3053 3459" fill="none" xmlns="http://www.w3.org/2000/svg">
<path d="M1933.71 2483.72C1933.71 2483.72 1961.24 2610.9 1841.1 2634.95C1723.44 2658.52 1639.96 2634.85 1600.55 2554.16C1599.68 2552.45 1598.86 2550.69 1598.05 2548.93C1598.05 2548.93 1694.48 2987.08 1665 3219.85C1665 3219.85 1697.51 3228.48 1722.31 3251.07C1739.95 3267.19 1753.71 3290.38 1749.14 3322.63C1738.13 3400.2 1614.65 3392.5 1484.06 3402.38C1353.4 3412.21 1219.26 3418.57 1205.8 3298.49C1192.35 3178.47 1169.85 2913.63 1050.18 2782.44C1050.18 2782.44 945.952 3060.64 916.7 3251.08C916.7 3251.08 969.292 3311.31 958.41 3364.23C947.528 3417.09 795.626 3448.05 615.703 3432.9C435.835 3417.82 393.494 3410.56 452.284 2987.36C452.284 2987.36 500.901 2486.53 508.388 2401.86C515.93 2317.2 495.355 2204.16 495.355 2204.16C495.355 2204.16 441.592 2359.17 416.391 2450.77C416.391 2450.77 503.839 2592.38 366.103 2612.82C366.103 2612.82 383.283 2694.11 199.655 2714.24C50.5222 2730.62 7.06517 2575.41 26.8132 2416.54C31.3502 2379.72 39.2911 2342.77 50.1321 2307.64C107.636 2120.86 285.361 1449.9 1057.47 1441.42C1339.43 1438.34 1609.96 1621.08 1746.09 1935.71C1831.37 2132.87 1885.82 2255.91 1924.03 2316.34C1927.67 2322.13 1931.16 2327.36 1934.54 2331.99C1973.06 2385.12 1972.77 2438.04 1933.71 2483.72Z" fill="white"/>
<path d="M703.93 3459C674.1 3459 643.639 3457.71 613.477 3455.21C536.583 3448.83 475.842 3443.79 439.903 3399.32C396.532 3345.65 394.13 3246.17 430.049 2990.11C431.743 2972.82 478.781 2492.95 486.112 2411.3C488.856 2380.71 487.65 2345.83 485.101 2314.39C469.753 2360.39 451.862 2415.64 439.571 2458.71C451.891 2481.24 479.29 2540.6 456.711 2588.65C444.66 2614.3 421.196 2631.53 386.855 2640C385.081 2649.64 380.926 2661.5 371.883 2673.87C344.684 2711.07 287.405 2734.65 201.64 2743.98C141.08 2750.56 90.477 2731.8 55.3191 2689.72C-16.9797 2603.19 -10.1383 2438.44 28.7067 2313.57C30.5578 2307.62 32.5299 2301.18 34.645 2294.28C98.6814 2085.3 265.949 1520.82 1029.25 1512.5C1174.18 1510.81 1344.16 1484.64 1468.77 1571.68C1595.59 1660.26 1698.34 1788.76 1765.9 1943.28C1853.74 2144.18 1914.15 2279.71 1951.96 2331.31C1994.45 2389.3 1995.94 2448.97 1956.55 2500.37C1959.17 2521.38 1961.27 2569.15 1934.84 2609.07C1915.45 2638.36 1885.25 2657.25 1845.08 2665.21C1755.48 2682.96 1685.8 2674.68 1636.79 2640.59C1662.51 2775.21 1705.31 3036.2 1688.43 3207.77C1728.18 3223.82 1779.89 3262.24 1770.54 3327.46C1758.75 3409.75 1655.4 3415.34 1545.98 3421.27C1526.22 3422.34 1505.79 3423.45 1485.33 3424.97C1364.85 3433.99 1199.85 3446.33 1183.61 3302.95C1182.84 3296.16 1182.04 3288.89 1181.19 3281.21C1168.43 3165.26 1145.51 2957.14 1057.17 2833.59C1028.91 2912.45 963.289 3104.25 939.504 3247.49C954.787 3267.37 989.95 3319.81 979.535 3369.94C966.767 3431.35 842.386 3459 703.93 3459ZM494.93 2195.85C495.491 2195.85 496.058 2195.87 496.629 2195.92C506.581 2196.68 514.76 2203.98 516.542 2213.69C517.406 2218.38 537.55 2329.43 529.854 2415.15C522.413 2498.05 474.206 2989.79 473.718 2994.75C473.689 2995.05 473.655 2995.34 473.611 2995.64C440.855 3229.05 441.011 3331.1 474.202 3372.17C497.221 3400.65 541.271 3405.61 617.15 3411.91C816.467 3428.44 931.004 3387.67 936.513 3361.18C943.588 3327.15 912.351 3282.26 899.719 3267.84C895.494 3263.02 893.605 3256.58 894.581 3250.28C923.86 3061.79 1024.95 2793.52 1029.25 2782.19C1031.93 2775.11 1038.14 2769.91 1045.65 2768.48C1053.14 2767.06 1060.88 2769.58 1066.04 2775.17C1183.71 2902.86 1210.47 3145.92 1224.85 3276.5C1225.69 3284.13 1226.48 3291.35 1227.25 3298.11C1237.93 3392.35 1344.2 3391.94 1482.01 3381.64C1502.93 3380.07 1523.59 3378.95 1543.58 3377.87C1653.55 3371.92 1720.78 3365.14 1727.06 3321.35C1735.23 3264.36 1659.79 3243.88 1659.03 3243.69C1648.4 3240.9 1641.49 3230.75 1642.87 3219.95C1671.56 2995.93 1577.23 2567.75 1576.27 2563.45C1573.86 2552.58 1580.13 2541.66 1590.8 2538.16C1601.48 2534.63 1613.1 2539.69 1617.73 2549.84C1650.44 2621.48 1721.98 2645.28 1836.46 2622.6C1864.55 2617.03 1885.24 2604.54 1897.96 2585.47C1922.18 2549.15 1911.98 2499.26 1911.88 2498.76C1910.48 2492.16 1912.24 2485.23 1916.67 2480.11C1949.01 2442.69 1948.93 2401.21 1916.4 2356.82C1875.86 2301.49 1817.27 2170.2 1725.6 1960.54C1596.94 1666.31 1344.03 1484.46 1064.39 1484.46C1062.03 1484.46 1059.7 1484.48 1057.34 1484.5C326.24 1492.47 138.399 2105.46 76.6723 2306.89C74.5382 2313.85 72.5461 2320.35 70.681 2326.35C28.8328 2460.87 36.4362 2598.91 89.168 2662.03C114.809 2692.72 151.012 2705.76 196.845 2700.78C290.36 2690.62 323.633 2664.55 335.143 2649.92C344.547 2637.97 344.264 2628.14 344.093 2626.17C342.506 2620.27 343.683 2614.64 347.048 2609.49C350.481 2604.24 356.199 2601.42 362.444 2600.5C391.103 2596.29 409.41 2586.17 416.856 2570.39C431.3 2539.79 407.603 2489.72 397.255 2473.01C394.081 2467.88 393.173 2461.66 394.784 2455.86C419.887 2365.55 473.655 2212 474.192 2210.46C477.278 2201.67 485.648 2195.85 494.93 2195.85Z" fill="#371A45"/>
<path d="M1657.41 3240.44C1656.99 3240.21 1655.81 3239.77 1654.88 3239.39C1653.95 3239 1652.83 3238.63 1651.78 3238.25C1649.69 3237.48 1647.5 3236.77 1645.27 3236.08C1640.9 3234.62 1636.27 3233.48 1631.72 3232.25C1622.49 3230.03 1613.1 3228.03 1603.55 3226.69C1584.49 3223.91 1565 3222.52 1545.45 3223.04C1540.54 3222.99 1535.68 3223.52 1530.77 3223.73C1525.87 3223.99 1520.95 3224.25 1516.09 3224.94L1501.4 3226.65C1496.53 3227.41 1491.69 3228.36 1486.81 3229.2C1476.99 3230.65 1467.47 3233.43 1457.77 3235.67C1448.13 3238.15 1438.73 3241.47 1429.13 3244.34L1428.46 3244.54C1424.3 3245.78 1419.92 3243.42 1418.68 3239.26C1417.52 3235.4 1419.48 3231.35 1423.09 3229.79C1432.6 3225.69 1442 3221.12 1451.73 3217.37C1461.53 3213.86 1471.23 3209.81 1481.35 3207.07C1486.38 3205.59 1491.39 3204 1496.46 3202.6L1511.83 3198.97C1516.94 3197.65 1522.14 3196.75 1527.35 3195.87C1532.56 3195.03 1537.75 3193.87 1543.01 3193.3C1564.01 3190.31 1585.37 3189.32 1606.84 3189.97C1617.58 3190.23 1628.34 3191.22 1639.14 3192.54C1644.56 3193.33 1649.95 3194.04 1655.41 3195.16C1658.13 3195.67 1660.87 3196.21 1663.66 3196.89C1665.05 3197.22 1666.4 3197.49 1667.88 3197.9C1669.37 3198.31 1670.62 3198.6 1672.6 3199.23L1674.82 3199.94C1686.46 3203.68 1692.87 3216.15 1689.14 3227.79C1685.41 3239.43 1672.94 3245.84 1661.29 3242.11C1659.96 3241.68 1658.6 3241.08 1657.41 3240.44Z" fill="#371A45"/>
<path d="M906.564 3270.55C904.564 3269.41 901.435 3267.81 898.683 3266.49C895.839 3265.11 892.924 3263.76 889.977 3262.46C884.076 3259.87 878.075 3257.37 871.959 3255.09C859.764 3250.47 847.257 3246.47 834.571 3243.1C809.197 3236.28 783.07 3232.16 756.758 3230.59C743.596 3229.92 730.401 3229.96 717.205 3230.62C704.036 3231.48 690.872 3232.9 677.825 3235.2C651.736 3239.78 626.153 3247.62 601.597 3258.2L601.48 3258.25C596.475 3260.41 590.669 3258.1 588.514 3253.09C586.458 3248.33 588.49 3242.81 593.014 3240.44C618.075 3227.37 644.743 3216.98 672.406 3210C686.239 3206.5 700.304 3203.92 714.474 3201.95C728.663 3200.19 742.955 3199.09 757.287 3198.77C785.932 3198.37 814.675 3200.76 842.914 3206.16C857.045 3208.83 871.056 3212.19 884.923 3216.31C891.866 3218.33 898.756 3220.61 905.643 3223.05C909.085 3224.28 912.52 3225.57 915.973 3226.94C919.528 3228.35 922.64 3229.63 926.786 3231.56C937.78 3236.71 942.526 3249.79 937.387 3260.78C932.245 3271.78 919.164 3276.52 908.171 3271.38C907.653 3271.14 907.15 3270.88 906.662 3270.6L906.564 3270.55Z" fill="#371A45"/>
<path d="M1355.39 3073.48C1255.33 3073.48 1172.63 3066 1165.51 3065.34C1153.44 3064.21 1144.56 3053.52 1145.68 3041.44C1146.81 3029.37 1157.44 3020.53 1169.58 3021.61C1173.16 3021.94 1528.67 3054.07 1655.79 2985.82C1666.47 2980.07 1679.78 2984.08 1685.52 2994.78C1691.25 3005.46 1687.24 3018.77 1676.56 3024.51C1603.04 3063.98 1468.18 3073.48 1355.39 3073.48Z" fill="#371A45"/>
<path d="M829.457 3061.39C660.145 3061.39 457.709 3022.3 446.522 3020.1C434.618 3017.78 426.859 3006.24 429.188 2994.34C431.512 2982.44 443.065 2974.69 454.95 2977.01C458.48 2977.7 809.384 3045.46 964.291 3004.15C976 3001.02 988.041 3007.99 991.166 3019.71C994.291 3031.43 987.323 3043.46 975.609 3046.58C935.4 3057.31 884.145 3061.39 829.457 3061.39Z" fill="#371A45"/>
<path d="M797.22 2699.82C846.727 2721.54 898.223 2737.22 950.767 2745.92C977.039 2750.21 1003.53 2752.95 1030.1 2753.68L1050.03 2754.04L1070.08 2753.41L1090.12 2752.79C1096.79 2752.52 1103.41 2751.73 1110.07 2751.23C1163.26 2746.98 1215.72 2736.12 1266.04 2718.76C1290.93 2709.43 1315.54 2699.12 1339 2686.48C1344.79 2683.21 1350.69 2680.09 1356.42 2676.69C1362 2673.12 1367.84 2669.82 1373.33 2666.11C1378.89 2662.45 1384.39 2658.72 1389.68 2654.76C1395.01 2650.98 1400.4 2646.68 1404.89 2642.82L1405.54 2642.27C1410.1 2638.35 1416.97 2638.88 1420.89 2643.44C1424.48 2647.62 1424.34 2653.74 1420.77 2657.75C1415.54 2663.64 1410.68 2668.57 1405.38 2673.53C1400.17 2678.49 1394.7 2683.07 1389.19 2687.63C1383.75 2692.28 1377.92 2696.34 1372.24 2700.68C1366.46 2704.85 1360.5 2708.73 1354.62 2712.78C1330.65 2728.18 1305.22 2741.19 1278.99 2752.34C1226.22 2773.88 1170.06 2786.64 1113.54 2791.62C1106.47 2792.19 1099.41 2793.22 1092.33 2793.4L1071.07 2793.87L1049.82 2794.32L1028.45 2793.72C999.997 2792.17 971.625 2788.58 943.798 2782.54C888.141 2770.66 834.455 2749.71 786.598 2719.87C781.266 2716.55 779.638 2709.53 782.963 2704.2C785.993 2699.34 792.091 2697.56 797.184 2699.8L797.22 2699.82Z" fill="#371A45"/>
<path d="M611.683 1828.97L516.493 2210.08C513.554 2221.85 501.63 2229.01 489.86 2226.07C478.09 2223.13 470.932 2211.2 473.871 2199.43C473.964 2199.06 474.086 2198.63 474.196 2198.27L590.173 1822.96C591.994 1817.07 598.249 1813.77 604.145 1815.59C609.83 1817.34 613.097 1823.26 611.683 1828.97Z" fill="#371A45"/>
<path d="M481.065 2268.02C473.98 2268.02 467.027 2264.6 462.794 2258.27C458.258 2251.56 353.981 2101.89 119.811 2131.66C107.785 2133.19 96.7836 2124.68 95.2546 2112.65C93.7216 2100.62 102.237 2089.62 114.264 2088.09C376.72 2054.69 494.435 2226.55 499.318 2233.88C506.042 2243.97 503.317 2257.6 493.224 2264.33C489.483 2266.83 485.249 2268.02 481.065 2268.02Z" fill="#371A45"/>
<g opacity="0.2">
<path d="M1933.75 2472.39C1933.75 2472.39 1961.28 2599.57 1841.14 2623.62C1723.48 2647.19 1640 2623.51 1600.59 2542.82C1575.97 2456.94 1540.4 2364.35 1489.88 2317.36C1489.88 2317.36 1512.89 2033.23 1499.54 1913.65C1499.54 1913.65 1602.45 1917.4 1643.21 2085.11C1683.91 2252.87 1658.39 2411.6 1745.23 2453.63C1832.01 2495.66 1886.01 2490.02 1910.37 2411.49C1918.64 2384.75 1922.53 2345.35 1924.07 2305.01C1927.72 2310.8 1931.2 2316.03 1934.58 2320.66C1973.1 2373.79 1972.81 2426.71 1933.75 2472.39Z" fill="#371A45"/>
</g>
<path d="M1446.24 2262.17C1440.43 2262.17 1434.64 2259.89 1430.33 2255.35C1421.97 2246.57 1422.31 2232.67 1431.1 2224.31C1437.54 2218.18 1591.38 2073.85 1802.86 2049.89C1814.9 2048.47 1825.78 2057.19 1827.15 2069.24C1828.52 2081.29 1819.85 2092.17 1807.8 2093.53C1610.82 2115.85 1462.84 2254.72 1461.37 2256.12C1457.12 2260.17 1451.68 2262.17 1446.24 2262.17Z" fill="#371A45"/>
<path d="M366.09 2634.8C357.345 2634.8 349.083 2629.54 345.67 2620.92C345.499 2620.49 328.39 2578.2 294.581 2549.2C285.377 2541.3 284.317 2527.44 292.213 2518.23C300.099 2509.03 313.966 2507.96 323.175 2515.87C365.47 2552.15 385.675 2602.66 386.515 2604.79C390.958 2616.08 385.411 2628.83 374.127 2633.26C371.49 2634.3 368.766 2634.8 366.09 2634.8Z" fill="#371A45"/>
<path d="M376.34 2536.65C373.874 2537.26 370.62 2537.58 367.766 2538.03C364.802 2538.51 361.912 2538.88 359.026 2539.4C353.279 2540.27 347.713 2541.38 342.317 2542.53C331.524 2544.87 321.575 2548.01 312.378 2552.02C307.634 2553.8 303.455 2556.45 298.94 2558.63C294.821 2561.43 290.278 2563.72 286.25 2567.02C281.787 2569.78 277.981 2573.54 273.481 2576.97C269.021 2580.47 265.192 2584.83 259.907 2588.59L257.805 2590.09C251.904 2594.29 243.718 2592.91 239.519 2587.01C237.373 2584 236.692 2580.35 237.314 2576.98C237.995 2573.36 239.011 2569.81 240.095 2566.24C241.247 2562.7 242.221 2559.03 244.121 2555.75C247.61 2549.06 251.34 2542.28 256.655 2536.52C261.391 2530.26 267.656 2525.4 273.821 2520.41C280.459 2516.17 287.239 2511.85 294.661 2509.21C309.263 2503.31 324.871 2500.89 339.822 2501.67C347.31 2502.19 354.663 2503.23 361.775 2505.23C365.327 2506.18 368.838 2507.32 372.256 2508.77C375.774 2510.2 378.87 2511.7 382.656 2513.89C388.379 2517.19 390.339 2524.51 387.036 2530.23C385.349 2533.15 382.617 2535.09 379.585 2535.85L376.34 2536.65Z" fill="#371A45"/>
<path d="M1953.89 2492.31C1952.6 2495.27 1951.69 2497.07 1950.56 2499.28C1949.5 2501.43 1948.34 2503.4 1947.21 2505.45C1944.89 2509.46 1942.49 2513.41 1939.82 2517.2C1934.54 2524.81 1928.7 2532.13 1921.89 2538.86C1915.32 2545.74 1907.45 2551.77 1899.15 2557.25C1894.73 2559.7 1890.38 2562.3 1885.66 2564.28L1878.44 2567.03C1877.23 2567.47 1876.04 2567.96 1874.81 2568.34L1871.02 2569.25C1865.95 2570.45 1860.91 2571.72 1855.71 2571.91L1847.96 2572.48C1845.39 2572.58 1842.86 2572.25 1840.31 2572.13L1832.68 2571.55C1830.18 2571.3 1828.02 2570.73 1825.68 2570.33C1821.07 2569.46 1816.47 2568.6 1811.97 2567.13C1793.91 2561.99 1776.51 2553.52 1761.6 2540.97C1746.72 2528.65 1733.94 2511.63 1728.8 2490.1C1728.06 2487.49 1727.95 2484.59 1727.56 2481.84C1727.21 2479.06 1726.94 2476.28 1727.21 2473.4C1727.37 2470.55 1727.49 2467.69 1727.82 2464.87C1728.43 2462.07 1729.09 2459.27 1729.8 2456.5C1730.37 2453.66 1731.63 2451.13 1732.75 2448.54C1733.98 2446.03 1734.93 2443.26 1736.5 2441.04C1739.56 2436.5 1742.46 2431.88 1746.35 2427.94C1753.95 2419.92 1764.31 2413.37 1775.27 2410.5C1786.23 2407.53 1797.07 2407.72 1806.81 2409.48C1816.56 2411.28 1825.47 2414.5 1833.64 2418.56C1837.75 2420.55 1841.65 2422.84 1845.42 2425.28C1849.29 2427.78 1852.66 2430.14 1856.61 2433.45C1862.18 2438.13 1862.91 2446.44 1858.23 2452.01C1854.48 2456.48 1848.38 2457.83 1843.24 2455.77L1841.79 2455.18C1839 2454.05 1835.33 2452.43 1832.03 2451.21C1828.62 2449.95 1825.18 2448.85 1821.8 2447.81C1815.02 2445.77 1808.3 2444.46 1802.06 2443.93C1795.82 2443.57 1790.15 2444.02 1785.58 2445.66C1780.97 2447.22 1777.27 2449.74 1773.89 2453.54C1766.77 2461.95 1764.66 2471.24 1767.16 2481.09C1770 2491.01 1777.35 2501.36 1787.69 2509.07C1797.89 2516.87 1810.15 2522.8 1823.21 2526.17C1826.42 2527.2 1829.78 2527.71 1833.13 2528.26C1834.77 2528.5 1836.54 2528.96 1838.06 2529.04L1842.53 2529.22C1844 2529.24 1845.51 2529.51 1846.96 2529.39L1851.29 2528.91C1854.21 2528.88 1856.97 2527.94 1859.76 2527.27L1861.86 2526.78C1862.55 2526.54 1863.22 2526.21 1863.89 2525.94L1867.96 2524.3C1870.65 2523.11 1873.23 2521.45 1875.9 2520.07C1880.99 2516.55 1886.1 2512.8 1890.65 2507.92C1895.34 2503.3 1899.59 2497.91 1903.49 2492.24C1905.45 2489.41 1907.29 2486.47 1909.04 2483.52C1909.86 2482.03 1910.78 2480.54 1911.51 2479.07C1912.25 2477.69 1913.13 2475.87 1913.48 2475.14L1913.91 2474.2C1919.05 2463.22 1932.11 2458.48 1943.09 2463.62C1953.9 2468.67 1958.65 2481.44 1953.89 2492.31Z" fill="#371A45"/>
<path d="M1639.22 2626.91C1637.71 2626.91 1636.18 2626.75 1634.64 2626.42C1622.78 2623.9 1615.2 2612.25 1617.72 2600.38C1643.28 2479.99 1739.69 2466.83 1743.78 2466.33C1755.8 2464.92 1766.77 2473.42 1768.25 2485.46C1769.71 2497.44 1761.23 2508.36 1749.27 2509.9C1746.04 2510.36 1679.48 2520.93 1660.68 2609.5C1658.49 2619.83 1649.37 2626.91 1639.22 2626.91Z" fill="#371A45"/>
<path d="M1576.11 2548.99C1576.17 2485.42 1572.91 2420.73 1568.4 2356.7C1563.64 2292.57 1557.01 2228.54 1547.26 2165.02C1542.43 2133.25 1536.98 2101.58 1530.44 2070.16C1523.97 2038.72 1516.78 2007.43 1508.16 1976.57C1491.27 1914.75 1469.97 1854.23 1441.97 1796.67L1441.92 1796.56C1440.06 1792.75 1441.65 1788.15 1445.46 1786.29C1449.04 1784.56 1453.32 1785.87 1455.37 1789.18C1489.84 1845.19 1514.44 1906.65 1533.74 1969.09C1543.55 2000.32 1551.89 2031.94 1559.5 2063.71C1567.17 2095.47 1573.74 2127.46 1579.68 2159.55C1591.64 2223.73 1600.45 2288.4 1607.35 2353.26C1610.8 2385.69 1613.47 2418.19 1615.58 2450.75C1617.67 2483.4 1619.36 2515.72 1620.03 2548.91C1620.27 2561.04 1610.64 2571.07 1598.51 2571.31C1586.39 2571.56 1576.36 2561.92 1576.12 2549.8C1576.12 2549.68 1576.11 2549.56 1576.11 2549.45V2548.99Z" fill="#371A45"/>
<path d="M429.555 1657.2C429.555 1657.2 796.9 1697.62 1159.91 2003.1C1522.91 2308.57 1598.07 2548.95 1598.07 2548.95C1598.07 2548.95 1637.26 2480.94 1654.15 2403.39C1654.15 2403.39 1483.15 2064.2 1153.73 1840.72C824.311 1617.25 545.124 1575.11 545.124 1575.11C545.124 1575.11 469.512 1621.67 429.555 1657.2Z" fill="#996250"/>
<g opacity="0.6">
<path d="M1610.37 2525.39C1619.88 2501.89 1629.47 2473.89 1635.89 2444.45C1635.89 2444.45 1464.92 2105.24 1135.5 1881.78C806.073 1658.32 526.88 1616.18 526.88 1616.18C526.88 1616.18 492.895 1637.13 458.451 1661.64C439.75 1658.3 429.545 1657.2 429.545 1657.2C469.538 1621.68 545.109 1575.1 545.109 1575.1C545.109 1575.1 824.302 1617.25 1153.73 1840.71C1483.15 2064.17 1654.18 2403.37 1654.18 2403.37C1643.37 2453.1 1623.3 2498.94 1610.37 2525.39Z" fill="white"/>
</g>
<path d="M1598.08 2570.91C1597.27 2570.91 1596.47 2570.87 1595.66 2570.78C1587 2569.82 1579.72 2563.82 1577.11 2555.5C1576.38 2553.19 1498.47 2316.69 1145.77 2019.9C792.586 1722.69 430.75 1679.42 427.137 1679.02C418.519 1678.06 411.263 1672.12 408.636 1663.86C406.009 1655.59 408.48 1646.55 414.964 1640.79C455.887 1604.4 530.452 1558.36 533.607 1556.41C538.031 1553.69 543.275 1552.61 548.397 1553.4C559.999 1555.15 836.307 1598.86 1166.06 1822.55C1496.4 2046.65 1666.67 2379.45 1673.76 2393.51C1676.02 2398 1676.68 2403.14 1675.6 2408.06C1658.19 2488.02 1618.76 2557.02 1617.09 2559.91C1613.15 2566.76 1605.86 2570.91 1598.08 2570.91ZM482.299 1643.55C596.244 1665.79 884.818 1742.91 1174.04 1986.29C1448.31 2217.09 1560.18 2410.29 1599.97 2495.68C1610.56 2471.87 1622.85 2440.19 1630.93 2406.42C1604.69 2357.53 1436.46 2059.06 1141.4 1858.9C850.571 1661.6 596.743 1607.01 549.629 1598.2C536.908 1606.24 508.866 1624.28 482.299 1643.55Z" fill="#371A45"/>
<path d="M1496.56 1599.79C1496.56 1599.79 1441.25 1859.93 1109.07 2103.4C776.901 2346.86 508.394 2401.87 508.394 2401.87C508.394 2401.87 511.015 2322.13 505.082 2274.98C505.082 2274.98 824.295 2183.15 1120.37 1918.18C1368.61 1696.03 1411.31 1539.93 1411.31 1539.93L1496.56 1599.79Z" fill="#996250"/>
<g opacity="0.6">
<path d="M1496.55 1599.77C1496.55 1599.77 1493.5 1614.24 1484.42 1639.5L1446.42 1612.83C1438.81 1607.49 1428.2 1610.33 1424.36 1618.8C1405.79 1659.86 1341.3 1775.13 1145.78 1950.13C849.706 2215.1 530.478 2306.9 530.478 2306.9C532.689 2324.32 528.069 2376.39 528.451 2397.03C515.367 2400.42 508.387 2401.86 508.387 2401.86C508.387 2401.86 511.017 2322.11 505.07 2274.98C505.07 2274.98 824.298 2183.17 1120.37 1918.21C1368.61 1696.02 1411.29 1539.91 1411.29 1539.91L1496.55 1599.77Z" fill="white"/>
</g>
<path d="M508.395 2423.82C503.258 2423.82 498.234 2422.02 494.235 2418.65C489.098 2414.32 486.227 2407.86 486.447 2401.14C486.476 2400.37 488.942 2322.58 483.293 2277.73C481.94 2267 488.61 2256.88 499.001 2253.88C502.15 2252.97 817.155 2160.07 1105.73 1901.82C1344.85 1687.83 1389.72 1535.57 1390.15 1534.06C1392.08 1527.21 1397.22 1521.67 1403.93 1519.28C1410.65 1516.89 1418.1 1517.87 1423.93 1521.96L1509.18 1581.81C1516.38 1586.87 1519.88 1595.74 1518.04 1604.35C1515.71 1615.31 1457.13 1875.51 1122.05 2121.1C789.831 2364.61 523.957 2421.09 512.805 2423.38C511.339 2423.68 509.865 2423.82 508.395 2423.82ZM528.693 2290.63C530.846 2318.36 531.081 2350.76 530.885 2373.57C606.354 2352.81 831.823 2279.38 1096.09 2085.69C1374.87 1881.36 1454.69 1664.74 1471.37 1608.93L1421.96 1574.24C1398.14 1630.11 1326.6 1763.1 1135.02 1934.55C874.567 2167.63 600.377 2267.3 528.693 2290.63Z" fill="#371A45"/>
<path d="M1532.13 2182.45L1315.1 2181.27L1315.9 2034.82L1532.93 2036C1558.26 2036.14 1578.69 2056.79 1578.55 2082.13L1578.26 2136.83C1578.12 2162.16 1557.47 2182.59 1532.13 2182.45Z" fill="white"/>
<path d="M773.344 2031.87L772.547 2178.32L509.602 2176.89L509.667 2164.87L550.47 2030.65L773.344 2031.87Z" fill="white"/>
<path d="M1532.39 2204.41C1532.26 2204.41 1532.14 2204.41 1532.01 2204.41L1314.98 2203.23C1309.16 2203.2 1303.59 2200.86 1299.49 2196.72C1295.39 2192.58 1293.11 2186.98 1293.14 2181.16L1293.94 2034.7C1293.97 2028.88 1296.31 2023.31 1300.45 2019.21C1304.6 2015.12 1310.31 2012.92 1316.01 2012.86L1533.04 2014.04C1551.16 2014.14 1568.16 2021.29 1580.9 2034.18C1593.65 2047.06 1600.61 2064.13 1600.51 2082.25L1600.22 2136.94C1600.01 2174.23 1569.61 2204.41 1532.39 2204.41ZM1337.17 2159.43L1532.25 2160.49C1532.25 2160.49 1532.25 2160.49 1532.25 2160.49C1532.3 2160.49 1532.34 2160.49 1532.39 2160.49C1545.51 2160.49 1556.23 2149.85 1556.3 2136.71L1556.59 2082.01C1556.63 2075.62 1554.18 2069.6 1549.68 2065.06C1545.19 2060.51 1539.2 2058 1532.81 2057.96L1337.74 2056.9L1337.17 2159.43Z" fill="#371A45"/>
<path d="M772.555 2200.28C772.511 2200.28 772.472 2200.28 772.433 2200.28L509.484 2198.85C503.659 2198.82 498.083 2196.48 493.991 2192.33C489.894 2188.19 487.609 2182.59 487.643 2176.77L487.711 2164.75C487.726 2162.63 488.043 2160.52 488.658 2158.49L529.459 2024.26C532.272 2015.01 540.807 2008.69 550.47 2008.69C550.509 2008.69 550.548 2008.69 550.592 2008.69L773.468 2009.91C785.592 2009.98 795.367 2019.86 795.304 2031.98L794.508 2178.44C794.445 2190.53 784.625 2200.28 772.555 2200.28ZM535.597 2155.08L750.709 2156.25L751.27 2053.7L566.719 2052.7L535.597 2155.08Z" fill="#371A45"/>
<path d="M1455.42 2335.55L820.213 2332.1C793.415 2331.95 771.808 2310.11 771.954 2283.31L773.93 1919.83C774.076 1893.03 795.918 1871.42 822.717 1871.57L1457.93 1875.02C1484.73 1875.17 1506.33 1897.01 1506.19 1923.81L1504.21 2287.29C1504.06 2314.09 1482.22 2335.7 1455.42 2335.55Z" fill="white"/>
<g opacity="0.2">
<path d="M1504.66 2208.77L1504.23 2287.27C1504.08 2314.06 1482.23 2335.68 1455.44 2335.54L820.195 2332.08C793.406 2331.94 771.786 2310.08 771.932 2283.29L772.359 2204.79C772.213 2231.58 793.833 2253.44 820.622 2253.58L1455.86 2257.04C1482.65 2257.18 1504.51 2235.56 1504.66 2208.77Z" fill="#371A45"/>
</g>
<path d="M1455.69 2357.51C1455.56 2357.51 1455.43 2357.51 1455.3 2357.51L820.094 2354.05C801.266 2353.95 783.61 2346.52 770.368 2333.14C757.131 2319.76 749.894 2302.02 749.997 2283.19L751.974 1919.71C752.072 1900.89 759.498 1883.22 772.887 1869.98C786.271 1856.74 804.225 1849.63 822.838 1849.61L1458.04 1853.06C1476.87 1853.17 1494.53 1860.59 1507.77 1873.98C1521.01 1887.36 1528.25 1905.1 1528.15 1923.93L1526.17 2287.41C1525.96 2326.14 1494.37 2357.51 1455.69 2357.51ZM1455.54 2313.59C1455.59 2313.59 1455.63 2313.59 1455.68 2313.59C1470.27 2313.59 1482.17 2301.77 1482.25 2287.17L1484.23 1923.69C1484.27 1916.59 1481.54 1909.91 1476.55 1904.86C1471.56 1899.81 1464.9 1897.02 1457.8 1896.98L822.599 1893.53C822.545 1893.53 822.497 1893.53 822.448 1893.53C815.407 1893.53 808.781 1896.25 803.771 1901.2C798.727 1906.19 795.929 1912.85 795.89 1919.95L793.912 2283.43C793.873 2290.53 796.598 2297.21 801.588 2302.26C806.578 2307.3 813.233 2310.1 820.333 2310.14L1455.54 2313.59Z" fill="#371A45"/>
<path d="M1455.68 2357.51C1455.56 2357.51 1455.43 2357.51 1455.3 2357.51L936.548 2354.69C897.681 2354.47 866.24 2322.69 866.45 2283.82L868.427 1920.34C868.525 1901.52 875.951 1883.86 889.34 1870.62C902.631 1857.47 920.214 1850.25 938.891 1850.25C939.028 1850.25 939.155 1850.25 939.291 1850.25L1458.04 1853.06C1476.87 1853.17 1494.53 1860.59 1507.77 1873.98C1521.01 1887.36 1528.25 1905.1 1528.14 1923.93L1526.17 2287.41C1525.96 2326.14 1494.37 2357.51 1455.68 2357.51ZM1455.54 2313.59C1455.58 2313.59 1455.63 2313.59 1455.68 2313.59C1470.26 2313.59 1482.17 2301.77 1482.25 2287.17L1484.23 1923.69C1484.27 1916.59 1481.54 1909.91 1476.55 1904.86C1471.56 1899.81 1464.9 1897.02 1457.8 1896.98L939.053 1894.16C938.999 1894.16 938.951 1894.16 938.902 1894.16C931.861 1894.16 925.235 1896.89 920.225 1901.84C915.181 1906.83 912.383 1913.48 912.344 1920.58L910.367 2284.06C910.289 2298.71 922.139 2310.69 936.788 2310.77L1455.54 2313.59Z" fill="#371A45"/>
<path d="M1381.37 2084.63C1381.6 2093.15 1371.52 2162.25 1371.52 2162.25C1371.52 2162.25 1349.74 2162.85 1322.99 2163.58C1289.57 2164.51 1261.53 2130.65 1260.35 2087.97C1259.17 2045.29 1285.31 2009.94 1318.72 2009.02C1341.28 2008.39 1367.26 2007.68 1367.26 2007.68C1367.26 2007.68 1380.98 2070.75 1381.37 2084.63Z" fill="#22A7F0"/>
<path d="M1381.37 2084.63C1381.6 2093.15 1371.52 2162.25 1371.52 2162.25C1371.52 2162.25 1349.74 2162.85 1322.99 2163.58C1289.57 2164.51 1261.53 2130.65 1260.35 2087.97C1259.17 2045.29 1285.31 2009.94 1318.72 2009.02C1341.28 2008.39 1367.26 2007.68 1367.26 2007.68C1367.26 2007.68 1380.98 2070.75 1381.37 2084.63Z" fill="#137CE5"/>
<path d="M1321.68 2179.49C1280.33 2179.49 1245.87 2139.07 1244.47 2088.41C1243.05 2037.04 1276.17 1994.3 1318.29 1993.14L1352.18 1992.2C1368.22 1991.83 1382.55 2002.95 1385.86 2018.82C1393.18 2053.83 1397.01 2075.83 1397.25 2084.19V2084.19C1397.31 2086.65 1397.47 2092.41 1389.36 2149.79C1387.06 2166 1373.51 2178.08 1357.13 2178.53L1323.43 2179.46C1322.85 2179.48 1322.26 2179.49 1321.68 2179.49ZM1353.1 2023.96C1353.08 2023.96 1353.07 2023.96 1353.05 2023.96L1319.16 2024.89C1294.55 2025.57 1275.29 2053.67 1276.22 2087.53C1277.15 2120.97 1297.44 2147.72 1321.64 2147.72C1321.95 2147.72 1322.25 2147.72 1322.55 2147.71L1356.26 2146.77C1357.1 2146.75 1357.79 2146.15 1357.9 2145.34C1365 2095.12 1365.47 2086.32 1365.49 2084.99C1365.33 2080.15 1362.43 2061.97 1354.76 2025.32C1354.6 2024.52 1353.9 2023.96 1353.1 2023.96Z" fill="#371A45"/>
<path d="M1371.52 2162.16C1404.93 2161.24 1431.07 2125.89 1429.89 2083.21C1428.71 2040.53 1400.67 2006.67 1367.25 2007.6C1333.83 2008.52 1307.7 2043.87 1308.87 2086.55C1310.05 2129.23 1338.1 2163.08 1371.52 2162.16Z" fill="#22A7F0"/>
<g opacity="0.7">
<path d="M1429.04 2099.21C1422.32 2064.27 1397.29 2038.62 1368.15 2039.44C1338.9 2040.26 1315.29 2067.34 1310.59 2102.69C1309.58 2097.54 1309.01 2092.16 1308.85 2086.64C1307.73 2043.95 1333.86 2008.61 1367.28 2007.69C1400.69 2006.78 1428.72 2040.59 1429.91 2083.28C1430.07 2088.75 1429.75 2094.08 1429.04 2099.21Z" fill="white"/>
</g>
<path d="M1371.54 2162.22C1338.13 2163.2 1310.04 2129.33 1308.85 2086.64C1308.61 2076.83 1309.76 2067.44 1312.13 2058.7C1321.64 2087.48 1344.27 2107.43 1370.02 2106.69C1395.76 2105.95 1417.19 2084.87 1425.1 2055.68C1427.96 2064.19 1429.66 2073.53 1429.91 2083.28C1431.1 2125.97 1404.96 2161.31 1371.54 2162.22Z" fill="#137CE5"/>
<path d="M1370.21 2178.15C1328.86 2178.15 1294.4 2137.72 1293 2087.07C1291.59 2035.7 1324.7 1992.97 1366.82 1991.8C1409.01 1990.63 1444.35 2031.48 1445.78 2082.85C1447.2 2134.22 1414.08 2176.96 1371.96 2178.13C1371.38 2178.14 1370.8 2178.15 1370.21 2178.15ZM1368.6 2023.54C1368.3 2023.54 1368 2023.55 1367.7 2023.55C1343.09 2024.23 1323.82 2052.33 1324.76 2086.19C1325.69 2120.05 1346.55 2147.16 1371.09 2146.37C1395.7 2145.69 1414.96 2117.59 1414.02 2083.73C1413.1 2050.29 1392.81 2023.54 1368.6 2023.54Z" fill="#371A45"/>
<path d="M1166.09 2348.88C1166.05 2348.88 1166.01 2348.88 1165.96 2348.88C1153.84 2348.81 1144.06 2338.93 1144.13 2326.8L1144.88 2188.14C1144.97 2171.58 1137 2155.93 1123.55 2146.28L1103.2 2131.67C1078.22 2113.74 1063.39 2084.66 1063.56 2053.9L1064.55 1872.89C1064.61 1860.75 1074.69 1851.05 1086.63 1851.05C1098.75 1851.12 1108.53 1861 1108.46 1873.13L1107.48 2054.14C1107.39 2070.69 1115.37 2086.34 1128.81 2096L1149.16 2110.6C1174.15 2128.54 1188.97 2157.61 1188.8 2188.38L1188.04 2327.04C1187.97 2339.13 1178.16 2348.88 1166.09 2348.88Z" fill="#371A45"/>
<path d="M976.193 1622.1C971.672 1622.1 967.165 1622.07 962.672 1621.99C692.467 1616.93 444.972 1468.14 316.764 1233.69C222.326 1061.08 201.334 862.649 257.653 674.956C314.426 485.764 442.736 330.166 618.952 236.826C687.702 200.466 760.827 175.107 836.296 161.455C844.533 159.883 853.093 158.481 862.439 157.175C885.691 153.762 909.299 151.423 932.605 150.224C986.179 147.49 1040.32 150.527 1093.54 159.264C1146.25 167.858 1198.19 182.086 1247.91 201.552C1263.9 207.797 1279.65 214.574 1294.73 221.689C1318.24 232.795 1340.98 244.973 1362.33 257.88C1475.09 325.651 1568 422.387 1631.01 537.626C1740.02 736.842 1750.65 970.321 1660.17 1178.2C1610.01 1293.43 1530.27 1394.46 1429.58 1470.37C1408.24 1486.43 1385.96 1501.43 1363.35 1514.96C1352.98 1521.2 1341.69 1527.59 1328.84 1534.49C1293.8 1553.04 1257.18 1568.88 1219.98 1581.57C1188.83 1592.29 1156.35 1601.06 1123.47 1607.62C1084.99 1615.33 1045.33 1620.03 1005.6 1621.58C995.836 1621.93 985.988 1622.1 976.193 1622.1ZM970.807 153.2C958.121 153.2 945.451 153.522 932.809 154.169C909.626 155.36 886.139 157.687 862.999 161.083C853.702 162.384 845.211 163.776 837.018 165.338C761.93 178.922 689.191 204.147 620.797 240.316C445.529 333.158 317.901 487.919 261.437 676.09C205.421 862.762 226.305 1060.11 320.231 1231.79C447.76 1465 693.957 1613 962.746 1618.04C976.877 1618.27 991.257 1618.13 1005.46 1617.63C1044.97 1616.09 1084.42 1611.42 1122.7 1603.75C1155.41 1597.22 1187.71 1588.5 1218.7 1577.84C1255.7 1565.21 1292.14 1549.45 1326.98 1531C1339.77 1524.14 1351 1517.78 1361.32 1511.57C1383.82 1498.11 1405.98 1483.18 1427.2 1467.21C1527.35 1391.72 1606.66 1291.23 1656.55 1176.62C1746.53 969.871 1735.96 737.659 1627.55 539.519C1564.87 424.895 1472.45 328.674 1360.29 261.26C1339.05 248.421 1316.43 236.309 1293.04 225.261C1278.04 218.183 1262.38 211.443 1246.47 205.229C1197.01 185.864 1145.34 171.711 1092.9 163.161C1052.52 156.535 1011.6 153.2 970.807 153.2Z" fill="#371A45"/>
<path d="M318.503 1232.72C451.16 1475.38 702.027 1615.15 962.723 1620C976.968 1620.25 991.231 1620.12 1005.51 1619.59C1044.74 1618.08 1084.04 1613.49 1123.07 1605.7C1155.4 1599.21 1187.61 1590.63 1219.33 1579.72C1256.21 1567.15 1292.46 1551.53 1327.92 1532.76C1339.61 1526.44 1351.14 1520.01 1362.35 1513.29C1385.38 1499.5 1407.34 1484.6 1428.38 1468.78C1531.47 1391.07 1609.33 1290.11 1658.37 1177.39C1685.33 1115.49 1703.59 1050.06 1712.55 983.138C1658.37 1070.5 1604.34 1197.86 1506 1272C1484.99 1287.88 1470.03 1296.7 1447 1310.5C1435.84 1317.23 1423.24 1323.19 1411.5 1329.5C1376.04 1348.27 1334.83 1369.41 1298 1382C1266.24 1392.89 1230.32 1403.52 1198 1410C1158.97 1417.79 1123.18 1424.97 1084 1426.5C1063.22 1459.49 1026.24 1422.76 1012 1422.5C754 1432.5 524.5 1238 379.649 1022.99C302.197 881.451 276.659 726.153 296.475 578.321C202.839 780.281 203.08 1021.8 318.503 1232.72Z" fill="#E8E8E8"/>
<path d="M976.184 1635.34C971.594 1635.34 967.014 1635.3 962.453 1635.22C687.482 1630.07 435.632 1478.65 305.148 1240.04C209.001 1064.3 187.628 862.263 244.977 671.152C302.775 478.54 433.385 320.139 612.755 225.129C682.716 188.127 757.135 162.324 833.937 148.427C842.272 146.838 851.042 145.402 860.602 144.064C884.176 140.602 908.205 138.222 931.925 137.003C986.446 134.22 1041.54 137.313 1095.68 146.2C1149.3 154.943 1202.15 169.418 1252.74 189.225C1269 195.578 1285.03 202.472 1300.38 209.718C1324.3 221.019 1347.45 233.409 1369.18 246.551C1483.92 315.513 1578.49 413.975 1642.63 531.273C1753.61 734.103 1764.43 971.825 1672.31 1183.48C1621.24 1300.8 1540.05 1403.66 1437.54 1480.94C1415.84 1497.28 1393.16 1512.55 1370.15 1526.32C1359.62 1532.66 1348.14 1539.15 1335.1 1546.15C1299.38 1565.06 1262.11 1581.18 1224.25 1594.1C1192.57 1605 1159.53 1613.92 1126.06 1620.61C1086.9 1628.45 1046.54 1633.23 1006.12 1634.8C996.16 1635.16 986.145 1635.34 976.184 1635.34ZM970.813 166.44C958.347 166.44 945.901 166.755 933.484 167.39C910.72 168.559 887.654 170.845 864.924 174.182C855.759 175.464 847.473 176.821 839.499 178.342C765.627 191.706 694.177 216.487 626.989 252.019C454.88 343.186 329.557 495.144 274.118 679.897C219.128 863.149 239.631 1056.89 331.843 1225.44C457.102 1454.49 698.943 1599.86 962.99 1604.8C976.872 1605.04 991.008 1604.9 1004.98 1604.4C1043.76 1602.89 1082.51 1598.3 1120.1 1590.77C1152.24 1584.35 1183.96 1575.79 1214.4 1565.32C1250.77 1552.9 1286.56 1537.43 1320.79 1519.3C1333.31 1512.58 1344.36 1506.33 1354.48 1500.23C1376.62 1486.99 1398.39 1472.33 1419.23 1456.64C1517.56 1382.52 1595.43 1283.86 1644.41 1171.34C1732.75 968.371 1722.37 740.397 1615.93 545.876C1554.38 433.308 1463.62 338.813 1353.47 272.609C1332.59 259.982 1310.37 248.088 1287.39 237.231C1272.67 230.285 1257.28 223.667 1241.65 217.561C1193.05 198.533 1142.29 184.629 1090.77 176.228C1051.09 169.714 1010.88 166.44 970.813 166.44Z" fill="#371A45"/>
<path d="M976.178 1642.09C971.549 1642.09 966.935 1642.05 962.34 1641.97C684.943 1636.77 430.87 1484 299.23 1243.28C202.209 1065.94 180.646 862.068 238.517 669.214C296.832 474.861 428.619 315.031 609.596 219.167C680.177 181.84 755.25 155.808 832.736 141.792C841.12 140.193 849.992 138.738 859.67 137.385C883.405 133.899 907.649 131.496 931.579 130.268C986.555 127.46 1042.15 130.578 1096.77 139.545C1150.86 148.361 1204.17 162.965 1255.2 182.943C1271.59 189.349 1287.77 196.307 1303.26 203.617C1327.39 215.018 1350.74 227.518 1372.67 240.78C1488.41 310.348 1583.83 409.691 1648.55 528.038C1760.54 732.708 1771.46 972.591 1678.49 1186.17V1186.17C1626.96 1304.56 1545.05 1408.35 1441.6 1486.32C1419.7 1502.81 1396.83 1518.21 1373.61 1532.11C1363.01 1538.5 1351.43 1545.04 1338.29 1552.1C1302.22 1571.19 1264.63 1587.45 1226.43 1600.49C1194.49 1611.48 1161.15 1620.48 1127.39 1627.22C1087.88 1635.13 1047.17 1639.95 1006.38 1641.55C996.325 1641.9 986.222 1642.09 976.178 1642.09ZM970.807 173.183C958.463 173.183 946.129 173.498 933.825 174.125C911.281 175.285 888.424 177.548 865.9 180.856C856.803 182.128 848.624 183.466 840.758 184.967C767.511 198.219 696.715 222.772 630.138 257.982C459.645 348.295 335.494 498.825 280.577 681.836C226.109 863.344 246.422 1055.25 337.76 1222.2C461.862 1449.14 701.481 1593.16 963.117 1598.06C976.867 1598.29 990.885 1598.15 1004.74 1597.66C1043.14 1596.16 1081.53 1591.62 1118.78 1584.16C1150.62 1577.8 1182.05 1569.31 1212.2 1558.94C1248.26 1546.64 1283.71 1531.3 1317.63 1513.34C1330.03 1506.69 1340.97 1500.5 1351.01 1494.46C1372.95 1481.32 1394.52 1466.8 1415.18 1451.25C1512.57 1377.83 1589.71 1280.11 1638.23 1168.64V1168.65C1725.73 967.604 1715.45 741.793 1610.02 549.112C1549.04 437.591 1459.12 343.978 1349.99 278.389C1329.3 265.872 1307.28 254.087 1284.51 243.328C1269.93 236.448 1254.68 229.89 1239.2 223.841C1191.04 204.986 1140.74 191.207 1089.68 182.884C1050.35 176.43 1010.52 173.183 970.807 173.183Z" fill="#371A45"/>
<path d="M870.426 174.367C356.339 253.656 39.3405 878.682 376.811 1285.37L444.811 1086.87C253.926 537.367 894.426 -31.6326 1493.81 390.368C1398.43 338.291 1209.43 122.083 870.426 174.367Z" fill="white"/>
<path d="M1081.25 1611.33C921.368 1611.33 767.027 1564.24 643.199 1475.38C492.525 1367.26 397.149 1208.18 367.379 1015.32C340.04 838.135 391.114 656.626 511.197 504.234C644.537 335.018 847.676 223.719 1054.6 206.509C1169.55 196.951 1274.92 208.568 1367.78 241.046L1369.69 241.711L1371.42 242.749C1486.86 312.136 1581.98 411.174 1646.5 529.159C1758.14 733.192 1769.02 972.328 1676.35 1185.24C1624.98 1303.26 1543.32 1406.73 1440.2 1484.46C1418.37 1500.9 1395.56 1516.26 1372.41 1530.11C1361.83 1536.48 1350.29 1543.01 1337.18 1550.04C1301.24 1569.07 1263.76 1585.29 1225.68 1598.28L1222.72 1599.04C1175.52 1607.28 1128.13 1611.33 1081.25 1611.33ZM1131.07 242.52C1107.18 242.52 1082.77 243.552 1057.85 245.624C861.583 261.947 668.751 367.704 542.028 528.524C428.761 672.271 380.509 843.026 406.169 1009.33C434.294 1191.53 524.172 1341.66 666.086 1443.49C817.321 1552.02 1017.11 1594.67 1214.46 1560.63C1250.08 1548.39 1285.15 1533.18 1318.72 1515.4C1331.16 1508.73 1342.15 1502.51 1352.21 1496.45C1374.22 1483.28 1395.86 1468.71 1416.58 1453.11C1514.3 1379.45 1591.69 1281.41 1640.37 1169.58C1728.16 967.867 1717.84 741.31 1612.06 547.995C1551.2 436.695 1461.63 343.182 1352.93 277.434C1285.74 254.201 1211.38 242.52 1131.07 242.52Z" fill="#371A45"/>
<path d="M1055.14 1473.6C971.495 1473.6 886.338 1460.66 807.466 1430.74C594.6 1350 452.227 1172.17 416.856 942.844C392.442 784.604 438.043 622.532 545.254 486.482C664.243 335.479 845.537 236.157 1030.21 220.799C1348.44 194.344 1571.98 347.003 1694.61 674.564L1695.45 677.481C1696.97 684.83 1732.12 858.897 1693.44 984.217C1669.93 1111.37 1599.39 1216.95 1597.01 1221.6L1587.86 1235.76L1541.93 1292.37C1398.22 1411.62 1228.57 1473.6 1055.14 1473.6ZM1097.9 257.175C1076.9 257.175 1055.43 258.088 1033.47 259.914C859.444 274.387 688.457 368.166 576.079 510.776C475.683 638.181 432.915 789.499 455.644 936.86C488.803 1151.82 627.154 1317.28 826.426 1392.87C1066.93 1448.37 1261.43 1434.37 1494.93 1270.37L1554.93 1210.87C1631.08 1099.97 1628.48 1075.37 1660.93 977.367C1698.43 864.095 1660.54 703.589 1657.29 686.831C1549.99 401.435 1361.99 257.175 1097.9 257.175Z" fill="#371A45"/>
<path d="M132.338 997.537C136.797 1142.33 227.237 1261.36 334.377 1263.39C441.517 1265.41 524.75 1149.67 520.291 1004.88C520.281 1003.97 520.225 1003.01 520.165 1002.1C514.675 858.565 424.639 741.029 318.252 739.029C235.486 737.46 166.989 806.182 142.15 904.261C134.853 933.14 131.327 964.61 132.338 997.537Z" fill="white"/>
<path d="M132.338 997.538C136.797 1142.33 227.237 1261.36 334.377 1263.39C441.517 1265.41 524.75 1149.67 520.291 1004.88C520.281 1003.97 520.225 1003.01 520.165 1002.1C508.844 1016.73 490.962 1031.02 465.973 1025.62C422.205 1016.14 341.27 921.559 341.27 921.559C341.27 921.559 254.969 913.496 142.151 904.262C134.853 933.141 131.327 964.611 132.338 997.538Z" fill="#E8E8E8"/>
<path d="M337.198 1285.36C336.124 1285.36 335.045 1285.35 333.961 1285.33C215.475 1283.09 115.172 1154.29 110.367 998.215C107.598 908.222 136.236 826.018 188.941 772.678C225.787 735.398 270.425 716.128 318.643 717.075C437.129 719.309 537.432 848.108 542.237 1004.19C545.005 1094.18 516.368 1176.38 463.658 1229.72C427.647 1266.17 383.985 1285.36 337.198 1285.36ZM154.263 996.862C158.36 1129.91 239.341 1239.62 334.79 1241.42C370.371 1242.08 404.233 1227.38 432.422 1198.85C476.065 1154.69 500.708 1082.42 498.34 1005.54C494.243 872.49 413.262 762.783 317.813 760.981C282.251 760.295 248.37 775.024 220.181 803.547C176.538 847.712 151.895 919.98 154.263 996.862Z" fill="#371A45"/>
<path d="M282.561 1232.74C362.889 1225.62 419.539 1124.31 409.093 1006.47C398.647 888.629 325.06 798.871 244.732 805.992C164.404 813.112 107.754 914.415 118.2 1032.26C128.646 1150.1 202.233 1239.86 282.561 1232.74Z" fill="white"/>
<path d="M271.08 1233.09C190.147 1230.94 121.26 1133.51 117.155 1015.44C116.682 1002.63 117.066 990.088 118.107 977.944C142.165 1058.6 197.881 1116.81 260.794 1118.43C331.839 1120.24 388.771 1049.2 399.618 952.924C405.592 975.029 409.257 998.708 410.129 1023.26C414.234 1141.33 351.967 1235.24 271.08 1233.09Z" fill="#E8E8E8"/>
<path d="M273.834 1255.09C272.711 1255.09 271.593 1255.08 270.47 1255.05C176.759 1252.54 99.7717 1147.64 95.2007 1016.22V1016.22C92.5397 939.733 116.471 868.346 159.21 825.263C187.135 797.106 220.812 782.756 256.783 783.693C350.499 786.195 427.486 891.1 432.051 1022.52C434.712 1099 410.786 1170.38 368.047 1213.47C340.993 1240.74 308.483 1255.09 273.834 1255.09ZM139.088 1014.7C142.731 1119.36 203.434 1209.32 271.642 1211.15C295.04 1211.79 317.687 1201.88 336.871 1182.54C371.236 1147.9 390.411 1088.65 388.165 1024.04C384.527 919.377 323.824 829.413 255.611 827.592C232.081 826.928 209.566 836.851 190.387 856.189C156.022 890.833 136.847 950.087 139.088 1014.7Z" fill="#371A45"/>
</svg>
