<?xml version="1.0" encoding="utf-8"?>
<!-- Generator: Adobe Illustrator 27.5.0, SVG Export Plug-In . SVG Version: 6.00 Build 0)  -->
<svg version="1.1" xmlns="http://www.w3.org/2000/svg" xmlns:xlink="http://www.w3.org/1999/xlink" x="0px" y="0px"
	 viewBox="0 0 500 500" style="enable-background:new 0 0 500 500;" xml:space="preserve">
<g id="BACKGROUND">
	<rect transform="matrix(-1.836970e-16 1 -1 -1.836970e-16 500 5.684342e-14)" style="fill:#FFFFFF;" width="500" height="500"/>
</g>
<g id="OBJECTS">
	<g>
		<radialGradient id="SVGID_1_" cx="250" cy="250" r="250" gradientUnits="userSpaceOnUse">
			<stop  offset="0" style="stop-color:#03384A"/>
			<stop  offset="1" style="stop-color:#010F1E"/>
		</radialGradient>
		<rect style="fill:url(#SVGID_1_);" width="500" height="500"/>
	</g>
	<g>
		
			<ellipse transform="matrix(0.2298 -0.9732 0.9732 0.2298 -39.5605 211.8667)" style="fill:#F58466;" cx="114.072" cy="130.927" rx="68.406" ry="68.406"/>
		<g>
			<path style="fill:#E05B41;" d="M126.87,162.306c-9.606,0-20.48-0.422-21.642,0c-1.161,0.423-5.278,3.168-14.568,3.168
				c-9.291,0-18.158-4.012-23.12-4.75c-4.082-0.609-12.232-2.145-16.112-2.318c5.38,12.248,14.241,22.611,25.338,29.848
				c10.213,0.25,21.439,0.438,26.773,0.234c7.708-0.293,35.166-1.71,51.183-2.545c8.187-6.059,14.966-13.9,19.778-22.951
				C164.822,162.821,134.889,162.306,126.87,162.306z"/>
			<path style="fill:#E05B41;" d="M50.356,106.038h0.609c0,0,9.078,1.371,9.923,1.371c0.845,0,12.246,0,12.246,0l10.241-0.211
				l35.788-0.738l12.246-1.057c0,0,15.729-1.055,16.68-1.055s18.053,1.689,18.58,1.689c0.528,0,6.44-0.212,6.44-0.212l4.232-0.918
				c-2.139-5.194-4.895-10.067-8.183-14.528c-1.273-0.111-2.497-0.242-3.441-0.389c-3.378-0.528-9.712,0-12.773,0.316
				c-3.062,0.316-44.445-0.105-44.445-0.105s-3.378,0.527-4.223,0.633c-0.845,0.105-11.718-0.422-12.246-0.633
				c-0.528-0.211-7.918-0.951-8.34-1.057c-0.423-0.105-7.073-0.633-8.234-1.16c-1.162-0.528-4.012-0.635-4.012-0.635l-11.235,1.433
				C56.137,93.983,52.802,99.784,50.356,106.038z"/>
		</g>
		<g>
			<path style="fill:#FED09E;" d="M56.279,111.703h3.659l18.862-2.253c0,0,14.357-1.406,16.609-1.69
				c2.252-0.281,7.883-0.28,7.883-0.28s26.182-0.282,27.589-0.282c1.408,0,18.581-1.126,18.581-1.126s10.416,0.282,11.823,0.282
				c1.407,0,11.262,1.406,12.95,1.689c0.909,0.15,2.874,0.383,4.498,0.566c-0.662-1.919-1.406-3.797-2.23-5.635
				c-0.444,0-0.84,0-1.142,0c-1.689,0-5.349,0-6.756,0c-1.408,0-2.534,0-3.66,0c-1.126,0-17.736,0-17.736,0l-4.223-0.281
				c0,0-7.601-0.563-10.416-0.845c-2.815-0.282-7.319,0-8.727,0c-1.408,0-10.98,0-12.669,0c-1.689,0-18.58,0.563-20.27,0.845
				c-1.689,0.281-7.038,0.563-9.009,0.844c-1.971,0.281-5.912,0-8.445,0c-2.534,0-4.786,0.282-4.786,0.282l-8.445,0.845
				l-9.365,0.107c-0.696,1.682-1.325,3.398-1.888,5.145C52.12,110.835,56.279,111.703,56.279,111.703z"/>
			<path style="fill:#FED09E;" d="M148.618,182.731c0,0-14.357,1.408-16.609,1.689c-2.252,0.281-7.883,0.281-7.883,0.281
				s-26.182,0.281-27.589,0.281c-1.407,0-18.58,1.127-18.58,1.127s-2.055-0.056-4.463-0.117c1.539,1.135,3.126,2.208,4.759,3.213
				c1.197,0,1.956,0,1.956,0l4.223,0.283c0,0,7.601,0.563,10.416,0.844c2.815,0.281,7.319,0,8.728,0c1.407,0,10.979,0,12.668,0
				c1.689,0,18.58-0.563,20.269-0.844c1.689-0.282,7.038-0.564,9.009-0.846c1.27-0.181,3.354-0.129,5.355-0.068
				c3.35-2.145,6.509-4.561,9.427-7.238L148.618,182.731z"/>
			<path style="fill:#FED09E;" d="M171.176,160.503c-5.082,0-8.753,0-11.012,0c-2.259,0-9.317-0.221-15.529-0.661
				c-4.552-0.323-9.088-0.835-13.641-1.149c-4.243-0.292-8.492-0.499-12.741-0.697c-14.606-0.682-29.447-2.953-44.063-2.289
				c-7.853,0.357-15.709,0.557-23.565,0.788c0.396,0.98,0.813,1.95,1.253,2.907c0.934,0,1.634,0,1.844,0
				c0.848,0,2.824,0.661,5.365,1.102c3.863,0.67,7.938,1.061,11.657,2.351c7.47,2.593,14.894,6.607,23.052,5.806
				c3.267-0.32,6.728-0.529,9.894-1.422c5.379-1.518,10.545-2.726,16.155-3.061c5.529-0.33,11.069-0.146,16.604-0.146
				c0.008,0,6.496,0,9.317,0c2.823,0,12.987,0.661,15.246,0.661c2.26,0,6.494,0.44,7.906,0.882c1.016,0.317,2.903,0.406,3.885,0.431
				c1.068-1.784,2.063-3.616,2.968-5.501C174.31,160.503,172.743,160.503,171.176,160.503z M90.674,164.844
				c-3.334-0.112-5.995-1.433-5.944-2.95c0.051-1.519,2.794-2.658,6.128-2.547c3.333,0.111,5.996,1.433,5.943,2.95
				C96.751,163.815,94.008,164.956,90.674,164.844z"/>
			<path style="fill:#FED09E;" d="M57.969,91.808c0.453-0.027,0.921-0.059,1.407-0.093c3.941-0.281,16.047,0,19.144,0
				c3.097,0,18.861,1.126,22.24,1.126c3.378,0,17.735,0.282,23.647,0.282s14.639,2.533,32.093,2.815
				c5.643,0.09,11.252,0.004,16.265-0.153c-3.139-5.229-6.962-9.996-11.337-14.196c-0.047-0.003-0.095-0.006-0.142-0.009
				c-5.63-0.281-10.697,0.282-16.328,0.845c-8.164,0.844-16.328-0.563-24.492-1.126c-13.231-1.126-27.589-2.253-40.82-1.126
				c-4.408,0.383-8.783,0.995-13.158,1.636C63.34,84.858,60.486,88.205,57.969,91.808z M99.195,82.837
				c7.774,0.26,14.021,2.146,13.952,4.211c-0.069,2.066-6.428,3.53-14.202,3.27c-7.774-0.26-14.021-2.145-13.952-4.21
				C85.063,84.041,91.421,82.577,99.195,82.837z"/>
			<path style="fill:#FED09E;" d="M49.522,130.565c0.845,0,4.504,0.563,6.757,0.844c6.987,0.873,14.085,0.342,21.045,1.486
				c5.779,0.949,11.791,1.183,17.5,2.346c4.049,0.824,7.811,2.754,11.704,4.095c10.984,3.78,22.929,4.219,34.25,1.745
				c5.499-1.199,10.714-3.355,16.099-4.946c5.331-1.577,10.736-2.091,16.233-2.755c0,0,5.188,0,9.307,0
				c0.028-0.815,0.061-1.63,0.061-2.453c0-0.877-0.033-1.746-0.066-2.615c-5.797-0.489-11.578-0.639-17.406-0.899
				c-7.976-0.355-14.81-4.016-22.193-6.563c-5.851-2.02-11.938-3.477-18.151-3.6c-9.866-0.196-18.392,4.62-27.84,6.596
				c-7.088,1.483-14.568,0.833-21.76,0.806c-8.982-0.034-17.965,0.003-26.947,0.003c-0.772,0-1.483,0-2.149,0
				c-0.182,1.996-0.287,4.016-0.293,6.06C47.652,130.628,49.239,130.565,49.522,130.565z M126.336,123.531
				c8.702,0.29,15.649,3.738,15.518,7.702c-0.133,3.961-7.295,6.938-15.997,6.646c-8.702-0.291-15.649-3.738-15.517-7.701
				C110.473,126.217,117.634,123.239,126.336,123.531z"/>
		</g>
		<path style="opacity:0.2;fill:#212A3C;" d="M60.104,172.972c15.751,20.189,42.24,30.671,68.893,24.713
			c36.869-8.242,60.076-44.813,51.833-81.683c-2.134-9.549-6.182-18.169-11.629-25.579
			C152.705,116.417,106.171,181.747,60.104,172.972z"/>
		<path style="opacity:0.2;fill:#212A3C;" d="M63.609,177.099c16.002,17.455,40.619,26.123,65.388,20.586
			c34.731-7.764,57.326-40.665,52.943-75.272C163.564,148.882,120.888,196.98,63.609,177.099z"/>
		
			<linearGradient id="SVGID_00000023965789597604004830000011779616584107237812_" gradientUnits="userSpaceOnUse" x1="-25.8213" y1="-50.9158" x2="1.783" y2="-0.1209" gradientTransform="matrix(0.8183 -0.1424 0.1645 0.8356 109.9286 121.3328)">
			<stop  offset="0" style="stop-color:#FFFFFF"/>
			<stop  offset="1" style="stop-color:#FFFFFF;stop-opacity:0"/>
		</linearGradient>
		<path style="opacity:0.3;fill:url(#SVGID_00000023965789597604004830000011779616584107237812_);" d="M133.668,77.704
			c9.101,14.989-0.693,37.568-21.878,50.43c-21.184,12.863-45.734,11.14-54.835-3.85c-9.102-14.99,0.692-37.568,21.876-50.43
			C100.015,60.991,124.565,62.715,133.668,77.704z"/>
		<path style="opacity:0.3;fill:#FFFFFF;" d="M114.008,76.028c5.436,8.952-1.345,23.002-15.145,31.381
			c-13.801,8.381-29.396,7.915-34.829-1.037c-5.438-8.953,1.342-23.004,15.143-31.383C92.979,66.609,108.572,67.073,114.008,76.028z
			"/>
	</g>
	<g>
		<g>
			<path style="fill:#34B1E4;" d="M291.685,119.834c0,24.407-19.785,44.194-44.193,44.194c-24.409,0-44.195-19.787-44.195-44.194
				c0-24.408,19.786-44.194,44.195-44.194C271.9,75.64,291.685,95.426,291.685,119.834z"/>
			<g>
				<path style="fill:#D7DF23;" d="M250.295,148.453c1.355-2.411-0.15-7.383-0.15-8.588c0-1.206-6.78-4.521-8.438-5.123
					c-1.657-0.603-2.41,0.302-2.41,0.302s-9.794,2.862-11,4.821c-1.205,1.958-8.889-1.959-9.191-3.767
					c-0.302-1.809-2.109-7.232-2.26-7.836c-0.151-0.602-8.137-6.177-9.04-6.328c-0.425-0.07-2.277,0.59-4.342,1.623
					c1.74,20.848,17.944,37.572,38.552,40.121c0.15-2.596-0.24-5.014-0.009-8.145c0.302-4.068,0.754-2.26,3.768-3.766
					C248.788,150.261,248.939,150.864,250.295,148.453z"/>
				<path style="fill:#D7DF23;" d="M258.676,152.274c-0.605,1.367-0.551,2.521,1.1,3.025c1.208,0.371,2.296-0.025,3.469-0.299
					c1.02-0.238,2.392,0.047,3.223-0.676c2.508-2.18,0.451-4.174-1.652-5.676c-0.663-0.474-1.354-0.904-2.019-1.373
					C259.884,145.226,259.372,150.702,258.676,152.274z"/>
				<path style="fill:#D7DF23;" d="M270.482,82.085c-2.525,3.681-4.626,8.441-2.71,12.579c3.768,8.136,9.794,4.821,4.671,16.573
					c-5.122,11.753-8.889,6.63-8.287,18.231c0.604,11.602,2.713,18.532,6.63,18.382s4.972-15.82,15.218-14.314
					c1.225,0.182,2.292,0.467,3.23,0.811c1.582-4.547,2.451-9.428,2.451-14.513C291.685,103.848,283.197,89.846,270.482,82.085z"/>
				<path style="fill:#D7DF23;" d="M218.504,92.706c3.615,2.109,4.369,1.958,9.04,8.438c4.671,6.479-1.507,7.984-3.014,13.56
					c-1.506,5.575-1.205,9.492,0.904,11.3c2.109,1.809,15.067,1.055,14.163-3.314c-0.904-4.369-1.055-10.246-1.055-15.368
					s3.767-1.808,8.739-3.917c4.973-2.109,4.067-11,4.067-12.656c0-1.658-4.067-7.986-7.081-9.794
					c-1.271-0.763-3.398-2.596-5.433-4.461c-10.306,2.047-19.317,7.677-25.688,15.536C214.613,92.415,216.536,91.558,218.504,92.706
					z"/>
				<path style="fill:#D7DF23;" d="M265.54,104.323c-0.855-1.173-2.32-1.705-3.738-1.676c-0.505,0.011-1.002,0.092-1.466,0.239
					c-2.105,0.673-3.403,2.85-3.662,4.986c-0.222,1.819,0.753,8.287,0.903,8.89c0.15,0.602,0.302,2.26,0.15,3.466
					c-0.081,0.652,1.742-0.253,1.933-0.345c1.165-0.563,2.3-1.182,2.984-2.324c0.759-1.266,0.914-2.805,1.483-4.152
					C265.285,110.67,267.635,107.194,265.54,104.323z"/>
			</g>
			<g>
				<path style="fill:#F9F98F;" d="M284.243,126.604c1.018-0.404,1.665-0.68,1.952-1.819c0.578-2.284-0.664-4.848-2.32-6.369
					c-0.964-0.886-2.209-1.364-3.535-1.189c-0.415,0.056-0.844,0.159-1.273,0.301c-1.791,0.592-3.604,1.87-4.6,3.294
					c-1.042,1.49-0.778,3.344-0.819,5.066c-0.029,1.256-0.104,2.51-0.221,3.762c-0.108,1.183-1.425,3.25,0.146,3.912
					c3.296,1.392,4.481-2.254,6.407-4.28C281.122,128.079,282.722,127.208,284.243,126.604z"/>
				<path style="fill:#F9F98F;" d="M275.409,85.579c-0.748,1.146-1.266,2.634-1.521,3.676c-0.533,2.172,1.211,5.02,3.233,5.797
					c1.717,0.659,1.137,2.271,0.829,3.699c-0.449,2.088-1.214,4.149-1.214,6.31c0,2.386,0.129,3.538,2.809,3.64
					c1.121,0.042,2.346,0.163,2.794-1.066c0.496-1.355,0.232-3.072-0.026-4.457c-0.227-1.205-0.076-1.656,0.3-2.787
					c0.327-0.978,0.754-2.043,0.754-3.088c0-0.83-0.903-2.109-1.28-3.24c-0.297-0.891-0.174-0.944-0.366-2.18
					C279.834,89.575,277.719,87.463,275.409,85.579z"/>
				<path style="fill:#F9F98F;" d="M242.315,140.511c-1.34-0.059-2.551,0.709-3.789,1.094c-0.804,0.248-1.61,0.48-2.414,0.722
					c-0.678,0.203-1.352,0.415-2.02,0.649c-2.921,1.027-5.746,2.594-7.173,5.475c-0.551,1.108,3.487,1.32,3.93,1.35
					c2.074,0.139,4.069-0.436,6.1-0.745c2.12-0.322,4.272-0.394,6.383-0.786c1.863-0.344,3.192-1.393,3.671-3.279
					C247.692,142.283,244.699,140.618,242.315,140.511z"/>
				<path style="fill:#F9F98F;" d="M233.794,91.11c-0.425-0.11-1.093-0.688-1.506-0.658c-2.199,0.152-0.752,3.71,0.014,4.525
					c1.324,1.405,2.896,2.985,4.885,1.494c0.806-0.604,1.632,0.334,2.316,0.703c0.328,0.178,2.561,1.377,2.91,1.104
					c0.929-0.726,2.047-1.414,2.71-2.408c1.542-2.316,1.121-5.586,0.201-8.037c-0.952-2.536-3.645-4.587-6.048-5.662
					c-0.45-0.201-0.919-0.279-1.371-0.254c-1.753,0.098-2.883,1.735-2.325,3.406c0.005,0.012,0.606,1.813,1.507,3.214
					c0.905,1.407,0,1.606-0.1,2.21C236.834,91.657,234.349,91.254,233.794,91.11z"/>
			</g>
		</g>
		<g>
			<path style="opacity:0.2;fill:#212A3C;" d="M213.198,147.704c8.104,9.959,20.452,16.324,34.294,16.324
				c24.408,0,44.193-19.787,44.193-44.194c0-9.917-3.265-19.069-8.78-26.443C271.159,111.49,242.318,150.441,213.198,147.704z"/>
			<path style="opacity:0.2;fill:#212A3C;" d="M216.412,151.247c7.984,7.9,18.96,12.781,31.08,12.781
				c24.408,0,44.193-19.787,44.193-44.194c0-1.63-0.094-3.236-0.266-4.82C278.75,132.611,251.974,161.094,216.412,151.247z"/>
		</g>
		
			<linearGradient id="SVGID_00000021803262165145516590000007564426060282480282_" gradientUnits="userSpaceOnUse" x1="145.3793" y1="-12.9862" x2="163.2133" y2="19.8304" gradientTransform="matrix(0.8183 -0.1424 0.1645 0.8356 109.9286 121.3328)">
			<stop  offset="0" style="stop-color:#FFFFFF"/>
			<stop  offset="1" style="stop-color:#FFFFFF;stop-opacity:0"/>
		</linearGradient>
		<path style="opacity:0.3;fill:url(#SVGID_00000021803262165145516590000007564426060282480282_);" d="M261.155,86.704
			c5.88,9.684-0.448,24.271-14.134,32.58c-13.688,8.311-29.548,7.197-35.427-2.486c-5.881-9.685,0.447-24.271,14.133-32.581
			C239.413,75.906,255.275,77.021,261.155,86.704z"/>
		<path style="opacity:0.3;fill:#FFFFFF;" d="M248.454,85.622c3.511,5.783-0.869,14.859-9.784,20.273
			c-8.916,5.414-18.991,5.113-22.503-0.67c-3.513-5.784,0.867-14.861,9.783-20.275C234.867,79.536,244.941,79.837,248.454,85.622z"
			/>
	</g>
	<g>
		<path style="fill:#FFC585;" d="M373.897,258.901c-53.422,6.632-95.656,22.669-94.331,35.82
			c1.325,13.145,45.708,18.428,99.128,11.794c53.424-6.632,95.656-22.669,94.332-35.816
			C471.7,257.551,427.318,252.271,373.897,258.901z M377.212,300.392c-32.719,4.061-68.106,2.301-69.239-8.961
			c-1.134-11.259,33.026-21.652,65.744-25.718c32.719-4.058,68.102-2.301,69.237,8.963
			C444.09,285.938,409.929,296.331,377.212,300.392z"/>
		<g>
			<g>
				<path style="fill:#F7941E;" d="M434.427,273.995c0,32.457-26.312,58.77-58.771,58.77c-32.457,0-58.77-26.313-58.77-58.77
					c0-32.458,26.313-58.769,58.77-58.769C408.115,215.226,434.427,241.537,434.427,273.995z"/>
				<g>
					<path style="fill:#FBB040;" d="M402.029,243.287c-2.824-0.779-5.746-1.086-8.625-1.586c-6.492-1.133-13.079-2.56-19.706-2.377
						c-3.187,0.088-18.48,1.145-16.179,7.438c0.75,2.049,3.721,2.74,5.516,3.416c4.578,1.723,9.568,2.515,14.436,1.818
						c3.205-0.459,6.232-1.895,9.492-2.02c3.773-0.148,7.547-0.203,11.321-0.236c0.806-0.007,3.798,0.207,6.413-0.004
						c2.445-0.197,4.561-0.763,4.248-2.226C408.426,245.088,404.023,243.837,402.029,243.287z"/>
					<path style="fill:#E05B41;" d="M423.352,239.676c-10.672-14.804-28.052-24.45-47.695-24.45c-17.052,0-32.4,7.27-43.135,18.869
						c12.924-0.48,25.941-0.611,38.569-3.547c3.44-0.801,6.893-1.861,10.482-1.75c8.18,0.254,15.646,3.879,23.108,6.727
						C409.751,237.46,417.124,240.23,423.352,239.676z"/>
					<path style="fill:#E05B41;" d="M419.533,284.285c-2.193-0.232-4.568-0.848-6.768-0.361c-1.524,0.336-4.404,2.067-2.211,3.715
						c0.586,0.44,2.221,0.53,2.939,0.67c4.737,0.914,9.688,1.658,14.48,2.224c1.328,0.156,2.659,0.248,3.991,0.305
						c0.654-2.193,1.181-4.441,1.578-6.733C428.889,284.622,424.197,284.779,419.533,284.285z"/>
					<path style="fill:#E05B41;" d="M421.876,298.176c-2.34-0.059-25.289-4.112-26.048-1.226c-0.636,2.451-2.541,8.265-3.176,9.796
						c-0.637,1.531-6.354,3.367-6.354,3.367s-3.177-0.306-7.623,0.612c-14.536,3.003-28.284-19.027-41.929-9.185
						c-2.545,1.839-8.578,1.227-11.118,2.145c-0.214,0.077-0.403,0.13-0.583,0.174c10.23,17.297,29.061,28.905,50.611,28.905
						c23.566,0,43.88-13.875,53.248-33.895C426.777,298.504,424.434,298.241,421.876,298.176z"/>
					<path style="fill:#FBB040;" d="M363.266,286.307c-3.353-0.075-6.902-0.968-10.22-0.155c-1.955,0.479-5.228,2.167-2.347,4.032
						c1.779,1.153,4.398,0.552,6.4,0.958c2.526,0.513,4.913,1.56,7.252,2.617c5.104,2.308,9.736,4.368,15.518,2.923
						c3.847-0.962,7.347-1.732,9.853-5.104c1.391-1.873,1.976-4.97,3.994-6.319c-2.744-1.59-6.24-0.417-9.111,0.178
						C377.631,286.878,370.338,286.466,363.266,286.307z"/>
					<path style="fill:#F15A29;" d="M333.097,250.285c2.202-0.111,4.645,0.126,6.741-0.697c1.453-0.569,4.027-2.729,1.604-4.015
						c-0.647-0.343-2.274-0.177-3.006-0.202c-4.649-0.16-9.467-0.128-14.129,0.043c-1.211,2.17-2.283,4.427-3.215,6.756
						C325.027,251.184,329.034,250.493,333.097,250.285z"/>
					<path style="fill:#F15A29;" d="M320.228,271.24c4.128,0.918,4.446,0.307,9.847,1.837c5.4,1.529,13.66,1.53,14.93,1.836
						c1.271,0.307,3.813,0.307,4.766,0.307c0.951,0,8.577,0,11.117,0c2.541,0,18.107,0,19.377,0c1.27,0,9.53-0.613,12.07-0.919
						c2.542-0.306,8.894-0.613,8.894-0.613s0.636,0,7.307-0.918c6.671-0.918,13.977-2.141,16.834-0.611
						c1.586,0.849,5.614,1.228,9.051,1.552c-0.016-3.264-0.307-6.46-0.833-9.576l-14.888-3.913l-14.929,1.225
						c0,0-8.259,4.284-10.483,4.896c-2.224,0.613-5.4,0.307-6.989,0.307c-1.587,0-10.163-0.612-10.163-0.612
						s-6.354-1.531-12.072-1.531c-5.717,0-18.742-0.612-20.647,0c-1.906,0.613-6.353,0.613-7.307,0.613c-0.842,0-14.335,0-18.555,0
						c-0.285,1.887-0.48,3.803-0.584,5.744C317.81,270.825,318.783,270.919,320.228,271.24z"/>
				</g>
				<path style="fill:#FBB040;" d="M357.599,256.586c0,1.459-3.306,2.64-7.385,2.64s-7.385-1.181-7.385-2.64
					c0-1.457,3.306-2.64,7.385-2.64S357.599,255.129,357.599,256.586z"/>
				<path style="fill:#FBB040;" d="M420.156,277.82c0,0.929-2.107,1.683-4.706,1.683s-4.706-0.754-4.706-1.683
					c0-0.929,2.107-1.682,4.706-1.682S420.156,276.892,420.156,277.82z"/>
				<path style="fill:#FBB040;" d="M336.135,281.493c0,0.93-2.107,1.683-4.707,1.683c-2.599,0-4.706-0.753-4.706-1.683
					c0-0.928,2.107-1.682,4.706-1.682C334.027,279.811,336.135,280.565,336.135,281.493z"/>
				<path style="fill:#FBB040;" d="M425.3,253.41c0,0.803-1.82,1.452-4.064,1.452c-2.245,0-4.064-0.649-4.064-1.452
					c0-0.803,1.819-1.453,4.064-1.453C423.479,251.957,425.3,252.607,425.3,253.41z"/>
				<path style="fill:#FBB040;" d="M389.335,303.302c0,0.803-1.821,1.453-4.064,1.453c-2.245,0-4.064-0.65-4.064-1.453
					c0-0.802,1.818-1.451,4.064-1.451C387.514,301.851,389.335,302.5,389.335,303.302z"/>
				<path style="fill:#FBB040;" d="M342.044,238.564c0,0.803-1.821,1.453-4.064,1.453c-2.245,0-4.064-0.65-4.064-1.453
					c0-0.803,1.818-1.452,4.064-1.452C340.223,237.112,342.044,237.762,342.044,238.564z"/>
			</g>
			<g>
				<path style="opacity:0.2;fill:#212A3C;" d="M330.164,311.196c10.777,13.163,27.152,21.568,45.492,21.568
					c32.459,0,58.771-26.313,58.771-58.77c0-13.316-4.435-25.593-11.899-35.446C405.672,263.99,368.291,312.724,330.164,311.196z"/>
				<path style="opacity:0.2;fill:#212A3C;" d="M335.318,316.713c10.526,9.943,24.715,16.052,40.338,16.052
					c32.459,0,58.771-26.313,58.771-58.77c0-1.897-0.099-3.77-0.274-5.622C416.348,292.272,381.329,327.547,335.318,316.713z"/>
			</g>
			
				<linearGradient id="SVGID_00000150104092742618273980000001624086220073577137_" gradientUnits="userSpaceOnUse" x1="254.7852" y1="178.1844" x2="280.1502" y2="224.8588" gradientTransform="matrix(0.8183 -0.1424 0.1645 0.8356 109.9286 121.3328)">
				<stop  offset="0" style="stop-color:#FFFFFF"/>
				<stop  offset="1" style="stop-color:#FFFFFF;stop-opacity:0"/>
			</linearGradient>
			<path style="opacity:0.3;fill:url(#SVGID_00000150104092742618273980000001624086220073577137_);" d="M396.655,229.567
				c8.362,13.774-0.638,34.521-20.103,46.34c-19.466,11.82-42.024,10.234-50.387-3.538c-8.363-13.773,0.637-34.52,20.102-46.339
				C365.732,214.21,388.292,215.796,396.655,229.567z"/>
			<path style="opacity:0.3;fill:#FFFFFF;" d="M378.591,228.027c4.995,8.228-1.236,21.137-13.917,28.837
				c-12.68,7.699-27.01,7.272-32.004-0.954c-4.996-8.227,1.234-21.138,13.915-28.837C359.267,219.374,373.596,219.8,378.591,228.027
				z"/>
		</g>
		<path style="fill:#FFC585;" d="M473.025,270.699c-0.747-7.419-15.207-12.333-37.262-14.015c0.209,3.676,0.189,7.376-0.094,11.04
			c4.326,1.712,6.987,4.004,7.284,6.951c1.136,11.262-33.025,21.655-65.742,25.716c-32.719,4.061-68.106,2.301-69.239-8.961
			c-0.266-2.636,1.423-5.223,4.555-7.694c-1.193-3.409-1.494-7.406-1.408-11.147c-20,6.902-32.277,14.948-31.554,22.133
			c1.325,13.145,45.708,18.428,99.128,11.794C432.117,299.884,474.35,283.847,473.025,270.699z"/>
	</g>
	<g>
		<g>
			
				<ellipse transform="matrix(0.9732 -0.2298 0.2298 0.9732 -49.0258 60.7006)" style="fill:#E6E7E8;" cx="236.152" cy="240.881" rx="43.757" ry="43.757"/>
			<g>
				<path style="fill:#D1D3D4;" d="M241.37,253.545c0,5.949,4.823,10.773,10.771,10.773c5.948,0,10.771-4.823,10.771-10.773
					s-4.822-10.771-10.771-10.771C246.193,242.773,241.37,247.596,241.37,253.545z"/>
				<path style="fill:#A7A9AC;" d="M261.816,220.769c0-3.345-2.713-6.057-6.059-6.057c-3.346,0-6.059,2.712-6.059,6.057
					c0,3.348,2.713,6.059,6.059,6.059C259.103,226.828,261.816,224.116,261.816,220.769z"/>
				<path style="fill:#D1D3D4;" d="M265.897,244.457c0,6.65,4.216,12.303,10.113,14.477c2.498-5.506,3.899-11.614,3.899-18.053
					c0-4.007-0.55-7.883-1.559-11.569C271.255,230.704,265.897,236.952,265.897,244.457z"/>
				<path style="fill:#D1D3D4;" d="M206.824,251.988c0-1.349-1.093-2.439-2.441-2.439c-1.348,0-2.44,1.091-2.44,2.439
					c0,1.349,1.093,2.44,2.44,2.44C205.73,254.429,206.824,253.337,206.824,251.988z"/>
				<path style="fill:#D1D3D4;" d="M264.257,233.686c0-1.349-1.092-2.44-2.439-2.44c-1.348,0-2.441,1.092-2.441,2.44
					c0,1.348,1.094,2.44,2.441,2.44C263.165,236.126,264.257,235.034,264.257,233.686z"/>
				<path style="fill:#D1D3D4;" d="M209.353,262.97c0,3.347,2.713,6.057,6.058,6.057c3.346,0,6.06-2.71,6.06-6.057
					s-2.714-6.059-6.06-6.059C212.066,256.911,209.353,259.623,209.353,262.97z"/>
				<path style="fill:#D1D3D4;" d="M232.658,211.597c0,2.139,1.732,3.871,3.87,3.871c2.138,0,3.871-1.732,3.871-3.871
					c0-2.137-1.732-3.869-3.871-3.869C234.39,207.727,232.658,209.46,232.658,211.597z"/>
				<path style="fill:#A7A9AC;" d="M250.472,282.229c-1.246-7.277-7.571-12.822-15.203-12.822c-7.418,0-13.609,5.235-15.097,12.207
					c4.953,1.945,10.338,3.023,15.98,3.023C241.168,284.638,245.983,283.783,250.472,282.229z"/>
				<path style="fill:#A7A9AC;" d="M211.413,239.871c4.554,0,8.247-3.692,8.247-8.247c0-4.554-3.693-8.246-8.247-8.246
					c-4.553,0-8.247,3.692-8.247,8.246C203.165,236.179,206.859,239.871,211.413,239.871z"/>
				<path style="fill:#D1D3D4;" d="M236.956,232.551c0-1.348-1.092-2.439-2.441-2.439c-1.348,0-2.44,1.092-2.44,2.439
					c0,1.349,1.092,2.44,2.44,2.44C235.863,234.991,236.956,233.899,236.956,232.551z"/>
				<path style="fill:#D1D3D4;" d="M229.208,249.886c-2.139,0-3.871,1.732-3.871,3.869c0,2.139,1.732,3.869,3.871,3.869
					c2.137,0,3.87-1.73,3.87-3.869C233.077,251.617,231.345,249.886,229.208,249.886z"/>
			</g>
		</g>
		<g>
			<path style="opacity:0.1;fill:#212A3C;" d="M271.527,215.138c-12.049,18.344-39.31,54.496-67.525,55.415
				c7.995,8.66,19.437,14.085,32.15,14.085c24.166,0,43.757-19.59,43.757-43.757C279.909,231.256,276.794,222.362,271.527,215.138z"
				/>
			<path style="opacity:0.1;fill:#212A3C;" d="M279.822,238.233c-12.841,17.276-37.725,42.605-70.457,37.237
				c7.404,5.742,16.693,9.167,26.787,9.167c24.166,0,43.757-19.59,43.757-43.757C279.909,239.991,279.875,239.109,279.822,238.233z"
				/>
		</g>
		
			<linearGradient id="SVGID_00000125601680102244701520000005082632195693853876_" gradientUnits="userSpaceOnUse" x1="104.6335" y1="124.7302" x2="122.1775" y2="157.013" gradientTransform="matrix(0.8183 -0.1424 0.1645 0.8356 109.9286 121.3328)">
			<stop  offset="0" style="stop-color:#FFFFFF"/>
			<stop  offset="1" style="stop-color:#FFFFFF;stop-opacity:0"/>
		</linearGradient>
		<path style="opacity:0.5;fill:url(#SVGID_00000125601680102244701520000005082632195693853876_);" d="M249.907,207.632
			c5.785,9.527-0.439,23.877-13.904,32.051c-13.462,8.177-29.068,7.08-34.85-2.447c-5.785-9.525,0.44-23.876,13.903-32.05
			C228.52,197.01,244.124,198.106,249.907,207.632z"/>
		<path style="opacity:0.3;fill:#FFFFFF;" d="M237.414,206.566c3.455,5.69-0.854,14.62-9.625,19.946
			c-8.771,5.325-18.683,5.029-22.136-0.66c-3.456-5.689,0.853-14.62,9.624-19.945C224.048,200.581,233.959,200.876,237.414,206.566z
			"/>
	</g>
	<g>
		<g>
			<g>
				<path style="fill:#196EA5;" d="M448.813,131.768c-0.553,38.194-31.963,68.711-70.16,68.159
					c-38.196-0.551-68.712-31.963-68.161-70.157c0.553-38.196,31.963-68.714,70.159-68.161
					C418.848,62.159,449.363,93.571,448.813,131.768z"/>
				<g>
					<path style="fill:#27AAE1;" d="M448.626,125.797c-5.229,0.145-10.433,0.098-15.557-1.229c-8.681-2.25-16.48-7.04-25.229-9.09
						c-11.84-2.775-24.451-3.18-36.52-2.01c-11.934,1.157-23.052,6.293-34.953,7.604c-8.331,0.917-16.783,0.474-25.196,0.083
						c-0.393,2.821-0.636,5.692-0.68,8.615c-0.021,1.483,0.02,2.954,0.093,4.416c3.649,0.053,7.297,0.105,10.946,0.159
						c18.22,0.262,35.813,6.616,53.858,8.588c12.383,1.354,24.88,0.429,37.248-0.678c5.32-0.477,9.815-3.74,15.093-4.244
						c4.496-0.427,9.021-0.491,13.537-0.593c0.532-0.013,3.588,0.012,7.213,0.003c0.18-1.865,0.306-3.748,0.333-5.653
						C448.841,129.755,448.766,127.769,448.626,125.797z"/>
					<path style="fill:#27AAE1;" d="M443.647,157.006c-3.064,0.567-7.393,1.46-9.217,2.264c-2.962,1.304-12.92,2.845-15.876,3.812
						c-2.957,0.967-7.363,0.23-7.363,0.23s-21.336-0.309-22.439-0.324c-1.104-0.017-13.214-2.213-16.132-3.938
						c-2.92-1.725-10.271-2.169-10.271-2.169l-23.864-3.712l-23.395,2.415c2.453,6.372,5.818,12.293,9.946,17.6
						c7.078,0.173,14.03,1.207,17.925,1.263c4.046,0.059,12.86,1.197,17.261,2.27c4.4,1.074,8.087,0.455,9.927,0.481
						c1.84,0.026,18.403-0.409,33.496-0.863c15.092-0.455,8.829,0.127,11.782-0.503c2.951-0.631,7.725,0.111,11.403,0.164
						c2.776,0.04,3.877,0.057,5.201-0.07C436.858,170.333,440.795,163.955,443.647,157.006z"/>
					<path style="fill:#27AAE1;" d="M320.012,95.752c10.843-2.929,28.488-5.993,45.451-1.478
						c27.122,7.219,34.873,5.533,44.469,3.516c9.596-2.016,15.487-2.291,17.695-2.258c1.225,0.018,6.871,0.1,11.652,0.168
						c-3.179-5.394-7.079-10.308-11.554-14.637c-1.465-0.173-2.87-0.305-3.934-0.32c-3.311-0.048-9.19-0.492-14.705-0.932
						c-5.512-0.438-16.528-2.035-18.367-2.061c-1.838-0.027-1.833-0.388-9.185-0.854c-7.353-0.465-19.461-2.795-24.607-3.229
						c-4.974-0.419-8.58-1.481-13.8-1.624C333.645,77.955,325.694,86.096,320.012,95.752z"/>
				</g>
				<path style="fill:#5FB2E0;" d="M415.185,128.89c-0.078,5.485-12.083,9.761-26.814,9.547
					c-14.729-0.213-26.605-4.832-26.527-10.317c0.08-5.485,12.084-9.761,26.814-9.548
					C403.39,118.784,415.266,123.403,415.185,128.89z"/>
				<path style="fill:#A4DBF4;" d="M403.413,128.72c-0.043,3.064-6.749,5.451-14.978,5.333c-8.228-0.12-14.862-2.7-14.817-5.765
					c0.043-3.063,6.749-5.451,14.979-5.332C396.825,123.075,403.458,125.656,403.413,128.72z"/>
				<path style="fill:#5FB2E0;" d="M409.132,89.233c-0.121,3.327-7.461,5.761-16.396,5.437c-8.935-0.324-16.08-3.285-15.959-6.612
					c0.12-3.326,7.462-5.762,16.396-5.437C402.108,82.945,409.253,85.905,409.132,89.233z"/>
				<path style="fill:#A4DBF4;" d="M401.992,88.974c-0.067,1.859-4.167,3.219-9.159,3.037c-4.992-0.182-8.982-1.836-8.915-3.693
					c0.067-1.859,4.166-3.219,9.159-3.037C398.068,85.461,402.06,87.114,401.992,88.974z"/>
				<path style="fill:#A4DBF4;" d="M353.692,83.449c-0.052,1.444-3.238,2.5-7.116,2.36c-3.876-0.141-6.976-1.428-6.924-2.87
					c0.053-1.444,3.237-2.501,7.116-2.358C350.644,80.722,353.745,82.005,353.692,83.449z"/>
				<path style="fill:#5FB2E0;" d="M344.719,129.25c-0.024,1.677-6.056,2.948-13.471,2.841c-7.417-0.107-13.409-1.552-13.385-3.229
					c0.024-1.676,6.057-2.947,13.473-2.84C338.751,126.129,344.744,127.575,344.719,129.25z"/>
				<path style="fill:#5FB2E0;" d="M427.983,169.456c-0.021,1.487-5.371,2.615-11.947,2.52c-6.579-0.095-11.895-1.375-11.872-2.863
					c0.021-1.488,5.371-2.615,11.948-2.52C422.69,166.686,428.005,167.969,427.983,169.456z"/>
				<path style="fill:#A4DBF4;" d="M370.079,166.079c-0.058,2.072-7.534,3.546-16.698,3.293c-9.165-0.254-16.551-2.14-16.494-4.211
					c0.058-2.072,7.536-3.545,16.701-3.292C362.753,162.122,370.136,164.008,370.079,166.079z"/>
			</g>
			<path style="fill:#0E577F;" d="M446.782,147.401c-0.364,1.478-0.767,2.939-1.225,4.377c-1.91-0.045-3.822-0.045-5.729,0.055
				c-4.322,0.228-8.359,1.559-12.614,2.174c-5.877,0.854-12.426,1.656-18.365,1.654c-4.089,0-8.155-0.543-12.222-0.92
				c-3.43-0.316-7.144,0.098-10.503-0.699c-6.559-1.555-13.613-2.838-20.301-3.69c-8.316-1.057-16.786-2.782-25.126-3.402
				c-5.695-0.421-11.699-0.813-17.396-0.827c-3.4-0.01-6.767,0.057-10.16,0.12c-0.298,0.004-0.599,0.01-0.898,0.015
				c-0.184-0.802-0.367-1.604-0.521-2.417c5.82,0.01,11.833,0.715,17.476,1.082c11.459,0.747,22.901,1.791,34.384,2.104
				c5.978,0.162,11.582,1.766,17.466,2.601c4.138,0.587,7.938,1.177,12.1,0.974c6.535-0.318,13.073,0.063,19.607,0.223
				c6.008,0.148,11.905-0.488,17.892-0.561C436.107,150.194,441.478,148.744,446.782,147.401z M333.349,107.66
				c4.736-0.653,8.892-1.382,13.732-1.29c8.813,0.168,17.614,0.364,26.422,0.592c13.664,0.354,27.331-1.053,40.901,1.211
				c4.668,0.779,9.155,2.476,13.912,2.848c5.483,0.428,11.769-0.99,17.111,0.277c0.153,0.037,0.382,0.07,0.639,0.102
				c-0.521-1.791-1.128-3.546-1.787-5.274c-15.08,0.21-30.319-0.753-45.262-2.32c-7.93-0.831-15.902-1.966-23.862-2.438
				c-16.14-0.952-32.301-0.45-48.456-0.638c-3.087-0.035-6.173-0.104-9.261-0.193c-1.619,3.329-2.973,6.807-4.047,10.409
				C320.05,110.109,326.727,108.575,333.349,107.66z M358.681,64.858l10.849,2.477c0,0,7.539,0.293,8.275,0.303
				c0.735,0.012,11.94,1.277,13.041,1.477c1.101,0.2,10.634,2.545,11.369,2.557c0.736,0.01,6.614,0.646,7.901,0.666
				c1.075,0.015,5.607,0.338,7.391,0.555c-10.605-6.951-23.237-11.087-36.856-11.283C372.986,61.497,365.603,62.656,358.681,64.858z
				 M395.269,183.241c-0.552-0.007-6.078,0.465-6.817,0.637c-0.739,0.176-8.854,1.713-8.854,1.713s-8.457-0.49-9.009-0.498
				c-0.552-0.008-8.093-0.117-10.298-0.333c-2.204-0.216-15.98-1.702-15.98-1.702l-10.08-0.146
				c11.902,10.38,27.393,16.769,44.422,17.015c16.786,0.242,32.258-5.518,44.381-15.291c-0.004-0.045-0.005-0.074-0.005-0.074
				s-9.553-0.873-10.105-0.88c-0.551-0.009-7.541-0.108-8.461-0.123C403.543,183.546,395.819,183.251,395.269,183.241z"/>
		</g>
		<g>
			<path style="opacity:0.2;fill:#212A3C;" d="M435.97,90.625c-20.197,29.552-64.64,85.834-109.339,84.53
				c12.47,14.881,31.084,24.469,52.021,24.771c38.197,0.552,69.607-29.965,70.16-68.159
				C449.034,116.44,444.243,102.212,435.97,90.625z"/>
			<path style="opacity:0.2;fill:#212A3C;" d="M448.69,126.849c-21.367,27.604-62.381,67.318-115.216,55.389
				c11.999,10.775,27.786,17.438,45.179,17.689c38.197,0.552,69.607-29.965,70.16-68.159
				C448.836,130.112,448.781,128.476,448.69,126.849z"/>
		</g>
		
			<linearGradient id="SVGID_00000119084867867933796180000016478531523255554490_" gradientUnits="userSpaceOnUse" x1="285.8252" y1="14.2992" x2="316.2952" y2="70.3672" gradientTransform="matrix(0.8203 -0.1306 0.1524 0.8378 110.3393 107.4416)">
			<stop  offset="0" style="stop-color:#FFFFFF"/>
			<stop  offset="1" style="stop-color:#FFFFFF;stop-opacity:0"/>
		</linearGradient>
		<path style="opacity:0.3;fill:url(#SVGID_00000119084867867933796180000016478531523255554490_);" d="M405.82,77.687
			c9.803,16.688-1.365,41.449-24.95,55.307c-23.584,13.859-50.65,11.563-60.455-5.123c-9.805-16.688,1.364-41.449,24.947-55.307
			S396.013,60.999,405.82,77.687z"/>
		<path style="opacity:0.3;fill:#FFFFFF;" d="M384.149,75.523c5.855,9.966-1.852,25.364-17.216,34.392
			c-15.363,9.029-32.565,8.266-38.42-1.7c-5.858-9.968,1.848-25.364,17.213-34.394C361.091,64.793,378.292,65.555,384.149,75.523z"
			/>
	</g>
	<g>
		<g>
			<path style="fill:#F7941E;" d="M166.708,275.81c0,32.216-26.117,58.333-58.333,58.333c-32.217,0-58.334-26.117-58.334-58.333
				s26.117-58.334,58.334-58.334C140.591,217.476,166.708,243.594,166.708,275.81z"/>
			<g>
				<path style="fill:#F15A29;" d="M132.573,254.204c-4.754-2.161-5.617-3.889-10.803-3.457c-8.211,0.433-15.124,6.049-23.766,5.184
					c-9.074-0.863-15.987-4.752-25.493-2.593c-6.051,1.73-6.481,1.73-12.964,0.865c-1.551-0.222-3.3-0.387-5.16-0.497
					c-2.795,6.817-4.347,14.278-4.347,22.103c0,32.216,26.117,58.333,58.334,58.333c32.216,0,58.333-26.117,58.333-58.333
					c0-7.099-1.27-13.898-3.592-20.191C153.83,260.145,142.737,259.286,132.573,254.204z"/>
			</g>
			<g>
				<path style="fill:#EA3232;" d="M115.721,295.254c-6.049,3.456-12.099,2.593-19.013,3.89
					c-14.26,2.593-19.444-8.644-31.975-10.804c-4.753-0.863-8.21-0.863-12.963-2.593c-0.3-0.074-0.607-0.161-0.913-0.248
					c4.617,27.603,28.604,48.644,57.518,48.644c32.216,0,58.333-26.117,58.333-58.333c0-0.265-0.017-0.523-0.019-0.788
					c-9.5,2.297-20.257,8.237-27.635,11.591C130.845,290.5,123.93,290.933,115.721,295.254z"/>
			</g>
			<path style="fill:#F15A29;" d="M68.731,233.032c1.165-1.081,2.378-2.109,3.63-3.094c1.475,0.031,3.174,0.069,3.174,0.069
				s5.078,0,5.509,0c0.433,0,13.936-0.217,13.936-0.217s2.592-0.324,3.025-0.324c0.317,0,3.731,0.118,5.517,0.181
				c0.641,0.02,1.073,0.036,1.073,0.035c0,0-1.837,0.108-3.457,0.432c-1.621,0.324-3.566,0.757-4.105,0.865
				c-0.539,0.107-1.404,0-2.376,0.107c-0.972,0.107-2.484,0.324-3.673,0.648c-1.188,0.324-2.917,0.216-3.889,0.433
				c-0.973,0.216-2.054,0.323-4.105,0.431c-2.052,0.109-6.049,0.434-7.237,0.434c-1.188,0-3.564,0-4.104,0
				C71.136,233.032,70.036,233.032,68.731,233.032z"/>
			<path style="fill:#F15A29;" d="M142.402,321.18c-3.192-0.082-10.427-0.974-17.024-0.974c-6.598,0-14.259,0.648-14.259,0.648
				s6.598,0.973,9.684,0.973c3.086,0,5.108,0,6.598,0c1.489,0,3.617,0.567,5.745,0.648c2.127,0.082,7.129-0.08,7.129-0.08
				s1.482-0.088,3.476-0.212c0.515-0.393,1.026-0.791,1.527-1.201C144.21,321.117,143.208,321.199,142.402,321.18z"/>
			<path style="fill:#F15A29;" d="M145.933,246.375c-0.55,0.053-2.529,0.285-4.174,0.441c-1.645,0.159-3.483,0.081-3.483,0.081
				c0-0.001,0.428,0.058,1.063,0.143c1.771,0.244,5.154,0.707,5.472,0.738c0.431,0.044,3.042-0.016,3.042-0.016
				s8.545,0.733,12.23,1.053c-0.476-0.91-0.973-1.81-1.495-2.691c-1.155-0.031-1.932-0.011-2.649,0.074
				c-0.99,0.116-2.696-0.166-3.914,0.036c-1.216,0.2-2.74,0.263-3.719,0.272C147.327,246.517,146.479,246.321,145.933,246.375z"/>
			<path style="fill:#F15A29;" d="M90.2,239.216c0,0,5.023,0.973,7.372,0.973c2.351,0,3.89,0,5.023,0
				c1.135,0,2.754,0.566,4.375,0.646c1.621,0.082,5.429-0.08,5.429-0.08s7.372-0.566,9.884-0.891
				c2.512-0.324,4.052-0.162,6.157-0.324c2.107-0.162,2.431-0.08,4.618-0.08s2.917,0.323,4.861,0.323
				c1.945,0,2.35,0.081,4.456,0.081c2.106,0,2.674-0.244,3.321-0.244c0.648,0,1.459,0,2.107-0.16
				c0.647-0.164-1.216-0.568-1.216-0.568s-2.269,0-2.593,0c-0.323,0-0.647,0-1.296-0.081c-0.648-0.081-1.944-0.081-1.944-0.081
				s-8.67-0.648-8.912-0.648c-0.243,0-8.669,0-9.642,0c-0.972,0-5.752,1.539-8.183,1.459c-2.43-0.08-7.94-0.972-12.963-0.972
				C96.033,238.568,90.2,239.216,90.2,239.216z"/>
			<g>
				<path style="fill:#F7941E;" d="M166.234,268.415c-1.859-0.157-4.643-0.391-4.759-0.388c-0.174,0.008-6.207,0.224-6.904,0.247
					c-0.697,0.024-4.055,1.939-5.8,1.905c-1.744-0.031-5.727-0.929-9.323-0.8c-3.598,0.128-7.747,1.03-7.747,1.03
					s3.637,1.003,5.318,0.943c1.683-0.06,2.787-0.101,3.597-0.128c0.814-0.03,1.997,0.59,3.162,0.644
					c1.163,0.054,3.884-0.233,3.884-0.233s5.255-0.85,7.04-1.288c1.787-0.443,2.895-0.294,4.397-0.536
					c1.501-0.241,1.735-0.155,3.302-0.211c1.567-0.057,2.104,0.303,3.496,0.253c0.183-0.007,0.346-0.01,0.497-0.013
					C166.347,269.363,166.294,268.888,166.234,268.415z"/>
				<path style="fill:#F7941E;" d="M64.436,267.572c0,0,5.023,0.973,7.374,0.973c2.349,0,3.888,0,5.022,0
					c1.134,0,2.755,0.567,4.375,0.648c1.62,0.082,5.428-0.08,5.428-0.08s7.373-0.567,9.885-0.892
					c2.512-0.324,4.051-0.162,6.157-0.324c2.106-0.163,2.431-0.081,4.618-0.081s2.916,0.324,4.86,0.324
					c1.945,0,2.351,0.081,4.457,0.081c2.105,0,2.673-0.243,3.321-0.243s1.459,0,2.106-0.162c0.648-0.162-1.216-0.567-1.216-0.567
					s-2.269,0-2.592,0c-0.324,0-0.648,0-1.296-0.081c-0.649-0.081-1.944-0.081-1.944-0.081s-8.669-0.647-8.913-0.647
					c-0.242,0-8.669,0-9.641,0c-0.973,0-5.752,1.539-8.183,1.458c-2.431-0.081-7.939-0.973-12.963-0.973
					C70.27,266.924,64.436,267.572,64.436,267.572z"/>
				<path style="fill:#F7941E;" d="M113.017,286.612c1.347,0,1.795,0.323,2.991,0.323c1.198,0,1.447,0.081,2.744,0.081
					c1.295,0,1.645-0.243,2.044-0.243c0.398,0,0.897,0,1.298-0.161c0.399-0.162-0.749-0.567-0.749-0.567s-1.396,0-1.596,0
					s-0.398,0-0.798-0.082c-0.399-0.08-1.197-0.08-1.197-0.08s-5.336-0.648-5.485-0.648c-0.149,0-5.336,0-5.935,0
					s-3.541,1.539-5.036,1.458c-1.497-0.08-4.889-0.972-7.98-0.972c-3.093,0-6.683,0.647-6.683,0.647s3.092,0.974,4.538,0.974
					c1.447,0,2.394,0,3.092,0c0.698,0,1.697,0.565,2.694,0.647c0.998,0.08,3.34-0.082,3.34-0.082s4.538-0.565,6.084-0.891
					c1.548-0.324,2.494-0.162,3.79-0.324C111.47,286.53,111.67,286.612,113.017,286.612z"/>
			</g>
			<path style="fill:#F15A29;" d="M120.077,309.729c2.767-0.163,3.191-0.082,6.065-0.082c2.873,0,3.83,0.324,6.385,0.324
				c2.554,0,3.084,0.081,5.851,0.081c2.766,0,3.513-0.243,4.364-0.243c0.85,0,1.914,0,2.766-0.162
				c0.852-0.162-1.595-0.567-1.595-0.567s-2.98,0-3.406,0c-0.427,0-0.851,0-1.702-0.08c-0.853-0.082-2.555-0.082-2.555-0.082
				s-11.384-0.647-11.705-0.647c-0.318,0-11.385,0-12.66,0c-1.278,0-7.556,1.539-10.748,1.459
				c-3.193-0.082-10.429-0.974-17.026-0.974c-6.596,0-14.257,0.648-14.257,0.648s6.598,0.973,9.683,0.973c3.087,0,5.108,0,6.598,0
				c1.488,0,3.616,0.567,5.745,0.647c2.128,0.082,7.129-0.08,7.129-0.08s9.683-0.567,12.982-0.892
				C115.289,309.729,117.311,309.891,120.077,309.729z"/>
			<path style="fill:#F15A29;" d="M161.087,294.69c-2.043,0.211-3.117,0.374-4.078,0.64c-0.96,0.266-2.69,0.246-3.862,0.63
				c-1.171,0.385-2.668,0.677-3.634,0.833c-0.967,0.159-1.833,0.096-2.366,0.23c-0.536,0.137-2.456,0.667-4.058,1.072
				c-1.604,0.406-3.431,0.607-3.431,0.607c0-0.001,0.431-0.007,1.073-0.018c1.785-0.028,5.202-0.085,5.52-0.101
				c0.432-0.024,3.004-0.48,3.004-0.48s10.84-0.726,13.383-0.894c0.366-0.928,0.71-1.867,1.03-2.819
				C162.709,294.507,161.783,294.617,161.087,294.69z"/>
			<path style="fill:#F15A29;" d="M83.89,322.994c0.977-0.056,1.833,0.1,2.377,0.021c0.546-0.078,2.512-0.402,4.147-0.637
				c1.636-0.234,3.475-0.24,3.475-0.24c0,0.001-0.429-0.038-1.069-0.095c-1.778-0.161-5.181-0.468-5.497-0.483
				c-0.434-0.025-3.039,0.156-3.039,0.156s-8.945-0.35-12.502-0.493c1.107,0.894,2.248,1.747,3.42,2.56
				c0.392-0.03,0.743-0.073,1.077-0.129c0.982-0.162,2.702,0.043,3.907-0.215C81.392,323.18,82.911,323.048,83.89,322.994z"/>
		</g>
		<g>
			<path style="opacity:0.2;fill:#212A3C;" d="M155.871,241.966c-17.743,25.597-54.193,70.751-91.377,72.257
				c10.691,12.203,26.381,19.92,43.881,19.92c32.216,0,58.333-26.117,58.333-58.333
				C166.708,263.188,162.685,251.512,155.871,241.966z"/>
			<path style="opacity:0.2;fill:#212A3C;" d="M166.661,273.971c-18.48,23.222-51.932,54.364-94.705,47.392
				c9.983,7.99,22.639,12.78,36.419,12.78c32.216,0,58.333-26.117,58.333-58.333C166.708,275.193,166.681,274.583,166.661,273.971z"
				/>
		</g>
		
			<linearGradient id="SVGID_00000044863138321707820440000014216507874076450223_" gradientUnits="userSpaceOnUse" x1="-62.2449" y1="145.3465" x2="-35.3887" y2="194.7648" gradientTransform="matrix(0.8203 -0.1306 0.1524 0.8378 110.3393 107.4416)">
			<stop  offset="0" style="stop-color:#FFFFFF"/>
			<stop  offset="1" style="stop-color:#FFFFFF;stop-opacity:0"/>
		</linearGradient>
		<path style="opacity:0.3;fill:url(#SVGID_00000044863138321707820440000014216507874076450223_);" d="M133.291,233.459
			c8.643,14.709-1.201,36.532-21.99,48.746c-20.787,12.216-44.644,10.191-53.285-4.516c-8.642-14.708,1.203-36.533,21.989-48.747
			C100.79,216.73,124.647,218.75,133.291,233.459z"/>
		<path style="opacity:0.3;fill:#FFFFFF;" d="M114.192,231.552c5.16,8.785-1.634,22.356-15.176,30.313
			c-13.541,7.956-28.702,7.285-33.862-1.5c-5.164-8.785,1.628-22.355,15.172-30.313C93.867,222.095,109.029,222.766,114.192,231.552
			z"/>
	</g>
	<g>
		<path style="fill:#FFF4E9;" d="M240.169,346.389c-53.422,6.632-95.656,22.669-94.331,35.82
			c1.325,13.144,45.708,18.428,99.127,11.794c53.426-6.632,95.658-22.669,94.334-35.816
			C337.973,345.038,293.592,339.759,240.169,346.389z M243.748,390.492c-37.651,4.674-78.372,2.647-79.676-10.311
			c-1.305-12.956,38.005-24.916,75.653-29.594c37.652-4.67,78.367-2.647,79.675,10.313
			C320.707,373.859,281.397,385.819,243.748,390.492z M240.813,352.786c-39.067,4.85-69.953,16.577-68.984,26.195
			c0.969,9.612,33.426,13.476,72.491,8.625c39.07-4.851,69.955-16.578,68.986-26.192
			C312.338,351.799,279.881,347.938,240.813,352.786z M243.431,385.039c-27.534,3.418-57.313,1.936-58.267-7.541
			c-0.954-9.475,27.792-18.221,55.325-21.642c27.535-3.415,57.31-1.937,58.265,7.542
			C299.711,372.875,270.963,381.621,243.431,385.039z"/>
		<g>
			<ellipse style="fill:#DB8231;" cx="285.496" cy="383.662" rx="1.125" ry="0.664"/>
			<g>
				<path style="fill:#FED09E;" d="M294.986,367.162c0,28.719-23.281,52-52.002,52c-28.718,0-52-23.281-52-52
					c0-28.719,23.281-52,52-52C271.705,315.162,294.986,338.443,294.986,367.162z"/>
				<g>
					<path style="fill:#DB8231;" d="M235.052,405.122c-5.217-1.311-10.014-0.576-15.126,0.763
						c-3.831,1.003-8.155-1.156-12.303-0.611c9.28,8.614,21.702,13.889,35.361,13.889c10.043,0,19.414-2.854,27.363-7.783
						c-0.627-0.192-1.266-0.384-1.932-0.567c-5.096-1.406-10.863-1.457-16.094-2.287
						C246.525,407.604,240.746,406.551,235.052,405.122z"/>
					<path style="fill:#DB8231;" d="M275.516,373.246c-2.473-0.851-4.791-2.021-7.309-2.77c-2.984-0.887-6.408-0.654-9.484-0.798
						c-6.518-0.303-12.287-2.336-18.613-3.475c-4.814-0.866-9.671,0.176-14.32,1.398c-3.091,0.813-6.085,1.604-9.296,1.78
						c-3.198,0.176-6.25-0.225-9.455,0.335c-5.284,0.921-10.498,1.835-15.801,2.564c0.163,1.663,0.408,3.302,0.724,4.915
						c0.714-0.078,1.423-0.153,2.119-0.232c5.161-0.58,10.167-1.875,15.303-2.563c5.51-0.738,10.598-0.108,16.094-1.536
						c6.659-1.729,12.098-2.443,18.782-0.51c5.404,1.565,10.676,2.146,16.289,2.406c3.248,0.151,6.229,0.389,9.299,1.522
						c2.461,0.908,4.764,2.016,7.314,2.68c4.764,1.24,9.957-0.723,14.482-2.025c0.852-0.245,1.69-0.439,2.516-0.591
						c0.309-1.734,0.531-3.497,0.664-5.286C288.299,372.391,282.176,375.538,275.516,373.246z"/>
					<path style="fill:#FFE1C5;" d="M278.537,388.092c-5.844-1.41-11.873-0.984-17.766-2.449c-4.986-1.24-11.654-4.19-16.846-2.833
						c-1.789,0.468-3.344,1.278-4.928,2.211c-1.898,1.118-5.441-0.878-7.861-0.286c-2.313,0.565-4.363,1.693-6.611,2.445
						c-2.306,0.772-6.073-1.18-8.367-1.632c-5.841-1.15-11.919,1.162-17.411,2.913c-0.931,0.297-1.861,0.599-2.792,0.9
						c1.45,3.067,3.191,5.971,5.188,8.673c4.515-1.675,9.466-3.412,13.748-2.568c4.826,0.95,8.72,2.553,13.65,0.903
						c2.643-0.884,3.995-2.143,6.855-1.145c2.378,0.83,5.53,0.027,7.686-1.075c2.131-1.091,2.727-1.717,5.199-1.285
						c2.771,0.483,5.496,1.277,8.213,1.999c6.027,1.602,11.811,1.736,17.908,2.589c3.07,0.43,6.012,1.368,8.885,2.563
						c2.066-2.531,3.9-5.258,5.467-8.153C285.478,390.313,282.119,388.955,278.537,388.092z"/>
					<path style="fill:#F9B673;" d="M256.152,324.965c4.986-0.321,10.051-1.155,15.088-1.446
						c-8.137-5.279-17.834-8.356-28.256-8.356c-9.453,0-18.309,2.535-25.948,6.944c4.517,0.688,9.054,0.96,12.779,1.391
						C236.594,324.279,247.634,325.513,256.152,324.965z"/>
					<path style="fill:#DB8231;" d="M198.224,340.7c4.687-1.115,9.561-1.631,14.255-2.021c4.651-0.387,8.766,0.385,13.349,0.983
						c5.352,0.698,10.547,0.511,15.89-0.169c2.211-0.281,4.413-0.627,6.614-0.973c3.21-0.503,5.188,0.39,8.166,1.463
						c4.461,1.607,9.44,1.818,14.131,1.915c5.059,0.104,9.922,0.823,14.949,1.264c1.184,0.103,2.338,0.042,3.477-0.114
						c-1.918-3.654-4.256-7.05-6.951-10.127c-3.814-0.368-7.594-0.993-11.475-1.022c-5.203-0.04-9.785-0.869-14.639-2.733
						c-5.16-1.982-10.742-0.121-15.995,0.547c-10.29,1.309-20.139-1.739-30.439-0.774c-0.675,0.064-1.352,0.132-2.029,0.204
						C203.904,332.522,200.765,336.412,198.224,340.7z"/>
					<path style="fill:#FFE1C5;" d="M268.363,351.296c-6.033-1.597-11.66-3.313-17.953-3.403c-6.33-0.093-12.849,0.041-19.165,0.424
						c-3.052,0.186-5.946,1.013-8.866,1.858c-3.393,0.982-6.496,0.993-10.02,0.899c-6.221-0.164-12.673,0.144-19.095,0.827
						c-0.262,0.855-0.501,1.722-0.719,2.595c6.658-0.748,13.369-1.092,19.814-0.922c5.281,0.14,8.995-0.484,14.042-1.969
						c6.404-1.884,13.909-0.896,20.524-1.144c11.883-0.443,22.498,4.956,34.313,4.993c4.227,0.014,8.375-0.109,12.478,0.309
						c-0.189-0.853-0.402-1.696-0.633-2.532c-1.586-0.186-3.184-0.303-4.799-0.329C281.445,352.789,275.06,353.067,268.363,351.296z
						"/>
				</g>
				<ellipse style="fill:#DB8231;" cx="281.996" cy="361.329" rx="3" ry="1.77"/>
				<ellipse style="fill:#DB8231;" cx="207.953" cy="359.162" rx="3" ry="1.77"/>
				<ellipse style="fill:#DB8231;" cx="271.203" cy="383.412" rx="3" ry="1.77"/>
				<ellipse style="fill:#DB8231;" cx="235.453" cy="320.162" rx="3" ry="1.77"/>
				<ellipse style="fill:#DB8231;" cx="249.016" cy="404.037" rx="1.813" ry="1.069"/>
				<ellipse style="fill:#DB8231;" cx="248.016" cy="355.287" rx="1.813" ry="1.069"/>
				<ellipse style="fill:#DB8231;" cx="220.765" cy="379.912" rx="1.813" ry="1.069"/>
				<ellipse style="fill:#DB8231;" cx="269.016" cy="329.037" rx="1.125" ry="0.664"/>
				<ellipse style="fill:#DB8231;" cx="222.161" cy="325.829" rx="1.125" ry="0.664"/>
				<ellipse style="fill:#DB8231;" cx="229.495" cy="358.662" rx="1.125" ry="0.664"/>
				<path style="fill:#DB8231;" d="M263.787,363.995c0,0.367-0.502,0.664-1.125,0.664c-0.621,0-1.125-0.297-1.125-0.664
					c0-0.367,0.504-0.664,1.125-0.664C263.285,363.331,263.787,363.628,263.787,363.995z"/>
				<ellipse style="fill:#DB8231;" cx="274.828" cy="345.329" rx="1.125" ry="0.664"/>
				<path style="fill:#DB8231;" d="M244.619,377.829c0,0.367-0.502,0.664-1.125,0.664c-0.621,0-1.124-0.297-1.124-0.664
					s0.503-0.664,1.124-0.664C244.117,377.165,244.619,377.462,244.619,377.829z"/>
				<ellipse style="fill:#DB8231;" cx="234.828" cy="401.162" rx="1.125" ry="0.664"/>
				<path style="fill:#DB8231;" d="M266.287,403.495c0,0.367-0.502,0.664-1.125,0.664c-0.621,0-1.125-0.297-1.125-0.664
					c0-0.367,0.504-0.664,1.125-0.664C265.785,402.831,266.287,403.128,266.287,403.495z"/>
				<ellipse style="fill:#DB8231;" cx="205.161" cy="381.162" rx="1.125" ry="0.664"/>
				<path style="fill:#DB8231;" d="M209.12,344.495c0,0.367-0.503,0.664-1.125,0.664c-0.622,0-1.125-0.297-1.125-0.664
					c0-0.367,0.503-0.664,1.125-0.664C208.617,343.831,209.12,344.128,209.12,344.495z"/>
				<path style="fill:#DB8231;" d="M250.953,343.326c0,0.367-0.504,0.664-1.125,0.664c-0.623,0-1.125-0.297-1.125-0.664
					s0.502-0.664,1.125-0.664C250.449,342.662,250.953,342.959,250.953,343.326z"/>
			</g>
			<g>
				<path style="opacity:0.2;fill:#212A3C;" d="M284.596,335.973c-16.895,23.769-48.232,61.134-80.739,65.418
					c9.532,10.887,23.522,17.772,39.128,17.772c28.721,0,52.002-23.281,52.002-52C294.986,355.46,291.119,344.662,284.596,335.973z"
					/>
				<path style="opacity:0.2;fill:#212A3C;" d="M294.957,366.006c-17.127,20.719-45.988,46.27-82.483,43.253
					c8.571,6.224,19.109,9.903,30.511,9.903c28.721,0,52.002-23.281,52.002-52C294.986,366.774,294.965,366.392,294.957,366.006z"/>
			</g>
		</g>
		<path style="fill:#FFF4E9;" d="M339.299,358.186c-0.842-8.346-19.033-13.52-45.869-14.491c0.568,1.893,1.307,3.783,1.902,5.677
			c13.895,1.671,23.445,5.36,24.068,11.528c1.307,12.959-38.004,24.919-75.652,29.592c-37.651,4.674-78.372,2.647-79.676-10.311
			c-0.652-6.479,8.854-12.71,23.231-17.905c0.033-1.847,0.258-3.664,0.498-5.486c-26.044,7.535-42.806,17.061-41.963,25.42
			c1.325,13.144,45.708,18.428,99.127,11.794C298.391,387.371,340.623,371.334,339.299,358.186z"/>
		<path style="fill:#FFF4E9;" d="M296.082,352.353c0.021,0.119,0.055,0.239,0.074,0.358c0.377,2.391,0.506,4.624,0.254,6.901
			c1.375,1.084,2.199,2.34,2.344,3.785c0.957,9.477-27.791,18.223-55.323,21.641c-27.534,3.418-57.313,1.936-58.267-7.541
			c-0.223-2.216,1.195-4.391,3.826-6.469c-0.697-1.737-1.217-3.541-1.488-5.397c-10.169,4.337-16.105,9.054-15.673,13.35
			c0.969,9.612,33.426,13.476,72.491,8.625c39.07-4.851,69.955-16.578,68.986-26.192
			C312.883,357.214,306.449,354.111,296.082,352.353z"/>
		<g>
			
				<linearGradient id="SVGID_00000155848600165792446950000001726949486286401416_" gradientUnits="userSpaceOnUse" x1="214.1732" y1="324.7118" x2="245.7848" y2="363.7488">
				<stop  offset="0" style="stop-color:#FFFFFF"/>
				<stop  offset="1" style="stop-color:#FFFFFF;stop-opacity:0"/>
			</linearGradient>
			<path style="opacity:0.5;fill:url(#SVGID_00000155848600165792446950000001726949486286401416_);" d="M260.244,326.447
				c6.949,11.828-0.965,29.376-17.684,39.197c-16.714,9.822-35.897,8.194-42.846-3.631c-6.949-11.827,0.967-29.377,17.682-39.197
				C234.109,312.995,253.293,314.62,260.244,326.447z"/>
			<path style="opacity:0.4;fill:#FFFFFF;" d="M244.887,324.913c4.148,7.064-1.314,17.978-12.203,24.376
				c-10.889,6.397-23.08,5.858-27.229-1.206c-4.152-7.064,1.309-17.977,12.2-24.375
				C228.543,317.309,240.735,317.849,244.887,324.913z"/>
		</g>
	</g>
	<g>
		<g>
			<circle style="fill:#EA3232;" cx="396.081" cy="388.678" r="38.25"/>
			<path style="fill:#F15A29;" d="M396.081,350.428c-16.518,0-30.59,10.471-35.941,25.137c4.871-1.376,8.959-0.687,12.858,1.696
				c4.5,2.75,10.5-0.666,14.833-8.833c4.333-8.167,7.75,1.417,12.75,7.25s7.583-3.417,5.583-11.833
				c-0.287-1.208-1.103-4.901,0.818-5.249c2.148-0.389,3.976,1.566,5.434,2.839c1.745,1.523,3.492,3.163,5.583,4.204
				c2.337,1.164,4.933,1.912,7.457,2.545c0.609,0.152,1.219,0.304,1.832,0.44c0.225,0.05,1.458,0.146,1.561,0.316
				C422.151,357.846,409.983,350.428,396.081,350.428z"/>
			<path style="opacity:0.2;fill:#212A3C;" d="M405.685,425.711c3.885-1.005,7.525-2.612,10.828-4.704
				c0.878-0.592,1.733-1.221,2.564-1.884c2.938-2.348,5.642-5.049,7.975-8.008c4.575-6.304,7.28-14.053,7.28-22.438
				c0-1.548-0.103-3.07-0.281-4.569c-0.595,1.473-1.457,3.557-1.716,4.192c-1.258,3.093-1.702,7.132-4.725,9.127
				c-0.912,0.602-2.484,0.465-3.385-0.147c-2.478-1.683-3.667-4.729-4.877-7.337c-0.665-1.433-1.25-2.882-1.759-4.377
				c-0.245-0.722-0.537-1.44-0.735-2.177c-0.008-0.028-0.014-0.059-0.022-0.087c0.922,4.418,2.681,12.64-0.893,16.378
				c-7.422,7.764-18.573-2.513-21.212-9.77c-1.09-2.998-1.92-6.666-2.021-9.858c0.34,10.772-9.559,19.168-18.897,22.595
				c-2.713,0.996-7.165,1.766-9.969,0.698c-1.162-0.442-3.873-1.968-4.271-3.24c0.017,0.055,0.037,0.107,0.054,0.162
				c0.15,0.467,0.306,0.931,0.471,1.391c0.081,0.225,0.169,0.445,0.254,0.668c0.119,0.311,0.24,0.622,0.366,0.93
				c0.097,0.233,0.196,0.465,0.298,0.696c0.129,0.297,0.263,0.591,0.399,0.884c0.104,0.224,0.208,0.448,0.317,0.67
				c0.157,0.32,0.321,0.636,0.487,0.951c0.097,0.184,0.189,0.369,0.288,0.551c0.259,0.473,0.526,0.939,0.805,1.399
				c0.106,0.177,0.22,0.35,0.329,0.524c0.189,0.303,0.381,0.604,0.578,0.901c0.132,0.198,0.267,0.394,0.402,0.589
				c0.188,0.272,0.381,0.543,0.576,0.81c0.14,0.191,0.279,0.381,0.423,0.568c0.214,0.283,0.435,0.56,0.657,0.837
				c0.129,0.161,0.256,0.324,0.388,0.482c0.348,0.418,0.702,0.829,1.066,1.23c0.097,0.107,0.199,0.21,0.298,0.316
				c0.283,0.306,0.569,0.608,0.862,0.904c0.151,0.154,0.307,0.304,0.462,0.454c0.251,0.246,0.504,0.488,0.762,0.727
				c0.164,0.152,0.329,0.303,0.495,0.451c0.27,0.241,0.543,0.477,0.819,0.709c0.155,0.132,0.309,0.265,0.466,0.393
				c0.373,0.305,0.752,0.603,1.136,0.894c0.064,0.048,0.125,0.098,0.189,0.146c0.443,0.331,0.896,0.65,1.354,0.963
				c0.156,0.106,0.316,0.208,0.474,0.313c0.316,0.209,0.636,0.415,0.959,0.614c0.18,0.111,0.36,0.22,0.542,0.328
				c0.319,0.191,0.642,0.375,0.966,0.556c0.176,0.098,0.351,0.196,0.528,0.291c0.386,0.207,0.776,0.406,1.171,0.6
				c0.116,0.058,0.23,0.118,0.347,0.175c0.509,0.244,1.024,0.477,1.545,0.698c0.145,0.062,0.291,0.117,0.436,0.177
				c0.386,0.159,0.773,0.314,1.165,0.46c0.191,0.07,0.383,0.139,0.574,0.207c0.36,0.128,0.724,0.25,1.089,0.368
				c0.194,0.063,0.389,0.125,0.585,0.185c0.399,0.121,0.803,0.234,1.208,0.343c0.157,0.042,0.313,0.088,0.47,0.128
				c0.561,0.143,1.126,0.274,1.695,0.392c0.106,0.022,0.214,0.038,0.32,0.06c0.468,0.092,0.938,0.177,1.412,0.252
				c0.195,0.031,0.393,0.058,0.589,0.085c0.396,0.057,0.792,0.107,1.191,0.151c0.211,0.023,0.422,0.046,0.633,0.065
				c0.41,0.038,0.822,0.068,1.236,0.094c0.189,0.012,0.378,0.026,0.568,0.035c0.6,0.028,1.201,0.046,1.808,0.046
				c2.097,0,4.291-0.336,6.365-0.63C403.532,426.144,404.613,425.95,405.685,425.711z"/>
		</g>
		
			<linearGradient id="SVGID_00000072971666805391610620000006197357738709110433_" gradientUnits="userSpaceOnUse" x1="262.1158" y1="344.7008" x2="277.8802" y2="373.709" gradientTransform="matrix(0.8203 -0.1306 0.1524 0.8378 110.3393 107.4416)">
			<stop  offset="0" style="stop-color:#FFFFFF"/>
			<stop  offset="1" style="stop-color:#FFFFFF;stop-opacity:0"/>
		</linearGradient>
		<path style="opacity:0.3;fill:url(#SVGID_00000072971666805391610620000006197357738709110433_);" d="M408.327,359.72
			c5.073,8.635-0.705,21.444-12.908,28.614c-12.202,7.171-26.206,5.982-31.278-2.65c-5.073-8.634,0.707-21.445,12.907-28.614
			C389.249,349.9,403.253,351.086,408.327,359.72z"/>
		<path style="opacity:0.3;fill:#FFFFFF;" d="M397.116,358.601c3.028,5.157-0.959,13.123-8.908,17.794
			c-7.948,4.67-16.848,4.276-19.877-0.881c-3.031-5.156,0.955-13.122,8.906-17.794C385.185,353.05,394.086,353.443,397.116,358.601z
			"/>
	</g>
	<g>
		<g>
			<g>
				<circle style="fill:#F15A29;" cx="97.847" cy="389.152" r="32.25"/>
				<path style="fill:#F7941E;" d="M70.395,372.228c13.104-0.171,32.832-1.401,49.634-6.474c3.448,3.27,6.172,7.292,7.913,11.806
					c-11.237,3.324-33.856,8.55-62.07,7.446C66.467,380.366,68.043,376.034,70.395,372.228z"/>
				<path style="fill:#EF4136;" d="M65.608,389.605c0.02,1.432,0.129,2.842,0.33,4.224c30.016,2.362,55.012-3.614,64.12-6.21
					c-0.094-2.01-0.379-3.97-0.825-5.867C107.581,389.104,77.071,389.676,65.608,389.605z"/>
				<g>
					<path style="fill:#F7941E;" d="M126.801,403.353c1.651-3.36,2.741-7.045,3.132-10.938c-23.737,5.984-49.153,6.477-62.927,6.183
						c1.336,4.369,3.589,8.329,6.513,11.692c-0.216-0.249-0.438-0.494-0.647-0.75C89.176,408.66,108.408,406.877,126.801,403.353z"
						/>
				</g>
			</g>
			<path style="fill:#EF4136;" d="M126.799,403.356c0.001-0.001,0.001-0.003,0.002-0.004c-18.393,3.525-37.625,5.308-53.93,6.187
				c0.209,0.256,0.431,0.501,0.647,0.75c0.262,0.301,0.527,0.6,0.8,0.891c0.238,0.254,0.478,0.506,0.724,0.753
				c0.332,0.331,0.673,0.652,1.018,0.97c0.325,0.299,0.657,0.59,0.994,0.875c0.354,0.3,0.712,0.595,1.079,0.879
				c0.254,0.197,0.513,0.39,0.773,0.579c0.386,0.281,0.78,0.552,1.179,0.815c0.21,0.14,0.415,0.286,0.629,0.42
				c0.578,0.363,1.17,0.704,1.771,1.031c0.24,0.13,0.485,0.254,0.729,0.378c0.464,0.237,0.935,0.463,1.411,0.678
				c0.212,0.096,0.422,0.196,0.637,0.288c0.661,0.28,1.334,0.539,2.017,0.776c0.2,0.069,0.403,0.13,0.604,0.195
				c0.553,0.18,1.112,0.346,1.677,0.495c0.211,0.057,0.421,0.114,0.633,0.167c0.735,0.179,1.478,0.337,2.231,0.465
				c0.131,0.022,0.264,0.036,0.395,0.057c0.655,0.103,1.317,0.184,1.985,0.247c0.214,0.021,0.428,0.039,0.643,0.056
				c0.794,0.059,1.592,0.099,2.401,0.099c0.707,0,1.408-0.031,2.104-0.076c0.168-0.011,0.335-0.022,0.502-0.035
				c0.689-0.056,1.374-0.126,2.05-0.224c0.038-0.005,0.074-0.013,0.112-0.019c0.649-0.096,1.29-0.217,1.925-0.351
				c0.153-0.032,0.305-0.064,0.457-0.099c0.662-0.15,1.318-0.315,1.964-0.506c0.049-0.015,0.098-0.031,0.147-0.046
				c0.612-0.184,1.215-0.388,1.812-0.607c0.125-0.046,0.251-0.091,0.376-0.138c0.636-0.242,1.264-0.5,1.88-0.78
				c0.043-0.02,0.085-0.041,0.128-0.061c0.589-0.271,1.167-0.561,1.737-0.867c0.09-0.048,0.18-0.095,0.27-0.145
				c0.606-0.332,1.202-0.681,1.784-1.05c0.029-0.019,0.058-0.039,0.087-0.058c0.569-0.363,1.125-0.746,1.669-1.144
				c0.05-0.037,0.101-0.072,0.151-0.109c0.57-0.423,1.127-0.861,1.667-1.319c0.013-0.012,0.025-0.023,0.039-0.034
				c0.543-0.462,1.072-0.941,1.583-1.439c0.013-0.012,0.026-0.023,0.039-0.036c0.523-0.509,1.029-1.035,1.516-1.579
				c0.001-0.001,0.002-0.003,0.004-0.004C123.816,408.488,125.486,406.026,126.799,403.356z"/>
			<path style="opacity:0.3;fill:#414042;" d="M108.344,364.629c0.135,0.958-3.636,2.277-8.422,2.947
				c-4.786,0.67-8.774,0.438-8.908-0.52c-0.134-0.957,3.724-1.656,8.509-2.327C104.309,364.059,108.21,363.672,108.344,364.629z"/>
			<path style="opacity:0.3;fill:#414042;" d="M93.597,362.575c0.088,0.625-2.372,1.486-5.495,1.923
				c-3.123,0.438-5.726,0.286-5.813-0.339c-0.087-0.624,2.43-1.08,5.552-1.519C90.964,362.203,93.51,361.951,93.597,362.575z"/>
			<path style="opacity:0.3;fill:#414042;" d="M87.932,380.572c0.049,0.967-3.824,1.945-8.651,2.186
				c-4.827,0.241-8.779-0.344-8.827-1.311c-0.047-0.965,3.856-1.317,8.682-1.56C83.963,379.646,87.884,379.607,87.932,380.572z"/>
			<path style="opacity:0.3;fill:#414042;" d="M117.414,410.517c0.162,0.954-3.57,2.377-8.337,3.18
				c-4.766,0.803-8.759,0.683-8.919-0.271c-0.16-0.953,3.676-1.758,8.44-2.561C113.365,410.058,117.254,409.564,117.414,410.517z"/>
			<path style="opacity:0.3;fill:#414042;" d="M104.106,374.138c0.084,0.623-2.275,1.455-5.269,1.86
				c-2.995,0.404-5.49,0.229-5.574-0.395c-0.084-0.622,2.329-1.051,5.323-1.456C101.581,373.741,104.021,373.516,104.106,374.138z"
				/>
			<path style="opacity:0.3;fill:#414042;" d="M94.284,402.293c0.071,0.625-2.304,1.408-5.305,1.752
				c-3.003,0.343-5.494,0.116-5.565-0.509c-0.071-0.624,2.351-1.003,5.353-1.347C91.768,401.845,94.212,401.669,94.284,402.293z"/>
			<path style="opacity:0.3;fill:#414042;" d="M123.644,374.386c0.167,0.735-2.562,1.976-6.094,2.776
				c-3.533,0.796-6.53,0.849-6.695,0.112c-0.166-0.732,2.669-1.498,6.202-2.296C120.588,374.178,123.478,373.653,123.644,374.386z"
				/>
			<path style="opacity:0.3;fill:#414042;" d="M119.598,387.609c0.144,0.758-2.805,1.952-6.586,2.67
				c-3.782,0.717-6.963,0.688-7.107-0.07c-0.142-0.756,2.898-1.461,6.679-2.179C116.365,387.313,119.454,386.853,119.598,387.609z"
				/>
		</g>
		<g>
			<path style="opacity:0.2;fill:#212A3C;" d="M123.791,369.999c-10.216,14.508-29.742,38.131-49.981,40.648
				c5.905,6.6,14.484,10.756,24.037,10.756c17.811,0,32.25-14.438,32.25-32.25C130.097,381.979,127.752,375.355,123.791,369.999z"/>
			<path style="opacity:0.2;fill:#212A3C;" d="M130.079,388.466c-10.41,12.766-28.27,28.898-50.941,26.947
				c5.277,3.767,11.731,5.989,18.709,5.989c17.811,0,32.25-14.438,32.25-32.25C130.097,388.922,130.084,388.695,130.079,388.466z"/>
		</g>
		
			<linearGradient id="SVGID_00000096020882527883584830000000168875820873628607_" gradientUnits="userSpaceOnUse" x1="-88.4735" y1="296.0244" x2="-75.0276" y2="320.7663" gradientTransform="matrix(0.8203 -0.1306 0.1524 0.8378 110.3393 107.4416)">
			<stop  offset="0" style="stop-color:#FFFFFF"/>
			<stop  offset="1" style="stop-color:#FFFFFF;stop-opacity:0"/>
		</linearGradient>
		<path style="opacity:0.3;fill:url(#SVGID_00000096020882527883584830000000168875820873628607_);" d="M108.843,365.061
			c4.327,7.364-0.602,18.29-11.01,24.405c-10.407,6.115-22.351,5.103-26.678-2.261c-4.327-7.364,0.603-18.291,11.009-24.406
			C92.571,356.685,104.516,357.697,108.843,365.061z"/>
		<path style="opacity:0.3;fill:#FFFFFF;" d="M99.281,364.106c2.584,4.398-0.818,11.193-7.598,15.177
			c-6.779,3.983-14.37,3.647-16.953-0.751c-2.586-4.398,0.815-11.192,7.596-15.177C89.105,359.372,96.696,359.708,99.281,364.106z"
			/>
	</g>
</g>
<g id="DESIGNED_BY_FREEPIK">
	<g>
		<g id="XMLID_319_">
			<g id="XMLID_338_">
				<path id="XMLID_346_" style="fill:#F9FBFC;" d="M260.104,476.018c-0.433,0.443-0.804,0.932-1.108,1.453l-0.465-0.241
					c-0.067-0.297-0.35-0.502-0.659-0.466c-0.331,0.039-0.567,0.339-0.529,0.67c0.039,0.331,0.339,0.567,0.67,0.528
					c0.065-0.007,0.127-0.025,0.184-0.052l0.451,0.234c-0.251,0.554-0.433,1.139-0.539,1.743l0.747,0.132
					c0.229-1.306,0.85-2.507,1.792-3.473L260.104,476.018z"/>
				<path id="XMLID_345_" style="fill:#F9FBFC;" d="M265.591,473.716c-0.171,0-0.341,0.006-0.509,0.017l-0.074-0.626
					c0.188-0.149,0.296-0.389,0.266-0.645c-0.046-0.393-0.402-0.674-0.795-0.628c-0.394,0.046-0.675,0.402-0.628,0.796
					c0.03,0.254,0.189,0.461,0.404,0.563l0.073,0.624c-0.714,0.116-1.402,0.332-2.06,0.645l0.327,0.685
					c0.935-0.447,1.941-0.674,2.995-0.674c0.497,0,0.993,0.053,1.476,0.158l0.16-0.741
					C266.692,473.774,266.142,473.716,265.591,473.716z"/>
				<path id="XMLID_344_" style="fill:#F9FBFC;" d="M272.194,476.263c0.331-0.04,0.567-0.341,0.525-0.672
					c-0.04-0.331-0.341-0.566-0.672-0.525c-0.31,0.038-0.535,0.304-0.53,0.608l-0.416,0.363c-0.418-0.43-0.89-0.813-1.407-1.14
					l-0.404,0.642c1.135,0.715,2.02,1.727,2.563,2.925l0.69-0.313c-0.251-0.554-0.567-1.071-0.942-1.545l0.402-0.351
					C272.065,476.268,272.128,476.272,272.194,476.263z"/>
				<path id="XMLID_343_" style="fill:#F9FBFC;" d="M265.044,483.924c-0.386,0.023-0.775,0.035-1.157,0.035
					c-0.88,0-1.733-0.061-2.479-0.18c-0.391-0.061-0.846-0.154-1.27-0.292c1.047,1.861,3.069,3.125,5.389,3.125
					c2.855,0,5.263-1.916,5.949-4.503c-0.682,0.449-1.505,0.825-2.458,1.122C267.838,483.6,266.463,483.839,265.044,483.924z"/>
				<path id="XMLID_339_" style="fill:#F9FBFC;" d="M265.591,475.232c-3.352,0-6.079,2.666-6.079,5.943
					c0,0.425,0.046,0.849,0.137,1.261c0.674,0.483,2.706,0.891,5.348,0.732c2.88-0.174,5.297-0.958,6.672-2.159
					c-0.005-0.194-0.021-0.39-0.045-0.581C271.244,477.466,268.65,475.232,265.591,475.232z M263.432,481.747
					c-1.02,0-1.85-0.83-1.85-1.85c0-1.02,0.83-1.851,1.85-1.851c1.02,0,1.85,0.83,1.85,1.851
					C265.282,480.917,264.452,481.747,263.432,481.747z M268.169,480.839c-0.75,0-1.36-0.61-1.36-1.36s0.61-1.36,1.36-1.36
					s1.36,0.61,1.36,1.36S268.919,480.839,268.169,480.839z"/>
			</g>
			<path id="XMLID_336_" style="fill:#F9FBFC;" d="M281.595,477.1c-0.295-0.116-0.806-0.31-1.383-0.238
				c-0.551,0.069-0.844,0.341-0.844,1.007v0.866h2.228v1.717h-2.228v5.455h-1.932v-5.455h-1.339v-1.717h1.339v-0.889
				c0-1.68,0.895-2.782,2.568-2.782c0.642,0,1.157,0.121,1.59,0.308V477.1z"/>
			<path id="XMLID_334_" style="fill:#F9FBFC;" d="M286.297,480.431c-0.177-0.029-0.357-0.046-0.525-0.046
				c-0.896,0-1.51,0.548-1.51,1.613v3.908h-1.933v-7.172h1.873v0.784c0.451-0.673,1.14-0.977,2.021-0.977
				c0.414,0,0.848,0.128,1.095,0.337L286.297,480.431z"/>
			<path id="XMLID_331_" style="fill:#F9FBFC;" d="M293.965,482.31c0,0.222-0.016,0.488-0.037,0.651h-5.085
				c0.207,1.036,0.933,1.487,1.843,1.487c0.622,0,1.295-0.252,1.814-0.688l1.133,1.243c-0.814,0.748-1.851,1.089-3.057,1.089
				c-2.198,0-3.724-1.496-3.724-3.753c0-2.258,1.48-3.797,3.627-3.797C292.543,478.542,293.957,480.074,293.965,482.31z
				 M288.851,481.644h3.175c-0.178-0.918-0.732-1.437-1.562-1.437C289.554,480.207,289.021,480.755,288.851,481.644z"/>
			<path id="XMLID_328_" style="fill:#F9FBFC;" d="M301.619,482.31c0,0.222-0.016,0.488-0.037,0.651h-5.085
				c0.207,1.036,0.933,1.487,1.843,1.487c0.622,0,1.296-0.252,1.813-0.688l1.133,1.243c-0.814,0.748-1.851,1.089-3.058,1.089
				c-2.198,0-3.723-1.496-3.723-3.753c0-2.258,1.48-3.797,3.627-3.797C300.197,478.542,301.611,480.074,301.619,482.31z
				 M296.504,481.644h3.175c-0.178-0.918-0.733-1.437-1.561-1.437C297.207,480.207,296.674,480.755,296.504,481.644z"/>
			<path id="XMLID_325_" style="fill:#F9FBFC;" d="M309.964,482.316c0,2.154-1.495,3.775-3.472,3.775
				c-0.962,0-1.644-0.378-2.109-0.933v3.708h-1.925v-10.133h1.888v0.792c0.467-0.585,1.154-0.984,2.139-0.984
				C308.469,478.542,309.964,480.163,309.964,482.316z M304.287,482.316c0,1.133,0.748,1.977,1.844,1.977
				c1.14,0,1.85-0.881,1.85-1.977c0-1.095-0.71-1.976-1.85-1.976C305.035,480.341,304.287,481.185,304.287,482.316z"/>
			<path id="XMLID_322_" style="fill:#F9FBFC;" d="M313.068,476.388c0,0.696-0.541,1.229-1.236,1.229
				c-0.696,0-1.229-0.533-1.229-1.229c0-0.695,0.532-1.243,1.229-1.243C312.527,475.145,313.068,475.692,313.068,476.388z
				 M312.808,485.906h-1.932v-7.172h1.932V485.906z"/>
			<path id="XMLID_320_" style="fill:#F9FBFC;" d="M316.032,481.288l2.702-2.554h2.368l-3.479,3.375l3.501,3.797h-2.376
				l-2.717-2.901v2.901H314.1v-10.658h1.932V481.288z"/>
		</g>
		<g>
			<path style="fill:#F9FBFC;" d="M184.412,485.842v-1.055c-0.527,0.718-1.391,1.23-2.387,1.23c-1.846,0-3.149-1.406-3.149-3.706
				c0-2.256,1.289-3.721,3.149-3.721c0.952,0,1.816,0.469,2.387,1.245v-3.765h1.099v9.771H184.412z M184.412,483.923v-3.208
				c-0.395-0.615-1.245-1.143-2.124-1.143c-1.42,0-2.27,1.172-2.27,2.739c0,1.567,0.85,2.725,2.27,2.725
				C183.167,485.036,184.017,484.538,184.412,483.923z"/>
			<path style="fill:#F9FBFC;" d="M186.932,482.297c0-2.051,1.465-3.706,3.486-3.706c2.139,0,3.398,1.67,3.398,3.794v0.278h-5.727
				c0.088,1.333,1.025,2.446,2.549,2.446c0.806,0,1.626-0.322,2.182-0.894l0.527,0.718c-0.703,0.703-1.655,1.084-2.812,1.084
				C188.44,486.018,186.932,484.509,186.932,482.297z M190.403,479.499c-1.509,0-2.256,1.274-2.314,2.358h4.644
				C192.718,480.803,192.015,479.499,190.403,479.499z"/>
			<path style="fill:#F9FBFC;" d="M194.607,484.904l0.571-0.791c0.469,0.542,1.362,1.011,2.329,1.011c1.084,0,1.67-0.513,1.67-1.216
				c0-1.714-4.38-0.659-4.38-3.281c0-1.099,0.952-2.036,2.636-2.036c1.202,0,2.051,0.454,2.623,1.025l-0.513,0.762
				c-0.424-0.513-1.201-0.893-2.109-0.893c-0.966,0-1.567,0.483-1.567,1.113c0,1.553,4.379,0.527,4.379,3.281
				c0,1.186-0.952,2.139-2.783,2.139C196.306,486.018,195.325,485.666,194.607,484.904z"/>
			<path style="fill:#F9FBFC;" d="M201.477,477.023c0-0.41,0.337-0.747,0.732-0.747c0.41,0,0.747,0.337,0.747,0.747
				c0,0.41-0.337,0.732-0.747,0.732C201.814,477.756,201.477,477.434,201.477,477.023z M201.667,485.842v-7.075h1.099v7.075H201.667
				z"/>
			<path style="fill:#F9FBFC;" d="M204.582,487.658l0.556-0.82c0.586,0.703,1.289,0.967,2.3,0.967c1.172,0,2.27-0.571,2.27-2.124
				v-1.011c-0.513,0.718-1.377,1.26-2.373,1.26c-1.846,0-3.149-1.377-3.149-3.662c0-2.271,1.289-3.677,3.149-3.677
				c0.952,0,1.802,0.469,2.373,1.245v-1.069h1.099v6.87c0,2.344-1.641,3.076-3.369,3.076
				C206.237,488.713,205.417,488.478,204.582,487.658z M209.708,483.806v-3.091c-0.381-0.615-1.23-1.143-2.109-1.143
				c-1.421,0-2.27,1.128-2.27,2.695c0,1.553,0.849,2.695,2.27,2.695C208.478,484.963,209.328,484.421,209.708,483.806z"/>
			<path style="fill:#F9FBFC;" d="M217.413,485.842v-4.629c0-1.245-0.63-1.641-1.582-1.641c-0.864,0-1.685,0.527-2.094,1.099v5.171
				h-1.099v-7.075h1.099v1.025c0.498-0.586,1.464-1.201,2.519-1.201c1.479,0,2.256,0.747,2.256,2.285v4.966H217.413z"/>
			<path style="fill:#F9FBFC;" d="M219.932,482.297c0-2.051,1.465-3.706,3.486-3.706c2.139,0,3.398,1.67,3.398,3.794v0.278h-5.727
				c0.088,1.333,1.025,2.446,2.548,2.446c0.806,0,1.626-0.322,2.183-0.894l0.527,0.718c-0.703,0.703-1.655,1.084-2.813,1.084
				C221.441,486.018,219.932,484.509,219.932,482.297z M223.404,479.499c-1.509,0-2.256,1.274-2.314,2.358h4.643
				C225.718,480.803,225.015,479.499,223.404,479.499z"/>
			<path style="fill:#F9FBFC;" d="M233.35,485.842v-1.055c-0.527,0.718-1.392,1.23-2.388,1.23c-1.845,0-3.149-1.406-3.149-3.706
				c0-2.256,1.289-3.721,3.149-3.721c0.952,0,1.817,0.469,2.388,1.245v-3.765h1.098v9.771H233.35z M233.35,483.923v-3.208
				c-0.396-0.615-1.245-1.143-2.124-1.143c-1.421,0-2.271,1.172-2.271,2.739c0,1.567,0.85,2.725,2.271,2.725
				C232.105,485.036,232.954,484.538,233.35,483.923z"/>
			<path style="fill:#F9FBFC;" d="M239.692,485.842v-9.771h1.099v3.765c0.571-0.776,1.421-1.245,2.388-1.245
				c1.845,0,3.149,1.465,3.149,3.721c0,2.3-1.304,3.706-3.149,3.706c-0.996,0-1.86-0.513-2.388-1.23v1.055H239.692z M242.9,485.036
				c1.436,0,2.285-1.157,2.285-2.725c0-1.567-0.85-2.739-2.285-2.739c-0.864,0-1.729,0.527-2.109,1.143v3.208
				C241.171,484.538,242.036,485.036,242.9,485.036z"/>
			<path style="fill:#F9FBFC;" d="M247.528,487.614c0.161,0.073,0.425,0.117,0.601,0.117c0.483,0,0.806-0.161,1.055-0.747
				l0.469-1.069l-2.959-7.148h1.186l2.358,5.801l2.344-5.801h1.2l-3.544,8.511c-0.425,1.024-1.143,1.421-2.08,1.436
				c-0.234,0-0.601-0.044-0.806-0.103L247.528,487.614z"/>
		</g>
	</g>
</g>
</svg>
