<svg width="2562" height="2253" viewBox="0 0 2562 2253" fill="none" xmlns="http://www.w3.org/2000/svg">
<path d="M2119.7 1736.45H1593.06C1508.23 1736.45 1439.45 1667.68 1439.45 1582.84V1127.79C1439.45 1042.95 1508.23 974.177 1593.06 974.177H2119.7C2204.54 974.177 2273.31 1042.95 2273.31 1127.79V1582.84C2273.31 1667.68 2204.54 1736.45 2119.7 1736.45Z" fill="white"/>
<path d="M2427.5 426C2427.5 426 2172.01 0.304782 1940 13.4997C1680.5 28.2582 1426 265 1426 265C1426 265 1432 298.283 1749.5 170.887C1866.5 112.965 2427.5 426 2427.5 426Z" fill="white"/>
<path d="M2119.7 974.177C2204.54 974.177 2273.31 1042.95 2273.31 1127.79V1582.84C2273.31 1667.68 2204.54 1736.45 2119.7 1736.45H1593.06C1508.22 1736.45 1439.45 1667.68 1439.45 1582.84V1127.79C1439.45 1042.95 1508.22 974.177 1593.06 974.177H2119.7ZM2119.7 944.177H1593.06C1491.82 944.177 1409.45 1026.54 1409.45 1127.79V1582.84C1409.45 1684.08 1491.82 1766.45 1593.06 1766.45H2119.7C2220.94 1766.45 2303.31 1684.08 2303.31 1582.84V1127.79C2303.31 1026.55 2220.94 944.177 2119.7 944.177Z" fill="#371A45"/>
<path d="M2247.08 1677.07H1460.33C1455.04 1546 1466.44 1427.77 1484.98 1326.47C1490.84 1294.4 1497.4 1264.05 1504.38 1235.55C1517.13 1183.63 1531.2 1137.78 1544.77 1098.86C1547.03 1092.42 1549.24 1086.19 1551.46 1080.16C1564.5 1044.48 1576.8 1015.45 1586.68 993.793C1600.22 964.06 1609.16 948.23 1609.16 948.23H2098.3C2098.3 948.23 2099.2 949.788 2100.92 952.864L2100.96 952.905C2106.99 963.896 2122.94 994.162 2142.22 1041.37C2151.12 1063.18 2160.76 1088.65 2170.48 1117.48C2173.84 1127.69 2177.28 1138.27 2180.69 1149.31C2195.45 1196.96 2209.8 1252.37 2221.49 1314.66C2221.53 1314.91 2221.57 1315.15 2221.62 1315.4C2240.89 1418.34 2252.82 1540.1 2247.08 1677.07Z" fill="white"/>
<path d="M2200.44 1187.49C2217.37 1225.64 2228.39 1265.81 2236.94 1306.38C2245.52 1346.96 2251.54 1388.09 2255.69 1429.35C2259.9 1470.61 2262.49 1512 2264.02 1553.42C2265.33 1594.84 2265.15 1636.31 2263.47 1677.71L2263.47 1677.74L2262.93 1693.46H2247.08H1460.35H1460.33H1444.57L1443.94 1677.72C1442.28 1636.26 1442.21 1594.75 1443.74 1553.29C1445.23 1511.83 1448.17 1470.42 1452.5 1429.14C1456.92 1387.87 1463.08 1346.76 1471.8 1306.17C1476.08 1285.86 1481.11 1265.72 1487.07 1245.83L1491.77 1230.97C1493.4 1226.04 1495.27 1221.18 1497.01 1216.28C1500.61 1206.53 1504.31 1196.81 1508.53 1187.27C1510.39 1183.09 1515.28 1181.2 1519.47 1183.05C1522.8 1184.53 1524.68 1187.94 1524.37 1191.38L1524.34 1191.67C1522.41 1212.33 1518.38 1232.3 1515.24 1252.46L1504.63 1312.55C1497.77 1352.6 1491.39 1392.7 1486.4 1433.03C1481.31 1473.33 1478.02 1513.88 1476.52 1554.5C1475.03 1595.11 1475.1 1635.78 1476.72 1676.39L1460.33 1660.65H1460.35H2247.08L2230.69 1676.37V1676.34C2232.34 1635.75 2232.51 1595.1 2231.22 1554.51C2230.47 1534.22 2229.53 1513.93 2227.85 1493.69C2226.35 1473.44 2224.36 1453.23 2221.88 1433.09C2217.06 1392.78 2210.8 1352.7 2204.06 1312.66C2197.23 1272.63 2189.64 1232.81 2184.63 1191.88C2184.06 1187.34 2187.29 1183.19 2191.83 1182.63C2195.54 1182.16 2198.99 1184.25 2200.44 1187.49Z" fill="#371A45"/>
<path d="M1992.33 1645.93C1992.33 1645.93 2202.71 1523.3 2376.76 1700.19C2536.72 1862.75 2349.76 2023.14 2349.76 2023.14C2349.76 2023.14 2407.37 2203.99 2257.78 2232.41C2130.82 2256.52 2016.1 2174.47 2030.76 2022.66C2042.82 1897.83 2070.23 1909.46 2060.13 1840.99C2048.7 1763.47 1883.46 1746.01 1883.46 1746.01H1821.3C1821.3 1746.01 1656.05 1763.47 1644.62 1840.99C1634.52 1909.46 1661.93 1897.83 1673.99 2022.66C1688.65 2174.47 1573.93 2256.52 1446.97 2232.41C1297.38 2203.99 1354.99 2023.14 1354.99 2023.14C1354.99 2023.14 1168.03 1862.74 1327.99 1700.19C1502.05 1523.3 1712.42 1645.93 1712.42 1645.93" fill="white"/>
<g opacity="0.25">
<path d="M2338.54 2183.07C2323.13 2206.22 2297.9 2224.82 2257.79 2232.42C2130.83 2256.54 2016.1 2174.46 2030.76 2022.66C2042.83 1897.82 2070.21 1909.44 2060.14 1841.01C2048.7 1763.48 1883.44 1746.03 1883.44 1746.03H1821.28C1821.28 1746.03 1656.06 1763.48 1644.62 1841.01C1634.5 1909.44 1661.93 1897.82 1673.99 2022.66C1688.66 2174.46 1573.93 2256.54 1446.97 2232.42C1406.86 2224.82 1381.63 2206.22 1366.21 2183.07C1367.32 2183.29 1368.42 2183.51 1369.53 2183.69C1520.74 2209.8 1657.38 2120.96 1639.93 1956.53C1625.53 1821.35 1592.88 1833.94 1604.94 1759.77C1618.55 1675.83 1815.36 1656.92 1815.36 1656.92H1889.4C1889.4 1656.92 2086.21 1675.83 2099.81 1759.77C2111.83 1833.94 2079.18 1821.35 2064.82 1956.53C2047.37 2120.96 2184.01 2209.8 2335.23 2183.69C2336.34 2183.51 2337.44 2183.29 2338.54 2183.07Z" fill="#371A45"/>
</g>
<path d="M1988.2 1638.84C2002.69 1629 2017.61 1621.68 2033.22 1614.86C2048.82 1608.31 2064.93 1602.85 2081.44 1598.64C2097.93 1594.39 2114.81 1591.46 2131.89 1589.73C2148.98 1588.29 2166.25 1587.96 2183.49 1589.19C2217.96 1591.62 2252.12 1600.14 2284.03 1613.83C2315.81 1627.85 2345.01 1647.21 2370.82 1669.91C2396.52 1692.28 2419.9 1719.24 2436.63 1750.75C2444.72 1766.66 2451.2 1783.58 2455.17 1801.27C2458.91 1819 2460.12 1837.27 2458.82 1855.24C2457.52 1873.22 2453.83 1890.88 2448.13 1907.65C2442.41 1924.43 2434.89 1940.35 2426.15 1955.39C2417.4 1970.42 2407.44 1984.57 2396.6 1997.94C2391.15 2004.6 2385.5 2011.09 2379.51 2017.29C2376.54 2020.4 2373.51 2023.47 2370.38 2026.48C2367.18 2029.56 2364.24 2032.33 2360.44 2035.59L2365.39 2018.16L2365.4 2018.19C2367.24 2024.28 2368.53 2029.46 2369.79 2035.08C2371.01 2040.6 2372.11 2046.13 2373.02 2051.7C2374.87 2062.82 2376.14 2074.06 2376.7 2085.42C2377.78 2108.1 2376.33 2131.46 2369.52 2154.35C2366.11 2165.75 2361.49 2177.03 2355.11 2187.52C2348.69 2197.99 2340.68 2207.58 2331.48 2215.82C2322.26 2224.12 2311.66 2230.45 2300.85 2235.83C2295.31 2238.09 2289.84 2240.78 2284.15 2242.38L2275.68 2245.08L2267.13 2247.08C2244.58 2252.23 2221.77 2253.77 2198.73 2252.45C2187.26 2251.53 2175.8 2250.04 2164.51 2247.45C2153.25 2244.77 2142.09 2241.46 2131.35 2236.93C2120.64 2232.38 2110.18 2227.12 2100.37 2220.72C2090.6 2214.28 2081.28 2207.09 2072.8 2198.97C2064.4 2190.78 2056.64 2181.92 2049.86 2172.34C2043.22 2162.69 2037.22 2152.59 2032.41 2141.95C2022.77 2120.71 2016.85 2097.98 2014.54 2075.19C2014.02 2069.49 2013.43 2063.79 2013.36 2058.09C2013.05 2052.38 2013.1 2046.7 2013.27 2041.02C2013.51 2029.62 2014.68 2018.35 2015.92 2007.66C2018.41 1985.96 2021.75 1964.13 2027.16 1942.43C2029.73 1931.58 2033.16 1920.8 2036.53 1910.5C2039.95 1900.15 2043.2 1890.82 2044.63 1882.09C2046.15 1873.33 2046.08 1864.17 2045.26 1854.45L2044.35 1847.06L2043.9 1843.37L2043.27 1840.59C2042.59 1836.85 2041.07 1833.29 2039.29 1829.77C2031.96 1815.61 2016.07 1803.91 1998.82 1794.97C1981.34 1785.98 1961.92 1779.35 1942.12 1774.03C1922.4 1768.8 1901.55 1764.72 1881.73 1762.33L1883.45 1762.42H1821.29L1823.02 1762.33C1803.19 1764.72 1782.35 1768.8 1762.63 1774.03C1742.83 1779.35 1723.4 1785.99 1705.93 1794.98C1688.68 1803.91 1672.78 1815.61 1665.46 1829.77C1663.68 1833.29 1662.16 1836.85 1661.47 1840.59L1660.85 1843.37L1660.4 1847.06L1659.48 1854.45C1658.67 1864.18 1658.59 1873.34 1660.11 1882.09C1661.54 1890.83 1664.8 1900.15 1668.22 1910.51C1671.59 1920.81 1675.02 1931.59 1677.58 1942.44C1683 1964.14 1686.34 1985.96 1688.82 2007.66C1690.07 2018.36 1691.23 2029.63 1691.48 2041.03C1691.64 2046.7 1691.69 2052.39 1691.39 2058.09C1691.32 2063.79 1690.73 2069.5 1690.21 2075.2C1687.89 2097.99 1681.97 2120.72 1672.33 2141.96C1667.53 2152.6 1661.52 2162.7 1654.88 2172.35C1648.1 2181.92 1640.34 2190.79 1631.94 2198.98C1623.46 2207.1 1614.14 2214.29 1604.37 2220.72C1594.56 2227.12 1584.1 2232.38 1573.39 2236.94C1562.64 2241.46 1551.48 2244.77 1540.23 2247.46C1528.94 2250.05 1517.48 2251.53 1506 2252.45C1482.97 2253.77 1460.16 2252.23 1437.61 2247.08L1429.06 2245.08L1420.58 2242.37C1414.89 2240.78 1409.43 2238.08 1403.89 2235.82C1393.07 2230.44 1382.48 2224.11 1373.26 2215.81C1364.06 2207.57 1356.05 2197.97 1349.63 2187.51C1343.26 2177.02 1338.64 2165.74 1335.23 2154.34C1328.42 2131.44 1326.97 2108.08 1328.05 2085.41C1328.61 2074.04 1329.88 2062.8 1331.73 2051.68C1332.64 2046.11 1333.74 2040.58 1334.97 2035.06C1336.23 2029.44 1337.51 2024.26 1339.36 2018.17L1339.36 2018.16L1344.31 2035.58C1340.51 2032.33 1337.57 2029.56 1334.37 2026.48C1331.24 2023.47 1328.21 2020.4 1325.24 2017.28C1319.25 2011.08 1313.6 2004.6 1308.15 1997.94C1297.31 1984.57 1287.34 1970.42 1278.6 1955.38C1261.12 1925.45 1248.37 1891.36 1245.91 1855.24C1244.61 1837.26 1245.82 1818.99 1249.56 1801.26C1253.53 1783.57 1260.01 1766.64 1268.1 1750.73C1284.86 1719.24 1308.15 1692.19 1333.93 1669.9C1346.69 1658.38 1360.58 1648.03 1375.01 1638.52C1389.43 1628.95 1404.79 1620.73 1420.72 1613.83C1452.53 1599.91 1486.77 1591.48 1521.25 1589.06C1538.49 1587.7 1555.76 1588.29 1572.87 1589.58C1589.95 1591.25 1606.83 1594.27 1623.38 1598.35C1639.85 1602.71 1655.99 1608.09 1671.58 1614.74C1687.2 1621.5 1702.1 1628.93 1716.55 1638.84C1720.29 1641.41 1721.24 1646.53 1718.68 1650.27C1716.44 1653.52 1712.28 1654.67 1708.77 1653.22L1708.29 1653.01C1694.02 1647.12 1678.62 1641.79 1663.43 1637.45C1648.16 1633.06 1632.74 1629.44 1617.23 1626.7C1601.72 1623.87 1586.09 1622.4 1570.53 1621.29C1562.73 1621.16 1554.95 1620.56 1547.18 1620.98L1535.53 1621.27C1531.67 1621.55 1527.79 1621.73 1523.94 1622.08C1493.06 1624.79 1462.88 1632.8 1434.87 1645.62C1406.81 1658.35 1380.89 1675.82 1357.79 1696.69C1334.3 1717.51 1314.42 1741.17 1300.17 1767.49C1293.42 1780.77 1288.09 1794.62 1284.83 1808.94C1281.79 1823.29 1280.78 1838 1281.81 1852.69C1285.96 1911.63 1322.1 1968.74 1365.67 2010.68L1373.8 2018.5L1370.62 2028.11L1370.62 2028.12C1369.37 2032.24 1368.04 2037.44 1366.98 2042.25C1365.89 2047.15 1364.9 2052.11 1364.09 2057.08C1362.44 2067.04 1361.31 2077.06 1360.82 2087.04C1359.85 2106.97 1361.25 2126.9 1366.69 2145.03C1369.4 2154.08 1372.96 2162.72 1377.69 2170.51C1382.47 2178.26 1388.29 2185.19 1394.98 2191.23C1401.67 2197.29 1409.61 2201.96 1417.86 2206.14C1422.24 2207.84 1426.35 2210.01 1430.99 2211.26L1437.78 2213.45L1444.83 2215.07C1483.37 2223.68 1524.89 2221.6 1560.83 2206.62C1578.81 2199.19 1595.3 2188.56 1609.26 2175.27C1616.13 2168.53 1622.51 2161.28 1628.09 2153.41C1633.54 2145.45 1638.52 2137.14 1642.51 2128.28C1650.51 2110.61 1655.59 2091.44 1657.58 2071.74C1658.02 2066.8 1658.56 2061.87 1658.61 2056.88C1658.88 2051.91 1658.83 2046.91 1658.68 2041.91C1658.48 2031.93 1657.45 2021.92 1656.23 2011.4C1653.86 1990.65 1650.69 1970.14 1645.75 1950.36C1643.39 1940.41 1640.34 1930.8 1637.07 1920.8C1633.83 1910.88 1629.87 1899.97 1627.77 1887.6C1625.63 1875.27 1625.82 1862.9 1626.82 1851.35L1627.86 1842.83L1628.39 1838.57L1629.43 1833.52C1630.78 1826.76 1633.4 1820.34 1636.48 1814.38C1642.78 1802.41 1651.67 1792.88 1661.07 1785.12C1670.52 1777.34 1680.61 1771.14 1690.87 1765.82C1711.45 1755.26 1732.75 1748.1 1754.18 1742.33C1775.77 1736.64 1796.97 1732.44 1819.57 1729.7L1820.32 1729.61H1821.3H1883.45H1884.43L1885.18 1729.7C1907.78 1732.44 1928.98 1736.64 1950.57 1742.33C1971.99 1748.1 1993.29 1755.26 2013.87 1765.82C2024.13 1771.14 2034.22 1777.34 2043.67 1785.12C2053.07 1792.87 2061.97 1802.41 2068.27 1814.37C2071.35 1820.34 2073.97 1826.76 2075.31 1833.51L2076.36 1838.57L2076.89 1842.83L2077.93 1851.35C2078.92 1862.89 2079.12 1875.27 2076.98 1887.59C2074.88 1899.97 2070.92 1910.87 2067.68 1920.79C2064.41 1930.8 2061.35 1940.41 2059 1950.36C2054.06 1970.13 2050.89 1990.65 2048.52 2011.39C2047.3 2021.91 2046.28 2031.93 2046.07 2041.9C2045.92 2046.9 2045.87 2051.9 2046.14 2056.87C2046.19 2061.87 2046.72 2066.79 2047.16 2071.73C2049.15 2091.44 2054.24 2110.6 2062.24 2128.27C2066.23 2137.13 2071.21 2145.44 2076.65 2153.4C2082.23 2161.27 2088.61 2168.53 2095.49 2175.26C2109.45 2188.56 2125.93 2199.18 2143.91 2206.62C2179.85 2221.6 2221.37 2223.68 2259.9 2215.08L2266.96 2213.45L2273.75 2211.26C2278.39 2210.01 2282.5 2207.84 2286.88 2206.14C2295.13 2201.97 2303.07 2197.29 2309.76 2191.23C2316.45 2185.19 2322.27 2178.27 2327.05 2170.52C2331.79 2162.73 2335.34 2154.09 2338.06 2145.04C2343.5 2126.91 2344.9 2106.98 2343.93 2087.06C2343.44 2077.08 2342.31 2067.05 2340.66 2057.1C2339.85 2052.12 2338.86 2047.17 2337.77 2042.26C2336.71 2037.45 2335.38 2032.26 2334.13 2028.13L2334.12 2028.11L2330.95 2018.5L2339.07 2010.68C2382.67 1968.74 2418.77 1911.64 2422.97 1852.7C2423.99 1838 2422.99 1823.29 2419.95 1808.93C2416.68 1794.62 2411.35 1780.77 2404.6 1767.48C2390.34 1741.15 2370.47 1717.51 2347.03 1696.61C2323.85 1675.8 2297.87 1658.53 2269.94 1645.47C2241.83 1632.87 2211.7 1624.76 2180.81 1622.05C2149.95 1619.21 2118.5 1620.98 2087.47 1626.48C2056.59 1631.98 2025.36 1640.89 1996.46 1653.01L1995.99 1653.21C1991.81 1654.96 1987 1653 1985.24 1648.81C1983.7 1645.15 1985.03 1640.99 1988.2 1638.84Z" fill="#371A45"/>
<path d="M1359.71 2007.42C1360.66 2007.77 1362.5 2008.33 1364.05 2008.74C1365.64 2009.21 1367.32 2009.62 1369.01 2010.02C1372.35 2010.86 1375.82 2011.54 1379.27 2012.21C1386.23 2013.45 1393.3 2014.53 1400.44 2015.15C1414.72 2016.51 1429.21 2016.87 1443.72 2016.12C1458.19 2015.16 1472.77 2013.8 1487.12 2010.83C1494.37 2009.69 1501.43 2007.68 1508.61 2006.06C1515.73 2004.26 1522.73 2001.95 1529.83 1999.91L1530.42 1999.74C1534.77 1998.5 1539.31 2001.01 1540.55 2005.36C1541.73 2009.45 1539.53 2013.72 1535.65 2015.25C1528.47 2018.05 1521.35 2021.12 1514.05 2023.69C1506.68 2026.09 1499.41 2028.87 1491.87 2030.77C1476.97 2035.28 1461.59 2038.18 1446.11 2040.61C1430.59 2042.83 1414.85 2043.89 1398.99 2043.82C1391.06 2043.85 1383.1 2043.37 1375.1 2042.68C1371.1 2042.28 1367.1 2041.87 1363.04 2041.24C1361.02 2040.94 1359 2040.65 1356.92 2040.24C1354.78 2039.86 1352.96 2039.51 1350.28 2038.85L1350.1 2038.8C1341.3 2036.61 1335.94 2027.69 1338.13 2018.88C1340.33 2010.08 1349.24 2004.72 1358.05 2006.91C1358.61 2007.05 1359.18 2007.23 1359.71 2007.42Z" fill="#371A45"/>
<path d="M2353.42 2039.16C2344.98 2040.53 2337.46 2041.35 2329.51 2042.03C2321.67 2042.72 2313.83 2043.17 2305.98 2043.39C2290.29 2043.84 2274.57 2043.45 2258.88 2042.01C2243.19 2040.4 2227.56 2037.72 2212.21 2033.58C2196.91 2029.09 2181.99 2022.99 2168.15 2014.72C2164.27 2012.4 2163 2007.37 2165.32 2003.48C2167.5 1999.82 2172.09 1998.48 2175.86 2000.27L2176.22 2000.44C2189.08 2006.59 2202.8 2010.82 2216.91 2013.62C2231.14 2016.09 2245.61 2017.26 2260.17 2017.44C2274.74 2017.45 2289.35 2016.49 2303.86 2014.76C2311.11 2013.9 2318.36 2012.82 2325.52 2011.53C2332.6 2010.29 2340.05 2008.75 2346.45 2007.1L2346.7 2007.04C2355.48 2004.78 2364.44 2010.07 2366.7 2018.85C2368.96 2027.64 2363.67 2036.6 2354.89 2038.86C2354.41 2038.98 2353.9 2039.08 2353.42 2039.16Z" fill="#371A45"/>
<path d="M2434.18 1904.79C2433.33 1904.79 2432.46 1904.7 2431.59 1904.51C2424.95 1903.09 2420.72 1896.55 2422.14 1889.91C2427.75 1863.72 2423.67 1845.14 2409.66 1833.12C2351.53 1783.25 2142.35 1847.02 2066.66 1875.81C2060.29 1878.24 2053.2 1875.03 2050.78 1868.69C2048.37 1862.33 2051.55 1855.23 2057.91 1852.81C2087.16 1841.68 2345.98 1746.06 2425.68 1814.45C2446.86 1832.62 2453.77 1859.75 2446.2 1895.06C2444.96 1900.84 2439.86 1904.79 2434.18 1904.79Z" fill="#371A45"/>
<path d="M1275.47 1904.79C1269.8 1904.79 1264.69 1900.84 1263.45 1895.06C1255.89 1859.74 1262.79 1832.62 1283.98 1814.45C1363.7 1746.05 1622.51 1841.68 1651.75 1852.81C1658.11 1855.23 1661.3 1862.33 1658.88 1868.68C1656.46 1875.03 1649.36 1878.22 1643 1875.81C1567.31 1847.02 1358.13 1783.24 1300 1833.12C1285.99 1845.14 1281.91 1863.72 1287.52 1889.9C1288.94 1896.55 1284.7 1903.09 1278.06 1904.51C1277.19 1904.7 1276.32 1904.79 1275.47 1904.79Z" fill="#371A45"/>
<path d="M1668.76 1505.81C1618.57 1526.13 1540.9 1521.88 1487.95 1515.47C1456.19 1511.63 1433.9 1482.32 1438.57 1450.67C1442.84 1421.79 1468.26 1400.79 1497.42 1402.16C1546.95 1404.48 1621.24 1405.57 1668.29 1395.13" fill="white"/>
<g opacity="0.25">
<path d="M1668.77 1505.8C1618.57 1526.15 1540.9 1521.86 1487.95 1515.49C1456.19 1511.64 1433.9 1482.31 1438.59 1450.69C1439.52 1444.23 1441.55 1438.17 1444.43 1432.64C1452.79 1448.61 1468.62 1460.37 1487.95 1462.72C1540.81 1469.13 1618.35 1473.38 1668.55 1453.17L1668.77 1505.8Z" fill="#371A45"/>
</g>
<path d="M1568.92 1537.16C1539.75 1537.16 1510.78 1534.75 1485.98 1531.75C1466.21 1529.36 1448.67 1519.32 1436.59 1503.49C1424.49 1487.63 1419.43 1468.02 1422.35 1448.27C1427.87 1410.87 1460.51 1384.06 1498.19 1385.77C1570.89 1389.18 1630.04 1386.81 1664.74 1379.11C1672.59 1377.37 1692.05 1377.16 1703.09 1412.69C1713.89 1447.4 1712.4 1505.84 1674.92 1521.01C1645.06 1533.1 1606.82 1537.16 1568.92 1537.16ZM1662.6 1490.6C1670.9 1487.25 1674.02 1473.51 1674.97 1467.76C1678.69 1445.42 1672.67 1420.15 1667.45 1412.07C1619.43 1421.76 1548.47 1420.97 1496.66 1418.55C1475.87 1417.53 1457.86 1432.4 1454.81 1453.07C1453.19 1463.99 1455.98 1474.82 1462.67 1483.59C1469.34 1492.32 1479.01 1497.86 1489.92 1499.18C1565.12 1508.27 1626.45 1505.24 1662.6 1490.6Z" fill="#371A45"/>
<path d="M2052.64 1505.81C2102.83 1526.13 2180.5 1521.88 2233.45 1515.47C2265.21 1511.63 2287.5 1482.32 2282.82 1450.67C2278.55 1421.79 2253.13 1400.79 2223.97 1402.16C2174.44 1404.48 2100.15 1405.57 2053.11 1395.13" fill="white"/>
<g opacity="0.25">
<path d="M2233.44 1515.49C2180.49 1521.86 2102.82 1526.15 2052.62 1505.8L2052.84 1452.68C2103.04 1472.89 2180.58 1468.65 2233.44 1462.23C2252.68 1459.93 2268.42 1448.25 2276.83 1432.38C2279.79 1437.95 2281.87 1444.1 2282.84 1450.69C2287.49 1482.31 2265.2 1511.64 2233.44 1515.49Z" fill="#371A45"/>
</g>
<path d="M2152.48 1537.16C2114.57 1537.16 2076.34 1533.1 2046.48 1521.01C2009 1505.84 2007.51 1447.41 2018.31 1412.69C2029.35 1377.16 2048.81 1377.37 2056.66 1379.11C2091.36 1386.81 2150.52 1389.17 2223.21 1385.77C2260.95 1384.01 2293.52 1410.88 2299.05 1448.27C2301.97 1468.02 2296.91 1487.63 2284.81 1503.49C2272.73 1519.32 2255.19 1529.36 2235.42 1531.75C2210.62 1534.75 2181.64 1537.16 2152.48 1537.16ZM2058.8 1490.6C2094.95 1505.24 2156.28 1508.29 2231.48 1499.18C2242.38 1497.86 2252.06 1492.32 2258.73 1483.59C2265.42 1474.82 2268.21 1463.98 2266.6 1453.07C2263.54 1432.41 2245.56 1417.55 2224.74 1418.55C2172.92 1420.98 2101.96 1421.75 2053.95 1412.07C2048.73 1420.15 2042.71 1445.42 2046.43 1467.76C2047.38 1473.51 2050.5 1487.25 2058.8 1490.6Z" fill="#371A45"/>
<path d="M2072.04 1358.55V1535.92C2072.04 1568.83 2045.1 1595.77 2012.19 1595.77H1685.54C1652.67 1595.77 1625.73 1568.83 1625.73 1535.92V1358.55C1625.73 1325.64 1652.67 1298.75 1685.54 1298.75H2012.19C2031.56 1298.75 2048.86 1308.08 2059.83 1322.46C2067.48 1332.5 2072.04 1345.02 2072.04 1358.55Z" fill="white"/>
<g opacity="0.25">
<path d="M2072.03 1358.56V1535.93C2072.03 1568.83 2045.11 1595.76 2012.2 1595.76H1685.55C1652.64 1595.76 1625.72 1568.83 1625.72 1535.93V1469.59C1674.78 1519.6 1771.26 1551 1859.74 1551.47C1888.18 1551.62 1911.11 1529.14 1913.14 1500.77C1913.16 1500.49 1913.18 1500.21 1913.21 1499.92C1915.38 1475.04 1935.88 1454.89 1960.79 1453.09C1989.17 1451.05 2013.12 1472 2015.92 1499.24C2058.75 1446.37 2046.21 1354.46 2059.83 1322.46C2067.49 1332.51 2072.03 1345.01 2072.03 1358.56Z" fill="#371A45"/>
</g>
<path d="M2012.21 1612.17H1685.55C1643.52 1612.17 1609.33 1577.97 1609.33 1535.95V1358.55C1609.33 1316.53 1643.52 1282.33 1685.55 1282.33H2012.21C2054.23 1282.33 2088.43 1316.53 2088.43 1358.55V1535.95C2088.43 1577.97 2054.23 1612.17 2012.21 1612.17ZM1685.55 1315.14C1661.61 1315.14 1642.14 1334.62 1642.14 1358.55V1535.95C1642.14 1559.88 1661.61 1579.35 1685.55 1579.35H2012.21C2036.14 1579.35 2055.62 1559.88 2055.62 1535.95V1358.55C2055.62 1334.62 2036.14 1315.14 2012.21 1315.14H1685.55Z" fill="#371A45"/>
<path d="M1964.6 1498.83C1993.09 1498.83 2016.19 1475.74 2016.19 1447.25C2016.19 1418.76 1993.09 1395.67 1964.6 1395.67C1936.11 1395.67 1913.02 1418.76 1913.02 1447.25C1913.02 1475.74 1936.11 1498.83 1964.6 1498.83Z" fill="#22A7F0"/>
<g opacity="0.7">
<path d="M2016.18 1447.25C2016.18 1450.78 2015.85 1454.21 2015.18 1457.55C2010.42 1433.96 1989.58 1416.22 1964.61 1416.22C1939.61 1416.22 1918.77 1433.96 1914.01 1457.55C1913.34 1454.21 1913 1450.78 1913 1447.25C1913 1418.75 1936.11 1395.68 1964.61 1395.68C1993.08 1395.68 2016.18 1418.75 2016.18 1447.25Z" fill="white"/>
</g>
<g opacity="0.35">
<path d="M2016.17 1447.24C2016.17 1475.72 1993.08 1498.81 1964.6 1498.81C1936.11 1498.81 1913.02 1475.72 1913.02 1447.24C1913.02 1440.65 1914.26 1434.37 1916.56 1428.57C1923.99 1447.81 1942.7 1461.44 1964.6 1461.44C1986.49 1461.44 2005.2 1447.81 2012.63 1428.57C2014.93 1434.37 2016.17 1440.65 2016.17 1447.24Z" fill="#371A45"/>
</g>
<path d="M1964.6 1511.13C1929.38 1511.13 1900.71 1482.47 1900.71 1447.25C1900.71 1412.02 1929.38 1383.36 1964.6 1383.36C1999.83 1383.36 2028.49 1412.02 2028.49 1447.25C2028.49 1482.47 1999.83 1511.13 1964.6 1511.13ZM1964.6 1407.97C1942.94 1407.97 1925.32 1425.59 1925.32 1447.25C1925.32 1468.91 1942.94 1486.52 1964.6 1486.52C1986.26 1486.52 2003.88 1468.91 2003.88 1447.25C2003.88 1425.59 1986.26 1407.97 1964.6 1407.97Z" fill="#371A45"/>
<path d="M1818.42 1608.06C1811.63 1608.06 1806.12 1602.56 1806.12 1595.76V1475.41L1740.79 1426.23V1298.74C1740.79 1291.94 1746.3 1286.43 1753.09 1286.43C1759.89 1286.43 1765.4 1291.94 1765.4 1298.74V1413.96L1830.73 1463.14V1595.76C1830.73 1602.56 1825.22 1608.06 1818.42 1608.06Z" fill="#371A45"/>
<g opacity="0.35">
<g opacity="0.35">
<path d="M2253.77 1037.22C2229.2 1067.16 2201.23 1094.06 2170.47 1117.48C2163.71 1122.69 2156.78 1127.69 2149.68 1132.45C2061.43 1192.82 1953.12 1225.3 1838.16 1218.12C1737.69 1211.85 1646.07 1176.21 1571.1 1120.02C1562.08 1113.26 1553.3 1106.2 1544.77 1098.86C1520.57 1078.07 1498.43 1054.98 1478.66 1029.96C1564.62 985.714 1629.01 906.727 1629.01 906.727L1617.73 948.23H2098.3C2098.3 948.23 2099.2 949.788 2100.92 952.864L2088.41 906.727C2088.41 906.727 2160.43 995.022 2253.77 1037.22Z" fill="#371A45"/>
</g>
</g>
<path d="M2399.06 808.541L2398.27 808.444C2392.12 807.696 2387.75 802.11 2388.5 795.966L2427.75 473.407C2428.5 467.263 2434.08 462.889 2440.23 463.637L2441.02 463.734C2505.48 471.578 2551.37 530.185 2543.52 594.638L2529.97 706.04C2522.12 770.493 2463.52 816.384 2399.06 808.541Z" fill="white"/>
<path d="M2413.35 812.425C2408.51 812.425 2403.62 812.132 2398.7 811.536L2397.9 811.438C2390.12 810.491 2384.56 803.386 2385.5 795.598L2424.76 473.039C2425.22 469.269 2427.11 465.905 2430.1 463.562C2433.1 461.218 2436.83 460.203 2440.59 460.642L2441.39 460.74C2507.39 468.777 2554.55 529.007 2546.52 595.003L2532.96 706.409C2525.53 767.483 2473.39 812.425 2413.35 812.425ZM2399.43 805.55C2462.11 813.221 2519.35 768.377 2526.97 705.677L2540.53 594.271C2548.16 531.576 2503.36 474.359 2440.66 466.727L2439.86 466.629C2435.36 466.038 2431.28 469.29 2430.74 473.773L2391.49 796.332C2391.23 798.5 2391.82 800.648 2393.17 802.372C2394.52 804.096 2396.46 805.189 2398.63 805.453L2399.43 805.55Z" fill="#371A45"/>
<g opacity="0.35">
<path d="M2536.33 653.757L2530.07 705.324C2522.17 770.155 2463.2 816.344 2398.33 808.474C2392.15 807.729 2387.75 802.075 2388.5 795.894L2398.9 710.18C2400.16 714.299 2403.74 717.473 2408.27 718.06L2415.92 718.969C2467.17 725.217 2514.78 697.67 2536.33 653.757Z" fill="#371A45"/>
</g>
<path d="M2413.36 826.189C2407.97 826.189 2402.52 825.867 2397.04 825.198L2396.23 825.1C2380.92 823.24 2369.98 809.26 2371.84 793.938L2411.09 471.379C2412.95 456.062 2426.91 445.09 2442.25 446.98L2443.06 447.078C2516.58 456.028 2569.13 523.133 2560.18 596.663L2546.62 708.069C2538.34 776.116 2480.25 826.189 2413.36 826.189ZM2405.84 792.351C2459.12 796.409 2506.79 757.595 2513.31 704.016L2526.87 592.61C2533.39 539.031 2496.39 490.003 2443.72 481.077L2405.84 792.351Z" fill="#371A45"/>
<path d="M1375.34 334.047L1376.13 334.144C1382.28 334.892 1386.65 340.478 1385.9 346.622L1346.65 669.181C1345.9 675.325 1340.32 679.699 1334.17 678.951L1333.38 678.854C1268.92 671.01 1223.03 612.403 1230.88 547.95L1244.43 436.548C1252.28 372.094 1310.88 326.203 1375.34 334.047Z" fill="white"/>
<path d="M1335.56 682.048C1334.98 682.048 1334.39 682.009 1333.81 681.941L1333.03 681.848C1267.01 673.811 1219.85 613.581 1227.88 547.58L1241.44 436.179C1245.33 404.211 1261.44 375.666 1286.8 355.813C1312.16 335.955 1343.7 327.175 1375.7 331.052L1376.5 331.15C1384.28 332.097 1389.84 339.202 1388.9 346.985L1349.64 669.548C1349.18 673.318 1347.29 676.682 1344.29 679.026C1341.77 681.004 1338.72 682.048 1335.56 682.048ZM1360.91 336.184C1335.45 336.184 1310.87 344.617 1290.51 360.559C1266.43 379.421 1251.12 406.535 1247.43 436.911L1233.87 548.312C1226.24 611.007 1271.04 668.229 1333.74 675.861L1334.52 675.954C1336.69 676.208 1338.86 675.627 1340.58 674.274C1342.3 672.926 1343.39 670.988 1343.66 668.815L1382.91 346.256C1383.46 341.774 1380.25 337.677 1375.77 337.135L1374.97 337.037C1370.27 336.468 1365.57 336.184 1360.91 336.184Z" fill="#371A45"/>
<g opacity="0.35">
<path d="M1357.57 579.668L1346.68 669.112C1345.93 675.293 1340.28 679.687 1334.1 678.943C1300.06 674.786 1271.13 656.572 1252.49 630.793C1235.66 607.513 1227.23 578.035 1230.97 547.242L1236.61 500.913C1250.07 543.799 1287.65 577.108 1335.19 582.903L1346.96 584.333C1351.26 584.847 1355.2 582.917 1357.57 579.668Z" fill="#371A45"/>
</g>
<path d="M1335.59 695.813C1334.44 695.813 1333.29 695.745 1332.13 695.603L1331.45 695.52C1257.82 686.56 1205.27 619.451 1214.22 545.921L1227.78 434.52C1232.11 398.9 1250.06 367.098 1278.31 344.974C1306.56 322.855 1341.72 313.04 1377.36 317.391L1378.17 317.489C1393.48 319.349 1404.42 333.329 1402.56 348.651L1363.31 671.21C1362.4 678.632 1358.67 685.253 1352.78 689.862C1347.81 693.753 1341.81 695.813 1335.59 695.813ZM1336.04 662.273L1336.1 662.283C1336.08 662.278 1336.06 662.278 1336.04 662.273ZM1361.06 349.959C1310.87 349.959 1267.3 387.518 1261.09 438.572L1247.53 549.973C1241.01 603.552 1278.01 652.585 1330.68 661.511L1368.56 350.237C1366.05 350.047 1363.55 349.959 1361.06 349.959Z" fill="#371A45"/>
<path d="M1887.47 1127.86C1852.35 1127.86 1816.77 1124.51 1781.03 1117.57C1479.82 1058.98 1282.42 766.272 1341.01 465.061C1369.39 319.148 1452.88 193.02 1576.13 109.915C1699.36 26.805 1847.59 -3.34699 1993.51 25.042C2294.72 83.621 2492.11 376.331 2433.53 677.542C2381.9 943.01 2148.36 1127.86 1887.47 1127.86ZM1886.11 20.672C1777.56 20.672 1671.5 52.869 1579.49 114.91C1457.59 197.122 1375 321.883 1346.93 466.214C1318.85 610.545 1348.67 757.166 1430.88 879.075C1513.09 1000.98 1637.85 1083.58 1782.18 1111.65C2080.14 1169.6 2369.67 974.334 2427.61 676.389C2455.68 532.058 2425.87 385.437 2343.66 263.528C2261.45 141.624 2136.69 59.031 1992.35 30.96C1956.95 24.075 1921.4 20.672 1886.11 20.672Z" fill="#371A45"/>
<g opacity="0.35">
<path d="M2439.99 600.746C2438.67 625.985 2435.54 651.43 2430.58 676.974C2372.18 977.015 2081.65 1172.95 1781.59 1114.62C1481.55 1056.23 1285.62 765.69 1343.94 465.636C1345.62 457.006 1347.5 448.409 1349.56 439.985C1334.75 711.584 1522.08 959.34 1796.62 1012.74C2088.05 1069.4 2370.45 886.217 2439.99 600.746Z" fill="#371A45"/>
</g>
<path d="M1887.47 1141.62C1851.48 1141.62 1815.02 1138.2 1778.4 1131.08C1628.88 1101.99 1499.63 1016.43 1414.47 890.139C1329.3 763.85 1298.41 611.955 1327.49 462.434C1356.57 312.912 1442.14 183.664 1568.43 98.5029C1694.72 13.3319 1846.62 -17.5471 1996.13 11.5299C2145.65 40.6069 2274.9 126.174 2360.07 252.463C2445.23 378.752 2476.12 530.647 2447.04 680.168C2394.13 952.205 2154.81 1141.62 1887.47 1141.62ZM1886.14 34.4359C1780.31 34.4359 1676.89 65.8319 1587.19 126.321C1468.33 206.477 1387.8 328.118 1360.43 468.84C1333.07 609.562 1362.13 752.522 1442.29 871.379C1522.44 990.236 1644.08 1070.77 1784.8 1098.14C2075.28 1154.62 2357.6 964.255 2414.1 673.762C2470.6 383.264 2280.22 100.964 1989.73 44.4699C1955.21 37.7559 1920.54 34.4359 1886.14 34.4359Z" fill="#371A45"/>
<path d="M1925.9 1074.84C1884.47 1074.84 1840.99 1071.54 1796.16 1063.94C1579.95 1027.27 1409.02 879.276 1374.08 806.722C1326.72 708.406 1311.7 600.496 1330.63 494.652C1355.28 356.815 1429.55 260.423 1551.37 208.163C1657.8 162.504 1798.52 153.466 1958.3 182.059C2118.09 210.633 2246.95 267.879 2330.95 347.596C2427.1 438.841 2463.35 554.993 2438.7 692.835C2419.78 798.675 2368.28 894.69 2289.78 970.496C2245.6 1013.17 2104.96 1074.84 1925.9 1074.84ZM1784.32 191.258C1699.49 191.258 1624.08 204.798 1561.46 231.663C1448.04 280.32 1378.84 370.315 1355.8 499.153C1337.83 599.671 1352.12 702.19 1397.12 795.628C1429.09 862.02 1595.79 1004.03 1800.44 1038.72C2027.23 1077.2 2222.45 999.979 2272.02 952.108C2346.62 880.057 2395.56 788.846 2413.54 688.334C2475.92 339.482 2112.81 235.668 1953.8 207.231C1894.19 196.565 1837.4 191.258 1784.32 191.258Z" fill="#371A45"/>
<g opacity="0.35">
<path d="M2367.89 408.538C2422.78 483.538 2446.37 577.246 2426.12 690.565C2407.04 797.203 2354.71 889.986 2280.92 961.306C2225.55 1014.77 2023.9 1089.59 1798.28 1051.35C1718.62 1037.86 1644.65 1008.42 1581.71 973.271C1860.04 1014.37 2105.84 922.224 2174.49 855.914C2268.21 765.409 2334.6 647.62 2358.78 512.329C2365.27 476.176 2368.16 441.58 2367.89 408.538Z" fill="#111A28"/>
</g>
<path d="M2423.81 442.507C2420.36 442.507 2416.94 441.111 2414.45 438.444L2413.14 437.126L2412.19 435.124C2343.24 289.631 2178.75 183.835 1960.9 144.865C1741.84 105.695 1550.61 150.334 1436.26 267.37L1434.71 268.727C1429.06 272.97 1421.05 271.823 1416.81 266.168C1412.86 260.899 1413.59 253.575 1418.29 249.171C1538.68 126.227 1738.05 79.0585 1965.4 119.694C2191.16 160.08 2362.25 270.783 2434.97 423.493C2438.05 428.996 2436.65 436.061 2431.47 439.948C2429.18 441.672 2426.49 442.507 2423.81 442.507Z" fill="#371A45"/>
</svg>
