<svg width="923" height="830" viewBox="0 0 923 830" fill="none" xmlns="http://www.w3.org/2000/svg">
<path d="M626.599 551.427C626.599 551.427 547.038 831.614 308.888 812.584C241.671 807.17 197.461 775.1 169.492 742.66C137.955 705.955 127.087 668.758 127.087 668.758L97.6819 560.448L48.9609 380.902L48.9199 380.861L36.4121 334.724C36.4121 334.724 108.427 423.02 201.768 465.22C276.449 499.013 364.828 503.278 440.903 409.076L626.599 551.427Z" fill="white"/>
<g opacity="0.25">
<path d="M125.688 588.054L127.101 668.789C127.101 668.789 165.709 801.125 308.889 812.555C547.038 831.603 626.57 551.407 626.57 551.407L427.115 494.137C604.779 628.134 454.866 719.329 297.176 706.713C193.665 698.436 144.817 627.021 125.688 588.054Z" fill="#371A45"/>
</g>
<path d="M331.488 829.882C323.597 829.882 315.637 829.565 307.585 828.92C154.885 816.708 111.766 674.794 111.351 673.363L0.398438 264.721L49.1145 324.355C50.3105 325.82 170.188 470.8 294.407 470.805C294.558 470.805 294.705 470.805 294.856 470.8C344.802 470.663 389.641 446.425 428.127 398.764L438.177 386.323L645.404 545.19L642.362 555.913C641.518 558.887 621.083 629.595 570.268 698.843C507.094 784.926 424.926 829.878 331.488 829.882ZM69.2024 392.92L142.928 664.473C144.31 669.102 180.433 785.84 310.203 796.216C402.576 803.584 481.039 764.561 543.27 680.176C579.803 630.63 599.94 578.999 607.406 557.402L443.28 431.572C400.502 479.263 350.633 503.481 294.856 503.613C294.714 503.613 294.554 503.613 294.407 503.613C203.67 503.613 118.968 439.643 69.2024 392.92Z" fill="#371A45"/>
<path d="M396.374 384.573C387.796 532.64 530.9 561.977 572.048 564.266C657.867 569.025 708.117 502.021 708.117 502.021L669.481 397.288L654.794 342.499L623.676 321.828C611.635 264.644 571.187 191.669 532.335 201.312C532.335 201.312 403.759 256.942 396.374 384.573Z" fill="white"/>
<g opacity="0.35">
<path d="M733.489 461.075C720.458 504.068 652.319 526.004 535.368 475.125C494.173 457.203 468.087 416.677 481.118 373.684C494.149 330.691 539.567 306.403 582.56 319.434C625.553 332.465 746.521 418.082 733.489 461.075Z" fill="#371A45"/>
</g>
<path d="M562.178 256.856L577.827 422.386L694.873 358.015C694.873 358.015 729.133 343.245 770.06 321.324C838.451 284.716 925.534 228.148 902.258 187.453C862.777 118.362 668.795 260.675 668.795 260.675C668.795 260.675 795.14 50.1207 710.229 18.5127C663.526 1.0997 614.221 109.616 585.972 185.989C571.212 225.782 562.178 256.856 562.178 256.856Z" fill="white"/>
<g opacity="0.35">
<path d="M562.178 256.856L577.827 422.386L694.873 358.015C694.873 358.015 729.133 343.245 770.06 321.324C726.932 317.422 671.525 308.084 644.701 285.598C620.028 264.921 617.675 208.498 585.972 185.989C571.212 225.782 562.178 256.856 562.178 256.856Z" fill="#371A45"/>
</g>
<path d="M577.82 438.798C575.183 438.798 572.546 438.163 570.144 436.889C565.261 434.306 562.009 429.438 561.487 423.935L545.842 258.413C545.647 256.352 545.847 254.277 546.423 252.29C552.722 230.635 609.885 39.7696 676.999 6.03965C690.016 -0.503354 703.483 -1.51439 715.959 3.12961C732.985 9.46761 745.202 22.0117 751.296 39.4037C767.126 84.5847 738.987 158.798 713.947 210.932C763.781 180.517 835.402 144.179 880.534 153.764C896.452 157.148 908.893 165.986 916.516 179.326C923.21 191.04 924.314 204.511 919.719 218.286C897.009 286.318 725.202 362.773 702.097 372.788L585.725 436.767C583.264 438.12 580.545 438.798 577.82 438.798ZM578.802 258.462L591.8 395.986L686.971 343.662C687.43 343.413 687.898 343.184 688.377 342.974C758.455 312.715 874.788 249.287 888.597 207.896C890.706 201.573 889.403 198.008 888.031 195.606C885.013 190.328 880.604 187.32 873.719 185.86C825.941 175.631 716.59 245.977 678.49 273.912C672.191 278.526 663.51 278.072 657.738 272.804C651.967 267.545 650.702 258.942 654.72 252.247C678.665 212.31 737.132 98.1786 720.33 50.2446C717.449 42.0266 712.425 36.8267 704.515 33.8827C701.888 32.9067 698.06 32.1886 691.737 35.3526C651.306 55.6686 601.497 181.645 578.802 258.462Z" fill="#371A45"/>
<path d="M729.291 491.043C697.652 519.078 602.78 507.891 577.232 471.864C555.503 441.194 592.396 421.694 602.647 417.001C604.247 416.243 605.211 415.892 605.211 415.892C605.211 415.892 573.846 394.815 576.628 363.862C576.806 361.859 577.127 359.813 577.639 357.698C585.703 323.46 684.215 321.651 722.966 340.553C751.935 354.691 759.793 370.614 758.637 384.748C757.416 399.805 745.967 412.833 738.925 419.527C735.687 422.574 733.412 424.284 733.412 424.284C733.412 424.284 754.648 468.602 729.291 491.043Z" fill="white"/>
<g opacity="0.35">
<path d="M738.927 419.526C711.133 424.557 656.545 430.895 602.647 417.001C604.247 416.243 605.211 415.893 605.211 415.893C605.211 415.893 573.846 394.815 576.628 363.862C606.419 380.52 690.536 420.544 758.638 384.748C757.418 399.805 745.97 412.833 738.927 419.526Z" fill="#371A45"/>
</g>
<g opacity="0.35">
<path d="M729.291 491.042C697.652 519.077 602.78 507.89 577.232 471.863C566.543 456.795 570.032 444.44 577.549 435.191C578.568 437.342 579.862 439.578 581.481 441.868C606.99 477.883 701.863 489.07 733.489 461.074C736.77 458.169 739.3 454.908 741.138 451.393C742.855 464.813 741.309 480.371 729.291 491.042Z" fill="#371A45"/>
</g>
<path d="M672.391 523.218C665.316 523.218 657.982 522.798 650.477 521.929C611.034 517.388 578.656 502.222 563.866 481.368C552.226 464.952 553.085 450.538 555.853 441.329C559.618 428.814 568.817 419.303 577.816 412.618C566.737 399.405 555.785 379.093 561.678 353.97C563.714 345.303 570.086 333.101 588.876 324.185C627.606 305.791 697.845 310.035 730.175 325.801C757.89 339.322 772.953 356.743 774.951 377.578C777.094 399.99 763.042 418.56 752.866 428.867C760.185 450.927 763.017 483.115 740.166 503.344C725.629 516.206 701.161 523.218 672.391 523.218ZM655.199 345.005C635.394 345.005 615.814 347.715 602.943 353.823C596.698 356.787 594.032 359.717 593.622 361.469C588.309 384.091 614.164 402.138 614.428 402.319C619.443 405.761 622.177 411.723 621.474 417.768C620.766 423.813 616.811 428.994 611.137 431.191C604.502 433.818 589.848 442.099 587.26 450.815C586.869 452.128 585.834 455.625 590.629 462.387C599.692 475.165 625.253 486 654.233 489.335C681.865 492.523 707.681 488.275 718.418 478.773C733.823 465.14 718.769 431.717 718.608 431.39C715.224 424.334 717.29 415.877 723.545 411.175C728.755 407.191 743.511 392.943 742.285 380.648C741.206 369.842 727.285 360.892 715.791 355.292C702.528 348.823 678.71 345.005 655.199 345.005Z" fill="#371A45"/>
<path d="M683.977 445.644C659.822 445.644 629.914 442.475 599.543 431.284C591.042 428.154 586.687 418.725 589.821 410.224C592.951 401.723 602.384 397.343 610.881 400.502C670.232 422.362 728.928 408.495 729.514 408.354C738.323 406.21 747.19 411.606 749.333 420.41C751.476 429.214 746.081 438.086 737.278 440.229C735.721 440.61 714.417 445.644 683.977 445.644Z" fill="#371A45"/>
<path d="M532.337 201.327C583.913 188.521 638.241 321.154 625.36 369.382C615.527 406.199 563.142 423.522 525.649 361.378C487.662 298.415 451.343 221.437 532.337 201.327Z" fill="white"/>
<path d="M708.116 502.041C708.116 502.041 657.857 569.017 572.067 564.263C530.907 561.982 387.797 532.647 396.371 384.562C403.759 256.942 532.336 201.328 532.336 201.328C583.912 188.522 638.24 321.155 625.359 369.383C615.526 406.2 555.092 410.448 529.16 332.56C529.16 332.56 535.406 398.062 472.323 422.34L571.581 528.056L667.899 537.869L708.116 502.041Z" fill="white"/>
<path d="M504.546 401.621L502.568 399.522C504.802 398.656 506.867 397.782 508.877 396.806C507.532 398.413 506.098 400.035 504.546 401.621Z" fill="white"/>
<g opacity="0.35">
<path d="M534.323 322.326C535.064 296.839 584.53 377.291 624.39 372.553C613.733 401.634 569.548 407.011 541.397 359.782C544.827 340.123 534.323 322.326 534.323 322.326Z" fill="#371A45"/>
</g>
<g opacity="0.35">
<path d="M651.663 536.207L667.914 537.876C644.844 552.91 612.354 566.503 572.062 564.275C530.886 561.993 387.785 532.631 396.369 384.56C401.394 297.719 462.574 244.184 501.139 218.891C466.965 248.644 430.433 295.508 426.595 361.754C418.01 509.824 561.112 539.187 602.288 541.469C620.375 542.45 636.882 540.297 651.663 536.207Z" fill="#371A45"/>
</g>
<path d="M708.072 502.094C707.572 502.757 703.625 507.86 696.475 514.906L693.978 514.663L708.072 502.094Z" fill="white"/>
<path d="M698.14 515.069C696.432 516.18 694.672 517.317 692.847 518.393C694.111 517.191 695.324 516.016 696.474 514.907L698.14 515.069Z" fill="white"/>
<path d="M427.123 510.542C422.245 510.542 417.41 508.374 414.179 504.224C388.749 471.622 377.249 431.04 379.993 383.614C387.874 247.466 520.194 188.707 525.824 186.27C526.654 185.914 527.509 185.626 528.383 185.406C541.464 182.164 561.904 183.199 584.926 206.622C623.476 245.855 652.406 331.695 641.21 373.619C635.286 395.782 616.531 410.553 593.421 411.251C575.989 411.954 554.53 403.634 536.801 381.856C527.47 403.692 509.706 425.528 478.217 437.647C469.755 440.909 460.267 436.69 457.015 428.233C453.758 419.776 457.977 410.284 466.429 407.032C516.742 387.667 513.007 336.212 512.822 334.029C512.124 325.748 517.723 318.209 525.858 316.539C534.012 314.854 542.099 319.498 544.726 327.379C557.304 365.162 577.763 378.468 591.772 378.468C591.997 378.468 592.21 378.468 592.43 378.458C600.97 378.199 607.353 373.229 609.511 365.152C617.031 336.993 593.48 262.144 561.522 229.615C555.116 223.097 545.854 215.826 537.49 217.012C524.238 223.296 419.057 276.573 412.749 385.508C410.478 424.756 419.663 457.91 440.049 484.048C445.62 491.192 444.345 501.499 437.201 507.07C434.202 509.409 430.653 510.542 427.123 510.542Z" fill="#371A45"/>
<path d="M580.893 580.913C577.695 580.913 574.457 580.825 571.161 580.639C562.113 580.141 555.189 572.402 555.692 563.354C556.195 554.306 564.08 547.329 572.977 547.885C648.485 551.962 693.163 494.599 695.028 492.153C700.502 484.956 710.78 483.52 717.992 488.969C725.204 494.418 726.664 504.658 721.239 511.889C719.052 514.8 668.388 580.913 580.893 580.913Z" fill="#371A45"/>
<path d="M376.347 822.021C376.269 822.021 376.191 822.021 376.112 822.016C342.216 821.381 316.459 808.476 299.549 783.661C240.13 696.444 316.673 487.65 319.959 478.803C322.327 472.431 329.427 469.199 335.775 471.557C342.147 473.925 345.389 481.005 343.026 487.372C342.264 489.423 267.587 693.065 319.891 769.813C332.22 787.899 350.76 796.927 376.571 797.416C383.368 797.543 388.768 803.153 388.641 809.945C388.514 816.665 383.031 822.021 376.347 822.021Z" fill="#371A45"/>
</svg>
