<svg width="924" height="830" viewBox="0 0 924 830" fill="none" xmlns="http://www.w3.org/2000/svg">
<path d="M887.007 334.726L875.729 376.229L829.1 548.023L796.332 668.759C796.332 668.759 783.003 714.445 742.977 754.472C714.844 782.524 673.546 807.868 614.531 812.584C376.381 831.613 296.82 551.427 296.82 551.427L482.517 409.078C563.76 509.677 658.987 497.989 736.662 457.963C822.62 413.713 887.007 334.726 887.007 334.726Z" fill="white"/>
<g opacity="0.25">
<path d="M797.727 588.054L796.315 668.789C796.315 668.789 757.706 801.125 614.526 812.555C376.377 831.603 296.846 551.407 296.846 551.407L496.301 494.137C318.636 628.134 468.55 719.329 626.241 706.713C729.751 698.436 778.598 627.021 797.727 588.054Z" fill="#371A45"/>
</g>
<path d="M591.927 829.882C498.48 829.882 416.326 784.936 353.148 698.842C302.333 629.594 281.898 558.886 281.053 555.912L278.011 545.189L485.238 386.322L495.287 398.763C533.773 446.424 578.612 470.662 628.558 470.799C628.7 470.799 628.861 470.804 629.007 470.804C753.236 470.804 873.104 325.819 874.3 324.354L923.011 264.725L812.147 673.065C811.649 674.794 768.534 816.708 615.829 828.92C607.786 829.565 599.812 829.882 591.927 829.882ZM316.009 557.402C323.47 578.989 343.607 630.625 380.15 680.176C442.377 764.57 520.882 803.648 613.212 796.216C742.987 785.84 779.105 669.102 780.58 664.141L854.213 392.915C804.452 439.634 719.735 503.613 629.008 503.613C628.852 503.613 628.71 503.613 628.559 503.613C572.783 503.481 522.914 479.262 480.136 431.572L316.009 557.402Z" fill="#371A45"/>
<path d="M527.042 384.573C535.62 532.64 392.516 561.977 351.368 564.266C265.549 569.025 215.299 502.021 215.299 502.021L253.936 397.288L268.623 342.499L299.741 321.828C311.782 264.644 352.23 191.669 391.082 201.312C391.082 201.312 519.657 256.942 527.042 384.573Z" fill="white"/>
<g opacity="0.35">
<path d="M189.927 461.075C202.959 504.068 271.096 526.004 388.047 475.125C429.242 457.203 455.328 416.677 442.297 373.684C429.265 330.691 383.849 306.403 340.856 319.434C297.863 332.465 176.896 418.082 189.927 461.075Z" fill="#371A45"/>
</g>
<path d="M361.238 256.856L345.589 422.386L228.543 358.015C228.543 358.015 194.283 343.245 153.356 321.324C84.9649 284.716 -2.11815 228.148 21.1578 187.453C60.6388 118.362 254.62 260.675 254.62 260.675C254.62 260.675 128.275 50.1207 213.187 18.5127C259.89 1.0997 309.195 109.616 337.444 185.989C352.204 225.782 361.238 256.856 361.238 256.856Z" fill="white"/>
<g opacity="0.35">
<path d="M361.239 256.856L345.589 422.386L228.543 358.015C228.543 358.015 194.283 343.245 153.356 321.324C196.484 317.422 251.891 308.084 278.715 285.598C303.387 264.921 305.741 208.498 337.443 185.989C352.204 225.782 361.239 256.856 361.239 256.856Z" fill="#371A45"/>
</g>
<path d="M345.594 438.798C342.869 438.798 340.15 438.119 337.689 436.767L221.317 372.783C198.216 362.768 26.4101 286.318 3.70009 218.286C-0.899909 204.512 0.209095 191.04 6.90309 179.326C14.5251 165.986 26.9661 157.148 42.8801 153.764C88.0511 144.169 159.643 180.522 209.467 210.932C184.428 158.798 156.288 84.584 172.118 39.404C178.212 22.011 190.429 9.46692 207.455 3.12992C219.93 -1.50908 233.397 -0.503048 246.415 6.03995C313.529 39.77 370.692 230.635 376.991 252.29C377.567 254.277 377.767 256.353 377.572 258.413L361.928 423.935C361.405 429.438 358.154 434.306 353.271 436.889C350.867 438.164 348.23 438.798 345.594 438.798ZM60.0082 184.863C56.3212 184.863 52.8741 185.18 49.6951 185.859C42.8151 187.319 38.4011 190.327 35.3881 195.605C34.0161 198.007 32.7122 201.577 34.8172 207.895C48.6302 249.287 164.963 312.714 235.041 342.973C235.52 343.183 235.988 343.413 236.447 343.661L331.613 395.985L344.611 258.461C321.916 181.645 272.106 55.6679 231.676 35.3509C225.358 32.1869 221.53 32.9049 218.898 33.8809C210.988 36.8249 205.963 42.026 203.082 50.243C186.28 98.178 244.747 212.309 268.692 252.245C272.71 258.939 271.446 267.543 265.674 272.802C259.903 278.066 251.221 278.53 244.922 273.91C209.353 247.837 111.697 184.863 60.0082 184.863Z" fill="#371A45"/>
<path d="M194.124 491.043C225.763 519.078 320.635 507.891 346.183 471.864C367.912 441.194 331.019 421.694 320.768 417.001C319.168 416.243 318.204 415.893 318.204 415.893C318.204 415.893 349.569 394.815 346.787 363.862C346.609 361.859 346.288 359.813 345.775 357.698C337.711 323.46 239.199 321.651 200.448 340.553C171.479 354.691 163.621 370.614 164.777 384.748C165.998 399.805 177.447 412.833 184.489 419.527C187.727 422.574 190.002 424.284 190.002 424.284C190.002 424.284 168.767 468.602 194.124 491.043Z" fill="white"/>
<g opacity="0.35">
<path d="M184.489 419.526C212.283 424.557 266.871 430.895 320.769 417.001C319.169 416.243 318.205 415.893 318.205 415.893C318.205 415.893 349.57 394.815 346.788 363.862C316.997 380.52 232.88 420.544 164.778 384.748C165.998 399.805 177.446 412.833 184.489 419.526Z" fill="#371A45"/>
</g>
<g opacity="0.35">
<path d="M194.124 491.043C225.763 519.078 320.635 507.891 346.183 471.864C356.872 456.796 353.383 444.441 345.866 435.192C344.847 437.343 343.553 439.579 341.934 441.869C316.425 477.884 221.552 489.071 189.926 461.075C186.645 458.17 184.115 454.909 182.277 451.394C180.56 464.814 182.105 480.372 194.124 491.043Z" fill="#371A45"/>
</g>
<path d="M251.023 523.218C222.249 523.223 197.786 516.206 183.25 503.345C160.398 483.116 163.23 450.923 170.55 428.868C160.374 418.555 146.326 399.991 148.47 377.579C150.462 356.744 165.526 339.322 193.241 325.802C225.57 310.035 295.809 305.802 334.55 324.186C353.334 333.102 359.701 345.304 361.738 353.971C367.632 379.093 356.684 399.401 345.6 412.619C354.599 419.303 363.803 428.815 367.568 441.33C370.337 450.539 371.191 464.953 359.55 481.369C344.765 502.223 312.392 517.385 272.953 521.93C265.442 522.793 258.099 523.218 251.023 523.218ZM268.216 345.005C244.705 345.005 220.892 348.818 207.625 355.293C196.136 360.893 182.21 369.844 181.136 380.649C179.91 392.944 194.661 407.192 199.925 411.215C206.102 415.937 208.172 424.379 204.808 431.391C204.671 431.674 189.525 465.082 204.998 478.774C215.74 488.276 241.546 492.524 269.192 489.336C298.166 485.996 323.723 475.166 332.786 462.388C337.6 455.606 336.546 452.1 336.145 450.781C333.513 442.016 318.655 433.657 312.283 431.191C306.58 428.984 302.581 423.784 301.902 417.71C301.223 411.631 303.982 405.684 309.06 402.276C309.255 402.139 335.105 384.092 329.792 361.47C329.382 359.717 326.716 356.787 320.476 353.824C307.61 347.714 288.02 345.005 268.216 345.005Z" fill="#371A45"/>
<path d="M239.436 445.644C208.992 445.644 187.693 440.61 186.135 440.229C177.331 438.085 171.936 429.213 174.079 420.41C176.223 411.611 185.109 406.23 193.869 408.345C194.474 408.491 253.557 422.227 312.536 400.498C321.022 397.363 330.461 401.719 333.6 410.225C336.73 418.726 332.374 428.155 323.873 431.289C293.509 442.475 263.592 445.644 239.436 445.644Z" fill="#371A45"/>
<path d="M391.079 201.328C339.503 188.522 285.175 321.155 298.056 369.383C307.889 406.2 360.274 423.523 397.767 361.379C435.754 298.416 472.073 221.438 391.079 201.328Z" fill="white"/>
<path d="M215.299 502.042C215.299 502.042 265.558 569.018 351.348 564.264C392.508 561.983 535.618 532.648 527.044 384.563C519.655 256.943 391.079 201.329 391.079 201.329C339.503 188.523 285.175 321.156 298.056 369.384C307.889 406.201 368.323 410.449 394.255 332.561C394.255 332.561 388.01 398.063 451.092 422.341L351.834 528.057L255.516 537.87L215.299 502.042Z" fill="white"/>
<path d="M418.869 401.621L420.847 399.522C418.613 398.656 416.548 397.782 414.538 396.806C415.883 398.413 417.317 400.035 418.869 401.621Z" fill="white"/>
<g opacity="0.35">
<path d="M389.092 322.326C388.351 296.839 338.885 377.291 299.025 372.553C309.682 401.634 353.866 407.011 382.018 359.782C378.588 340.123 389.092 322.326 389.092 322.326Z" fill="#371A45"/>
</g>
<g opacity="0.35">
<path d="M271.752 536.207L255.502 537.876C278.572 552.91 311.061 566.503 351.353 564.275C392.529 561.993 535.63 532.631 527.046 384.56C522.021 297.719 460.841 244.184 422.276 218.891C456.45 248.644 492.981 295.508 496.82 361.754C505.405 509.824 362.304 539.187 321.128 541.469C303.041 542.45 286.533 540.297 271.752 536.207Z" fill="#371A45"/>
</g>
<path d="M215.344 502.094C215.844 502.757 219.791 507.86 226.941 514.906L229.438 514.663L215.344 502.094Z" fill="white"/>
<path d="M225.276 515.069C226.984 516.18 228.744 517.317 230.569 518.393C229.305 517.191 228.092 516.016 226.942 514.907L225.276 515.069Z" fill="white"/>
<path d="M496.292 510.542C492.762 510.542 489.207 509.409 486.214 507.07C479.07 501.499 477.796 491.191 483.367 484.048C503.753 457.915 512.937 424.761 510.667 385.508C504.363 276.621 399.275 223.345 385.921 217.012C377.493 215.811 368.299 223.091 361.898 229.615C329.935 262.144 306.385 336.993 313.905 365.152C316.063 373.228 322.445 378.199 330.985 378.458C345.233 378.922 365.912 365.753 378.69 327.379C381.332 319.464 389.505 314.796 397.645 316.51C405.809 318.234 411.38 325.812 410.584 334.117C410.408 336.212 406.673 387.667 456.985 407.032C465.437 410.284 469.656 419.776 466.399 428.233C463.152 436.68 453.665 440.904 445.198 437.647C413.709 425.528 395.945 403.687 386.609 381.851C368.889 403.623 347.586 411.905 329.993 411.25C306.883 410.552 288.128 395.781 282.205 373.618C271.009 331.694 299.944 245.854 338.494 206.621C361.507 183.198 381.946 182.163 395.032 185.405C395.906 185.625 396.761 185.913 397.591 186.269C403.221 188.706 535.54 247.465 543.421 383.613C546.165 431.05 534.666 471.63 509.236 504.223C505.999 508.374 501.17 510.542 496.292 510.542Z" fill="#371A45"/>
<path d="M342.522 580.913C255.017 580.913 204.368 514.8 202.18 511.885C196.741 504.639 198.205 494.356 205.456 488.921C212.692 483.486 222.946 484.946 228.391 492.153C230.251 494.599 274.861 551.987 350.437 547.885C359.358 547.319 367.219 554.306 367.722 563.354C368.225 572.402 361.301 580.141 352.253 580.639C348.963 580.825 345.716 580.913 342.522 580.913Z" fill="#371A45"/>
<path d="M547.068 822.021C540.383 822.021 534.9 816.664 534.773 809.946C534.646 803.154 540.046 797.544 546.843 797.417C572.658 796.929 591.203 787.9 603.528 769.805C655.867 692.984 581.15 489.424 580.388 487.378C578.02 481.006 581.267 473.926 587.634 471.558C594.016 469.2 601.086 472.432 603.454 478.804C606.74 487.652 683.283 696.446 623.864 783.662C606.955 808.476 581.198 821.382 547.301 822.017C547.224 822.021 547.146 822.021 547.068 822.021Z" fill="#371A45"/>
</svg>
