<svg width="3042" height="3493" viewBox="0 0 3042 3493" fill="none" xmlns="http://www.w3.org/2000/svg">
<g opacity="0.2">
<path d="M1609.71 3492.75C2156.65 3492.75 2600.03 3412.49 2600.03 3313.49C2600.03 3214.49 2156.65 3134.23 1609.71 3134.23C1062.77 3134.23 619.393 3214.49 619.393 3313.49C619.393 3412.49 1062.77 3492.75 1609.71 3492.75Z" fill="#371A45"/>
</g>
<path d="M2680.5 1165C2680.5 1165 2459.5 410.5 2168.5 299.999C1886.07 192.753 1453 418 1453 418C1453 418 1752 432.499 2098 504.5C2342 652.499 2680.5 1165 2680.5 1165Z" fill="white"/>
<path d="M1921.23 1501.79L1910.46 1618.56L1904.95 1678.04L1810.22 2703.73C1810.22 2703.73 1876.26 2706.43 1965.1 2702.46C1982.48 2701.68 2000.73 2700.66 2019.53 2699.31C2159.62 2689.32 2330.09 2661.3 2396.39 2586.38C2495.5 2474.34 2525.2 1916.18 2444.61 1692.61C2407.7 1590.12 2208.6 1541.02 2066.89 1518.72C2051.06 1516.19 2035.92 1514.04 2021.83 1512.2C1962.42 1504.33 1921.23 1501.79 1921.23 1501.79Z" fill="white"/>
<g opacity="0.3">
<path d="M1910.46 1618.56L1904.95 1678.04L1829.74 2492.45L1810.22 2703.73C1810.22 2703.73 1811.61 2703.78 1814.23 2703.87C1814.97 2703.87 1815.86 2703.9 1816.8 2703.94C1817.54 2703.95 1818.38 2703.97 1819.22 2704C1819.86 2704.04 1820.51 2704.03 1821.14 2704.08C1821.39 2704.06 1821.69 2704.11 1821.94 2704.09C1823.12 2704.12 1824.46 2704.16 1825.85 2704.16C1826.14 2704.21 1826.44 2704.2 1826.79 2704.2C1827.92 2704.22 1829.11 2704.24 1830.4 2704.28C1832.13 2704.33 1833.91 2704.34 1835.8 2704.36C1837.14 2704.36 1838.57 2704.42 1840.01 2704.43C1841.49 2704.44 1842.98 2704.46 1844.52 2704.48C1846.45 2704.51 1848.48 2704.51 1850.56 2704.56C1854.78 2704.57 1859.24 2704.62 1863.95 2704.6C1868.12 2704.65 1872.49 2704.63 1877.06 2704.59C1882.32 2704.55 1887.83 2704.55 1893.55 2704.47C1914.68 2704.21 1938.88 2703.63 1965.1 2702.46C1970.19 2702.23 1975.39 2701.97 1980.64 2701.71C1984.28 2701.53 1988.04 2701.31 1991.79 2701.09C2000.84 2700.57 2010.16 2699.99 2019.53 2699.31C2159.67 2689.33 2330.09 2661.31 2396.34 2586.37C2477.98 2494.13 2512.58 2099.39 2477.2 1838C2478.86 2064.57 2444.1 2305.82 2382.57 2375.34C2352.15 2409.72 2241.59 2278.39 2246.82 2206.02C2260.3 2019.37 2243.01 1777.52 2087.74 1626.77C2083.71 1622.85 1988.63 1631.14 1910.46 1618.56Z" fill="#371A45"/>
</g>
<path d="M1871.04 2721.25C1836.32 2721.25 1813.54 2720.39 1809.53 2720.23L1792.17 2719.52L1906.27 1484.35L1922.24 1485.33C1941.67 1486.53 2398.71 1516.53 2460.16 1686.99C2543.79 1919 2512.08 2480.51 2408.75 2597.32C2310.19 2708.74 2003.64 2721.25 1871.04 2721.25ZM1828.25 2687.72C1913.05 2689.41 2282.77 2689.92 2384.03 2575.46C2426.83 2527.08 2461.13 2372.02 2471.42 2180.43C2481.94 1984.55 2465.73 1799.77 2429.12 1698.19C2385.94 1578.42 2072.78 1529.91 1936.18 1519.39L1828.25 2687.72Z" fill="#371A45"/>
<path d="M2450.68 2166.03L2260.44 2171.27C2243.46 2171.74 2228.87 2184.31 2224.98 2201.93C2210.73 2266.45 2185.08 2417.26 2242.08 2470.48C2289.4 2514.66 2369.77 2513.96 2418.8 2474.1C2473.65 2429.51 2486.07 2280.93 2488.83 2207.2C2489.69 2184.28 2472.22 2165.43 2450.68 2166.03Z" fill="white"/>
<g opacity="0.3">
<path d="M2224.99 2201.95C2210.71 2266.45 2185.08 2417.26 2242.1 2470.47C2289.42 2514.66 2369.78 2513.96 2418.83 2474.09C2452.54 2446.64 2470.22 2379.87 2479.48 2315.4C2469.35 2347.33 2454.66 2372.91 2437.15 2389.29C2336.8 2483.11 2271.21 2362.88 2271.21 2362.88C2271.21 2362.88 2257.45 2390.52 2247.51 2391.61C2205.95 2396.15 2221.21 2259.14 2230.65 2188.43C2228.03 2192.4 2226.07 2196.95 2224.99 2201.95Z" fill="#371A45"/>
</g>
<path d="M2331.79 2520.48C2294.64 2520.48 2257.84 2507.76 2230.82 2482.54C2169.71 2425.48 2190.83 2280.01 2208.86 2198.37C2214.38 2173.38 2235.4 2155.46 2259.98 2154.78L2450.22 2149.53H2450.22C2464.76 2149.1 2478.55 2154.71 2488.99 2165.26C2499.97 2176.34 2505.92 2191.85 2505.32 2207.81C2501.5 2310.01 2485.19 2441.39 2429.21 2486.9C2401.61 2509.34 2366.55 2520.48 2331.79 2520.48ZM2451.13 2182.52L2260.89 2187.76C2251.48 2188.02 2243.34 2195.31 2241.09 2205.49C2213.4 2330.85 2217.98 2425.41 2253.35 2458.42C2293.36 2495.77 2364.36 2497.09 2408.39 2461.3C2443.54 2432.72 2467.44 2337.5 2472.34 2206.58C2472.6 2199.7 2470.12 2193.1 2465.54 2188.48C2461.59 2184.49 2456.43 2182.38 2451.14 2182.52H2451.13Z" fill="#371A45"/>
<path d="M2327.21 2516.26C2326.03 2515.51 2325.34 2514.98 2324.62 2514.45C2323.88 2513.9 2323.15 2513.35 2322.52 2512.81C2321.24 2511.73 2319.85 2510.67 2318.69 2509.55C2316.22 2507.35 2313.9 2505.09 2311.73 2502.74C2307.31 2498.1 2303.32 2493.2 2299.65 2488.14C2292.43 2477.94 2286.14 2467.23 2281.37 2455.96C2271.37 2433.6 2266.24 2409.82 2263.84 2386.24L2262.79 2368.52C2262.45 2362.63 2262.8 2356.74 2262.78 2350.87C2262.76 2339.08 2263.76 2327.65 2264.66 2316.05C2265.66 2304.49 2267.01 2292.94 2268.96 2281.45C2271.05 2269.86 2273.1 2258.72 2277.57 2246.98C2278.42 2244.74 2280.94 2243.61 2283.18 2244.47C2285.34 2245.29 2286.46 2247.63 2285.79 2249.8L2285.65 2250.25C2284.18 2255 2283.07 2260.77 2282.2 2266.2C2281.32 2271.73 2280.69 2277.32 2280.13 2282.92C2279.08 2294.13 2278.6 2305.44 2278.46 2316.75C2278.43 2328.02 2278.28 2339.51 2279.15 2350.61C2279.59 2356.18 2279.66 2361.77 2280.4 2367.28L2282.61 2383.76C2286.46 2405.5 2292.81 2426.7 2303.02 2445.53C2307.89 2455.06 2314 2463.76 2320.61 2471.78C2323.96 2475.76 2327.52 2479.51 2331.27 2482.89C2333.13 2484.62 2335.03 2486.21 2336.97 2487.69C2337.93 2488.5 2338.89 2489.08 2339.84 2489.78C2340.33 2490.15 2340.77 2490.42 2341.21 2490.69C2341.66 2490.98 2342.13 2491.27 2342.18 2491.27L2342.24 2491.3C2349.24 2495.26 2351.72 2504.15 2347.76 2511.16C2343.8 2518.17 2334.91 2520.64 2327.9 2516.68C2327.68 2516.55 2327.42 2516.4 2327.21 2516.26Z" fill="#371A45"/>
<path d="M2158.38 1653.58C2181.9 1651.59 2205.24 1650.27 2228.73 1649.29C2252.19 1648.33 2275.69 1647.79 2299.26 1647.96C2322.83 1648.14 2346.46 1648.71 2370.2 1650.67C2393.96 1652.63 2417.79 1655.32 2441.96 1661.13C2450.83 1663.26 2456.28 1672.18 2454.15 1681.05C2452.02 1689.91 2443.1 1695.37 2434.24 1693.24C2433.94 1693.17 2433.65 1693.09 2433.36 1693L2433.16 1692.94C2412.23 1686.6 2389.72 1682.66 2367.13 1679.51C2344.49 1676.33 2321.48 1674.44 2298.42 1672.96C2275.36 1671.46 2252.18 1670.68 2228.99 1670.3C2205.82 1669.94 2182.49 1669.93 2159.43 1670.56L2159.33 1670.56C2154.63 1670.69 2150.72 1666.99 2150.59 1662.29C2150.47 1657.77 2153.92 1653.97 2158.38 1653.58Z" fill="#371A45"/>
<path d="M1467.44 1527.44L1301.69 1797.89L1269.19 1850.89C1250.24 2069.74 932.193 2123.24 614.393 2030.19V1686.19C666.043 1640.29 721.593 1638.14 780.893 1678.24C797.243 1689.34 816.592 1694.69 836.143 1694.54L978.343 1693.44C1008.59 1693.24 1037.84 1682.19 1061.19 1662.24C1198.64 1544.84 1334.89 1470.09 1467.44 1527.44Z" fill="white"/>
<path d="M902.173 2094.22C811.453 2094.22 711.226 2079.39 608.772 2049.39C600.249 2046.9 594.392 2039.08 594.392 2030.2V1686.19C594.392 1680.48 596.836 1675.04 601.111 1671.24C659.129 1619.69 725.174 1616.39 792.085 1661.69C804.71 1670.24 819.712 1674.57 836.006 1674.56L978.169 1673.46C1003.6 1673.27 1028.47 1663.88 1048.2 1647.03C1164.99 1547.29 1319.09 1441.47 1475.39 1509.11C1480.71 1511.41 1484.77 1515.9 1486.52 1521.43C1488.26 1526.96 1487.53 1532.97 1484.5 1537.92L1288.65 1857.43C1281.44 1925.14 1246.46 1982.2 1187.26 2022.68C1117.87 2070.13 1017.75 2094.22 902.173 2094.22ZM634.393 2015.11C847.745 2074.56 1054.68 2064.89 1164.68 1989.66C1215.76 1954.73 1244.22 1907.47 1249.27 1849.19C1249.53 1846.09 1250.52 1843.11 1252.14 1840.46L1437.73 1537.67C1337.1 1505.83 1223.67 1549.77 1074.17 1677.45C1047.3 1700.4 1013.31 1713.19 978.478 1713.46L836.315 1714.56C811.991 1714.55 789.025 1707.92 769.665 1694.82C720.065 1661.24 676.872 1661.36 634.394 1695.47L634.393 2015.11Z" fill="#371A45"/>
<path d="M631.221 1824.2C633.784 1828.79 636.72 1832.6 639.848 1835.31C643.013 1837.95 646.323 1839.56 650.32 1840.34C658.294 1841.98 669.508 1838.68 679.724 1832.37C690.048 1826.07 699.664 1817.17 707.975 1807.13C716.269 1797.02 723.281 1785.66 728.654 1773.6L728.736 1773.42C731.317 1767.62 738.106 1765.02 743.899 1767.6C749.322 1770.01 751.933 1776.17 750.131 1781.69C745.293 1796.34 738.514 1810.3 729.896 1823.25C721.198 1836.15 710.804 1848.2 697.634 1858.25C691.03 1863.25 683.683 1867.73 675.275 1871.07C666.902 1874.34 657.315 1876.61 647.016 1875.93C636.78 1875.37 626.274 1871.78 617.802 1866.1C609.321 1860.41 602.773 1853.2 597.564 1845.82L597.35 1845.51C590.969 1836.47 593.126 1823.97 602.167 1817.59C611.209 1811.21 623.711 1813.36 630.091 1822.41C630.5 1822.98 630.882 1823.6 631.221 1824.2Z" fill="#371A45"/>
<path d="M636.146 2048.71C628.668 2048.71 620.565 2048.01 611.786 2046.46C603.627 2045.02 598.182 2037.24 599.623 2029.08C601.063 2020.93 608.847 2015.47 617.001 2016.92C645.419 2021.94 667.06 2016.41 681.305 2000.5C705.524 1973.44 707.599 1917.63 686.996 1847.37C684.665 1839.42 689.22 1831.09 697.169 1828.76C705.106 1826.45 713.453 1830.98 715.785 1838.93C739.718 1920.55 735.411 1985.03 703.656 2020.5C691.448 2034.14 670.384 2048.71 636.146 2048.71Z" fill="#371A45"/>
<path d="M1005.72 2081.74C999.82 2081.74 994.227 2078.24 991.842 2072.45C988.688 2064.79 992.338 2056.02 999.996 2052.87C1073.11 2022.74 1077.66 1856.71 1009.92 1690.3C1006.8 1682.63 1010.49 1673.88 1018.16 1670.76C1025.83 1667.62 1034.59 1671.32 1037.71 1678.99C1104.67 1843.5 1113.15 2038.69 1011.43 2080.6C1009.56 2081.37 1007.62 2081.74 1005.72 2081.74Z" fill="#371A45"/>
<g opacity="0.3">
<path d="M1323.54 1638.89C1316.49 1679.79 1309.19 1720.59 1301.69 1761.39L1269.19 1814.39C1250.24 2033.24 932.192 2086.74 614.392 1993.69V1820.49C637.442 1823.49 660.592 1826.44 683.692 1829.39C720.692 1834.14 757.742 1838.89 794.942 1841.99C834.342 1845.29 873.892 1846.69 913.442 1846.24C959.342 1845.69 1005.64 1842.59 1049.84 1830.24C1158.29 1799.89 1243.39 1717.94 1323.54 1638.89Z" fill="#371A45"/>
</g>
<path d="M2188.59 3335.9C2010.34 3429.1 1829.54 3407.5 1755.99 3346.65C1708.59 3307.4 1705.74 3251.9 1776.89 3200.25C1679.84 3077.8 1634.79 2951.15 1589.29 2769.45C1583.84 2747.5 1578.34 2724.75 1572.74 2701.1C1587.39 2906.7 1581.59 3100.85 1540.84 3275.35C1530.74 3318.65 1492.39 3349.6 1447.94 3350.8C1318.29 3354.25 1192.49 3347.2 1071.04 3328.4C1014.74 3319.65 979.995 3264.85 991.845 3213.1C993.895 3204.05 997.395 3195.15 1002.39 3186.55C1022.94 3151.45 1061.19 3122.6 1114.39 3112.75C1114.39 2427.75 1201.04 1982.5 1319.39 1678.8L1452.14 1507.75L2134.39 1585.25L2143.19 1616.1L2216.24 1872.85C2227.74 1913.25 2235.89 1954.45 2240.59 1996C2246.34 2045.7 2247.14 2095.9 2243.04 2145.9C2242.59 2151.15 2242.15 2156.35 2241.59 2161.55C2240.64 2170.8 2239.65 2180.15 2238.55 2189.5C2236.9 2203.95 2235.05 2218.5 2233.15 2233.15C2216.7 2358.65 2192.25 2492.25 2179.7 2647.15C2172.65 2734.2 2179.09 2821.95 2200.2 2906.7C2226.6 3012.9 2241.7 3122.3 2247.25 3234.45C2249.34 3276.8 2226.24 3316.25 2188.59 3335.9Z" fill="white"/>
<path d="M1327.72 1682.03C1318.68 1710.91 1308.28 1739.23 1300.06 1768.32C1295.72 1782.78 1290.94 1797.08 1286.97 1811.65L1274.69 1855.21C1270.44 1869.67 1266.92 1884.36 1263.09 1898.95C1259.37 1913.57 1255.46 1928.13 1251.9 1942.78L1241.55 1986.84L1236.38 2008.86L1231.65 2030.99C1205.98 2148.93 1187.16 2268.38 1173.22 2388.41C1159.53 2508.47 1149.57 2629.02 1143.59 2749.84C1141.22 2810.29 1138.28 2870.7 1137.14 2931.21C1136.36 2961.45 1135.46 2991.69 1135.4 3021.96L1134.39 3112.74C1134.29 3122.43 1127.4 3130.46 1118.29 3132.36L1118.04 3132.41H1118.03C1092.08 3137.32 1067.41 3147.68 1047.77 3164.01C1037.86 3172.03 1029.41 3181.61 1022.52 3192.05L1020.03 3196.03C1019.21 3197.35 1018.72 3198.65 1018.03 3199.95C1016.82 3202.58 1015.15 3205.03 1014.43 3207.83C1012.3 3213.19 1011.03 3218.8 1010.18 3224.46C1007.06 3247.19 1015.74 3271.59 1032.52 3287.79C1040.82 3295.93 1050.96 3302.05 1062 3305.58C1064.66 3306.77 1067.62 3307.06 1070.44 3307.77C1071.93 3308.07 1073.12 3308.44 1074.86 3308.72L1080.24 3309.52C1087.42 3310.56 1094.58 3311.72 1101.77 3312.66C1159.25 3320.69 1217.13 3326.01 1275.16 3328.9C1304.18 3330.35 1333.23 3331.2 1362.3 3331.49C1376.83 3331.67 1391.37 3331.64 1405.91 3331.52L1427.71 3331.23L1438.62 3330.99L1444.07 3330.87C1445.9 3330.84 1447.8 3330.81 1449.11 3330.67C1472.52 3329.83 1495.02 3317.37 1508.68 3298.47C1512.2 3293.8 1514.85 3288.59 1517.29 3283.32C1518.21 3280.56 1519.52 3277.94 1520.17 3275.09L1521.35 3270.88L1522.51 3265.61C1525.59 3251.51 1528.84 3237.44 1531.41 3223.22C1537.1 3194.9 1541.34 3166.26 1545.34 3137.6C1548.88 3108.86 1552.14 3080.07 1554.22 3051.14C1563.32 2935.45 1560.84 2818.76 1552.78 2702.5C1552 2691.48 1560.3 2681.92 1571.32 2681.14C1581.23 2680.44 1589.96 2687.11 1592.19 2696.47C1602.65 2740.47 1613.41 2784.32 1625.25 2827.72C1637.11 2871.1 1650.07 2914.04 1665.38 2955.9C1680.69 2997.76 1698.43 3038.5 1719.54 3077.34C1740.61 3116.2 1765.06 3153.12 1792.56 3187.82C1799.42 3196.48 1797.97 3209.06 1789.31 3215.92L1788.74 3216.36L1788.63 3216.43C1779.24 3223.28 1770.51 3230.7 1763.06 3238.73C1755.67 3246.79 1749.69 3255.48 1745.88 3264.32C1738.23 3282.04 1741.32 3299.75 1753.73 3315.85C1759.8 3323.84 1767.9 3331.08 1776.96 3337.43C1785.99 3343.82 1796.09 3349.29 1806.67 3353.98C1827.88 3363.36 1850.99 3369.67 1874.57 3373.71C1921.88 3381.56 1971.1 3380.47 2019.04 3372.47C2067.03 3364.42 2113.98 3349.52 2158.15 3328.66C2163.69 3326.09 2169.17 3323.39 2174.6 3320.59L2178.69 3318.52C2180.04 3317.83 2181 3317.21 2182.17 3316.56C2184.47 3315.36 2186.62 3313.9 2188.76 3312.45C2197.36 3306.66 2204.76 3299.2 2210.8 3290.83C2216.9 3282.48 2221.34 3273 2224.1 3263.09C2225.58 3258.15 2226.35 3253.06 2226.96 3247.95C2227.03 3245.38 2227.41 3242.83 2227.3 3240.25C2227.26 3237.68 2227.3 3235.26 2227.06 3231.91C2224.53 3181.89 2219.95 3132.01 2213.26 3082.46C2206.55 3032.9 2197.72 2983.66 2186.39 2935.02C2180.75 2911.16 2174.09 2885.4 2169.76 2859.94C2165.21 2834.4 2161.88 2808.64 2159.74 2782.81C2155.44 2731.24 2156.33 2678.82 2161.3 2627.85C2165.74 2577.08 2171.55 2526.48 2178.28 2476.12C2191.58 2375.37 2208.79 2275.55 2219.91 2175.86C2225.87 2126.38 2227.18 2077.3 2223.51 2028.02C2219.87 1978.88 2211.37 1930.1 2198.17 1882.62L2115.15 1590.72L2132.13 1605.12L1449.88 1527.62C1438.9 1526.37 1431.02 1516.46 1432.26 1505.49C1433.51 1494.51 1443.42 1486.62 1454.39 1487.87L2136.65 1565.37C2144.94 1566.31 2151.47 1572.22 2153.63 1579.77L2236.71 1871.89C2250.61 1921.91 2259.57 1973.3 2263.4 2025.07C2267.3 2076.72 2265.83 2129.26 2259.67 2180.25C2248.33 2281.73 2231.1 2381.49 2217.93 2481.39C2211.26 2531.33 2205.52 2581.29 2201.15 2631.33C2196.31 2681.08 2195.54 2730.24 2199.61 2779.54C2201.64 2804.13 2204.81 2828.61 2209.13 2852.88C2213.31 2877.33 2219.36 2900.6 2225.35 2925.97C2236.98 2975.89 2246.04 3026.37 2252.9 3077.09C2259.74 3127.82 2264.42 3178.8 2267.01 3229.85C2267.23 3232.81 2267.27 3236.72 2267.3 3240.47C2267.4 3244.22 2266.97 3247.97 2266.79 3251.71C2265.95 3259.17 2264.74 3266.61 2262.64 3273.82C2258.62 3288.27 2252.11 3302.02 2243.31 3314.13C2234.57 3326.27 2223.83 3337 2211.45 3345.39C2208.36 3347.49 2205.25 3349.55 2201.96 3351.32C2200.37 3352.21 2198.63 3353.25 2197.17 3353.99L2192.79 3356.21C2186.98 3359.2 2181.11 3362.1 2175.17 3364.85C2127.85 3387.19 2077.44 3403.23 2025.62 3411.92C1973.83 3420.53 1920.5 3421.86 1867.9 3413.15C1841.64 3408.64 1815.53 3401.62 1790.43 3390.53C1777.9 3384.97 1765.61 3378.37 1753.98 3370.17C1742.36 3361.99 1731.26 3352.31 1721.96 3340.15C1712.67 3328.15 1705.3 3313.23 1702.74 3296.8C1701.51 3288.61 1701.46 3280.22 1702.53 3272.07C1703.75 3263.96 1706 3256.18 1708.97 3248.89C1715.16 3234.45 1723.97 3222.19 1733.66 3211.61C1743.42 3201.09 1754.11 3192.11 1765.15 3184.05L1761.22 3212.66C1732.38 3176.28 1706.55 3137.32 1684.4 3096.44C1662.2 3055.59 1643.65 3012.95 1627.82 2969.65C1611.97 2926.32 1598.72 2882.35 1586.67 2838.26C1574.64 2794.16 1563.78 2749.92 1553.26 2705.68L1592.67 2699.65C1600.84 2817.36 1603.39 2935.92 1594.1 3054.23C1591.97 3083.81 1588.64 3113.32 1585 3142.79C1580.9 3172.22 1576.54 3201.64 1570.68 3230.83C1568.02 3245.47 1564.68 3259.99 1561.5 3274.54L1560.29 3280.01L1558.53 3286.4C1557.46 3290.69 1555.63 3294.75 1554.13 3298.9C1550.51 3306.97 1546.36 3314.83 1541.07 3321.93C1520.4 3350.6 1486.43 3369.25 1451.02 3370.62C1448.68 3370.81 1446.91 3370.82 1445.07 3370.86L1439.53 3370.98L1428.44 3371.22L1406.26 3371.51C1391.47 3371.64 1376.68 3371.67 1361.89 3371.49C1332.3 3371.19 1302.72 3370.32 1273.15 3368.84C1214.02 3365.9 1154.96 3360.47 1096.25 3352.27C1088.9 3351.31 1081.58 3350.13 1074.25 3349.07L1068.75 3348.25C1066.87 3347.95 1064.51 3347.39 1062.41 3346.95C1058.11 3345.94 1053.73 3345.28 1049.6 3343.61C1032.73 3338.19 1017.1 3328.73 1004.47 3316.31C979.06 3291.63 965.773 3254.99 970.49 3219.39C971.745 3210.56 973.805 3201.83 977.065 3193.53C978.362 3189.23 980.65 3185.42 982.567 3181.42C983.588 3179.48 984.536 3177.38 985.641 3175.59L988.981 3170.24C998.203 3156.21 1009.46 3143.59 1022.33 3133.13C1047.94 3111.88 1079.18 3099.01 1110.73 3093.08L1110.74 3093.08L1094.39 3112.74C1094.75 3051.9 1094.5 2991.06 1096.42 2930.22C1097.25 2899.8 1097.56 2869.37 1099.06 2838.97L1103.14 2747.75C1109.98 2626.18 1119.81 2504.67 1135.46 2383.78C1150.94 2262.9 1171.35 2142.52 1198.72 2023.57C1200.42 2016.14 1201.98 2008.67 1203.85 2001.28L1209.54 1979.1L1220.93 1934.77C1224.96 1920.05 1229.42 1905.44 1233.64 1890.78C1237.97 1876.14 1241.98 1861.42 1246.97 1846.98C1265.23 1788.72 1287.04 1731.58 1311.06 1675.53C1313 1670.99 1318.26 1668.88 1322.8 1670.83C1327.05 1672.65 1329.16 1677.36 1327.83 1681.68L1327.72 1682.03Z" fill="#371A45"/>
<path d="M1767.89 3182.39C1783.84 3175.41 1800.31 3171.64 1816.55 3169.92C1832.81 3168.21 1848.92 3168.56 1864.67 3170.41C1896.14 3174.23 1926.47 3183.82 1953.64 3199.25C1958.21 3201.84 1959.81 3207.65 1957.22 3212.22C1954.81 3216.46 1949.63 3218.15 1945.24 3216.29L1945.14 3216.25C1919.04 3205.22 1890.61 3199.91 1862.81 3199.86C1848.92 3199.87 1835.14 3201.25 1822.05 3204.23C1808.98 3207.2 1796.58 3211.8 1785.9 3218.1C1776.37 3223.73 1764.08 3220.57 1758.45 3211.03C1752.82 3201.5 1755.99 3189.21 1765.52 3183.58C1766.19 3183.19 1766.88 3182.83 1767.57 3182.52L1767.89 3182.39Z" fill="#371A45"/>
<path d="M1113.55 3092.76C1125.13 3093.23 1136.91 3094.03 1148.87 3095.82C1160.8 3097.61 1172.99 3100.48 1184.65 3105.18C1196.34 3109.81 1207.21 3116.48 1216.55 3124.3C1225.94 3132.1 1233.91 3140.94 1241 3150.1C1244.03 3154 1243.32 3159.62 1239.42 3162.64C1235.91 3165.36 1231.03 3165.06 1227.88 3162.15L1227.78 3162.06C1219.96 3154.85 1211.72 3148.4 1203.03 3143.36C1194.35 3138.3 1185.27 3134.71 1175.8 3132.71C1156.9 3128.62 1136.35 3130.07 1115.24 3132.73C1104.24 3134.11 1094.2 3126.32 1092.82 3115.32C1091.43 3104.32 1099.23 3094.29 1110.23 3092.91C1111.3 3092.77 1112.5 3092.73 1113.55 3092.76Z" fill="#371A45"/>
<path d="M1256.2 2545.63C1284.88 2577.32 1318.75 2603.55 1355.7 2623.99C1392.68 2644.43 1432.67 2659.1 1473.85 2668.3L1489.34 2671.6C1494.47 2672.83 1499.76 2673.26 1504.96 2674.15C1515.41 2675.7 1525.81 2677.52 1536.39 2678.05C1546.92 2678.83 1557.43 2680.06 1568.02 2679.86C1578.59 2679.82 1589.15 2680.64 1599.72 2679.9C1642.07 2679.18 1684.2 2674.02 1727.04 2667.34L1727.14 2667.32C1732.15 2666.54 1736.84 2669.97 1737.62 2674.98C1738.28 2679.2 1735.94 2683.2 1732.19 2684.81C1690.96 2702.6 1646.05 2711.69 1600.94 2714.03C1595.29 2714.44 1589.65 2714.78 1583.99 2714.56L1567.01 2714.26C1555.69 2714.33 1544.43 2712.95 1533.15 2711.99C1521.84 2711.28 1510.68 2709.26 1499.5 2707.47C1493.93 2706.45 1488.27 2705.97 1482.78 2704.47L1466.26 2700.49C1422.29 2689.63 1379.81 2672.21 1341.42 2648.09C1303.06 2624.05 1268.81 2593.12 1242.58 2556.52C1239.77 2552.6 1240.67 2547.15 1244.59 2544.34C1248.24 2541.72 1253.22 2542.32 1256.15 2545.57L1256.2 2545.63Z" fill="#371A45"/>
<path d="M1830.33 3082.91C1776.12 3082.91 1722.97 3075.97 1675.85 3062.12C1666.58 3059.39 1661.27 3049.66 1664 3040.39C1666.72 3031.12 1676.45 3025.8 1685.72 3028.54C1772.19 3053.96 1880.65 3054.46 1975.86 3029.88C2079.78 3003.05 2152.24 2950.82 2179.87 2882.82C2183.51 2873.86 2193.71 2869.54 2202.68 2873.19C2211.63 2876.83 2215.94 2887.04 2212.3 2895.99C2180.39 2974.52 2099.52 3034.1 1984.61 3063.77C1935.15 3076.54 1882.26 3082.91 1830.33 3082.91Z" fill="#371A45"/>
<path d="M1385.17 3024.25C1304.28 3024.25 1220.19 3013.83 1164.49 2993.01C1129.68 2979.99 1108.67 2964.13 1100.28 2944.53C1096.47 2935.64 1100.59 2925.35 1109.48 2921.55C1118.36 2917.74 1128.65 2921.87 1132.45 2930.75C1134.43 2935.37 1142.71 2947.5 1176.75 2960.22C1279.34 2998.58 1493.01 2999.34 1570.92 2961.64C1579.61 2957.42 1590.08 2961.06 1594.3 2969.77C1598.51 2978.46 1594.87 2988.93 1586.17 2993.14C1543.32 3013.88 1465.84 3024.25 1385.17 3024.25Z" fill="#371A45"/>
<g opacity="0.3">
<path d="M2150.55 3335.9C1977.96 3429.1 1802.89 3407.5 1731.68 3346.65C1790.01 3347.95 1848.64 3336.85 1902.67 3313.95C1931.24 3301.85 1959.65 3285.5 1976.89 3259C2006.04 3214.25 1995.77 3154.5 1981.93 3102.5C1950.84 2986.05 1907.22 2873.2 1852.03 2766.75C1840.32 2744.2 1827.73 2721.45 1808.8 2705C1758.45 2661.4 1683.41 2675.9 1619.74 2692.8C1606.43 2696.35 1592.34 2700.35 1583.24 2711C1573.02 2722.9 1571.67 2740.05 1570.89 2755.95C1570.7 2760.45 1570.46 2764.95 1570.26 2769.45C1564.99 2747.5 1559.66 2724.74 1554.24 2701.09C1568.42 2906.7 1562.81 3100.84 1523.35 3275.34C1513.57 3318.65 1476.44 3349.59 1433.4 3350.79C1307.86 3354.24 1186.05 3347.2 1068.46 3328.4C1013.94 3319.65 980.295 3264.84 991.769 3213.09C1017.14 3244.29 1047.01 3270.45 1083.76 3284.65C1150.03 3310.34 1241.29 3276.09 1251.41 3203.75C1253.25 3190.6 1252.86 3175.8 1261.53 3165.9C1268.74 3157.65 1280.17 3155.39 1289.95 3150.79C1333.33 3130.54 1339.43 3070.6 1339.19 3021.45C1338.7 2909.6 1338.22 2797.8 1337.68 2685.95C1337.64 2667.65 1337.25 2648.35 1328.1 2632.7C1319.09 2617.35 1303.17 2608.14 1288.98 2597.79C1244.73 2565.59 1212.58 2516.04 1200.58 2461.54C1282.11 2521.09 1370.22 2583.05 1470.05 2585.45C1558.65 2587.6 1644 2540.35 1703.26 2472.34C1762.51 2404.35 1798.1 2317.39 1819.89 2228.69L1762.47 2362.89C1783.77 2303.04 1794.95 2239.29 1795.29 2175.54C1927.02 2201.74 2060.07 2220.99 2193.69 2233.14C2177.76 2358.64 2154.09 2492.24 2141.93 2647.14C2135.11 2734.19 2141.35 2821.94 2161.78 2906.69C2187.35 3012.89 2201.97 3122.29 2207.34 3234.44C2209.37 3276.8 2187.01 3316.24 2150.55 3335.9Z" fill="#371A45"/>
</g>
<path d="M2784.39 1852.74V2194.79C2773.34 2222.9 2742.29 2233.34 2712.69 2228.79C2693.29 2225.79 2673.74 2224.19 2654.09 2225.24C2500.24 2233.34 2360.14 2213.24 2243.04 2145.89C2181.44 2110.54 2126.19 2062.04 2078.69 1997.74C2037.59 1950.29 2012.54 1899.59 2002.39 1848.04C1988.24 1775.94 2003.29 1702.09 2044.39 1632.74C2079.54 1620.39 2112.24 1615.14 2143.19 1616.09C2242.79 1619.2 2323.94 1686.8 2407.69 1789.89C2435.94 1824.69 2475.29 1848.74 2519.14 1858.05L2552.04 1865.05C2591.94 1873.55 2633.59 1872.45 2672.19 1859.45C2708.34 1847.24 2749.54 1846.14 2784.39 1852.74Z" fill="white"/>
<path d="M2084.76 1993.25L2101.01 2011.53L2109.05 2020.69C2110.4 2022.2 2111.69 2023.77 2113.09 2025.24L2117.44 2029.51C2129.19 2040.71 2139.8 2052.97 2152.44 2063.1L2170.71 2078.94L2189.96 2093.49C2196.37 2098.35 2202.66 2103.33 2209.57 2107.46L2229.73 2120.61C2284.37 2154.3 2345.23 2176.92 2407.98 2190.68C2471.01 2203.64 2535.79 2208.35 2600.61 2207.43C2608.7 2207.52 2616.82 2207.11 2624.93 2206.74L2649.26 2205.7C2653.12 2205.54 2657.9 2205.27 2662.3 2205.2C2666.77 2205.12 2671.23 2205.16 2675.66 2205.3C2684.53 2205.59 2693.31 2206.29 2701.97 2207.29C2706.31 2207.79 2710.61 2208.36 2714.89 2209.01L2719.87 2209.62L2724.64 2209.87C2730.96 2209.96 2737.17 2209.12 2742.76 2207.39C2754.14 2203.9 2761.89 2197.03 2765.77 2187.5L2765.78 2187.49L2764.4 2194.8V1852.75L2780.66 1872.39C2749.83 1866.7 2716.87 1867.5 2687.04 1875.81C2685.16 1876.29 2683.32 1876.88 2681.49 1877.47L2675.38 1879.4C2670.87 1880.89 2666.29 1882.13 2661.71 1883.33C2652.53 1885.67 2643.21 1887.36 2633.86 1888.55C2615.15 1890.95 2596.26 1891.05 2577.67 1889.22C2568.36 1888.32 2559.12 1886.93 2550 1885.03L2524.49 1879.64L2518.15 1878.29L2514.98 1877.62L2511.5 1876.81C2506.85 1875.79 2502.27 1874.48 2497.69 1873.18C2488.59 1870.39 2479.66 1867.06 2470.96 1863.18C2453.63 1855.29 2437.29 1845.21 2422.6 1833.08C2415.2 1827.08 2408.31 1820.48 2401.81 1813.52C2398.52 1810.08 2395.47 1806.42 2392.4 1802.78L2384.21 1792.98C2362.53 1766.84 2339.93 1741.61 2315.4 1719.06C2290.93 1696.5 2264.63 1676.35 2236.08 1661.53C2207.59 1646.73 2176.83 1637.39 2145.26 1636.31C2113.72 1634.95 2081.8 1640.95 2051.03 1651.61L2050.87 1651.67C2040.43 1655.28 2029.04 1649.75 2025.42 1639.31C2021.81 1628.88 2027.32 1617.49 2037.76 1613.88C2072.22 1601.92 2109.38 1594.72 2147.04 1596.35C2184.73 1597.64 2221.74 1608.95 2254.44 1626C2287.3 1643.07 2316.26 1665.47 2342.56 1689.7C2368.93 1713.96 2392.54 1740.38 2414.97 1767.42L2423.4 1777.51C2425.92 1780.46 2428.38 1783.46 2431.07 1786.26C2436.37 1791.92 2441.98 1797.31 2448.01 1802.19C2459.98 1812.08 2473.3 1820.28 2487.42 1826.72C2494.51 1829.88 2501.79 1832.6 2509.21 1834.88C2512.94 1835.93 2516.67 1837.01 2520.46 1837.83L2523.3 1838.49L2526.47 1839.17L2532.8 1840.52L2558.01 1845.85C2565.81 1847.47 2573.69 1848.65 2581.58 1849.41C2597.37 1850.97 2613.27 1850.87 2628.85 1848.87C2636.63 1847.87 2644.35 1846.49 2651.92 1844.55C2655.69 1843.55 2659.46 1842.54 2663.16 1841.31L2669.4 1839.34C2671.68 1838.61 2673.97 1837.89 2676.27 1837.29C2694.65 1832.13 2713.41 1829.53 2732.12 1828.9C2750.85 1828.28 2769.57 1829.6 2788.13 1833.1C2797.72 1834.91 2804.4 1843.29 2804.4 1852.71L2804.39 1852.75V2194.8V2195.47C2804.39 2197.81 2803.87 2200.1 2803.01 2202.12L2802.99 2202.15C2798.88 2212.67 2791.97 2222.49 2783.35 2229.95C2774.77 2237.52 2764.68 2242.61 2754.5 2245.65C2744.31 2248.73 2733.95 2249.95 2723.79 2249.73C2721.25 2249.64 2718.72 2249.47 2716.2 2249.29L2708.9 2248.36C2705.03 2247.75 2701.16 2247.21 2697.3 2246.75C2689.58 2245.8 2681.9 2245.15 2674.28 2244.86C2670.47 2244.71 2666.67 2244.66 2662.89 2244.71L2651.2 2245.05L2626.06 2245.73C2617.69 2245.97 2609.31 2246.26 2600.91 2246.05C2533.83 2245.94 2466.2 2240.2 2400.3 2224.52L2375.77 2217.9L2363.52 2214.58C2359.46 2213.37 2355.47 2211.91 2351.45 2210.58L2327.36 2202.42C2319.39 2199.56 2311.64 2196.04 2303.77 2192.87C2287.9 2186.84 2272.92 2178.73 2257.71 2171.24L2252.03 2168.38L2246.54 2165.13L2235.6 2158.62L2224.7 2152.05C2221.05 2149.88 2217.4 2147.74 2214 2145.18C2200.24 2135.24 2185.94 2126.07 2173.33 2114.69C2166.87 2109.21 2160.31 2103.87 2153.98 2098.28L2136.03 2080.38L2127.08 2071.44C2124.05 2068.51 2121.49 2065.13 2118.68 2062C2113.19 2055.61 2107.66 2049.27 2102.3 2042.81L2098.25 2037.99C2096.95 2036.34 2095.77 2034.6 2094.52 2032.91L2087.15 2022.7C2082.21 2015.92 2077.39 2009.08 2072.58 2002.24C2070.18 1998.83 2071 1994.11 2074.42 1991.71C2077.6 1989.47 2081.9 1990.03 2084.42 1992.87L2084.76 1993.25Z" fill="#371A45"/>
<path d="M2788.62 2050.13C2773.39 2053.85 2757.3 2055.49 2741.23 2053.35C2725.21 2051.28 2709.34 2045.19 2696.42 2035.12C2683.46 2025.13 2673.67 2011.29 2668.73 1996.12C2663.71 1980.97 2663.55 1964.7 2667.42 1950.03C2668.78 1944.87 2674.06 1941.79 2679.21 1943.15C2683.95 1944.4 2686.94 1948.97 2686.33 1953.71L2686.31 1953.8C2684.8 1965.58 2686.67 1977.33 2691.54 1987.3C2696.36 1997.29 2704.08 2005.44 2713.31 2010.77C2722.54 2016.14 2733.21 2018.7 2744.04 2018.65C2754.89 2018.63 2765.87 2016.08 2776.47 2012.02L2776.69 2011.94C2787.04 2007.98 2798.62 2013.15 2802.58 2023.49C2806.54 2033.84 2801.37 2045.42 2791.03 2049.38C2790.27 2049.67 2789.39 2049.94 2788.62 2050.13Z" fill="#371A45"/>
<path d="M2744.47 2220.75C2718.62 2220.75 2696.49 2211.3 2680.09 2192.76C2644.58 2152.63 2643.46 2078.52 2677.29 2008.36C2680.88 2000.9 2689.85 1997.75 2697.31 2001.36C2704.77 2004.96 2707.91 2013.92 2704.31 2021.38C2676.11 2079.87 2675.39 2142.17 2702.56 2172.88C2723.54 2196.6 2755.02 2192.38 2777.72 2184.67C2785.57 2182.02 2794.09 2186.21 2796.75 2194.06C2799.41 2201.9 2795.21 2210.42 2787.37 2213.08C2772.25 2218.21 2757.86 2220.75 2744.47 2220.75Z" fill="#371A45"/>
<path d="M2315.91 2187.75C2305.69 2187.75 2296.97 2179.95 2296.01 2169.57C2284.66 2045.64 2353.68 1904.69 2463.86 1826.82C2472.88 1820.45 2485.36 1822.59 2491.73 1831.61C2498.11 1840.63 2495.97 1853.11 2486.94 1859.48C2387.86 1929.51 2325.73 2055.52 2335.85 2165.92C2336.86 2176.92 2328.76 2186.65 2317.76 2187.66C2317.14 2187.72 2316.52 2187.75 2315.91 2187.75Z" fill="#371A45"/>
<g opacity="0.3">
<path d="M2784.39 2025.29V2194.79C2773.34 2222.9 2742.29 2233.34 2712.69 2228.79C2693.29 2225.79 2673.74 2224.19 2654.09 2225.24C2500.24 2233.34 2360.14 2213.24 2243.04 2145.89C2242.59 2151.14 2242.14 2156.34 2241.59 2161.54C2240.64 2170.79 2239.64 2180.14 2238.54 2189.49C2202.19 2182.84 2163.74 2193.64 2126.19 2196.44C2066.74 2200.89 2005.99 2184.04 1957.29 2149.69L1950.24 2157.74C1865.43 2058.72 1849.89 1947.38 1886.66 1905.87C1904.6 1885.62 1949.53 1865.59 1977.69 1853.04C1982.5 1850.9 1991.39 1846.06 2002.39 1848.04C2012.34 1849.84 2022.64 1854.99 2031.19 1860.49C2071.84 1886.79 2107.19 1920.64 2147.49 1947.54C2176.69 1967.04 2208.14 1982.59 2240.59 1995.99C2275.74 2010.55 2312.09 2022.64 2348.19 2034.59C2385.84 2047.09 2423.69 2059.59 2462.84 2066.14C2501.54 2072.59 2541.04 2073.1 2580.19 2070.34C2649.99 2065.45 2718.99 2050.14 2784.39 2025.29Z" fill="#371A45"/>
</g>
<g opacity="0.3">
<path d="M1442.33 1476.31C1462.5 1534.08 1485.96 1593.2 1530.25 1635.43C1566.09 1669.6 1612.82 1689.92 1659.75 1705.72C1766.19 1741.53 1882.05 1757.3 1991.28 1731.21C2100.5 1705.11 2201.9 1632.76 2245.5 1529.26C2067.21 1546.89 1887.57 1527.32 1709.47 1507.77C1627.21 1498.74 1542.75 1489.06 1469.38 1450.76C1473.97 1495.54 1478.56 1540.32 1483.14 1585.1" fill="#371A45"/>
</g>
<path d="M1882.59 1680.41C1873.2 1680.41 1863.79 1680.22 1854.36 1679.85C1840.87 1679.3 1827.13 1678.38 1813.51 1677.11C1775.75 1673.44 1738.24 1666.79 1702.04 1657.33C1671.1 1649.27 1640.66 1639.14 1611.58 1627.22C1576.87 1613.09 1542.88 1595.99 1510.54 1576.4C1498.67 1569.13 1488.27 1562.42 1478.74 1555.9C1457.95 1541.78 1437.57 1526.27 1418.15 1509.81C1326.44 1432 1256.08 1331.42 1214.66 1218.94C1139.95 1016.05 1162.91 794.328 1277.66 610.636C1344 504.386 1437.78 417.389 1548.88 359.064C1569.94 347.931 1592.26 337.589 1615.22 328.327C1630 322.37 1645.37 316.784 1660.91 311.725C1709.32 295.929 1759.56 285.236 1810.23 279.953C1861.38 274.572 1913.1 274.64 1963.95 280.202C1986.07 282.624 2008.42 286.149 2030.39 290.681C2039.18 292.434 2047.25 294.241 2055.05 296.199C2126.12 313.338 2194.36 341.507 2257.83 379.915C2420.47 478.48 2534.08 633.685 2577.73 816.946C2621.02 998.748 2590.12 1186.52 2490.71 1345.68C2360.68 1553.93 2129.62 1680.41 1882.59 1680.41ZM1217.71 1217.81C1258.94 1329.77 1328.98 1429.88 1420.25 1507.33C1439.58 1523.71 1459.88 1539.15 1480.58 1553.21C1490.06 1559.7 1500.42 1566.38 1512.23 1573.62C1544.41 1593.12 1578.25 1610.14 1612.81 1624.21C1641.76 1636.07 1672.06 1646.16 1702.86 1654.18C1738.9 1663.6 1776.23 1670.22 1813.82 1673.86C1827.38 1675.13 1841.07 1676.05 1854.49 1676.6C2110.91 1686.63 2353.59 1559.14 2487.94 1343.95C2586.89 1185.54 2617.65 998.65 2574.56 817.698C2531.12 635.296 2418.03 480.808 2256.14 382.698C2192.96 344.466 2125.03 316.424 2054.27 299.358C2046.51 297.41 2038.49 295.618 2029.74 293.87C2007.87 289.358 1985.61 285.847 1963.59 283.435C1912.97 277.908 1861.48 277.82 1810.57 283.196C1760.12 288.455 1710.11 299.094 1661.92 314.822C1646.45 319.856 1631.15 325.418 1616.44 331.345C1593.58 340.569 1571.36 350.862 1550.4 361.946C1439.81 420.007 1346.45 506.599 1280.42 612.366C1166.21 795.192 1143.35 1015.87 1217.71 1217.81Z" fill="#371A45"/>
<path d="M2489.32 1344.8C2349.62 1568.62 2102.98 1687.94 1854.41 1678.21C1840.83 1677.67 1827.25 1676.76 1813.67 1675.48C1776.4 1671.88 1739.21 1665.34 1702.46 1655.77C1672.03 1647.82 1641.83 1637.86 1612.22 1625.73C1577.78 1611.73 1544.11 1594.85 1511.36 1575.03C1500.58 1568.36 1489.96 1561.6 1479.65 1554.59C1458.47 1540.18 1438.37 1524.78 1419.2 1508.56C1325.29 1428.87 1256.68 1328.42 1216.18 1218.36C1193.91 1157.92 1180.11 1094.6 1175.26 1030.36C1216.35 1134.49 1282.91 1229.4 1372.5 1305.43C1391.64 1321.71 1411.77 1337.06 1432.95 1351.46C1443.21 1358.49 1453.83 1365.24 1464.67 1371.9C1497.41 1391.73 1531.08 1408.6 1565.47 1422.61C1595.13 1434.73 1625.29 1444.7 1655.72 1452.65C1692.47 1462.22 1729.7 1468.75 1766.93 1472.36C1780.55 1473.63 1794.13 1474.54 1807.71 1475.08C2056.28 1484.82 2302.87 1365.5 2442.62 1141.67C2524.18 1011.12 2557.05 864.602 2546.32 722.705C2624.39 920.219 2610.87 1150.24 2489.32 1344.8Z" fill="#D8D8D8"/>
<path d="M1882.59 1691.31C1873.06 1691.31 1863.51 1691.13 1853.93 1690.75C1840.24 1690.19 1826.31 1689.25 1812.5 1687.96C1774.12 1684.24 1736.05 1677.49 1699.29 1667.89C1667.88 1659.7 1636.98 1649.41 1607.44 1637.32C1572.22 1622.97 1537.71 1605.62 1504.89 1585.73C1492.81 1578.33 1482.26 1571.53 1472.58 1564.91C1451.5 1550.58 1430.8 1534.84 1411.09 1518.13C1317.96 1439.1 1246.49 1336.94 1204.42 1222.71C1128.54 1016.63 1151.86 791.433 1268.41 604.86C1335.77 496.969 1431 408.634 1543.8 349.406C1565.17 338.117 1587.83 327.614 1611.14 318.21C1626.15 312.16 1641.76 306.486 1657.53 301.355C1706.67 285.32 1757.66 274.47 1809.1 269.104C1861 263.64 1913.51 263.718 1965.13 269.358C1987.6 271.819 2010.29 275.398 2032.59 279.998C2041.49 281.77 2049.73 283.616 2057.7 285.618C2129.77 302.996 2199.04 331.595 2263.47 370.579C2428.64 470.677 2544.01 628.299 2588.34 814.417C2632.32 999.08 2600.93 1189.81 2499.96 1351.45C2367.94 1562.9 2133.36 1691.31 1882.59 1691.31ZM1227.95 1214.04C1268.53 1324.23 1337.46 1422.77 1427.31 1499.01C1446.34 1515.14 1466.33 1530.34 1486.71 1544.2C1496.07 1550.6 1506.27 1557.17 1517.93 1564.32C1549.58 1583.49 1582.9 1600.25 1616.92 1614.1C1645.45 1625.79 1675.28 1635.72 1705.61 1643.63C1741.1 1652.89 1777.86 1659.41 1814.87 1663.01C1828.2 1664.25 1841.7 1665.16 1854.93 1665.7C2107.39 1675.58 2346.41 1550.05 2478.69 1338.17C2576.08 1182.26 2606.36 998.312 2563.94 820.226C2521.18 640.68 2409.86 488.61 2250.49 392.028C2188.27 354.377 2121.39 326.764 2051.71 309.963C2044.03 308.034 2036.18 306.276 2027.6 304.567C2006 300.109 1984.09 296.657 1962.4 294.279C1912.56 288.83 1861.85 288.761 1811.71 294.04C1762.02 299.221 1712.76 309.704 1665.3 325.192C1650.06 330.153 1635 335.627 1620.51 341.462C1598 350.544 1576.12 360.681 1555.49 371.589C1446.59 428.767 1354.68 514.016 1289.67 618.142C1177.26 798.093 1154.76 1015.29 1227.95 1214.04Z" fill="#371A45"/>
<path d="M1882.59 1698.78C1872.96 1698.78 1863.31 1698.59 1853.64 1698.21C1839.8 1697.65 1825.74 1696.7 1811.8 1695.4C1773.01 1691.63 1734.54 1684.81 1697.4 1675.11C1665.67 1666.84 1634.45 1656.45 1604.61 1644.22C1569.05 1629.74 1534.18 1612.2 1501.02 1592.12C1488.8 1584.63 1478.15 1577.76 1468.37 1571.07C1447.09 1556.61 1426.18 1540.7 1406.26 1523.83C1312.15 1443.96 1239.93 1340.73 1197.42 1225.29C1120.73 1017.03 1144.29 789.451 1262.08 600.906C1330.14 491.892 1426.36 402.639 1540.33 342.796C1561.9 331.399 1584.8 320.789 1608.34 311.292C1623.52 305.174 1639.29 299.446 1655.22 294.256C1704.85 278.06 1756.36 267.103 1808.32 261.683C1860.75 256.16 1913.79 256.243 1965.94 261.937C1988.64 264.427 2011.57 268.041 2034.1 272.684C2043.07 274.476 2051.43 276.346 2059.52 278.377C2132.27 295.921 2202.25 324.813 2267.34 364.197C2434.23 465.335 2550.8 624.612 2595.59 812.688C2640.04 999.309 2608.33 1192.05 2506.29 1355.41C2372.91 1569.04 2135.92 1698.78 1882.59 1698.78ZM1234.95 1211.47C1275.09 1320.45 1343.27 1417.91 1432.14 1493.32C1450.96 1509.27 1470.74 1524.32 1490.9 1538.02C1500.18 1544.37 1510.28 1550.87 1521.83 1557.96C1553.1 1576.9 1586.08 1593.49 1619.74 1607.19C1647.97 1618.76 1677.48 1628.58 1707.49 1636.4C1742.6 1645.57 1778.97 1652.02 1815.59 1655.58C1828.77 1656.81 1842.13 1657.71 1855.24 1658.24C2104.96 1668.17 2341.49 1543.83 2472.36 1334.22C2568.68 1180.01 2598.63 998.083 2556.68 821.955C2514.39 644.372 2404.27 493.952 2246.62 398.41C2185.06 361.159 2118.89 333.84 2049.96 317.219C2042.32 315.305 2034.6 313.572 2026.14 311.887C2004.72 307.468 1983.04 304.05 1961.59 301.701C1912.27 296.31 1862.1 296.237 1812.49 301.462C1763.31 306.594 1714.58 316.96 1667.62 332.287C1652.53 337.199 1637.63 342.614 1623.3 348.386C1601.03 357.37 1579.39 367.4 1558.98 378.186C1451.23 434.758 1360.31 519.089 1296 622.092C1184.82 800.075 1162.57 1014.89 1234.95 1211.47Z" fill="#371A45"/>
<path d="M1786.56 1662.17C1727.49 1662.17 1667.67 1655.34 1608.5 1641.46L1606.1 1640.69C1570.68 1626.27 1535.99 1608.83 1503 1588.84C1490.86 1581.4 1480.26 1574.57 1470.53 1567.91C1449.35 1553.52 1428.55 1537.69 1408.74 1520.9C1315.12 1441.47 1243.3 1338.79 1201.01 1223.96C1124.73 1016.82 1148.17 790.465 1265.32 602.931C1333.02 494.493 1428.74 405.714 1542.11 346.188L1543.58 345.412L1545.18 344.958C1635.07 319.23 1735.72 313.981 1844.33 329.372C2039.78 357.048 2226.49 473.84 2343.78 641.784C2449.36 792.956 2487.88 967.941 2452.24 1134.5C2413.42 1315.86 2314.21 1461.58 2165.34 1555.89C2054.94 1625.84 1922.78 1662.17 1786.56 1662.17ZM1617.12 1610.26C1803.94 1653.76 1997.39 1624.01 2148.03 1528.57C2289.39 1439.01 2383.65 1300.4 2420.61 1127.73C2454.35 970.041 2417.65 804.04 2317.27 660.304C2205.02 499.581 2026.52 387.838 1839.79 361.393C1736.35 346.745 1640.76 351.525 1555.68 375.597C1448.02 432.453 1357.13 516.954 1292.76 620.065C1180.94 799.059 1158.56 1015.09 1231.36 1212.79C1271.72 1322.39 1340.29 1420.41 1429.66 1496.24C1448.59 1512.28 1468.48 1527.41 1488.75 1541.19C1498.07 1547.56 1508.23 1554.11 1519.83 1561.22C1550.93 1580.06 1583.68 1596.57 1617.12 1610.26Z" fill="#371A45"/>
<path d="M1785.47 1590.56C1607.79 1590.56 1428.87 1520.29 1288.71 1389.6L1287.14 1388.15L1244.47 1319.41C1243.98 1318.29 1194.98 1206.64 1165.84 1088.43C1136.05 967.557 1178.95 804.31 1180.79 797.42L1181.62 795.062C1315.93 490.99 1536.34 358.368 1836.72 400.921C2011.09 425.613 2177.65 529.793 2282.28 679.598C2376.5 814.495 2410.87 970.667 2379.06 1119.34C2332.94 1334.9 2188.18 1495.75 1981.89 1560.66C1917.98 1580.76 1851.81 1590.56 1785.47 1590.56ZM1312.32 1367.39C1496.18 1537.84 1748.82 1600.08 1972.18 1529.8C2167.05 1468.49 2303.82 1316.42 2347.43 1112.57C2377.34 972.77 2344.78 825.578 2255.76 698.117C2156.17 555.534 1997.83 456.403 1832.18 432.941C1548.29 392.736 1339.53 518.576 1211.74 806.93C1207.95 821.74 1170.71 973.033 1197.24 1080.68C1224.24 1190.21 1268.67 1293.94 1273.62 1305.32L1312.32 1367.39Z" fill="#371A45"/>
<path d="M2679.58 1131.03C2667.37 1268.69 2574.68 1377.09 2472.52 1373.13C2370.36 1369.16 2297.45 1254.34 2309.66 1116.67C2309.72 1115.81 2309.83 1114.9 2309.94 1114.03C2323.06 977.622 2415.29 870.627 2516.73 874.576C2595.65 877.636 2657.11 946.862 2675.37 1041.65C2680.73 1069.56 2682.36 1099.72 2679.58 1131.03Z" fill="white"/>
<path d="M2679.58 1131.03C2667.37 1268.69 2574.68 1377.09 2472.52 1373.13C2370.36 1369.16 2297.45 1254.34 2309.66 1116.67C2309.72 1115.81 2309.83 1114.9 2309.94 1114.03C2319.91 1128.59 2336.16 1143.19 2360.26 1139.42C2402.47 1132.8 2484.76 1047.16 2484.76 1047.16C2484.76 1047.16 2567.41 1044.23 2675.37 1041.65C2680.73 1069.55 2682.36 1099.72 2679.58 1131.03Z" fill="#D8D8D8"/>
<path d="M2477.87 1389.39C2475.88 1389.39 2473.9 1389.35 2471.89 1389.27C2427.46 1387.55 2386.97 1367.32 2354.82 1330.79C2308.41 1278.06 2286.08 1199.49 2293.56 1115.23C2306.51 969.334 2406.95 854.353 2517.38 858.416C2561.82 860.145 2602.3 880.369 2634.46 916.902C2680.86 969.627 2703.19 1048.2 2695.71 1132.46C2683 1275.71 2585.96 1389.39 2477.87 1389.39ZM2511.28 890.642C2419.67 890.642 2337.03 991.321 2325.78 1118.09C2319.18 1192.46 2339.11 1263.99 2379.1 1309.42C2405.26 1339.14 2437.78 1355.58 2473.15 1356.95C2566.6 1360.56 2652.05 1258.6 2663.5 1129.6C2670.1 1055.23 2650.16 983.703 2610.18 938.268C2584.02 908.546 2551.5 892.111 2516.13 890.739C2514.51 890.676 2512.89 890.642 2511.28 890.642Z" fill="#371A45"/>
<path d="M2699.79 1177.32C2719.94 1069.32 2670.09 969.411 2588.45 954.178C2506.8 938.945 2424.28 1014.15 2404.13 1122.16C2383.98 1230.17 2433.83 1330.07 2515.47 1345.3C2597.12 1360.54 2679.64 1285.33 2699.79 1177.32Z" fill="white"/>
<path d="M2536.33 1349.01C2514.4 1349.01 2493.18 1342.78 2473.66 1330.46C2400.72 1284.4 2376.42 1165.89 2419.48 1066.27C2443.49 1010.74 2484.13 970.597 2530.98 956.115C2565.8 945.358 2600.22 949.787 2630.53 968.928C2703.47 1014.99 2727.77 1133.5 2684.71 1233.12C2660.7 1288.64 2620.06 1328.79 2573.21 1343.27C2560.82 1347.1 2548.46 1349.01 2536.33 1349.01ZM2567.84 953.767C2556.04 953.767 2544.04 955.622 2531.98 959.348C2486.07 973.537 2446.2 1012.99 2422.59 1067.61C2380.15 1165.76 2403.87 1282.39 2475.47 1327.59C2504.92 1346.19 2538.38 1350.5 2572.21 1340.04C2618.12 1325.85 2657.99 1286.39 2681.6 1231.78C2724.04 1133.62 2700.32 1016.99 2628.73 971.789C2609.77 959.816 2589.15 953.767 2567.84 953.767Z" fill="#371A45"/>
<path d="M2403.03 1221.56C2396.98 1184.37 2401.25 1145.41 2413.45 1109.51C2434.5 1193.14 2506.52 1232.66 2580.72 1198.17C2628.69 1175.91 2666.51 1127.83 2685.35 1072.27C2686.71 1077.54 2687.81 1083.05 2688.74 1088.69C2704.11 1183.38 2652.61 1289.9 2573.7 1326.58C2494.8 1363.27 2418.4 1316.2 2403.03 1221.56Z" fill="#D8D8D8"/>
<path d="M2537.46 1363.98C2536.3 1363.98 2535.15 1363.96 2534 1363.92C2501.09 1362.9 2470.93 1347.91 2446.77 1320.57C2409.29 1278.15 2390.87 1210.18 2397.49 1138.77C2408.5 1020.03 2485.13 925.221 2569.21 925.221C2570.36 925.221 2571.51 925.236 2572.67 925.275C2605.57 926.296 2635.73 941.286 2659.89 968.629C2697.37 1011.05 2715.79 1079.01 2709.17 1150.43C2698.16 1269.17 2621.54 1363.98 2537.46 1363.98ZM2569.07 957.561C2501.4 957.561 2439.19 1039.39 2429.7 1141.75C2423.89 1204.45 2439.33 1263.29 2471.01 1299.15C2489.11 1319.64 2511.24 1330.86 2535 1331.6C2535.86 1331.62 2536.73 1331.64 2537.6 1331.64C2605.27 1331.64 2667.47 1249.81 2676.96 1147.44C2682.78 1084.74 2667.33 1025.91 2635.65 990.047C2617.55 969.559 2595.43 958.343 2571.67 957.601C2570.8 957.575 2569.93 957.561 2569.07 957.561Z" fill="#371A45"/>
<path d="M1282.39 1995.05C1282.39 1995.05 1250.69 1984.54 1206.69 1992.02C1154.59 2000.88 1141.16 2102.61 1244 2116.16C1338.71 2128.64 1344.41 2096.64 1344.41 2096.64L1310.36 2028.59" fill="white"/>
<g opacity="0.3">
<path d="M1250.25 2069.91C1204.2 2063.84 1181.51 2040.09 1175.12 2014.92C1155.58 2048.2 1168.12 2106.16 1244 2116.16C1338.71 2128.64 1344.41 2096.64 1344.41 2096.64L1329.76 2067.37C1315.34 2072.4 1291.08 2075.29 1250.25 2069.91Z" fill="#371A45"/>
</g>
<path d="M1283.33 2131.52C1271.63 2131.52 1258.08 2130.62 1242.37 2128.55C1178.48 2120.13 1155.04 2080.97 1154.4 2047.12C1153.78 2013.66 1175.35 1984.67 1204.6 1979.69C1251.13 1971.78 1284.91 1982.71 1286.33 1983.18C1292.88 1985.36 1296.43 1992.43 1294.26 1998.99C1292.09 2005.53 1285.04 2009.07 1278.49 2006.92C1277.86 2006.72 1248.6 1997.58 1208.79 2004.34C1191.64 2007.26 1179 2025.45 1179.4 2046.65C1179.61 2058.03 1185.02 2095.78 1245.63 2103.77C1304.59 2111.54 1324.2 2101.14 1330.09 2095.96L1299.18 2034.18C1296.09 2028 1298.59 2020.49 1304.76 2017.41C1310.94 2014.32 1318.44 2016.82 1321.53 2022.99L1357.44 2094.75L1356.72 2098.83C1355.62 2105 1347.13 2131.51 1283.33 2131.52Z" fill="#371A45"/>
<path d="M1362.71 2320.04L1841.56 2366.89C1898.23 2372.46 1949.18 2330.61 1954.75 2273.87L1979.67 2019.05C1984.53 1969.37 1953.03 1924.17 1907.04 1909.97C1900.53 1907.91 1893.71 1906.56 1886.64 1905.86L1407.87 1859.01C1351.13 1853.44 1300.17 1895.29 1294.68 1952.03L1274.89 2153.85L1269.69 2206.85C1264.12 2263.59 1306.04 2314.48 1362.71 2320.04Z" fill="white"/>
<path d="M1362.71 2320.04L1841.56 2366.89C1898.23 2372.46 1949.18 2330.61 1954.75 2273.87L1979.67 2019.05C1984.53 1969.37 1953.03 1924.17 1907.04 1909.97C1900.53 1907.91 1893.71 1906.56 1886.64 1905.86L1407.87 1859.01C1351.13 1853.44 1300.17 1895.29 1294.68 1952.03L1274.89 2153.85L1269.69 2206.85C1264.12 2263.59 1306.04 2314.48 1362.71 2320.04Z" fill="white"/>
<path d="M1362.71 2320.04L1841.56 2366.89C1898.23 2372.46 1949.18 2330.61 1954.75 2273.87L1979.67 2019.05C1984.53 1969.37 1953.03 1924.17 1907.04 1909.97C1900.53 1907.91 1893.71 1906.56 1886.64 1905.86L1407.87 1859.01C1351.13 1853.44 1300.17 1895.29 1294.68 1952.03L1274.89 2153.85L1269.69 2206.85C1264.12 2263.59 1306.04 2314.48 1362.71 2320.04Z" fill="white"/>
<g opacity="0.3">
<path d="M1362 2320.01L1840.85 2366.86C1897.52 2372.42 1948.47 2330.58 1954.04 2273.84L1978.96 2019.02C1983.82 1969.34 1952.32 1924.14 1906.33 1909.93C1877.37 1925.33 1858.98 1935.19 1858.98 1935.19C1815.65 2137.45 1747.42 2233.75 1493.02 2213.05C1383.21 2204.08 1315.64 2180.59 1274.18 2153.82L1268.98 2206.82C1263.41 2263.56 1305.33 2314.45 1362 2320.01Z" fill="#371A45"/>
</g>
<path d="M1872.3 2389.54C1869.03 2389.54 1865.74 2389.38 1862.42 2389.06L1337.93 2337.73C1311.26 2335.12 1287.15 2322.21 1270.05 2301.39C1252.94 2280.57 1244.95 2254.42 1247.56 2227.75L1276.98 1927.21C1282.38 1871.98 1331.71 1831.44 1386.95 1836.84L1911.44 1888.18C1966.68 1893.59 2007.21 1942.92 2001.81 1998.15L1972.4 2298.69C1967.32 2350.61 1923.42 2389.54 1872.3 2389.54ZM1377.11 1876.36C1346.3 1876.36 1319.85 1899.83 1316.79 1931.11L1287.37 2231.65C1285.8 2247.68 1290.62 2263.43 1300.95 2276C1311.27 2288.56 1325.79 2296.34 1341.82 2297.91L1866.32 2349.24C1899.62 2352.59 1929.33 2328.08 1932.59 2294.8L1962 1994.25C1965.26 1960.97 1940.83 1931.25 1907.55 1927.99L1383.05 1876.66C1381.06 1876.46 1379.07 1876.36 1377.11 1876.36Z" fill="#371A45"/>
<path d="M1532.25 2334.85L1533.03 2336.75L1841.58 2366.93C1883.12 2370.94 1921.54 2349.61 1941.29 2315.48C1948.52 2303.12 1953.24 2289.07 1954.69 2273.89L1965.81 2160.68L1969.48 2123.32L1975.85 2057.73L1979.65 2019.08C1985.19 1962.32 1943.34 1911.44 1886.66 1905.87L1783.19 1895.79C1830 1909.44 1862.18 1955.04 1857.32 2005.18L1849.94 2080.83L1843.84 2142.84L1832.41 2260.13C1826.81 2316.75 1775.86 2358.63 1719.2 2353.13L1532.25 2334.85Z" fill="white"/>
<g opacity="0.3">
<path d="M1483.38 2330.04L1484.16 2331.94L1841.58 2366.93C1883.12 2370.94 1921.54 2349.61 1941.29 2315.48C1948.52 2303.12 1953.24 2289.07 1954.69 2273.89L1965.81 2160.68L1969.48 2123.32L1975.85 2057.73C1955.39 2052.84 1927.59 2053 1909.62 2082.21C1884.71 2122.66 1864.11 2106.36 1849.95 2080.83L1843.84 2142.85L1832.41 2260.13C1826.81 2316.75 1775.86 2358.63 1719.2 2353.13L1483.38 2330.04Z" fill="#371A45"/>
</g>
<path d="M1851.79 2383.92C1847.86 2383.92 1843.9 2383.73 1839.94 2383.34L1390.12 2339.32L1391.52 2322.97C1392.58 2311.41 1399.74 2308.61 1409.45 2308.48L1409.49 2308.05L1416.44 2308.74C1418.51 2308.88 1420.65 2309.08 1422.84 2309.28L1720.72 2336.66C1743.81 2338.93 1766.44 2332.01 1784.48 2317.19C1802.53 2302.36 1813.7 2281.51 1815.94 2258.47L1840.88 2003.61C1844.95 1962.03 1818.75 1923.32 1778.58 1911.57L1784.81 1879.31L1888.24 1889.41C1920.07 1892.54 1948.83 1907.95 1969.25 1932.79C1989.67 1957.64 1999.2 1988.85 1996.07 2020.66L1971.13 2275.49C1968.04 2307.31 1952.64 2336.08 1927.78 2356.51C1906.03 2374.39 1879.41 2383.92 1851.79 2383.92ZM1800.77 2346.34L1843.17 2350.49C1866.16 2352.73 1888.79 2345.84 1906.83 2331.02C1924.87 2316.18 1936.04 2295.33 1938.28 2272.3V2272.29L1963.22 2017.44C1965.49 1994.39 1958.57 1971.78 1943.75 1953.74C1928.93 1935.7 1908.07 1924.52 1885.02 1922.25L1846.58 1918.5C1866.48 1942.49 1876.93 1974.01 1873.72 2006.83L1848.78 2261.68C1845.69 2293.48 1830.3 2322.26 1805.44 2342.69C1803.9 2343.95 1802.34 2345.17 1800.77 2346.34Z" fill="#371A45"/>
<path d="M1655.83 2116.23C1654.97 2125.66 1661.21 2202.99 1661.21 2202.99C1661.21 2202.99 1685.33 2205.21 1714.93 2207.94C1751.92 2211.34 1785.43 2175.81 1789.78 2128.57C1794.13 2081.32 1767.67 2040.26 1730.68 2036.86C1705.72 2034.56 1676.97 2031.91 1676.97 2031.91C1676.97 2031.91 1657.25 2100.87 1655.83 2116.23Z" fill="#22A7F0"/>
<path d="M1655.83 2116.23C1654.97 2125.66 1661.21 2202.99 1661.21 2202.99C1661.21 2202.99 1685.33 2205.21 1714.93 2207.94C1751.92 2211.34 1785.43 2175.81 1789.78 2128.57C1794.13 2081.32 1767.67 2040.26 1730.68 2036.86C1705.72 2034.56 1676.97 2031.91 1676.97 2031.91C1676.97 2031.91 1657.25 2100.87 1655.83 2116.23Z" fill="#1C7AEA"/>
<path d="M1719.78 2218.17C1717.87 2218.17 1715.95 2218.08 1714.02 2217.9L1676.71 2214.46C1662.31 2213.14 1651.06 2201.72 1649.96 2187.32C1645.1 2123.8 1645.68 2117.41 1645.88 2115.31C1646.88 2104.4 1655.7 2071.04 1662.92 2044.98C1666.73 2031.2 1679.82 2022.08 1694.09 2023.45L1731.6 2026.9C1774.02 2030.81 1804.59 2076.83 1799.74 2129.48C1795.11 2179.74 1759.87 2218.16 1719.78 2218.17ZM1691.38 2043.32C1687.13 2043.32 1683.34 2046.15 1682.19 2050.31C1672.58 2085.01 1666.45 2109.99 1665.79 2117.15C1665.49 2120.44 1666.41 2140.21 1669.9 2185.8C1670.26 2190.44 1673.89 2194.12 1678.54 2194.55L1715.85 2197.99C1747.24 2200.85 1775.99 2169.33 1779.82 2127.65C1783.66 2085.97 1761.21 2049.71 1729.77 2046.81L1692.26 2043.36C1691.97 2043.34 1691.67 2043.32 1691.38 2043.32Z" fill="#371A45"/>
<path d="M1736.12 2123.64C1740.48 2076.39 1714.02 2035.34 1677.03 2031.93C1640.04 2028.52 1606.53 2064.06 1602.18 2111.3C1597.83 2158.55 1624.28 2199.61 1661.27 2203.01C1698.26 2206.42 1731.77 2170.88 1736.12 2123.64Z" fill="#22A7F0"/>
<g opacity="0.7">
<path d="M1736.05 2123.64C1735.72 2127.2 1735.24 2130.65 1734.59 2134.03C1730.94 2095.89 1707.1 2065.59 1675.54 2062.67C1641.29 2059.51 1610.11 2089.71 1602.15 2131.65C1601.48 2125.06 1601.47 2118.23 1602.12 2111.28C1606.47 2064.03 1639.96 2028.52 1676.97 2031.91C1713.97 2035.3 1740.4 2076.39 1736.05 2123.64Z" fill="white"/>
</g>
<path d="M1736.05 2123.64C1731.7 2170.84 1698.21 2206.4 1661.2 2203.01C1624.2 2199.56 1597.77 2158.53 1602.12 2111.28C1602.79 2103.83 1604.21 2096.64 1606.25 2089.91C1613.08 2122.67 1635.28 2147.42 1663.65 2150.04C1694.77 2152.94 1723.49 2128.21 1734.37 2092.09C1736.4 2101.99 1737.04 2112.64 1736.05 2123.64Z" fill="#1C7AEA"/>
<path d="M1666.07 2213.22C1664.15 2213.22 1662.23 2213.13 1660.3 2212.95C1617.88 2209.04 1587.31 2163.02 1592.16 2110.37C1594.47 2085.3 1604.37 2062.35 1620.03 2045.75C1636.32 2028.47 1656.85 2019.98 1677.89 2021.96C1698.9 2023.89 1717.56 2035.95 1730.42 2055.91C1742.79 2075.1 1748.33 2099.47 1746.02 2124.54C1741.4 2174.8 1706.15 2213.22 1666.07 2213.22ZM1612.08 2112.2C1608.24 2153.88 1630.7 2190.14 1662.14 2193.04C1693.51 2195.91 1722.27 2164.38 1726.11 2122.7C1728.01 2102.07 1723.57 2082.2 1713.61 2066.74C1704.15 2052.07 1690.81 2043.23 1676.05 2041.87C1661.27 2040.5 1646.56 2046.76 1634.58 2059.47C1621.97 2072.84 1613.98 2091.57 1612.08 2112.2Z" fill="#371A45"/>
<path d="M1511.76 2345.14C1511.45 2345.14 1511.14 2345.13 1510.83 2345.11C1504.02 2344.6 1498.9 2338.67 1499.41 2331.85L1508.97 2202.66C1510.89 2176.78 1499.79 2151.86 1479.27 2135.98C1451.52 2114.49 1436.92 2080.8 1440.21 2045.85L1457.37 1864.04C1458.01 1857.24 1464 1852.18 1470.85 1852.89C1477.66 1853.53 1482.66 1859.56 1482.01 1866.37L1464.86 2048.18C1462.36 2074.63 1473.41 2100.14 1494.43 2116.41C1521.52 2137.38 1536.19 2170.31 1533.66 2204.48L1524.09 2333.68C1523.61 2340.18 1518.18 2345.14 1511.76 2345.14Z" fill="#371A45"/>
<path d="M1955.66 2123.16C1955.66 2123.16 1907.99 2114.65 1897.65 2164.52C1887.31 2214.38 1935.33 2233.7 1935.33 2233.7C1935.33 2233.7 2104.23 2289.01 2232.44 2257.05C2288.9 2215.82 2244.69 2151.92 2244.69 2151.92C2244.69 2151.92 2094.47 2169.14 1955.66 2123.16Z" fill="white"/>
<g opacity="0.3">
<path d="M1935.35 2233.7C1935.35 2233.7 2104.23 2289 2232.42 2257.05C2257.57 2238.68 2262.76 2215.81 2260.76 2196.1C2256.57 2201.77 2251.09 2207.24 2244.04 2212.38C2115.85 2244.33 1946.93 2189.02 1946.93 2189.02C1946.93 2189.02 1912.31 2175.08 1908.22 2140.39C1903.57 2146.29 1899.81 2154.17 1897.66 2164.53C1887.32 2214.38 1935.35 2233.7 1935.35 2233.7Z" fill="#371A45"/>
</g>
<path d="M2141.9 2279.45C2036.82 2279.45 1936.89 2247.23 1931.48 2245.46L1930.72 2245.18C1910.79 2237.17 1875.69 2209.47 1885.53 2162.01C1895.64 2113.24 1937.25 2107.3 1957.83 2110.97L1959.55 2111.41C2094.21 2156.02 2241.81 2139.8 2243.28 2139.63L2250.65 2138.78L2254.87 2144.88C2272.53 2170.41 2292.1 2228.81 2239.74 2267.05L2237.78 2268.48L2235.43 2269.06C2205.4 2276.55 2173.41 2279.45 2141.9 2279.45ZM1939.65 2222.09C1949.47 2225.21 2107.39 2274.28 2227.02 2245.64C2261.88 2218.45 2246.14 2179.84 2238.11 2165C2204.83 2167.92 2075.64 2175.67 1952.75 2135.23C1945.23 2134.17 1916.9 2132.62 1909.77 2167.03C1902.04 2204.33 1935.55 2220.28 1939.65 2222.09Z" fill="#371A45"/>
<path d="M925.293 2386.89C842.128 2424.81 763.865 2428.21 690.554 2397.16H690.503C684.209 2394.53 677.915 2391.58 671.672 2388.39C654.957 2379.82 646.857 2360.42 652.996 2342.68L676.521 2274.89H921.887L944.742 2340.82C951.037 2358.88 942.679 2378.94 925.293 2386.89Z" fill="#9595B5"/>
<path d="M558.805 2014.99L436.287 2080.33C422.998 2087.41 414.697 2101.25 414.697 2116.31V2195.34C414.697 2217.43 432.271 2235.49 454.343 2236.11L614.891 2240.57" fill="#FB132B"/>
<g opacity="0.55">
<path d="M566.684 2046.8L464.327 2101.39C451.068 2108.51 442.762 2122.33 442.762 2137.4V2216.43C442.762 2223.19 444.413 2229.64 447.354 2235.26C428.678 2231.5 414.697 2215.04 414.697 2195.33V2116.3C414.697 2101.23 423.003 2087.4 436.262 2080.34L558.79 2014.97L566.684 2046.8Z" fill="white"/>
</g>
<path d="M1187.17 2116.3V2195.33C1187.17 2217.41 1169.58 2235.47 1147.55 2236.09L986.995 2240.58L1021.41 2102.06L1043.07 2014.97L1164.93 2079.98L1165.6 2080.34C1178.86 2087.4 1187.17 2101.23 1187.17 2116.3Z" fill="#FB132B"/>
<g opacity="0.3">
<path d="M1187.17 2116.29V2195.33C1187.17 2217.41 1169.58 2235.47 1147.55 2236.09L986.995 2240.58L1021.41 2102.06L1024.3 2092.46C1079.55 2220.1 1125.1 2196.11 1164.93 2079.98L1165.6 2080.34C1178.86 2087.4 1187.17 2101.23 1187.17 2116.29Z" fill="#371A45"/>
</g>
<path d="M792.58 2433.08C748.471 2433.08 705.798 2422.63 664.848 2401.72C641.506 2389.81 630.327 2362.31 638.849 2337.75L662.367 2269.98C665.082 2262.15 673.617 2257.99 681.454 2260.73C689.281 2263.44 693.424 2271.98 690.707 2279.81L667.189 2347.58C663.551 2358.07 668.41 2369.86 678.488 2375C753.637 2413.37 832.328 2412.79 919.074 2373.23C929.262 2368.59 934.313 2356.51 930.573 2345.72L907.702 2279.81C904.985 2271.98 909.128 2263.44 916.955 2260.72C924.777 2258 933.327 2262.15 936.042 2269.98L958.913 2335.89C967.822 2361.55 956.044 2389.34 931.523 2400.53C883.943 2422.23 837.517 2433.08 792.58 2433.08Z" fill="#371A45"/>
<path d="M614.899 2255.57C614.757 2255.57 614.616 2255.57 614.474 2255.56L453.925 2251.1C423.517 2250.26 399.696 2225.77 399.696 2195.34V2116.31C399.696 2095.67 411.012 2076.8 429.227 2067.09L551.747 2001.75C559.052 1997.86 568.141 2000.63 572.04 2007.93C575.939 2015.25 573.173 2024.33 565.863 2028.23L443.343 2093.57C434.925 2098.05 429.696 2106.77 429.696 2116.31V2195.34C429.696 2209.41 440.704 2220.72 454.757 2221.11L615.309 2225.57C623.59 2225.8 630.116 2232.7 629.887 2240.98C629.66 2249.12 622.99 2255.57 614.899 2255.57Z" fill="#371A45"/>
<path d="M986.97 2255.57C978.877 2255.57 972.209 2249.12 971.982 2240.98C971.752 2232.7 978.278 2225.8 986.56 2225.57L1147.11 2221.11C1161.16 2220.72 1172.17 2209.41 1172.17 2195.34V2116.31C1172.17 2106.77 1166.94 2098.05 1158.52 2093.57L1036.01 2028.23C1028.7 2024.33 1025.93 2015.24 1029.83 2007.93C1033.73 2000.63 1042.81 1997.87 1050.12 2001.75L1172.64 2067.09C1190.85 2076.8 1202.17 2095.66 1202.17 2116.31V2195.34C1202.17 2225.77 1178.35 2250.26 1147.94 2251.1L987.395 2255.56C987.253 2255.57 987.109 2255.57 986.97 2255.57Z" fill="#371A45"/>
<path d="M994.579 2223.86C987.821 2247.9 967.958 2266.06 943.452 2270.81C839.909 2290.78 745.343 2289.38 657.793 2271.33C633.855 2266.37 614.715 2248.21 608.059 2224.69C606.976 2220.87 605.892 2217.05 604.912 2213.29H604.86C516.846 1896.47 507.302 1629.59 576.175 1412.65C612.237 1299.15 669.761 1199.37 748.747 1113.21C777.019 1082.36 825.359 1082.36 853.683 1113.21C869.676 1130.65 884.844 1148.71 899.083 1167.28C955.111 1240.39 997.467 1322.16 1026.2 1412.65C1095.9 1631.96 1085.38 1902.4 994.579 2223.86Z" fill="#F6F6F6"/>
<path d="M1026.2 1412.65C904.811 1512.73 668.783 1510.15 576.177 1412.65C612.239 1299.15 669.763 1199.37 748.749 1113.21C777.021 1082.36 825.361 1082.36 853.685 1113.21C932.671 1199.37 990.195 1299.15 1026.2 1412.65Z" fill="#FB132B"/>
<g opacity="0.55">
<path d="M902.799 1172.23C895.783 1163.88 888.56 1155.72 881.182 1147.62C852.859 1116.77 804.518 1116.77 776.246 1147.62C699.324 1231.51 642.78 1328.3 606.615 1438.13C595.317 1430.5 585.05 1422.04 576.176 1412.65C612.238 1299.15 669.762 1199.37 748.748 1113.21C777.02 1082.36 825.36 1082.36 853.684 1113.21C871.123 1132.2 887.529 1151.91 902.799 1172.23Z" fill="white"/>
</g>
<g opacity="0.3">
<path d="M994.579 2223.86C987.821 2247.9 967.958 2266.06 943.452 2270.81C839.909 2290.78 745.343 2289.38 657.793 2271.33C633.855 2266.37 614.715 2248.21 608.059 2224.69C606.976 2220.87 605.892 2217.05 604.912 2213.29C1058.65 1989.95 898.928 1167.18 898.928 1167.18L899.083 1167.28C955.111 1240.38 997.467 1322.16 1026.2 1412.65C1095.9 1631.96 1085.38 1902.4 994.579 2223.86Z" fill="#371A45"/>
</g>
<path d="M796.318 2305.23C747.695 2305.23 700.07 2300.45 653.747 2290.9C622.455 2284.45 597.57 2261.17 588.803 2230.14C519.386 1984.58 496.197 1765.23 519.873 1578.17C543.74 1389.6 615.781 1228.62 733.992 1099.7C751.253 1080.88 775.747 1070.08 801.197 1070.08C826.649 1070.08 851.145 1080.88 868.408 1099.7C986.552 1228.55 1058.58 1389.42 1082.49 1577.85C1106.2 1764.78 1083.1 1983.96 1013.83 2229.32C1004.94 2260.8 979.419 2284.22 947.226 2290.43C896.15 2300.3 845.717 2305.23 796.318 2305.23ZM801.198 1110.08C786.718 1110.08 773.322 1115.99 763.474 1126.74C537.764 1372.88 491.946 1740.46 627.295 2219.26C631.987 2235.86 645.217 2248.3 661.829 2251.72C751.263 2270.17 842.139 2269.99 939.646 2251.15C956.643 2247.87 970.65 2235.04 975.333 2218.45C1110.4 1740.06 1064.51 1372.75 838.927 1126.74C829.078 1115.99 815.678 1110.08 801.198 1110.08Z" fill="#371A45"/>
<path d="M561.835 2031.22C512.72 2034.94 473.202 1978.96 457.828 1910.29C454.423 1895.02 452.153 1879.08 451.276 1863.09C448.232 1809.02 470.364 1756.6 510.708 1720.49L531.087 1702.33L532.532 1795.25C576.642 1792.61 607.132 1813.66 624.725 1844.21V1844.26C663.211 1910.91 639.944 2022.61 561.835 2031.22Z" fill="#F6F6F6"/>
<path d="M557.26 2051.37C536.244 2051.37 515.759 2043.1 497.665 2027.24C460.497 1994.66 435.06 1932.19 431.283 1864.21C427.936 1803.96 452.033 1746.15 497.391 1705.59L517.75 1687.4C523.585 1682.18 531.925 1680.85 539.105 1683.99C546.275 1687.14 550.953 1694.17 551.075 1702L552.218 1775.55C621.244 1781.76 657.186 1840.8 662.289 1901.18C667.938 1967.98 635.421 2043.22 564.035 2051.08C563.81 2051.1 563.586 2051.13 563.361 2051.14C561.323 2051.3 559.289 2051.37 557.26 2051.37ZM511.779 1747.61C483.515 1778.88 468.871 1819.7 471.22 1861.99C474.326 1917.87 495.551 1972.19 524.033 1997.17C535.666 2007.36 547.766 2012.04 560.002 2011.28C605.969 2005.96 626.479 1952.38 622.434 1904.54C618.762 1861.13 593.381 1811.61 533.701 1815.2C528.235 1815.52 522.915 1813.61 518.916 1809.89C514.917 1806.18 512.61 1801 512.524 1795.55L511.779 1747.61Z" fill="#371A45"/>
<path d="M539.769 1813.88L503.506 1813.61C499.58 1813.58 496.42 1810.37 496.449 1806.44C496.464 1804.41 497.345 1802.57 498.717 1801.29L525.274 1776.59C533.979 1768.5 547.596 1769 555.69 1777.7C563.784 1786.4 563.289 1800.02 554.584 1808.12C550.409 1812 545.053 1813.9 539.769 1813.88Z" fill="#371A45"/>
<path d="M799.953 2324.86H797.832C779.422 2324.86 764.499 2309.94 764.499 2291.53V2064.71C764.499 2046.3 779.423 2031.38 797.832 2031.38H799.953C818.362 2031.38 833.286 2046.3 833.286 2064.71V2291.53C833.286 2309.94 818.362 2324.86 799.953 2324.86Z" fill="#FB132B"/>
<g opacity="0.55">
<path d="M824.484 2042.83C823.504 2042.73 822.472 2042.68 821.44 2042.68C802.454 2042.68 787.08 2058.05 787.08 2077.03V2301.76C787.08 2310.59 790.434 2318.69 795.954 2324.72C778.31 2323.23 764.483 2308.47 764.483 2290.47V2065.79C764.483 2046.75 779.909 2031.38 798.894 2031.38C808.387 2031.38 817.002 2035.2 823.245 2041.44C823.71 2041.9 824.122 2042.37 824.484 2042.83Z" fill="white"/>
</g>
<path d="M799.953 2337.36H797.831C772.56 2337.36 751.999 2316.8 751.999 2291.52V2064.71C751.999 2039.44 772.56 2018.87 797.831 2018.87H799.953C825.224 2018.87 845.785 2039.44 845.785 2064.71V2291.52C845.786 2316.8 825.224 2337.36 799.953 2337.36ZM797.832 2043.87C786.345 2043.87 777 2053.22 777 2064.71V2291.52C777 2303.01 786.346 2312.36 797.832 2312.36H799.954C811.441 2312.36 820.786 2303.01 820.786 2291.52V2064.71C820.786 2053.22 811.44 2043.87 799.954 2043.87H797.832Z" fill="#371A45"/>
<path d="M811.858 1888.06C890.214 1888.06 953.733 1824.54 953.733 1746.18C953.733 1667.83 890.214 1604.31 811.858 1604.31C733.503 1604.31 669.983 1667.83 669.983 1746.18C669.983 1824.54 733.503 1888.06 811.858 1888.06Z" fill="#FB132B"/>
<g opacity="0.3">
<path d="M953.719 1746.18C953.719 1824.55 890.211 1888.06 811.844 1888.06C748.336 1888.06 694.578 1846.32 676.521 1788.8C702.523 1819.54 741.372 1839.05 784.811 1839.05C863.178 1839.05 926.686 1775.54 926.686 1697.17C926.686 1682.31 924.416 1668.02 920.134 1654.56C941.08 1679.27 953.719 1711.26 953.719 1746.18Z" fill="#371A45"/>
</g>
<g opacity="0.55">
<path d="M934.27 1674.47C908.32 1645.79 870.762 1627.78 829.076 1627.78C750.709 1627.78 687.201 1691.29 687.201 1769.66C687.201 1795.86 694.321 1820.47 706.754 1841.52C683.899 1816.35 669.97 1782.91 669.97 1746.18C669.97 1667.81 733.478 1604.31 811.845 1604.31C864.055 1604.31 909.661 1632.48 934.27 1674.47Z" fill="white"/>
</g>
<path d="M811.858 1898.06C728.113 1898.06 659.983 1829.93 659.983 1746.18C659.983 1662.44 728.113 1594.31 811.858 1594.31C895.603 1594.31 963.733 1662.44 963.733 1746.18C963.733 1829.93 895.603 1898.06 811.858 1898.06ZM811.858 1614.31C739.141 1614.31 679.983 1673.47 679.983 1746.18C679.983 1818.9 739.141 1878.06 811.858 1878.06C884.575 1878.06 943.733 1818.9 943.733 1746.18C943.733 1673.47 884.575 1614.31 811.858 1614.31Z" fill="#371A45"/>
<path d="M873.854 1808.19C908.105 1773.94 908.105 1718.41 873.854 1684.16C839.604 1649.91 784.072 1649.91 749.822 1684.16C715.571 1718.41 715.571 1773.94 749.822 1808.19C784.072 1842.44 839.604 1842.44 873.854 1808.19Z" fill="#09CBFF"/>
<g opacity="0.3">
<path d="M898.363 1731.94C882.782 1707.59 855.491 1691.44 824.433 1691.44C775.989 1691.44 736.729 1730.71 736.729 1779.15C736.729 1784 737.142 1788.69 737.916 1793.34C729.197 1779.72 724.141 1763.57 724.141 1746.18C724.141 1697.74 763.402 1658.48 811.846 1658.48C855.439 1658.48 891.604 1690.26 898.363 1731.94Z" fill="#232323"/>
</g>
<path d="M811.858 1843.89C757.983 1843.89 714.153 1800.06 714.153 1746.18C714.153 1692.31 757.984 1648.48 811.858 1648.48C865.733 1648.48 909.563 1692.31 909.563 1746.18C909.563 1800.06 865.732 1843.89 811.858 1843.89ZM811.858 1668.48C769.011 1668.48 734.153 1703.34 734.153 1746.18C734.153 1789.03 769.011 1823.89 811.858 1823.89C854.705 1823.89 889.563 1789.03 889.563 1746.18C889.563 1703.34 854.704 1668.48 811.858 1668.48Z" fill="#371A45"/>
<path d="M791.816 1503.79C701.069 1503.79 613.542 1477.39 563.505 1424.68C556.85 1417.67 557.138 1406.6 564.147 1399.94C571.156 1393.29 582.233 1393.58 588.886 1400.58C675.973 1492.32 903.002 1491.54 1015.07 1399.13C1022.53 1392.98 1033.56 1394.05 1039.7 1401.5C1045.85 1408.96 1044.79 1419.99 1037.33 1426.14C974.521 1477.93 881.591 1503.79 791.816 1503.79Z" fill="#371A45"/>
<g opacity="0.3">
<path d="M561.834 2031.22C512.719 2034.94 473.201 1978.96 457.827 1910.29C550.948 1977.36 594.801 1927.32 624.724 1844.26C663.21 1910.91 639.943 2022.61 561.834 2031.22Z" fill="#371A45"/>
</g>
<g opacity="0.3">
<path d="M925.293 2386.89C842.128 2424.81 763.865 2428.21 690.554 2397.16C774.183 2403.14 822.266 2302.07 822.266 2302.07L853.272 2274.89H921.888L944.743 2340.82C951.037 2358.88 942.679 2378.94 925.293 2386.89Z" fill="#371A45"/>
</g>
<path d="M2515.82 2646.95C2598.99 2684.87 2677.25 2688.28 2750.56 2657.22H2750.61C2756.91 2654.59 2763.2 2651.65 2769.44 2648.45C2786.16 2639.88 2794.26 2620.49 2788.12 2602.74L2764.59 2534.95H2519.23L2496.37 2600.88C2490.08 2618.94 2498.44 2639.01 2515.82 2646.95Z" fill="#9595B5"/>
<path d="M2882.31 2275.05L3004.83 2340.39C3018.12 2347.48 3026.42 2361.31 3026.42 2376.37V2455.41C3026.42 2477.49 3008.84 2495.56 2986.77 2496.17L2826.22 2500.63" fill="#FB132B"/>
<g opacity="0.55">
<path d="M2874.43 2306.86L2976.79 2361.45C2990.05 2368.57 2998.35 2382.39 2998.35 2397.46V2476.49C2998.35 2483.25 2996.7 2489.7 2993.76 2495.33C3012.44 2491.56 3026.42 2475.1 3026.42 2455.39V2376.36C3026.42 2361.29 3018.11 2347.47 3004.85 2340.4L2882.32 2275.03L2874.43 2306.86Z" fill="white"/>
</g>
<path d="M2253.95 2376.36V2455.4C2253.95 2477.48 2271.54 2495.53 2293.57 2496.15L2454.12 2500.64L2419.71 2362.12L2398.04 2275.04L2276.18 2340.04L2275.51 2340.4C2262.25 2347.47 2253.95 2361.29 2253.95 2376.36Z" fill="#FB132B"/>
<g opacity="0.3">
<path d="M2253.95 2376.36V2455.4C2253.95 2477.48 2271.54 2495.53 2293.57 2496.15L2454.12 2500.64L2419.71 2362.12L2416.82 2352.52C2361.57 2480.16 2316.01 2456.17 2276.18 2340.04L2275.51 2340.4C2262.25 2347.47 2253.95 2361.29 2253.95 2376.36Z" fill="#371A45"/>
</g>
<path d="M2648.53 2693.15C2603.6 2693.15 2557.18 2682.3 2509.59 2660.59C2485.07 2649.41 2473.29 2621.62 2482.2 2595.95L2505.07 2530.04C2507.79 2522.21 2516.32 2518.06 2524.16 2520.79C2531.99 2523.5 2536.13 2532.05 2533.41 2539.87L2510.54 2605.79C2506.8 2616.56 2511.85 2628.65 2522.04 2633.3C2608.79 2672.86 2687.48 2673.43 2762.62 2635.06C2772.7 2629.92 2777.56 2618.13 2773.92 2607.65L2750.41 2539.87C2747.69 2532.05 2751.83 2523.5 2759.66 2520.79C2767.48 2518.05 2776.03 2522.21 2778.75 2530.04L2802.26 2597.81C2810.79 2622.37 2799.61 2649.87 2776.26 2661.78C2735.32 2682.69 2692.64 2693.14 2648.53 2693.15Z" fill="#371A45"/>
<path d="M2826.21 2515.63C2818.12 2515.63 2811.45 2509.19 2811.23 2501.05C2811 2492.77 2817.52 2485.87 2825.8 2485.64L2986.35 2481.17C3000.41 2480.79 3011.42 2469.47 3011.42 2455.41V2376.37C3011.42 2366.83 3006.19 2358.12 2997.77 2353.63L2875.25 2288.29C2867.94 2284.39 2865.17 2275.3 2869.07 2267.99C2872.97 2260.69 2882.06 2257.93 2889.37 2261.82L3011.88 2327.15C3030.1 2336.87 3041.42 2355.72 3041.42 2376.37V2455.41C3041.42 2485.83 3017.6 2510.32 2987.19 2511.16L2826.64 2515.63C2826.5 2515.63 2826.35 2515.63 2826.21 2515.63Z" fill="#371A45"/>
<path d="M2454.14 2515.63C2454 2515.63 2453.86 2515.63 2453.72 2515.63L2293.17 2511.16C2262.76 2510.32 2238.94 2485.83 2238.94 2455.41V2376.37C2238.94 2355.73 2250.26 2336.87 2268.48 2327.15L2390.99 2261.82C2398.29 2257.93 2407.39 2260.69 2411.29 2267.99C2415.18 2275.3 2412.42 2284.39 2405.11 2288.29L2282.59 2353.63C2274.17 2358.12 2268.94 2366.83 2268.94 2376.37V2455.41C2268.94 2469.47 2279.95 2480.79 2294 2481.17L2454.55 2485.64C2462.84 2485.87 2469.36 2492.77 2469.13 2501.05C2468.91 2509.19 2462.24 2515.63 2454.14 2515.63Z" fill="#371A45"/>
<path d="M2446.53 2483.93C2453.29 2507.97 2473.16 2526.13 2497.66 2530.87C2601.21 2550.84 2695.77 2549.45 2783.32 2531.39C2807.26 2526.44 2826.4 2508.28 2833.05 2484.75C2834.14 2480.93 2835.22 2477.12 2836.2 2473.35H2836.25C2924.27 2156.53 2933.81 1889.65 2864.94 1672.71C2828.88 1559.21 2771.35 1459.43 2692.37 1373.28C2664.09 1342.42 2615.75 1342.42 2587.43 1373.28C2571.44 1390.71 2556.27 1408.77 2542.03 1427.34C2486 1500.45 2443.65 1582.22 2414.91 1672.71C2345.21 1892.02 2355.74 2162.46 2446.53 2483.93Z" fill="#F6F6F6"/>
<path d="M2414.91 1672.71C2536.3 1772.8 2772.33 1770.22 2864.94 1672.71C2828.88 1559.21 2771.35 1459.43 2692.37 1373.28C2664.09 1342.42 2615.75 1342.42 2587.43 1373.28C2508.45 1459.43 2450.92 1559.21 2414.91 1672.71Z" fill="#FB132B"/>
<g opacity="0.55">
<path d="M2538.32 1432.3C2545.33 1423.94 2552.56 1415.79 2559.93 1407.69C2588.26 1376.84 2636.6 1376.84 2664.87 1407.69C2741.79 1491.57 2798.34 1588.36 2834.5 1698.2C2845.8 1690.56 2856.07 1682.1 2864.94 1672.71C2828.88 1559.21 2771.35 1459.43 2692.37 1373.28C2664.1 1342.42 2615.76 1342.42 2587.43 1373.28C2569.99 1392.26 2553.59 1411.97 2538.32 1432.3Z" fill="white"/>
</g>
<g opacity="0.3">
<path d="M2446.54 2483.93C2453.29 2507.97 2473.16 2526.13 2497.66 2530.87C2601.21 2550.84 2695.77 2549.45 2783.32 2531.39C2807.26 2526.44 2826.4 2508.28 2833.06 2484.75C2834.14 2480.93 2835.22 2477.12 2836.2 2473.35C2382.46 2250.01 2542.19 1427.24 2542.19 1427.24L2542.03 1427.34C2486 1500.45 2443.65 1582.22 2414.91 1672.71C2345.21 1892.02 2355.74 2162.46 2446.54 2483.93Z" fill="#371A45"/>
</g>
<path d="M2644.81 2565.29C2595.4 2565.29 2544.98 2560.36 2493.88 2550.49C2461.69 2544.28 2436.17 2520.87 2427.28 2489.38C2358.01 2244.03 2334.91 2024.84 2358.63 1837.92C2382.53 1649.48 2454.56 1488.61 2572.71 1359.77C2589.97 1340.94 2614.46 1330.14 2639.91 1330.14C2665.36 1330.14 2689.86 1340.94 2707.12 1359.77C2825.33 1488.68 2897.37 1649.66 2921.24 1838.23C2944.91 2025.29 2921.72 2244.64 2852.31 2490.2C2843.54 2521.23 2818.66 2544.51 2787.37 2550.96C2741.06 2560.51 2693.42 2565.29 2644.81 2565.29ZM2465.78 2478.51C2470.46 2495.1 2484.47 2507.94 2501.47 2511.22C2598.98 2530.05 2689.86 2530.24 2779.29 2511.78C2795.9 2508.36 2809.13 2495.92 2813.82 2479.32C2949.17 2000.52 2903.35 1632.95 2677.64 1386.8C2667.79 1376.06 2654.39 1370.14 2639.92 1370.14C2625.44 1370.14 2612.04 1376.06 2602.19 1386.8C2376.61 1632.81 2330.71 2000.12 2465.78 2478.51Z" fill="#371A45"/>
<path d="M2879.28 2291.28C2928.39 2295 2967.91 2239.02 2983.29 2170.36C2986.69 2155.08 2988.96 2139.14 2989.84 2123.15C2992.88 2069.08 2970.75 2016.67 2930.41 1980.55L2910.03 1962.39L2908.58 2055.31C2864.47 2052.68 2833.98 2073.73 2816.39 2104.27V2104.32C2777.9 2170.97 2801.17 2282.67 2879.28 2291.28Z" fill="#F6F6F6"/>
<path d="M2883.85 2311.44C2881.82 2311.44 2879.79 2311.36 2877.75 2311.2C2877.53 2311.19 2877.3 2311.16 2877.08 2311.14C2805.69 2303.28 2773.17 2228.04 2778.82 2161.24C2783.93 2100.87 2819.88 2041.82 2888.89 2035.61L2890.04 1962.06C2890.16 1954.24 2894.84 1947.2 2902.01 1944.06C2909.18 1940.92 2917.53 1942.24 2923.36 1947.47L2943.72 1965.67C2989.08 2006.21 3013.18 2064.02 3009.83 2124.27C3006.05 2192.25 2980.62 2254.72 2943.45 2287.31C2925.36 2303.17 2904.87 2311.44 2883.85 2311.44ZM2881.11 2271.34C2893.34 2272.13 2905.45 2267.43 2917.08 2257.23C2945.56 2232.26 2966.79 2177.94 2969.89 2122.06C2972.24 2079.77 2957.6 2038.95 2929.34 2007.69L2928.59 2055.61C2928.51 2061.07 2926.2 2066.25 2922.2 2069.96C2918.2 2073.67 2912.85 2075.58 2907.41 2075.27C2847.75 2071.68 2822.35 2121.19 2818.68 2164.61C2814.64 2212.45 2835.15 2266.02 2881.11 2271.34Z" fill="#371A45"/>
<path d="M2915.84 2036.66L2942.4 2061.35C2945.27 2064.02 2945.44 2068.52 2942.76 2071.4C2941.38 2072.88 2939.49 2073.65 2937.61 2073.67L2901.35 2073.94C2889.46 2074.03 2879.75 2064.46 2879.66 2052.58C2879.58 2040.69 2889.14 2030.99 2901.02 2030.9C2906.73 2030.85 2911.96 2033.07 2915.84 2036.66Z" fill="#371A45"/>
<path d="M2641.16 2584.92H2643.28C2661.69 2584.92 2676.61 2570 2676.61 2551.59V2324.77C2676.61 2306.36 2661.69 2291.44 2643.28 2291.44H2641.16C2622.75 2291.44 2607.83 2306.36 2607.83 2324.77V2551.59C2607.83 2570 2622.75 2584.92 2641.16 2584.92Z" fill="#FB132B"/>
<g opacity="0.55">
<path d="M2616.63 2302.89C2617.61 2302.79 2618.64 2302.74 2619.67 2302.74C2638.66 2302.74 2654.03 2318.11 2654.03 2337.1V2561.83C2654.03 2570.65 2650.68 2578.75 2645.16 2584.79C2662.81 2583.29 2676.63 2568.53 2676.63 2550.53V2325.85C2676.63 2306.81 2661.21 2291.44 2642.22 2291.44C2632.73 2291.44 2624.11 2295.26 2617.87 2301.5C2617.4 2301.96 2616.99 2302.43 2616.63 2302.89Z" fill="white"/>
</g>
<path d="M2643.28 2597.42H2641.16C2615.89 2597.42 2595.33 2576.86 2595.33 2551.59V2324.77C2595.33 2299.5 2615.89 2278.94 2641.16 2278.94H2643.28C2668.55 2278.94 2689.12 2299.5 2689.12 2324.77V2551.59C2689.12 2576.86 2668.55 2597.42 2643.28 2597.42ZM2641.16 2303.94C2629.68 2303.94 2620.33 2313.28 2620.33 2324.77V2551.59C2620.33 2563.08 2629.68 2572.42 2641.16 2572.42H2643.28C2654.77 2572.42 2664.12 2563.08 2664.12 2551.59V2324.77C2664.12 2313.28 2654.77 2303.94 2643.28 2303.94H2641.16Z" fill="#371A45"/>
<path d="M2629.26 2148.12C2707.61 2148.12 2771.13 2084.6 2771.13 2006.25C2771.13 1927.89 2707.61 1864.37 2629.26 1864.37C2550.9 1864.37 2487.38 1927.89 2487.38 2006.25C2487.38 2084.6 2550.9 2148.12 2629.26 2148.12Z" fill="#FB132B"/>
<g opacity="0.3">
<path d="M2487.39 2006.25C2487.39 2084.61 2550.9 2148.12 2629.27 2148.12C2692.78 2148.12 2746.54 2106.38 2764.59 2048.86C2738.59 2079.61 2699.74 2099.11 2656.3 2099.11C2577.94 2099.11 2514.43 2035.6 2514.43 1957.23C2514.43 1942.38 2516.7 1928.09 2520.98 1914.62C2500.03 1939.33 2487.39 1971.32 2487.39 2006.25Z" fill="#371A45"/>
</g>
<g opacity="0.55">
<path d="M2506.84 1934.53C2532.79 1905.85 2570.35 1887.84 2612.04 1887.84C2690.4 1887.84 2753.91 1951.35 2753.91 2029.72C2753.91 2055.93 2746.79 2080.54 2734.36 2101.58C2757.21 2076.41 2771.14 2042.98 2771.14 2006.24C2771.14 1927.88 2707.64 1864.37 2629.27 1864.37C2577.06 1864.37 2531.45 1892.54 2506.84 1934.53Z" fill="white"/>
</g>
<path d="M2629.26 2158.12C2545.51 2158.12 2477.38 2089.99 2477.38 2006.25C2477.38 1922.5 2545.51 1854.37 2629.26 1854.37C2713 1854.37 2781.13 1922.5 2781.13 2006.25C2781.13 2089.99 2713 2158.12 2629.26 2158.12ZM2629.26 1874.37C2556.54 1874.37 2497.38 1933.53 2497.38 2006.25C2497.38 2078.96 2556.54 2138.12 2629.26 2138.12C2701.97 2138.12 2761.13 2078.96 2761.13 2006.25C2761.13 1933.53 2701.97 1874.37 2629.26 1874.37Z" fill="#371A45"/>
<path d="M2629.26 2093.95C2677.69 2093.95 2716.96 2054.68 2716.96 2006.25C2716.96 1957.81 2677.69 1918.54 2629.26 1918.54C2580.82 1918.54 2541.55 1957.81 2541.55 2006.25C2541.55 2054.68 2580.82 2093.95 2629.26 2093.95Z" fill="#09CBFF"/>
<g opacity="0.3">
<path d="M2542.75 1992.01C2558.33 1967.66 2585.62 1951.51 2616.68 1951.51C2665.13 1951.51 2704.39 1990.77 2704.39 2039.21C2704.39 2044.06 2703.97 2048.76 2703.2 2053.4C2711.92 2039.78 2716.98 2023.63 2716.98 2006.25C2716.98 1957.8 2677.71 1918.54 2629.27 1918.54C2585.68 1918.54 2549.51 1950.32 2542.75 1992.01Z" fill="#232323"/>
</g>
<path d="M2629.26 2103.95C2575.38 2103.95 2531.55 2060.12 2531.55 2006.25C2531.55 1952.37 2575.38 1908.54 2629.26 1908.54C2683.13 1908.54 2726.96 1952.37 2726.96 2006.25C2726.96 2060.12 2683.13 2103.95 2629.26 2103.95ZM2629.26 1928.54C2586.41 1928.54 2551.55 1963.4 2551.55 2006.25C2551.55 2049.09 2586.41 2083.95 2629.26 2083.95C2672.1 2083.95 2706.96 2049.09 2706.96 2006.25C2706.96 1963.4 2672.1 1928.54 2629.26 1928.54Z" fill="#371A45"/>
<path d="M2649.3 1763.84C2559.51 1763.84 2466.6 1738 2403.78 1686.2C2396.32 1680.05 2395.26 1669.02 2401.41 1661.56C2407.56 1654.1 2418.59 1653.04 2426.04 1659.2C2538.11 1751.6 2765.14 1752.38 2852.23 1660.65C2858.88 1653.64 2869.96 1653.35 2876.97 1660.01C2883.97 1666.66 2884.26 1677.74 2877.61 1684.75C2827.58 1737.44 2740.03 1763.84 2649.3 1763.84Z" fill="#371A45"/>
<g opacity="0.3">
<path d="M2879.28 2291.28C2928.39 2295 2967.91 2239.02 2983.29 2170.36C2890.16 2237.42 2846.31 2187.38 2816.39 2104.32C2777.9 2170.97 2801.17 2282.67 2879.28 2291.28Z" fill="#371A45"/>
</g>
<g opacity="0.3">
<path d="M2515.82 2646.95C2598.99 2684.87 2677.25 2688.28 2750.56 2657.22C2666.93 2663.2 2618.85 2562.14 2618.85 2562.14L2587.84 2534.95H2519.23L2496.37 2600.88C2490.08 2618.94 2498.44 2639.01 2515.82 2646.95Z" fill="#371A45"/>
</g>
</svg>
