<svg width="2319" height="3033" viewBox="0 0 2319 3033" fill="none" xmlns="http://www.w3.org/2000/svg">
<path d="M1833.69 1703.03C1833.19 1703.03 1832.69 1703 1832.18 1702.95C1823.94 1702.13 1817.92 1694.78 1818.74 1686.54C1832.53 1548.48 1801.58 1425.33 1733.84 1348.64C1728.35 1342.44 1728.94 1332.95 1735.15 1327.47C1741.35 1321.98 1750.83 1322.57 1756.32 1328.78C1829.58 1411.7 1863.2 1543.18 1848.59 1689.52C1847.82 1697.25 1841.3 1703.03 1833.69 1703.03Z" fill="#371A45"/>
<path d="M2284.35 1448.85C2272.5 1460.1 2262.05 1472.75 2251.9 1485.55C2197.35 1554.2 2146.55 1629.85 2072.5 1649.5C1906.25 1679 1721.25 1705.4 1522.5 1729.5L1410.15 1532.9L1302.5 1344.5C1563.7 1357.25 1819 1341.6 2068.5 1298.7C2084.25 1296 2099.1 1289.35 2111.65 1279.45L2217.3 1196.45C2224.6 1190.7 2233.8 1188.5 2242.5 1190C2243.25 1190.1 2243.95 1190.25 2244.7 1190.45C2249.45 1191.55 2254 1193.85 2257.9 1197.25C2266.2 1204.55 2272.55 1214.45 2277 1226.5C2289.1 1259.05 2287.4 1307.4 2272.75 1363.45C2272.7 1363.8 2272.6 1364.15 2272.5 1364.5C2286.1 1373.05 2295.3 1385.8 2298.85 1399.55C2303.25 1416.4 2299.2 1434.75 2284.35 1448.85Z" fill="white"/>
<path d="M1522.5 1747C1516.28 1747 1510.44 1743.68 1507.31 1738.18L1287.31 1353.18C1284.14 1347.63 1284.24 1340.8 1287.58 1335.35C1290.93 1329.9 1297.05 1326.73 1303.35 1327.02C1560.31 1339.57 1816.73 1324.24 2065.55 1281.46C2078.29 1279.27 2090.49 1273.82 2100.84 1265.69L2206.47 1182.7C2225.25 1167.93 2251.74 1168.54 2269.44 1184.12C2303.27 1213.89 2311.43 1276.71 2292.29 1357.52C2306.62 1370.18 2315.88 1387.47 2317.7 1405.71C2319.79 1426.69 2312.23 1446.52 2296.41 1461.55C2285.91 1471.52 2276.5 1482.7 2265.59 1496.43C2259.05 1504.67 2252.55 1513.02 2246.07 1521.36C2197.76 1583.44 2147.81 1647.64 2076.99 1666.42C2076.52 1666.54 2076.04 1666.64 2075.56 1666.73C1915.89 1695.07 1735.67 1721.28 1524.61 1746.87C1523.9 1746.96 1523.19 1747 1522.5 1747ZM1333.45 1363.39L1531.93 1710.73C1737.07 1685.69 1912.76 1660.06 2068.7 1632.4C2127.77 1616.39 2171.82 1559.79 2218.44 1499.86C2225 1491.44 2231.57 1483 2238.19 1474.67C2250.01 1459.78 2260.33 1447.54 2272.3 1436.17C2282.31 1426.66 2283.58 1416.25 2282.87 1409.18C2281.71 1397.5 2274.35 1386.33 2263.19 1379.32C2256.71 1375.24 2253.63 1367.44 2255.58 1360.05C2274.22 1289.18 2270.67 1231.83 2246.31 1210.39C2241.28 1205.96 2233.62 1205.88 2228.09 1210.22L2122.46 1293.21C2107.56 1304.92 2089.93 1312.79 2071.47 1315.96C1830.42 1357.4 1582.31 1373.33 1333.45 1363.39Z" fill="#371A45"/>
<path d="M2286.27 1368.06L2196.39 1429.1C2190.52 1433.16 2183.63 1424.99 2188.61 1419.9L2263.66 1341.35C2282.24 1323.59 2306.89 1352.62 2286.27 1368.06Z" fill="#371A45"/>
<g opacity="0.25">
<path d="M2284.35 1448.85C2272.5 1460.1 2262.05 1472.75 2251.9 1485.55C2197.35 1554.2 2146.55 1629.85 2072.5 1649.5C1906.25 1679 1721.25 1705.4 1522.5 1729.5L1410.15 1532.9C1423.6 1510.75 1440.8 1491.05 1461.5 1475.3L1478.55 1476.65C1528.9 1510.1 1587 1529.5 1644.35 1548.55C1670.95 1557.4 1697.9 1566.35 1725.85 1568.8C1748.5 1570.85 1771.3 1568.6 1793.85 1565.95C1928.35 1550.3 2061.25 1520.85 2189.75 1478.25C2217.1 1469.2 2244.95 1459.15 2266.7 1440.3C2279.9 1428.85 2290.15 1414.75 2298.85 1399.55C2303.25 1416.4 2299.2 1434.75 2284.35 1448.85Z" fill="#371A45"/>
</g>
<g opacity="0.25">
<path d="M2195.12 1422.45C2223.65 1391.32 2245.33 1353.41 2254.61 1312.21C2263.9 1271.01 2260.33 1226.52 2241.79 1188.57C2280.44 1212.58 2297 1262.2 2293.64 1307.57C2292.85 1318.22 2291.11 1328.89 2287.29 1338.86C2275.44 1369.76 2245.86 1389.6 2217.97 1407.42L2195.12 1422.45Z" fill="#371A45"/>
</g>
<path d="M1115.7 2950.1C1111.9 2958.2 1107.3 2966.4 1101.75 2974.7C1091 2990.8 1073.65 3001.25 1054.4 3003.55C863.3 3026.35 632.9 2957.1 657 2777.05C659.05 2761.75 663.85 2746.9 670.85 2733.15L757.55 2563.9C764.3 2550.75 768.55 2536.5 770.15 2521.85C778.7 2444.6 782.7 2360.3 782.5 2269.5L1002.5 2209.5L1145.35 2412.5L1192.5 2479.5C1167.8 2607.1 1137.65 2726.35 1077.5 2799.5C1118.75 2816.55 1149.25 2878.9 1115.7 2950.1Z" fill="white"/>
<path d="M985.068 3025.08C876.792 3025.08 757.597 2997.4 690.424 2929.25C649.272 2887.49 631.718 2834.07 639.662 2774.75C641.952 2757.64 647.211 2740.96 655.292 2725.18L741.986 2555.91C747.738 2544.69 751.366 2532.57 752.772 2519.9C761.102 2444.66 765.213 2360.43 764.999 2269.54C764.979 2261.63 770.268 2254.7 777.895 2252.62L997.895 2192.62C1005.01 2190.66 1012.57 2193.4 1016.81 2199.43L1206.81 2469.43C1209.55 2473.32 1210.59 2478.15 1209.68 2482.82C1187.19 2599.06 1158.66 2716.47 1103.4 2794.38C1121.02 2807.64 1134.84 2827.74 1141.97 2851.25C1154.74 2893.36 1145.62 2940.66 1116.31 2984.45C1102.73 3004.73 1080.93 3018.02 1056.49 3020.94C1033.75 3023.65 1009.69 3025.08 985.068 3025.08ZM800 2282.87C799.8 2369.96 795.62 2450.94 787.559 2523.76C785.689 2540.66 780.835 2556.85 773.14 2571.87L686.446 2741.14C680.181 2753.37 676.114 2766.24 674.351 2779.39C667.803 2828.28 681.597 2870.43 715.352 2904.68C779.536 2969.8 914.976 3002.55 1052.35 2986.18C1066.63 2984.48 1079.34 2976.75 1087.23 2964.98C1110.6 2930.07 1118.14 2893.29 1108.47 2861.4C1101.93 2839.81 1087.85 2822.71 1070.82 2815.67C1065.69 2813.55 1061.87 2809.13 1060.52 2803.75C1059.18 2798.37 1060.46 2792.66 1063.99 2788.38C1121.33 2718.66 1150.88 2601.15 1173.9 2483.47L995.254 2229.61L800 2282.87Z" fill="#371A45"/>
<path d="M1105.34 2676.19C970.078 2676.19 853.086 2631.63 757.022 2543.4C749.903 2536.87 749.429 2525.8 755.967 2518.68C762.51 2511.56 773.579 2511.09 780.694 2517.63C879.918 2608.75 1003.5 2649.82 1147.99 2639.67C1157.53 2639.03 1166 2646.26 1166.68 2655.9C1167.36 2665.54 1160.09 2673.91 1150.45 2674.58C1135.2 2675.66 1120.15 2676.19 1105.34 2676.19Z" fill="#371A45"/>
<path d="M1081.65 2820.08C1024.2 2837.99 959.616 2831.54 907.169 2803.6C903.634 2801.78 902.24 2797.44 904.056 2793.91C905.714 2790.68 909.495 2789.25 912.828 2790.4C963.86 2808.62 1019.86 2806.89 1068.34 2783.92C1093.75 2773.5 1107.81 2811.48 1081.65 2820.08Z" fill="#371A45"/>
<g opacity="0.25">
<path d="M960.199 2813.6C956.749 2812.65 953.249 2811.65 949.699 2810.5C953.249 2811.25 956.799 2812.25 960.199 2813.6Z" fill="#371A45"/>
</g>
<g opacity="0.25">
<path d="M1145.35 2412.5C1143.8 2420.05 1142.15 2427.5 1140.45 2434.95L1130.9 2425.9C1086.55 2394.15 1017.1 2406.3 986.15 2451.2C973.6 2469.3 967.3 2490.9 961.15 2512.05C940.05 2584.55 919 2657 897.95 2729.5C894.7 2740.65 891.45 2752.25 893.35 2763.75C897.65 2789.3 924.05 2802.45 949.7 2810.5C923.9 2805 895.2 2814.3 878.2 2834.6C858.85 2857.65 856.1 2893.2 871.7 2918.95C887.1 2944.45 916.6 2958 945.5 2965.2C1001.85 2979.2 1062.45 2973 1115.7 2950.1C1111.9 2958.2 1107.3 2966.4 1101.75 2974.7C1091 2990.8 1073.65 3001.25 1054.4 3003.55C863.3 3026.35 632.9 2957.1 657 2777.05C659.05 2761.75 663.85 2746.9 670.85 2733.15L757.55 2563.9C764.3 2550.75 768.55 2536.5 770.15 2521.85C778.7 2444.6 782.7 2360.3 782.5 2269.5L1002.5 2209.5L1145.35 2412.5Z" fill="#371A45"/>
</g>
<path d="M1022.5 1424.5L1000.8 1651.2L942.499 2259.5C856.699 2314.65 758.799 2346.7 632.499 2324.5C556.149 2308.6 501.549 2272.3 466.099 2217.95C447.349 2189.25 437.399 2155.7 435.849 2121.45C435.799 2120.9 435.749 2120.4 435.749 2119.85C427.549 1905.05 439.099 1694 469.249 1486.55C471.349 1471.85 480.049 1458.95 492.749 1451.4C564.449 1408.8 662.399 1387.25 777.499 1379.5L1022.5 1424.5Z" fill="white"/>
<path d="M711.798 2349.19C685.035 2349.19 657.672 2346.69 629.474 2341.74C629.293 2341.7 629.113 2341.67 628.937 2341.63C549.855 2325.17 490.133 2286.78 451.432 2227.54C431.237 2196.62 419.772 2159.61 418.278 2120.52C410.153 1907.82 421.471 1693.67 451.911 1484.01C454.811 1464.05 466.442 1446.68 483.82 1436.35C553.517 1394.91 649.196 1370.6 776.325 1362.04C777.77 1361.94 779.235 1362.02 780.661 1362.29L1025.66 1407.29C1034.6 1408.93 1040.79 1417.13 1039.92 1426.17L959.924 2261.17C959.411 2266.51 956.477 2271.32 951.965 2274.22C873.516 2324.66 795.635 2349.19 711.798 2349.19ZM635.802 2307.31C740.358 2325.62 832.765 2307.18 925.9 2249.29L1003.55 1438.81L776.5 1397.11C656.08 1405.42 566.178 1428.11 501.7 1466.44C493.443 1471.35 487.921 1479.59 486.549 1489.04C456.412 1696.59 445.206 1908.61 453.248 2119.19C454.503 2151.94 464.01 2182.79 480.738 2208.4C514.59 2260.22 565.318 2292.58 635.802 2307.31Z" fill="#371A45"/>
<path d="M610.547 2301.09C642.792 2306.4 653.123 2268.96 660.413 2244.07C669.526 2209.35 673.445 2173.53 677.879 2137.51C680.269 2116.11 683.635 2085.41 686.421 2064.28C687.407 2057.15 698.113 2057.4 698.579 2064.73C701.108 2114.47 702.484 2163.69 697.935 2213.6C695.237 2238.71 691.795 2264.25 680.635 2290.02C671.656 2311.49 653.438 2332.36 628.869 2335.96C612.828 2338.52 587.437 2337.26 589.978 2315.58C591.5 2305.72 600.957 2299.45 610.547 2301.09Z" fill="#371A45"/>
<g opacity="0.25">
<path d="M1000.8 1651.2L942.5 2259.5C856.7 2314.65 758.8 2346.7 632.5 2324.5C556.15 2308.6 501.55 2272.3 466.1 2217.95C447.35 2189.25 437.4 2155.7 435.85 2121.45L441.2 2119.1C461.25 2159.65 485.4 2200.25 523.05 2225.4C560.65 2250.55 614.85 2255.95 649.5 2226.9C685.1 2197.15 688.7 2144.8 690.55 2098.45C693.75 2017.6 699.85 1936.85 708.9 1856.4C710.4 1842.9 712.15 1828.95 718.9 1817.15C726.65 1803.65 740.05 1794.55 753.1 1786.05C832.05 1734.8 914.95 1689.7 1000.8 1651.2Z" fill="#371A45"/>
</g>
<path d="M652.492 1597C648.605 1597 644.689 1595.71 641.442 1593.06C584.206 1546.39 526.261 1509.32 469.22 1482.87C460.455 1478.8 456.642 1468.4 460.704 1459.63C464.771 1450.86 475.182 1447.06 483.946 1451.12C543.634 1478.79 604.063 1517.42 663.56 1565.94C671.05 1572.05 672.173 1583.07 666.065 1590.56C662.604 1594.8 657.57 1597 652.492 1597Z" fill="#371A45"/>
<path d="M864.432 1941.85L744.119 1951.15C733.378 1951.98 724.543 1959.94 722.649 1970.54C715.713 2009.38 704.351 2099.91 742.178 2129.71C773.575 2154.44 824.455 2151.42 854.217 2126.11C887.508 2097.81 890.567 2009.04 889.928 1965.1C889.73 1951.43 878.053 1940.79 864.432 1941.85Z" fill="white"/>
<g opacity="0.25">
<path d="M722.66 1970.56C715.705 2009.38 704.359 2099.91 742.191 2129.7C773.593 2154.45 824.461 2151.42 854.238 2126.1C874.698 2108.68 883.737 2068.4 887.51 2029.75C882.132 2049.07 873.657 2064.76 863.095 2075.07C802.578 2134.14 757.146 2064.76 757.146 2064.76C757.146 2064.76 749.326 2081.65 743.066 2082.62C716.89 2086.67 722.12 2004.69 725.811 1962.33C724.281 1964.77 723.186 1967.54 722.66 1970.56Z" fill="#371A45"/>
</g>
<path d="M795.015 2159.29C772.998 2159.29 751.226 2152.75 734.444 2139.53C692.735 2106.67 701.446 2018.17 710.347 1968.34C713.238 1952.16 726.729 1939.96 743.155 1938.69L863.472 1929.38C873.369 1928.63 883.301 1932.02 890.645 1938.73C897.989 1945.42 902.286 1954.97 902.427 1964.92C903.321 2026.47 897.09 2106.07 862.315 2135.63C843.848 2151.34 819.288 2159.28 795.015 2159.29ZM866.29 1954.28C865.997 1954.28 865.699 1954.29 865.401 1954.31H865.396L745.083 1963.62C740.01 1964.01 735.845 1967.76 734.956 1972.74C721.68 2047.04 727.27 2102.05 749.912 2119.89C775.889 2140.35 819.941 2138.85 846.123 2116.59C866.846 2098.96 878.55 2042.4 877.427 1965.28C877.383 1962.16 876.094 1959.29 873.794 1957.19C871.715 1955.3 869.078 1954.28 866.29 1954.28Z" fill="#371A45"/>
<path d="M797.468 2155.45C747.099 2122.54 743.939 2048.35 757.223 1995.43C758.447 1991.96 763.839 1993.47 762.935 1997.13C761.356 2003.2 760.805 2010.34 760.486 2017.12C759.575 2055.71 763.92 2099.09 792.615 2127.29C795.868 2130.49 799.368 2133.33 803.147 2135.74C804.258 2136.45 805.793 2137.3 806.353 2137.53C811.478 2139.63 813.934 2145.48 811.839 2150.6C809.593 2156.23 802.656 2158.55 797.468 2155.45Z" fill="#371A45"/>
<path d="M1774.75 2899.75C1774.35 2905.1 1773.55 2910.65 1772.4 2916.4C1767.35 2941.95 1749.5 2963.15 1725.25 2972.6C1600.05 3021.6 1397.95 3032.7 1277.1 2982.75C1247.4 2970.5 1225.3 2944.8 1217.75 2913.55C1185.05 2778.4 1175.2 2573.45 1088.95 2417.55C1083.6 2407.9 1074.9 2400.55 1064.5 2396.95C1034.45 2386.55 1005.7 2373.05 978.6 2355.6C917.6 2316.25 884.4 2245.35 892.25 2173.2C900.5 2098 903.85 2019.75 903.1 1938.85V1938.4C902.55 1881.6 899.95 1823.5 895.6 1764.3C887.55 1655.35 873.5 1542.6 855 1427L985 1307L1355 1367L1475 1467C1618.45 1671.3 1641.2 1976.75 1598.45 2221.45C1592.15 2257.6 1584.45 2292.4 1575.45 2325.35V2325.4C1575.3 2325.95 1575.15 2326.45 1575 2327C1635.45 2459.05 1659 2605.95 1660 2762C1735.85 2789.95 1780.95 2831.35 1774.75 2899.75Z" fill="white"/>
<path d="M1480.06 1463.44C1657.53 1689.12 1663.27 2063.89 1591.88 2331.63C1591.88 2331.63 1590.91 2319.72 1590.91 2319.72C1654.33 2457.93 1676.67 2611.21 1677.62 2761.89L1666.09 2745.46C1744.27 2773.35 1807.99 2826.14 1790.04 2917.88C1784.49 2952.34 1757.6 2981.87 1724.23 2991.8C1718.45 2993.69 1711.24 2996.64 1705.57 2998.44C1658.9 3013.45 1610.53 3022.72 1561.92 3028.19C1471.31 3036.98 1376.85 3035.3 1289.65 3006.34L1270.73 2999.4C1235.94 2985.4 1208.74 2953.87 1200.28 2917.32C1182.81 2842.49 1173.1 2765.91 1158.56 2691.13C1143.28 2610.96 1123.72 2531.93 1089.34 2458.06C1086.85 2452.4 1083.79 2447.06 1081.05 2441.54L1072.79 2425.57C1069.29 2419.47 1063.24 2415.23 1056.58 2413.24C1010.95 2396.56 965.152 2374.85 931.045 2339.33C887.394 2294.08 866.682 2229.03 874.703 2166.84C875.647 2157.6 877.393 2138.49 878.328 2129.22C884.944 2047.43 886.465 1965.29 883.647 1883.24C878.735 1731.28 860.987 1579.93 837.273 1429.78C836.311 1423.68 838.635 1417.74 842.83 1413.81L972.925 1293.92C977.078 1290.08 982.665 1288.61 987.849 1289.43L1357.8 1349.72C1367.34 1351.28 1373.81 1360.27 1372.26 1369.81C1370.7 1379.35 1361.74 1385.83 1352.2 1384.27L982.15 1324.57L997.074 1320.08L867.169 1440.18L872.716 1424.16C912.042 1671.24 936.679 1924.8 910.233 2175.45C904.264 2228.62 924.291 2283.96 963.299 2320.55C994.378 2349.42 1034.42 2366.94 1073.95 2381.28C1087.93 2387.01 1099.89 2398.42 1106.32 2411.98C1107.77 2414.55 1111.59 2422.41 1113.08 2425.13C1131.12 2459.72 1145.18 2497.05 1157.17 2533.98C1196.73 2657.84 1206.95 2784.67 1235 2908.94C1239.8 2929.46 1252.76 2947.65 1270.36 2959.11C1278.47 2965.19 1292 2968.97 1301.25 2972.63C1312.65 2976.6 1324.44 2979.93 1336.26 2982.71C1408.78 2999.57 1484.11 3000.2 1558.13 2992.89C1604.41 2987.69 1650.22 2978.98 1694.56 2964.77C1700.37 2963.2 1706.22 2960.32 1711.87 2958.61C1728.88 2953.64 1743.82 2941.96 1750.97 2925.59C1758.63 2905.99 1759.62 2882.88 1754.28 2862.59C1749.07 2842.14 1735.04 2824.89 1716.91 2811.13C1698.67 2797.37 1676.65 2787.1 1653.9 2778.54C1646.83 2775.93 1642.43 2769.22 1642.37 2762.11C1641.89 2688.52 1636.36 2615.03 1623.26 2543C1610.2 2471.01 1589.38 2400.51 1559.08 2334.28C1557.31 2330.4 1557.08 2326.19 1558.12 2322.37C1613.63 2111 1617.86 1882.06 1557.39 1671.28C1536.46 1601.27 1507.8 1533.73 1469.93 1470.56C1468.15 1467.62 1469.1 1463.78 1472.05 1462.02C1474.74 1460.41 1478.15 1461.07 1480.06 1463.44Z" fill="#371A45"/>
<path d="M1675.14 2772.25C1650.03 2821.83 1595.66 2844.67 1543.3 2845.7C1535.7 2845.98 1534.28 2834.92 1541.7 2833.3C1584.9 2824.29 1627.26 2799.9 1639.86 2756.75C1649.7 2730.04 1688.14 2746.84 1675.14 2772.25Z" fill="#371A45"/>
<path d="M1343.31 2676.3C1278.81 2676.3 1215.93 2667.42 1158.68 2649.28C1148.53 2646.07 1142.91 2635.25 1146.13 2625.1C1149.34 2614.96 1160.19 2609.35 1170.31 2612.55C1312.71 2657.65 1492.67 2641.75 1639.97 2571.04C1649.55 2566.43 1661.06 2570.48 1665.67 2580.07C1670.27 2589.66 1666.23 2601.17 1656.63 2605.77C1559.78 2652.27 1449.36 2676.3 1343.31 2676.3Z" fill="#371A45"/>
<path d="M1578.19 2379.57C1552.98 2323.14 1533.21 2262.82 1489.94 2217.26C1483.9 2210.7 1492.83 2200.99 1499.87 2206.54C1550.93 2247.16 1579.22 2309.19 1609.71 2364.36C1620.69 2386.12 1588.48 2401.78 1578.19 2379.57Z" fill="#371A45"/>
<g opacity="0.25">
<path d="M1284.15 1924.3C1271.75 1957.1 1233.9 1971.35 1199.7 1979.15C1199.65 1979.15 1199.55 1979.2 1199.5 1979.2C1159.3 1988.3 1117.9 1993.85 1076.7 1990.8C1017.05 1986.35 960.6 1964.2 905.7 1939.55C905.65 1939.55 905.65 1939.55 905.6 1939.55C904.75 1939.15 903.9 1938.8 903.1 1938.4C902.55 1881.6 899.95 1823.5 895.6 1764.3C907.8 1740.7 925.05 1719.9 947.7 1706.35L949 1697.65C971.55 1678.3 1005.2 1667.15 1031.1 1681.7C1070.2 1703.6 1064.65 1763.3 1093.1 1797.95C1111.8 1820.8 1142.9 1829.5 1172.4 1831.65C1211.25 1834.5 1250.8 1827.95 1286.7 1812.8C1287.35 1835.2 1287.95 1857.6 1288.6 1880C1289.05 1894.95 1289.4 1910.3 1284.15 1924.3Z" fill="#371A45"/>
</g>
<g opacity="0.25">
<path d="M1774.75 2899.75C1774.35 2905.1 1773.55 2910.65 1772.4 2916.4C1767.35 2941.95 1749.5 2963.15 1725.25 2972.6C1600.05 3021.6 1397.95 3032.7 1277.1 2982.75C1247.4 2970.5 1225.3 2944.8 1217.75 2913.55C1185.05 2778.4 1175.2 2573.45 1088.95 2417.55C1083.6 2407.9 1074.9 2400.55 1064.5 2396.95C1034.45 2386.55 1005.7 2373.05 978.599 2355.6C917.599 2316.25 884.399 2245.35 892.249 2173.2C900.499 2098 903.849 2019.75 903.099 1938.85C903.949 1939.15 904.799 1939.4 905.699 1939.55C1001.5 1965.05 1100.55 1978.35 1199.7 1979.15C1232.9 1979.5 1266.15 1978.35 1299.25 1975.85C1314.05 1974.75 1330.5 1973.8 1342.1 1983.1C1351.55 1990.65 1355.3 2003.2 1358.15 2015C1366.55 2049.7 1371.95 2085.15 1374.25 2120.8L1384.15 2136.35C1321.6 2142.65 1272.9 2199.75 1259.5 2261.2C1246.15 2322.6 1261.55 2386.75 1283.95 2445.5C1306.4 2504.2 1335.95 2560.4 1352.6 2621C1367.45 2675.3 1372 2733.1 1397.25 2783.4C1405.8 2800.55 1416.95 2816.8 1432.45 2828.05C1474.9 2858.9 1533.85 2843.75 1583.7 2827.35C1558.55 2837.05 1530.7 2849.3 1521.05 2874.5C1509.9 2903.7 1530.7 2937.65 1559.2 2950.6C1587.65 2963.5 1620.75 2960.3 1651.3 2953.6C1695.1 2944.05 1738.85 2926.3 1774.75 2899.75Z" fill="#371A45"/>
</g>
<g opacity="0.25">
<path d="M1598.45 2221.45C1592.15 2257.6 1584.45 2292.4 1575.45 2325.35C1565.55 2307.25 1555.65 2289.2 1545.8 2271.1C1536.35 2253.8 1526.55 2236.1 1511.4 2223.5L1502.9 2212.9C1530.75 2227.45 1564.55 2236.7 1593.3 2224C1595.05 2223.2 1596.8 2222.35 1598.45 2221.45Z" fill="#371A45"/>
</g>
<path d="M1653.28 2109.88L1317.44 2141.7C1277.7 2145.49 1242.51 2110.41 1239.29 2063.72L1224.87 1854.08C1222.05 1813.21 1244.64 1776.52 1277.01 1765.5C1281.59 1763.9 1286.39 1762.89 1291.34 1762.41L1627.13 1730.59C1666.92 1726.81 1702.11 1761.88 1705.28 1808.57L1716.74 1974.61L1719.76 2018.21C1722.98 2064.89 1693.03 2106.1 1653.28 2109.88Z" fill="white"/>
<g opacity="0.25">
<path d="M1653.28 2109.88L1317.45 2141.7C1277.7 2145.49 1242.52 2110.41 1239.3 2063.72L1224.87 1854.08C1222.06 1813.21 1244.64 1776.52 1277.02 1765.5C1297.11 1778.55 1309.87 1786.9 1309.87 1786.9C1337.81 1953.63 1384.44 2033.67 1562.81 2020.21C1639.81 2014.37 1687.4 1996.01 1716.74 1974.61L1719.76 2018.21C1722.99 2064.89 1693.03 2106.1 1653.28 2109.88Z" fill="#371A45"/>
</g>
<path d="M1311.67 2157C1292.96 2157 1274.67 2150.12 1259.51 2137.26C1239.15 2119.97 1226.33 2093.55 1224.35 2064.78L1209.91 1855.11C1206.14 1800.29 1242.03 1752 1289.93 1747.46L1625.74 1715.64C1646.89 1713.66 1668.01 1720.52 1685.12 1735.04C1705.48 1752.32 1718.29 1778.74 1720.28 1807.51L1734.72 2017.18C1738.49 2072 1702.6 2120.29 1654.7 2124.83L1318.89 2156.66C1316.48 2156.89 1314.07 2157 1311.67 2157ZM1632.9 1745.3C1631.46 1745.3 1630.02 1745.37 1628.57 1745.5L1292.76 1777.33C1260.91 1780.35 1237.17 1814.32 1239.84 1853.05L1254.28 2062.72C1255.7 2083.47 1264.69 2102.3 1278.92 2114.38C1289.81 2123.62 1302.95 2128.03 1316.06 2126.79L1651.87 2094.96C1683.72 2091.94 1707.46 2057.98 1704.79 2019.25L1690.34 1809.58C1688.92 1788.82 1679.93 1769.99 1665.7 1757.91C1656.02 1749.7 1644.52 1745.3 1632.9 1745.3Z" fill="#371A45"/>
<path d="M1666.66 2107.06C1662.38 2108.53 1657.94 2109.47 1653.28 2109.88L1317.45 2141.7C1288.32 2144.45 1261.65 2126.39 1248.22 2098.09C1243.33 2087.81 1240.18 2076.18 1239.35 2063.72L1232.9 1970.59L1230.78 1939.86L1224.87 1854.08C1221.65 1807.4 1251.6 1766.19 1291.35 1762.41L1363.92 1755.55C1330.98 1766.12 1307.89 1803.12 1310.71 1844.4L1318.48 1957.65L1325.14 2054.1C1328.36 2100.73 1363.54 2135.86 1403.29 2132.08L1666.66 2107.06Z" fill="white"/>
<g opacity="0.25">
<path d="M1666.66 2107.06C1662.38 2108.53 1657.94 2109.47 1653.28 2109.88L1317.45 2141.7C1277.7 2145.49 1242.52 2110.41 1239.35 2063.72L1230.78 1939.86C1240.73 1960.95 1257.76 1986.37 1282.23 1986.89C1295.66 1987.21 1308 1974.72 1318.48 1957.65L1325.14 2054.1C1328.36 2100.73 1363.54 2135.86 1403.29 2132.08L1666.66 2107.06Z" fill="#371A45"/>
</g>
<path d="M1311.62 2154.5C1293.53 2154.5 1275.84 2147.83 1261.14 2135.36C1241.28 2118.51 1228.78 2092.71 1226.86 2064.6L1212.42 1854.94C1208.71 1801.49 1243.59 1754.38 1290.17 1749.94L1362.72 1743.08C1369.1 1742.47 1374.85 1746.76 1376.14 1753.01C1377.42 1759.26 1373.8 1765.47 1367.72 1767.42C1339.5 1776.5 1320.77 1808.53 1323.19 1843.57L1337.63 2053.23C1339.09 2074.66 1348.39 2094.13 1363.15 2106.65C1374.55 2116.33 1388.36 2120.94 1402.09 2119.63L1665.49 2094.64C1671.85 2094.04 1677.59 2098.27 1678.9 2104.49C1680.22 2110.7 1676.67 2116.92 1670.64 2118.93C1665.34 2120.71 1659.87 2121.85 1654.38 2122.33L1318.63 2154.16C1316.29 2154.39 1313.95 2154.5 1311.62 2154.5ZM1319.93 1772.24L1292.53 1774.83C1259.34 1777.99 1234.58 1813.16 1237.36 1853.21L1251.8 2062.88C1251.8 2062.88 1251.8 2062.89 1251.8 2062.89C1253.26 2084.32 1262.56 2103.78 1277.31 2116.3C1288.71 2125.97 1302.5 2130.58 1316.26 2129.27L1347.67 2126.3C1347.43 2126.1 1347.2 2125.91 1346.97 2125.71C1327.1 2108.85 1314.6 2083.06 1312.69 2054.94L1298.25 1845.28C1296.35 1817.83 1304.7 1791.64 1319.93 1772.24Z" fill="#371A45"/>
<path d="M1450.46 1938.41C1450.96 1946.16 1445.66 2009.59 1445.66 2009.59C1445.66 2009.59 1428.76 2011.08 1407.99 2012.91C1382.05 2015.19 1359.01 1985.54 1356.53 1946.67C1354.04 1907.81 1373.05 1874.46 1398.99 1872.17C1416.5 1870.63 1436.66 1868.86 1436.66 1868.86C1436.66 1868.86 1449.65 1925.77 1450.46 1938.41Z" fill="#22A7F0"/>
<g opacity="0.25">
<path d="M1450.46 1938.41C1450.96 1946.16 1445.66 2009.59 1445.66 2009.59C1445.66 2009.59 1428.76 2011.08 1407.99 2012.91C1382.05 2015.19 1359.01 1985.54 1356.53 1946.67C1354.04 1907.81 1373.05 1874.46 1398.99 1872.17C1416.5 1870.63 1436.66 1868.86 1436.66 1868.86C1436.66 1868.86 1449.65 1925.77 1450.46 1938.41Z" fill="#371A45"/>
</g>
<path d="M1405.14 2024.85C1393.93 2024.85 1383.05 2020.56 1373.47 2012.33C1357.19 1998.35 1346.44 1974.08 1344.74 1947.43C1341.81 1901.52 1365.18 1863.29 1397.96 1860.41L1424.26 1858.09C1436.87 1856.98 1448.15 1865.9 1451.1 1879.3C1458.03 1910.71 1461.78 1930.34 1462.25 1937.65C1462.25 1937.65 1462.25 1937.66 1462.25 1937.66C1462.36 1939.42 1462.7 1944.76 1458.53 1997.06C1457.45 2010.64 1447.63 2021.28 1435.19 2022.37L1409.03 2024.68C1407.73 2024.79 1406.43 2024.85 1405.14 2024.85ZM1426.31 1881.62L1400.03 1883.94C1380.8 1885.63 1366.27 1914.02 1368.31 1945.92C1369.62 1966.36 1377.3 1984.49 1388.86 1994.41C1392.87 1997.86 1399.28 2001.83 1406.96 2001.14L1433.12 1998.84C1433.5 1998.8 1434.79 1997.6 1434.99 1995.17C1438.78 1947.49 1438.72 1940.15 1438.68 1939.15C1438.3 1933.36 1434.32 1912.89 1428.04 1884.39C1427.61 1882.47 1426.57 1881.68 1426.31 1881.62Z" fill="#371A45"/>
<path d="M1444.17 2009.78C1470.17 2008.62 1489.85 1976.14 1488.11 1937.22C1486.38 1898.31 1463.9 1867.7 1437.9 1868.86C1411.9 1870.02 1392.23 1902.5 1393.96 1941.42C1395.69 1980.33 1418.17 2010.94 1444.17 2009.78Z" fill="#22A7F0"/>
<g opacity="0.7">
<path d="M1488.05 1949.64C1481.54 1918.08 1461.14 1895.78 1438.53 1897.78C1415.82 1899.78 1398.47 1925.5 1396.11 1957.93C1395.15 1953.27 1394.5 1948.4 1394.18 1943.36C1391.73 1904.49 1410.74 1871.15 1436.68 1868.87C1462.62 1866.6 1485.65 1896.21 1488.14 1935.08C1488.46 1940.06 1488.42 1944.93 1488.05 1949.64Z" fill="white"/>
</g>
<g opacity="0.25">
<path d="M1445.68 2009.57C1419.75 2011.9 1396.67 1982.23 1394.18 1943.36C1393.62 1934.43 1394.18 1925.82 1395.7 1917.76C1404.15 1943.58 1422.47 1960.8 1442.45 1959.01C1462.44 1957.22 1478.31 1937.08 1483.39 1910.12C1485.93 1917.76 1487.59 1926.2 1488.14 1935.08C1490.63 1973.95 1471.62 2007.3 1445.68 2009.57Z" fill="#371A45"/>
</g>
<path d="M1442.81 2021.53C1431.6 2021.53 1420.73 2017.25 1411.14 2009.02C1394.86 1995.04 1384.12 1970.77 1382.41 1944.11C1379.48 1898.2 1402.85 1859.98 1435.63 1857.09C1448.23 1855.97 1460.5 1860.26 1471.19 1869.44C1487.48 1883.42 1498.22 1907.69 1499.92 1934.34V1934.34C1502.85 1980.25 1479.47 2018.48 1446.7 2021.36C1445.4 2021.47 1444.1 2021.53 1442.81 2021.53ZM1439.43 1880.55C1438.86 1880.55 1438.29 1880.57 1437.7 1880.63C1418.47 1882.32 1403.95 1910.7 1405.99 1942.61C1407.3 1963.04 1414.98 1981.17 1426.53 1991.1C1430.54 1994.54 1436.92 1998.5 1444.63 1997.83C1463.86 1996.14 1478.38 1967.75 1476.35 1935.84C1475.04 1915.41 1467.36 1897.28 1455.8 1887.36C1452.09 1884.17 1446.35 1880.55 1439.43 1880.55Z" fill="#371A45"/>
<path d="M1554.22 2130.07C1547.96 2130.07 1542.74 2125.16 1542.44 2118.84L1536.18 1990.1C1535.49 1975.92 1541.01 1962.26 1550.95 1953.55L1582.09 1926.24C1586.7 1922.2 1589.28 1915.27 1588.81 1908.17L1577.44 1735.6C1577.01 1729.09 1581.94 1723.46 1588.45 1723.03C1595.02 1722.58 1600.59 1727.54 1601.02 1734.04L1612.39 1906.62C1613.34 1921.12 1607.83 1935.09 1597.66 1944.01L1566.52 1971.31C1562.02 1975.25 1559.43 1982.02 1559.77 1988.95L1566.03 2117.69C1566.35 2124.2 1561.32 2129.74 1554.81 2130.06C1554.61 2130.07 1554.42 2130.07 1554.22 2130.07Z" fill="#371A45"/>
<path d="M908.113 1860.53C908.113 1860.53 875.273 1890.66 875.002 1935.53C874.688 1987.42 905.113 2007.49 905.113 2007.49C905.113 2007.49 1037.74 2075.99 1246.07 2021.06C1246.07 2021.06 1305.49 1934.4 1235.47 1888.79C1235.48 1888.79 1015.1 1928.82 908.113 1860.53Z" fill="white"/>
<g opacity="0.25">
<path d="M875.016 1935.57C874.702 1987.39 905.108 2007.46 905.108 2007.46C905.108 2007.46 1037.71 2075.98 1246.09 2021.04C1246.09 2021.04 1265.62 1992.47 1269.05 1959.59C1268.11 1961.24 1267.49 1962.1 1267.49 1962.1C1115.21 2002.28 1003.38 1976.47 954.247 1959.67C920.115 1948.01 896.631 1915.41 896.416 1878.18C896.413 1877.67 896.413 1877.15 896.416 1876.63C896.411 1875.77 896.406 1874.9 896.533 1874.07C887.066 1887.09 875.16 1908.68 875.016 1935.57Z" fill="#371A45"/>
</g>
<path d="M1086.49 2057.54C971.163 2057.54 902.222 2022.88 898.228 2020.81C897.754 2020.57 897.296 2020.3 896.856 2020.01C895.332 2019.01 859.644 1994.78 860.001 1935.45C860.309 1884.61 896.432 1850.89 897.97 1849.48C902.985 1844.89 910.455 1844.23 916.183 1847.89C1017.05 1912.26 1230.65 1874.42 1232.79 1874.03C1236.57 1873.35 1240.45 1874.13 1243.66 1876.22C1265.12 1890.2 1278.31 1908.91 1282.86 1931.82C1292.32 1979.42 1259.83 2027.51 1258.44 2029.54C1256.41 2032.51 1253.37 2034.64 1249.89 2035.56C1188.53 2051.74 1133.63 2057.54 1086.49 2057.54ZM912.896 1994.6C924.605 2000.17 1048.87 2055.73 1236.5 2008.04C1243.18 1996.64 1259.06 1965.69 1253.42 1937.56C1250.77 1924.36 1243.72 1913.54 1231.92 1904.61C1195.46 1910.57 1015.05 1936.18 911.09 1879.69C902.76 1890.27 890.152 1910.43 890.001 1935.63C889.766 1974.53 909.029 1991.57 912.896 1994.6Z" fill="#371A45"/>
<path d="M1002.5 1774.5C806.699 1928.75 567.199 1979.4 310.299 1969.95C223.149 1966.75 142.049 1923.65 92.4988 1851.9C74.5988 1825.95 59.6488 1797.8 48.1488 1769.25C45.2988 1762.15 42.6488 1755.05 40.1988 1747.95C39.4488 1745.75 38.6988 1743.55 37.9988 1741.4C26.8488 1706.95 20.7988 1672.65 20.4488 1641.25C19.6988 1568.7 97.0488 1523.1 159.549 1559.9C186.749 1575.9 211.799 1600.95 237.499 1624.5C509.249 1644.9 713.399 1556.5 862.499 1379.5L970.899 1685.4L1002.5 1774.5Z" fill="white"/>
<path d="M875.807 1390.71C715.891 1584.81 482.533 1662.26 236.197 1641.85C232.141 1641.56 228.511 1639.89 225.739 1637.33C198.809 1613.79 175.501 1589.63 146.352 1574.28C115.774 1557.53 74.5962 1567.88 54.7332 1596.35C38.0342 1618.14 39.9122 1646.67 43.4302 1672.48C49.4782 1716.83 64.6352 1759.87 85.6142 1799.47C134.591 1897.47 226.006 1952.06 335.573 1949.47C356.361 1950.22 384.804 1949.89 405.599 1949.72C537.295 1947.06 669.163 1925.1 792.169 1877.59C864.872 1849.72 933.564 1813.52 998.929 1769.97C1001.59 1768.2 1005.18 1768.91 1006.95 1771.57C1008.55 1773.97 1008.12 1777.13 1006.07 1779.03C935.772 1844.25 850.417 1893.57 760.553 1927.4C640.071 1971.93 510.64 1990.03 382.648 1991.69C370.689 1991.99 346.631 1991.9 334.677 1991.51C185.817 1994.29 79.7632 1910.52 27.5022 1774.14C15.3672 1743.16 6.65415 1710.91 2.47915 1677.75C-2.78885 1641.76 -0.934855 1602.22 22.6591 1572.58C58.1841 1524.62 126.529 1513.77 175.387 1547.71C203.302 1566.02 225.641 1589.53 249.257 1611.67L238.8 1607.15C295.983 1611.21 353.404 1610.8 410.043 1604.23C523.093 1591.58 632.999 1551.91 724.977 1484.66C770.946 1451.37 812.458 1411.9 849.191 1368.29C863.969 1351.4 890.33 1372.26 875.807 1390.71Z" fill="#371A45"/>
<path d="M347.5 1764.5C343.875 1659.37 319.985 1600.17 289.416 1584.19C272.837 1575.52 252.619 1586.97 250.345 1605.53C246.662 1635.6 240.3 1663.12 227.5 1684.5C206.326 1698.8 177.5 1724.5 172.5 1764.5L347.5 1764.5Z" fill="white"/>
<path d="M166.979 1763.81C167.101 1727.06 190.037 1692.97 217.761 1670.08L212.568 1675.56C218.115 1665.42 222.365 1653.9 225.446 1641.66C230.877 1624.52 229.591 1603.51 237.549 1587.23C248.363 1566.77 275.876 1557.07 296.755 1568.26C322.676 1582.27 335.903 1611.28 343.947 1637.21C356.274 1678.44 358.57 1722.11 353.713 1764.28C353.293 1767.73 350.156 1770.19 346.706 1769.77C343.928 1769.43 341.779 1767.33 341.286 1764.71C335.932 1737.56 331.337 1710.81 325.08 1684.92C317.623 1656.39 309.256 1622.71 286.585 1603.17C283.749 1601 281.224 1599.21 277.968 1599.01C273.416 1598.77 268.701 1603.12 268.315 1607.82C266.601 1622.04 264.284 1636.44 260.29 1650.85C256.278 1665.46 250.772 1680.43 241.982 1694.15C240.739 1696.12 239.061 1697.75 237.226 1698.93C223.613 1705.8 210.861 1714.38 200.412 1725.36C189.948 1736.29 182.011 1749.8 178.019 1765.19C176.513 1771.55 166.872 1770.42 166.979 1763.81Z" fill="#371A45"/>
<path d="M658.403 1956.29C658.374 1956.29 658.339 1956.29 658.305 1956.29C648.696 1956.24 640.947 1948.4 641 1938.79C641.566 1838.68 603.29 1666.15 519.345 1613.76C511.191 1608.67 508.71 1597.94 513.798 1589.79C518.881 1581.62 529.623 1579.15 537.772 1584.23C634.017 1644.3 676.429 1827.84 675.804 1938.99C675.752 1948.57 667.968 1956.29 658.403 1956.29Z" fill="#371A45"/>
<g opacity="0.25">
<path d="M50.05 1736.15C49.1 1744.3 48.5 1752.4 48.25 1760.55C45.55 1756.35 42.85 1752.15 40.2 1747.95C38.95 1746 37.75 1744 36.5 1742.05L38 1741.4L50.05 1736.15Z" fill="#371A45"/>
</g>
<g opacity="0.25">
<path d="M1002.5 1774.5C806.698 1928.75 567.198 1979.4 310.298 1969.95C223.148 1966.75 142.048 1923.65 92.4984 1851.9C74.5984 1825.95 59.6484 1797.8 48.1484 1769.25C48.1484 1766.35 48.1984 1763.45 48.2484 1760.55C67.3484 1790.05 88.2484 1818.65 116.648 1838.95C136.898 1853.45 160.298 1863.1 184.148 1870.25C301.048 1905.3 426.598 1881.15 545.598 1854.2C675.298 1824.85 807.348 1791.1 917.398 1716.45C933.948 1705.25 952.198 1692.8 970.898 1685.4L1002.5 1774.5Z" fill="#371A45"/>
</g>
<path d="M1021.38 1468.75C796.285 1468.75 581.94 1363.55 447.145 1182.4C335.138 1031.93 289.049 847.377 317.379 662.719C345.934 476.586 446.476 312.702 600.485 201.252C660.592 157.819 726.276 124.199 795.71 101.323C803.327 98.7329 811.218 96.2769 819.826 93.8209C841.34 87.5169 863.327 82.1829 885.153 77.9709C935.363 68.2959 986.911 64.0159 1038.28 65.2019C1089.19 66.3369 1140.11 72.8949 1189.63 84.6919C1205.52 88.4659 1221.3 92.7779 1236.5 97.5069C1260.19 104.887 1283.27 113.374 1305.11 122.729C1420.54 171.787 1521.06 250.817 1595.81 351.276C1725.09 524.933 1766.03 743.957 1708.13 952.184C1676.02 1067.62 1614.11 1173.56 1529.09 1258.55C1511.1 1276.52 1492.05 1293.63 1472.47 1309.41C1463.51 1316.68 1453.69 1324.21 1442.48 1332.42C1411.85 1354.57 1379.37 1374.37 1345.93 1391.28C1317.94 1405.53 1288.44 1418.1 1258.27 1428.65C1222.95 1441.02 1186.13 1450.71 1148.83 1457.43C1135.47 1459.79 1121.86 1461.83 1108.35 1463.5C1079.29 1467.02 1050.23 1468.75 1021.38 1468.75ZM1021.39 68.5079C975.835 68.5079 930.313 72.8369 885.816 81.4079C864.097 85.6019 842.217 90.9099 820.797 97.1839C812.237 99.6279 804.396 102.067 796.818 104.642C727.712 127.411 662.35 160.868 602.536 204.088C449.294 314.984 349.25 478.05 320.842 663.251C292.654 846.974 338.508 1030.6 449.958 1180.31C584.074 1360.55 797.399 1465.24 1021.37 1465.25C1050.11 1465.25 1078.99 1463.53 1107.93 1460.02C1121.36 1458.37 1134.92 1456.33 1148.21 1453.98C1185.33 1447.29 1221.97 1437.66 1257.11 1425.35C1287.13 1414.85 1316.49 1402.33 1344.35 1388.16C1377.63 1371.33 1409.95 1351.62 1440.42 1329.59C1451.58 1321.42 1461.35 1313.93 1470.27 1306.69C1489.76 1290.98 1508.71 1273.95 1526.62 1256.07C1611.21 1171.51 1672.81 1066.1 1704.75 951.246C1762.36 744.068 1721.63 526.148 1592.99 353.365C1518.62 253.407 1418.6 174.766 1303.74 125.948C1282 116.639 1259.03 108.194 1235.46 100.85C1220.33 96.1459 1204.64 91.8559 1188.82 88.0989C1139.54 76.3579 1088.86 69.8319 1038.2 68.7019C1032.6 68.5739 1027 68.5079 1021.39 68.5079Z" fill="#371A45"/>
<g opacity="0.25">
<path d="M448.549 1181.34C605.941 1392.91 861.337 1491.68 1108.15 1461.74C1121.64 1460.1 1135.09 1458.08 1148.5 1455.7C1185.34 1449.08 1221.85 1439.53 1257.68 1427.01C1287.34 1416.61 1316.62 1404.24 1345.13 1389.74C1378.29 1372.98 1410.46 1353.43 1441.46 1331.02C1451.66 1323.5 1461.69 1315.9 1471.38 1308.08C1491.3 1292 1510.07 1275.02 1527.85 1257.3C1614.9 1170.28 1675.06 1064.63 1706.45 951.695C1723.71 889.677 1732.29 825.475 1731.89 761.094C1699.44 868.169 1640.87 968.131 1557.82 1051.16C1540.08 1068.93 1521.28 1085.86 1501.36 1101.93C1491.71 1109.77 1481.68 1117.36 1471.43 1124.88C1440.43 1147.29 1408.26 1166.84 1375.15 1183.6C1346.59 1198.09 1317.36 1210.47 1287.7 1220.88C1251.87 1233.4 1215.32 1242.93 1178.52 1249.56C1165.06 1251.94 1151.61 1253.95 1138.12 1255.6C891.31 1285.54 635.959 1186.77 478.522 975.194C386.646 851.793 341.97 708.527 341.11 566.308C279.428 769.414 311.63 997.442 448.549 1181.34Z" fill="#371A45"/>
</g>
<path d="M1021.39 1480.49C792.613 1480.49 574.742 1373.54 437.73 1189.41C323.829 1036.41 276.968 848.725 305.777 660.939C334.81 471.679 437.027 305.048 593.599 191.742C654.693 147.599 721.456 113.427 792.037 90.1719C799.732 87.5549 807.809 85.0429 816.603 82.5329C838.395 76.1489 860.739 70.7259 882.926 66.4439C933.961 56.6099 986.285 52.2639 1038.56 53.4659C1090.27 54.6209 1142.03 61.2859 1192.35 73.2729C1208.5 77.1079 1224.53 81.4909 1239.99 86.2979C1264.06 93.7999 1287.52 102.426 1309.73 111.938C1427.05 161.799 1529.24 242.143 1605.22 344.269C1736.69 520.856 1778.32 743.581 1719.43 955.329C1686.79 1072.71 1623.84 1180.43 1537.39 1266.85C1519.1 1285.11 1499.74 1302.51 1479.84 1318.55C1470.75 1325.92 1460.78 1333.56 1449.41 1341.89C1418.23 1364.44 1385.22 1384.57 1351.23 1401.76C1322.79 1416.22 1292.81 1429.01 1262.14 1439.73C1226.25 1452.31 1188.82 1462.15 1150.91 1468.98C1137.31 1471.39 1123.49 1473.46 1109.79 1475.15C1080.24 1478.73 1050.73 1480.49 1021.39 1480.49ZM1021.4 80.2459C976.578 80.2459 931.802 84.5009 888.038 92.9339C866.681 97.0579 845.167 102.277 824.098 108.449C815.646 110.863 807.99 113.244 800.597 115.756C732.531 138.183 668.248 171.091 609.41 213.603C458.736 322.639 360.372 482.961 332.442 665.031C304.737 845.624 349.815 1026.13 459.371 1173.3C608.194 1373.3 856.182 1478.69 1106.52 1448.37C1119.73 1446.74 1133.08 1444.74 1146.17 1442.42C1182.64 1435.85 1218.67 1426.38 1253.23 1414.27C1282.76 1403.94 1311.63 1391.63 1339.02 1377.7C1371.78 1361.14 1403.56 1341.75 1433.54 1320.07C1444.49 1312.06 1454.11 1304.68 1462.88 1297.57C1482.07 1282.1 1500.71 1265.35 1518.32 1247.77C1601.48 1164.64 1662.04 1061.01 1693.44 948.103C1750.08 744.446 1710.03 530.23 1583.58 360.376C1510.45 262.082 1412.09 184.756 1299.14 136.753C1277.75 127.588 1255.16 119.282 1231.97 112.058C1217.1 107.434 1201.67 103.215 1186.11 99.5209C1137.62 87.9679 1087.77 81.5499 1037.94 80.4389C1032.43 80.3099 1026.91 80.2459 1021.4 80.2459Z" fill="#371A45"/>
<path d="M1021.4 1484.4C791.387 1484.4 572.344 1376.88 434.59 1191.74C320.059 1037.9 272.94 849.175 301.909 660.347C331.103 470.044 433.877 302.498 591.308 188.574C652.729 144.192 719.848 109.839 790.81 86.4571C798.535 83.8321 806.669 81.3011 815.527 78.7711C837.407 72.3601 859.878 66.9081 882.187 62.6041C933.486 52.7141 986.127 48.3291 1038.64 49.5551C1090.64 50.7151 1142.66 57.4141 1193.26 69.4671C1209.48 73.3221 1225.6 77.729 1241.15 82.563C1265.35 90.105 1288.94 98.776 1311.27 108.342C1429.21 158.469 1531.96 239.25 1608.36 341.933C1740.56 519.496 1782.42 743.454 1723.2 956.379C1690.38 1074.41 1627.08 1182.73 1540.15 1269.62C1521.77 1287.98 1502.3 1305.47 1482.29 1321.6C1473.16 1329 1463.15 1336.68 1451.72 1345.05C1420.36 1367.73 1387.17 1387.97 1352.99 1405.25C1324.41 1419.79 1294.26 1432.64 1263.44 1443.43C1227.34 1456.07 1189.72 1465.96 1151.61 1472.83C1137.93 1475.25 1124.04 1477.33 1110.27 1479.03C1080.57 1482.63 1050.89 1484.4 1021.4 1484.4ZM1021.4 84.1581C976.822 84.1581 932.295 88.3911 888.775 96.7781C867.54 100.877 846.148 106.068 825.196 112.205C816.783 114.607 809.185 116.971 801.856 119.461C734.136 141.773 670.21 174.498 611.7 216.776C461.886 325.191 364.078 484.598 336.309 665.626C308.765 845.177 353.584 1024.64 462.51 1170.96C610.493 1369.84 857.119 1474.67 1106.05 1444.49C1119.18 1442.87 1132.46 1440.88 1145.49 1438.57C1181.74 1432.04 1217.57 1422.62 1251.94 1410.58C1281.31 1400.31 1310.01 1388.07 1337.25 1374.21C1369.83 1357.74 1401.44 1338.46 1431.24 1316.91C1442.12 1308.94 1451.69 1301.6 1460.42 1294.53C1479.5 1279.15 1498.04 1262.49 1515.56 1245C1598.24 1162.35 1658.45 1059.32 1689.67 947.054C1745.98 744.574 1706.17 531.588 1580.44 362.713C1507.72 264.976 1409.92 188.086 1297.61 140.355C1276.32 131.236 1253.86 122.979 1230.8 115.794C1216.02 111.197 1200.67 107.002 1185.2 103.328C1136.98 91.8391 1087.41 85.4571 1037.85 84.3511C1032.37 84.2211 1026.88 84.1581 1021.4 84.1581Z" fill="#371A45"/>
<path d="M352.643 594.208C410.93 101.655 987.779 -72.9244 1386.66 235.001L1396.03 247.342C943.6 143.016 472.584 389.113 404.248 886.083C360.675 797.288 340.419 697.625 352.643 594.208Z" fill="white"/>
<path d="M1112.56 1444.01C997.963 1444.01 886.132 1417.86 787.895 1366.33C631.621 1284.34 520.717 1147.02 467.177 969.195C418.007 805.853 442.162 628.065 535.195 468.58C638.525 291.446 815.293 159.683 1008.06 116.119C1115.17 91.9101 1216.04 88.9321 1307.83 107.276C1308.99 107.508 1310.13 107.859 1311.22 108.323C1429.21 158.469 1531.96 239.251 1608.36 341.934C1740.56 519.497 1782.42 743.455 1723.2 956.38C1690.38 1074.41 1627.08 1182.73 1540.15 1269.62C1521.77 1287.98 1502.3 1305.47 1482.29 1321.6C1473.16 1329 1463.14 1336.69 1451.72 1345.05C1420.36 1367.74 1387.17 1387.97 1352.99 1405.25C1352.19 1405.66 1351.35 1406 1350.48 1406.28C1272.26 1431.52 1191.75 1444.01 1112.56 1444.01ZM1184.43 130.234C1130.6 130.234 1074.2 136.85 1015.73 150.063C832.211 191.54 663.808 317.167 565.258 486.115C477.143 637.167 454.145 805.165 500.502 959.162C551.283 1127.83 656.254 1257.97 804.062 1335.51C961.577 1418.14 1156.3 1431.98 1338.5 1373.58C1370.61 1357.26 1401.81 1338.2 1431.24 1316.91C1442.12 1308.94 1451.69 1301.6 1460.41 1294.53C1479.5 1279.15 1498.04 1262.49 1515.56 1245C1598.24 1162.35 1658.45 1059.32 1689.67 947.054C1745.98 744.574 1706.17 531.588 1580.44 362.713C1508.07 265.452 1410.88 188.838 1299.26 141.055C1262.52 133.84 1224.17 130.234 1184.43 130.234Z" fill="#371A45"/>
<path d="M241.618 983.899C264.998 1120.03 366.159 1220.46 467.598 1208.19C569.037 1195.92 632.31 1075.6 608.93 939.469C608.8 938.614 608.62 937.712 608.442 936.859C584.255 802.05 483.675 702.983 382.949 715.178C304.586 724.654 249.004 798.616 238.533 894.52C235.467 922.757 236.304 952.941 241.618 983.899Z" fill="white"/>
<g opacity="0.25">
<path d="M241.619 983.899C264.999 1120.03 366.16 1220.46 467.599 1208.19C569.038 1195.92 632.311 1075.6 608.931 939.469C608.801 938.614 608.621 937.712 608.443 936.859C599.69 952.178 584.697 968.035 560.384 966.244C517.8 963.087 428.851 884.491 428.851 884.491C428.851 884.491 346.29 888.303 238.536 894.52C235.469 922.757 236.305 952.941 241.619 983.899Z" fill="#371A45"/>
</g>
<path d="M450.987 1226.58C347.178 1226.58 247.93 1123.58 224.449 986.85V986.848C210.079 903.186 226.007 822.759 268.136 766.186C297.399 726.897 336.368 703.286 380.841 697.905C491.202 684.528 601.193 791.594 626.075 936.511C640.445 1020.17 624.517 1100.6 582.384 1157.17C553.126 1196.46 514.156 1220.07 469.689 1225.45C463.453 1226.21 457.208 1226.58 450.987 1226.58ZM258.746 980.957C280.548 1107.88 373.258 1202.06 465.509 1190.9C500.284 1186.69 531.046 1167.84 554.474 1136.39C590.407 1088.14 604.352 1015.62 591.779 942.4C569.977 815.476 477.14 721.279 385.021 732.456C350.246 736.665 319.479 755.518 296.051 786.975C260.118 835.217 246.177 907.741 258.746 980.957Z" fill="#371A45"/>
<path d="M422.34 1183.96C502.429 1162.14 543.95 1058.56 515.081 952.615C486.211 846.669 397.883 778.474 317.795 800.297C237.706 822.121 196.185 925.699 225.054 1031.65C253.924 1137.59 342.252 1205.79 422.34 1183.96Z" fill="white"/>
<path d="M392.495 1189.88C383.432 1189.88 374.194 1188.85 364.839 1186.78C316.953 1176.16 273.169 1139.45 244.717 1086.07C193.677 990.293 208.247 870.186 277.202 818.333C305.869 796.773 339.844 789.554 375.425 797.437C423.316 808.052 467.095 844.759 495.547 898.145C546.592 993.916 532.022 1114.02 463.067 1165.88C441.928 1181.77 417.915 1189.88 392.495 1189.88ZM247.929 1084.36C275.878 1136.8 318.779 1172.84 365.624 1183.22C400.16 1190.87 433.085 1183.87 460.878 1162.97C528.461 1112.15 542.572 994.112 492.333 899.857C464.384 847.411 421.488 811.376 374.638 800.99C340.112 793.334 307.182 800.34 279.389 821.244C211.806 872.063 197.695 990.095 247.929 1084.36Z" fill="#371A45"/>
<g opacity="0.25">
<path d="M524.47 1051.55C527.471 1014.02 520.038 975.55 504.968 940.787C490.814 1025.81 422.292 1071.03 345.564 1042.73C295.976 1024.46 254.386 979.645 231.095 925.84C230.167 931.197 229.518 936.775 229.051 942.465C221.455 1038.04 281.425 1139.95 363.015 1170.06C444.605 1200.18 516.867 1147.08 524.47 1051.55Z" fill="#371A45"/>
</g>
<path d="M393.012 1205.98C311.782 1205.98 232.499 1119.54 212.509 1005.85C200.038 934.914 212.939 865.356 247.016 819.782C269.062 790.3 298.178 772.741 331.22 769.006C416.738 759.353 503.432 848.786 524.462 968.418C536.933 1039.35 524.032 1108.9 489.95 1154.48C467.904 1183.96 438.788 1201.52 405.746 1205.26C401.504 1205.74 397.256 1205.98 393.012 1205.98ZM246.787 999.822C264.692 1101.68 334.355 1178.27 401.836 1170.68C425.098 1168.05 445.928 1155.24 462.08 1133.64C490.518 1095.61 501.025 1036.1 490.185 974.444C472.28 872.593 402.802 795.892 335.127 803.59C311.87 806.219 291.04 819.027 274.893 840.626C246.455 878.655 235.947 938.166 246.787 999.822Z" fill="#371A45"/>
</svg>
