<svg width="3113" height="3467" viewBox="0 0 3113 3467" fill="none" xmlns="http://www.w3.org/2000/svg">
<g opacity="0.2">
<path d="M1939.87 3333.69C1940.26 3260.46 1574.29 3199.12 1122.44 3196.68C670.589 3194.24 303.973 3251.63 303.577 3324.85C303.182 3398.08 669.157 3459.42 1121.01 3461.86C1572.85 3464.3 1939.47 3406.91 1939.87 3333.69Z" fill="#371A45"/>
</g>
<path fill-rule="evenodd" clip-rule="evenodd" d="M2064.19 1242.51C2079.59 1213.85 2068.84 1178.13 2040.17 1162.73L1876.51 1074.79C1847.84 1059.39 1812.12 1070.14 1796.72 1098.8L1760.09 1166.98C1744.69 1195.64 1755.44 1231.37 1784.1 1246.77" fill="#606060"/>
<path fill-rule="evenodd" clip-rule="evenodd" d="M829.46 2168.06L720.729 2225L668.484 2252.33L154.832 1270.9C131.577 1226.52 148.729 1171.72 193.102 1148.47L193.377 1148.36C237.75 1125.1 292.552 1142.25 315.807 1186.63L343.842 1240.25L829.46 2168.06Z" fill="#996250"/>
<g opacity="0.2">
<path fill-rule="evenodd" clip-rule="evenodd" d="M720.729 2225L668.484 2252.33L154.832 1270.9C131.577 1226.52 148.729 1171.72 193.102 1148.47L193.377 1148.36C237.75 1125.1 292.552 1142.26 315.807 1186.63L343.842 1240.25L271.358 1281.27C255.864 1290.03 250.053 1309.47 258.193 1325.3L720.729 2225Z" fill="#39005E"/>
</g>
<path d="M668.477 2274.3C666.275 2274.3 664.063 2273.97 661.919 2273.3C656.362 2271.56 651.724 2267.69 649.023 2262.52L135.361 1281.09C106.552 1226.05 127.895 1157.82 182.939 1129.02C238.222 1100.08 306.45 1121.43 335.258 1176.47L848.92 2157.9C854.545 2168.64 850.395 2181.91 839.647 2187.53L678.656 2271.8C675.489 2273.46 671.992 2274.3 668.477 2274.3ZM235.322 1159.97C224.585 1159.97 213.701 1162.48 203.55 1167.8C169.712 1185.51 156.69 1227.14 174.268 1260.73L677.749 2222.71L799.829 2158.81L296.352 1196.83C284.082 1173.39 260.103 1159.97 235.322 1159.97Z" fill="#371A45"/>
<path d="M586.044 1439.28L208.348 1636.95L247.53 1711.82L625.227 1514.15L586.044 1439.28Z" fill="#ADADAD"/>
<path d="M247.53 1733.75C245.323 1733.75 243.116 1733.42 240.972 1732.75C235.415 1731.01 230.777 1727.13 228.076 1721.97L188.896 1647.1C183.271 1636.36 187.421 1623.09 198.168 1617.47L575.858 1419.79C586.605 1414.17 599.872 1418.33 605.492 1429.06L644.677 1503.93C647.377 1509.09 647.919 1515.11 646.181 1520.67C644.443 1526.23 640.566 1530.87 635.405 1533.57L257.71 1731.25C254.541 1732.9 251.045 1733.75 247.53 1733.75ZM237.984 1646.2L256.802 1682.15L595.586 1504.84L576.768 1468.88L237.984 1646.2Z" fill="#371A45"/>
<path fill-rule="evenodd" clip-rule="evenodd" d="M309.437 1170.07L144.826 1256.23C115.997 1271.32 80.3941 1260.18 65.3051 1231.35L29.415 1162.77C14.326 1133.95 25.465 1098.34 54.295 1083.25L218.906 997.1C247.735 982.011 283.338 993.15 298.427 1021.98L334.317 1090.55C349.405 1119.38 338.266 1154.98 309.437 1170.07Z" fill="#606060"/>
<g opacity="0.6">
<path fill-rule="evenodd" clip-rule="evenodd" d="M340.975 1121.11L310.005 1062.04C294.901 1033.19 259.334 1022.01 230.486 1037.12L65.8773 1123.29C46.8293 1133.29 35.4723 1152.22 34.3753 1172.2L29.4312 1162.78C14.3272 1133.93 25.4443 1098.37 54.2923 1083.26L218.9 997.092C247.748 981.988 283.315 993.16 298.42 1021.95L334.333 1090.55C339.441 1100.29 341.525 1110.84 340.975 1121.11Z" fill="white"/>
</g>
<g opacity="0.2">
<path fill-rule="evenodd" clip-rule="evenodd" d="M309.418 1170.07L144.809 1256.24C116.016 1271.34 80.3943 1260.17 65.2903 1231.32L29.4323 1162.78C14.9793 1135.2 24.5503 1101.44 50.6583 1085.33C50.9293 1085.93 51.2003 1086.54 51.5273 1087.09L87.4413 1155.69C102.545 1184.53 138.112 1195.65 166.96 1180.55L331.568 1094.43C332.834 1093.78 334.046 1093.07 335.203 1092.37C348.937 1120.88 337.661 1155.29 309.418 1170.07Z" fill="#39005E"/>
</g>
<path d="M117.637 1284.89C88.4822 1284.89 60.2792 1269.1 45.8502 1241.53L9.9612 1172.95C-10.7178 1133.45 4.6002 1084.48 44.1072 1063.8L208.726 977.644C248.238 956.968 297.203 972.288 317.881 1011.8L353.77 1080.37C374.449 1119.88 359.126 1168.85 319.615 1189.53L155.006 1275.68C143.067 1281.93 130.264 1284.89 117.637 1284.89ZM246.162 1012.34C240.395 1012.34 234.546 1013.7 229.092 1016.55L64.4732 1102.71C46.4212 1112.16 39.4192 1134.54 48.8682 1152.59L84.7572 1221.17C94.2102 1239.22 116.583 1246.22 134.645 1236.77L299.254 1150.62C317.311 1141.17 324.313 1118.79 314.864 1100.73L278.975 1032.16C272.378 1019.56 259.488 1012.34 246.162 1012.34Z" fill="#371A45"/>
<path fill-rule="evenodd" clip-rule="evenodd" d="M1937.85 1304.2L1413.55 2279.98L1386.73 2265.56L1253.5 2193.97L1747.63 1274.34L1777.8 1218.18C1801.54 1174.07 1856.52 1157.51 1900.64 1181.25L1900.91 1181.36C1945.03 1205.09 1961.59 1260.08 1937.85 1304.2Z" fill="#996250"/>
<g opacity="0.2">
<path fill-rule="evenodd" clip-rule="evenodd" d="M1937.85 1304.2L1413.55 2279.98L1386.73 2265.56L1822.06 1377.45C1836.72 1347.53 1824.25 1311.4 1794.26 1296.89L1747.63 1274.34L1777.8 1218.18C1801.53 1174.07 1856.52 1157.51 1900.64 1181.25L1900.91 1181.36C1945.03 1205.09 1961.58 1260.08 1937.85 1304.2Z" fill="#39005E"/>
</g>
<path d="M1413.55 2301.96C1410.04 2301.96 1406.48 2301.11 1403.17 2299.34L1243.11 2213.33C1237.98 2210.58 1234.15 2205.89 1232.48 2200.32C1230.8 2194.74 1231.4 2188.73 1234.16 2183.59L1758.47 1207.81C1772.71 1181.3 1796.43 1161.92 1825.24 1153.24C1854.06 1144.57 1884.53 1147.64 1911.05 1161.88C1937.8 1176.26 1957.18 1199.98 1965.86 1228.8C1974.53 1257.62 1971.46 1288.09 1957.21 1314.6L1432.91 2290.39C1428.95 2297.76 1421.38 2301.96 1413.55 2301.96ZM1283.24 2185.04L1404.62 2250.26L1918.53 1293.81C1927.22 1277.63 1929.09 1259.04 1923.8 1241.46C1918.51 1223.87 1906.69 1209.39 1890.5 1200.7C1874.08 1191.88 1855.47 1190.01 1837.9 1195.3C1820.31 1200.59 1805.84 1212.42 1797.15 1228.59L1283.24 2185.04Z" fill="#371A45"/>
<path d="M1464.8 1542.31L1840.32 1744.08L1880.32 1669.64L1504.79 1467.88L1464.8 1542.31Z" fill="#ADADAD"/>
<path d="M1840.37 1766.01C1836.77 1766.01 1833.2 1765.13 1829.97 1763.4L1454.45 1561.62C1443.77 1555.88 1439.76 1542.57 1445.5 1531.89L1485.5 1457.45C1488.25 1452.32 1492.94 1448.5 1498.51 1446.82C1504.09 1445.14 1510.1 1445.74 1515.24 1448.5L1890.76 1650.27C1901.44 1656.01 1905.45 1669.33 1899.7 1680.01L1859.71 1754.45C1856.95 1759.58 1852.27 1763.4 1846.7 1765.08C1844.63 1765.7 1842.49 1766.01 1840.37 1766.01ZM1494.58 1533.33L1831.42 1714.32L1850.63 1678.57L1513.79 1497.58L1494.58 1533.33Z" fill="#371A45"/>
<path fill-rule="evenodd" clip-rule="evenodd" d="M1784.36 1201.7L1948.02 1289.63C1976.68 1305.04 2012.41 1294.28 2027.81 1265.62L2064.44 1197.44C2079.84 1168.78 2069.09 1133.06 2040.43 1117.65L1876.76 1029.72C1848.1 1014.31 1812.38 1025.07 1796.97 1053.73L1760.34 1121.91C1744.94 1150.57 1755.69 1186.29 1784.36 1201.7Z" fill="#606060"/>
<g opacity="0.6">
<path fill-rule="evenodd" clip-rule="evenodd" d="M2066.86 1192.36C2061.88 1180.15 2052.71 1169.5 2040.18 1162.74L1876.51 1074.78C1847.83 1059.36 1812.15 1070.15 1796.73 1098.78L1760.07 1166.98C1759.19 1168.62 1758.41 1170.32 1757.68 1172.02C1751.29 1156.34 1751.67 1138 1760.32 1121.91L1796.98 1053.71C1812.39 1025.08 1848.08 1014.3 1876.76 1029.71L2040.42 1117.67C2067.46 1132.14 2078.54 1164.7 2066.86 1192.36Z" fill="white"/>
</g>
<g opacity="0.2">
<path fill-rule="evenodd" clip-rule="evenodd" d="M2064.42 1197.45L2027.81 1265.6C2012.4 1294.28 1976.71 1305.01 1948.03 1289.65L1784.37 1201.69C1755.69 1186.28 1744.96 1150.59 1760.32 1121.91L1765.42 1112.38C1770.38 1119.11 1776.88 1124.85 1784.76 1129.07L1948.43 1217.02C1977.11 1232.39 2012.79 1221.66 2028.21 1192.97L2059.71 1134.3C2073.01 1152.05 2075.62 1176.6 2064.42 1197.45Z" fill="#39005E"/>
</g>
<path d="M1975.8 1318.65C1962.62 1318.65 1949.57 1315.39 1937.63 1308.98L1773.96 1221.04C1734.68 1199.93 1719.89 1150.8 1741 1111.52L1777.64 1043.34C1787.86 1024.31 1804.88 1010.4 1825.57 1004.17C1846.26 997.953 1868.13 1000.15 1887.16 1010.37L2050.82 1098.31C2069.85 1108.54 2083.76 1125.56 2089.99 1146.25C2096.21 1166.93 2094.01 1188.81 2083.78 1207.84L2047.15 1276.01C2036.93 1295.04 2019.9 1308.95 1999.22 1315.18C1991.51 1317.5 1983.63 1318.65 1975.8 1318.65ZM1794.75 1182.35L1958.42 1270.29C1967.11 1274.96 1977.11 1275.96 1986.56 1273.12C1996.01 1270.28 2003.79 1263.92 2008.47 1255.23L2045.1 1187.05C2049.77 1178.35 2050.78 1168.36 2047.94 1158.9C2045.09 1149.45 2038.73 1141.67 2030.03 1137L1866.37 1049.06C1857.67 1044.39 1847.67 1043.38 1838.23 1046.23C1828.78 1049.07 1820.99 1055.43 1816.32 1064.12L1779.68 1132.3C1770.04 1150.25 1776.8 1172.71 1794.75 1182.35Z" fill="#371A45"/>
<path d="M1993.71 2428.72C1993.71 2428.72 2021.24 2555.9 1901.1 2579.95C1783.44 2603.52 1699.96 2579.85 1660.55 2499.15C1659.68 2497.45 1658.86 2495.69 1658.05 2493.93C1658.05 2493.93 1754.48 2932.08 1725 3164.85C1725 3164.85 1757.51 3173.48 1782.31 3196.07C1799.95 3212.19 1813.71 3235.38 1809.14 3267.63C1798.13 3345.2 1674.65 3337.5 1544.06 3347.38C1413.4 3357.21 1279.26 3363.56 1265.8 3243.49C1252.35 3123.47 1229.85 2858.63 1110.18 2727.44C1110.18 2727.44 1005.95 3005.64 976.7 3196.08C976.7 3196.08 1029.29 3256.31 1018.41 3309.23C1007.53 3362.09 855.626 3393.05 675.703 3377.9C495.835 3362.82 453.494 3355.56 512.284 2932.35C512.284 2932.35 560.901 2431.52 568.388 2346.86C575.93 2262.2 555.355 2149.16 555.355 2149.16C555.355 2149.16 501.592 2304.17 476.391 2395.77C476.391 2395.77 563.839 2537.38 426.103 2557.82C426.103 2557.82 443.283 2639.11 259.655 2659.24C110.522 2675.62 67.0652 2520.41 86.8132 2361.53C91.3502 2324.72 99.2911 2287.77 110.132 2252.64C167.636 2065.86 345.361 1394.9 1117.47 1386.41C1399.43 1383.34 1669.96 1566.07 1806.09 1880.71C1891.37 2077.87 1945.82 2200.91 1984.03 2261.34C1987.67 2267.13 1991.16 2272.36 1994.54 2276.99C2033.06 2330.12 2032.77 2383.04 1993.71 2428.72Z" fill="white"/>
<path d="M764.331 3403.64C734.502 3403.64 704.043 3402.34 673.882 3399.81C596.992 3393.36 536.255 3388.27 500.318 3343.33C456.949 3289.09 454.547 3188.57 490.464 2929.81C492.158 2912.35 539.194 2427.43 546.524 2344.92C549.268 2314.01 548.062 2278.76 545.513 2246.99C530.166 2293.48 512.276 2349.31 499.986 2392.83C512.305 2415.59 539.703 2475.58 517.125 2524.14C505.074 2550.05 481.612 2567.46 447.272 2576.02C445.499 2585.77 441.344 2597.75 432.301 2610.25C405.104 2647.84 347.828 2671.67 262.067 2681.1C201.51 2687.75 150.91 2668.79 115.754 2626.27C43.4587 2538.82 50.2997 2372.35 89.1427 2246.16C90.9937 2240.15 92.9657 2233.64 95.0807 2226.67C159.114 2015.49 353.982 1372.87 1117.24 1364.46C1262.16 1362.75 1404.52 1408.51 1529.13 1496.47C1655.95 1585.98 1758.69 1715.83 1826.25 1871.98C1914.08 2074.99 1974.49 2211.95 2012.29 2264.09C2054.78 2322.69 2056.27 2382.99 2016.88 2434.93C2019.5 2456.16 2021.6 2504.43 1995.17 2544.77C1975.78 2574.37 1945.58 2593.46 1905.42 2601.5C1815.82 2619.43 1746.15 2611.06 1697.14 2576.62C1722.86 2712.66 1765.66 2976.39 1748.78 3149.76C1788.53 3165.99 1840.24 3204.81 1830.88 3270.72C1819.09 3353.87 1715.75 3359.52 1606.34 3365.51C1586.58 3366.59 1566.15 3367.71 1545.69 3369.25C1425.22 3378.37 1260.23 3390.84 1243.98 3245.95C1243.21 3239.08 1242.41 3231.74 1241.57 3223.97C1228.8 3106.81 1205.89 2896.5 1117.55 2771.65C1089.3 2851.34 1023.68 3045.16 999.892 3189.91C1015.17 3209.99 1050.34 3262.98 1039.92 3313.64C1027.15 3375.7 902.779 3403.63 764.331 3403.64ZM555.342 2127.21C555.903 2127.21 556.47 2127.23 557.041 2127.27C566.992 2128.04 575.171 2135.42 576.953 2145.23C577.817 2149.97 597.959 2262.19 590.264 2348.81C582.823 2432.58 534.619 2929.49 534.131 2934.5C534.102 2934.8 534.068 2935.1 534.024 2935.4C501.27 3171.27 501.426 3274.39 534.615 3315.9C557.633 3344.68 601.68 3349.68 677.555 3356.05C876.862 3372.75 991.393 3331.56 996.901 3304.79C1003.98 3270.4 972.741 3225.04 960.109 3210.46C955.885 3205.59 953.996 3199.09 954.972 3192.72C984.249 3002.25 1085.34 2731.16 1089.63 2719.71C1092.31 2712.55 1098.53 2707.3 1106.04 2705.85C1113.52 2704.42 1121.26 2706.97 1126.42 2712.62C1244.09 2841.65 1270.85 3087.26 1285.22 3219.22C1286.06 3226.93 1286.86 3234.23 1287.62 3241.06C1298.3 3336.28 1404.57 3335.87 1542.37 3325.46C1563.29 3323.88 1583.95 3322.75 1603.94 3321.66C1713.9 3315.64 1781.12 3308.79 1787.4 3264.54C1795.58 3206.95 1720.14 3186.26 1719.38 3186.06C1708.75 3183.24 1701.84 3172.99 1703.22 3162.07C1731.91 2935.7 1637.58 2503.01 1636.63 2498.67C1634.21 2487.69 1640.48 2476.65 1651.15 2473.11C1661.84 2469.55 1673.45 2474.66 1678.08 2484.91C1710.79 2557.3 1782.33 2581.36 1896.8 2558.44C1924.89 2552.81 1945.58 2540.19 1958.29 2520.92C1982.52 2484.22 1972.32 2433.81 1972.21 2433.3C1970.82 2426.63 1972.57 2419.63 1977 2414.45C2009.35 2376.64 2009.26 2334.72 1976.73 2289.87C1936.2 2233.95 1877.61 2101.28 1785.94 1889.42C1657.3 1592.09 1404.4 1408.34 1124.77 1408.34C1122.41 1408.34 1120.08 1408.35 1117.73 1408.38C386.661 1416.43 198.829 2035.86 137.106 2239.41C134.972 2246.44 132.98 2253.02 131.115 2259.08C89.2688 2395.01 96.8718 2534.5 149.601 2598.29C175.241 2629.3 211.442 2642.48 257.272 2637.45C350.783 2627.17 384.054 2600.83 395.563 2586.04C404.967 2573.97 404.684 2564.04 404.513 2562.05C402.926 2556.09 404.103 2550.4 407.467 2545.19C410.9 2539.89 416.618 2537.04 422.863 2536.11C451.52 2531.86 469.826 2521.63 477.272 2505.68C491.715 2474.76 468.019 2424.16 457.672 2407.27C454.498 2402.1 453.59 2395.8 455.201 2389.95C480.303 2298.69 534.068 2143.52 534.605 2141.97C537.691 2133.08 546.06 2127.21 555.342 2127.21Z" fill="#371A45"/>
<path d="M1717.41 3185.44C1716.99 3185.21 1715.81 3184.77 1714.88 3184.39C1713.95 3184 1712.83 3183.63 1711.78 3183.25C1709.69 3182.47 1707.5 3181.77 1705.27 3181.08C1700.9 3179.62 1696.27 3178.48 1691.72 3177.25C1682.49 3175.03 1673.1 3173.03 1663.55 3171.69C1644.49 3168.9 1625 3167.52 1605.45 3168.04C1600.54 3167.98 1595.68 3168.52 1590.77 3168.73C1585.87 3168.99 1580.95 3169.25 1576.09 3169.94L1561.4 3171.65C1556.53 3172.41 1551.69 3173.35 1546.81 3174.2C1536.99 3175.65 1527.47 3178.43 1517.77 3180.67C1508.13 3183.15 1498.73 3186.47 1489.13 3189.34L1488.46 3189.54C1484.3 3190.78 1479.92 3188.42 1478.68 3184.26C1477.52 3180.4 1479.48 3176.35 1483.09 3174.79C1492.6 3170.69 1502 3166.12 1511.73 3162.37C1521.53 3158.86 1531.23 3154.81 1541.35 3152.07C1546.38 3150.58 1551.39 3149 1556.46 3147.6L1571.83 3143.97C1576.94 3142.65 1582.14 3141.75 1587.35 3140.87C1592.56 3140.03 1597.75 3138.87 1603.01 3138.3C1624.01 3135.31 1645.37 3134.32 1666.84 3134.96C1677.58 3135.23 1688.34 3136.22 1699.14 3137.54C1704.56 3138.33 1709.95 3139.04 1715.41 3140.16C1718.13 3140.67 1720.87 3141.21 1723.66 3141.89C1725.05 3142.22 1726.4 3142.49 1727.88 3142.9C1729.37 3143.31 1730.62 3143.6 1732.6 3144.23L1734.82 3144.94C1746.46 3148.68 1752.87 3161.14 1749.14 3172.79C1745.41 3184.43 1732.94 3190.84 1721.29 3187.11C1719.96 3186.68 1718.6 3186.08 1717.41 3185.44Z" fill="#371A45"/>
<path d="M966.564 3215.55C964.564 3214.41 961.435 3212.8 958.683 3211.49C955.839 3210.11 952.924 3208.76 949.977 3207.46C944.076 3204.87 938.075 3202.36 931.959 3200.09C919.764 3195.47 907.257 3191.47 894.571 3188.09C869.197 3181.28 843.07 3177.16 816.758 3175.59C803.596 3174.92 790.401 3174.96 777.205 3175.61C764.036 3176.48 750.872 3177.9 737.825 3180.2C711.736 3184.78 686.153 3192.62 661.597 3203.2L661.48 3203.25C656.475 3205.41 650.669 3203.1 648.514 3198.09C646.458 3193.32 648.49 3187.81 653.014 3185.44C678.075 3172.37 704.743 3161.98 732.406 3155C746.239 3151.5 760.304 3148.92 774.474 3146.95C788.663 3145.19 802.955 3144.09 817.287 3143.77C845.932 3143.37 874.675 3145.76 902.914 3151.16C917.045 3153.82 931.056 3157.19 944.923 3161.31C951.866 3163.33 958.756 3165.61 965.643 3168.05C969.085 3169.28 972.52 3170.57 975.973 3171.94C979.528 3173.35 982.64 3174.63 986.786 3176.56C997.78 3181.7 1002.53 3194.78 997.387 3205.78C992.245 3216.77 979.164 3221.52 968.171 3216.38C967.653 3216.14 967.15 3215.88 966.662 3215.6L966.564 3215.55Z" fill="#371A45"/>
<path d="M1415.39 3018.48C1315.33 3018.48 1232.63 3011 1225.51 3010.34C1213.44 3009.21 1204.56 2998.52 1205.68 2986.44C1206.81 2974.37 1217.44 2965.53 1229.58 2966.61C1233.16 2966.94 1588.67 2999.07 1715.79 2930.82C1726.47 2925.07 1739.78 2929.08 1745.52 2939.78C1751.25 2950.46 1747.24 2963.77 1736.56 2969.51C1663.04 3008.98 1528.18 3018.48 1415.39 3018.48Z" fill="#371A45"/>
<path d="M889.457 3006.39C720.145 3006.39 517.709 2967.3 506.522 2965.1C494.618 2962.78 486.859 2951.24 489.188 2939.34C491.512 2927.44 503.065 2919.69 514.95 2922.01C518.48 2922.7 869.384 2990.46 1024.29 2949.15C1036 2946.02 1048.04 2952.99 1051.17 2964.71C1054.29 2976.43 1047.32 2988.46 1035.61 2991.58C995.4 3002.3 944.145 3006.39 889.457 3006.39Z" fill="#371A45"/>
<path d="M857.22 2644.82C906.727 2666.53 958.223 2682.22 1010.77 2690.92C1037.04 2695.21 1063.53 2697.95 1090.1 2698.68L1110.03 2699.04L1130.08 2698.4L1150.12 2697.79C1156.79 2697.52 1163.41 2696.73 1170.07 2696.23C1223.26 2691.98 1275.72 2681.12 1326.04 2663.76C1350.93 2654.43 1375.54 2644.12 1399 2631.48C1404.79 2628.21 1410.69 2625.08 1416.42 2621.69C1422 2618.12 1427.84 2614.82 1433.33 2611.11C1438.89 2607.45 1444.39 2603.72 1449.68 2599.76C1455.01 2595.98 1460.4 2591.68 1464.89 2587.82L1465.54 2587.26C1470.1 2583.35 1476.97 2583.87 1480.89 2588.44C1484.48 2592.62 1484.34 2598.74 1480.77 2602.75C1475.54 2608.64 1470.68 2613.57 1465.38 2618.53C1460.17 2623.49 1454.7 2628.07 1449.19 2632.63C1443.75 2637.28 1437.92 2641.34 1432.24 2645.68C1426.46 2649.85 1420.5 2653.73 1414.62 2657.77C1390.65 2673.18 1365.22 2686.18 1338.99 2697.34C1286.22 2718.88 1230.06 2731.64 1173.54 2736.62C1166.47 2737.19 1159.41 2738.22 1152.33 2738.4L1131.07 2738.87L1109.82 2739.32L1088.45 2738.72C1060 2737.17 1031.62 2733.58 1003.8 2727.54C948.141 2715.66 894.455 2694.71 846.598 2664.87C841.266 2661.55 839.638 2654.53 842.963 2649.2C845.993 2644.34 852.091 2642.56 857.184 2644.8L857.22 2644.82Z" fill="#371A45"/>
<path d="M671.683 1773.97L576.493 2155.08C573.554 2166.85 561.63 2174.01 549.86 2171.07C538.09 2168.13 530.932 2156.2 533.871 2144.43C533.964 2144.06 534.086 2143.63 534.196 2143.27L650.173 1767.96C651.994 1762.07 658.249 1758.77 664.145 1760.59C669.83 1762.34 673.097 1768.26 671.683 1773.97Z" fill="#371A45"/>
<path d="M541.065 2213.02C533.98 2213.02 527.027 2209.6 522.794 2203.27C518.258 2196.56 413.981 2046.89 179.811 2076.66C167.785 2078.19 156.784 2069.68 155.255 2057.65C153.722 2045.62 162.237 2034.62 174.264 2033.09C436.72 1999.69 554.435 2171.55 559.318 2178.88C566.042 2188.97 563.317 2202.6 553.224 2209.33C549.483 2211.83 545.249 2213.02 541.065 2213.02Z" fill="#371A45"/>
<g opacity="0.2">
<path d="M1993.75 2417.39C1993.75 2417.39 2021.28 2544.57 1901.14 2568.62C1783.48 2592.19 1700 2568.51 1660.59 2487.82C1635.97 2401.94 1600.4 2309.35 1549.88 2262.36C1549.88 2262.36 1572.89 1978.23 1559.54 1858.65C1559.54 1858.65 1662.45 1862.4 1703.21 2030.11C1743.91 2197.87 1718.39 2356.6 1805.23 2398.63C1892.01 2440.66 1946.01 2435.02 1970.37 2356.49C1978.64 2329.74 1982.53 2290.35 1984.07 2250.01C1987.72 2255.79 1991.2 2261.03 1994.58 2265.66C2033.1 2318.79 2032.81 2371.71 1993.75 2417.39Z" fill="#371A45"/>
</g>
<path d="M1506.24 2207.17C1500.43 2207.17 1494.64 2204.89 1490.33 2200.35C1481.97 2191.57 1482.31 2177.67 1491.1 2169.31C1497.54 2163.18 1651.38 2018.85 1862.86 1994.89C1874.9 1993.47 1885.78 2002.19 1887.15 2014.24C1888.52 2026.29 1879.85 2037.17 1867.8 2038.53C1670.82 2060.85 1522.84 2199.72 1521.37 2201.12C1517.12 2205.17 1511.68 2207.17 1506.24 2207.17Z" fill="#371A45"/>
<path d="M426.09 2579.8C417.345 2579.8 409.083 2574.54 405.67 2565.92C405.499 2565.49 388.39 2523.2 354.581 2494.2C345.377 2486.3 344.317 2472.44 352.213 2463.23C360.099 2454.02 373.966 2452.96 383.175 2460.87C425.47 2497.14 445.675 2547.66 446.515 2549.79C450.958 2561.08 445.411 2573.82 434.127 2578.26C431.49 2579.3 428.766 2579.8 426.09 2579.8Z" fill="#371A45"/>
<path d="M436.34 2481.65C433.874 2482.26 430.62 2482.58 427.766 2483.03C424.802 2483.51 421.912 2483.88 419.026 2484.39C413.279 2485.27 407.713 2486.38 402.317 2487.53C391.524 2489.86 381.575 2493.01 372.378 2497.02C367.634 2498.8 363.455 2501.45 358.94 2503.63C354.821 2506.43 350.278 2508.72 346.25 2512.02C341.787 2514.78 337.981 2518.54 333.481 2521.97C329.021 2525.47 325.192 2529.83 319.907 2533.59L317.805 2535.09C311.904 2539.29 303.718 2537.91 299.519 2532.01C297.373 2529 296.692 2525.35 297.314 2521.98C297.995 2518.36 299.011 2514.81 300.095 2511.24C301.247 2507.7 302.221 2504.02 304.121 2500.75C307.61 2494.06 311.34 2487.28 316.655 2481.52C321.391 2475.26 327.656 2470.39 333.821 2465.41C340.459 2461.17 347.239 2456.85 354.661 2454.21C369.263 2448.31 384.871 2445.89 399.822 2446.67C407.31 2447.18 414.663 2448.23 421.775 2450.22C425.327 2451.18 428.838 2452.32 432.256 2453.77C435.774 2455.2 438.87 2456.7 442.656 2458.88C448.379 2462.19 450.339 2469.51 447.036 2475.23C445.349 2478.15 442.617 2480.09 439.585 2480.85L436.34 2481.65Z" fill="#371A45"/>
<path d="M2013.89 2437.31C2012.6 2440.27 2011.69 2442.07 2010.56 2444.28C2009.5 2446.43 2008.34 2448.4 2007.21 2450.45C2004.89 2454.46 2002.49 2458.41 1999.82 2462.2C1994.54 2469.81 1988.7 2477.13 1981.89 2483.86C1975.32 2490.74 1967.45 2496.77 1959.15 2502.25C1954.73 2504.7 1950.38 2507.3 1945.66 2509.27L1938.44 2512.03C1937.23 2512.47 1936.04 2512.95 1934.81 2513.34L1931.02 2514.25C1925.95 2515.45 1920.91 2516.72 1915.71 2516.9L1907.96 2517.48C1905.39 2517.58 1902.86 2517.25 1900.31 2517.13L1892.68 2516.54C1890.18 2516.3 1888.02 2515.73 1885.68 2515.33C1881.07 2514.46 1876.47 2513.6 1871.97 2512.13C1853.91 2506.99 1836.51 2498.52 1821.6 2485.97C1806.72 2473.65 1793.94 2456.62 1788.8 2435.1C1788.06 2432.49 1787.95 2429.59 1787.56 2426.84C1787.21 2424.06 1786.94 2421.28 1787.21 2418.4C1787.37 2415.55 1787.49 2412.69 1787.82 2409.86C1788.43 2407.06 1789.09 2404.27 1789.8 2401.5C1790.37 2398.66 1791.63 2396.13 1792.75 2393.54C1793.98 2391.03 1794.93 2388.26 1796.5 2386.04C1799.56 2381.5 1802.46 2376.88 1806.35 2372.94C1813.95 2364.92 1824.31 2358.37 1835.27 2355.5C1846.23 2352.53 1857.07 2352.72 1866.81 2354.48C1876.56 2356.28 1885.47 2359.5 1893.64 2363.56C1897.75 2365.55 1901.65 2367.84 1905.42 2370.28C1909.29 2372.78 1912.66 2375.13 1916.61 2378.45C1922.18 2383.13 1922.91 2391.44 1918.23 2397.01C1914.48 2401.48 1908.38 2402.83 1903.24 2400.77L1901.79 2400.18C1899 2399.05 1895.33 2397.42 1892.03 2396.21C1888.62 2394.95 1885.18 2393.85 1881.8 2392.81C1875.02 2390.77 1868.3 2389.45 1862.06 2388.93C1855.82 2388.57 1850.15 2389.02 1845.58 2390.66C1840.97 2392.22 1837.27 2394.74 1833.89 2398.54C1826.77 2406.95 1824.66 2416.24 1827.16 2426.09C1830 2436.01 1837.35 2446.36 1847.69 2454.07C1857.89 2461.87 1870.15 2467.8 1883.21 2471.17C1886.42 2472.2 1889.78 2472.7 1893.13 2473.26C1894.77 2473.5 1896.54 2473.96 1898.06 2474.04L1902.53 2474.22C1904 2474.24 1905.51 2474.51 1906.96 2474.39L1911.29 2473.91C1914.21 2473.88 1916.97 2472.94 1919.76 2472.27L1921.86 2471.78C1922.55 2471.54 1923.22 2471.21 1923.89 2470.94L1927.96 2469.3C1930.65 2468.11 1933.23 2466.45 1935.9 2465.07C1940.99 2461.55 1946.1 2457.8 1950.65 2452.92C1955.34 2448.3 1959.59 2442.91 1963.49 2437.24C1965.45 2434.41 1967.29 2431.47 1969.04 2428.52C1969.86 2427.03 1970.78 2425.54 1971.51 2424.06C1972.25 2422.69 1973.13 2420.87 1973.48 2420.14L1973.91 2419.2C1979.05 2408.22 1992.11 2403.48 2003.09 2408.62C2013.9 2413.67 2018.65 2426.44 2013.89 2437.31Z" fill="#371A45"/>
<path d="M1699.22 2571.9C1697.71 2571.9 1696.18 2571.75 1694.64 2571.42C1682.78 2568.9 1675.2 2557.25 1677.72 2545.38C1703.28 2424.99 1799.69 2411.83 1803.78 2411.33C1815.8 2409.92 1826.77 2418.41 1828.25 2430.46C1829.71 2442.44 1821.23 2453.36 1809.27 2454.9C1806.04 2455.36 1739.48 2465.93 1720.68 2554.5C1718.49 2564.82 1709.37 2571.9 1699.22 2571.9Z" fill="#371A45"/>
<path d="M1636.11 2493.99C1636.17 2430.42 1632.91 2365.73 1628.4 2301.7C1623.64 2237.57 1617.01 2173.54 1607.26 2110.01C1602.43 2078.25 1596.98 2046.58 1590.44 2015.16C1583.97 1983.72 1576.78 1952.43 1568.16 1921.57C1551.27 1859.74 1529.97 1799.23 1501.97 1741.67L1501.92 1741.56C1500.06 1737.75 1501.65 1733.15 1505.46 1731.29C1509.04 1729.55 1513.32 1730.87 1515.37 1734.17C1549.84 1790.19 1574.44 1851.65 1593.74 1914.08C1603.55 1945.32 1611.89 1976.94 1619.5 2008.71C1627.17 2040.47 1633.74 2072.46 1639.68 2104.55C1651.64 2168.73 1660.45 2233.4 1667.35 2298.26C1670.8 2330.69 1673.47 2363.19 1675.58 2395.75C1677.67 2428.4 1679.36 2460.72 1680.03 2493.91C1680.27 2506.04 1670.64 2516.07 1658.51 2516.31C1646.39 2516.56 1636.36 2506.92 1636.12 2494.8C1636.12 2494.68 1636.11 2494.56 1636.11 2494.45V2493.99Z" fill="#371A45"/>
<path d="M489.555 1602.2C489.555 1602.2 856.9 1642.62 1219.91 1948.09C1582.91 2253.57 1658.07 2493.95 1658.07 2493.95C1658.07 2493.95 1697.26 2425.94 1714.15 2348.39C1714.15 2348.39 1543.15 2009.19 1213.73 1785.72C884.311 1562.25 605.124 1520.11 605.124 1520.11C605.124 1520.11 529.512 1566.67 489.555 1602.2Z" fill="#996250"/>
<g opacity="0.6">
<path d="M1670.37 2470.39C1679.88 2446.89 1689.47 2418.89 1695.89 2389.44C1695.89 2389.44 1524.92 2050.24 1195.5 1826.78C866.073 1603.32 586.88 1561.18 586.88 1561.18C586.88 1561.18 552.895 1582.13 518.451 1606.64C499.75 1603.3 489.545 1602.2 489.545 1602.2C529.538 1566.68 605.109 1520.1 605.109 1520.1C605.109 1520.1 884.302 1562.24 1213.73 1785.71C1543.15 2009.17 1714.18 2348.37 1714.18 2348.37C1703.37 2398.1 1683.3 2443.94 1670.37 2470.39Z" fill="white"/>
</g>
<path d="M1658.08 2515.91C1657.27 2515.91 1656.47 2515.87 1655.66 2515.78C1647 2514.82 1639.72 2508.82 1637.11 2500.5C1636.38 2498.19 1558.47 2261.69 1205.77 1964.9C852.586 1667.69 490.75 1624.42 487.137 1624.02C478.519 1623.06 471.263 1617.12 468.636 1608.86C466.009 1600.59 468.48 1591.55 474.964 1585.79C515.887 1549.4 590.452 1503.36 593.607 1501.41C598.031 1498.69 603.275 1497.61 608.397 1498.4C619.999 1500.15 896.307 1543.86 1226.06 1767.55C1556.4 1991.65 1726.67 2324.45 1733.76 2338.51C1736.02 2343 1736.68 2348.14 1735.6 2353.06C1718.19 2433.02 1678.76 2502.02 1677.09 2504.91C1673.15 2511.76 1665.86 2515.91 1658.08 2515.91ZM542.299 1588.55C656.244 1610.79 944.818 1687.91 1234.04 1931.29C1508.31 2162.09 1620.18 2355.29 1659.97 2440.68C1670.56 2416.87 1682.85 2385.19 1690.93 2351.42C1664.69 2302.53 1496.46 2004.06 1201.4 1803.9C910.571 1606.6 656.743 1552.01 609.629 1543.2C596.908 1551.24 568.866 1569.28 542.299 1588.55Z" fill="#371A45"/>
<path d="M1556.56 1544.79C1556.56 1544.79 1501.25 1804.93 1169.07 2048.4C836.901 2291.86 568.394 2346.86 568.394 2346.86C568.394 2346.86 571.015 2267.13 565.082 2219.98C565.082 2219.98 884.295 2128.15 1180.37 1863.18C1428.61 1641.03 1471.31 1484.93 1471.31 1484.93L1556.56 1544.79Z" fill="#996250"/>
<g opacity="0.6">
<path d="M1556.55 1544.77C1556.55 1544.77 1553.5 1559.24 1544.42 1584.5L1506.42 1557.83C1498.81 1552.49 1488.2 1555.33 1484.36 1563.8C1465.79 1604.86 1401.3 1720.13 1205.78 1895.13C909.706 2160.1 590.478 2251.9 590.478 2251.9C592.689 2269.32 588.069 2321.39 588.451 2342.03C575.367 2345.42 568.387 2346.86 568.387 2346.86C568.387 2346.86 571.017 2267.11 565.07 2219.98C565.07 2219.98 884.298 2128.17 1180.37 1863.21C1428.61 1641.02 1471.29 1484.91 1471.29 1484.91L1556.55 1544.77Z" fill="white"/>
</g>
<path d="M568.395 2368.82C563.258 2368.82 558.234 2367.02 554.235 2363.65C549.098 2359.32 546.227 2352.86 546.447 2346.14C546.476 2345.37 548.942 2267.58 543.293 2222.73C541.94 2212 548.61 2201.88 559.001 2198.88C562.15 2197.97 877.155 2105.07 1165.73 1846.82C1404.85 1632.83 1449.72 1480.57 1450.15 1479.06C1452.08 1472.2 1457.22 1466.67 1463.93 1464.28C1470.65 1461.89 1478.1 1462.87 1483.93 1466.96L1569.18 1526.81C1576.38 1531.87 1579.88 1540.74 1578.04 1549.35C1575.71 1560.31 1517.13 1820.51 1182.05 2066.1C849.831 2309.61 583.957 2366.09 572.805 2368.38C571.339 2368.68 569.865 2368.82 568.395 2368.82ZM588.693 2235.63C590.846 2263.36 591.081 2295.76 590.885 2318.57C666.354 2297.81 891.823 2224.38 1156.09 2030.68C1434.87 1826.36 1514.69 1609.74 1531.37 1553.93L1481.96 1519.24C1458.14 1575.11 1386.6 1708.1 1195.02 1879.55C934.567 2112.63 660.377 2212.3 588.693 2235.63Z" fill="#371A45"/>
<path d="M1592.13 2127.45L1375.1 2126.27L1375.9 1979.82L1592.93 1981C1618.26 1981.14 1638.69 2001.79 1638.55 2027.13L1638.26 2081.83C1638.12 2107.16 1617.47 2127.59 1592.13 2127.45Z" fill="white"/>
<path d="M833.344 1976.86L832.547 2123.32L569.602 2121.89L569.667 2109.87L610.47 1975.65L833.344 1976.86Z" fill="white"/>
<path d="M1592.39 2149.41C1592.26 2149.41 1592.14 2149.41 1592.01 2149.41L1374.98 2148.23C1369.16 2148.2 1363.59 2145.86 1359.49 2141.72C1355.39 2137.58 1353.11 2131.98 1353.14 2126.16L1353.94 1979.7C1353.97 1973.88 1356.31 1968.31 1360.45 1964.21C1364.6 1960.12 1370.31 1957.92 1376.01 1957.86L1593.04 1959.04C1611.16 1959.14 1628.16 1966.29 1640.9 1979.18C1653.65 1992.06 1660.61 2009.13 1660.51 2027.25L1660.22 2081.94C1660.01 2119.22 1629.61 2149.41 1592.39 2149.41ZM1397.17 2104.43L1592.25 2105.49C1592.25 2105.49 1592.25 2105.49 1592.25 2105.49C1592.3 2105.49 1592.34 2105.49 1592.39 2105.49C1605.51 2105.49 1616.23 2094.85 1616.3 2081.7L1616.59 2027.01C1616.63 2020.62 1614.18 2014.6 1609.68 2010.06C1605.19 2005.51 1599.2 2002.99 1592.81 2002.96L1397.74 2001.9L1397.17 2104.43Z" fill="#371A45"/>
<path d="M832.555 2145.28C832.511 2145.28 832.472 2145.28 832.433 2145.28L569.484 2143.85C563.659 2143.82 558.083 2141.47 553.991 2137.33C549.894 2133.19 547.609 2127.59 547.643 2121.77L547.711 2109.75C547.726 2107.63 548.043 2105.52 548.658 2103.49L589.459 1969.26C592.272 1960.01 600.807 1953.69 610.47 1953.69C610.509 1953.69 610.548 1953.69 610.592 1953.69L833.468 1954.91C845.592 1954.98 855.367 1964.86 855.304 1976.98L854.508 2123.44C854.445 2135.53 844.625 2145.28 832.555 2145.28ZM595.597 2100.08L810.709 2101.25L811.27 1998.7L626.719 1997.7L595.597 2100.08Z" fill="#371A45"/>
<path d="M1515.42 2280.55L880.213 2277.1C853.415 2276.95 831.808 2255.11 831.954 2228.31L833.93 1864.83C834.076 1838.03 855.918 1816.42 882.717 1816.57L1517.93 1820.02C1544.73 1820.17 1566.33 1842.01 1566.19 1868.81L1564.21 2232.29C1564.06 2259.09 1542.22 2280.7 1515.42 2280.55Z" fill="white"/>
<g opacity="0.2">
<path d="M1564.66 2153.77L1564.23 2232.27C1564.08 2259.06 1542.23 2280.68 1515.44 2280.54L880.195 2277.08C853.406 2276.94 831.786 2255.08 831.932 2228.29L832.359 2149.79C832.213 2176.58 853.833 2198.44 880.622 2198.58L1515.86 2202.04C1542.65 2202.18 1564.51 2180.56 1564.66 2153.77Z" fill="#371A45"/>
</g>
<path d="M1515.69 2302.51C1515.56 2302.51 1515.43 2302.51 1515.3 2302.51L880.094 2299.05C861.266 2298.95 843.61 2291.52 830.368 2278.14C817.131 2264.76 809.894 2247.02 809.997 2228.19L811.974 1864.71C812.072 1845.88 819.498 1828.22 832.887 1814.98C846.271 1801.74 864.225 1794.62 882.838 1794.61L1518.04 1798.06C1536.87 1798.16 1554.53 1805.59 1567.77 1818.98C1581.01 1832.36 1588.25 1850.1 1588.15 1868.93L1586.17 2232.41C1585.96 2271.14 1554.37 2302.51 1515.69 2302.51ZM1515.54 2258.59C1515.59 2258.59 1515.63 2258.59 1515.68 2258.59C1530.27 2258.59 1542.17 2246.77 1542.25 2232.17L1544.23 1868.69C1544.27 1861.59 1541.54 1854.91 1536.55 1849.86C1531.56 1844.81 1524.9 1842.02 1517.8 1841.98L882.599 1838.53C882.545 1838.53 882.497 1838.53 882.448 1838.53C875.407 1838.53 868.781 1841.25 863.771 1846.2C858.727 1851.19 855.929 1857.85 855.89 1864.95L853.912 2228.43C853.873 2235.53 856.598 2242.21 861.588 2247.26C866.578 2252.3 873.233 2255.1 880.333 2255.14L1515.54 2258.59Z" fill="#371A45"/>
<path d="M1515.68 2302.51C1515.56 2302.51 1515.43 2302.51 1515.3 2302.51L996.548 2299.69C957.681 2299.47 926.24 2267.69 926.45 2228.82L928.427 1865.34C928.525 1846.52 935.951 1828.86 949.34 1815.62C962.631 1802.47 980.214 1795.24 998.891 1795.24C999.028 1795.24 999.155 1795.24 999.291 1795.24L1518.04 1798.06C1536.87 1798.16 1554.53 1805.59 1567.77 1818.98C1581.01 1832.36 1588.25 1850.1 1588.14 1868.93L1586.17 2232.41C1585.96 2271.14 1554.37 2302.51 1515.68 2302.51ZM1515.54 2258.59C1515.58 2258.59 1515.63 2258.59 1515.68 2258.59C1530.26 2258.59 1542.17 2246.77 1542.25 2232.17L1544.23 1868.69C1544.27 1861.59 1541.54 1854.91 1536.55 1849.86C1531.56 1844.81 1524.9 1842.02 1517.8 1841.98L999.053 1839.16C998.999 1839.16 998.951 1839.16 998.902 1839.16C991.861 1839.16 985.235 1841.88 980.225 1846.84C975.181 1851.83 972.383 1858.48 972.344 1865.58L970.367 2229.06C970.289 2243.71 982.139 2255.69 996.788 2255.77L1515.54 2258.59Z" fill="#371A45"/>
<path d="M1441.37 2029.63C1441.6 2038.15 1431.52 2107.25 1431.52 2107.25C1431.52 2107.25 1409.74 2107.85 1382.99 2108.58C1349.57 2109.51 1321.53 2075.65 1320.35 2032.97C1319.17 1990.29 1345.31 1954.94 1378.72 1954.02C1401.28 1953.39 1427.26 1952.68 1427.26 1952.68C1427.26 1952.68 1440.98 2015.75 1441.37 2029.63Z" fill="#22A7F0"/>
<path d="M1441.37 2029.63C1441.6 2038.15 1431.52 2107.25 1431.52 2107.25C1431.52 2107.25 1409.74 2107.85 1382.99 2108.58C1349.57 2109.51 1321.53 2075.65 1320.35 2032.97C1319.17 1990.29 1345.31 1954.94 1378.72 1954.02C1401.28 1953.39 1427.26 1952.68 1427.26 1952.68C1427.26 1952.68 1440.98 2015.75 1441.37 2029.63Z" fill="#137CE5"/>
<path d="M1381.68 2124.49C1340.33 2124.49 1305.87 2084.07 1304.47 2033.41C1303.05 1982.04 1336.17 1939.3 1378.29 1938.14L1412.18 1937.2C1428.22 1936.83 1442.55 1947.95 1445.86 1963.82C1453.18 1998.83 1457.01 2020.83 1457.25 2029.19V2029.19C1457.31 2031.65 1457.47 2037.41 1449.36 2094.79C1447.06 2111 1433.51 2123.08 1417.13 2123.53L1383.43 2124.46C1382.85 2124.48 1382.26 2124.49 1381.68 2124.49ZM1413.1 1968.96C1413.08 1968.96 1413.07 1968.96 1413.05 1968.96L1379.16 1969.89C1354.55 1970.57 1335.29 1998.67 1336.22 2032.53C1337.15 2065.97 1357.44 2092.72 1381.64 2092.72C1381.95 2092.72 1382.25 2092.72 1382.55 2092.71L1416.26 2091.77C1417.1 2091.75 1417.79 2091.15 1417.9 2090.34C1425 2040.12 1425.47 2031.32 1425.49 2029.99C1425.33 2025.15 1422.43 2006.97 1414.76 1970.32C1414.6 1969.52 1413.9 1968.96 1413.1 1968.96Z" fill="#371A45"/>
<path d="M1431.52 2107.16C1464.93 2106.24 1491.07 2070.89 1489.89 2028.21C1488.71 1985.53 1460.67 1951.67 1427.25 1952.6C1393.83 1953.52 1367.7 1988.87 1368.87 2031.55C1370.05 2074.23 1398.1 2108.08 1431.52 2107.16Z" fill="#22A7F0"/>
<g opacity="0.7">
<path d="M1489.04 2044.21C1482.32 2009.27 1457.29 1983.62 1428.15 1984.44C1398.9 1985.26 1375.29 2012.34 1370.59 2047.69C1369.58 2042.54 1369.01 2037.16 1368.85 2031.64C1367.73 1988.95 1393.86 1953.61 1427.28 1952.69C1460.69 1951.78 1488.72 1985.59 1489.91 2028.28C1490.07 2033.75 1489.75 2039.08 1489.04 2044.21Z" fill="white"/>
</g>
<path d="M1431.54 2107.22C1398.13 2108.2 1370.04 2074.33 1368.85 2031.64C1368.61 2021.83 1369.76 2012.44 1372.13 2003.7C1381.64 2032.48 1404.27 2052.43 1430.02 2051.69C1455.76 2050.95 1477.19 2029.87 1485.1 2000.68C1487.96 2009.19 1489.66 2018.53 1489.91 2028.28C1491.1 2070.97 1464.96 2106.31 1431.54 2107.22Z" fill="#137CE5"/>
<path d="M1430.21 2123.15C1388.86 2123.15 1354.4 2082.72 1353 2032.07C1351.59 1980.7 1384.7 1937.97 1426.82 1936.8C1469.01 1935.63 1504.35 1976.48 1505.78 2027.85C1507.2 2079.22 1474.08 2121.96 1431.96 2123.13C1431.38 2123.14 1430.8 2123.15 1430.21 2123.15ZM1428.6 1968.54C1428.3 1968.54 1428 1968.55 1427.7 1968.55C1403.09 1969.23 1383.82 1997.33 1384.76 2031.19C1385.69 2065.05 1406.55 2092.16 1431.09 2091.37C1455.7 2090.69 1474.96 2062.59 1474.02 2028.73C1473.1 1995.29 1452.81 1968.54 1428.6 1968.54Z" fill="#371A45"/>
<path d="M1226.09 2293.88C1226.05 2293.88 1226.01 2293.88 1225.96 2293.88C1213.84 2293.81 1204.06 2283.93 1204.13 2271.8L1204.88 2133.14C1204.97 2116.58 1197 2100.93 1183.55 2091.28L1163.2 2076.67C1138.22 2058.74 1123.39 2029.66 1123.56 1998.9L1124.55 1817.89C1124.61 1805.75 1134.69 1796.05 1146.63 1796.05C1158.75 1796.11 1168.53 1806 1168.46 1818.13L1167.48 1999.14C1167.39 2015.69 1175.37 2031.34 1188.81 2041L1209.16 2055.6C1234.15 2073.54 1248.97 2102.61 1248.8 2133.38L1248.04 2272.04C1247.97 2284.13 1238.16 2293.88 1226.09 2293.88Z" fill="#371A45"/>
<path d="M1061.77 1622.23C1057.25 1622.23 1052.74 1622.2 1048.25 1622.12C778.041 1617.06 530.546 1468.27 402.338 1233.82C307.9 1061.21 286.908 862.782 343.227 675.089C400 485.897 528.31 330.299 704.526 236.959C773.276 200.599 846.401 175.24 921.87 161.588C930.107 160.016 938.667 158.614 948.013 157.308C971.265 153.895 994.873 151.556 1018.18 150.357C1071.75 147.623 1125.9 150.66 1179.11 159.397C1231.83 167.991 1283.77 182.219 1333.48 201.685C1349.47 207.93 1365.22 214.707 1380.31 221.822C1403.81 232.928 1426.56 245.106 1447.9 258.013C1560.66 325.784 1653.57 422.52 1716.59 537.759C1825.6 736.975 1836.22 970.454 1745.75 1178.33C1695.59 1293.57 1615.85 1394.6 1515.15 1470.5C1493.82 1486.56 1471.54 1501.56 1448.93 1515.09C1438.55 1521.33 1427.27 1527.72 1414.41 1534.62C1379.37 1553.17 1342.75 1569.01 1305.56 1581.71C1274.4 1592.42 1241.93 1601.19 1209.05 1607.76C1170.57 1615.46 1130.91 1620.16 1091.18 1621.71C1081.41 1622.06 1071.56 1622.23 1061.77 1622.23ZM1056.38 153.333C1043.7 153.333 1031.03 153.655 1018.38 154.302C995.2 155.493 971.713 157.82 948.573 161.216C939.276 162.517 930.785 163.909 922.592 165.471C847.504 179.055 774.765 204.28 706.371 240.449C531.103 333.291 403.475 488.052 347.011 676.223C290.995 862.895 311.879 1060.25 405.805 1231.93C533.334 1465.13 779.531 1613.13 1048.32 1618.17C1062.45 1618.4 1076.83 1618.27 1091.03 1617.76C1130.54 1616.22 1170 1611.55 1208.28 1603.88C1240.98 1597.35 1273.28 1588.63 1304.27 1577.97C1341.28 1565.34 1377.71 1549.58 1412.56 1531.13C1425.34 1524.27 1436.57 1517.92 1446.89 1511.7C1469.39 1498.24 1491.56 1483.32 1512.77 1467.34C1612.92 1391.85 1692.23 1291.37 1742.12 1176.75C1832.11 970.004 1821.54 737.792 1713.12 539.652C1650.44 425.028 1558.03 328.807 1445.86 261.393C1424.63 248.554 1402.01 236.442 1378.62 225.394C1363.62 218.316 1347.95 211.576 1332.05 205.362C1282.59 185.997 1230.92 171.844 1178.47 163.294C1138.09 156.668 1097.17 153.333 1056.38 153.333Z" fill="#371A45"/>
<path d="M404.077 1232.86C536.734 1475.51 787.601 1615.28 1048.3 1620.13C1062.54 1620.38 1076.81 1620.25 1091.09 1619.73C1130.31 1618.21 1169.62 1613.62 1208.65 1605.83C1240.97 1599.35 1273.18 1590.76 1304.9 1579.85C1341.78 1567.28 1378.04 1551.66 1413.5 1532.89C1425.19 1526.57 1436.71 1520.14 1447.92 1513.42C1470.95 1499.63 1492.91 1484.73 1513.96 1468.91C1617.04 1391.21 1694.9 1290.24 1743.94 1177.52C1770.9 1115.62 1789.17 1050.19 1798.12 983.271C1748.83 1089.75 1673.44 1185.04 1575.1 1259.18C1554.09 1275.06 1532.1 1289.9 1509.07 1303.69C1497.9 1310.42 1486.38 1316.85 1474.64 1323.16C1439.18 1341.93 1402.93 1357.55 1366.09 1370.13C1334.33 1381.03 1302.16 1389.63 1269.84 1396.11C1230.81 1403.9 1191.46 1408.48 1152.28 1410.01C1137.95 1410.52 1123.69 1410.65 1109.44 1410.4C848.747 1405.55 597.926 1265.79 465.223 1023.12C387.771 881.584 362.233 726.286 382.049 578.454C288.413 780.414 288.654 1021.93 404.077 1232.86Z" fill="#E8E8E8"/>
<path d="M1061.76 1635.47C1057.17 1635.47 1052.59 1635.43 1048.03 1635.36C773.056 1630.21 521.206 1478.78 390.722 1240.17C294.575 1064.43 273.202 862.396 330.551 671.285C388.349 478.673 518.959 320.272 698.329 225.262C768.29 188.26 842.709 162.457 919.511 148.56C927.846 146.971 936.616 145.535 946.176 144.197C969.75 140.735 993.779 138.355 1017.5 137.136C1072.02 134.353 1127.11 137.446 1181.25 146.333C1234.88 155.076 1287.72 169.551 1338.31 189.358C1354.57 195.711 1370.6 202.605 1385.96 209.851C1409.88 221.152 1433.02 233.542 1454.75 246.684C1569.49 315.646 1664.06 414.108 1728.2 531.406C1839.18 734.236 1850 971.958 1757.89 1183.61C1706.81 1300.94 1625.63 1403.8 1523.11 1481.07C1501.41 1497.41 1478.73 1512.68 1455.72 1526.45C1445.19 1532.79 1433.72 1539.28 1420.67 1546.28C1384.95 1565.19 1347.68 1581.32 1309.83 1594.23C1278.15 1605.13 1245.1 1614.05 1211.64 1620.74C1172.48 1628.58 1132.12 1633.36 1091.69 1634.94C1081.73 1635.29 1071.72 1635.47 1061.76 1635.47ZM1056.39 166.573C1043.92 166.573 1031.47 166.888 1019.06 167.523C996.294 168.692 973.228 170.978 950.498 174.315C941.333 175.597 933.047 176.954 925.073 178.475C851.201 191.839 779.751 216.62 712.563 252.152C540.454 343.319 415.131 495.277 359.692 680.03C304.702 863.282 325.205 1057.03 417.417 1225.57C542.676 1454.63 784.517 1599.99 1048.56 1604.94C1062.45 1605.18 1076.58 1605.03 1090.56 1604.53C1129.33 1603.02 1168.08 1598.43 1205.67 1590.9C1237.81 1584.49 1269.53 1575.92 1299.97 1565.45C1336.35 1553.04 1372.13 1537.56 1406.36 1519.43C1418.89 1512.71 1429.93 1506.46 1440.06 1500.36C1462.19 1487.12 1483.96 1472.46 1504.81 1456.77C1603.13 1382.65 1681.01 1283.99 1729.99 1171.47C1818.33 968.504 1807.95 740.53 1701.51 546.009C1639.95 433.441 1549.19 338.946 1439.04 272.742C1418.16 260.115 1395.94 248.221 1372.96 237.364C1358.24 230.418 1342.85 223.8 1327.23 217.694C1278.63 198.666 1227.87 184.762 1176.34 176.361C1136.66 169.847 1096.45 166.573 1056.39 166.573Z" fill="#371A45"/>
<path d="M1061.75 1642.22C1057.12 1642.22 1052.51 1642.18 1047.91 1642.1C770.517 1636.9 516.444 1484.13 384.804 1243.41C287.783 1066.07 266.22 862.2 324.091 669.346C382.406 474.993 514.193 315.164 695.17 219.3C765.751 181.973 840.824 155.941 918.31 141.925C926.694 140.326 935.566 138.871 945.244 137.518C968.979 134.032 993.223 131.629 1017.15 130.401C1072.13 127.593 1127.72 130.711 1182.34 139.678C1236.43 148.494 1289.74 163.098 1340.77 183.076C1357.17 189.482 1373.34 196.44 1388.83 203.75C1412.96 215.151 1436.31 227.651 1458.24 240.913C1573.99 310.481 1669.4 409.824 1734.12 528.171C1846.11 732.841 1857.03 972.724 1764.07 1186.3V1186.31C1712.53 1304.69 1630.62 1408.48 1527.18 1486.45C1505.28 1502.94 1482.4 1518.35 1459.18 1532.24C1448.58 1538.63 1437.01 1545.18 1423.86 1552.23C1387.8 1571.32 1350.2 1587.58 1312.01 1600.62C1280.06 1611.61 1246.72 1620.61 1212.96 1627.35C1173.46 1635.27 1132.74 1640.09 1091.95 1641.68C1081.9 1642.04 1071.8 1642.22 1061.75 1642.22ZM1056.38 173.316C1044.04 173.316 1031.7 173.631 1019.4 174.258C996.855 175.418 973.998 177.681 951.474 180.989C942.377 182.261 934.198 183.599 926.332 185.1C853.085 198.352 782.289 222.905 715.712 258.115C545.219 348.428 421.068 498.957 366.151 681.968C311.683 863.477 331.996 1055.38 423.334 1222.33C547.436 1449.27 787.055 1593.29 1048.69 1598.19C1062.44 1598.42 1076.46 1598.28 1090.32 1597.79C1128.71 1596.29 1167.1 1591.75 1204.35 1584.29C1236.19 1577.93 1267.62 1569.44 1297.77 1559.07C1333.83 1546.77 1369.29 1531.43 1403.21 1513.47C1415.6 1506.82 1426.55 1500.63 1436.58 1494.59C1458.53 1481.46 1480.1 1466.93 1500.75 1451.38C1598.15 1377.96 1675.28 1280.24 1723.8 1168.78V1168.78C1811.3 967.737 1801.02 741.926 1695.59 549.245C1634.61 437.724 1544.7 344.111 1435.57 278.522C1414.87 266.005 1392.86 254.22 1370.08 243.461C1355.5 236.581 1340.26 230.023 1324.77 223.974C1276.61 205.119 1226.31 191.34 1175.25 183.017C1135.93 176.563 1096.09 173.316 1056.38 173.316Z" fill="#371A45"/>
<path d="M898.541 190.212C384.454 269.5 222.793 880.539 560.263 1287.22L573.544 1296.59C447.485 826.257 688.014 323.497 1206.36 233.514C1111.68 191.127 1006.48 173.58 898.541 190.212Z" fill="white"/>
<path d="M1166.83 1611.46C1006.94 1611.46 852.601 1564.37 728.773 1475.52C578.099 1367.4 482.723 1208.31 452.953 1015.45C425.614 838.268 476.688 656.759 596.771 504.367C730.111 335.151 933.25 223.852 1140.17 206.642C1255.13 197.084 1360.5 208.7 1453.36 241.178L1455.26 241.844L1456.99 242.882C1572.44 312.269 1667.56 411.307 1732.07 529.291C1843.72 733.324 1854.6 972.46 1761.93 1185.37C1710.56 1303.4 1628.89 1406.86 1525.77 1484.59C1503.94 1501.03 1481.14 1516.39 1457.99 1530.24C1447.41 1536.61 1435.87 1543.14 1422.76 1550.18C1386.82 1569.21 1349.33 1585.42 1311.25 1598.41L1308.29 1599.17C1261.09 1607.41 1213.71 1611.46 1166.83 1611.46ZM1216.65 242.652C1192.75 242.652 1168.34 243.685 1143.42 245.757C947.157 262.08 754.325 367.837 627.602 528.657C514.335 672.404 466.083 843.159 491.743 1009.46C519.868 1191.66 609.746 1341.79 751.66 1443.62C902.895 1552.15 1102.68 1594.8 1300.03 1560.77C1335.65 1548.52 1370.73 1533.31 1404.3 1515.53C1416.74 1508.86 1427.72 1502.65 1437.78 1496.58C1459.8 1483.41 1481.44 1468.84 1502.15 1453.24C1599.87 1379.58 1677.26 1281.54 1725.94 1169.71C1813.74 968 1803.42 741.442 1697.64 548.127C1636.78 436.828 1547.2 343.315 1438.5 277.566C1371.32 254.334 1296.95 242.652 1216.65 242.652Z" fill="#371A45"/>
<path d="M1166.74 1536.43C1083.09 1536.43 999.932 1521.83 921.06 1491.91C708.194 1411.18 565.821 1233.34 530.45 1004.02C506.036 845.777 551.637 683.705 658.848 547.655C777.837 396.652 959.131 297.33 1143.81 281.972C1462.03 255.517 1685.58 408.176 1808.2 735.737L1809.04 738.654C1810.56 746.003 1845.71 920.07 1807.04 1045.39C1769.32 1167.56 1712.99 1278.12 1710.61 1282.77L1709.17 1285.15L1661.4 1352.73L1659.4 1354.39C1515.7 1473.65 1340.17 1536.43 1166.74 1536.43ZM1211.5 318.348C1190.5 318.348 1169.02 319.261 1147.06 321.087C973.038 335.56 802.051 429.339 689.673 571.949C589.276 699.354 546.509 850.672 569.238 998.033C602.397 1212.99 735.703 1379.63 934.975 1455.21C1163.46 1541.88 1430.44 1492.26 1632.35 1325.83L1676.28 1263.67C1682.53 1251.27 1734.92 1145.95 1769.53 1033.81C1803.46 923.863 1774.13 764.762 1770.88 748.004C1663.58 462.608 1475.59 318.348 1211.5 318.348Z" fill="#371A45"/>
<path d="M217.912 997.67C222.371 1142.46 312.811 1261.5 419.951 1263.52C527.091 1265.55 610.324 1149.8 605.865 1005.01C605.855 1004.11 605.799 1003.14 605.739 1002.23C600.249 858.698 510.213 741.162 403.826 739.162C321.06 737.593 252.563 806.315 227.724 904.394C220.427 933.273 216.901 964.743 217.912 997.67Z" fill="white"/>
<path d="M217.912 997.67C222.371 1142.46 312.811 1261.49 419.951 1263.52C527.091 1265.54 610.324 1149.8 605.865 1005.01C605.855 1004.1 605.799 1003.14 605.739 1002.23C594.418 1016.86 576.536 1031.15 551.547 1025.75C507.779 1016.27 426.844 921.691 426.844 921.691C426.844 921.691 340.543 913.628 227.725 904.394C220.427 933.273 216.901 964.743 217.912 997.67Z" fill="#E8E8E8"/>
<path d="M422.773 1285.49C421.699 1285.49 420.62 1285.48 419.536 1285.46C301.05 1283.22 200.747 1154.42 195.942 998.348C193.173 908.355 221.811 826.151 274.516 772.811C311.362 735.531 356 716.261 404.218 717.208C522.704 719.442 623.007 848.241 627.812 1004.32C630.58 1094.31 601.943 1176.52 549.233 1229.86C513.222 1266.3 469.56 1285.49 422.773 1285.49ZM239.838 996.995C243.935 1130.04 324.916 1239.75 420.365 1241.55C455.946 1242.21 489.808 1227.51 517.997 1198.99C561.64 1154.82 586.283 1082.55 583.915 1005.67C579.818 872.623 498.837 762.916 403.388 761.114C367.826 760.428 333.945 775.157 305.756 803.68C262.113 847.845 237.47 920.113 239.838 996.995Z" fill="#371A45"/>
<path d="M368.135 1232.87C448.463 1225.75 505.113 1124.45 494.667 1006.6C484.221 888.761 410.634 799.003 330.306 806.124C249.978 813.245 193.328 914.548 203.774 1032.39C214.22 1150.23 287.807 1239.99 368.135 1232.87Z" fill="white"/>
<path d="M356.655 1233.22C275.722 1231.07 206.835 1133.64 202.73 1015.57C202.257 1002.76 202.641 990.221 203.682 978.077C227.74 1058.73 283.456 1116.94 346.369 1118.56C417.414 1120.38 474.346 1049.34 485.193 953.057C491.167 975.162 494.832 998.841 495.704 1023.39C499.809 1141.46 437.542 1235.37 356.655 1233.22Z" fill="#E8E8E8"/>
<path d="M359.408 1255.22C358.285 1255.22 357.167 1255.21 356.044 1255.18C262.333 1252.68 185.346 1147.77 180.775 1016.36V1016.35C178.114 939.865 202.045 868.478 244.784 825.395C272.709 797.238 306.386 782.888 342.357 783.825C436.073 786.327 513.06 891.232 517.625 1022.65C520.286 1099.13 496.36 1170.52 453.621 1213.6C426.567 1240.88 394.057 1255.22 359.408 1255.22ZM224.662 1014.83C228.305 1119.49 289.008 1209.46 357.216 1211.28C380.614 1211.92 403.261 1202.01 422.445 1182.67C456.81 1148.03 475.985 1088.78 473.739 1024.17C470.101 919.509 409.398 829.546 341.185 827.725C317.655 827.061 295.14 836.983 275.961 856.321C241.596 890.965 222.421 950.219 224.662 1014.83Z" fill="#371A45"/>
<g opacity="0.2">
<path d="M1809.15 3267.63C1798.13 3345.2 1674.65 3337.5 1544.06 3347.38C1413.41 3357.21 1279.26 3363.57 1265.8 3243.49C1252.35 3123.47 1229.85 2858.63 1110.18 2727.44C1110.18 2727.44 1005.95 3005.64 976.702 3196.08C976.702 3196.08 1029.29 3256.31 1018.41 3309.23C1007.53 3362.09 855.628 3393.05 675.705 3377.9C495.837 3362.82 453.496 3355.56 512.286 2932.36C512.286 2932.36 560.903 2431.53 568.39 2346.86C575.932 2262.2 555.357 2149.16 555.357 2149.16C555.357 2149.16 501.594 2304.17 476.393 2395.77C476.393 2395.77 563.841 2537.38 426.105 2557.82C426.105 2557.82 443.285 2639.11 259.657 2659.24C110.524 2675.62 67.0671 2520.41 86.8151 2361.54C110.197 2422.87 149.281 2493.9 207.731 2506.63C314.049 2529.82 301.323 2386.58 378.927 2380.2C448.457 2374.48 477.582 2076.17 608.239 1792.84C625.126 1756.32 678.996 1763.31 686.467 1802.82C693.459 1839.53 698.878 1882.76 698.634 1927.61C697.97 2049.81 559.311 3168.61 616.215 3243.69C673.119 3318.77 1022.13 3301.89 926.093 3175.22L838.925 3163.82C838.925 3163.82 948.35 2756.86 893.167 2678.33C893.167 2678.33 912.097 2679.97 943.325 2681.52C882.54 2660.3 825.51 2628.22 776.248 2586.78C772.469 2583.6 775.943 2577.54 780.631 2579.09C894.904 2616.94 975.878 2628.82 1169.17 2610.83C1317.41 2597.05 1410.47 2562.25 1487.94 2528.15C1500.56 2522.59 1511.61 2538.5 1502.02 2548.43C1467.32 2584.37 1427.45 2615.33 1384.15 2640.33C1402.96 2633.51 1420.35 2625.65 1435.82 2616.67C1435.82 2616.67 1424.51 2687.65 1371.51 2743.02C1349.21 2766.23 1338.06 2797.9 1342.55 2829.82C1353.17 2905.8 1371.35 3044.73 1378.81 3156.76C1382.32 3209.04 1424.86 3250.01 1477.22 3251.39C1589.69 3254.25 1763.62 3249.93 1779.07 3196.43C1779.07 3196.43 1780.22 3196.27 1782.31 3196.06C1799.95 3212.19 1813.71 3235.38 1809.15 3267.63Z" fill="#371A45"/>
</g>
</svg>
