<svg width="2853" height="2771" viewBox="0 0 2853 2771" fill="none" xmlns="http://www.w3.org/2000/svg">
<path d="M2766.12 1188.97C2766.12 1188.97 2695.63 1138.79 2606.02 1151.87C2509.88 1165.89 2436.32 1206.07 2313.12 1196.93C2161.23 1185.65 2057.2 1019.66 2057.2 1019.66C2057.2 1019.66 2167.9 721.877 2167.9 603.015C2186.68 605.046 2204.61 610.551 2221.91 618.322C2298.99 652.918 2364.31 732.537 2443.89 751.592C2455.41 754.364 2467.2 755.849 2479.39 755.77C2492.08 755.692 2504.26 754.13 2516.13 751.513C2602.47 732.614 2673.22 657.798 2807.7 679.548C2817.15 681.071 2826.95 683.062 2837.1 685.6C2837.1 685.6 2764.36 1185.8 2766.12 1188.97Z" fill="white"/>
<path d="M2348.87 1213.88C2337.04 1213.88 2324.78 1213.45 2311.98 1212.5C2154.01 1200.77 2048.37 1034.99 2043.95 1027.94C2041.37 1023.83 2040.86 1018.75 2042.55 1014.2C2043.64 1011.25 2152.27 717.73 2152.27 603.006C2152.27 598.572 2154.15 594.346 2157.45 591.385C2160.75 588.421 2165.14 587.017 2169.57 587.476C2228.66 593.858 2278.35 631.101 2326.4 667.12C2376.51 704.681 2423.87 740.174 2478.35 740.174C2478.65 740.174 2478.95 740.171 2479.26 740.171C2519.32 739.88 2555.48 723.137 2593.76 705.41C2657.43 675.932 2729.6 642.524 2840.92 670.439C2848.69 672.387 2853.73 679.904 2852.58 687.836C2824.77 879.071 2783.24 1168.22 2781.72 1188.5C2781.85 1192.99 2780.04 1197.45 2776.51 1200.6C2771.07 1205.46 2763 1205.91 2757.05 1201.68C2756.42 1201.23 2690.28 1155.34 2608.29 1167.33C2576.47 1171.97 2547.57 1179.46 2516.96 1187.38C2466.52 1200.44 2414.61 1213.88 2348.87 1213.88ZM2074.59 1017.57C2095.02 1047.12 2188.47 1172.01 2314.3 1181.35C2393.04 1187.18 2452.07 1171.92 2509.13 1157.14C2539.2 1149.36 2570.28 1141.31 2603.78 1136.42C2669.03 1126.88 2724.24 1148.34 2753.29 1163.32C2757.13 1131.99 2766.27 1068.12 2785.5 933.882C2799.85 833.723 2814.33 733.816 2819.6 697.583C2726.79 678.247 2665.87 706.439 2606.88 733.757C2565.45 752.943 2526.31 771.067 2479.48 771.406C2479.11 771.411 2478.72 771.411 2478.35 771.411C2413.45 771.416 2359.68 731.105 2307.67 692.113C2266.11 660.963 2226.6 631.35 2182.8 621.333C2174.26 739.926 2091.28 971.887 2074.59 1017.57ZM2779.8 1181.43C2779.8 1181.44 2779.81 1181.45 2779.81 1181.46C2779.81 1181.45 2779.8 1181.44 2779.8 1181.43Z" fill="#371A45"/>
<path d="M1330.08 1461.34L1321.97 1532.29L1317.82 1568.43L1246.45 2191.67C1246.45 2191.67 1289.22 2194.13 1346.84 2192.81C1358.11 2192.55 1369.95 2192.15 1382.15 2191.56C1473.04 2187.21 1583.79 2172.26 1627.49 2127.47C1692.81 2060.48 1717.49 1721.06 1667.44 1583.97C1644.51 1521.12 1515.95 1488.77 1424.33 1473.44C1414.09 1471.71 1404.3 1470.21 1395.18 1468.92C1356.75 1463.4 1330.08 1461.34 1330.08 1461.34Z" fill="white"/>
<g opacity="0.35">
<path d="M1321.97 1532.29L1317.82 1568.43L1261.15 2063.29L1246.45 2191.67C1246.45 2191.67 1247.34 2191.72 1249.04 2191.8C1249.52 2191.82 1250.1 2191.85 1250.71 2191.88C1251.19 2191.89 1251.73 2191.92 1252.28 2191.94C1252.69 2191.98 1253.11 2191.98 1253.52 2192.02C1253.68 2192.01 1253.87 2192.04 1254.04 2192.04C1254.81 2192.06 1255.67 2192.11 1256.57 2192.13C1256.76 2192.16 1256.95 2192.16 1257.18 2192.16C1257.92 2192.18 1258.69 2192.21 1259.52 2192.25C1260.64 2192.3 1261.8 2192.33 1263.02 2192.37C1263.88 2192.38 1264.81 2192.44 1265.74 2192.46C1266.71 2192.49 1267.67 2192.52 1268.67 2192.55C1269.92 2192.59 1271.24 2192.61 1272.58 2192.67C1275.32 2192.73 1278.21 2192.81 1281.26 2192.86C1283.96 2192.95 1286.79 2192.99 1289.76 2193.02C1293.17 2193.06 1296.74 2193.13 1300.45 2193.15C1314.14 2193.25 1329.83 2193.2 1346.84 2192.81C1350.14 2192.73 1353.51 2192.64 1356.91 2192.55C1359.28 2192.48 1361.71 2192.39 1364.15 2192.31C1370.02 2192.1 1376.06 2191.86 1382.15 2191.56C1473.07 2187.22 1583.79 2172.26 1627.46 2127.46C1681.27 2072.32 1707.53 1832.44 1687.15 1672.88C1686.02 1810.83 1661.15 1957.26 1620.59 1998.83C1600.54 2019.38 1564.02 2033.35 1521.4 2042.86C1503.24 2046.91 1487.92 2029.3 1493.96 2011.7C1494.01 2011.56 1494.06 2011.42 1494.11 2011.28C1505.05 1978.99 1512.7 1941.77 1514.98 1897.65C1519.88 1803.1 1513.52 1666.39 1416.51 1551.09C1414.24 1548.37 1372.51 1540.92 1321.97 1532.29Z" fill="#371A45"/>
</g>
<path d="M1313.4 2208.91C1275.5 2208.91 1249.11 2207.47 1245.54 2207.27L1229.03 2206.32L1316.28 1444.63L1331.28 1445.78C1363.12 1448.22 1643.48 1472.74 1682.13 1578.6C1706.02 1644.02 1715.29 1760.72 1706.32 1883.15C1702.87 1930.29 1687.78 2088.02 1638.67 2138.38C1578.83 2199.74 1409.3 2208.91 1313.4 2208.91ZM1263.85 2176.85C1356.19 2180.35 1558.94 2175.39 1616.31 2116.57C1677.04 2054.3 1700.22 1719.22 1652.78 1589.31C1627.36 1519.69 1433.68 1486.96 1343.87 1478.24L1263.85 2176.85Z" fill="#371A45"/>
<path d="M1636.03 1875.57L1512.69 1876.41C1501.68 1876.49 1492.09 1883.96 1489.4 1894.64C1479.54 1933.74 1461.45 2025.23 1497.88 2058.33C1528.11 2085.81 1580.21 2086.38 1612.38 2062.72C1648.36 2036.25 1657.85 1945.95 1660.36 1901.1C1661.14 1887.16 1650 1875.47 1636.03 1875.57Z" fill="white"/>
<g opacity="0.35">
<path d="M1489.41 1894.65C1479.53 1933.74 1461.45 2025.23 1497.89 2058.33C1528.13 2085.81 1580.21 2086.38 1612.39 2062.71C1634.51 2046.42 1646.62 2005.99 1653.24 1966.86C1646.37 1986.17 1636.6 2001.56 1625.09 2011.31C1559.14 2067.19 1517.8 1993.19 1517.8 1993.19C1517.8 1993.19 1508.61 2009.85 1502.16 2010.38C1475.18 2012.64 1486.4 1929.42 1493.21 1886.49C1491.48 1888.87 1490.16 1891.62 1489.41 1894.65Z" fill="#371A45"/>
</g>
<path d="M1557.64 2092.12C1532.53 2092.12 1507.59 2083.81 1489.59 2067.45C1449.61 2031.12 1464.83 1941.69 1477.46 1891.63C1481.52 1875.52 1495.97 1864.2 1512.6 1864.09L1635.95 1863.25C1636.03 1863.25 1636.11 1863.25 1636.19 1863.25C1646.15 1863.25 1655.79 1867.37 1662.65 1874.58C1669.57 1881.85 1673.22 1891.77 1672.66 1901.79C1669.15 1964.53 1657.11 2045.1 1619.68 2072.64C1601.94 2085.69 1579.72 2092.12 1557.64 2092.12ZM1636.12 1887.89L1512.77 1888.73C1507.36 1888.77 1502.66 1892.44 1501.35 1897.65C1482.43 1972.63 1484.24 2029.29 1506.16 2049.22C1531.33 2072.09 1576.62 2073.72 1605.07 2052.79C1627.58 2036.23 1643.65 1979.27 1648.06 1900.41C1648.24 1897.11 1647.09 1893.97 1644.81 1891.57C1642.52 1889.18 1639.55 1887.94 1636.12 1887.89Z" fill="#371A45"/>
<path d="M1551.34 2090.37C1548.73 2088.63 1547.44 2087.47 1545.73 2086C1544.16 2084.59 1542.65 2083.17 1541.26 2081.68C1538.42 2078.75 1535.85 2075.67 1533.51 2072.46C1528.87 2066.04 1524.82 2059.3 1521.82 2052.19C1515.51 2038.08 1512.18 2023.14 1511.06 2008.37C1509.98 1993.55 1510.97 1978.94 1512.62 1964.81C1513.46 1957.69 1514.56 1950.58 1516.02 1943.51C1517.6 1936.35 1519.09 1929.6 1522.29 1922.25C1523.1 1920.39 1525.27 1919.54 1527.13 1920.34C1528.86 1921.1 1529.72 1923.04 1529.17 1924.8L1529.02 1925.27C1527.18 1931.08 1526.16 1938.28 1525.44 1944.97C1524.74 1951.81 1524.39 1958.71 1524.29 1965.62C1524.09 1979.54 1524.62 1993.19 1526.94 2006.33C1529.29 2019.46 1533.6 2032.04 1539.98 2043.07C1543.03 2048.67 1546.89 2053.7 1550.96 2058.28C1553.02 2060.57 1555.21 2062.7 1557.48 2064.59C1558.6 2065.58 1559.75 2066.44 1560.9 2067.27C1561.92 2068.01 1563.45 2068.98 1563.81 2069.11C1570.25 2071.55 1573.5 2078.73 1571.07 2085.17C1568.64 2091.61 1561.45 2094.86 1555.01 2092.43C1554.13 2092.1 1553.31 2091.68 1552.56 2091.18L1551.34 2090.37Z" fill="#371A45"/>
<path d="M1482.25 1553.8C1497.58 1552.65 1512.71 1551.92 1527.99 1551.38C1543.23 1550.87 1558.51 1550.6 1573.84 1550.77C1589.18 1550.95 1604.55 1551.37 1620.07 1552.64C1635.59 1553.92 1651.17 1555.63 1667.23 1559.36C1675.64 1561.31 1680.88 1569.71 1678.93 1578.12C1676.97 1586.54 1668.57 1591.77 1660.16 1589.82C1659.74 1589.72 1659.32 1589.6 1658.91 1589.47L1658.81 1589.44C1645.67 1585.19 1631.28 1582.3 1616.82 1579.9C1602.31 1577.48 1587.5 1575.82 1572.65 1574.41C1557.79 1573 1542.83 1572.01 1527.84 1571.27C1512.88 1570.54 1497.77 1570.02 1482.88 1569.89L1482.78 1569.89C1478.34 1569.85 1474.76 1566.22 1474.8 1561.77C1474.83 1557.56 1478.13 1554.13 1482.25 1553.8Z" fill="#371A45"/>
<path d="M2055.21 1615.21C2055.21 1615.21 1935.8 2033.3 1453.05 1828.1C1432.63 1819.43 1411.54 1809.67 1389.79 1798.62L1385.07 1640.36L1383.78 1596.59L1379.29 1446.72C1379.29 1446.72 1398.46 1461.09 1430.95 1479.76C1448.09 1489.71 1468.94 1500.76 1492.61 1511.58C1569.45 1546.68 1676.13 1578.94 1783.01 1557.85C1824.32 1549.73 1865.63 1533.6 1905.3 1506.62L2055.21 1615.21Z" fill="white"/>
<g opacity="0.25">
<path d="M2055.21 1615.21C2055.21 1615.21 1935.8 2033.3 1453.05 1828.1C1432.63 1819.43 1411.55 1809.67 1389.8 1798.62L1385.07 1640.36C1462.85 1698.23 1598.23 1866.37 1793.32 1768.51C1892.89 1718.61 1795.42 1679.68 1783.01 1557.85C1824.32 1549.73 1865.63 1533.6 1905.3 1506.62L2055.21 1615.21Z" fill="#371A45"/>
</g>
<path d="M1697.91 1900.51C1604.01 1900.52 1498.59 1871.17 1382.72 1812.59C1375.02 1808.7 1371.93 1799.31 1375.82 1791.61C1379.72 1783.91 1389.12 1780.83 1396.81 1784.71C1572.61 1873.58 1721.7 1892.5 1839.93 1840.95C1969.28 1784.55 2023.4 1657.97 2036.75 1621.13L1904.87 1525.58C1806.59 1588.07 1684.03 1596.94 1549.6 1551.13C1446.16 1515.87 1372.98 1461.52 1369.92 1459.22C1363.02 1454.05 1361.62 1444.27 1366.79 1437.36C1371.96 1430.46 1381.75 1429.06 1388.65 1434.22C1391.48 1436.34 1674.86 1644.62 1896.5 1493.68C1901.94 1489.98 1909.12 1490.08 1914.46 1493.95L2064.38 1602.57C2069.7 1606.43 2072.03 1613.19 2070.23 1619.51C2068.17 1626.73 2017.79 1797.26 1852.76 1869.43C1805.37 1890.16 1753.66 1900.51 1697.91 1900.51Z" fill="#371A45"/>
<path d="M1734.58 1898.81C1733.47 1898.81 1732.35 1898.7 1731.23 1898.45C1697 1890.97 1671.41 1872.08 1655.15 1842.3C1602.58 1745.99 1668.65 1565.85 1671.49 1558.23C1674.5 1550.15 1683.49 1546.04 1691.57 1549.05C1699.65 1552.05 1703.77 1561.05 1700.76 1569.13C1700.12 1570.87 1636.81 1743.55 1682.58 1827.36C1694.47 1849.13 1712.57 1862.4 1737.9 1867.93C1746.32 1869.77 1751.66 1878.09 1749.82 1886.52C1748.23 1893.83 1741.76 1898.81 1734.58 1898.81Z" fill="#371A45"/>
<path d="M2199.02 594.463L1964.19 1525.32L1896.32 1794.36L1719.83 2493.91L1674.37 2674.15L1617.72 2659.86L1676.48 2426.86L1839.55 1780.58L1904.91 1521.42L2142.36 580.171C2145.72 566.934 2157.59 558.109 2170.67 558.109C2173.02 558.109 2175.44 558.422 2177.82 559.007C2193.48 562.951 2202.97 578.843 2199.02 594.463Z" fill="#DDDDDD"/>
<g opacity="0.26">
<path d="M1719.83 2493.9L1674.37 2674.15L1617.72 2659.86L1676.48 2426.86C1684.8 2451.5 1698.23 2476.26 1719.83 2493.9Z" fill="#371A45"/>
</g>
<g opacity="0.25">
<path d="M1964.19 1525.32L1896.32 1794.36C1873.64 1795.54 1854.89 1789.87 1839.55 1780.58L1904.91 1521.42L1964.19 1525.32Z" fill="#371A45"/>
</g>
<path d="M1685.7 2693.13L1598.76 2671.2L2127.22 576.366C2133.26 552.399 2157.7 537.811 2181.65 543.864C2193.26 546.791 2203.04 554.067 2209.18 564.35C2215.32 574.631 2217.08 586.689 2214.15 598.298L1685.7 2693.13ZM1636.69 2648.55L1663.05 2655.2L2183.86 590.656C2184.75 587.135 2184.22 583.481 2182.35 580.363C2180.49 577.245 2177.53 575.041 2174.01 574.152C2166.75 572.333 2159.34 576.74 2157.5 584.008L1636.69 2648.55Z" fill="#371A45"/>
<path d="M1966.02 1403.49C1966.02 1405.56 1965.91 1407.71 1965.59 1409.98C1959.46 1463.12 1883.4 1567.77 1883.4 1567.77C1883.4 1567.77 1827.09 1587.8 1801.98 1571.83C1791.99 1565.46 1785.27 1524.19 1783.9 1484.48C1782.81 1452.03 1785.31 1420.6 1792.61 1410.13C1813.62 1380.03 1965.99 1371.16 1966.02 1403.49Z" fill="white"/>
<g opacity="0.25">
<path d="M1965.59 1409.98C1959.46 1463.12 1883.4 1567.77 1883.4 1567.77C1883.4 1567.77 1827.09 1587.8 1801.98 1571.83C1791.99 1565.46 1785.27 1524.19 1783.9 1484.48C1794.84 1497.64 1807.57 1506.78 1818.62 1498.42C1842.28 1480.54 1820.92 1426.06 1874.85 1402.4C1891.95 1394.87 1932.37 1401.97 1965.59 1409.98Z" fill="#371A45"/>
</g>
<path d="M1829.6 1593.69C1816.57 1593.69 1803.7 1591.45 1793.6 1585.01C1784.79 1579.4 1779.13 1567.46 1774.66 1545.09C1767.46 1509.06 1762.75 1425.63 1779.8 1401.21C1803.21 1367.66 1913.63 1361.1 1953.44 1373.59C1977.95 1381.29 1981.62 1395.63 1981.63 1403.49C1981.69 1457.58 1904.79 1564.89 1896.02 1576.94L1893.18 1580.85L1888.63 1582.47C1881.59 1584.98 1855.28 1593.69 1829.6 1593.69ZM1811.37 1559.24C1823.84 1565.91 1853.92 1560.81 1873.64 1554.56C1897 1521.76 1948.14 1442.8 1950.32 1405.92C1943.71 1401.75 1918.49 1396.38 1877.67 1399.67C1835.25 1403.08 1809.48 1413.27 1805.42 1419.09C1794.65 1434.77 1799.36 1541.52 1811.37 1559.24Z" fill="#371A45"/>
<path d="M2055.6 1624.51C2025.26 1702.29 1964.46 1719.28 1944.59 1719.28C1915.81 1719.28 1904.6 1707.4 1849.97 1694.44C1795.38 1681.44 1846.85 1472.65 1862.47 1442.39C1878.2 1411.97 1928.73 1389.05 1957.63 1384.09C1961.49 1383.43 1964.97 1383.07 1967.94 1383.07C1993.04 1383.07 2069.58 1453.4 2071.65 1479.29C2076.69 1542.54 2069.19 1589.64 2055.6 1624.51Z" fill="white"/>
<g opacity="0.25">
<path d="M2055.6 1624.51C2025.26 1702.29 1964.46 1719.28 1944.59 1719.28C1915.81 1719.28 1904.6 1707.4 1849.97 1694.44C1795.38 1681.44 1846.85 1472.65 1862.47 1442.39C1878.2 1411.97 1928.73 1389.05 1957.63 1384.09C1944.55 1411.5 1919.48 1473.04 1906.83 1563.67C1891.52 1673.39 1989.73 1662.38 2055.6 1624.51Z" fill="#371A45"/>
</g>
<path d="M1944.59 1734.91C1925.81 1734.91 1913.03 1730.42 1896.86 1724.73C1884.72 1720.46 1869.59 1715.14 1846.37 1709.62C1837.99 1707.63 1826.38 1701.75 1818.72 1685.04C1791.38 1625.48 1835.88 1459.85 1848.61 1435.22C1870 1393.83 1939 1367.43 1967.94 1367.43C2002.01 1367.43 2084.49 1443.92 2087.22 1478.03C2096.54 1594.9 2063.38 1657.46 2033.93 1689.36C2000.72 1725.32 1962.15 1734.91 1944.59 1734.91ZM1967.88 1398.67C1946.45 1398.67 1890.49 1422.23 1876.36 1449.56C1863.93 1473.62 1826.4 1626.91 1847.11 1672.02C1850.03 1678.39 1852.71 1679.02 1853.59 1679.23C1878.41 1685.13 1894.39 1690.75 1907.23 1695.26C1922.65 1700.69 1931.14 1703.67 1944.58 1703.67C1953.93 1703.67 1984.08 1697.3 2010.97 1668.17C2047.15 1629 2062.75 1564.12 2056.08 1480.54C2053.98 1462.46 1986.4 1399.73 1967.88 1398.67ZM2056.08 1480.52V1480.52C2056.08 1480.52 2056.08 1480.52 2056.08 1480.52Z" fill="#371A45"/>
<path d="M278.923 1324.58C278.923 1324.58 220.742 1427.04 130.736 1427.04C85.8314 1427.08 40.7704 1382.6 23.4334 1338.91C17.4984 1323.92 14.8033 1309 16.5223 1296C19.4513 1273.58 43.9343 1250.23 74.0013 1229.5C126.872 1193.07 196.963 1164.91 196.963 1164.91L278.923 1324.58Z" fill="white"/>
<g opacity="0.25">
<path d="M278.923 1324.58C278.923 1324.58 220.742 1427.04 130.736 1427.04C85.8311 1427.08 40.7701 1382.6 23.4331 1338.91C33.8981 1341.02 47.5651 1339.11 60.6851 1323.37C110.627 1263.43 74.0001 1229.5 74.0001 1229.5C126.871 1193.07 196.962 1164.91 196.962 1164.91L278.923 1324.58Z" fill="#371A45"/>
</g>
<path d="M130.72 1442.67C99.8142 1442.67 66.7113 1425.14 39.8953 1394.58C11.9463 1362.73 -2.94877 1324.17 1.02123 1293.95C9.88623 1226.47 160.936 1162.55 191.126 1150.42C199.134 1147.21 208.223 1151.09 211.441 1159.09C214.656 1167.1 210.777 1176.19 202.774 1179.41C139.424 1204.88 37.0392 1259.6 31.9932 1298.02C29.2462 1318.93 41.8592 1349.46 63.3752 1373.98C83.9542 1397.43 109.129 1411.43 130.721 1411.43C130.728 1411.43 130.731 1411.43 130.736 1411.43C210.426 1411.41 264.813 1317.79 265.355 1316.85C269.63 1309.36 279.164 1306.75 286.651 1311.01C294.141 1315.28 296.763 1324.79 292.508 1332.29C289.949 1336.8 228.724 1442.64 130.745 1442.67C130.737 1442.67 130.727 1442.67 130.72 1442.67Z" fill="#371A45"/>
<path d="M192.463 1397.7C191.74 1397.7 191.003 1397.6 190.271 1397.39C186.133 1396.18 183.755 1391.84 184.963 1387.7C187.763 1378.12 186.63 1369.27 181.506 1360.67C161.274 1326.7 89.074 1310.8 88.347 1310.64C84.221 1309.75 81.548 1305.75 82.309 1301.6C83.076 1297.45 87.006 1294.65 91.164 1295.29C161.032 1305.9 196.738 1247.6 198.222 1245.11C200.434 1241.41 205.222 1240.19 208.923 1242.39C212.624 1244.59 213.85 1249.37 211.657 1253.08C211.33 1253.63 185.168 1296.75 134.684 1308.98C157.362 1318.23 182.892 1332.49 194.914 1352.66C202.287 1365.02 203.984 1378.29 199.958 1392.08C198.962 1395.49 195.844 1397.7 192.463 1397.7Z" fill="#371A45"/>
<path d="M1038.17 1664.06C1017.63 1684.68 993.03 1703.38 965.15 1718.53C922.236 1741.92 871.552 1756.72 816.104 1756.72C794.745 1756.72 774.01 1755.78 753.979 1753.99C466.04 1728.65 311.138 1533.52 277.908 1516.23C242.413 1497.72 57.7564 1496.43 71.8134 1410.21C72.9074 1403.57 76.6554 1396.93 82.2394 1390.37C114.336 1352.65 206.84 1316.81 202.194 1295.92C194.736 1262.3 99.2644 1173.62 80.6774 1133.75C42.3714 1051.48 101.177 991.851 134.251 1031.8C190.05 1099.15 254.089 1133.52 355.027 1212.71C388.374 1238.87 467.172 1293.5 506.455 1317.86C559.638 1350.86 610.752 1376.75 663.74 1395.29C745.428 1423.92 831.49 1435.12 936.177 1428.02C939.652 1427.78 943.166 1427.51 946.72 1427.23C1142.97 1411.81 1140.71 1561.33 1038.17 1664.06Z" fill="white"/>
<g opacity="0.25">
<path d="M965.15 1718.53C922.236 1741.92 871.552 1756.72 816.104 1756.72C794.745 1756.72 774.01 1755.78 753.979 1753.99C466.04 1728.65 311.138 1533.52 277.908 1516.23C242.413 1497.72 57.7562 1496.43 71.8132 1410.21C72.9072 1403.57 76.6552 1396.93 82.2392 1390.37C84.5822 1403.81 95.1252 1418.18 125.113 1427.04C193.993 1447.42 293.878 1446.33 323.788 1462.57C363.304 1484.01 510.28 1658.63 694.977 1658.63C816.26 1658.63 858.978 1561.29 858.978 1561.29L965.15 1718.53Z" fill="#371A45"/>
</g>
<path d="M816.103 1772.34C794.643 1772.34 773.273 1771.4 752.582 1769.54C513.879 1748.54 363.573 1612.44 299.391 1554.33C286.947 1543.07 275.194 1532.42 270.695 1530.08C263.234 1526.19 241.718 1522.24 220.912 1518.42C150.326 1505.45 43.6541 1485.86 56.3981 1407.7C61.5131 1376.3 102.636 1351.15 142.406 1326.83C157.697 1317.49 180.219 1303.71 186.11 1296.59C180.148 1280.87 151.152 1247.42 127.582 1220.22C101.068 1189.64 76.0271 1160.74 66.5201 1140.35C39.0591 1081.37 55.7611 1029.63 85.4161 1010.89C106.07 997.833 129.962 1002.13 146.28 1021.84C183.245 1066.46 223.365 1095.69 278.895 1136.14C304.085 1154.49 332.64 1175.29 364.667 1200.42C396.93 1225.73 475.446 1280.25 514.687 1304.59C569.399 1338.54 619.843 1363.38 668.901 1380.55C750.38 1409.1 834.973 1419.24 935.119 1412.43C938.298 1412.22 941.503 1411.97 944.743 1411.72L945.519 1411.66C1060.42 1402.64 1099.71 1449.24 1112.9 1477.83C1138.1 1532.42 1112.5 1611.7 1049.22 1675.1H1049.23C987.561 1736.9 902.59 1772.34 816.103 1772.34ZM110.063 1034.69C107.492 1034.69 104.848 1035.56 102.107 1037.29C86.3501 1047.25 73.6791 1081.72 94.8361 1127.16C102.495 1143.59 127.248 1172.14 151.186 1199.76C189.382 1243.83 212.9 1272.06 217.443 1292.53C222.353 1314.56 197.033 1330.05 158.703 1353.48C131.362 1370.2 90.0381 1395.47 87.2281 1412.72C80.0161 1456.96 152.101 1474.02 226.557 1487.69C252.788 1492.51 273.505 1496.32 285.129 1502.38C293.183 1506.57 303.413 1515.83 320.358 1531.18C382.214 1587.18 527.067 1718.34 755.348 1738.43C775.138 1740.2 795.57 1741.1 816.102 1741.1C894.354 1741.1 971.263 1709 1027.11 1653.03L1027.11 1653.03C1081.2 1598.84 1104.28 1533.69 1084.54 1490.92C1067.64 1454.3 1019.13 1437.22 947.941 1442.81L947.14 1442.87C943.803 1443.12 940.497 1443.38 937.228 1443.6C832.714 1450.69 744.174 1440.03 658.573 1410.03C607.345 1392.1 554.891 1366.29 498.219 1331.13C457.499 1305.88 378.939 1251.32 345.385 1224.99C313.796 1200.21 285.483 1179.59 260.502 1161.39C205.294 1121.17 161.686 1089.4 122.221 1041.76C118.313 1037.04 114.289 1034.69 110.063 1034.69Z" fill="#371A45"/>
<path d="M523.738 1707.24C519.37 1707.24 515.027 1705.42 511.939 1701.86C506.282 1695.35 506.976 1685.48 513.487 1679.83C612.742 1593.6 594.032 1377.09 593.831 1374.91C593.037 1366.32 599.356 1358.72 607.945 1357.92C616.509 1357.12 624.139 1363.44 624.935 1372.03C625.821 1381.56 645.348 1606.65 533.975 1703.41C531.018 1705.98 527.368 1707.24 523.738 1707.24Z" fill="#371A45"/>
<path d="M1315.14 2151.69C1155.04 2177.97 692.556 2210.93 673.228 2131.74C667.449 2107.92 695.212 1934.97 753.979 1753.99C773.386 1694.36 796.112 1633.84 822.118 1577.53C839.455 1539.97 858.237 1504.28 878.464 1471.91C885.571 1460.54 906.422 1445.08 936.177 1428.02C1261.5 1478.7 1503.5 1202.2 1444.54 1404.94C1437.47 1429.23 1432.51 1453.87 1429.27 1478.7C1425.45 1507.32 1423.88 1536.22 1423.96 1565.07C1424.16 1651.29 1438.72 1737.2 1450.67 1815.72C1476.6 1986.75 1489.95 2122.99 1315.14 2151.69Z" fill="white"/>
<path d="M1437.45 1663.84C1453.55 1735.19 1466.17 1806.62 1475.72 1880.12C1478.1 1898.47 1479.92 1917.03 1481.12 1935.74C1482.37 1954.44 1482.61 1973.43 1481.42 1992.6C1480.19 2011.75 1477.45 2031.21 1471.65 2050.37C1465.89 2069.47 1456.73 2088.3 1443.71 2104.45C1430.8 2120.69 1414.21 2133.77 1396.47 2143.27C1378.7 2152.83 1359.91 2159.4 1341.04 2164.02C1336.33 2165.23 1331.58 2165.98 1326.85 2166.98C1322.12 2167.92 1317.34 2168.91 1312.81 2169.57C1303.63 2171.04 1294.47 2172.4 1285.31 2173.67C1267 2176.2 1248.71 2178.46 1230.41 2180.51C1193.81 2184.61 1157.18 2187.97 1120.51 2190.76C1083.84 2193.59 1047.11 2195.71 1010.32 2196.99C973.535 2198.31 936.693 2198.95 899.76 2198.51C862.824 2198.02 825.816 2196.61 788.605 2192.7C769.993 2190.69 751.341 2188.12 732.537 2183.94C723.133 2181.83 713.694 2179.34 704.167 2175.95C694.655 2172.48 684.974 2168.39 675.316 2161.27C670.531 2157.58 665.669 2152.94 661.798 2146.56C660.889 2144.88 659.953 2143.25 659.198 2141.46C658.51 2139.6 657.878 2137.71 657.314 2135.82C656.917 2133.91 656.637 2131.98 656.382 2130.06L656.149 2125.65C655.9 2114.61 656.896 2105.54 657.834 2095.99C659.843 2077.2 662.688 2058.9 665.819 2040.64C672.131 2004.16 679.756 1968.09 688.182 1932.21C696.659 1896.36 705.831 1860.67 716.327 1825.36C737.271 1754.77 762.581 1685.23 795.326 1619.13C797.244 1615.26 801.939 1613.68 805.812 1615.6C809.371 1617.36 810.998 1621.46 809.749 1625.12L809.737 1625.16C786.267 1694.19 764.914 1763.61 745.76 1833.73C726.659 1903.79 709.694 1974.67 697.73 2046.04C694.782 2063.84 692.128 2081.73 690.358 2099.33C689.514 2107.97 688.735 2117.16 688.986 2124.42L689.106 2126.86C689.212 2127.19 689.227 2127.54 689.243 2127.88C689.41 2128.15 689.511 2128.42 689.555 2128.73C689.697 2129.04 689.974 2129.36 690.104 2129.71C691.017 2131.14 692.738 2133.04 695.205 2134.91C700.31 2138.66 707.583 2141.99 715.25 2144.67C722.976 2147.37 731.264 2149.52 739.712 2151.37C756.65 2155.03 774.314 2157.39 792.072 2159.2C827.665 2162.72 863.862 2163.9 900.073 2164.16C936.307 2164.38 972.636 2163.53 1008.96 2162.01C1081.58 2158.73 1154.31 2153.83 1226.57 2145.91C1244.64 2143.95 1262.66 2141.77 1280.59 2139.35C1289.56 2138.14 1298.5 2136.84 1307.38 2135.45C1311.91 2134.8 1316.08 2133.92 1320.32 2133.09C1324.54 2132.21 1328.86 2131.56 1333 2130.5C1366.12 2122.36 1397.53 2108.22 1417.49 2083.23C1437.87 2058.62 1446.34 2024.9 1448.7 1990.39C1451.18 1955.69 1448.2 1919.78 1444.1 1883.95C1440 1848.05 1434.01 1812.03 1429.34 1775.68C1424.79 1739.31 1421.38 1702.51 1421.92 1665.45C1421.98 1661.11 1425.55 1657.64 1429.89 1657.7C1433.6 1657.75 1436.67 1660.38 1437.45 1663.84Z" fill="#371A45"/>
<path d="M1351.5 776.394C1628.5 1277.39 1683.12 1273.13 1546 717.894C1158.28 400.811 328.607 558.292 1351.5 776.394Z" fill="white"/>
<path d="M1101.32 1601.19C1038.01 1601.19 975.549 1589.94 916.843 1567.41C781.931 1515.64 675.075 1407.86 607.824 1255.71L607.487 1254.86C553.366 1098.75 560.61 947.184 628.439 816.554C688.959 699.996 793.331 608.812 922.333 559.801C1051.07 510.89 1188.69 510.243 1309.85 557.977C1446.48 611.805 1553.09 723.338 1618.15 880.521L1618.48 881.4C1667.59 1035.59 1657.6 1184.7 1589.59 1312.62C1528.77 1427.03 1425.5 1516.48 1298.81 1564.49C1234.29 1588.95 1167.35 1601.19 1101.32 1601.19ZM628.379 1247.13C771.799 1571.08 1064.43 1629.5 1290.92 1543.67C1512.21 1459.8 1702.44 1219.07 1597.4 888.608C1459.21 555.349 1154.74 495.324 930.245 580.62C703.537 666.754 512.444 912.042 628.379 1247.13Z" fill="#371A45"/>
<path d="M1101.32 1605.67C1037.47 1605.67 974.461 1594.33 915.235 1571.6C779.188 1519.39 671.468 1410.79 603.724 1257.53L603.25 1256.33C548.716 1099.03 556.05 946.24 624.461 814.487C685.489 696.953 790.711 605.014 920.74 555.61C1050.53 506.299 1189.3 505.661 1311.5 553.806C1449.28 608.091 1556.76 720.474 1622.3 878.806L1622.75 880.039C1672.24 1035.4 1662.14 1185.72 1593.56 1314.72C1532.22 1430.09 1428.11 1520.29 1300.4 1568.69C1235.37 1593.33 1167.88 1605.67 1101.32 1605.67ZM632.553 1245.49C774.816 1566.6 1064.86 1624.55 1289.33 1539.48C1508.66 1456.35 1697.21 1217.74 1593.18 890.147C1456.1 559.805 1154.33 500.272 931.835 584.81C707.131 670.184 517.729 913.317 632.553 1245.49Z" fill="#371A45"/>
<path d="M1048.25 1583.35C982.59 1583.35 918.23 1569.62 859.523 1542.43C747.57 1490.59 659.062 1391.94 603.564 1257.16L603.52 1257.05C513.342 1033.23 593.908 709.177 857.578 583.508L860.059 582.575C997.808 543.722 1152.18 567.099 1283.61 646.706C1414.59 726.032 1506.42 851.215 1535.56 990.156C1560.33 1125.43 1535.37 1253.41 1463.45 1360.65C1398.28 1457.86 1299.5 1529.87 1185.32 1563.42C1140 1576.74 1093.81 1583.35 1048.25 1583.35ZM632.468 1245.31C753.95 1540.27 1001.47 1584.88 1176.51 1533.45C1377.75 1474.31 1555.17 1270.77 1504.91 996.173C1477.61 866.066 1391.03 748.285 1267.43 673.424C1143.78 598.536 998.94 576.278 869.819 612.279C622.976 730.782 547.773 1034.98 632.468 1245.31Z" fill="#371A45"/>
<path d="M1036.3 1529.61C910.114 1529.61 784.396 1478.74 672.048 1382.07L670.373 1380.63L669.162 1378.78C586.054 1251.63 552.778 1117.52 572.929 990.939C590.973 877.594 651.073 776.865 742.158 707.306C831.177 639.325 940.908 608.087 1051.17 619.352C1173.73 631.869 1289.21 695.653 1385.12 803.805L1385.72 804.532C1464.1 904.539 1499.95 1016.95 1489.37 1129.61C1479.8 1231.61 1432.09 1328.32 1355.03 1401.93C1271.6 1481.63 1162.1 1526.93 1046.71 1529.5C1043.24 1529.57 1039.77 1529.61 1036.3 1529.61ZM694.104 1359.84C934.553 1565.49 1188.33 1517.98 1333.45 1379.34C1465.19 1253.5 1524.87 1033.07 1361.43 824.176C1160.22 597.587 914.968 614.642 761.118 732.132C608.132 848.961 522.17 1095.04 694.104 1359.84Z" fill="#371A45"/>
<path d="M1680.51 1274.09C1603.77 1510.93 1359.95 1453.96 1410.41 1220.47C1481.73 969.289 1742.37 1030.16 1680.51 1274.09Z" fill="white"/>
<g opacity="0.35">
<path d="M1495.02 1423.88C1421.81 1407.34 1383.35 1308.07 1413.71 1208.36C1442.08 1323.03 1584.18 1165.77 1600.61 1116.6C1782.27 1196.6 1628.85 1457.15 1495.02 1423.88Z" fill="#371A45"/>
</g>
<path d="M1520.42 1441.63C1509.37 1441.63 1498.62 1440.21 1488.42 1437.46C1422.15 1419.61 1367.61 1344.57 1395.15 1217.17L1395.39 1216.21C1434.29 1079.18 1530.11 1027.76 1604.69 1047.8C1672.02 1065.89 1729.21 1145.63 1695.65 1277.94L1695.37 1278.91C1657.99 1394.29 1584.09 1441.63 1520.42 1441.63ZM1425.57 1224.26C1402.61 1331.3 1444.63 1393.31 1496.55 1407.3C1551.56 1422.13 1627.85 1385.38 1665.5 1269.76C1693.59 1158.26 1649.51 1092.19 1596.58 1077.97C1536.89 1061.91 1459.03 1107.03 1425.57 1224.26Z" fill="#371A45"/>
<path d="M1687.77 1289.24C1625.38 1481.11 1442 1441.51 1482.78 1252.65C1540.27 1046.55 1739.51 1089.81 1687.77 1289.24Z" fill="white"/>
<path d="M1561.14 1430.71C1552.95 1430.71 1545.01 1429.66 1537.47 1427.62C1486.46 1413.86 1445.04 1353.4 1467.52 1249.36L1467.74 1248.46C1499.86 1133.29 1576.35 1089.09 1635.29 1104.95C1687.71 1119.06 1731.22 1183.98 1702.89 1293.17L1702.62 1294.08C1671.15 1390.85 1611.5 1430.71 1561.14 1430.71ZM1497.95 1256.4C1480.01 1340.12 1508.93 1387.57 1545.61 1397.47C1585.63 1408.27 1642.45 1377.63 1672.77 1284.87C1695.53 1196.54 1665.13 1145.33 1627.17 1135.12C1583.15 1123.25 1524.67 1161.14 1497.95 1256.4Z" fill="#371A45"/>
<g opacity="0.25">
<path d="M1465.71 1295.7C1466.6 1267.33 1475.28 1239.11 1489.29 1214.28C1503.08 1353.05 1646.44 1315.76 1692.81 1225.21C1690.82 1426.88 1475.91 1486.83 1465.71 1295.7Z" fill="#371A45"/>
</g>
<path d="M1652.78 2752.52C1575.82 2764.58 1440.56 2733.19 1391.71 2621.55C1391.71 2621.55 1334.97 2423.07 1203.69 2293.36C1106.78 2197.61 896.23 2175.63 850.896 2241.11C807.124 2304.29 896.621 2475.59 842.228 2566.85C820.595 2603.08 688.106 2666.26 508.174 2639.79C433.007 2628.7 421.839 2572.98 429.532 2535.92C430.157 2532.87 430.899 2529.95 431.758 2527.21C453.781 2456.22 552.728 2440.1 552.728 2440.1C552.728 2440.1 424.104 2253.45 472.836 2098.98C513.641 1969.77 616.962 1921 700.016 1920.29C737.931 1919.98 771.63 1929.66 793.262 1946.3L1201.12 1872.58L1451.57 1827.28C1455.67 1868.24 1461.14 1906.55 1467.93 1943.33C1474.49 1979.02 1482.3 2013.26 1491.4 2047.16C1528.85 2186.48 1587.81 2319.44 1669.34 2518.23C1741.27 2563.41 1780.47 2605.62 1790.62 2641.74C1805.85 2695.94 1755.75 2736.39 1652.78 2752.52Z" fill="white"/>
<g opacity="0.26">
<path d="M1652.78 2752.52C1575.82 2764.59 1440.56 2733.19 1391.71 2621.55C1391.71 2621.55 1334.97 2423.07 1203.69 2293.36C1106.78 2197.61 896.23 2175.63 850.896 2241.11C807.124 2304.29 896.621 2475.59 842.228 2566.85C820.595 2603.08 688.106 2666.26 508.174 2639.79C433.007 2628.7 421.839 2572.98 429.532 2535.92C451.789 2550.1 494.625 2562.47 576.859 2559.82C755.62 2554.08 813.489 2502.93 785.921 2366.57C760.228 2239.59 767.452 2151.11 817.003 2109.75L807.71 2108.62C807.632 2108.58 807.593 2108.58 807.515 2108.58L802.985 2108.04C800.72 2107.76 798.495 2107.37 796.308 2106.86C795.41 2106.67 794.512 2106.4 793.653 2106.16C792.599 2105.85 791.544 2105.61 790.529 2105.3H790.646C760.111 2095.66 739.571 2065.24 743.515 2032.32L745.194 2018.3C745.194 2009.28 745.428 2000.3 745.936 1991.28C732.543 1988.28 720.906 1980.86 712.55 1970.67C703.452 1959.58 698.18 1945.25 698.805 1929.78C698.922 1927.56 699.157 1925.33 699.469 1923.18C699.547 1922.72 699.664 1922.29 699.742 1921.86C699.82 1921.35 699.937 1920.8 700.015 1920.29C737.93 1919.98 771.629 1929.67 793.261 1946.3L1201.12 1872.58C1202.72 1874.88 1204.16 1877.26 1205.45 1879.72C1205.72 1880.23 1205.92 1880.74 1206.15 1881.21C1206.86 1882.57 1207.48 1883.94 1208.07 1885.39C1208.34 1886.05 1208.58 1886.71 1208.85 1887.38C1209.32 1888.66 1209.75 1889.95 1210.18 1891.24C1210.41 1892.02 1210.61 1892.77 1210.8 1893.51C1211.15 1894.8 1211.47 1896.08 1211.74 1897.41C1211.89 1898.19 1212.05 1898.94 1212.17 1899.76C1212.4 1901.08 1212.6 1902.45 1212.71 1903.82C1212.79 1904.6 1212.91 1905.34 1212.95 1906.08C1213.07 1907.6 1213.1 1909.17 1213.1 1910.69C1213.1 1911.31 1213.14 1911.94 1213.14 1912.52C1213.1 1914.71 1212.95 1916.94 1212.67 1919.12L1209.24 1947.98C1243.52 1954.27 1381.63 1976.33 1467.93 1943.33C1474.49 1979.02 1482.3 2013.27 1491.4 2047.16C1487.42 2050.87 1484.45 2052.51 1484.45 2052.51C1484.45 2052.51 1370.86 2101.13 1196.51 2054.15L1192.64 2086.21C1192.06 2091.17 1190.92 2095.89 1189.32 2100.42C1189.28 2100.5 1189.25 2100.58 1189.25 2100.66C1188.46 2102.8 1187.61 2104.91 1186.67 2106.94C1186.55 2107.18 1186.43 2107.41 1186.32 2107.65C1185.38 2109.52 1184.4 2111.32 1183.35 2113.11C1183.31 2113.19 1183.27 2113.27 1183.23 2113.35C1182.92 2113.82 1182.61 2114.24 1182.33 2114.71C1181.24 2116.35 1180.11 2117.99 1178.9 2119.56C1178.39 2120.22 1177.84 2120.92 1177.3 2121.59C1176.63 2122.37 1175.97 2123.11 1175.31 2123.85C1174.64 2124.55 1173.98 2125.26 1173.28 2125.96C1172.65 2126.58 1171.99 2127.25 1171.32 2127.87C1170.11 2129.01 1168.86 2130.1 1167.58 2131.11C1167.42 2131.27 1167.22 2131.43 1167.07 2131.58C1166.6 2131.93 1166.13 2132.21 1165.7 2132.56C1164.69 2133.3 1163.71 2134 1162.65 2134.71C1161.95 2135.17 1161.29 2135.6 1160.58 2136.03C1159.57 2136.66 1158.52 2137.24 1157.46 2137.83C1156.8 2138.18 1156.17 2138.57 1155.47 2138.88C1153.91 2139.7 1152.27 2140.45 1150.63 2141.11C1149.92 2141.42 1149.18 2141.66 1148.48 2141.93C1147.89 2142.12 1147.31 2142.32 1146.72 2142.51C1188.7 2160.13 1224.58 2181.09 1246.45 2204.01C1367.34 2330.76 1395.61 2503.47 1470.23 2624.36C1509.32 2687.66 1704.05 2707.97 1790.62 2641.74C1805.85 2695.94 1755.75 2736.39 1652.78 2752.52Z" fill="#371A45"/>
</g>
<path d="M1619.48 2770.59C1535.46 2770.6 1422.49 2730.84 1377.39 2627.81L1376.68 2625.84C1376.12 2623.89 1319.45 2429.69 1192.72 2304.49C1127.81 2240.35 1012.22 2213.27 936.457 2220.3C900.495 2223.65 874.66 2234.19 863.715 2249.99C846.789 2274.42 855.18 2325.4 864.062 2379.38C875.026 2445.99 887.451 2521.48 855.624 2574.86C829.689 2618.36 690.656 2682.43 505.91 2655.22C459.99 2648.46 437.331 2626.36 426.41 2609.01C403.776 2573.04 413.353 2533.75 416.827 2522.56C434.718 2464.98 494.627 2439.79 527.791 2430.03C495.997 2377.56 416.158 2226.69 457.957 2094.26C495.936 1973.94 580.997 1930.99 628.321 1916.1C692.532 1895.89 762.652 1903.05 802.791 1933.91C809.629 1939.17 810.911 1948.98 805.655 1955.81C800.399 1962.65 790.594 1963.94 783.753 1958.68C751.834 1934.14 691.775 1928.89 637.696 1945.9C596.168 1958.97 521.466 1996.84 487.747 2103.66C441.883 2248.96 564.349 2429.42 565.591 2431.22L579.558 2451.52L555.242 2455.5C554.37 2455.64 465.537 2471.07 446.658 2531.83C441.56 2548.24 440.511 2572.76 452.847 2592.37C463.648 2609.53 483.033 2620.28 510.459 2624.31C688.286 2650.5 811.838 2587.3 828.792 2558.86C854.773 2515.29 843.824 2448.78 833.238 2384.45C823.299 2324.06 813.912 2267.02 838.035 2232.2C854.563 2208.35 887.596 2193.47 933.56 2189.2C1016.35 2181.48 1143.04 2211.49 1214.67 2282.26C1343.82 2409.85 1401.26 2598.6 1406.4 2616.2C1451.51 2717.68 1578.49 2748.37 1650.35 2737.1C1724.2 2725.52 1770.3 2700.65 1776.83 2668.87C1784.31 2632.49 1742.1 2582.41 1661.02 2531.46L1656.78 2528.8L1654.88 2524.17C1641.63 2491.85 1628.97 2461.27 1616.91 2432.12C1517.89 2192.86 1458.12 2048.46 1436.02 1828.84C1435.15 1820.26 1441.41 1812.6 1449.99 1811.74C1458.6 1810.86 1466.24 1817.13 1467.1 1825.71C1488.74 2040.76 1547.84 2183.57 1645.77 2420.18C1657.27 2447.96 1669.31 2477.06 1681.89 2507.71C1798.62 2582.18 1814.7 2639.79 1807.43 2675.16C1800.75 2707.65 1768.91 2750.13 1655.19 2767.96C1644.17 2769.69 1632.15 2770.59 1619.48 2770.59Z" fill="#371A45"/>
<path d="M786.35 1924.32C809.964 1900.7 809.964 1862.42 786.35 1838.8C762.736 1815.19 724.451 1815.19 700.837 1838.8C677.223 1862.42 677.223 1900.7 700.837 1924.32C724.451 1947.93 762.736 1947.93 786.35 1924.32Z" fill="white"/>
<g opacity="0.26">
<path d="M683.213 1879.02C681.811 1912.38 707.702 1940.6 741.067 1942C774.433 1943.4 802.647 1917.46 804.049 1884.1C804.436 1874.88 802.741 1866.01 799.325 1858.02C788.77 1878.02 767.34 1891.31 743.24 1890.29C719.14 1889.28 698.898 1874.24 690.106 1853.43C686.033 1861.1 683.6 1869.8 683.213 1879.02Z" fill="#371A45"/>
</g>
<path d="M743.691 1954.35C742.649 1954.35 741.606 1954.33 740.559 1954.29C721.133 1953.47 703.188 1945.14 690.029 1930.83C676.87 1916.51 670.073 1897.93 670.891 1878.51C672.576 1838.4 706.587 1807.15 746.672 1808.84C786.772 1810.53 818.025 1844.52 816.34 1884.62C815.522 1904.05 807.19 1921.99 792.878 1935.15C779.336 1947.6 761.972 1954.35 743.691 1954.35ZM743.591 1833.41C717.964 1833.41 696.596 1853.7 695.51 1879.54C694.97 1892.39 699.465 1904.68 708.169 1914.15C716.875 1923.62 728.745 1929.13 741.594 1929.67C754.402 1930.21 766.733 1925.71 776.201 1917.01C785.669 1908.3 791.181 1896.43 791.721 1883.58C792.834 1857.06 772.163 1834.57 745.637 1833.46C744.953 1833.43 744.27 1833.41 743.591 1833.41Z" fill="#371A45"/>
<g opacity="0.35">
<path d="M737.275 1936.48C752.191 1869.46 758.425 1806.79 759.38 1750.7C755.797 1782.89 750.423 1816.56 742.642 1851.46C733.556 1892.4 728.684 1935.46 729.634 1978.12C731.665 1964.1 734.25 1950.17 737.275 1936.48Z" fill="#371A45"/>
</g>
<path d="M787.39 2057.27L1101.33 2094.93C1138.49 2099.4 1172.57 2072.64 1177.04 2035.43L1197.07 1868.37C1200.98 1835.8 1180.94 1805.64 1150.92 1795.65C1146.68 1794.21 1142.21 1793.22 1137.58 1792.66L823.684 1755C786.481 1750.53 752.401 1777.29 747.976 1814.5L732.078 1946.81L727.896 1981.56C723.424 2018.76 750.234 2052.8 787.39 2057.27Z" fill="white"/>
<g opacity="0.26">
<path d="M787.384 2057.27L1101.33 2094.93C1138.48 2099.4 1172.56 2072.64 1177.03 2035.43L1197.07 1868.37C1200.97 1835.8 1180.93 1805.64 1150.91 1795.65C1131.67 1805.35 1119.44 1811.57 1119.44 1811.57C1088.07 1943.84 1041.86 2006.13 875.007 1988.87C802.987 1981.4 758.93 1964.99 732.072 1946.81L727.89 1981.56C723.418 2018.76 750.228 2052.8 787.384 2057.27Z" fill="#371A45"/>
</g>
<path d="M1105.34 2107.22C1101.98 2107.22 1098.57 2107.02 1095.14 2106.61L790.62 2070.07C744.011 2064.48 710.64 2022.01 716.23 1975.4L735.151 1817.71C737.851 1795.21 749.211 1775.06 767.136 1760.98C785.063 1746.89 807.336 1740.61 829.824 1743.32L1134.35 1779.86C1156.85 1782.56 1176.99 1793.92 1191.08 1811.84C1205.16 1829.77 1211.43 1852.03 1208.73 1874.53L1189.81 2032.22C1184.63 2075.4 1147.8 2107.22 1105.34 2107.22ZM1098.08 2082.14C1131.21 2086.13 1161.37 2062.41 1165.35 2029.29L1184.27 1871.59C1186.18 1855.63 1181.72 1839.81 1171.7 1827.06C1161.68 1814.31 1147.38 1806.24 1131.41 1804.32L826.891 1767.78C810.907 1765.87 795.11 1770.33 782.361 1780.35C769.61 1790.37 761.534 1804.68 759.62 1820.64L740.699 1978.33C736.724 2011.45 760.434 2041.63 793.554 2045.6L1098.08 2082.14Z" fill="#371A45"/>
<path d="M774.932 2054.52C778.899 2055.85 783.034 2056.77 787.385 2057.27L1101.33 2094.93C1128.56 2098.18 1154.13 2084.72 1167.6 2062.58C1172.51 2054.54 1175.82 2045.36 1176.99 2035.43L1185.92 1961.21L1188.87 1936.73L1197.07 1868.37C1201.54 1831.16 1174.73 1797.13 1137.57 1792.66L1069.74 1784.54C1100.3 1794.18 1120.8 1824.6 1116.87 1857.5L1106.07 1947.75L1096.84 2024.62C1092.37 2061.77 1058.29 2088.58 1021.13 2084.11L774.932 2054.52Z" fill="white"/>
<g opacity="0.35">
<path d="M774.932 2054.52C778.899 2055.85 783.034 2056.77 787.385 2057.27L1101.33 2094.93C1138.48 2099.4 1172.56 2072.64 1176.99 2035.43L1188.87 1936.73C1178.88 1953.22 1162.12 1972.93 1139.15 1972.45C1126.55 1972.22 1115.37 1961.79 1106.07 1947.75L1096.84 2024.62C1092.37 2061.77 1058.28 2088.58 1021.13 2084.11L774.932 2054.52Z" fill="#371A45"/>
</g>
<path d="M1109.53 2107.75C1106.32 2107.75 1103.09 2107.56 1099.86 2107.17L785.915 2069.5C780.927 2068.93 775.913 2067.83 771.074 2066.24L776.384 2042.3L1022.61 2071.87C1037.3 2073.64 1051.87 2069.53 1063.63 2060.29C1075.39 2051.05 1082.83 2037.86 1084.59 2023.15L1104.63 1856.06C1107.82 1829.49 1091.59 1804.35 1066.04 1796.26L1071.22 1772.29L1139.03 1780.41C1183.08 1785.72 1214.59 1825.84 1209.28 1869.84L1189.24 2036.91C1186.7 2058.16 1175.98 2077.19 1159.04 2090.5C1144.69 2101.78 1127.4 2107.75 1109.53 2107.75ZM1078.66 2079.81L1102.8 2082.71C1117.49 2084.47 1132.06 2080.37 1143.82 2071.13C1155.57 2061.89 1163.02 2048.7 1164.77 2033.99V2033.98L1184.82 1866.9C1188.5 1836.38 1166.64 1808.56 1136.09 1804.87L1114.34 1802.27C1125.9 1818.21 1131.58 1838.3 1129.09 1858.99L1109.05 2026.07C1106.52 2047.32 1095.79 2066.35 1078.85 2079.66C1078.79 2079.71 1078.73 2079.76 1078.66 2079.81Z" fill="#371A45"/>
<path d="M982.903 1927.57C982.197 1933.75 985.192 1984.65 985.192 1984.65C985.192 1984.65 1001 1986.45 1020.41 1988.67C1044.67 1991.44 1067.2 1968.57 1070.73 1937.59C1074.27 1906.62 1057.47 1879.26 1033.22 1876.49C1016.85 1874.62 997.998 1872.47 997.998 1872.47C997.998 1872.47 984.053 1917.5 982.903 1927.57Z" fill="#22A7F0"/>
<path d="M982.903 1927.57C982.197 1933.75 985.192 1984.65 985.192 1984.65C985.192 1984.65 1001 1986.45 1020.41 1988.67C1044.67 1991.44 1067.2 1968.57 1070.73 1937.59C1074.27 1906.62 1057.47 1879.26 1033.22 1876.49C1016.85 1874.62 997.998 1872.47 997.998 1872.47C997.998 1872.47 984.053 1917.5 982.903 1927.57Z" fill="#127DDD"/>
<path d="M1024.35 1998.75C1022.67 1998.75 1020.99 1998.66 1019.3 1998.46L994.831 1995.67C983.796 1994.41 975.346 1985.45 974.741 1974.37C972.444 1932.28 972.927 1928.04 973.11 1926.45C973.786 1920.51 977.932 1904.86 985.432 1879.91C988.596 1869.38 998.826 1862.63 1009.75 1863.89L1034.34 1866.7C1063.95 1870.08 1084.67 1902.38 1080.53 1938.71C1076.61 1972.97 1051.97 1998.75 1024.35 1998.75ZM992.698 1928.66C992.495 1930.97 992.827 1944.03 994.424 1973.3C994.505 1974.75 995.616 1975.92 997.068 1976.09L1021.53 1978.88C1040.4 1981.01 1058.02 1962 1060.94 1936.48C1063.85 1910.95 1050.92 1888.43 1032.1 1886.28L1007.51 1883.48C1006.07 1883.33 1004.73 1884.2 1004.31 1885.58C994.34 1918.75 992.9 1926.92 992.698 1928.66Z" fill="#371A45"/>
<path d="M1035.39 1933.61C1038.92 1902.63 1022.13 1875.28 997.875 1872.51C973.622 1869.74 951.096 1892.61 947.56 1923.59C944.024 1954.56 960.819 1981.92 985.071 1984.69C1009.32 1987.45 1031.85 1964.59 1035.39 1933.61Z" fill="#22A7F0"/>
<g opacity="0.7">
<path d="M947.307 1935.18C954.388 1910.19 974.209 1893.1 995.353 1895.52C1016.58 1897.95 1032.06 1919.14 1033.26 1945.15C1034.31 1941.46 1035.07 1937.59 1035.53 1933.58C1039.03 1902.59 1022.23 1875.24 997.982 1872.48C973.73 1869.72 951.216 1892.55 947.673 1923.54C947.215 1927.51 947.107 1931.4 947.307 1935.18Z" fill="white"/>
</g>
<path d="M985.177 1984.63C1009.43 1987.44 1031.99 1964.56 1035.53 1933.58C1036.33 1926.46 1036.07 1919.56 1034.9 1913.05C1026.17 1933.39 1008.46 1946.48 989.775 1944.33C971.091 1942.17 956.828 1925.49 952.904 1903.76C950.287 1909.77 948.467 1916.46 947.672 1923.54C944.13 1954.52 960.925 1981.87 985.177 1984.63Z" fill="#127DDD"/>
<path d="M989.121 1994.73C987.449 1994.73 985.764 1994.63 984.072 1994.44C954.458 1991.06 933.74 1958.76 937.885 1922.43C942.033 1886.1 969.499 1859.3 999.115 1862.68C1028.73 1866.06 1049.45 1898.36 1045.3 1934.69C1041.39 1968.94 1016.75 1994.73 989.121 1994.73ZM957.47 1924.66C954.557 1950.19 967.492 1972.71 986.308 1974.86C1005.17 1976.99 1022.8 1957.98 1025.72 1932.45C1028.63 1906.93 1015.7 1884.41 996.879 1882.26C978.032 1880.14 960.388 1899.14 957.47 1924.66Z" fill="#371A45"/>
<path d="M885.134 2077.62C884.819 2077.62 884.499 2077.61 884.179 2077.58C878.759 2077.06 874.789 2072.24 875.309 2066.82L883.451 1982.08C885.026 1965.68 878.324 1949.71 865.526 1939.34C847.137 1924.45 837.794 1901.53 840.531 1878.03L854.413 1758.82C855.043 1753.42 859.923 1749.53 865.343 1750.17C870.751 1750.8 874.623 1755.7 873.993 1761.1L860.111 1880.31C858.16 1897.07 864.82 1913.41 877.931 1924.02C895.883 1938.56 905.28 1960.96 903.075 1983.96L894.933 2068.71C894.443 2073.81 890.151 2077.62 885.134 2077.62Z" fill="#371A45"/>
<path d="M1470.77 1884.16C1470.77 1884.16 1498.35 1909.35 1497.19 1945.23C1495.85 1986.72 1468.81 2001.73 1468.81 2001.73C1468.81 2001.73 1351.55 2052.03 1172.4 2001.09C1172.4 2001.09 1123.5 1929.82 1185.7 1895.71C1185.7 1895.71 1375.77 1935.14 1470.77 1884.16Z" fill="white"/>
<g opacity="0.26">
<path d="M1497.18 1945.25C1495.84 1986.69 1468.82 2001.71 1468.82 2001.71C1468.82 2001.71 1351.58 2052.02 1172.38 2001.08C1172.38 2001.08 1156.31 1977.58 1154.35 1951.18C1155.12 1952.53 1155.63 1953.24 1155.63 1953.24C1286.59 1990.49 1384.46 1973.62 1427.64 1961.85C1457.64 1953.68 1479.04 1928.41 1480.38 1898.65C1480.39 1898.25 1480.41 1897.83 1480.42 1897.42C1480.46 1896.73 1480.49 1896.04 1480.4 1895.37C1488.22 1906.1 1497.89 1923.76 1497.18 1945.25Z" fill="#371A45"/>
</g>
<path d="M1330.45 2036.36C1285.28 2036.36 1230.81 2030.51 1169.03 2012.94L1164.75 2011.73L1162.24 2008.06C1161.11 2006.41 1134.67 1967.29 1143.7 1929.39C1148.19 1910.54 1160.33 1895.57 1179.78 1884.91L1183.75 1882.72L1188.2 1883.65C1190.06 1884.03 1375.01 1921.57 1464.95 1873.3L1472.64 1869.17L1479.08 1875.06C1480.38 1876.24 1510.82 1904.54 1509.5 1945.62C1507.96 1993.54 1476.15 2011.75 1474.8 2012.5L1473.67 2013.06C1470.41 2014.46 1417.83 2036.36 1330.45 2036.36ZM1180.33 1990.52C1343.71 2035.63 1453.51 1994.58 1463.26 1990.7C1466.3 1988.71 1483.87 1975.92 1484.88 1944.83C1485.54 1924.31 1474.82 1907.73 1467.97 1899.31C1375.85 1941.8 1217.78 1914.43 1187.89 1908.7C1176.9 1915.62 1170.27 1924.27 1167.69 1935.02C1162.45 1956.8 1175.02 1981.43 1180.33 1990.52Z" fill="#371A45"/>
<path d="M1265.98 2382.18C1257.35 2382.18 1250.36 2375.19 1250.36 2366.56C1250.36 2357.94 1257.35 2350.95 1265.98 2350.94C1367.34 2350.92 1537.49 2332.95 1562.53 2284.8C1566.51 2277.14 1575.93 2274.17 1583.59 2278.15C1591.24 2282.13 1594.22 2291.56 1590.24 2299.21C1548.31 2379.85 1294.75 2382.18 1265.98 2382.18Z" fill="#371A45"/>
<path d="M844.697 2268.49C839.721 2268.49 834.829 2266.12 831.801 2261.71C746.22 2136.95 659.618 2090.19 602.038 2072.93C540.104 2054.37 497.485 2065.01 497.06 2065.12C488.749 2067.26 480.2 2062.31 478.007 2054C475.812 2045.68 480.719 2037.16 489.025 2034.93C496.786 2032.85 681.137 1986.85 857.563 2244.04C862.441 2251.15 860.632 2260.87 853.518 2265.76C850.818 2267.61 847.741 2268.49 844.697 2268.49Z" fill="#371A45"/>
<path d="M552.729 2440.08C552.729 2440.08 615.04 2478.73 727.402 2448.41L552.729 2440.08Z" fill="white"/>
<path d="M560.961 2426.81C561.477 2427.19 563.132 2428.18 564.422 2428.88C565.747 2429.66 567.277 2430.36 568.725 2431.1C571.706 2432.5 574.746 2433.95 577.943 2435.13C584.231 2437.7 590.875 2439.73 597.593 2441.53C611.071 2445.09 625.108 2447.15 639.305 2448.2C646.422 2448.53 653.566 2448.94 660.747 2448.67C667.933 2448.75 675.11 2448.07 682.318 2447.56C689.53 2447.07 696.677 2445.78 703.895 2444.93C711.054 2443.7 718.189 2442.22 725.369 2440.87L725.89 2440.77C730.125 2439.98 734.201 2442.77 734.995 2447C735.743 2451 733.271 2454.86 729.438 2455.95C722.116 2458.01 714.808 2460.2 707.417 2462.15C699.938 2463.71 692.52 2465.71 684.927 2466.91C677.338 2468.13 669.749 2469.5 662.031 2470.11C654.351 2471.06 646.592 2471.32 638.81 2471.62C623.239 2471.84 607.515 2470.95 591.849 2468.26C584.02 2466.88 576.195 2465.22 568.432 2462.83C564.534 2461.75 560.673 2460.35 556.779 2458.9C554.83 2458.12 552.903 2457.42 550.915 2456.5C548.848 2455.58 547.193 2454.85 544.497 2453.36L543.967 2453.06C536.404 2448.85 533.684 2439.31 537.892 2431.75C542.1 2424.18 551.642 2421.46 559.205 2425.67C559.796 2426 560.429 2426.42 560.961 2426.81Z" fill="#371A45"/>
<path d="M1518.12 2572.46C1531.79 2572.38 1546.11 2571.08 1559.83 2568.9C1573.61 2566.7 1587.15 2563.45 1599.88 2558.85C1612.55 2554.19 1624.57 2548.22 1634.22 2540.31C1644.03 2532.54 1651.03 2522.86 1654.93 2512.2C1657.88 2504.09 1666.85 2499.9 1674.97 2502.85C1683.08 2505.8 1687.27 2514.78 1684.32 2522.89C1684.15 2523.35 1683.94 2523.84 1683.74 2524.28C1679.95 2532.21 1675.08 2539.57 1669.38 2546.01C1663.7 2552.51 1657.08 2557.82 1650.28 2562.43C1636.56 2571.64 1621.64 2577.24 1606.81 2581.23C1591.92 2585.13 1576.93 2587.28 1562.01 2588.3C1547.02 2589.29 1532.39 2589.33 1517.18 2588.05C1512.88 2587.69 1509.69 2583.91 1510.06 2579.61C1510.4 2575.56 1513.77 2572.5 1517.76 2572.46L1518.12 2572.46Z" fill="#371A45"/>
<path d="M2315.35 1094.24C2290.46 1079.89 2275.28 1060.49 2269.83 1036.06L2269.83 1036.04C2269.35 1033.95 2268.95 1031.8 2268.63 1029.62C2267.77 1023.78 2271.25 1018.17 2276.91 1016.49L2298.55 1010.13L2343.39 1072.9L2330.69 1090.79C2327.22 1095.7 2320.56 1097.23 2315.35 1094.24Z" fill="#9DA9B9"/>
<path d="M2343.53 932.521L2304.43 913.115C2300.19 911.01 2295.13 911.413 2291.28 914.165L2271.06 928.607C2265.41 932.642 2264 940.439 2267.88 946.198L2296.07 988.087" fill="#FF1B40"/>
<g opacity="0.55">
<path d="M2336.83 940.348L2304.17 924.135C2299.92 922.044 2294.87 922.445 2291.01 925.198L2270.79 939.64C2269.07 940.875 2267.72 942.476 2266.82 944.255C2264.37 938.789 2266.02 932.205 2271.06 928.604L2291.29 914.162C2295.14 911.409 2300.19 911.008 2304.43 913.109L2343.54 932.512L2336.83 940.348Z" fill="white"/>
</g>
<path d="M2432.43 1111.79L2412.21 1126.23C2406.56 1130.27 2398.73 1129.06 2394.54 1123.54L2364.06 1083.29L2405.79 1066.78L2432.02 1056.41L2437.66 1099.46L2437.69 1099.7C2438.31 1104.39 2436.29 1109.04 2432.43 1111.79Z" fill="#FF1B40"/>
<g opacity="0.3">
<path d="M2432.43 1111.79L2412.21 1126.23C2406.56 1130.27 2398.73 1129.06 2394.54 1123.54L2364.06 1083.29L2405.79 1066.78L2408.77 1065.77C2386.21 1103.22 2400.67 1110.49 2437.66 1099.46L2437.69 1099.7C2438.31 1104.39 2436.29 1109.04 2432.43 1111.79Z" fill="#232323"/>
</g>
<path d="M2321.14 1100.72C2318.33 1100.72 2315.5 1100 2312.9 1098.5C2284.61 1082.21 2268.08 1059.27 2263.76 1030.35C2262.53 1022.09 2267.59 1014.11 2275.52 1011.77L2297.16 1005.4C2299.77 1004.63 2302.51 1006.13 2303.28 1008.74C2304.05 1011.35 2302.55 1014.09 2299.94 1014.86L2278.31 1021.22C2275.01 1022.2 2272.99 1025.42 2273.51 1028.89C2277.41 1055.06 2291.91 1075.04 2317.82 1089.96C2320.77 1091.66 2324.67 1090.78 2326.68 1087.94L2339.36 1070.05C2340.93 1067.83 2344.01 1067.3 2346.23 1068.88C2348.45 1070.45 2348.98 1073.53 2347.4 1075.75L2334.72 1093.64C2331.47 1098.23 2326.36 1100.72 2321.14 1100.72Z" fill="#371A45"/>
<path d="M2296.07 993.016C2294.49 993.016 2292.93 992.252 2291.98 990.838L2263.79 948.948C2258.38 940.918 2260.32 930.22 2268.2 924.595L2288.42 910.154C2293.76 906.333 2300.74 905.781 2306.62 908.699L2345.72 928.106C2348.16 929.317 2349.16 932.273 2347.95 934.71C2346.74 937.149 2343.78 938.14 2341.34 936.934L2302.24 917.527C2299.62 916.228 2296.52 916.48 2294.15 918.174L2273.92 932.617C2270.42 935.117 2269.56 939.873 2271.97 943.445L2300.16 985.335C2301.68 987.593 2301.08 990.655 2298.82 992.176C2297.98 992.743 2297.02 993.016 2296.07 993.016Z" fill="#371A45"/>
<path d="M2404.73 1133.58C2399.38 1133.58 2394.11 1131.14 2390.61 1126.51L2360.13 1086.25C2358.49 1084.09 2358.91 1081 2361.08 1079.35C2363.25 1077.7 2366.35 1078.13 2367.99 1080.31L2398.47 1120.57C2401.06 1124 2405.85 1124.72 2409.35 1122.22L2429.57 1107.78C2431.94 1106.08 2433.18 1103.23 2432.81 1100.33L2427.14 1057.05C2426.78 1054.35 2428.68 1051.88 2431.38 1051.53C2434.08 1051.18 2436.55 1053.07 2436.91 1055.77L2442.58 1099.06C2443.43 1105.56 2440.64 1111.98 2435.3 1115.8L2415.08 1130.25C2411.92 1132.5 2408.31 1133.58 2404.73 1133.58Z" fill="#371A45"/>
<path d="M2369.72 1082.17C2362.34 1084.84 2354.06 1083.07 2348.37 1077.67C2324.34 1054.83 2307.42 1030.38 2296.04 1004.68C2292.94 997.654 2294.08 989.439 2298.89 983.437C2299.67 982.462 2300.44 981.487 2301.23 980.549L2301.22 980.536C2366.19 900.129 2432.72 848.922 2500.81 826.902C2536.44 815.389 2572.47 811.874 2608.95 816.339C2622.01 817.935 2630.84 830.302 2628.12 843.185C2626.58 850.463 2624.74 857.643 2622.59 864.679C2614.12 892.371 2600.94 918.149 2583.04 942.035C2539.67 999.941 2468.56 1046.66 2369.72 1082.17Z" fill="#F6F6F6"/>
<path d="M2583.04 942.036C2535.25 929.267 2492.78 868.411 2500.81 826.903C2536.44 815.39 2572.47 811.875 2608.95 816.34C2622.01 817.936 2630.84 830.303 2628.12 843.186C2620.51 879.136 2605.5 912.084 2583.04 942.036Z" fill="#FF1B40"/>
<g opacity="0.55">
<path d="M2622 866.536C2622.85 863.214 2623.62 859.876 2624.34 856.509C2627.06 843.626 2618.23 831.258 2605.17 829.663C2569.65 825.311 2534.56 828.531 2499.85 839.348C2499.74 835.062 2500.03 830.89 2500.81 826.904C2536.44 815.391 2572.47 811.876 2608.95 816.341C2622.01 817.937 2630.84 830.304 2628.12 843.187C2626.45 851.116 2624.41 858.915 2622 866.536Z" fill="white"/>
</g>
<g opacity="0.3">
<path d="M2369.72 1082.17C2362.34 1084.84 2354.06 1083.07 2348.37 1077.67C2324.34 1054.83 2307.42 1030.38 2296.04 1004.68C2292.94 997.654 2294.08 989.439 2298.89 983.437C2299.67 982.462 2300.44 981.487 2301.23 980.549C2441.28 1055.82 2622.58 864.621 2622.58 864.621L2622.59 864.679C2614.12 892.371 2600.94 918.149 2583.04 942.035C2539.67 999.941 2468.56 1046.66 2369.72 1082.17Z" fill="#232323"/>
</g>
<path d="M2362.66 1088.34C2356.19 1088.34 2349.87 1085.88 2344.98 1081.24C2321.58 1059.01 2303.6 1033.92 2291.54 1006.67C2287.68 997.958 2289.02 987.873 2295.03 980.358C2395.39 855.002 2501.23 798.183 2609.54 811.444C2617.13 812.374 2624.03 816.464 2628.46 822.665C2632.89 828.866 2634.52 836.715 2632.94 844.203C2610.36 950.927 2522.36 1032.55 2371.38 1086.82C2368.53 1087.84 2365.58 1088.34 2362.66 1088.34ZM2578.92 819.423C2484.37 819.423 2391.6 875.502 2302.73 986.518C2299.02 991.149 2298.18 997.346 2300.55 1002.69C2312.25 1029.11 2329 1052.46 2351.77 1074.09C2356.15 1078.25 2362.39 1079.58 2368.05 1077.54C2515.59 1024.51 2601.47 945.32 2623.3 842.163C2624.32 837.305 2623.31 832.415 2620.44 828.396C2617.57 824.378 2613.27 821.833 2608.35 821.23C2598.52 820.026 2588.71 819.423 2578.92 819.423Z" fill="#371A45"/>
<path d="M2308.13 1050.56C2304.66 1045.7 2305.78 1038.95 2310.64 1035.48L2368.13 994.422C2372.99 990.951 2379.74 992.077 2383.21 996.937C2386.68 1001.8 2385.56 1008.55 2380.7 1012.02L2323.21 1053.08C2318.35 1056.55 2311.6 1055.42 2308.13 1050.56Z" fill="#FF1B40"/>
<g opacity="0.55">
<path d="M2384.96 1005.58C2384.8 1005.31 2384.63 1005.03 2384.44 1004.77C2380.97 999.913 2374.23 998.789 2369.37 1002.26L2311.88 1043.32C2309.62 1044.93 2308.16 1047.27 2307.62 1049.79C2304.78 1045 2306.03 1038.77 2310.64 1035.48L2368.12 994.421C2372.99 990.942 2379.74 992.08 2383.21 996.937C2384.95 999.366 2385.54 1002.27 2385.09 1005.01C2385.05 1005.21 2385.01 1005.4 2384.96 1005.58Z" fill="white"/>
</g>
<path d="M2316.96 1060.02C2316.09 1060.02 2315.21 1059.95 2314.34 1059.81C2310.19 1059.12 2306.56 1056.85 2304.12 1053.43C2301.67 1050.01 2300.71 1045.84 2301.4 1041.69C2302.09 1037.54 2304.36 1033.91 2307.78 1031.47L2365.26 990.412C2368.68 987.973 2372.86 987.009 2377 987.695C2381.15 988.386 2384.78 990.653 2387.22 994.075C2389.67 997.495 2390.63 1001.66 2389.94 1005.81C2389.25 1009.96 2386.98 1013.59 2383.56 1016.03L2326.07 1057.09C2323.37 1059.02 2320.21 1060.02 2316.96 1060.02ZM2374.4 997.336C2373.18 997.336 2372 997.712 2370.99 998.432L2313.51 1039.49C2312.23 1040.4 2311.38 1041.76 2311.12 1043.31C2310.86 1044.86 2311.22 1046.42 2312.14 1047.7L2312.14 1047.7C2313.05 1048.98 2314.41 1049.83 2315.96 1050.08C2317.51 1050.33 2319.07 1049.98 2320.35 1049.07L2377.83 1008.01C2379.11 1007.1 2379.96 1005.74 2380.21 1004.19C2380.47 1002.64 2380.11 1001.08 2379.2 999.803C2378.29 998.521 2376.93 997.674 2375.38 997.415C2375.05 997.362 2374.72 997.336 2374.4 997.336Z" fill="#371A45"/>
<path d="M2458.54 992.748C2483.18 992.748 2503.15 972.778 2503.15 948.144C2503.15 923.509 2483.18 903.54 2458.54 903.54C2433.91 903.54 2413.94 923.509 2413.94 948.144C2413.94 972.778 2433.91 992.748 2458.54 992.748Z" fill="#FF1B40"/>
<g opacity="0.3">
<path d="M2484.46 984.437C2464.42 998.756 2436.56 994.113 2422.24 974.064C2410.64 957.816 2411.49 936.437 2422.91 921.306C2419.8 933.577 2421.91 947.079 2429.84 958.192C2444.16 978.241 2472.02 982.884 2492.06 968.565C2495.87 965.85 2499.11 962.658 2501.77 959.102C2499.27 968.976 2493.4 978.055 2484.46 984.437Z" fill="#232323"/>
</g>
<g opacity="0.55">
<path d="M2499.26 966.356C2501.85 954.476 2499.6 941.577 2491.98 930.912C2477.66 910.863 2449.81 906.22 2429.76 920.539C2423.05 925.328 2418.06 931.646 2414.95 938.673C2417.21 928.226 2423.22 918.553 2432.62 911.842C2452.66 897.523 2480.52 902.166 2494.84 922.215C2504.38 935.572 2505.5 952.387 2499.26 966.356Z" fill="white"/>
</g>
<path d="M2458.65 997.688C2455.91 997.688 2453.15 997.46 2450.4 997.001C2437.35 994.826 2425.92 987.698 2418.23 976.931C2410.54 966.164 2407.51 953.049 2409.69 939.997C2411.86 926.948 2418.99 915.527 2429.76 907.836C2440.52 900.148 2453.63 897.111 2466.69 899.284C2479.74 901.459 2491.16 908.588 2498.85 919.355C2514.73 941.579 2509.56 972.575 2487.33 988.451C2478.84 994.516 2468.88 997.688 2458.65 997.688ZM2458.46 908.459C2450.26 908.459 2442.29 910.998 2435.48 915.859C2426.86 922.016 2421.15 931.167 2419.41 941.618C2417.66 952.072 2420.1 962.577 2426.26 971.203C2432.42 979.826 2441.57 985.535 2452.02 987.28C2462.47 989.023 2472.98 986.591 2481.6 980.428C2499.41 967.713 2503.55 942.885 2490.83 925.082C2484.67 916.459 2475.52 910.749 2465.07 909.008C2462.86 908.64 2460.65 908.459 2458.46 908.459Z" fill="#371A45"/>
<path d="M2471.71 972.573C2485.1 965.326 2490.08 948.594 2482.84 935.201C2475.59 921.808 2458.86 916.825 2445.46 924.072C2432.07 931.319 2427.09 948.052 2434.34 961.445C2441.58 974.838 2458.32 979.82 2471.71 972.573Z" fill="#45C1F7"/>
<g opacity="0.3">
<path d="M2477.99 967.673C2481.37 959.237 2480.52 949.305 2474.84 941.359C2465.99 928.965 2448.77 926.095 2436.38 934.947C2435.14 935.833 2434.01 936.797 2432.97 937.843C2434.86 933.124 2438.07 928.88 2442.51 925.703C2454.91 916.851 2472.13 919.722 2480.98 932.115C2488.94 943.267 2487.42 958.326 2477.99 967.673Z" fill="#232323"/>
</g>
<path d="M2458.58 978.17C2449.2 978.17 2439.96 973.8 2434.1 965.602C2429.44 959.071 2427.6 951.118 2428.91 943.203C2430.23 935.29 2434.56 928.364 2441.08 923.701C2454.56 914.079 2473.36 917.206 2482.99 930.685C2487.65 937.213 2489.49 945.168 2488.17 953.083C2486.85 960.996 2482.53 967.921 2476 972.584C2470.72 976.356 2464.62 978.17 2458.58 978.17ZM2458.51 923.044C2453.46 923.044 2448.36 924.557 2443.95 927.708C2438.49 931.607 2434.88 937.397 2433.77 944.013C2432.67 950.629 2434.21 957.279 2438.11 962.735C2442.01 968.194 2447.8 971.807 2454.41 972.911C2461.02 974.015 2467.68 972.474 2473.13 968.576C2478.59 964.677 2482.21 958.887 2483.31 952.271C2484.41 945.655 2482.87 939.007 2478.98 933.55C2474.08 926.698 2466.35 923.044 2458.51 923.044Z" fill="#371A45"/>
<path d="M2583.04 946.963C2582.62 946.963 2582.2 946.909 2581.77 946.795C2532.29 933.577 2487.39 870.342 2495.98 825.97C2496.5 823.299 2499.07 821.549 2501.75 822.069C2504.42 822.587 2506.17 825.172 2505.65 827.845C2498.05 867.13 2539.95 925.423 2584.31 937.274C2586.94 937.977 2588.51 940.677 2587.8 943.307C2587.21 945.508 2585.22 946.963 2583.04 946.963Z" fill="#371A45"/>
<g opacity="0.3">
<path d="M2315.35 1094.24C2290.46 1079.89 2275.28 1060.49 2269.83 1036.06C2283.58 1058.55 2318.23 1052.38 2318.23 1052.38L2330.85 1055.34L2343.39 1072.9L2330.69 1090.79C2327.23 1095.7 2320.56 1097.23 2315.35 1094.24Z" fill="#232323"/>
</g>
<g opacity="0.2">
<path d="M2756.97 1193.41C2756.97 1193.41 2688.79 1143.83 2603.04 1157.99C2511.05 1173.17 2441.01 1214.37 2322.8 1206.61C2177.05 1197.01 2075.33 1031.5 2075.33 1031.5C2075.33 1031.5 2177.88 731.172 2176.45 611.799C2194.48 613.623 2211.73 618.947 2228.41 626.553C2217.91 738.264 2116.72 1023.99 2193.08 1091.51C2327.94 1210.78 2426.18 929.018 2442.81 757.853C2453.89 760.505 2465.21 761.861 2476.89 761.642C2489.06 761.418 2500.72 759.71 2512.06 756.946C2469.75 891.119 2417.7 1118.75 2557.9 1102.41C2716.79 1083.88 2695.24 825.158 2790.72 681.33C2799.79 682.751 2809.21 684.638 2818.98 687.071C2818.98 687.069 2755.24 1190.26 2756.97 1193.41Z" fill="#371A45"/>
</g>
</svg>
