<svg width="2493" height="3377" viewBox="0 0 2493 3377" fill="none" xmlns="http://www.w3.org/2000/svg">
<path d="M945.058 2607.42C945.058 2607.42 1213.25 2795.98 821.12 3322.36C802.696 3347.1 766.278 3348.78 745.821 3325.7C635.953 3201.76 350.355 2838.56 564.203 2624.52L945.058 2607.42Z" fill="#E6A800"/>
<path d="M889.953 2608.77C889.953 2608.77 1080.28 2742.58 800.785 3116.32C788.549 3132.68 764.371 3133.78 750.781 3118.52C674.398 3032.77 468.368 2773.31 620.677 2620.86L889.953 2608.77Z" fill="#FFFC01"/>
<path d="M845.381 2596.45C845.381 2596.45 973.803 2686.74 785.214 2938.92C776.958 2949.96 760.643 2950.7 751.473 2940.41C699.933 2882.54 560.912 2707.47 663.684 2604.61L845.381 2596.45Z" fill="#FFFC01"/>
<path d="M782.02 3356.81C763.927 3356.81 746.825 3349.14 734.747 3335.51C680.064 3273.82 579.457 3150.14 520.069 3014.85C445.782 2845.62 457.11 2710.77 553.734 2614.06C556.346 2611.45 559.845 2609.9 563.539 2609.74L944.393 2592.63C947.694 2592.51 950.892 2593.43 953.568 2595.32C956.512 2597.39 1025.88 2647.35 1044.72 2764.98C1069.4 2918.98 998.16 3109.49 832.99 3331.21C821.501 3346.62 803.918 3355.94 784.745 3356.75C783.834 3356.79 782.926 3356.81 782.02 3356.81ZM570.695 2639.04C487.267 2726.03 479.34 2848.43 547.17 3002.95C604.931 3134.54 703.364 3255.49 756.897 3315.88C763.643 3323.49 773.301 3327.56 783.491 3327.18C793.723 3326.74 803.115 3321.77 809.255 3313.52C1008.22 3046.44 1031.34 2871.02 1015.69 2770.89C1001.55 2680.39 953.847 2634.07 940.182 2622.45L570.695 2639.04Z" fill="#371A45"/>
<path d="M1801.08 1260C1801.08 1260 2166.31 1429.92 2167.85 1537.99C2170.99 1757.94 1961.38 2128.94 1851.99 2175.68C1718.87 2232.57 1334.87 2017.54 1334.87 2017.54L1801.08 1260Z" fill="white"/>
<path d="M1334.88 2017.54C1334.88 2017.54 1718.88 2232.57 1851.97 2175.67C1892.17 2158.49 1945.94 2097.47 1997.7 2016.3C2086.73 1876.62 2169.82 1677.1 2167.85 1538C2166.3 1429.91 1801.06 1260 1801.06 1260L1503.89 1742.89L1334.88 2017.54Z" fill="white"/>
<path d="M1334.88 2017.54C1334.88 2017.54 1718.88 2232.57 1851.97 2175.67C1892.17 2158.49 1945.94 2097.47 1997.7 2016.3C2086.73 1876.62 2169.82 1677.1 2167.85 1538C2167.51 1512.67 2147.14 1483.95 2116.2 1454.8C2015.14 1359.59 1801.06 1260 1801.06 1260L1773.25 1305.19L1503.89 1742.89L1334.88 2017.54Z" fill="white"/>
<path d="M1773.25 1305.19C1928.93 1411.47 2049.29 1444.69 2116.2 1454.8C2015.14 1359.59 1801.06 1260 1801.06 1260L1773.25 1305.19Z" fill="#DFE7F2"/>
<path d="M1334.88 2017.54C1334.88 2017.54 1718.88 2232.57 1851.97 2175.67C1892.17 2158.49 1945.94 2097.47 1997.7 2016.3L1503.89 1742.89L1334.88 2017.54Z" fill="#DFE7F2"/>
<path d="M1796.52 2196.67C1633.18 2196.67 1343.14 2035.45 1329.21 2027.65L1318.68 2021.75L1796.61 1245.15L1805.97 1249.5C1844.02 1267.2 2177.84 1425.72 2179.44 1537.83C2180.89 1639.67 2138.23 1781.57 2062.39 1927.14C1992.69 2060.95 1911.89 2162.69 1856.54 2186.34C1839.75 2193.51 1819.37 2196.67 1796.52 2196.67ZM1351.13 2013.22C1413.49 2046.9 1733.03 2213.93 1847.43 2165.03C1897.37 2143.69 1975.5 2043.79 2041.84 1916.44C2114.87 1776.26 2157.65 1634.84 2156.27 1538.16C2155.12 1457.95 1911.15 1325.13 1805.52 1274.9L1351.13 2013.22Z" fill="#371A45"/>
<path d="M2081.2 1905.17C2068.02 1877.59 1928.76 1812.11 1928.76 1812.11C1912.76 1806.15 1894.77 1811.73 1884.99 1825.72C1849.17 1876.91 1772.68 1999.32 1807.18 2067.27C1835.81 2123.68 1906.33 2138.05 1956.22 2121.56C1995.15 2108.7 2023.6 2063.79 2047.35 2016.7C2073.1 1965.68 2091.49 1926.7 2081.2 1905.17Z" fill="white"/>
<path d="M2047.36 2016.72C2035.13 2041.01 2021.6 2064.69 2006.03 2083.69C1991.47 2101.58 1975.07 2115.33 1956.22 2121.56C1906.33 2138.05 1835.82 2123.69 1807.19 2067.26C1780.13 2013.96 1821.38 1927.09 1857.69 1867.46C1857.73 1867.42 1857.74 1867.37 1857.74 1867.37C1867.69 1851.02 1877.3 1836.72 1884.99 1825.71C1894.76 1811.73 1912.77 1806.13 1928.76 1812.12C1928.76 1812.12 2068.04 1877.58 2081.22 1905.19C2091.47 1926.68 2073.1 1965.69 2047.36 2016.72Z" fill="white"/>
<path d="M2006.03 2083.69C1991.47 2101.58 1975.07 2115.33 1956.22 2121.56C1906.33 2138.05 1835.82 2123.69 1807.19 2067.26C1780.13 2013.96 1821.38 1927.09 1857.69 1867.46C1856.78 1870.19 1833.11 1938.71 1856.56 1943.54C1874.99 1947.38 1900.52 1918.26 1902.05 1916.55C1900.46 1920.99 1852.72 2055.91 1925.97 2081.71C1958.89 2093.34 1985.45 2091.25 2006.03 2083.69Z" fill="#DFE7F2"/>
<path d="M1915.21 2141.85C1867.99 2141.85 1818.46 2120.2 1794.78 2073.56C1758.14 2001.39 1828.43 1882.31 1873.59 1817.75C1887 1798.59 1911.69 1790.9 1933.61 1799.08L1934.67 1799.52C1968.39 1815.38 2079.53 1869.43 2093.74 1899.17C2106.63 1926.14 2088.65 1965.7 2059.76 2022.96C2036.1 2069.86 2005.81 2119.82 1960.58 2134.77C1946.41 2139.45 1930.94 2141.85 1915.21 2141.85ZM1915.67 1823.65C1908.15 1823.65 1900.88 1827.26 1896.38 1833.69C1870.25 1871.04 1787.5 1997.8 1819.57 2060.97C1844.36 2109.81 1906.3 2123.43 1951.86 2108.36C1987.67 2096.53 2015.07 2049.82 2034.94 2010.44C2053.51 1973.63 2076.62 1927.83 2068.65 1911.17C2061.86 1896.95 1988.1 1855.42 1923.42 1824.96C1920.88 1824.07 1918.26 1823.65 1915.67 1823.65Z" fill="#371A45"/>
<path d="M1899.74 2139.43C1873.03 2131.62 1857.32 2104.63 1852.91 2079.22C1844.96 2031.27 1863.4 1986.02 1884.24 1944.78C1894.86 1924.76 1905.89 1904.38 1921.46 1887.78C1907.62 1905.65 1898.68 1926.7 1890.07 1947.43C1874.3 1987.38 1860 2033.08 1871.07 2075.11C1875.54 2092.45 1888.2 2112.02 1905.48 2115.44C1922.54 2118.98 1916.62 2143.97 1899.74 2139.43Z" fill="#371A45"/>
<path d="M1960 1422.73C2019.8 1441.58 2075.1 1471.98 2124.74 1509.88C2098.85 1493.01 2071.68 1478.22 2043.39 1465.91C2015.48 1453.77 1985.91 1443.26 1956.41 1436.69C1946.87 1434.42 1950.48 1420.11 1960 1422.73Z" fill="#371A45"/>
<path d="M1534.76 1029.07C1397.09 877.557 1265.4 743.225 1147.96 649.73L1115.29 820.359L1104.4 1056.34L1358.53 1234.23L1609.02 1187.03L1534.76 1029.07Z" fill="white"/>
<path d="M1467.44 1103.53L1213.31 925.641L1223.11 713.256C1197.5 690.46 1172.42 669.198 1147.96 649.73L1115.29 820.359L1104.4 1056.34L1358.53 1234.23L1609.02 1187.03L1561.44 1085.82L1467.44 1103.53Z" fill="#DFE7F2"/>
<path d="M1253.25 1054.52C1248.79 1054.52 1244.46 1052.17 1242.13 1047.99C1238.73 1041.85 1240.94 1034.11 1247.07 1030.7C1308.88 996.367 1345.95 928.659 1348.78 844.943C1349.02 837.929 1354.81 832.446 1361.91 832.672C1368.92 832.909 1374.42 838.788 1374.18 845.802C1371.09 937.284 1328.19 1014.71 1259.42 1052.92C1257.46 1054.01 1255.34 1054.52 1253.25 1054.52Z" fill="#371A45"/>
<path d="M1358.52 1246.93C1355.94 1246.93 1353.39 1246.14 1351.24 1244.64L1097.11 1066.74C1093.54 1064.25 1091.5 1060.1 1091.7 1055.75L1102.59 819.772C1102.62 819.167 1102.69 818.564 1102.81 817.968L1135.48 647.341C1136.32 642.973 1139.38 639.36 1143.55 637.815C1147.72 636.272 1152.4 637.022 1155.88 639.79C1260.27 722.898 1383.65 843.879 1544.16 1020.52C1545.01 1021.46 1545.72 1022.52 1546.26 1023.66L1620.52 1181.63C1622.2 1185.18 1622.13 1189.32 1620.34 1192.82C1618.55 1196.32 1615.24 1198.79 1611.38 1199.52L1360.88 1246.71C1360.1 1246.86 1359.31 1246.93 1358.52 1246.93ZM1117.41 1049.94L1361.43 1220.75L1590.54 1177.58L1524.07 1036.2C1373.48 870.551 1256.01 754.423 1156.46 672.922L1127.94 821.855L1117.41 1049.94Z" fill="#371A45"/>
<path d="M960.131 2649.19C960.131 2649.19 1164.45 2626.11 1215.05 2707.53C1246.61 2758.33 1227.96 2928.52 1223.64 3000.72C1220.2 3058.47 1254.12 3052.84 1254.12 3052.84C1254.12 3052.84 1406.05 2914.9 1457.63 2742.62C1457.67 2742.58 1457.67 2742.58 1457.67 2742.58C1479.72 2668.9 1483.46 2588.96 1449.11 2510.82C1414.14 2431.13 1346.37 2382.96 1277.01 2353.77C1169.73 2308.66 1058.52 2309.11 1058.52 2309.11L960.131 2649.19Z" fill="#FF4545"/>
<path d="M960.131 2649.19C960.131 2649.19 1164.45 2626.11 1215.05 2707.53C1246.61 2758.33 1227.96 2928.52 1223.64 3000.72C1220.2 3058.47 1254.12 3052.84 1254.12 3052.84C1254.12 3052.84 1406.05 2914.9 1457.63 2742.62C1455.14 2745.48 1363.32 2851.02 1301.63 2820.84C1269.41 2805.1 1284.52 2732.47 1256.95 2670.18C1229.36 2607.85 1222.61 2538.31 1241.88 2472.93L1277.01 2353.77C1169.73 2308.66 1058.52 2309.11 1058.52 2309.11L960.131 2649.19Z" fill="#E52E2E"/>
<path d="M1251.77 3067.5C1245.77 3067.5 1235.25 3066.08 1225.81 3057.58C1213.15 3046.18 1207.55 3026.76 1209.16 2999.86C1209.79 2989.26 1210.73 2976.57 1211.77 2962.46C1217.16 2889.8 1227.18 2754.55 1202.71 2715.18C1165.18 2654.8 1016.06 2657.5 961.769 2663.62C956.92 2664.18 952.17 2662.27 949.04 2658.56C945.91 2654.85 944.841 2649.82 946.189 2645.16L1044.57 2305.06C1046.37 2298.87 1052.02 2294.59 1058.47 2294.57C1058.6 2294.57 1058.76 2294.57 1058.96 2294.57C1077.39 2294.57 1371.44 2297.94 1462.42 2504.98C1511.28 2616.19 1492.11 2748.38 1406.98 2887.25C1343.55 2990.73 1267.1 3060.67 1263.88 3063.6C1261.81 3065.47 1259.25 3066.71 1256.5 3067.17C1255.99 3067.25 1254.27 3067.5 1251.77 3067.5ZM1022.96 2631.59C1090.47 2631.59 1191.38 2641.94 1227.38 2699.85C1254.57 2743.6 1248.89 2854.63 1240.74 2964.61C1239.71 2978.57 1238.77 2991.12 1238.15 3001.6C1237.16 3018.16 1239.64 3030.6 1244.96 3035.73C1246.2 3036.93 1247.52 3037.61 1248.69 3038C1285.32 3002.78 1537.59 2748.27 1435.82 2516.66C1360.87 2346.1 1122.97 2326.22 1069.35 2323.91L979.948 2632.97C991.134 2632.25 1005.99 2631.59 1022.96 2631.59Z" fill="#371A45"/>
<g opacity="0.6">
<path d="M1338.78 2437.22C1338.78 2437.22 1430.17 2508.36 1420.07 2642.53C1420.07 2642.53 1357.39 2547.97 1338.78 2437.22Z" fill="white"/>
</g>
<path d="M562.003 2669.98C562.003 2669.98 356.39 2668.31 314.545 2754.56C288.454 2808.36 324.729 2975.69 336.544 3047.05C345.977 3104.13 311.652 3102.06 311.652 3102.06C311.652 3102.06 146.182 2980.69 76.9436 2814.73C76.8956 2814.68 76.8956 2814.68 76.8956 2814.68C47.2876 2743.71 35.2496 2664.59 61.2676 2583.3C87.7466 2500.4 150.128 2445.43 216.078 2409.18C318.073 2353.14 428.729 2342 428.729 2342L562.003 2669.98Z" fill="#FF4545"/>
<path d="M562.002 2669.98C562.002 2669.98 356.389 2668.31 314.544 2754.56C288.453 2808.36 324.728 2975.69 336.543 3047.05C345.976 3104.13 311.651 3102.06 311.651 3102.06C311.651 3102.06 146.181 2980.69 76.9434 2814.73C79.7134 2817.31 182.028 2912.71 240.243 2876.27C270.646 2857.25 248.051 2786.6 268.985 2721.77C289.931 2656.91 289.401 2587.04 263.422 2524.02L216.078 2409.18C318.073 2353.14 428.729 2342 428.729 2342L562.002 2669.98Z" fill="#E52E2E"/>
<path d="M312.007 3116.59C311.414 3116.59 310.994 3116.57 310.781 3116.56C307.998 3116.39 305.32 3115.42 303.071 3113.77C299.56 3111.2 216.242 3049.6 142.375 2953.29C43.2444 2824.05 10.4124 2694.57 47.4314 2578.87C117.072 2361.21 414.628 2328.81 427.262 2327.53C433.649 2326.9 439.747 2330.54 442.172 2336.51L575.446 2664.51C577.272 2669.01 576.73 2674.12 574.006 2678.14C571.303 2682.12 566.799 2684.5 561.989 2684.5C561.039 2684.46 560.226 2684.49 559.313 2684.49C502.731 2684.49 358.144 2697.97 327.611 2760.88C307.374 2802.58 331.429 2936.05 344.352 3007.75C346.862 3021.68 349.12 3034.21 350.853 3044.68C355.257 3071.27 351.707 3091.16 340.304 3103.81C329.705 3115.58 316.299 3116.59 312.007 3116.59ZM419.492 2357.85C366.404 2365.72 131.867 2410.28 75.0934 2587.72C-2.00362 2828.68 275.45 3055.55 315.518 3086.74C316.617 3086.23 317.867 3085.41 318.98 3084.09C323.738 3078.43 324.913 3065.8 322.203 3049.43C320.487 3039.07 318.253 3026.68 315.772 3012.91C296.212 2904.38 278.997 2794.54 301.485 2748.21C338.736 2671.44 484.827 2658.17 540.599 2655.91L419.492 2357.85Z" fill="#371A45"/>
<path d="M382.783 2587.75L413.363 2701.49C427.197 2752.94 468.167 2792.64 520.031 2804.86C674.474 2841.23 835.926 2834.64 986.894 2785.81C1037.59 2769.42 1075.19 2726.51 1084.79 2674.1L1106.01 2558.25L382.783 2587.75Z" fill="#E52E2E"/>
<path d="M1344.91 1897.5C1342.41 1914.95 1339.67 1932.09 1336.82 1948.87C1317.35 2062.39 1290.48 2160.45 1261.87 2242.64C1251.68 2272.03 1241.29 2299.34 1230.89 2324.69C1167.5 2479.45 1106 2558.28 1106 2558.28C1062.33 2576.46 1017.77 2591.65 972.413 2603.7C970.619 2604.15 968.828 2604.66 967.034 2605.11C781.835 2653.27 586.079 2649.82 401.517 2593.57C395.286 2591.71 389.05 2589.77 382.854 2587.73C382.854 2587.73 189.265 2377.77 90.77 1948.27C52.954 1783.62 29.1741 1586.7 35.5811 1356.98C57.5601 572.054 437.317 178.146 583.378 55.146C616.54 27.219 664.446 25.163 699.772 50.296C796.964 119.446 993.954 286.761 1148.93 593.242C1217.95 729.821 1278.69 893.96 1318.47 1089.37C1329.64 1144.08 1339.17 1201.25 1346.7 1260.93C1348.56 1274.92 1350.21 1289.1 1351.82 1303.33C1376.89 1531.95 1369.16 1730.29 1344.91 1897.5Z" fill="white"/>
<path d="M1344.91 1897.5C1342.41 1914.95 1339.67 1932.09 1336.82 1948.87C1317.35 2062.39 1290.48 2160.45 1261.87 2242.64C1251.68 2272.03 1241.29 2299.34 1230.89 2324.69C1167.5 2479.45 1106 2558.28 1106 2558.28C1062.33 2576.46 1017.77 2591.65 972.413 2603.7C970.619 2604.15 968.828 2604.66 967.034 2605.11C781.835 2653.27 586.079 2649.82 401.517 2593.57C395.286 2591.71 389.05 2589.77 382.854 2587.73C382.854 2587.73 189.265 2377.77 90.77 1948.27C52.954 1783.62 29.1741 1586.7 35.5811 1356.98C57.5601 572.054 437.317 178.146 583.378 55.146C616.54 27.219 664.446 25.163 699.772 50.296C796.964 119.446 993.954 286.761 1148.93 593.242C1217.95 729.821 1278.69 893.96 1318.47 1089.37C1329.64 1144.08 1339.17 1201.25 1346.7 1260.93C1348.56 1274.92 1350.21 1289.1 1351.82 1303.33C1376.89 1531.95 1369.16 1730.29 1344.91 1897.5Z" fill="white"/>
<path d="M1344.92 1897.51C1342.4 1914.92 1339.68 1932.1 1336.81 1948.86C1327.8 2001.6 1317.15 2050.99 1305.46 2097.01C1292.05 2150.1 1277.25 2198.67 1261.9 2242.67C1251.66 2272.01 1241.32 2299.33 1230.88 2324.69C1167.52 2479.48 1106 2558.3 1106 2558.3C1062.34 2576.45 1017.79 2591.65 972.4 2603.7C970.647 2604.16 968.836 2604.68 967.018 2605.09C781.843 2653.3 586.063 2649.8 401.499 2593.56C395.276 2591.74 389.044 2589.74 382.873 2587.73C382.873 2587.73 248.739 2442.28 146.981 2145.86C126.46 2086.15 107.273 2020.3 90.7674 1948.3C52.9374 1783.6 29.1724 1586.67 35.5604 1356.97C57.5624 572.025 437.319 178.156 583.354 55.1441C616.519 27.2471 664.452 25.1721 699.773 50.2901C796.954 119.422 993.938 286.779 1148.92 593.222C1217.94 729.82 1278.66 893.937 1318.46 1089.36C1329.65 1144.1 1339.2 1201.27 1346.72 1260.93C1348.56 1274.93 1350.22 1289.12 1351.82 1303.31C1376.87 1531.98 1369.15 1730.31 1344.92 1897.51Z" fill="white"/>
<path d="M1305.45 2097.01C1292.05 2150.1 1277.24 2198.67 1261.89 2242.67C1251.66 2272.01 1241.32 2299.32 1230.88 2324.69C1167.52 2479.47 1106 2558.3 1106 2558.3C1062.34 2576.45 1017.79 2591.65 972.399 2603.7C970.646 2604.16 968.835 2604.68 967.017 2605.08C781.842 2653.3 586.062 2649.8 401.498 2593.56C395.275 2591.74 389.043 2589.74 382.872 2587.73C382.872 2587.73 248.738 2442.28 146.98 2145.86C306.652 2274.6 510.774 2304.08 741.834 2292.01C966.173 2280.3 1161.22 2232.24 1305.45 2097.01Z" fill="#DFE7F2"/>
<path d="M1193.01 687.32C1053.03 663.322 911.671 651.3 770.393 651.226C559.542 651.059 348.984 677.413 143.711 730.119C272.854 351.628 483.12 139.575 583.314 55.1401C616.526 27.1871 664.454 25.23 699.847 50.373C702.536 52.277 705.321 54.267 708.156 56.3461C817.978 136.266 1037.52 329.828 1193.01 687.32Z" fill="#FF4545"/>
<path d="M143.713 744.623C139.721 744.623 135.839 742.975 133.054 739.965C129.431 736.049 128.247 730.463 129.971 725.412C256.704 353.937 459.668 141.511 569.373 47.9461C610.345 13.0021 669.473 10.5851 713.165 42.0771C830.15 126.391 1049.78 321.581 1206.35 681.508C1208.48 686.401 1207.75 692.065 1204.46 696.264C1201.16 700.461 1195.84 702.514 1190.58 701.616C841.406 641.782 490.403 656.098 147.325 744.167C146.128 744.474 144.917 744.623 143.713 744.623ZM645 49.0641C624.746 49.0641 604.561 56.1081 588.22 70.0461C483.291 159.533 291.196 360.21 166.309 709.455C496.294 628.405 833.285 614.66 1168.83 668.564C1015.91 330.644 808.072 146.281 696.182 65.6371C680.803 54.5551 662.876 49.0641 645 49.0641Z" fill="#371A45"/>
<path d="M704.284 2653.26C593.517 2653.26 484.074 2635.93 378.327 2601.59C375.956 2600.82 373.823 2599.45 372.133 2597.61C368.285 2593.44 276.857 2493.01 187.211 2289.05C104.767 2101.48 9.02267 1787.46 21.0877 1356.63C27.4107 1130.79 64.0197 918.416 129.899 725.416C131.576 720.499 135.722 716.917 140.692 715.887C487.577 626.92 842.442 612.491 1195.48 672.989C1200.31 673.817 1204.39 677.02 1206.35 681.507C1287.73 868.507 1341.51 1077.19 1366.2 1301.77C1413.31 1730.18 1343.48 2050.96 1276.61 2244.62C1203.88 2455.2 1120.96 2562.74 1117.46 2567.22C1115.93 2569.18 1113.92 2570.72 1111.62 2571.68C995.696 2620.1 873.252 2647.25 747.688 2652.38C733.202 2652.96 718.727 2653.26 704.284 2653.26ZM391.054 2575.18C506.152 2612.07 625.719 2628.3 746.503 2623.35C867.301 2618.42 985.121 2592.54 1096.78 2546.39C1110.46 2527.75 1185.04 2421.34 1249.66 2233.66C1315.29 2043.05 1383.77 1727.2 1337.33 1304.94C1313.27 1086.15 1261.3 882.775 1182.83 700.299C838.768 642.416 493.007 656.525 154.86 742.245C91.5177 930.492 56.2787 1137.43 50.1207 1357.44C38.2287 1782.08 132.223 2091.31 213.17 2275.93C292.875 2457.73 375.89 2557.71 391.054 2575.18Z" fill="#371A45"/>
<path d="M719.33 2842.53C651.41 2842.53 583.417 2834.7 516.703 2818.99C459.555 2805.53 414.584 2761.95 399.34 2705.26L368.762 2591.52C366.679 2583.77 371.269 2575.8 379.016 2573.72C386.755 2571.61 394.727 2576.23 396.809 2583.98L427.388 2697.72C439.854 2744.08 476.629 2779.72 523.36 2790.72C675.235 2826.49 833.97 2820.01 982.43 2771.99C1028.11 2757.22 1061.86 2718.71 1070.51 2671.48L1091.72 2555.63C1093.17 2547.74 1100.74 2542.49 1108.62 2543.97C1116.51 2545.41 1121.73 2552.97 1120.29 2560.86L1099.08 2676.71C1088.5 2734.46 1047.23 2781.56 991.366 2799.63C903.082 2828.18 811.273 2842.53 719.33 2842.53Z" fill="#371A45"/>
<path d="M1071.85 1746.96C1037.22 1893.81 913.643 2009.95 755.117 2027.64C586.248 2046.55 431.271 1947.72 372.26 1796.62L372.212 1796.58C360.781 1767.37 352.97 1736.15 349.311 1703.49C326.743 1501.91 471.887 1320.2 673.465 1297.68C875.086 1275.11 1056.75 1420.26 1079.32 1621.83C1084.11 1664.89 1081.27 1707.07 1071.85 1746.96Z" fill="#DFE7F2"/>
<path d="M1065.47 1624.73C1030.84 1771.59 907.26 1887.73 748.734 1905.42C579.865 1924.32 424.888 1825.5 365.877 1674.4L365.829 1674.36C354.398 1645.14 346.587 1613.93 342.928 1581.26C320.36 1379.69 465.504 1197.98 667.082 1175.46C868.703 1152.89 1050.36 1298.03 1072.93 1499.61C1077.73 1542.66 1074.89 1584.85 1065.47 1624.73Z" fill="#C6C6C6"/>
<g opacity="0.7">
<path d="M1068.63 1471.16C1011.62 1307.96 847.796 1199.74 668.719 1219.81C505.224 1238.08 377.788 1357.74 341.979 1509.11C356.397 1337.96 489.901 1195.25 667.084 1175.46C859.084 1153.98 1032.99 1284.58 1068.63 1471.16Z" fill="white"/>
</g>
<path d="M1065.47 1624.73C1030.84 1771.59 907.26 1887.73 748.734 1905.42C579.865 1924.32 424.888 1825.5 365.877 1674.4C365.877 1674.4 469.55 1738.37 450.51 1575.65L957.015 1549.2C955.028 1713.02 1051.52 1638.59 1051.52 1638.59L1065.47 1624.73Z" fill="#ACB3C1"/>
<path d="M707.648 1922.26C515.956 1922.26 350.295 1777.75 328.498 1582.88C317.163 1481.53 345.971 1381.83 409.621 1302.15C473.271 1222.47 564.14 1172.35 665.49 1161.01C766.843 1149.67 866.537 1178.49 946.218 1242.13C1025.9 1305.78 1076.02 1396.65 1087.36 1498C1110.76 1707.22 959.585 1896.47 750.366 1919.88C736.024 1921.48 721.752 1922.26 707.648 1922.26ZM708.612 1187.64C695.372 1187.64 682.069 1188.38 668.717 1189.87C575.077 1200.35 491.119 1246.66 432.313 1320.28C373.504 1393.89 346.886 1486.01 357.359 1579.65C378.978 1772.95 553.821 1912.63 747.137 1891.01C940.44 1869.39 1080.11 1694.53 1058.49 1501.23C1048.02 1407.59 1001.71 1323.63 928.089 1264.82C864.967 1214.4 788.234 1187.64 708.612 1187.64Z" fill="#371A45"/>
<path d="M884.088 1717.44C983.963 1617.57 983.963 1455.64 884.088 1355.76C784.214 1255.89 622.285 1255.89 522.411 1355.76C422.536 1455.64 422.536 1617.57 522.411 1717.44C622.285 1817.32 784.214 1817.32 884.088 1717.44Z" fill="#64D0FF"/>
<path d="M713.818 1743.13C604.815 1748.82 509.909 1668.2 497.762 1559.59C485.088 1446.27 566.972 1343.77 680.29 1331.09C684.413 1330.63 688.602 1330.29 692.726 1330.07C801.729 1324.38 896.636 1405 908.782 1513.62C921.462 1626.94 839.578 1729.44 726.26 1742.11C722.131 1742.57 717.948 1742.92 713.824 1743.13C713.824 1743.13 713.824 1743.13 713.818 1743.13Z" fill="#64D0FF"/>
<path d="M726.259 1742.13C722.116 1742.59 717.967 1742.93 713.812 1743.14C604.79 1748.84 509.888 1668.19 497.781 1559.56C495.358 1537.81 496.387 1516.43 500.531 1496.06C528.01 1584.58 612.779 1646.02 708.479 1641.03C712.635 1640.81 716.784 1640.47 720.926 1640.01C812.492 1629.77 883.471 1560.93 900.681 1475.1C904.574 1487.46 907.268 1500.31 908.757 1513.59C921.48 1626.96 839.574 1729.47 726.259 1742.13Z" fill="#43AFFF"/>
<path d="M702.75 1806.91C641.739 1806.91 582.96 1786.41 534.591 1747.77C478.187 1702.72 442.704 1638.39 434.681 1566.64C426.656 1494.9 447.049 1424.33 492.108 1367.92C537.164 1311.52 601.488 1276.03 673.233 1268.01C744.991 1259.98 815.552 1280.38 871.956 1325.44C928.36 1370.49 963.843 1434.82 971.866 1506.56C988.431 1654.66 881.417 1788.63 733.314 1805.2C723.095 1806.34 712.887 1806.91 702.75 1806.91ZM703.744 1295.35C694.691 1295.35 685.592 1295.85 676.461 1296.87C612.428 1304.04 555.013 1335.7 514.798 1386.05C474.583 1436.39 456.38 1499.38 463.543 1563.42C470.704 1627.45 502.374 1684.87 552.718 1725.08C603.062 1765.3 666.055 1783.5 730.086 1776.33C862.274 1761.55 957.789 1641.98 943.003 1509.79C935.842 1445.76 904.172 1388.34 853.828 1348.13C810.663 1313.65 758.192 1295.35 703.744 1295.35Z" fill="#371A45"/>
<path d="M879.188 2699.51C889.916 2904.94 782.889 3077.51 782.889 3077.51C782.889 3077.51 658.47 2917.02 647.742 2711.6C637.014 2506.18 744.041 2333.6 744.041 2333.6C744.041 2333.6 868.461 2494.09 879.188 2699.51Z" fill="#22A7F0"/>
<path d="M879.188 2699.51C889.916 2904.94 782.889 3077.51 782.889 3077.51C782.889 3077.51 658.47 2917.02 647.742 2711.6C637.014 2506.18 744.041 2333.6 744.041 2333.6C744.041 2333.6 868.461 2494.09 879.188 2699.51Z" fill="#FF4545"/>
<g opacity="0.6">
<path d="M841.545 2519.29L831.814 2526.11C831.814 2526.11 787.137 2432.84 759.353 2408.07C762.894 2545.48 763.879 2713.15 763.879 2713.15C763.879 2713.15 747.397 2546.33 736.561 2409.31C711.509 2436.88 676.786 2534.21 676.786 2534.21L666.395 2528.39C686.186 2447.92 716.16 2384.97 732.503 2354.22C739.578 2340.9 744.059 2333.62 744.059 2333.62C744.059 2333.62 749.272 2340.35 757.648 2352.81C777.058 2381.65 813.477 2441.23 841.545 2519.29Z" fill="white"/>
</g>
<path d="M879.173 2699.49C889.903 2904.96 782.904 3077.49 782.904 3077.49C782.904 3077.49 658.471 2917.04 647.741 2711.58C645.933 2676.95 647.444 2643.25 651.269 2611.2C686.47 2766.67 727.352 2926.75 774.903 2924.27C822.454 2921.79 846.439 2758.32 865.209 2600.02C872.351 2631.5 877.365 2664.87 879.173 2699.49Z" fill="#E52E2E"/>
<path d="M782.887 3092.03C778.414 3092.03 774.171 3089.96 771.412 3086.4C766.219 3079.7 644.08 2919.94 633.241 2712.35C622.401 2504.77 727.233 2333.15 731.7 2325.95C734.207 2321.91 738.533 2319.35 743.284 2319.1C747.974 2318.81 752.6 2320.94 755.518 2324.7C760.711 2331.4 882.85 2491.17 893.69 2698.76C904.53 2906.34 799.698 3077.95 795.23 3085.16C792.723 3089.2 788.397 3091.76 783.646 3092.01C783.393 3092.02 783.141 3092.03 782.887 3092.03ZM745.472 2360.79C718.954 2410.99 653.934 2551.71 662.245 2710.84C670.553 2869.95 749.857 3003.12 781.469 3050.3C807.995 3000.08 872.995 2859.38 864.687 2700.27C856.364 2540.89 777.084 2407.9 745.472 2360.79Z" fill="#371A45"/>
<g opacity="0.6">
<path d="M163.334 2498.6C163.334 2498.6 79.8528 2578.87 103.873 2711.26C103.873 2711.26 156.358 2610.69 163.334 2498.6Z" fill="white"/>
</g>
<g opacity="0.7">
<path d="M521.107 1541.42C501.06 1528.67 514.741 1439.73 579.284 1381.58C646.154 1321.35 741.831 1329.13 741.781 1353.72C741.712 1387.51 688.516 1380.59 619.592 1441.29C577.332 1478.5 541.154 1554.18 521.107 1541.42Z" fill="white"/>
</g>
<g opacity="0.7">
<path d="M539.403 1642.76C511.505 1616.84 504.57 1575.73 527.313 1566.39C553.797 1555.51 577.465 1588.59 599.111 1609.62C636.569 1646 586.844 1686.83 539.403 1642.76Z" fill="white"/>
</g>
<g opacity="0.5">
<path d="M557.064 163.212C471.102 219.355 321.259 455.421 378.985 525.684C433.901 592.526 643.026 107.069 557.064 163.212Z" fill="white"/>
</g>
<path d="M1897.64 1185.22V1424.82L1877.86 1602.68C1779.33 1814.33 1674.81 2012.33 1560.88 2188.95C1560.85 2189.02 1560.81 2189.1 1560.74 2189.13C1553.66 2200.1 1546.54 2210.99 1539.43 2221.77C1539.43 2221.81 1539.39 2221.84 1539.36 2221.88C1534.16 2229.72 1528.94 2237.53 1523.71 2245.3C1559.83 2287.77 1569.85 2358.89 1550.07 2410.55C1550.03 2410.66 1550.03 2410.77 1549.96 2410.84C1542.3 2430.77 1530.21 2447.8 1513.44 2459.13C1490.96 2474.3 1461.09 2472.23 1439.67 2455.64C1375.41 2405.98 1301.2 2373.05 1229.07 2327.96C1195.19 2306.79 1180.45 2264.14 1195.27 2227.03C1195.37 2226.74 1195.48 2226.49 1195.63 2226.2C1195.63 2226.16 1195.67 2226.13 1195.67 2226.09C1200.75 2213.57 1208.12 2200.86 1217.23 2188.44C1217.23 2188.44 1217.23 2188.41 1217.27 2188.41C1218.43 2186.77 1219.62 2185.21 1220.86 2183.62C1226.92 2175.74 1233.71 2168 1241.04 2160.45C1259.23 2141.72 1275.82 2121.5 1290.89 2100.15C1327.37 2048.42 1362.95 1989.61 1397.88 1925.2C1399.4 1922.41 1400.78 1919.58 1402.02 1916.67C1408.55 1901.64 1411.6 1885.27 1410.84 1868.79C1408.08 1811.32 1393.3 1766.56 1363.97 1737.04L1362.52 1737.88L1359.98 1739.33L1262.32 1795.13C1261.49 1838.8 1291 1900.15 1304.07 1972.58C1308.79 1998.68 1303.45 2024.82 1290.38 2046.42C1285.01 2055.32 1278.33 2063.41 1270.49 2070.46C1263.59 2076.7 1255.78 2082.07 1247.18 2086.39C1153.04 2133.77 1068.93 2183.33 989.494 2184.45C951.048 2185 915.252 2163 900.803 2127.35C896.882 2117.69 894.486 2107.56 893.47 2097.03C887.153 2033.36 931.335 1956.83 1000.93 1904.04C987.498 1851.65 980.527 1800.46 981.29 1750.62C982.016 1702.7 997.88 1656.16 1026.71 1617.89C1081.23 1545.65 1138.89 1479.46 1200.6 1421.2C1259.2 1279.86 1353.08 1170.7 1465.62 1094.46L1538.23 1050.89L1897.64 1185.22Z" fill="white"/>
<path d="M1421.15 2197.17C1438.43 2171.82 1457.93 2147.99 1479.35 2126.04C1492.45 2112.62 1506.93 2099.51 1524.85 2093.99C1542.77 2088.47 1564.95 2092.64 1575.34 2108.25C1586.46 2124.97 1580.66 2147.47 1572.5 2165.81C1560.16 2193.56 1543.22 2219.21 1523 2241.87C1497.81 2213.64 1457.77 2205.18 1420.58 2198.26L1421.15 2197.17Z" fill="#DFE7F2"/>
<path d="M1415.89 1902.48C1412.15 1908.07 1407.97 1913.98 1402.02 1916.67C1408.55 1901.64 1411.6 1885.27 1410.84 1868.78C1408.08 1811.32 1393.31 1766.55 1363.97 1737.04L1362.52 1737.87C1361.76 1736.82 1360.96 1735.8 1360.12 1734.79C1360.05 1734.75 1360.01 1734.68 1359.98 1734.6C1359.58 1734.02 1359.11 1733.48 1358.67 1732.94C1358.56 1732.79 1358.45 1732.68 1358.34 1732.54C1358.24 1732.43 1358.16 1732.32 1358.05 1732.21C1354.24 1727.53 1350.14 1723.02 1346.07 1718.56C1346.04 1718.49 1346 1718.45 1345.93 1718.38C1330.03 1700.92 1314.09 1683.45 1298.15 1665.95C1287.81 1654.63 1277.32 1643.01 1268.86 1630.27L1268.82 1630.23C1262.9 1621.37 1258 1612.01 1254.84 1601.81L1252.7 1599.37V1599.34L1252.05 1598.61L1250.81 1597.2C1251.21 1597.67 1251.61 1598.1 1252.05 1598.54C1252.23 1598.76 1252.45 1598.98 1252.66 1599.19C1285.66 1634.88 1332.28 1654.41 1373.63 1680.22C1415.78 1706.47 1456.26 1745.79 1458.36 1795.38C1459.99 1834.44 1437.52 1869.95 1415.89 1902.48Z" fill="#DFE7F2"/>
<path d="M1552.68 2395.77C1552.17 2400.82 1551.26 2405.76 1550.06 2410.55C1550.03 2410.66 1550.03 2410.77 1549.96 2410.84C1542.3 2430.77 1530.21 2447.8 1513.43 2459.12C1490.96 2474.3 1461.08 2472.23 1439.66 2455.64C1375.41 2405.98 1301.2 2373.05 1229.06 2327.96C1195.19 2306.79 1180.45 2264.14 1195.26 2227.03C1195.37 2226.74 1195.48 2226.49 1195.63 2226.2C1195.63 2226.16 1195.66 2226.13 1195.66 2226.09C1202.85 2213.53 1210.04 2201 1217.23 2188.44C1217.23 2188.44 1217.23 2188.41 1217.26 2188.41C1218.17 2186.77 1219.12 2185.14 1220.06 2183.5L1220.86 2183.61C1225 2182.39 1229.14 2181.17 1233.27 2179.95C1225.27 2197.81 1214.49 2229.66 1227.21 2258.8C1234.7 2275.97 1244.78 2283.91 1289.76 2310.42C1329.37 2333.77 1367.89 2358.96 1405.17 2385.9C1428.3 2402.64 1451.93 2420.5 1479.85 2426.34C1507.77 2432.23 1541.46 2422.02 1552.68 2395.77Z" fill="#DFE7F2"/>
<path d="M1359.98 1739.33L1262.32 1795.12C1261.48 1838.8 1291 1900.15 1304.07 1972.58C1308.79 1998.68 1303.45 2024.82 1290.38 2046.42C1284.1 2054.7 1277.42 2062.72 1270.49 2070.45C1263.59 2076.7 1255.78 2082.07 1247.18 2086.39C1153.04 2133.77 1068.93 2183.32 989.493 2184.45C951.047 2185 915.251 2162.99 900.802 2127.34C896.881 2117.69 894.485 2107.56 893.469 2097.03C905.159 2122.33 933.403 2137.91 961.43 2140.81C991.417 2143.9 1021.29 2135.04 1049.58 2124.59C1087.04 2110.75 1123.45 2093.94 1158.31 2074.41C1189.53 2056.88 1222.64 2032.34 1226.01 1996.72C1227.47 1981.58 1223.18 1966.59 1218.9 1952C1211.49 1926.58 1204.05 1901.13 1196.64 1875.72C1187.71 1845.15 1178.75 1812.66 1187.13 1781.98C1192.96 1760.67 1201.29 1750.83 1213.02 1731.41C1228.5 1705.77 1246.47 1666.78 1255.06 1609.97C1257.4 1613.57 1259.82 1617.2 1262.32 1620.87C1264.49 1624.05 1266.66 1627.17 1268.82 1630.23L1268.85 1630.27C1294.52 1659.64 1320.22 1689.01 1345.93 1718.38C1346 1718.45 1346.04 1718.49 1346.07 1718.56C1350.06 1723.1 1354.06 1727.67 1358.05 1732.21C1358.16 1732.32 1358.23 1732.43 1358.34 1732.54C1358.45 1732.68 1358.56 1732.79 1358.67 1732.93C1359.1 1733.48 1359.58 1734.02 1359.98 1734.6C1360.01 1734.68 1360.05 1734.75 1360.12 1734.79C1360.07 1736.3 1360.02 1737.81 1359.98 1739.33Z" fill="#DFE7F2"/>
<path d="M1465.62 1094.46C1444.14 1123.38 1413.35 1142.09 1388.56 1167.71C1319.26 1234.56 1263.54 1314.87 1223.14 1402.12C1223.12 1402.13 1212.35 1426.04 1212.34 1426.06C1211.65 1427.74 1210.57 1429.24 1209.32 1430.43C1175.71 1462.2 1143.81 1495.83 1113.41 1530.81C1086.85 1561.33 1061.32 1593.2 1036.9 1625.49C1013.67 1656.3 999.045 1693.52 995.153 1731.91C990.784 1788.43 999.407 1845.73 1013.24 1900.88C1014.54 1905.98 1012.56 1911.16 1008.61 1914.16C949.495 1959.63 886.414 2042.07 911.683 2119.78C957.465 2232.51 1128.76 2131.12 1201.52 2095.44C1213.83 2089.03 1236.01 2078.05 1247.86 2071.47C1280.73 2051.87 1298.83 2011.71 1291.42 1974.06C1284.29 1934.65 1271.46 1896.96 1260.4 1858.09C1254.77 1837.47 1249.5 1816.97 1249.62 1794.88C1249.68 1790.27 1252.21 1786.28 1255.93 1784.14C1256.01 1784.1 1357.58 1726.05 1357.67 1726.01C1362.75 1723.06 1369.05 1724.08 1372.98 1728.08C1383.01 1738.27 1391.37 1749.94 1398.03 1762.3C1411.1 1786.75 1417.77 1813.8 1421.18 1840.9C1425.08 1868.56 1425.22 1898.14 1412.7 1923.97C1382.16 1982.13 1348.58 2038.09 1311.71 2092.4C1297.17 2113.96 1281.05 2135.57 1263.28 2155.23C1224.13 2195.22 1173.82 2252.7 1221.94 2305.82C1230.14 2314.55 1240.47 2319.95 1250.72 2326.3C1272.69 2339.5 1295.19 2352.04 1317.84 2364.64C1351.89 2383.6 1386.46 2402.86 1418.89 2424.99C1429.44 2432.08 1440.07 2440.15 1450.33 2447.68C1494.55 2476.15 1534.49 2432.99 1543.27 2389.29C1553.67 2343.64 1544.04 2289.74 1513.99 2253.48C1510.25 2249.03 1510.09 2242.77 1513.18 2238.19C1647.21 2041.89 1770.02 1801.58 1865.23 1601.28C1865.23 1601.28 1885.01 1423.42 1885.01 1423.42C1885.92 1429.65 1884.19 1184.3 1884.93 1185.21C1884.93 1185.21 1893.19 1197.12 1893.19 1197.12L1533.78 1062.79C1518.36 1056.78 1526.63 1033.49 1542.68 1038.99L1902.09 1173.31C1907.19 1175.22 1910.33 1180.08 1910.35 1185.21C1910.1 1186.77 1910.62 1424.86 1910.27 1426.22C1910.27 1426.23 1890.49 1604.09 1890.49 1604.09C1840.02 1717.13 1783.09 1827.74 1724.4 1936.97C1665.72 2044.76 1602.94 2150.47 1534.24 2252.4L1533.39 2237.06C1551.83 2259.05 1562.96 2285.48 1568.56 2312.5C1576.74 2353.2 1573.66 2397.8 1552.6 2434.68C1528.75 2477.32 1479.4 2497.39 1436.16 2468.77C1395.22 2437.31 1350.77 2411.82 1305.48 2386.84C1282.84 2374.25 1260.07 2361.56 1237.61 2348.07C1225.82 2340.94 1213.1 2333.68 1203.53 2323.33C1144.93 2256.4 1193.04 2189.97 1244.37 2138.25C1294.66 2080.55 1333.44 2012.91 1371.57 1946.65C1376.43 1937.31 1385.45 1922.39 1389.6 1913.39C1396.95 1897.27 1399.4 1880.48 1397.72 1862.65C1395.06 1821.23 1384.6 1775.82 1354.96 1745.99L1370.27 1748.07L1268.62 1806.16L1275.02 1795.37C1274.93 1813.02 1279.59 1832.22 1284.88 1851.26C1295.96 1890.1 1309.17 1929.23 1316.42 1969.5C1320.49 1991.61 1318.23 2015.14 1309.73 2036.09C1299.08 2062.33 1278.79 2084.41 1253.6 2097.33C1203.78 2122.39 1154.89 2149.47 1102.66 2170.76C1030.35 2199.8 933.677 2222.27 891.017 2136.53C853.286 2045.22 923.34 1947.61 993.248 1893.91L988.621 1907.19C974.151 1849.43 965.106 1789.3 969.874 1729.29C974.234 1686.33 990.602 1644.67 1016.61 1610.19C1069.82 1539.73 1127.63 1472.66 1191.88 1411.95C1191.89 1411.94 1188.8 1416.42 1188.88 1416.3L1199.42 1391.31C1240.18 1300.65 1300.38 1218.6 1375.47 1153.44C1403.28 1130.73 1430.16 1104.4 1465.62 1094.46Z" fill="#371A45"/>
<path d="M1166.05 1862.76C1089 1862.76 1025.11 1841.74 975.313 1799.86C970.687 1795.97 970.091 1789.06 973.98 1784.43C977.872 1779.81 984.774 1779.21 989.405 1783.1C1054.94 1838.22 1148.24 1853.98 1266.72 1829.95C1272.62 1828.73 1278.42 1832.57 1279.62 1838.5C1280.83 1844.43 1277 1850.2 1271.07 1851.4C1233.75 1858.97 1198.72 1862.76 1166.05 1862.76Z" fill="#371A45"/>
<path d="M1362.53 1751.67C1341.82 1724.94 1319.18 1699.21 1297.58 1672.42C1276.37 1645.67 1254.61 1617.47 1244.17 1584.56C1259.3 1615.4 1283.49 1639.58 1307.31 1663.71C1329.17 1685.27 1359.98 1714.51 1379.5 1737.83C1388.78 1749.3 1371.94 1763.12 1362.53 1751.67Z" fill="#371A45"/>
<path d="M1520.48 2258.79C1488.41 2217.9 1433.7 2198.63 1382.12 2205.36C1435.34 2190.48 1496.62 2204.31 1536.89 2244.3C1547.42 2255.52 1530.32 2270.65 1520.48 2258.79Z" fill="#371A45"/>
<path d="M1591.17 2152.09C1587.09 2152.09 1583.17 2149.8 1581.29 2145.87C1539.02 2057.47 1421.47 2009.02 1348.57 2026.31C1342.7 2027.71 1336.79 2024.06 1335.4 2018.18C1334 2012.3 1337.64 2006.4 1343.52 2005.01C1426.06 1985.41 1553.73 2037.47 1601.04 2136.42C1603.65 2141.88 1601.34 2148.41 1595.89 2151.02C1594.37 2151.75 1592.76 2152.09 1591.17 2152.09Z" fill="#371A45"/>
<path d="M1215.69 1413.47C1204.95 1440.17 1198.2 1468.19 1200.6 1497.43C1191.49 1468.72 1190.39 1437.39 1196.43 1407.61C1199.86 1393.36 1220.75 1399.69 1215.69 1413.47Z" fill="#371A45"/>
<path d="M1011.16 1899.81C1025.57 1929.79 1057.3 1947.13 1089.87 1953.05C1062.71 1955.41 1034.35 1949.72 1011.88 1933.21C1003.64 1926.89 996.245 1919.14 991.779 1909.73C985.437 1896.74 1004.32 1887.05 1011.16 1899.81Z" fill="#371A45"/>
<path d="M1352.12 1224.82C1354.41 1196.47 1333.29 1171.63 1304.94 1169.33C1276.59 1167.04 1251.75 1188.17 1249.46 1216.51C1247.17 1244.86 1268.29 1269.7 1296.64 1271.99C1324.99 1274.29 1349.83 1253.16 1352.12 1224.82Z" fill="white"/>
<path d="M1257.61 1192.84C1242.26 1216.78 1249.19 1248.65 1273.14 1264C1297.08 1279.35 1328.97 1272.38 1344.32 1248.44C1348.56 1241.82 1351.13 1234.57 1352.04 1227.23C1335.69 1237.41 1314.22 1237.98 1296.93 1226.9C1279.64 1215.81 1271.2 1196.06 1273.66 1176.98C1267.38 1180.87 1261.85 1186.22 1257.61 1192.84Z" fill="#DFE7F2"/>
<path d="M1300.83 1283.05C1289.02 1283.05 1277.45 1279.68 1267.27 1273.16C1238.31 1254.59 1229.86 1215.92 1248.43 1186.96C1266.99 1158 1305.66 1149.54 1334.63 1168.11C1363.59 1186.68 1372.04 1225.35 1353.47 1254.31C1344.48 1268.34 1330.56 1278.03 1314.28 1281.59C1309.81 1282.57 1305.3 1283.05 1300.83 1283.05ZM1301.02 1180.04C1287.63 1180.04 1274.51 1186.64 1266.77 1198.72C1254.68 1217.57 1260.18 1242.73 1279.03 1254.82C1288.17 1260.68 1299.04 1262.63 1309.63 1260.31C1320.22 1257.99 1329.28 1251.69 1335.14 1242.56C1347.22 1223.71 1341.72 1198.54 1322.87 1186.45C1316.1 1182.11 1308.52 1180.04 1301.02 1180.04Z" fill="#371A45"/>
<path d="M1277.19 1357.16L1497.25 1517.46C1523.29 1536.45 1560.15 1530.67 1579.15 1504.59L1664.45 1387.48C1681.08 1364.65 1678.7 1333.57 1660.35 1313.44C1657.76 1310.57 1654.82 1307.95 1651.58 1305.58L1431.55 1145.3C1405.48 1126.3 1368.62 1132.07 1349.65 1158.17L1282.07 1250.91L1264.32 1275.26C1245.31 1301.33 1251.15 1338.18 1277.19 1357.16Z" fill="white"/>
<path d="M1277.19 1357.16L1497.25 1517.47C1523.29 1536.45 1560.15 1530.67 1579.15 1504.6L1664.45 1387.49C1681.08 1364.65 1678.7 1333.57 1660.35 1313.44C1641.8 1312.64 1630 1312.17 1630 1312.17C1550.81 1398.36 1489.9 1425.74 1371.78 1342.61C1320.81 1306.72 1294.6 1275.86 1282.07 1250.91L1264.32 1275.26C1245.31 1301.33 1251.15 1338.18 1277.19 1357.16Z" fill="#DFE7F2"/>
<path d="M1531.51 1539.55C1516.92 1539.55 1502.77 1534.98 1490.81 1526.27L1270.77 1365.98C1239.79 1343.4 1232.95 1299.84 1255.52 1268.85L1340.84 1151.74C1363.41 1120.76 1406.97 1113.91 1437.96 1136.48L1658 1296.77C1688.98 1319.35 1695.82 1362.91 1673.25 1393.9L1587.94 1511.02C1577.04 1525.97 1560.91 1535.8 1542.52 1538.69C1538.84 1539.26 1535.16 1539.55 1531.51 1539.55ZM1397.09 1144.95C1382.33 1144.95 1367.77 1151.75 1358.44 1164.56L1273.12 1281.68C1257.63 1302.96 1262.33 1332.87 1283.6 1348.37L1503.64 1508.66C1513.89 1516.14 1526.51 1519.16 1539.14 1517.17C1551.78 1515.18 1562.86 1508.44 1570.33 1498.19L1655.65 1381.07C1671.14 1359.8 1666.45 1329.88 1645.17 1314.38L1425.13 1154.09C1416.67 1147.92 1406.83 1144.95 1397.09 1144.95Z" fill="#371A45"/>
<path d="M1268.98 1349.86C1271.4 1352.53 1274.13 1354.96 1277.19 1357.16L1497.25 1517.47C1516.34 1531.36 1541.21 1531.99 1560.64 1521.02C1567.71 1517.05 1574.06 1511.54 1579.11 1504.57L1617.03 1452.56L1629.54 1435.4L1664.45 1387.48C1683.45 1361.41 1677.62 1324.56 1651.58 1305.58L1604.02 1270.96C1622.92 1291.05 1625.54 1322.53 1608.75 1345.6L1562.69 1408.87L1523.43 1462.75C1504.45 1488.79 1467.57 1494.6 1441.53 1475.62L1268.98 1349.86Z" fill="white"/>
<path d="M1268.98 1349.86C1271.4 1352.53 1274.13 1354.96 1277.19 1357.16L1497.25 1517.47C1523.29 1536.45 1560.15 1530.67 1579.12 1504.57L1629.54 1435.4C1615.1 1443.59 1594.23 1451.36 1577.17 1441.34C1567.8 1435.87 1563.78 1423.33 1562.7 1408.87L1523.44 1462.75C1504.46 1488.79 1467.57 1494.6 1441.53 1475.62L1268.98 1349.86Z" fill="#DFE7F2"/>
<path d="M1531.5 1539.56C1516.91 1539.56 1502.77 1534.99 1490.82 1526.27L1270.77 1365.96C1267.25 1363.42 1263.93 1360.48 1260.95 1357.24L1275.38 1341.07L1447.96 1466.81C1458.2 1474.28 1470.79 1477.29 1483.44 1475.31C1496.09 1473.32 1507.16 1466.58 1514.62 1456.33L1599.94 1339.2C1613.43 1320.69 1611.81 1295.13 1596.11 1278.41L1610.46 1262.15L1657.99 1296.76C1672.95 1307.67 1682.78 1323.8 1685.67 1342.19C1688.56 1360.58 1684.14 1378.94 1673.24 1393.89L1587.93 1511.01C1577.04 1525.97 1560.91 1535.8 1542.52 1538.69C1538.84 1539.27 1535.15 1539.56 1531.5 1539.56ZM1487.29 1496.75L1503.66 1508.67C1513.9 1516.14 1526.5 1519.15 1539.14 1517.17C1551.78 1515.18 1562.86 1508.44 1570.32 1498.19L1570.32 1498.18L1655.64 1381.06C1663.11 1370.81 1666.13 1358.21 1664.15 1345.57C1662.16 1332.93 1655.42 1321.85 1645.16 1314.36L1630.43 1303.64C1632.24 1320.35 1628.02 1337.65 1617.55 1352.03L1532.23 1469.15C1521.44 1483.97 1505.49 1493.77 1487.29 1496.75Z" fill="#371A45"/>
<path d="M1478.63 1341.92C1475.5 1346.27 1456.35 1385.77 1456.35 1385.77C1456.35 1385.77 1467.47 1393.78 1481.13 1403.6C1498.19 1415.88 1524.73 1408.17 1540.41 1386.38C1556.1 1364.59 1554.98 1336.98 1537.92 1324.7C1526.41 1316.41 1513.14 1306.86 1513.14 1306.86C1513.14 1306.86 1483.73 1334.83 1478.63 1341.92Z" fill="#22A7F0"/>
<path d="M1478.63 1341.92C1475.5 1346.27 1456.35 1385.77 1456.35 1385.77C1456.35 1385.77 1467.47 1393.78 1481.13 1403.6C1498.19 1415.88 1524.73 1408.17 1540.41 1386.38C1556.1 1364.59 1554.98 1336.98 1537.92 1324.7C1526.41 1316.41 1513.14 1306.86 1513.14 1306.86C1513.14 1306.86 1483.73 1334.83 1478.63 1341.92Z" fill="#2577EF"/>
<path d="M1499.8 1416.65C1491.55 1416.65 1483.62 1414.34 1476.89 1409.5L1447.16 1388.1L1449.82 1382.6C1454.38 1373.21 1469.5 1342.19 1472.74 1337.68C1478.09 1330.25 1505.08 1304.51 1508.14 1301.6L1512.5 1297.46L1542.16 1318.8C1552.26 1326.07 1558.14 1337.75 1558.7 1351.68C1559.24 1364.94 1554.84 1378.77 1546.31 1390.62C1534.29 1407.32 1516.4 1416.65 1499.8 1416.65ZM1465.56 1383.45L1485.37 1397.71C1499.15 1407.63 1521.2 1400.65 1534.52 1382.14C1541.16 1372.91 1544.6 1362.3 1544.19 1352.27C1543.81 1342.89 1540.08 1335.2 1533.68 1330.59L1513.8 1316.28C1502.61 1327.05 1487.55 1341.96 1484.53 1346.15C1482.85 1348.57 1474.02 1366.11 1465.56 1383.45Z" fill="#371A45"/>
<path d="M1515.67 1368.72C1531.35 1346.93 1530.23 1319.31 1513.18 1307.04C1496.12 1294.76 1469.57 1302.46 1453.89 1324.25C1438.21 1346.04 1439.32 1373.66 1456.38 1385.94C1473.44 1398.22 1499.98 1390.51 1515.67 1368.72Z" fill="#22A7F0"/>
<path d="M1456.37 1385.77C1473.41 1398.04 1499.95 1390.33 1515.63 1368.55C1519.23 1363.54 1521.97 1358.23 1523.79 1352.87C1508.05 1368.06 1486.42 1372.2 1471.81 1361.7C1458.66 1352.23 1454.98 1333.66 1461.16 1315.68C1458.55 1318.19 1456.1 1320.99 1453.87 1324.08C1438.17 1345.89 1439.31 1373.49 1456.37 1385.77Z" fill="#2577EF"/>
<g opacity="0.7">
<path d="M1447.55 1335.07C1463.44 1316.87 1487.34 1311.11 1503.13 1322.48C1517.41 1332.75 1520.53 1353.82 1511.93 1373.21C1513.2 1371.75 1514.46 1370.17 1515.64 1368.55C1531.33 1346.77 1530.2 1319.15 1513.14 1306.86C1496.08 1294.57 1469.54 1302.29 1453.88 1324.08C1451.33 1327.63 1449.21 1331.3 1447.55 1335.07Z" fill="white"/>
</g>
<path d="M1475.03 1398.82C1466.78 1398.82 1458.85 1396.51 1452.11 1391.66C1442.01 1384.39 1436.13 1372.72 1435.57 1358.79C1435.04 1345.52 1439.44 1331.69 1447.97 1319.85C1465.96 1294.84 1497.1 1286.38 1517.38 1300.97C1527.49 1308.24 1533.36 1319.92 1533.93 1333.85C1534.46 1347.11 1530.06 1360.94 1521.53 1372.79C1509.51 1389.49 1491.62 1398.81 1475.03 1398.82ZM1494.28 1308.25C1482.34 1308.25 1468.96 1315.53 1459.75 1328.33C1453.11 1337.56 1449.67 1348.17 1450.08 1358.2C1450.46 1367.57 1454.19 1375.27 1460.59 1379.88C1474.38 1389.79 1496.43 1382.81 1509.75 1364.31C1516.39 1355.08 1519.82 1344.47 1519.42 1334.43C1519.03 1325.06 1515.3 1317.36 1508.9 1312.76C1504.65 1309.7 1499.61 1308.25 1494.28 1308.25Z" fill="#371A45"/>
<path d="M1346.2 1414.39C1344.58 1414.39 1342.95 1413.91 1341.52 1412.92C1337.78 1410.33 1336.85 1405.2 1339.44 1401.46L1379.45 1343.72C1389.35 1329.44 1393.27 1312.12 1390.49 1294.96L1389.64 1289.71C1386.09 1267.75 1391.62 1244.88 1404.81 1226.97L1453.29 1161.19C1455.98 1157.52 1461.14 1156.74 1464.8 1159.44C1468.46 1162.14 1469.25 1167.29 1466.55 1170.95L1418.07 1236.74C1407.49 1251.11 1403.05 1269.46 1405.9 1287.08L1406.75 1292.33C1410.21 1313.72 1405.32 1335.3 1392.99 1353.1L1352.98 1410.84C1351.38 1413.15 1348.81 1414.39 1346.2 1414.39Z" fill="#371A45"/>
<path d="M1877.86 1602.69C1855.12 1635.68 1813.46 1627.12 1813.46 1627.12C1813.46 1627.12 1751.86 1621.45 1572.23 1481.92C1572.23 1481.92 1553.7 1392.15 1642.25 1401.18C1642.25 1401.18 1762.5 1505.96 1866.32 1538.56C1885.04 1544.44 1898.18 1573.21 1877.86 1602.69Z" fill="white"/>
<path d="M1877.85 1602.68C1855.13 1635.68 1813.47 1627.13 1813.47 1627.13C1813.47 1627.13 1751.86 1621.46 1572.24 1481.91C1572.24 1481.91 1561.75 1431.1 1594.26 1409.79C1594.22 1409.99 1594.18 1410.18 1594.13 1410.38C1589.8 1430.68 1597.98 1451.65 1614.52 1464.18C1778.21 1588.24 1835.05 1593.47 1835.05 1593.47C1835.05 1593.47 1864.21 1599.46 1887.02 1582.11C1885.61 1588.74 1882.68 1595.67 1877.85 1602.68Z" fill="#DFE7F2"/>
<path d="M1825.76 1639.02C1818.59 1639.02 1813.38 1638.18 1811.75 1637.88C1803.91 1636.81 1737.66 1624.21 1565.55 1490.52L1562.38 1488.06L1561.56 1484.12C1561.18 1482.24 1552.34 1437.72 1577.27 1410.11C1591.81 1394 1614.04 1387.37 1643.36 1390.34L1646.8 1390.69L1649.41 1392.97C1650.59 1394 1769.18 1496.64 1869.58 1528.17C1881.66 1531.96 1891.61 1542.19 1896.21 1555.54C1902 1572.37 1898.58 1591.81 1886.83 1608.87V1608.87C1869.11 1634.57 1842.25 1639.02 1825.76 1639.02ZM1582.32 1475.96C1752.43 1607.58 1814 1616.21 1814.61 1616.29L1815.65 1616.45C1817.03 1616.72 1850.65 1622.98 1868.89 1596.5C1879.56 1581.03 1877.68 1568.64 1875.61 1562.63C1873.29 1555.9 1868.48 1550.65 1863.05 1548.95C1765.67 1518.37 1656.72 1427.85 1637.81 1411.72C1617.52 1410.21 1602.63 1414.57 1593.49 1424.64C1579.34 1440.25 1581.08 1466.27 1582.32 1475.96Z" fill="#371A45"/>
<path d="M2117.57 1967.68C2115.43 2000.42 2102.03 2031.83 2078.54 2054.77C2064.49 2068.49 2048.34 2078.22 2031.42 2084.14C1961.14 2108.68 1886.89 2058.18 1880.72 1984.01L1879.45 1968.84L1875.86 1925.82C1850.52 1939.8 1824.09 1937.44 1809.89 1914.78C1799.84 1898.77 1800.53 1878.19 1810.36 1862.03C1816.83 1851.4 1822.89 1840.21 1828.52 1828.45C1834.25 1816.47 1839.59 1803.91 1844.46 1790.77C1846.05 1786.45 1846.78 1781.87 1846.71 1777.3C1844.67 1657.28 1831.1 1551.41 1802.2 1464.32C1800.2 1458.33 1798.13 1452.41 1795.99 1446.6L1762.04 1217.89C1762.04 1217.89 1901.27 1217.89 1904.9 1217.89C2009.71 1315.15 2106.03 1567.28 2118.62 1833.28C2120.77 1877.9 2120.51 1922.92 2117.57 1967.68Z" fill="white"/>
<path d="M1880.9 1728.03C1875.02 1766.77 1858.14 1804.85 1828.48 1830.48C1828.52 1829.79 1828.52 1829.14 1828.52 1828.45C1834.25 1816.47 1839.59 1803.91 1844.46 1790.77C1846.05 1786.45 1846.78 1781.87 1846.71 1777.3C1844.67 1657.28 1831.1 1551.41 1802.2 1464.32C1847.47 1497.32 1865.8 1555.92 1875.68 1611.21C1882.61 1649.76 1886.82 1689.33 1880.9 1728.03Z" fill="#DFE7F2"/>
<path d="M2117.57 1967.68C2115.43 2000.42 2102.03 2031.83 2078.54 2054.77C2064.49 2068.49 2048.34 2078.22 2031.42 2084.14C1961.14 2108.68 1886.9 2058.18 1880.72 1984.01L1879.45 1968.84C1879.67 1964.88 1879.92 1960.96 1880.18 1957L1880.29 1943.97C1879.1 1949.9 1872.04 1988.49 1897.64 2020.21C1923.08 2051.73 1961.52 2052.6 1973.88 2052.88C2030.34 2054.17 2066.75 2011.87 2071.9 2005.69C2093.12 1980.22 2097.91 1953.78 2106.28 1907.6C2112.61 1872.69 2113.58 1843.02 2113.21 1822.14C2115.07 1825.84 2116.85 1829.54 2118.62 1833.28C2120.77 1877.9 2120.51 1922.92 2117.57 1967.68Z" fill="#DFE7F2"/>
<path d="M1795.99 1446.6C1844.94 1515.59 1857.65 1686.56 1860.12 1772.8C1860.57 1780.23 1860.02 1787.77 1857.46 1794.85C1849.26 1817.72 1839.28 1839.41 1827.34 1860.49C1822.63 1868.4 1816.85 1877.26 1816.51 1886.72C1815.16 1918.38 1843.48 1929.48 1869.66 1914.72C1877.49 1910.17 1887.94 1915.77 1888.52 1924.76L1891.68 1962.73C1892.26 1970.45 1893.65 1986.88 1895.01 1994.46C1895.9 1998.66 1897.26 2002.89 1898.19 2006.77C1915.26 2059.34 1974.27 2090.89 2027.07 2072.19C2059.7 2060.97 2086.1 2034.43 2097.59 2001.86C2106.17 1979.15 2105.44 1954.6 2106.63 1930.59C2108.23 1880.38 2106.78 1830.04 2102.15 1779.96C2084.95 1608.04 2040.5 1428.12 1943.71 1283.15C1929.52 1262.91 1913.87 1243.76 1896.26 1227.2L1904.9 1230.6H1762.05C1755.03 1230.6 1749.35 1224.91 1749.35 1217.89C1749.35 1210.87 1755.03 1205.19 1762.05 1205.19H1904.9C1908.23 1205.17 1911.3 1206.47 1913.55 1208.58C1932.96 1226.83 1949.57 1247.26 1964.52 1268.57C2064.1 1417.41 2109.81 1601.28 2127.46 1777.67C2132.18 1828.74 2133.67 1880.11 2132.03 1931.43C2130.89 1957.9 2131.11 1985.3 2121.48 2010.51C2107.62 2049.96 2075.14 2082.63 2035.42 2096.19C1973.77 2118.27 1902.34 2084.82 1877.9 2024.55L1874.05 2014.7C1870.94 2004.17 1868.99 1994.56 1867.94 1983.81C1866.98 1972.12 1864.2 1939.08 1863.2 1926.88L1882 1936.94C1857.32 1952.17 1820.74 1952.59 1801.81 1926.76C1785.41 1906.08 1785.09 1875.86 1799.03 1853.98L1803.31 1846.74C1814.47 1827.38 1823.81 1806.52 1831.76 1785.72C1833.25 1781.98 1833.27 1777.33 1833.1 1773.32C1832.28 1709.93 1828.7 1646.26 1819.67 1583.58C1813.49 1537.16 1800.31 1493.77 1795.99 1446.6Z" fill="#371A45"/>
<path d="M1840.65 1672.76C1838.26 1672.76 1835.86 1671.98 1833.85 1670.38C1829.12 1666.62 1828.33 1659.73 1832.09 1655C1867.11 1610.95 1915.04 1582.65 1963.61 1577.36C2010.21 1572.29 2057.38 1587.91 2100.02 1622.55C2104.72 1626.36 2105.43 1633.25 2101.62 1637.95C2097.81 1642.64 2090.91 1643.36 2086.22 1639.54C2047.67 1608.23 2007.23 1594.65 1965.98 1599.13C1923.19 1603.79 1880.63 1629.12 1849.23 1668.63C1847.07 1671.34 1843.87 1672.76 1840.65 1672.76Z" fill="#371A45"/>
<path d="M2399.03 1011.5C2368.62 1063.46 2331.16 1109.11 2296.97 1116.25C2272.41 1121.37 2137.51 1067.34 2137.51 1067.34L2381.85 761.219C2381.85 761.219 2389.72 767.308 2400.52 776.619C2422.94 796.006 2457.94 829.499 2460.27 851.398C2462.81 875.185 2436.14 948.046 2399.03 1011.5Z" fill="white"/>
<path d="M2399.03 1011.5C2368.62 1063.46 2331.16 1109.11 2296.97 1116.25C2272.41 1121.37 2137.51 1067.34 2137.51 1067.34L2381.85 761.219C2381.85 761.219 2389.72 767.308 2400.52 776.619C2395.14 823.716 2381.84 892.511 2349.27 966.7C2326.79 1017.91 2360.95 1035.79 2399.03 1011.5Z" fill="#DFE7F2"/>
<path d="M2293.91 1129.16C2260.45 1129.16 2163.29 1091.37 2132.78 1079.15L2116.9 1072.79L2379.71 743.547L2389.61 751.167C2402.84 761.357 2469.06 814.028 2472.9 850.066C2475.94 878.596 2447.91 948.689 2419.99 1000.15C2396.37 1043.69 2349.32 1118.27 2299.57 1128.67C2297.98 1129 2296.08 1129.16 2293.91 1129.16ZM2158.16 1061.84C2217.28 1084.78 2282.2 1106.11 2294.39 1103.8C2361.9 1089.68 2451.71 890.988 2447.63 852.761C2445.86 836.115 2411.98 802.243 2383.86 779.087L2158.16 1061.84Z" fill="#371944"/>
<path d="M1912.22 1241.77C2199.96 1241.77 2433.21 1008.51 2433.21 720.781C2433.21 433.048 2199.96 199.795 1912.22 199.795C1624.49 199.795 1391.24 433.048 1391.24 720.781C1391.24 1008.51 1624.49 1241.77 1912.22 1241.77Z" fill="white"/>
<path d="M1396.21 648.302C1364.91 870.241 1480.37 1095.58 1694.44 1194.08C1955.83 1314.34 2265.25 1199.92 2385.51 938.532C2432.47 836.457 2443.67 727.058 2424.28 624.512C2275.43 841.689 1891.87 887.035 1528.64 719.916C1481.97 698.442 1437.7 674.402 1396.21 648.302Z" fill="#DFE7F2"/>
<path d="M1911.94 1253C1836.21 1253 1760.74 1236.62 1689.89 1204.02C1423.43 1081.43 1306.39 764.909 1428.98 498.449C1551.57 231.989 1868.09 114.948 2134.55 237.541C2401.01 360.134 2518.06 676.652 2395.46 943.112C2336.08 1072.19 2229.98 1170.42 2096.71 1219.69C2036.6 1241.93 1974.18 1253 1911.94 1253ZM1912.99 210.763C1719.84 210.763 1534.75 320.939 1448.87 507.599C1331.32 763.092 1443.55 1066.58 1699.04 1184.13C1822.81 1241.08 1961.34 1246.41 2089.12 1199.16C2216.9 1151.91 2318.63 1057.73 2375.57 933.961C2493.12 678.468 2380.89 374.977 2125.4 257.428C2056.57 225.761 1984.21 210.763 1912.99 210.763Z" fill="#371A45"/>
<path d="M1911.98 1254.61C1903.39 1254.61 1894.77 1254.4 1886.14 1253.98C1817.95 1250.67 1751.67 1234.4 1689.15 1205.64C1421.8 1082.63 1304.36 765.063 1427.37 497.717C1550.37 230.371 1867.94 112.934 2135.29 235.937C2255.33 291.169 2350.18 388.369 2402.37 509.633C2462.12 648.385 2460.19 806.657 2397.07 943.857C2395.89 946.413 2394.66 948.986 2393.45 951.526C2376.47 986.929 2355.78 1020.24 2331.88 1050.67C2230.74 1179.57 2075.29 1254.61 1911.98 1254.61ZM1450.45 508.336C1333.31 762.953 1445.15 1065.4 1699.77 1182.55C1759.32 1209.95 1822.45 1225.44 1887.38 1228.6C2051.79 1236.56 2210.5 1164.19 2311.89 1034.98C2334.65 1006 2354.36 974.271 2370.47 940.677C2371.68 938.141 2372.85 935.679 2373.98 933.233C2434.1 802.566 2435.94 651.832 2379.03 519.681C2329.32 404.193 2238.99 311.624 2124.67 259.022C1870.05 141.876 1567.6 253.717 1450.45 508.336Z" fill="#371A45"/>
<path d="M1911.98 1250.98C1903.44 1250.98 1894.9 1250.78 1886.32 1250.36C1885.97 1250.34 1885.62 1250.3 1885.27 1250.25C1835.86 1242.01 1787.41 1227.07 1741.27 1205.85C1474.2 1082.97 1350.42 779.781 1465.35 529.989C1580.26 280.221 1891.04 176.981 2158.11 299.855C2258.33 345.968 2341.42 418.583 2398.4 509.85C2398.64 510.241 2398.85 510.646 2399.03 511.068C2458.38 648.88 2456.47 806.073 2393.77 942.342C2392.6 944.881 2391.38 947.437 2390.18 949.962C2389.66 951.266 2388.92 952.894 2388.15 954.562C2372.56 988.434 2352.62 1020.09 2328.87 1048.63C2228.57 1176.45 2074.17 1250.97 1911.98 1250.98ZM1887.73 1232.25C2053.13 1240.13 2212.74 1167.23 2314.75 1037.22C2337.65 1009.7 2356.74 979.399 2371.66 946.967C2372.3 945.568 2372.93 944.208 2373.51 942.782C2373.58 942.604 2373.65 942.43 2373.74 942.257C2374.96 939.689 2376.15 937.213 2377.28 934.752C2437.73 803.36 2439.67 651.82 2382.63 518.878C2327.55 430.897 2247.3 360.87 2150.52 316.341C1892.55 197.654 1592.57 296.898 1481.84 537.574C1371.1 778.275 1490.88 1070.66 1748.86 1189.36C1793.37 1209.83 1840.09 1224.26 1887.73 1232.25Z" fill="#371A45"/>
<path d="M1519.5 554.901C1417.39 776.838 1527.21 1045.41 1764.8 1154.72C1966.19 1247.38 2194.77 1195.87 2321.89 1042.82C2344.76 1015.33 2364.35 984.564 2379.9 950.761C2380.61 949.23 2381.3 947.735 2381.93 946.17C2480.5 725.139 2370.53 459.53 2134.59 350.976C1897 241.666 1621.61 332.964 1519.5 554.901Z" fill="#371A45"/>
<path d="M1519.5 554.901C1417.39 776.838 1527.21 1045.41 1764.8 1154.72C1943.48 1236.93 2143.56 1205.66 2275.19 1090.62C2148.43 1141.65 1997.53 1141.19 1858.59 1077.26C1612.52 964.054 1493.12 692.883 1580.51 459.283C1556.32 487.663 1535.72 519.642 1519.5 554.901Z" fill="#220F2D"/>
<g opacity="0.5">
<path d="M1904.73 433.87C1896.79 471.421 1993.57 482.239 2129.62 587.703C2224.63 661.356 2247.11 795.756 2301.57 784.101C2356.04 772.445 2318.77 608.186 2232.91 515.428C2100.74 372.636 1912.67 396.318 1904.73 433.87Z" fill="white"/>
</g>
<g opacity="0.5">
<path d="M1702.34 698.676C1712.48 656.175 1694.77 615.543 1662.8 607.921C1630.82 600.3 1596.69 628.575 1586.56 671.075C1576.43 713.576 1594.14 754.208 1626.11 761.83C1658.08 769.452 1692.21 741.177 1702.34 698.676Z" fill="white"/>
</g>
<g opacity="0.5">
<path d="M1622.36 879.052C1638.55 877.456 1650.19 861.074 1648.36 842.461C1646.52 823.848 1631.91 810.054 1615.72 811.65C1599.52 813.246 1587.89 829.628 1589.72 848.241C1591.56 866.854 1606.17 880.648 1622.36 879.052Z" fill="white"/>
</g>
<path d="M1449.21 429.065L1385.85 624.304L1346.38 745.917L1409.64 778.743L1415.62 781.836C1445.6 790.896 1494.96 721.04 1525.81 625.949C1526.51 623.813 1527.2 621.608 1527.86 619.452C1556.68 527.081 1556.64 446.314 1527.34 437.508L1520.6 436.768L1449.21 429.065Z" fill="white"/>
<path d="M1385.85 624.304L1346.38 745.917L1409.64 778.743L1415.62 781.836C1445.6 790.896 1494.96 721.04 1525.81 625.949C1526.51 623.813 1527.2 621.608 1527.86 619.452L1528.48 606.815C1528.48 606.815 1503.87 642.765 1482.89 640.491C1460.69 638.126 1467.41 585.106 1467.41 585.106L1385.85 624.304Z" fill="#DFE7F2"/>
<path d="M1420.98 795.348C1417.93 795.348 1414.92 794.918 1411.95 794.027C1411.19 793.798 1410.45 793.497 1409.75 793.134L1340.53 757.216C1335.01 754.355 1332.38 747.924 1334.29 742.016L1437.12 425.151C1438.97 419.428 1444.59 415.805 1450.57 416.438L1528.71 424.858C1529.49 424.941 1530.26 425.097 1531.01 425.324C1537.16 427.17 1545.85 431.965 1552.32 444.323C1569.49 477.104 1563.83 549.943 1537.88 629.887C1510.23 715.094 1462.52 795.348 1420.98 795.348ZM1420.11 769.875C1435.32 772.202 1480.67 723.872 1513.71 622.045C1539.58 542.321 1541.39 478.227 1529.81 456.115C1528.62 453.859 1526.78 451.076 1524.47 449.963L1458.1 442.812L1361.79 739.616L1420.11 769.875Z" fill="#371A45"/>
<path d="M1355.7 549.866C1355.7 549.866 1355.72 549.936 1355.7 549.985C1352.91 557.283 1350.29 564.78 1347.79 572.508C1319.4 659.97 1318.74 737.644 1346.38 745.916C1373.18 753.971 1416.86 693.607 1445.37 609.813C1446.19 607.429 1446.99 604.975 1447.78 602.521C1476.17 515.059 1476.79 437.365 1449.21 429.064C1424.03 421.522 1384.11 474.2 1355.7 549.866Z" fill="white"/>
<path d="M1355.7 549.985C1352.91 557.283 1350.29 564.78 1347.79 572.508C1319.4 659.97 1318.74 737.644 1346.38 745.916C1373.18 753.971 1416.86 693.607 1445.37 609.813C1422.22 635.445 1377.55 679.171 1360.49 655.035C1350.55 640.898 1352.28 590.961 1355.7 549.985Z" fill="#DFE7F2"/>
<path d="M1351.23 759.345C1348.35 759.345 1345.51 758.94 1342.71 758.095C1336.86 756.34 1328.61 751.791 1322.49 740.104C1306.56 709.704 1311.75 642.37 1335.7 568.561C1335.7 568.561 1335.7 568.561 1335.7 568.559C1363.15 483.959 1412.22 404.692 1452.84 416.913C1458.68 418.668 1466.94 423.217 1473.06 434.906C1488.99 465.304 1483.8 532.638 1459.85 606.444C1434.29 685.207 1390.01 759.345 1351.23 759.345ZM1359.87 576.403C1336.15 649.496 1334.44 708.149 1345 728.31C1346.12 730.444 1347.89 733.12 1350.02 733.759C1362.91 737.609 1404.9 693.454 1435.68 598.603C1459.4 525.512 1461.11 466.86 1450.55 446.699C1449.43 444.568 1447.66 441.892 1445.52 441.25C1432.68 437.392 1390.66 481.552 1359.87 576.403Z" fill="#371A45"/>
<path d="M782.022 3376.58C758.323 3376.58 735.696 3366.39 719.949 3348.63C664.497 3286.08 562.439 3160.57 501.958 3022.8C468.311 2946.14 451.511 2875.14 451.953 2811.57C423.894 2792.36 402.065 2765.74 388.725 2734.61C366.545 2744.61 351.713 2756.52 345.402 2769.51C327.982 2805.41 353.087 2944.71 363.808 3004.2C366.347 3018.29 368.62 3030.91 370.366 3041.45C375.803 3074.27 370.632 3099.71 354.995 3117.06C339.289 3134.49 319.702 3136.37 312.009 3136.37C310.757 3136.37 309.87 3136.32 309.424 3136.28C303.013 3135.9 296.709 3133.63 291.377 3129.72C287.771 3127.07 202.258 3063.86 126.687 2965.33C23.4348 2830.71 -10.4832 2694.99 28.5958 2572.85C55.1488 2489.87 114.751 2423.44 205.888 2375.17C193.071 2349.68 180.734 2323.46 169.106 2297.01C85.8468 2107.59 -10.8482 1790.59 1.31981 1356.08C7.69481 1128.26 44.6578 913.923 111.181 719.025C111.345 718.546 111.55 718.029 111.774 717.511C240.075 342.487 445.463 127.628 556.537 32.897C604.469 -7.97697 673.629 -10.799 724.726 26.034C842.922 111.217 1064.42 307.938 1222.77 669.713C1247.89 691.446 1273.91 715.045 1301.22 740.87C1284.55 696.761 1297.86 621.102 1316.88 562.457C1344.13 478.492 1396.3 385.221 1454.09 396.925L1462.68 397.85C1535.47 296.51 1641.56 222.252 1762.69 188.145C1889.11 152.547 2024.38 163.14 2143.55 217.969C2268.04 275.242 2366.41 376.045 2420.53 501.812C2459.62 592.583 2473.64 692.137 2461.24 790.323C2480.51 812.264 2490.77 831.182 2492.56 847.97C2496.79 887.552 2458.31 970.992 2437.37 1009.58C2406.53 1066.43 2358.28 1136.6 2303.62 1148.03C2295.08 1149.81 2283.92 1149.01 2267.31 1145.41C2188.18 1211.48 2090.54 1254.64 1988.44 1269C2005.66 1295.75 2021.63 1324.18 2036.19 1353.96C2145.12 1425.56 2198.47 1485.64 2199.21 1537.55C2200.18 1605.38 2182.43 1690.5 2147.85 1783.96C2152.04 1832.88 2153.37 1882.68 2151.79 1932.07C2151.65 1935.46 2151.53 1938.67 2151.41 1941.88C2150.51 1966.61 2149.58 1992.17 2140.06 2017.27C2121.34 2070.97 2072.84 2111.76 2017.87 2120.81C2001.77 2136.78 1985 2147.52 1966.78 2153.54C1953.23 2158.02 1938.85 2160.65 1923.95 2161.39C1902.38 2182.32 1882.35 2196.82 1864.31 2204.52C1845.81 2212.43 1823 2216.44 1796.52 2216.44C1747.66 2216.44 1684.11 2202.88 1607.47 2176.12C1592.68 2199.57 1577.83 2222.54 1563.13 2244.69C1574.71 2263.5 1583.03 2284.89 1587.92 2308.48C1597.92 2358.24 1591.47 2406.5 1569.77 2444.49C1550.01 2479.82 1517 2500.39 1482.56 2501.79C1531.57 2618.18 1511.31 2754.9 1423.84 2897.59C1358.9 3003.52 1280.47 3075.24 1277.16 3078.24C1272.28 3082.67 1266.26 3085.59 1259.75 3086.68C1258.51 3086.89 1255.67 3087.28 1251.77 3087.28C1243.35 3087.28 1227.07 3085.33 1212.57 3072.27C1195.22 3056.65 1187.42 3031.89 1189.41 2998.68C1190.05 2988 1191 2975.22 1192.05 2961C1196.52 2900.7 1206.98 2759.51 1185.91 2725.63C1175.88 2709.49 1152.09 2697.07 1116.63 2689.3C1108.68 2722.77 1091.14 2753.41 1066.33 2777.23C1085.02 2933.86 1011.9 3124.14 848.843 3343.02C833.787 3363.23 810.73 3375.44 785.589 3376.51C784.405 3376.56 783.208 3376.58 782.022 3376.58ZM400.406 2688.96C403.521 2688.96 406.627 2689.7 409.454 2691.15C414.268 2693.63 417.857 2697.97 419.383 2703.17C429.359 2737.18 451.619 2765.84 482.061 2783.88C488.318 2787.59 492.037 2794.42 491.741 2801.69C489.302 2862.11 504.925 2931.15 538.174 3006.9C596.482 3139.73 695.63 3261.58 749.544 3322.39C758.211 3332.17 770.84 3337.55 783.904 3337C797.105 3336.43 809.212 3330.02 817.127 3319.39C977.374 3104.29 1047.58 2920.26 1025.79 2772.41C1024.8 2765.66 1027.36 2758.86 1032.57 2754.45C1057.12 2733.64 1073.83 2704.78 1079.62 2673.15L1081.53 2662.71C1083.47 2652.16 1093.45 2645.09 1104.06 2646.74C1162.45 2655.93 1201.29 2675.45 1219.5 2704.75C1245.22 2746.12 1239.53 2855.46 1231.5 2963.91C1230.46 2977.93 1229.53 2990.52 1228.9 3001.05C1228.05 3015.2 1229.12 3033.95 1239.03 3042.87C1243.56 3046.95 1248.54 3047.9 1251.92 3047.73C1262.68 3037.75 1331.86 2971.96 1390.12 2876.92C1471.71 2743.82 1490.45 2617.95 1444.3 2512.93C1440.14 2503.46 1435.29 2494.02 1429.88 2484.88C1425.45 2477.4 1426.43 2467.91 1432.28 2461.49C1438.13 2455.07 1447.49 2453.21 1455.35 2456.93C1489.11 2472.89 1520.49 2451.58 1535.33 2425.03C1552.38 2395.19 1557.27 2356.66 1549.18 2316.39C1544.42 2293.48 1535.74 2273.26 1523.39 2256.4C1518.47 2249.69 1518.28 2240.63 1522.91 2233.71C1542.57 2204.37 1562.57 2173.41 1582.38 2141.69C1587.32 2133.77 1597.15 2130.39 1605.91 2133.58C1684.98 2162.32 1749.11 2176.89 1796.52 2176.89C1817.63 2176.89 1835.21 2173.95 1848.77 2168.16C1863.45 2161.88 1881.7 2147.97 1901.55 2127.93C1905.25 2124.19 1910.29 2122.08 1915.55 2122.06C1929.03 2122.03 1942.46 2119.93 1954.38 2115.99C1968.04 2111.47 1980.99 2102.53 1993.97 2088.66C1997.19 2085.22 2001.53 2083.04 2006.21 2082.51C2048.72 2077.74 2088.44 2045.47 2102.8 2004.04C2102.87 2003.85 2102.94 2003.65 2103.01 2003.46C2110.29 1984.38 2111.07 1963.04 2111.89 1940.44C2112.01 1937.15 2112.13 1933.86 2112.27 1930.59C2113.84 1881.5 2112.43 1831.77 2108.07 1783C2107.8 1780.06 2108.21 1777.08 2109.25 1774.31C2143.14 1683.77 2160.58 1602.09 2159.67 1538.11C2159.36 1516.78 2139.51 1468.39 2010 1384.09C2006.97 1382.12 2004.54 1379.35 2002.97 1376.09C1986.44 1341.74 1967.97 1309.27 1948.09 1279.57C1944.72 1274.78 1941.04 1269.74 1937.39 1264.95C1933.01 1259.19 1932.12 1251.5 1935.08 1244.89C1938.04 1238.28 1944.38 1233.81 1951.6 1233.26C2060.81 1224.8 2166.48 1180.65 2249.16 1108.94C2254.04 1104.71 2260.67 1103.12 2266.94 1104.7C2289.14 1110.29 2295.56 1109.31 2295.58 1109.31C2325.72 1103.01 2365.74 1058.67 2402.61 990.722C2432.24 936.108 2455.42 872.658 2453.24 852.167C2453.24 852.164 2453.24 852.164 2453.24 852.164C2452.78 847.833 2449.2 835.089 2425.99 810.323C2421.88 805.943 2419.99 799.935 2420.84 793.992C2434.32 700.022 2421.65 604.397 2384.21 517.452C2333.95 400.677 2242.62 307.081 2127.02 253.902C1898.91 148.951 1630.37 222.994 1488.48 429.944C1484.37 435.947 1477.27 439.224 1470.05 438.423L1448.83 436.135C1448.06 436.052 1447.29 435.923 1446.54 435.749C1428.68 431.628 1385.63 478.776 1354.51 574.663C1329.19 652.71 1329.24 710.376 1340.01 730.925C1342.24 735.178 1344.91 737.888 1347.94 738.979C1348.77 739.277 1349.57 739.628 1350.35 740.034L1390.54 760.886C1396.41 763.93 1400.37 769.702 1401.09 776.269C1404.17 804.106 1409.64 832.097 1417.36 859.465C1419.81 868.176 1416.04 877.444 1408.2 881.965C1400.35 886.484 1390.45 885.105 1384.14 878.615C1374.88 869.091 1365.77 859.784 1356.78 850.705C1296.52 789.78 1243.2 739.494 1193.54 696.723C1191.18 694.684 1189.33 692.116 1188.15 689.228C1033.35 333.613 816.896 141.208 701.603 58.117C665.336 31.97 616.232 33.971 582.206 62.988C474.115 155.178 274.083 364.59 148.856 731.316C148.773 731.558 148.685 731.802 148.592 732.041C148.494 732.295 148.382 732.566 148.262 732.842C83.2448 923.684 47.1098 1133.74 40.8598 1357.18C28.8968 1784.35 123.69 2095.39 205.316 2281.09C219.33 2312.97 234.393 2344.48 250.091 2374.75C252.549 2379.49 252.987 2385.03 251.297 2390.1C249.607 2395.17 245.938 2399.34 241.126 2401.67C149.93 2445.65 91.0988 2507.3 66.2698 2584.9C31.3138 2694.15 63.0599 2817.38 158.072 2941.25C225.894 3029.68 301.602 3087.96 313.323 3096.75C316.074 3096.5 321.294 3095.37 325.618 3090.58C334.553 3080.66 333.667 3061.9 331.35 3047.91C329.629 3037.52 327.39 3025.1 324.9 3011.28C305.603 2904.21 288.557 2796.07 309.824 2752.25C322.576 2725.97 350.864 2705.05 393.904 2690.06C396.013 2689.33 398.213 2688.96 400.406 2688.96ZM1342.21 780.373C1349.59 787.607 1357.08 795.007 1364.66 802.565C1364.08 798.771 1363.54 794.977 1363.05 791.183L1342.21 780.373Z" fill="#371A45"/>
</svg>
