<svg width="247" height="245" viewBox="0 0 247 245" fill="none" xmlns="http://www.w3.org/2000/svg">
<path d="M205.499 81.9006C199.532 68.0336 201.815 53.0846 212.349 37.0496C196.582 47.4166 181.016 48.5836 165.65 40.5496C149.416 31.9496 142.584 18.7996 145.15 1.10059C138.95 18.8336 127.599 28.5836 111.1 30.3506C93.1662 32.1176 79.3332 25.8506 69.6002 11.5496C76.6002 31.0166 73.1832 46.1666 59.3502 56.9996C47.8832 65.8996 32.9672 68.3506 14.6002 64.3506C32.9002 76.8506 41.2332 91.4336 39.6002 108.101C38.0002 124.734 25.2002 135.184 1.2002 139.451C23.0002 137.318 37.5832 144.034 44.9502 159.601C52.3502 175.101 48.8672 191.267 34.5002 208.101C52.4672 197.134 68.7832 194.25 83.4502 199.451C98.0832 204.651 104.166 219.517 101.7 244.051C104.567 222.185 115.666 210.034 135 207.602C150.8 205.468 164.9 214.152 177.3 233.652C169.666 214.619 172 199.768 184.3 189.102C197.134 178.001 213.1 175.218 232.2 180.751C211.433 168.784 203.45 154.318 208.25 137.352C212.85 121.218 225.316 110.668 245.65 105.702C225.449 105.068 212.065 97.1346 205.499 81.9006ZM125.049 37.6006C147.816 37.6006 167.249 45.6506 183.349 61.7496C199.449 77.8506 207.499 97.2666 207.499 120.001C207.499 142.768 199.449 162.201 183.349 178.301C172.683 188.935 160.599 196.051 147.099 199.652C140.132 201.518 132.783 202.452 125.049 202.452C102.316 202.452 82.8992 194.402 66.7992 178.302C52.4322 163.936 44.4832 146.919 42.9492 127.252C42.7492 124.886 42.6492 122.469 42.6492 120.002C42.6492 97.2686 50.6992 77.8526 66.7992 61.7516C82.8992 45.6506 102.316 37.6006 125.049 37.6006Z" fill="#F5AA38"/>
<path d="M183.349 61.7506C167.249 45.6506 147.816 37.6016 125.049 37.6016C102.316 37.6016 82.8994 45.6516 66.7994 61.7506C50.6994 77.8516 42.6494 97.2676 42.6494 120.001C42.6494 122.468 42.7494 124.885 42.9494 127.251C44.4824 146.918 52.4324 163.935 66.7994 178.301C82.8994 194.402 102.316 202.451 125.049 202.451C132.782 202.451 140.132 201.517 147.099 199.651C160.599 196.05 172.683 188.934 183.349 178.3C199.45 162.2 207.499 142.767 207.499 120C207.499 97.2666 199.449 77.8506 183.349 61.7506ZM125.049 41.0006C146.849 41.0006 165.466 48.7176 180.9 64.1506C196.333 79.5846 204.049 98.2006 204.049 120.001C204.049 141.801 196.332 160.418 180.9 175.852C170.701 186.051 159.1 192.868 146.099 196.301C139.459 198.102 132.443 199.001 125.049 199.001C103.249 199.001 84.6334 191.284 69.1994 175.852C55.4324 162.085 47.7994 145.786 46.2994 126.952C46.1334 124.674 46.0494 122.357 46.0494 120.002C46.0494 98.2016 53.7664 79.5856 69.1994 64.1516C84.6324 48.7176 103.249 41.0006 125.049 41.0006Z" fill="#F59538"/>
<path d="M125.05 199.2C103.297 199.2 84.4586 191.391 69.0586 175.992C55.3226 162.255 47.5976 145.76 46.1006 126.966L46.4926 126.897C59.2156 172.998 89.6446 196.374 136.936 196.374C139.904 196.374 142.984 196.281 146.088 196.101L146.152 196.494C139.528 198.289 132.429 199.2 125.05 199.2ZM132.15 169.1C115.837 169.1 101.693 163.243 90.1086 151.691C78.5566 140.107 72.6996 125.946 72.6996 109.6C72.6996 93.2874 78.5566 79.1434 90.1086 67.5594C101.694 56.0074 115.839 50.1504 132.151 50.1504C148.496 50.1504 162.64 56.0074 174.192 67.5584C185.777 79.1424 191.651 93.2874 191.651 109.6C191.651 125.945 185.777 140.107 174.192 151.691C162.641 163.243 148.496 169.1 132.15 169.1ZM176.653 80.9834C174.296 80.9834 173.15 82.4934 173.15 85.6004L173.498 87.9204C174.094 89.4744 175.292 90.2494 177.15 90.2494C178.618 90.2494 179.657 89.6614 180.325 88.4524C180.806 87.6184 181.05 86.6924 181.05 85.6994C181.05 82.7294 179.753 81.1914 177.085 80.9984C176.936 80.9894 176.793 80.9834 176.653 80.9834ZM156.093 61.9964C155.494 61.9964 154.924 62.0624 154.399 62.1944C152.381 62.7064 151.401 64.0664 151.401 66.3514C151.454 66.4304 152.745 68.8114 155.226 73.3554C158.458 77.9574 162.003 80.3004 165.75 80.3004C167.831 80.3004 169.338 79.5434 170.228 78.0484C170.806 77.0534 171.099 75.7744 171.099 74.2504C171.099 72.0804 170.058 69.8894 168.005 67.7394C166.134 65.8024 163.835 64.2704 161.174 63.1854C159.27 62.3964 157.56 61.9964 156.093 61.9964Z" fill="#FCDF58"/>
<path d="M180.899 64.1505C165.466 48.7175 146.849 41.0005 125.049 41.0005C103.249 41.0005 84.6328 48.7175 69.1988 64.1505C53.7648 79.5845 46.0488 98.2005 46.0488 120C46.0488 122.355 46.1328 124.672 46.2988 126.95C59.9118 176.277 93.1788 199.393 146.099 196.3C159.1 192.866 170.701 186.051 180.9 175.852C196.332 160.418 204.049 141.8 204.049 120C204.049 98.2005 196.332 79.5845 180.899 64.1505ZM132.149 50.3505C148.515 50.3505 162.482 56.1335 174.048 67.7005C185.649 79.3005 191.448 93.2665 191.448 109.6C191.448 125.966 185.648 139.95 174.048 151.549C162.482 163.116 148.515 168.9 132.149 168.9C115.815 168.9 101.849 163.117 90.2488 151.549C78.6818 139.949 72.8988 125.966 72.8988 109.6C72.8988 93.2665 78.6818 79.2995 90.2488 67.7005C101.849 56.1345 115.815 50.3505 132.149 50.3505Z" fill="#FFC556"/>
<path d="M177.099 80.8006C174.333 80.6016 172.95 82.2006 172.95 85.6016L173.3 87.9516C173.934 89.6186 175.217 90.4516 177.151 90.4516C178.684 90.4516 179.8 89.8186 180.501 88.5516C181.001 87.6856 181.251 86.7356 181.251 85.7016C181.249 82.6346 179.865 81.0006 177.099 80.8006ZM151.199 66.3506C151.199 66.3836 152.482 68.7496 155.049 73.4506C158.349 78.1506 161.915 80.5006 165.749 80.5006C167.915 80.5006 169.466 79.7176 170.399 78.1506C170.999 77.1176 171.298 75.8176 171.298 74.2506C171.298 72.0176 170.248 69.8006 168.149 67.6016C166.249 65.6346 163.949 64.1016 161.249 63.0006C158.516 61.8676 156.216 61.5336 154.349 62.0006C152.249 62.5336 151.199 63.9836 151.199 66.3506Z" fill="#FCEFB2"/>
<path d="M177.665 233.411C172.022 224.617 165.136 216.306 155.906 211.128C148.363 206.898 139.984 206.112 131.586 207.668C123.647 209.14 116.355 212.939 111.043 219.066C105.078 225.948 102.433 235.094 101.228 243.947C101.543 244.015 101.858 244.084 102.173 244.152C103.578 229.652 103.104 210.529 89.2346 201.784C72.0906 190.973 50.0286 198.142 34.1966 207.708C34.4266 207.943 34.6576 208.18 34.8876 208.415C41.6036 200.461 47.1906 191.358 48.8156 180.925C50.1496 172.361 48.0026 163.423 43.5586 156.047C39.7036 149.651 34.1656 144.781 27.2746 141.884C19.0816 138.44 9.83962 138.177 1.11662 138.99C1.21062 139.29 1.30362 139.59 1.39762 139.89C17.6196 136.943 35.4726 129.834 39.4776 112.054C41.4006 103.516 39.9316 94.3764 36.1066 86.5874C31.4856 77.1784 23.3716 69.8774 14.8706 64.0154C14.7676 64.2764 14.6636 64.5384 14.5606 64.7994C31.4366 68.3904 49.2066 67.0324 62.4686 54.9954C67.9266 50.0414 71.6136 43.5714 73.0196 36.3424C74.6446 27.9894 72.8166 19.3094 70.0296 11.4194C69.7646 11.5434 69.4986 11.6664 69.2336 11.7904C73.8946 18.5414 79.9006 24.1134 87.4166 27.5184C95.1946 31.0414 104.136 31.7264 112.526 30.6474C119.91 29.6974 126.866 26.7624 132.521 21.9044C138.801 16.5094 142.856 9.01636 145.596 1.31536C145.289 1.21036 144.983 1.10436 144.676 0.998358C143.698 8.07336 144.073 15.2104 146.761 21.8854C149.444 28.5474 154.533 33.8744 160.378 37.8944C167.703 42.9324 176.344 46.0084 185.248 46.2644C195.097 46.5484 204.513 42.7114 212.65 37.4424C212.42 37.2064 212.189 36.9704 211.959 36.7354C206.741 44.7774 202.746 53.6214 201.908 63.2624C201.183 71.6054 203.43 79.9814 207.687 87.1354C215.705 100.613 230.787 105.617 245.731 106.159C245.637 105.859 245.543 105.559 245.45 105.259C236.118 107.583 227.071 111.335 219.802 117.767C213.504 123.341 209.264 130.863 207.321 139.011C205.448 146.862 206.641 154.878 210.663 161.857C215.523 170.294 223.781 176.348 232.041 181.157C232.106 180.872 232.172 180.587 232.237 180.302C223.783 177.902 214.794 176.663 206.058 178.186C197.572 179.665 189.909 183.49 183.459 189.182C177.823 194.157 174.094 200.723 172.851 208.136C171.396 216.809 173.699 225.752 176.868 233.781C177.082 234.322 177.968 234.124 177.729 233.519C174.652 225.721 172.639 217.415 173.7 208.997C174.672 201.279 178.842 194.576 184.601 189.492C197.953 177.706 215.614 176.5 232.161 181.197C232.755 181.366 232.766 180.579 232.357 180.342C224.082 175.525 216.075 169.493 211.216 161.062C207.057 153.843 206.52 145.501 208.695 137.564C213.511 119.988 229.048 110.323 245.846 106.14C246.425 105.996 246.003 105.255 245.565 105.24C231.079 104.715 216.935 100.004 208.809 87.2944C204.439 80.4604 202.408 72.3024 202.801 64.2314C203.274 54.5324 207.531 45.3854 212.736 37.3634C213.006 36.9474 212.475 36.3774 212.045 36.6564C204.144 41.7724 195.402 45.2294 185.9 45.3504C176.972 45.4644 168.267 42.1194 160.922 37.2224C155.286 33.4654 150.641 28.3864 147.861 22.1834C144.919 15.6174 144.65 8.23136 145.622 1.20236C145.687 0.73336 144.883 0.378359 144.702 0.885359C142.11 8.17036 138.387 14.9964 132.746 20.3674C127.177 25.6714 119.9 28.6464 112.361 29.7264C104.324 30.8784 95.8616 30.0654 88.3406 26.9644C80.7036 23.8164 74.6056 18.0314 69.9646 11.3084C69.6586 10.8664 68.9826 11.1504 69.1686 11.6794C71.8696 19.3244 73.4366 27.3984 72.1876 35.4924C71.0486 42.8704 67.0746 49.3114 61.6926 54.3644C48.9546 66.3224 30.9336 67.3674 14.6386 63.9004C14.1616 63.7984 13.9416 64.4174 14.3286 64.6844C22.5926 70.3834 30.1866 77.2964 34.9446 86.2574C39.0006 93.8954 40.2486 102.833 38.6446 111.312C35.2846 129.076 16.7926 136.139 1.00262 139.007C0.453617 139.107 0.812616 139.951 1.28362 139.907C16.9076 138.451 33.1246 141.487 42.1916 155.484C47.0206 162.938 49.0656 171.933 47.8726 180.717C46.4856 190.939 40.6336 200.059 34.1126 207.783C33.7736 208.184 34.3986 208.735 34.8036 208.49C50.2286 199.17 71.0946 192.301 88.0506 202.06C102.249 210.233 102.614 229.663 101.229 243.944C101.176 244.49 102.091 244.76 102.174 244.149C103.322 235.71 105.798 227.363 111.102 220.566C115.989 214.303 123.098 210.546 130.742 208.803C139.313 206.848 147.824 207.751 155.59 211.939C164.678 216.839 171.456 225.348 176.936 233.886C177.265 234.404 178.013 233.953 177.665 233.411Z" fill="#31384C"/>
<path d="M46.7912 126.935C45.7742 113.442 47.7482 99.8773 53.3272 87.5063C58.8112 75.3443 67.8532 64.8283 78.4042 56.7623C99.4552 40.6673 128.821 37.1593 153.47 46.5013C178.073 55.8263 197.189 78.6983 202.171 104.448C204.699 117.516 203.935 131.428 199.989 144.132C196.1 156.651 188.628 167.656 179.28 176.743C158.473 196.972 127.563 203.568 100.028 194.709C74.3862 186.459 53.9072 163.375 48.2532 137.166C47.5262 133.796 47.0782 130.369 46.7912 126.935C46.7442 126.376 45.8052 126.331 45.8572 126.964C48.0072 152.686 62.8922 175.396 84.8862 188.733C107.13 202.222 136.637 202.942 159.908 191.678C182.894 180.553 199.757 157.829 203.618 132.648C207.452 107.645 199.562 82.3693 181.739 64.3883C173.043 55.6153 162.629 48.5513 150.856 44.6303C138.762 40.6033 125.793 39.6483 113.182 41.3343C88.4872 44.6363 66.7442 60.7483 54.7792 82.3943C47.2912 95.9413 44.7012 111.635 45.8572 126.964C45.8992 127.524 46.8392 127.569 46.7912 126.935Z" fill="#31384C"/>
</svg>
