<svg width="2853" height="3583" viewBox="0 0 2853 3583" fill="none" xmlns="http://www.w3.org/2000/svg">
<path d="M2766.12 1108.07C2766.12 1108.07 2695.63 1057.9 2606.02 1070.98C2509.88 1085 2436.32 1125.18 2313.12 1116.04C2161.23 1104.75 2057.2 938.762 2057.2 938.762C2057.2 938.762 2167.9 640.983 2167.9 522.121C2186.68 524.152 2204.61 529.657 2221.91 537.428C2298.99 572.024 2364.31 651.643 2443.89 670.698C2455.41 673.47 2467.2 674.955 2479.39 674.876C2492.08 674.798 2504.26 673.236 2516.13 670.619C2602.47 651.72 2673.22 576.904 2807.7 598.654C2817.15 600.177 2826.95 602.168 2837.1 604.706C2837.1 604.706 2764.36 1104.91 2766.12 1108.07Z" fill="white"/>
<path d="M2348.87 1132.99C2337.04 1132.99 2324.78 1132.56 2311.98 1131.61C2154.01 1119.88 2048.37 954.096 2043.95 947.046C2041.37 942.932 2040.86 937.856 2042.55 933.308C2043.64 930.356 2152.27 636.836 2152.27 522.112C2152.27 517.678 2154.15 513.452 2157.45 510.491C2160.75 507.527 2165.14 506.123 2169.57 506.582C2228.66 512.964 2278.35 550.207 2326.4 586.226C2376.51 623.787 2423.87 659.28 2478.35 659.28C2478.65 659.28 2478.95 659.277 2479.26 659.277C2519.32 658.986 2555.48 642.243 2593.76 624.516C2657.43 595.038 2729.6 561.63 2840.92 589.545C2848.69 591.493 2853.73 599.01 2852.58 606.942C2824.77 798.177 2783.24 1087.33 2781.72 1107.61C2781.85 1112.1 2780.04 1116.56 2776.51 1119.71C2771.07 1124.57 2763 1125.01 2757.05 1120.78C2756.42 1120.33 2690.28 1074.45 2608.29 1086.43C2576.47 1091.08 2547.57 1098.56 2516.96 1106.49C2466.52 1119.55 2414.61 1132.99 2348.87 1132.99ZM2074.59 936.677C2095.02 966.225 2188.47 1091.11 2314.3 1100.45C2393.04 1106.29 2452.07 1091.02 2509.13 1076.25C2539.2 1068.46 2570.28 1060.41 2603.78 1055.53C2669.03 1045.99 2724.24 1067.44 2753.29 1082.43C2757.13 1051.09 2766.27 987.222 2785.5 852.988C2799.85 752.829 2814.33 652.922 2819.6 616.689C2726.79 597.353 2665.87 625.546 2606.88 652.863C2565.45 672.05 2526.31 690.173 2479.48 690.512C2479.11 690.517 2478.72 690.517 2478.35 690.517C2413.45 690.522 2359.68 650.212 2307.67 611.22C2266.11 580.07 2226.6 550.456 2182.8 540.439C2174.26 659.032 2091.28 890.993 2074.59 936.677ZM2779.8 1100.54C2779.8 1100.54 2779.81 1100.55 2779.81 1100.56C2779.81 1100.55 2779.8 1100.55 2779.8 1100.54Z" fill="#371A45"/>
<path d="M1330.08 1380.45L1321.97 1451.4L1317.82 1487.54L1246.45 2110.78C1246.45 2110.78 1289.22 2113.23 1346.84 2111.91C1358.11 2111.65 1369.95 2111.26 1382.15 2110.67C1473.04 2106.32 1583.79 2091.36 1627.49 2046.57C1692.81 1979.59 1717.49 1640.17 1667.44 1503.07C1644.51 1440.22 1515.95 1407.87 1424.33 1392.55C1414.09 1390.82 1404.3 1389.32 1395.18 1388.03C1356.75 1382.5 1330.08 1380.45 1330.08 1380.45Z" fill="white"/>
<g opacity="0.35">
<path d="M1321.97 1451.4L1317.82 1487.54L1261.15 1982.4L1246.45 2110.78C1246.45 2110.78 1247.34 2110.82 1249.04 2110.91C1249.52 2110.92 1250.1 2110.95 1250.71 2110.99C1251.19 2111 1251.73 2111.02 1252.28 2111.05C1252.69 2111.08 1253.11 2111.09 1253.52 2111.12C1253.68 2111.12 1253.87 2111.15 1254.04 2111.14C1254.81 2111.17 1255.67 2111.21 1256.57 2111.23C1256.76 2111.26 1256.95 2111.26 1257.18 2111.27C1257.92 2111.29 1258.69 2111.32 1259.52 2111.36C1260.64 2111.41 1261.8 2111.44 1263.02 2111.48C1263.88 2111.49 1264.81 2111.54 1265.74 2111.57C1266.71 2111.59 1267.67 2111.62 1268.67 2111.66C1269.92 2111.7 1271.24 2111.72 1272.58 2111.78C1275.32 2111.84 1278.21 2111.92 1281.26 2111.97C1283.96 2112.05 1286.79 2112.09 1289.76 2112.13C1293.17 2112.17 1296.74 2112.23 1300.45 2112.26C1314.14 2112.36 1329.83 2112.3 1346.84 2111.91C1350.14 2111.84 1353.51 2111.74 1356.91 2111.65C1359.28 2111.59 1361.71 2111.5 1364.15 2111.41C1370.02 2111.21 1376.06 2110.97 1382.15 2110.67C1473.07 2106.32 1583.79 2091.37 1627.46 2046.57C1681.27 1991.42 1707.53 1751.54 1687.15 1591.99C1686.02 1729.93 1661.15 1876.37 1620.59 1917.93C1600.54 1938.48 1564.02 1952.45 1521.4 1961.97C1503.24 1966.02 1487.92 1948.4 1493.96 1930.81C1494.01 1930.67 1494.06 1930.53 1494.11 1930.38C1505.05 1898.1 1512.7 1860.88 1514.98 1816.76C1519.88 1722.21 1513.52 1585.49 1416.51 1470.2C1414.24 1467.47 1372.51 1460.03 1321.97 1451.4Z" fill="#371A45"/>
</g>
<path d="M1313.4 2128.01C1275.5 2128.01 1249.11 2126.58 1245.54 2126.38L1229.03 2125.43L1316.28 1363.73L1331.28 1364.88C1363.12 1367.33 1643.48 1391.84 1682.13 1497.7C1706.02 1563.13 1715.29 1679.83 1706.32 1802.25C1702.87 1849.4 1687.78 2007.13 1638.67 2057.48C1578.83 2118.85 1409.3 2128.01 1313.4 2128.01ZM1263.85 2095.96C1356.19 2099.45 1558.94 2094.5 1616.31 2035.68C1677.04 1973.41 1700.22 1638.33 1652.78 1508.42C1627.36 1438.79 1433.68 1406.06 1343.87 1397.34L1263.85 2095.96Z" fill="#371A45"/>
<path d="M1636.03 1794.67L1512.69 1795.52C1501.68 1795.59 1492.09 1803.07 1489.4 1813.75C1479.54 1852.85 1461.45 1944.34 1497.88 1977.44C1528.11 2004.92 1580.21 2005.49 1612.38 1981.82C1648.36 1955.35 1657.85 1865.06 1660.36 1820.21C1661.14 1806.27 1650 1794.58 1636.03 1794.67Z" fill="white"/>
<g opacity="0.35">
<path d="M1489.41 1813.76C1479.53 1852.84 1461.45 1944.34 1497.89 1977.43C1528.13 2004.92 1580.21 2005.49 1612.39 1981.82C1634.51 1965.52 1646.62 1925.1 1653.24 1885.97C1646.37 1905.27 1636.6 1920.67 1625.09 1930.42C1559.14 1986.3 1517.8 1912.29 1517.8 1912.29C1517.8 1912.29 1508.61 1928.95 1502.16 1929.49C1475.18 1931.74 1486.4 1848.52 1493.21 1805.6C1491.48 1807.98 1490.16 1810.72 1489.41 1813.76Z" fill="#371A45"/>
</g>
<path d="M1557.64 2011.23C1532.53 2011.23 1507.59 2002.91 1489.59 1986.56C1449.61 1950.22 1464.83 1860.8 1477.46 1810.73C1481.52 1794.63 1495.97 1783.31 1512.6 1783.2L1635.95 1782.35C1636.03 1782.35 1636.11 1782.35 1636.19 1782.35C1646.15 1782.35 1655.79 1786.48 1662.65 1793.69C1669.57 1800.96 1673.22 1810.87 1672.66 1820.89C1669.15 1883.64 1657.11 1964.21 1619.68 1991.75C1601.94 2004.79 1579.72 2011.23 1557.64 2011.23ZM1636.12 1806.99L1512.77 1807.84C1507.36 1807.87 1502.66 1811.54 1501.35 1816.76C1482.43 1891.73 1484.24 1948.39 1506.16 1968.32C1531.33 1991.19 1576.62 1992.83 1605.07 1971.9C1627.58 1955.34 1643.65 1898.38 1648.06 1819.52C1648.24 1816.21 1647.09 1813.08 1644.81 1810.68C1642.52 1808.28 1639.55 1807.04 1636.12 1806.99Z" fill="#371A45"/>
<path d="M1551.34 2009.47C1548.73 2007.73 1547.44 2006.57 1545.73 2005.1C1544.16 2003.7 1542.65 2002.27 1541.26 2000.79C1538.42 1997.85 1535.85 1994.77 1533.51 1991.56C1528.87 1985.14 1524.82 1978.4 1521.82 1971.29C1515.51 1957.19 1512.18 1942.25 1511.06 1927.48C1509.98 1912.66 1510.97 1898.05 1512.62 1883.92C1513.46 1876.79 1514.56 1869.68 1516.02 1862.61C1517.6 1855.46 1519.09 1848.71 1522.29 1841.35C1523.1 1839.49 1525.27 1838.64 1527.13 1839.45C1528.86 1840.21 1529.72 1842.14 1529.17 1843.91L1529.02 1844.38C1527.18 1850.18 1526.16 1857.38 1525.44 1864.08C1524.74 1870.91 1524.39 1877.81 1524.29 1884.73C1524.09 1898.65 1524.62 1912.3 1526.94 1925.43C1529.29 1938.57 1533.6 1951.15 1539.98 1962.18C1543.03 1967.78 1546.89 1972.8 1550.96 1977.39C1553.02 1979.67 1555.21 1981.8 1557.48 1983.7C1558.6 1984.68 1559.75 1985.55 1560.9 1986.38C1561.92 1987.12 1563.45 1988.09 1563.81 1988.22C1570.25 1990.65 1573.5 1997.84 1571.07 2004.28C1568.64 2010.71 1561.45 2013.97 1555.01 2011.53C1554.13 2011.2 1553.31 2010.78 1552.56 2010.29L1551.34 2009.47Z" fill="#371A45"/>
<path d="M1482.25 1472.91C1497.58 1471.76 1512.71 1471.02 1527.99 1470.49C1543.23 1469.97 1558.51 1469.7 1573.84 1469.88C1589.18 1470.05 1604.55 1470.48 1620.07 1471.75C1635.59 1473.03 1651.17 1474.74 1667.23 1478.46C1675.64 1480.42 1680.88 1488.82 1678.93 1497.23C1676.97 1505.64 1668.57 1510.88 1660.16 1508.92C1659.74 1508.82 1659.32 1508.71 1658.91 1508.58L1658.81 1508.54C1645.67 1504.3 1631.28 1501.41 1616.82 1499.01C1602.31 1496.58 1587.5 1494.93 1572.65 1493.52C1557.79 1492.1 1542.83 1491.12 1527.84 1490.37C1512.88 1489.64 1497.77 1489.12 1482.88 1489L1482.78 1489C1478.34 1488.96 1474.76 1485.32 1474.8 1480.88C1474.83 1476.67 1478.13 1473.23 1482.25 1472.91Z" fill="#371A45"/>
<path d="M2055.21 1534.32C2055.21 1534.32 1935.8 1952.4 1453.05 1747.21C1432.63 1738.54 1411.54 1728.78 1389.79 1717.73L1385.07 1559.47L1383.78 1515.69L1379.29 1365.83C1379.29 1365.83 1398.46 1380.2 1430.95 1398.86C1448.09 1408.82 1468.94 1419.87 1492.61 1430.69C1569.45 1465.79 1676.13 1498.04 1783.01 1476.96C1824.32 1468.84 1865.63 1452.71 1905.3 1425.73L2055.21 1534.32Z" fill="white"/>
<g opacity="0.25">
<path d="M2055.21 1534.32C2055.21 1534.32 1935.8 1952.4 1453.05 1747.21C1432.63 1738.54 1411.55 1728.78 1389.8 1717.73L1385.07 1559.47C1462.85 1617.33 1598.23 1785.47 1793.32 1687.62C1892.89 1637.72 1795.42 1598.79 1783.01 1476.96C1824.32 1468.84 1865.63 1452.71 1905.3 1425.73L2055.21 1534.32Z" fill="#371A45"/>
</g>
<path d="M1697.91 1819.62C1604.01 1819.62 1498.59 1790.27 1382.72 1731.7C1375.02 1727.81 1371.93 1718.41 1375.82 1710.71C1379.72 1703.01 1389.12 1699.93 1396.81 1703.82C1572.61 1792.69 1721.7 1811.61 1839.93 1760.06C1969.28 1703.66 2023.4 1577.07 2036.75 1540.24L1904.87 1444.68C1806.59 1507.17 1684.03 1516.05 1549.6 1470.24C1446.16 1434.98 1372.98 1380.62 1369.92 1378.33C1363.02 1373.16 1361.62 1363.37 1366.79 1356.47C1371.96 1349.57 1381.75 1348.17 1388.65 1353.33C1391.48 1355.44 1674.86 1563.73 1896.5 1412.79C1901.94 1409.08 1909.12 1409.18 1914.46 1413.05L2064.38 1521.68C2069.7 1525.53 2072.03 1532.3 2070.23 1538.62C2068.17 1545.84 2017.79 1716.36 1852.76 1788.54C1805.37 1809.27 1753.66 1819.62 1697.91 1819.62Z" fill="#371A45"/>
<path d="M1734.58 1817.92C1733.47 1817.92 1732.35 1817.8 1731.23 1817.55C1697 1810.08 1671.41 1791.19 1655.15 1761.41C1602.58 1665.1 1668.65 1484.96 1671.49 1477.34C1674.5 1469.26 1683.49 1465.14 1691.57 1468.15C1699.65 1471.16 1703.77 1480.15 1700.76 1488.24C1700.12 1489.97 1636.81 1662.66 1682.58 1746.47C1694.47 1768.23 1712.57 1781.5 1737.9 1787.04C1746.32 1788.88 1751.66 1797.2 1749.82 1805.63C1748.23 1812.93 1741.76 1817.92 1734.58 1817.92Z" fill="#371A45"/>
<path d="M2147.71 3439.43C1854.69 3529.17 1485.66 3582.62 1084.74 3582.62C683.855 3582.62 314.824 3529.17 21.7992 3439.47C21.7992 3439.04 21.7592 3438.56 21.7592 3438.13C21.6802 3434.01 21.6012 3429.9 21.5212 3425.74V3424.83C21.2442 3404.77 21.5612 3384.63 22.5102 3364.46C22.6682 3360.54 22.8662 3356.58 23.1042 3352.67C25.5172 3309.34 30.6222 3266.02 38.4562 3222.89C40.9882 3208.96 43.7972 3195.04 46.9232 3181.15C49.2582 3170.7 51.7502 3160.3 54.4012 3149.93C56.1812 3143.01 58.0412 3136.12 59.9402 3129.2C60.8902 3125.75 61.8792 3122.31 62.8682 3118.87C64.8462 3111.99 66.9042 3105.1 69.0402 3098.22C73.3132 3084.49 77.9032 3070.8 82.7302 3057.15C85.1832 3050.34 87.6762 3043.58 90.2482 3036.77C94.1262 3026.6 98.1612 3016.43 102.355 3006.31C105.165 2999.58 108.053 2992.85 110.981 2986.17C112.445 2982.8 113.948 2979.44 115.452 2976.08C127.559 2949.29 140.853 2922.78 155.374 2896.63C163.88 2881.36 172.703 2866.36 181.843 2851.68C184.731 2847.05 187.619 2842.42 190.547 2837.83C191.457 2836.45 192.367 2835.1 193.238 2833.72C195.572 2830.12 197.907 2826.56 200.28 2823C204.633 2816.47 209.024 2810.02 213.495 2803.65C215.156 2801.2 216.898 2798.74 218.639 2796.33C219.865 2794.55 221.131 2792.81 222.398 2791.07C224.93 2787.55 227.463 2784.06 230.034 2780.58C233.397 2775.99 236.8 2771.48 240.242 2766.97C243.684 2762.46 247.166 2757.99 250.648 2753.56C254.169 2749.09 257.69 2744.7 261.252 2740.34C261.252 2740.3 261.292 2740.3 261.292 2740.3C264.378 2736.5 267.464 2732.79 270.55 2729.07C271.539 2727.92 272.489 2726.81 273.399 2725.7C275.892 2722.74 278.384 2719.81 280.917 2716.92C282.262 2715.38 283.568 2713.83 284.913 2712.33C287.96 2708.85 291.045 2705.37 294.132 2701.92C297.891 2697.77 301.65 2693.62 305.448 2689.54C309.246 2685.43 313.084 2681.39 316.922 2677.35C320.364 2673.75 323.846 2670.19 327.328 2666.63C327.961 2666 328.555 2665.37 329.187 2664.73C332.787 2661.09 336.428 2657.49 340.068 2653.93C340.187 2653.77 340.306 2653.65 340.464 2653.53C348.377 2645.74 356.37 2638.14 364.48 2630.7C368.555 2626.95 372.671 2623.23 376.786 2619.55C385.095 2612.11 393.562 2604.83 402.108 2597.67C406.223 2594.23 410.378 2590.82 414.532 2587.46C418.805 2583.98 423.118 2580.54 427.431 2577.17C432.535 2573.14 437.717 2569.18 442.901 2565.26C446.462 2562.57 450.023 2559.88 453.623 2557.27C458.015 2554.03 462.446 2550.82 466.878 2547.66C472.892 2543.34 478.945 2539.15 485.039 2535C487.571 2533.26 490.103 2531.55 492.675 2529.85C494.139 2528.86 495.603 2527.87 497.106 2526.92C499.203 2525.5 501.3 2524.12 503.437 2522.73C504.585 2521.98 505.732 2521.23 506.918 2520.48C507.314 2520.24 507.71 2519.96 508.105 2519.72C512.497 2516.84 516.928 2514.03 521.4 2511.26C530.302 2505.68 539.283 2500.26 548.384 2494.96C551.43 2493.17 554.477 2491.43 557.523 2489.65C566.623 2484.47 575.843 2479.41 585.1 2474.5C588.186 2472.88 591.312 2471.26 594.398 2469.63C611.095 2460.97 628.029 2452.74 645.121 2444.98C653.667 2441.11 662.253 2437.35 670.918 2433.71C688.248 2426.43 705.696 2419.58 723.343 2413.21C736.558 2408.43 749.892 2403.92 763.265 2399.68C790.051 2391.22 817.194 2383.78 844.613 2377.41C862.853 2373.13 881.251 2369.37 899.728 2366.13C917.612 2362.96 935.575 2360.24 953.617 2358.02C954.764 2357.86 955.912 2357.7 957.059 2357.58C965.843 2356.52 974.627 2355.53 983.45 2354.7C992.827 2353.79 1002.2 2353.03 1011.58 2352.36C1016.25 2352.04 1020.96 2351.77 1025.67 2351.49C1027.01 2351.41 1028.32 2351.29 1029.62 2351.25C1034.21 2351.02 1038.84 2350.78 1043.47 2350.62C1048.06 2350.42 1052.69 2350.26 1057.32 2350.15C1062.03 2350.03 1066.74 2349.95 1071.41 2349.87C1085.06 2349.71 1098.75 2349.79 1112.44 2350.11C1116.35 2350.23 1120.27 2350.34 1124.19 2350.46C1131.98 2350.74 1139.78 2351.1 1147.57 2351.57C1159.28 2352.28 1171.03 2353.15 1182.74 2354.22C1190.54 2354.93 1198.29 2355.72 1206.09 2356.64C1206.13 2356.64 1206.13 2356.64 1206.13 2356.64C1299.78 2367.36 1393.08 2390.78 1483.45 2427.54C1518.3 2441.62 1552.76 2457.77 1586.59 2475.89C1591.46 2478.5 1596.29 2481.15 1601.11 2483.84C1609.38 2488.43 1617.57 2493.06 1625.68 2497.92C1630.59 2500.81 1635.46 2503.74 1640.24 2506.75C1645.35 2509.87 1650.37 2513 1655.4 2516.2C1662.11 2520.47 1668.75 2524.84 1675.34 2529.24C1676.91 2530.29 1678.53 2531.29 1680.09 2532.35C1681.75 2533.45 1683.37 2534.56 1685.03 2535.75C1689.58 2538.84 1694.09 2541.96 1698.6 2545.13C1699.32 2545.64 1700.03 2546.16 1700.74 2546.67C1705.13 2549.76 1709.49 2552.92 1713.84 2556.09C1718.59 2559.57 1723.25 2563.05 1727.92 2566.57C1732.59 2570.09 1737.22 2573.65 1741.77 2577.25C1746.36 2580.85 1750.91 2584.49 1755.42 2588.13C1759.97 2591.81 1764.44 2595.49 1768.87 2599.21C1773.3 2602.93 1777.74 2606.69 1782.09 2610.49C1786.48 2614.29 1790.79 2618.09 1795.11 2621.96C1799.38 2625.8 1803.65 2629.68 1807.89 2633.6C1816.35 2641.35 1824.62 2649.31 1832.77 2657.42C1853.19 2677.52 1872.65 2698.41 1891.13 2719.97C1902.29 2732.87 1913.05 2746.04 1923.46 2759.46C1926.9 2763.93 1930.34 2768.4 1933.75 2772.91C1937.15 2777.42 1940.51 2781.97 1943.83 2786.52C1953.84 2800.17 1963.46 2814.06 1972.68 2828.18C1975.68 2832.73 1978.65 2837.32 1981.58 2841.91C1981.78 2842.23 1981.98 2842.54 1982.17 2842.86C1985.06 2847.45 1987.95 2852.04 1990.76 2856.63C1993.69 2861.42 1996.58 2866.24 1999.46 2871.07C2002.31 2875.9 2005.12 2880.72 2007.89 2885.59C2013.47 2895.33 2018.89 2905.14 2024.07 2915.03C2029.34 2924.92 2034.4 2934.89 2039.31 2944.94C2041.76 2949.97 2044.17 2954.99 2046.55 2960.05C2053.71 2975.21 2060.47 2990.52 2066.84 3005.99C2068.98 3011.17 2071.08 3016.32 2073.14 3021.5C2081.33 3042.19 2088.88 3063.12 2095.73 3084.29C2095.81 3084.61 2095.93 3084.89 2096.01 3085.2C2097.67 3090.27 2099.25 3095.33 2100.79 3100.4C2102.45 3105.74 2104.04 3111.08 2105.62 3116.42C2107.16 3121.76 2108.67 3127.14 2110.13 3132.48C2111.59 3137.86 2113.06 3143.25 2114.44 3148.67C2115.71 3153.65 2116.97 3158.64 2118.16 3163.66C2118.4 3164.61 2118.64 3165.6 2118.87 3166.55C2120.02 3171.42 2121.17 3176.28 2122.24 3181.15C2124.69 3192.03 2126.98 3202.95 2129.04 3213.91C2130.07 3219.41 2131.1 3224.87 2132.05 3230.37C2133.04 3235.87 2133.95 3241.37 2134.82 3246.87C2135.69 3252.41 2136.52 3257.91 2137.31 3263.45C2138.02 3268.51 2138.74 3273.54 2139.37 3278.6C2139.45 3279.39 2139.57 3280.18 2139.69 3280.94C2140.28 3285.88 2140.87 3290.79 2141.43 3295.73C2141.47 3296.17 2141.51 3296.64 2141.59 3297.08C2142.18 3302.5 2142.73 3307.92 2143.25 3313.38C2143.8 3318.92 2144.28 3324.5 2144.71 3330.08C2145.62 3341.23 2146.33 3352.39 2146.85 3363.59C2148.03 3388.79 2148.31 3414.11 2147.71 3439.43Z" fill="#FFD243"/>
<path d="M2147.95 3426.58C2147.91 3430.29 2147.83 3433.96 2147.75 3437.7C2147.75 3438.29 2147.75 3438.84 2147.71 3439.42C2138.34 3442.27 2128.93 3445.12 2119.36 3447.94C2090.12 3456.53 2060.09 3464.77 2029.36 3472.61C2007.81 3478.16 1985.9 3483.51 1963.64 3488.66C1891.83 3505.3 1816.67 3519.98 1738.61 3532.51C1736.07 3532.94 1733.49 3533.33 1730.92 3533.72C1730.8 3533.76 1730.68 3533.76 1730.53 3533.8C1722.21 3535.09 1713.93 3536.42 1705.54 3537.67C1683.86 3540.91 1662 3543.99 1639.94 3546.96C1630.21 3548.25 1620.49 3549.5 1610.73 3550.71C1444.85 3571.48 1268.16 3582.61 1084.75 3582.61C812.786 3582.61 555.538 3558.05 326.678 3514.2C314.886 3511.97 303.21 3509.67 291.613 3507.29C206.801 3490.11 126.167 3470.27 50.3364 3448.01C40.7704 3445.2 31.2424 3442.35 21.8314 3439.46H21.7924C21.7924 3439.03 21.7534 3438.57 21.7534 3438.14C21.7144 3435.32 21.6364 3432.51 21.5974 3429.7C21.5584 3428.41 21.5584 3427.09 21.5194 3425.76V3424.82C21.4804 3422.63 21.4804 3420.37 21.4804 3418.14C21.4024 3406.66 21.5194 3395.18 21.8314 3383.74C21.9874 3377.3 22.2224 3370.86 22.4954 3364.45C22.5344 3363.01 22.6125 3361.56 22.7295 3360.12C22.7295 3359.81 22.7295 3359.45 22.8075 3359.14C22.8855 3356.99 23.0024 3354.81 23.1204 3352.66C23.2374 3350.59 23.3545 3348.6 23.5105 3346.53C23.7445 3342.27 24.0575 3337.98 24.3305 3333.72C24.9945 3324.82 25.8144 3315.96 26.6734 3307.09C29.4454 3278.98 33.3505 3250.9 38.4665 3222.9C41.0045 3208.96 43.8555 3195.02 46.9395 3181.16C49.2435 3170.7 51.7424 3160.31 54.3974 3149.92C56.1934 3143.01 58.0295 3136.14 59.9425 3129.19C60.8795 3125.75 61.8944 3122.32 62.8714 3118.88C64.8624 3111.97 66.8935 3105.1 69.0415 3098.23C73.2975 3084.48 77.9055 3070.81 82.7475 3057.15C85.1685 3050.35 87.6675 3043.6 90.2445 3036.76C94.1105 3026.61 98.1714 3016.42 102.349 3006.31C105.16 2999.59 108.05 2992.87 110.979 2986.16C112.463 2982.8 113.947 2979.44 115.47 2976.08C127.575 2949.34 140.851 2922.86 155.377 2896.7C163.889 2881.39 172.714 2866.4 181.851 2851.68C184.741 2847.07 187.63 2842.42 190.559 2837.86C191.457 2836.45 192.355 2835.12 193.253 2833.72C195.557 2830.12 197.9 2826.57 200.282 2823.02C204.616 2816.46 209.029 2810.01 213.48 2803.65C215.159 2801.19 216.916 2798.73 218.634 2796.35C219.884 2794.55 221.133 2792.8 222.383 2791.08C224.921 2787.56 227.459 2784.09 230.036 2780.57C233.394 2776 236.791 2771.48 240.228 2766.98C243.703 2762.45 247.179 2758 250.654 2753.55C254.168 2749.1 257.683 2744.69 261.236 2740.35C261.236 2740.32 261.275 2740.32 261.275 2740.32C264.399 2736.53 267.484 2732.78 270.568 2729.07C271.544 2727.94 272.481 2726.8 273.418 2725.71C275.878 2722.74 278.377 2719.82 280.915 2716.93C282.282 2715.36 283.57 2713.84 284.898 2712.32C287.944 2708.84 291.028 2705.37 294.113 2701.93C297.901 2697.79 301.649 2693.61 305.437 2689.55C309.264 2685.41 313.09 2681.39 316.917 2677.37C320.353 2673.78 323.828 2670.18 327.343 2666.63C327.968 2666.01 328.553 2665.38 329.178 2664.76C332.77 2661.09 336.441 2657.49 340.072 2653.94C340.189 2653.78 340.306 2653.67 340.463 2653.55C348.39 2645.78 356.357 2638.2 364.478 2630.71C368.539 2626.96 372.677 2623.25 376.777 2619.54C385.094 2612.12 393.567 2604.82 402.119 2597.67C406.219 2594.24 410.358 2590.84 414.536 2587.48C418.792 2583.97 423.127 2580.53 427.422 2577.17C432.537 2573.15 437.731 2569.17 442.885 2565.26C446.321 2562.69 449.718 2560.11 453.155 2557.61C453.311 2557.49 453.468 2557.38 453.624 2557.26C457.997 2554.02 462.449 2550.82 466.861 2547.65C472.874 2543.36 478.927 2539.14 485.057 2535C487.556 2533.25 490.094 2531.57 492.671 2529.85C494.155 2528.87 495.6 2527.9 497.124 2526.92C500.365 2524.77 503.644 2522.62 506.924 2520.48C507.314 2520.24 507.705 2519.97 508.095 2519.73C512.507 2516.88 516.921 2514.07 521.41 2511.3C530.313 2505.72 539.333 2500.25 548.392 2494.98C551.438 2493.18 554.484 2491.42 557.529 2489.67C566.667 2484.47 575.842 2479.4 585.097 2474.52C588.182 2472.88 591.306 2471.28 594.39 2469.64C611.103 2460.97 628.01 2452.73 645.113 2445C653.664 2441.13 662.294 2437.34 670.924 2433.71C688.261 2426.45 705.676 2419.58 723.326 2413.21C736.563 2408.49 749.839 2403.96 763.272 2399.7C790.059 2391.23 817.197 2383.77 844.609 2377.41C862.883 2373.19 881.236 2369.4 899.745 2366.12C917.629 2362.96 935.591 2360.26 953.631 2358.04C954.764 2357.88 955.896 2357.73 957.067 2357.61C965.853 2356.51 974.638 2355.58 983.463 2354.72C992.796 2353.82 1002.17 2353.04 1011.58 2352.38C1016.26 2352.06 1020.95 2351.79 1025.67 2351.48C1027 2351.44 1028.33 2351.32 1029.66 2351.28C1034.3 2351.01 1038.87 2350.81 1043.48 2350.62C1048.09 2350.42 1052.73 2350.31 1057.34 2350.19C1062.03 2350.07 1066.71 2349.96 1071.4 2349.88C1085.07 2349.72 1098.73 2349.8 1112.44 2350.11C1116.34 2350.23 1120.25 2350.35 1124.19 2350.46C1131.96 2350.74 1139.77 2351.13 1147.58 2351.56C1159.3 2352.3 1171.05 2353.16 1182.72 2354.21C1190.53 2354.96 1198.34 2355.78 1206.08 2356.63C1206.11 2356.63 1206.11 2356.63 1206.11 2356.63C1299.83 2367.41 1393.08 2390.8 1483.43 2427.58C1518.3 2441.68 1552.78 2457.77 1586.6 2475.89C1591.44 2478.5 1596.28 2481.16 1601.12 2483.85C1609.4 2488.46 1617.56 2493.11 1625.68 2497.99C1630.6 2500.84 1635.45 2503.81 1640.25 2506.81C1645.33 2509.94 1650.36 2513.06 1655.4 2516.22C1665.4 2522.59 1675.31 2529.11 1685.04 2535.75C1689.57 2538.83 1694.1 2541.96 1698.59 2545.12C1699.33 2545.67 1700.03 2546.17 1700.74 2546.68C1705.15 2549.77 1709.48 2552.93 1713.86 2556.09C1718.58 2559.57 1723.27 2563.04 1727.91 2566.6C1732.6 2570.11 1737.21 2573.67 1741.77 2577.26C1746.34 2580.85 1750.91 2584.52 1755.4 2588.15C1759.97 2591.82 1764.42 2595.49 1768.87 2599.24C1773.29 2602.95 1777.74 2606.7 1782.07 2610.49C1786.48 2614.31 1790.78 2618.1 1795.11 2621.97C1799.37 2625.79 1803.67 2629.7 1807.88 2633.6C1816.32 2641.45 1824.63 2649.34 1832.76 2657.42C1853.14 2677.57 1872.62 2698.46 1891.13 2719.98C1902.26 2732.9 1913 2746.1 1923.46 2759.45C1926.9 2763.95 1930.34 2768.4 1933.73 2772.93C1937.13 2777.42 1940.53 2781.99 1943.85 2786.52C1953.81 2800.22 1963.41 2814.12 1972.67 2828.18C1975.67 2832.75 1978.64 2837.32 1981.57 2841.92C1981.76 2842.24 1981.96 2842.55 1982.15 2842.86C1985.04 2847.47 1987.93 2852.04 1990.75 2856.65C1993.67 2861.41 1996.56 2866.25 1999.45 2871.09C2002.3 2875.9 2005.12 2880.74 2007.89 2885.62C2013.43 2895.34 2018.86 2905.14 2024.09 2915.02C2029.29 2924.94 2034.4 2934.9 2039.32 2944.93C2041.74 2949.97 2044.16 2955.01 2046.55 2960.08C2053.65 2975.23 2060.45 2990.54 2066.85 3006C2069 3011.2 2071.07 3016.31 2073.14 3021.51C2081.34 3042.2 2088.83 3063.17 2095.75 3084.29C2095.82 3084.61 2095.94 3084.88 2096.02 3085.19C2097.66 3090.27 2099.26 3095.34 2100.78 3100.42C2102.46 3105.73 2104.02 3111.08 2105.63 3116.43C2107.15 3121.78 2108.67 3127.17 2110.12 3132.48C2111.6 3137.87 2113.04 3143.26 2114.45 3148.68C2115.7 3153.64 2116.99 3158.64 2118.16 3163.68C2118.39 3164.61 2118.63 3165.59 2118.86 3166.57C2120.03 3171.41 2121.17 3176.29 2122.22 3181.17C2124.68 3192.03 2126.94 3202.96 2129.05 3213.93C2130.07 3219.4 2131.08 3224.86 2132.06 3230.37C2133.04 3235.88 2133.93 3241.38 2134.83 3246.89C2135.69 3252.43 2136.51 3257.9 2137.33 3263.44C2138.03 3268.52 2138.74 3273.56 2139.36 3278.59C2139.44 3279.41 2139.56 3280.2 2139.67 3280.94C2140.3 3285.9 2140.88 3290.78 2141.43 3295.74C2141.47 3296.17 2141.51 3296.63 2141.59 3297.1C2142.02 3301.01 2142.41 3304.91 2142.76 3308.86C2142.95 3310.38 2143.07 3311.86 2143.23 3313.39C2143.81 3318.97 2144.28 3324.52 2144.71 3330.1C2145.14 3335.49 2145.49 3340.92 2145.84 3346.34C2146.51 3355.68 2146.94 3365.01 2147.29 3374.38C2147.48 3378.79 2147.6 3383.17 2147.72 3387.58C2147.79 3390.94 2147.87 3394.33 2147.91 3397.69C2148.03 3407.29 2148.07 3416.97 2147.95 3426.58Z" fill="#FFD243"/>
<path d="M1807.88 2633.59C1517.65 2944.51 1279.32 2464.92 1013.33 2531.06C916.77 2555.07 844.684 2626.15 611.377 2615.59C515.485 2611.25 472.406 2584.24 453.155 2557.61C453.311 2557.49 453.468 2557.37 453.624 2557.26C457.997 2554.01 462.449 2550.81 466.861 2547.65C472.874 2543.35 478.927 2539.14 485.057 2535C487.556 2533.24 490.094 2531.56 492.671 2529.84C494.155 2528.87 495.6 2527.89 497.123 2526.92C500.364 2524.77 503.644 2522.62 506.924 2520.47C507.314 2520.24 507.705 2519.97 508.095 2519.73C512.507 2516.88 516.92 2514.07 521.41 2511.3C530.313 2505.71 539.333 2500.25 548.392 2494.97C551.438 2493.18 554.484 2491.42 557.529 2489.66C566.666 2484.47 575.842 2479.39 585.097 2474.51C588.182 2472.87 591.306 2471.27 594.39 2469.63C611.103 2460.96 628.01 2452.72 645.113 2444.99C653.664 2441.13 662.294 2437.34 670.924 2433.71C688.261 2426.44 705.676 2419.57 723.326 2413.21C736.563 2408.48 749.839 2403.95 763.272 2399.7C790.059 2391.22 817.197 2383.77 844.609 2377.4C862.883 2373.18 881.236 2369.4 899.745 2366.12C917.629 2362.95 935.591 2360.26 953.631 2358.03C954.764 2357.88 955.896 2357.72 957.067 2357.6C965.853 2356.51 974.638 2355.57 983.463 2354.72C992.796 2353.82 1002.17 2353.04 1011.58 2352.37C1016.26 2352.06 1020.95 2351.79 1025.67 2351.47C1027 2351.44 1028.33 2351.32 1029.66 2351.28C1034.3 2351.01 1038.87 2350.81 1043.48 2350.62C1048.09 2350.42 1052.73 2350.3 1057.34 2350.19C1062.03 2350.07 1066.71 2349.95 1071.4 2349.87C1085.07 2349.72 1098.73 2349.8 1112.44 2350.11C1116.34 2350.23 1120.25 2350.34 1124.19 2350.46C1131.96 2350.73 1139.77 2351.12 1147.58 2351.55C1159.3 2352.3 1171.05 2353.15 1182.72 2354.21C1190.53 2354.95 1198.34 2355.77 1206.08 2356.63C1206.11 2356.63 1206.11 2356.63 1206.11 2356.63C1299.83 2367.41 1393.08 2390.8 1483.43 2427.58C1518.3 2441.68 1552.78 2457.76 1586.6 2475.88C1591.44 2478.5 1596.28 2481.15 1601.12 2483.85C1609.4 2488.46 1617.56 2493.1 1625.68 2497.98C1630.6 2500.84 1635.45 2503.8 1640.25 2506.81C1645.33 2509.93 1650.36 2513.06 1655.4 2516.22C1665.4 2522.59 1675.31 2529.11 1685.04 2535.74C1689.57 2538.83 1694.1 2541.95 1698.59 2545.12C1699.33 2545.66 1700.03 2546.17 1700.74 2546.68C1705.15 2549.76 1709.48 2552.93 1713.86 2556.09C1718.58 2559.56 1723.27 2563.04 1727.91 2566.59C1732.6 2570.11 1737.21 2573.66 1741.77 2577.25C1746.34 2580.85 1750.91 2584.52 1755.4 2588.15C1759.97 2591.82 1764.42 2595.49 1768.87 2599.24C1773.29 2602.95 1777.74 2606.7 1782.07 2610.48C1786.48 2614.31 1790.78 2618.1 1795.11 2621.96C1799.37 2625.78 1803.66 2629.69 1807.88 2633.59Z" fill="#FF9D33"/>
<path d="M26.6671 3307.09C31.4151 3354.6 39.3282 3401.69 50.3272 3448.02C40.7522 3445.21 31.2562 3442.36 21.8402 3439.47C21.7212 3436.23 21.6421 3432.98 21.6021 3429.7C21.5231 3425.86 21.4831 3422.02 21.4831 3418.15C21.4041 3406.67 21.5232 3395.2 21.8402 3383.73C22.0382 3375.85 22.3541 3367.98 22.7501 3360.1C22.7501 3359.79 22.7501 3359.47 22.7901 3359.16C22.9881 3354.96 23.2252 3350.73 23.5022 3346.53C23.7401 3342.26 24.0561 3337.99 24.3331 3333.71C25.0041 3324.81 25.7961 3315.95 26.6671 3307.09Z" fill="#FCAC38"/>
<path d="M2147.95 3426.57C2147.91 3430.29 2147.83 3433.97 2147.75 3437.69C2147.75 3438.29 2147.75 3438.84 2147.71 3439.43C2138.34 3442.28 2128.92 3445.13 2119.38 3447.94C2119.82 3446.16 2120.25 3444.38 2120.65 3442.6C2130.22 3401.53 2137.23 3360.14 2141.74 3318.76C2142.09 3315.47 2142.45 3312.15 2142.77 3308.87C2142.81 3308.79 2142.81 3308.75 2142.81 3308.67C2142.96 3310.25 2143.12 3311.79 2143.24 3313.38C2143.8 3318.96 2144.27 3324.49 2144.71 3330.07C2145.14 3335.49 2145.5 3340.91 2145.85 3346.34C2146.49 3355.67 2146.92 3365.01 2147.28 3374.39C2147.47 3378.78 2147.59 3383.17 2147.71 3387.56C2147.79 3390.93 2147.87 3394.33 2147.91 3397.69C2148.03 3407.31 2148.07 3416.96 2147.95 3426.57Z" fill="#FCAC38"/>
<path d="M2029.37 3472.63C2007.81 3478.17 1985.89 3483.51 1963.65 3488.65C1891.84 3505.31 1816.67 3519.99 1738.6 3532.53C1736.07 3532.93 1733.5 3533.32 1730.93 3533.72C1730.81 3533.76 1730.69 3533.76 1730.53 3533.8C1730.81 3532.41 1731.12 3531.03 1731.44 3529.64C1760.48 3400.1 1847.29 3294.94 1925.31 3294.74C1964.48 3294.62 1995.78 3321.84 2013.59 3365.33C2025.65 3394.76 2031.51 3431.68 2029.37 3472.63Z" fill="#FF9D33"/>
<path d="M1670.98 3441.93L1670.94 3442.01C1654.17 3474.69 1644.08 3509.39 1640.12 3544.84C1640.04 3545.55 1639.97 3546.26 1639.93 3546.97C1630.23 3548.24 1620.5 3549.51 1610.73 3550.69C1611.24 3547.33 1611.83 3543.97 1612.47 3540.6C1619.83 3502.11 1635.93 3464.76 1661.29 3435.4C1663.43 3432.95 1667.15 3432.67 1669.6 3434.8C1671.7 3436.58 1672.21 3439.55 1670.98 3441.93Z" fill="#371A45"/>
<path d="M607.976 2867.65C666.215 2863.92 710.844 2820.62 707.659 2770.94C704.473 2721.27 654.679 2684.02 596.44 2687.76C538.201 2691.49 493.572 2734.79 496.757 2784.47C499.943 2834.14 549.738 2871.39 607.976 2867.65Z" fill="#FF9D33"/>
<path d="M647.567 2868.01C688.686 2852.79 712.065 2813.55 699.785 2780.38C687.505 2747.2 644.217 2732.64 603.097 2747.86C561.978 2763.08 538.599 2802.31 550.879 2835.49C563.159 2868.67 606.448 2883.23 647.567 2868.01Z" fill="#FFD243"/>
<path d="M605.251 2876.14C582.388 2878.82 558.348 2874.87 536.938 2864.3C526.333 2858.86 516.365 2851.84 507.767 2843.16C499.313 2834.37 492.172 2824.04 487.426 2812.44C477.616 2789.28 478.996 2761.87 489.382 2739.06C494.59 2727.6 502.191 2717.49 510.893 2708.77C519.67 2700.12 529.587 2692.64 540.493 2687.13C551.391 2681.63 562.941 2677.63 574.773 2675.04C586.66 2672.68 598.753 2671.83 610.798 2672.43C622.84 2673.33 634.761 2675.61 646.231 2679.42C657.7 2683.28 668.463 2689.12 678.26 2696.21C697.991 2710.19 712.758 2731.86 717.316 2755.73C722.201 2779.56 715.724 2804.69 701.819 2823.11C700.664 2824.66 698.471 2824.99 696.92 2823.83C695.516 2822.79 695.131 2820.87 695.923 2819.37C706.052 2800.46 709.06 2778.54 703.096 2759.03C697.595 2739.53 684.261 2722.9 667.233 2712.03C633.291 2689.81 586.647 2688.96 551.289 2707.78C533.733 2717.22 518.445 2731.28 510.146 2748.86C501.673 2766.18 500.175 2786.65 506.691 2805.02C513.155 2823.43 527.276 2839.32 544.818 2850.03C562.403 2860.91 583.393 2866.57 604.891 2867.48L604.927 2867.48C607.325 2867.58 609.187 2869.61 609.086 2872C608.996 2874.17 607.336 2875.9 605.251 2876.14Z" fill="#371A45"/>
<path d="M738.109 2714.02C752.501 2731.43 761.731 2753.66 763.974 2776.9C766.315 2800.19 760.992 2824.14 750.299 2845.05C739.769 2866.19 723.282 2883.79 704.459 2897.47C685.423 2910.95 663.829 2920.66 641.23 2925.85C618.622 2930.94 595.208 2932.16 572.299 2928.86C549.42 2925.62 527.088 2917.95 507.349 2905.89C487.611 2893.95 470.237 2877.7 458.247 2857.97C446.412 2838.21 439.963 2815.26 440.799 2792.75C440.87 2790.82 442.495 2789.31 444.426 2789.38C446.172 2789.45 447.571 2790.78 447.771 2792.46L447.778 2792.52C450.307 2813.58 458.227 2833.33 470.385 2849.86C482.508 2866.47 498.967 2879.46 516.882 2889.13C553.003 2908.38 596.362 2912.65 635.919 2903.17C655.677 2898.4 674.66 2890.32 691.203 2878.72C699.649 2873.16 707.167 2866.4 714.251 2859.26C717.558 2855.51 720.875 2851.71 723.907 2847.73C726.564 2843.51 729.981 2839.71 732.155 2835.2L735.825 2828.64C736.953 2826.42 737.801 2824.06 738.817 2821.78C741.03 2817.25 742.209 2812.4 743.712 2807.61C744.593 2805.24 744.952 2802.77 745.415 2800.3L746.825 2792.89C747.094 2787.89 747.703 2782.85 747.692 2777.79C747.704 2757.49 741.617 2737.19 731.001 2718.98C729.79 2716.91 730.49 2714.25 732.563 2713.03C734.431 2711.94 736.776 2712.4 738.109 2714.02Z" fill="#371A45"/>
<path d="M491.288 3312.9C483.573 3344.04 471.426 3374.07 454.531 3401.17C437.597 3428.24 416.706 3452.85 392.255 3473.26C389.327 3475.95 386.083 3478.29 382.958 3480.7L373.422 3487.9L363.491 3494.43C360.168 3496.6 356.844 3498.78 353.323 3500.64L342.917 3506.38C339.475 3508.36 335.755 3509.86 332.235 3511.6C330.415 3512.51 328.556 3513.38 326.696 3514.21C314.905 3511.96 303.194 3509.66 291.601 3507.29C291.997 3507.13 292.392 3506.97 292.788 3506.81C296.19 3505.43 299.633 3504.16 302.877 3502.46L312.769 3497.67C316.092 3496.17 319.179 3494.15 322.384 3492.41C325.51 3490.55 328.794 3488.97 331.84 3486.91L340.98 3480.9C344.066 3479 346.954 3476.74 349.843 3474.53L358.587 3468.04L366.896 3460.96C369.665 3458.58 372.514 3456.33 375.047 3453.72C396.095 3433.74 414.415 3410.91 428.856 3385.86C443.258 3360.78 454.257 3333.75 460.667 3305.7C467.196 3277.73 469.569 3248.72 466.641 3220.28C464.148 3191.79 456.354 3163.86 443.772 3138.3C437.481 3125.48 429.805 3113.41 420.942 3102.21C412.158 3090.94 402.109 3080.65 390.912 3071.59C368.716 3053.27 342.207 3039.78 313.601 3032.1L313.561 3032.06C310.435 3031.23 308.576 3028.03 309.406 3024.9C310.197 3022.01 312.927 3020.23 315.776 3020.59C323.571 3021.5 331.326 3022.88 339.041 3024.66C346.716 3026.6 354.274 3028.94 361.752 3031.75C376.55 3037.52 390.833 3044.88 404.127 3053.94C417.303 3063.08 429.489 3073.8 440.37 3085.79C451.132 3097.82 460.509 3111.15 468.422 3125.24C484.328 3153.45 493.666 3185.06 497.503 3217.07C500.903 3249.12 498.885 3281.72 491.288 3312.9Z" fill="#371A45"/>
<path d="M397.101 3302.1C414.768 3202.41 362.107 3109.72 279.479 3095.08C196.852 3080.43 115.547 3149.38 97.8798 3249.08C80.2127 3348.77 132.874 3441.46 215.501 3456.1C298.129 3470.75 379.434 3401.8 397.101 3302.1Z" fill="#FF9D33"/>
<path d="M241.949 3432.22C295.998 3432.86 350.958 3396.08 379.192 3334.26C416.751 3251.94 392.683 3156.34 325.439 3120.72C315.95 3115.68 306.094 3112.12 296.059 3109.97C256.382 3126.14 220.816 3160.09 199.257 3207.26C161.114 3290.88 180.636 3386.95 241.949 3432.22Z" fill="#FFD243"/>
<path d="M100.747 3209.15C114.661 3176.71 138.187 3147.85 168.336 3127.52C183.468 3117.48 200.222 3109.57 218.042 3104.57C235.865 3099.67 254.773 3097.84 273.543 3099.63C292.226 3101.18 311.074 3106.72 327.549 3116.16C344.278 3125.2 359.305 3137.64 371.276 3152.51C394.814 3182.71 406.059 3220.82 405.493 3258.03C404.162 3332.76 358.208 3403.64 290.728 3434.1C257.309 3449.24 218.172 3453.64 182.799 3442.87C165.238 3437.46 148.786 3428.71 134.961 3416.95C121.025 3405.32 109.938 3390.74 101.955 3374.96C100.793 3372.66 101.713 3369.86 104.012 3368.69C106.133 3367.62 108.687 3368.32 109.982 3370.24L110.006 3370.28C119.274 3384 130.824 3395.92 144.111 3405.05C157.391 3414.15 172.273 3420.73 187.781 3424.05C203.244 3427.55 219.259 3427.8 234.826 3425.38C250.375 3422.89 265.602 3418.12 279.666 3410.89C336.052 3382.04 373.982 3320.07 374.432 3257.63C374.605 3226.6 365.764 3195.47 347.177 3171.39C337.901 3159.43 326.422 3149.29 313.281 3141.75C306.83 3137.72 299.857 3134.61 292.665 3132.19C289.062 3131 285.412 3129.93 281.705 3129.04C277.965 3128.08 274.153 3127.7 270.372 3126.97C239.918 3122.66 207.567 3130.07 179.778 3146C151.7 3161.74 128.238 3185.9 111.065 3214.35L111.025 3214.42C109.373 3217.16 105.815 3218.03 103.078 3216.38C100.57 3214.87 99.622 3211.76 100.747 3209.15Z" fill="#371A45"/>
<path d="M1463.03 3235.29C1469.25 3270.86 1467.42 3307.99 1458.52 3343.59C1453.9 3361.36 1447.47 3378.73 1439.3 3395.31C1431.04 3411.85 1420.95 3427.51 1409.41 3442.04C1386.33 3471.15 1356.74 3495.01 1323.88 3512.46C1290.84 3529.59 1254.47 3540.35 1217.46 3543.68C1180.47 3546.92 1142.96 3543.63 1107.44 3533.5C1071.94 3523.35 1038.2 3507.3 1008.37 3485.89C978.586 3464.42 952.934 3437.64 932.323 3407.7C912.139 3377.46 897.32 3343.78 889.466 3308.77C888.903 3306.26 890.482 3303.76 892.995 3303.2C895.311 3302.68 897.61 3303.98 898.397 3306.15L898.427 3306.24C910.292 3338.88 926.896 3369.4 948.052 3396.23C969.344 3422.95 994.74 3446.07 1022.93 3464.69C1051.42 3482.85 1082.49 3496.74 1115.03 3505C1147.56 3513.18 1181.37 3516.19 1214.54 3512.75C1280.85 3506.61 1344.55 3475.04 1388.24 3424.44C1399.22 3411.88 1408.87 3398.13 1417.14 3383.55C1425.49 3369.01 1432.37 3353.56 1437.65 3337.5C1448.47 3305.43 1452.92 3271.03 1451.54 3236.53C1451.4 3233.33 1453.88 3230.63 1457.08 3230.5C1460.01 3230.38 1462.53 3232.47 1463.03 3235.29Z" fill="#371A45"/>
<path d="M1219.12 3417.17C1321.12 3388.46 1382.59 3289.8 1356.42 3196.81C1330.25 3103.81 1226.35 3051.69 1124.35 3080.4C1022.35 3109.1 960.879 3207.76 987.051 3300.76C1013.22 3393.75 1117.12 3445.87 1219.12 3417.17Z" fill="#FF9D33"/>
<path d="M1004.74 3300.07C1022.01 3363.52 1079.06 3414.27 1153.68 3424.56C1253.04 3438.22 1345.94 3374.92 1361.23 3283.18C1363.4 3270.23 1363.89 3257.39 1362.83 3244.87C1332.59 3204.41 1284.96 3175.3 1228.02 3167.43C1127.1 3153.56 1032.19 3211.72 1004.74 3300.07Z" fill="#FFD243"/>
<path d="M1193.34 3054.21C1234.31 3059.34 1273.75 3078.35 1304.54 3107.1C1319.86 3121.55 1333.1 3138.37 1343.51 3156.94C1353.84 3175.53 1361.21 3195.93 1365.1 3217.07C1369.24 3238.09 1369.57 3260.26 1365.55 3281.5C1361.99 3302.81 1355.02 3323.91 1343.78 3342.68C1321.5 3380.22 1285.62 3409.65 1244.22 3423.27C1223.57 3430.1 1201.89 3433.41 1180.29 3433.4L1164.11 3432.77L1148.09 3430.62C1137.44 3429.05 1127.04 3426.2 1116.83 3422.89C1075.99 3409.47 1039.76 3383.19 1014.47 3348.94C1001.78 3331.88 991.521 3312.97 984.773 3292.83C978.04 3272.71 974.48 3251.53 974.787 3230.42C975.172 3209.34 978.885 3188.36 986.461 3168.85C993.872 3149.3 1005.08 3131.38 1018.94 3116.18C1020.68 3114.27 1023.62 3114.14 1025.53 3115.87C1027.3 3117.49 1027.51 3120.2 1026.13 3122.1C1003.02 3153.49 992.055 3192.26 994.248 3230.06C995.251 3248.93 999.344 3267.53 1006.34 3284.96C1013.44 3302.33 1022.96 3318.68 1034.78 3333.18C1058.4 3362.12 1090.33 3384.2 1125.83 3394.82C1134.69 3397.47 1143.72 3399.56 1152.84 3400.85L1166.56 3402.57L1180.34 3402.95C1198.69 3402.75 1216.93 3399.76 1234.18 3393.87C1268.76 3382.2 1298.75 3358.19 1317.42 3327.1C1327.06 3311.7 1333.3 3294.3 1336.71 3276.35C1338.81 3267.43 1339.55 3258.24 1339.76 3249.08C1339.83 3244.5 1339.74 3239.91 1339.47 3235.32C1339.26 3230.7 1338.45 3226.14 1337.94 3221.55C1335.35 3203.26 1329.61 3185.36 1321.31 3168.62C1313.1 3151.84 1302.21 3136.23 1289.21 3122.51C1263.4 3094.79 1229 3074.93 1191.27 3065.58L1191.23 3065.57C1188.13 3064.8 1186.23 3061.66 1187 3058.56C1187.72 3055.69 1190.47 3053.85 1193.34 3054.21Z" fill="#371A45"/>
<path d="M1501.02 2683.8C1516.65 2587.79 1422.22 2492.54 1290.12 2471.04C1158.02 2449.55 1038.26 2509.95 1022.64 2605.96C1007.02 2701.97 1101.45 2797.23 1233.55 2818.72C1365.65 2840.22 1485.4 2779.81 1501.02 2683.8Z" fill="#FCAC38"/>
<path d="M1501.02 2683.8C1516.65 2587.79 1422.22 2492.54 1290.12 2471.04C1158.02 2449.55 1038.26 2509.95 1022.64 2605.96C1007.02 2701.97 1101.45 2797.23 1233.55 2818.72C1365.65 2840.22 1485.4 2779.81 1501.02 2683.8Z" fill="#FF9D33"/>
<path d="M1437.5 2715.01C1449.4 2641.86 1377.46 2569.28 1276.8 2552.9C1176.15 2536.52 1084.9 2582.55 1073 2655.7C1061.1 2728.85 1133.04 2801.43 1233.7 2817.81C1334.35 2834.19 1425.6 2788.16 1437.5 2715.01Z" fill="#FFD243"/>
<path d="M1091.23 2506.75C1073.58 2519.73 1058.47 2535.81 1048.15 2554.32C1037.8 2572.8 1032.49 2593.7 1032.72 2614.42C1032.81 2635.18 1038.3 2655.81 1047.78 2674.55C1057.18 2693.33 1069.9 2710.64 1085.07 2725.65C1115.31 2755.84 1153.47 2778.2 1194.31 2792.06C1235.09 2806.32 1278.78 2812.47 1321.52 2809.21C1364.11 2806.12 1406.4 2792.69 1439.02 2767.18C1455.27 2754.48 1468.47 2738.34 1476.83 2719.95C1485.16 2701.55 1488.85 2681.12 1486.97 2660.67C1485.25 2640.19 1478.21 2620.01 1467.92 2601.42C1457.65 2582.77 1443.9 2565.81 1428.18 2550.76C1396.7 2520.51 1357.33 2498.26 1315.28 2483.38L1315.25 2483.37C1312.83 2482.52 1311.55 2479.85 1312.41 2477.43C1313.22 2475.15 1315.62 2473.9 1317.92 2474.45C1362.46 2485.4 1405.36 2505.91 1441.23 2536.31C1459.12 2551.52 1475.05 2569.4 1487.72 2589.79C1500.47 2610.06 1509.47 2633.31 1512.54 2657.9C1515.66 2682.43 1512.38 2708.23 1502.39 2731.21C1492.55 2754.3 1476.62 2774.49 1457.6 2790.07C1438.61 2805.77 1416.78 2817.35 1394.08 2825.35C1382.72 2829.36 1371.13 2832.57 1359.42 2835.06C1347.69 2837.44 1335.86 2839.11 1323.99 2840.17C1276.44 2844.1 1228.66 2836.63 1184.14 2820.93C1161.87 2812.96 1140.46 2802.51 1120.34 2789.93C1100.29 2777.24 1081.48 2762.33 1065.24 2744.74C1048.89 2727.32 1034.99 2707.27 1025.05 2685.15C1015.21 2663.03 1009.86 2638.46 1010.99 2613.93C1012.27 2589.45 1020.04 2565.42 1033.33 2545.3C1040.01 2535.27 1047.82 2526.1 1056.54 2518.06C1065.26 2510 1074.89 2503.13 1084.88 2497.09C1087.61 2495.44 1091.17 2496.32 1092.82 2499.05C1094.37 2501.63 1093.68 2504.93 1091.31 2506.69L1091.23 2506.75Z" fill="#371A45"/>
<path d="M1562.78 2729.8C1571.87 2696.03 1569.65 2660.58 1557.58 2628.67C1545.87 2596.54 1525.53 2567.95 1501.71 2542.96C1477.66 2518.05 1449.97 2496.88 1419.74 2479.84C1389.64 2462.61 1357.21 2449.35 1323.69 2440C1290.28 2430.19 1255.61 2425.03 1220.91 2423.62C1186.18 2422.12 1151.31 2425.69 1117.66 2433.84C1084.14 2442.29 1051.69 2455.86 1023.77 2476.19C995.794 2496.33 973.026 2523.82 959.668 2556.39L959.656 2556.41C958.678 2558.8 955.954 2559.94 953.57 2558.96C951.376 2558.06 950.236 2555.68 950.833 2553.45C960.399 2517.44 982.905 2485.04 1011.61 2460.77C1040.51 2436.52 1074.91 2419.48 1110.8 2408.86C1146.72 2398.05 1184.29 2393.56 1221.61 2393.97C1258.96 2394.52 1296.18 2400.03 1332.11 2410C1368 2420.07 1402.77 2434.53 1435.02 2453.55C1467.04 2472.8 1496.93 2496.37 1521.61 2524.67C1546.44 2552.65 1567.05 2585.43 1577.83 2622.04C1583.08 2640.3 1585.9 2659.39 1585.21 2678.38C1584.64 2697.37 1580.62 2716.1 1573.74 2733.45C1572.56 2736.42 1569.2 2737.88 1566.23 2736.7C1563.46 2735.6 1562.02 2732.6 1562.78 2729.8Z" fill="#371A45"/>
<path d="M1963.65 3488.65C1891.84 3505.31 1816.67 3519.99 1738.6 3532.53C1736.07 3532.93 1733.5 3533.32 1730.93 3533.72C1731.56 3530.67 1732.23 3527.63 1732.94 3524.54C1756.6 3422.54 1819.67 3337.47 1878.39 3324.93C1882.74 3323.98 1887.09 3323.47 1891.4 3323.35C1947.71 3321.96 1977.42 3393.66 1963.65 3488.65Z" fill="#FFD243"/>
<path d="M2018.02 3365.13C2016.59 3365.8 2014.97 3365.84 2013.59 3365.33C2012.32 3364.93 2011.21 3364.06 2010.5 3362.91L2010.46 3362.83C2000.05 3345.7 1986.09 3331.02 1969.27 3322.2C1952.5 3313.26 1933.19 3310.45 1914.63 3313.34C1902.13 3315.12 1889.98 3319.23 1878.39 3324.93C1872.65 3327.74 1867.07 3330.94 1861.65 3334.47C1845.35 3345.11 1830.4 3358.29 1817.26 3373.12C1790.87 3402.8 1770.26 3437.85 1755.89 3475.24C1748.53 3493.84 1742.88 3513.07 1738.6 3532.53C1736.07 3532.93 1733.5 3533.32 1730.93 3533.72C1730.81 3533.76 1730.69 3533.76 1730.53 3533.8C1722.22 3535.1 1713.91 3536.41 1705.53 3537.68C1710.19 3512.35 1717.63 3487.59 1727.09 3463.81C1735.28 3443.67 1745.13 3424.2 1756.76 3405.76C1768.28 3387.33 1781.57 3369.84 1796.84 3354.09C1804.4 3346.18 1812.51 3338.74 1821.14 3331.78C1829.72 3324.89 1838.7 3318.36 1848.4 3312.82C1867.67 3301.74 1889.23 3293.48 1912.18 3291.46C1935.01 3289.48 1958.91 3294.62 1978.13 3307.01C1987.75 3313.22 1996.22 3320.86 2003.34 3329.4C2010.42 3338.03 2016.12 3347.52 2020.79 3357.3C2022.21 3360.22 2020.94 3363.74 2018.02 3365.13Z" fill="#371A45"/>
<g opacity="0.6">
<path d="M1652.82 2730.5C1658.09 2859.02 1868.16 2964.37 1949.72 3298.39C1984.32 3440.09 2099.89 3278.3 1986.2 3012.58C1880.82 2766.3 1649.1 2639.92 1652.82 2730.5Z" fill="white"/>
</g>
<path d="M21.7921 3455.09C13.3571 3455.09 6.40911 3448.37 6.18611 3439.88C4.24811 3366.37 9.93616 3292.43 23.0902 3220.1C44.1722 3104.25 84.0842 2992.89 141.718 2889.12C230.563 2729.26 358.998 2594.03 513.141 2498.04C537.294 2482.93 562.225 2468.69 587.216 2455.76C721.974 2385.87 873.288 2344.42 1024.79 2335.9L1026.67 2335.8C1027.51 2335.75 1028.35 2335.71 1029.21 2335.68C1039.08 2335.13 1048.32 2334.75 1057.02 2334.57C1074.95 2334.07 1093.75 2334.04 1112.8 2334.49C1242.59 2337.78 1369.27 2364.23 1489.33 2413.11C1529.91 2429.51 1570.09 2448.72 1608.7 2470.18C1616.76 2474.7 1625.34 2479.54 1633.71 2484.57C1638.59 2487.4 1643.61 2490.46 1648.55 2493.56C1811.84 2593.43 1945.84 2735.4 2035.9 2904.03C2123.72 3068.46 2167.79 3253.72 2163.33 3439.81C2163.12 3448.43 2155.81 3455.29 2147.34 3455.05C2138.71 3454.84 2131.89 3447.68 2132.1 3439.06C2141.03 3066.32 1949.44 2714.2 1632.09 2520.11C1627.3 2517.1 1622.59 2514.23 1617.83 2511.47C1610.07 2506.82 1602.51 2502.52 1593.48 2497.46C1556.03 2476.64 1517.02 2458 1477.59 2442.06C1360.99 2394.59 1238.02 2368.91 1112.04 2365.72C1093.55 2365.27 1075.29 2365.31 1057.8 2365.8C1049.35 2365.98 1040.46 2366.34 1030.53 2366.89L1028.53 2366.99C1027.75 2367.04 1026.97 2367.08 1026.17 2367.1C879.414 2375.37 732.468 2415.62 601.587 2483.5C577.337 2496.05 553.149 2509.86 529.683 2524.54C380.003 2617.75 255.298 2749.06 169.026 2904.3C113.054 3005.08 74.2921 3113.21 53.8231 3225.69C41.0541 3295.9 35.5321 3367.69 37.4121 3439.06C37.6391 3447.68 30.8321 3454.86 22.2091 3455.09C22.0701 3455.09 21.9311 3455.09 21.7921 3455.09Z" fill="#371A45"/>
<path d="M21.7921 3455.09C13.3571 3455.09 6.40911 3448.37 6.18611 3439.88C4.24811 3366.37 9.93616 3292.43 23.0902 3220.1C44.1722 3104.25 84.0842 2992.89 141.718 2889.12C230.563 2729.26 358.998 2594.03 513.141 2498.04C537.294 2482.93 562.225 2468.69 587.216 2455.76C721.974 2385.87 873.288 2344.42 1024.79 2335.9L1026.67 2335.8C1027.51 2335.75 1028.35 2335.71 1029.21 2335.68C1039.08 2335.13 1048.32 2334.75 1057.02 2334.57C1074.95 2334.07 1093.75 2334.04 1112.8 2334.49C1242.59 2337.78 1369.27 2364.23 1489.33 2413.11C1529.91 2429.51 1570.09 2448.72 1608.7 2470.18C1616.76 2474.7 1625.34 2479.54 1633.71 2484.57C1638.59 2487.4 1643.61 2490.46 1648.55 2493.56C1811.84 2593.43 1945.84 2735.4 2035.9 2904.03C2123.72 3068.46 2167.79 3253.72 2163.33 3439.81C2163.12 3448.43 2155.81 3455.29 2147.34 3455.05C2138.71 3454.84 2131.89 3447.68 2132.1 3439.06C2141.03 3066.32 1949.44 2714.2 1632.09 2520.11C1627.3 2517.1 1622.59 2514.23 1617.83 2511.47C1610.07 2506.82 1602.51 2502.52 1593.48 2497.46C1556.03 2476.64 1517.02 2458 1477.59 2442.06C1360.99 2394.59 1238.02 2368.91 1112.04 2365.72C1093.55 2365.27 1075.29 2365.31 1057.8 2365.8C1049.35 2365.98 1040.46 2366.34 1030.53 2366.89L1028.53 2366.99C1027.75 2367.04 1026.97 2367.08 1026.17 2367.1C879.414 2375.37 732.468 2415.62 601.587 2483.5C577.337 2496.05 553.149 2509.86 529.683 2524.54C380.003 2617.75 255.298 2749.06 169.026 2904.3C113.054 3005.08 74.2921 3113.21 53.8231 3225.69C41.0541 3295.9 35.5321 3367.69 37.4121 3439.06C37.6391 3447.68 30.8321 3454.86 22.2091 3455.09C22.0701 3455.09 21.9311 3455.09 21.7921 3455.09Z" fill="#371A45"/>
<path d="M2199.02 513.57L1964.19 1444.43L1896.32 1713.47L1719.83 2413.01L1674.37 2593.26L1617.72 2578.97L1676.48 2345.97L1839.55 1699.69L1904.91 1440.53L2142.36 499.278C2145.72 486.041 2157.59 477.216 2170.67 477.216C2173.02 477.216 2175.44 477.529 2177.82 478.114C2193.48 482.058 2202.97 497.95 2199.02 513.57Z" fill="#DDDDDD"/>
<g opacity="0.26">
<path d="M1719.83 2413.01L1674.37 2593.26L1617.72 2578.96L1676.48 2345.97C1684.8 2370.61 1698.23 2395.36 1719.83 2413.01Z" fill="#371A45"/>
</g>
<g opacity="0.25">
<path d="M1964.19 1444.43L1896.32 1713.47C1873.64 1714.64 1854.89 1708.98 1839.55 1699.69L1904.91 1440.53L1964.19 1444.43Z" fill="#371A45"/>
</g>
<path d="M1685.7 2612.24L1598.76 2590.3L2127.22 495.473C2133.26 471.506 2157.7 456.918 2181.65 462.971C2193.26 465.898 2203.04 473.174 2209.18 483.457C2215.32 493.738 2217.08 505.796 2214.15 517.405L1685.7 2612.24ZM1636.69 2567.66L1663.05 2574.31L2183.86 509.763C2184.75 506.242 2184.22 502.588 2182.35 499.47C2180.49 496.352 2177.53 494.148 2174.01 493.259C2166.75 491.44 2159.34 495.847 2157.5 503.115L1636.69 2567.66Z" fill="#371A45"/>
<path d="M1966.02 1322.6C1966.02 1324.67 1965.91 1326.82 1965.59 1329.08C1959.46 1382.23 1883.4 1486.88 1883.4 1486.88C1883.4 1486.88 1827.09 1506.91 1801.98 1490.94C1791.99 1484.57 1785.27 1443.3 1783.9 1403.59C1782.81 1371.14 1785.31 1339.7 1792.61 1329.24C1813.62 1299.13 1965.99 1290.27 1966.02 1322.6Z" fill="white"/>
<g opacity="0.25">
<path d="M1965.59 1329.08C1959.46 1382.23 1883.4 1486.87 1883.4 1486.87C1883.4 1486.87 1827.09 1506.91 1801.98 1490.94C1791.99 1484.57 1785.27 1443.3 1783.9 1403.59C1794.84 1416.75 1807.57 1425.88 1818.62 1417.53C1842.28 1399.64 1820.92 1345.17 1874.85 1321.51C1891.95 1313.97 1932.37 1321.08 1965.59 1329.08Z" fill="#371A45"/>
</g>
<path d="M1829.6 1512.8C1816.57 1512.8 1803.7 1510.55 1793.6 1504.12C1784.79 1498.51 1779.13 1486.57 1774.66 1464.19C1767.46 1428.17 1762.75 1344.73 1779.8 1320.31C1803.21 1286.77 1913.63 1280.2 1953.44 1292.7C1977.95 1300.39 1981.62 1314.73 1981.63 1322.59C1981.69 1376.69 1904.79 1483.99 1896.02 1496.05L1893.18 1499.96L1888.63 1501.58C1881.59 1504.08 1855.28 1512.8 1829.6 1512.8ZM1811.37 1478.35C1823.84 1485.01 1853.92 1479.92 1873.64 1473.66C1897 1440.87 1948.14 1361.91 1950.32 1325.03C1943.71 1320.85 1918.49 1315.49 1877.67 1318.77C1835.25 1322.18 1809.48 1332.38 1805.42 1338.19C1794.65 1353.88 1799.36 1460.62 1811.37 1478.35Z" fill="#371A45"/>
<path d="M2055.6 1543.61C2025.26 1621.4 1964.46 1638.38 1944.59 1638.38C1915.81 1638.38 1904.6 1626.51 1849.97 1613.55C1795.38 1600.54 1846.85 1391.75 1862.47 1361.49C1878.2 1331.08 1928.73 1308.15 1957.63 1303.19C1961.49 1302.53 1964.97 1302.18 1967.94 1302.18C1993.04 1302.18 2069.58 1372.5 2071.65 1398.39C2076.69 1461.65 2069.19 1508.74 2055.6 1543.61Z" fill="white"/>
<g opacity="0.25">
<path d="M2055.6 1543.61C2025.26 1621.4 1964.46 1638.38 1944.59 1638.38C1915.81 1638.38 1904.6 1626.51 1849.97 1613.55C1795.38 1600.54 1846.85 1391.75 1862.47 1361.49C1878.2 1331.08 1928.73 1308.15 1957.63 1303.19C1944.55 1330.61 1919.48 1392.15 1906.83 1482.78C1891.52 1592.5 1989.73 1581.49 2055.6 1543.61Z" fill="#371A45"/>
</g>
<path d="M1944.59 1654.02C1925.81 1654.02 1913.03 1649.53 1896.86 1643.84C1884.72 1639.56 1869.59 1634.25 1846.37 1628.73C1837.99 1626.74 1826.38 1620.86 1818.72 1604.15C1791.38 1544.59 1835.88 1378.96 1848.61 1354.33C1870 1312.94 1939 1286.54 1967.94 1286.54C2002.01 1286.54 2084.49 1363.03 2087.22 1397.14C2096.54 1514.01 2063.38 1576.57 2033.93 1608.47C2000.72 1644.43 1962.15 1654.02 1944.59 1654.02ZM1967.88 1317.78C1946.45 1317.78 1890.49 1341.34 1876.36 1368.67C1863.93 1392.73 1826.4 1546.02 1847.11 1591.12C1850.03 1597.49 1852.71 1598.13 1853.59 1598.34C1878.41 1604.23 1894.39 1609.86 1907.23 1614.37C1922.65 1619.8 1931.14 1622.78 1944.58 1622.78C1953.93 1622.78 1984.08 1616.4 2010.97 1587.28C2047.15 1548.1 2062.75 1483.22 2056.08 1399.64C2053.98 1381.57 1986.4 1318.84 1967.88 1317.78ZM2056.08 1399.63V1399.63C2056.08 1399.63 2056.08 1399.63 2056.08 1399.63Z" fill="#371A45"/>
<path d="M278.923 1243.69C278.923 1243.69 220.742 1346.15 130.736 1346.15C85.8314 1346.19 40.7704 1301.71 23.4334 1258.02C17.4984 1243.02 14.8033 1228.11 16.5223 1215.1C19.4513 1192.69 43.9343 1169.34 74.0013 1148.6C126.872 1112.17 196.963 1084.02 196.963 1084.02L278.923 1243.69Z" fill="white"/>
<g opacity="0.25">
<path d="M278.923 1243.69C278.923 1243.69 220.742 1346.15 130.736 1346.15C85.8311 1346.19 40.7701 1301.71 23.4331 1258.02C33.8981 1260.12 47.5651 1258.21 60.6851 1242.48C110.627 1182.54 74.0001 1148.6 74.0001 1148.6C126.871 1112.17 196.962 1084.02 196.962 1084.02L278.923 1243.69Z" fill="#371A45"/>
</g>
<path d="M130.72 1361.78C99.8142 1361.78 66.7113 1344.25 39.8953 1313.69C11.9463 1281.84 -2.94877 1243.28 1.02123 1213.06C9.88623 1145.58 160.936 1081.66 191.126 1069.53C199.134 1066.32 208.223 1070.19 211.441 1078.2C214.656 1086.2 210.777 1095.3 202.774 1098.51C139.424 1123.99 37.0392 1178.71 31.9932 1217.12C29.2462 1238.04 41.8592 1268.57 63.3752 1293.09C83.9542 1316.54 109.129 1330.54 130.721 1330.54C130.728 1330.54 130.731 1330.54 130.736 1330.54C210.426 1330.52 264.813 1236.9 265.355 1235.95C269.63 1228.46 279.164 1225.85 286.651 1230.12C294.141 1234.38 296.763 1243.9 292.508 1251.39C289.949 1255.9 228.724 1361.75 130.745 1361.78C130.737 1361.78 130.727 1361.78 130.72 1361.78Z" fill="#371A45"/>
<path d="M192.463 1316.81C191.74 1316.81 191.003 1316.7 190.271 1316.49C186.133 1315.28 183.755 1310.95 184.963 1306.8C187.763 1297.22 186.63 1288.38 181.506 1279.78C161.274 1245.81 89.074 1229.9 88.347 1229.75C84.221 1228.86 81.548 1224.85 82.309 1220.7C83.076 1216.56 87.006 1213.75 91.164 1214.39C161.032 1225 196.738 1166.7 198.222 1164.21C200.434 1160.52 205.222 1159.3 208.923 1161.5C212.624 1163.7 213.85 1168.48 211.657 1172.18C211.33 1172.73 185.168 1215.86 134.684 1228.09C157.362 1237.34 182.892 1251.6 194.914 1271.76C202.287 1284.13 203.984 1297.39 199.958 1311.18C198.962 1314.59 195.844 1316.81 192.463 1316.81Z" fill="#371A45"/>
<path d="M1038.17 1583.17C1017.63 1603.78 993.03 1622.49 965.15 1637.64C922.236 1661.03 871.552 1675.83 816.104 1675.83C794.745 1675.83 774.01 1674.89 753.979 1673.09C466.04 1647.75 311.138 1452.63 277.908 1435.33C242.413 1416.82 57.7564 1415.53 71.8134 1329.32C72.9074 1322.68 76.6554 1316.04 82.2394 1309.48C114.336 1271.76 206.84 1235.91 202.194 1215.02C194.736 1181.4 99.2644 1092.73 80.6774 1052.86C42.3714 970.583 101.177 910.957 134.251 950.903C190.05 1018.26 254.089 1052.62 355.027 1131.81C388.374 1157.97 467.172 1212.6 506.455 1236.97C559.638 1269.96 610.752 1295.85 663.74 1314.4C745.428 1343.02 831.49 1354.23 936.177 1347.12C939.652 1346.89 943.166 1346.61 946.72 1346.34C1142.97 1330.92 1140.71 1480.43 1038.17 1583.17Z" fill="white"/>
<g opacity="0.25">
<path d="M965.15 1637.64C922.236 1661.03 871.552 1675.83 816.104 1675.83C794.745 1675.83 774.01 1674.89 753.979 1673.09C466.04 1647.75 311.138 1452.63 277.908 1435.33C242.413 1416.82 57.7562 1415.54 71.8132 1329.32C72.9072 1322.68 76.6552 1316.04 82.2392 1309.48C84.5822 1322.91 95.1252 1337.28 125.113 1346.15C193.993 1366.53 293.878 1365.44 323.788 1381.68C363.304 1403.12 510.28 1577.74 694.977 1577.74C816.26 1577.74 858.978 1480.39 858.978 1480.39L965.15 1637.64Z" fill="#371A45"/>
</g>
<path d="M816.103 1691.45C794.643 1691.45 773.273 1690.51 752.582 1688.65C513.879 1667.64 363.573 1531.55 299.391 1473.44C286.947 1462.17 275.194 1451.53 270.695 1449.19C263.234 1445.3 241.718 1441.35 220.912 1437.52C150.326 1424.56 43.6541 1404.96 56.3981 1326.8C61.5131 1295.41 102.636 1270.26 142.406 1245.94C157.697 1236.59 180.219 1222.82 186.11 1215.69C180.148 1199.98 151.152 1166.52 127.582 1139.33C101.068 1108.74 76.0271 1079.85 66.5201 1059.46C39.0591 1000.48 55.7611 948.738 85.4161 929.993C106.07 916.939 129.962 921.236 146.28 940.945C183.245 985.567 223.365 1014.79 278.895 1055.25C304.085 1073.6 332.64 1094.4 364.667 1119.53C396.93 1144.84 475.446 1199.36 514.687 1223.7C569.399 1257.64 619.843 1282.49 668.901 1299.66C750.38 1328.21 834.973 1338.35 935.119 1331.54C938.298 1331.33 941.503 1331.08 944.743 1330.83L945.519 1330.77C1060.42 1321.75 1099.71 1368.35 1112.9 1396.94C1138.1 1451.53 1112.5 1530.8 1049.22 1594.2H1049.23C987.561 1656 902.59 1691.45 816.103 1691.45ZM110.063 953.798C107.492 953.798 104.848 954.665 102.107 956.398C86.3501 966.356 73.6791 1000.82 94.8361 1046.27C102.495 1062.69 127.248 1091.25 151.186 1118.87C189.382 1162.93 212.9 1191.17 217.443 1211.64C222.353 1233.67 197.033 1249.15 158.703 1272.59C131.362 1289.31 90.0381 1314.58 87.2281 1331.83C80.0161 1376.07 152.101 1393.12 226.557 1406.8C252.788 1411.62 273.505 1415.42 285.129 1421.48C293.183 1425.68 303.413 1434.94 320.358 1450.28C382.214 1506.29 527.067 1637.45 755.348 1657.54C775.138 1659.31 795.57 1660.21 816.102 1660.21C894.354 1660.21 971.263 1628.11 1027.11 1572.13L1027.11 1572.13C1081.2 1517.94 1104.28 1452.8 1084.54 1410.03C1067.64 1373.41 1019.13 1356.33 947.941 1361.91L947.14 1361.97C943.803 1362.23 940.497 1362.49 937.228 1362.7C832.714 1369.79 744.174 1359.13 658.573 1329.14C607.345 1311.21 554.891 1285.4 498.219 1250.24C457.499 1224.98 378.939 1170.43 345.385 1144.1C313.796 1119.32 285.483 1098.69 260.502 1080.49C205.294 1040.27 161.686 1008.51 122.221 960.868C118.313 956.147 114.289 953.798 110.063 953.798Z" fill="#371A45"/>
<path d="M523.738 1626.34C519.37 1626.34 515.027 1624.52 511.939 1620.97C506.282 1614.45 506.976 1604.59 513.487 1598.93C612.742 1512.71 594.032 1296.2 593.831 1294.02C593.037 1285.43 599.356 1277.82 607.945 1277.03C616.509 1276.23 624.139 1282.55 624.935 1291.14C625.821 1300.67 645.348 1525.76 533.975 1622.52C531.018 1625.09 527.368 1626.34 523.738 1626.34Z" fill="#371A45"/>
<path d="M1315.14 2070.8C1155.04 2097.08 692.556 2130.03 673.228 2050.84C667.449 2027.02 695.212 1854.08 753.979 1673.09C773.386 1613.47 796.112 1552.94 822.118 1496.64C839.455 1459.07 858.237 1423.38 878.464 1391.01C885.571 1379.65 906.422 1364.19 936.177 1347.12C1261.5 1397.81 1503.5 1121.31 1444.54 1324.04C1437.47 1348.33 1432.51 1372.97 1429.27 1397.81C1425.45 1426.43 1423.88 1455.32 1423.96 1484.18C1424.16 1570.4 1438.72 1656.3 1450.67 1734.83C1476.6 1905.86 1489.95 2042.1 1315.14 2070.8Z" fill="white"/>
<path d="M1437.45 1582.95C1453.55 1654.29 1466.17 1725.72 1475.72 1799.23C1478.1 1817.58 1479.92 1836.13 1481.12 1854.85C1482.37 1873.55 1482.61 1892.54 1481.42 1911.71C1480.19 1930.86 1477.45 1950.31 1471.65 1969.47C1465.89 1988.58 1456.73 2007.4 1443.71 2023.55C1430.8 2039.79 1414.21 2052.88 1396.47 2062.38C1378.7 2071.94 1359.91 2078.5 1341.04 2083.13C1336.33 2084.33 1331.58 2085.09 1326.85 2086.09C1322.12 2087.02 1317.34 2088.01 1312.81 2088.68C1303.63 2090.14 1294.47 2091.51 1285.31 2092.77C1267 2095.31 1248.71 2097.57 1230.41 2099.61C1193.81 2103.72 1157.18 2107.08 1120.51 2109.87C1083.84 2112.69 1047.11 2114.82 1010.32 2116.09C973.535 2117.41 936.693 2118.06 899.76 2117.61C862.824 2117.12 825.816 2115.72 788.605 2111.81C769.993 2109.8 751.341 2107.23 732.537 2103.05C723.133 2100.93 713.694 2098.45 704.167 2095.06C694.655 2091.59 684.974 2087.49 675.316 2080.38C670.531 2076.69 665.669 2072.04 661.798 2065.67C660.889 2063.99 659.953 2062.36 659.198 2060.57C658.51 2058.71 657.878 2056.82 657.314 2054.92C656.917 2053.02 656.637 2051.09 656.382 2049.16L656.149 2044.75C655.9 2033.72 656.896 2024.65 657.834 2015.1C659.843 1996.31 662.688 1978 665.819 1959.74C672.131 1923.27 679.756 1887.2 688.182 1851.32C696.659 1815.46 705.831 1779.78 716.327 1744.47C737.271 1673.87 762.581 1604.34 795.326 1538.24C797.244 1534.37 801.939 1532.78 805.812 1534.7C809.371 1536.46 810.998 1540.57 809.749 1544.23L809.737 1544.26C786.267 1613.3 764.914 1682.71 745.76 1752.83C726.659 1822.9 709.694 1893.77 697.73 1965.14C694.782 1982.95 692.128 2000.84 690.358 2018.43C689.514 2027.08 688.735 2036.27 688.986 2043.53L689.106 2045.97C689.212 2046.3 689.227 2046.64 689.243 2046.98C689.41 2047.25 689.511 2047.52 689.555 2047.83C689.697 2048.14 689.974 2048.46 690.104 2048.82C691.017 2050.25 692.738 2052.15 695.205 2054.01C700.31 2057.76 707.583 2061.1 715.25 2063.77C722.976 2066.47 731.264 2068.63 739.712 2070.47C756.65 2074.14 774.314 2076.5 792.072 2078.3C827.665 2081.83 863.862 2083.01 900.073 2083.27C936.307 2083.49 972.636 2082.63 1008.96 2081.11C1081.58 2077.84 1154.31 2072.93 1226.57 2065.02C1244.64 2063.05 1262.66 2060.88 1280.59 2058.46C1289.56 2057.24 1298.5 2055.94 1307.38 2054.55C1311.91 2053.9 1316.08 2053.02 1320.32 2052.2C1324.54 2051.31 1328.86 2050.66 1333 2049.61C1366.12 2041.47 1397.53 2027.32 1417.49 2002.33C1437.87 1977.73 1446.34 1944.01 1448.7 1909.5C1451.18 1874.8 1448.2 1838.88 1444.1 1803.05C1440 1767.16 1434.01 1731.13 1429.34 1694.79C1424.79 1658.42 1421.38 1621.62 1421.92 1584.56C1421.98 1580.21 1425.55 1576.74 1429.89 1576.81C1433.6 1576.86 1436.67 1579.48 1437.45 1582.95Z" fill="#371A45"/>
<path d="M1351.5 695.5C1628.5 1196.5 1683.12 1192.23 1546 637.001C1158.28 319.917 328.607 477.399 1351.5 695.5Z" fill="white"/>
<path d="M1101.32 1520.3C1038.01 1520.3 975.549 1509.04 916.843 1486.52C781.931 1434.75 675.075 1326.97 607.824 1174.82L607.487 1173.97C553.366 1017.86 560.61 866.291 628.439 735.661C688.959 619.103 793.331 527.919 922.333 478.908C1051.07 429.997 1188.69 429.35 1309.85 477.084C1446.48 530.912 1553.09 642.445 1618.15 799.628L1618.48 800.507C1667.59 954.694 1657.6 1103.8 1589.59 1231.72C1528.77 1346.13 1425.5 1435.58 1298.81 1483.6C1234.29 1508.05 1167.35 1520.3 1101.32 1520.3ZM628.379 1166.24C771.799 1490.19 1064.43 1548.61 1290.92 1462.78C1512.21 1378.91 1702.44 1138.18 1597.4 807.715C1459.21 474.456 1154.74 414.431 930.245 499.727C703.537 585.861 512.444 831.149 628.379 1166.24Z" fill="#371A45"/>
<path d="M1101.32 1524.78C1037.47 1524.78 974.461 1513.43 915.235 1490.7C779.188 1438.5 671.468 1329.9 603.724 1176.63L603.25 1175.44C548.716 1018.13 556.05 865.347 624.461 733.594C685.489 616.06 790.711 524.121 920.74 474.717C1050.53 425.406 1189.3 424.768 1311.5 472.913C1449.28 527.198 1556.76 639.581 1622.3 797.913L1622.75 799.146C1672.24 954.51 1662.14 1104.82 1593.56 1233.83C1532.22 1349.2 1428.11 1439.39 1300.4 1487.8C1235.37 1512.44 1167.88 1524.78 1101.32 1524.78ZM632.553 1164.59C774.816 1485.71 1064.86 1543.66 1289.33 1458.58C1508.66 1375.45 1697.21 1136.85 1593.18 809.254C1456.1 478.912 1154.33 419.379 931.835 503.917C707.131 589.291 517.729 832.424 632.553 1164.59Z" fill="#371A45"/>
<path d="M1048.25 1502.46C982.59 1502.46 918.23 1488.73 859.523 1461.54C747.57 1409.69 659.062 1311.05 603.564 1176.27L603.52 1176.16C513.342 952.341 593.908 628.284 857.578 502.615L860.059 501.682C997.808 462.829 1152.18 486.206 1283.61 565.813C1414.59 645.139 1506.42 770.322 1535.56 909.263C1560.33 1044.54 1535.37 1172.51 1463.45 1279.76C1398.28 1376.97 1299.5 1448.97 1185.32 1482.53C1140 1495.85 1093.81 1502.46 1048.25 1502.46ZM632.468 1164.41C753.95 1459.38 1001.47 1503.99 1176.51 1452.55C1377.75 1393.42 1555.17 1189.88 1504.91 915.28C1477.61 785.173 1391.03 667.392 1267.43 592.531C1143.78 517.643 998.94 495.385 869.819 531.386C622.976 649.889 547.773 954.089 632.468 1164.41Z" fill="#371A45"/>
<path d="M1036.3 1448.72C910.114 1448.72 784.396 1397.85 672.048 1301.18L670.373 1299.74L669.162 1297.88C586.054 1170.74 552.778 1036.62 572.929 910.046C590.973 796.701 651.073 695.971 742.158 626.413C831.177 558.432 940.908 527.194 1051.17 538.459C1173.73 550.976 1289.21 614.76 1385.12 722.912L1385.72 723.639C1464.1 823.646 1499.95 936.056 1489.37 1048.71C1479.8 1150.71 1432.09 1247.43 1355.03 1321.04C1271.6 1400.74 1162.1 1446.04 1046.71 1448.6C1043.24 1448.68 1039.77 1448.72 1036.3 1448.72ZM694.104 1278.94C934.553 1484.6 1188.33 1437.08 1333.45 1298.45C1465.19 1172.61 1524.87 952.177 1361.43 743.283C1160.22 516.694 914.968 533.749 761.118 651.239C608.132 768.068 522.17 1014.14 694.104 1278.94Z" fill="#371A45"/>
<path d="M1680.51 1193.2C1603.77 1430.04 1359.95 1373.07 1410.41 1139.58C1481.73 888.396 1742.37 949.268 1680.51 1193.2Z" fill="white"/>
<g opacity="0.35">
<path d="M1495.02 1342.99C1421.81 1326.44 1383.35 1227.18 1413.71 1127.47C1442.08 1242.14 1584.18 1084.88 1600.61 1035.71C1782.27 1115.71 1628.85 1376.25 1495.02 1342.99Z" fill="#371A45"/>
</g>
<path d="M1520.42 1360.74C1509.37 1360.74 1498.62 1359.31 1488.42 1356.57C1422.15 1338.72 1367.61 1263.68 1395.15 1136.28L1395.39 1135.31C1434.29 998.282 1530.11 946.871 1604.69 966.905C1672.02 984.998 1729.21 1064.73 1695.65 1197.04L1695.37 1198.02C1657.99 1313.39 1584.09 1360.74 1520.42 1360.74ZM1425.57 1143.36C1402.61 1250.41 1444.63 1312.42 1496.55 1326.4C1551.56 1341.24 1627.85 1304.49 1665.5 1188.87C1693.59 1077.37 1649.51 1011.29 1596.58 997.072C1536.89 981.015 1459.03 1026.14 1425.57 1143.36Z" fill="#371A45"/>
<path d="M1687.77 1208.35C1625.38 1400.21 1442 1360.62 1482.78 1171.76C1540.27 965.659 1739.51 1008.91 1687.77 1208.35Z" fill="white"/>
<path d="M1561.14 1349.82C1552.95 1349.82 1545.01 1348.76 1537.47 1346.73C1486.46 1332.97 1445.04 1272.51 1467.52 1168.46L1467.74 1167.56C1499.86 1052.4 1576.35 1008.2 1635.29 1024.06C1687.71 1038.17 1731.22 1103.08 1702.89 1212.28L1702.62 1213.18C1671.15 1309.95 1611.5 1349.82 1561.14 1349.82ZM1497.95 1175.51C1480.01 1259.23 1508.93 1306.67 1545.61 1316.57C1585.63 1327.37 1642.45 1296.74 1672.77 1203.97C1695.53 1115.65 1665.13 1064.44 1627.17 1054.23C1583.15 1042.36 1524.67 1080.25 1497.95 1175.51Z" fill="#371A45"/>
<g opacity="0.25">
<path d="M1465.71 1214.8C1466.6 1186.44 1475.28 1158.21 1489.29 1133.38C1503.08 1272.16 1646.44 1234.87 1692.81 1144.32C1690.82 1345.98 1475.91 1405.93 1465.71 1214.8Z" fill="#371A45"/>
</g>
<path d="M1652.78 2671.63C1575.82 2683.69 1440.56 2652.3 1391.71 2540.66C1391.71 2540.66 1334.97 2342.18 1203.69 2212.46C1106.78 2116.72 896.23 2094.73 850.896 2160.22C807.124 2223.4 896.621 2394.7 842.228 2485.95C820.595 2522.19 688.106 2585.37 508.174 2558.9C433.007 2547.81 421.839 2492.08 429.532 2455.03C430.157 2451.98 430.899 2449.05 431.758 2446.32C453.781 2375.33 552.728 2359.2 552.728 2359.2C552.728 2359.2 424.104 2172.56 472.836 2018.08C513.641 1888.87 616.962 1840.1 700.016 1839.4C737.931 1839.09 771.63 1848.77 793.262 1865.4L1201.12 1791.68L1451.57 1746.39C1455.67 1787.35 1461.14 1825.65 1467.93 1862.44C1474.49 1898.13 1482.3 1932.37 1491.4 1966.26C1528.85 2105.59 1587.81 2238.54 1669.34 2437.34C1741.27 2482.52 1780.47 2524.73 1790.62 2560.85C1805.85 2615.05 1755.75 2655.5 1652.78 2671.63Z" fill="white"/>
<g opacity="0.26">
<path d="M1652.78 2671.63C1575.82 2683.69 1440.56 2652.3 1391.71 2540.66C1391.71 2540.66 1334.97 2342.18 1203.69 2212.46C1106.78 2116.72 896.23 2094.73 850.896 2160.22C807.124 2223.4 896.621 2394.7 842.228 2485.95C820.595 2522.19 688.106 2585.37 508.174 2558.9C433.007 2547.81 421.839 2492.08 429.532 2455.03C451.789 2469.2 494.625 2481.58 576.859 2478.93C755.62 2473.19 813.489 2422.03 785.921 2285.68C760.228 2158.69 767.452 2070.21 817.003 2028.86L807.71 2027.73C807.632 2027.69 807.593 2027.69 807.515 2027.69L802.985 2027.14C800.72 2026.87 798.495 2026.48 796.308 2025.97C795.41 2025.78 794.512 2025.5 793.653 2025.27C792.599 2024.96 791.544 2024.72 790.529 2024.41H790.646C760.111 2014.76 739.571 1984.35 743.515 1951.43L745.194 1937.41C745.194 1928.39 745.428 1919.41 745.936 1910.39C732.543 1907.38 720.906 1899.96 712.55 1889.77C703.452 1878.68 698.18 1864.35 698.805 1848.89C698.922 1846.66 699.157 1844.44 699.469 1842.29C699.547 1841.82 699.664 1841.39 699.742 1840.96C699.82 1840.46 699.937 1839.91 700.015 1839.4C737.93 1839.09 771.629 1848.77 793.261 1865.41L1201.12 1791.68C1202.72 1793.99 1204.16 1796.37 1205.45 1798.83C1205.72 1799.34 1205.92 1799.84 1206.15 1800.31C1206.86 1801.68 1207.48 1803.05 1208.07 1804.49C1208.34 1805.16 1208.58 1805.82 1208.85 1806.48C1209.32 1807.77 1209.75 1809.06 1210.18 1810.35C1210.41 1811.13 1210.61 1811.87 1210.8 1812.61C1211.15 1813.9 1211.47 1815.19 1211.74 1816.52C1211.89 1817.3 1212.05 1818.04 1212.17 1818.86C1212.4 1820.19 1212.6 1821.56 1212.71 1822.92C1212.79 1823.7 1212.91 1824.44 1212.95 1825.19C1213.07 1826.71 1213.1 1828.27 1213.1 1829.8C1213.1 1830.42 1213.14 1831.04 1213.14 1831.63C1213.1 1833.82 1212.95 1836.04 1212.67 1838.23L1209.24 1867.09C1243.52 1873.37 1381.63 1895.44 1467.93 1862.44C1474.49 1898.13 1482.3 1932.37 1491.4 1966.27C1487.42 1969.98 1484.45 1971.62 1484.45 1971.62C1484.45 1971.62 1370.86 2020.23 1196.51 1973.26L1192.64 2005.32C1192.06 2010.27 1190.92 2015 1189.32 2019.53C1189.28 2019.61 1189.25 2019.68 1189.25 2019.76C1188.46 2021.91 1187.61 2024.02 1186.67 2026.05C1186.55 2026.28 1186.43 2026.52 1186.32 2026.75C1185.38 2028.63 1184.4 2030.42 1183.35 2032.22C1183.31 2032.3 1183.27 2032.37 1183.23 2032.45C1182.92 2032.92 1182.61 2033.35 1182.33 2033.82C1181.24 2035.46 1180.11 2037.1 1178.9 2038.66C1178.39 2039.32 1177.84 2040.03 1177.3 2040.69C1176.63 2041.47 1175.97 2042.21 1175.31 2042.96C1174.64 2043.66 1173.98 2044.36 1173.28 2045.07C1172.65 2045.69 1171.99 2046.35 1171.32 2046.98C1170.11 2048.11 1168.86 2049.2 1167.58 2050.22C1167.42 2050.38 1167.22 2050.53 1167.07 2050.69C1166.6 2051.04 1166.13 2051.31 1165.7 2051.66C1164.69 2052.41 1163.71 2053.11 1162.65 2053.81C1161.95 2054.28 1161.29 2054.71 1160.58 2055.14C1159.57 2055.76 1158.52 2056.35 1157.46 2056.94C1156.8 2057.29 1156.17 2057.68 1155.47 2057.99C1153.91 2058.81 1152.27 2059.55 1150.63 2060.22C1149.92 2060.53 1149.18 2060.76 1148.48 2061.04C1147.89 2061.23 1147.31 2061.43 1146.72 2061.62C1188.7 2079.23 1224.58 2100.2 1246.45 2123.12C1367.34 2249.87 1395.61 2422.58 1470.23 2543.47C1509.32 2606.77 1704.05 2627.07 1790.62 2560.85C1805.85 2615.05 1755.75 2655.5 1652.78 2671.63Z" fill="#371A45"/>
</g>
<path d="M1619.48 2689.7C1535.46 2689.7 1422.49 2649.95 1377.39 2546.91L1376.68 2544.95C1376.12 2543 1319.45 2348.79 1192.72 2223.59C1127.81 2159.46 1012.22 2132.38 936.457 2139.41C900.495 2142.75 874.66 2153.3 863.715 2169.1C846.789 2193.53 855.18 2244.51 864.062 2298.48C875.026 2365.1 887.451 2440.59 855.624 2493.97C829.689 2537.47 690.656 2601.54 505.91 2574.33C459.99 2567.57 437.331 2545.47 426.41 2528.11C403.776 2492.15 413.353 2452.85 416.827 2441.67C434.718 2384.09 494.627 2358.89 527.791 2349.13C495.997 2296.66 416.158 2145.79 457.957 2013.37C495.936 1893.04 580.997 1850.1 628.321 1835.21C692.532 1815 762.652 1822.16 802.791 1853.02C809.629 1858.28 810.911 1868.08 805.655 1874.92C800.399 1881.76 790.594 1883.05 783.753 1877.79C751.834 1853.25 691.775 1847.99 637.696 1865.01C596.168 1878.08 521.466 1915.94 487.747 2022.77C441.883 2168.07 564.349 2348.52 565.591 2350.33L579.558 2370.63L555.242 2374.6C554.37 2374.75 465.537 2390.18 446.658 2450.94C441.56 2467.35 440.511 2491.87 452.847 2511.47C463.648 2528.64 483.033 2539.39 510.459 2543.42C688.286 2569.6 811.838 2506.4 828.792 2477.97C854.773 2434.4 843.824 2367.88 833.238 2303.56C823.299 2243.17 813.912 2186.13 838.035 2151.31C854.563 2127.45 887.596 2112.58 933.56 2108.3C1016.35 2100.59 1143.04 2130.59 1214.67 2201.37C1343.82 2328.95 1401.26 2517.7 1406.4 2535.3C1451.51 2636.79 1578.49 2667.48 1650.35 2656.2C1724.2 2644.62 1770.3 2619.75 1776.83 2587.97C1784.31 2551.6 1742.1 2501.52 1661.02 2450.57L1656.78 2447.91L1654.88 2443.28C1641.63 2410.96 1628.97 2380.38 1616.91 2351.23C1517.89 2111.97 1458.12 1967.56 1436.02 1747.95C1435.15 1739.36 1441.41 1731.71 1449.99 1730.84C1458.6 1729.97 1466.24 1736.24 1467.1 1744.82C1488.74 1959.86 1547.84 2102.68 1645.77 2339.28C1657.27 2367.07 1669.31 2396.16 1681.89 2426.82C1798.62 2501.28 1814.7 2558.9 1807.43 2594.26C1800.75 2626.76 1768.91 2669.23 1655.19 2687.07C1644.17 2688.79 1632.15 2689.7 1619.48 2689.7Z" fill="#371A45"/>
<path d="M786.35 1843.42C809.964 1819.81 809.964 1781.53 786.35 1757.91C762.736 1734.3 724.451 1734.3 700.837 1757.91C677.223 1781.53 677.223 1819.81 700.837 1843.42C724.451 1867.04 762.736 1867.04 786.35 1843.42Z" fill="white"/>
<g opacity="0.26">
<path d="M683.213 1798.12C681.811 1831.49 707.702 1859.7 741.067 1861.1C774.433 1862.51 802.647 1836.57 804.049 1803.2C804.436 1793.98 802.741 1785.11 799.325 1777.13C788.77 1797.13 767.34 1810.41 743.24 1809.4C719.14 1808.39 698.898 1793.35 690.106 1772.54C686.033 1780.21 683.6 1788.91 683.213 1798.12Z" fill="#371A45"/>
</g>
<path d="M743.691 1873.46C742.649 1873.46 741.606 1873.44 740.559 1873.39C721.133 1872.58 703.188 1864.25 690.029 1849.93C676.87 1835.62 670.073 1817.04 670.891 1797.61C672.576 1757.51 706.587 1726.26 746.672 1727.95C786.772 1729.63 818.025 1763.63 816.34 1803.73C815.522 1823.15 807.19 1841.1 792.878 1854.26C779.336 1866.71 761.972 1873.46 743.691 1873.46ZM743.591 1752.52C717.964 1752.52 696.596 1772.81 695.51 1798.65C694.97 1811.5 699.465 1823.79 708.169 1833.26C716.875 1842.72 728.745 1848.24 741.594 1848.78C754.402 1849.31 766.733 1844.82 776.201 1836.12C785.669 1827.41 791.181 1815.54 791.721 1802.69C792.834 1776.17 772.163 1753.68 745.637 1752.56C744.953 1752.54 744.27 1752.52 743.591 1752.52Z" fill="#371A45"/>
<g opacity="0.35">
<path d="M737.275 1855.59C752.191 1788.56 758.425 1725.9 759.38 1669.81C755.797 1702 750.423 1735.67 742.642 1770.57C733.556 1811.51 728.684 1854.56 729.634 1897.23C731.665 1883.2 734.25 1869.28 737.275 1855.59Z" fill="#371A45"/>
</g>
<path d="M787.39 1976.37L1101.33 2014.03C1138.49 2018.5 1172.57 1991.74 1177.04 1954.54L1197.07 1787.47C1200.98 1754.9 1180.94 1724.75 1150.92 1714.76C1146.68 1713.31 1142.21 1712.33 1137.58 1711.77L823.684 1674.11C786.481 1669.64 752.401 1696.4 747.976 1733.6L732.078 1865.92L727.896 1900.66C723.424 1937.87 750.234 1971.9 787.39 1976.37Z" fill="white"/>
<g opacity="0.26">
<path d="M787.384 1976.37L1101.33 2014.03C1138.48 2018.5 1172.56 1991.74 1177.03 1954.54L1197.07 1787.47C1200.97 1754.9 1180.93 1724.75 1150.91 1714.76C1131.67 1724.46 1119.44 1730.68 1119.44 1730.68C1088.07 1862.94 1041.86 1925.23 875.007 1907.98C802.987 1900.51 758.93 1884.1 732.072 1865.92L727.89 1900.66C723.418 1937.87 750.228 1971.9 787.384 1976.37Z" fill="#371A45"/>
</g>
<path d="M1105.34 2026.33C1101.98 2026.33 1098.57 2026.13 1095.14 2025.72L790.62 1989.18C744.011 1983.58 710.64 1941.11 716.23 1894.51L735.151 1736.82C737.851 1714.32 749.211 1694.17 767.136 1680.08C785.063 1666 807.336 1659.72 829.824 1662.43L1134.35 1698.96C1156.85 1701.66 1176.99 1713.02 1191.08 1730.95C1205.16 1748.87 1211.43 1771.14 1208.73 1793.64L1189.81 1951.33C1184.63 1994.51 1147.8 2026.33 1105.34 2026.33ZM1098.08 2001.25C1131.21 2005.24 1161.37 1981.51 1165.35 1948.39L1184.27 1790.7C1186.18 1774.74 1181.72 1758.92 1171.7 1746.17C1161.68 1733.42 1147.38 1725.34 1131.41 1723.43L826.891 1686.89C810.907 1684.98 795.11 1689.44 782.361 1699.46C769.61 1709.48 761.534 1723.79 759.62 1739.75L740.699 1897.44C736.724 1930.56 760.434 1960.74 793.554 1964.71L1098.08 2001.25Z" fill="#371A45"/>
<path d="M774.932 1973.62C778.899 1974.96 783.034 1975.87 787.385 1976.37L1101.33 2014.03C1128.56 2017.29 1154.13 2003.82 1167.6 1981.68C1172.51 1973.65 1175.82 1964.46 1176.99 1954.54L1185.92 1880.32L1188.87 1855.83L1197.07 1787.47C1201.54 1750.27 1174.73 1716.24 1137.57 1711.77L1069.74 1703.64C1100.3 1713.29 1120.8 1743.71 1116.87 1776.61L1106.07 1866.86L1096.84 1943.72C1092.37 1980.88 1058.29 2007.69 1021.13 2003.22L774.932 1973.62Z" fill="white"/>
<g opacity="0.35">
<path d="M774.932 1973.62C778.899 1974.96 783.034 1975.87 787.385 1976.37L1101.33 2014.03C1138.48 2018.5 1172.56 1991.74 1176.99 1954.54L1188.87 1855.83C1178.88 1872.32 1162.12 1892.03 1139.15 1891.56C1126.55 1891.32 1115.37 1880.89 1106.07 1866.86L1096.84 1943.72C1092.37 1980.88 1058.28 2007.69 1021.13 2003.22L774.932 1973.62Z" fill="#371A45"/>
</g>
<path d="M1109.53 2026.86C1106.32 2026.86 1103.09 2026.67 1099.86 2026.28L785.915 1988.6C780.927 1988.03 775.913 1986.94 771.074 1985.35L776.384 1961.41L1022.61 1990.98C1037.3 1992.75 1051.87 1988.63 1063.63 1979.4C1075.39 1970.16 1082.83 1956.96 1084.59 1942.25L1104.63 1775.16C1107.82 1748.6 1091.59 1723.46 1066.04 1715.37L1071.22 1691.39L1139.03 1699.51C1183.08 1704.82 1214.59 1744.94 1209.28 1788.95L1189.24 1956.01C1186.7 1977.26 1175.98 1996.3 1159.04 2009.61C1144.69 2020.89 1127.4 2026.86 1109.53 2026.86ZM1078.66 1998.92L1102.8 2001.82C1117.49 2003.58 1132.06 1999.47 1143.82 1990.23C1155.57 1980.99 1163.02 1967.8 1164.77 1953.09V1953.09L1184.82 1786C1188.5 1755.48 1166.64 1727.66 1136.09 1723.98L1114.34 1721.37C1125.9 1737.32 1131.58 1757.41 1129.09 1778.1L1109.05 1945.18C1106.52 1966.42 1095.79 1985.46 1078.85 1998.77C1078.79 1998.82 1078.73 1998.87 1078.66 1998.92Z" fill="#371A45"/>
<path d="M982.902 1846.67C982.196 1852.86 985.191 1903.76 985.191 1903.76C985.191 1903.76 1001 1905.56 1020.41 1907.78C1044.67 1910.55 1067.2 1887.68 1070.73 1856.7C1074.27 1825.72 1057.47 1798.37 1033.22 1795.6C1016.85 1793.73 997.997 1791.58 997.997 1791.58C997.997 1791.58 984.052 1836.6 982.902 1846.67Z" fill="#22A7F0"/>
<path d="M982.902 1846.67C982.196 1852.86 985.191 1903.76 985.191 1903.76C985.191 1903.76 1001 1905.56 1020.41 1907.78C1044.67 1910.55 1067.2 1887.68 1070.73 1856.7C1074.27 1825.72 1057.47 1798.37 1033.22 1795.6C1016.85 1793.73 997.997 1791.58 997.997 1791.58C997.997 1791.58 984.052 1836.6 982.902 1846.67Z" fill="#127DDD"/>
<path d="M1024.35 1917.86C1022.67 1917.86 1020.99 1917.76 1019.3 1917.57L994.831 1914.78C983.796 1913.52 975.346 1904.56 974.741 1893.48C972.444 1851.39 972.927 1847.15 973.11 1845.56C973.786 1839.62 977.932 1823.96 985.432 1799.01C988.596 1788.49 998.826 1781.74 1009.75 1783L1034.34 1785.8C1063.95 1789.19 1084.67 1821.49 1080.53 1857.82C1076.61 1892.07 1051.97 1917.86 1024.35 1917.86ZM992.698 1847.76C992.495 1850.07 992.827 1863.13 994.424 1892.41C994.505 1893.85 995.616 1895.03 997.068 1895.19L1021.53 1897.98C1040.4 1900.12 1058.02 1881.11 1060.94 1855.58C1063.85 1830.06 1050.92 1807.54 1032.1 1805.39L1007.51 1802.58C1006.07 1802.43 1004.73 1803.31 1004.31 1804.69C994.34 1837.86 992.9 1846.03 992.698 1847.76Z" fill="#371A45"/>
<path d="M1035.39 1852.72C1038.92 1821.74 1022.13 1794.39 997.875 1791.62C973.622 1788.85 951.096 1811.72 947.56 1842.69C944.024 1873.67 960.819 1901.02 985.071 1903.79C1009.32 1906.56 1031.85 1883.69 1035.39 1852.72Z" fill="#22A7F0"/>
<g opacity="0.7">
<path d="M947.307 1854.29C954.388 1829.29 974.209 1812.21 995.353 1814.63C1016.58 1817.06 1032.06 1838.25 1033.26 1864.26C1034.31 1860.57 1035.07 1856.7 1035.53 1852.68C1039.03 1821.7 1022.23 1794.35 997.982 1791.59C973.73 1788.82 951.216 1811.66 947.673 1842.64C947.215 1846.61 947.107 1850.51 947.307 1854.29Z" fill="white"/>
</g>
<path d="M985.177 1903.74C1009.43 1906.54 1031.99 1883.67 1035.53 1852.68C1036.33 1845.56 1036.07 1838.66 1034.9 1832.16C1026.17 1852.49 1008.46 1865.59 989.775 1863.43C971.091 1861.28 956.828 1844.6 952.904 1822.86C950.287 1828.87 948.467 1835.57 947.672 1842.64C944.13 1873.63 960.925 1900.98 985.177 1903.74Z" fill="#127DDD"/>
<path d="M989.121 1913.84C987.449 1913.84 985.764 1913.74 984.072 1913.55C954.458 1910.17 933.74 1877.86 937.885 1841.53C942.033 1805.21 969.499 1778.4 999.115 1781.78C1028.73 1785.16 1049.45 1817.47 1045.3 1853.8C1041.39 1888.05 1016.75 1913.84 989.121 1913.84ZM957.47 1843.77C954.557 1869.3 967.492 1891.81 986.308 1893.96C1005.17 1896.09 1022.8 1877.09 1025.72 1851.56C1028.63 1826.03 1015.7 1803.52 996.879 1801.37C978.032 1799.24 960.388 1818.25 957.47 1843.77Z" fill="#371A45"/>
<path d="M885.134 1996.73C884.819 1996.73 884.499 1996.71 884.179 1996.69C878.759 1996.16 874.789 1991.35 875.309 1985.93L883.451 1901.18C885.026 1884.79 878.324 1868.81 865.526 1858.45C847.137 1843.56 837.794 1820.64 840.531 1797.14L854.413 1677.93C855.043 1672.53 859.923 1668.63 865.343 1669.28C870.751 1669.91 874.623 1674.8 873.993 1680.21L860.111 1799.42C858.16 1816.17 864.82 1832.51 877.931 1843.13C895.883 1857.67 905.28 1880.07 903.075 1903.07L894.933 1987.82C894.443 1992.91 890.151 1996.73 885.134 1996.73Z" fill="#371A45"/>
<path d="M1470.77 1803.26C1470.77 1803.26 1498.35 1828.45 1497.19 1864.34C1495.85 1905.82 1468.81 1920.84 1468.81 1920.84C1468.81 1920.84 1351.55 1971.13 1172.4 1920.2C1172.4 1920.2 1123.5 1848.92 1185.7 1814.82C1185.7 1814.82 1375.77 1854.25 1470.77 1803.26Z" fill="white"/>
<g opacity="0.26">
<path d="M1497.18 1864.36C1495.84 1905.8 1468.82 1920.82 1468.82 1920.82C1468.82 1920.82 1351.58 1971.13 1172.38 1920.18C1172.38 1920.18 1156.31 1896.68 1154.35 1870.29C1155.12 1871.64 1155.63 1872.35 1155.63 1872.35C1286.59 1909.6 1384.46 1892.73 1427.64 1880.96C1457.64 1872.79 1479.04 1847.52 1480.38 1817.76C1480.39 1817.35 1480.41 1816.94 1480.42 1816.53C1480.46 1815.83 1480.49 1815.14 1480.4 1814.47C1488.22 1825.2 1497.89 1842.86 1497.18 1864.36Z" fill="#371A45"/>
</g>
<path d="M1330.45 1955.47C1285.28 1955.47 1230.81 1949.62 1169.03 1932.05L1164.75 1930.83L1162.24 1927.17C1161.11 1925.52 1134.67 1886.39 1143.7 1848.5C1148.19 1829.64 1160.33 1814.68 1179.78 1804.01L1183.75 1801.83L1188.2 1802.75C1190.06 1803.14 1375.01 1840.68 1464.95 1792.41L1472.64 1788.28L1479.08 1794.17C1480.38 1795.35 1510.82 1823.65 1509.5 1864.73C1507.96 1912.65 1476.15 1930.86 1474.8 1931.61L1473.67 1932.16C1470.41 1933.56 1417.83 1955.47 1330.45 1955.47ZM1180.33 1909.63C1343.71 1954.74 1453.51 1913.69 1463.26 1909.8C1466.3 1907.82 1483.87 1895.03 1484.88 1863.94C1485.54 1843.41 1474.82 1826.84 1467.97 1818.41C1375.85 1860.91 1217.78 1833.54 1187.89 1827.81C1176.9 1834.73 1170.27 1843.37 1167.69 1854.13C1162.45 1875.91 1175.02 1900.53 1180.33 1909.63Z" fill="#371A45"/>
<path d="M1265.98 2301.29C1257.35 2301.29 1250.36 2294.3 1250.36 2285.67C1250.36 2277.04 1257.35 2270.05 1265.98 2270.05C1367.34 2270.03 1537.49 2252.05 1562.53 2203.9C1566.51 2196.25 1575.93 2193.27 1583.59 2197.25C1591.24 2201.23 1594.22 2210.66 1590.24 2218.32C1548.31 2298.96 1294.75 2301.29 1265.98 2301.29Z" fill="#371A45"/>
<path d="M844.697 2187.6C839.721 2187.6 834.829 2185.23 831.801 2180.81C746.22 2056.05 659.618 2009.3 602.038 1992.04C540.104 1973.48 497.485 1984.12 497.06 1984.23C488.749 1986.37 480.2 1981.41 478.007 1973.1C475.812 1964.79 480.719 1956.27 489.025 1954.04C496.786 1951.96 681.137 1905.96 857.563 2163.15C862.441 2170.26 860.632 2179.98 853.518 2184.86C850.818 2186.71 847.741 2187.6 844.697 2187.6Z" fill="#371A45"/>
<path d="M552.729 2359.19C552.729 2359.19 615.04 2397.84 727.402 2367.52L552.729 2359.19Z" fill="white"/>
<path d="M560.961 2345.92C561.477 2346.3 563.132 2347.29 564.422 2347.98C565.747 2348.77 567.277 2349.46 568.725 2350.21C571.706 2351.61 574.746 2353.06 577.943 2354.24C584.231 2356.81 590.875 2358.84 597.593 2360.64C611.071 2364.2 625.108 2366.26 639.305 2367.31C646.422 2367.64 653.566 2368.05 660.747 2367.77C667.933 2367.86 675.11 2367.18 682.318 2366.67C689.53 2366.18 696.677 2364.89 703.895 2364.04C711.054 2362.81 718.189 2361.32 725.369 2359.98L725.89 2359.88C730.125 2359.09 734.201 2361.88 734.995 2366.11C735.743 2370.11 733.271 2373.97 729.438 2375.06C722.116 2377.11 714.808 2379.31 707.417 2381.26C699.938 2382.82 692.52 2384.82 684.927 2386.02C677.338 2387.23 669.749 2388.61 662.031 2389.21C654.351 2390.17 646.592 2390.42 638.81 2390.73C623.239 2390.95 607.515 2390.05 591.849 2387.36C584.02 2385.99 576.195 2384.33 568.432 2381.94C564.534 2380.86 560.673 2379.45 556.779 2378.01C554.83 2377.23 552.903 2376.53 550.915 2375.61C548.848 2374.69 547.193 2373.96 544.497 2372.46L543.967 2372.17C536.404 2367.96 533.684 2358.42 537.892 2350.85C542.1 2343.29 551.642 2340.57 559.205 2344.78C559.796 2345.11 560.429 2345.52 560.961 2345.92Z" fill="#371A45"/>
<path d="M1518.12 2491.57C1531.79 2491.49 1546.11 2490.19 1559.83 2488.01C1573.61 2485.81 1587.15 2482.56 1599.88 2477.95C1612.55 2473.3 1624.57 2467.33 1634.22 2459.42C1644.03 2451.65 1651.03 2441.97 1654.93 2431.31C1657.88 2423.19 1666.85 2419.01 1674.97 2421.96C1683.08 2424.91 1687.27 2433.89 1684.32 2442C1684.15 2442.46 1683.94 2442.95 1683.74 2443.38C1679.95 2451.32 1675.08 2458.67 1669.38 2465.12C1663.7 2471.62 1657.08 2476.93 1650.28 2481.54C1636.56 2490.75 1621.64 2496.34 1606.81 2500.33C1591.92 2504.23 1576.93 2506.39 1562.01 2507.41C1547.02 2508.4 1532.39 2508.44 1517.18 2507.16C1512.88 2506.8 1509.69 2503.02 1510.06 2498.72C1510.4 2494.67 1513.77 2491.61 1517.76 2491.57L1518.12 2491.57Z" fill="#371A45"/>
<path d="M2315.35 1013.34C2290.46 998.994 2275.28 979.594 2269.83 955.163L2269.83 955.15C2269.35 953.059 2268.95 950.911 2268.63 948.73C2267.77 942.889 2271.25 937.272 2276.91 935.6L2298.55 929.232L2343.39 992.006L2330.69 1009.9C2327.22 1014.81 2320.56 1016.34 2315.35 1013.34Z" fill="#9DA9B9"/>
<path d="M2343.53 851.627L2304.43 832.221C2300.19 830.116 2295.13 830.52 2291.28 833.272L2271.06 847.713C2265.41 851.748 2264 859.545 2267.88 865.304L2296.07 907.193" fill="#FF1B40"/>
<g opacity="0.55">
<path d="M2336.83 859.455L2304.17 843.242C2299.92 841.151 2294.87 841.552 2291.01 844.305L2270.79 858.747C2269.07 859.982 2267.72 861.583 2266.82 863.362C2264.37 857.896 2266.02 851.312 2271.06 847.711L2291.29 833.269C2295.14 830.516 2300.19 830.115 2304.43 832.216L2343.54 851.619L2336.83 859.455Z" fill="white"/>
</g>
<path d="M2432.43 1030.9L2412.21 1045.34C2406.56 1049.37 2398.73 1048.17 2394.54 1042.65L2364.06 1002.39L2405.79 985.886L2432.02 975.517L2437.66 1018.57L2437.69 1018.81C2438.31 1023.49 2436.29 1028.14 2432.43 1030.9Z" fill="#FF1B40"/>
<g opacity="0.3">
<path d="M2432.43 1030.9L2412.21 1045.34C2406.56 1049.37 2398.73 1048.17 2394.54 1042.65L2364.06 1002.39L2405.79 985.886L2408.77 984.872C2386.21 1022.33 2400.67 1029.6 2437.66 1018.57L2437.69 1018.81C2438.31 1023.49 2436.29 1028.14 2432.43 1030.9Z" fill="#232323"/>
</g>
<path d="M2321.14 1019.83C2318.33 1019.83 2315.5 1019.11 2312.9 1017.61C2284.61 1001.31 2268.08 978.38 2263.76 949.452C2262.53 941.198 2267.59 933.212 2275.52 930.878L2297.16 924.511C2299.77 923.74 2302.51 925.234 2303.28 927.846C2304.05 930.458 2302.55 933.198 2299.94 933.964L2278.31 940.331C2275.01 941.303 2272.99 944.528 2273.51 947.997C2277.41 974.164 2291.91 994.142 2317.82 1009.07C2320.77 1010.76 2324.67 1009.89 2326.68 1007.05L2339.36 989.154C2340.93 986.937 2344.01 986.402 2346.23 987.982C2348.45 989.557 2348.98 992.633 2347.4 994.852L2334.72 1012.75C2331.47 1017.34 2326.36 1019.83 2321.14 1019.83Z" fill="#371A45"/>
<path d="M2296.07 912.123C2294.49 912.123 2292.93 911.359 2291.98 909.945L2263.79 868.055C2258.38 860.025 2260.32 849.327 2268.2 843.702L2288.42 829.261C2293.76 825.44 2300.74 824.888 2306.62 827.806L2345.72 847.213C2348.16 848.424 2349.16 851.38 2347.95 853.817C2346.74 856.256 2343.78 857.247 2341.34 856.041L2302.24 836.634C2299.62 835.335 2296.52 835.587 2294.15 837.281L2273.92 851.724C2270.42 854.224 2269.56 858.98 2271.97 862.552L2300.16 904.442C2301.68 906.7 2301.08 909.762 2298.82 911.283C2297.98 911.85 2297.02 912.123 2296.07 912.123Z" fill="#371A45"/>
<path d="M2404.73 1052.69C2399.38 1052.69 2394.11 1050.25 2390.61 1045.62L2360.13 1005.36C2358.49 1003.19 2358.91 1000.1 2361.08 998.459C2363.25 996.811 2366.35 997.241 2367.99 999.414L2398.47 1039.67C2401.06 1043.11 2405.85 1043.82 2409.35 1041.33L2429.57 1026.89C2431.94 1025.19 2433.18 1022.34 2432.81 1019.44L2427.14 976.157C2426.78 973.459 2428.68 970.984 2431.38 970.632C2434.08 970.285 2436.55 972.177 2436.91 974.878L2442.58 1018.16C2443.43 1024.67 2440.64 1031.09 2435.3 1034.91L2415.08 1049.35C2411.92 1051.6 2408.31 1052.69 2404.73 1052.69Z" fill="#371A45"/>
<path d="M2369.72 1001.28C2362.34 1003.94 2354.06 1002.18 2348.37 996.777C2324.34 973.935 2307.42 949.487 2296.04 923.789C2292.94 916.76 2294.08 908.545 2298.89 902.543C2299.67 901.568 2300.44 900.593 2301.23 899.655L2301.22 899.642C2366.19 819.235 2432.72 768.028 2500.81 746.008C2536.44 734.495 2572.47 730.98 2608.95 735.445C2622.01 737.041 2630.84 749.408 2628.12 762.291C2626.58 769.569 2624.74 776.749 2622.59 783.785C2614.12 811.477 2600.94 837.255 2583.04 861.141C2539.67 919.047 2468.56 965.771 2369.72 1001.28Z" fill="#F6F6F6"/>
<path d="M2583.04 861.142C2535.25 848.373 2492.78 787.517 2500.81 746.009C2536.44 734.496 2572.47 730.981 2608.95 735.446C2622.01 737.042 2630.84 749.409 2628.12 762.292C2620.51 798.242 2605.5 831.19 2583.04 861.142Z" fill="#FF1B40"/>
<g opacity="0.55">
<path d="M2622 785.642C2622.85 782.32 2623.62 778.982 2624.34 775.615C2627.06 762.732 2618.23 750.364 2605.17 748.769C2569.65 744.417 2534.56 747.637 2499.85 758.454C2499.74 754.168 2500.03 749.996 2500.81 746.01C2536.44 734.497 2572.47 730.982 2608.95 735.447C2622.01 737.043 2630.84 749.41 2628.12 762.293C2626.45 770.222 2624.41 778.021 2622 785.642Z" fill="white"/>
</g>
<g opacity="0.3">
<path d="M2369.72 1001.28C2362.34 1003.94 2354.06 1002.18 2348.37 996.777C2324.34 973.935 2307.42 949.487 2296.04 923.789C2292.94 916.76 2294.08 908.545 2298.89 902.543C2299.67 901.568 2300.44 900.593 2301.23 899.655C2441.28 974.93 2622.58 783.727 2622.58 783.727L2622.59 783.785C2614.12 811.477 2600.94 837.255 2583.04 861.141C2539.67 919.047 2468.56 965.771 2369.72 1001.28Z" fill="#232323"/>
</g>
<path d="M2362.66 1007.45C2356.19 1007.45 2349.87 1004.99 2344.98 1000.34C2321.58 978.117 2303.6 953.03 2291.54 925.781C2287.68 917.065 2289.02 906.98 2295.03 899.465C2395.39 774.109 2501.23 717.29 2609.54 730.551C2617.13 731.481 2624.03 735.571 2628.46 741.772C2632.89 747.973 2634.52 755.822 2632.94 763.31C2610.36 870.034 2522.36 951.66 2371.38 1005.92C2368.53 1006.95 2365.58 1007.45 2362.66 1007.45ZM2578.92 738.53C2484.37 738.53 2391.6 794.609 2302.73 905.625C2299.02 910.256 2298.18 916.453 2300.55 921.792C2312.25 948.213 2329 971.57 2351.77 993.201C2356.15 997.361 2362.39 998.687 2368.05 996.646C2515.59 943.619 2601.47 864.427 2623.3 761.27C2624.32 756.412 2623.31 751.522 2620.44 747.503C2617.57 743.485 2613.27 740.94 2608.35 740.337C2598.52 739.133 2588.71 738.53 2578.92 738.53Z" fill="#371A45"/>
<path d="M2308.13 969.67C2304.66 964.81 2305.78 958.057 2310.64 954.586L2368.13 913.529C2372.99 910.058 2379.74 911.184 2383.21 916.044C2386.68 920.904 2385.56 927.657 2380.7 931.128L2323.21 972.185C2318.35 975.656 2311.6 974.53 2308.13 969.67Z" fill="#FF1B40"/>
<g opacity="0.55">
<path d="M2384.96 924.684C2384.8 924.414 2384.63 924.141 2384.44 923.877C2380.97 919.02 2374.23 917.896 2369.37 921.365L2311.88 962.428C2309.62 964.04 2308.16 966.378 2307.62 968.893C2304.78 964.106 2306.03 957.872 2310.64 954.582L2368.12 913.528C2372.99 910.049 2379.74 911.187 2383.21 916.044C2384.95 918.473 2385.54 921.374 2385.09 924.112C2385.05 924.316 2385.01 924.507 2384.96 924.684Z" fill="white"/>
</g>
<path d="M2316.96 979.13C2316.09 979.13 2315.21 979.059 2314.34 978.913C2310.19 978.222 2306.56 975.956 2304.12 972.536C2301.67 969.113 2300.71 964.946 2301.4 960.798C2302.09 956.65 2304.36 953.02 2307.78 950.576L2365.26 909.519C2368.68 907.08 2372.86 906.116 2377 906.802C2381.15 907.493 2384.78 909.759 2387.22 913.181C2389.67 916.601 2390.63 920.769 2389.94 924.917C2389.25 929.065 2386.98 932.693 2383.56 935.137L2326.07 976.197C2323.37 978.122 2320.21 979.13 2316.96 979.13ZM2374.4 916.442C2373.18 916.442 2372 916.818 2370.99 917.538L2313.51 958.598C2312.23 959.511 2311.38 960.869 2311.12 962.419C2310.86 963.969 2311.22 965.527 2312.14 966.804L2312.14 966.806C2313.05 968.085 2314.41 968.932 2315.96 969.191C2317.51 969.44 2319.07 969.086 2320.35 968.173L2377.83 927.116C2379.11 926.203 2379.96 924.845 2380.21 923.295C2380.47 921.745 2380.11 920.187 2379.2 918.91C2378.29 917.628 2376.93 916.781 2375.38 916.522C2375.05 916.469 2374.72 916.442 2374.4 916.442Z" fill="#371A45"/>
<path d="M2458.54 911.854C2483.18 911.854 2503.15 891.884 2503.15 867.25C2503.15 842.616 2483.18 822.646 2458.54 822.646C2433.91 822.646 2413.94 842.616 2413.94 867.25C2413.94 891.884 2433.91 911.854 2458.54 911.854Z" fill="#FF1B40"/>
<g opacity="0.3">
<path d="M2484.46 903.543C2464.42 917.862 2436.56 913.219 2422.24 893.17C2410.64 876.922 2411.49 855.543 2422.91 840.412C2419.8 852.683 2421.91 866.185 2429.84 877.298C2444.16 897.347 2472.02 901.99 2492.06 887.671C2495.87 884.956 2499.11 881.764 2501.77 878.208C2499.27 888.082 2493.4 897.161 2484.46 903.543Z" fill="#232323"/>
</g>
<g opacity="0.55">
<path d="M2499.26 885.463C2501.85 873.583 2499.6 860.684 2491.98 850.019C2477.66 829.97 2449.81 825.327 2429.76 839.646C2423.05 844.435 2418.06 850.753 2414.95 857.78C2417.21 847.333 2423.22 837.66 2432.62 830.949C2452.66 816.63 2480.52 821.273 2494.84 841.322C2504.38 854.679 2505.5 871.494 2499.26 885.463Z" fill="white"/>
</g>
<path d="M2458.65 916.794C2455.91 916.794 2453.15 916.567 2450.4 916.108C2437.35 913.933 2425.92 906.804 2418.23 896.037C2410.54 885.27 2407.51 872.155 2409.69 859.103C2411.86 846.054 2418.99 834.633 2429.76 826.942C2440.52 819.254 2453.63 816.217 2466.69 818.39C2479.74 820.565 2491.16 827.694 2498.85 838.461C2514.73 860.685 2509.56 891.681 2487.33 907.558C2478.84 913.622 2468.88 916.794 2458.65 916.794ZM2458.46 827.565C2450.26 827.565 2442.29 830.104 2435.48 834.965C2426.86 841.122 2421.15 850.273 2419.41 860.724C2417.66 871.178 2420.1 881.683 2426.26 890.309C2432.42 898.932 2441.57 904.642 2452.02 906.386C2462.47 908.129 2472.98 905.698 2481.6 899.535C2499.41 886.82 2503.55 861.991 2490.83 844.188C2484.67 835.565 2475.52 829.855 2465.07 828.114C2462.86 827.746 2460.65 827.565 2458.46 827.565Z" fill="#371A45"/>
<path d="M2471.71 891.68C2485.1 884.433 2490.08 867.7 2482.84 854.307C2475.59 840.914 2458.86 835.932 2445.46 843.179C2432.07 850.426 2427.09 867.158 2434.34 880.551C2441.58 893.944 2458.32 898.927 2471.71 891.68Z" fill="#45C1F7"/>
<g opacity="0.3">
<path d="M2477.99 886.779C2481.37 878.343 2480.52 868.411 2474.84 860.465C2465.99 848.071 2448.77 845.201 2436.38 854.053C2435.14 854.939 2434.01 855.903 2432.97 856.949C2434.86 852.23 2438.07 847.986 2442.51 844.809C2454.91 835.957 2472.13 838.828 2480.98 851.221C2488.94 862.373 2487.42 877.432 2477.99 886.779Z" fill="#232323"/>
</g>
<path d="M2458.58 897.277C2449.2 897.277 2439.96 892.907 2434.1 884.709C2429.44 878.178 2427.6 870.224 2428.91 862.309C2430.23 854.396 2434.56 847.47 2441.08 842.807C2454.56 833.185 2473.36 836.313 2482.99 849.792C2487.65 856.32 2489.49 864.274 2488.17 872.189C2486.85 880.102 2482.53 887.028 2476 891.691C2470.72 895.463 2464.62 897.277 2458.58 897.277ZM2458.51 842.15C2453.46 842.15 2448.36 843.664 2443.95 846.815C2438.49 850.714 2434.88 856.503 2433.77 863.119C2432.67 869.735 2434.21 876.386 2438.11 881.842C2442.01 887.301 2447.8 890.914 2454.41 892.018C2461.02 893.122 2467.68 891.581 2473.13 887.682C2478.59 883.783 2482.21 877.994 2483.31 871.378C2484.41 864.762 2482.87 858.114 2478.98 852.657C2474.08 845.805 2466.35 842.15 2458.51 842.15Z" fill="#371A45"/>
<path d="M2583.04 866.069C2582.62 866.069 2582.2 866.015 2581.77 865.901C2532.29 852.683 2487.39 789.448 2495.98 745.076C2496.5 742.405 2499.07 740.655 2501.75 741.175C2504.42 741.693 2506.17 744.278 2505.65 746.951C2498.05 786.236 2539.95 844.529 2584.31 856.38C2586.94 857.083 2588.51 859.783 2587.8 862.413C2587.21 864.614 2585.22 866.069 2583.04 866.069Z" fill="#371A45"/>
<g opacity="0.3">
<path d="M2315.35 1013.34C2290.46 998.994 2275.28 979.594 2269.83 955.163C2283.58 977.652 2318.23 971.486 2318.23 971.486L2330.85 974.451L2343.39 992.005L2330.69 1009.9C2327.23 1014.81 2320.56 1016.34 2315.35 1013.34Z" fill="#232323"/>
</g>
<g opacity="0.2">
<path d="M2756.97 1112.52C2756.97 1112.52 2688.79 1062.94 2603.04 1077.1C2511.05 1092.28 2441.01 1133.48 2322.8 1125.71C2177.05 1116.12 2075.33 950.607 2075.33 950.607C2075.33 950.607 2177.88 650.279 2176.45 530.906C2194.48 532.73 2211.73 538.054 2228.41 545.66C2217.91 657.371 2116.72 943.092 2193.08 1010.62C2327.94 1129.89 2426.18 848.125 2442.81 676.96C2453.89 679.612 2465.21 680.968 2476.89 680.749C2489.06 680.525 2500.72 678.817 2512.06 676.053C2469.75 810.226 2417.7 1037.86 2557.9 1021.52C2716.79 1002.99 2695.24 744.265 2790.72 600.437C2799.79 601.858 2809.21 603.745 2818.98 606.178C2818.98 606.176 2755.24 1109.36 2756.97 1112.52Z" fill="#371A45"/>
</g>
</svg>
