<svg width="3022" height="3010" viewBox="0 0 3022 3010" fill="none" xmlns="http://www.w3.org/2000/svg">
<path d="M1940.57 1322.81C1591.67 1290.16 1136.43 902.821 1136.43 902.821L958.542 891.824L897.457 1160.34C897.457 1160.34 1190.55 1637.5 1869.93 1709.94" fill="white"/>
<path d="M1940.57 1322.8L1902.03 1534.11L1869.94 1709.95C1190.56 1637.51 897.477 1160.33 897.477 1160.33L923.744 1044.88L958.541 891.837L1136.41 902.804C1136.41 902.804 1591.65 1290.17 1940.57 1322.8Z" fill="white"/>
<path d="M1940.57 1322.8L1912.13 1478.73L1902.02 1534.11L1869.94 1709.95C1190.56 1637.51 897.476 1160.33 897.476 1160.33L923.743 1044.88L958.54 891.837L1136.4 902.804C1136.4 902.804 1410.31 1135.87 1696.04 1255.69C1778.68 1290.31 1862.31 1315.49 1940.57 1322.8Z" fill="white"/>
<path d="M1940.57 1322.8L1912.14 1478.73C1792.94 1415.14 1727.27 1316.44 1696.04 1255.69C1778.68 1290.31 1862.31 1315.49 1940.57 1322.8Z" fill="#E8E8E8"/>
<path d="M2604.41 1401.69C2562.8 1437.94 2500.43 1478.55 2411.11 1506.27L2363.82 1309.94C2363.82 1309.94 2483.51 1294.46 2604.41 1401.69Z" fill="#E8E8E8"/>
<path d="M2536.72 1718.29C2458.1 1765.54 2340.62 1807.47 2171.24 1807.47C2033.86 1807.47 1931.5 1765.72 1856.44 1711.61L1908.39 1586.5C2244.35 992.201 2331.82 1504.63 2331.82 1504.63C2331.82 1504.63 2449.79 1564.57 2536.72 1718.29Z" fill="#E8E8E8"/>
<path d="M1902.02 1534.11L1869.94 1709.95C1190.56 1637.51 897.476 1160.33 897.476 1160.33L923.743 1044.88C980.474 995.099 1022.67 957.64 1022.67 957.64C1022.67 957.64 999.565 923.655 1069.11 930.516C1138.66 937.376 1115.82 1255.47 1379.22 1443.58C1559.79 1572.52 1780.85 1556.77 1902.02 1534.11Z" fill="#E8E8E8"/>
<path d="M1869.95 1727.42C1869.33 1727.42 1868.7 1727.39 1868.07 1727.33C1512.87 1689.45 1264.08 1540.14 1117.91 1421.55C959.217 1292.8 885.613 1174.46 882.556 1169.48L878.826 1163.41L944.793 873.456L1143.32 885.729L1147.76 889.503C1152.27 893.341 1602.86 1273.64 1942.19 1305.4C1951.8 1306.3 1958.87 1314.83 1957.97 1324.44C1957.07 1334.05 1948.6 1341.11 1938.93 1340.22C1603.07 1308.78 1180.5 962.573 1129.58 919.912L972.292 910.19L916.14 1157.01C932.976 1182.31 1006.16 1286.12 1141.12 1395.36C1283.47 1510.57 1525.78 1655.66 1871.79 1692.56C1881.39 1693.58 1888.34 1702.19 1887.31 1711.79C1886.36 1720.77 1878.77 1727.42 1869.95 1727.42Z" fill="#371A45"/>
<path d="M1099.62 1277.74C1099.62 1277.74 1107.67 1020.57 1053.72 845.726C1053.72 845.726 1211.19 808.068 1186.69 722.587C1170.54 666.225 1093.05 690.092 1093.05 690.092C1093.05 690.092 1122.26 606.684 1045.17 597.417C1011.69 593.392 964.376 616.93 923.014 655.854C889.152 687.72 859.051 726.591 850.197 770.474C841.396 814.095 870.703 1074.9 850.18 1127.92" fill="#63FF48"/>
<path d="M1104.36 828.382C1077.06 840.116 1053.72 845.713 1053.72 845.713C1107.66 1020.56 1099.62 1277.72 1099.62 1277.72L850.179 1127.92C870.714 1074.89 841.378 814.076 850.179 770.478C851.036 766.371 852.029 762.264 853.248 758.247C864.757 719.343 892.377 684.727 923.022 655.842C964.363 616.938 1011.71 593.379 1045.15 597.396C1122.28 606.693 1093.03 690.097 1093.03 690.097C1093.03 690.097 1170.53 666.222 1186.68 722.592C1201.76 775.171 1148 809.652 1104.36 828.382Z" fill="#63FF48"/>
<path d="M1053.72 845.712C1107.66 1020.55 1099.62 1277.72 1099.62 1277.72L850.179 1127.92C870.714 1074.89 841.378 814.075 850.179 770.477C851.036 766.37 852.029 762.263 853.248 758.246C918.509 761.586 1034 775.306 1104.36 828.381C1077.06 840.116 1053.72 845.712 1053.72 845.712Z" fill="#2BC614"/>
<path d="M1099.63 1295.22C1099.45 1295.22 1099.26 1295.22 1099.08 1295.21C1089.43 1294.91 1081.85 1286.84 1082.15 1277.19C1082.23 1274.65 1089.47 1020.86 1037.01 850.881C1035.59 846.262 1036.14 841.259 1038.53 837.063C1040.93 832.866 1044.95 829.846 1049.65 828.721C1074.62 822.715 1144.14 799.09 1165.51 762.429C1172.01 751.272 1173.44 739.814 1169.89 727.405C1167.26 718.26 1162.57 712.119 1155.12 708.081C1137.04 698.296 1107.22 704.021 1098.2 706.802C1091.88 708.731 1085.03 706.97 1080.46 702.217C1075.89 697.466 1074.37 690.542 1076.56 684.317C1079.66 675.262 1085.47 647.974 1075.01 631.304C1069.22 622.068 1058.77 616.66 1043.08 614.776C1015.74 611.468 973.234 632.598 934.997 668.587C896.984 704.356 874.221 739.798 867.336 773.931C864.177 789.573 867.107 847.01 869.939 902.556C875.818 1017.79 879.011 1101.86 866.482 1134.23C863.001 1143.24 852.849 1147.71 843.87 1144.22C834.861 1140.74 830.389 1130.61 833.875 1121.61C844.681 1093.7 839.095 984.251 835.022 904.336C831.311 831.565 829.231 786.001 833.059 767.014C841.409 725.639 867.644 683.955 911.033 643.122C957.903 599.02 1008.83 575.446 1047.25 580.058C1073.81 583.251 1093.15 594.301 1104.74 612.897C1115.94 630.863 1117.08 651.764 1115.44 668.151C1132.12 666.574 1153.48 667.428 1171.77 677.336C1187.37 685.783 1198.34 699.765 1203.5 717.77C1209.74 739.547 1207.11 760.517 1195.68 780.092C1170.43 823.339 1106.7 847.912 1075.46 857.721C1124.16 1032.09 1117.42 1268 1117.1 1278.28C1116.8 1287.75 1109.04 1295.22 1099.63 1295.22Z" fill="#371A45"/>
<path d="M848.5 757.327C848.5 757.327 929.725 757.327 934.856 820.928C938.348 864.21 886.113 875.229 886.113 875.229C886.113 875.229 926.732 906.014 919.891 964.163C912.772 1024.68 916.024 1074.05 880.545 1071.48C845.066 1068.92 812.238 1048.99 805.73 991.932C797.179 916.953 828.819 852.567 828.819 852.567C828.819 852.567 783.497 789.715 848.5 757.327Z" fill="white"/>
<path d="M883.705 1089.08C882.274 1089.08 880.804 1089.03 879.286 1088.92C849.125 1086.74 797.211 1071.49 788.363 993.913C781.141 930.605 800.424 875.024 809.144 853.862C802.113 841.025 791.6 816.123 797.943 790.415C803.065 769.663 817.45 753.264 840.702 741.68C843.124 740.472 845.795 739.844 848.5 739.844C882.172 739.844 947.196 756.497 952.284 819.522C954.823 850.987 935.824 871.014 916.078 882.176C928.607 899.634 941.766 927.852 937.255 966.207C936.02 976.71 935.102 986.856 934.218 996.668C930.121 1042.12 925.878 1089.08 883.705 1089.08ZM852.523 774.975C841.044 781.457 834.29 789.233 831.922 798.662C827.654 815.635 838.499 835.991 843.04 842.402C846.741 847.631 847.332 854.528 844.505 860.278C844.227 860.854 815.272 921.272 823.099 989.951C827.733 1030.56 846.937 1051.52 881.805 1054.05C885.716 1054.32 888.294 1054.51 891.624 1045.23C895.774 1033.66 897.454 1015.06 899.393 993.527C900.301 983.481 901.239 973.092 902.528 962.118C908.051 915.172 876.786 890.126 875.448 889.083C870.096 884.896 867.601 877.94 869.135 871.319C870.673 864.698 875.854 859.525 882.504 858.121C883.945 857.804 919.633 849.591 917.431 822.332C914.178 782.029 866.957 775.903 852.523 774.975Z" fill="#371A45"/>
<path d="M1200.02 1006.9C1194.63 925.533 1173.34 808.309 1074.45 816.908C991.733 824.101 948.701 903.011 980.177 937.042C1023.86 984.274 1100.82 937.042 1100.82 937.042" fill="white"/>
<path d="M1186.94 1007.77C1178.49 952.861 1168.1 861.468 1110.51 839.112C1073.38 826.814 1027.68 843.108 1003.53 872.938C987.157 894.037 978.509 921.465 1006.78 935.294C1034.7 948.341 1066.94 938.658 1096.95 929.365C1101.58 927.838 1106.57 930.353 1108.09 934.982C1109.25 938.498 1108.06 942.238 1105.4 944.494C1084.76 961.358 1061.11 972.03 1034.05 974.448C1008.91 976.95 980.598 966.486 964.107 945.897C950.743 929.684 948.823 906.555 954.263 887.355C966.081 846.24 1002.03 816.083 1041.51 804.325C1138.98 775.861 1192.32 845.079 1206.95 933.11C1211.38 957.474 1212.99 981.869 1213.1 1006.03C1213.14 1013.29 1207.28 1019.2 1200.03 1019.23C1193.32 1019.26 1187.76 1014.26 1186.94 1007.77Z" fill="#371A45"/>
<path d="M2200.49 1253.35L2195.81 1377.39L2193.4 1440.57L2152.13 2530.15C2152.13 2530.15 2226.58 2528.75 2326.26 2518.84C2345.76 2516.9 2366.23 2514.65 2387.29 2512.01C2544.24 2492.45 2734.22 2451.89 2804.03 2368.48C2908.38 2243.75 2906.27 1652.24 2801.38 1421.26C2753.34 1315.37 2526.24 1276.3 2365.43 1261.86C2347.46 1260.21 2330.29 1258.91 2314.32 1257.87C2246.99 1253.38 2200.49 1253.35 2200.49 1253.35Z" fill="white"/>
<path d="M2195.81 1377.39L2193.4 1440.57L2160.63 2305.71L2152.13 2530.15C2152.13 2530.15 2153.69 2530.11 2156.64 2530.03C2157.48 2529.99 2158.48 2529.97 2159.54 2529.95C2160.37 2529.91 2161.32 2529.88 2162.27 2529.85C2162.99 2529.86 2163.71 2529.81 2164.44 2529.81C2164.72 2529.78 2165.05 2529.81 2165.33 2529.78C2166.67 2529.73 2168.17 2529.69 2169.73 2529.6C2170.06 2529.63 2170.4 2529.6 2170.79 2529.58C2172.07 2529.52 2173.41 2529.47 2174.86 2529.43C2176.81 2529.37 2178.82 2529.27 2180.94 2529.17C2182.44 2529.08 2184.06 2529.05 2185.68 2528.97C2187.35 2528.89 2189.02 2528.81 2190.75 2528.73C2192.92 2528.64 2195.21 2528.51 2197.55 2528.43C2202.3 2528.17 2207.32 2527.93 2212.62 2527.61C2217.31 2527.4 2222.22 2527.1 2227.36 2526.76C2233.29 2526.38 2239.48 2526.02 2245.91 2525.57C2269.66 2523.94 2296.85 2521.77 2326.26 2518.84C2331.98 2518.28 2337.81 2517.66 2343.7 2517.06C2347.79 2516.63 2351.99 2516.16 2356.2 2515.68C2366.35 2514.55 2376.79 2513.34 2387.29 2512.01C2544.3 2492.46 2734.22 2451.9 2803.98 2368.48C2889.94 2265.79 2903.73 1846.58 2847.3 1572.75C2863.59 1811.98 2839.84 2069.05 2775.05 2146.45C2743.02 2184.72 2688.98 2032.16 2690.25 1955.38C2693.53 1757.35 2580.01 1523.92 2395.75 1374.66C2390.97 1370.78 2284.55 1385.66 2195.81 1377.39Z" fill="#E5E5E5"/>
<path d="M2133.94 2547.99L2183.67 1235.87L2200.51 1235.88C2201.83 1235.88 2334.63 1236.2 2475 1257.16C2667.99 1285.99 2783.16 1338.76 2817.33 1414.01C2926.26 1653.9 2926.33 2249.57 2817.44 2379.72C2686.84 2535.8 2174.2 2547.23 2152.44 2547.64L2133.94 2547.99ZM2217.32 1270.98L2170.29 2512.09C2263.78 2508.55 2683.27 2485.58 2790.62 2357.28C2835.64 2303.48 2864.32 2137.63 2863.7 1934.77C2863.07 1727.31 2833.1 1533.31 2785.5 1428.47C2729.09 1304.23 2371.31 1273.19 2217.32 1270.98Z" fill="#371A45"/>
<path d="M2915.81 1896.87C2882.66 1871.42 2672.39 1877.88 2672.39 1877.88C2649.2 1880.52 2630.74 1898.46 2627.48 1921.57C2615.54 2006.14 2598.15 2202.69 2682.27 2264.13C2752.11 2315.14 2846.94 2288.98 2897.53 2237.98C2937 2198.2 2943.85 2125.84 2943.64 2053.74C2943.41 1975.62 2941.67 1916.73 2915.81 1896.87Z" fill="white"/>
<path d="M2943.65 2053.76C2943.8 2090.94 2941.97 2128.18 2934.77 2160.97C2928.11 2191.79 2916.65 2218.71 2897.53 2237.97C2846.94 2288.97 2752.11 2315.14 2682.27 2264.11C2616.29 2215.92 2612.75 2084.5 2620.06 1989.35C2620.09 1989.27 2620.07 1989.21 2620.07 1989.21C2622.07 1963.12 2624.92 1939.73 2627.47 1921.56C2630.72 1898.47 2649.2 1880.49 2672.39 1877.88C2672.39 1877.88 2882.67 1871.39 2915.84 1896.87C2941.64 1916.72 2943.43 1975.64 2943.65 2053.76Z" fill="white"/>
<path d="M2934.77 2160.97C2928.11 2191.79 2916.65 2218.71 2897.53 2237.97C2846.94 2288.97 2752.11 2315.14 2682.27 2264.11C2616.29 2215.92 2612.75 2084.5 2620.06 1989.35C2620.64 1993.24 2634.25 2091.4 2665.81 2082.77C2690.65 2076.02 2703.72 2024.72 2704.53 2021.7C2705.34 2028.09 2730.73 2222.08 2835.97 2208.16C2883.3 2201.93 2914.38 2182.94 2934.77 2160.97Z" fill="#E5E5E5"/>
<path d="M2768.68 2309.08C2735.13 2309.08 2701.43 2299.78 2671.96 2278.25C2583.24 2213.45 2595.16 2025.43 2610.17 1919.13C2614.54 1888.16 2639.31 1864.05 2670.41 1860.5L2671.85 1860.4C2722.65 1858.85 2891.11 1855.87 2926.45 1883C2958.31 1907.46 2960.86 1966.46 2961.12 2053.69C2961.33 2125.19 2955.42 2204.46 2909.94 2250.29C2874.93 2285.59 2822 2309.08 2768.68 2309.08ZM2673.72 1895.33C2658.76 1897.32 2646.9 1909.03 2644.79 1924.01C2636.05 1985.92 2613.68 2192.39 2692.58 2250.01C2753.69 2294.65 2838.46 2272.69 2885.12 2225.67C2921.83 2188.67 2926.34 2114.38 2926.15 2053.79C2925.98 1997.11 2925.78 1926.56 2905.16 1910.73C2887.81 1897.4 2771.73 1892.37 2673.72 1895.33Z" fill="#371A45"/>
<path d="M2839.43 2293.35C2802.48 2300.68 2766.73 2278.1 2745.36 2250.4C2696.29 2184.47 2695.2 2098.27 2698.53 2020.29C2699.89 2004.21 2701.29 1989 2705.98 1973.17C2706.73 1970.74 2709.31 1969.38 2711.75 1970.13C2714.26 1970.91 2715.55 1973.59 2714.76 1976.04C2711.52 1990.17 2710.85 2006.07 2710.56 2020.81C2711.88 2093.14 2717.29 2176.97 2765.02 2234.07C2781.78 2253.06 2806.88 2269.1 2832.23 2263.33C2852.68 2258.4 2859.97 2288.41 2839.43 2293.35Z" fill="#371A45"/>
<path d="M2477.01 1398.42C2555.97 1388.11 2635.02 1380.84 2714.78 1381.72C2741.56 1382.26 2768.45 1383.55 2795.88 1388.11C2805.41 1389.7 2811.85 1398.71 2810.26 1408.24C2808.65 1418.16 2798.82 1424.71 2789.04 1422.4C2739.49 1411.85 2686.75 1410.21 2635.65 1409.91C2583.54 1409.87 2531.02 1412.18 2479.09 1416.33C2467.57 1417.18 2465.45 1400.31 2477.01 1398.42Z" fill="#371A45"/>
<path d="M2403.16 1932.26C2403.16 1932.26 2251.92 2168.38 2212.93 2280.32C2160.76 2430.08 2218.71 2840.81 2178.61 2916.09C2161.16 2948.86 2128.87 2979.62 1961.52 2979.62C1834.63 2979.62 1748.2 2979.7 1745.46 2892.46C1743.43 2827.51 1828.53 2797.82 1828.53 2797.82L1732.94 2086.29" fill="white"/>
<path d="M2212.94 2280.3C2160.75 2430.08 2218.72 2840.81 2178.6 2916.08C2161.15 2948.86 2128.89 2979.63 1961.5 2979.63C1834.64 2979.63 1748.21 2979.71 1745.44 2892.44C1745.36 2890.48 1745.4 2888.51 1745.52 2886.63C1748.53 2825.76 1828.54 2797.84 1828.54 2797.84L1759.37 2282.95L1732.93 2086.27L2403.16 1932.25C2403.16 1932.25 2251.9 2168.37 2212.94 2280.3Z" fill="white"/>
<path d="M2212.94 2280.3C2160.75 2430.08 2218.72 2840.81 2178.6 2916.08C2161.15 2948.86 2128.89 2979.63 1961.5 2979.63C1834.64 2979.63 1748.21 2979.71 1745.44 2892.44C1745.36 2890.48 1745.4 2888.51 1745.52 2886.63C1764.7 2901.67 1810 2924.58 1908.38 2925.26C2055.35 2926.27 2136.67 2912.26 2150.96 2829.57C2165.2 2746.88 2158.1 2605.49 2110.47 2524.89C2062.17 2443.2 1875.92 2461.53 1759.37 2282.95L1732.93 2086.27L2403.16 1932.25C2403.16 1932.25 2251.9 2168.37 2212.94 2280.3Z" fill="#E8E8E8"/>
<path d="M2417.88 1941.69C2362.75 2029.29 2308.82 2118.56 2262.31 2211.01C2247.69 2241.31 2232.68 2271.53 2224.1 2304.01C2216.08 2335.84 2212.51 2369.94 2210.22 2404C2203.88 2507.66 2208.98 2611.26 2210.72 2715.5C2210.83 2777.48 2214.76 2840.53 2202.08 2902.08C2179.38 2994.99 2059.33 2993.55 1983.23 2996.9C1929.58 2996.82 1877.07 2999.05 1823.64 2990.45C1767.15 2981.38 1727 2950.49 1728.02 2888.36C1729.36 2834.54 1777.29 2798.85 1822.78 2781.31L1811.21 2800.15L1715.62 2088.62C1713.21 2066.08 1746.27 2060.76 1750.27 2083.96L1845.86 2795.49C1846.99 2803.87 1841.96 2811.66 1834.29 2814.33C1806.36 2825.19 1776.94 2845.2 1766.95 2869.95C1762.08 2881.15 1762.38 2893.24 1764.25 2905.19C1772.64 2957.11 1836.85 2957.76 1879.41 2960.99C1946.83 2962.62 2017.42 2964.81 2083.59 2953.5C2172.29 2937.75 2172.15 2898.56 2175.71 2819.59C2178.23 2715.6 2171.67 2611.66 2172.22 2507.1C2173.03 2436.01 2173.44 2365.6 2190.24 2295.29C2199.35 2260.4 2215.41 2227.64 2230.99 2195.48C2278.28 2101.46 2332.45 2011.79 2388.43 1922.83C2400.82 1904.15 2430.11 1921.11 2417.88 1941.69Z" fill="#371A45"/>
<path d="M2028.14 2612.93C1952.94 2612.93 1863.9 2599.73 1787.13 2552.17C1780.97 2548.35 1779.07 2540.27 1782.89 2534.11C1786.71 2527.96 1794.78 2526.05 1800.94 2529.87C1959.9 2628.37 2184.55 2567.84 2186.81 2567.22C2193.75 2565.3 2201.01 2569.38 2202.94 2576.36C2204.88 2583.33 2200.79 2590.55 2193.82 2592.49C2188.57 2593.95 2118.31 2612.93 2028.14 2612.93Z" fill="#371A45"/>
<path d="M2623.75 2103.52C2621.26 2126.55 2618.29 2148.82 2614.8 2170.28C2567.26 2456.59 2175.51 2525.88 1930.72 2404.08L1782.15 2276.93C1765.98 2252.09 1753.42 2224.81 1745.2 2195.08C1741.15 2180.44 1737.73 2165.55 1734.97 2150.51C1697.13 1945.2 1774.09 1707.12 1816.61 1569.3L1908.37 1348.35C2179 1180 2331.82 1266.5 2331.82 1266.5C2331.82 1266.5 2583.3 1394.21 2622.7 1755.14C2636.11 1877.96 2635.22 1998.24 2623.75 2103.52Z" fill="white"/>
<path d="M2623.75 2074.09C2621.26 2097.12 2618.29 2119.39 2614.8 2140.85C2567.26 2427.16 2175.51 2496.45 1930.72 2374.64L1782.15 2247.5C1765.98 2222.66 1753.42 2195.38 1745.2 2165.65C1741.15 2151 1737.73 2136.12 1734.97 2121.07C1931.16 2243.64 2329.49 2270.32 2623.75 2074.09Z" fill="#E8E8E8"/>
<path d="M1774.81 2252.27C1758.39 2234.89 1745.42 2214.17 1735.19 2192.46C1731.8 2185.15 1728.29 2177.7 1727.04 2169.71C1718.81 2139.29 1713.42 2108.28 1710.29 2077.21C1698.51 1953.44 1718.97 1829.77 1751.5 1711.16C1767.79 1652.16 1787.36 1594.32 1808.27 1537.28C1809.93 1532.74 1814.96 1530.41 1819.5 1532.07C1823.74 1533.63 1826.05 1538.17 1824.96 1542.46C1769.45 1755.91 1702.63 1984.31 1774.27 2201.32C1778.69 2215.14 1783.81 2228.92 1789.51 2242.84C1793.25 2251.69 1781.41 2259.47 1774.81 2252.27Z" fill="#371A45"/>
<path d="M2194.64 2410.2C2195.04 2635.52 2238.3 2846.23 2238.3 2846.23C2238.3 2846.23 2192.82 2905.09 2237.56 2959.23C2264.79 2992.17 2331.82 2992.24 2331.82 2992.24H2520.98C2520.98 2992.24 2572.68 2987.27 2592.57 2930.1C2602.39 2901.87 2598.71 2524.85 2610.31 2277.81C2613.85 2202.47 2621.61 2164.23 2627.54 2085.01L2194.64 2410.2Z" fill="white"/>
<path d="M2627.52 2085.03C2621.63 2164.23 2613.84 2202.47 2610.31 2277.82C2607.58 2335.87 2605.7 2401.15 2604.29 2467.39C2599.68 2682.85 2600.08 2908.53 2592.58 2930.12C2572.68 2987.25 2521 2992.23 2521 2992.23H2331.82C2331.82 2992.23 2264.78 2992.19 2237.58 2959.21C2192.8 2905.08 2238.3 2846.23 2238.3 2846.23C2238.3 2846.23 2203.63 2677.39 2196.09 2480.39C2195.21 2457.32 2194.69 2433.85 2194.65 2410.22L2627.52 2085.03Z" fill="white"/>
<path d="M2596.47 2889.31C2595.47 2911.1 2594.18 2925.42 2592.58 2930.12C2572.68 2987.25 2521 2992.23 2521 2992.23H2331.82C2331.82 2992.23 2264.78 2992.19 2237.58 2959.21C2218.4 2936.06 2215.79 2912.03 2219.04 2892.12C2220.21 2893.77 2221.49 2895.41 2222.85 2897.06C2252.34 2932.81 2291.44 2940.77 2403.16 2940.77C2514.88 2940.77 2571.11 2928.92 2596.47 2889.31Z" fill="#E8E8E8"/>
<path d="M2555.8 2138.91C2583.5 2118.11 2622.66 2140.42 2618.9 2174.85C2615.44 2206.58 2612.24 2236.66 2610.31 2277.82C2608.24 2321.8 2606.66 2369.92 2605.4 2419.47C2604.79 2443.72 2582.73 2461.69 2558.86 2457.41C2473.67 2442.13 2368.77 2441.86 2242.72 2469.24C2218.35 2474.53 2195.14 2456.16 2194.81 2431.23C2194.81 2430.99 2194.8 2430.76 2194.8 2430.52C2194.63 2417.85 2200.48 2405.84 2210.61 2398.23L2555.8 2138.91Z" fill="#E8E8E8"/>
<path d="M2203.39 2410.19C2215.33 2518.23 2223.03 2627.84 2237.63 2735.53C2242.53 2771.45 2248.57 2807.53 2255.43 2842.71C2256.43 2847.83 2255.13 2852.86 2252.26 2856.75C2244.19 2868.11 2238.14 2882.46 2236.14 2896.19C2232.84 2916.76 2239.98 2937.25 2254.49 2951.71C2270.83 2966.07 2293.71 2970.91 2316.02 2973.69C2329.97 2975.43 2351.56 2974.56 2365.81 2974.75C2398.67 2974.77 2487.01 2974.74 2520.98 2974.75L2519.31 2974.84C2526.72 2973.64 2533.95 2970.99 2540.59 2967.45C2557.62 2958.58 2570.12 2942.14 2576.04 2924.29C2579.4 2901.02 2579.34 2876.34 2580.32 2852.22C2584.66 2667.1 2584.38 2444.55 2593.72 2260.6C2597.04 2201.48 2606.01 2142.24 2610.1 2083.71C2610.79 2074.08 2619.16 2066.83 2628.79 2067.52C2638.45 2068.21 2645.73 2076.65 2644.97 2086.31C2640.8 2145.77 2631.97 2203.65 2628.63 2262.65C2619.4 2445.45 2619.62 2669 2615.28 2853.22C2614.07 2879.42 2614.59 2905.66 2610.1 2932.25C2605.3 2948.69 2596.69 2963.92 2584.97 2976.71C2568.26 2994.58 2545.5 3007.18 2520.98 3009.72C2486.57 3009.72 2399.03 3009.72 2365.79 3009.72C2358.71 3009.65 2336.62 3009.8 2329.8 3009.69C2304.7 3008.62 2281.04 3004.9 2256.94 2994.37C2217.97 2978.37 2194.45 2932.45 2201.54 2891.11C2204.73 2870.68 2212.46 2852.26 2224.47 2835.54L2221.18 2849.74C2213.95 2813.16 2208.26 2777.02 2202.71 2740.56C2191.77 2667.75 2182.89 2594.49 2181.79 2520.76C2180.94 2483.92 2182.32 2446.97 2185.9 2410.22C2187.06 2400.03 2202.2 2399.58 2203.39 2410.19Z" fill="#371A45"/>
<path d="M2206.46 2620.29C2206.46 2620.29 2332.52 2677.89 2598.71 2612.84L2206.46 2620.29Z" fill="white"/>
<path d="M2364.13 2657.07C2257.3 2657.07 2204.39 2633.76 2201.01 2632.21C2194.43 2629.2 2191.53 2621.42 2194.54 2614.84C2197.55 2608.26 2205.3 2605.36 2211.88 2608.34C2213.11 2608.9 2338.07 2663.04 2595.59 2600.11C2602.66 2598.4 2609.73 2602.7 2611.44 2609.74C2613.16 2616.77 2608.85 2623.87 2601.82 2625.58C2504.33 2649.4 2425.37 2657.07 2364.13 2657.07Z" fill="#371A45"/>
<path d="M2526.16 2828.51C2526.16 2828.51 2413.57 2789.05 2276.25 2829.57L2526.16 2828.51Z" fill="white"/>
<path d="M2523.27 2836.76C2443.07 2819.01 2359.07 2821.51 2278.72 2837.95C2268.21 2840.2 2263.67 2824.99 2273.77 2821.18C2314.27 2805.86 2357.8 2798.43 2401.09 2798.3C2444.8 2798.31 2487.93 2804.13 2529.06 2820.26C2539.18 2824.5 2533.87 2839.76 2523.27 2836.76Z" fill="#371A45"/>
<path d="M1820.23 1926.56C1820.23 1926.56 1751.54 1933.12 1727.78 1909.29C1727.78 1909.29 1637.14 1959.84 1701.23 2041.13C1750.44 2103.54 1882.73 2088.03 1882.73 2088.03" fill="white"/>
<path d="M1882.73 2088.02C1882.73 2088.02 1750.45 2103.55 1701.24 2041.13C1668.63 1999.73 1676.1 1966.31 1691.3 1943.51C1694.91 1953.39 1700.76 1963.83 1709.46 1974.87C1742.94 2017.43 1815.13 2023.72 1857.69 2023.44L1882.73 2088.02Z" fill="#E8E8E8"/>
<path d="M1847 2107.26C1800.97 2107.26 1724.94 2099.44 1687.5 2051.95C1665.31 2023.81 1656.89 1995.39 1662.46 1967.49C1671.76 1920.99 1717.33 1895.1 1719.26 1894.02L1730.81 1887.58L1740.16 1896.94C1752.47 1909.29 1793.42 1911.52 1818.58 1909.16C1828.24 1908.25 1836.71 1915.31 1837.63 1924.91C1838.53 1934.52 1831.5 1943.05 1821.89 1943.96C1810.64 1945.04 1758.95 1948.77 1727.39 1930.67C1717 1938.64 1700.74 1954.02 1696.72 1974.52C1693.32 1991.87 1699.45 2010.64 1714.96 2030.3C1750.25 2075.07 1846.57 2074.62 1880.71 2070.66C1890.19 2069.57 1898.97 2076.42 1900.09 2086C1901.21 2095.59 1894.35 2104.27 1884.77 2105.39C1882.94 2105.61 1868.13 2107.25 1847 2107.26Z" fill="#371A45"/>
<path d="M1830.43 2178.16L2233.54 2196.07C2281.25 2198.2 2322.06 2160.89 2324.19 2113.12L2333.71 1898.6C2335.57 1856.78 2307.18 1820.32 2268.03 1810.48C2262.49 1809.05 2256.71 1808.22 2250.76 1807.95L1847.71 1790.04C1799.94 1787.91 1759.13 1825.22 1757.06 1872.99L1749.48 2042.89L1747.48 2087.51C1745.34 2135.28 1782.71 2176.03 1830.43 2178.16Z" fill="white"/>
<path d="M1830.43 2178.16L2233.54 2196.07C2281.25 2198.2 2322.06 2160.89 2324.19 2113.12L2333.71 1898.6C2335.57 1856.78 2307.18 1820.32 2268.03 1810.48C2262.49 1809.05 2256.71 1808.22 2250.76 1807.95L1847.71 1790.04C1799.94 1787.91 1759.13 1825.22 1757.06 1872.99L1749.48 2042.89L1747.48 2087.51C1745.34 2135.28 1782.71 2176.03 1830.43 2178.16Z" fill="white"/>
<path d="M2333.71 1898.6L2329.59 1991.71L2324.19 2113.13C2322.07 2160.89 2281.25 2198.22 2233.54 2196.09L1830.42 2178.19C1782.71 2176.05 1745.34 2135.3 1747.46 2087.53L1749.46 2042.91L1751.24 2003.13L1757.03 1873C1759.15 1825.23 1799.92 1787.91 1847.68 1790.03L2250.75 1807.95C2256.72 1808.22 2262.51 1809.04 2268.04 1810.45C2307.18 1820.31 2335.56 1856.8 2333.71 1898.6Z" fill="white"/>
<path d="M2329.59 1991.71L2324.19 2113.12C2322.07 2160.89 2281.25 2198.22 2233.54 2196.09L1830.42 2178.19C1782.71 2176.05 1745.34 2135.3 1747.46 2087.53L1749.46 2042.91L1751.24 2003.13C1763.77 2041.36 1788.97 2089.35 1838.03 2102.86C1956.76 2135.53 2018.81 2083.03 2049.27 1979.95C2049.27 1979.95 2162.91 1949.25 2181.82 1978.19C2200.8 2007.17 2189.92 2059.44 2215.04 2054.88C2240.11 2050.34 2239.55 1966.46 2239.55 1966.46L2329.59 1991.71Z" fill="#E8E8E8"/>
<path d="M2250.29 2214.24C2248.92 2214.24 2247.56 2214.21 2246.18 2214.15L1816.21 2195.04C1792.03 2193.96 1769.67 2183.48 1753.24 2165.52C1736.8 2147.57 1728.35 2124.36 1729.43 2100.18L1740.15 1858.74C1742.39 1808.66 1784.72 1769.72 1835.02 1771.96L2264.99 1791.07C2289.17 1792.14 2311.53 1802.63 2327.96 1820.59C2344.39 1838.54 2352.85 1861.75 2351.78 1885.93L2341.04 2127.37C2339.97 2151.54 2329.49 2173.91 2311.53 2190.34C2294.59 2205.84 2272.98 2214.24 2250.29 2214.24ZM1830.95 1806.83C1801.23 1806.83 1776.42 1830.32 1775.09 1860.3L1764.36 2101.73C1763.69 2116.58 1768.91 2130.85 1779.04 2141.92C1789.16 2152.99 1802.92 2159.45 1817.77 2160.11L2247.74 2179.22C2262.63 2179.91 2276.86 2174.67 2287.93 2164.54C2298.99 2154.42 2305.45 2140.66 2306.11 2125.81L2316.84 1884.38C2317.5 1869.53 2312.29 1855.26 2302.17 1844.19C2292.04 1833.12 2278.28 1826.66 2263.44 1826L1833.46 1806.89C1832.63 1806.85 1831.79 1806.83 1830.95 1806.83Z" fill="#371A45"/>
<path d="M2333.71 1898.6L2332.49 1926.67L2329.82 1986.37L2328.39 2017.83L2324.14 2113.14C2323.6 2125.85 2320.26 2137.89 2314.79 2148.58C2299.77 2178.04 2268.52 2197.58 2233.54 2196.09L2130.46 2190C2178.16 2192.08 2218.98 2154.75 2221.11 2107.03L2224.52 2030.29L2225.52 2008.34L2230.62 1892.46C2232.5 1850.2 2203.48 1813.45 2163.66 1804.08L2250.75 1807.95C2298.46 1810.08 2335.83 1850.83 2333.71 1898.6Z" fill="white"/>
<path d="M2332.49 1926.67L2329.82 1986.37L2328.39 2017.83L2324.14 2113.14C2323.6 2125.85 2320.26 2137.89 2314.79 2148.58C2299.77 2178.04 2268.52 2197.58 2233.54 2196.09L2130.46 2190C2178.16 2192.08 2218.98 2154.75 2221.11 2107.03L2224.52 2030.29C2231.37 2035.19 2239.78 2037.89 2245.79 2028.83C2257.7 2010.89 2265.6 1931.15 2293.83 1921.77C2303.22 1918.64 2317.56 1921.47 2332.49 1926.67Z" fill="#D8D8D8"/>
<path d="M2237.5 2213.66C2235.93 2213.66 2234.34 2213.62 2232.76 2213.55L1869.16 2195.8L1869.18 2195.41C1859.93 2193.99 1851.94 2190.08 1852.46 2177.61L1853.18 2160.2L1871.62 2160.92C1884.25 2161.5 2045.33 2168.67 2131.24 2172.49C2149.68 2173.38 2167.34 2166.86 2181.07 2154.3C2194.8 2141.73 2202.81 2124.67 2203.61 2106.25L2213.15 1891.69C2214.62 1858.43 2192.14 1828.74 2159.68 1821.09L2164.46 1786.6L2251.52 1790.46C2309.06 1793.05 2353.74 1841.91 2351.16 1899.38L2341.62 2113.92C2340.41 2141.67 2328.38 2167.34 2307.75 2186.22C2288.31 2204.01 2263.52 2213.66 2237.5 2213.66ZM2207.6 2177.31L2234.4 2178.62C2252.73 2179.44 2270.42 2172.98 2284.15 2160.42C2297.88 2147.86 2305.89 2130.79 2306.69 2112.38V2112.36L2316.23 1897.82C2317.95 1859.6 2288.22 1827.11 2249.96 1825.39L2225.96 1824.33C2240.9 1843.4 2249.22 1867.62 2248.08 1893.25L2238.54 2107.79C2237.39 2134.19 2226.43 2158.74 2207.6 2177.31Z" fill="#371A45"/>
<path d="M2066.83 1994.42C2066.53 2002.35 2075.21 2066.84 2075.21 2066.84C2075.21 2066.84 2095.5 2067.62 2120.41 2068.59C2151.54 2069.79 2178.02 2038.54 2179.56 1998.78C2181.1 1959.02 2157.11 1925.81 2125.98 1924.61C2104.98 1923.79 2080.78 1922.86 2080.78 1922.86C2080.78 1922.86 2067.33 1981.49 2066.83 1994.42Z" fill="#22A7F0"/>
<path d="M2066.83 1994.42C2066.53 2002.35 2075.21 2066.84 2075.21 2066.84C2075.21 2066.84 2095.5 2067.62 2120.41 2068.59C2151.54 2069.79 2178.02 2038.54 2179.56 1998.78C2181.1 1959.02 2157.11 1925.81 2125.98 1924.61C2104.98 1923.79 2080.78 1922.86 2080.78 1922.86C2080.78 1922.86 2067.33 1981.49 2066.83 1994.42Z" fill="#1675DB"/>
<path d="M2122.13 2081.73C2121.39 2081.73 2120.65 2081.72 2119.91 2081.69L2080.18 2080.15C2070.6 2079.78 2062.74 2072.63 2061.49 2063.14C2053.42 2002.11 2053.66 1995.93 2053.73 1993.91C2054.16 1982.77 2062.1 1946.11 2066.79 1925.25C2068.86 1916.03 2077.24 1909.54 2086.69 1909.96L2126.49 1911.5C2145.66 1912.25 2163.12 1922.21 2175.65 1939.56C2187.48 1955.93 2193.52 1977.14 2192.66 1999.29C2190.89 2045.29 2159.47 2081.73 2122.13 2081.73ZM2086.76 2054.16L2120.92 2055.48C2144.75 2056.5 2165.21 2030.74 2166.46 1998.27C2167.09 1981.96 2162.81 1966.56 2154.39 1954.91C2146.69 1944.24 2136.42 1938.13 2125.48 1937.71L2091.18 1936.38C2084.55 1966.19 2080.19 1988.85 2079.94 1994.88C2079.91 1998.31 2082.01 2017.9 2086.76 2054.16Z" fill="#371A45"/>
<path d="M2134.58 1997.01C2136.12 1957.25 2112.13 1924.04 2081 1922.84C2049.87 1921.63 2023.39 1952.89 2021.85 1992.65C2020.31 2032.41 2044.29 2065.62 2075.43 2066.82C2106.56 2068.03 2133.04 2036.77 2134.58 1997.01Z" fill="#22A7F0"/>
<path d="M2134.35 1997.04C2132.83 2036.78 2106.34 2068.05 2075.22 2066.85C2044.05 2065.65 2020.07 2032.43 2021.64 1992.65C2021.83 1987.28 2022.51 1982.04 2023.61 1977.02C2030.56 2004.64 2050.43 2024.9 2074.6 2025.8C2101.49 2026.84 2124.94 2003.67 2131.76 1971.66C2133.77 1979.6 2134.67 1988.16 2134.35 1997.04Z" fill="#1675DB"/>
<path d="M2134.35 1997.04C2134.26 1999.75 2134.03 2002.41 2133.66 2005.03C2128.68 1973.64 2107.45 1949.75 2081.16 1948.75C2052.16 1947.65 2027.14 1974.72 2022.72 2010.62C2021.77 2004.82 2021.41 1998.83 2021.64 1992.65C2023.16 1952.91 2049.65 1921.64 2080.77 1922.84C2111.89 1924.08 2135.87 1957.26 2134.35 1997.04Z" fill="white"/>
<path d="M2076.99 2079.98C2076.22 2079.98 2075.46 2079.97 2074.7 2079.94C2055.53 2079.2 2038.06 2069.24 2025.54 2051.89C2013.71 2035.51 2007.66 2014.3 2008.52 1992.16C2010.3 1946.15 2041.72 1909.71 2079.06 1909.71C2079.8 1909.71 2080.54 1909.73 2081.28 1909.75C2100.45 1910.5 2117.91 1920.46 2130.44 1937.81C2142.27 1954.18 2148.31 1975.39 2147.45 1997.54C2146.6 2019.68 2138.94 2040.36 2125.88 2055.77C2112.6 2071.45 2095.32 2079.98 2076.99 2079.98ZM2079.02 1935.94C2055.71 1935.94 2035.96 1961.27 2034.72 1993.17C2034.09 2009.49 2038.38 2024.89 2046.79 2036.53C2054.5 2047.2 2064.77 2053.31 2075.71 2053.73C2086.59 2054.17 2097.37 2048.86 2105.87 2038.82C2115.16 2027.86 2120.62 2012.84 2121.25 1996.52C2121.88 1980.21 2117.6 1964.81 2109.18 1953.16C2101.48 1942.49 2091.21 1936.38 2080.27 1935.96C2079.85 1935.94 2079.44 1935.94 2079.02 1935.94Z" fill="#371A45"/>
<path d="M1955.81 2195.29C1955.72 2195.29 1955.63 2195.29 1955.54 2195.29C1948.29 2195.14 1942.55 2189.15 1942.7 2181.91L1945.22 2060.38C1945.49 2047.63 1939.38 2035.67 1928.89 2028.41L1907.42 2013.54C1889.25 2000.96 1878.94 1980.25 1879.85 1958.16L1886.66 1791.94C1886.95 1784.7 1892.93 1779.05 1900.3 1779.38C1907.53 1779.67 1913.16 1785.78 1912.86 1793.02L1906.05 1959.24C1905.51 1972.3 1911.61 1984.54 1922.36 1991.98L1943.82 2006.85C1961.57 2019.14 1971.89 2039.35 1971.44 2060.93L1968.92 2182.45C1968.77 2189.6 1962.93 2195.29 1955.81 2195.29Z" fill="#371A45"/>
<path d="M2632.56 1938.44C2632.56 1938.44 2533.16 1952.07 2333.17 1946.52C2333.17 1946.52 2272.15 1948.42 2266.81 2009.04C2261.14 2073.4 2326.2 2095.08 2326.2 2095.08C2326.2 2095.08 2497.12 2127.15 2623.75 2074.09C2700.68 2041.85 2632.56 1938.44 2632.56 1938.44Z" fill="white"/>
<path d="M2623.73 2074.07C2497.14 2127.15 2326.22 2095.1 2326.22 2095.1C2326.22 2095.1 2263.98 2074.34 2266.56 2013.28C2266.6 2011.88 2266.69 2010.48 2266.83 2009.04C2272.15 1948.42 2333.17 1946.53 2333.17 1946.53C2388.32 1948.06 2435.85 1948.15 2475.74 1947.43C2580.45 1945.58 2632.58 1938.45 2632.58 1938.45C2632.58 1938.45 2700.68 2041.85 2623.73 2074.07Z" fill="white"/>
<path d="M2623.73 2074.07C2497.14 2127.15 2326.22 2095.1 2326.22 2095.1C2326.22 2095.1 2263.98 2074.34 2266.56 2013.28C2297.38 2032.19 2350.64 2055.75 2411.07 2043.29C2462.34 2032.73 2475.61 1989.31 2475.74 1947.43C2580.45 1945.58 2632.58 1938.45 2632.58 1938.45C2632.58 1938.45 2700.68 2041.85 2623.73 2074.07Z" fill="#E8E8E8"/>
<path d="M2444.36 2122.3C2377.83 2122.3 2326.84 2112.99 2322.98 2112.27C2322.2 2112.12 2321.43 2111.92 2320.68 2111.67C2293.64 2102.66 2243.95 2069.3 2249.39 2007.51C2254.7 1947.33 2306.16 1929.87 2332.62 1929.05C2332.97 1929.03 2333.31 1929.03 2333.65 1929.04C2529.51 1934.47 2629.22 1921.25 2630.2 1921.12C2636.83 1920.21 2643.46 1923.2 2647.17 1928.82C2651.53 1935.45 2689.36 1994.97 2674.41 2044.06C2668.06 2064.88 2652.88 2080.83 2630.51 2090.21C2570.39 2115.4 2501.62 2122.29 2444.36 2122.3ZM2330.67 2078.12C2346.24 2080.81 2502.35 2106 2616.99 2057.96C2629.82 2052.59 2637.65 2044.71 2640.96 2033.86C2648.24 2009.98 2633.78 1975.91 2623.39 1957.12C2591.82 1960.48 2496.11 1968.52 2333.33 1964.01C2327.22 1964.36 2287.96 1968.28 2284.23 2010.58C2280.12 2057.21 2323.1 2075.31 2330.67 2078.12Z" fill="#371A45"/>
<path d="M1828.53 2797.82C1828.53 2797.82 1923.88 2816.95 2004.02 2811.08L1828.53 2797.82Z" fill="white"/>
<path d="M1831.11 2784.97C1887.39 2796.67 1945.88 2804.48 2003.38 2802.37C2014.66 2802 2015.94 2818.49 2004.66 2819.8C1959.74 2823.86 1915.05 2821.53 1870.46 2816.75C1855.6 2815.09 1841 2813.19 1825.96 2810.68C1818.81 2809.48 1813.99 2802.72 1815.18 2795.58C1816.39 2788.13 1823.78 2783.22 1831.11 2784.97Z" fill="#371A45"/>
<path d="M2363.84 1309.94C2363.84 1309.94 2582.54 1281.6 2727.38 1566.54C2755.44 1621.75 2807.53 1760.79 2812.69 1920.6C2818.85 2111.39 2786.96 2316.95 2699.21 2398.87C2654.82 2440.31 2610.83 2429.76 2575.81 2436.3C2433.46 2493.38 2450.72 2347.92 2449.7 2323.68C2426.07 2319.4 2393.11 2309.12 2397.11 2267.34C2401.52 2221.21 2466.37 2172.64 2466.37 2172.64C2466.37 2172.64 2538.05 1968.99 2461.57 1715.86" fill="white"/>
<path d="M2398.59 2258.76C2397.86 2261.63 2397.37 2264.48 2397.09 2267.36C2393.1 2309.1 2426.05 2319.41 2449.71 2323.7C2450.73 2347.92 2433.47 2493.39 2575.79 2436.31C2610.82 2429.74 2654.8 2440.32 2699.22 2398.87C2721.16 2378.38 2739.61 2350.18 2754.82 2316.41C2754.88 2316.21 2754.98 2316.06 2755.03 2315.95C2755.14 2315.76 2755.24 2315.57 2755.3 2315.33C2755.35 2315.26 2755.4 2315.18 2755.41 2315.1C2800.7 2213.79 2817.3 2063.08 2812.7 1920.59C2807.51 1760.8 2755.44 1621.74 2727.4 1566.52C2582.56 1281.6 2363.83 1309.92 2363.83 1309.92L2461.59 1715.87C2538.07 1969 2466.39 2172.64 2466.39 2172.64C2466.39 2172.64 2409.35 2215.36 2398.59 2258.76Z" fill="white"/>
<path d="M2755.43 2315.1C2755.39 2315.18 2755.35 2315.26 2755.31 2315.34C2755.23 2315.58 2755.15 2315.74 2755.03 2315.94C2754.99 2316.06 2754.86 2316.23 2754.82 2316.43C2739.62 2350.17 2721.16 2378.37 2699.22 2398.88C2654.8 2440.32 2610.83 2429.73 2575.8 2436.31C2433.49 2493.4 2450.74 2347.92 2449.7 2323.69C2426.07 2319.4 2393.09 2309.08 2397.1 2267.36C2397.38 2264.47 2397.86 2261.62 2398.58 2258.77C2409.34 2215.36 2466.39 2172.63 2466.39 2172.63C2466.39 2172.63 2538.09 1969.01 2461.57 1715.88L2458.85 1704.53L2363.84 1309.93C2363.84 1309.93 2499.09 1292.44 2627.24 1423.43C2662.1 1459.02 2696.45 1505.6 2727.38 1566.51C2755.43 1621.76 2807.5 1760.78 2812.68 1920.58C2817.29 2063.09 2800.68 2213.79 2755.43 2315.1Z" fill="white"/>
<path d="M2604.41 1401.69C2562.8 1437.94 2500.43 1478.55 2411.11 1506.27L2363.81 1309.94C2363.81 1309.94 2483.51 1294.46 2604.41 1401.69Z" fill="#E8E8E8"/>
<path d="M2397.09 2267.36C2393.1 2309.1 2426.05 2319.41 2449.71 2323.7C2450.73 2347.92 2433.47 2493.39 2575.79 2436.31C2610.82 2429.74 2654.8 2440.32 2699.22 2398.87C2721.16 2378.38 2739.61 2350.18 2754.82 2316.41C2750.12 2326.21 2716.51 2389.16 2628.94 2387.65C2515.37 2385.75 2495.42 2404.78 2482.67 2368.57C2469.93 2332.36 2503.07 2289.56 2466.84 2262.52C2448.75 2283.29 2421.01 2288.59 2398.59 2258.76C2397.86 2261.63 2397.37 2264.48 2397.09 2267.36Z" fill="#E8E8E8"/>
<path d="M2361.6 1292.6C2501.32 1283.19 2628.19 1375.78 2701.64 1488C2718.54 1513.62 2735.4 1542.55 2748.6 1570.15C2810.18 1705.57 2835.89 1855.75 2830.38 2004.02C2826.45 2132.69 2802 2373.25 2673.35 2437.21C2644.16 2451.5 2607.98 2449.31 2579.02 2453.49L2582.32 2452.53C2554.26 2463.6 2519.95 2472.87 2488.75 2462.04C2438.52 2443.98 2430.73 2383.39 2432.1 2337.31C2432.17 2332.71 2432.32 2327.6 2432.24 2324.41L2446.59 2340.88C2395.26 2333.26 2366.81 2296.89 2384.51 2245.36C2398.79 2209.22 2426.3 2182.52 2455.89 2158.65L2449.88 2166.84C2460.11 2131.13 2466.86 2094.05 2471.6 2057.14C2486.2 1944.21 2477.29 1829.45 2453.21 1718.39C2450.86 1707.83 2465.97 1702.99 2469.94 1713.33C2483.18 1749.52 2494.95 1788.45 2501.77 1826.45C2523.26 1941.15 2519.65 2067.18 2482.86 2178.45C2481.68 2181.85 2479.53 2184.67 2476.82 2186.66C2470.93 2191.21 2464.44 2196.76 2458.61 2202.25C2442.28 2217.58 2424.77 2237.4 2417.39 2257.26C2413.57 2267.49 2412.54 2281.95 2418.92 2290.7C2424.12 2298.56 2437.45 2303.84 2452.82 2306.48C2461.07 2307.82 2466.98 2314.9 2467.17 2322.95C2467.32 2329.04 2467.11 2333.2 2467.06 2337.86C2466.85 2350.87 2467.12 2364.19 2468.92 2376.77C2476.74 2440.19 2519.1 2440.18 2569.45 2420.02C2601.3 2413.2 2630.85 2418.52 2658.92 2405.36C2769.67 2347.97 2792.29 2117.06 2795.43 2003.08C2800.05 1882.47 2783.05 1761.16 2742.3 1647.41C2703.38 1537.37 2633.12 1429.45 2530.92 1369.99C2487.1 1344.56 2437.13 1328.4 2386.36 1326.74C2379.51 1326.42 2372.16 1326.73 2365.51 1327.35C2342.66 1329.39 2338.53 1295.91 2361.6 1292.6Z" fill="#371A45"/>
<path d="M2454.66 2256.16C2454.66 2256.16 2482.71 2281.85 2456.69 2347.25L2454.66 2256.16Z" fill="white"/>
<path d="M2459.09 2251.33C2483.17 2267.77 2484.61 2302.42 2475.6 2327.39C2472.23 2334.53 2463.36 2358.5 2453.02 2350.42C2451.32 2348.96 2450.56 2346.92 2450.6 2344.83C2451.52 2316.73 2459.65 2288.21 2450.23 2261L2449.92 2256.81C2449.41 2252.03 2455.17 2248.65 2459.09 2251.33Z" fill="#371A45"/>
<path d="M2496.4 1941.7C2490.96 1941.7 2485.88 1938.29 2484.01 1932.86C2481.65 1926.02 2485.28 1918.55 2492.13 1916.19C2700.41 1844.29 2814.38 1906.5 2819.14 1909.18C2825.44 1912.74 2827.67 1920.74 2824.1 1927.04C2820.54 1933.35 2812.54 1935.57 2806.24 1932.01C2805.21 1931.44 2696.83 1873.26 2500.68 1940.98C2499.26 1941.47 2497.82 1941.7 2496.4 1941.7Z" fill="#371A45"/>
<path d="M2192.21 1425.24C2132.84 1425.24 2072.99 1417.95 2013.96 1402.98C2000.78 1399.6 1987.5 1395.83 1974.47 1391.76C1938.19 1380.3 1902.79 1365.95 1869.24 1349.13C1840.56 1334.76 1812.81 1318.47 1786.78 1300.73C1755.68 1279.63 1725.9 1255.77 1698.26 1229.81C1688.15 1220.22 1679.35 1211.48 1671.34 1203.08C1653.9 1184.89 1637.13 1165.42 1621.51 1145.22C1547.78 1049.77 1499.72 936.438 1482.54 817.47C1451.56 602.861 1520.3 390.156 1671.17 233.891C1758.38 143.493 1868.52 77.7091 1989.66 43.6521C2012.58 37.1381 2036.63 31.6481 2061.15 27.3311C2076.88 24.5721 2093.13 22.2991 2109.43 20.5731C2160.2 15.1701 2211.72 15.1581 2262.53 20.5361C2313.83 25.9141 2364.54 36.7791 2413.27 52.8261C2434.47 59.8211 2455.66 67.9381 2476.26 76.9591C2484.51 80.5061 2492.05 83.9611 2499.3 87.5111C2565.44 119.147 2626.5 161.002 2680.76 211.906C2819.75 342.507 2898.84 518.444 2903.45 707.311C2908.02 894.679 2838.56 1072.43 2707.86 1207.83C2572.2 1348.42 2384.85 1425.23 2192.21 1425.24ZM2186.14 20.0321C2160.63 20.0321 2135.13 21.3801 2109.8 24.0751C2093.58 25.7911 2077.41 28.0521 2061.76 30.7991C2037.36 35.0931 2013.43 40.5571 1990.62 47.0391C1870.07 80.9281 1760.48 146.387 1673.69 236.336C1523.6 391.812 1455.19 603.445 1486.03 816.968C1503.12 935.337 1550.93 1048.1 1624.29 1143.07C1639.84 1163.17 1656.52 1182.54 1673.88 1200.65C1681.86 1209 1690.62 1217.71 1700.67 1227.25C1728.17 1253.08 1757.81 1276.82 1788.76 1297.82C1814.66 1315.48 1842.27 1331.68 1870.81 1345.98C1904.2 1362.72 1939.43 1377 1975.52 1388.4C1988.49 1392.45 2001.72 1396.21 2014.83 1399.57C2073.55 1414.46 2133.15 1421.72 2192.22 1421.72C2383.93 1421.73 2570.33 1345.29 2705.33 1205.39C2835.36 1070.67 2904.48 893.816 2899.93 707.398C2895.34 519.48 2816.65 344.422 2678.35 214.473C2624.36 163.816 2563.6 122.166 2497.76 90.6791C2490.55 87.1491 2483.06 83.7181 2474.86 80.1881C2454.35 71.2091 2433.26 63.1281 2412.16 56.1701C2363.68 40.2011 2313.21 29.3901 2262.16 24.0391C2236.94 21.3671 2211.54 20.0321 2186.14 20.0321Z" fill="#371A45"/>
<path d="M2706.59 1206.59C2522.92 1396.99 2256.15 1462.61 2014.38 1401.25C2001.18 1397.89 1988.05 1394.16 1975 1390.07C1939.19 1378.77 1904.08 1364.61 1870.04 1347.56C1841.85 1333.42 1814.3 1317.36 1787.79 1299.29C1756.93 1278.38 1727.42 1254.81 1699.44 1228.54C1690.25 1219.75 1681.24 1210.91 1672.6 1201.88C1654.83 1183.34 1638.33 1164.04 1622.91 1144.14C1547.41 1046.41 1501.06 933.589 1484.28 817.198C1475.04 753.279 1474.7 688.295 1483.34 624.284C1501.93 734.98 1547.43 841.94 1619.45 935.178C1634.82 955.133 1651.37 974.383 1669.14 992.926C1677.74 1001.96 1686.75 1010.8 1695.99 1019.58C1723.97 1045.85 1753.47 1069.42 1784.28 1090.33C1810.84 1108.4 1838.35 1124.46 1866.53 1138.61C1900.58 1155.65 1935.74 1169.81 1971.5 1181.12C1984.59 1185.2 1997.72 1188.93 2010.92 1192.29C2252.69 1253.65 2519.41 1188.03 2703.13 997.631C2810.34 886.59 2873.11 749.746 2892.16 608.339C2927.56 818.33 2866.35 1041.11 2706.59 1206.59Z" fill="#E8E8E8"/>
<path d="M2192.2 1437.03C2131.87 1437.03 2071.04 1429.62 2011.06 1414.41C1997.66 1410.98 1984.18 1407.15 1970.95 1403.01C1934.05 1391.35 1898.06 1376.77 1863.95 1359.67C1834.8 1345.07 1806.6 1328.51 1780.14 1310.47C1748.55 1289.04 1718.28 1264.79 1690.18 1238.41C1679.89 1228.64 1670.95 1219.76 1662.81 1211.22C1645.1 1192.75 1628.06 1172.96 1612.18 1152.44C1537.21 1055.38 1488.34 940.125 1470.87 819.156C1439.36 600.914 1509.27 384.608 1662.68 225.704C1751.35 133.802 1863.32 66.9251 1986.47 32.3011C2009.74 25.6871 2034.19 20.1061 2059.11 15.7191C2075.11 12.9141 2091.63 10.6021 2108.19 8.84907C2159.79 3.35807 2212.14 3.34608 2263.77 8.81208C2315.89 14.2761 2367.44 25.3181 2416.95 41.6291C2438.52 48.7381 2460.06 56.99 2480.99 66.16C2489.35 69.754 2497.06 73.2871 2504.48 76.9221C2571.63 109.034 2633.69 151.573 2688.83 203.309C2830.15 336.092 2910.55 514.979 2915.24 707.025C2919.89 897.572 2849.25 1078.34 2716.34 1216.02C2578.44 1358.94 2388.01 1437.03 2192.2 1437.03ZM2186.14 31.824C2161.04 31.824 2135.96 33.1501 2111.05 35.8011C2095.08 37.4911 2079.19 39.7151 2063.79 42.4121C2039.8 46.6381 2016.26 52.0121 1993.85 58.3811C1875.28 91.7131 1767.52 156.079 1682.18 244.524C1534.63 397.361 1467.39 605.393 1497.7 815.283C1514.5 931.643 1561.5 1042.5 1633.63 1135.86C1648.91 1155.63 1665.32 1174.68 1682.4 1192.48C1690.26 1200.73 1698.88 1209.29 1708.79 1218.7C1735.79 1244.06 1764.94 1267.41 1795.38 1288.06C1820.87 1305.44 1848.02 1321.38 1876.1 1335.44C1908.93 1351.9 1943.58 1365.94 1979.07 1377.16C1991.81 1381.14 2004.84 1384.84 2017.75 1388.14C2075.51 1402.79 2134.14 1409.93 2192.23 1409.93C2380.78 1409.94 2564.08 1334.78 2696.84 1197.2C2824.67 1064.77 2892.61 890.926 2888.14 707.686C2883.63 522.947 2806.26 350.838 2670.28 223.067C2617.18 173.248 2557.42 132.281 2492.68 101.319C2485.54 97.825 2478.23 94.4761 2470.2 91.0211C2449.96 82.1591 2429.22 74.212 2408.47 67.371C2360.78 51.663 2311.15 41.0311 2260.93 35.7671C2236.11 33.1371 2211.12 31.824 2186.14 31.824Z" fill="#371A45"/>
<path d="M2192.2 1440.96C2131.54 1440.96 2070.39 1433.51 2010.1 1418.22C1996.62 1414.77 1983.07 1410.92 1969.77 1406.77C1932.66 1395.04 1896.49 1380.38 1862.19 1363.18C1832.88 1348.5 1804.53 1331.86 1777.92 1313.72C1746.17 1292.18 1715.73 1267.8 1687.49 1241.28C1677.14 1231.44 1668.15 1222.52 1659.96 1213.93C1642.17 1195.37 1625.03 1175.48 1609.07 1154.84C1533.68 1057.25 1484.55 941.363 1466.98 819.718C1435.29 600.265 1505.59 382.76 1659.85 222.972C1749 130.572 1861.58 63.3291 1985.41 28.5161C2008.79 21.8701 2033.38 16.2581 2058.42 11.8481C2074.52 9.02308 2091.12 6.70208 2107.78 4.93908C2159.66 -0.58392 2212.27 -0.592907 2264.18 4.90209C2316.58 10.3951 2368.4 21.4961 2418.18 37.8951C2439.86 45.0431 2461.52 53.3391 2482.57 62.5581C2490.96 66.1691 2498.73 69.7261 2506.21 73.3931C2573.68 105.661 2636.08 148.43 2691.52 200.441C2833.61 333.952 2914.46 513.822 2919.16 706.928C2923.84 898.534 2852.81 1080.3 2719.17 1218.75C2580.52 1362.44 2389.06 1440.95 2192.2 1440.96ZM2186.14 35.7541C2161.18 35.7541 2136.24 37.0721 2111.47 39.7091C2095.58 41.3891 2079.78 43.6011 2064.47 46.2841C2040.61 50.4861 2017.2 55.8281 1994.92 62.1631C1877.01 95.3101 1769.86 159.309 1685.01 247.253C1538.31 399.211 1471.45 606.042 1501.59 814.721C1518.29 930.412 1565.03 1040.63 1636.74 1133.46C1651.94 1153.11 1668.25 1172.06 1685.23 1189.76C1693.05 1197.96 1701.63 1206.49 1711.5 1215.85C1738.33 1241.05 1767.32 1264.27 1797.59 1284.8C1822.94 1302.09 1849.94 1317.94 1877.85 1331.92C1910.51 1348.3 1944.96 1362.25 1980.26 1373.41C1992.92 1377.36 2005.88 1381.05 2018.73 1384.33C2262.56 1446.17 2521.32 1373.43 2694.01 1194.47C2821.11 1062.8 2888.65 889.96 2884.21 707.78C2879.73 524.101 2802.8 352.975 2667.58 225.932C2614.78 176.388 2555.35 135.651 2490.97 104.863C2483.87 101.382 2476.61 98.0591 2468.65 94.6311C2448.49 85.8081 2427.87 77.9051 2407.24 71.1031C2359.82 55.4831 2310.46 44.9091 2260.52 39.6751C2235.83 37.0601 2210.98 35.7541 2186.14 35.7541Z" fill="#371A45"/>
<path d="M2710.91 372.305C2507.94 -82.0181 1903.32 -76.887 1613.29 337.187L1608 351.807C2010.14 116.729 2534.77 211.71 2748.69 667.261C2763.89 569.2 2753.51 467.699 2710.91 372.305Z" fill="white"/>
<path d="M2106.91 1386.68C1997.36 1386.68 1885.57 1361.88 1781.39 1312.84L1779.35 1311.69C1747.67 1290.2 1717.34 1265.9 1689.19 1239.46C1678.88 1229.67 1669.92 1220.77 1661.76 1212.21C1644.02 1193.71 1626.94 1173.89 1611.04 1153.32C1535.91 1056.07 1486.95 940.578 1469.44 819.362C1437.86 600.673 1507.91 383.925 1661.64 224.697C1750.49 132.61 1862.67 65.598 1986.08 30.905L1987.56 30.488L1989.1 30.383C2082.46 23.889 2182.08 39.709 2285.24 77.38C2470.85 145.156 2629.37 298.371 2709.27 487.231C2781.17 657.189 2782.48 836.494 2712.94 992.109C2637.2 1161.59 2509.77 1283.6 2344.42 1344.96C2269.25 1372.85 2188.7 1386.68 2106.91 1386.68ZM1795.22 1286.2C1969.7 1368 2166 1379.17 2333.98 1316.83C2491.6 1258.34 2613.17 1141.82 2685.55 979.869C2751.65 831.937 2750.27 661.131 2681.64 498.922C2604.92 317.584 2452.89 170.533 2274.95 105.56C2176.34 69.552 2081.4 54.315 1992.71 60.206C1875.02 93.58 1768.02 157.64 1683.23 245.531C1535.99 398.043 1468.89 605.634 1499.13 815.077C1515.9 931.19 1562.8 1041.81 1634.77 1134.98C1650.03 1154.7 1666.4 1173.71 1683.44 1191.48C1691.29 1199.71 1699.9 1208.26 1709.79 1217.65C1736.44 1242.68 1765.2 1265.76 1795.22 1286.2Z" fill="#371A45"/>
<path d="M2102.46 1314.24C1877.86 1314.24 1659.25 1197.38 1520.72 999.577L1519.58 997.951L1492.16 921.952C1491.91 920.758 1467.14 801.146 1463.21 679.227C1459.19 554.786 1535.16 403.89 1538.4 397.528L1539.6 395.546C1734.36 125.815 1977.71 41.8401 2262.86 145.968C2428.42 206.417 2569.8 343.06 2641.06 511.488C2705.22 663.119 2706.38 823.109 2644.33 961.989C2554.35 1163.38 2379.2 1290.7 2163.8 1311.31C2143.34 1313.27 2122.88 1314.24 2102.46 1314.24ZM1546.42 983.982C1691.47 1189.91 1926.83 1303.87 2160.94 1281.45C2365.29 1261.9 2531.49 1141 2616.94 949.754C2675.56 818.555 2674.31 667.061 2613.44 523.179C2545.36 362.276 2410.45 231.797 2252.57 174.148C1981.91 75.3151 1750.45 155.386 1564.64 412.126C1558.07 425.395 1489.59 566.618 1493.19 678.261C1496.85 791.674 1518.92 903.019 1521.31 914.794L1546.42 983.982Z" fill="#371A45"/>
<path d="M2967.57 855.272C2947.17 992.336 2847.95 1095.33 2745.93 1085.3C2643.91 1075.26 2577.76 955.998 2598.16 818.934C2598.27 818.073 2598.43 817.165 2598.59 816.305C2619.83 680.551 2718.5 578.934 2819.8 588.911C2898.61 596.661 2956.01 669.6 2968.66 765.556C2972.37 793.809 2972.2 824.102 2967.57 855.272Z" fill="white"/>
<path d="M2967.57 855.272C2947.17 992.336 2847.95 1095.33 2745.93 1085.3C2643.91 1075.26 2577.76 955.998 2598.16 818.934C2598.27 818.073 2598.43 817.165 2598.59 816.305C2607.71 831.473 2623.11 847.043 2647.45 844.702C2690.09 840.582 2777.55 759.759 2777.55 759.759C2777.55 759.759 2860.44 761.734 2968.66 765.556C2972.37 793.809 2972.2 824.102 2967.57 855.272Z" fill="#E8E8E8"/>
<path d="M2759.5 1103.43C2754.41 1103.43 2749.33 1103.18 2744.22 1102.68C2699.5 1098.28 2659.87 1075.47 2629.64 1036.71C2586.11 980.905 2568.33 900.585 2580.87 816.344C2602.6 670.419 2710.57 560.58 2821.53 571.515C2866.26 575.917 2905.88 598.729 2936.12 637.487C2979.64 693.288 2997.42 773.615 2984.88 857.848C2964.16 997.056 2864.94 1103.43 2759.5 1103.43ZM2805.92 605.715C2717.55 605.715 2633.64 699.316 2615.45 821.491C2604.49 895.207 2620.09 967.621 2657.21 1015.2C2681.4 1046.23 2712.68 1064.44 2747.65 1067.89C2751.71 1068.28 2755.78 1068.48 2759.83 1068.48C2848.21 1068.49 2932.11 974.88 2950.3 852.702C2961.27 778.986 2945.66 706.572 2908.55 658.991C2884.35 627.968 2853.07 609.753 2818.1 606.31C2814.04 605.913 2809.97 605.715 2805.92 605.715Z" fill="#371A45"/>
<path d="M2979.47 878.061C3002.55 767.265 2960.03 664.695 2884.5 648.966C2808.98 633.236 2729.05 710.302 2705.97 821.098C2682.9 931.894 2725.41 1034.46 2800.94 1050.19C2876.46 1065.92 2956.39 988.857 2979.47 878.061Z" fill="white"/>
<path d="M2811.89 1051.91C2889.03 1058.9 2965.35 974.03 2982.43 862.312C2984.31 850.189 2985.35 838.233 2985.72 826.579C2953.85 900.522 2894.42 949.608 2834.47 944.119C2766.76 937.913 2720.61 864.063 2721.05 771.378C2712.91 791.712 2706.78 813.8 2703.21 837.029C2686.13 948.747 2734.8 1044.93 2811.89 1051.91Z" fill="#E8E8E8"/>
<path d="M2820.57 1069.79C2817.16 1069.79 2813.75 1069.64 2810.34 1069.33C2777.11 1066.32 2747.5 1049.36 2724.73 1020.28C2689.52 975.322 2675.02 905.84 2685.95 834.409C2704.36 713.94 2789.25 622.326 2875.33 630.049C2908.56 633.057 2938.16 650.02 2960.94 679.102C2996.14 724.056 3010.64 793.54 2999.72 864.971C2982.03 980.654 2902.98 1069.79 2820.57 1069.79ZM2864.67 664.533C2799.28 664.533 2735.61 740.917 2720.51 839.692C2711.02 901.767 2722.88 961.215 2752.25 998.715C2768.93 1020.01 2790.11 1032.39 2813.49 1034.51C2881.42 1040.67 2949.48 962.238 2965.16 859.687C2974.65 797.612 2962.78 738.164 2933.41 700.661C2916.73 679.365 2895.55 666.989 2872.18 664.872C2869.68 664.646 2867.17 664.533 2864.67 664.533Z" fill="#371A45"/>
<path d="M814.913 1775.34C970.921 1888.53 1222.12 2102.01 1222.12 2102.01C1222.12 2102.01 1348.44 2185.02 1382.81 2152.49C1420.9 2116.44 1365.65 2057.23 1370.49 2049.12C1375.33 2041.02 1438.91 2067.58 1455.84 2019.55C1471.48 1975.18 1396.54 1919.06 1340.68 1876.59C1340.68 1876.59 1051.88 1644.2 978.13 1590.12" fill="#63FF48"/>
<path d="M814.918 1775.34L869.481 1713.42L897.456 1681.7L978.134 1590.12C1051.88 1644.19 1340.69 1876.6 1340.69 1876.6C1396.55 1919.07 1471.48 1975.18 1455.84 2019.56C1452.7 2028.43 1447.97 2034.76 1442.32 2039.22C1417.4 2058.93 1374.43 2042.53 1370.5 2049.12C1365.67 2057.23 1420.89 2116.43 1382.82 2152.49C1348.43 2185.03 1222.11 2102.02 1222.11 2102.02C1222.11 2102.02 1171.78 2059.24 1102.17 2001.8C1016.27 1930.96 901.061 1837.86 814.918 1775.34Z" fill="#63FF48"/>
<path d="M820.047 1768.27C898.463 1808.58 963.49 1867.77 1032.8 1920.98C1097.73 1973.6 1174.96 2037.91 1231.91 2087.12C1255.35 2102.49 1349.83 2157.95 1372.18 2138.16C1389.47 2118.52 1368.14 2088.01 1358.24 2067.97C1344.36 2043.65 1358.52 2026.69 1384.28 2030.36C1398.24 2031.7 1418.29 2033.99 1429.35 2027C1451.57 2012.08 1435.25 1985.1 1420.87 1968.79C1393.7 1937.34 1357.92 1912.32 1324.8 1886.25C1251.99 1827.63 1143.97 1741.63 1070.36 1683.46C1036.31 1656.73 1002.11 1629.77 967.792 1604.21C959.898 1598.51 958.176 1587.41 964.008 1579.6C969.774 1571.85 980.727 1570.25 988.471 1576.02C1023.78 1602.31 1057.76 1629.12 1091.99 1655.98C1165.83 1714.44 1273.7 1800.18 1346.71 1859C1388.95 1893.42 1462.9 1940.37 1474.55 1996.97C1478.79 2019.5 1467.53 2044.91 1447.59 2056.82C1425.25 2069.76 1404.1 2067.15 1381.37 2065.2C1379.01 2064.98 1376.4 2064.88 1375.98 2064.94C1377.78 2064.49 1378.9 2064.69 1382.85 2061.41C1386.12 2058.83 1388.67 2051.8 1387.38 2047.76C1387.27 2047.46 1387.55 2048.26 1387.93 2049.06L1389.36 2051.95C1397.52 2067.29 1406.16 2081.93 1410.92 2099.84C1420.27 2128.35 1407.55 2167.32 1376.23 2175.58C1327.6 2187.22 1253 2141.72 1212.34 2116.9C1145.07 2060.92 1077.35 2005.1 1009.28 1950.05C975.591 1922.65 942.061 1895.04 908.05 1868.13C873.975 1841.23 840.367 1813.97 809.752 1782.39C803.256 1775.54 810.826 1763.82 820.047 1768.27Z" fill="#371A45"/>
<path d="M1164.04 2035.78C1164.04 2035.78 1195.81 2153.59 1242.37 2150.46C1294.69 2146.94 1259.09 2065.18 1261.42 2049.67C1263.13 2044.66 1306.25 2026 1310.28 1953.98" fill="#63FF48"/>
<path d="M1180.92 2031.23C1188.76 2054.44 1215.73 2130.58 1242.3 2131.31C1264.41 2131.54 1244.35 2069.76 1243.97 2055.45C1243.76 2053.45 1243.66 2049.59 1244.3 2045.8C1245.27 2042.03 1247.71 2038.36 1249.43 2036.69C1250.42 2035.7 1251.82 2034.43 1252.58 2033.85C1265.13 2024.86 1275.91 2014.57 1283.84 2001.14C1292.53 1986.65 1297.68 1970.15 1301.58 1953.35C1303.84 1943.8 1318.02 1944.73 1319 1954.47C1323.6 1994.85 1306.96 2036.04 1274.74 2060.68C1275.83 2059.55 1276.81 2058.47 1277.97 2055.31L1278.71 2052.26C1278.9 2050.84 1278.79 2051.49 1278.92 2052.12C1284.98 2086.3 1303.8 2131.8 1271.25 2159.62C1200.35 2203.55 1160.13 2092.27 1147.16 2040.33C1142.45 2018.36 1174.01 2009.93 1180.92 2031.23Z" fill="#371A45"/>
<path d="M554.302 1464.93C618.194 1471.28 731.018 1487.8 662.653 1521.42C628.194 1538.35 596.816 1554.87 569.881 1569.62C563.638 1535.4 558.201 1500.12 554.302 1464.93Z" fill="#2BC614"/>
<path d="M612.469 1814.67C615.914 1569.62 455.704 1357.58 554.301 1150.15C611.615 1029.58 751.08 990.815 853.696 1002.22C965.46 1014.63 1080.23 1080.03 1102.16 1237.38C1133.78 1464.12 1022.56 1623.88 940.14 1705.78L886.099 1792.47L612.469 1814.67Z" fill="#63FF48"/>
<path d="M594.988 1814.42C595.986 1696.55 556.394 1581.08 527.397 1466.59C507.563 1387.13 493.286 1302.88 510.251 1220.64C541.491 1057.88 681.39 972.936 840.764 981.673C990.107 991.653 1103.96 1087.61 1120.74 1239.31C1132.97 1331.41 1122.42 1426.93 1088.03 1513.41C1057.93 1590.29 1009.55 1660.24 946.3 1711.98C938.09 1718.42 927.454 1707.91 933.888 1699.69C958.691 1669.07 982.177 1637.68 1002.77 1604.25C1023.19 1571.14 1041.28 1536.72 1055.27 1500.62C1085.32 1423.95 1095.38 1340.26 1086.41 1258.5C1082.93 1225.71 1076.07 1192.54 1062.32 1162.65C1016.89 1056.05 891.87 1008.12 781.835 1022.02C661.568 1036.4 571.966 1107.34 548.536 1228.51C525.463 1344.66 567.134 1460.81 594.813 1573.35C615.066 1651.89 631.839 1732.9 629.948 1814.91C629.763 1824.57 621.787 1832.24 612.133 1832.06C602.54 1831.87 594.899 1823.99 594.988 1814.42Z" fill="#371A45"/>
<path d="M1099.62 1939.09C1052.26 1839.9 963.639 1760.47 814.93 1731.42C814.93 1731.42 747.092 1721.08 718.023 1724.68L648.416 1725.05C537.064 1736.05 436.339 1772.37 354.59 1825.1C242.875 1897.25 166.686 2000.06 147.533 2110.78C98.0741 2396.47 261.501 2687.95 547.19 2737.38C832.879 2786.81 1084.77 2567.2 1134.2 2281.51C1153.65 2169.11 1149.38 2043.21 1099.62 1939.09Z" fill="#63FF48"/>
<path d="M920.168 2537.58C920.168 2564.94 789.186 2761.62 459.104 2648.74C245.708 2575.77 187.172 2315.3 216.246 2318.69C233.092 2320.65 329.979 2517.05 539.83 2564.94C748.408 2612.54 920.168 2526.07 920.168 2537.58Z" fill="#2BC614"/>
<path d="M1099.62 1939.09C1052.26 1839.9 963.639 1760.47 814.93 1731.42C814.93 1731.42 747.092 1721.08 718.023 1724.68L648.416 1725.05C537.064 1736.05 436.339 1772.37 354.59 1825.1L355.308 1826.15C355.308 1826.15 754.428 1664.86 1099.62 1939.09Z" fill="#2BC614"/>
<path d="M717.93 1732.94C688.065 1744.07 656.297 1742.6 625.332 1747.37C445.269 1771.07 263.866 1873.53 186.706 2043.2C174.254 2070.84 166.233 2099.85 162.22 2129.88C113.767 2448.49 348.052 2765.82 686.741 2722.92C938.212 2690.12 1114.89 2447.83 1124.88 2203.03C1136.83 2029.3 1081.81 1860.69 917.8 1779.68C904.635 1771.98 890.865 1764.39 877.321 1756.14C869.008 1751.27 873.956 1738.14 883.295 1739.73C916.01 1744.55 946.391 1757.76 974.796 1774.78C1061.43 1825.22 1120.44 1914.94 1145.28 2010.83C1177.41 2135.36 1166.42 2276.05 1121.9 2396.24C1029.32 2648.48 763.731 2820.68 495.918 2743.7C233.114 2673.91 86.3597 2383.38 127.617 2124.89C132.027 2092.19 141.02 2059.26 154.437 2029.08C239.472 1839.81 442.886 1723.89 645.196 1709.57C669.688 1707.25 694.247 1706.97 718.102 1715.46C726.401 1718.27 726.148 1730.37 717.93 1732.94Z" fill="#371A45"/>
<path d="M1118.36 2355.81C1150.13 2324.47 1182.3 2234.64 1141.9 2128.65C1101.5 2022.66 1001.33 1997.37 965.857 2035.53C938.621 2064.82 911.748 2150.64 952.147 2256.63C992.546 2362.62 1085.82 2387.9 1118.36 2355.81Z" fill="#371A45"/>
<g opacity="0.5">
<path d="M944.309 2073.26C939.475 2111.41 943.005 2158.88 962.98 2211.28C1003.38 2317.28 1096.65 2342.58 1129.19 2310.49C1139.92 2299.91 1150.71 2282.63 1158.72 2260.31C1152.83 2304.8 1135.53 2338.88 1118.36 2355.82C1085.83 2387.9 992.557 2362.61 952.149 2256.64C923.195 2180.71 928.804 2115.13 944.309 2073.26Z" fill="white"/>
</g>
<g opacity="0.35">
<path d="M965.858 2035.51C1001.34 1997.37 1101.51 2022.68 1141.9 2128.64C1171.45 2206.17 1162.18 2275.04 1142.64 2318.69C1144.99 2284.25 1140.41 2244.57 1124.3 2202.32C1083.92 2096.33 983.748 2071.02 948.261 2109.19C942.638 2115.25 937.024 2123.73 932.016 2134.3C934.849 2087.45 950.31 2052.25 965.858 2035.51Z" fill="#111A28"/>
</g>
<path d="M489.327 2203.29C466.383 2159.78 469.6 2063.46 565.177 1987.62C660.754 1911.78 789.598 1937.36 813.774 1988.8C832.335 2028.29 824.739 2118.44 729.162 2194.28C633.585 2270.12 512.823 2247.86 489.327 2203.29Z" fill="#371A45"/>
<g opacity="0.5">
<path d="M485.456 2098.21C484.628 2122.25 489.41 2143.09 497.187 2157.85C520.684 2202.4 641.44 2224.69 737.024 2148.84C784.419 2111.25 810.195 2070.1 821.853 2033.39C820.859 2078.51 797.503 2140.06 729.159 2194.29C633.58 2270.11 512.819 2247.85 489.322 2203.3C476.949 2179.82 472.168 2140.97 485.456 2098.21Z" fill="white"/>
</g>
<g opacity="0.35">
<path d="M565.191 1987.61C660.739 1911.79 789.593 1937.36 813.782 1988.79C824.372 2011.34 826.428 2050.43 808.444 2093.94C807.394 2082.01 804.686 2071.64 800.855 2063.49C776.672 2012.03 647.818 1986.46 552.27 2062.29C514.162 2092.54 490.73 2126.02 477.773 2158.13C474.788 2109.44 495.311 2043.06 565.191 1987.61Z" fill="#111A28"/>
</g>
<path d="M1081.84 2386.3C1074.68 2386.3 1067.19 2385.47 1059.49 2383.8C1018.59 2374.91 964.631 2338.47 935.808 2262.85C892.038 2148.02 922.141 2056.87 953.054 2023.62C970.798 2004.54 999.382 1997.17 1031.49 2003.42C1073.99 2011.71 1129.61 2047.32 1158.24 2122.43C1202.35 2238.16 1164.72 2334.63 1130.63 2368.25C1118.64 2380.09 1101.49 2386.3 1081.84 2386.3ZM1009.9 2036.25C996.609 2036.25 985.447 2040.13 978.66 2047.43C958.401 2069.22 929.26 2147.5 968.484 2250.4C992.332 2312.97 1034.96 2342.69 1066.91 2349.63C1083.75 2353.29 1098.39 2350.95 1106.08 2343.36C1129.54 2320.22 1165.17 2238.81 1125.57 2134.88C1102.04 2073.15 1058.09 2044.23 1024.8 2037.75C1019.63 2036.74 1014.63 2036.25 1009.9 2036.25Z" fill="#371A45"/>
<path d="M590.266 2261.7C575.886 2261.7 561.628 2260.27 547.712 2257.34C512.219 2249.87 485.3 2233.14 473.86 2211.45C448.894 2164.1 448.66 2057.75 554.304 1973.93C620.237 1921.61 698.679 1915.87 750.129 1927.93C788.947 1937.03 817.912 1956.51 829.592 1981.36C850.178 2025.16 844.069 2125.42 740.031 2207.97C696.106 2242.83 642.43 2261.7 590.266 2261.7ZM701.736 1957.51C662.88 1957.51 616.756 1969.01 576.038 2001.32C491.692 2068.24 483.597 2154.95 504.788 2195.14C509.788 2204.62 525.579 2216.95 554.91 2223.12C596.863 2231.94 661.795 2225.41 718.299 2180.58C809.813 2107.97 811.483 2025.02 797.952 1996.24C791.053 1981.56 769.666 1968.43 742.146 1961.97C730.188 1959.17 716.482 1957.51 701.736 1957.51Z" fill="#371A45"/>
<path d="M677.177 2380.9L620.889 2337.62C611.125 2359.36 601.459 2376.86 592.027 2390.73C554.146 2446.5 519.563 2444.44 494.593 2428.03C460.554 2405.65 463.695 2342.29 463.695 2342.29C498.556 2312.67 464.037 2275.26 432.711 2277.74C405.581 2279.88 387.845 2319.8 418.956 2345.82C417.716 2358.47 411.856 2468.95 484.146 2492.41C555.437 2515.5 611.063 2470.84 643.927 2431.32C665.02 2405.93 676.707 2382.69 677.177 2380.9Z" fill="#62ED2E"/>
<g opacity="0.5">
<path d="M666.185 2400.65C664.925 2402.21 663.622 2403.79 662.319 2405.37C627.595 2447.12 569.268 2492.82 493.485 2469.94C430.813 2451.01 436.944 2349.91 438.26 2336.53C417.96 2322.34 411.34 2300.24 408.953 2292.34C399.125 2306.82 399.042 2329.18 418.954 2345.82C417.714 2358.47 411.854 2468.96 484.144 2492.42C555.435 2515.5 611.062 2470.84 643.926 2431.32C653.229 2420.13 660.682 2409.36 666.185 2400.65Z" fill="white"/>
</g>
<path d="M677.177 2380.9C677.177 2380.9 675.639 2361.39 656.169 2348.28C636.699 2335.17 620.887 2337.62 620.887 2337.62C611.123 2359.36 601.458 2376.86 592.026 2390.73C614.457 2388.82 647.1 2392.19 643.925 2431.32C665.019 2405.93 676.707 2382.69 677.177 2380.9Z" fill="#31C418"/>
<path d="M685.646 2383.05C684.911 2385.65 683.508 2388.59 682.428 2391.05C659.392 2438.17 624.46 2481.62 575.5 2503.92C539.349 2520.06 495.621 2520.25 459.948 2501.23C406.575 2469.55 396.765 2400.2 401.56 2344.1C401.554 2344.05 407.748 2359.25 407.748 2359.24C374.326 2333.36 377.964 2278.3 419.748 2262.74C475.67 2246.68 524.834 2314.66 474.991 2355.63L481.134 2343.17C481.789 2361.88 484.542 2383.47 493.009 2399.67C500.058 2413.73 516.22 2423.41 531.51 2421.57C549.369 2419.15 565.143 2403.67 577.081 2389.39C590.614 2372.8 602.178 2353.6 612.965 2333.93C618.148 2324.58 632.537 2331.13 628.863 2341.18C616.414 2374.29 600.894 2408.38 573.905 2433.51C539.994 2466.46 484.752 2459.24 461.263 2417.37C448.142 2393.17 444.868 2368 446.211 2341.44C446.118 2331.11 457.593 2327.04 460.235 2318.41C464.267 2303.37 438.426 2288.4 426.732 2298.39C416.481 2307.76 418.112 2322.69 430.169 2332.4C434.768 2336.27 436.889 2341.98 436.355 2347.55C435.946 2389.83 440.427 2444.8 478.192 2469.96C518.688 2492.87 569.491 2479.85 604.552 2451.43C629.453 2432 650.984 2406.77 667.824 2379.84L668.529 2378.64L668.805 2378.16L668.881 2378.05C668.905 2378.01 668.725 2378.51 668.703 2378.73C671.751 2367.66 688.245 2371.79 685.646 2383.05Z" fill="#371A45"/>
<path d="M910.447 1999.37C887.342 2011.98 859.604 2006.17 849.628 1986.47C827.398 1942.58 867.016 1890.13 904.394 1903.03C945.944 1917.36 937.706 1984.48 910.447 1999.37Z" fill="#371A45"/>
<path d="M1243.43 2522.46C1228.1 2500.06 1197.8 2515.31 1191.71 2542.28C1184.5 2549.95 1042.24 2644.83 998.452 2494.19C993.376 2476.67 989.612 2455.82 987.554 2431.13L929.835 2435.74C929.256 2437.59 932.27 2466.44 944.237 2501.61C958.694 2544.04 986.22 2595.6 1036.24 2619.83C1113.07 2657.03 1206.71 2581.16 1215.21 2575.08C1238.86 2575.25 1262.67 2550.55 1243.43 2522.46Z" fill="#62ED2E"/>
<path d="M1243.43 2522.46C1228.1 2500.06 1197.8 2515.31 1191.71 2542.28C1184.5 2549.95 1042.24 2644.83 998.452 2494.19C993.376 2476.67 989.612 2455.82 987.554 2431.13L929.835 2435.74C929.256 2437.59 932.27 2466.44 944.237 2501.61C958.694 2544.04 986.22 2595.6 1036.24 2619.83C1113.07 2657.03 1206.71 2581.16 1215.21 2575.08C1238.86 2575.25 1262.67 2550.55 1243.43 2522.46Z" fill="#62ED2E"/>
<g opacity="0.5">
<path d="M1250.4 2541.55C1243.5 2546.92 1222.15 2561.04 1210.14 2553.46C1200.97 2560.02 1115.77 2638.34 1032.91 2598.21C984.922 2574.96 956.141 2528.38 939.391 2486.14C940.821 2491.12 942.42 2496.29 944.236 2501.61C958.693 2544.04 986.219 2595.6 1036.24 2619.83C1113.06 2657.03 1206.71 2581.16 1215.21 2575.08C1233.24 2575.2 1251.39 2560.86 1250.4 2541.55Z" fill="white"/>
</g>
<path d="M998.452 2494.19C993.376 2476.67 989.612 2455.82 987.554 2431.13C987.554 2431.13 973.012 2418.62 954.846 2420.36C936.68 2422.1 929.834 2435.74 929.834 2435.74C929.255 2437.59 932.269 2466.44 944.236 2501.61C949.39 2476.53 965.708 2459.33 998.452 2494.19Z" fill="#31C418"/>
<path d="M938.169 2438.42C938.447 2437.9 938.579 2437 938.577 2436.65L938.658 2437.13L938.851 2438.33C951.239 2498.41 979.806 2566.14 1033.42 2598.19C1081.54 2627.95 1140.35 2602.4 1184.13 2575.05C1191.02 2570.7 1198.36 2565.57 1205.05 2560.88C1208.08 2558.59 1211.78 2557.47 1215.33 2557.62C1228.22 2557.47 1238.34 2545.21 1229.68 2533.4C1223.49 2521.67 1210.17 2537.24 1208.78 2546.13C1207.83 2551.15 1204.47 2554.66 1200.75 2557.69C1195.77 2561.8 1190.3 2565.37 1184.89 2568.69C1142.42 2594.38 1084.73 2609.36 1039.51 2581C990.39 2549.26 980.323 2485.04 978.848 2431.85C978.729 2421.05 994.488 2419.63 996.256 2430.29C1006.53 2499.03 1032.7 2581.18 1118.22 2557.33C1139.6 2551.76 1160.87 2541.96 1179.47 2529.75C1179.49 2529.18 1174.78 2538.29 1174.67 2538.44C1178.57 2521.92 1188.74 2506.76 1205.72 2498.49C1236.14 2483.41 1265.91 2509.25 1267.83 2540.01C1270.05 2569.09 1243.16 2593.08 1215.1 2592.58L1225.38 2589.33C1145.96 2653.18 1044 2681.34 973.012 2589.18C940.333 2545.48 923.319 2491.6 920.947 2437.62C920.117 2422.85 941.283 2424.07 938.169 2438.42Z" fill="#371A45"/>
<path d="M634.269 1289.47C634.474 1289.4 634.601 1289.48 634.676 1289.68C634.191 1289.63 634.038 1289.55 634.269 1289.47Z" fill="#2BC614"/>
<path d="M728.617 1722.75C558.336 1783.01 203.184 1921.85 203.184 1921.85C203.184 1921.85 77.0796 1981.65 56.2696 1936.98C33.4606 1888.02 96.3976 1848.9 93.7056 1839.85C91.0146 1830.8 22.8537 1840.85 18.2947 1790.13C14.0827 1743.28 100.55 1707.38 165.158 1680C165.158 1680 501.624 1528.53 587.023 1508.31C587.023 1508.31 657.042 1496.08 705.073 1556.25C753.105 1616.41 728.617 1722.75 728.617 1722.75Z" fill="#63FF48"/>
<path d="M18.2175 1784.61C20.8895 1740.42 103.084 1706.27 165.169 1680.01C165.169 1680.01 501.619 1528.52 587.035 1508.31C587.035 1508.31 624.005 1501.84 662.652 1521.42C677.174 1528.78 691.938 1539.81 705.084 1556.26C753.104 1616.4 728.626 1722.75 728.626 1722.75C558.349 1783.03 203.195 1921.86 203.195 1921.86C203.195 1921.86 77.0875 1981.65 56.2675 1936.98C33.4535 1888.01 96.4025 1848.9 93.7125 1839.86C91.0215 1830.79 22.8515 1840.86 18.3025 1790.14C18.1275 1788.3 18.1165 1786.45 18.2175 1784.61Z" fill="#63FF48"/>
<path d="M368.46 1820.4C314.302 1843.21 277.6 1832.68 330.264 1789.62C402.665 1730.42 629.321 1686.14 649.679 1702.67C670.037 1719.2 417.326 1799.83 368.46 1820.4Z" fill="#2BC614"/>
<path d="M731.534 1730.99C660.2 1770.01 548.155 1807.39 471.961 1838.18C423.904 1855.49 188.779 1948.3 148.885 1961.38C119.602 1969.02 86.9936 1978.62 57.3386 1963.14C36.9686 1951.15 30.7616 1923.99 34.9846 1901.93C39.9486 1876.73 56.8446 1857.46 72.6116 1840.43C74.3036 1838.66 77.0786 1835.31 77.5876 1834.64C75.3826 1838.23 76.2605 1846.18 79.2895 1849.57C82.1695 1853.03 82.9846 1853.04 84.4866 1853.83C70.2526 1850.87 56.4486 1850.13 40.9176 1843.84C-6.44543 1825.69 -11.7244 1770.22 23.7506 1737.96C61.8956 1702.08 110.781 1684.45 157.248 1663.71C256.877 1618.44 358.841 1573.82 460.85 1534.36C501.3 1519.27 541.354 1504.53 585.01 1499.8C589.861 1499.35 594.161 1502.91 594.615 1507.76C594.989 1511.79 592.606 1515.4 589.039 1516.81L531.925 1542.32C395.794 1599.42 259.898 1658.13 124.613 1717.18C96.0075 1731.2 47.8766 1751.64 36.5716 1781.62C30.5156 1811.88 66.5866 1815.25 89.6586 1819.1C101.447 1820.75 113.723 1830.03 110.891 1844.34C109.525 1850.39 107.187 1853.44 104.531 1856.97C90.9336 1873.27 73.6136 1888.52 69.5236 1908.62C68.0695 1916.26 69.0726 1924.5 73.3686 1931.21C73.8376 1931.73 74.4115 1932.24 75.3315 1932.77C105.071 1944.57 166.424 1918.45 195.549 1905.76L196.218 1905.45L196.697 1905.26L327.498 1853.81C414.775 1819.65 502.385 1786.42 590.518 1754.49C634.522 1738.34 678.946 1723.12 725.701 1714.51C730.508 1713.62 735.125 1716.8 736.009 1721.61C736.719 1725.46 734.791 1729.2 731.534 1730.99Z" fill="#371A45"/>
<path d="M297.068 1877.85C297.068 1877.85 236.479 1971.9 191.101 1961.02C145.901 1950.17 197.708 1882.89 199.275 1867.28C198.855 1862 161.67 1833.28 175.533 1762.5" fill="#63FF48"/>
<path d="M311.765 1887.32C287.384 1925.61 239.856 1989.71 187.627 1979.8C158.04 1973.84 148.112 1945.77 156.902 1919.54C162.869 1899.2 173.485 1883.57 181.738 1865.33C181.977 1864.81 182.014 1864.29 181.879 1865.53L181.847 1868.67C182.168 1872 182.913 1873.34 183.654 1874.67C183.857 1874.95 183.63 1874.58 183.5 1874.36C165.055 1850.72 156.064 1819.53 160.056 1789.9C161.322 1779.82 163.522 1770.05 166.955 1760.82C168.659 1756.24 173.757 1753.9 178.342 1755.61C181.999 1756.97 184.23 1760.49 184.111 1764.18C183.984 1773.16 184.028 1781.9 184.926 1790.37C186.814 1812.92 194.725 1833.95 209.323 1851.07C210.682 1852.93 212.248 1854.56 213.524 1856.72C215.279 1859.4 216.713 1863.16 216.817 1867.73C215.423 1880.82 207.816 1892.14 202.819 1903.66C197.481 1916.08 190.211 1929.61 191.826 1941.12C208.758 1948.42 232.017 1925.17 244.552 1913.26C258.222 1899.56 271.232 1883.46 282.76 1867.86C296.238 1850.38 322.765 1868.26 311.765 1887.32Z" fill="#371A45"/>
<path d="M948.957 1385.44C959.741 1415.35 989.513 1432.02 1015.45 1422.67C1041.39 1413.31 1053.68 1381.48 1042.9 1351.57C1032.11 1321.66 1002.34 1304.99 976.401 1314.35" fill="#62ED2E"/>
<path d="M1042.92 1351.58C1032.12 1321.64 1002.32 1304.99 976.41 1314.33C976.41 1314.33 961.059 1319.86 952.493 1341.92C943.927 1363.98 948.972 1385.45 948.972 1385.45C952.468 1395.15 957.957 1403.48 964.703 1409.93C951.073 1382.85 955.884 1352.53 976.493 1340.36C998.236 1327.5 1029.36 1339.9 1046 1368.06C1046.23 1368.43 1046.46 1368.81 1046.65 1369.2C1046.24 1363.37 1045.03 1357.45 1042.92 1351.58Z" fill="#2BC614"/>
<g opacity="0.7">
<path d="M1042.92 1351.58C1040.29 1344.29 1036.51 1337.78 1031.94 1332.25C1040.09 1360.84 1027.78 1390.05 1003.09 1398.95C984.477 1405.66 963.835 1398.97 949.706 1383.53L948.972 1385.45C959.753 1415.36 989.514 1432.02 1015.46 1422.66C1041.38 1413.32 1053.7 1381.49 1042.92 1351.58Z" fill="white"/>
</g>
<path d="M957.181 1382.48C972.346 1410.75 1014.05 1423.64 1027.09 1387.3C1037.19 1358.35 1013.38 1318.52 979.365 1322.57C974.324 1323.51 969.429 1320.02 968.867 1314.88C968.447 1311.21 970.373 1307.79 973.435 1306.12C984.935 1299.82 999.259 1298.75 1011.95 1302.22C1051.82 1313.01 1073.97 1360.38 1060.02 1398.73C1045.34 1443.16 989.566 1455.25 957.915 1421.04C950.188 1413.51 930.412 1382.25 947.546 1377.96C951.514 1377.12 955.349 1379.11 957.181 1382.48Z" fill="#371A45"/>
<path d="M1010.19 1350.17C1008.48 1350.18 1006.01 1358.03 998.04 1367.75C985.56 1365.46 978.67 1360.95 977.395 1362.08C976.126 1363.2 980.789 1371.17 992.771 1374.55C985.872 1384.85 987.38 1393.91 989.084 1393.91C990.793 1393.91 993.239 1386.08 1001.24 1376.33C1013.72 1378.62 1020.6 1383.13 1021.88 1382.01C1023.15 1380.88 1018.51 1372.9 1006.51 1369.53C1013.41 1359.26 1011.89 1350.17 1010.19 1350.17Z" fill="#371A45"/>
<path d="M539.516 1243.25C539.516 1243.25 499.592 1102.6 472.227 1085.49C444.863 1068.39 344.224 1089.63 284.098 1038.18C228.799 990.86 177.641 861.35 208.846 810.141C253.313 737.17 329.705 817.552 329.705 817.552C329.705 817.552 313.474 736.305 373.254 726.008C435.884 715.221 469.377 831.234 469.377 831.234C469.377 831.234 615.044 841.447 681.735 904.205C733.601 953.013 761.832 1034.43 761.832 1034.43C761.832 1034.43 782.929 1124.08 708.802 1189.88C634.675 1255.69 539.516 1243.25 539.516 1243.25Z" fill="#63FF48"/>
<path d="M526.901 1246.83C510.729 1203.26 495.74 1157.72 474.406 1116.87C471.242 1111.31 467.401 1104.37 463.068 1100.54C462.453 1100.13 461.574 1099.79 460.324 1099.29C443.373 1094.66 425.051 1095.3 405.583 1093.75C363.412 1091.23 318.057 1085.07 282.124 1059.69C246.537 1033.87 224.047 995.139 206.34 956.164C189.638 916.48 176.265 873.359 182.802 829.394C185.833 810.145 196.622 791.367 212.29 777.941C244.933 748.758 291.799 763.447 322.163 787.766C329.577 793.441 335.633 798.612 342.378 805.506L312.561 820.975C311.271 813.993 310.806 808.543 310.413 801.79C309.159 775.405 313.842 745.669 334.58 726.023C351.239 710.583 375.714 704.232 397.693 709.932C446.647 724.456 471.441 782.186 486.171 826.364C486.222 826.424 470.589 813.784 470.601 813.792C504.093 815.702 535.876 820.869 568.162 829.155C616.772 842.064 666.916 861.896 701.309 900.403C734.568 938.115 756.367 983.813 770.093 1031.56C772.758 1041.74 758.517 1047.26 753.784 1037.73C740.542 1009.97 724.706 982.302 706.563 957.495C688.892 933.482 669.143 911.886 642.964 897.495C590.092 868.638 526.108 856.255 466.385 848.449C459.472 847.583 454.119 842.466 452.579 836.074C449.74 826.745 445.821 816.413 441.654 806.95C430.282 782.716 415.053 752.362 388.847 743.756C347.428 736.354 341.249 783.048 346.852 814.126C350.2 830.917 329.001 841.816 317.259 829.821C307.647 820.267 295.354 810.981 283.277 804.873C258.761 792.245 238.642 795.058 224.459 819.617C199.349 871.681 250.095 977.816 287.732 1016.38C318.487 1049.12 364.722 1055.12 407.935 1058.17C430.545 1060.6 458.142 1058.31 480.494 1069.98C515.421 1091.97 542.281 1198.76 552.133 1239.67C555.451 1255.55 532.587 1262.4 526.901 1246.83Z" fill="#371A45"/>
<path d="M642.233 1153.11C600.408 1169.16 555.735 1157.39 578.823 1106.08C601.912 1054.77 682.294 996.625 705.383 1017.15C728.472 1037.67 722.485 1122.33 642.233 1153.11Z" fill="#2BC614"/>
<path d="M1338.99 1561.12C1334.63 1561.12 1330.36 1558.95 1327.87 1554.99C1324.02 1548.86 1325.86 1540.76 1332 1536.91C1528.02 1413.66 1503.12 1169.97 1502.85 1167.53C1502.04 1160.34 1507.21 1153.84 1514.4 1153.03C1521.55 1152.21 1528.08 1157.38 1528.9 1164.57C1529.2 1167.24 1536.13 1230.92 1517.31 1311.53C1492.28 1418.75 1433.03 1504.37 1345.95 1559.11C1343.78 1560.47 1341.37 1561.12 1338.99 1561.12Z" fill="#371A45"/>
<path d="M926.007 1660.21C897.808 1673.48 836.833 1680.4 786.335 1665.34C721.345 1645.96 672.317 1580.4 707.093 1559.3C741.869 1538.21 802.013 1579.83 935.023 1578.12C1022.04 1577 969.619 1639.69 926.007 1660.21Z" fill="#2BC614"/>
<path d="M351.644 928.5C355.691 891.33 392.464 856.755 430.885 863.224C415.703 873.011 402.538 881.563 389.462 893.071C376.226 904.363 365.334 916.712 351.644 928.5Z" fill="#371A45"/>
</svg>
