<svg width="2319" height="3143" viewBox="0 0 2319 3143" fill="none" xmlns="http://www.w3.org/2000/svg">
<g opacity="0.2">
<path d="M1190 3143C1717.43 3143 2145 3062.41 2145 2963C2145 2863.59 1717.43 2783 1190 2783C662.568 2783 235 2863.59 235 2963C235 3062.41 662.568 3143 1190 3143Z" fill="#371A45"/>
</g>
<path d="M2284.35 1434.85C2272.5 1446.1 2262.05 1458.75 2251.9 1471.55C2197.35 1540.2 2146.55 1615.85 2072.5 1635.5C1906.25 1665 1721.25 1691.4 1522.5 1715.5L1410.15 1518.9L1302.5 1330.5C1563.7 1343.25 1819 1327.6 2068.5 1284.7C2084.25 1282 2099.1 1275.35 2111.65 1265.45L2217.3 1182.45C2224.6 1176.7 2233.8 1174.5 2242.5 1176C2243.25 1176.1 2243.95 1176.25 2244.7 1176.45C2249.45 1177.55 2254 1179.85 2257.9 1183.25C2266.2 1190.55 2272.55 1200.45 2277 1212.5C2289.1 1245.05 2287.4 1293.4 2272.75 1349.45C2272.7 1349.8 2272.6 1350.15 2272.5 1350.5C2286.1 1359.05 2295.3 1371.8 2298.85 1385.55C2303.25 1402.4 2299.2 1420.75 2284.35 1434.85Z" fill="white"/>
<path d="M1522.5 1733C1516.28 1733 1510.44 1729.68 1507.31 1724.18L1287.31 1339.18C1284.14 1333.63 1284.24 1326.8 1287.58 1321.35C1290.93 1315.9 1297.05 1312.73 1303.35 1313.02C1560.31 1325.57 1816.73 1310.24 2065.55 1267.46C2078.29 1265.27 2090.49 1259.82 2100.84 1251.69L2206.47 1168.7C2225.25 1153.93 2251.74 1154.54 2269.44 1170.12C2303.27 1199.89 2311.43 1262.71 2292.29 1343.52C2306.62 1356.18 2315.88 1373.47 2317.7 1391.71C2319.79 1412.69 2312.23 1432.52 2296.41 1447.55C2285.91 1457.52 2276.5 1468.7 2265.59 1482.43C2259.05 1490.67 2252.55 1499.02 2246.07 1507.36C2197.76 1569.44 2147.81 1633.64 2076.99 1652.42C2076.52 1652.54 2076.04 1652.64 2075.56 1652.73C1915.89 1681.07 1735.67 1707.28 1524.61 1732.87C1523.9 1732.96 1523.19 1733 1522.5 1733ZM1333.45 1349.39L1531.93 1696.73C1737.07 1671.69 1912.76 1646.06 2068.7 1618.4C2127.77 1602.39 2171.82 1545.79 2218.44 1485.86C2225 1477.44 2231.57 1469 2238.19 1460.67C2250.01 1445.78 2260.33 1433.54 2272.3 1422.17C2282.31 1412.66 2283.58 1402.25 2282.87 1395.18C2281.71 1383.5 2274.35 1372.33 2263.19 1365.32C2256.71 1361.24 2253.63 1353.44 2255.58 1346.05C2274.22 1275.18 2270.67 1217.83 2246.31 1196.39C2241.28 1191.96 2233.62 1191.88 2228.09 1196.22L2122.46 1279.21C2107.56 1290.92 2089.93 1298.79 2071.47 1301.96C1830.42 1343.4 1582.31 1359.33 1333.45 1349.39Z" fill="#371A45"/>
<path d="M2286.27 1354.06L2196.39 1415.1C2190.52 1419.16 2183.63 1410.99 2188.61 1405.9L2263.66 1327.35C2282.24 1309.59 2306.89 1338.62 2286.27 1354.06Z" fill="#371A45"/>
<g opacity="0.25">
<path d="M2284.35 1434.85C2272.5 1446.1 2262.05 1458.75 2251.9 1471.55C2197.35 1540.2 2146.55 1615.85 2072.5 1635.5C1906.25 1665 1721.25 1691.4 1522.5 1715.5L1410.15 1518.9C1423.6 1496.75 1440.8 1477.05 1461.5 1461.3L1478.55 1462.65C1528.9 1496.1 1587 1515.5 1644.35 1534.55C1670.95 1543.4 1697.9 1552.35 1725.85 1554.8C1748.5 1556.85 1771.3 1554.6 1793.85 1551.95C1928.35 1536.3 2061.25 1506.85 2189.75 1464.25C2217.1 1455.2 2244.95 1445.15 2266.7 1426.3C2279.9 1414.85 2290.15 1400.75 2298.85 1385.55C2303.25 1402.4 2299.2 1420.75 2284.35 1434.85Z" fill="#371A45"/>
</g>
<g opacity="0.25">
<path d="M2195.12 1408.45C2223.65 1377.32 2245.33 1339.41 2254.61 1298.21C2263.9 1257.01 2260.33 1212.52 2241.79 1174.57C2280.44 1198.58 2297 1248.2 2293.64 1293.57C2292.85 1304.22 2291.11 1314.89 2287.29 1324.86C2275.44 1355.76 2245.86 1375.6 2217.97 1393.42L2195.12 1408.45Z" fill="#371A45"/>
</g>
<path d="M1115.7 2936.1C1111.9 2944.2 1107.3 2952.4 1101.75 2960.7C1091 2976.8 1073.65 2987.25 1054.4 2989.55C863.3 3012.35 632.9 2943.1 657 2763.05C659.05 2747.75 663.85 2732.9 670.85 2719.15L757.55 2549.9C764.3 2536.75 768.55 2522.5 770.15 2507.85C778.7 2430.6 782.7 2346.3 782.5 2255.5L1002.5 2195.5L1145.35 2398.5L1192.5 2465.5C1167.8 2593.1 1137.65 2712.35 1077.5 2785.5C1118.75 2802.55 1149.25 2864.9 1115.7 2936.1Z" fill="white"/>
<path d="M985.068 3011.08C876.792 3011.08 757.597 2983.4 690.424 2915.25C649.272 2873.49 631.718 2820.07 639.662 2760.75C641.952 2743.64 647.211 2726.96 655.292 2711.18L741.986 2541.91C747.738 2530.69 751.366 2518.57 752.772 2505.9C761.102 2430.66 765.213 2346.43 764.999 2255.54C764.979 2247.63 770.268 2240.7 777.895 2238.62L997.895 2178.62C1005.01 2176.66 1012.57 2179.4 1016.81 2185.43L1206.81 2455.43C1209.55 2459.32 1210.59 2464.15 1209.68 2468.82C1187.19 2585.06 1158.66 2702.47 1103.4 2780.38C1121.02 2793.64 1134.84 2813.74 1141.97 2837.25C1154.74 2879.36 1145.62 2926.66 1116.31 2970.45C1102.73 2990.73 1080.93 3004.02 1056.49 3006.94C1033.75 3009.65 1009.69 3011.08 985.068 3011.08ZM800 2268.87C799.8 2355.96 795.62 2436.94 787.559 2509.76C785.689 2526.66 780.835 2542.85 773.14 2557.87L686.446 2727.14C680.181 2739.37 676.114 2752.24 674.351 2765.39C667.803 2814.28 681.597 2856.43 715.352 2890.68C779.536 2955.8 914.976 2988.55 1052.35 2972.18C1066.63 2970.48 1079.34 2962.75 1087.23 2950.98C1110.6 2916.07 1118.14 2879.29 1108.47 2847.4C1101.93 2825.81 1087.85 2808.71 1070.82 2801.67C1065.69 2799.55 1061.87 2795.13 1060.52 2789.75C1059.18 2784.37 1060.46 2778.66 1063.99 2774.38C1121.33 2704.66 1150.88 2587.15 1173.9 2469.47L995.254 2215.61L800 2268.87Z" fill="#371A45"/>
<path d="M1105.34 2662.19C970.078 2662.19 853.086 2617.63 757.022 2529.4C749.903 2522.87 749.429 2511.8 755.967 2504.68C762.51 2497.56 773.579 2497.09 780.694 2503.63C879.918 2594.75 1003.5 2635.82 1147.99 2625.67C1157.53 2625.03 1166 2632.26 1166.68 2641.9C1167.36 2651.54 1160.09 2659.91 1150.45 2660.58C1135.2 2661.66 1120.15 2662.19 1105.34 2662.19Z" fill="#371A45"/>
<path d="M1081.65 2806.08C1024.2 2823.99 959.616 2817.54 907.169 2789.6C903.634 2787.78 902.24 2783.44 904.056 2779.91C905.714 2776.68 909.495 2775.25 912.828 2776.4C963.86 2794.62 1019.86 2792.89 1068.34 2769.92C1093.75 2759.5 1107.81 2797.48 1081.65 2806.08Z" fill="#371A45"/>
<g opacity="0.25">
<path d="M960.199 2799.6C956.749 2798.65 953.249 2797.65 949.699 2796.5C953.249 2797.25 956.799 2798.25 960.199 2799.6Z" fill="#371A45"/>
</g>
<g opacity="0.25">
<path d="M1145.35 2398.5C1143.8 2406.05 1142.15 2413.5 1140.45 2420.95L1130.9 2411.9C1086.55 2380.15 1017.1 2392.3 986.15 2437.2C973.6 2455.3 967.3 2476.9 961.15 2498.05C940.05 2570.55 919 2643 897.95 2715.5C894.7 2726.65 891.45 2738.25 893.35 2749.75C897.65 2775.3 924.05 2788.45 949.7 2796.5C923.9 2791 895.2 2800.3 878.2 2820.6C858.85 2843.65 856.1 2879.2 871.7 2904.95C887.1 2930.45 916.6 2944 945.5 2951.2C1001.85 2965.2 1062.45 2959 1115.7 2936.1C1111.9 2944.2 1107.3 2952.4 1101.75 2960.7C1091 2976.8 1073.65 2987.25 1054.4 2989.55C863.3 3012.35 632.9 2943.1 657 2763.05C659.05 2747.75 663.85 2732.9 670.85 2719.15L757.55 2549.9C764.3 2536.75 768.55 2522.5 770.15 2507.85C778.7 2430.6 782.7 2346.3 782.5 2255.5L1002.5 2195.5L1145.35 2398.5Z" fill="#371A45"/>
</g>
<path d="M1022.5 1410.5L1000.8 1637.2L942.499 2245.5C856.699 2300.65 758.799 2332.7 632.499 2310.5C556.149 2294.6 501.549 2258.3 466.099 2203.95C447.349 2175.25 437.399 2141.7 435.849 2107.45C435.799 2106.9 435.749 2106.4 435.749 2105.85C427.549 1891.05 439.099 1680 469.249 1472.55C471.349 1457.85 480.049 1444.95 492.749 1437.4C564.449 1394.8 662.399 1373.25 777.499 1365.5L1022.5 1410.5Z" fill="white"/>
<path d="M711.798 2335.19C685.035 2335.19 657.672 2332.69 629.474 2327.74C629.293 2327.7 629.113 2327.67 628.937 2327.63C549.855 2311.17 490.133 2272.78 451.432 2213.54C431.237 2182.62 419.772 2145.61 418.278 2106.52C410.153 1893.82 421.471 1679.67 451.911 1470.01C454.811 1450.05 466.442 1432.68 483.82 1422.35C553.517 1380.91 649.196 1356.6 776.325 1348.04C777.77 1347.94 779.235 1348.02 780.661 1348.29L1025.66 1393.29C1034.6 1394.93 1040.79 1403.13 1039.92 1412.17L959.924 2247.17C959.411 2252.51 956.477 2257.32 951.965 2260.22C873.516 2310.66 795.635 2335.19 711.798 2335.19ZM635.802 2293.31C740.358 2311.62 832.765 2293.18 925.9 2235.29L1003.55 1424.81L776.5 1383.11C656.08 1391.42 566.178 1414.11 501.7 1452.44C493.443 1457.35 487.921 1465.59 486.549 1475.04C456.412 1682.59 445.206 1894.61 453.248 2105.19C454.503 2137.94 464.01 2168.79 480.738 2194.4C514.59 2246.22 565.318 2278.58 635.802 2293.31Z" fill="#371A45"/>
<path d="M610.547 2287.09C642.792 2292.4 653.123 2254.96 660.413 2230.07C669.526 2195.35 673.445 2159.53 677.879 2123.51C680.269 2102.11 683.635 2071.41 686.421 2050.28C687.407 2043.15 698.113 2043.4 698.579 2050.73C701.108 2100.47 702.484 2149.69 697.935 2199.6C695.237 2224.71 691.795 2250.25 680.635 2276.02C671.656 2297.49 653.438 2318.36 628.869 2321.96C612.828 2324.52 587.437 2323.26 589.978 2301.58C591.5 2291.72 600.957 2285.45 610.547 2287.09Z" fill="#371A45"/>
<g opacity="0.25">
<path d="M1000.8 1637.2L942.5 2245.5C856.7 2300.65 758.8 2332.7 632.5 2310.5C556.15 2294.6 501.55 2258.3 466.1 2203.95C447.35 2175.25 437.4 2141.7 435.85 2107.45L441.2 2105.1C461.25 2145.65 485.4 2186.25 523.05 2211.4C560.65 2236.55 614.85 2241.95 649.5 2212.9C685.1 2183.15 688.7 2130.8 690.55 2084.45C693.75 2003.6 699.85 1922.85 708.9 1842.4C710.4 1828.9 712.15 1814.95 718.9 1803.15C726.65 1789.65 740.05 1780.55 753.1 1772.05C832.05 1720.8 914.95 1675.7 1000.8 1637.2Z" fill="#371A45"/>
</g>
<path d="M652.492 1583C648.605 1583 644.689 1581.71 641.442 1579.06C584.206 1532.39 526.261 1495.32 469.22 1468.87C460.455 1464.8 456.642 1454.4 460.704 1445.63C464.771 1436.86 475.182 1433.06 483.946 1437.12C543.634 1464.79 604.063 1503.42 663.56 1551.94C671.05 1558.05 672.173 1569.07 666.065 1576.56C662.604 1580.8 657.57 1583 652.492 1583Z" fill="#371A45"/>
<path d="M864.432 1927.85L744.119 1937.15C733.378 1937.98 724.543 1945.94 722.649 1956.54C715.713 1995.38 704.351 2085.91 742.178 2115.71C773.575 2140.44 824.455 2137.42 854.217 2112.11C887.508 2083.81 890.567 1995.04 889.928 1951.1C889.73 1937.43 878.053 1926.79 864.432 1927.85Z" fill="white"/>
<g opacity="0.25">
<path d="M722.66 1956.56C715.705 1995.38 704.359 2085.91 742.191 2115.7C773.593 2140.45 824.461 2137.42 854.238 2112.1C874.698 2094.68 883.737 2054.4 887.51 2015.75C882.132 2035.07 873.657 2050.76 863.095 2061.07C802.578 2120.14 757.146 2050.76 757.146 2050.76C757.146 2050.76 749.326 2067.65 743.066 2068.62C716.89 2072.67 722.12 1990.69 725.811 1948.33C724.281 1950.77 723.186 1953.54 722.66 1956.56Z" fill="#371A45"/>
</g>
<path d="M795.015 2145.29C772.998 2145.29 751.226 2138.75 734.444 2125.53C692.735 2092.67 701.446 2004.17 710.347 1954.34C713.238 1938.16 726.729 1925.96 743.155 1924.69L863.472 1915.38C873.369 1914.63 883.301 1918.02 890.645 1924.73C897.989 1931.42 902.286 1940.97 902.427 1950.92C903.321 2012.47 897.09 2092.07 862.315 2121.63C843.848 2137.34 819.288 2145.28 795.015 2145.29ZM866.29 1940.28C865.997 1940.28 865.699 1940.29 865.401 1940.31H865.396L745.083 1949.62C740.01 1950.01 735.845 1953.76 734.956 1958.74C721.68 2033.04 727.27 2088.05 749.912 2105.89C775.889 2126.35 819.941 2124.85 846.123 2102.59C866.846 2084.96 878.55 2028.4 877.427 1951.28C877.383 1948.16 876.094 1945.29 873.794 1943.19C871.715 1941.3 869.078 1940.28 866.29 1940.28Z" fill="#371A45"/>
<path d="M797.468 2141.45C747.099 2108.54 743.939 2034.35 757.223 1981.43C758.447 1977.96 763.839 1979.47 762.935 1983.13C761.356 1989.2 760.805 1996.34 760.486 2003.12C759.575 2041.71 763.92 2085.09 792.615 2113.29C795.868 2116.49 799.368 2119.33 803.147 2121.74C804.258 2122.45 805.793 2123.3 806.353 2123.53C811.478 2125.63 813.934 2131.48 811.839 2136.6C809.593 2142.23 802.656 2144.55 797.468 2141.45Z" fill="#371A45"/>
<path d="M1774.75 2885.75C1774.35 2891.1 1773.55 2896.65 1772.4 2902.4C1767.35 2927.95 1749.5 2949.15 1725.25 2958.6C1600.05 3007.6 1397.95 3018.7 1277.1 2968.75C1247.4 2956.5 1225.3 2930.8 1217.75 2899.55C1185.05 2764.4 1175.2 2559.45 1088.95 2403.55C1083.6 2393.9 1074.9 2386.55 1064.5 2382.95C1034.45 2372.55 1005.7 2359.05 978.6 2341.6C917.6 2302.25 884.4 2231.35 892.25 2159.2C900.5 2084 903.85 2005.75 903.1 1924.85V1924.4C902.55 1867.6 899.95 1809.5 895.6 1750.3C887.55 1641.35 873.5 1528.6 855 1413L985 1293L1355 1353L1475 1453C1618.45 1657.3 1641.2 1962.75 1598.45 2207.45C1592.15 2243.6 1584.45 2278.4 1575.45 2311.35V2311.4C1575.3 2311.95 1575.15 2312.45 1575 2313C1635.45 2445.05 1659 2591.95 1660 2748C1735.85 2775.95 1780.95 2817.35 1774.75 2885.75Z" fill="white"/>
<path d="M1480.06 1449.44C1657.53 1675.12 1663.27 2049.89 1591.88 2317.63C1591.88 2317.63 1590.91 2305.72 1590.91 2305.72C1654.33 2443.93 1676.67 2597.21 1677.62 2747.89L1666.09 2731.46C1744.27 2759.35 1807.99 2812.14 1790.04 2903.88C1784.49 2938.34 1757.6 2967.87 1724.23 2977.8C1718.45 2979.69 1711.24 2982.64 1705.57 2984.44C1658.9 2999.45 1610.53 3008.72 1561.92 3014.19C1471.31 3022.98 1376.85 3021.3 1289.65 2992.34L1270.73 2985.4C1235.94 2971.4 1208.74 2939.87 1200.28 2903.32C1182.81 2828.49 1173.1 2751.91 1158.56 2677.13C1143.28 2596.96 1123.72 2517.93 1089.34 2444.06C1086.85 2438.4 1083.79 2433.06 1081.05 2427.54L1072.79 2411.57C1069.29 2405.47 1063.24 2401.23 1056.58 2399.24C1010.95 2382.56 965.152 2360.85 931.045 2325.33C887.394 2280.08 866.682 2215.03 874.703 2152.84C875.647 2143.6 877.393 2124.49 878.328 2115.22C884.944 2033.43 886.465 1951.29 883.647 1869.24C878.735 1717.28 860.987 1565.93 837.273 1415.78C836.311 1409.68 838.635 1403.74 842.83 1399.81L972.925 1279.92C977.078 1276.08 982.665 1274.61 987.849 1275.43L1357.8 1335.72C1367.34 1337.28 1373.81 1346.27 1372.26 1355.81C1370.7 1365.35 1361.74 1371.83 1352.2 1370.27L982.15 1310.57L997.074 1306.08L867.169 1426.18L872.716 1410.16C912.042 1657.24 936.679 1910.8 910.233 2161.45C904.264 2214.62 924.291 2269.96 963.299 2306.55C994.378 2335.42 1034.42 2352.94 1073.95 2367.28C1087.93 2373.01 1099.89 2384.42 1106.32 2397.98C1107.77 2400.55 1111.59 2408.41 1113.08 2411.13C1131.12 2445.72 1145.18 2483.05 1157.17 2519.98C1196.73 2643.84 1206.95 2770.67 1235 2894.94C1239.8 2915.46 1252.76 2933.65 1270.36 2945.11C1278.47 2951.19 1292 2954.97 1301.25 2958.63C1312.65 2962.6 1324.44 2965.93 1336.26 2968.71C1408.78 2985.57 1484.11 2986.2 1558.13 2978.89C1604.41 2973.69 1650.22 2964.98 1694.56 2950.77C1700.37 2949.2 1706.22 2946.32 1711.87 2944.61C1728.88 2939.64 1743.82 2927.96 1750.97 2911.59C1758.63 2891.99 1759.62 2868.88 1754.28 2848.59C1749.07 2828.14 1735.04 2810.89 1716.91 2797.13C1698.67 2783.37 1676.65 2773.1 1653.9 2764.54C1646.83 2761.93 1642.43 2755.22 1642.37 2748.11C1641.89 2674.52 1636.36 2601.03 1623.26 2529C1610.2 2457.01 1589.38 2386.51 1559.08 2320.28C1557.31 2316.4 1557.08 2312.19 1558.12 2308.37C1613.63 2097 1617.86 1868.06 1557.39 1657.28C1536.46 1587.27 1507.8 1519.73 1469.93 1456.56C1468.15 1453.62 1469.1 1449.78 1472.05 1448.02C1474.74 1446.41 1478.15 1447.07 1480.06 1449.44Z" fill="#371A45"/>
<path d="M1675.14 2758.25C1650.03 2807.83 1595.66 2830.67 1543.3 2831.7C1535.7 2831.98 1534.28 2820.92 1541.7 2819.3C1584.9 2810.29 1627.26 2785.9 1639.86 2742.75C1649.7 2716.04 1688.14 2732.84 1675.14 2758.25Z" fill="#371A45"/>
<path d="M1343.31 2662.3C1278.81 2662.3 1215.93 2653.42 1158.68 2635.28C1148.53 2632.07 1142.91 2621.25 1146.13 2611.1C1149.34 2600.96 1160.19 2595.35 1170.31 2598.55C1312.71 2643.65 1492.67 2627.75 1639.97 2557.04C1649.55 2552.43 1661.06 2556.48 1665.67 2566.07C1670.27 2575.66 1666.23 2587.17 1656.63 2591.77C1559.78 2638.27 1449.36 2662.3 1343.31 2662.3Z" fill="#371A45"/>
<path d="M1578.19 2365.57C1552.98 2309.14 1533.21 2248.82 1489.94 2203.26C1483.9 2196.7 1492.83 2186.99 1499.87 2192.54C1550.93 2233.16 1579.22 2295.19 1609.71 2350.36C1620.69 2372.12 1588.48 2387.78 1578.19 2365.57Z" fill="#371A45"/>
<g opacity="0.25">
<path d="M1284.15 1910.3C1271.75 1943.1 1233.9 1957.35 1199.7 1965.15C1199.65 1965.15 1199.55 1965.2 1199.5 1965.2C1159.3 1974.3 1117.9 1979.85 1076.7 1976.8C1017.05 1972.35 960.6 1950.2 905.7 1925.55C905.65 1925.55 905.65 1925.55 905.6 1925.55C904.75 1925.15 903.9 1924.8 903.1 1924.4C902.55 1867.6 899.95 1809.5 895.6 1750.3C907.8 1726.7 925.05 1705.9 947.7 1692.35L949 1683.65C971.55 1664.3 1005.2 1653.15 1031.1 1667.7C1070.2 1689.6 1064.65 1749.3 1093.1 1783.95C1111.8 1806.8 1142.9 1815.5 1172.4 1817.65C1211.25 1820.5 1250.8 1813.95 1286.7 1798.8C1287.35 1821.2 1287.95 1843.6 1288.6 1866C1289.05 1880.95 1289.4 1896.3 1284.15 1910.3Z" fill="#371A45"/>
</g>
<g opacity="0.25">
<path d="M1774.75 2885.75C1774.35 2891.1 1773.55 2896.65 1772.4 2902.4C1767.35 2927.95 1749.5 2949.15 1725.25 2958.6C1600.05 3007.6 1397.95 3018.7 1277.1 2968.75C1247.4 2956.5 1225.3 2930.8 1217.75 2899.55C1185.05 2764.4 1175.2 2559.45 1088.95 2403.55C1083.6 2393.9 1074.9 2386.55 1064.5 2382.95C1034.45 2372.55 1005.7 2359.05 978.599 2341.6C917.599 2302.25 884.399 2231.35 892.249 2159.2C900.499 2084 903.849 2005.75 903.099 1924.85C903.949 1925.15 904.799 1925.4 905.699 1925.55C1001.5 1951.05 1100.55 1964.35 1199.7 1965.15C1232.9 1965.5 1266.15 1964.35 1299.25 1961.85C1314.05 1960.75 1330.5 1959.8 1342.1 1969.1C1351.55 1976.65 1355.3 1989.2 1358.15 2001C1366.55 2035.7 1371.95 2071.15 1374.25 2106.8L1384.15 2122.35C1321.6 2128.65 1272.9 2185.75 1259.5 2247.2C1246.15 2308.6 1261.55 2372.75 1283.95 2431.5C1306.4 2490.2 1335.95 2546.4 1352.6 2607C1367.45 2661.3 1372 2719.1 1397.25 2769.4C1405.8 2786.55 1416.95 2802.8 1432.45 2814.05C1474.9 2844.9 1533.85 2829.75 1583.7 2813.35C1558.55 2823.05 1530.7 2835.3 1521.05 2860.5C1509.9 2889.7 1530.7 2923.65 1559.2 2936.6C1587.65 2949.5 1620.75 2946.3 1651.3 2939.6C1695.1 2930.05 1738.85 2912.3 1774.75 2885.75Z" fill="#371A45"/>
</g>
<g opacity="0.25">
<path d="M1598.45 2207.45C1592.15 2243.6 1584.45 2278.4 1575.45 2311.35C1565.55 2293.25 1555.65 2275.2 1545.8 2257.1C1536.35 2239.8 1526.55 2222.1 1511.4 2209.5L1502.9 2198.9C1530.75 2213.45 1564.55 2222.7 1593.3 2210C1595.05 2209.2 1596.8 2208.35 1598.45 2207.45Z" fill="#371A45"/>
</g>
<path d="M1653.28 2095.88L1317.44 2127.7C1277.7 2131.49 1242.51 2096.41 1239.29 2049.72L1224.87 1840.08C1222.05 1799.21 1244.64 1762.52 1277.01 1751.5C1281.59 1749.9 1286.39 1748.89 1291.34 1748.41L1627.13 1716.59C1666.92 1712.81 1702.11 1747.88 1705.28 1794.57L1716.74 1960.61L1719.76 2004.21C1722.98 2050.89 1693.03 2092.1 1653.28 2095.88Z" fill="white"/>
<g opacity="0.25">
<path d="M1653.28 2095.88L1317.45 2127.7C1277.7 2131.49 1242.52 2096.41 1239.3 2049.72L1224.87 1840.08C1222.06 1799.21 1244.64 1762.52 1277.02 1751.5C1297.11 1764.55 1309.87 1772.9 1309.87 1772.9C1337.81 1939.63 1384.44 2019.67 1562.81 2006.21C1639.81 2000.37 1687.4 1982.01 1716.74 1960.61L1719.76 2004.21C1722.99 2050.89 1693.03 2092.1 1653.28 2095.88Z" fill="#371A45"/>
</g>
<path d="M1311.67 2143C1292.96 2143 1274.67 2136.12 1259.51 2123.26C1239.15 2105.97 1226.33 2079.55 1224.35 2050.78L1209.91 1841.11C1206.14 1786.29 1242.03 1738 1289.93 1733.46L1625.74 1701.64C1646.89 1699.66 1668.01 1706.52 1685.12 1721.04C1705.48 1738.32 1718.29 1764.74 1720.28 1793.51L1734.72 2003.18C1738.49 2058 1702.6 2106.29 1654.7 2110.83L1318.89 2142.66C1316.48 2142.89 1314.07 2143 1311.67 2143ZM1632.9 1731.3C1631.46 1731.3 1630.02 1731.37 1628.57 1731.5L1292.76 1763.33C1260.91 1766.35 1237.17 1800.32 1239.84 1839.05L1254.28 2048.72C1255.7 2069.47 1264.69 2088.3 1278.92 2100.38C1289.81 2109.62 1302.95 2114.03 1316.06 2112.79L1651.87 2080.96C1683.72 2077.94 1707.46 2043.98 1704.79 2005.25L1690.34 1795.58C1688.92 1774.82 1679.93 1755.99 1665.7 1743.91C1656.02 1735.7 1644.52 1731.3 1632.9 1731.3Z" fill="#371A45"/>
<path d="M1666.66 2093.06C1662.38 2094.53 1657.94 2095.47 1653.28 2095.88L1317.45 2127.7C1288.32 2130.45 1261.65 2112.39 1248.22 2084.09C1243.33 2073.81 1240.18 2062.18 1239.35 2049.72L1232.9 1956.59L1230.78 1925.86L1224.87 1840.08C1221.65 1793.4 1251.6 1752.19 1291.35 1748.41L1363.92 1741.55C1330.98 1752.12 1307.89 1789.12 1310.71 1830.4L1318.48 1943.65L1325.14 2040.1C1328.36 2086.73 1363.54 2121.86 1403.29 2118.08L1666.66 2093.06Z" fill="white"/>
<g opacity="0.25">
<path d="M1666.66 2093.06C1662.38 2094.53 1657.94 2095.47 1653.28 2095.88L1317.45 2127.7C1277.7 2131.49 1242.52 2096.41 1239.35 2049.72L1230.78 1925.86C1240.73 1946.95 1257.76 1972.37 1282.23 1972.89C1295.66 1973.21 1308 1960.72 1318.48 1943.65L1325.14 2040.1C1328.36 2086.73 1363.54 2121.86 1403.29 2118.08L1666.66 2093.06Z" fill="#371A45"/>
</g>
<path d="M1311.62 2140.5C1293.53 2140.5 1275.84 2133.83 1261.14 2121.36C1241.28 2104.51 1228.78 2078.71 1226.86 2050.6L1212.42 1840.94C1208.71 1787.49 1243.59 1740.38 1290.17 1735.94L1362.72 1729.08C1369.1 1728.47 1374.85 1732.76 1376.14 1739.01C1377.42 1745.26 1373.8 1751.47 1367.72 1753.42C1339.5 1762.5 1320.77 1794.53 1323.19 1829.57L1337.63 2039.23C1339.09 2060.66 1348.39 2080.13 1363.15 2092.65C1374.55 2102.33 1388.36 2106.94 1402.09 2105.63L1665.49 2080.64C1671.85 2080.04 1677.59 2084.27 1678.9 2090.49C1680.22 2096.7 1676.67 2102.92 1670.64 2104.93C1665.34 2106.71 1659.87 2107.85 1654.38 2108.33L1318.63 2140.16C1316.29 2140.39 1313.95 2140.5 1311.62 2140.5ZM1319.93 1758.24L1292.53 1760.83C1259.34 1763.99 1234.58 1799.16 1237.36 1839.21L1251.8 2048.88C1251.8 2048.88 1251.8 2048.89 1251.8 2048.89C1253.26 2070.32 1262.56 2089.78 1277.31 2102.3C1288.71 2111.97 1302.5 2116.58 1316.26 2115.27L1347.67 2112.3C1347.43 2112.1 1347.2 2111.91 1346.97 2111.71C1327.1 2094.85 1314.6 2069.06 1312.69 2040.94L1298.25 1831.28C1296.35 1803.83 1304.7 1777.64 1319.93 1758.24Z" fill="#371A45"/>
<path d="M1450.46 1924.41C1450.96 1932.16 1445.66 1995.59 1445.66 1995.59C1445.66 1995.59 1428.76 1997.08 1407.99 1998.91C1382.05 2001.19 1359.01 1971.54 1356.53 1932.67C1354.04 1893.81 1373.05 1860.46 1398.99 1858.17C1416.5 1856.63 1436.66 1854.86 1436.66 1854.86C1436.66 1854.86 1449.65 1911.77 1450.46 1924.41Z" fill="#22A7F0"/>
<g opacity="0.25">
<path d="M1450.46 1924.41C1450.96 1932.16 1445.66 1995.59 1445.66 1995.59C1445.66 1995.59 1428.76 1997.08 1407.99 1998.91C1382.05 2001.19 1359.01 1971.54 1356.53 1932.67C1354.04 1893.81 1373.05 1860.46 1398.99 1858.17C1416.5 1856.63 1436.66 1854.86 1436.66 1854.86C1436.66 1854.86 1449.65 1911.77 1450.46 1924.41Z" fill="#371A45"/>
</g>
<path d="M1405.14 2010.85C1393.93 2010.85 1383.05 2006.56 1373.47 1998.33C1357.19 1984.35 1346.44 1960.08 1344.74 1933.43C1341.81 1887.52 1365.18 1849.29 1397.96 1846.41L1424.26 1844.09C1436.87 1842.98 1448.15 1851.9 1451.1 1865.3C1458.03 1896.71 1461.78 1916.34 1462.25 1923.65C1462.25 1923.65 1462.25 1923.66 1462.25 1923.66C1462.36 1925.42 1462.7 1930.76 1458.53 1983.06C1457.45 1996.64 1447.63 2007.28 1435.19 2008.37L1409.03 2010.68C1407.73 2010.79 1406.43 2010.85 1405.14 2010.85ZM1426.31 1867.62L1400.03 1869.94C1380.8 1871.63 1366.27 1900.02 1368.31 1931.92C1369.62 1952.36 1377.3 1970.49 1388.86 1980.41C1392.87 1983.86 1399.28 1987.83 1406.96 1987.14L1433.12 1984.84C1433.5 1984.8 1434.79 1983.6 1434.99 1981.17C1438.78 1933.49 1438.72 1926.15 1438.68 1925.15C1438.3 1919.36 1434.32 1898.89 1428.04 1870.39C1427.61 1868.47 1426.57 1867.68 1426.31 1867.62Z" fill="#371A45"/>
<path d="M1444.17 1995.78C1470.17 1994.62 1489.85 1962.14 1488.11 1923.22C1486.38 1884.31 1463.9 1853.7 1437.9 1854.86C1411.9 1856.02 1392.23 1888.5 1393.96 1927.42C1395.69 1966.33 1418.17 1996.94 1444.17 1995.78Z" fill="#22A7F0"/>
<g opacity="0.7">
<path d="M1488.05 1935.64C1481.54 1904.08 1461.14 1881.78 1438.53 1883.78C1415.82 1885.78 1398.47 1911.5 1396.11 1943.93C1395.15 1939.27 1394.5 1934.4 1394.18 1929.36C1391.73 1890.49 1410.74 1857.15 1436.68 1854.87C1462.62 1852.6 1485.65 1882.21 1488.14 1921.08C1488.46 1926.06 1488.42 1930.93 1488.05 1935.64Z" fill="white"/>
</g>
<g opacity="0.25">
<path d="M1445.68 1995.57C1419.75 1997.9 1396.67 1968.23 1394.18 1929.36C1393.62 1920.43 1394.18 1911.82 1395.7 1903.76C1404.15 1929.58 1422.47 1946.8 1442.45 1945.01C1462.44 1943.22 1478.31 1923.08 1483.39 1896.12C1485.93 1903.76 1487.59 1912.2 1488.14 1921.08C1490.63 1959.95 1471.62 1993.3 1445.68 1995.57Z" fill="#371A45"/>
</g>
<path d="M1442.81 2007.53C1431.6 2007.53 1420.73 2003.25 1411.14 1995.02C1394.86 1981.04 1384.12 1956.77 1382.41 1930.11C1379.48 1884.2 1402.85 1845.98 1435.63 1843.09C1448.23 1841.97 1460.5 1846.26 1471.19 1855.44C1487.48 1869.42 1498.22 1893.69 1499.92 1920.34V1920.34C1502.85 1966.25 1479.47 2004.48 1446.7 2007.36C1445.4 2007.47 1444.1 2007.53 1442.81 2007.53ZM1439.43 1866.55C1438.86 1866.55 1438.29 1866.57 1437.7 1866.63C1418.47 1868.32 1403.95 1896.7 1405.99 1928.61C1407.3 1949.04 1414.98 1967.17 1426.53 1977.1C1430.54 1980.54 1436.92 1984.5 1444.63 1983.83C1463.86 1982.14 1478.38 1953.75 1476.35 1921.84C1475.04 1901.41 1467.36 1883.28 1455.8 1873.36C1452.09 1870.17 1446.35 1866.55 1439.43 1866.55Z" fill="#371A45"/>
<path d="M1554.22 2116.07C1547.96 2116.07 1542.74 2111.16 1542.44 2104.84L1536.18 1976.1C1535.49 1961.92 1541.01 1948.26 1550.95 1939.55L1582.09 1912.24C1586.7 1908.2 1589.28 1901.27 1588.81 1894.17L1577.44 1721.6C1577.01 1715.09 1581.94 1709.46 1588.45 1709.03C1595.02 1708.58 1600.59 1713.54 1601.02 1720.04L1612.39 1892.62C1613.34 1907.12 1607.83 1921.09 1597.66 1930.01L1566.52 1957.31C1562.02 1961.25 1559.43 1968.02 1559.77 1974.95L1566.03 2103.69C1566.35 2110.2 1561.32 2115.74 1554.81 2116.06C1554.61 2116.07 1554.42 2116.07 1554.22 2116.07Z" fill="#371A45"/>
<path d="M908.113 1846.53C908.113 1846.53 875.273 1876.66 875.002 1921.53C874.688 1973.42 905.113 1993.49 905.113 1993.49C905.113 1993.49 1037.74 2061.99 1246.07 2007.06C1246.07 2007.06 1305.49 1920.4 1235.47 1874.79C1235.48 1874.79 1015.1 1914.82 908.113 1846.53Z" fill="white"/>
<g opacity="0.25">
<path d="M875.016 1921.57C874.702 1973.39 905.108 1993.46 905.108 1993.46C905.108 1993.46 1037.71 2061.98 1246.09 2007.04C1246.09 2007.04 1265.62 1978.47 1269.05 1945.59C1268.11 1947.24 1267.49 1948.1 1267.49 1948.1C1115.21 1988.28 1003.38 1962.47 954.247 1945.67C920.115 1934.01 896.631 1901.41 896.416 1864.18C896.413 1863.67 896.413 1863.15 896.416 1862.63C896.411 1861.77 896.406 1860.9 896.533 1860.07C887.066 1873.09 875.16 1894.68 875.016 1921.57Z" fill="#371A45"/>
</g>
<path d="M1086.49 2043.54C971.163 2043.54 902.222 2008.88 898.228 2006.81C897.754 2006.57 897.296 2006.3 896.856 2006.01C895.332 2005.01 859.644 1980.78 860.001 1921.45C860.309 1870.61 896.432 1836.89 897.97 1835.48C902.985 1830.89 910.455 1830.23 916.183 1833.89C1017.05 1898.26 1230.65 1860.42 1232.79 1860.03C1236.57 1859.35 1240.45 1860.13 1243.66 1862.22C1265.12 1876.2 1278.31 1894.91 1282.86 1917.82C1292.32 1965.42 1259.83 2013.51 1258.44 2015.54C1256.41 2018.51 1253.37 2020.64 1249.89 2021.56C1188.53 2037.74 1133.63 2043.54 1086.49 2043.54ZM912.896 1980.6C924.605 1986.17 1048.87 2041.73 1236.5 1994.04C1243.18 1982.64 1259.06 1951.69 1253.42 1923.56C1250.77 1910.36 1243.72 1899.54 1231.92 1890.61C1195.46 1896.57 1015.05 1922.18 911.09 1865.69C902.76 1876.27 890.152 1896.43 890.001 1921.63C889.766 1960.53 909.029 1977.57 912.896 1980.6Z" fill="#371A45"/>
<path d="M1002.5 1760.5C806.699 1914.75 567.199 1965.4 310.299 1955.95C223.149 1952.75 142.049 1909.65 92.4988 1837.9C74.5988 1811.95 59.6488 1783.8 48.1488 1755.25C45.2988 1748.15 42.6488 1741.05 40.1988 1733.95C39.4488 1731.75 38.6988 1729.55 37.9988 1727.4C26.8488 1692.95 20.7988 1658.65 20.4488 1627.25C19.6988 1554.7 97.0488 1509.1 159.549 1545.9C186.749 1561.9 211.799 1586.95 237.499 1610.5C509.249 1630.9 713.399 1542.5 862.499 1365.5L970.899 1671.4L1002.5 1760.5Z" fill="white"/>
<path d="M875.807 1376.71C715.891 1570.81 482.533 1648.26 236.197 1627.85C232.141 1627.56 228.511 1625.89 225.739 1623.33C198.809 1599.79 175.501 1575.63 146.352 1560.28C115.774 1543.53 74.5962 1553.88 54.7332 1582.35C38.0342 1604.14 39.9122 1632.67 43.4302 1658.48C49.4782 1702.83 64.6352 1745.87 85.6142 1785.47C134.591 1883.47 226.006 1938.06 335.573 1935.47C356.361 1936.22 384.804 1935.89 405.599 1935.72C537.295 1933.06 669.163 1911.1 792.169 1863.59C864.872 1835.72 933.564 1799.52 998.929 1755.97C1001.59 1754.2 1005.18 1754.91 1006.95 1757.57C1008.55 1759.97 1008.12 1763.13 1006.07 1765.03C935.772 1830.25 850.417 1879.57 760.553 1913.4C640.071 1957.93 510.64 1976.03 382.648 1977.69C370.689 1977.99 346.631 1977.9 334.677 1977.51C185.817 1980.29 79.7632 1896.52 27.5022 1760.14C15.3672 1729.16 6.65415 1696.91 2.47915 1663.75C-2.78885 1627.76 -0.934855 1588.22 22.6591 1558.58C58.1841 1510.62 126.529 1499.77 175.387 1533.71C203.302 1552.02 225.641 1575.53 249.257 1597.67L238.8 1593.15C295.983 1597.21 353.404 1596.8 410.043 1590.23C523.093 1577.58 632.999 1537.91 724.977 1470.66C770.946 1437.37 812.458 1397.9 849.191 1354.29C863.969 1337.4 890.33 1358.26 875.807 1376.71Z" fill="#371A45"/>
<path d="M347.5 1750.5C343.875 1645.37 319.985 1586.17 289.416 1570.19C272.837 1561.52 252.619 1572.97 250.345 1591.53C246.662 1621.6 240.3 1649.12 227.5 1670.5C206.326 1684.8 177.5 1710.5 172.5 1750.5L347.5 1750.5Z" fill="white"/>
<path d="M166.979 1749.81C167.101 1713.06 190.037 1678.97 217.761 1656.08L212.568 1661.56C218.115 1651.42 222.365 1639.9 225.446 1627.66C230.877 1610.52 229.591 1589.51 237.549 1573.23C248.363 1552.77 275.876 1543.07 296.755 1554.26C322.676 1568.27 335.903 1597.28 343.947 1623.21C356.274 1664.44 358.57 1708.11 353.713 1750.28C353.293 1753.73 350.156 1756.19 346.706 1755.77C343.928 1755.43 341.779 1753.33 341.286 1750.71C335.932 1723.56 331.337 1696.81 325.08 1670.92C317.623 1642.39 309.256 1608.71 286.585 1589.17C283.749 1587 281.224 1585.21 277.968 1585.01C273.416 1584.77 268.701 1589.12 268.315 1593.82C266.601 1608.04 264.284 1622.44 260.29 1636.85C256.278 1651.46 250.772 1666.43 241.982 1680.15C240.739 1682.12 239.061 1683.75 237.226 1684.93C223.613 1691.8 210.861 1700.38 200.412 1711.36C189.948 1722.29 182.011 1735.8 178.019 1751.19C176.513 1757.55 166.872 1756.42 166.979 1749.81Z" fill="#371A45"/>
<path d="M658.403 1942.29C658.374 1942.29 658.339 1942.29 658.305 1942.29C648.696 1942.24 640.947 1934.4 641 1924.79C641.566 1824.68 603.29 1652.15 519.345 1599.76C511.191 1594.67 508.71 1583.94 513.798 1575.79C518.881 1567.62 529.623 1565.15 537.772 1570.23C634.017 1630.3 676.429 1813.84 675.804 1924.99C675.752 1934.57 667.968 1942.29 658.403 1942.29Z" fill="#371A45"/>
<g opacity="0.25">
<path d="M50.05 1722.15C49.1 1730.3 48.5 1738.4 48.25 1746.55C45.55 1742.35 42.85 1738.15 40.2 1733.95C38.95 1732 37.75 1730 36.5 1728.05L38 1727.4L50.05 1722.15Z" fill="#371A45"/>
</g>
<g opacity="0.25">
<path d="M1002.5 1760.5C806.698 1914.75 567.198 1965.4 310.298 1955.95C223.148 1952.75 142.048 1909.65 92.4984 1837.9C74.5984 1811.95 59.6484 1783.8 48.1484 1755.25C48.1484 1752.35 48.1984 1749.45 48.2484 1746.55C67.3484 1776.05 88.2484 1804.65 116.648 1824.95C136.898 1839.45 160.298 1849.1 184.148 1856.25C301.048 1891.3 426.598 1867.15 545.598 1840.2C675.298 1810.85 807.348 1777.1 917.398 1702.45C933.948 1691.25 952.198 1678.8 970.898 1671.4L1002.5 1760.5Z" fill="#371A45"/>
</g>
<path d="M1021.38 1454.75C796.285 1454.75 581.94 1349.55 447.145 1168.4C335.138 1017.94 289.049 833.377 317.379 648.719C345.934 462.586 446.476 298.702 600.485 187.252C660.592 143.819 726.276 110.199 795.71 87.323C803.327 84.733 811.218 82.277 819.826 79.821C841.34 73.517 863.327 68.183 885.153 63.971C935.363 54.296 986.911 50.016 1038.28 51.202C1089.19 52.337 1140.11 58.895 1189.63 70.692C1205.52 74.466 1221.3 78.778 1236.5 83.507C1260.19 90.887 1283.27 99.374 1305.11 108.729C1420.54 157.787 1521.06 236.817 1595.81 337.276C1725.09 510.933 1766.03 729.957 1708.13 938.184C1676.02 1053.62 1614.11 1159.56 1529.09 1244.55C1511.1 1262.52 1492.05 1279.63 1472.47 1295.42C1463.51 1302.68 1453.69 1310.21 1442.48 1318.42C1411.85 1340.57 1379.37 1360.37 1345.93 1377.28C1317.94 1391.53 1288.44 1404.1 1258.27 1414.65C1222.95 1427.02 1186.13 1436.71 1148.83 1443.43C1135.47 1445.79 1121.86 1447.83 1108.35 1449.5C1079.29 1453.02 1050.23 1454.75 1021.38 1454.75ZM1021.39 54.508C975.835 54.508 930.313 58.837 885.816 67.408C864.097 71.602 842.217 76.91 820.797 83.184C812.237 85.628 804.396 88.067 796.818 90.642C727.712 113.411 662.35 146.868 602.536 190.088C449.294 300.984 349.25 464.05 320.842 649.251C292.654 832.974 338.508 1016.6 449.958 1166.31C584.074 1346.55 797.399 1451.24 1021.37 1451.25C1050.11 1451.25 1078.99 1449.53 1107.93 1446.02C1121.36 1444.37 1134.92 1442.33 1148.21 1439.98C1185.33 1433.29 1221.97 1423.66 1257.11 1411.35C1287.13 1400.85 1316.49 1388.33 1344.35 1374.16C1377.63 1357.33 1409.95 1337.62 1440.42 1315.59C1451.58 1307.42 1461.35 1299.93 1470.27 1292.69C1489.76 1276.98 1508.71 1259.95 1526.62 1242.07C1611.21 1157.51 1672.81 1052.1 1704.75 937.246C1762.36 730.068 1721.63 512.148 1592.99 339.365C1518.62 239.407 1418.6 160.766 1303.74 111.948C1282 102.639 1259.03 94.194 1235.46 86.85C1220.33 82.146 1204.64 77.856 1188.82 74.099C1139.54 62.358 1088.86 55.832 1038.2 54.702C1032.6 54.574 1027 54.508 1021.39 54.508Z" fill="#371A45"/>
<g opacity="0.25">
<path d="M448.549 1167.34C605.941 1378.91 861.337 1477.68 1108.15 1447.74C1121.64 1446.1 1135.09 1444.08 1148.5 1441.7C1185.34 1435.08 1221.85 1425.53 1257.68 1413.01C1287.34 1402.61 1316.62 1390.24 1345.13 1375.74C1378.29 1358.98 1410.46 1339.43 1441.46 1317.02C1451.66 1309.5 1461.69 1301.9 1471.38 1294.08C1491.3 1278 1510.07 1261.02 1527.85 1243.3C1614.9 1156.28 1675.06 1050.63 1706.45 937.695C1723.71 875.677 1732.29 811.475 1731.89 747.094C1699.44 854.169 1640.87 954.131 1557.82 1037.16C1540.08 1054.93 1521.28 1071.86 1501.36 1087.93C1491.71 1095.77 1481.68 1103.36 1471.43 1110.88C1440.43 1133.29 1408.26 1152.84 1375.15 1169.6C1346.59 1184.09 1317.36 1196.47 1287.7 1206.88C1251.87 1219.4 1215.32 1228.93 1178.52 1235.56C1165.06 1237.94 1151.61 1239.95 1138.12 1241.6C891.31 1271.54 635.959 1172.77 478.522 961.194C386.646 837.793 341.97 694.527 341.11 552.308C279.428 755.414 311.63 983.442 448.549 1167.34Z" fill="#371A45"/>
</g>
<path d="M1021.39 1466.49C792.613 1466.49 574.742 1359.54 437.73 1175.41C323.829 1022.41 276.968 834.725 305.777 646.939C334.81 457.679 437.027 291.048 593.599 177.742C654.693 133.599 721.456 99.4269 792.037 76.1719C799.732 73.5549 807.809 71.0429 816.603 68.5329C838.395 62.1489 860.739 56.7259 882.926 52.4439C933.961 42.6099 986.285 38.2639 1038.56 39.4659C1090.27 40.6209 1142.03 47.2859 1192.35 59.2729C1208.5 63.1079 1224.53 67.4909 1239.99 72.2979C1264.06 79.7999 1287.52 88.4259 1309.73 97.9379C1427.05 147.799 1529.24 228.143 1605.22 330.269C1736.69 506.856 1778.32 729.581 1719.43 941.329C1686.79 1058.71 1623.84 1166.43 1537.39 1252.85C1519.1 1271.11 1499.74 1288.51 1479.84 1304.55C1470.75 1311.92 1460.78 1319.56 1449.41 1327.89C1418.23 1350.44 1385.22 1370.57 1351.23 1387.76C1322.79 1402.22 1292.81 1415.01 1262.14 1425.73C1226.25 1438.31 1188.82 1448.15 1150.91 1454.98C1137.31 1457.39 1123.49 1459.46 1109.79 1461.15C1080.24 1464.73 1050.73 1466.49 1021.39 1466.49ZM1021.4 66.2459C976.578 66.2459 931.802 70.5009 888.038 78.9339C866.681 83.0579 845.167 88.2769 824.098 94.4489C815.646 96.8629 807.99 99.2439 800.597 101.756C732.531 124.183 668.248 157.091 609.41 199.603C458.736 308.639 360.372 468.961 332.442 651.031C304.737 831.624 349.815 1012.13 459.371 1159.3C608.194 1359.3 856.182 1464.69 1106.52 1434.37C1119.73 1432.74 1133.08 1430.74 1146.17 1428.42C1182.64 1421.85 1218.67 1412.38 1253.23 1400.27C1282.76 1389.94 1311.63 1377.63 1339.02 1363.7C1371.78 1347.14 1403.56 1327.75 1433.54 1306.07C1444.49 1298.06 1454.11 1290.68 1462.88 1283.57C1482.07 1268.1 1500.71 1251.35 1518.32 1233.77C1601.48 1150.64 1662.04 1047.01 1693.44 934.103C1750.08 730.446 1710.03 516.23 1583.58 346.376C1510.45 248.082 1412.09 170.756 1299.14 122.753C1277.75 113.588 1255.16 105.282 1231.97 98.0579C1217.1 93.4339 1201.67 89.2149 1186.11 85.5209C1137.62 73.9679 1087.77 67.5499 1037.94 66.4389C1032.43 66.3099 1026.91 66.2459 1021.4 66.2459Z" fill="#371A45"/>
<path d="M1021.4 1470.4C791.387 1470.4 572.344 1362.88 434.59 1177.74C320.059 1023.9 272.94 835.175 301.909 646.347C331.103 456.044 433.877 288.498 591.308 174.574C652.729 130.192 719.848 95.8391 790.81 72.4571C798.535 69.8321 806.669 67.3011 815.527 64.7711C837.407 58.3601 859.878 52.9081 882.187 48.6041C933.486 38.7141 986.127 34.3291 1038.64 35.5551C1090.64 36.7151 1142.66 43.4141 1193.26 55.4671C1209.48 59.3221 1225.6 63.729 1241.15 68.563C1265.35 76.105 1288.94 84.776 1311.27 94.342C1429.21 144.469 1531.96 225.25 1608.36 327.933C1740.56 505.496 1782.42 729.454 1723.2 942.379C1690.38 1060.41 1627.08 1168.73 1540.15 1255.62C1521.77 1273.98 1502.3 1291.47 1482.29 1307.6C1473.16 1315 1463.15 1322.68 1451.72 1331.05C1420.36 1353.73 1387.17 1373.97 1352.99 1391.25C1324.41 1405.79 1294.26 1418.64 1263.44 1429.43C1227.34 1442.07 1189.72 1451.96 1151.61 1458.83C1137.93 1461.25 1124.04 1463.33 1110.27 1465.03C1080.57 1468.63 1050.89 1470.4 1021.4 1470.4ZM1021.4 70.1581C976.822 70.1581 932.295 74.3911 888.775 82.7781C867.54 86.8771 846.148 92.0681 825.196 98.2051C816.783 100.607 809.185 102.971 801.856 105.461C734.136 127.773 670.21 160.498 611.7 202.776C461.886 311.191 364.078 470.598 336.309 651.626C308.765 831.177 353.584 1010.64 462.51 1156.96C610.493 1355.84 857.119 1460.67 1106.05 1430.49C1119.18 1428.87 1132.46 1426.88 1145.49 1424.57C1181.74 1418.04 1217.57 1408.62 1251.94 1396.58C1281.31 1386.31 1310.01 1374.07 1337.25 1360.21C1369.83 1343.74 1401.44 1324.46 1431.24 1302.91C1442.12 1294.94 1451.69 1287.6 1460.42 1280.53C1479.5 1265.15 1498.04 1248.49 1515.56 1231C1598.24 1148.35 1658.45 1045.32 1689.67 933.054C1745.98 730.574 1706.17 517.588 1580.44 348.713C1507.72 250.976 1409.92 174.086 1297.61 126.355C1276.32 117.236 1253.86 108.979 1230.8 101.794C1216.02 97.1971 1200.67 93.0021 1185.2 89.3281C1136.98 77.8391 1087.41 71.4571 1037.85 70.3511C1032.37 70.2211 1026.88 70.1581 1021.4 70.1581Z" fill="#371A45"/>
<path d="M304.001 711C362.288 218.446 922.5 -81 1334.66 125.001L1344.03 137.342C891.601 33.0158 465.837 405.529 397.5 902.5C353.928 813.704 291.777 814.417 304.001 711Z" fill="white"/>
<path d="M304.001 711C362.288 218.446 922.5 -81 1334.66 125.001L1344.03 137.342C891.601 33.0158 465.837 405.529 397.5 902.5C353.928 813.704 291.777 814.417 304.001 711Z" fill="white"/>
<path d="M1112.56 1430.01C997.963 1430.01 886.132 1403.86 787.895 1352.33C631.621 1270.34 520.717 1133.02 467.177 955.195C418.007 791.853 442.162 614.065 535.195 454.58C638.525 277.446 815.293 145.683 1008.06 102.119C1115.17 77.9101 1216.04 74.9321 1307.83 93.2761C1308.99 93.5081 1310.13 93.8591 1311.22 94.3231C1429.21 144.469 1531.96 225.251 1608.36 327.934C1740.56 505.497 1782.42 729.455 1723.2 942.38C1690.38 1060.41 1627.08 1168.73 1540.15 1255.62C1521.77 1273.98 1502.3 1291.47 1482.29 1307.6C1473.16 1315 1463.14 1322.69 1451.72 1331.05C1420.36 1353.74 1387.17 1373.97 1352.99 1391.25C1352.19 1391.66 1351.35 1392 1350.48 1392.28C1272.26 1417.52 1191.75 1430.01 1112.56 1430.01ZM1184.43 116.234C1130.6 116.234 1074.2 122.85 1015.73 136.063C832.211 177.54 663.808 303.167 565.258 472.115C477.143 623.167 454.145 791.165 500.502 945.162C551.283 1113.83 656.254 1243.97 804.062 1321.51C961.577 1404.14 1156.3 1417.98 1338.5 1359.58C1370.61 1343.26 1401.81 1324.2 1431.24 1302.91C1442.12 1294.94 1451.69 1287.6 1460.41 1280.53C1479.5 1265.15 1498.04 1248.49 1515.56 1231C1598.24 1148.35 1658.45 1045.32 1689.67 933.054C1745.98 730.574 1706.17 517.588 1580.44 348.713C1508.07 251.452 1410.88 174.838 1299.26 127.055C1262.52 119.84 1224.17 116.234 1184.43 116.234Z" fill="#371A45"/>
<path d="M241.618 969.899C264.998 1106.03 366.159 1206.46 467.598 1194.19C569.037 1181.92 632.31 1061.6 608.93 925.469C608.8 924.614 608.62 923.712 608.442 922.859C584.255 788.05 483.675 688.983 382.949 701.178C304.586 710.654 249.004 784.616 238.533 880.52C235.467 908.757 236.304 938.941 241.618 969.899Z" fill="white"/>
<g opacity="0.25">
<path d="M241.619 969.899C264.999 1106.03 366.16 1206.46 467.599 1194.19C569.038 1181.92 632.311 1061.6 608.931 925.469C608.801 924.614 608.621 923.712 608.443 922.859C599.69 938.178 584.697 954.035 560.384 952.244C517.8 949.087 428.851 870.491 428.851 870.491C428.851 870.491 346.29 874.303 238.536 880.52C235.469 908.757 236.305 938.941 241.619 969.899Z" fill="#371A45"/>
</g>
<path d="M450.987 1212.58C347.178 1212.58 247.93 1109.58 224.449 972.85V972.848C210.079 889.186 226.007 808.759 268.136 752.186C297.399 712.897 336.368 689.286 380.841 683.905C491.202 670.528 601.193 777.594 626.075 922.511C640.445 1006.17 624.517 1086.6 582.384 1143.17C553.126 1182.46 514.156 1206.07 469.689 1211.45C463.453 1212.21 457.208 1212.58 450.987 1212.58ZM258.746 966.957C280.548 1093.88 373.258 1188.06 465.509 1176.9C500.284 1172.69 531.046 1153.84 554.474 1122.39C590.407 1074.14 604.352 1001.62 591.779 928.4C569.977 801.476 477.14 707.279 385.021 718.456C350.246 722.665 319.479 741.518 296.051 772.975C260.118 821.217 246.177 893.741 258.746 966.957Z" fill="#371A45"/>
<path d="M422.34 1169.96C502.429 1148.14 543.95 1044.56 515.081 938.615C486.211 832.669 397.883 764.474 317.795 786.297C237.706 808.121 196.185 911.699 225.054 1017.65C253.924 1123.59 342.252 1191.79 422.34 1169.96Z" fill="white"/>
<path d="M392.495 1175.88C383.432 1175.88 374.194 1174.85 364.839 1172.78C316.953 1162.16 273.169 1125.45 244.717 1072.07C193.677 976.293 208.247 856.186 277.202 804.333C305.869 782.773 339.844 775.554 375.425 783.437C423.316 794.052 467.095 830.759 495.547 884.145C546.592 979.916 532.022 1100.02 463.067 1151.88C441.928 1167.77 417.915 1175.88 392.495 1175.88ZM247.929 1070.36C275.878 1122.8 318.779 1158.84 365.624 1169.22C400.16 1176.87 433.085 1169.87 460.878 1148.97C528.461 1098.15 542.572 980.112 492.333 885.857C464.384 833.411 421.488 797.376 374.638 786.99C340.112 779.334 307.182 786.34 279.389 807.244C211.806 858.063 197.695 976.095 247.929 1070.36Z" fill="#371A45"/>
<g opacity="0.25">
<path d="M524.47 1037.55C527.471 1000.02 520.038 961.55 504.968 926.787C490.814 1011.81 422.292 1057.03 345.564 1028.73C295.976 1010.46 254.386 965.645 231.095 911.84C230.167 917.197 229.518 922.775 229.051 928.465C221.455 1024.04 281.425 1125.95 363.015 1156.06C444.605 1186.18 516.867 1133.08 524.47 1037.55Z" fill="#371A45"/>
</g>
<path d="M393.012 1191.98C311.782 1191.98 232.499 1105.54 212.509 991.847C200.038 920.914 212.939 851.356 247.016 805.782C269.062 776.3 298.178 758.741 331.22 755.006C416.738 745.353 503.432 834.786 524.462 954.418C536.933 1025.35 524.032 1094.9 489.95 1140.48C467.904 1169.96 438.788 1187.52 405.746 1191.26C401.504 1191.74 397.256 1191.98 393.012 1191.98ZM246.787 985.822C264.692 1087.68 334.355 1164.27 401.836 1156.68C425.098 1154.05 445.928 1141.24 462.08 1119.64C490.518 1081.61 501.025 1022.1 490.185 960.444C472.28 858.593 402.802 781.892 335.127 789.59C311.87 792.219 291.04 805.027 274.893 826.626C246.455 864.655 235.947 924.166 246.787 985.822Z" fill="#371A45"/>
<path d="M504 1211C583.5 1326.5 795.326 1471.92 1034 1456.5C1139 1456.5 1370.02 1415.62 1421 1315.5C1344.27 1380.75 1091.5 1420 1058 1401.5C810.809 1417.47 637.5 1273.5 566.999 1151C560.981 1173.18 477.001 1206.5 504 1211Z" fill="#F9FBFC"/>
</svg>
