<svg width="2689" height="1388" viewBox="0 0 2689 1388" fill="none" xmlns="http://www.w3.org/2000/svg">
<path d="M2351.91 271.439L2304.46 308.28C2299.75 311.905 2296.22 316.754 2294.13 322.146C2292.46 326.406 2291.73 331.073 2292 335.786L2292.55 345.03L2295.45 395.737C2297.03 422.563 2267.13 439.556 2244.83 424.466L2195.12 390.752C2186.28 384.771 2175.09 383.502 2165.12 387.399L2109.16 409.195C2084.1 418.983 2058.72 395.782 2066.2 369.952L2082.92 312.267C2085.87 301.981 2083.6 290.924 2076.85 282.676L2038.79 236.229C2022.47 216.291 2034.8 186.746 2059.49 183.483C2060.58 183.347 2061.71 183.256 2062.85 183.211L2122.89 181.263C2133.54 180.9 2143.37 175.327 2149.13 166.354L2175.18 125.797L2181.57 115.828C2196.12 93.1714 2230.28 97.0224 2239.44 122.308L2259.83 178.815C2263.45 188.83 2271.79 196.442 2282.12 199.161L2340.22 214.387C2366.23 221.23 2373.12 254.899 2351.91 271.439Z" fill="#FFF06D"/>
<g opacity="0.6">
<path d="M2351.91 271.439L2304.46 308.28C2299.75 311.905 2296.22 316.754 2294.13 322.146C2292.32 320.696 2290.55 319.155 2288.79 317.615C2285.11 314.352 2281.35 310.863 2279.81 306.241C2277.91 300.531 2279.81 294.051 2283.53 289.384C2287.29 284.671 2292.59 281.499 2298.08 279.007C2306.87 275.02 2317.65 271.258 2320.28 261.924C2322.23 255.036 2318.47 247.559 2312.85 243.118C2307.23 238.677 2300.07 236.729 2293.09 235.233C2283.21 233.058 2273.15 231.562 2263.05 230.701C2256.07 230.112 2248.86 229.795 2242.38 227.166C2228.06 221.321 2220.41 205.596 2217.28 190.507C2214.11 175.372 2214.2 159.557 2209.17 144.966C2208.04 141.658 2206.54 138.305 2204.05 135.858C2201.6 133.547 2198.38 132.187 2195.21 131.009C2188.6 128.607 2181.93 126.931 2175.18 125.798L2181.57 115.829C2196.12 93.1724 2230.28 97.0233 2239.44 122.309L2259.83 178.816C2263.46 188.831 2271.79 196.443 2282.12 199.162L2340.22 214.388C2366.23 221.23 2373.12 254.899 2351.91 271.439Z" fill="white"/>
</g>
<g opacity="0.2">
<path d="M2295.45 395.737C2297.03 422.563 2267.13 439.556 2244.83 424.466L2195.12 390.752C2186.28 384.771 2175.09 383.502 2165.12 387.399L2109.16 409.195C2084.1 418.983 2058.72 395.782 2066.2 369.952L2082.92 312.267C2085.87 301.981 2083.6 290.924 2076.85 282.676L2038.79 236.229C2022.47 216.291 2034.8 186.746 2059.49 183.483C2059.72 184.706 2059.99 185.975 2060.45 187.425C2063.35 197.122 2069.73 205.959 2077.12 212.756C2091.35 225.897 2109.52 235.323 2119.72 251.727C2134.08 274.883 2128.6 304.428 2126.33 331.571C2125.97 336.329 2125.83 341.631 2128.92 345.301C2131.86 348.79 2136.89 349.742 2141.42 349.561C2156.65 348.881 2170.7 338.278 2185.83 340C2206.54 342.356 2244.17 394.586 2262.38 384.03C2276.89 375.619 2261.29 337.785 2292.55 345.03L2295.45 395.737Z" fill="#786234"/>
</g>
<path d="M2263.04 445.087C2253.75 445.087 2244.5 442.328 2236.44 436.857L2186.74 403.149C2181.97 399.919 2175.93 399.238 2170.57 401.328L2114.62 423.161C2097.68 429.77 2078.82 426.259 2065.39 413.991C2051.96 401.725 2046.76 383.256 2051.82 365.788L2068.53 308.1C2070.13 302.573 2068.9 296.611 2065.26 292.155L2027.21 245.698C2015.69 231.631 2013.19 212.605 2020.71 196.045C2028.23 179.487 2044.19 168.836 2062.37 168.247L2122.39 166.306C2128.15 166.121 2133.43 163.118 2136.54 158.274L2168.98 107.725C2178.8 92.4218 2196.07 84.1698 2214.2 86.2058C2232.27 88.2398 2247.33 100.129 2253.5 117.234L2273.89 173.718C2275.85 179.131 2280.34 183.235 2285.91 184.692L2344 199.914C2361.6 204.526 2374.79 218.456 2378.44 236.271C2382.09 254.086 2375.44 272.084 2361.08 283.241L2313.66 320.092C2309.12 323.625 2306.6 329.164 2306.94 334.907L2310.41 394.865C2311.46 413.019 2302.29 429.875 2286.48 438.852C2279.14 443.019 2271.08 445.087 2263.04 445.087ZM2176.92 370.189C2186.29 370.189 2195.58 372.962 2203.55 378.368L2253.24 412.076C2258.88 415.894 2265.77 416.177 2271.69 412.813C2277.61 409.454 2280.91 403.389 2280.51 396.595L2277.04 336.639C2276.14 321.06 2282.96 306.033 2295.28 296.451L2342.71 259.598C2348.08 255.421 2350.48 248.949 2349.11 242.281C2347.74 235.614 2342.99 230.601 2336.41 228.878L2278.32 213.656C2263.21 209.698 2251.03 198.568 2245.73 183.885L2225.33 127.396C2225.33 127.396 2225.33 127.396 2225.33 127.394C2223.02 120.995 2217.61 116.72 2210.85 115.958C2204.1 115.194 2197.85 118.16 2194.18 123.893L2161.74 174.44C2153.32 187.577 2138.97 195.724 2123.36 196.232L2063.34 198.173C2056.53 198.393 2050.79 202.223 2047.97 208.422C2045.16 214.618 2046.06 221.462 2050.37 226.728L2088.42 273.188C2098.31 285.266 2101.63 301.43 2097.29 316.425L2080.58 374.115C2078.69 380.651 2080.56 387.294 2085.59 391.886C2090.62 396.478 2097.41 397.736 2103.73 395.265L2159.68 373.434C2165.26 371.259 2171.1 370.189 2176.92 370.189Z" fill="#786234"/>
<path d="M335.565 595.622L288.12 632.463C283.408 636.088 279.873 640.937 277.789 646.329C276.112 650.589 275.387 655.256 275.659 659.969L276.203 669.213L279.103 719.92C280.69 746.746 250.781 763.739 228.487 748.649L178.777 714.935C169.94 708.953 158.748 707.685 148.778 711.582L92.8148 733.378C67.7558 743.166 42.3788 719.965 49.8558 694.136L66.5768 636.451C69.5218 626.165 67.2558 615.108 60.5038 606.861L22.4398 560.413C6.12582 540.475 18.4518 510.93 43.1478 507.667C44.2358 507.531 45.3678 507.441 46.5008 507.395L106.543 505.447C117.192 505.084 127.025 499.511 132.78 490.538L158.836 449.982L165.225 440.013C179.771 417.356 213.938 421.207 223.092 446.493L243.483 503C247.108 513.015 255.446 520.628 265.777 523.346L323.871 538.572C349.884 545.414 356.772 579.083 335.565 595.622Z" fill="#FFF06D"/>
<g opacity="0.6">
<path d="M335.565 595.622L288.12 632.463C283.408 636.088 279.873 640.937 277.789 646.329C275.976 644.879 274.209 643.338 272.442 641.798C268.771 638.536 265.011 635.046 263.47 630.424C261.567 624.714 263.47 618.234 267.186 613.567C270.947 608.854 276.249 605.682 281.732 603.19C290.523 599.203 301.308 595.441 303.936 586.107C305.885 579.219 302.124 571.742 296.505 567.301C290.886 562.86 283.726 560.912 276.747 559.416C266.869 557.241 256.809 555.745 246.704 554.885C239.725 554.296 232.52 553.979 226.04 551.35C211.721 545.505 204.062 529.781 200.935 514.691C197.763 499.556 197.854 483.741 192.824 469.15C191.691 465.842 190.196 462.489 187.703 460.042C185.256 457.731 182.039 456.372 178.867 455.193C172.251 452.791 165.59 451.115 158.838 449.982L165.227 440.013C179.773 417.356 213.94 421.207 223.094 446.493L243.485 503C247.11 513.015 255.448 520.628 265.779 523.346L323.873 538.572C349.884 545.414 356.772 579.083 335.565 595.622Z" fill="white"/>
</g>
<g opacity="0.2">
<path d="M279.102 719.92C280.689 746.746 250.78 763.739 228.486 748.649L178.776 714.935C169.939 708.953 158.747 707.685 148.777 711.582L92.8139 733.378C67.7549 743.166 42.3778 719.965 49.8548 694.136L66.5758 636.451C69.5208 626.165 67.2548 615.108 60.5028 606.861L22.4389 560.413C6.12486 540.475 18.4508 510.93 43.1468 507.667C43.3728 508.89 43.6448 510.159 44.0988 511.609C46.9988 521.306 53.3878 530.143 60.7738 536.94C75.0028 550.081 93.1739 559.507 103.369 575.911C117.734 599.067 112.251 628.612 109.985 655.755C109.623 660.513 109.487 665.815 112.568 669.485C115.514 672.974 120.543 673.926 125.075 673.745C140.301 673.065 154.348 662.462 169.483 664.184C190.192 666.54 227.826 718.77 246.032 708.214C260.538 699.803 244.94 661.969 276.199 669.214L279.102 719.92Z" fill="#786234"/>
</g>
<path d="M246.692 769.269C237.41 769.269 228.162 766.513 220.095 761.041L170.393 727.33C165.627 724.098 159.578 723.416 154.226 725.509L98.279 747.342C81.341 753.951 62.478 750.44 49.05 738.172C35.622 725.906 30.422 707.437 35.481 689.969L52.185 632.281C53.787 626.754 52.561 620.794 48.918 616.346L10.866 569.879C-0.656983 555.811 -3.148 536.786 4.372 520.226C11.887 503.668 27.849 493.017 46.027 492.428L106.046 490.487C111.798 490.301 117.091 487.299 120.196 482.455L152.633 431.906C162.448 416.598 179.796 408.366 197.843 410.387C215.914 412.421 230.978 424.308 237.154 441.41C237.154 441.41 237.154 441.41 237.154 441.412L257.55 497.899C259.503 503.312 263.995 507.416 269.562 508.873L327.653 524.098C345.246 528.707 358.444 542.638 362.096 560.451C365.743 578.266 359.093 596.264 344.733 607.424L297.316 644.275C292.77 647.808 290.255 653.345 290.592 659.089L294.064 719.05C295.119 737.202 285.944 754.057 270.133 763.034C262.796 767.201 254.729 769.269 246.692 769.269ZM160.579 694.371C169.939 694.371 179.231 697.144 187.2 702.552L236.902 736.26C242.527 740.083 249.431 740.354 255.349 736.995C261.267 733.636 264.568 727.573 264.172 720.779L260.7 660.821C259.797 645.238 266.613 630.211 278.947 620.631L326.364 583.78C331.735 579.603 334.128 573.131 332.761 566.463C331.399 559.796 326.648 554.786 320.066 553.062L261.975 537.837C246.872 533.879 234.69 522.749 229.387 508.066L208.991 451.577C206.681 445.176 201.262 440.901 194.499 440.142C187.726 439.388 181.506 442.349 177.834 448.074L145.397 498.621C136.974 511.758 122.624 519.905 107.013 520.413L46.994 522.354C40.192 522.574 34.45 526.404 31.633 532.603C28.82 538.799 29.719 545.643 34.03 550.909L72.077 597.371C81.97 609.441 85.285 625.606 80.944 640.606L64.24 698.296C62.345 704.832 64.216 711.475 69.245 716.067C74.269 720.659 81.071 721.919 87.39 719.446L143.337 697.615C148.914 695.443 154.759 694.371 160.579 694.371Z" fill="#786234"/>
<path d="M2665.32 724.265L2634.79 747.976C2631.75 750.309 2629.48 753.43 2628.14 756.9C2627.06 759.642 2626.59 762.646 2626.77 765.679L2627.12 771.629L2628.98 804.265C2630 821.531 2610.76 832.468 2596.41 822.756L2564.41 801.057C2558.73 797.207 2551.52 796.39 2545.1 798.899L2509.09 812.927C2492.96 819.227 2476.62 804.294 2481.44 787.67L2492.2 750.543C2494.09 743.922 2492.64 736.806 2488.29 731.498L2463.79 701.604C2453.29 688.771 2461.22 669.755 2477.12 667.656C2477.82 667.568 2478.55 667.51 2479.28 667.481L2517.92 666.227C2524.78 665.994 2531.1 662.406 2534.81 656.632L2551.58 630.529L2555.69 624.113C2565.05 609.53 2587.04 612.009 2592.93 628.284L2606.06 664.653C2608.39 671.099 2613.76 675.998 2620.41 677.748L2657.8 687.548C2674.54 691.95 2678.97 713.62 2665.32 724.265Z" fill="#FFF06D"/>
<g opacity="0.6">
<path d="M2660.48 729.108L2629.94 752.819C2626.91 755.152 2624.64 758.273 2623.3 761.743C2622.13 760.81 2620.99 759.818 2619.85 758.826C2617.49 756.726 2615.07 754.48 2614.08 751.506C2612.85 747.831 2614.08 743.66 2616.47 740.657C2618.89 737.624 2622.3 735.582 2625.83 733.978C2631.49 731.412 2638.43 728.991 2640.12 722.983C2641.38 718.55 2638.96 713.738 2635.34 710.879C2631.72 708.021 2627.12 706.767 2622.62 705.804C2616.27 704.404 2609.79 703.442 2603.29 702.887C2598.8 702.508 2594.16 702.304 2589.99 700.612C2580.77 696.85 2575.84 686.73 2573.83 677.017C2571.79 667.276 2571.85 657.097 2568.61 647.706C2567.88 645.577 2566.92 643.419 2565.31 641.844C2563.74 640.356 2561.67 639.482 2559.63 638.723C2555.37 637.177 2551.08 636.098 2546.74 635.369L2550.85 628.953C2560.21 614.37 2582.2 616.849 2588.09 633.124L2601.22 669.493C2603.55 675.939 2608.92 680.838 2615.57 682.588L2652.96 692.388C2669.7 696.793 2674.13 718.463 2660.48 729.108Z" fill="white"/>
</g>
<g opacity="0.2">
<path d="M2628.98 804.266C2630 821.532 2610.76 832.469 2596.41 822.757L2564.41 801.058C2558.73 797.208 2551.52 796.391 2545.1 798.9L2509.09 812.928C2492.96 819.228 2476.62 804.295 2481.44 787.671L2492.2 750.544C2494.09 743.923 2492.64 736.807 2488.29 731.499L2463.79 701.605C2453.29 688.772 2461.22 669.756 2477.12 667.657C2477.27 668.444 2477.44 669.261 2477.73 670.194C2479.6 676.435 2483.71 682.122 2488.46 686.497C2497.62 694.955 2509.32 701.021 2515.88 711.579C2525.13 726.483 2521.6 745.498 2520.14 762.968C2519.9 766.03 2519.82 769.443 2521.8 771.805C2523.7 774.051 2526.93 774.663 2529.85 774.546C2539.65 774.109 2548.69 767.284 2558.43 768.392C2571.76 769.909 2595.98 803.525 2607.7 796.73C2617.04 791.317 2607 766.966 2627.12 771.629L2628.98 804.266Z" fill="#786234"/>
</g>
<path d="M2608.12 841.368C2601.1 841.37 2594.11 839.283 2588.01 835.147L2556.02 813.45C2554.4 812.351 2552.36 812.137 2550.55 812.835L2514.54 826.883C2501.72 831.881 2487.46 829.227 2477.32 819.952C2467.17 810.68 2463.24 796.712 2467.06 783.507L2477.81 746.376C2478.35 744.508 2477.94 742.489 2476.71 740.985L2452.21 711.078C2443.5 700.441 2441.62 686.054 2447.3 673.534C2452.99 661.014 2465.06 652.96 2478.8 652.516L2517.43 651.266C2519.38 651.203 2521.17 650.185 2522.22 648.542L2543.09 616.018C2550.51 604.443 2563.65 598.203 2577.28 599.746C2590.95 601.284 2602.34 610.273 2607 623.206L2620.13 659.561C2620.79 661.392 2622.31 662.781 2624.2 663.274L2661.58 673.071C2674.89 676.557 2684.87 687.092 2687.62 700.561C2690.39 714.03 2685.36 727.639 2674.5 736.076L2643.98 759.794C2642.44 760.988 2641.59 762.863 2641.71 764.804L2643.94 803.398C2644.73 817.119 2637.8 829.863 2625.85 836.652C2620.3 839.803 2614.2 841.368 2608.12 841.368ZM2552.7 782.489C2559.78 782.489 2566.81 784.584 2572.84 788.673L2604.82 810.367C2607.47 812.161 2609.88 811.29 2611.06 810.616C2612.26 809.937 2614.23 808.323 2614.05 805.13L2611.81 766.539C2611.13 754.764 2616.28 743.402 2625.6 736.153L2656.13 712.432C2658.65 710.469 2658.57 707.918 2658.29 706.573C2658.02 705.225 2657.09 702.845 2654 702.034L2616.61 692.237C2605.19 689.241 2595.97 680.828 2591.96 669.725L2578.84 633.37C2577.76 630.36 2575.3 629.652 2573.94 629.498C2572.57 629.349 2570.02 629.486 2568.29 632.186L2547.42 664.715C2541.04 674.654 2530.19 680.811 2518.4 681.192L2479.76 682.442C2476.57 682.544 2475.13 684.659 2474.57 685.909C2474 687.161 2473.35 689.63 2475.38 692.108L2499.87 722.01C2507.34 731.131 2509.85 743.353 2506.57 754.698L2495.82 791.834C2494.93 794.908 2496.5 796.919 2497.51 797.847C2498.53 798.777 2500.67 800.152 2503.66 798.989L2539.66 784.939C2543.88 783.297 2548.3 782.489 2552.7 782.489Z" fill="#786234"/>
<path d="M453.07 1249.84L422.534 1273.56C419.501 1275.89 417.226 1279.01 415.885 1282.48C414.806 1285.22 414.339 1288.23 414.514 1291.26L414.864 1297.21L416.73 1329.85C417.751 1347.11 398.502 1358.05 384.153 1348.34L352.159 1326.64C346.471 1322.79 339.268 1321.97 332.851 1324.48L296.832 1338.51C280.704 1344.81 264.371 1329.88 269.183 1313.25L279.945 1276.12C281.84 1269.5 280.382 1262.39 276.037 1257.08L251.538 1227.18C241.038 1214.35 248.971 1195.34 264.866 1193.24C265.566 1193.15 266.295 1193.09 267.024 1193.06L305.668 1191.81C312.522 1191.57 318.851 1187.99 322.555 1182.21L339.325 1156.11L343.438 1149.69C352.8 1135.11 374.791 1137.59 380.682 1153.86L393.806 1190.23C396.139 1196.68 401.505 1201.58 408.155 1203.33L445.545 1213.13C462.287 1217.53 466.72 1239.2 453.07 1249.84Z" fill="#FFF06D"/>
<g opacity="0.6">
<path d="M453.07 1249.84L422.534 1273.56C419.501 1275.89 417.226 1279.01 415.885 1282.48C414.718 1281.55 413.581 1280.56 412.443 1279.56C410.08 1277.46 407.66 1275.22 406.668 1272.24C405.443 1268.57 406.668 1264.4 409.06 1261.39C411.481 1258.36 414.893 1256.32 418.422 1254.71C424.08 1252.15 431.022 1249.73 432.713 1243.72C433.967 1239.29 431.547 1234.47 427.93 1231.62C424.313 1228.76 419.705 1227.5 415.214 1226.54C408.856 1225.14 402.382 1224.18 395.878 1223.62C391.386 1223.24 386.749 1223.04 382.578 1221.35C373.362 1217.59 368.433 1207.47 366.42 1197.75C364.378 1188.01 364.437 1177.83 361.2 1168.44C360.471 1166.31 359.509 1164.16 357.904 1162.58C356.329 1161.09 354.258 1160.22 352.217 1159.46C347.959 1157.91 343.671 1156.83 339.326 1156.11L343.439 1149.69C352.801 1135.11 374.792 1137.59 380.683 1153.86L393.807 1190.23C396.14 1196.68 401.506 1201.57 408.156 1203.32L445.546 1213.12C462.287 1217.53 466.72 1239.2 453.07 1249.84Z" fill="white"/>
</g>
<g opacity="0.2">
<path d="M416.73 1329.84C417.751 1347.11 398.502 1358.05 384.153 1348.34L352.159 1326.64C346.471 1322.79 339.268 1321.97 332.851 1324.48L296.832 1338.51C280.704 1344.81 264.371 1329.87 269.183 1313.25L279.945 1276.12C281.84 1269.5 280.382 1262.39 276.037 1257.08L251.538 1227.18C241.038 1214.35 248.971 1195.34 264.866 1193.24C265.012 1194.02 265.187 1194.84 265.479 1195.77C267.345 1202.01 271.458 1207.7 276.212 1212.08C285.37 1220.53 297.065 1226.6 303.627 1237.16C312.873 1252.06 309.344 1271.08 307.885 1288.55C307.652 1291.61 307.564 1295.02 309.547 1297.38C311.443 1299.63 314.68 1300.24 317.597 1300.13C327.397 1299.69 336.438 1292.86 346.179 1293.97C359.508 1295.49 383.729 1329.1 395.447 1322.31C404.783 1316.9 394.744 1292.55 414.863 1297.21L416.73 1329.84Z" fill="#786234"/>
</g>
<path d="M395.867 1366.95C388.846 1366.95 381.853 1364.86 375.755 1360.73L343.768 1339.03C342.147 1337.93 340.101 1337.71 338.299 1338.41L302.283 1352.46C289.475 1357.46 275.213 1354.8 265.066 1345.53C254.915 1336.26 250.984 1322.29 254.807 1309.08L265.554 1271.96C266.096 1270.08 265.681 1268.07 264.45 1266.56L239.958 1236.65C231.247 1226.02 229.367 1211.63 235.051 1199.11C240.735 1186.59 252.805 1178.54 266.545 1178.09L305.178 1176.84C307.121 1176.78 308.913 1175.77 309.963 1174.13L330.842 1141.59C338.264 1130.03 351.399 1123.8 365.022 1125.32C378.689 1126.86 390.081 1135.84 394.753 1148.78C394.753 1148.78 394.753 1148.78 394.753 1148.78L407.878 1185.14C408.537 1186.97 410.056 1188.36 411.941 1188.85L449.334 1198.65C462.635 1202.13 472.615 1212.67 475.374 1226.14C478.133 1239.61 473.103 1253.22 462.244 1261.65L431.726 1285.37C430.188 1286.57 429.338 1288.44 429.451 1290.39L431.687 1328.97C432.483 1342.7 425.549 1355.44 413.591 1362.23C408.04 1365.38 401.946 1366.95 395.867 1366.95ZM340.442 1308.07C347.522 1308.07 354.548 1310.16 360.579 1314.25L392.561 1335.95C395.203 1337.74 397.61 1336.88 398.806 1336.19C400.002 1335.51 401.98 1333.9 401.794 1330.71L399.558 1292.12C398.879 1280.33 404.036 1268.97 413.357 1261.73L443.875 1238.01C446.404 1236.05 446.316 1233.49 446.043 1232.15C445.765 1230.8 444.842 1228.42 441.746 1227.61L404.353 1217.82C392.932 1214.82 383.723 1206.4 379.714 1195.3L366.589 1158.95C365.5 1155.94 363.049 1155.23 361.682 1155.08C360.295 1154.92 357.766 1155.07 356.037 1157.76L335.163 1190.3C328.791 1200.23 317.946 1206.39 306.145 1206.77L267.512 1208.02C264.314 1208.12 262.883 1210.24 262.317 1211.49C261.746 1212.74 261.096 1215.21 263.123 1217.69L287.615 1247.59C295.096 1256.73 297.6 1268.95 294.314 1280.29L283.567 1317.41C282.678 1320.49 284.246 1322.5 285.261 1323.43C286.277 1324.35 288.43 1325.73 291.399 1324.57L327.415 1310.52C331.624 1308.87 336.048 1308.07 340.442 1308.07Z" fill="#786234"/>
<path d="M729.242 125.654L698.706 149.365C695.673 151.698 693.398 154.819 692.057 158.29C690.978 161.032 690.511 164.036 690.686 167.069L691.036 173.019L692.902 205.655C693.923 222.921 674.674 233.858 660.325 224.146L628.331 202.447C622.644 198.597 615.44 197.78 609.023 200.289L573.004 214.318C556.875 220.618 540.543 205.685 545.355 189.061L556.117 151.934C558.012 145.313 556.554 138.197 552.209 132.889L527.71 102.995C517.21 90.1619 525.143 71.1469 541.038 69.0469C541.738 68.9589 542.467 68.9009 543.196 68.8719L581.84 67.6179C588.694 67.3849 595.023 63.7969 598.727 58.0229L615.497 31.9199L619.609 25.5039C628.971 10.9209 650.962 13.3999 656.853 29.6749L669.977 66.0439C672.31 72.4899 677.676 77.3889 684.326 79.1389L721.716 88.9389C738.458 93.3379 742.891 115.008 729.242 125.654Z" fill="#FFF06D"/>
<g opacity="0.6">
<path d="M729.242 125.654L698.706 149.365C695.673 151.698 693.398 154.819 692.057 158.29C690.89 157.357 689.753 156.365 688.615 155.373C686.252 153.273 683.832 151.027 682.84 148.053C681.615 144.378 682.84 140.208 685.232 137.204C687.653 134.171 691.065 132.129 694.594 130.525C700.252 127.959 707.194 125.538 708.885 119.53C710.139 115.097 707.719 110.285 704.102 107.426C700.486 104.568 695.877 103.314 691.386 102.351C685.028 100.951 678.554 99.989 672.05 99.434C667.558 99.055 662.921 98.851 658.75 97.159C649.534 93.397 644.605 83.276 642.592 73.564C640.55 63.823 640.609 53.644 637.372 44.253C636.643 42.124 635.681 39.966 634.076 38.391C632.501 36.904 630.43 36.029 628.389 35.27C624.131 33.724 619.843 32.645 615.498 31.916L619.61 25.5C628.972 10.917 650.963 13.396 656.854 29.671L669.978 66.0399C672.311 72.4859 677.677 77.385 684.327 79.135L721.717 88.935C738.458 93.338 742.891 115.008 729.242 125.654Z" fill="white"/>
</g>
<g opacity="0.2">
<path d="M692.9 205.654C693.921 222.92 674.672 233.857 660.323 224.145L628.329 202.446C622.642 198.596 615.438 197.779 609.021 200.288L573.002 214.317C556.873 220.617 540.541 205.684 545.353 189.06L556.115 151.933C558.01 145.312 556.552 138.196 552.207 132.888L527.708 102.994C517.208 90.1609 525.141 71.1459 541.036 69.0459C541.182 69.8329 541.357 70.6499 541.649 71.5829C543.515 77.8239 547.628 83.5109 552.382 87.8859C561.54 96.3439 573.235 102.41 579.797 112.968C589.043 127.871 585.514 146.887 584.055 164.357C583.822 167.419 583.734 170.832 585.717 173.194C587.613 175.44 590.85 176.052 593.767 175.936C603.567 175.499 612.608 168.674 622.349 169.782C635.678 171.299 659.899 204.915 671.617 198.12C680.953 192.707 670.914 168.356 691.033 173.019L692.9 205.654Z" fill="#786234"/>
</g>
<path d="M672.039 242.755C665.018 242.757 658.025 240.67 651.927 236.534L619.94 214.837C618.324 213.741 616.288 213.511 614.466 214.222L578.46 228.272C565.638 233.277 551.385 230.613 541.229 221.336C531.083 212.061 527.152 198.094 530.98 184.888L541.727 147.766C542.269 145.891 541.859 143.874 540.624 142.371L516.132 112.464C507.421 101.824 505.541 87.437 511.225 74.918C516.909 62.398 528.979 54.347 542.719 53.902L581.352 52.652C583.3 52.589 585.087 51.573 586.137 49.937L607.016 17.4C614.433 5.83 627.499 -0.408017 641.205 1.12998C654.862 2.66798 666.249 11.655 670.922 24.587L684.052 60.942C684.711 62.775 686.23 64.165 688.115 64.658L725.508 74.455C738.809 77.941 748.784 88.473 751.548 101.943C754.307 115.412 749.277 129.023 738.418 137.461L707.9 161.179C706.362 162.375 705.512 164.25 705.625 166.198L707.861 204.78C708.657 218.508 701.723 231.252 689.765 238.039C684.212 241.193 678.118 242.755 672.039 242.755ZM616.619 183.873C623.699 183.873 630.725 185.97 636.751 190.06L668.734 211.754C671.385 213.548 673.788 212.677 674.979 212.003C676.175 211.324 678.153 209.711 677.967 206.515L675.731 167.929C675.052 156.137 680.209 144.777 689.53 137.538L720.047 113.82C722.576 111.855 722.489 109.303 722.215 107.956C721.937 106.611 721.014 104.233 717.918 103.422L680.526 93.625C669.105 90.632 659.896 82.214 655.887 71.113L642.757 34.761V34.758C641.673 31.748 639.217 31.04 637.855 30.886C636.468 30.722 633.939 30.879 632.21 33.574L611.336 66.106C604.969 76.038 594.119 82.2 582.317 82.581L543.684 83.831C540.486 83.934 539.055 86.048 538.489 87.298C537.918 88.5509 537.268 91.021 539.295 93.499L563.787 123.401C571.267 132.534 573.772 144.758 570.486 156.099L559.739 193.221C558.85 196.297 560.418 198.311 561.428 199.237C562.444 200.167 564.597 201.551 567.575 200.382L603.581 186.332C607.801 184.684 612.22 183.873 616.619 183.873Z" fill="#786234"/>
<path d="M2421.41 1245.16L2383.34 1274.72C2379.56 1277.63 2376.72 1281.52 2375.05 1285.84C2373.7 1289.26 2373.12 1293.01 2373.34 1296.79L2373.78 1304.2L2376.1 1344.89C2377.38 1366.42 2353.38 1380.05 2335.49 1367.94L2295.6 1340.89C2288.51 1336.09 2279.53 1335.07 2271.53 1338.2L2226.63 1355.69C2206.53 1363.54 2186.16 1344.93 2192.16 1324.2L2205.58 1277.92C2207.94 1269.66 2206.13 1260.79 2200.71 1254.17L2170.17 1216.91C2157.08 1200.91 2166.97 1177.2 2186.78 1174.58C2187.66 1174.48 2188.56 1174.4 2189.47 1174.37L2237.65 1172.8C2246.19 1172.51 2254.08 1168.04 2258.7 1160.84L2279.61 1128.3L2284.73 1120.3C2296.41 1102.12 2323.82 1105.21 2331.16 1125.5L2347.53 1170.84C2350.43 1178.87 2357.12 1184.98 2365.41 1187.17L2412.03 1199.38C2432.9 1204.87 2438.42 1231.89 2421.41 1245.16Z" fill="#FFF06D"/>
<g opacity="0.6">
<path d="M2421.41 1245.16L2383.34 1274.72C2379.56 1277.63 2376.72 1281.52 2375.05 1285.84C2373.59 1284.68 2372.17 1283.44 2370.76 1282.21C2367.81 1279.59 2364.79 1276.79 2363.56 1273.08C2362.03 1268.5 2363.56 1263.3 2366.54 1259.56C2369.56 1255.78 2373.81 1253.23 2378.21 1251.23C2385.26 1248.03 2393.92 1245.01 2396.03 1237.52C2397.59 1232 2394.57 1226 2390.06 1222.43C2385.56 1218.87 2379.81 1217.31 2374.21 1216.11C2366.28 1214.36 2358.21 1213.16 2350.11 1212.47C2344.51 1212 2338.72 1211.75 2333.53 1209.64C2322.04 1204.95 2315.89 1192.33 2313.38 1180.22C2310.84 1168.08 2310.91 1155.39 2306.87 1143.68C2305.97 1141.03 2304.77 1138.34 2302.77 1136.37C2300.8 1134.52 2298.22 1133.43 2295.68 1132.48C2290.37 1130.56 2285.02 1129.21 2279.6 1128.3L2284.73 1120.3C2296.4 1102.13 2323.82 1105.22 2331.16 1125.5L2347.52 1170.84C2350.43 1178.88 2357.12 1184.99 2365.41 1187.17L2412.02 1199.38C2432.9 1204.87 2438.42 1231.89 2421.41 1245.16Z" fill="white"/>
</g>
<g opacity="0.2">
<path d="M2376.1 1344.89C2377.38 1366.42 2353.38 1380.05 2335.49 1367.94L2295.6 1340.89C2288.51 1336.09 2279.53 1335.07 2271.53 1338.2L2226.63 1355.69C2206.53 1363.54 2186.16 1344.93 2192.16 1324.2L2205.58 1277.92C2207.94 1269.66 2206.13 1260.79 2200.71 1254.17L2170.17 1216.91C2157.08 1200.91 2166.97 1177.2 2186.78 1174.58C2186.97 1175.57 2187.18 1176.59 2187.55 1177.75C2189.87 1185.53 2195 1192.62 2200.93 1198.07C2212.34 1208.62 2226.92 1216.18 2235.1 1229.34C2246.63 1247.92 2242.23 1271.63 2240.41 1293.41C2240.12 1297.22 2240.01 1301.48 2242.49 1304.42C2244.85 1307.22 2248.88 1307.98 2252.52 1307.84C2264.74 1307.29 2276.01 1298.79 2288.15 1300.17C2304.77 1302.06 2334.96 1343.97 2349.57 1335.5C2361.21 1328.75 2348.7 1298.39 2373.78 1304.2L2376.1 1344.89Z" fill="#786234"/>
</g>
<path d="M2350.1 1387.45C2342.07 1387.45 2334.07 1385.06 2327.1 1380.33L2287.22 1353.28C2284.21 1351.24 2280.38 1350.81 2276.98 1352.13L2232.09 1369.65C2217.44 1375.37 2201.12 1372.32 2189.52 1361.72C2177.91 1351.11 2173.42 1335.14 2177.79 1320.04L2191.19 1273.75C2192.2 1270.25 2191.43 1266.48 2189.12 1263.66L2158.59 1226.38C2148.63 1214.21 2146.47 1197.76 2152.98 1183.44C2159.48 1169.12 2173.28 1159.91 2189 1159.4L2237.16 1157.84C2240.8 1157.73 2244.15 1155.82 2246.11 1152.76L2272.13 1112.2C2280.63 1098.96 2295.65 1091.84 2311.24 1093.59C2326.87 1095.35 2339.89 1105.63 2345.23 1120.42L2361.6 1165.74C2362.83 1169.17 2365.67 1171.77 2369.2 1172.69L2415.81 1184.91C2431.02 1188.89 2442.43 1200.94 2445.59 1216.34C2448.75 1231.75 2443 1247.31 2430.59 1256.96L2392.53 1286.53C2389.66 1288.76 2388.07 1292.28 2388.28 1295.92L2391.06 1344.02C2391.97 1359.71 2384.04 1374.29 2370.37 1382.05C2364.02 1385.66 2357.05 1387.45 2350.1 1387.45ZM2281 1321.43C2289.1 1321.43 2297.13 1323.83 2304.02 1328.5L2343.9 1355.55C2349.04 1359.04 2353.79 1357.04 2355.58 1356.02C2357.39 1355 2361.53 1351.95 2361.17 1345.75L2358.38 1297.65C2357.61 1284.16 2363.5 1271.17 2374.16 1262.89L2412.21 1233.32C2417.11 1229.51 2416.67 1224.38 2416.26 1222.36C2415.84 1220.33 2414.23 1215.45 2408.22 1213.87L2361.61 1201.66C2348.55 1198.23 2338.02 1188.61 2333.43 1175.91L2317.06 1130.59V1130.59C2314.96 1124.75 2309.95 1123.58 2307.89 1123.35C2305.81 1123.12 2300.68 1123.15 2297.34 1128.37L2271.32 1168.93C2264.02 1180.29 2251.61 1187.34 2238.12 1187.77L2189.96 1189.33C2183.75 1189.53 2181.1 1193.93 2180.24 1195.82C2179.38 1197.7 2177.82 1202.6 2181.76 1207.41L2212.28 1244.69C2220.84 1255.13 2223.7 1269.11 2219.95 1282.08L2206.55 1328.37C2204.82 1334.33 2208.19 1338.22 2209.72 1339.62C2211.24 1341.01 2215.41 1344.02 2221.21 1341.76L2266.09 1324.24C2270.91 1322.36 2275.97 1321.43 2281 1321.43Z" fill="#786234"/>
</svg>
