<svg width="1265" height="1719" viewBox="0 0 1265 1719" fill="none" xmlns="http://www.w3.org/2000/svg">
<path d="M1072.04 1061.1V1590.1C1072.04 1652.9 1021.12 1703.82 958.322 1703.82H221.042C158.242 1703.82 107.322 1652.9 107.322 1590.1V1061.1C107.322 1000.98 154.002 951.74 213.122 947.7C215.722 947.46 218.362 947.38 221.042 947.38H958.322C986.082 947.38 1011.56 957.34 1031.28 973.9C1056.2 994.74 1072.04 1026.06 1072.04 1061.1Z" fill="white"/>
<path d="M958.311 1718.63H221.055C150.181 1718.63 92.5254 1660.97 92.5254 1590.1V1061.11C92.5254 990.236 150.181 932.58 221.055 932.58H958.311C1029.18 932.58 1086.84 990.236 1086.84 1061.11V1590.1C1086.84 1660.97 1029.18 1718.63 958.311 1718.63ZM221.055 962.209C166.519 962.209 122.154 1006.57 122.154 1061.11V1590.1C122.154 1644.63 166.519 1689 221.055 1689H958.311C1012.84 1689 1057.21 1644.63 1057.21 1590.1V1061.11C1057.21 1006.57 1012.84 962.209 958.311 962.209H221.055Z" fill="#371A45"/>
<path d="M1155.49 1322.77C1153.45 1346.39 1145.13 1370.24 1129.2 1394H55.8368C39.9096 1370.24 31.5458 1346.39 29.5049 1322.77C24.5827 1266.16 56.0369 1210.81 106.9 1160.36C146.158 1121.41 197.021 1085.38 251.725 1054.06C277.097 1039.51 303.269 1025.98 329.56 1013.6C430.206 966.196 531.532 936.102 589.478 933H595.561C653.507 936.102 754.792 966.196 855.438 1013.6C897.937 1033.61 940.316 1056.69 979.254 1082.14C1013.59 1104.57 1045.28 1128.84 1072.06 1154.4C1126.48 1206.41 1160.62 1263.94 1155.49 1322.77Z" fill="white"/>
<path d="M1129.01 1409C1126.32 1409 1123.6 1408.43 1121.09 1407.22C1113.42 1403.52 1110.74 1395.25 1115.12 1388.75C1149 1338.45 1147.9 1284.3 1111.87 1227.8C1018.6 1081.57 713.057 957.674 595.024 951.084H589.975C471.941 957.674 166.398 1081.57 73.1294 1227.8C37.0947 1284.3 36.0006 1338.45 69.8821 1388.75C74.2576 1395.25 71.5812 1403.52 63.9042 1407.22C56.2172 1410.92 46.456 1408.66 42.0754 1402.16C2.36318 1343.2 3.3353 1280.21 44.9668 1214.94C144.887 1058.28 461.619 930.783 588.456 924.027L589.463 924L596.543 924.027C723.381 930.783 1040.11 1058.28 1140.03 1214.94C1181.66 1280.21 1182.64 1343.2 1142.92 1402.16C1139.97 1406.54 1134.57 1409 1129.01 1409Z" fill="#371A45"/>
<path d="M1146.06 660.655C1140.24 661.092 1135.16 656.722 1134.72 650.896L1111.96 347.027C1111.52 341.201 1115.89 336.124 1121.72 335.687C1182.84 331.108 1236.1 376.946 1240.68 438.069L1248.44 541.689C1253.03 602.813 1207.19 656.076 1146.06 660.655Z" fill="white"/>
<path d="M1145.26 663.561C1138.3 663.561 1132.39 658.168 1131.86 651.112L1109.09 347.242C1108.54 339.845 1114.11 333.375 1121.5 332.821C1151.82 330.56 1181.23 340.223 1204.28 360.06C1227.33 379.899 1241.28 407.526 1243.55 437.855L1251.31 541.476C1256 604.081 1208.88 658.832 1146.28 663.522C1145.94 663.549 1145.6 663.561 1145.26 663.561ZM1130.18 338.244C1127.44 338.244 1124.69 338.347 1121.93 338.554C1117.7 338.871 1114.51 342.577 1114.83 346.813L1137.59 650.68C1137.91 654.916 1141.54 658.109 1145.85 657.789C1205.29 653.336 1250.03 601.348 1245.58 541.905L1237.82 438.284C1235.66 409.488 1222.42 383.252 1200.53 364.417C1180.74 347.387 1156.02 338.244 1130.18 338.244Z" fill="#371A45"/>
<g opacity="0.35">
<path d="M1244.8 493.101L1248.46 541.699C1253.03 602.802 1207.19 656.075 1146.06 660.678C1140.23 661.121 1135.16 656.72 1134.72 650.897L1128.64 570.119C1130.55 573.679 1134.43 575.946 1138.7 575.659L1145.91 575.099C1194.21 571.49 1232.99 537.446 1244.8 493.101Z" fill="#371A45"/>
</g>
<path d="M1145.25 676.685C1131.5 676.685 1119.82 666.038 1118.77 652.098L1096 348.223C1094.91 333.604 1105.91 320.826 1120.52 319.732C1154.35 317.19 1187.13 327.989 1212.84 350.11C1238.55 372.237 1254.11 403.05 1256.64 436.873L1264.4 540.494C1269.63 610.318 1217.08 671.378 1147.26 676.61C1146.59 676.661 1145.92 676.685 1145.25 676.685ZM1144.88 644.698C1144.88 644.698 1144.87 644.701 1144.87 644.701C1144.87 644.7 1144.88 644.698 1144.88 644.698ZM1128.33 351.387L1150.26 644.143C1199.77 637.605 1236.27 593.298 1232.49 542.883L1224.73 439.265C1222.83 413.962 1211.2 390.915 1191.97 374.365C1174.11 359 1151.69 350.997 1128.33 351.387Z" fill="#371A45"/>
<path d="M118.717 410.832C124.543 410.395 129.62 414.765 130.057 420.591L152.823 724.46C153.26 730.286 148.89 735.363 143.064 735.8C81.9411 740.379 28.6781 694.541 24.0991 633.418L16.3361 529.798C11.7551 468.674 57.593 415.411 118.717 410.832Z" fill="white"/>
<path d="M134.591 738.991C107.374 738.993 81.3438 729.365 60.4988 711.425C37.4518 691.589 23.5017 663.958 21.2307 633.632L13.4667 530.011C8.77467 467.406 55.8937 412.655 118.501 407.965C122.09 407.687 125.562 408.842 128.281 411.183C131.006 413.529 132.651 416.793 132.92 420.375L155.688 724.245C156.24 731.643 150.673 738.112 143.276 738.667C140.372 738.884 137.477 738.991 134.591 738.991ZM119.518 413.676C119.323 413.676 119.127 413.683 118.932 413.698C59.4838 418.153 14.7477 470.138 19.2007 529.582L26.9647 633.203C29.1227 661.999 42.3648 688.231 64.2548 707.069C86.1448 725.905 114.069 735.095 142.849 732.934C147.087 732.617 150.276 728.911 149.958 724.675L127.189 420.805C127.038 418.752 126.09 416.884 124.533 415.541C123.121 414.328 121.358 413.676 119.518 413.676Z" fill="#371A45"/>
<g opacity="0.35">
<path d="M146.531 640.159L152.837 724.458C153.28 730.283 148.879 735.358 143.056 735.802C110.974 738.191 81.0258 726.714 59.1698 706.394C39.4318 688.044 26.2908 662.457 24.1118 633.436L20.8379 589.772C41.0579 626.779 81.7159 650.572 126.531 647.222L137.62 646.389C141.666 646.077 144.94 643.582 146.531 640.159Z" fill="#371A45"/>
</g>
<path d="M134.678 752.114C68.9264 752.121 13.1354 701.228 8.14039 634.614L0.376354 530.993C-4.85265 461.169 47.6954 400.109 117.52 394.877C124.605 394.335 131.46 396.603 136.846 401.234C142.227 405.868 145.484 412.318 146.011 419.398L168.78 723.263C169.869 737.88 158.868 750.658 144.259 751.754C141.05 751.996 137.847 752.114 134.678 752.114ZM114.517 427.343C91.3483 430.387 70.3764 441.694 55.0154 459.548C38.4624 478.779 30.3914 503.303 32.2904 528.601L40.0543 632.222C43.8283 682.639 86.5043 721.194 136.45 720.098L114.517 427.343Z" fill="#371A45"/>
<path d="M632.397 1057.88C493.676 1057.88 363.159 1004.12 264.643 906.347C165.649 808.1 110.839 677.187 110.312 537.717C109.785 398.249 163.598 266.924 261.845 167.929C360.087 68.9367 491.005 14.1277 630.473 13.5997C631.142 13.5977 631.816 13.5947 632.48 13.5947C919.477 13.5947 1153.5 246.52 1154.59 533.761C1155.68 821.669 922.338 1056.79 634.428 1057.88C633.755 1057.88 633.066 1057.88 632.397 1057.88ZM632.48 19.3447C631.806 19.3447 631.171 19.3448 630.493 19.3478C492.563 19.8698 363.086 74.0767 265.923 171.98C168.76 269.883 115.537 399.763 116.065 537.698C116.583 675.63 170.792 805.103 268.692 902.266C366.119 998.955 495.215 1052.13 632.398 1052.13C633.072 1052.13 633.736 1052.13 634.41 1052.13C919.146 1051.05 1149.92 818.524 1148.84 533.782C1147.76 249.721 916.294 19.3447 632.48 19.3447Z" fill="#371A45"/>
<g opacity="0.35">
<path d="M1146.47 461.908C1149.87 485.374 1151.63 509.362 1151.73 533.774C1152.78 820.548 921.187 1053.91 634.414 1055.02C347.64 1056.07 114.282 824.48 113.168 537.707C113.131 529.46 113.292 521.205 113.656 513.076C149.622 765.717 367.249 959.508 629.643 958.522C908.169 957.446 1134.6 737.31 1146.47 461.908Z" fill="#371A45"/>
</g>
<path d="M632.393 1071.01C490.191 1071.01 356.387 1015.89 255.396 915.664C153.917 814.949 97.7295 680.742 97.1875 537.768C96.6455 394.794 151.812 260.165 252.53 158.684C353.243 57.2016 487.447 1.01563 630.426 0.473633C631.11 0.471633 631.802 0.47168 632.487 0.47168C926.696 0.47168 1166.6 239.251 1167.72 533.712C1168.83 828.858 929.625 1069.89 634.479 1071.01C633.79 1071.01 633.082 1071.01 632.393 1071.01ZM632.481 32.4696C631.822 32.4696 631.207 32.4696 630.543 32.4746C496.119 32.9826 369.938 85.8096 275.24 181.225C180.547 276.64 128.677 403.22 129.19 537.646C129.698 672.072 182.524 798.256 277.939 892.949C372.885 987.182 498.707 1039.01 632.398 1039.01C633.052 1039.01 633.702 1039.01 634.361 1039C911.861 1037.95 1136.77 811.336 1135.72 533.833C1134.67 256.991 909.078 32.4696 632.481 32.4696Z" fill="#371A45"/>
<path d="M622.379 1009.95C421.949 1009.95 244.62 907.87 199.981 848.497C137.945 765.992 104.136 668.622 102.213 566.917C99.7028 434.136 151.036 330.738 254.776 259.593C345.025 197.701 473.624 163.455 626.671 160.565C779.64 157.628 909.513 187.03 1002.04 245.47C1108.39 312.645 1163.59 414.032 1166.1 546.81C1168.03 648.517 1137.92 747.093 1079.05 831.883C1038.17 890.75 867.041 1003.35 638.672 1009.72C633.229 1009.87 627.794 1009.95 622.379 1009.95ZM645.499 192.387C639.146 192.387 633.067 192.451 627.276 192.558C476.954 195.4 127.994 237.507 134.205 566.313C136.002 661.247 167.594 752.175 225.558 829.27C266.671 883.95 444.489 983.147 637.785 977.737C852.072 971.76 1016.28 866.174 1052.76 813.633C1107.78 734.407 1135.91 642.349 1134.11 547.417C1128.14 231.271 804.064 192.387 645.499 192.387Z" fill="#371A45"/>
<g opacity="0.7">
<path d="M1047.58 524.367C1055.68 474.265 1032.82 428.888 996.518 423.015C960.213 417.142 924.212 452.997 916.107 503.099C908.002 553.201 930.863 598.577 967.167 604.451C1003.47 610.324 1039.47 574.469 1047.58 524.367Z" fill="white"/>
</g>
<g opacity="0.7">
<path d="M938.04 707.974C944.9 685.714 934.976 662.895 915.873 657.008C896.77 651.121 875.722 664.394 868.862 686.655C862.002 708.915 871.926 731.733 891.029 737.621C910.132 743.508 931.18 730.235 938.04 707.974Z" fill="white"/>
</g>
<g opacity="0.35">
<path d="M1045.02 298.196C1109.23 357.191 1148.05 439.118 1150.1 547.097C1152.02 648.713 1120.81 743.651 1065.92 822.758C1024.73 882.064 852.821 987.738 638.22 993.746C562.445 995.88 489.001 982.291 424.663 961.442C688.302 948.435 897.671 818.761 948.737 745.205C1018.46 644.805 1058.04 524.288 1055.59 395.373C1054.96 360.918 1051.31 328.552 1045.02 298.196Z" fill="#111A28"/>
</g>
<path d="M152.745 352.577C149.244 352.577 145.724 351.437 142.784 349.086C136.143 343.771 134.83 334.279 139.664 327.421C228.746 191.198 404.791 110.711 622.75 106.59C839.239 102.442 1017.95 173.693 1113.55 301.918C1118.49 307.807 1118.59 316.571 1113.43 322.599C1107.84 329.118 1098.13 330.036 1091.44 324.801L1089.75 323.536L1088.36 321.663C999.122 201.419 829.761 134.672 623.355 138.583C415.953 142.506 249.327 217.85 166.211 345.293L165.303 346.548C162.135 350.509 157.457 352.577 152.745 352.577Z" fill="#371A45"/>
<g opacity="0.7">
<path d="M237.104 724.364C237.104 724.364 148.825 460.716 289.765 352.324C430.703 243.932 636.356 240.472 631.797 253.751C631.797 253.751 405.176 313.169 319.499 494.835C253.431 634.922 237.104 724.364 237.104 724.364Z" fill="white"/>
</g>
</svg>
