<svg width="885" height="885" viewBox="0 0 885 885" fill="none" xmlns="http://www.w3.org/2000/svg">
<path d="M884.85 442.34C884.85 686.41 687 884.28 442.92 884.28C198.83 884.28 0.969971 686.41 0.969971 442.34C0.969971 198.26 198.83 0.399902 442.92 0.399902C687 0.399902 884.85 198.26 884.85 442.34Z" fill="#34B1E4"/>
<path d="M470.95 728.53C484.5 704.42 469.45 654.7 469.45 642.65C469.45 630.59 401.65 597.44 385.07 591.42C368.5 585.39 360.97 594.44 360.97 594.44C360.97 594.44 263.03 623.06 250.97 642.65C238.92 662.23 162.08 623.06 159.06 604.98C156.04 586.89 137.97 532.66 136.46 526.62C134.95 520.6 55.09 464.85 46.06 463.34C41.81 462.64 23.29 469.24 2.64001 479.57C20.04 688.05 182.08 855.29 388.16 880.78C389.66 854.82 385.76 830.64 388.07 799.33C391.09 758.65 395.61 776.73 425.75 761.67C455.88 746.61 457.39 752.64 470.95 728.53Z" fill="#D7DF23"/>
<path d="M554.76 766.74C548.71 780.41 549.25 791.95 565.76 796.99C577.84 800.7 588.72 796.74 600.45 794C610.65 791.62 624.37 794.47 632.68 787.24C657.76 765.44 637.19 745.5 616.16 730.48C609.53 725.74 602.62 721.44 595.97 716.75C566.84 696.26 561.72 751.02 554.76 766.74Z" fill="#D7DF23"/>
<path d="M672.82 64.8499C647.57 101.66 626.56 149.26 645.72 190.64C683.4 272 743.66 238.85 692.43 356.37C641.21 473.9 603.54 422.67 609.56 538.68C615.6 654.7 636.69 724 675.86 722.5C715.03 721 725.58 564.3 828.04 579.36C840.29 581.18 850.96 584.03 860.34 587.47C876.16 542 884.85 493.19 884.85 442.34C884.85 282.48 799.97 142.46 672.82 64.8499Z" fill="#D7DF23"/>
<path d="M153.04 171.06C189.19 192.15 196.73 190.64 243.44 255.44C290.15 320.23 228.37 335.28 213.3 391.04C198.24 446.79 201.25 485.96 222.34 504.04C243.43 522.13 373.01 514.59 363.97 470.9C354.93 427.21 353.42 368.44 353.42 317.22C353.42 266 391.09 299.14 440.81 278.05C490.54 256.96 481.48 168.05 481.48 151.49C481.48 134.91 440.81 71.6299 410.67 53.5499C397.96 45.9199 376.69 27.5899 356.34 8.93994C253.28 29.4099 163.17 85.7099 99.46 164.3C114.13 168.15 133.36 159.58 153.04 171.06Z" fill="#D7DF23"/>
<path d="M623.4 287.23C614.85 275.5 600.2 270.18 586.02 270.47C580.97 270.58 576 271.39 571.36 272.86C550.31 279.59 537.33 301.36 534.74 322.72C532.52 340.91 542.27 405.59 543.77 411.62C545.27 417.64 546.79 434.22 545.27 446.28C544.46 452.8 562.69 443.75 564.6 442.83C576.25 437.2 587.6 431.01 594.44 419.59C602.03 406.93 603.58 391.54 609.27 378.07C620.85 350.7 644.35 315.94 623.4 287.23Z" fill="#D7DF23"/>
<path d="M810.43 510.04C820.61 506 827.08 503.24 829.95 491.85C835.73 469.01 823.31 443.37 806.75 428.16C797.11 419.3 784.66 414.52 771.4 416.27C767.25 416.83 762.96 417.86 758.67 419.28C740.76 425.2 722.63 437.98 712.67 452.22C702.25 467.12 704.89 485.66 704.48 502.88C704.19 515.44 703.44 527.98 702.27 540.5C701.19 552.33 688.02 573 703.73 579.62C736.69 593.54 748.54 557.08 767.8 536.82C779.22 524.79 795.22 516.08 810.43 510.04Z" fill="#F9F98F"/>
<path d="M722.09 99.79C714.61 111.25 709.43 126.13 706.88 136.55C701.55 158.27 718.99 186.75 739.21 194.52C756.38 201.11 750.58 217.23 747.5 231.51C743.01 252.39 735.36 273 735.36 294.61C735.36 318.47 736.65 329.99 763.45 331.01C774.66 331.43 786.91 332.64 791.39 320.35C796.35 306.8 793.71 289.63 791.13 275.78C788.86 263.73 790.37 259.22 794.13 247.91C797.4 238.13 801.67 227.48 801.67 217.03C801.67 208.73 792.64 195.94 788.87 184.63C785.9 175.72 787.13 175.19 785.21 162.83C766.34 139.75 745.19 118.63 722.09 99.79Z" fill="#F9F98F"/>
<path d="M391.15 649.11C377.75 648.52 365.64 656.2 353.26 660.05C345.22 662.53 337.16 664.85 329.12 667.27C322.34 669.3 315.6 671.42 308.92 673.76C279.71 684.03 251.46 699.7 237.19 728.51C231.68 739.59 272.06 741.71 276.49 742.01C297.23 743.4 317.18 737.65 337.49 734.56C358.69 731.34 380.21 730.62 401.32 726.7C419.95 723.26 433.24 712.77 438.03 693.91C444.92 666.83 414.99 650.18 391.15 649.11Z" fill="#F9F98F"/>
<path d="M305.94 155.1C301.69 154 295.01 148.22 290.88 148.52C268.89 150.04 283.36 185.62 291.02 193.77C304.26 207.82 319.98 223.62 339.87 208.71C347.93 202.67 356.19 212.05 363.03 215.74C366.31 217.52 388.64 229.51 392.13 226.78C401.42 219.52 412.6 212.64 419.23 202.7C434.65 179.54 430.44 146.84 421.24 122.33C411.72 96.9699 384.79 76.4599 360.76 65.7099C356.26 63.6999 351.57 62.9199 347.05 63.1699C329.52 64.1499 318.22 80.5199 323.8 97.2299C323.85 97.3499 329.86 115.36 338.87 129.37C347.92 143.44 338.87 145.43 337.87 151.47C336.34 160.57 311.49 156.54 305.94 155.1Z" fill="#F9F98F"/>
<path opacity="0.2" d="M99.98 721.04C181.02 820.63 304.5 884.28 442.92 884.28C687 884.28 884.85 686.41 884.85 442.34C884.85 343.17 852.2 251.65 797.05 177.91C679.59 358.9 391.18 748.41 99.98 721.04Z" fill="#212A3C"/>
<path opacity="0.2" d="M132.12 756.47C211.96 835.47 321.72 884.28 442.92 884.28C687 884.28 884.85 686.41 884.85 442.34C884.85 426.04 883.91 409.98 882.19 394.14C755.5 570.11 487.74 854.94 132.12 756.47Z" fill="#212A3C"/>
<path opacity="0.3" d="M579.55 111.04C638.35 207.88 575.07 353.75 438.21 436.84C301.33 519.95 142.73 508.81 83.9401 411.98C25.1301 315.13 88.4102 169.27 225.27 86.17C362.13 3.06004 520.75 14.21 579.55 111.04Z" fill="url(#paint0_linear_208_250)"/>
<path opacity="0.3" d="M452.54 100.22C487.65 158.05 443.85 248.81 354.7 302.95C265.54 357.09 164.79 354.08 129.67 296.25C94.5402 238.41 138.34 147.64 227.5 93.4999C316.67 39.3599 417.41 42.3699 452.54 100.22Z" fill="white"/>
<defs>
<linearGradient id="paint0_linear_208_250" x1="235.563" y1="141.795" x2="437.7" y2="388.8" gradientUnits="userSpaceOnUse">
<stop stop-color="white"/>
<stop offset="1" stop-color="white" stop-opacity="0"/>
</linearGradient>
</defs>
</svg>
