<svg width="423" height="595" viewBox="0 0 423 595" fill="none" xmlns="http://www.w3.org/2000/svg">
<path d="M201.338 363.374L314.275 303.337C314.275 303.337 331.11 281.52 350.4 250.68C387.299 191.731 433.124 99.844 387.48 64.342C333.823 22.566 271.773 120.807 242.045 177.169C230.991 198.163 224.423 213.312 224.423 213.312C224.423 213.312 224.01 198.925 222.161 177.568C221.125 165.757 219.668 151.734 217.603 136.858C207.822 66.731 189.069 10.195 139.076 17.187C82.1146 25.149 92.8406 124.651 104.961 201.805C110.151 234.739 115.564 263.599 116.129 279.508C117.346 313.712 201.338 363.374 201.338 363.374Z" fill="white"/>
<path d="M201.338 363.374L314.275 303.337C314.275 303.337 331.11 281.52 350.4 250.68C313.973 251.645 258.369 241.874 242.045 177.169C230.991 198.163 224.423 213.312 224.423 213.312C224.423 213.312 224.01 198.925 222.161 177.568C207.341 195.847 160.456 243.977 104.96 201.804C110.15 234.738 115.563 263.598 116.128 279.507C117.346 313.712 201.338 363.374 201.338 363.374Z" fill="#E5E5E5"/>
<path d="M201.329 379.87C198.424 379.87 195.523 379.103 192.94 377.575C171.412 364.841 101.063 320.178 99.6586 280.075C99.2806 269.238 96.1777 250.368 92.5837 228.52C81.3897 160.456 66.0607 67.2411 97.8107 24.1031C107.494 10.9461 120.614 3.13109 136.81 0.868094C157.704 -2.04491 187.003 2.39099 207.843 40.138C219.635 61.493 227.916 91.5 233.905 134.574C234.786 140.919 235.56 147.094 236.239 153.012C261.412 108.271 301.229 50.873 344.567 39.792C363.393 34.985 381.735 38.9741 397.621 51.3331C477.758 113.691 342.946 293.162 327.311 313.421C325.878 315.276 324.069 316.805 322.001 317.903L209.064 377.942C206.644 379.228 203.986 379.87 201.329 379.87ZM132.599 278.923C133.087 292.89 167.482 322.768 201.896 344.426L303.356 290.488C346.923 233.066 419.352 110.005 377.382 77.3431C369.513 71.2251 361.694 69.438 352.731 71.725C312.602 81.984 262.011 168.046 239.547 219.882C236.481 226.96 228.91 230.961 221.327 229.513C213.746 228.06 208.19 221.539 207.955 213.827C207.945 213.488 206.859 179.405 201.258 139.11C195.919 100.699 188.633 73.536 178.99 56.07C166.429 33.319 152.921 31.8901 141.37 33.5091C134.099 34.5251 128.694 37.742 124.353 43.638C100.835 75.591 116.028 167.974 125.105 223.169C129.039 247.084 132.145 265.974 132.599 278.923Z" fill="#371A45"/>
<path d="M237.845 586.062C326.105 573.794 364.158 506.043 373.417 469.59C411.19 320.879 216.526 276.478 216.526 276.478C216.526 276.478 100.593 251.79 36.7988 403.943" fill="white"/>
<path d="M236.711 577.9C263.831 568.618 288.021 556.748 308.217 539.597C372.676 485.68 382.307 391.235 310.113 338.567C281.927 316.719 247.392 301.647 212.906 293.158C135.424 284.209 77.6621 341.964 44.3981 407.131C42.2761 411.212 37.2121 412.781 33.1581 410.605C29.5721 408.686 27.9802 404.497 29.1992 400.759C38.7732 371.582 52.6052 343.567 72.5512 319.66C107.599 276.249 169.298 247.313 225.827 261.308C278.22 277.211 330.051 302.238 365.167 345.834C420.897 413.75 395.56 514.823 328.532 565.173C302.684 584.978 270.129 595.478 238.978 594.223C229.679 593.782 228.017 580.741 236.711 577.9Z" fill="#371A45"/>
<path d="M281.461 287.43C245.215 293.109 205.465 333.788 216.581 392.748C225.209 438.513 267.281 464.339 310.337 467.174C363.222 470.655 396.724 426.095 399.261 395.648C400.568 379.961 397.45 354.69 359.239 326.055C343.443 296.696 320.468 281.319 281.461 287.43Z" fill="white"/>
<path d="M316.327 483.852C314.003 483.852 311.649 483.776 309.257 483.618C262.729 480.556 211.022 452.214 200.387 395.803C194.579 365 200.631 334.926 217.428 311.125C232.501 289.765 255.487 274.821 278.91 271.149C320.841 264.606 351.305 278.947 371.976 315.045C403.473 339.579 418.175 367.145 415.684 397.018C412.633 433.635 375.726 483.85 316.327 483.852ZM284.012 303.713C269.217 306.03 254.393 315.905 244.356 330.129C236.143 341.765 227.466 361.547 232.774 389.695C240.14 428.767 277.581 448.504 311.419 450.733C354.979 453.609 381.07 415.506 382.837 394.283C383.848 382.181 381.475 363.314 349.356 339.241C347.442 337.808 345.862 335.972 344.727 333.865C330.748 307.885 313.163 299.152 284.012 303.713Z" fill="#371A45"/>
<path d="M87.2066 527.102C-21.3214 462.858 16.1176 320.606 52.7476 279.177C98.7316 227.168 267.326 249.213 260.802 318.081C257.35 354.513 207.051 363.39 154.238 357.889C154.238 357.889 167.287 409.18 161.741 443.729" fill="white"/>
<path d="M83.0084 534.191C-2.60963 491.865 -16.6387 384.404 18.8233 303.194C39.1083 251.761 79.9073 235.759 131.417 233.429C176.004 232.594 224.659 240.258 259.036 272.028C289.456 301.236 280.943 349.739 241.73 365.811C212.371 378.57 182.583 378.102 152.527 374.306L170.232 353.82C174.664 376.547 176.743 398.943 174.586 421.991C172.723 430.621 173.036 454.125 159.313 450.299C155.82 449.133 153.647 445.898 153.603 442.423C152.901 428.868 150.7 415.38 148.013 402.01C145.203 388.795 142.011 374.752 138.239 361.959C135.69 353.5 140.48 344.576 148.938 342.027C151.276 341.297 153.607 341.244 155.945 341.47C168.808 342.329 181.61 342.417 193.965 341.665C210.677 340.164 227.963 338.465 239.33 327.623C247.952 317.985 245.33 305.099 235.486 295.516C219.361 280.081 193.173 272.904 170.487 269.676C133.404 265.405 78.4044 265.883 57.6954 300.796C29.5814 348.134 20.4453 411.696 42.7613 463.026C52.8853 485.76 69.9842 505.24 91.4012 520.011C99.7932 525.751 92.0774 538.778 83.0084 534.191Z" fill="#371A45"/>
</svg>
