<svg width="1874" height="2809" viewBox="0 0 1874 2809" fill="none" xmlns="http://www.w3.org/2000/svg">
<path d="M1422.7 498.374C1422.7 498.374 1565.39 552.468 1580.05 578.883C1607.24 627.853 1602.19 915.683 1526.99 990.725C1497.54 1020.11 1281.19 1047.57 1281.19 1047.57L1422.7 498.374Z" fill="white"/>
<path d="M1281.19 1047.57C1281.19 1047.57 1497.54 1020.1 1526.97 990.712C1556.33 961.438 1575.02 899.678 1585.21 832.393C1582.82 834.548 1506.4 900.501 1353.96 766.44C1353.88 766.362 1353.76 766.283 1353.69 766.205L1281.19 1047.57Z" fill="#E5E5E5"/>
<path d="M331.364 1047.57C331.364 1047.57 115.008 1020.1 85.5777 990.712C56.2257 961.438 37.5337 899.678 27.3447 832.393C27.3057 832.354 27.3057 832.354 27.3057 832.354C11.3567 727.331 15.9407 608.748 32.5177 578.887C47.1737 552.475 189.857 498.356 189.857 498.356L258.867 766.205L331.364 1047.57Z" fill="white"/>
<path d="M331.364 1047.57C331.364 1047.57 115.008 1020.1 85.5778 990.712C56.2258 961.438 37.5337 899.678 27.3447 832.393C29.7347 834.548 106.152 900.501 258.592 766.44C258.67 766.362 258.788 766.283 258.866 766.205L331.364 1047.57Z" fill="#E5E5E5"/>
<path d="M1259.17 1066.97L1411.34 476.441L1428.55 482.964C1473.14 499.873 1578.58 542.285 1594.46 570.882C1624.66 625.279 1620.82 920.379 1538.63 1002.39C1507.61 1033.34 1335.32 1057.31 1283.26 1063.91L1259.17 1066.97ZM1434.04 520.445L1303.25 1028C1398.55 1014.69 1500.86 993.516 1515.35 979.061C1584.63 909.925 1589.94 630.648 1565.64 586.881C1558.13 574.939 1494.64 544.471 1434.04 520.445Z" fill="#371A45"/>
<path d="M353.399 1066.97L329.305 1063.91C277.242 1057.31 104.954 1033.34 73.936 1002.39C-8.252 920.379 -12.094 625.282 18.104 570.885C33.983 542.286 139.425 499.874 184.02 482.965L201.227 476.442L353.399 1066.97ZM178.531 520.445C117.923 544.471 54.434 574.945 46.883 586.946C22.623 630.65 27.935 909.927 97.217 979.06C111.709 993.523 214.026 1014.7 309.319 1028L178.531 520.445Z" fill="#371A45"/>
<path d="M1251.44 2020.08H1311.45C1347.21 2020.08 1376.21 1991.09 1376.21 1955.32V1785.12C1376.21 1749.35 1347.21 1720.36 1311.45 1720.36H1254.83" fill="white"/>
<path d="M1311.45 2036.56H1251.44C1242.33 2036.56 1234.96 2029.18 1234.96 2020.08C1234.96 2010.98 1242.34 2003.6 1251.44 2003.6H1311.45C1338.07 2003.6 1359.73 1981.94 1359.73 1955.32V1785.12C1359.73 1758.49 1338.07 1736.84 1311.45 1736.84H1254.82C1245.72 1736.84 1238.34 1729.46 1238.34 1720.36C1238.34 1711.26 1245.72 1703.88 1254.82 1703.88H1311.45C1356.24 1703.88 1392.69 1740.32 1392.69 1785.12V1955.32C1392.69 2000.12 1356.24 2036.56 1311.45 2036.56Z" fill="#371A45"/>
<path d="M357.133 2020.08H297.12C261.354 2020.08 232.36 1991.09 232.36 1955.32V1785.12C232.36 1749.35 261.354 1720.36 297.12 1720.36H353.743" fill="white"/>
<path d="M357.135 2036.56H297.123C252.328 2036.56 215.883 2000.12 215.883 1955.32V1785.11C215.883 1740.32 252.328 1703.88 297.123 1703.88H353.744C362.845 1703.88 370.223 1711.25 370.223 1720.36C370.223 1729.46 362.845 1736.83 353.744 1736.83H297.123C270.499 1736.83 248.842 1758.49 248.842 1785.11V1955.32C248.842 1981.94 270.5 2003.6 297.123 2003.6H357.135C366.236 2003.6 373.614 2010.98 373.614 2020.08C373.614 2029.18 366.236 2036.56 357.135 2036.56Z" fill="#371A45"/>
<path d="M1084.84 2205.37H523.729C405.249 2205.37 308.311 2108.43 308.311 1989.95V1372.73C308.311 1254.25 405.248 1157.31 523.729 1157.31H1084.84C1203.32 1157.31 1300.26 1254.25 1300.26 1372.73V1989.95C1300.26 2108.43 1203.32 2205.37 1084.84 2205.37Z" fill="white"/>
<path d="M1084.84 2221.85H523.729C395.86 2221.85 291.83 2117.82 291.83 1989.95V1372.73C291.83 1244.86 395.861 1140.83 523.729 1140.83H1084.84C1212.71 1140.83 1316.74 1244.86 1316.74 1372.73V1989.95C1316.74 2117.82 1212.71 2221.85 1084.84 2221.85ZM523.729 1173.79C414.032 1173.79 324.789 1263.03 324.789 1372.73V1989.95C324.789 2099.64 414.032 2188.89 523.729 2188.89H1084.84C1194.54 2188.89 1283.78 2099.64 1283.78 1989.95V1372.73C1283.78 1263.03 1194.54 1173.79 1084.84 1173.79H523.729Z" fill="#371A45"/>
<path d="M965.798 1267.48C1089.69 1267.48 1467.73 1213.35 1572.09 896.933L1857.24 1004.97C1857.24 1004.97 1748.95 1590.32 1123.77 1602.88" fill="white"/>
<path d="M1123.77 1619.36C1114.82 1619.36 1107.48 1612.2 1107.3 1603.21C1107.12 1594.11 1114.34 1586.59 1123.44 1586.41C1376.73 1581.32 1574.34 1481.83 1710.78 1290.7C1794.97 1172.77 1828.63 1054.34 1838.06 1015.32L1582.08 918.342C1533.18 1051.29 1432.58 1151.38 1282.8 1216C1132.87 1280.69 992.428 1283.96 965.799 1283.96C956.697 1283.96 949.32 1276.58 949.32 1267.48C949.32 1258.38 956.698 1251 965.799 1251C1129.11 1251 1462.73 1175.93 1556.44 891.775C1557.85 887.505 1560.94 883.997 1564.99 882.063C1569.05 880.124 1573.72 879.929 1577.93 881.526L1863.08 989.561C1870.53 992.383 1874.89 1000.14 1873.44 1007.97C1872.31 1014.09 1844.49 1159.61 1738.38 1308.77C1640.18 1446.8 1453.9 1612.73 1124.11 1619.36C1123.99 1619.36 1123.88 1619.36 1123.77 1619.36Z" fill="#371A45"/>
<path d="M171.739 1914.69C171.739 1914.69 122.362 2068.68 284.665 2101.74C313.911 2107.75 341.854 2105.29 366.843 2096.18C474.561 2056.46 526.643 1890.4 385.172 1724.25C377.71 1715.43 369.698 1706.67 361.134 1697.85C360.733 1697.5 360.383 1697.15 360.032 1696.75C360.032 1696.75 367.544 1684.33 391.581 1666.8C406.655 1655.84 428.288 1642.82 458.586 1629.65L516.777 1451.62L516.877 1451.32L527.193 1419.77L590.092 1227.57C590.092 1227.57 532.452 1247.15 458.787 1280.5C434.449 1291.52 408.308 1304.09 381.917 1317.96C374.656 1321.77 367.345 1325.72 360.033 1329.73C360.033 1329.73 344.058 1338.34 319.019 1353.87C190.969 1433.59 -172.899 1695.35 171.739 1914.69Z" fill="white"/>
<path d="M475.975 1484.8L458.615 1629.64C379.946 1663.77 360.02 1696.75 360.02 1696.75C360.393 1697.12 360.766 1697.49 361.097 1697.87C340.011 1680.47 311.716 1660.58 282.014 1649.44C282.014 1649.44 337.968 1620.32 355.049 1597.86C409.79 1525.9 410.94 1499.93 431.88 1470.3C438.653 1460.72 483.667 1468.88 475.975 1484.8Z" fill="#D8D8D8"/>
<path d="M284.657 2101.77C124.273 2069.07 170.609 1918.3 171.687 1914.72L171.736 1914.67C171.736 1914.67 199.586 2063.92 344.574 2022.98C437.294 1996.75 429.448 1866.08 411.748 1775.32C413.317 1771.74 414.592 1768.01 415.621 1764.24C415.621 1764.24 415.621 1764.24 415.67 1764.24C543.644 1954.63 429.89 2131.39 284.657 2101.77Z" fill="#D8D8D8"/>
<path d="M315.902 2121.44C304.54 2121.44 292.997 2120.28 281.388 2117.92C228.048 2107.04 189.974 2082.69 168.221 2045.53C140.931 1998.91 147.738 1945.74 152.85 1922.06C55.6871 1857.43 7.97411 1783.1 10.9921 1701.01C18.4901 1496.99 338.577 1322.54 352.2 1315.21C465.428 1252.73 583.623 1212.4 584.803 1212C593.416 1209.08 602.779 1213.69 605.699 1222.31C608.621 1230.93 604.002 1240.29 595.384 1243.21C594.232 1243.6 478.699 1283.05 367.967 1344.16C364.644 1345.95 50.6962 1517.05 43.9262 1702.25C41.2822 1774.59 87.2591 1841.38 180.579 1900.79L191.304 1907.62L187.42 1919.73C187.239 1920.3 168.548 1981.1 196.78 2029.07C213.623 2057.69 244.302 2076.72 287.971 2085.62C348.005 2097.87 403.943 2071.17 433.906 2015.96C471.223 1947.19 468.323 1830.25 348.261 1708.29L339.269 1699.15L345.907 1688.19C347.95 1684.82 367.843 1654.3 436.671 1621.53C444.896 1617.61 454.723 1621.11 458.634 1629.32C462.548 1637.54 459.059 1647.37 450.841 1651.28C413.033 1669.29 392.355 1686.11 382.228 1696.1C504.477 1827.09 504.657 1954.68 462.873 2031.68C432.061 2088.46 376.644 2121.43 315.902 2121.44Z" fill="#371A45"/>
<path d="M183.165 1901.56C205.371 1914.44 237.534 1934.7 259.871 1948.25C228.995 1947.19 198.811 1939.02 170.129 1927.83L183.165 1901.56Z" fill="#371A45"/>
<path d="M63.3944 1829.24C56.5824 1829.24 51.0534 1823.73 51.0364 1816.92C50.9214 1771.01 89.1124 1723.4 148.328 1695.61C215.618 1664.04 317.874 1655.65 403.062 1726.8C408.301 1731.18 409.002 1738.97 404.627 1744.21C400.247 1749.44 392.457 1750.15 387.217 1745.77C310.94 1682.07 219.231 1689.65 158.828 1717.99C108.271 1741.71 75.6613 1780.52 75.7523 1816.86C75.7693 1823.68 70.2494 1829.23 63.4254 1829.25C63.4144 1829.24 63.4044 1829.24 63.3944 1829.24Z" fill="#371A45"/>
<path d="M355.73 1708.29C333.572 1685.55 309.663 1663.79 282.013 1647.52C305.956 1652.95 329.176 1662.82 351.391 1673.53C358.906 1677.21 366.165 1680.88 373.753 1685.16L355.73 1708.29Z" fill="#371A45"/>
<path d="M852.92 2153.37C910.871 2352.55 971.549 2676.14 990.226 2729.83C1010.08 2786.9 1061.69 2791.86 1061.69 2791.86H1238.07C1238.07 2791.86 1359.95 2797.94 1392.34 2768.17C1424.72 2738.39 1422.88 2686.76 1399.18 2657.52C1374.34 2626.89 1321.75 2627.12 1321.75 2627.12C1321.75 2627.12 1285.73 2194.89 1228.87 1929.36" fill="white"/>
<path d="M1392.32 2768.16C1359.94 2797.96 1238.08 2791.85 1238.08 2791.85H1061.71C1061.71 2791.85 1010.06 2786.89 990.235 2729.85C971.546 2676.13 910.866 2352.55 852.923 2153.39L1228.89 1929.36C1240.34 1982.92 1250.98 2043.29 1260.63 2105.49C1180.44 2266.07 1006.97 2270.41 989.022 2364.24C972.953 2448.22 998.171 2663.73 1072.65 2720.74C1133.14 2766.99 1351.38 2765.66 1416.63 2704.24C1418.12 2727.19 1410.77 2751.23 1392.32 2768.16Z" fill="#E5E5E5"/>
<path d="M1266.56 2809.01C1253.44 2809.01 1243.08 2808.61 1237.67 2808.34H1061.69C1061.16 2808.34 1060.64 2808.32 1060.11 2808.27C1057.57 2808.02 997.718 2801.53 974.661 2735.25C966.687 2712.32 952.606 2647.87 933.117 2558.65C906.97 2438.96 871.156 2275.04 837.098 2157.98C834.554 2149.24 839.578 2140.09 848.316 2137.55C857.056 2135.01 866.199 2140.03 868.743 2148.77C903.116 2266.91 939.066 2431.46 965.316 2551.62C983.104 2633.04 998.465 2703.36 1005.79 2724.42C1020.92 2767.91 1057.59 2774.65 1062.68 2775.39H1238.07C1238.35 2775.39 1238.62 2775.39 1238.89 2775.41C1286.66 2777.8 1362.39 2773.33 1381.18 2756.04C1407.06 2732.24 1404.69 2690.49 1386.38 2667.91C1367.09 2644.12 1322.44 2643.6 1321.82 2643.6H1321.82C1313.31 2643.5 1306.04 2637.06 1305.32 2628.49C1304.96 2624.18 1268.74 2194.25 1212.76 1932.81C1210.85 1923.91 1216.52 1915.15 1225.42 1913.25C1234.31 1911.34 1243.08 1917.01 1244.99 1925.91C1295.65 2162.51 1330.17 2534.95 1336.95 2611.68C1356.85 2614.05 1391.44 2621.81 1411.98 2647.14C1440.1 2681.83 1443.4 2743.6 1403.49 2780.3C1376.59 2805.04 1307.91 2809.01 1266.56 2809.01Z" fill="#371A45"/>
<path d="M966.539 2475.83C943.521 2475.83 928.68 2474.54 926.317 2474.32C917.259 2473.48 910.602 2465.45 911.442 2456.4C912.279 2447.34 920.275 2440.72 929.364 2441.5C931.669 2441.71 1162 2461.24 1280.01 2329.41C1286.08 2322.63 1296.5 2322.06 1303.28 2328.13C1310.06 2334.2 1310.64 2344.61 1304.56 2351.4C1205.55 2462 1042.06 2475.83 966.539 2475.83Z" fill="#371A45"/>
<path d="M1321.76 2643.6L1224.82 2638.18C1214.76 2637.67 1214.29 2622.9 1224.25 2621.72L1321.73 2610.64C1330.83 2609.61 1339.04 2616.14 1340.07 2625.24C1341.38 2635.68 1332.16 2644.81 1321.76 2643.6Z" fill="#371A45"/>
<path d="M756.522 2153.37C698.571 2352.55 637.892 2676.14 619.216 2729.83C599.366 2786.9 547.753 2791.86 547.753 2791.86H371.369C371.369 2791.86 249.487 2797.94 217.106 2768.17C184.725 2738.39 186.561 2686.76 210.264 2657.52C235.1 2626.89 287.696 2627.12 287.696 2627.12C287.696 2627.12 323.709 2194.89 380.57 1929.36" fill="white"/>
<path d="M217.125 2768.16C249.498 2797.96 371.366 2791.85 371.366 2791.85H547.736C547.736 2791.85 599.384 2786.89 619.207 2729.85C637.896 2676.13 698.576 2352.55 756.518 2153.39L380.554 1929.36C369.099 1982.92 358.464 2043.29 348.807 2105.49C428.997 2266.07 602.474 2270.41 620.42 2364.24C636.489 2448.22 611.271 2663.73 536.789 2720.74C476.305 2766.99 258.061 2765.66 192.807 2704.24C191.321 2727.19 198.671 2751.23 217.125 2768.16Z" fill="#E5E5E5"/>
<path d="M342.884 2809.01C301.536 2809.01 232.852 2805.03 205.95 2780.3C166.045 2743.6 169.344 2681.83 197.464 2647.14C218.008 2621.81 252.591 2614.05 272.493 2611.68C279.275 2534.95 313.789 2162.51 364.456 1925.91C366.363 1917.01 375.135 1911.36 384.019 1913.25C392.92 1915.15 398.589 1923.91 396.682 1932.81C340.691 2194.28 304.477 2624.18 304.119 2628.49C303.406 2637.03 296.263 2643.6 287.698 2643.6C287.673 2643.6 287.649 2643.6 287.625 2643.6C275.174 2643.6 239.219 2647.98 223.064 2667.91C204.751 2690.49 202.38 2732.24 228.259 2756.04C247.06 2773.33 322.793 2777.79 370.549 2775.41C370.82 2775.39 371.096 2775.39 371.367 2775.39H546.745C551.95 2774.63 588.554 2767.82 603.649 2724.42C610.973 2703.36 626.335 2633.05 644.12 2551.63C670.37 2431.48 706.322 2266.91 740.697 2148.77C743.239 2140.04 752.374 2135.02 761.124 2137.55C769.862 2140.09 774.886 2149.24 772.342 2157.98C738.282 2275.04 702.469 2438.97 676.319 2558.66C656.832 2647.87 642.75 2712.33 634.776 2735.25C611.722 2801.53 551.866 2808.02 549.327 2808.27C548.805 2808.32 548.277 2808.35 547.75 2808.35H371.773C366.368 2808.61 355.994 2809.01 342.884 2809.01Z" fill="#371A45"/>
<path d="M642.904 2475.83C567.389 2475.83 403.893 2462.01 304.879 2351.4C298.807 2344.61 299.384 2334.2 306.166 2328.13C312.946 2322.07 323.366 2322.63 329.435 2329.41C447.443 2461.25 677.772 2441.71 680.08 2441.5C689.133 2440.72 697.163 2447.34 698.002 2456.4C698.841 2465.46 692.184 2473.48 683.127 2474.32C680.765 2474.54 665.911 2475.83 642.904 2475.83Z" fill="#371A45"/>
<path d="M287.708 2610.64L385.196 2621.72C395.194 2622.93 394.641 2637.71 384.624 2638.18L287.685 2643.6L286.762 2643.65C263.041 2643.97 263.994 2608.97 287.708 2610.64Z" fill="#371A45"/>
<path d="M1242.14 2078.62C1188.44 2248.61 962.395 2297.47 804.72 2297.47C647.046 2297.47 420.999 2248.61 367.341 2078.62C328.864 1956.78 390.559 1770.55 432.881 1666.08C452.1 1618.59 467.319 1588 467.319 1588C467.319 1588 508.252 1270 802.973 1270C1097.69 1270 1142.16 1588 1142.16 1588C1142.16 1588 1157.38 1618.59 1176.64 1666.08C1218.92 1770.58 1280.58 1956.78 1242.14 2078.62Z" fill="white"/>
<path d="M1254.28 1912.6C1254.32 1952.55 1250.76 1990.52 1242.16 2024.46C1188.44 2236.52 962.414 2297.48 804.732 2297.48C647.05 2297.48 420.987 2236.52 367.345 2024.46C358.744 1990.52 355.147 1952.55 355.225 1912.6H1254.28Z" fill="#E5E5E5"/>
<path d="M371.676 2065.39C290.207 1934.4 372.686 1624.65 426.111 1486.54C436.25 1460.37 446.986 1434.57 459.649 1409.28C461.694 1405.2 466.662 1403.55 470.745 1405.59C474.405 1407.42 476.109 1411.61 474.956 1415.39C436.974 1547.81 396.535 1680.3 379.733 1817.27C373.228 1871.05 369.833 1925.77 375.633 1979.49C378.436 2006.15 382.744 2032.09 387.06 2059.49C388.64 2068.2 376.457 2073.14 371.676 2065.39Z" fill="#371A45"/>
<path d="M982.838 2280.47C871.41 2325.28 738.07 2325.28 626.636 2280.47C617.714 2276.65 621.676 2262.98 631.308 2264.67C703.1 2277.24 775.373 2283.9 848.103 2279.87C891.83 2277.8 934.779 2272.14 978.166 2264.66C987.704 2262.99 991.849 2276.67 982.838 2280.47Z" fill="#371A45"/>
<path d="M1149.82 1409.28C1186.75 1485.03 1212.64 1565.51 1233.8 1646.89C1261.56 1756.33 1281.34 1870.33 1266.46 1983.44C1262.06 2011.93 1253.45 2040.48 1237.91 2065.08C1235.43 2069.01 1230.24 2070.18 1226.32 2067.7C1223.37 2065.84 1221.97 2062.44 1222.52 2059.2C1226.91 2031.85 1231.13 2005.88 1233.91 1979.23C1239.63 1925.52 1236.24 1870.84 1229.72 1817.08C1219.26 1735.29 1201.64 1654.68 1179.79 1574.98C1165.35 1521.74 1149.81 1468.55 1134.51 1415.39C1131.71 1406 1145.14 1400.17 1149.82 1409.28Z" fill="#371A45"/>
<path d="M971.168 1967.45C1029.13 1985.93 1200.57 1973.27 1258.84 1960.59C1293.79 1952.98 1315.57 1916.89 1307.08 1880.77C1299.34 1847.82 1268.88 1826.08 1236.57 1830.57C1181.68 1838.19 1013.67 1846.85 960.23 1839.48" fill="white"/>
<path d="M971.151 1967.44C1029.11 1985.92 1200.59 1973.29 1258.85 1960.58C1293.78 1953 1315.57 1916.89 1307.09 1880.75C1305.29 1873.08 1302.27 1865.99 1298.2 1859.72C1290.42 1878.65 1274.18 1893.42 1253.24 1897.99C1195.07 1910.65 1023.75 1923.31 965.798 1904.91L971.151 1967.44Z" fill="#E5E5E5"/>
<path d="M1067.95 1993.35C1026.88 1993.35 989.39 1990.55 966.162 1983.14C924.731 1969.94 916.013 1904.01 925.649 1861.5C934.262 1823.5 954.274 1822.02 962.482 1823.15C1014.35 1830.31 1181.6 1821.56 1234.3 1814.24C1275.22 1808.59 1313.39 1835.55 1323.12 1877C1328.28 1898.96 1324.42 1922.39 1312.51 1941.25C1300.95 1959.58 1283.13 1972.16 1262.35 1976.69C1227.48 1984.28 1141.9 1993.35 1067.95 1993.35ZM962 1856.31C956.668 1865.32 951.8 1895.98 958.15 1923.1C961.832 1938.82 968.401 1949.27 976.172 1951.74L976.174 1951.75C1029.74 1968.82 1196.26 1957.35 1255.34 1944.48C1267.42 1941.85 1277.83 1934.46 1284.64 1923.67C1291.96 1912.05 1294.24 1898.16 1291.04 1884.54C1285.22 1859.75 1262.8 1843.59 1238.83 1846.89C1186.29 1854.19 1021.86 1863.13 962 1856.31Z" fill="#371A45"/>
<path d="M641.398 1967.45C583.44 1985.93 411.993 1973.27 353.724 1960.59C318.776 1952.98 297 1916.89 305.482 1880.77C313.223 1847.82 343.687 1826.08 375.999 1830.57C430.881 1838.19 598.894 1846.85 652.336 1839.48" fill="white"/>
<path d="M641.416 1967.44C583.459 1985.92 411.972 1973.29 353.718 1960.58C318.785 1953 297.001 1916.89 305.473 1880.75C307.273 1873.08 310.299 1865.99 314.364 1859.72C322.148 1878.65 338.383 1893.42 359.324 1897.99C417.5 1910.65 588.821 1923.31 646.769 1904.91L641.416 1967.44Z" fill="#E5E5E5"/>
<path d="M544.615 1993.35C470.66 1993.35 385.089 1984.28 350.218 1976.69C329.432 1972.16 311.619 1959.58 300.057 1941.26C288.15 1922.39 284.281 1898.97 289.439 1877C299.18 1835.55 337.396 1808.6 378.262 1814.24C430.96 1821.56 598.206 1830.31 650.081 1823.15C658.274 1822.01 678.299 1823.49 686.914 1861.5C696.55 1904.01 687.827 1969.93 646.404 1983.15C623.182 1990.55 585.684 1993.35 544.615 1993.35ZM367.51 1846.46C346.001 1846.46 326.839 1861.92 321.524 1884.54C318.326 1898.16 320.601 1912.06 327.93 1923.67C334.739 1934.46 345.144 1941.86 357.229 1944.48C416.311 1957.34 582.825 1968.82 636.389 1951.75L636.391 1951.74C644.164 1949.27 650.734 1938.82 654.416 1923.1C660.764 1895.98 655.895 1865.32 650.563 1856.31C590.702 1863.14 426.283 1854.19 373.732 1846.89C371.644 1846.6 369.566 1846.46 367.51 1846.46Z" fill="#371A45"/>
<path d="M635.313 2061.73H977.259C1020.36 2061.73 1055.62 2026.47 1055.62 1983.37V1795.42C1055.62 1752.32 1020.36 1717.06 977.259 1717.06H635.313C592.213 1717.06 556.949 1752.32 556.949 1795.42V1983.37C556.949 2026.47 592.213 2061.73 635.313 2061.73Z" fill="white"/>
<path d="M1055.62 1898.13V1987.35C1055.62 2028.25 1022.16 2061.72 981.259 2061.72H631.334C590.399 2061.72 556.97 2028.25 556.97 1987.35V1937.27C565.924 1949.15 577.575 1960.69 587.819 1958.15C609.205 1952.83 599.704 1914.94 617.376 1875.49C635.088 1836 737.871 1843.31 745.815 1868.43C753.759 1893.55 736.156 1988.49 865.882 1988.49C973.439 1988.49 1031.19 1964.28 1055.62 1898.13Z" fill="#E5E5E5"/>
<path d="M977.259 2078.21H635.313C583.018 2078.21 540.472 2035.66 540.472 1983.36V1795.42C540.472 1743.13 583.018 1700.58 635.313 1700.58H977.259C1029.56 1700.58 1072.1 1743.12 1072.1 1795.42V1983.36C1072.1 2035.66 1029.56 2078.21 977.259 2078.21ZM635.313 1733.54C601.192 1733.54 573.431 1761.3 573.431 1795.42V1983.36C573.431 2017.49 601.192 2045.25 635.313 2045.25H977.259C1011.38 2045.25 1039.14 2017.49 1039.14 1983.36V1795.42C1039.14 1761.3 1011.38 1733.54 977.259 1733.54H635.313Z" fill="#371A45"/>
<path d="M676.98 1952.83C710.716 1952.83 738.063 1924.43 738.063 1889.4C738.063 1854.36 710.716 1825.96 676.98 1825.96C643.245 1825.96 615.897 1854.36 615.897 1889.4C615.897 1924.43 643.245 1952.83 676.98 1952.83Z" fill="#22A7F0"/>
<path d="M615.882 1889.41C615.882 1893.74 616.282 1897.93 617.082 1902.01C622.725 1872.96 647.416 1851.09 676.99 1851.09C706.564 1851.09 731.255 1872.96 736.858 1902.01C737.658 1897.93 738.059 1893.74 738.059 1889.41C738.059 1854.38 710.726 1825.95 676.991 1825.95C643.256 1825.95 615.882 1854.38 615.882 1889.41Z" fill="white"/>
<path d="M615.897 1889.38C615.897 1924.45 643.262 1952.82 676.979 1952.82C710.696 1952.82 738.062 1924.45 738.062 1889.38C738.062 1883.51 737.28 1877.77 735.844 1872.39C728.666 1899.14 704.997 1918.8 676.979 1918.8C648.961 1918.8 625.294 1899.14 618.116 1872.39C616.681 1877.77 615.897 1883.51 615.897 1889.38Z" fill="#197BDD"/>
<path d="M676.981 1965.19C636.483 1965.19 603.539 1931.19 603.539 1889.4C603.539 1847.6 636.483 1813.6 676.981 1813.6C717.479 1813.6 750.423 1847.6 750.423 1889.4C750.423 1931.19 717.479 1965.19 676.981 1965.19ZM676.981 1838.32C650.113 1838.32 628.255 1861.23 628.255 1889.4C628.255 1917.56 650.113 1940.47 676.981 1940.47C703.849 1940.47 725.707 1917.56 725.707 1889.4C725.707 1861.23 703.848 1838.32 676.981 1838.32Z" fill="#371A45"/>
<path d="M840.318 2078.21C831.216 2078.21 823.839 2070.83 823.839 2061.73V1956.38C823.839 1925.41 838.116 1895.76 862.032 1877.06L871.3 1869.81C887.291 1857.31 896.837 1837.37 896.837 1816.47V1717.06C896.837 1707.96 904.215 1700.58 913.316 1700.58C922.417 1700.58 929.795 1707.96 929.795 1717.06V1816.47C929.795 1847.44 915.515 1877.09 891.599 1895.78L882.334 1903.03C866.343 1915.53 856.797 1935.47 856.797 1956.38V2061.73C856.798 2070.83 849.42 2078.21 840.318 2078.21Z" fill="#371A45"/>
<path d="M804.169 798.786V801.241L802.607 800.036L804.169 798.786Z" fill="#D8D8D8"/>
<path d="M802.607 800.036L801.043 801.241V798.786L802.607 800.036Z" fill="#D8D8D8"/>
<path d="M806.226 1356.78C432.361 1356.78 128.199 1052.62 128.199 678.758C128.199 304.894 432.362 0.730957 806.226 0.730957C1180.09 0.730957 1484.25 304.894 1484.25 678.758C1484.25 1052.62 1180.09 1356.78 806.226 1356.78ZM806.226 33.6899C450.535 33.6899 161.158 323.067 161.158 678.758C161.158 1034.45 450.535 1323.83 806.226 1323.83C1161.92 1323.83 1451.29 1034.45 1451.29 678.758C1451.29 323.067 1161.92 33.6899 806.226 33.6899Z" fill="#371A45"/>
<path d="M806.226 1356.78C432.361 1356.78 128.199 1052.62 128.199 678.758C128.199 304.894 432.362 0.730957 806.226 0.730957C1180.09 0.730957 1484.25 304.894 1484.25 678.758C1484.25 1052.62 1180.09 1356.78 806.226 1356.78ZM806.226 33.6899C450.535 33.6899 161.158 323.067 161.158 678.758C161.158 1034.45 450.535 1323.83 806.226 1323.83C1161.92 1323.83 1451.29 1034.45 1451.29 678.758C1451.29 323.067 1161.92 33.6899 806.226 33.6899Z" fill="#371A45"/>
<path d="M806.212 1356.77C497.281 1356.77 227.623 1148.41 150.047 849.898C149.918 849.52 149.803 849.134 149.703 848.743C135.433 793.675 128.197 736.485 128.197 678.758C128.197 653.172 129.635 627.62 132.474 602.816C170.65 259.598 460.299 0.740967 806.212 0.740967C1152.23 0.740967 1441.9 259.679 1480.02 603.051C1482.81 627.956 1484.23 653.432 1484.23 678.759C1484.23 736.391 1477.02 793.576 1462.79 848.727C1462.69 849.127 1462.57 849.518 1462.44 849.904C1384.8 1148.41 1115.12 1356.77 806.212 1356.77ZM181.719 840.73C255.218 1125.19 511.99 1323.82 806.211 1323.82C1100.39 1323.82 1357.19 1125.16 1430.77 840.733C1430.88 840.284 1431.01 839.844 1431.15 839.41C1444.5 787.281 1451.27 733.236 1451.27 678.758C1451.27 654.656 1449.92 630.413 1447.26 606.707C1411 280.03 1135.41 33.6989 806.212 33.6989C477.113 33.6989 201.549 279.954 165.226 606.509C162.523 630.127 161.156 654.417 161.156 678.758C161.156 733.319 167.943 787.359 181.329 839.395C181.475 839.832 181.607 840.279 181.719 840.73Z" fill="#371A45"/>
<path d="M1444.73 521.741C1438.31 521.741 1432.26 517.976 1429.59 511.778C1325.18 269.383 1080.5 112.759 806.222 112.759C532.128 112.759 287.487 269.243 182.97 511.426C179.547 519.358 170.581 523.313 162.405 520.452C154.243 517.6 149.672 508.924 151.938 500.581C231.784 206.267 500.838 0.713013 806.224 0.713013C1111.8 0.713013 1380.9 206.419 1460.63 500.952C1462.89 509.299 1458.32 517.971 1450.15 520.82C1448.36 521.443 1446.53 521.741 1444.73 521.741ZM806.224 79.8C1009.39 79.8 1197.12 161.941 1328.45 299.971C1209.6 136.58 1017.03 33.672 806.224 33.672C595.516 33.672 402.998 136.506 284.131 299.824C415.478 161.895 603.175 79.8 806.224 79.8Z" fill="#371A45"/>
<path d="M806.195 1269.69C671.151 1269.69 536.28 1226.37 416.163 1144.41C307.298 1070.13 214.549 965.978 154.932 851.085C154.322 850.069 153.846 848.956 153.538 847.762C139.351 793.013 132.156 736.158 132.156 678.773C132.156 653.353 133.587 627.955 136.409 603.285C136.519 602.321 136.743 601.371 137.073 600.458C182.339 475.206 269.373 367.457 388.762 288.861C510.259 208.876 654.604 166.598 806.194 166.598C957.81 166.598 1102.18 208.9 1223.7 288.929C1343.11 367.567 1430.14 475.355 1475.38 600.641C1475.71 601.561 1475.93 602.518 1476.04 603.492C1478.82 628.25 1480.23 653.58 1480.23 678.773C1480.23 736.07 1473.06 792.923 1458.92 847.75C1458.6 848.958 1458.12 850.089 1457.5 851.114C1397.89 965.994 1305.14 1070.13 1196.26 1144.41C1076.12 1226.36 941.241 1269.69 806.195 1269.69ZM177.359 840.022C282.171 1041.63 517 1244.69 806.194 1244.69C1095.43 1244.69 1330.28 1041.63 1435.09 840.019C1448.46 787.69 1455.23 733.444 1455.23 678.771C1455.23 655.004 1453.93 631.115 1451.36 607.746C1360.73 358.762 1101.67 191.596 806.194 191.596C510.796 191.596 251.756 358.7 161.082 607.577C158.477 630.853 157.156 654.796 157.156 678.771C157.156 733.531 163.953 787.774 177.359 840.022Z" fill="#371A45"/>
<g opacity="0.5">
<path d="M1224.14 935.357C1232.23 908.988 1220.45 881.984 1197.82 875.042C1175.19 868.1 1150.29 883.848 1142.2 910.216C1134.11 936.585 1145.89 963.589 1168.52 970.531C1191.15 977.473 1216.05 961.725 1224.14 935.357Z" fill="white"/>
</g>
<path d="M1602.96 1449.45C1517.77 1449.45 1448.56 1396.74 1402.82 1297.01C1369.38 1224.11 1360.23 1152.35 1359.85 1149.33C1358.74 1140.3 1365.15 1132.08 1374.18 1130.96C1383.22 1129.83 1391.44 1136.25 1392.56 1145.28C1392.9 1147.99 1428.4 1416.49 1602.96 1416.49C1612.06 1416.49 1619.44 1423.87 1619.44 1432.97C1619.44 1442.07 1612.06 1449.45 1602.96 1449.45Z" fill="#371A45"/>
</svg>
