<svg width="416" height="194" viewBox="0 0 416 194" fill="none" xmlns="http://www.w3.org/2000/svg">
<g filter="url(#filter0_ddii_214_2)">
<rect x="20" y="20" width="376" height="154" rx="60" fill="white"/>
<rect x="22.5" y="22.5" width="371" height="149" rx="57.5" stroke="#8841CB" stroke-width="5"/>
</g>
<path d="M197.992 108.672C198.216 108.523 198.328 108.373 198.328 108.224C198.328 108 198.216 107.851 197.992 107.776L195.864 106.88C195.715 106.88 195.64 106.805 195.64 106.656C195.565 106.432 195.453 106.133 195.304 105.76C195.155 105.387 195.005 104.939 194.856 104.416C194.707 104.267 194.557 104.192 194.408 104.192C194.259 104.192 194.109 104.267 193.96 104.416L193.176 106.656C193.027 106.805 192.915 106.88 192.84 106.88C192.317 107.179 191.608 107.477 190.712 107.776L190.488 108.224C190.488 108.373 190.563 108.523 190.712 108.672L192.84 109.568L193.176 109.792C193.325 110.464 193.587 111.211 193.96 112.032C194.109 112.256 194.259 112.368 194.408 112.368C194.632 112.368 194.781 112.256 194.856 112.032L195.64 109.792C195.64 109.792 195.715 109.717 195.864 109.568C196.312 109.419 197.021 109.12 197.992 108.672ZM190.376 112.592C190.525 112.443 190.6 112.368 190.6 112.368C190.6 112.219 190.525 112.144 190.376 112.144L188.808 111.472C188.808 111.472 188.771 111.472 188.696 111.472C188.696 111.397 188.696 111.36 188.696 111.36L188.136 109.792L187.912 109.68L187.688 109.792L187.016 111.36C187.016 111.435 186.979 111.472 186.904 111.472L185.336 112.144C185.261 112.144 185.224 112.219 185.224 112.368L185.336 112.592L186.904 113.152C186.904 113.152 186.904 113.189 186.904 113.264C186.979 113.264 187.016 113.264 187.016 113.264L187.688 114.832C187.688 114.981 187.763 115.056 187.912 115.056C187.912 115.056 187.987 114.981 188.136 114.832C188.211 114.683 188.397 114.16 188.696 113.264L188.808 113.152C189.704 112.853 190.227 112.667 190.376 112.592ZM184.216 103.072C184.216 103.221 184.253 103.296 184.328 103.296L185.56 103.744L185.672 103.856C185.896 104.304 186.045 104.677 186.12 104.976L186.344 105.088L186.568 104.976L187.128 103.856C187.128 103.781 187.165 103.744 187.24 103.744C187.688 103.52 188.061 103.371 188.36 103.296C188.509 103.296 188.584 103.221 188.584 103.072C188.584 102.923 188.509 102.848 188.36 102.848C188.061 102.773 187.688 102.624 187.24 102.4C187.165 102.4 187.128 102.363 187.128 102.288L186.568 101.168L186.344 101.056L186.12 101.168C185.971 101.765 185.821 102.139 185.672 102.288L185.56 102.4L184.328 102.848C184.253 102.848 184.216 102.923 184.216 103.072ZM172.456 98.256C178.579 96.9867 183.805 96.352 188.136 96.352C193.96 96.352 197.843 97.5093 199.784 99.824C200.829 101.243 201.613 103.483 202.136 106.544C202.659 109.605 202.92 113.003 202.92 116.736C202.92 120.469 202.696 123.941 202.248 127.152C201.875 130.363 201.315 132.677 200.568 134.096C199.971 135.291 198.925 136.187 197.432 136.784C195.939 137.381 194.259 137.68 192.392 137.68C190.451 137.68 188.584 137.344 186.792 136.672C185 136.075 183.693 135.216 182.872 134.096C182.573 133.648 182.349 133.013 182.2 132.192C177.72 134.88 173.091 136.224 168.312 136.224C160.92 136.149 154.125 134.432 147.928 131.072C141.731 127.637 136.915 122.859 133.48 116.736C130.045 110.539 128.589 103.52 129.112 95.68C129.784 85.376 132.248 77.3493 136.504 71.6C140.835 65.776 145.763 61.8187 151.288 59.728C156.888 57.6373 162.563 56.592 168.312 56.592C180.632 56.592 189.965 60.176 196.312 67.344C196.536 67.568 196.648 67.8667 196.648 68.24C196.648 69.2853 195.64 70.5547 193.624 72.048C191.608 73.4667 189.293 74.736 186.68 75.856C184.067 76.976 182.051 77.6107 180.632 77.76C179.587 77.8347 178.579 77.4987 177.608 76.752C176.712 76.0053 175.667 74.9227 174.472 73.504C173.277 72.0853 172.232 71.0027 171.336 70.256C170.44 69.5093 169.432 69.1733 168.312 69.248C166.445 69.3227 164.392 70.1813 162.152 71.824C159.912 73.4667 157.933 76.2667 156.216 80.224C154.499 84.1067 153.565 89.2587 153.416 95.68C153.267 105.088 154.648 111.771 157.56 115.728C160.472 119.611 164.056 121.701 168.312 122C171 122.149 173.427 121.365 175.592 119.648C177.757 117.931 180.184 115.504 182.872 112.368C182.872 110.203 182.685 108.709 182.312 107.888C181.864 106.843 180.669 106.32 178.728 106.32C177.533 106.32 176.376 106.432 175.256 106.656C173.912 106.805 173.016 106.88 172.568 106.88C171.747 106.88 171.187 106.731 170.888 106.432C170.291 105.835 169.992 104.789 169.992 103.296C169.992 102.101 170.179 101.019 170.552 100.048C171 99.0773 171.635 98.48 172.456 98.256ZM234.133 119.648C235.402 120.021 236.522 120.208 237.493 120.208C241.674 120.208 245.781 118.005 249.813 113.6C253.845 109.12 257.056 103.931 259.445 98.032C261.834 92.0587 262.805 87.28 262.357 83.696C261.76 78.9173 260.229 75.408 257.765 73.168C255.376 70.928 252.464 69.9947 249.029 70.368C248.133 70.4427 247.2 70.704 246.229 71.152C245.333 71.6 244.736 71.8987 244.437 72.048C240.554 74.1387 237.232 77.3493 234.469 81.68C232.677 84.4427 230.96 88.288 229.317 93.216C227.749 98.144 226.965 102.699 226.965 106.88C226.965 113.749 229.354 118.005 234.133 119.648ZM224.837 97.36C224.837 97.2107 224.8 97.136 224.725 97.136C224.501 97.0613 224.277 96.9867 224.053 96.912C223.829 96.8373 223.68 96.7627 223.605 96.688L223.381 96.576L222.933 95.456C222.933 95.3813 222.858 95.344 222.709 95.344C222.56 95.344 222.485 95.3813 222.485 95.456C222.186 95.904 222.037 96.2773 222.037 96.576L221.813 96.688L220.693 97.136C220.544 97.136 220.469 97.2107 220.469 97.36C220.469 97.36 220.544 97.4347 220.693 97.584C220.917 97.6587 221.104 97.7333 221.253 97.808C221.477 97.8827 221.664 97.92 221.813 97.92L222.037 98.032C222.037 98.3307 222.186 98.704 222.485 99.152C222.485 99.2267 222.56 99.264 222.709 99.264C222.858 99.264 222.933 99.2267 222.933 99.152L223.381 98.032L223.605 97.92L224.725 97.584L224.837 97.36ZM220.357 90.64C220.432 90.1173 220.618 89.5947 220.917 89.072L221.029 88.96L222.597 88.288C222.746 88.288 222.821 88.2133 222.821 88.064L222.597 87.952L221.029 87.28L220.917 87.168C220.618 86.6453 220.432 86.1227 220.357 85.6L220.133 85.488C219.984 85.488 219.909 85.5253 219.909 85.6L219.237 87.168L219.125 87.28L217.557 87.952C217.557 87.952 217.52 87.9893 217.445 88.064C217.445 88.2133 217.482 88.288 217.557 88.288L219.125 88.96L219.237 89.072L219.909 90.64C219.909 90.7147 219.984 90.752 220.133 90.752L220.357 90.64ZM216.661 93.664C216.81 93.5147 216.885 93.3653 216.885 93.216C216.885 93.0667 216.81 92.9173 216.661 92.768C215.168 92.1707 214.458 91.872 214.533 91.872C214.458 91.872 214.346 91.7973 214.197 91.648C214.048 90.976 213.786 90.2293 213.413 89.408C213.189 89.184 213.04 89.072 212.965 89.072C212.89 89.072 212.741 89.184 212.517 89.408L211.733 91.648C211.733 91.7973 211.658 91.872 211.509 91.872L209.381 92.768C209.157 92.8427 209.045 92.992 209.045 93.216C209.045 93.3653 209.157 93.5147 209.381 93.664L211.509 94.56C211.658 94.56 211.733 94.6347 211.733 94.784L212.517 97.024C212.666 97.248 212.816 97.36 212.965 97.36C213.189 97.36 213.338 97.248 213.413 97.024C213.786 96.2027 214.048 95.456 214.197 94.784C214.346 94.6347 214.458 94.56 214.533 94.56C214.458 94.56 215.168 94.2613 216.661 93.664ZM282.741 84.144C283.264 86.16 283.525 88.4373 283.525 90.976C283.525 97.1733 281.92 103.669 278.709 110.464C275.573 117.184 271.392 122.933 266.165 127.712C261.013 132.416 255.562 135.067 249.813 135.664C247.722 135.813 246.117 135.888 244.997 135.888C237.306 135.888 230.4 134.096 224.277 130.512C218.229 126.853 213.525 122.037 210.165 116.064C206.805 110.016 205.125 103.52 205.125 96.576C205.125 87.392 208.074 78.8053 213.973 70.816C216.586 67.3813 219.648 64.4693 223.157 62.08C226.741 59.6907 230.549 58.0853 234.581 57.264C237.344 56.6667 240.89 56.368 245.221 56.368C250.373 56.368 254.368 56.7787 257.205 57.6C260.864 58.6453 264.485 60.5493 268.069 63.312C271.653 66.0747 274.752 69.3227 277.365 73.056C279.978 76.7893 281.77 80.4853 282.741 84.144Z" fill="#300087"/>
<defs>
<filter id="filter0_ddii_214_2" x="0" y="0" width="416" height="194" filterUnits="userSpaceOnUse" color-interpolation-filters="sRGB">
<feFlood flood-opacity="0" result="BackgroundImageFix"/>
<feColorMatrix in="SourceAlpha" type="matrix" values="0 0 0 0 0 0 0 0 0 0 0 0 0 0 0 0 0 0 127 0" result="hardAlpha"/>
<feMorphology radius="5" operator="dilate" in="SourceAlpha" result="effect1_dropShadow_214_2"/>
<feOffset dx="-10" dy="-10"/>
<feGaussianBlur stdDeviation="2.5"/>
<feComposite in2="hardAlpha" operator="out"/>
<feColorMatrix type="matrix" values="0 0 0 0 0.133333 0 0 0 0 0.0117647 0 0 0 0 0.396078 0 0 0 0.25 0"/>
<feBlend mode="normal" in2="BackgroundImageFix" result="effect1_dropShadow_214_2"/>
<feColorMatrix in="SourceAlpha" type="matrix" values="0 0 0 0 0 0 0 0 0 0 0 0 0 0 0 0 0 0 127 0" result="hardAlpha"/>
<feMorphology radius="5" operator="dilate" in="SourceAlpha" result="effect2_dropShadow_214_2"/>
<feOffset dx="10" dy="10"/>
<feGaussianBlur stdDeviation="2.5"/>
<feComposite in2="hardAlpha" operator="out"/>
<feColorMatrix type="matrix" values="0 0 0 0 0.133941 0 0 0 0 0.0133056 0 0 0 0 0.395808 0 0 0 0.25 0"/>
<feBlend mode="normal" in2="effect1_dropShadow_214_2" result="effect2_dropShadow_214_2"/>
<feBlend mode="normal" in="SourceGraphic" in2="effect2_dropShadow_214_2" result="shape"/>
<feColorMatrix in="SourceAlpha" type="matrix" values="0 0 0 0 0 0 0 0 0 0 0 0 0 0 0 0 0 0 127 0" result="hardAlpha"/>
<feMorphology radius="5" operator="erode" in="SourceAlpha" result="effect3_innerShadow_214_2"/>
<feOffset dx="-10" dy="-10"/>
<feGaussianBlur stdDeviation="2.5"/>
<feComposite in2="hardAlpha" operator="arithmetic" k2="-1" k3="1"/>
<feColorMatrix type="matrix" values="0 0 0 0 0.509804 0 0 0 0 0.337255 0 0 0 0 0.721569 0 0 0 0.16 0"/>
<feBlend mode="normal" in2="shape" result="effect3_innerShadow_214_2"/>
<feColorMatrix in="SourceAlpha" type="matrix" values="0 0 0 0 0 0 0 0 0 0 0 0 0 0 0 0 0 0 127 0" result="hardAlpha"/>
<feMorphology radius="5" operator="erode" in="SourceAlpha" result="effect4_innerShadow_214_2"/>
<feOffset dx="10" dy="10"/>
<feGaussianBlur stdDeviation="2.5"/>
<feComposite in2="hardAlpha" operator="arithmetic" k2="-1" k3="1"/>
<feColorMatrix type="matrix" values="0 0 0 0 0.505882 0 0 0 0 0.329412 0 0 0 0 0.72549 0 0 0 0.16 0"/>
<feBlend mode="normal" in2="effect3_innerShadow_214_2" result="effect4_innerShadow_214_2"/>
</filter>
</defs>
</svg>
