<svg width="1936" height="1176" viewBox="0 0 1936 1176" fill="none" xmlns="http://www.w3.org/2000/svg">
<path d="M943.97 437.01C409.75 503.33 -12.5901 663.7 0.659878 795.21C13.9099 926.66 457.74 979.49 991.94 913.15C1526.18 846.83 1948.5 686.46 1935.26 554.99C1922 423.51 1478.18 370.71 943.97 437.01ZM977.12 851.92C649.93 892.53 296.06 874.93 284.73 762.31C273.39 649.72 614.99 545.79 942.17 505.13C1269.36 464.55 1623.19 482.12 1634.54 594.76C1645.9 707.38 1304.29 811.31 977.12 851.92Z" fill="#FFC585"/>
<path d="M1549.27 587.95C1549.27 912.52 1286.15 1175.65 961.56 1175.65C636.99 1175.65 373.86 912.52 373.86 587.95C373.86 263.37 636.99 0.259766 961.56 0.259766C1286.15 0.259766 1549.27 263.37 1549.27 587.95Z" fill="#F7941E"/>
<path d="M1225.29 280.87C1197.05 273.08 1167.83 270.01 1139.04 265.01C1074.12 253.68 1008.25 239.41 941.98 241.24C910.11 242.12 757.18 252.69 780.19 315.62C787.69 336.11 817.4 343.02 835.35 349.78C881.13 367.01 931.03 374.93 979.71 367.96C1011.76 363.37 1042.03 349.01 1074.63 347.76C1112.36 346.28 1150.1 345.73 1187.84 345.4C1195.9 345.33 1225.82 347.47 1251.97 345.36C1276.42 343.39 1297.58 337.73 1294.45 323.1C1289.26 298.88 1245.23 286.37 1225.29 280.87Z" fill="#FBB040"/>
<path d="M1438.52 244.76C1331.8 96.7197 1158 0.259766 961.57 0.259766C791.05 0.259766 637.57 72.9598 530.22 188.95C659.46 184.15 789.63 182.84 915.91 153.48C950.31 145.47 984.84 134.87 1020.73 135.98C1102.53 138.52 1177.19 174.77 1251.81 203.25C1302.51 222.6 1376.24 250.3 1438.52 244.76Z" fill="#E05B41"/>
<path d="M1400.33 690.85C1378.4 688.53 1354.65 682.37 1332.65 687.24C1317.41 690.6 1288.61 707.91 1310.54 724.39C1316.4 728.79 1332.75 729.689 1339.93 731.089C1387.3 740.229 1436.81 747.669 1484.73 753.329C1498.01 754.889 1511.32 755.81 1524.64 756.38C1531.18 734.45 1536.45 711.97 1540.42 689.05C1493.89 694.22 1446.97 695.79 1400.33 690.85Z" fill="#E05B41"/>
<path d="M1423.76 829.76C1400.36 829.17 1170.87 788.64 1163.28 817.5C1156.92 842.01 1137.87 900.15 1131.52 915.46C1125.15 930.77 1067.98 949.13 1067.98 949.13C1067.98 949.13 1036.21 946.07 991.75 955.25C846.39 985.28 708.91 764.98 572.46 863.4C547.01 881.79 486.68 875.67 461.28 884.85C459.14 885.62 457.25 886.15 455.45 886.59C557.75 1059.56 746.06 1175.64 961.56 1175.64C1197.22 1175.64 1400.36 1036.89 1494.04 836.69C1472.77 833.04 1449.34 830.41 1423.76 829.76Z" fill="#E05B41"/>
<path d="M837.66 711.07C804.13 710.32 768.64 701.39 735.46 709.52C715.91 714.31 683.18 731.19 711.99 749.84C729.78 761.37 755.97 755.36 775.99 759.42C801.25 764.55 825.12 775.02 848.51 785.59C899.55 808.67 945.87 829.27 1003.69 814.82C1042.16 805.2 1077.16 797.5 1102.22 763.78C1116.13 745.05 1121.98 714.08 1142.16 700.59C1114.72 684.69 1079.76 696.42 1051.05 702.37C981.31 716.78 908.38 712.66 837.66 711.07Z" fill="#FBB040"/>
<path d="M535.97 350.85C557.99 349.74 582.42 352.11 603.38 343.88C617.91 338.19 643.65 316.59 619.42 303.73C612.95 300.3 596.68 301.96 589.36 301.71C542.87 300.11 494.69 300.43 448.07 302.14C435.96 323.84 425.24 346.41 415.92 369.7C455.27 359.84 495.34 352.93 535.97 350.85Z" fill="#F15A29"/>
<path d="M407.28 560.4C448.56 569.58 451.74 563.47 505.75 578.77C559.75 594.06 642.35 594.07 655.05 597.13C667.76 600.2 693.18 600.2 702.71 600.2C712.22 600.2 788.48 600.2 813.88 600.2C839.29 600.2 994.95 600.2 1007.65 600.2C1020.35 600.2 1102.95 594.07 1128.35 591.01C1153.77 587.95 1217.29 584.88 1217.29 584.88C1217.29 584.88 1223.65 584.88 1290.36 575.7C1357.07 566.52 1430.13 554.29 1458.7 569.59C1474.56 578.08 1514.84 581.87 1549.21 585.11C1549.05 552.47 1546.14 520.51 1540.88 489.35L1392 450.22L1242.71 462.47C1242.71 462.47 1160.12 505.31 1137.88 511.43C1115.64 517.56 1083.88 514.5 1067.99 514.5C1052.12 514.5 966.36 508.38 966.36 508.38C966.36 508.38 902.82 493.07 845.64 493.07C788.47 493.07 658.22 486.95 639.17 493.07C620.11 499.2 575.64 499.2 566.1 499.2C557.68 499.2 422.75 499.2 380.55 499.2C377.7 518.07 375.75 537.23 374.71 556.64C383.1 556.25 392.83 557.19 407.28 560.4Z" fill="#F15A29"/>
<path d="M780.99 413.86C780.99 428.45 747.93 440.26 707.14 440.26C666.35 440.26 633.29 428.45 633.29 413.86C633.29 399.29 666.35 387.46 707.14 387.46C747.93 387.46 780.99 399.29 780.99 413.86Z" fill="#FBB040"/>
<path d="M1406.56 626.2C1406.56 635.49 1385.49 643.03 1359.5 643.03C1333.51 643.03 1312.44 635.49 1312.44 626.2C1312.44 616.91 1333.51 609.38 1359.5 609.38C1385.49 609.38 1406.56 616.92 1406.56 626.2Z" fill="#FBB040"/>
<path d="M566.35 662.93C566.35 672.23 545.28 679.76 519.28 679.76C493.29 679.76 472.22 672.23 472.22 662.93C472.22 653.65 493.29 646.11 519.28 646.11C545.27 646.11 566.35 653.65 566.35 662.93Z" fill="#FBB040"/>
<path d="M1458 382.1C1458 390.13 1439.8 396.62 1417.36 396.62C1394.91 396.62 1376.72 390.13 1376.72 382.1C1376.72 374.07 1394.91 367.57 1417.36 367.57C1439.79 367.57 1458 374.07 1458 382.1Z" fill="#FBB040"/>
<path d="M1098.35 881.02C1098.35 889.05 1080.14 895.55 1057.71 895.55C1035.26 895.55 1017.07 889.05 1017.07 881.02C1017.07 873 1035.25 866.51 1057.71 866.51C1080.14 866.51 1098.35 873 1098.35 881.02Z" fill="#FBB040"/>
<path d="M625.44 233.64C625.44 241.67 607.23 248.17 584.8 248.17C562.35 248.17 544.16 241.67 544.16 233.64C544.16 225.61 562.34 219.12 584.8 219.12C607.23 219.12 625.44 225.62 625.44 233.64Z" fill="#FBB040"/>
<path opacity="0.2" d="M506.64 959.96C614.41 1091.59 778.16 1175.64 961.56 1175.64C1286.15 1175.64 1549.27 912.51 1549.27 587.94C1549.27 454.78 1504.92 332.01 1430.28 233.48C1261.72 487.9 887.91 975.24 506.64 959.96Z" fill="#212A3C"/>
<path opacity="0.2" d="M558.18 1015.13C663.44 1114.56 805.33 1175.65 961.56 1175.65C1286.15 1175.65 1549.27 912.52 1549.27 587.95C1549.27 568.98 1548.28 550.25 1546.53 531.73C1368.48 770.72 1018.29 1123.47 558.18 1015.13Z" fill="#212A3C"/>
<path opacity="0.3" d="M1171.55 143.67C1255.17 281.41 1165.17 488.88 970.52 607.07C775.86 725.27 550.28 709.41 466.65 571.69C383.02 433.96 473.02 226.49 667.67 108.3C862.32 -9.90023 1087.92 5.9598 1171.55 143.67Z" fill="url(#paint0_linear_208_269)"/>
<path opacity="0.3" d="M990.91 128.27C1040.86 210.55 978.55 339.64 851.74 416.64C724.94 493.63 581.64 489.36 531.7 407.1C481.74 324.83 544.04 195.72 670.85 118.73C797.67 41.7396 940.96 45.9996 990.91 128.27Z" fill="white"/>
<path d="M1935.25 554.99C1927.78 480.8 1783.18 431.66 1562.63 414.84C1564.72 451.6 1564.52 488.6 1561.69 525.24C1604.95 542.36 1631.56 565.28 1634.53 594.75C1645.89 707.37 1304.28 811.3 977.11 851.91C649.92 892.52 296.05 874.92 284.72 762.3C282.06 735.94 298.95 710.07 330.27 685.36C318.34 651.27 315.33 611.3 316.19 573.89C116.19 642.91 -6.58011 723.37 0.649887 795.22C13.8999 926.67 457.73 979.5 991.93 913.16C1526.17 846.84 1948.5 686.47 1935.25 554.99Z" fill="#FFC585"/>
<defs>
<linearGradient id="paint0_linear_208_269" x1="682.306" y1="187.423" x2="969.803" y2="538.732" gradientUnits="userSpaceOnUse">
<stop stop-color="white"/>
<stop offset="1" stop-color="white" stop-opacity="0"/>
</linearGradient>
</defs>
</svg>
