<svg width="766" height="766" viewBox="0 0 766 766" fill="none" xmlns="http://www.w3.org/2000/svg">
<path d="M382.81 765.28C594.059 765.28 765.31 594.029 765.31 382.78C765.31 171.531 594.059 0.280273 382.81 0.280273C171.561 0.280273 0.310059 171.531 0.310059 382.78C0.310059 594.029 171.561 765.28 382.81 765.28Z" fill="#EA3232"/>
<path d="M382.81 0.280273C217.63 0.280273 76.9104 104.99 23.4004 251.65C72.1104 237.89 112.99 244.78 151.98 268.61C196.98 296.11 256.98 261.95 300.31 180.28C343.64 98.6103 377.81 194.45 427.81 252.78C477.81 311.11 503.64 218.61 483.64 134.45C480.77 122.37 472.61 85.4403 491.82 81.9603C513.3 78.0703 531.58 97.6202 546.16 110.35C563.61 125.58 581.08 141.98 601.99 152.39C625.36 164.03 651.32 171.51 676.56 177.84C682.65 179.36 688.75 180.88 694.88 182.24C697.13 182.74 709.46 183.7 710.49 185.4C643.51 74.4602 521.83 0.280273 382.81 0.280273Z" fill="#F15A29"/>
<path opacity="0.2" d="M478.85 753.11C517.7 743.06 554.1 726.99 587.13 706.07C595.91 700.15 604.46 693.86 612.77 687.23C642.15 663.75 669.19 636.74 692.52 607.15C738.27 544.11 765.32 466.621 765.32 382.771C765.32 367.291 764.29 352.071 762.51 337.081C756.56 351.811 747.94 372.65 745.35 379C732.77 409.93 728.33 450.321 698.1 470.271C688.98 476.291 673.26 474.92 664.25 468.8C639.47 451.97 627.58 421.51 615.48 395.43C608.83 381.1 602.98 366.611 597.89 351.661C595.44 344.441 592.52 337.261 590.54 329.891C590.46 329.611 590.4 329.301 590.32 329.021C599.54 373.201 617.13 455.42 581.39 492.8C507.17 570.44 395.66 467.671 369.27 395.101C358.37 365.121 350.07 328.441 349.06 296.521C352.46 404.241 253.47 488.201 160.09 522.471C132.96 532.431 88.4401 540.13 60.4001 529.451C48.7801 525.031 21.6702 509.771 17.6902 497.051C17.8602 497.601 18.06 498.12 18.23 498.67C19.73 503.34 21.2901 507.98 22.9401 512.58C23.7501 514.83 24.6301 517.03 25.4801 519.26C26.6701 522.37 27.8801 525.481 29.1401 528.561C30.1101 530.891 31.1001 533.21 32.1201 535.52C33.4101 538.49 34.7503 541.43 36.1103 544.36C37.1503 546.6 38.1902 548.841 39.2802 551.061C40.8502 554.261 42.4901 557.421 44.1501 560.57C45.1201 562.41 46.0401 564.26 47.0301 566.08C49.6201 570.81 52.2903 575.471 55.0803 580.071C56.1403 581.841 57.2801 583.57 58.3701 585.31C60.2601 588.34 62.1801 591.35 64.1501 594.32C65.4701 596.301 66.8202 598.26 68.1702 600.21C70.0502 602.93 71.9801 605.64 73.9301 608.31C75.3301 610.22 76.7202 612.121 78.1602 613.991C80.3002 616.821 82.5103 619.59 84.7303 622.36C86.0203 623.97 87.2903 625.601 88.6103 627.181C92.0903 631.361 95.6301 635.47 99.2701 639.48C100.24 640.55 101.26 641.581 102.25 642.641C105.08 645.701 107.94 648.72 110.87 651.68C112.38 653.22 113.94 654.721 115.49 656.221C118 658.681 120.53 661.1 123.11 663.49C124.75 665.01 126.4 666.521 128.06 668.001C130.76 670.411 133.49 672.77 136.25 675.09C137.8 676.41 139.34 677.741 140.91 679.021C144.64 682.07 148.43 685.051 152.27 687.961C152.91 688.441 153.52 688.941 154.16 689.421C158.59 692.731 163.12 695.92 167.7 699.05C169.26 700.11 170.86 701.131 172.44 702.181C175.6 704.271 178.8 706.33 182.03 708.32C183.83 709.43 185.63 710.52 187.45 711.6C190.64 713.51 193.87 715.35 197.11 717.16C198.87 718.14 200.62 719.121 202.39 720.071C206.25 722.141 210.15 724.13 214.1 726.07C215.26 726.65 216.4 727.251 217.57 727.821C222.66 730.261 227.81 732.591 233.02 734.801C234.47 735.421 235.93 735.971 237.38 736.571C241.24 738.161 245.11 739.71 249.03 741.17C250.94 741.87 252.86 742.56 254.77 743.24C258.37 744.52 262.01 745.741 265.66 746.921C267.6 747.551 269.55 748.171 271.51 748.771C275.5 749.981 279.54 751.11 283.59 752.2C285.16 752.62 286.72 753.08 288.29 753.48C293.9 754.91 299.55 756.221 305.24 757.401C306.3 757.621 307.38 757.781 308.44 758.001C313.12 758.921 317.82 759.77 322.56 760.52C324.51 760.83 326.49 761.1 328.45 761.37C332.41 761.94 336.37 762.44 340.36 762.88C342.47 763.11 344.58 763.34 346.69 763.53C350.79 763.91 354.91 764.21 359.05 764.47C360.94 764.59 362.83 764.73 364.73 764.82C370.73 765.1 376.74 765.281 382.81 765.281C403.78 765.281 425.72 761.921 446.46 758.981C457.32 757.441 468.13 755.5 478.85 753.11Z" fill="#212A3C"/>
<path opacity="0.3" d="M505.27 93.2003C556 179.55 498.22 307.64 376.19 379.34C254.17 451.05 114.13 439.16 63.4099 352.84C12.6799 266.5 70.48 138.39 192.48 66.7004C314.49 -4.99965 454.53 6.86029 505.27 93.2003Z" fill="url(#paint0_linear_208_398)"/>
<path opacity="0.3" d="M393.16 82.0105C423.44 133.58 383.57 213.24 304.08 259.95C224.6 306.65 135.6 302.71 105.31 251.14C75.0002 199.58 114.86 119.92 194.37 73.2004C273.85 26.5004 362.86 30.4305 393.16 82.0105Z" fill="white"/>
<defs>
<linearGradient id="paint0_linear_208_398" x1="200.853" y1="115.996" x2="376.337" y2="336.881" gradientUnits="userSpaceOnUse">
<stop stop-color="white"/>
<stop offset="1" stop-color="white" stop-opacity="0"/>
</linearGradient>
</defs>
</svg>
