<svg width="1168" height="1168" viewBox="0 0 1168 1168" fill="none" xmlns="http://www.w3.org/2000/svg">
<path d="M1167.08 584.1C1167.08 906.26 905.91 1167.43 583.75 1167.43C261.58 1167.43 0.410004 906.26 0.410004 584.1C0.410004 261.94 261.58 0.759766 583.75 0.759766C905.91 0.759766 1167.08 261.94 1167.08 584.1Z" fill="#F7941E"/>
<path d="M825.73 368.04C778.19 346.43 769.56 329.15 717.7 333.47C635.59 337.8 566.46 393.96 480.04 385.31C389.3 376.68 320.17 337.79 225.11 359.38C164.6 376.68 160.3 376.68 95.47 368.03C79.96 365.81 62.47 364.16 43.87 363.06C15.92 431.23 0.400024 505.84 0.400024 584.09C0.400024 906.25 261.57 1167.42 583.74 1167.42C905.9 1167.42 1167.07 906.25 1167.07 584.09C1167.07 513.1 1154.37 445.11 1131.15 382.18C1038.3 427.45 927.37 418.86 825.73 368.04Z" fill="#F15A29"/>
<path d="M657.21 778.54C596.72 813.1 536.22 804.47 467.08 817.44C324.48 843.37 272.64 731 147.33 709.4C99.8 700.77 65.23 700.77 17.7 683.47C14.7 682.73 11.63 681.86 8.56998 680.99C54.74 957.02 294.61 1167.43 583.75 1167.43C905.91 1167.43 1167.08 906.26 1167.08 584.1C1167.08 581.45 1166.91 578.87 1166.89 576.22C1071.89 599.19 964.32 658.59 890.54 692.13C808.45 731 739.3 735.33 657.21 778.54Z" fill="#EA3232"/>
<path d="M187.31 156.32C198.96 145.51 211.09 135.23 223.61 125.38C238.36 125.69 255.35 126.07 255.35 126.07C255.35 126.07 306.13 126.07 310.44 126.07C314.77 126.07 449.8 123.9 449.8 123.9C449.8 123.9 475.72 120.66 480.05 120.66C483.22 120.66 517.36 121.84 535.22 122.47C541.63 122.67 545.95 122.82 545.95 122.82C545.95 122.82 527.58 123.9 511.38 127.14C495.17 130.38 475.72 134.71 470.33 135.79C464.94 136.86 456.29 135.79 446.57 136.86C436.85 137.93 421.73 140.1 409.84 143.34C397.96 146.58 380.67 145.5 370.95 147.67C361.22 149.83 350.41 150.9 329.9 151.98C309.38 153.07 269.41 156.32 257.53 156.32C245.65 156.32 221.89 156.32 216.49 156.32C211.36 156.32 200.36 156.32 187.31 156.32Z" fill="#F15A29"/>
<path d="M924.02 1037.8C892.1 1036.98 819.75 1028.06 753.78 1028.06C687.8 1028.06 611.19 1034.54 611.19 1034.54C611.19 1034.54 677.17 1044.27 708.03 1044.27C738.89 1044.27 759.11 1044.27 774.01 1044.27C788.9 1044.27 810.18 1049.94 831.46 1050.75C852.73 1051.57 902.75 1049.95 902.75 1049.95C902.75 1049.95 917.57 1049.07 937.51 1047.83C942.66 1043.9 947.77 1039.92 952.78 1035.82C942.1 1037.17 932.08 1037.99 924.02 1037.8Z" fill="#F15A29"/>
<path d="M959.33 289.75C953.83 290.28 934.04 292.6 917.59 294.16C901.14 295.75 882.76 294.97 882.76 294.97C882.76 294.97 887.04 295.55 893.39 296.4C911.1 298.84 944.93 303.47 948.11 303.78C952.42 304.22 978.53 303.62 978.53 303.62C978.53 303.62 1063.98 310.95 1100.83 314.15C1096.07 305.05 1091.1 296.05 1085.88 287.24C1074.33 286.93 1066.56 287.13 1059.39 287.98C1049.49 289.14 1032.43 286.32 1020.25 288.34C1008.09 290.34 992.85 290.97 983.06 291.06C973.27 291.17 964.79 289.21 959.33 289.75Z" fill="#F15A29"/>
<path d="M402 218.16C402 218.16 452.23 227.89 475.72 227.89C499.23 227.89 514.62 227.89 525.95 227.89C537.3 227.89 553.49 233.55 569.7 234.35C585.91 235.17 623.99 233.55 623.99 233.55C623.99 233.55 697.71 227.89 722.83 224.64C747.95 221.4 763.35 223.02 784.4 221.4C805.47 219.78 808.71 220.6 830.58 220.6C852.45 220.6 859.75 223.83 879.19 223.83C898.64 223.83 902.69 224.64 923.75 224.64C944.81 224.64 950.49 222.2 956.96 222.2C963.44 222.2 971.55 222.2 978.03 220.6C984.5 218.96 965.87 214.92 965.87 214.92C965.87 214.92 943.18 214.92 939.94 214.92C936.71 214.92 933.47 214.92 926.98 214.11C920.5 213.3 907.54 213.3 907.54 213.3C907.54 213.3 820.84 206.82 818.42 206.82C815.99 206.82 731.73 206.82 722 206.82C712.28 206.82 664.48 222.21 640.17 221.41C615.87 220.61 560.77 211.69 510.54 211.69C460.33 211.68 402 218.16 402 218.16Z" fill="#F15A29"/>
<path d="M1162.34 510.15C1143.75 508.58 1115.91 506.24 1114.75 506.27C1113.01 506.35 1052.68 508.51 1045.71 508.74C1038.74 508.98 1005.16 528.13 987.71 527.79C970.27 527.48 930.44 518.5 894.48 519.79C858.5 521.07 817.01 530.09 817.01 530.09C817.01 530.09 853.38 540.12 870.19 539.52C887.02 538.92 898.06 538.51 906.16 538.24C914.3 537.94 926.13 544.14 937.78 544.68C949.41 545.22 976.62 542.35 976.62 542.35C976.62 542.35 1029.17 533.85 1047.02 529.47C1064.89 525.04 1075.97 526.53 1090.99 524.11C1106 521.7 1108.34 522.56 1124.01 522C1139.68 521.43 1145.05 525.03 1158.97 524.53C1160.8 524.46 1162.43 524.43 1163.94 524.4C1163.47 519.63 1162.94 514.88 1162.34 510.15Z" fill="#F7941E"/>
<path d="M144.36 501.72C144.36 501.72 194.59 511.45 218.1 511.45C241.59 511.45 256.98 511.45 268.32 511.45C279.66 511.45 295.87 517.12 312.07 517.93C328.27 518.75 366.35 517.13 366.35 517.13C366.35 517.13 440.08 511.46 465.2 508.21C490.32 504.97 505.71 506.59 526.77 504.97C547.83 503.34 551.08 504.16 572.95 504.16C594.82 504.16 602.11 507.4 621.55 507.4C641 507.4 645.06 508.21 666.12 508.21C687.17 508.21 692.85 505.78 699.33 505.78C705.81 505.78 713.92 505.78 720.39 504.16C726.87 502.54 708.23 498.49 708.23 498.49C708.23 498.49 685.54 498.49 682.31 498.49C679.07 498.49 675.83 498.49 669.35 497.68C662.86 496.87 649.91 496.87 649.91 496.87C649.91 496.87 563.22 490.4 560.78 490.4C558.36 490.4 474.09 490.4 464.37 490.4C454.64 490.4 406.85 505.79 382.54 504.98C358.23 504.17 303.15 495.25 252.91 495.25C202.7 495.24 144.36 501.72 144.36 501.72Z" fill="#F7941E"/>
<path d="M630.17 692.12C643.64 692.12 648.12 695.35 660.08 695.35C672.06 695.35 674.55 696.16 687.52 696.16C700.47 696.16 703.97 693.73 707.96 693.73C711.94 693.73 716.93 693.73 720.94 692.12C724.93 690.5 713.45 686.45 713.45 686.45C713.45 686.45 699.49 686.45 697.49 686.45C695.49 686.45 693.51 686.45 689.51 685.63C685.52 684.83 677.54 684.83 677.54 684.83C677.54 684.83 624.18 678.35 622.69 678.35C621.2 678.35 569.33 678.35 563.34 678.35C557.35 678.35 527.93 693.74 512.98 692.93C498.01 692.13 464.09 683.21 433.18 683.21C402.25 683.21 366.35 689.68 366.35 689.68C366.35 689.68 397.27 699.42 411.73 699.42C426.2 699.42 435.67 699.42 442.65 699.42C449.63 699.42 459.62 705.07 469.59 705.89C479.57 706.69 502.99 705.07 502.99 705.07C502.99 705.07 548.37 699.42 563.83 696.16C579.31 692.92 588.77 694.54 601.73 692.92C614.7 691.3 616.7 692.12 630.17 692.12Z" fill="#F7941E"/>
<path d="M700.77 923.29C728.44 921.66 732.68 922.47 761.42 922.47C790.15 922.47 799.72 925.71 825.27 925.71C850.81 925.71 856.11 926.52 883.78 926.52C911.44 926.52 918.91 924.09 927.42 924.09C935.92 924.09 946.56 924.09 955.08 922.47C963.6 920.85 939.13 916.8 939.13 916.8C939.13 916.8 909.33 916.8 905.07 916.8C900.8 916.8 896.56 916.8 888.05 916C879.52 915.18 862.5 915.18 862.5 915.18C862.5 915.18 748.66 908.71 745.45 908.71C742.27 908.71 631.6 908.71 618.85 908.71C606.07 908.71 543.29 924.1 511.37 923.3C479.44 922.48 407.08 913.56 341.11 913.56C275.15 913.56 198.54 920.04 198.54 920.04C198.54 920.04 264.52 929.77 295.37 929.77C326.24 929.77 346.45 929.77 361.35 929.77C376.23 929.77 397.51 935.44 418.8 936.24C440.08 937.06 490.09 935.44 490.09 935.44C490.09 935.44 586.92 929.77 619.91 926.52C652.89 923.29 673.11 924.91 700.77 923.29Z" fill="#F15A29"/>
<path d="M1110.87 772.9C1090.44 775.01 1079.7 776.64 1070.09 779.3C1060.49 781.96 1043.19 781.76 1031.47 785.6C1019.76 789.45 1004.79 792.37 995.13 793.93C985.46 795.52 976.8 794.89 971.47 796.23C966.11 797.6 946.91 802.9 930.89 806.95C914.85 811.01 896.58 813.02 896.58 813.02C896.58 813.02 900.89 812.95 907.31 812.84C925.16 812.56 959.33 811.99 962.51 811.83C966.83 811.59 992.55 807.03 992.55 807.03C992.55 807.03 1100.95 799.77 1126.38 798.09C1130.04 788.81 1133.48 779.42 1136.68 769.9C1127.09 771.07 1117.83 772.17 1110.87 772.9Z" fill="#F15A29"/>
<path d="M338.9 1055.94C348.67 1055.38 357.23 1056.94 362.67 1056.15C368.13 1055.37 387.79 1052.13 404.14 1049.78C420.5 1047.44 438.89 1047.38 438.89 1047.38C438.89 1047.38 434.6 1047 428.2 1046.43C410.42 1044.82 376.39 1041.75 373.23 1041.6C368.89 1041.35 342.84 1043.16 342.84 1043.16C342.84 1043.16 253.39 1039.66 217.82 1038.23C228.89 1047.17 240.3 1055.7 252.02 1063.83C255.94 1063.53 259.45 1063.1 262.79 1062.54C272.61 1060.92 289.81 1062.97 301.86 1060.39C313.92 1057.8 329.11 1056.48 338.9 1055.94Z" fill="#F15A29"/>
<path opacity="0.2" d="M1058.71 245.66C881.28 501.63 516.78 953.17 144.94 968.23C251.85 1090.26 408.75 1167.43 583.75 1167.43C905.91 1167.43 1167.08 906.26 1167.08 584.1C1167.08 457.88 1126.85 341.12 1058.71 245.66Z" fill="#212A3C"/>
<path opacity="0.2" d="M1166.61 565.71C981.81 797.93 647.29 1109.35 219.56 1039.63C319.39 1119.53 445.95 1167.43 583.75 1167.43C905.91 1167.43 1167.08 906.26 1167.08 584.1C1167.08 577.93 1166.81 571.83 1166.61 565.71Z" fill="#212A3C"/>
<path opacity="0.3" d="M832.91 160.59C919.34 307.68 820.9 525.91 613.01 648.05C405.14 770.21 166.57 749.96 80.16 602.89C-6.26 455.81 92.19 237.56 300.05 115.42C507.9 -6.70015 746.47 13.4998 832.91 160.59Z" fill="url(#paint0_linear_208_336)"/>
<path opacity="0.3" d="M641.92 141.52C693.52 229.37 625.58 365.08 490.16 444.65C354.75 524.21 203.14 517.5 151.54 429.65C99.9 341.8 167.82 206.1 303.26 126.52C438.67 46.9497 590.29 53.6597 641.92 141.52Z" fill="white"/>
<defs>
<linearGradient id="paint0_linear_208_336" x1="314.306" y1="199.421" x2="613.261" y2="575.719" gradientUnits="userSpaceOnUse">
<stop stop-color="white"/>
<stop offset="1" stop-color="white" stop-opacity="0"/>
</linearGradient>
</defs>
</svg>
