<svg width="1053" height="1053" viewBox="0 0 1053 1053" fill="none" xmlns="http://www.w3.org/2000/svg">
<path d="M627.071 952.426C862.258 896.892 1007.9 661.216 952.361 426.029C896.827 190.842 661.151 45.2052 425.964 100.739C190.777 156.274 45.1405 391.949 100.675 627.136C156.209 862.323 391.885 1007.96 627.071 952.426Z" fill="#E6E7E8"/>
<path d="M578.7 653.45C578.7 712.94 626.93 761.18 686.41 761.18C745.89 761.18 794.12 712.95 794.12 653.45C794.12 593.95 745.9 545.74 686.41 545.74C626.93 545.73 578.7 593.96 578.7 653.45Z" fill="#D1D3D4"/>
<path d="M783.16 325.69C783.16 292.24 756.03 265.12 722.57 265.12C689.11 265.12 661.98 292.24 661.98 325.69C661.98 359.17 689.11 386.28 722.57 386.28C756.03 386.28 783.16 359.16 783.16 325.69Z" fill="#A7A9AC"/>
<path d="M823.97 562.57C823.97 629.07 866.13 685.6 925.1 707.34C950.08 652.28 964.09 591.2 964.09 526.81C964.09 486.74 958.59 447.98 948.5 411.12C877.55 425.04 823.97 487.52 823.97 562.57Z" fill="#D1D3D4"/>
<path d="M233.24 637.88C233.24 624.39 222.31 613.49 208.83 613.49C195.35 613.49 184.43 624.4 184.43 637.88C184.43 651.37 195.36 662.28 208.83 662.28C222.3 662.29 233.24 651.37 233.24 637.88Z" fill="#D1D3D4"/>
<path d="M807.57 454.86C807.57 441.37 796.65 430.46 783.18 430.46C769.7 430.46 758.77 441.38 758.77 454.86C758.77 468.34 769.71 479.26 783.18 479.26C796.65 479.26 807.57 468.34 807.57 454.86Z" fill="#D1D3D4"/>
<path d="M258.53 747.7C258.53 781.17 285.66 808.27 319.11 808.27C352.57 808.27 379.71 781.17 379.71 747.7C379.71 714.23 352.57 687.11 319.11 687.11C285.66 687.11 258.53 714.23 258.53 747.7Z" fill="#D1D3D4"/>
<path d="M491.58 233.97C491.58 255.36 508.9 272.68 530.28 272.68C551.66 272.68 568.99 255.36 568.99 233.97C568.99 212.6 551.67 195.28 530.28 195.28C508.9 195.27 491.58 212.6 491.58 233.97Z" fill="#D1D3D4"/>
<path d="M669.72 940.29C657.26 867.52 594.01 812.07 517.69 812.07C443.51 812.07 381.6 864.42 366.72 934.14C416.25 953.59 470.1 964.37 526.52 964.37C576.68 964.38 624.83 955.83 669.72 940.29Z" fill="#A7A9AC"/>
<path d="M279.13 516.71C324.67 516.71 361.6 479.79 361.6 434.24C361.6 388.7 324.67 351.78 279.13 351.78C233.6 351.78 196.66 388.7 196.66 434.24C196.65 479.79 233.59 516.71 279.13 516.71Z" fill="#A7A9AC"/>
<path d="M534.56 443.51C534.56 430.03 523.64 419.12 510.15 419.12C496.67 419.12 485.75 430.04 485.75 443.51C485.75 457 496.67 467.91 510.15 467.91C523.63 467.91 534.56 456.99 534.56 443.51Z" fill="#D1D3D4"/>
<path d="M457.08 616.86C435.69 616.86 418.37 634.18 418.37 655.55C418.37 676.94 435.69 694.24 457.08 694.24C478.45 694.24 495.78 676.94 495.78 655.55C495.77 634.17 478.45 616.86 457.08 616.86Z" fill="#D1D3D4"/>
<path opacity="0.1" d="M880.27 269.38C759.78 452.82 487.17 814.34 205.02 823.53C284.97 910.13 399.39 964.38 526.52 964.38C768.18 964.38 964.09 768.48 964.09 526.81C964.09 430.56 932.94 341.62 880.27 269.38Z" fill="#212A3C"/>
<path opacity="0.1" d="M963.22 500.33C834.81 673.09 585.97 926.38 258.65 872.7C332.69 930.12 425.58 964.37 526.52 964.37C768.18 964.37 964.09 768.47 964.09 526.8C964.09 517.91 963.75 509.09 963.22 500.33Z" fill="#212A3C"/>
<path opacity="0.5" d="M664.07 194.32C721.92 289.59 659.68 433.09 525.03 514.83C390.41 596.6 234.35 585.63 176.53 490.36C118.68 395.11 180.93 251.6 315.56 169.86C450.2 88.1003 606.24 99.0603 664.07 194.32Z" fill="url(#paint0_linear_208_294)"/>
<path opacity="0.3" d="M539.14 183.66C573.69 240.56 530.6 329.86 442.89 383.12C355.18 436.37 256.06 433.41 221.53 376.52C186.97 319.63 230.06 230.32 317.77 177.07C405.48 123.81 504.59 126.76 539.14 183.66Z" fill="white"/>
<defs>
<linearGradient id="paint0_linear_208_294" x1="325.683" y1="224.576" x2="524.533" y2="467.562" gradientUnits="userSpaceOnUse">
<stop stop-color="white"/>
<stop offset="1" stop-color="white" stop-opacity="0"/>
</linearGradient>
</defs>
</svg>
