<svg width="370" height="310" viewBox="0 0 370 310" fill="none" xmlns="http://www.w3.org/2000/svg">
<path d="M5.00012 155C4.96991 174.694 9.60391 194.199 18.6365 212.398C27.669 230.597 40.9226 247.131 57.6375 261.054C74.3606 274.993 94.2165 286.049 116.07 293.589C137.923 301.13 161.346 305.007 184.999 305C210.455 305.046 235.631 300.569 258.847 291.865L334.096 301.14C337.832 301.649 341.661 301.389 345.249 300.384C348.838 299.38 352.078 297.66 354.688 295.375C357.297 293.09 359.198 290.308 360.225 287.272C361.252 284.235 361.374 281.036 360.58 277.951L350.13 214.335C360.07 195.657 365.138 175.432 364.997 155C365.027 135.306 360.393 115.8 351.361 97.6015C342.328 79.4027 329.075 62.8683 312.36 48.9459C295.637 35.0067 275.781 23.9509 253.927 16.4104C232.074 8.86984 208.651 4.9925 184.999 5.00001C137.234 5.00266 91.4239 20.8093 57.6375 48.9459C40.9312 62.8736 27.6833 79.4091 18.6513 97.6067C9.61935 115.804 4.98053 135.307 5.00012 155Z" fill="white" stroke="#371B45" stroke-width="10" stroke-linecap="round" stroke-linejoin="round"/>
</svg>
