<svg width="1385" height="1384" viewBox="0 0 1385 1384" fill="none" xmlns="http://www.w3.org/2000/svg">
<path d="M1384.13 701.68C1378.6 1083.62 1064.5 1388.79 682.53 1383.27C300.57 1377.76 -4.59011 1063.64 0.919893 681.7C6.44989 299.74 320.55 -5.4399 702.51 0.0900959C1084.48 5.5901 1389.63 319.71 1384.13 701.68Z" fill="#196EA5"/>
<path d="M1382.26 641.97C1329.97 643.42 1277.93 642.95 1226.69 629.68C1139.88 607.18 1061.89 559.28 974.4 538.78C856 511.03 729.89 506.98 609.2 518.68C489.86 530.25 378.68 581.61 259.67 594.72C176.36 603.89 91.8398 599.46 7.70979 595.55C3.77979 623.76 1.34987 652.47 0.909868 681.7C0.699868 696.53 1.11004 711.24 1.84004 725.86C38.33 726.39 74.8099 726.91 111.3 727.45C293.5 730.07 469.43 793.61 649.88 813.33C773.71 826.87 898.68 817.62 1022.36 806.55C1075.56 801.78 1120.51 769.15 1173.29 764.11C1218.25 759.84 1263.5 759.2 1308.66 758.18C1313.98 758.05 1344.54 758.3 1380.79 758.21C1382.59 739.56 1383.85 720.73 1384.12 701.68C1384.41 681.55 1383.66 661.69 1382.26 641.97Z" fill="#27AAE1"/>
<path d="M1332.47 954.06C1301.83 959.73 1258.54 968.66 1240.3 976.7C1210.68 989.74 1111.1 1005.15 1081.54 1014.82C1051.97 1024.49 1007.91 1017.12 1007.91 1017.12C1007.91 1017.12 794.55 1014.03 783.52 1013.88C772.48 1013.71 651.38 991.75 622.2 974.5C593 957.25 519.49 952.81 519.49 952.81L280.85 915.69L46.8999 939.84C71.4299 1003.56 105.08 1062.77 146.36 1115.84C217.14 1117.57 286.66 1127.91 325.61 1128.47C366.07 1129.06 454.21 1140.44 498.22 1151.17C542.22 1161.91 579.09 1155.72 597.49 1155.98C615.89 1156.24 781.52 1151.89 932.45 1147.35C1083.37 1142.8 1020.74 1148.62 1050.27 1142.32C1079.78 1136.01 1127.52 1143.43 1164.3 1143.96C1192.06 1144.36 1203.07 1144.53 1216.31 1143.26C1264.58 1087.33 1303.95 1023.55 1332.47 954.06Z" fill="#27AAE1"/>
<path d="M96.1199 341.52C204.55 312.23 381 281.59 550.63 326.74C821.85 398.93 899.36 382.07 995.32 361.9C1091.28 341.74 1150.19 338.99 1172.27 339.32C1184.52 339.5 1240.98 340.32 1288.79 341C1257 287.06 1218 237.92 1173.25 194.63C1158.6 192.9 1144.55 191.58 1133.91 191.43C1100.8 190.95 1042.01 186.51 986.86 182.11C931.74 177.73 821.58 161.76 803.19 161.5C784.81 161.23 784.86 157.62 711.34 152.96C637.81 148.31 516.73 125.01 465.27 120.67C415.53 116.48 379.47 105.86 327.27 104.43C232.45 163.55 152.94 244.96 96.1199 341.52Z" fill="#27AAE1"/>
<path d="M1047.85 672.9C1047.07 727.75 927.02 770.51 779.71 768.37C632.42 766.24 513.66 720.05 514.44 665.2C515.24 610.35 635.28 567.59 782.58 569.72C929.9 571.84 1048.66 618.03 1047.85 672.9Z" fill="#5FB2E0"/>
<path d="M930.13 671.2C929.7 701.84 862.64 725.71 780.35 724.53C698.07 723.33 631.73 697.53 632.18 666.88C632.61 636.25 699.67 612.37 781.97 613.56C864.25 614.75 930.58 640.56 930.13 671.2Z" fill="#A4DBF4"/>
<path d="M987.32 276.33C986.11 309.6 912.71 333.94 823.36 330.7C734.01 327.46 662.56 297.85 663.77 264.58C664.97 231.32 738.39 206.96 827.73 210.21C917.08 213.45 988.53 243.05 987.32 276.33Z" fill="#5FB2E0"/>
<path d="M915.92 273.74C915.25 292.33 874.25 305.93 824.33 304.11C774.41 302.29 734.51 285.75 735.18 267.18C735.85 248.59 776.84 234.99 826.77 236.81C876.68 238.61 916.6 255.14 915.92 273.74Z" fill="#A4DBF4"/>
<path d="M432.92 218.49C432.4 232.93 400.54 243.49 361.76 242.09C323 240.68 292 227.81 292.52 213.39C293.05 198.95 324.89 188.38 363.68 189.81C402.44 191.22 433.45 204.05 432.92 218.49Z" fill="#A4DBF4"/>
<path d="M343.19 676.5C342.95 693.27 282.63 705.98 208.48 704.91C134.31 703.84 74.3901 689.39 74.6301 672.62C74.8701 655.86 135.2 643.15 209.36 644.22C283.51 645.29 343.44 659.75 343.19 676.5Z" fill="#5FB2E0"/>
<path d="M1175.83 1078.56C1175.62 1093.43 1122.12 1104.71 1056.36 1103.76C990.57 1102.81 937.41 1090.01 937.64 1075.13C937.85 1060.25 991.35 1048.98 1057.12 1049.93C1122.9 1050.86 1176.05 1063.69 1175.83 1078.56Z" fill="#5FB2E0"/>
<path d="M596.79 1044.79C596.21 1065.51 521.45 1080.25 429.81 1077.72C338.16 1075.18 264.3 1056.32 264.87 1035.61C265.45 1014.89 340.23 1000.16 431.88 1002.69C523.53 1005.22 597.36 1024.08 596.79 1044.79Z" fill="#A4DBF4"/>
<path d="M1363.82 858.01C1360.18 872.79 1356.15 887.4 1351.57 901.78C1332.47 901.33 1313.35 901.33 1294.28 902.33C1251.06 904.61 1210.69 917.92 1168.14 924.07C1109.37 932.61 1043.88 940.63 984.49 940.61C943.6 940.61 902.94 935.18 862.27 931.41C827.97 928.25 790.83 932.39 757.24 924.42C691.65 908.87 621.11 896.04 554.23 887.52C471.07 876.95 386.37 859.7 302.97 853.5C246.02 849.29 185.98 845.37 129.01 845.23C95.0098 845.13 61.3398 845.8 27.4098 846.43C24.4298 846.47 21.42 846.53 18.43 846.58C16.59 838.56 14.7597 830.54 13.2197 822.41C71.4197 822.51 131.55 829.56 187.98 833.23C302.57 840.7 416.99 851.14 531.82 854.27C591.6 855.89 647.64 871.93 706.48 880.28C747.86 886.15 785.86 892.05 827.48 890.02C892.83 886.84 958.21 890.65 1023.55 892.25C1083.63 893.73 1142.6 887.37 1202.47 886.64C1257.07 885.94 1310.78 871.44 1363.82 858.01ZM229.49 460.6C276.85 454.07 318.41 446.78 366.81 447.7C454.94 449.38 542.95 451.34 631.03 453.62C767.67 457.16 904.34 443.09 1040.04 465.73C1086.72 473.52 1131.59 490.49 1179.16 494.21C1233.99 498.49 1296.85 484.31 1350.27 496.98C1351.8 497.35 1354.09 497.68 1356.66 498C1351.45 480.09 1345.38 462.54 1338.79 445.26C1187.99 447.36 1035.6 437.73 886.17 422.06C806.87 413.75 727.15 402.4 647.55 397.68C486.15 388.16 324.54 393.18 162.99 391.3C132.12 390.95 101.26 390.26 70.3798 389.37C54.1898 422.66 40.6498 457.44 29.9098 493.46C96.4998 485.09 163.27 469.75 229.49 460.6ZM482.81 32.5802L591.3 57.3501C591.3 57.3501 666.69 60.2802 674.05 60.3801C681.4 60.5001 793.45 73.1501 804.46 75.1501C815.47 77.1501 910.8 100.6 918.15 100.72C925.51 100.82 984.29 107.18 997.16 107.38C1007.91 107.53 1053.23 110.76 1071.07 112.93C965.02 43.4201 838.7 2.06015 702.51 0.100149C625.86 -1.02985 552.03 10.5602 482.81 32.5802ZM848.69 1216.41C843.17 1216.34 787.91 1221.06 780.52 1222.78C773.13 1224.54 691.98 1239.91 691.98 1239.91C691.98 1239.91 607.41 1235.01 601.89 1234.93C596.37 1234.85 520.96 1233.76 498.91 1231.6C476.87 1229.44 339.11 1214.58 339.11 1214.58L238.31 1213.12C357.33 1316.92 512.24 1380.81 682.53 1383.27C850.39 1385.69 1005.11 1328.09 1126.34 1230.36C1126.3 1229.91 1126.29 1229.62 1126.29 1229.62C1126.29 1229.62 1030.76 1220.89 1025.24 1220.82C1019.73 1220.73 949.83 1219.74 940.63 1219.59C931.43 1219.46 854.19 1216.51 848.69 1216.41Z" fill="#0E577F"/>
<path opacity="0.2" d="M1255.7 290.25C1053.73 585.77 609.3 1148.59 162.31 1135.55C287.01 1284.36 473.15 1380.24 682.52 1383.26C1064.49 1388.78 1378.59 1083.61 1384.12 701.67C1386.34 548.4 1338.43 406.12 1255.7 290.25Z" fill="#212A3C"/>
<path opacity="0.2" d="M1382.9 652.49C1169.23 928.53 759.09 1325.67 230.74 1206.38C350.73 1314.13 508.6 1380.76 682.53 1383.27C1064.5 1388.79 1378.6 1083.62 1384.13 701.68C1384.36 685.12 1383.81 668.76 1382.9 652.49Z" fill="#212A3C"/>
<path opacity="0.3" d="M954.2 160.87C1052.23 327.75 940.55 575.36 704.7 713.94C468.86 852.53 198.2 829.57 100.15 662.71C2.10014 495.83 113.79 248.22 349.62 109.64C585.45 -28.94 856.13 -6.01007 954.2 160.87Z" fill="url(#paint0_linear_208_314)"/>
<path opacity="0.3" d="M737.49 139.23C796.04 238.89 718.97 392.87 565.33 483.15C411.7 573.44 239.68 565.81 181.13 466.15C122.55 366.47 199.61 212.51 353.26 122.21C506.91 31.93 678.92 39.55 737.49 139.23Z" fill="white"/>
<defs>
<linearGradient id="paint0_linear_208_314" x1="365.809" y1="204.927" x2="704.992" y2="631.86" gradientUnits="userSpaceOnUse">
<stop stop-color="white"/>
<stop offset="1" stop-color="white" stop-opacity="0"/>
</linearGradient>
</defs>
</svg>
