<svg width="2207" height="3009" viewBox="0 0 2207 3009" fill="none" xmlns="http://www.w3.org/2000/svg">
<g opacity="0.2">
<path d="M1353.5 3001C1752.53 3001 2076 2961.64 2076 2913.09C2076 2864.55 1752.53 2825.19 1353.5 2825.19C954.474 2825.19 631 2864.55 631 2913.09C631 2961.64 954.474 3001 1353.5 3001Z" fill="#371A45"/>
</g>
<path d="M1125.87 1322.01L1097.44 1477.94C978.242 1414.35 912.575 1315.65 881.344 1254.9C963.981 1289.52 1047.61 1314.7 1125.87 1322.01Z" fill="#E8E8E8"/>
<path d="M1789.72 1400.9C1748.1 1437.15 1685.73 1477.76 1596.42 1505.48L1549.12 1309.15C1549.12 1309.15 1668.81 1293.67 1789.72 1400.9Z" fill="#E8E8E8"/>
<path d="M1722.02 1717.5C1643.4 1764.75 1525.92 1806.68 1356.54 1806.68C1219.16 1806.68 1116.8 1764.93 1041.74 1710.82L1093.69 1585.71C1429.65 991.411 1517.12 1503.84 1517.12 1503.84C1517.12 1503.84 1635.09 1563.78 1722.02 1717.5Z" fill="#E8E8E8"/>
<path d="M1385.79 1252.56L1381.11 1376.6L1378.7 1439.78L1337.43 2529.36C1337.43 2529.36 1411.88 2527.96 1511.57 2518.05C1531.07 2516.11 1551.54 2513.86 1572.6 2511.22C1729.55 2491.66 1919.52 2451.1 1989.33 2367.69C2093.68 2242.96 2091.57 1651.45 1986.69 1420.47C1938.64 1314.58 1711.55 1275.51 1550.73 1261.07C1532.76 1259.42 1515.59 1258.12 1499.62 1257.08C1432.29 1252.59 1385.79 1252.56 1385.79 1252.56Z" fill="white"/>
<path d="M1381.11 1376.6L1378.7 1439.78L1345.93 2304.92L1337.43 2529.36C1337.43 2529.36 1338.99 2529.32 1341.94 2529.24C1342.78 2529.2 1343.78 2529.18 1344.84 2529.16C1345.68 2529.12 1346.62 2529.09 1347.57 2529.06C1348.29 2529.07 1349.02 2529.02 1349.74 2529.02C1350.02 2528.99 1350.35 2529.02 1350.63 2528.99C1351.97 2528.94 1353.47 2528.9 1355.03 2528.81C1355.37 2528.84 1355.7 2528.81 1356.09 2528.79C1357.37 2528.73 1358.71 2528.68 1360.16 2528.64C1362.11 2528.58 1364.12 2528.48 1366.24 2528.38C1367.75 2528.29 1369.36 2528.26 1370.98 2528.18C1372.65 2528.1 1374.32 2528.02 1376.05 2527.94C1378.23 2527.85 1380.52 2527.72 1382.86 2527.64C1387.6 2527.38 1392.62 2527.14 1397.93 2526.82C1402.61 2526.61 1407.53 2526.31 1412.67 2525.97C1418.59 2525.59 1424.79 2525.23 1431.21 2524.78C1454.96 2523.15 1482.15 2520.98 1511.57 2518.05C1517.28 2517.49 1523.11 2516.87 1529 2516.27C1533.09 2515.84 1537.3 2515.37 1541.5 2514.89C1551.66 2513.76 1562.09 2512.55 1572.6 2511.22C1729.6 2491.67 1919.52 2451.11 1989.28 2367.69C2075.24 2265 2089.03 1845.79 2032.6 1571.96C2048.89 1811.19 2025.15 2068.26 1960.35 2145.66C1928.32 2183.93 1874.28 2031.37 1875.55 1954.59C1878.84 1756.56 1765.32 1523.13 1581.06 1373.87C1576.27 1369.99 1469.85 1384.87 1381.11 1376.6Z" fill="#E5E5E5"/>
<path d="M1319.24 2547.2L1368.97 1235.08L1385.81 1235.09C1387.13 1235.09 1519.93 1235.41 1660.31 1256.37C1853.29 1285.2 1968.46 1337.97 2002.63 1413.22C2111.57 1653.11 2111.63 2248.78 2002.74 2378.93C1872.14 2535.01 1359.5 2546.44 1337.74 2546.85L1319.24 2547.2ZM1402.62 1270.19L1355.59 2511.3C1449.08 2507.76 1868.57 2484.79 1975.92 2356.49C2020.94 2302.69 2049.63 2136.84 2049.01 1933.98C2048.37 1726.52 2018.41 1532.52 1970.8 1427.68C1914.39 1303.44 1556.61 1272.4 1402.62 1270.19Z" fill="#371A45"/>
<path d="M2101.11 1896.08C2067.97 1870.63 1857.69 1877.09 1857.69 1877.09C1834.5 1879.73 1816.04 1897.67 1812.78 1920.78C1800.85 2005.35 1783.45 2201.9 1867.57 2263.34C1937.41 2314.35 2032.24 2288.19 2082.83 2237.19C2122.31 2197.41 2129.15 2125.05 2128.94 2052.95C2128.71 1974.83 2126.98 1915.94 2101.11 1896.08Z" fill="white"/>
<path d="M2128.95 2052.97C2129.1 2090.15 2127.27 2127.39 2120.08 2160.18C2113.41 2191 2101.95 2217.92 2082.83 2237.18C2032.24 2288.18 1937.42 2314.35 1867.57 2263.32C1801.59 2215.13 1798.06 2083.71 1805.36 1988.56C1805.39 1988.48 1805.37 1988.42 1805.37 1988.42C1807.37 1962.33 1810.23 1938.94 1812.77 1920.77C1816.03 1897.68 1834.51 1879.7 1857.69 1877.09C1857.69 1877.09 2067.97 1870.6 2101.14 1896.08C2126.95 1915.93 2128.73 1974.85 2128.95 2052.97Z" fill="white"/>
<path d="M2120.08 2160.18C2113.41 2191 2101.95 2217.92 2082.83 2237.18C2032.24 2288.18 1937.42 2314.35 1867.57 2263.32C1801.59 2215.13 1798.06 2083.71 1805.36 1988.56C1805.94 1992.45 1819.55 2090.61 1851.11 2081.98C1875.95 2075.23 1889.03 2023.93 1889.83 2020.91C1890.64 2027.3 1916.03 2221.29 2021.27 2207.37C2068.6 2201.14 2099.68 2182.15 2120.08 2160.18Z" fill="#E5E5E5"/>
<path d="M1953.99 2308.29C1920.44 2308.29 1886.74 2298.99 1857.26 2277.46C1768.55 2212.66 1780.47 2024.64 1795.47 1918.34C1799.84 1887.37 1824.61 1863.27 1855.71 1859.72L1857.15 1859.61C1907.96 1858.07 2076.41 1855.08 2111.75 1882.21C2143.61 1906.67 2146.16 1965.67 2146.42 2052.9C2146.63 2124.4 2140.72 2203.67 2095.25 2249.51C2060.23 2284.8 2007.3 2308.29 1953.99 2308.29ZM1859.03 1894.54C1844.06 1896.53 1832.2 1908.24 1830.09 1923.22C1821.35 1985.13 1798.99 2191.6 1877.88 2249.22C1938.99 2293.86 2023.77 2271.9 2070.42 2224.88C2107.14 2187.88 2111.64 2113.59 2111.46 2053C2111.29 1996.32 2111.08 1925.77 2090.47 1909.94C2073.11 1896.62 1957.03 1891.58 1859.03 1894.54Z" fill="#371A45"/>
<path d="M2024.73 2292.56C1987.78 2299.89 1952.03 2277.31 1930.66 2249.61C1881.59 2183.68 1880.51 2097.48 1883.83 2019.5C1885.19 2003.42 1886.6 1988.21 1891.28 1972.38C1892.03 1969.95 1894.62 1968.59 1897.05 1969.34C1899.56 1970.12 1900.85 1972.8 1900.06 1975.25C1896.83 1989.38 1896.15 2005.28 1895.86 2020.02C1897.18 2092.35 1902.59 2176.18 1950.32 2233.28C1967.08 2252.27 1992.18 2268.31 2017.53 2262.54C2037.98 2257.61 2045.28 2287.62 2024.73 2292.56Z" fill="#371A45"/>
<path d="M1662.32 1397.63C1741.27 1387.32 1820.32 1380.05 1900.08 1380.93C1926.86 1381.47 1953.75 1382.76 1981.18 1387.32C1990.71 1388.91 1997.15 1397.92 1995.57 1407.45C1993.95 1417.37 1984.12 1423.92 1974.34 1421.61C1924.79 1411.06 1872.05 1409.42 1820.95 1409.12C1768.84 1409.08 1716.33 1411.39 1664.39 1415.54C1652.87 1416.39 1650.75 1399.52 1662.32 1397.63Z" fill="#371A45"/>
<path d="M1588.46 1931.47C1588.46 1931.47 1437.22 2167.59 1398.23 2279.53C1346.06 2429.29 1404.01 2840.02 1363.91 2915.3C1346.46 2948.07 1314.17 2978.83 1146.82 2978.83C1019.93 2978.83 933.5 2978.91 930.764 2891.67C928.727 2826.72 1013.84 2797.03 1013.84 2797.03L918.245 2085.5" fill="white"/>
<path d="M1398.25 2279.51C1346.05 2429.29 1404.02 2840.02 1363.9 2915.29C1346.45 2948.07 1314.19 2978.84 1146.8 2978.84C1019.94 2978.84 933.515 2978.92 930.747 2891.65C930.667 2889.69 930.706 2887.72 930.826 2885.84C933.835 2824.97 1013.84 2797.05 1013.84 2797.05L944.668 2282.16L918.229 2085.48L1588.47 1931.46C1588.47 1931.46 1437.2 2167.58 1398.25 2279.51Z" fill="white"/>
<path d="M1398.25 2279.51C1346.05 2429.29 1404.02 2840.02 1363.9 2915.29C1346.45 2948.07 1314.19 2978.84 1146.8 2978.84C1019.94 2978.84 933.515 2978.92 930.747 2891.65C930.667 2889.69 930.706 2887.72 930.826 2885.84C950.004 2900.88 995.302 2923.79 1093.68 2924.47C1240.65 2925.48 1321.98 2911.47 1336.26 2828.78C1350.5 2746.09 1343.4 2604.7 1295.78 2524.1C1247.47 2442.41 1061.22 2460.74 944.668 2282.16L918.229 2085.48L1588.47 1931.46C1588.46 1931.46 1437.2 2167.58 1398.25 2279.51Z" fill="#E8E8E8"/>
<path d="M1603.18 1940.9C1548.05 2028.5 1494.12 2117.77 1447.62 2210.22C1432.99 2240.52 1417.98 2270.74 1409.41 2303.22C1401.39 2335.05 1397.82 2369.15 1395.52 2403.21C1389.19 2506.87 1394.28 2610.47 1396.02 2714.71C1396.14 2776.69 1400.06 2839.74 1387.38 2901.29C1364.68 2994.2 1244.63 2992.76 1168.53 2996.11C1114.88 2996.03 1062.38 2998.26 1008.94 2989.66C952.452 2980.59 912.303 2949.7 913.323 2887.57C914.665 2833.75 962.594 2798.06 1008.08 2780.52L996.511 2799.36L900.92 2087.83C898.514 2065.29 931.576 2059.97 935.573 2083.17L1031.16 2794.7C1032.3 2803.08 1027.26 2810.87 1019.59 2813.54C991.664 2824.4 962.238 2844.41 952.253 2869.16C947.38 2880.36 947.678 2892.45 949.551 2904.4C957.943 2956.32 1022.15 2956.97 1064.71 2960.2C1132.13 2961.83 1202.72 2964.02 1268.89 2952.71C1357.59 2936.96 1357.45 2897.77 1361.01 2818.8C1363.54 2714.81 1356.97 2610.87 1357.52 2506.31C1358.34 2435.22 1358.74 2364.81 1375.54 2294.5C1384.65 2259.61 1400.72 2226.85 1416.29 2194.69C1463.59 2100.67 1517.76 2011 1573.74 1922.04C1586.12 1903.37 1615.41 1920.32 1603.18 1940.9Z" fill="#371A45"/>
<path d="M1213.44 2612.14C1138.24 2612.14 1049.21 2598.94 972.433 2551.38C966.276 2547.56 964.376 2539.48 968.19 2533.32C972.008 2527.17 980.085 2525.26 986.242 2529.08C1145.2 2627.58 1369.85 2567.05 1372.11 2566.43C1379.05 2564.51 1386.32 2568.59 1388.24 2575.57C1390.18 2582.54 1386.1 2589.76 1379.12 2591.7C1373.87 2593.16 1303.61 2612.14 1213.44 2612.14Z" fill="#371A45"/>
<path d="M1809.05 2102.73C1806.56 2125.76 1803.59 2148.03 1800.1 2169.5C1752.56 2455.81 1360.81 2525.1 1116.02 2403.29L967.452 2276.14C951.283 2251.3 938.725 2224.02 930.5 2194.29C926.448 2179.65 923.037 2164.76 920.269 2149.72C882.433 1944.41 959.388 1706.33 1001.92 1568.51L1093.67 1347.56C1364.3 1179.21 1517.12 1265.71 1517.12 1265.71C1517.12 1265.71 1768.61 1393.42 1808.01 1754.36C1821.41 1877.17 1820.52 1997.45 1809.05 2102.73Z" fill="white"/>
<path d="M1809.05 2073.3C1806.56 2096.33 1803.59 2118.6 1800.1 2140.06C1752.56 2426.37 1360.81 2495.66 1116.02 2373.85L967.451 2246.71C951.282 2221.87 938.725 2194.59 930.5 2164.86C926.448 2150.21 923.037 2135.33 920.269 2120.28C1116.47 2242.85 1514.8 2269.54 1809.05 2073.3Z" fill="#E8E8E8"/>
<path d="M960.115 2251.48C943.693 2234.1 930.721 2213.38 920.493 2191.67C917.104 2184.36 913.591 2176.91 912.341 2168.92C904.109 2138.5 898.728 2107.49 895.598 2076.42C883.815 1952.65 904.268 1828.98 936.801 1710.37C953.093 1651.37 972.664 1593.53 993.571 1536.49C995.234 1531.95 1000.26 1529.62 1004.8 1531.28C1009.04 1532.84 1011.35 1537.38 1010.26 1541.67C954.755 1755.12 887.931 1983.52 959.575 2200.53C963.989 2214.35 969.112 2228.13 974.808 2242.05C978.548 2250.9 966.712 2258.68 960.115 2251.48Z" fill="#371A45"/>
<path d="M1379.95 2409.41C1380.34 2634.73 1423.6 2845.44 1423.6 2845.44C1423.6 2845.44 1378.12 2904.3 1422.86 2958.44C1450.09 2991.38 1517.12 2991.45 1517.12 2991.45H1706.29C1706.29 2991.45 1757.98 2986.48 1777.87 2929.32C1787.69 2901.08 1784.01 2524.06 1795.62 2277.02C1799.16 2201.68 1806.91 2163.44 1812.84 2084.22L1379.95 2409.41Z" fill="white"/>
<path d="M1812.83 2084.24C1806.93 2163.44 1799.14 2201.68 1795.61 2277.03C1792.89 2335.08 1791 2400.36 1789.6 2466.6C1784.98 2682.06 1785.38 2907.74 1777.88 2929.33C1757.98 2986.46 1706.3 2991.44 1706.3 2991.44H1517.13C1517.13 2991.44 1450.08 2991.4 1422.88 2958.42C1378.1 2904.29 1423.6 2845.44 1423.6 2845.44C1423.6 2845.44 1388.94 2676.6 1381.39 2479.6C1380.51 2456.53 1379.99 2433.06 1379.95 2409.43L1812.83 2084.24Z" fill="white"/>
<path d="M1781.77 2888.53C1780.77 2910.31 1779.48 2924.64 1777.88 2929.33C1757.98 2986.46 1706.3 2991.44 1706.3 2991.44H1517.13C1517.13 2991.44 1450.08 2991.4 1422.88 2958.42C1403.7 2935.27 1401.09 2911.24 1404.34 2891.33C1405.51 2892.98 1406.79 2894.62 1408.15 2896.27C1437.64 2932.02 1476.74 2939.98 1588.46 2939.98C1700.18 2939.98 1756.41 2928.13 1781.77 2888.53Z" fill="#E8E8E8"/>
<path d="M1741.1 2138.12C1768.8 2117.32 1807.97 2139.63 1804.2 2174.06C1800.74 2205.79 1797.54 2235.88 1795.61 2277.03C1793.55 2321.01 1791.96 2369.13 1790.71 2418.68C1790.09 2442.93 1768.03 2460.9 1744.16 2456.62C1658.98 2441.34 1554.07 2441.07 1428.02 2468.45C1403.65 2473.74 1380.44 2455.37 1380.11 2430.44C1380.11 2430.2 1380.1 2429.97 1380.1 2429.73C1379.94 2417.06 1385.78 2405.05 1395.91 2397.44L1741.1 2138.12Z" fill="#E8E8E8"/>
<path d="M1388.69 2409.4C1400.63 2517.44 1408.33 2627.05 1422.93 2734.74C1427.83 2770.66 1433.88 2806.74 1440.73 2841.92C1441.73 2847.04 1440.43 2852.08 1437.56 2855.96C1429.5 2867.32 1423.45 2881.67 1421.44 2895.4C1418.14 2915.97 1425.29 2936.46 1439.79 2950.92C1456.13 2965.28 1479.01 2970.12 1501.32 2972.9C1515.27 2974.64 1536.86 2973.77 1551.11 2973.96C1583.97 2973.98 1672.31 2973.95 1706.28 2973.96L1704.61 2974.05C1712.03 2972.85 1719.25 2970.2 1725.89 2966.66C1742.92 2957.79 1755.42 2941.35 1761.35 2923.5C1764.7 2900.23 1764.64 2875.55 1765.63 2851.43C1769.96 2666.31 1769.68 2443.76 1779.03 2259.81C1782.34 2200.69 1791.31 2141.45 1795.4 2082.92C1796.09 2073.29 1804.46 2066.04 1814.09 2066.73C1823.76 2067.42 1831.03 2075.86 1830.27 2085.53C1826.11 2144.98 1817.27 2202.86 1813.93 2261.86C1804.7 2444.66 1804.92 2668.21 1800.58 2852.43C1799.37 2878.63 1799.89 2904.87 1795.4 2931.46C1790.6 2947.9 1781.99 2963.13 1770.27 2975.92C1753.56 2993.79 1730.81 3006.39 1706.28 3008.93C1671.87 3008.93 1584.33 3008.93 1551.09 3008.93C1544.01 3008.86 1521.92 3009.01 1515.1 3008.9C1490 3007.84 1466.35 3004.11 1442.24 2993.58C1403.27 2977.58 1379.75 2931.66 1386.85 2890.32C1390.03 2869.89 1397.77 2851.47 1409.77 2834.75L1406.48 2848.95C1399.25 2812.37 1393.56 2776.23 1388.01 2739.77C1377.07 2666.96 1368.19 2593.7 1367.1 2519.97C1366.25 2483.13 1367.62 2446.18 1371.21 2409.43C1372.37 2399.24 1387.5 2398.79 1388.69 2409.4Z" fill="#371A45"/>
<path d="M1391.76 2619.5C1391.76 2619.5 1517.83 2677.1 1784.01 2612.05L1391.76 2619.5Z" fill="white"/>
<path d="M1549.43 2656.28C1442.6 2656.28 1389.69 2632.97 1386.32 2631.42C1379.73 2628.41 1376.83 2620.63 1379.84 2614.05C1382.85 2607.48 1390.6 2604.57 1397.18 2607.55C1398.41 2608.11 1523.38 2662.25 1780.9 2599.32C1787.96 2597.61 1795.03 2601.91 1796.75 2608.95C1798.47 2615.98 1794.15 2623.08 1787.12 2624.8C1689.64 2648.61 1610.67 2656.28 1549.43 2656.28Z" fill="#371A45"/>
<path d="M1711.47 2827.72C1711.47 2827.72 1598.87 2788.26 1461.55 2828.78L1711.47 2827.72Z" fill="white"/>
<path d="M1708.57 2835.97C1628.37 2818.22 1544.37 2820.73 1464.02 2837.16C1453.51 2839.41 1448.97 2824.2 1459.07 2820.39C1499.57 2805.07 1543.1 2797.64 1586.39 2797.51C1630.1 2797.52 1673.24 2803.34 1714.36 2819.48C1724.48 2823.71 1719.17 2838.98 1708.57 2835.97Z" fill="#371A45"/>
<path d="M1005.53 1925.77C1005.53 1925.77 936.844 1932.33 913.079 1908.5C913.079 1908.5 822.445 1959.05 886.533 2040.34C935.74 2102.75 1068.03 2087.24 1068.03 2087.24" fill="white"/>
<path d="M1068.03 2087.23C1068.03 2087.23 935.754 2102.76 886.538 2040.34C853.933 1998.94 861.4 1965.52 876.607 1942.72C880.213 1952.6 886.065 1963.04 894.76 1974.08C928.246 2016.64 1000.44 2022.93 1043 2022.65L1068.03 2087.23Z" fill="#E8E8E8"/>
<path d="M1032.3 2106.47C986.276 2106.47 910.241 2098.65 872.8 2051.16C850.612 2023.02 842.19 1994.6 847.766 1966.7C857.058 1920.2 902.629 1894.31 904.563 1893.23L916.116 1886.79L925.457 1896.15C937.776 1908.5 978.719 1910.73 1003.88 1908.37C1013.54 1907.46 1022.02 1914.52 1022.93 1924.12C1023.84 1933.73 1016.8 1942.26 1007.19 1943.17C995.941 1944.25 944.247 1947.98 912.689 1929.88C902.303 1937.85 886.039 1953.23 882.02 1973.73C878.617 1991.08 884.754 2009.85 900.262 2029.51C935.555 2074.28 1031.87 2073.83 1066.01 2069.87C1075.49 2068.78 1084.27 2075.63 1085.39 2085.21C1086.51 2094.8 1079.65 2103.48 1070.07 2104.6C1068.24 2104.82 1053.43 2106.46 1032.3 2106.47Z" fill="#371A45"/>
<path d="M1015.73 2177.37L1418.84 2195.28C1466.55 2197.41 1507.36 2160.1 1509.5 2112.33L1519.01 1897.81C1520.87 1855.99 1492.48 1819.53 1453.33 1809.69C1447.79 1808.26 1442.01 1807.43 1436.07 1807.16L1033.01 1789.25C985.24 1787.12 944.429 1824.43 942.357 1872.2L934.779 2042.1L932.78 2086.72C930.645 2134.49 968.017 2175.24 1015.73 2177.37Z" fill="white"/>
<path d="M1015.73 2177.37L1418.84 2195.28C1466.55 2197.41 1507.36 2160.1 1509.5 2112.33L1519.01 1897.81C1520.87 1855.99 1492.48 1819.53 1453.33 1809.69C1447.79 1808.26 1442.01 1807.43 1436.07 1807.16L1033.01 1789.25C985.24 1787.12 944.429 1824.43 942.357 1872.2L934.779 2042.1L932.78 2086.72C930.645 2134.49 968.017 2175.24 1015.73 2177.37Z" fill="white"/>
<path d="M1519.02 1897.81L1514.89 1990.92L1509.49 2112.34C1507.37 2160.1 1466.56 2197.43 1418.84 2195.3L1015.73 2177.4C968.012 2175.26 930.644 2134.51 932.762 2086.74L934.764 2042.12L936.545 2002.34L942.335 1872.21C944.454 1824.44 985.222 1787.12 1032.99 1789.24L1436.05 1807.16C1442.02 1807.43 1447.81 1808.25 1453.34 1809.66C1492.48 1819.52 1520.86 1856.01 1519.02 1897.81Z" fill="white"/>
<path d="M1514.89 1990.92L1509.49 2112.33C1507.37 2160.1 1466.56 2197.43 1418.84 2195.3L1015.73 2177.4C968.012 2175.26 930.644 2134.51 932.762 2086.74L934.764 2042.12L936.545 2002.34C949.067 2040.57 974.275 2088.56 1023.33 2102.07C1142.06 2134.74 1204.11 2082.24 1234.58 1979.16C1234.58 1979.16 1348.21 1948.46 1367.12 1977.4C1386.1 2006.38 1375.22 2058.65 1400.34 2054.09C1425.41 2049.55 1424.85 1965.67 1424.85 1965.67L1514.89 1990.92Z" fill="#E8E8E8"/>
<path d="M1435.59 2213.45C1434.22 2213.45 1432.86 2213.42 1431.49 2213.36L1001.52 2194.25C977.335 2193.17 954.972 2182.69 938.541 2164.73C922.105 2146.78 913.653 2123.57 914.728 2099.39L925.456 1857.95C927.687 1807.87 970.021 1768.93 1020.32 1771.17L1450.29 1790.28C1474.47 1791.35 1496.83 1801.84 1513.26 1819.8C1529.69 1837.75 1538.15 1860.96 1537.08 1885.14L1526.34 2126.58C1525.27 2150.75 1514.79 2173.12 1496.83 2189.55C1479.89 2205.05 1458.28 2213.45 1435.59 2213.45ZM1016.25 1806.04C986.535 1806.04 961.721 1829.53 960.388 1859.51L949.66 2100.94C948.996 2115.79 954.211 2130.06 964.338 2141.13C974.465 2152.2 988.22 2158.66 1003.07 2159.32L1433.04 2178.43C1447.94 2179.12 1462.16 2173.88 1473.23 2163.75C1484.29 2153.63 1490.75 2139.87 1491.41 2125.02L1502.14 1883.59C1502.8 1868.74 1497.59 1854.47 1487.47 1843.4C1477.34 1832.33 1463.59 1825.87 1448.74 1825.21L1018.77 1806.1C1017.93 1806.06 1017.09 1806.04 1016.25 1806.04Z" fill="#371A45"/>
<path d="M1519.01 1897.81L1517.79 1925.88L1515.12 1985.58L1513.69 2017.04L1509.44 2112.35C1508.9 2125.06 1505.56 2137.1 1500.09 2147.79C1485.07 2177.25 1453.82 2196.79 1418.84 2195.3L1315.76 2189.21C1363.46 2191.29 1404.28 2153.96 1406.41 2106.24L1409.82 2029.5L1410.82 2007.55L1415.92 1891.67C1417.8 1849.41 1388.78 1812.66 1348.96 1803.29L1436.05 1807.16C1483.76 1809.29 1521.13 1850.04 1519.01 1897.81Z" fill="white"/>
<path d="M1517.79 1925.88L1515.12 1985.58L1513.69 2017.04L1509.44 2112.35C1508.91 2125.06 1505.56 2137.1 1500.09 2147.79C1485.07 2177.25 1453.82 2196.79 1418.84 2195.3L1315.76 2189.21C1363.46 2191.29 1404.28 2153.96 1406.41 2106.24L1409.82 2029.5C1416.67 2034.4 1425.08 2037.1 1431.09 2028.04C1443 2010.1 1450.9 1930.36 1479.13 1920.98C1488.52 1917.85 1502.86 1920.68 1517.79 1925.88Z" fill="#D8D8D8"/>
<path d="M1422.81 2212.87C1421.23 2212.87 1419.65 2212.83 1418.06 2212.76L1054.46 2195.01L1054.48 2194.62C1045.23 2193.2 1037.24 2189.29 1037.76 2176.82L1038.48 2159.41L1056.92 2160.13C1069.55 2160.71 1230.63 2167.88 1316.54 2171.7C1334.98 2172.59 1352.65 2166.07 1366.37 2153.51C1380.1 2140.94 1388.11 2123.88 1388.91 2105.46L1398.45 1890.9C1399.93 1857.64 1377.44 1827.95 1344.98 1820.3L1349.76 1785.81L1436.82 1789.67C1494.36 1792.26 1539.05 1841.12 1536.46 1898.59L1526.93 2113.13C1525.71 2140.88 1513.68 2166.55 1493.05 2185.43C1473.61 2203.22 1448.82 2212.87 1422.81 2212.87ZM1392.9 2176.52L1419.7 2177.83C1438.03 2178.65 1455.72 2172.19 1469.45 2159.63C1483.18 2147.07 1491.19 2130 1491.99 2111.59V2111.57L1501.53 1897.03C1503.25 1858.81 1473.52 1826.32 1435.27 1824.6L1411.26 1823.54C1426.2 1842.61 1434.52 1866.83 1433.38 1892.46L1423.84 2107C1422.69 2133.4 1411.74 2157.95 1392.9 2176.52Z" fill="#371A45"/>
<path d="M1252.14 1993.63C1251.83 2001.56 1260.51 2066.05 1260.51 2066.05C1260.51 2066.05 1280.8 2066.83 1305.71 2067.8C1336.84 2069 1363.33 2037.75 1364.86 1997.99C1366.4 1958.23 1342.41 1925.02 1311.28 1923.82C1290.28 1923 1266.08 1922.07 1266.08 1922.07C1266.08 1922.07 1252.64 1980.7 1252.14 1993.63Z" fill="#22A7F0"/>
<path d="M1252.14 1993.63C1251.83 2001.56 1260.51 2066.05 1260.51 2066.05C1260.51 2066.05 1280.8 2066.83 1305.71 2067.8C1336.84 2069 1363.33 2037.75 1364.86 1997.99C1366.4 1958.23 1342.41 1925.02 1311.28 1923.82C1290.28 1923 1266.08 1922.07 1266.08 1922.07C1266.08 1922.07 1252.64 1980.7 1252.14 1993.63Z" fill="#1675DB"/>
<path d="M1307.43 2080.94C1306.69 2080.94 1305.95 2080.93 1305.21 2080.9L1265.48 2079.36C1255.91 2078.99 1248.04 2071.84 1246.79 2062.35C1238.72 2001.32 1238.96 1995.14 1239.04 1993.12C1239.47 1981.98 1247.4 1945.32 1252.09 1924.46C1254.16 1915.24 1262.54 1908.75 1271.99 1909.17L1311.79 1910.71C1330.96 1911.46 1348.43 1921.42 1360.95 1938.77C1372.78 1955.14 1378.83 1976.35 1377.97 1998.5C1376.19 2044.5 1344.77 2080.94 1307.43 2080.94ZM1272.06 2053.37L1306.22 2054.69C1330.05 2055.71 1350.51 2029.95 1351.77 1997.48C1352.4 1981.17 1348.11 1965.77 1339.7 1954.12C1331.99 1943.45 1321.72 1937.34 1310.78 1936.92L1276.48 1935.59C1269.85 1965.4 1265.49 1988.06 1265.24 1994.09C1265.21 1997.52 1267.31 2017.11 1272.06 2053.37Z" fill="#371A45"/>
<path d="M1319.88 1996.22C1321.42 1956.46 1297.43 1923.25 1266.3 1922.05C1235.17 1920.84 1208.69 1952.1 1207.15 1991.86C1205.61 2031.62 1229.6 2064.83 1260.73 2066.03C1291.86 2067.24 1318.34 2035.98 1319.88 1996.22Z" fill="#22A7F0"/>
<path d="M1319.65 1996.25C1318.13 2035.99 1291.64 2067.26 1260.52 2066.06C1229.36 2064.86 1205.37 2031.64 1206.94 1991.86C1207.13 1986.49 1207.82 1981.25 1208.91 1976.23C1215.86 2003.85 1235.73 2024.11 1259.91 2025.01C1286.79 2026.05 1310.24 2002.88 1317.06 1970.87C1319.08 1978.81 1319.97 1987.37 1319.65 1996.25Z" fill="#1675DB"/>
<path d="M1319.65 1996.25C1319.56 1998.96 1319.33 2001.62 1318.96 2004.24C1313.98 1972.85 1292.75 1948.96 1266.46 1947.96C1237.46 1946.86 1212.44 1973.93 1208.02 2009.83C1207.08 2004.03 1206.72 1998.04 1206.94 1991.86C1208.46 1952.12 1234.95 1920.85 1266.07 1922.05C1297.19 1923.29 1321.17 1956.47 1319.65 1996.25Z" fill="white"/>
<path d="M1262.29 2079.19C1261.53 2079.19 1260.76 2079.18 1260 2079.15C1240.83 2078.41 1223.37 2068.45 1210.84 2051.1C1199.01 2034.72 1192.97 2013.51 1193.83 1991.37C1195.6 1945.36 1227.02 1908.92 1264.36 1908.92C1265.1 1908.92 1265.84 1908.94 1266.58 1908.96C1285.75 1909.71 1303.22 1919.67 1315.74 1937.02C1327.57 1953.39 1333.62 1974.6 1332.76 1996.75C1331.9 2018.89 1324.24 2039.57 1311.18 2054.98C1297.9 2070.66 1280.62 2079.19 1262.29 2079.19ZM1264.32 1935.15C1241.01 1935.15 1221.26 1960.48 1220.03 1992.38C1219.4 2008.7 1223.68 2024.1 1232.1 2035.74C1239.8 2046.41 1250.07 2052.52 1261.01 2052.94C1271.89 2053.38 1282.67 2048.07 1291.17 2038.03C1300.46 2027.07 1305.92 2012.05 1306.55 1995.73C1307.18 1979.42 1302.9 1964.02 1294.48 1952.37C1286.78 1941.7 1276.51 1935.59 1265.57 1935.17C1265.15 1935.15 1264.74 1935.15 1264.32 1935.15Z" fill="#371A45"/>
<path d="M1141.12 2194.5C1141.02 2194.5 1140.93 2194.5 1140.84 2194.5C1133.6 2194.35 1127.85 2188.36 1128 2181.12L1130.52 2059.59C1130.79 2046.84 1124.68 2034.88 1114.19 2027.62L1092.73 2012.75C1074.55 2000.17 1064.24 1979.46 1065.15 1957.37L1071.96 1791.15C1072.25 1783.91 1078.23 1778.26 1085.6 1778.59C1092.83 1778.88 1098.46 1784.99 1098.16 1792.23L1091.35 1958.45C1090.81 1971.51 1096.91 1983.75 1107.66 1991.19L1129.12 2006.06C1146.87 2018.35 1157.19 2038.56 1156.75 2060.14L1154.22 2181.66C1154.07 2188.81 1148.23 2194.5 1141.12 2194.5Z" fill="#371A45"/>
<path d="M1817.87 1937.65C1817.87 1937.65 1718.46 1951.28 1518.47 1945.73C1518.47 1945.73 1457.46 1947.63 1452.11 2008.25C1446.44 2072.61 1511.51 2094.29 1511.51 2094.29C1511.51 2094.29 1682.42 2126.36 1809.05 2073.3C1885.98 2041.06 1817.87 1937.65 1817.87 1937.65Z" fill="white"/>
<path d="M1809.03 2073.28C1682.44 2126.36 1511.52 2094.31 1511.52 2094.31C1511.52 2094.31 1449.29 2073.55 1451.86 2012.49C1451.9 2011.09 1451.99 2009.69 1452.13 2008.25C1457.45 1947.63 1518.47 1945.74 1518.47 1945.74C1573.63 1947.27 1621.15 1947.36 1661.05 1946.64C1765.75 1944.79 1817.88 1937.66 1817.88 1937.66C1817.88 1937.66 1885.98 2041.06 1809.03 2073.28Z" fill="white"/>
<path d="M1809.03 2073.28C1682.44 2126.36 1511.52 2094.31 1511.52 2094.31C1511.52 2094.31 1449.29 2073.55 1451.86 2012.49C1482.68 2031.4 1535.94 2054.96 1596.37 2042.5C1647.64 2031.94 1660.91 1988.52 1661.05 1946.64C1765.75 1944.79 1817.88 1937.66 1817.88 1937.66C1817.88 1937.66 1885.98 2041.06 1809.03 2073.28Z" fill="#E8E8E8"/>
<path d="M1629.66 2121.51C1563.13 2121.51 1512.14 2112.2 1508.28 2111.48C1507.5 2111.33 1506.73 2111.13 1505.98 2110.88C1478.94 2101.87 1429.25 2068.51 1434.69 2006.72C1440 1946.54 1491.46 1929.08 1517.93 1928.26C1518.27 1928.24 1518.61 1928.24 1518.95 1928.25C1714.81 1933.68 1814.52 1920.46 1815.5 1920.33C1822.13 1919.42 1828.76 1922.41 1832.47 1928.03C1836.83 1934.66 1874.66 1994.18 1859.71 2043.27C1853.36 2064.09 1838.18 2080.04 1815.81 2089.42C1755.69 2114.61 1686.92 2121.5 1629.66 2121.51ZM1515.97 2077.33C1531.54 2080.02 1687.65 2105.21 1802.29 2057.17C1815.12 2051.8 1822.96 2043.92 1826.26 2033.07C1833.54 2009.19 1819.08 1975.12 1808.69 1956.33C1777.12 1959.69 1681.41 1967.73 1518.63 1963.22C1512.52 1963.57 1473.26 1967.49 1469.53 2009.79C1465.42 2056.42 1508.4 2074.52 1515.97 2077.33Z" fill="#371A45"/>
<path d="M1013.84 2797.03C1013.84 2797.03 1109.19 2816.16 1189.32 2810.3L1013.84 2797.03Z" fill="white"/>
<path d="M1016.42 2784.18C1072.69 2795.88 1131.18 2803.69 1188.69 2801.58C1199.96 2801.21 1201.25 2817.7 1189.96 2819.01C1145.04 2823.07 1100.36 2820.74 1055.76 2815.96C1040.9 2814.3 1026.31 2812.4 1011.26 2809.89C1004.11 2808.69 999.287 2801.93 1000.48 2794.79C1001.69 2787.34 1009.08 2782.43 1016.42 2784.18Z" fill="#371A45"/>
<path d="M1549.14 1309.15C1549.14 1309.15 1767.85 1280.81 1912.68 1565.75C1940.75 1620.96 1992.83 1760 1997.99 1919.81C2004.16 2110.6 1972.27 2316.16 1884.52 2398.08C1840.13 2439.52 1796.13 2428.97 1761.11 2435.51C1618.77 2492.59 1636.02 2347.13 1635.01 2322.89C1611.37 2318.61 1578.41 2308.33 1582.41 2266.55C1586.82 2220.42 1651.67 2171.85 1651.67 2171.85C1651.67 2171.85 1723.36 1968.2 1646.88 1715.07" fill="white"/>
<path d="M1583.89 2257.97C1583.16 2260.84 1582.68 2263.69 1582.39 2266.57C1578.4 2308.31 1611.35 2318.62 1635.01 2322.91C1636.03 2347.13 1618.77 2492.6 1761.1 2435.52C1796.12 2428.95 1840.11 2439.53 1884.52 2398.08C1906.46 2377.59 1924.92 2349.39 1940.12 2315.62C1940.19 2315.42 1940.28 2315.27 1940.34 2315.16C1940.44 2314.97 1940.54 2314.78 1940.61 2314.54C1940.66 2314.47 1940.71 2314.39 1940.71 2314.31C1986.01 2213 2002.6 2062.29 1998 1919.8C1992.81 1760.01 1940.74 1620.95 1912.7 1565.73C1767.87 1280.81 1549.13 1309.13 1549.13 1309.13L1646.89 1715.08C1723.37 1968.21 1651.69 2171.85 1651.69 2171.85C1651.69 2171.85 1594.65 2214.57 1583.89 2257.97Z" fill="white"/>
<path d="M1940.73 2314.31C1940.69 2314.39 1940.65 2314.47 1940.61 2314.55C1940.53 2314.79 1940.45 2314.95 1940.33 2315.15C1940.29 2315.27 1940.17 2315.44 1940.13 2315.64C1924.92 2349.38 1906.47 2377.58 1884.52 2398.09C1840.1 2439.53 1796.13 2428.94 1761.1 2435.52C1618.79 2492.61 1636.04 2347.13 1635 2322.9C1611.37 2318.61 1578.39 2308.29 1582.4 2266.57C1582.68 2263.68 1583.16 2260.83 1583.89 2257.98C1594.64 2214.57 1651.69 2171.84 1651.69 2171.84C1651.69 2171.84 1723.39 1968.22 1646.88 1715.09L1644.15 1703.74L1549.14 1309.14C1549.14 1309.14 1684.39 1291.65 1812.54 1422.64C1847.41 1458.23 1881.75 1504.81 1912.68 1565.72C1940.73 1620.97 1992.81 1759.99 1997.98 1919.79C2002.6 2062.3 1985.99 2213 1940.73 2314.31Z" fill="white"/>
<path d="M1789.72 1400.9C1748.1 1437.15 1685.73 1477.76 1596.42 1505.48L1549.12 1309.15C1549.12 1309.15 1668.81 1293.67 1789.72 1400.9Z" fill="#E8E8E8"/>
<path d="M1582.39 2266.57C1578.4 2308.31 1611.35 2318.62 1635.01 2322.91C1636.03 2347.13 1618.77 2492.6 1761.1 2435.52C1796.12 2428.95 1840.11 2439.53 1884.52 2398.08C1906.46 2377.59 1924.92 2349.39 1940.12 2315.62C1935.42 2325.42 1901.81 2388.37 1814.24 2386.86C1700.67 2384.96 1680.72 2403.99 1667.97 2367.78C1655.23 2331.57 1688.38 2288.77 1652.14 2261.73C1634.05 2282.5 1606.32 2287.8 1583.89 2257.97C1583.16 2260.84 1582.68 2263.69 1582.39 2266.57Z" fill="#E8E8E8"/>
<path d="M1546.9 1291.81C1686.63 1282.4 1813.49 1374.99 1886.94 1487.21C1903.85 1512.83 1920.71 1541.76 1933.9 1569.36C1995.48 1704.78 2021.19 1854.96 2015.68 2003.23C2011.76 2131.9 1987.3 2372.46 1858.65 2436.42C1829.46 2450.71 1793.28 2448.52 1764.32 2452.7L1767.62 2451.74C1739.57 2462.81 1705.25 2472.08 1674.05 2461.25C1623.82 2443.19 1616.04 2382.6 1617.4 2336.52C1617.47 2331.92 1617.63 2326.81 1617.54 2323.62L1631.89 2340.09C1580.56 2332.47 1552.11 2296.1 1569.81 2244.57C1584.09 2208.43 1611.61 2181.73 1641.19 2157.86L1635.18 2166.05C1645.41 2130.34 1652.16 2093.26 1656.9 2056.35C1671.51 1943.42 1662.6 1828.66 1638.51 1717.6C1636.16 1707.04 1651.27 1702.2 1655.24 1712.54C1668.48 1748.73 1680.25 1787.66 1687.07 1825.66C1708.56 1940.36 1704.95 2066.39 1668.17 2177.66C1666.98 2181.06 1664.83 2183.88 1662.12 2185.87C1656.23 2190.42 1649.74 2195.97 1643.91 2201.46C1627.58 2216.79 1610.07 2236.61 1602.69 2256.47C1598.87 2266.7 1597.84 2281.16 1604.23 2289.91C1609.43 2297.77 1622.75 2303.05 1638.12 2305.69C1646.38 2307.03 1652.29 2314.11 1652.47 2322.16C1652.62 2328.25 1652.41 2332.41 1652.36 2337.07C1652.15 2350.08 1652.42 2363.4 1654.22 2375.98C1662.05 2439.4 1704.4 2439.39 1754.76 2419.23C1786.6 2412.41 1816.15 2417.73 1844.22 2404.57C1954.97 2347.18 1977.59 2116.27 1980.73 2002.29C1985.35 1881.68 1968.35 1760.37 1927.6 1646.62C1888.68 1536.58 1818.42 1428.66 1716.22 1369.2C1672.41 1343.77 1622.44 1327.61 1571.67 1325.95C1564.81 1325.63 1557.46 1325.94 1550.81 1326.56C1527.96 1328.6 1523.83 1295.12 1546.9 1291.81Z" fill="#371A45"/>
<path d="M1639.96 2255.37C1639.96 2255.37 1668.01 2281.06 1641.99 2346.46L1639.96 2255.37Z" fill="white"/>
<path d="M1644.39 2250.54C1668.47 2266.98 1669.91 2301.63 1660.91 2326.6C1657.53 2333.74 1648.66 2357.71 1638.33 2349.63C1636.62 2348.17 1635.86 2346.13 1635.9 2344.04C1636.83 2315.94 1644.95 2287.42 1635.53 2260.21L1635.22 2256.02C1634.71 2251.24 1640.47 2247.86 1644.39 2250.54Z" fill="#371A45"/>
<path d="M1681.71 1940.91C1676.27 1940.91 1671.18 1937.5 1669.31 1932.07C1666.95 1925.23 1670.58 1917.76 1677.43 1915.4C1885.71 1843.5 1999.68 1905.71 2004.44 1908.39C2010.74 1911.95 2012.97 1919.95 2009.41 1926.25C2005.84 1932.56 1997.84 1934.78 1991.54 1931.22C1990.52 1930.65 1882.13 1872.47 1685.98 1940.19C1684.57 1940.68 1683.12 1940.91 1681.71 1940.91Z" fill="#371A45"/>
<path d="M1377.51 1424.45C1318.14 1424.45 1258.29 1417.16 1199.26 1402.19C1186.09 1398.82 1172.8 1395.04 1159.77 1390.97C1123.49 1379.51 1088.09 1365.16 1054.54 1348.34C1025.86 1333.97 998.113 1317.69 972.083 1299.94C940.984 1278.84 911.2 1254.99 883.559 1229.02C873.456 1219.43 864.653 1210.69 856.645 1202.29C839.204 1184.1 822.435 1164.63 806.815 1144.43C733.08 1048.98 685.023 935.649 667.845 816.681C636.859 602.072 705.605 389.367 856.469 233.102C943.686 142.704 1053.82 76.9203 1174.96 42.8633C1197.88 36.3493 1221.93 30.8593 1246.45 26.5423C1262.19 23.7833 1278.43 21.5103 1294.73 19.7843C1345.51 14.3813 1397.02 14.3693 1447.83 19.7473C1499.13 25.1253 1549.84 35.9903 1598.57 52.0373C1619.77 59.0323 1640.96 67.1493 1661.56 76.1703C1669.81 79.7173 1677.35 83.1723 1684.6 86.7223C1750.74 118.358 1811.8 160.213 1866.06 211.117C2005.06 341.718 2084.14 517.655 2088.75 706.522C2093.32 893.89 2023.86 1071.64 1893.16 1207.04C1757.5 1347.63 1570.15 1424.44 1377.51 1424.45ZM1371.44 19.2433C1345.93 19.2433 1320.43 20.5913 1295.1 23.2863C1278.88 25.0023 1262.71 27.2633 1247.06 30.0103C1222.66 34.3043 1198.73 39.7683 1175.92 46.2503C1055.37 80.1393 945.783 145.598 858.996 235.547C708.898 391.023 640.494 602.656 671.329 816.179C688.419 934.548 736.231 1047.31 809.596 1142.28C825.138 1162.38 841.824 1181.75 859.187 1199.86C867.161 1208.22 875.92 1216.92 885.974 1226.47C913.474 1252.29 943.113 1276.04 974.06 1297.03C999.963 1314.69 1027.57 1330.89 1056.12 1345.19C1089.5 1361.93 1124.73 1376.21 1160.82 1387.61C1173.79 1391.67 1187.02 1395.42 1200.13 1398.78C1258.86 1413.67 1318.45 1420.93 1377.52 1420.93C1569.23 1420.94 1755.63 1344.5 1890.63 1204.6C2020.67 1069.88 2089.78 893.027 2085.23 706.609C2080.65 518.691 2001.96 343.633 1863.65 213.684C1809.66 163.027 1748.9 121.377 1683.06 89.8903C1675.85 86.3603 1668.37 82.9293 1660.16 79.3993C1639.66 70.4203 1618.57 62.3393 1597.46 55.3813C1548.98 39.4123 1498.51 28.6013 1447.46 23.2503C1422.24 20.5783 1396.84 19.2433 1371.44 19.2433Z" fill="#371A45"/>
<path d="M1891.89 1205.8C1708.22 1396.2 1441.45 1461.82 1199.69 1400.46C1186.48 1397.1 1173.35 1393.37 1160.3 1389.28C1124.5 1377.98 1089.39 1363.82 1055.34 1346.78C1027.15 1332.63 999.6 1316.57 973.09 1298.5C942.235 1277.59 912.726 1254.02 884.746 1227.75C875.555 1218.96 866.547 1210.12 857.9 1201.09C840.134 1182.55 823.63 1163.25 808.21 1143.35C732.717 1045.62 686.367 932.8 669.581 816.409C660.338 752.49 660.005 687.506 668.64 623.495C687.236 734.191 732.731 841.151 804.75 934.389C820.127 954.344 836.675 973.594 854.441 992.137C863.042 1001.17 872.05 1010.01 881.287 1018.8C909.267 1045.06 938.777 1068.63 969.585 1089.55C996.142 1107.62 1023.65 1123.68 1051.83 1137.82C1085.88 1154.86 1121.04 1169.03 1156.8 1180.33C1169.89 1184.42 1183.02 1188.14 1196.23 1191.5C1437.99 1252.86 1704.71 1187.24 1888.43 996.842C1995.64 885.801 2058.42 748.957 2077.46 607.55C2112.86 817.541 2051.66 1040.32 1891.89 1205.8Z" fill="#E8E8E8"/>
<path d="M1377.5 1436.24C1317.17 1436.24 1256.34 1428.83 1196.36 1413.62C1182.97 1410.19 1169.48 1406.36 1156.25 1402.22C1119.35 1390.56 1083.37 1375.98 1049.26 1358.88C1020.11 1344.28 991.901 1327.72 965.437 1309.68C933.855 1288.25 903.582 1264 875.486 1237.62C865.193 1227.85 856.253 1218.97 848.108 1210.43C830.403 1191.96 813.357 1172.18 797.483 1151.65C722.512 1054.6 673.645 939.336 656.175 818.367C624.661 600.125 694.573 383.819 847.982 224.915C936.654 133.013 1048.62 66.1363 1171.78 31.5123C1195.04 24.8983 1219.49 19.3172 1244.41 14.9302C1260.41 12.1252 1276.93 9.81325 1293.5 8.06025C1345.09 2.56925 1397.45 2.55726 1449.07 8.02326C1501.2 13.4873 1552.74 24.5293 1602.26 40.8403C1623.82 47.9493 1645.36 56.2012 1666.29 65.3712C1674.65 68.9652 1682.36 72.4982 1689.78 76.1332C1756.93 108.245 1818.99 150.784 1874.13 202.52C2015.45 335.303 2095.85 514.19 2100.54 706.236C2105.19 896.783 2034.55 1077.55 1901.65 1215.23C1763.74 1358.15 1573.31 1436.24 1377.5 1436.24ZM1371.44 31.0352C1346.34 31.0352 1321.27 32.3613 1296.35 35.0123C1280.38 36.7023 1264.49 38.9262 1249.09 41.6232C1225.1 45.8492 1201.56 51.2232 1179.15 57.5922C1060.58 90.9242 952.819 155.29 867.482 243.735C719.933 396.572 652.692 604.604 683 814.494C699.802 930.854 746.804 1041.71 818.928 1135.07C834.216 1154.84 850.622 1173.89 867.698 1191.69C875.559 1199.94 884.182 1208.5 894.094 1217.92C921.096 1243.27 950.246 1266.62 980.681 1287.27C1006.17 1304.65 1033.32 1320.59 1061.4 1334.65C1094.24 1351.11 1128.88 1365.15 1164.37 1376.37C1177.11 1380.35 1190.14 1384.05 1203.05 1387.35C1260.81 1402 1319.44 1409.14 1377.53 1409.14C1566.08 1409.16 1749.38 1333.99 1882.14 1196.41C2009.97 1063.98 2077.91 890.137 2073.44 706.897C2068.93 522.158 1991.56 350.049 1855.58 222.278C1802.48 172.459 1742.72 131.492 1677.98 100.53C1670.84 97.0362 1663.53 93.6872 1655.5 90.2322C1635.26 81.3702 1614.52 73.4232 1593.77 66.5822C1546.09 50.8742 1496.45 40.2423 1446.23 34.9783C1421.41 32.3483 1396.42 31.0352 1371.44 31.0352Z" fill="#371A45"/>
<path d="M1377.5 1440.17C1316.84 1440.17 1255.7 1432.72 1195.4 1417.43C1181.93 1413.98 1168.37 1410.13 1155.08 1405.98C1117.97 1394.25 1081.79 1379.59 1047.49 1362.39C1018.19 1347.71 989.831 1331.07 963.224 1312.93C931.476 1291.39 901.036 1267.01 872.794 1240.49C862.438 1230.65 853.453 1221.73 845.265 1213.14C827.467 1194.58 810.333 1174.69 794.376 1154.05C718.981 1056.46 669.85 940.574 652.281 818.929C620.591 599.476 690.889 381.971 845.152 222.183C934.302 129.783 1046.88 62.5403 1170.71 27.7273C1194.09 21.0813 1218.68 15.4693 1243.72 11.0593C1259.82 8.23426 1276.42 5.91326 1293.08 4.15026C1344.96 -1.37274 1397.57 -1.38173 1449.48 4.11327C1501.88 9.60627 1553.7 20.7073 1603.48 37.1063C1625.16 44.2543 1646.82 52.5502 1667.87 61.7692C1676.26 65.3802 1684.03 68.9373 1691.51 72.6043C1758.99 104.872 1821.38 147.641 1876.82 199.652C2018.91 333.163 2099.76 513.033 2104.46 706.139C2109.14 897.745 2038.11 1079.51 1904.47 1217.96C1765.82 1361.65 1574.36 1440.17 1377.5 1440.17ZM1371.44 34.9653C1346.49 34.9653 1321.54 36.2832 1296.77 38.9202C1280.89 40.6003 1265.08 42.8123 1249.77 45.4953C1225.92 49.6973 1202.51 55.0393 1180.22 61.3743C1062.31 94.5213 955.162 158.52 870.314 246.464C723.61 398.422 656.754 605.253 686.891 813.932C703.595 929.623 750.329 1039.84 822.037 1132.67C837.237 1152.32 853.556 1171.27 870.533 1188.97C878.355 1197.17 886.934 1205.7 896.798 1215.06C923.634 1240.27 952.623 1263.49 982.887 1284.02C1008.24 1301.31 1035.24 1317.15 1063.16 1331.13C1095.81 1347.51 1130.26 1361.46 1165.56 1372.62C1178.22 1376.57 1191.18 1380.26 1204.03 1383.54C1447.86 1445.38 1706.62 1372.64 1879.31 1193.68C2006.41 1062.01 2073.96 889.171 2069.51 706.991C2065.03 523.312 1988.1 352.186 1852.88 225.143C1800.08 175.599 1740.66 134.862 1676.28 104.074C1669.17 100.593 1661.92 97.2702 1653.95 93.8422C1633.8 85.0192 1613.18 77.1163 1592.54 70.3143C1545.12 54.6943 1495.76 44.1203 1445.82 38.8863C1421.14 36.2713 1396.29 34.9653 1371.44 34.9653Z" fill="#371A45"/>
<path d="M2037.3 597.711C2000.8 53.2114 1253.3 -142.789 920.302 191.018L915.014 205.638C1317.16 -29.4399 1730.6 345.28 1944.51 800.831C1821.01 865.831 2079.9 693.105 2037.3 597.711Z" fill="white"/>
<path d="M1292.21 1385.89C1182.66 1385.89 1070.87 1361.09 966.688 1312.06L964.652 1310.9C932.977 1289.41 902.645 1265.11 874.496 1238.68C864.179 1228.88 855.223 1219.99 847.063 1211.43C829.319 1192.92 812.245 1173.1 796.341 1152.53C721.214 1055.28 672.249 939.789 654.744 818.573C623.162 599.884 693.215 383.136 846.94 223.908C935.788 131.821 1047.98 64.8093 1171.38 30.1163L1172.86 29.6993L1174.4 29.5943C1267.76 23.1003 1367.38 38.9203 1470.54 76.5913C1656.15 144.367 1814.67 297.582 1894.57 486.442C1966.48 656.4 1967.78 835.705 1898.24 991.32C1822.5 1160.8 1695.07 1282.81 1529.72 1344.17C1454.55 1372.06 1374 1385.89 1292.21 1385.89ZM980.524 1285.41C1155 1367.21 1351.3 1378.38 1519.28 1316.04C1676.91 1257.55 1798.47 1141.03 1870.85 979.08C1936.96 831.148 1935.57 660.342 1866.95 498.133C1790.23 316.795 1638.19 169.744 1460.25 104.771C1361.64 68.7633 1266.71 53.5263 1178.02 59.4173C1060.32 92.7913 953.324 156.851 868.529 244.742C721.288 397.254 654.188 604.845 684.432 814.288C701.2 930.401 748.103 1041.02 820.075 1134.19C835.329 1153.91 851.706 1172.93 868.742 1190.69C876.589 1198.92 885.198 1207.47 895.091 1216.86C921.746 1241.89 950.505 1264.97 980.524 1285.41Z" fill="#371A45"/>
<path d="M1287.77 1313.45C1063.16 1313.45 844.553 1196.59 706.018 998.788L704.88 997.162L677.458 921.163C677.209 919.969 652.438 800.357 648.508 678.438C644.494 553.997 720.461 403.101 723.698 396.739L724.904 394.757C919.66 125.026 1163.01 41.0513 1448.17 145.179C1613.72 205.628 1755.1 342.271 1826.36 510.699C1890.52 662.33 1891.68 822.32 1829.63 961.2C1739.65 1162.59 1564.5 1289.91 1349.1 1310.53C1328.65 1312.49 1308.18 1313.45 1287.77 1313.45ZM731.726 983.193C876.77 1189.12 1112.14 1303.08 1346.24 1280.66C1550.59 1261.11 1716.8 1140.21 1802.24 948.965C1860.86 817.766 1859.61 666.272 1798.74 522.39C1730.66 361.487 1595.76 231.008 1437.87 173.359C1167.22 74.5262 935.755 154.597 749.939 411.337C743.367 424.606 674.89 565.829 678.489 677.472C682.151 790.885 704.221 902.23 706.614 914.005L731.726 983.193Z" fill="#371A45"/>
<path d="M2152.87 854.483C2132.47 991.547 2033.25 1094.54 1931.23 1084.51C1829.22 1074.47 1763.06 955.209 1783.46 818.145C1783.57 817.284 1783.73 816.376 1783.89 815.516C1805.13 679.762 1903.8 578.145 2005.1 588.122C2083.91 595.872 2141.31 668.811 2153.96 764.767C2157.67 793.02 2157.51 823.313 2152.87 854.483Z" fill="white"/>
<path d="M2152.87 854.483C2132.47 991.547 2033.25 1094.54 1931.23 1084.51C1829.22 1074.47 1763.06 955.209 1783.46 818.145C1783.57 817.284 1783.73 816.376 1783.89 815.516C1793.01 830.684 1808.41 846.254 1832.75 843.913C1875.39 839.793 1962.85 758.97 1962.85 758.97C1962.85 758.97 2045.74 760.945 2153.96 764.767C2157.67 793.02 2157.51 823.313 2152.87 854.483Z" fill="#E8E8E8"/>
<path d="M1944.8 1102.64C1939.71 1102.64 1934.63 1102.39 1929.52 1101.89C1884.8 1097.49 1845.17 1074.68 1814.94 1035.92C1771.41 980.116 1753.64 899.796 1766.17 815.555C1787.9 669.63 1895.87 559.791 2006.83 570.726C2051.56 575.128 2091.18 597.94 2121.42 636.698C2164.94 692.499 2182.72 772.826 2170.18 857.059C2149.46 996.267 2050.24 1102.64 1944.8 1102.64ZM1991.22 604.926C1902.85 604.926 1818.94 698.527 1800.75 820.702C1789.79 894.418 1805.39 966.832 1842.51 1014.41C1866.71 1045.44 1897.98 1063.65 1932.95 1067.1C1937.01 1067.49 1941.08 1067.69 1945.13 1067.69C2033.51 1067.7 2117.41 974.091 2135.6 851.913C2146.57 778.197 2130.96 705.783 2093.85 658.202C2069.65 627.179 2038.38 608.964 2003.41 605.521C1999.34 605.124 1995.28 604.926 1991.22 604.926Z" fill="#371A45"/>
<path d="M2164.77 877.272C2187.85 766.476 2145.33 663.907 2069.81 648.177C1994.28 632.447 1914.35 709.514 1891.27 820.309C1868.2 931.105 1910.72 1033.67 1986.24 1049.4C2061.76 1065.13 2141.7 988.068 2164.77 877.272Z" fill="white"/>
<path d="M1997.19 1051.12C2074.33 1058.11 2150.65 973.241 2167.74 861.523C2169.62 849.4 2170.65 837.444 2171.02 825.79C2139.16 899.733 2079.72 948.819 2019.77 943.33C1952.07 937.124 1905.91 863.274 1906.35 770.589C1898.21 790.923 1892.08 813.011 1888.51 836.24C1871.43 947.958 1920.1 1044.14 1997.19 1051.12Z" fill="#E8E8E8"/>
<path d="M2005.87 1069C2002.46 1069 1999.05 1068.85 1995.64 1068.54C1962.41 1065.53 1932.8 1048.57 1910.03 1019.49C1874.82 974.533 1860.33 905.051 1871.25 833.62C1889.67 713.151 1974.55 621.537 2060.63 629.26C2093.86 632.268 2123.46 649.231 2146.24 678.313C2181.44 723.267 2195.94 792.751 2185.02 864.182C2167.34 979.865 2088.28 1069 2005.87 1069ZM2049.97 663.744C1984.58 663.744 1920.91 740.128 1905.81 838.903C1896.32 900.978 1908.19 960.426 1937.56 997.926C1954.24 1019.23 1975.41 1031.6 1998.79 1033.72C2066.73 1039.88 2134.78 961.449 2150.46 858.898C2159.95 796.823 2148.08 737.375 2118.71 699.872C2102.03 678.576 2080.86 666.2 2057.48 664.083C2054.98 663.857 2052.47 663.744 2049.97 663.744Z" fill="#371A45"/>
</svg>
