<svg width="80" height="80" viewBox="0 0 80 80" fill="none" xmlns="http://www.w3.org/2000/svg">
<path fill-rule="evenodd" clip-rule="evenodd" d="M80 40C80 21.144 80 11.716 74.144 5.856C68.28 0 58.856 0 40 0C21.144 0 11.716 0 5.86 5.856C4.76837e-07 11.72 0 21.144 0 40C0 58.856 4.76837e-07 68.284 5.86 74.14C11.712 80 21.144 80 40 80C58.856 80 68.284 80 74.144 74.14C80 68.288 80 58.856 80 40ZM24.26 14.368C23.7081 14.5929 23.2357 14.977 22.903 15.4714C22.5704 15.9658 22.3924 16.5481 22.392 17.144V28.004C22.392 28.7997 22.7081 29.5627 23.2707 30.1253C23.8333 30.6879 24.5963 31.004 25.392 31.004H36C36.5905 31.0043 37.1679 30.8304 37.6599 30.504C38.152 30.1777 38.5368 29.7133 38.7661 29.1692C38.9955 28.6251 39.0591 28.0255 38.9492 27.4453C38.8392 26.8652 38.5605 26.3304 38.148 25.908V25.908C36.7566 24.4837 37.3988 22.1364 39.3886 22.0636C40.9892 22.005 42.5974 22.1769 44.163 22.5805C47.1452 23.3494 49.8564 24.9289 51.996 27.144C58.668 33.972 58.668 45.076 51.996 51.904C50.4404 53.5141 48.5766 54.7946 46.5157 55.6692C44.4547 56.5437 42.2388 56.9944 40 56.9944C37.7612 56.9944 35.5453 56.5437 33.4843 55.6692C31.4234 54.7946 29.5596 53.5141 28.004 51.904C25.3777 49.2093 23.6842 45.7438 23.172 42.016C22.94 40.344 21.612 38.936 19.924 38.936C18.3 38.936 16.956 40.236 17.112 41.852C17.6212 47.2155 19.9502 52.2432 23.712 56.1C25.8264 58.2822 28.3578 60.0173 31.1558 61.2021C33.9539 62.387 36.9614 62.9976 40 62.9976C43.0386 62.9976 46.0461 62.387 48.8442 61.2021C51.6422 60.0173 54.1736 58.2822 56.288 56.1C65.236 46.94 65.236 32.112 56.288 22.952C53.0232 19.5822 48.7937 17.3079 44.1822 16.4425C40.9858 15.8426 37.7149 15.9401 34.5884 16.7082C32.0876 17.3225 29.3392 16.8904 27.54 15.048V15.048C27.1229 14.6213 26.588 14.3287 26.0037 14.2076C25.4195 14.0864 24.8124 14.1423 24.26 14.368Z" fill="white"/>
</svg>
