<svg width="1936" height="1041" viewBox="0 0 1936 1041" fill="none" xmlns="http://www.w3.org/2000/svg">
<path d="M943.69 312.89C409.47 379.21 -12.8701 539.581 0.37991 671.091C13.6299 802.531 457.46 855.37 991.65 789.03C1525.91 722.71 1948.23 562.34 1934.99 430.87C1921.73 299.38 1477.92 246.59 943.69 312.89ZM979.48 753.92C602.97 800.66 195.76 780.39 182.72 650.81C169.67 521.25 562.77 401.65 939.25 354.87C1315.77 308.17 1722.92 328.4 1736 458C1749.07 587.59 1355.97 707.19 979.48 753.92ZM950.13 376.86C559.46 425.36 250.6 542.63 260.29 638.81C269.98 734.93 594.55 773.57 985.2 725.06C1375.9 676.55 1684.75 559.28 1675.06 463.14C1665.38 366.99 1340.81 328.38 950.13 376.86ZM976.31 699.39C700.97 733.57 403.18 718.75 393.64 623.98C384.1 529.23 671.56 441.77 946.89 407.56C1222.24 373.41 1519.99 388.19 1529.54 482.98C1539.11 577.75 1251.63 665.21 976.31 699.39Z" fill="#FFF4E9"/>
<path d="M1396.96 692.26C1403.17 692.26 1408.21 689.287 1408.21 685.62C1408.21 681.953 1403.17 678.98 1396.96 678.98C1390.75 678.98 1385.71 681.953 1385.71 685.62C1385.71 689.287 1390.75 692.26 1396.96 692.26Z" fill="#DB8231"/>
<path d="M1491.86 520.62C1491.86 807.81 1259.05 1040.62 971.84 1040.62C684.66 1040.62 451.84 807.81 451.84 520.62C451.84 233.43 684.65 0.620117 971.84 0.620117C1259.05 0.620117 1491.86 233.43 1491.86 520.62Z" fill="#FED09E"/>
<path d="M892.52 900.221C840.35 887.111 792.38 894.461 741.26 907.851C702.95 917.881 659.71 896.29 618.23 901.74C711.03 987.88 835.25 1040.63 971.84 1040.63C1072.27 1040.63 1165.98 1012.09 1245.47 962.801C1239.2 960.881 1232.81 958.96 1226.15 957.13C1175.19 943.07 1117.52 942.56 1065.21 934.26C1007.25 925.04 949.46 914.511 892.52 900.221Z" fill="#DB8231"/>
<path d="M1297.16 581.46C1272.43 572.95 1249.25 561.25 1224.07 553.76C1194.23 544.89 1159.99 547.22 1129.23 545.78C1064.05 542.75 1006.36 522.42 943.1 511.03C894.96 502.37 846.39 512.79 799.9 525.01C768.99 533.14 739.05 541.05 706.94 542.81C674.96 544.57 644.44 540.56 612.39 546.16C559.55 555.37 507.41 564.51 454.38 571.8C456.01 588.43 458.46 604.82 461.62 620.95C468.76 620.17 475.85 619.42 482.81 618.63C534.42 612.83 584.48 599.88 635.84 593C690.94 585.62 741.82 591.92 796.78 577.64C863.37 560.35 917.76 553.21 984.6 572.54C1038.64 588.19 1091.36 594 1147.49 596.6C1179.97 598.11 1209.78 600.49 1240.48 611.82C1265.09 620.9 1288.12 631.98 1313.62 638.62C1361.26 651.02 1413.19 631.39 1458.44 618.37C1466.96 615.92 1475.34 613.98 1483.6 612.46C1486.69 595.12 1488.91 577.49 1490.24 559.6C1424.99 572.91 1363.76 604.38 1297.16 581.46Z" fill="#DB8231"/>
<path d="M1327.37 729.92C1268.93 715.82 1208.64 720.08 1149.71 705.43C1099.85 693.03 1033.17 663.53 981.25 677.1C963.36 681.78 947.81 689.88 931.97 699.21C912.99 710.39 877.56 690.43 853.36 696.35C830.23 702 809.73 713.28 787.25 720.8C764.19 728.52 726.52 709 703.58 704.48C645.17 692.98 584.39 716.1 529.47 733.61C520.16 736.58 510.86 739.6 501.55 742.61C516.05 773.28 533.46 802.32 553.43 829.34C598.58 812.59 648.09 795.22 690.91 803.66C739.17 813.16 778.11 829.19 827.41 812.69C853.84 803.85 867.36 791.26 895.96 801.24C919.74 809.54 951.26 801.51 972.82 790.49C994.13 779.58 1000.09 773.32 1024.81 777.64C1052.52 782.47 1079.77 790.41 1106.94 797.63C1167.21 813.65 1225.05 814.99 1286.02 823.52C1316.72 827.82 1346.14 837.2 1374.87 849.15C1395.53 823.84 1413.87 796.57 1429.54 767.62C1396.78 752.13 1363.19 738.55 1327.37 729.92Z" fill="#FFE1C5"/>
<path d="M1103.52 98.6504C1153.38 95.4404 1204.03 87.1006 1254.4 84.1906C1173.03 31.4006 1076.06 0.630371 971.84 0.630371C877.31 0.630371 788.75 25.9804 712.36 70.0704C757.53 76.9504 802.9 79.6703 840.15 83.9803C907.94 91.7903 1018.34 104.13 1103.52 98.6504Z" fill="#F9B673"/>
<path d="M524.24 256.001C571.11 244.851 619.85 239.69 666.79 235.79C713.3 231.92 754.45 239.64 800.28 245.62C853.8 252.6 905.75 250.731 959.18 243.931C981.29 241.121 1003.31 237.66 1025.32 234.2C1057.42 229.17 1077.2 238.1 1106.98 248.83C1151.59 264.9 1201.38 267.01 1248.29 267.98C1298.88 269.021 1347.51 276.21 1397.78 280.62C1409.62 281.65 1421.16 281.04 1432.55 279.48C1413.37 242.94 1389.99 208.98 1363.04 178.21C1324.9 174.53 1287.1 168.28 1248.29 167.99C1196.26 167.59 1150.44 159.3 1101.9 140.66C1050.3 120.84 994.48 139.451 941.95 146.131C839.05 159.221 740.56 128.74 637.56 138.39C630.81 139.03 624.04 139.71 617.27 140.43C581.04 174.22 549.65 213.121 524.24 256.001Z" fill="#DB8231"/>
<path d="M1225.63 361.96C1165.3 345.99 1109.03 328.83 1046.1 327.93C982.8 327 917.61 328.34 854.45 332.17C823.93 334.03 794.99 342.3 765.79 350.75C731.86 360.57 700.83 360.68 665.59 359.74C603.38 358.1 538.86 361.18 474.64 368.01C472.02 376.56 469.63 385.23 467.45 393.96C534.03 386.48 601.14 383.04 665.59 384.74C718.4 386.14 755.54 379.9 806.01 365.05C870.05 346.21 945.1 356.09 1011.25 353.61C1130.08 349.18 1236.23 403.17 1354.38 403.54C1396.65 403.68 1438.13 402.45 1479.16 406.63C1477.27 398.1 1475.14 389.67 1472.83 381.31C1456.97 379.45 1440.99 378.28 1424.84 378.02C1356.45 376.89 1292.6 379.67 1225.63 361.96Z" fill="#FFE1C5"/>
<path d="M1361.96 479.99C1378.53 479.99 1391.96 472.066 1391.96 462.291C1391.96 452.515 1378.53 444.59 1361.96 444.59C1345.39 444.59 1331.96 452.515 1331.96 462.291C1331.96 472.066 1345.39 479.99 1361.96 479.99Z" fill="#DB8231"/>
<path d="M621.53 458.32C638.099 458.32 651.53 450.396 651.53 440.62C651.53 430.845 638.099 422.92 621.53 422.92C604.961 422.92 591.53 430.845 591.53 440.62C591.53 450.396 604.961 458.32 621.53 458.32Z" fill="#DB8231"/>
<path d="M1254.03 700.82C1270.6 700.82 1284.03 692.896 1284.03 683.12C1284.03 673.345 1270.6 665.42 1254.03 665.42C1237.46 665.42 1224.03 673.345 1224.03 683.12C1224.03 692.896 1237.46 700.82 1254.03 700.82Z" fill="#DB8231"/>
<path d="M896.53 68.3205C913.099 68.3205 926.53 60.3957 926.53 50.6203C926.53 40.8449 913.099 32.9204 896.53 32.9204C879.961 32.9204 866.53 40.8449 866.53 50.6203C866.53 60.3957 879.961 68.3205 896.53 68.3205Z" fill="#DB8231"/>
<path d="M1032.16 900.06C1042.17 900.06 1050.29 895.274 1050.29 889.37C1050.29 883.466 1042.17 878.68 1032.16 878.68C1022.15 878.68 1014.03 883.466 1014.03 889.37C1014.03 895.274 1022.15 900.06 1032.16 900.06Z" fill="#DB8231"/>
<path d="M1022.16 412.56C1032.17 412.56 1040.29 407.774 1040.29 401.87C1040.29 395.966 1032.17 391.18 1022.16 391.18C1012.15 391.18 1004.03 395.966 1004.03 401.87C1004.03 407.774 1012.15 412.56 1022.16 412.56Z" fill="#DB8231"/>
<path d="M749.65 658.81C759.663 658.81 767.78 654.024 767.78 648.12C767.78 642.216 759.663 637.43 749.65 637.43C739.637 637.43 731.52 642.216 731.52 648.12C731.52 654.024 739.637 658.81 749.65 658.81Z" fill="#DB8231"/>
<path d="M1232.16 146.01C1238.37 146.01 1243.41 143.037 1243.41 139.37C1243.41 135.703 1238.37 132.73 1232.16 132.73C1225.95 132.73 1220.91 135.703 1220.91 139.37C1220.91 143.037 1225.95 146.01 1232.16 146.01Z" fill="#DB8231"/>
<path d="M763.61 113.93C769.823 113.93 774.86 110.958 774.86 107.29C774.86 103.623 769.823 100.65 763.61 100.65C757.397 100.65 752.36 103.623 752.36 107.29C752.36 110.958 757.397 113.93 763.61 113.93Z" fill="#DB8231"/>
<path d="M836.95 442.26C843.163 442.26 848.2 439.287 848.2 435.62C848.2 431.953 843.163 428.98 836.95 428.98C830.737 428.98 825.7 431.953 825.7 435.62C825.7 439.287 830.737 442.26 836.95 442.26Z" fill="#DB8231"/>
<path d="M1179.87 488.95C1179.87 492.62 1174.85 495.59 1168.62 495.59C1162.41 495.59 1157.37 492.62 1157.37 488.95C1157.37 485.28 1162.41 482.31 1168.62 482.31C1174.85 482.31 1179.87 485.28 1179.87 488.95Z" fill="#DB8231"/>
<path d="M1290.28 308.93C1296.49 308.93 1301.53 305.958 1301.53 302.29C1301.53 298.623 1296.49 295.65 1290.28 295.65C1284.07 295.65 1279.03 298.623 1279.03 302.29C1279.03 305.958 1284.07 308.93 1290.28 308.93Z" fill="#DB8231"/>
<path d="M988.19 627.29C988.19 630.96 983.17 633.93 976.94 633.93C970.73 633.93 965.7 630.96 965.7 627.29C965.7 623.62 970.73 620.65 976.94 620.65C983.17 620.65 988.19 623.62 988.19 627.29Z" fill="#DB8231"/>
<path d="M890.28 867.26C896.493 867.26 901.53 864.287 901.53 860.62C901.53 856.953 896.493 853.98 890.28 853.98C884.067 853.98 879.03 856.953 879.03 860.62C879.03 864.287 884.067 867.26 890.28 867.26Z" fill="#DB8231"/>
<path d="M1204.87 883.95C1204.87 887.62 1199.85 890.59 1193.62 890.59C1187.41 890.59 1182.37 887.62 1182.37 883.95C1182.37 880.28 1187.41 877.31 1193.62 877.31C1199.85 877.31 1204.87 880.28 1204.87 883.95Z" fill="#DB8231"/>
<path d="M593.61 667.26C599.823 667.26 604.86 664.287 604.86 660.62C604.86 656.953 599.823 653.98 593.61 653.98C587.397 653.98 582.36 656.953 582.36 660.62C582.36 664.287 587.397 667.26 593.61 667.26Z" fill="#DB8231"/>
<path d="M633.2 293.95C633.2 297.62 628.17 300.59 621.95 300.59C615.73 300.59 610.7 297.62 610.7 293.95C610.7 290.28 615.73 287.31 621.95 287.31C628.17 287.31 633.2 290.28 633.2 293.95Z" fill="#DB8231"/>
<path d="M1051.53 282.26C1051.53 285.93 1046.49 288.9 1040.28 288.9C1034.05 288.9 1029.03 285.93 1029.03 282.26C1029.03 278.59 1034.05 275.62 1040.28 275.62C1046.49 275.62 1051.53 278.59 1051.53 282.26Z" fill="#DB8231"/>
<path opacity="0.2" d="M1387.96 208.73C1219.01 446.42 905.64 820.07 580.57 862.91C675.89 971.78 815.79 1040.63 971.85 1040.63C1259.06 1040.63 1491.87 807.82 1491.87 520.63C1491.86 403.6 1453.19 295.62 1387.96 208.73Z" fill="#212A3C"/>
<path opacity="0.2" d="M1491.57 509.06C1320.3 716.25 1031.69 971.76 666.74 941.59C752.45 1003.83 857.83 1040.62 971.85 1040.62C1259.06 1040.62 1491.87 807.81 1491.87 520.62C1491.86 516.74 1491.65 512.92 1491.57 509.06Z" fill="#212A3C"/>
<path d="M1934.99 430.86C1926.57 347.4 1744.66 295.66 1476.3 285.95C1481.98 304.88 1489.37 323.78 1495.32 342.72C1634.27 359.43 1729.77 396.32 1736 458C1749.07 587.59 1355.96 707.19 979.48 753.92C602.97 800.66 195.76 780.39 182.72 650.81C176.2 586.02 271.26 523.71 415.03 471.76C415.36 453.29 417.61 435.12 420.01 416.9C159.57 492.25 -8.05005 587.51 0.379949 671.1C13.6299 802.54 457.46 855.38 991.65 789.04C1525.91 722.71 1948.23 562.34 1934.99 430.86Z" fill="#FFF4E9"/>
<path d="M1502.82 372.53C1503.03 373.72 1503.37 374.92 1503.56 376.11C1507.33 400.02 1508.62 422.35 1506.1 445.12C1519.85 455.96 1528.09 468.52 1529.54 482.97C1539.11 577.74 1251.63 665.2 976.31 699.38C700.97 733.56 403.18 718.74 393.64 623.97C391.41 601.81 405.59 580.06 431.9 559.28C424.93 541.91 419.73 523.87 417.02 505.31C315.33 548.68 255.97 595.85 260.29 638.81C269.98 734.93 594.55 773.57 985.2 725.06C1375.9 676.55 1684.75 559.28 1675.06 463.14C1670.83 421.14 1606.49 390.11 1502.82 372.53Z" fill="#FFF4E9"/>
<path opacity="0.5" d="M1144.44 113.47C1213.93 231.75 1134.79 407.23 967.6 505.44C800.46 603.66 608.63 587.38 539.14 469.13C469.65 350.86 548.81 175.36 715.96 77.1601C883.09 -21.0499 1074.93 -4.8001 1144.44 113.47Z" fill="url(#paint0_linear_208_359)"/>
<path opacity="0.4" d="M990.87 98.1303C1032.35 168.77 977.73 277.91 868.84 341.89C759.95 405.86 638.04 400.47 596.55 329.83C555.03 259.19 609.64 150.06 718.55 86.0804C827.43 22.0904 949.35 27.4903 990.87 98.1303Z" fill="white"/>
<defs>
<linearGradient id="paint0_linear_208_359" x1="683.732" y1="96.118" x2="999.848" y2="486.488" gradientUnits="userSpaceOnUse">
<stop stop-color="white"/>
<stop offset="1" stop-color="white" stop-opacity="0"/>
</linearGradient>
</defs>
</svg>
