<svg width="972" height="695" viewBox="0 0 972 695" fill="none" xmlns="http://www.w3.org/2000/svg">
<path d="M736.756 1099.65C1013.13 1035.52 1184.28 763.362 1119.02 491.767C1053.76 220.172 776.804 51.9891 500.426 116.12C224.048 180.252 52.9042 452.412 118.165 724.007C183.425 995.602 460.378 1163.78 736.756 1099.65Z" fill="#E6E7E8"/>
<path d="M679.911 754.393C679.911 823.092 736.588 878.8 806.486 878.8C876.383 878.8 933.06 823.104 933.06 754.393C933.06 685.682 876.395 630.009 806.486 630.009C736.588 629.997 679.911 685.694 679.911 754.393Z" fill="#D1D3D4"/>
<path d="M920.181 375.893C920.181 337.265 888.3 305.946 848.979 305.946C809.659 305.946 777.777 337.265 777.777 375.893C777.777 414.556 809.659 445.863 848.979 445.863C888.3 445.863 920.181 414.544 920.181 375.893Z" fill="#A7A9AC"/>
<path d="M968.14 649.444C968.14 726.239 1017.68 791.52 1086.98 816.625C1116.34 753.042 1132.8 682.506 1132.8 608.148C1132.8 561.875 1126.34 517.115 1114.48 474.549C1031.1 490.624 968.14 562.776 968.14 649.444Z" fill="#D1D3D4"/>
<path d="M948.866 525.059C948.866 509.481 936.034 496.882 920.205 496.882C904.364 496.882 891.52 509.492 891.52 525.059C891.52 540.626 904.375 553.236 920.205 553.236C936.034 553.236 948.866 540.626 948.866 525.059Z" fill="#D1D3D4"/>
<path d="M577.534 269.974C577.534 294.676 597.888 314.677 623.012 314.677C648.137 314.677 668.502 294.676 668.502 269.974C668.502 245.296 648.148 225.295 623.012 225.295C597.888 225.283 577.534 245.296 577.534 269.974Z" fill="#D1D3D4"/>
<path d="M327.875 596.485C381.391 596.485 424.789 553.849 424.789 501.248C424.789 448.658 381.391 406.022 327.875 406.022C274.371 406.022 230.961 448.658 230.961 501.248C230.949 553.849 274.359 596.485 327.875 596.485Z" fill="#A7A9AC"/>
<path d="M628.041 511.953C628.041 496.386 615.209 483.787 599.356 483.787C583.515 483.787 570.683 496.398 570.683 511.953C570.683 527.531 583.515 540.13 599.356 540.13C615.197 540.13 628.041 527.52 628.041 511.953Z" fill="#D1D3D4"/>
<path opacity="0.1" d="M1034.3 310.867C892.707 522.705 572.352 940.19 240.785 950.803C334.738 1050.81 469.198 1113.46 618.593 1113.46C902.578 1113.46 1132.8 887.231 1132.8 608.149C1132.8 496.999 1096.2 394.29 1034.3 310.867Z" fill="#212A3C"/>
<path opacity="0.1" d="M1131.78 577.57C980.878 777.075 688.455 1069.58 303.808 1007.59C390.815 1073.89 499.974 1113.45 618.593 1113.45C902.578 1113.45 1132.8 887.22 1132.8 608.138C1132.8 597.872 1132.4 587.686 1131.78 577.57Z" fill="#212A3C"/>
<path opacity="0.5" d="M780.234 224.187C848.216 334.205 775.076 499.92 616.843 594.314C458.645 688.742 275.252 676.074 207.305 566.056C139.323 456.06 212.476 290.334 370.685 195.94C528.907 101.523 712.276 114.18 780.234 224.187Z" fill="url(#paint0_linear_230_2)"/>
<path opacity="0.3" d="M633.424 211.876C674.025 277.585 623.388 380.709 520.317 442.214C417.245 503.707 300.765 500.289 260.187 434.592C219.574 368.895 270.211 265.76 373.283 204.266C476.355 142.761 592.823 146.168 633.424 211.876Z" fill="white"/>
<defs>
<linearGradient id="paint0_linear_230_2" x1="382.582" y1="259.126" x2="611.39" y2="543.644" gradientUnits="userSpaceOnUse">
<stop stop-color="white"/>
<stop offset="1" stop-color="white" stop-opacity="0"/>
</linearGradient>
</defs>
</svg>
