<svg width="368" height="453" viewBox="0 0 368 453" fill="none" xmlns="http://www.w3.org/2000/svg">
<path d="M311.944 279.148V418.376C311.944 434.904 297.17 448.306 278.949 448.306H65.0288C46.8075 448.306 32.0332 434.904 32.0332 418.376V279.148C32.0332 263.325 45.5773 250.365 62.7308 249.302C63.4852 249.239 64.2512 249.218 65.0288 249.218H278.949C287.003 249.218 294.396 251.839 300.118 256.198C307.348 261.683 311.944 269.926 311.944 279.148Z" fill="white"/>
<path d="M278.946 452.202H65.0329C44.469 452.202 27.7402 437.028 27.7402 418.374V279.149C27.7402 260.496 44.469 245.322 65.0329 245.322H278.946C299.508 245.322 316.237 260.496 316.237 279.149V418.374C316.237 437.028 299.508 452.202 278.946 452.202ZM65.0329 253.12C49.2094 253.12 36.337 264.796 36.337 279.149V418.374C36.337 432.728 49.2094 444.404 65.0329 444.404H278.946C294.768 444.404 307.64 432.728 307.64 418.374V279.149C307.64 264.796 294.768 253.12 278.946 253.12H65.0329Z" fill="#371A45"/>
<path d="M336.16 348.016C335.567 354.233 333.152 360.512 328.531 366.764H17.0972C12.4759 360.512 10.0492 354.233 9.45705 348.016C8.02888 333.117 17.1552 318.549 31.913 305.273C43.3035 295.02 58.0613 285.539 73.9337 277.295C81.2952 273.465 88.8888 269.904 96.5174 266.648C125.719 254.17 155.119 246.249 171.932 245.433H173.697C190.51 246.249 219.897 254.17 249.099 266.648C261.43 271.913 273.727 277.986 285.024 284.687C294.987 290.589 304.183 296.976 311.95 303.704C327.742 317.392 337.646 332.534 336.16 348.016Z" fill="white"/>
<path d="M328.474 370.713C327.695 370.713 326.904 370.563 326.179 370.245C323.951 369.271 323.175 367.094 324.444 365.384C334.275 352.145 333.958 337.893 323.502 323.024C296.44 284.538 207.788 251.928 173.541 250.194H172.076C137.829 251.928 49.1759 284.537 22.1144 323.024C11.659 337.893 11.3415 352.145 21.1722 365.384C22.4417 367.095 21.6652 369.271 19.4377 370.245C17.2073 371.219 14.3751 370.623 13.1041 368.914C1.58172 353.396 1.86378 336.817 13.9431 319.638C42.9346 278.406 134.834 244.851 171.635 243.073L171.927 243.065L173.982 243.073C210.783 244.851 302.682 278.407 331.674 319.638C343.753 336.817 344.035 353.396 332.513 368.914C331.657 370.067 330.088 370.713 328.474 370.713Z" fill="#371A45"/>
<path d="M333.421 173.754C331.731 173.869 330.258 172.719 330.131 171.186L323.525 91.2101C323.399 89.6768 324.666 88.3406 326.357 88.2256C344.092 87.0204 359.546 99.0846 360.874 115.172L363.127 142.443C364.456 158.531 351.156 172.549 333.421 173.754Z" fill="white"/>
<path d="M333.192 174.52C331.171 174.52 329.456 173.101 329.301 171.244L322.697 91.2677C322.536 89.3209 324.152 87.618 326.298 87.4722C335.093 86.8772 343.627 89.4204 350.316 94.6413C357.003 99.8628 361.05 107.134 361.709 115.116L363.962 142.388C365.322 158.865 351.65 173.275 333.486 174.51C333.387 174.517 333.289 174.52 333.192 174.52ZM328.815 88.8995C328.021 88.8995 327.223 88.9266 326.423 88.9811C325.193 89.0645 324.268 90.0399 324.36 91.1548L330.965 171.13C331.057 172.245 332.112 173.085 333.362 173.001C350.609 171.829 363.59 158.146 362.299 142.501L360.046 115.229C359.42 107.65 355.578 100.745 349.226 95.788C343.486 91.3059 336.313 88.8995 328.815 88.8995Z" fill="#371A45"/>
<g opacity="0.35">
<path d="M362.069 129.656L363.128 142.446C364.454 158.528 351.156 172.549 333.418 173.761C331.728 173.877 330.255 172.719 330.127 171.186L328.363 149.926C328.918 150.863 330.043 151.46 331.284 151.384L333.375 151.237C347.39 150.287 358.642 141.327 362.069 129.656Z" fill="#371A45"/>
</g>
<path d="M333.185 177.974C329.194 177.974 325.805 175.171 325.5 171.503L318.895 91.5253C318.579 87.6777 321.771 84.3147 326.009 84.0267C335.823 83.3577 345.336 86.1999 352.795 92.0219C360.255 97.8456 364.768 105.955 365.504 114.857L367.756 142.129C369.272 160.506 354.025 176.577 333.767 177.954C333.572 177.967 333.378 177.974 333.185 177.974ZM333.078 169.555C333.076 169.555 333.075 169.556 333.073 169.556C333.075 169.555 333.076 169.555 333.078 169.555ZM328.275 92.358L334.637 169.409C349.003 167.688 359.592 156.027 358.497 142.758L356.244 115.487C355.694 108.827 352.318 102.761 346.739 98.4056C341.558 94.3617 335.054 92.2554 328.275 92.358Z" fill="#371A45"/>
<path d="M35.3411 108.003C37.0315 107.888 38.5046 109.038 38.6314 110.571L45.2369 190.547C45.3637 192.08 44.0957 193.416 42.4053 193.531C24.6706 194.736 9.21652 182.672 7.88793 166.585L5.6355 139.313C4.30633 123.226 17.6061 109.208 35.3411 108.003Z" fill="white"/>
<path d="M39.9472 194.371C32.0503 194.372 24.4978 191.838 18.4497 187.116C11.7626 181.895 7.71507 174.623 7.05614 166.642L4.80343 139.369C3.44206 122.892 17.1135 108.482 35.2788 107.248C36.3201 107.175 37.3275 107.479 38.1164 108.095C38.9071 108.712 39.3844 109.571 39.4624 110.514L46.0685 190.49C46.2287 192.437 44.6134 194.14 42.4672 194.286C41.6246 194.343 40.7846 194.371 39.9472 194.371ZM35.5739 108.751C35.5173 108.751 35.4604 108.753 35.4038 108.757C18.1552 109.929 5.17511 123.611 6.46714 139.257L8.71985 166.529C9.34599 174.108 13.1881 181.012 19.5395 185.97C25.8908 190.927 33.9929 193.346 42.3433 192.777C43.5729 192.694 44.4982 191.718 44.406 190.603L37.7996 110.627C37.7558 110.087 37.4807 109.595 37.0289 109.242C36.6193 108.923 36.1077 108.751 35.5739 108.751Z" fill="#371A45"/>
<g opacity="0.35">
<path d="M43.4109 168.36L45.2406 190.547C45.3691 192.08 44.0922 193.416 42.4026 193.533C33.0941 194.162 24.4048 191.141 18.0633 185.793C12.3364 180.963 8.52356 174.229 7.89133 166.591L6.94141 155.099C12.8082 164.839 24.605 171.101 37.608 170.219L40.8254 170C41.9993 169.918 42.9493 169.261 43.4109 168.36Z" fill="#371A45"/>
</g>
<path d="M39.9728 197.825C20.8951 197.827 4.70747 184.432 3.25818 166.9L1.00546 139.628C-0.511716 121.251 14.735 105.18 34.9945 103.803C37.0502 103.661 39.0391 104.258 40.6019 105.477C42.1632 106.696 43.1082 108.394 43.2611 110.257L49.8675 190.232C50.1834 194.079 46.9915 197.442 42.7528 197.73C41.8217 197.794 40.8923 197.825 39.9728 197.825ZM34.1232 112.348C27.4007 113.149 21.3158 116.125 16.8588 120.824C12.056 125.886 9.71426 132.34 10.2652 138.998L12.5179 166.271C13.6129 179.54 25.9953 189.687 40.487 189.399L34.1232 112.348Z" fill="#371A45"/>
<path d="M44.4395 92.3901C44.4395 92.3901 70.4415 23.0878 162.939 2.59619C255.939 2.59629 314.439 72.8901 314.439 72.8901C314.439 72.8901 238.439 35.89 162.939 45.3903C95.9395 45.3903 44.4395 92.3901 44.4395 92.3901Z" fill="white"/>
<path d="M184.384 278.302C144.135 278.302 106.265 264.152 77.6812 238.419C48.9583 212.561 33.0554 178.106 32.9025 141.399C32.7496 104.692 48.3633 70.1285 76.8694 44.0739C105.374 18.0201 143.36 3.59487 183.826 3.45591C184.02 3.45538 184.216 3.45459 184.408 3.45459C267.68 3.45459 335.581 64.7584 335.898 140.358C336.214 216.133 268.51 278.014 184.973 278.3C184.778 278.301 184.578 278.302 184.384 278.302ZM184.408 4.96794C184.213 4.96794 184.028 4.96795 183.832 4.96874C143.812 5.10613 106.244 19.3729 78.0526 45.1401C49.861 70.9073 34.4185 105.091 34.5717 141.394C34.722 177.696 50.4506 211.773 78.856 237.345C107.124 262.793 144.581 276.789 184.384 276.789C184.58 276.789 184.773 276.789 184.968 276.788C267.584 276.504 334.543 215.305 334.23 140.363C333.916 65.6009 266.756 4.96794 184.408 4.96794Z" fill="#371A45"/>
<g opacity="0.35">
<path d="M333.539 121.447C334.524 127.623 335.036 133.937 335.065 140.362C335.369 215.838 268.174 277.256 184.967 277.549C101.76 277.825 34.0523 216.873 33.729 141.397C33.7183 139.226 33.765 137.054 33.8706 134.914C44.3061 201.407 107.45 252.411 183.583 252.152C264.397 251.868 330.094 193.931 333.539 121.447Z" fill="#371A45"/>
</g>
<path d="M184.382 281.756C143.123 281.756 104.3 267.25 74.9976 240.87C45.5537 214.363 29.2512 179.041 29.0939 141.412C28.9367 103.782 44.9429 68.3489 74.166 41.64C103.388 14.9308 142.327 0.143164 183.812 0.00051407C184.01 -1.23124e-05 184.211 2.47347e-08 184.41 2.47347e-08C269.773 2.47347e-08 339.382 62.8445 339.706 140.344C340.029 218.024 270.623 281.461 184.988 281.755C184.788 281.756 184.582 281.756 184.382 281.756ZM184.408 8.42157C184.217 8.42157 184.038 8.42157 183.845 8.42289C144.843 8.55659 108.232 22.4602 80.7552 47.5726C53.2803 72.685 38.2304 106 38.3792 141.379C38.5266 176.759 53.8542 209.97 81.5386 234.892C109.087 259.693 145.594 273.334 184.384 273.334C184.573 273.334 184.762 273.333 184.953 273.332C265.469 273.056 330.725 213.412 330.421 140.376C330.116 67.5135 264.662 8.42157 184.408 8.42157Z" fill="#371A45"/>
<path d="M181.475 265.686C123.32 265.686 71.8689 238.819 58.917 223.193C40.9174 201.478 31.1078 175.851 30.5499 149.084C29.8216 114.137 44.7157 86.9233 74.8156 68.1986C101.001 51.9091 138.314 42.8959 182.72 42.1353C227.104 41.3623 264.786 49.1006 291.631 64.4815C322.491 82.1614 338.507 108.846 339.235 143.792C339.793 170.56 331.058 196.504 313.976 218.82C302.117 234.314 252.463 263.95 186.202 265.626C184.623 265.666 183.046 265.686 181.475 265.686ZM188.183 50.5105C186.34 50.5105 184.576 50.5274 182.896 50.5555C139.28 51.3035 38.0302 62.3857 39.8323 148.925C40.3537 173.91 49.52 197.842 66.3381 218.133C78.2669 232.524 129.86 258.632 185.945 257.208C248.12 255.635 295.764 227.845 306.349 214.017C322.311 193.165 330.473 168.937 329.953 143.951C328.219 60.7445 234.19 50.5105 188.183 50.5105Z" fill="#371A45"/>
<path d="M45.2129 92.6703C44.1971 92.6703 43.1758 92.3703 42.3227 91.7515C40.3959 90.3527 40.0149 87.8544 41.4175 86.0495C67.2644 50.1968 118.343 29.0135 181.584 27.9289C244.397 26.8372 296.25 45.5896 323.988 79.3373C325.422 80.8872 325.452 83.1938 323.953 84.7804C322.332 86.4961 319.514 86.7377 317.572 85.3599L317.083 85.027L316.679 84.5343C290.787 52.8871 241.647 35.3196 181.759 36.349C121.582 37.3815 73.2359 57.2116 49.12 90.7535L48.8566 91.0838C47.9374 92.1263 46.5801 92.6703 45.2129 92.6703Z" fill="#371A45"/>
</svg>
