<svg width="584" height="194" viewBox="0 0 584 194" fill="none" xmlns="http://www.w3.org/2000/svg">
<g filter="url(#filter0_ddii_97_2)">
<rect x="20" y="20" width="544" height="154" rx="60" fill="white"/>
<rect x="20.5" y="20.5" width="543" height="153" rx="59.5" stroke="#C53D41"/>
</g>
<path d="M181.768 120.84C180.349 127.933 176.392 133.309 169.896 136.968C163.475 140.627 155.896 142.344 147.16 142.12C143.128 142.045 139.059 141.672 134.952 141C130.92 140.253 128.456 139.133 127.56 137.64C127.187 137.043 127 136.259 127 135.288C127 132.973 127.821 130.397 129.464 127.56C131.107 124.723 132.973 122.781 135.064 121.736C135.811 121.363 136.669 121.176 137.64 121.176C139.208 121.176 142.083 121.699 146.264 122.744C151.043 123.939 154.515 124.536 156.68 124.536C161.011 124.536 163.512 122.669 164.184 118.936C164.408 117.592 163.587 116.285 161.72 115.016C159.928 113.747 156.904 112.067 152.648 109.976C147.496 107.437 143.203 105.085 139.768 102.92C136.408 100.755 133.459 98.104 130.92 94.968C128.381 91.7573 127.112 88.0987 127.112 83.992C127.112 83.096 127.149 82.3867 127.224 81.864C128.419 74.472 132.227 69.0587 138.648 65.624C145.069 62.1147 152.797 60.472 161.832 60.696C165.939 60.7707 170.008 61.1813 174.04 61.928C178.072 62.6 180.536 63.6827 181.432 65.176C181.805 65.7733 181.992 66.52 181.992 67.416C181.992 69.656 181.171 72.232 179.528 75.144C177.885 77.9813 176.019 79.96 173.928 81.08C173.331 81.3787 172.472 81.528 171.352 81.528C170.307 81.528 169 81.3787 167.432 81.08C165.864 80.7067 164.296 80.3333 162.728 79.96C157.949 78.7653 154.44 78.168 152.2 78.168C147.869 78.168 145.368 80.0347 144.696 83.768C144.472 85.112 145.293 86.3813 147.16 87.576C149.101 88.7707 152.163 90.3013 156.344 92.168C161.496 94.5573 165.789 96.76 169.224 98.776C172.659 100.792 175.645 103.368 178.184 106.504C180.797 109.565 182.104 113.112 182.104 117.144C182.104 118.339 181.992 119.571 181.768 120.84ZM166.536 72.344L166.2 73.352V73.464C166.125 73.464 166.013 73.5013 165.864 73.576C165.715 73.6507 165.528 73.688 165.304 73.688L165.192 73.912L165.304 74.024L166.2 74.472V74.584C166.275 74.7333 166.312 74.8827 166.312 75.032C166.387 75.1813 166.461 75.3307 166.536 75.48L166.76 75.592L166.984 75.48C167.059 75.3307 167.096 75.1813 167.096 75.032C167.171 74.8827 167.245 74.7333 167.32 74.584V74.472C167.469 74.472 167.768 74.3227 168.216 74.024L168.328 73.912L168.216 73.688C167.992 73.688 167.805 73.6507 167.656 73.576C167.581 73.5013 167.469 73.464 167.32 73.464V73.352L166.984 72.344H166.76H166.536ZM167.88 67.528C167.656 67.528 167.544 67.6027 167.544 67.752C167.544 67.8267 167.581 67.9013 167.656 67.976C167.731 68.0507 167.805 68.088 167.88 68.088C168.253 68.312 168.776 68.536 169.448 68.76L169.784 68.872C169.859 69.096 169.933 69.3573 170.008 69.656C170.157 69.88 170.269 70.1787 170.344 70.552C170.419 70.7013 170.568 70.776 170.792 70.776C170.941 70.776 171.016 70.7013 171.016 70.552C171.165 70.2533 171.315 69.9547 171.464 69.656C171.613 69.3573 171.725 69.096 171.8 68.872C171.875 68.7973 171.949 68.76 172.024 68.76C172.173 68.6853 172.36 68.6107 172.584 68.536C172.883 68.4613 173.256 68.312 173.704 68.088C173.853 68.088 173.928 67.976 173.928 67.752C173.928 67.6027 173.853 67.528 173.704 67.528C173.405 67.3787 173.107 67.2667 172.808 67.192C172.509 67.0427 172.248 66.8933 172.024 66.744C171.875 66.744 171.8 66.7067 171.8 66.632C171.352 65.736 171.091 65.176 171.016 64.952C171.016 64.8773 170.941 64.84 170.792 64.84C170.568 64.84 170.419 64.8773 170.344 64.952C170.269 65.4747 170.083 66.0347 169.784 66.632C169.784 66.7067 169.672 66.744 169.448 66.744L167.88 67.528ZM173.928 70.776H173.704C173.629 71.1493 173.443 71.56 173.144 72.008C172.472 72.3067 172.061 72.4933 171.912 72.568L171.8 72.792C171.8 72.792 171.8 72.8293 171.8 72.904C171.875 72.904 171.912 72.904 171.912 72.904L173.144 73.464L173.704 74.696L173.928 74.808C174.003 74.7333 174.04 74.696 174.04 74.696C174.264 74.024 174.376 73.6133 174.376 73.464H174.6C175.272 73.0907 175.683 72.904 175.832 72.904C175.907 72.8293 175.944 72.792 175.944 72.792L175.832 72.568C175.683 72.4933 175.272 72.3067 174.6 72.008H174.376C174.376 71.8587 174.339 71.7093 174.264 71.56C174.189 71.336 174.115 71.0747 174.04 70.776H173.928ZM235.161 71.112C234.937 71.1867 234.825 71.336 234.825 71.56C234.825 71.7093 234.937 71.8587 235.161 72.008L237.289 72.904C237.438 72.904 237.513 72.9787 237.513 73.128L238.297 75.368L238.745 75.592C239.043 75.592 239.193 75.5173 239.193 75.368C239.566 74.5467 239.827 73.8 239.977 73.128C240.126 72.9787 240.238 72.904 240.312 72.904C240.835 72.5307 241.545 72.232 242.441 72.008L242.665 71.56C242.665 71.4107 242.59 71.2613 242.441 71.112L240.312 70.216L239.977 69.992C239.827 69.32 239.566 68.5733 239.193 67.752C239.193 67.528 239.043 67.416 238.745 67.416C238.595 67.416 238.446 67.528 238.297 67.752L237.513 69.992C237.513 69.992 237.438 70.0667 237.289 70.216C236.841 70.2907 236.131 70.5893 235.161 71.112ZM242.777 67.192C242.627 67.3413 242.553 67.416 242.553 67.416C242.553 67.5653 242.627 67.64 242.777 67.64L244.345 68.312C244.345 68.312 244.345 68.3493 244.345 68.424C244.419 68.424 244.457 68.424 244.457 68.424C244.755 68.9467 244.942 69.4693 245.017 69.992L245.241 70.104C245.39 70.104 245.465 70.0667 245.465 69.992L246.137 68.424C246.211 68.3493 246.249 68.312 246.249 68.312L247.817 67.64C247.891 67.64 247.929 67.5653 247.929 67.416L247.817 67.192L246.249 66.632L246.137 66.52L245.465 64.952C245.465 64.8027 245.39 64.728 245.241 64.728L245.017 64.952L244.457 66.52L244.345 66.632L242.777 67.192ZM248.937 76.712C248.937 76.5627 248.899 76.488 248.825 76.488C248.227 76.3387 247.854 76.1893 247.705 76.04L247.481 75.928C247.481 75.7787 247.406 75.6293 247.257 75.48C247.182 75.256 247.107 75.032 247.033 74.808L246.809 74.696L246.585 74.808C246.51 75.032 246.398 75.256 246.249 75.48C246.174 75.6293 246.137 75.7787 246.137 75.928L245.913 76.04C245.465 76.264 245.091 76.4133 244.793 76.488C244.643 76.488 244.569 76.5627 244.569 76.712C244.569 76.8613 244.643 76.936 244.793 76.936C245.091 77.0107 245.465 77.16 245.913 77.384L246.137 77.496C246.137 77.6453 246.174 77.832 246.249 78.056C246.398 78.2053 246.51 78.392 246.585 78.616L246.809 78.728L247.033 78.616C247.107 78.392 247.182 78.2053 247.257 78.056C247.406 77.832 247.481 77.6453 247.481 77.496L247.705 77.384C247.854 77.2347 248.227 77.0853 248.825 76.936C248.899 76.936 248.937 76.8613 248.937 76.712ZM229.673 105.832C229.598 107.997 229.635 111.581 229.785 116.584C229.934 120.317 230.009 123.043 230.009 124.76C230.009 131.629 229.299 136.147 227.881 138.312C227.134 139.581 225.939 140.515 224.297 141.112C222.654 141.784 220.862 142.12 218.921 142.12C216.905 142.12 215.001 141.747 213.209 141C211.417 140.253 210.11 139.245 209.289 137.976C207.945 135.885 207.273 131.667 207.273 125.32C207.273 122.856 207.31 120.653 207.385 118.712C207.459 116.771 207.534 115.165 207.609 113.896C207.683 113 207.758 111.88 207.833 110.536C207.907 109.192 207.945 107.699 207.945 106.056C207.945 104.637 208.019 101.837 208.169 97.656C208.393 94.1467 208.505 90.7493 208.505 87.464C208.505 83.656 208.243 81.4907 207.721 80.968C207.347 80.5947 206.563 80.5947 205.369 80.968C204.249 81.2667 202.27 81.9013 199.433 82.872C196.894 83.8427 194.878 84.552 193.385 85C191.966 85.448 190.734 85.672 189.689 85.672C189.315 85.672 188.905 85.5973 188.457 85.448C187.113 84.776 186.067 83.3947 185.321 81.304C184.649 79.1387 184.312 76.6747 184.312 73.912C184.312 71.3733 184.611 69.096 185.209 67.08C185.881 64.9893 186.851 63.5707 188.121 62.824C189.017 62.2267 190.435 61.928 192.377 61.928C193.87 61.928 195.774 62.152 198.089 62.6C200.403 62.9733 202.755 63.4213 205.145 63.944C208.505 64.6907 211.305 65.2507 213.545 65.624C215.859 65.9973 217.95 66.184 219.817 66.184C221.683 66.184 223.625 65.9973 225.641 65.624C227.731 65.2507 230.494 64.6533 233.929 63.832C234.675 63.6827 236.355 63.3467 238.969 62.824C241.657 62.2267 243.822 61.928 245.465 61.928C247.033 61.928 248.302 62.2267 249.273 62.824C250.467 63.5707 251.363 64.9893 251.961 67.08C252.633 69.1707 252.969 71.4853 252.969 74.024C252.969 76.6373 252.633 78.952 251.961 80.968C251.363 82.984 250.467 84.328 249.273 85C249.049 85.1493 248.601 85.224 247.929 85.224C246.585 85.224 244.681 84.8133 242.217 83.992C239.753 83.096 238.297 82.5733 237.849 82.424C236.281 81.8267 234.787 81.304 233.369 80.856C232.025 80.408 231.203 80.296 230.905 80.52C230.382 80.8187 230.046 82.1627 229.897 84.552C229.747 86.8667 229.673 90.0773 229.673 94.184V105.832ZM268.476 112.888C268.551 113.635 269.372 114.419 270.94 115.24C272.508 115.987 274.337 116.36 276.428 116.36C277.996 116.36 279.415 116.173 280.684 115.8C281.953 115.352 282.588 114.829 282.588 114.232C282.513 112.515 282.103 109.528 281.356 105.272C280.609 101.016 279.639 97.208 278.444 93.848C277.324 90.488 276.129 88.808 274.86 88.808C273.516 88.808 272.359 90.376 271.388 93.512C270.417 96.648 269.671 100.232 269.148 104.264C268.625 108.221 268.401 111.096 268.476 112.888ZM269.82 68.648C269.745 68.648 269.708 68.7227 269.708 68.872C269.708 69.0213 269.745 69.096 269.82 69.096L271.388 69.768C271.388 69.768 271.388 69.8053 271.388 69.88C271.463 69.88 271.5 69.88 271.5 69.88C271.799 70.4027 271.985 70.9253 272.06 71.448L272.284 71.56L272.508 71.448L273.18 69.88C273.255 69.8053 273.292 69.768 273.292 69.768L274.86 69.096C274.935 69.096 274.972 69.0213 274.972 68.872C274.972 68.7227 274.935 68.648 274.86 68.648L273.292 68.088L273.18 67.864L272.508 66.408C272.508 66.2587 272.433 66.184 272.284 66.184L272.06 66.408C271.985 66.856 271.799 67.3413 271.5 67.864L271.388 68.088L269.82 68.648ZM276.204 73.688C276.204 73.8373 276.129 73.912 275.98 73.912L273.74 74.808C273.591 74.808 273.516 74.9573 273.516 75.256L273.74 75.704C274.263 75.8533 274.711 76.0027 275.084 76.152C275.457 76.3013 275.756 76.4133 275.98 76.488C276.129 76.488 276.204 76.5627 276.204 76.712C276.652 77.608 276.951 78.3173 277.1 78.84C277.249 79.064 277.399 79.176 277.548 79.176C277.772 79.176 277.921 79.064 277.996 78.84C278.593 77.496 278.892 76.7867 278.892 76.712C279.041 76.5627 279.153 76.488 279.228 76.488C279.377 76.4133 279.639 76.3013 280.012 76.152C280.385 76.0027 280.833 75.8533 281.356 75.704C281.58 75.5547 281.692 75.4053 281.692 75.256C281.692 74.9573 281.58 74.808 281.356 74.808C279.863 74.2107 279.153 73.912 279.228 73.912C279.153 73.912 279.041 73.8373 278.892 73.688L277.996 71.56C277.847 71.4107 277.697 71.336 277.548 71.336L277.1 71.56C276.876 72.456 276.577 73.1653 276.204 73.688ZM268.14 137.976C267.244 139.171 265.751 140.067 263.66 140.664C261.569 141.261 259.217 141.56 256.604 141.56C253.393 141.56 250.444 141.112 247.756 140.216C245.143 139.245 243.575 137.976 243.052 136.408C242.903 135.811 242.828 135.288 242.828 134.84C242.828 133.197 243.351 131.144 244.396 128.68C245.441 126.216 247.009 122.856 249.1 118.6C250.892 115.091 252.348 112.067 253.468 109.528C254.663 106.915 255.559 104.525 256.156 102.36C256.753 100.195 257.201 97.8427 257.5 95.304C257.799 92.6907 258.097 89.368 258.396 85.336C258.769 80.184 259.18 76.152 259.628 73.24C260.151 70.2533 261.009 68.0133 262.204 66.52C263.175 65.1013 264.78 64.056 267.02 63.384C269.335 62.712 271.948 62.376 274.86 62.376C278.145 62.376 281.244 62.7867 284.156 63.608C287.143 64.4293 289.196 65.4373 290.316 66.632C291.436 67.976 292.145 69.88 292.444 72.344C292.743 74.808 292.929 78.4293 293.004 83.208C293.004 87.1653 293.079 90.4507 293.228 93.064C293.452 95.6773 293.9 98.0667 294.572 100.232C295.244 102.472 296.289 104.824 297.708 107.288C299.127 109.752 301.18 113.187 303.868 117.592C306.855 122.371 309.02 126.067 310.364 128.68C311.708 131.293 312.193 133.384 311.82 134.952C311.447 136.669 309.841 138.051 307.004 139.096C304.241 140.067 301.068 140.552 297.484 140.552C295.02 140.552 292.743 140.291 290.652 139.768C288.636 139.171 287.105 138.349 286.06 137.304C285.015 136.259 284.268 134.728 283.82 132.712C283.372 130.621 283.073 128.045 282.924 124.984C282.625 123.789 280.385 123.267 276.204 123.416C271.724 123.565 269.484 124.275 269.484 125.544C269.633 127.933 269.708 129.613 269.708 130.584C269.708 134.168 269.185 136.632 268.14 137.976ZM319.405 127.336C319.33 127.336 319.293 127.411 319.293 127.56L319.405 127.784L320.973 128.344C320.973 128.344 320.973 128.381 320.973 128.456C321.047 128.456 321.085 128.456 321.085 128.456L321.757 130.024C321.757 130.173 321.831 130.248 321.981 130.248C321.981 130.248 322.055 130.173 322.205 130.024C322.279 129.651 322.354 129.352 322.429 129.128C322.578 128.829 322.69 128.605 322.765 128.456L322.877 128.344L324.445 127.784L324.557 127.56C324.557 127.411 324.519 127.336 324.445 127.336L322.877 126.664C322.877 126.664 322.839 126.664 322.765 126.664C322.765 126.589 322.765 126.552 322.765 126.552C322.466 126.029 322.279 125.507 322.205 124.984L321.981 124.872C321.831 124.872 321.757 124.909 321.757 124.984L321.085 126.552C321.085 126.627 321.047 126.664 320.973 126.664L319.405 127.336ZM325.565 130.36C325.341 131.256 325.042 131.965 324.669 132.488C324.669 132.563 324.594 132.675 324.445 132.824C323.773 132.973 323.026 133.235 322.205 133.608C322.055 133.608 321.981 133.757 321.981 134.056L322.205 134.504L324.445 135.288C324.594 135.288 324.669 135.363 324.669 135.512L325.565 137.64C325.714 137.864 325.863 137.976 326.013 137.976C326.237 137.976 326.386 137.864 326.461 137.64C326.983 136.669 327.282 135.96 327.357 135.512C327.506 135.363 327.581 135.288 327.581 135.288L329.821 134.504C330.045 134.355 330.157 134.205 330.157 134.056C330.157 133.757 330.045 133.608 329.821 133.608C328.999 133.235 328.253 132.973 327.581 132.824L327.357 132.488L326.461 130.36C326.311 130.211 326.162 130.136 326.013 130.136L325.565 130.36ZM329.373 125.768C329.298 125.768 329.261 125.843 329.261 125.992C329.261 126.141 329.298 126.216 329.373 126.216C329.821 126.515 330.194 126.664 330.493 126.664L330.605 126.888C330.605 127.037 330.642 127.224 330.717 127.448C330.791 127.597 330.866 127.784 330.941 128.008C331.09 128.157 331.165 128.232 331.165 128.232C331.314 128.232 331.389 128.157 331.389 128.008L331.837 126.888L331.949 126.664C332.247 126.664 332.621 126.515 333.069 126.216C333.143 126.216 333.181 126.141 333.181 125.992C333.181 125.843 333.143 125.768 333.069 125.768C332.919 125.693 332.733 125.619 332.509 125.544C332.359 125.395 332.173 125.32 331.949 125.32L331.837 125.096C331.762 125.021 331.687 124.872 331.613 124.648C331.538 124.424 331.463 124.2 331.389 123.976C331.389 123.901 331.314 123.864 331.165 123.864L330.941 123.976L330.605 125.096L330.493 125.32C330.269 125.32 330.045 125.395 329.821 125.544C329.671 125.619 329.522 125.693 329.373 125.768ZM340.237 73.8C339.341 74.92 338.631 77.4213 338.109 81.304C337.586 85.112 337.325 89.2187 337.325 93.624C337.325 95.64 337.362 97.096 337.437 97.992C338.482 98.664 340.013 99.3733 342.029 100.12C344.045 100.867 346.322 101.24 348.861 101.24C351.25 101.24 353.677 100.755 356.141 99.784C358.829 98.7387 360.957 97.0213 362.525 94.632C364.167 92.2427 364.877 88.92 364.653 84.664C364.503 80.2587 363.607 76.824 361.965 74.36C360.397 71.8213 358.306 70.2907 355.693 69.768C354.125 69.4693 352.557 69.32 350.989 69.32C348.749 69.32 346.807 69.6933 345.165 70.44C343.597 71.1867 341.954 72.3067 340.237 73.8ZM364.989 133.608C364.839 133.608 364.765 133.645 364.765 133.72L364.317 134.952C364.317 134.952 364.279 134.989 364.205 135.064C364.055 135.213 363.682 135.363 363.085 135.512L362.973 135.736L363.085 135.96L364.205 136.52C364.279 136.52 364.317 136.557 364.317 136.632L364.765 137.752C364.765 137.901 364.839 137.976 364.989 137.976C365.138 137.976 365.213 137.901 365.213 137.752L365.661 136.632C365.661 136.557 365.698 136.52 365.773 136.52L366.893 135.96L367.005 135.736L366.893 135.512C366.594 135.437 366.221 135.288 365.773 135.064C365.773 135.064 365.735 135.064 365.661 135.064C365.661 134.989 365.661 134.952 365.661 134.952L365.213 133.72C365.213 133.645 365.138 133.608 364.989 133.608ZM366.333 127.336C366.183 127.336 366.109 127.485 366.109 127.784L366.333 128.232C367.229 128.456 367.975 128.717 368.573 129.016C368.722 129.016 368.797 129.091 368.797 129.24C369.245 130.136 369.543 130.845 369.693 131.368C369.842 131.592 369.991 131.704 370.141 131.704C370.365 131.704 370.514 131.592 370.589 131.368C371.186 130.024 371.485 129.315 371.485 129.24C371.634 129.091 371.746 129.016 371.821 129.016C372.119 128.792 372.829 128.531 373.949 128.232C374.173 128.083 374.285 127.933 374.285 127.784C374.285 127.485 374.173 127.336 373.949 127.336C372.455 126.739 371.746 126.44 371.821 126.44C371.746 126.44 371.634 126.365 371.485 126.216L370.589 124.088C370.439 123.939 370.29 123.864 370.141 123.864L369.693 124.088C369.469 124.984 369.17 125.693 368.797 126.216C368.797 126.365 368.722 126.44 368.573 126.44L366.333 127.336ZM374.285 131.592C374.135 131.592 374.061 131.629 374.061 131.704L373.389 133.272C373.389 133.347 373.351 133.384 373.277 133.384L371.709 134.056L371.597 134.28L371.709 134.504L373.277 135.064C373.277 135.064 373.277 135.101 373.277 135.176C373.351 135.176 373.389 135.176 373.389 135.176L374.061 136.744C374.061 136.893 374.135 136.968 374.285 136.968C374.285 136.968 374.359 136.893 374.509 136.744C374.583 136.595 374.77 136.072 375.069 135.176L375.181 135.064C376.077 134.765 376.599 134.579 376.749 134.504C376.898 134.355 376.973 134.28 376.973 134.28C376.973 134.131 376.898 134.056 376.749 134.056L375.181 133.384C375.181 133.384 375.143 133.384 375.069 133.384C375.069 133.309 375.069 133.272 375.069 133.272L374.509 131.704L374.285 131.592ZM340.685 137.864C339.789 139.357 338.109 140.515 335.645 141.336C333.181 142.232 330.493 142.68 327.581 142.68C324.818 142.68 322.317 142.307 320.077 141.56C317.837 140.813 316.269 139.731 315.373 138.312C314.551 137.043 314.141 135.064 314.141 132.376C314.141 130.509 314.327 128.195 314.701 125.432C315.149 122.669 315.634 119.944 316.157 117.256C316.306 116.584 316.642 114.568 317.165 111.208C317.762 107.848 318.098 104.861 318.173 102.248C318.322 99.7093 318.285 96.7973 318.061 93.512C317.837 90.2267 317.687 88.248 317.613 87.576C317.165 82.2 316.941 78.3547 316.941 76.04C316.941 71.8587 317.463 68.8347 318.509 66.968C319.33 65.4 320.749 64.168 322.765 63.272C324.855 62.376 327.095 61.8533 329.485 61.704C335.085 61.4053 340.349 61.256 345.277 61.256C349.831 61.256 353.303 61.4053 355.693 61.704C363.159 62.4507 369.543 64.84 374.845 68.872C380.146 72.8293 382.946 78.2053 383.245 85C383.394 89.3307 382.349 93.288 380.109 96.872C377.869 100.381 374.583 103.256 370.253 105.496C372.045 106.019 373.538 106.765 374.733 107.736C376.973 109.528 378.615 112.515 379.661 116.696C380.781 120.877 381.341 125.208 381.341 129.688C381.341 134.317 380.893 137.528 379.997 139.32C379.474 140.589 378.354 141.523 376.637 142.12C374.994 142.792 373.053 143.128 370.813 143.128C368.647 143.128 366.557 142.829 364.541 142.232C362.599 141.635 361.181 140.813 360.285 139.768C359.314 138.723 358.829 136.52 358.829 133.16C358.829 132.04 358.903 130.061 359.053 127.224C359.277 125.059 359.389 122.968 359.389 120.952C359.389 117.443 358.866 115.053 357.821 113.784C356.477 112.141 353.565 111.32 349.085 111.32C347.815 111.32 346.061 111.395 343.821 111.544L339.677 111.656C341.319 120.467 342.141 126.776 342.141 130.584C342.141 133.795 341.655 136.221 340.685 137.864ZM436.301 71.112C436.077 71.1867 435.965 71.336 435.965 71.56C435.965 71.7093 436.077 71.8587 436.301 72.008L438.429 72.904C438.578 72.904 438.653 72.9787 438.653 73.128L439.437 75.368L439.885 75.592C440.184 75.592 440.333 75.5173 440.333 75.368C440.706 74.5467 440.968 73.8 441.117 73.128C441.266 72.9787 441.378 72.904 441.453 72.904C441.976 72.5307 442.685 72.232 443.581 72.008L443.805 71.56C443.805 71.4107 443.73 71.2613 443.581 71.112L441.453 70.216L441.117 69.992C440.968 69.32 440.706 68.5733 440.333 67.752C440.333 67.528 440.184 67.416 439.885 67.416C439.736 67.416 439.586 67.528 439.437 67.752L438.653 69.992C438.653 69.992 438.578 70.0667 438.429 70.216C437.981 70.2907 437.272 70.5893 436.301 71.112ZM443.917 67.192C443.768 67.3413 443.693 67.416 443.693 67.416C443.693 67.5653 443.768 67.64 443.917 67.64L445.485 68.312C445.485 68.312 445.485 68.3493 445.485 68.424C445.56 68.424 445.597 68.424 445.597 68.424C445.896 68.9467 446.082 69.4693 446.157 69.992L446.381 70.104C446.53 70.104 446.605 70.0667 446.605 69.992L447.277 68.424C447.352 68.3493 447.389 68.312 447.389 68.312L448.957 67.64C449.032 67.64 449.069 67.5653 449.069 67.416L448.957 67.192L447.389 66.632L447.277 66.52L446.605 64.952C446.605 64.8027 446.53 64.728 446.381 64.728L446.157 64.952L445.597 66.52L445.485 66.632L443.917 67.192ZM450.077 76.712C450.077 76.5627 450.04 76.488 449.965 76.488C449.368 76.3387 448.994 76.1893 448.845 76.04L448.621 75.928C448.621 75.7787 448.546 75.6293 448.397 75.48C448.322 75.256 448.248 75.032 448.173 74.808L447.949 74.696L447.725 74.808C447.65 75.032 447.538 75.256 447.389 75.48C447.314 75.6293 447.277 75.7787 447.277 75.928L447.053 76.04C446.605 76.264 446.232 76.4133 445.933 76.488C445.784 76.488 445.709 76.5627 445.709 76.712C445.709 76.8613 445.784 76.936 445.933 76.936C446.232 77.0107 446.605 77.16 447.053 77.384L447.277 77.496C447.277 77.6453 447.314 77.832 447.389 78.056C447.538 78.2053 447.65 78.392 447.725 78.616L447.949 78.728L448.173 78.616C448.248 78.392 448.322 78.2053 448.397 78.056C448.546 77.832 448.621 77.6453 448.621 77.496L448.845 77.384C448.994 77.2347 449.368 77.0853 449.965 76.936C450.04 76.936 450.077 76.8613 450.077 76.712ZM430.813 105.832C430.738 107.997 430.776 111.581 430.925 116.584C431.074 120.317 431.149 123.043 431.149 124.76C431.149 131.629 430.44 136.147 429.021 138.312C428.274 139.581 427.08 140.515 425.437 141.112C423.794 141.784 422.002 142.12 420.061 142.12C418.045 142.12 416.141 141.747 414.349 141C412.557 140.253 411.25 139.245 410.429 137.976C409.085 135.885 408.413 131.667 408.413 125.32C408.413 122.856 408.45 120.653 408.525 118.712C408.6 116.771 408.674 115.165 408.749 113.896C408.824 113 408.898 111.88 408.973 110.536C409.048 109.192 409.085 107.699 409.085 106.056C409.085 104.637 409.16 101.837 409.309 97.656C409.533 94.1467 409.645 90.7493 409.645 87.464C409.645 83.656 409.384 81.4907 408.861 80.968C408.488 80.5947 407.704 80.5947 406.509 80.968C405.389 81.2667 403.41 81.9013 400.573 82.872C398.034 83.8427 396.018 84.552 394.525 85C393.106 85.448 391.874 85.672 390.829 85.672C390.456 85.672 390.045 85.5973 389.597 85.448C388.253 84.776 387.208 83.3947 386.461 81.304C385.789 79.1387 385.453 76.6747 385.453 73.912C385.453 71.3733 385.752 69.096 386.349 67.08C387.021 64.9893 387.992 63.5707 389.261 62.824C390.157 62.2267 391.576 61.928 393.517 61.928C395.01 61.928 396.914 62.152 399.229 62.6C401.544 62.9733 403.896 63.4213 406.285 63.944C409.645 64.6907 412.445 65.2507 414.685 65.624C417 65.9973 419.09 66.184 420.957 66.184C422.824 66.184 424.765 65.9973 426.781 65.624C428.872 65.2507 431.634 64.6533 435.069 63.832C435.816 63.6827 437.496 63.3467 440.109 62.824C442.797 62.2267 444.962 61.928 446.605 61.928C448.173 61.928 449.442 62.2267 450.413 62.824C451.608 63.5707 452.504 64.9893 453.101 67.08C453.773 69.1707 454.109 71.4853 454.109 74.024C454.109 76.6373 453.773 78.952 453.101 80.968C452.504 82.984 451.608 84.328 450.413 85C450.189 85.1493 449.741 85.224 449.069 85.224C447.725 85.224 445.821 84.8133 443.357 83.992C440.893 83.096 439.437 82.5733 438.989 82.424C437.421 81.8267 435.928 81.304 434.509 80.856C433.165 80.408 432.344 80.296 432.045 80.52C431.522 80.8187 431.186 82.1627 431.037 84.552C430.888 86.8667 430.813 90.0773 430.813 94.184V105.832Z" fill="#300087"/>
<defs>
<filter id="filter0_ddii_97_2" x="0" y="0" width="584" height="194" filterUnits="userSpaceOnUse" color-interpolation-filters="sRGB">
<feFlood flood-opacity="0" result="BackgroundImageFix"/>
<feColorMatrix in="SourceAlpha" type="matrix" values="0 0 0 0 0 0 0 0 0 0 0 0 0 0 0 0 0 0 127 0" result="hardAlpha"/>
<feMorphology radius="5" operator="dilate" in="SourceAlpha" result="effect1_dropShadow_97_2"/>
<feOffset dx="-10" dy="-10"/>
<feGaussianBlur stdDeviation="2.5"/>
<feComposite in2="hardAlpha" operator="out"/>
<feColorMatrix type="matrix" values="0 0 0 0 0.133333 0 0 0 0 0.0117647 0 0 0 0 0.396078 0 0 0 0.25 0"/>
<feBlend mode="normal" in2="BackgroundImageFix" result="effect1_dropShadow_97_2"/>
<feColorMatrix in="SourceAlpha" type="matrix" values="0 0 0 0 0 0 0 0 0 0 0 0 0 0 0 0 0 0 127 0" result="hardAlpha"/>
<feMorphology radius="5" operator="dilate" in="SourceAlpha" result="effect2_dropShadow_97_2"/>
<feOffset dx="10" dy="10"/>
<feGaussianBlur stdDeviation="2.5"/>
<feComposite in2="hardAlpha" operator="out"/>
<feColorMatrix type="matrix" values="0 0 0 0 0.133941 0 0 0 0 0.0133056 0 0 0 0 0.395808 0 0 0 0.25 0"/>
<feBlend mode="normal" in2="effect1_dropShadow_97_2" result="effect2_dropShadow_97_2"/>
<feBlend mode="normal" in="SourceGraphic" in2="effect2_dropShadow_97_2" result="shape"/>
<feColorMatrix in="SourceAlpha" type="matrix" values="0 0 0 0 0 0 0 0 0 0 0 0 0 0 0 0 0 0 127 0" result="hardAlpha"/>
<feMorphology radius="5" operator="erode" in="SourceAlpha" result="effect3_innerShadow_97_2"/>
<feOffset dx="-10" dy="-10"/>
<feGaussianBlur stdDeviation="2.5"/>
<feComposite in2="hardAlpha" operator="arithmetic" k2="-1" k3="1"/>
<feColorMatrix type="matrix" values="0 0 0 0 0.509804 0 0 0 0 0.337255 0 0 0 0 0.721569 0 0 0 0.16 0"/>
<feBlend mode="normal" in2="shape" result="effect3_innerShadow_97_2"/>
<feColorMatrix in="SourceAlpha" type="matrix" values="0 0 0 0 0 0 0 0 0 0 0 0 0 0 0 0 0 0 127 0" result="hardAlpha"/>
<feMorphology radius="5" operator="erode" in="SourceAlpha" result="effect4_innerShadow_97_2"/>
<feOffset dx="10" dy="10"/>
<feGaussianBlur stdDeviation="2.5"/>
<feComposite in2="hardAlpha" operator="arithmetic" k2="-1" k3="1"/>
<feColorMatrix type="matrix" values="0 0 0 0 0.505882 0 0 0 0 0.329412 0 0 0 0 0.72549 0 0 0 0.16 0"/>
<feBlend mode="normal" in2="effect3_innerShadow_97_2" result="effect4_innerShadow_97_2"/>
</filter>
</defs>
</svg>
