<svg width="679" height="706" viewBox="0 0 679 706" fill="none" xmlns="http://www.w3.org/2000/svg">
<path d="M492.455 586.184H184.5L189.772 345.97C189.772 325.711 206.195 309.288 226.455 309.288H461.045C481.304 309.288 497.727 325.711 497.727 345.97L492.455 586.184Z" fill="white"/>
<path d="M496.563 590.384H180.206L185.573 345.878C185.572 323.428 203.911 305.089 226.453 305.089H461.044C483.586 305.089 501.926 323.429 501.926 345.971L496.563 590.384ZM188.793 581.985H488.347L493.528 345.878C493.527 328.06 478.955 313.488 461.044 313.488H226.453C208.543 313.488 193.971 328.06 193.971 345.971L188.793 581.985Z" fill="#371A45"/>
<path d="M471.941 488.746V543.875C565.658 565.185 597.012 672.161 421.069 694.118C388.542 703.317 358.349 705.716 334.745 688.846C325.401 696.622 313.843 700.273 300.611 700.787C290.094 701.209 279.721 698.599 270.246 694.013C257.554 687.858 242.806 684.194 226.556 682.27C209.489 680.254 192.923 674.89 178.426 665.664C108.154 620.921 136.924 540.488 210.728 548.277V490.723C172.495 518.333 135.883 517.424 101.472 477.319L155.942 408.577C170.571 377.065 191.882 354.542 218.873 339.649C235.162 330.648 253.508 324.427 273.685 320.684L420.739 311.406C434.169 316.796 447.072 322.872 459.078 330.055C485.594 345.87 507.867 367.049 522.325 398.033L591.74 458.658C566.054 501.134 526.872 512.877 471.941 488.746Z" fill="white"/>
<g opacity="0.2">
<path d="M459.077 330.055C427.487 362.278 383.06 382.337 333.861 382.337C289.764 382.337 249.488 366.205 218.873 339.649C235.162 330.648 253.508 324.427 273.685 320.684L420.739 311.406C434.169 316.796 447.071 322.872 459.077 330.055Z" fill="#371A45"/>
</g>
<g opacity="0.2">
<path d="M471.033 498.049L469.083 477.901C468.386 470.701 462.337 465.207 455.104 465.207H437.546V456.421C437.546 442.106 425.943 430.502 411.631 430.502H267.557C253.244 430.502 241.641 442.106 241.641 456.421V465.207H225.841C218.608 465.207 212.558 470.701 211.862 477.901L209.912 498.049C209.496 502.344 212.872 506.063 217.187 506.063H241.641V528.907C241.641 543.222 253.244 554.826 267.557 554.826H411.631C425.944 554.826 437.546 543.222 437.546 528.907V506.063H463.758C468.072 506.063 471.448 502.344 471.033 498.049Z" fill="#371A45"/>
</g>
<path d="M376.699 705.535C360.321 705.535 346.73 701.728 334.912 694.046C325.707 700.782 314.24 704.461 300.774 704.99C290.058 705.409 279.153 702.991 268.414 697.79C256.769 692.148 242.915 688.436 226.06 686.441C207.459 684.236 190.673 678.438 176.172 669.206C142.017 647.46 126.711 614.04 137.18 584.065C146.522 557.317 173.464 541.805 206.523 543.716V498.662C190.654 508.813 175.289 513.885 160.497 513.887C138.428 513.889 117.63 502.604 98.2856 480.058L96.0293 477.43L152.347 406.351C175.241 357.369 215.805 327.161 272.921 316.557L273.423 316.496L421.423 307.151L422.304 307.505C475.058 328.685 507.004 355.829 525.755 395.446L597.159 457.809L595.334 460.826C577.414 490.46 553.289 505.32 523.297 505.322C508.917 505.324 493.191 501.908 476.146 495.07V540.567C521.894 552.096 553.569 584.165 551.9 617.751C550.964 636.569 539.771 653.72 519.53 667.353C496.955 682.554 464.11 692.949 421.905 698.249C404.705 703.096 389.811 705.535 376.699 705.535ZM334.55 683.549L337.187 685.433C356.642 699.33 382.159 700.764 419.927 690.08L420.55 689.954C495.75 680.567 541.717 653.419 543.512 617.334C545.017 587.036 514.529 557.866 471.017 547.973L467.748 547.231V482.317L473.637 484.904C524.125 507.087 561.013 498.77 586.286 459.466L518.9 400.609L518.524 399.805C500.898 362.048 470.51 336.069 420.054 315.654L274.207 324.863C219.114 335.154 181.672 363.117 159.756 410.341L159.547 410.791L159.239 411.181L106.942 477.184C137.525 511.151 170.698 514.454 208.263 487.318L214.923 482.507V552.937L210.283 552.449C179.135 549.167 153.553 562.661 145.111 586.834C135.975 612.993 149.938 642.545 180.684 662.119C194.111 670.668 209.711 676.044 227.049 678.098C244.846 680.206 259.575 684.174 272.077 690.229C281.557 694.822 291.101 696.962 300.445 696.595C313.458 696.084 323.799 692.494 332.059 685.622L334.55 683.549Z" fill="#371A45"/>
<path d="M214.814 403.3L217.305 491.031C217.409 494.679 214.536 497.72 210.887 497.824C206.885 497.973 203.625 494.38 204.14 490.414L214.814 403.3Z" fill="#371A45"/>
<path d="M455.184 395.393C468.181 424.737 475.682 456.538 478.534 488.606C478.866 492.239 476.19 495.454 472.557 495.785C468.924 496.116 465.71 493.441 465.378 489.807C465.993 473.901 465.879 457.912 464.143 441.95C462.51 426.301 459.536 410.707 455.184 395.393Z" fill="#371A45"/>
<path d="M471.946 566.723C463.229 570.279 454.108 571.984 444.956 573.77C436.037 575.605 427.224 577.845 418.557 580.561C401.134 586.034 384.449 593.24 367.966 601.146C367.957 601.152 365.592 602.34 365.582 602.346C359.277 597.821 352.531 593.718 345.443 590.829C330.124 584.211 308.712 583.534 304.98 603.421C302.166 618.761 309.031 636.362 315.757 650.129C322.038 662.782 329.737 674.834 338.136 686.383C339.5 688.256 339.087 690.879 337.214 692.243C335.341 693.607 332.715 693.193 331.352 691.318C322.754 679.491 314.815 667.096 308.235 653.843C300.659 638.236 294.123 621.013 296.437 603.236C301.017 576.389 327.491 573.955 348.614 583.062C355.666 585.961 362.217 589.757 368.352 594.046L363.916 593.798C371.909 588.798 380.302 584.402 388.974 580.6C410.398 571.184 449.355 559.503 471.946 566.723Z" fill="#371A45"/>
<path d="M206.906 578.145C216.301 573.531 227.541 576.741 235.372 583.099L233.431 581.985L301.684 599.504C306.984 601.024 305.051 608.854 299.596 607.64L231.342 590.121L230.172 589.82C230.169 589.808 229.395 589.008 229.391 588.996C224.487 581.615 215.975 576.654 206.906 578.145Z" fill="#371A45"/>
<path d="M370.089 598.101C366.274 613.153 367.717 629.295 372.965 644.042C369.05 637.079 365.91 629.559 363.948 621.591C361.971 613.62 361.214 605.21 361.786 596.803C362.453 590.781 371.29 592.151 370.089 598.101Z" fill="#371A45"/>
<path d="M210.717 683.575C208.741 683.575 206.98 682.174 206.597 680.161C199.837 644.776 207.167 613.176 229.006 583.559C230.379 581.694 233.009 581.294 234.878 582.672C236.744 584.048 237.142 586.678 235.765 588.545C215.394 616.173 208.551 645.627 214.847 678.586C215.282 680.864 213.787 683.064 211.51 683.499C211.243 683.55 210.978 683.575 210.717 683.575Z" fill="#371A45"/>
<path d="M467.527 689.418C467.495 689.418 467.463 689.418 467.429 689.417C465.111 689.364 463.273 687.441 463.327 685.122C464.486 634.473 452.707 598.588 427.316 575.417C425.603 573.855 425.482 571.199 427.046 569.484C428.606 567.771 431.265 567.649 432.979 569.214C460.268 594.117 472.943 632.095 471.724 685.315C471.673 687.601 469.802 689.418 467.527 689.418Z" fill="#371A45"/>
<g opacity="0.2">
<path d="M226.606 581.262C299.585 579.124 383.967 576.627 448.877 568.797C412.967 571.638 385.048 579.784 369.011 595.817C338.887 579.409 311.947 571.249 300.64 603.572L226.606 581.262Z" fill="#371A45"/>
</g>
<g opacity="0.2">
<path d="M578.704 447.273C553.426 474.905 518.289 480.084 471.94 459.723V488.746C526.871 512.877 566.053 501.134 591.739 458.658L578.704 447.273Z" fill="#371A45"/>
</g>
<g opacity="0.2">
<path d="M210.728 490.723V461.7C177.171 485.934 144.863 488.188 114.195 461.263L101.472 477.32C135.883 517.424 172.495 518.333 210.728 490.723Z" fill="#371A45"/>
</g>
<g opacity="0.2">
<path d="M421.068 665.095C388.542 674.294 358.348 676.693 334.744 659.823C317.848 638.08 312.101 613.002 312.169 586.185C297.493 608.852 296.774 635.164 320.751 667.927C314.597 670.252 307.857 671.482 300.61 671.764C290.093 672.186 279.721 669.576 270.245 664.99C257.554 658.835 242.806 655.171 226.556 653.247C209.489 651.231 192.922 645.867 178.425 636.641C156.789 622.865 144.555 605.706 140.12 588.78C133.355 613.262 143.998 643.744 178.425 665.664C192.922 674.89 209.489 680.254 226.556 682.27C242.806 684.194 257.554 687.858 270.245 694.013C279.721 698.599 290.093 701.209 300.61 700.787C313.842 700.273 325.4 696.622 334.744 688.847C358.348 705.716 388.542 703.317 421.068 694.118C525.76 681.053 557.053 637.887 545.487 600.577C536.375 628.88 499.123 655.354 421.068 665.095Z" fill="#371A45"/>
</g>
<path d="M521.889 397.809C528.027 432.125 552.06 450.877 585.809 461.179L610.643 424.968C617.68 414.708 627.107 406.353 638.004 400.351C672.96 381.098 681.555 354.886 661.109 339.035C655.513 334.697 648.355 332.951 641.345 333.949C626.887 336.007 614.241 335.999 604.912 332.213C600.295 330.339 596.9 326.244 595.731 321.4C587.111 285.684 564.641 291.557 561.726 325.749C561.403 329.537 560.166 333.212 557.945 336.297C549.379 348.192 543.944 360.399 542.489 372.953C541.998 377.184 540.03 381.103 536.897 383.988L521.889 397.809Z" fill="white"/>
<g opacity="0.2">
<path d="M663.736 341.303C659.587 352.061 648.785 363.189 631.612 372.638C620.808 378.583 611.436 386.82 604.462 396.99L587.55 421.648C582.605 428.858 573.262 431.713 565.206 428.316C547.57 420.88 533.539 410.31 524.656 395.261L521.889 397.809C528.027 432.125 552.06 450.877 585.809 461.179L610.643 424.968C617.702 414.676 627.176 406.327 638.103 400.297C671.364 381.939 680.667 357.284 663.736 341.303Z" fill="#371A45"/>
</g>
<path d="M590.165 468.731L587.217 467.831C548.138 455.903 526.278 434.102 520.391 401.185L519.985 398.916L536.688 383.536C539.06 381.349 540.575 378.355 540.952 375.106C542.429 362.371 547.886 349.375 557.172 336.479C558.867 334.125 559.905 331.203 560.177 328.028C561.784 309.169 569.486 296.477 579.799 295.693C589.661 294.935 598.134 305.171 602.449 323.051C603.32 326.658 605.816 329.614 609.127 330.958C616.917 334.119 628.124 334.597 643.387 332.427C651.596 331.256 659.95 333.418 666.317 338.352C675.241 345.271 679.549 354.171 678.773 364.091C677.595 379.157 664.434 394.676 642.665 406.665C632.22 412.42 623.256 420.482 616.742 429.98L590.165 468.731ZM529.092 401.948C534.801 429.416 553.697 448.075 586.741 458.872L609.815 425.228C617.066 414.655 627.024 405.692 638.614 399.308C657.86 388.707 669.446 375.632 670.4 363.436C670.952 356.371 667.846 350.165 661.172 344.99C656.591 341.439 650.543 339.892 644.571 340.743C627.8 343.132 615.173 342.475 605.968 338.74C600.154 336.381 595.788 331.252 594.284 325.02C590.682 310.093 584.702 303.729 580.436 304.068C575.541 304.44 569.885 313.035 568.545 328.742C568.146 333.429 566.569 337.802 563.988 341.387C555.548 353.107 550.605 364.777 549.295 376.073C548.687 381.32 546.231 386.165 542.378 389.713L529.092 401.948Z" fill="#371A45"/>
<path d="M608.213 365.328C607.768 365.328 607.314 365.256 606.868 365.105C604.67 364.363 603.491 361.979 604.235 359.782C606.754 352.334 600.838 340.118 594.72 329.149C593.59 327.124 594.316 324.565 596.341 323.435C598.371 322.308 600.927 323.031 602.056 325.057C609.424 338.267 615.753 351.943 612.191 362.472C611.6 364.223 609.965 365.328 608.213 365.328Z" fill="#371A45"/>
<path d="M590.86 372.988C594.635 353.732 619.143 354.126 628.641 368.815C621.532 368.288 615.201 366.357 608.58 366.462C601.885 366.458 596.93 369.349 590.86 372.988Z" fill="#371A45"/>
<path d="M157.782 403.868C154.369 438.561 131.89 459.15 99.0587 472.081L71.4458 437.94C63.6221 428.267 53.5658 420.682 42.229 415.558C5.8635 399.121 -4.77137 373.668 14.362 356.255C19.5986 351.489 26.5966 349.184 33.6633 349.626C48.2387 350.537 60.8439 349.533 69.8453 345.023C74.3004 342.79 77.3617 338.441 78.1451 333.52C83.9223 297.235 106.785 301.318 112.388 335.174C113.008 338.924 114.531 342.491 116.989 345.39C126.466 356.573 132.846 368.314 135.287 380.713C136.109 384.892 138.38 388.644 141.731 391.273L157.782 403.868Z" fill="white"/>
<g opacity="0.2">
<path d="M14.2859 358.449C19.2697 368.846 30.9157 379.087 48.7804 387.153C60.0194 392.227 70.0114 399.7 77.7661 409.287L96.5692 432.536C102.068 439.334 111.606 441.442 119.37 437.421C136.364 428.618 149.519 416.974 157.187 401.272L160.146 403.593C156.733 438.287 134.253 458.876 101.423 471.806L73.8097 437.666C65.9614 427.963 55.8585 420.387 44.4906 415.237C9.88532 399.559 -1.33311 375.715 14.2859 358.449Z" fill="#371A45"/>
</g>
<path d="M96.9379 477.318L67.3877 440.781C60.1467 431.827 50.5752 424.498 39.7073 419.584C17.0593 409.348 2.71659 394.917 0.353553 379.989C-1.20107 370.162 2.3908 360.949 10.7425 353.349C16.699 347.928 24.8625 345.129 33.133 345.635C48.5234 346.597 59.6562 345.232 67.1713 341.468C70.3657 339.867 72.622 336.724 73.2037 333.06C76.0971 314.893 83.7315 304.03 93.6262 304.001C93.6405 304 93.6534 304 93.6674 304C103.992 304 112.652 316.038 115.737 334.689C116.259 337.832 117.525 340.664 119.4 342.876C129.673 354.995 136.138 367.52 138.616 380.102C139.248 383.313 140.993 386.177 143.531 388.169L161.395 402.186L161.168 404.48C157.895 437.759 137.823 461.215 99.8049 476.188L96.9379 477.318ZM31.1793 353.973C25.6617 353.973 20.3412 355.971 16.3951 359.56C10.1492 365.246 7.54283 371.678 8.64962 378.677C10.5622 390.759 23.1428 402.88 43.1666 411.93C55.2235 417.382 65.857 425.531 73.9177 435.499L99.5735 467.221C131.663 453.851 149.028 433.76 152.554 405.927L138.347 394.777C134.226 391.544 131.394 386.908 130.374 381.724C128.177 370.566 122.328 359.321 112.992 348.307C110.136 344.936 108.22 340.701 107.452 336.062C104.88 320.523 98.5722 312.4 93.666 312.4C93.6608 312.4 93.6571 312.4 93.6518 312.4C89.3427 312.414 83.9142 319.215 81.4995 334.38C80.4918 340.711 76.543 346.168 70.9342 348.977C62.0548 353.426 49.5219 355.079 32.6077 354.018C32.1319 353.989 31.6543 353.973 31.1793 353.973Z" fill="#371A45"/>
<path d="M71.1967 377.929C69.5673 377.929 68.0166 376.975 67.3344 375.383C62.9547 365.168 68.1839 351.035 74.4889 337.286C75.4555 335.178 77.9485 334.252 80.0566 335.219C82.1648 336.185 83.0902 338.678 82.1237 340.787C76.8894 352.203 71.9561 364.848 75.054 372.073C75.9679 374.204 74.9808 376.674 72.8494 377.588C72.3098 377.82 71.749 377.929 71.1967 377.929Z" fill="#371A45"/>
<path d="M89.4335 384.288C83.099 381.141 77.9262 378.647 71.254 379.179C64.6417 379.598 58.4918 382.02 51.4414 383.106C59.7586 367.707 84.1581 365.397 89.4335 384.288Z" fill="#371A45"/>
<path d="M242.489 490.723H218.031C213.716 490.723 210.34 487.004 210.755 482.709L212.705 462.56C213.402 455.36 219.453 449.867 226.686 449.867H242.489V490.723Z" fill="white"/>
<g opacity="0.2">
<path d="M211.87 471.188L210.755 482.709C210.34 487.004 213.716 490.723 218.031 490.723H242.489V474.578H218.031C215.421 474.578 213.162 473.213 211.87 471.188Z" fill="#371A45"/>
</g>
<path d="M438.421 490.723H464.636C468.951 490.723 472.327 487.004 471.912 482.709L469.962 462.56C469.265 455.36 463.214 449.867 455.981 449.867H438.421V490.723Z" fill="white"/>
<g opacity="0.2">
<path d="M470.796 471.188C469.505 473.213 467.245 474.578 464.636 474.578H438.421V490.723H464.636C468.951 490.723 472.327 487.004 471.911 482.709L470.796 471.188Z" fill="#371A45"/>
</g>
<path d="M242.488 441.081V513.567C242.488 527.882 254.092 539.486 268.407 539.486H412.5C426.815 539.486 438.419 527.882 438.419 513.567V441.081C438.419 426.766 426.815 415.162 412.5 415.162H268.407C254.092 415.162 242.488 426.766 242.488 441.081Z" fill="white"/>
<g opacity="0.2">
<path d="M385.704 488.749C399.291 488.749 410.305 478.889 410.305 466.725C410.305 454.562 399.291 444.701 385.704 444.701C372.117 444.701 361.103 454.562 361.103 466.725C361.103 478.889 372.117 488.749 385.704 488.749Z" fill="black"/>
</g>
<path d="M406.982 461.965C408.809 450.709 401.165 440.103 389.909 438.276C378.652 436.449 368.047 444.093 366.22 455.349C364.393 466.606 372.037 477.211 383.293 479.038C394.549 480.865 405.155 473.221 406.982 461.965Z" fill="#00AAFF"/>
<path d="M406.982 461.965C408.809 450.709 401.165 440.103 389.909 438.276C378.652 436.449 368.047 444.093 366.22 455.349C364.393 466.606 372.037 477.211 383.293 479.038C394.549 480.865 405.155 473.221 406.982 461.965Z" fill="#00AAFF"/>
<g opacity="0.2">
<path d="M386.582 470.295C376.727 470.295 368.498 463.385 366.442 454.15C366.119 455.601 365.935 457.105 365.935 458.653C365.935 470.056 375.179 479.3 386.582 479.3C397.985 479.3 407.229 470.056 407.229 458.653C407.229 457.105 407.045 455.601 406.722 454.15C404.665 463.385 396.437 470.295 386.582 470.295Z" fill="black"/>
</g>
<g opacity="0.2">
<path d="M412.5 504.561H268.407C254.092 504.561 242.488 492.957 242.488 478.642V513.567C242.488 527.882 254.092 539.486 268.407 539.486H412.5C426.815 539.486 438.419 527.882 438.419 513.567V478.642C438.419 492.957 426.815 504.561 412.5 504.561Z" fill="#371A45"/>
</g>
<path d="M412.502 543.685H268.409C251.801 543.685 238.29 530.174 238.29 513.566V441.08C238.29 424.474 251.801 410.962 268.409 410.962H412.502C429.109 410.962 442.621 424.474 442.621 441.08V513.566C442.621 530.174 429.109 543.685 412.502 543.685ZM268.409 419.362C256.433 419.362 246.689 429.104 246.689 441.08V513.566C246.689 525.542 256.433 535.286 268.409 535.286H412.502C424.477 535.286 434.221 525.542 434.221 513.566V441.08C434.221 429.104 424.477 419.362 412.502 419.362H268.409Z" fill="#371A45"/>
<path d="M361.102 543.439C358.918 543.439 357.148 541.67 357.148 539.486V494.904L301.001 476.467C299.379 475.934 298.281 474.418 298.281 472.71V415.162C298.281 412.978 300.05 411.208 302.235 411.208C304.419 411.208 306.188 412.978 306.188 415.162V469.847L362.335 488.283C363.958 488.816 365.056 490.332 365.056 492.04V539.486C365.056 541.67 363.286 543.439 361.102 543.439Z" fill="#371A45"/>
<path d="M386.581 483.254C373.017 483.254 361.981 472.217 361.981 458.653C361.981 445.088 373.017 434.052 386.581 434.052C400.147 434.052 411.183 445.088 411.183 458.653C411.183 472.217 400.147 483.254 386.581 483.254ZM386.581 441.959C377.376 441.959 369.889 449.448 369.889 458.653C369.889 467.858 377.376 475.346 386.581 475.346C395.786 475.346 403.276 467.858 403.276 458.653C403.276 449.448 395.786 441.959 386.581 441.959Z" fill="#371A45"/>
<path d="M246.69 494.922H218.032C214.794 494.922 211.687 493.548 209.511 491.15C207.335 488.752 206.265 485.528 206.576 482.304L208.526 462.156C209.435 452.756 217.243 445.667 226.687 445.667H246.689L246.69 494.922ZM226.688 454.066C221.591 454.066 217.377 457.892 216.887 462.965L214.937 483.112C214.853 483.996 215.133 484.846 215.73 485.504C216.328 486.161 217.145 486.523 218.033 486.523H238.29V454.066H226.688Z" fill="#371A45"/>
<path d="M464.636 494.922H434.222V445.667H455.98C465.425 445.667 473.233 452.756 474.142 462.157L476.091 482.304C476.403 485.528 475.333 488.752 473.157 491.15C470.98 493.548 467.874 494.922 464.636 494.922ZM442.621 486.523H464.636C465.524 486.523 466.341 486.161 466.938 485.504C467.535 484.846 467.816 483.996 467.731 483.112L465.781 462.965C465.291 457.892 461.077 454.066 455.981 454.066H442.621V486.523Z" fill="#371A45"/>
<g opacity="0.7">
<path d="M386.583 454.891C390.465 454.891 393.612 452.642 393.612 449.867C393.612 447.092 390.465 444.843 386.583 444.843C382.701 444.843 379.554 447.092 379.554 449.867C379.554 452.642 382.701 454.891 386.583 454.891Z" fill="white"/>
</g>
<path d="M499.022 133.122C499.022 133.122 537.251 147.615 541.18 154.693C548.464 167.813 547.112 244.931 526.963 265.037C519.073 272.91 461.105 280.266 461.105 280.266L499.022 133.122Z" fill="white"/>
<g opacity="0.2">
<path d="M461.105 280.268C461.105 280.268 519.073 272.908 526.958 265.033C534.823 257.19 539.831 240.643 542.561 222.615C541.92 223.192 521.446 240.863 480.603 204.944C480.582 204.923 480.551 204.902 480.53 204.881L461.105 280.268Z" fill="#371A45"/>
</g>
<path d="M333.299 213.611V214.269L332.88 213.946L333.299 213.611Z" fill="#D8D8D8"/>
<path d="M332.88 213.946L332.461 214.269V213.611L332.88 213.946Z" fill="#D8D8D8"/>
<path d="M206.621 280.268C206.621 280.268 148.653 272.908 140.768 265.033C132.904 257.19 127.896 240.643 125.166 222.615C125.155 222.604 125.155 222.604 125.155 222.604C120.882 194.466 122.11 162.694 126.552 154.694C130.478 147.617 168.707 133.117 168.707 133.117L187.197 204.881L206.621 280.268Z" fill="white"/>
<g opacity="0.2">
<path d="M206.621 280.268C206.621 280.268 148.654 272.908 140.768 265.033C132.904 257.19 127.896 240.643 125.166 222.615C125.807 223.192 146.28 240.863 187.124 204.944C187.145 204.923 187.176 204.902 187.197 204.881L206.621 280.268Z" fill="#371A45"/>
</g>
<path d="M455.494 285.212L496.126 127.533L500.512 129.195C512.438 133.717 540.633 145.054 544.853 152.654C552.925 167.196 551.9 246.086 529.93 268.01C521.455 276.467 471.553 283.174 461.635 284.433L455.494 285.212ZM501.911 138.745L466.726 275.284C492.814 271.671 520.01 266.042 523.996 262.064C542.606 243.494 544.034 168.486 537.509 156.731C535.549 153.507 518.322 145.237 501.911 138.745Z" fill="#371A45"/>
<path d="M212.237 285.212L206.096 284.433C196.178 283.175 146.276 276.467 137.802 268.009C115.831 246.087 114.805 167.197 122.879 152.654C127.099 145.054 155.294 133.717 167.22 129.195L171.606 127.533L212.237 285.212ZM165.821 138.745C149.41 145.237 132.183 153.508 130.218 156.74C123.698 168.487 125.126 243.495 143.735 262.064C147.723 266.043 174.918 271.673 201.005 275.284L165.821 138.745Z" fill="#371A45"/>
<path d="M333.851 358.7C431.742 358.7 511.099 279.343 511.099 181.452C511.099 83.5607 431.742 4.20416 333.851 4.20416C235.96 4.20416 156.604 83.5607 156.604 181.452C156.604 279.343 235.96 358.7 333.851 358.7Z" fill="white"/>
<g opacity="0.2">
<path d="M511.101 181.448C511.101 279.34 431.746 358.695 333.854 358.695C235.962 358.695 156.596 279.34 156.596 181.448C156.596 171.112 157.478 160.978 159.188 151.134C173.568 234.578 246.297 298.056 333.854 298.056C421.41 298.056 494.128 234.578 508.508 151.134C510.218 160.978 511.101 171.112 511.101 181.448Z" fill="#371A45"/>
</g>
<path d="M333.851 362.899C233.8 362.899 152.404 281.503 152.404 181.452C152.404 81.4013 233.8 0.00469971 333.851 0.00469971C433.901 0.00469971 515.298 81.4013 515.298 181.452C515.298 281.503 433.901 362.899 333.851 362.899ZM333.851 8.40383C238.432 8.40383 160.803 86.0327 160.803 181.452C160.803 276.87 238.432 354.5 333.851 354.5C429.27 354.5 506.899 276.871 506.899 181.452C506.899 86.0325 429.27 8.40383 333.851 8.40383Z" fill="#371A45"/>
<path d="M333.851 362.899C233.8 362.899 152.404 281.503 152.404 181.452C152.404 81.4013 233.8 0.00469971 333.851 0.00469971C433.901 0.00469971 515.298 81.4013 515.298 181.452C515.298 281.503 433.901 362.899 333.851 362.899ZM333.851 8.40383C238.432 8.40383 160.803 86.0327 160.803 181.452C160.803 276.87 238.432 354.5 333.851 354.5C429.27 354.5 506.899 276.871 506.899 181.452C506.899 86.0325 429.27 8.40383 333.851 8.40383Z" fill="#371A45"/>
<path d="M333.851 362.899C233.8 362.899 152.404 281.503 152.404 181.452C152.404 81.4013 233.8 0.00469971 333.851 0.00469971C433.901 0.00469971 515.298 81.4013 515.298 181.452C515.298 281.503 433.901 362.899 333.851 362.899ZM333.851 8.40383C238.432 8.40383 160.803 86.0327 160.803 181.452C160.803 276.87 238.432 354.5 333.851 354.5C429.27 354.5 506.899 276.871 506.899 181.452C506.899 86.0325 429.27 8.40383 333.851 8.40383Z" fill="#371A45"/>
<path d="M333.848 362.897C251.169 362.897 179.001 307.126 158.246 227.233C158.214 227.137 158.185 227.04 158.159 226.942C154.34 212.201 152.403 196.896 152.403 181.452C152.403 174.61 152.788 167.773 153.549 161.129C163.765 69.2799 241.278 0.00714111 333.848 0.00714111C426.445 0.00714111 503.965 69.3013 514.165 161.192C514.912 167.849 515.292 174.667 515.292 181.452C515.292 196.877 513.362 212.18 509.554 226.937C509.528 227.038 509.499 227.137 509.465 227.233C488.694 307.126 416.52 362.897 333.848 362.897ZM166.319 224.903C186.036 301.211 254.92 354.498 333.848 354.498C412.765 354.498 481.655 301.206 501.393 224.904C501.421 224.789 501.454 224.677 501.491 224.566C505.076 210.579 506.893 196.074 506.893 181.452C506.893 174.979 506.531 168.476 505.817 162.124C496.09 74.4886 422.16 8.40655 333.848 8.40655C245.564 8.40655 171.639 74.468 161.895 162.071C161.169 168.412 160.802 174.928 160.802 181.452C160.802 196.09 162.625 210.593 166.22 224.562C166.257 224.674 166.29 224.787 166.319 224.903Z" fill="#371A45"/>
<path d="M504.921 139.167C503.288 139.167 501.745 138.208 501.064 136.628C473.057 71.6044 407.421 29.589 333.849 29.589C260.324 29.589 194.701 71.567 166.664 136.533C165.791 138.557 163.497 139.558 161.423 138.834C159.342 138.107 158.177 135.896 158.755 133.769C180.122 55.0078 252.123 0 333.849 0C415.623 0 487.638 55.0484 508.975 133.869C509.551 135.996 508.385 138.206 506.305 138.932C505.848 139.091 505.381 139.167 504.921 139.167ZM333.849 21.1899C389.377 21.1899 440.598 44.117 475.832 82.4863C444.123 37.1183 391.533 8.39939 333.849 8.39939C276.196 8.39939 223.614 37.1054 191.9 82.4465C227.139 44.1049 278.352 21.1899 333.849 21.1899Z" fill="#371A45"/>
<path d="M511.087 181.456C511.087 196.798 509.143 211.701 505.482 225.893C505.482 225.893 505.465 225.893 505.465 225.909C474.718 285.315 409.415 336.429 333.842 336.429C258.269 336.429 192.982 285.315 162.235 225.909C162.235 225.893 162.218 225.893 162.218 225.893C158.541 211.702 156.597 196.798 156.597 181.456C156.597 174.749 156.969 168.123 157.714 161.611C181.626 95.4499 251.432 47.5787 333.842 47.5787C416.267 47.5787 486.09 95.4824 509.985 161.66C510.714 168.156 511.087 174.765 511.087 181.456Z" fill="#371A45"/>
<g opacity="0.35">
<path d="M511.093 181.461C511.093 196.802 509.149 211.706 505.488 225.897C505.488 225.897 505.472 225.897 505.472 225.914C474.724 285.319 409.422 336.431 333.848 336.431C258.275 336.431 192.989 285.319 162.241 225.914C162.241 225.897 162.225 225.897 162.225 225.897C160.038 217.441 158.467 208.742 157.543 199.831C197.282 244.479 255.067 276.96 319.398 276.96C401.353 276.96 472.731 224.245 509.667 160.805C509.781 161.097 509.894 161.372 509.991 161.664C510.721 168.16 511.093 174.77 511.093 181.461Z" fill="#111A28"/>
</g>
<g opacity="0.5">
<path d="M484.204 176.419C486.961 159.22 479.094 143.659 466.632 141.661C454.17 139.663 441.832 151.985 439.074 169.184C436.317 186.382 444.185 201.944 456.647 203.942C469.109 205.939 481.447 193.617 484.204 176.419Z" fill="white"/>
</g>
<g opacity="0.5">
<path d="M446.827 239.54C449.172 231.897 445.756 224.07 439.197 222.058C432.638 220.045 425.421 224.61 423.076 232.253C420.731 239.896 424.147 247.723 430.706 249.735C437.264 251.747 444.482 247.183 446.827 239.54Z" fill="white"/>
</g>
<g opacity="0.5">
<path d="M197.613 239.196C197.613 239.196 167.81 150.586 215.151 114.076C262.492 77.5657 331.64 76.3087 330.113 80.7759C330.113 80.7759 253.939 100.858 225.213 161.981C203.062 209.115 197.613 239.196 197.613 239.196Z" fill="white"/>
</g>
</svg>
