<svg width="700" height="1090" viewBox="0 0 700 1090" fill="none" xmlns="http://www.w3.org/2000/svg">
<path d="M428.384 829.061L145.182 778.927C111.576 772.978 89.1554 740.912 95.1044 707.306L142.705 438.412C148.654 404.806 180.72 382.385 214.326 388.334L497.527 438.467C531.134 444.416 553.554 476.482 547.605 510.089L500.004 778.983C494.055 812.589 461.989 835.01 428.384 829.061Z" fill="white"/>
<path d="M439.187 836.05C435.274 836.05 431.314 835.711 427.33 835.006L144.129 784.874C107.299 778.352 82.6399 743.084 89.1596 706.255L136.76 437.359C143.28 400.53 178.546 375.87 215.378 382.39L498.579 432.523C535.409 439.043 560.069 474.31 553.549 511.141L505.948 780.034C500.134 812.882 471.448 836.05 439.187 836.05ZM429.435 823.116C459.716 828.485 488.701 808.206 494.06 777.931L541.661 509.036C547.02 478.761 526.749 449.77 496.474 444.412L213.273 394.278C182.993 388.922 154.008 409.19 148.649 439.464L101.048 708.358C95.6893 738.634 115.96 767.624 146.234 772.983L429.435 823.116Z" fill="#371A45"/>
<path d="M247.859 424.059L179.54 606.59C172.487 596.452 165.248 586.894 157.775 577.969C141.837 558.8 124.888 542.455 106.821 529.305C54.875 494.443 19.246 456.522 9.07653 413.77C3.55679 390.579 5.54113 365.98 16.4714 339.673C62.5667 363.262 109.443 371.928 151.314 381.281C151.985 381.42 152.631 381.575 153.298 381.735C165.013 384.36 176.326 387.058 187.093 390.19C190.474 391.176 193.809 392.196 197.069 393.284C200.202 394.288 203.261 395.361 206.29 396.49C221.013 401.978 234.3 410.726 245.563 421.793L247.859 424.059Z" fill="white"/>
<path d="M179.543 612.625C177.583 612.625 175.726 611.669 174.588 610.036C152.228 577.893 128.263 552.397 103.356 534.255C11.6527 472.676 -18.5962 408.265 10.891 337.354C11.5372 335.799 12.8036 334.585 14.3842 334.005C15.9626 333.424 17.7145 333.53 19.2145 334.298C59.7578 355.042 101.956 364.278 139.186 372.427C163.968 377.851 187.378 382.975 208.409 390.833C223.692 396.543 237.615 405.512 249.789 417.489L252.092 419.755C253.792 421.427 254.348 423.943 253.513 426.176L185.197 608.704C184.411 610.806 182.523 612.299 180.295 612.579C180.043 612.609 179.792 612.625 179.543 612.625ZM19.6804 348.015C-3.49842 411.229 25.417 467.405 110.179 524.294C110.243 524.337 110.306 524.381 110.367 524.425C133.93 541.572 156.602 564.897 177.864 593.854L240.831 425.616C229.991 415.076 217.664 407.18 204.184 402.143C183.957 394.585 160.956 389.551 136.603 384.22C100.456 376.309 59.7123 367.392 19.6804 348.015Z" fill="#371A45"/>
<g opacity="0.25">
<path d="M116.493 420.111C135.37 409.862 158.912 414.352 178.674 422.768C198.437 431.183 216.82 443.276 237.705 448.295C220.901 434.025 209.315 414.694 198.461 395.505C197.498 393.803 196.462 392.02 194.77 391.038C192.801 389.896 190.372 390.075 188.098 390.169C175.415 390.696 162.598 387.411 151.732 380.849C140.386 392.218 129.612 404.159 119.467 416.612L116.493 420.111Z" fill="#371A45"/>
</g>
<g opacity="0.25">
<path d="M10.8633 364.776C10.6039 368.204 10.3478 371.613 10.1279 375.048C10.2682 371.598 10.528 368.17 10.8633 364.776Z" fill="#371A45"/>
</g>
<g opacity="0.25">
<path d="M193.334 486.768L189.839 488.847C179.318 518.148 168.801 547.43 158.301 576.734C158.144 577.156 157.988 577.578 157.776 577.97C141.837 558.8 124.888 542.455 106.821 529.305C54.8752 494.443 19.2461 456.522 9.07672 413.77C8.77104 401.067 9.27324 388.302 10.0926 375.593C9.51416 391.328 11.4511 407.283 19.9386 420.291C24.5357 427.337 30.8259 433.13 37.0311 438.827C44.4889 445.644 52.0152 452.535 60.741 457.615C67.2629 461.405 74.3455 464.11 81.4429 466.613C117.379 479.248 155.243 486.993 193.334 486.768Z" fill="#371A45"/>
</g>
<path d="M517.694 994.967C508.241 1048.37 421.224 1097.33 370.719 1077.77C350.615 1070.12 336.491 1051.78 331.009 1028.84C330.561 1029.3 330.117 1029.73 329.653 1030.16C298.73 1059.73 258.575 1061 238.961 1044.25C237.875 1043.34 236.859 1042.38 235.916 1041.36C219.481 1023.61 226.509 993.835 227.46 990.079C194.691 967.869 164.566 945.146 141.945 921.013C115.75 893.059 103.067 855.155 106.729 817.037C119.776 681.695 148.258 581.516 195.722 484.82L222.867 437.107L234.283 417.058C328.531 431.024 422.801 444.974 517.049 458.94C507.798 500.809 501.772 546.396 497.43 589.276C489.742 665.263 487.298 732.859 481.379 756.599C489.279 810.904 488.64 873.732 483.249 941.358C503.558 944.953 522.43 968.218 517.694 994.967Z" fill="white"/>
<path d="M235.315 410.091L518.08 451.973C522.103 452.553 524.817 456.496 523.926 460.46C513.433 509.006 507.312 558.488 502.724 607.989C499.169 645.292 496.853 682.729 493.46 720.127C492.187 732.722 491.207 745.079 488.214 758.302L488.35 755.586C492.802 786.598 494.334 817.812 494.334 848.904C494.308 880.007 492.715 911.022 490.269 941.918L484.476 934.422C511.992 939.75 529.658 969.355 524.628 996.2C515.741 1040.57 467.792 1073.57 426.585 1084.92C378.848 1098.21 336.695 1080.77 324.165 1030.48L335.974 1033.85C315.667 1053.98 285.649 1066.78 256.816 1060.41C221.678 1052.71 213.047 1019.93 220.623 988.368L223.502 995.906C203.555 982.648 184.01 968.771 165.545 953.397C135.204 928.195 112.188 903.475 102.599 863.929C97.9578 845.802 97.587 826.81 99.9677 808.336C101.929 791.118 103.817 772.104 106.55 755.073C116.928 684.295 134.13 613.938 161.32 547.659C170.533 525.617 181.107 504.131 193.803 483.877C194.433 482.872 195.759 482.568 196.765 483.198C197.64 483.746 197.981 484.828 197.64 485.761C189.493 508.116 180.841 530.032 172.713 552.137C164.514 573.715 156.834 596.865 150.312 619.063C134.007 675.597 123.733 733.881 117.026 792.294C116.079 802.496 114.058 816.946 113.849 827.016C113.521 839.591 115.184 852.199 118.551 864.311C124.295 884.536 135.163 903.094 149.819 918.173C174.095 943.477 202.576 964.1 231.407 984.248C233.897 985.975 234.944 989.02 234.284 991.8C231.539 1003.45 231.211 1016.51 235.197 1026.91C239.171 1037.71 248.84 1044.3 259.943 1046.67C284.044 1051.84 308.886 1040.77 326.056 1023.84C328.841 1021.11 333.32 1021.15 336.052 1023.94C336.966 1024.87 337.574 1026.03 337.866 1027.21C340.767 1039.14 346.334 1050.45 354.717 1058.93C382.445 1086.85 427.73 1073.89 458.1 1056.44C482.209 1042.28 508.249 1018.48 511.287 989.488C512.214 976.664 506.515 963.606 496.665 955.395C492.287 951.825 487.188 949.292 482.021 948.292C478.414 947.65 475.94 944.365 476.229 940.796C480.92 879.877 482.937 818.13 474.411 757.611C474.252 753.738 475.769 750.143 476.217 746.267C479.374 724.866 480.784 703.149 482.531 681.544C488.294 606.517 494.225 531.183 510.172 457.418L516.017 465.905L233.251 424.023C224.263 422.557 225.88 409.021 235.315 410.091Z" fill="#371A45"/>
<path d="M331.018 1034.88C330.986 1034.88 330.953 1034.88 330.921 1034.88C327.587 1034.83 324.928 1032.08 324.98 1028.75C325.565 992.084 330.115 959.883 338.883 930.394C335.747 921.689 333.051 912.776 330.437 904.133C322.235 877.016 314.489 851.404 293.968 830.041C291.658 827.637 291.735 823.816 294.139 821.506C296.544 819.197 300.366 819.272 302.674 821.678C325.205 845.131 333.74 873.35 341.993 900.637C344.746 909.741 347.593 919.156 350.905 928.121C351.361 929.357 351.401 930.71 351.016 931.971C342.199 960.895 337.631 992.613 337.053 1028.94C336.999 1032.24 334.307 1034.88 331.018 1034.88Z" fill="#371A45"/>
<path d="M207.137 771.904C230.235 791.526 255.596 808.046 284.7 816.271C327.191 829.13 372.284 821.721 413.989 808.363C416.868 807.451 418.758 811.671 415.875 813.108C398.66 821.49 380.279 827.828 361.181 831.43C322.528 839.045 281.792 833.221 247.775 812.769C230.955 802.816 216.117 789.965 203.639 775.388C201.73 773.106 204.8 769.925 207.137 771.904Z" fill="#371A45"/>
<path d="M301.19 828.15C287.81 850.636 268.393 869.493 244.997 880.988C242.529 882.161 240.552 878.62 242.891 877.154C253.422 870.596 262.787 862.395 270.78 853.113C278.772 843.828 285.456 833.457 290.501 822.534C294.286 815.067 305.197 820.755 301.19 828.15Z" fill="#371A45"/>
<path d="M182.362 962.454C179.805 962.454 177.617 960.513 177.362 957.915C177.091 955.15 179.112 952.687 181.878 952.416C241.088 946.61 272.306 897.999 272.543 852.982C272.557 850.214 274.807 847.978 277.573 847.978C277.583 847.978 277.591 847.978 277.6 847.978C280.378 847.993 282.619 850.257 282.604 853.036C282.344 902.561 247.999 956.041 182.859 962.43C182.693 962.447 182.527 962.454 182.362 962.454Z" fill="#371A45"/>
<path d="M229.515 983.344C243.365 989.173 258.798 983.14 269.756 973.507C272.345 971.148 276.109 974.678 273.921 977.407C262.874 991.499 243.743 1001.31 225.394 996.813C215.465 994.278 219.855 979.886 229.515 983.344Z" fill="#371A45"/>
<path d="M345.241 935.242C343.97 935.242 342.699 934.763 341.72 933.803C339.736 931.859 339.703 928.675 341.648 926.691C377.734 889.863 439.154 880.762 487.692 905.044C490.177 906.287 491.183 909.311 489.94 911.795C488.698 914.28 485.672 915.285 483.191 914.043C438.451 891.658 381.947 899.94 348.834 933.731C347.848 934.738 346.546 935.242 345.241 935.242Z" fill="#371A45"/>
<path d="M481.532 948.188C461.705 941.074 440.796 941.668 420.133 945.664C417.269 946.168 416.184 942.001 418.956 941.064C439.714 933.701 462.958 930.003 484.966 934.528C494.794 936.659 491.228 950.956 481.532 948.188Z" fill="#371A45"/>
<path d="M391.556 1086.76C389.861 1086.76 388.179 1086.72 386.492 1086.65C374.699 1086.1 360.171 1079.63 350.321 1070.55C334.57 1056.03 333.474 1031.69 347.825 1015.13C378.758 979.433 448.488 948.798 488.615 953.285C503.491 954.947 514.272 961.278 519.793 971.592C519.793 971.592 519.793 971.592 519.793 971.594C522.58 976.8 523.792 982.931 523.398 989.816C520.62 1038.3 453.845 1086.76 391.556 1086.76ZM480.217 962.9C442.487 962.9 382.272 990.743 355.429 1021.72C344.84 1033.94 345.607 1052.52 357.139 1063.15C366.605 1071.88 379.224 1076.24 386.943 1076.6C449.284 1079.28 511.036 1029.66 513.353 989.242C513.64 984.231 512.823 979.892 510.923 976.341C506.98 968.974 499.098 964.581 487.498 963.286C485.186 963.027 482.748 962.9 480.217 962.9Z" fill="#371A45"/>
<g opacity="0.25">
<path d="M515.358 973.967C494.265 934.562 389.722 974.465 351.628 1018.42C339.332 1032.61 339.924 1054.13 353.73 1066.85C363.453 1075.81 376.867 1081.16 386.708 1081.62C450.902 1084.39 515.829 1033.96 518.376 989.528C518.683 984.16 517.895 978.707 515.358 973.967Z" fill="#371A45"/>
</g>
<path d="M507.096 1024.05C506.289 1024.05 505.485 1023.73 504.891 1023.09L449.352 963.733C448.213 962.517 448.276 960.607 449.494 959.467C450.712 958.328 452.623 958.392 453.76 959.61L509.299 1018.97C510.438 1020.19 510.375 1022.1 509.157 1023.24C508.575 1023.78 507.834 1024.05 507.096 1024.05Z" fill="#371A45"/>
<path d="M480.158 1053.09C479.271 1053.09 478.392 1052.7 477.796 1051.95L416.281 974.749C415.243 973.444 415.456 971.547 416.76 970.508C418.062 969.469 419.962 969.682 421.002 970.987L482.517 1048.19C483.555 1049.49 483.341 1051.39 482.038 1052.43C481.482 1052.87 480.818 1053.09 480.158 1053.09Z" fill="#371A45"/>
<path d="M445.951 1073.13C445.007 1073.13 444.078 1072.69 443.49 1071.86L385.576 990.535C384.609 989.176 384.926 987.293 386.283 986.325C387.643 985.36 389.525 985.674 390.493 987.033L448.406 1068.36C449.373 1069.72 449.057 1071.6 447.699 1072.57C447.168 1072.95 446.556 1073.13 445.951 1073.13Z" fill="#371A45"/>
<path d="M411.611 1083.15C410.691 1083.15 409.782 1082.73 409.189 1081.94L357.081 1012.06C356.084 1010.73 356.36 1008.83 357.696 1007.84C359.032 1006.84 360.924 1007.12 361.92 1008.45L414.029 1078.33C415.025 1079.67 414.75 1081.56 413.414 1082.55C412.872 1082.96 412.239 1083.15 411.611 1083.15Z" fill="#371A45"/>
<g opacity="0.25">
<path d="M188.401 743.657C198.433 796.593 283.262 821.695 289.007 823.326C300.498 826.588 310.377 827.937 312.784 828.252C318.431 828.993 332.304 830.511 351.933 828.698C374.164 826.645 390.872 825.102 408.868 815.185C417.349 810.513 433.501 799.911 446.963 777.893C419.71 791.223 395.786 796.1 380.038 798.092C356.412 801.082 337.397 799.326 323.523 797.965C309.123 796.553 294.6 795.129 276.197 789.449C244.76 779.747 221.759 763.681 203.147 750.78C196.642 746.27 191.385 742.294 187.766 739.477C187.824 739.996 188.016 741.629 188.401 743.657Z" fill="#371A45"/>
</g>
<g opacity="0.25">
<path d="M417.942 809.47C413.094 817.035 406.663 828.512 401.768 843.426C395.863 861.416 399.242 865.751 393.745 901.693C391.714 914.969 391.256 915.857 387.605 944.862C385.602 960.771 385.138 966.863 389.077 971.177C396.931 979.781 415.521 973.894 418.642 972.867C403.573 978.8 391.861 985.376 383.588 990.64C366.797 1001.32 357.582 1010.8 354.28 1014.39C353.949 1014.74 353.793 1014.92 353.734 1014.99C342.554 1027.75 343.754 1043.28 342.895 1043.26C342.227 1043.25 339.603 1033.72 341.618 1002.62C342.921 982.512 346.055 955.079 354.003 922.305C352.952 913.346 351.172 903.461 348.263 892.939C340.309 864.173 327.119 842.221 316.08 827.296C328.956 829.761 342.207 830.266 355.206 828.786C357.795 828.491 367.579 827.55 380.195 824.265C389.971 821.72 403.195 817.343 417.942 809.47Z" fill="#371A45"/>
</g>
<g opacity="0.25">
<path d="M329.653 1030.16C298.731 1059.73 258.575 1061 238.961 1044.25C243.201 1045 247.483 1045.51 251.802 1045.7C268.891 1046.48 287.043 1041.6 298.541 1028.94C302.251 1024.84 305.181 1020.06 307.577 1015.07C310.513 1008.99 312.728 1002.25 311.786 995.566C310.61 987.081 304.643 980.16 298.947 973.777C282.286 955.114 265.572 936.399 246.802 919.835C236.572 910.79 225.631 902.293 217.636 891.232C213.842 886.003 210.667 879.924 210.812 873.451C210.941 866.485 214.845 860.249 217.421 853.778C222.518 841.029 222.606 826.679 219.731 813.255C216.855 799.831 211.167 787.175 204.955 774.938L206.7 774.082C210.345 775.77 212.882 779.1 215.508 782.161C236.435 806.627 268.701 817.714 299.615 826.742C302.063 827.461 304.57 828.191 306.551 829.809C308.074 831.018 309.176 832.644 310.192 834.295C324.735 857.652 327.334 886.374 337.591 911.895C339.254 916.01 341.111 920.059 342.104 924.382C343.985 932.685 342.535 941.338 341.051 949.719C337.902 967.738 334.754 985.756 331.605 1003.77C330.096 1012.42 328.657 1021.58 329.653 1030.16Z" fill="#371A45"/>
</g>
<g opacity="0.25">
<path d="M269.863 976.907C266.435 978.987 263.711 982.025 261.041 985.017C257.219 989.3 253.397 993.583 249.575 997.867C242.3 1006.02 234.553 1015.48 235.385 1026.38C235.66 1029.97 236.877 1033.62 235.893 1037.09C225.753 1023.92 222.657 1005.63 227.896 989.85C232.671 992.647 238.693 992.601 243.987 990.987C249.28 989.374 254.011 986.347 258.666 983.355C261.09 981.798 263.515 980.24 265.939 978.683" fill="#371A45"/>
</g>
<g opacity="0.25">
<path d="M151.487 589.057C152.066 589.235 152.65 589.401 153.23 589.577C153.715 588.705 154.205 587.837 154.717 586.981L151.487 589.057Z" fill="#371A45"/>
</g>
<g opacity="0.25">
<path d="M486.097 649.116L486.465 648.829C486.218 648.785 485.968 648.871 486.097 649.116Z" fill="#371A45"/>
</g>
<g opacity="0.25">
<path d="M486.371 694.067C488.313 678.151 489.508 662.145 489.952 646.117L486.465 648.829C486.687 648.869 486.906 649.014 486.844 649.255C486.715 649.764 486.055 649.88 485.53 649.894C463.714 650.484 441.859 649.606 420.161 647.269C419.249 647.171 418.255 647.129 417.403 647.389C414.89 645.837 412.065 644.707 408.991 644.163L244.075 614.969C244.346 613.96 244.616 612.952 244.887 611.943C238.858 608.922 232.074 607.85 225.429 606.705C201.039 602.499 176.913 596.768 153.23 589.577C144.569 605.154 140.214 623.106 140.829 640.921C161.796 642.351 182.546 649.769 203.199 652.297L201.845 659.944C199.53 673.021 208.336 685.615 221.413 687.93L395.779 718.797C408.856 721.112 421.45 712.307 423.765 699.229L425.207 691.085C426.952 691.35 428.7 691.596 430.447 691.829C447.252 694.065 464.056 696.301 480.861 698.536C482.139 698.706 483.546 698.848 484.617 698.131C485.883 697.283 486.186 695.581 486.371 694.067Z" fill="#371A45"/>
</g>
<g opacity="0.25">
<path d="M497.43 589.277C469.142 590.113 440.868 590.994 412.557 591.847C380.877 592.799 345.914 592.679 321.916 571.939C320.938 571.112 319.958 570.183 319.623 568.959C319.158 567.201 320.149 565.414 321.101 563.846C326.426 555.122 332.037 545.469 330.515 535.37C328.138 519.705 310.732 511.944 296.128 505.783C279.298 498.696 262.92 489.972 249.324 477.777C237.144 466.814 227.28 452.806 222.866 437.107L234.283 417.058C328.53 431.024 422.801 444.974 517.049 458.94C507.798 500.809 501.772 546.396 497.43 589.277Z" fill="#371A45"/>
</g>
<path d="M235.827 628.811C212.649 633.161 179.328 625.494 156.862 618.851C143.388 614.867 135.83 601.335 140.115 588.926C144.025 577.603 156.53 571.079 169.056 573.865C190.332 578.597 222.416 584.728 243.529 584.124" fill="white"/>
<g opacity="0.25">
<path d="M235.835 628.809C212.657 633.159 179.32 625.5 156.86 618.849C143.39 614.874 135.83 601.338 140.112 588.919C141.021 586.282 142.395 583.896 144.154 581.839C146.694 588.8 152.654 594.609 160.727 597.001C183.158 603.632 216.429 611.295 239.601 606.974L235.835 628.809Z" fill="#371A45"/>
</g>
<path d="M220.63 636.113C199.103 636.113 174.116 630.248 155.15 624.641C146.85 622.185 139.898 616.518 136.074 609.091C132.482 602.11 131.89 594.25 134.409 586.956C139.342 572.668 154.802 564.511 170.367 567.972C201.724 574.949 227.657 578.546 243.355 578.089C245.999 578.017 254.636 579.045 256.4 595.46C257.958 609.963 252.951 631.738 236.941 634.743H236.94C231.872 635.696 226.373 636.113 220.63 636.113ZM163.194 579.254C155.328 579.254 148.282 583.773 145.821 590.898C144.389 595.045 144.74 599.545 146.809 603.566C149.132 608.078 153.419 611.538 158.574 613.061C190.732 622.572 217.776 626.052 234.713 622.879C239.432 621.993 241.911 615.944 242.968 612.418C245.903 602.631 244.311 592.781 242.698 590.182C221.32 590.56 190.242 584.761 167.746 579.758C166.217 579.418 164.69 579.254 163.194 579.254Z" fill="#371A45"/>
<path d="M412.022 660.152C428.83 671.376 457.328 674.695 477.002 675.577C488.801 676.105 498.938 666.001 499.445 653.241C499.908 641.598 492.141 631.697 481.458 630.361C463.312 628.091 436.262 623.744 419.906 616.611" fill="white"/>
<g opacity="0.25">
<path d="M477.007 675.576C457.322 674.702 428.827 671.373 412.02 660.149L415.861 638.916C432.673 650.111 461.118 653.416 480.773 654.3C487.845 654.612 494.342 651.093 498.501 645.475C499.214 647.899 499.561 650.525 499.452 653.236C498.94 666.003 488.799 676.112 477.007 675.576Z" fill="#371A45"/>
</g>
<path d="M477.888 681.634C477.503 681.634 477.118 681.625 476.732 681.607C455.483 680.655 426.428 677.032 408.671 665.172C395.078 656.096 400.878 630.79 406.836 619.883C413.032 608.544 419.727 609.946 422.318 611.077C434.346 616.323 455.615 621.045 482.207 624.37C496.064 626.105 506.068 638.62 505.477 653.483C505.158 661.509 501.662 669.157 495.886 674.464C490.829 679.112 484.477 681.634 477.888 681.634ZM419.223 622.873C416.601 625.886 412.486 635.87 412.382 645.317C412.329 650.248 413.419 653.826 415.375 655.133C427.424 663.179 449.407 668.297 477.272 669.547C481.027 669.715 484.747 668.304 487.718 665.575C491.145 662.426 493.221 657.843 493.414 653.002C493.753 644.458 488.291 637.299 480.708 636.35C461.77 633.981 436.037 629.742 419.223 622.873Z" fill="#371A45"/>
<path d="M436.788 587.571L421.203 675.61C418.311 691.949 403.349 703.086 387.971 700.364L235.202 673.32C219.806 670.595 209.595 655.002 212.487 638.663L228.072 550.624C230.961 534.304 245.905 523.164 261.3 525.889L414.07 552.933C426.355 555.108 435.36 565.504 437.006 577.925C437.412 581.043 437.369 584.289 436.788 587.571Z" fill="white"/>
<g opacity="0.25">
<path d="M436.788 587.572L421.203 675.61C418.311 691.949 403.349 703.086 387.971 700.364L235.202 673.32C219.806 670.595 209.595 655.002 212.487 638.663L217.733 609.031C241.35 629.179 289.452 661.672 345.254 651.766C372.516 646.919 407.559 619.975 407.559 619.975C407.559 619.975 402.72 653.899 407.528 654.201C420.899 655.042 432.881 586.792 437.006 577.926C437.412 581.043 437.369 584.289 436.788 587.572Z" fill="#371A45"/>
</g>
<path d="M393.927 707.023C391.992 707.023 390.047 706.853 388.105 706.51L232.954 679.045C214.907 675.848 202.824 658.566 206.019 640.521L222.633 546.669C224.175 537.955 229.041 530.349 236.335 525.25C243.628 520.15 252.439 518.19 261.155 519.733L416.308 547.198C425.021 548.742 432.627 553.608 437.727 560.901C442.826 568.194 444.785 577.009 443.243 585.72L426.629 679.572C425.087 688.286 420.221 695.893 412.927 700.993C407.259 704.956 400.671 707.023 393.927 707.023ZM390.211 694.62C395.747 695.606 401.36 694.35 406.009 691.098C410.659 687.847 413.76 683.006 414.74 677.469L431.354 583.617C432.335 578.08 431.083 572.47 427.832 567.818C424.581 563.169 419.741 560.068 414.204 559.089L259.05 531.622C253.515 530.641 247.903 531.894 243.254 535.144C238.603 538.396 235.502 543.236 234.522 548.772L217.908 642.624C215.873 654.115 223.568 665.12 235.059 667.156L390.211 694.62Z" fill="#371A45"/>
<path d="M402.871 626.949C405.374 612.809 396.602 599.434 383.279 597.076C369.955 594.717 357.125 604.268 354.622 618.408C352.119 632.549 360.891 645.923 374.215 648.282C387.538 650.64 400.369 641.089 402.871 626.949Z" fill="#22A7F0"/>
<path d="M402.882 626.982C402.573 628.726 402.115 630.392 401.508 631.98C401.355 619.861 393.165 609.312 381.485 607.244C369.805 605.177 358.491 612.273 354.203 623.606C354.178 621.906 354.32 620.184 354.629 618.439C357.132 604.299 369.958 594.738 383.281 597.096C396.605 599.455 405.385 612.842 402.882 626.982Z" fill="white"/>
<path d="M402.877 626.968C400.372 641.118 387.538 650.656 374.221 648.299C360.904 645.942 352.124 632.577 354.629 618.427C355.049 616.056 355.768 613.795 356.719 611.725C357.643 623.022 365.586 632.609 376.652 634.568C387.717 636.527 398.469 630.249 403.215 619.956C403.398 622.226 403.297 624.597 402.877 626.968Z" fill="#197BDD"/>
<path d="M378.318 653.698C376.665 653.698 375.004 653.553 373.344 653.258C357.31 650.42 346.692 634.402 349.674 617.555C352.657 600.706 368.128 589.306 384.161 592.146C391.984 593.53 398.753 598.046 403.222 604.859C407.628 611.579 409.266 619.744 407.83 627.85C406.396 635.956 402.055 643.063 395.61 647.861C390.461 651.696 384.459 653.698 378.318 653.698ZM379.24 601.774C369.862 601.774 361.395 609.066 359.582 619.308C357.566 630.694 364.527 641.48 375.098 643.352C380.167 644.252 385.313 642.982 389.603 639.791C393.982 636.531 396.938 631.668 397.923 626.097C398.91 620.526 397.804 614.942 394.81 610.378C391.877 605.905 387.472 602.949 382.408 602.053C381.346 601.865 380.287 601.774 379.24 601.774Z" fill="#371A45"/>
<path d="M297.343 689.341C297.052 689.341 296.758 689.316 296.46 689.263C293.726 688.779 291.9 686.17 292.384 683.434L300.361 638.372C302.061 628.771 299.393 618.852 293.223 611.839L289.893 608.054C281.721 598.766 278.173 585.708 280.401 573.122L287.928 530.604C288.413 527.868 291.025 526.047 293.76 526.527C296.496 527.012 298.32 529.622 297.836 532.358L290.309 574.875C288.609 584.477 291.277 594.396 297.446 601.407L300.777 605.193C308.949 614.483 312.497 627.54 310.269 640.125L302.292 685.187C301.86 687.626 299.737 689.341 297.343 689.341Z" fill="#371A45"/>
<path d="M539.76 573.065C538.011 576.597 535.883 579.96 533.578 583.169C532.877 584.129 532.156 585.084 531.419 586.016C521.485 598.726 511.421 610.901 500.631 621.641C480.641 641.521 449.036 643.895 426.911 626.43C393.432 600.028 374.78 544.82 382.926 494.765L445.177 476.379L509.084 457.53C512.75 461.408 516.197 465.369 519.395 469.47C526.699 478.651 532.799 488.293 537.394 498.119C549.217 523.222 551.407 549.522 539.76 573.065Z" fill="white"/>
<path d="M460.809 644.178C447.508 644.178 434.222 639.894 423.171 631.176C387.962 603.404 368.534 545.626 376.978 493.794C377.35 491.505 379.002 489.632 381.226 488.975L507.365 451.738C509.547 451.099 511.899 451.73 513.46 453.38C551.401 493.493 563.252 539.239 545.159 575.748C542.889 580.331 539.952 584.904 536.181 589.727C527.37 600.994 516.761 614.105 504.879 625.927C492.732 638.013 476.759 644.178 460.809 644.178ZM388.339 499.464C382.034 546.232 399.502 597.13 430.648 621.697C450.158 637.089 478.411 635.226 496.364 617.369C507.777 606.014 518.089 593.263 526.671 582.289C529.93 578.12 532.439 574.228 534.341 570.388C549.703 539.385 539.542 499.967 507.193 464.378L388.339 499.464Z" fill="#371A45"/>
<g opacity="0.25">
<path d="M537.394 498.12C536.341 497.831 535.268 497.661 534.177 497.591C525.737 497.017 517.549 501.595 512.026 507.974C506.48 514.37 503.236 522.419 500.723 530.496C504.808 512.5 506.48 493.935 505.716 475.51C510.262 473.494 514.831 471.463 519.394 469.471C526.699 478.652 532.799 488.294 537.394 498.12Z" fill="#371A45"/>
</g>
<g opacity="0.25">
<path d="M533.578 583.169C532.877 584.129 532.156 585.084 531.419 586.016C521.485 598.726 511.421 610.901 500.631 621.641C480.641 641.521 449.036 643.895 426.911 626.43C393.432 600.028 374.78 544.82 382.926 494.765L445.177 476.379C441.44 504.531 443.151 533.423 450.238 560.916C453.317 572.844 457.672 584.956 466.437 593.619C476.252 603.285 491.22 607.386 504.599 604.073C517.978 600.761 529.3 590.136 533.445 576.994L533.578 583.169Z" fill="#371A45"/>
</g>
<g opacity="0.25">
<path d="M539.481 580.514C539.611 580.514 539.611 580.313 539.481 580.313C539.352 580.313 539.351 580.514 539.481 580.514Z" fill="#371A45"/>
</g>
<path d="M631.344 373.701L621.088 372.071C618.805 371.708 617.249 369.564 617.612 367.282L640.895 220.765C641.258 218.483 643.402 216.927 645.684 217.289L655.94 218.919C679.882 222.724 696.206 245.216 692.401 269.158L681.582 337.239C677.778 361.181 655.285 377.505 631.344 373.701Z" fill="white"/>
<path d="M638.258 375.653C635.903 375.653 633.522 375.469 631.123 375.088L620.867 373.458C617.824 372.974 615.742 370.105 616.225 367.062L639.508 220.544C639.992 217.499 642.866 215.413 645.905 215.902L656.16 217.532C668.11 219.431 678.605 225.87 685.713 235.662C692.82 245.455 695.687 257.429 693.788 269.378L682.97 337.46C679.43 359.729 660.127 375.653 638.258 375.653ZM631.564 372.314C654.69 375.982 676.518 360.157 680.196 337.019L691.014 268.938C692.795 257.729 690.105 246.498 683.439 237.312C676.772 228.127 666.928 222.087 655.72 220.306L645.464 218.676C643.945 218.428 642.523 219.472 642.282 220.985L618.999 367.503C618.759 369.016 619.795 370.443 621.308 370.684L631.564 372.314Z" fill="#371A45"/>
<g opacity="0.35">
<path d="M686.748 304.733L683.074 327.881C678.446 356.984 651.096 376.839 621.975 372.223C619.2 371.785 617.312 369.163 617.75 366.389L623.852 327.912C624.352 329.789 625.915 331.28 627.949 331.619L631.383 332.155C654.389 335.815 676.309 324.178 686.748 304.733Z" fill="#371A45"/>
</g>
<path d="M638.261 381.292C635.612 381.292 632.935 381.085 630.238 380.656L619.983 379.026C613.869 378.053 609.685 372.29 610.657 366.178L633.94 219.66C634.912 213.546 640.672 209.364 646.788 210.333L657.045 211.964C670.482 214.099 682.284 221.339 690.275 232.351C698.267 243.362 701.492 256.826 699.357 270.263L688.538 338.345C684.559 363.386 662.853 381.292 638.261 381.292ZM632.449 366.746C652.518 369.931 671.438 356.202 674.627 336.134L685.446 268.053C686.991 258.331 684.657 248.59 678.875 240.624C673.094 232.658 664.556 227.419 654.835 225.874L647.402 224.693L625.016 365.564L632.449 366.746Z" fill="#371A45"/>
<path d="M159.486 140.028L169.742 141.658C172.024 142.02 173.58 144.164 173.218 146.446L149.935 292.964C149.572 295.246 147.428 296.802 145.146 296.439L134.889 294.809C110.948 291.005 94.6239 268.512 98.4283 244.571L109.247 176.489C113.052 152.547 135.545 136.223 159.486 140.028Z" fill="white"/>
<path d="M145.814 297.896C145.519 297.896 145.223 297.873 144.925 297.826L134.669 296.196C122.719 294.297 112.224 287.858 105.117 278.066C98.0104 268.274 95.1427 256.3 97.042 244.35L107.861 176.269C109.76 164.319 116.198 153.823 125.99 146.716C135.783 139.61 147.754 136.74 159.706 138.641L169.962 140.27C171.437 140.504 172.732 141.299 173.608 142.506C174.486 143.714 174.839 145.192 174.604 146.666L151.321 293.183C151.087 294.657 150.293 295.952 149.085 296.829C148.12 297.529 146.984 297.896 145.814 297.896ZM152.507 140.879C143.615 140.879 134.975 143.667 127.641 148.99C118.456 155.657 112.416 165.5 110.635 176.709L99.8161 244.791C98.0353 255.999 100.725 267.231 107.391 276.416C114.057 285.601 123.901 291.64 135.11 293.422L145.367 295.052C146.1 295.171 146.836 294.993 147.436 294.556C148.037 294.119 148.432 293.476 148.548 292.742L171.831 146.225C171.948 145.492 171.771 144.757 171.336 144.156C170.9 143.555 170.256 143.161 169.522 143.044L159.266 141.414C157.007 141.056 154.75 140.879 152.507 140.879Z" fill="#371A45"/>
<g opacity="0.35">
<path d="M156.468 251.921L150.083 292.072C149.646 294.846 147.024 296.735 144.25 296.297C128.97 293.862 116.226 285.174 108.248 273.243C101.043 262.469 97.7264 249.039 99.9206 235.216L103.224 214.42C108.589 233.978 124.982 249.616 146.326 253.012L151.608 253.85C153.536 254.152 155.345 253.347 156.468 251.921Z" fill="#371A45"/>
</g>
<path d="M145.826 303.536C145.233 303.536 144.638 303.489 144.042 303.395L133.784 301.764C120.347 299.629 108.546 292.389 100.555 281.378C92.5633 270.367 89.3377 256.902 91.4734 243.466L102.292 175.384C104.427 161.947 111.667 150.145 122.678 142.154C133.689 134.163 147.155 130.941 160.591 133.072L170.847 134.702C173.809 135.172 176.41 136.768 178.172 139.195C179.933 141.623 180.644 144.591 180.172 147.553L156.889 294.068C156.419 297.03 154.824 299.631 152.396 301.392C150.459 302.798 148.175 303.536 145.826 303.536ZM152.518 146.518C144.807 146.518 137.314 148.936 130.952 153.553C122.986 159.335 117.748 167.873 116.203 177.594L105.384 245.676C103.839 255.398 106.173 265.138 111.954 273.105C117.736 281.071 126.273 286.309 135.994 287.853L143.427 289.034L165.813 148.165L158.381 146.983C156.422 146.672 154.463 146.518 152.518 146.518Z" fill="#371A45"/>
<g opacity="0.25">
<path d="M673.495 509.734C673.419 509.837 673.342 509.939 673.266 510.042C673.339 509.958 673.397 509.852 673.451 509.764C673.473 509.749 673.492 509.753 673.495 509.734Z" fill="#000072"/>
</g>
<path d="M395.445 506.599C533.367 506.599 645.175 394.791 645.175 256.869C645.175 118.947 533.367 7.1391 395.445 7.1391C257.523 7.1391 145.715 118.947 145.715 256.869C145.715 394.791 257.523 506.599 395.445 506.599Z" fill="white"/>
<path d="M395.921 508.096C376.826 508.096 357.6 505.905 338.539 501.471C273.202 486.271 217.697 446.537 182.246 389.59C146.795 332.642 135.642 265.298 150.842 199.963C166.042 134.628 205.776 79.1218 262.724 43.6704C319.67 8.21894 387.014 -2.93377 452.351 12.2669C517.686 27.4668 573.192 67.2008 608.644 124.148C644.095 181.095 655.248 248.439 640.047 313.775C624.847 379.11 585.113 434.616 528.166 470.067C487.833 495.176 442.277 508.096 395.921 508.096ZM394.973 8.45137C349.131 8.45137 304.094 21.2254 264.208 46.0555C207.898 81.1091 168.608 135.994 153.579 200.599C122.552 333.964 205.81 467.707 339.175 498.735C403.779 513.763 470.372 502.738 526.682 467.683C582.992 432.627 622.282 377.743 637.312 313.138C652.342 248.533 641.313 181.942 606.26 125.632C571.205 69.3217 516.32 30.0326 451.715 15.0025C432.87 10.6189 413.851 8.45137 394.973 8.45137Z" fill="#371A45"/>
<g opacity="0.35">
<path d="M644.181 279.244C643.171 290.603 641.341 302.025 638.683 313.46C607.413 447.786 473.185 531.349 338.852 500.111C204.525 468.841 120.963 334.613 152.201 200.28C153.098 196.416 154.087 192.57 155.158 188.806C144.009 311.026 224.397 425.822 347.306 454.422C477.775 484.764 608.125 406.817 644.181 279.244Z" fill="#371A45"/>
</g>
<path d="M395.932 513.737C376.408 513.737 356.75 511.497 337.261 506.962C270.458 491.421 213.706 450.795 177.459 392.57C141.213 334.344 129.81 265.488 145.351 198.685C160.893 131.882 201.518 75.1305 259.744 38.8834C317.97 2.637 386.829 -8.76811 453.629 6.77525C520.432 22.3167 577.184 62.9423 613.431 121.168C649.677 179.394 661.08 248.25 645.539 315.052C629.997 381.855 589.372 438.607 531.146 474.854C489.907 500.526 443.329 513.737 395.932 513.737ZM394.984 14.0921C350.183 14.0921 306.167 26.576 267.188 50.8418C212.156 85.1004 173.759 138.739 159.07 201.877C128.747 332.215 210.115 462.92 340.452 493.243C358.868 497.528 377.315 499.582 395.462 499.584C505.745 499.594 605.781 423.782 631.82 311.861C646.508 248.722 635.731 183.644 601.472 128.612C567.214 73.5806 513.575 35.1837 450.437 20.4945C432.021 16.2097 413.434 14.0921 394.984 14.0921Z" fill="#371A45"/>
<path d="M636.448 319.523C626.094 367.282 600.98 408.261 566.513 439.199C540.672 462.394 448.524 492.815 347.426 471.848C253.686 452.408 179.375 384.072 165.459 352.26C146.898 309.826 141.007 262.126 151.36 214.367C178.757 87.9822 298.7 59.1271 432.659 88.1665C566.618 117.206 663.845 193.139 636.448 319.523Z" fill="#371A45"/>
<path d="M415.84 483.74C393.348 483.74 369.896 481.646 346.403 476.774C249.766 456.733 175.355 387.437 160.85 354.275C141.181 309.309 136.198 260.561 146.443 213.3C159.772 151.813 194.693 109.753 250.235 88.2894C298.839 69.5071 362.289 67.7633 433.724 83.2504C505.159 98.7349 562.192 126.596 598.655 163.82C640.323 206.356 654.693 259.101 641.363 320.589C631.118 367.848 606.397 410.157 569.873 442.942C547.387 463.126 486.379 483.74 415.84 483.74ZM342.633 82.8433C309.374 82.8433 279.425 87.7965 253.862 97.6746C201.676 117.841 168.843 157.461 156.275 215.433C146.483 260.611 151.252 307.228 170.069 350.244C183.446 380.827 256.5 447.855 348.448 466.922C450.313 488.049 539.921 456.309 563.153 435.456C598.093 404.093 621.738 363.635 631.532 318.457C644.098 260.485 630.619 210.827 591.469 170.861C556.385 135.046 501.101 108.151 431.593 93.0831C400.08 86.2521 370.218 82.8433 342.633 82.8433Z" fill="#371A45"/>
<g opacity="0.5">
<path d="M590.931 297.482C600.272 274.932 594.598 251.164 578.258 244.395C561.917 237.627 541.098 250.42 531.757 272.971C522.416 295.521 528.091 319.289 544.431 326.057C560.772 332.826 581.591 320.032 590.931 297.482Z" fill="white"/>
</g>
<g opacity="0.5">
<path d="M519.453 371.361C525.13 361.703 523.013 349.925 514.725 345.053C506.437 340.182 495.116 344.062 489.439 353.721C483.763 363.379 485.88 375.157 494.168 380.028C502.456 384.9 513.777 381.019 519.453 371.361Z" fill="white"/>
</g>
<g opacity="0.7">
<path d="M614.834 191.391C638.351 226.112 647.443 268.753 636.446 319.515C626.091 367.284 600.968 408.258 566.519 439.201C540.673 462.394 448.517 492.811 347.419 471.855C311.72 464.462 278.853 449.968 251.052 433.085C375.876 456.196 488.222 418.697 520.267 389.928C564.015 350.662 595.889 298.645 609.018 238.041C612.539 221.846 614.414 206.295 614.834 191.391Z" fill="#111A28"/>
</g>
<path d="M639.593 209.191C638.115 209.191 636.654 208.54 635.666 207.288L635.255 206.767L634.966 206.122C606.177 139.164 533.56 88.5977 435.737 67.3888C337.359 46.0666 250.161 63.1188 196.498 114.175L196.049 114.554C193.85 116.202 190.717 115.797 189.035 113.624C187.395 111.508 187.689 108.505 189.689 106.765C245.815 53.4656 336.259 35.5289 437.868 57.5568C538.861 79.4519 614.044 132.112 644.164 202.045C645.122 204.134 644.559 206.685 642.668 208.14C641.75 208.847 640.666 209.191 639.593 209.191Z" fill="#371A45"/>
<g opacity="0.5">
<path d="M189.532 301.36C189.532 301.36 177.416 168.196 255.38 133.077C333.344 97.9588 429.973 119.116 426.368 124.826C426.368 124.826 313.729 127.535 253.512 203.066C207.078 261.309 189.532 301.36 189.532 301.36Z" fill="white"/>
</g>
<path d="M504.4 515.963C477.952 547.043 428.304 556.339 384.119 549.784C383.895 548.621 383.672 547.457 383.476 546.258C382.955 543.427 382.531 540.512 382.154 537.563C381.578 533.313 381.126 528.942 380.724 524.518C378.183 497.543 377.241 467.888 365.156 441.84C362.984 437.144 360.463 432.569 357.487 428.139C352.86 426.339 348.58 424.314 344.692 422.033C323.587 409.775 313.139 390.76 311.375 366.783C309.89 346.31 314.747 322.219 324.745 295.645L430.879 293.487C458.097 292.686 473.287 308.698 475.433 353.484C496.533 412.067 507.651 466.779 504.4 515.963Z" fill="white"/>
<path d="M410.999 557.793C401.361 557.793 391.983 557.061 383.224 555.764C380.701 555.39 378.687 553.473 378.188 550.972C375.859 539.282 374.816 526.923 373.712 513.838C371.356 485.913 368.922 457.059 353.489 433.046C318.683 418.83 285.395 383.041 319.095 293.519C319.965 291.208 322.154 289.661 324.622 289.61L430.756 287.451C472.84 286.257 479.935 323.575 481.418 352.287C504.067 415.397 513.554 469.074 510.424 516.361C510.338 517.655 509.837 518.888 508.997 519.875C485.127 547.927 446.351 557.793 410.999 557.793ZM389.253 544.399C434.131 549.972 476.396 538.058 498.503 513.536C501.131 468.213 491.719 416.501 469.754 355.531C469.551 354.965 469.432 354.373 469.403 353.773C467.073 305.169 449.582 298.984 431.057 299.521L328.984 301.597C306.06 365.099 316.374 405.768 359.665 422.509C360.819 422.955 361.808 423.746 362.498 424.772C380.584 451.683 383.325 484.165 385.743 512.822C386.682 523.955 387.576 534.548 389.253 544.399Z" fill="#371A45"/>
<path d="M510.434 516.164L505.281 544.466C504.928 546.528 501.83 546.412 501.624 544.344L498.367 515.762C497.831 506.502 511.581 506.948 510.434 516.164Z" fill="#371A45"/>
<g opacity="0.25">
<path d="M445.922 547.094C425.13 548.298 404.235 548.011 383.476 546.258C382.647 546.213 381.844 546.132 381.017 546.067C381.724 543.229 382.08 540.411 382.155 537.563C382.228 533.223 381.65 528.871 380.724 524.518C378.184 497.543 377.242 467.888 365.157 441.84C364.826 440.474 364.473 439.124 364.057 437.783C363.108 434.713 361.902 431.598 359.599 429.371C357.453 427.295 354.54 426.207 351.775 425.085C349.389 424.131 347.034 423.121 344.693 422.033C323.587 409.775 313.139 390.76 311.375 366.783C324.356 359.027 339.154 354.392 354.22 353.32C374.75 351.866 396.585 356.773 415.215 348.035C429.411 341.373 439.015 327.991 447.99 315.153C447.688 339.601 445.854 364.044 442.507 388.26C441.497 395.581 440.156 403.272 435.326 408.854C433.475 410.999 431.161 412.756 429.619 415.119C426.296 420.151 427.113 426.732 428.043 432.68C434.001 470.825 439.96 508.969 445.922 547.094Z" fill="#371A45"/>
</g>
<path d="M381.686 190.436L299.126 175.821C290.953 174.374 283.082 179.878 281.635 188.051L279.998 197.298C278.551 205.471 284.054 213.343 292.228 214.79L374.787 229.405C382.96 230.852 390.832 225.348 392.279 217.175L393.916 207.928C395.363 199.754 389.859 191.883 381.686 190.436Z" fill="#CCCCCC"/>
<g opacity="0.7">
<path d="M381.685 190.436L299.126 175.821C293.147 174.763 287.34 177.433 284.082 182.138C286.652 181.067 289.538 180.68 292.469 181.199L375.029 195.814C383.202 197.261 388.706 205.132 387.259 213.305L385.622 222.552C385.233 224.746 384.371 226.738 383.174 228.465C387.773 226.549 391.351 222.417 392.278 217.175L393.915 207.928C395.362 199.754 389.859 191.883 381.685 190.436Z" fill="white"/>
</g>
<g opacity="0.3">
<path d="M378.587 207.939L296.028 193.324C290.031 192.263 285.485 187.738 284.053 182.179C282.872 183.896 282.02 185.875 281.635 188.051L279.998 197.298C278.551 205.472 284.054 213.343 292.228 214.79L374.787 229.405C382.961 230.852 390.832 225.348 392.279 217.175L393.916 207.928C394.301 205.751 394.18 203.6 393.661 201.582C390.407 206.312 384.584 209 378.587 207.939Z" fill="#371A45"/>
</g>
<path d="M377.435 233.662C376.322 233.662 375.203 233.565 374.085 233.367L291.526 218.752C281.147 216.915 274.198 206.975 276.035 196.597L277.672 187.349C278.559 182.338 281.357 177.963 285.552 175.03C289.746 172.098 294.818 170.972 299.827 171.858L382.387 186.473C387.398 187.36 391.774 190.159 394.706 194.353C397.639 198.547 398.766 203.618 397.879 208.629L396.241 217.876C395.354 222.887 392.556 227.262 388.362 230.195C385.102 232.474 381.313 233.662 377.435 233.662ZM296.496 179.614C294.251 179.614 292.056 180.303 290.164 181.627C287.731 183.327 286.109 185.858 285.597 188.752L283.96 198C282.897 204.008 286.92 209.762 292.929 210.827L375.488 225.441C378.384 225.956 381.317 225.3 383.749 223.599C386.181 221.898 387.803 219.367 388.315 216.473L389.953 207.226C390.465 204.332 389.811 201.398 388.11 198.966C386.409 196.534 383.879 194.912 380.985 194.399L298.425 179.784C297.781 179.67 297.137 179.614 296.496 179.614Z" fill="#371A45"/>
<path d="M462.107 232.591L210.803 188.108L181.692 352.568L432.996 397.051L462.107 232.591Z" fill="#CCCCCC"/>
<g opacity="0.7">
<path d="M210.792 188.112L209.338 196.326L431.681 235.686C442.75 237.646 450.135 248.207 448.175 259.275L424.064 395.478L432.98 397.057L462.094 232.598L210.792 188.112Z" fill="white"/>
</g>
<g opacity="0.3">
<path d="M349.801 348.878C364.389 339.939 375.416 324.472 378.763 305.569C384.717 271.93 364.095 240.156 332.701 234.598C301.307 229.041 271.03 251.805 265.075 285.444C261.729 304.346 266.776 322.659 277.409 336.063L269.917 334.737C229.928 327.658 202.926 291.324 209.607 253.584L220.881 189.898L210.792 188.112L183.316 343.324L434.618 387.81L438.723 364.619L349.801 348.878Z" fill="#371A45"/>
</g>
<path d="M432.98 402.087C432.688 402.087 432.394 402.062 432.102 402.01L180.801 357.524C179.488 357.291 178.32 356.547 177.556 355.453C176.792 354.359 176.493 353.007 176.725 351.693L205.838 187.235C206.322 184.501 208.929 182.678 211.669 183.158L462.97 227.644C464.284 227.877 465.451 228.621 466.216 229.715C466.98 230.809 467.279 232.16 467.047 233.475L437.934 397.934C437.701 399.247 436.956 400.415 435.862 401.179C435.012 401.774 434.005 402.087 432.98 402.087ZM187.509 348.494L428.903 391.226L456.263 236.675L214.869 193.943L187.509 348.494Z" fill="#371A45"/>
<path d="M323.114 340.229C353.257 340.229 377.693 315.793 377.693 285.65C377.693 255.506 353.257 231.07 323.114 231.07C292.97 231.07 268.534 255.506 268.534 285.65C268.534 315.793 292.97 340.229 323.114 340.229Z" fill="#5F566D"/>
<g opacity="0.6">
<path d="M270.227 284.717C275.482 255.035 302.771 235.05 331.181 240.079C359.59 245.108 378.361 273.247 373.106 302.929C372.483 306.452 371.539 309.832 370.33 313.056C373.457 307.67 375.709 301.653 376.857 295.163C382.112 265.481 362.309 237.16 332.627 231.905C302.945 226.651 274.624 246.454 269.369 276.136C268.221 282.625 268.27 289.05 269.358 295.182C269.329 291.739 269.604 288.24 270.227 284.717Z" fill="white"/>
</g>
<g opacity="0.4">
<path d="M375.634 270.767C376.122 275.847 375.949 281.099 375.009 286.407C369.755 316.089 342.908 336.152 315.046 331.22C287.185 326.288 268.857 298.227 274.112 268.546C275.051 263.238 276.692 258.246 278.894 253.642C274.199 260.118 270.858 267.73 269.37 276.136C264.115 305.817 283.918 334.139 313.6 339.393C343.282 344.648 371.603 324.845 376.858 295.163C378.345 286.757 377.82 278.462 375.634 270.767Z" fill="#371A45"/>
</g>
<g opacity="0.4">
<path d="M357.657 297.287C361.038 278.182 348.089 259.917 328.733 256.491C309.377 253.065 290.945 265.775 287.563 284.88C284.181 303.985 297.131 322.25 316.487 325.676C335.843 329.103 354.275 316.392 357.657 297.287Z" fill="#371A45"/>
</g>
<path d="M323.142 344.259C319.762 344.259 316.34 343.966 312.898 343.356C281.079 337.723 259.775 307.254 265.407 275.435C268.135 260.02 276.704 246.591 289.532 237.622C302.362 228.651 317.913 225.216 333.329 227.943C348.743 230.672 362.172 239.239 371.142 252.068C380.112 264.896 383.548 280.452 380.82 295.865C375.796 324.243 351.014 344.259 323.142 344.259ZM323.006 235.082C312.739 235.082 302.735 238.212 294.145 244.217C283.077 251.956 275.686 263.54 273.332 276.837C268.473 304.286 286.851 330.571 314.301 335.431C341.746 340.284 368.035 321.911 372.894 294.463C375.248 281.165 372.283 267.747 364.546 256.68C356.807 245.613 345.223 238.223 331.926 235.869C328.95 235.342 325.966 235.082 323.006 235.082Z" fill="#371A45"/>
<path d="M323.188 320.873C321.125 320.873 319.049 320.692 316.975 320.325C297.855 316.939 285.053 298.63 288.439 279.51C290.078 270.249 295.227 262.18 302.935 256.79C310.644 251.4 319.99 249.338 329.252 250.975C338.514 252.614 346.583 257.763 351.972 265.471C357.363 273.179 359.428 282.525 357.789 291.787C356.149 301.049 351.001 309.119 343.293 314.509C337.309 318.692 330.339 320.873 323.188 320.873ZM323.101 258.482C310.18 258.482 298.693 267.759 296.365 280.914C293.753 295.664 303.629 309.787 318.379 312.399C333.112 315.003 347.252 305.136 349.863 290.385C352.474 275.635 342.598 261.511 327.849 258.9C326.255 258.618 324.667 258.482 323.101 258.482Z" fill="#371A45"/>
<path d="M345.16 307.705C357.34 295.525 357.34 275.777 345.16 263.597C332.979 251.417 313.231 251.417 301.051 263.597C288.871 275.777 288.871 295.525 301.051 307.705C313.231 319.886 332.979 319.886 345.16 307.705Z" fill="#371A45"/>
<g opacity="0.6">
<path d="M348.8 277.818C349.803 272.153 344.581 266.493 337.137 265.175C329.692 263.857 322.845 267.381 321.842 273.046C320.839 278.711 326.061 284.371 333.505 285.689C340.95 287.007 347.797 283.483 348.8 277.818Z" fill="#39D4FF"/>
</g>
<g opacity="0.6">
<path d="M313.91 299.562C315.37 296.107 313.754 292.122 310.299 290.662C306.844 289.201 302.859 290.818 301.399 294.273C299.938 297.727 301.555 301.712 305.01 303.173C308.465 304.633 312.449 303.017 313.91 299.562Z" fill="white"/>
</g>
<path d="M422.16 264.101L397.888 259.804C393.052 258.948 389.796 254.291 390.652 249.455C391.508 244.619 396.165 241.363 401.001 242.219L425.273 246.515C430.109 247.371 433.365 252.029 432.509 256.864C431.653 261.701 426.996 264.957 422.16 264.101Z" fill="#FF8D06"/>
<path d="M396.131 259.365L407.688 243.402L415.944 244.864L404.47 260.969L396.131 259.365Z" fill="#FF1B40"/>
<path d="M409.674 261.762L421.231 245.8L429.487 247.262L418.013 263.367L409.674 261.762Z" fill="#FF1B40"/>
<g opacity="0.4">
<path d="M422.971 259.519L398.699 255.222C394.66 254.507 391.76 251.132 391.4 247.225C391.069 247.924 390.793 248.658 390.652 249.455C389.796 254.29 393.052 258.948 397.888 259.804L422.16 264.1C426.997 264.956 431.653 261.7 432.51 256.864C432.651 256.067 432.643 255.283 432.572 254.512C430.892 258.059 427.01 260.234 422.971 259.519Z" fill="#371A45"/>
</g>
<path d="M423.722 267.257C423.033 267.257 422.336 267.197 421.634 267.073L397.362 262.776C394.229 262.222 391.494 260.473 389.662 257.851C387.828 255.23 387.125 252.061 387.678 248.929C388.827 242.442 395.039 238.099 401.526 239.246L425.798 243.543C432.286 244.691 436.629 250.903 435.482 257.39C434.457 263.176 429.404 267.257 423.722 267.257ZM422.687 261.128C425.891 261.692 428.969 259.547 429.538 256.338C429.811 254.794 429.461 253.227 428.552 251.927C427.643 250.628 426.292 249.761 424.747 249.489L400.474 245.192C397.261 244.618 394.192 246.771 393.623 249.982C393.056 253.191 395.204 256.264 398.413 256.831L422.687 261.128Z" fill="#371A45"/>
<g opacity="0.6">
<path d="M417.049 252.808L399.629 249.724C398.903 249.595 398.414 248.896 398.542 248.169L398.637 247.633C398.766 246.906 399.465 246.417 400.192 246.545L417.612 249.629C418.338 249.758 418.827 250.458 418.699 251.184L418.604 251.721C418.475 252.448 417.776 252.937 417.049 252.808Z" fill="white"/>
</g>
<path d="M11.5972 353.242C29.6245 296.167 89.1666 245.565 150.976 195.318C164.954 183.954 180.521 174.625 197.32 168.12C245.945 149.291 260.261 169.811 251.567 195.33L210.792 188.112L205.297 219.154C234.424 227.716 256.01 242.033 253.565 254.265C250.453 262.228 238.842 264.226 227.625 262.274C233.636 284.114 223.935 319.851 202.624 330.393C191.406 344.943 178.677 356.863 158.588 355.975C154.959 372.194 148.228 386.66 135.835 397.927C85.4189 399.901 23.5519 383.832 11.5972 353.242Z" fill="white"/>
<path d="M127.306 404.129C75.588 404.129 18.1967 386.714 5.97411 355.44C5.47265 354.156 5.42492 352.74 5.84052 351.425C23.8782 294.315 80.5171 244.817 147.167 190.634C162.081 178.511 178.221 169.042 195.14 162.491C228.784 149.465 244.807 155.329 252.323 162.543C260.365 170.262 262.172 182.922 257.281 197.277C256.321 200.096 253.449 201.792 250.514 201.274L215.684 195.11L212.168 214.971C237.224 223.202 262.96 238.064 259.485 255.449C259.415 255.795 259.316 256.134 259.188 256.463C256.023 264.558 246.968 269.167 235.003 269.014C237.577 292.662 226.985 323.995 206.583 335.137C196.416 348.123 183.359 360.942 163.329 361.99C158.813 378.938 151.12 392.19 139.895 402.394C138.844 403.349 137.489 403.904 136.07 403.959C133.175 404.073 130.249 404.129 127.306 404.129ZM18.0457 352.934C30.3009 378.185 86.2566 393.258 133.355 391.97C142.816 382.733 149.151 370.502 152.696 354.658C153.334 351.802 155.934 349.832 158.853 349.945C175.763 350.714 186.673 341.195 197.843 326.707C198.405 325.98 199.124 325.39 199.947 324.982C217.96 316.072 227.175 283.389 221.805 263.877C221.257 261.883 221.766 259.748 223.157 258.217C224.546 256.686 226.622 255.976 228.66 256.327C237.824 257.924 245.654 256.342 247.708 252.569C248.029 246.349 233.365 233.697 203.594 224.946C200.643 224.079 198.816 221.131 199.352 218.102L204.848 187.06C205.428 183.777 208.565 181.587 211.844 182.168L247.228 188.432C248.808 180.941 247.687 174.828 243.962 171.254C237.016 164.587 220.811 165.498 199.5 173.75C183.759 179.845 168.715 188.677 154.784 200.002C90.5277 252.24 35.8425 299.872 18.0457 352.934Z" fill="#371A45"/>
<path d="M148.551 393.012C139.03 403.744 128.008 413.578 115.434 420.544C114.301 421.176 112.871 420.769 112.239 419.636C111.675 418.625 111.944 417.374 112.812 416.668C123.431 408.018 131.816 397.313 138.887 385.776C143.778 378.522 154.139 386.26 148.551 393.012Z" fill="#371A45"/>
<path d="M204.244 225.099L183.067 217.689C180.458 216.81 181.193 212.821 183.915 212.9L206.348 213.21C215.755 213.908 213.326 227.671 204.244 225.099Z" fill="#371A45"/>
<path d="M226.572 268.219L187.261 257.514C184.532 256.752 185.26 252.662 188.08 252.89L228.677 256.33C232.013 256.613 234.488 259.546 234.205 262.882C233.928 266.615 230.168 269.232 226.572 268.219Z" fill="#371A45"/>
<g opacity="0.25">
<path d="M208.467 185.607C197.993 191.542 191.469 202.424 185.415 212.829C185.175 213.243 184.926 213.723 185.075 214.178C185.26 214.74 185.934 214.943 186.513 215.066C192.353 216.301 198.242 217.542 204.211 217.566C205.129 217.57 206.166 217.491 206.757 216.789C207.234 216.221 207.27 215.416 207.284 214.675C207.443 205.63 207.603 196.585 207.762 187.541" fill="#371A45"/>
</g>
<g opacity="0.25">
<path d="M244.012 240.314L242.331 240.773C244.02 241.994 243.991 244.69 242.775 246.383C241.56 248.075 239.533 248.968 237.558 249.632C227.617 252.973 216.845 252.408 206.375 251.803C197.842 251.311 189.309 250.819 180.776 250.326C181.693 251.764 183.183 253.777 185.456 255.661C191.811 260.925 195.988 258.306 202.241 261.799C213.568 268.127 216.318 285.921 216.943 289.963C216.949 290.004 216.956 290.045 216.962 290.087C218.259 298.619 215.442 307.397 209.348 313.51C206.08 316.789 202.303 319.471 197.872 321.285C195.408 322.293 192.787 323.002 190.563 324.467C188.721 325.681 187.239 327.358 185.568 328.798C173.72 339.003 155.951 335.45 140.32 335.882C138.765 335.925 137.165 336.025 135.761 336.695C131.81 338.58 131.139 343.793 130.722 348.15C127.826 378.439 111.054 407.123 86.0796 424.502C96.9555 425.423 107.77 422.36 117.204 416.769L114.514 420.997C117.25 418.517 119.896 415.939 122.467 413.289C126.007 410.687 129.288 407.725 132.221 404.494C138.352 397.741 143.111 389.933 146.828 381.595C151.55 373.74 155.669 365.522 159.092 357.02C167.975 358.189 177.009 355.104 184.507 350.2C192.006 345.297 198.193 338.668 204.194 332.015C208.115 327.668 212 323.241 215.496 318.551C215.239 319.745 214.97 320.936 214.679 322.12C216.595 318.891 218.326 315.556 219.873 312.137C220.711 310.779 221.521 309.404 222.267 307.989C226.257 300.412 228.704 291.794 228.164 283.307C229.029 276.988 229.317 270.59 228.994 264.219C234.223 264.44 239.498 263.489 244.321 261.456C246.875 260.379 249.436 258.869 250.715 256.41C253.609 250.846 248.606 244.583 244.012 240.314Z" fill="#371A45"/>
</g>
</svg>
