<svg width="2075" height="2506" viewBox="0 0 2075 2506" fill="none" xmlns="http://www.w3.org/2000/svg">
<path d="M1472.73 2010.05L1093.96 1950.71C1010.58 1937.64 953.054 1858.74 966.116 1775.36L1029.53 1370.61C1042.59 1287.23 1121.5 1229.7 1204.88 1242.77L1583.64 1302.11C1667.02 1315.17 1724.55 1394.08 1711.49 1477.46L1648.07 1882.21C1635.01 1965.58 1556.1 2023.11 1472.73 2010.05Z" fill="white"/>
<path d="M1496.63 2031.15C1487.7 2031.15 1478.73 2030.45 1469.75 2029.05L1090.98 1969.71C1045.58 1962.6 1005.58 1938.1 978.33 1900.73C951.089 1863.37 940.005 1817.78 947.119 1772.38L1010.53 1367.63C1017.65 1322.23 1042.14 1282.22 1079.51 1254.98C1116.87 1227.74 1162.47 1216.65 1207.86 1223.77L1586.62 1283.11C1680.68 1297.85 1745.22 1386.37 1730.49 1480.43L1667.07 1885.18C1659.96 1930.58 1635.46 1970.59 1598.09 1997.83C1568.11 2019.69 1532.85 2031.15 1496.63 2031.15ZM1181.06 1260.14C1152.91 1260.14 1125.49 1269.05 1102.17 1286.06C1073.1 1307.25 1054.05 1338.33 1048.53 1373.58L985.116 1778.34C979.589 1813.59 988.216 1849.01 1009.41 1878.08C1030.6 1907.14 1061.68 1926.19 1096.94 1931.71L1475.71 1991.05C1510.94 1996.6 1546.37 1987.95 1575.44 1966.76C1604.5 1945.57 1623.55 1914.48 1629.07 1879.23L1692.49 1474.48C1698.01 1439.23 1689.38 1403.81 1668.19 1374.74C1647 1345.68 1615.92 1326.63 1580.67 1321.11L1201.9 1261.77C1194.95 1260.68 1187.98 1260.14 1181.06 1260.14Z" fill="#371A45"/>
<path d="M2055.23 1827.12C2055.32 1896.59 1976.7 1968.73 1882.52 1957.96C1812.4 1949.96 1776.13 1902.98 1776.13 1902.98C1776.13 1902.98 1772.37 1910.68 1765.63 1919.56C1752.91 1936.31 1729.59 1957.26 1700.85 1938.58C1661.26 1912.87 1712.13 1809.54 1712.13 1809.54C1712.13 1809.54 1711.74 1808.62 1711 1806.87C1705.09 1793.31 1676.61 1729.44 1630.2 1654.81C1594.81 1597.99 1549.01 1534.86 1494.89 1482.94C1481.38 1469.94 1476.65 1456.03 1477.97 1441.99C1478.41 1437.27 1479.54 1432.54 1481.25 1427.82C1495.56 1387.83 1550.98 1348.9 1583.22 1329C1597.21 1320.38 1606.84 1315.31 1606.84 1315.31C1624.82 1328.08 1645.16 1346.63 1666.9 1369.68C1741.14 1448.16 1832.57 1578.78 1908.15 1712.07C1958.29 1800.44 2040.26 1737.4 2053.78 1811.2C2054.75 1816.45 2055.23 1821.79 2055.23 1827.12Z" fill="white"/>
<g opacity="0.25">
<path d="M2055.22 1827.12C2055.32 1896.59 1976.7 1968.73 1882.52 1957.96C1812.4 1949.96 1776.13 1902.98 1776.13 1902.98C1776.13 1902.98 1772.37 1910.68 1765.63 1919.55C1768.47 1906.39 1775.78 1874.45 1780.29 1872.62C1813.09 1859.1 1851.72 1923.54 1933.92 1918.16C1989.61 1914.53 2029.07 1871.61 2055.22 1827.12Z" fill="#371A45"/>
</g>
<g opacity="0.25">
<path d="M1711 1806.87C1705.09 1793.31 1676.61 1729.44 1630.2 1654.81C1594.81 1597.99 1549.01 1534.86 1494.9 1482.94C1481.38 1469.95 1476.65 1456.04 1477.96 1441.99L1600.49 1411.2C1600.49 1411.2 1663.7 1559.19 1704.65 1689.42C1723.81 1750.35 1719.13 1786.57 1711 1806.87Z" fill="#371A45"/>
</g>
<path d="M1901.1 1978.26C1894.19 1978.26 1887.26 1977.86 1880.32 1977.07C1832.25 1971.57 1798.43 1949.64 1779.33 1933.32C1769.96 1945.12 1756.11 1958.16 1738.29 1963.1C1722.22 1967.55 1705.67 1964.64 1690.37 1954.71C1644.18 1924.7 1676.9 1840.25 1691 1809.24C1674.24 1771.82 1596.55 1607.13 1481.6 1496.82C1463.82 1479.76 1456.08 1459.03 1459.21 1436.88C1468.96 1367.87 1584.71 1305.19 1597.87 1298.27C1604.29 1294.9 1612.05 1295.42 1617.96 1299.62C1696.48 1355.43 1819.84 1517.39 1924.89 1702.59C1946.11 1739.98 1972.36 1744.12 2000.15 1748.5C2028.46 1752.96 2063.69 1758.51 2072.71 1807.75C2079.72 1846.05 2065.74 1887.27 2034.34 1920.85C2000.01 1957.57 1951.35 1978.26 1901.1 1978.26ZM1776.13 1883.78C1782.05 1883.78 1787.69 1886.49 1791.35 1891.22C1791.61 1891.55 1824.11 1931.93 1884.69 1938.86C1930.02 1944.08 1975.48 1927.5 2006.25 1894.58C2028.9 1870.35 2039.61 1840.48 2034.88 1814.68C2030.94 1793.21 2022.58 1790.96 1994.17 1786.49C1963.63 1781.68 1921.8 1775.09 1891.44 1721.56C1794.76 1551.12 1679.1 1396.58 1605.19 1338.12C1562.15 1362.71 1502.14 1407.78 1497.29 1442.28C1496.42 1448.44 1496.6 1457.92 1508.23 1469.07C1643.81 1599.18 1726.41 1793.87 1729.86 1802.09C1732.01 1807.22 1731.84 1813.03 1729.38 1818.02C1708.98 1859.59 1696.92 1913.1 1711.33 1922.46C1719.24 1927.6 1724.62 1926.98 1727.97 1926.05C1742.36 1922.12 1755.43 1901.43 1758.88 1894.49C1761.82 1888.55 1767.63 1884.52 1774.23 1883.87C1774.86 1883.81 1775.5 1883.78 1776.13 1883.78Z" fill="#371A45"/>
<path d="M1212.26 1281.97L1186.76 1351.22L1168.47 1400.74L1122.76 1524.8C1122.76 1524.8 1103.51 1526.25 1071 1521.78C1059.28 1520.16 1045.85 1517.8 1030.98 1514.3C989.289 1504.59 936.187 1486.09 878.049 1451.27C661.813 1321.87 622.355 1106.34 622.355 1106.34L854.247 978.12C869.514 1116.75 965.053 1193.3 1053.59 1234.86C1061.21 1238.45 1068.73 1241.73 1076.17 1244.79C1101.76 1255.38 1126.08 1263.08 1146.91 1268.68C1156.61 1271.26 1165.54 1273.4 1173.5 1275.11C1197.3 1280.31 1212.26 1281.97 1212.26 1281.97Z" fill="white"/>
<g opacity="0.25">
<path d="M1212.26 1281.96L1168.47 1400.75L1122.77 1524.81C1122.77 1524.81 1087.11 1527.48 1030.98 1514.31C989.271 1504.57 936.204 1486.07 878.062 1451.28C661.813 1321.87 622.359 1106.34 622.359 1106.34L717.373 1053.83C776.061 1117.19 790.943 1259.35 853.538 1348.62C915.319 1436.8 1052.29 1430.48 1129.63 1368.29C1155.7 1347.35 1170.57 1306.89 1187.03 1277.89C1202.84 1280.93 1212.26 1281.96 1212.26 1281.96Z" fill="#371A45"/>
</g>
<path d="M1113.78 1544.26C1082.53 1544.26 985.356 1537.93 868.169 1467.79C647.022 1335.42 605.117 1118.96 603.442 1109.81L600.952 1096.21L870.22 947.333L873.379 976.024C900.82 1225.42 1211.23 1262.51 1214.36 1262.85C1224.92 1264.01 1232.53 1273.52 1231.36 1284.07C1230.2 1294.63 1220.7 1302.23 1210.14 1301.08C1206.65 1300.69 1123.62 1291.15 1035.77 1247.63C927.006 1193.76 859.628 1111.41 839.423 1008.31L644.438 1116.11C657.129 1163.84 712.426 1329.75 887.924 1434.79C1016.72 1511.88 1120.37 1505.68 1121.39 1505.61C1131.99 1504.89 1141.16 1512.84 1141.93 1523.41C1142.69 1533.99 1134.78 1543.18 1124.2 1543.97C1123.45 1544.02 1119.86 1544.26 1113.78 1544.26Z" fill="#371A45"/>
<path d="M835.884 1435.46C830.698 1435.46 825.913 1432.08 824.365 1426.85C822.48 1420.49 826.113 1413.8 832.475 1411.91C918.935 1386.31 995.478 1264.37 990.883 1208.12C990.341 1201.5 995.268 1195.7 1001.88 1195.16C1008.5 1194.58 1014.3 1199.54 1014.84 1206.16C1020.66 1277.47 930.864 1407.84 839.301 1434.96C838.164 1435.3 837.012 1435.46 835.884 1435.46Z" fill="#371A45"/>
<path d="M546.307 1093.28C547.291 1094.94 548.306 1096.65 549.4 1098.33C548.836 1096.78 548.298 1095.27 547.79 1093.85L546.307 1093.28Z" fill="white"/>
<path d="M859.592 1074.76C806.245 1200.2 676.427 1165.97 641.606 1151.07C568.994 1119.97 554.947 1044.29 554.947 1044.29L629.497 973.805L663.946 934.68L698.006 930.354C731.256 888.175 794.337 844.583 822.399 868.376C822.399 868.376 905.586 966.649 859.592 1074.76Z" fill="white"/>
<g opacity="0.25">
<path d="M794.231 1031.23C787.45 1071.95 763.999 1072.32 763.999 1124.3C763.999 1127.3 769.428 1157.65 773.321 1159.01C720.04 1176.64 662.952 1160.23 641.605 1151.09C568.988 1119.99 554.946 1044.31 554.946 1044.31L560.808 1038.75L629.488 973.789L650.092 950.385C683.294 944.304 716.059 942.336 732.858 945.136C745.719 947.28 757.268 952.616 766.804 960.184C787.494 976.502 798.912 1003.36 794.231 1031.23Z" fill="#371A45"/>
</g>
<g opacity="0.25">
<path d="M846.682 905.898C836.621 914.91 827.347 924.752 819.691 934.464L785.657 938.795L766.803 960.186C757.267 952.618 745.718 947.281 732.852 945.138C716.058 942.338 683.293 944.307 650.091 950.388L663.954 934.683L697.992 930.352C731.238 888.182 794.319 844.568 822.403 868.365C822.403 868.365 834.346 882.494 846.682 905.898Z" fill="#371A45"/>
</g>
<g opacity="0.25">
<path d="M650.09 950.386L629.486 973.79L560.806 1038.75C551.795 1026.33 548.601 1013.03 550.744 1000.21C554.77 976.283 602.846 959.091 650.09 950.386Z" fill="#371A45"/>
</g>
<path d="M822.392 868.387C785.143 836.799 686.288 923.856 677.215 968.826C670.294 1003.16 706.367 1038.8 762.597 1002.92C819.566 966.569 880.888 917.995 822.392 868.387Z" fill="white"/>
<path d="M763.556 1044.67L766.041 1043.75C764.558 1042.12 763.211 1040.56 761.955 1038.94C762.406 1040.81 762.922 1042.73 763.556 1044.67Z" fill="white"/>
<g opacity="0.25">
<path d="M771.387 967.22C781.177 945.93 707.616 992.002 676.723 971.835C673.635 1000.13 707.826 1022.59 750.28 995.182C755.476 977.592 771.387 967.22 771.387 967.22Z" fill="#371A45"/>
</g>
<path d="M554.958 1044.37C555.098 1045.12 556.266 1050.93 559.28 1059.65L561.437 1060.47L554.958 1044.37Z" fill="white"/>
<path d="M859.59 1093.99C857.08 1093.99 854.531 1093.5 852.07 1092.45C842.299 1088.3 837.749 1077 841.904 1067.23C879.643 978.51 818.491 894.624 808.916 882.321C803.306 879.037 792.69 882.133 788.179 883.7C749.668 897.072 701.167 947.335 696.065 972.631C694.918 978.346 697.295 983.246 702.593 986.073C712.701 991.466 733.238 988.981 757.813 964.21C765.298 956.671 777.466 956.625 785.01 964.1C792.549 971.58 792.598 983.756 785.118 991.295C745.709 1031.02 707.291 1032.17 684.488 1020C664.083 1009.12 653.829 987.537 658.365 965.03C666.48 924.805 726.724 864.327 775.562 847.369C805.918 836.827 824.546 845.003 834.83 853.721C835.636 854.405 836.388 855.154 837.071 855.96C840.777 860.342 927.344 964.62 877.296 1082.28C874.184 1089.6 867.07 1093.99 859.59 1093.99Z" fill="#371A45"/>
<path d="M641.582 1170.29C639.058 1170.29 636.489 1169.79 634.023 1168.73C551.87 1133.55 542.28 1040.82 541.914 1036.89C540.923 1026.32 548.691 1016.94 559.268 1015.95C569.805 1014.96 579.185 1022.71 580.201 1033.26C580.333 1034.5 588.512 1107.4 649.161 1133.38C658.927 1137.56 663.448 1148.86 659.268 1158.63C656.142 1165.92 649.043 1170.29 641.582 1170.29Z" fill="#371A45"/>
<path d="M1633.83 1858.3C1630.42 1996.72 1603.25 2147.28 1521.23 2272.09C1521.23 2272.09 1579.89 2352.48 1570.53 2414.84C1566.68 2440.38 1551.46 2462.93 1516.02 2475.63C1428.23 2507.16 1356.75 2493.24 1307.49 2426.58C1278.1 2386.8 1255.17 2307.87 1276.13 2228.3C1294.37 2158.97 1325.87 2090.41 1332.29 2018.37C1332.29 2018.37 1243.1 2024.6 1161.69 1999.22C1122.62 1987 1085.35 1967.53 1060.59 1936.53C1030.24 1898.57 1021 1848.26 1023.85 1794.39C1025.16 1769.42 1029.05 1743.64 1034.61 1717.94C1043.62 1676.45 1057.01 1635.21 1071 1597.89C1099.09 1522.94 1129.4 1463.85 1130.98 1450.41C1130.98 1450.41 1133.78 1433.45 1145.33 1410.75C1151.71 1398.2 1160.77 1383.83 1173.5 1369.67C1208.1 1331.26 1269.74 1293.98 1378.44 1296.09C1505.7 1298.51 1560.03 1364.2 1583.22 1419.53C1594.98 1447.62 1598.74 1473.03 1599.92 1486.19C1600.49 1492.14 1600.49 1495.58 1600.49 1495.58C1608.76 1545.12 1623.2 1625.78 1630.19 1720.97C1631.59 1740.07 1632.73 1759.74 1633.39 1779.9C1634.27 1805.4 1634.48 1831.63 1633.83 1858.3Z" fill="white"/>
<path d="M1609.15 1409.87C1617.05 1444.87 1624.04 1480.22 1630.09 1515.77C1636.01 1551.34 1640.89 1587.15 1644.53 1623.12C1646.31 1641.11 1647.86 1659.14 1649.06 1677.2C1650.24 1695.26 1651.09 1713.36 1651.65 1731.48C1652.76 1767.7 1652.88 1804.02 1651.24 1840.34C1649.54 1876.65 1646.53 1912.98 1641.5 1949.11C1636.43 1985.23 1629.62 2021.18 1620.68 2056.7C1611.71 2092.21 1600.37 2127.23 1586.27 2161.2C1572.24 2195.19 1555.76 2228.28 1536.2 2259.56L1535.75 2240.68L1535.76 2240.7C1541.79 2249.89 1546.75 2258.47 1551.72 2267.6C1556.61 2276.65 1561.19 2285.88 1565.41 2295.31C1573.85 2314.18 1580.94 2333.92 1585.28 2354.98C1589.55 2375.91 1591.1 2398.78 1584.77 2421.87C1578.54 2444.93 1561.68 2466.25 1541.33 2477.47C1538.81 2478.89 1536.32 2480.49 1533.74 2481.72L1525.96 2485.21L1522.09 2486.9L1518.41 2488.22L1511.05 2490.85C1506.19 2492.7 1501.14 2494.15 1496.09 2495.6L1488.53 2497.81L1480.79 2499.58C1460.18 2504.28 1438.48 2506.55 1416.56 2504.5C1394.69 2502.53 1372.77 2495.93 1353.45 2484.87C1334.07 2473.9 1317.54 2458.83 1304.1 2442.13C1300.77 2437.94 1297.7 2433.58 1294.5 2429.3C1292.87 2427.22 1291.47 2424.79 1289.98 2422.5C1288.52 2420.18 1286.97 2417.88 1285.73 2415.5C1283.07 2410.78 1280.5 2406.04 1278.3 2401.19C1275.88 2396.4 1273.96 2391.49 1271.91 2386.6C1264.01 2366.98 1258.72 2346.68 1255.18 2326.12C1248.3 2285.04 1248.9 2242.54 1258.55 2201.67C1267.95 2162.08 1280.61 2124.52 1291.52 2087.03C1302.46 2049.62 1311.78 2012.27 1314.87 1974.8V1974.8L1333.64 1993.68C1323.88 1994.44 1315.08 1994.71 1305.86 1994.85C1296.75 1994.96 1287.64 1994.88 1278.54 1994.45C1260.35 1993.72 1242.17 1992.01 1224.03 1989.42C1187.83 1984.09 1151.44 1974.93 1117.33 1957.89C1100.3 1949.44 1083.95 1938.78 1069.33 1925.67C1065.7 1922.35 1062.04 1919.08 1058.74 1915.38L1053.67 1909.96L1048.97 1904.17C1047.46 1902.21 1045.78 1900.35 1044.4 1898.3L1040.32 1892.12L1036.25 1885.93L1034.23 1882.83L1032.52 1879.57L1025.81 1866.49C1023.73 1862.07 1022.14 1857.49 1020.3 1852.98C1019.43 1850.72 1018.5 1848.47 1017.69 1846.19L1015.65 1839.27C1014.36 1834.65 1012.79 1830.06 1011.78 1825.4L1008.89 1811.42C1007.81 1806.76 1007.54 1802.07 1006.85 1797.39C1005.42 1788.03 1005.1 1778.71 1004.51 1769.39C1003.22 1732.14 1007.35 1695.62 1013.94 1660C1020.86 1624.44 1030.28 1589.69 1041.13 1555.58C1046.72 1538.58 1052.27 1521.59 1058.69 1504.95C1061.77 1496.58 1065.04 1488.3 1068.28 1480.01L1078.62 1455.42C1085.68 1439.13 1093.06 1422.99 1100.75 1407.11L1112.25 1383.41C1114.13 1379.51 1116.09 1375.61 1117.82 1371.78C1119.63 1367.99 1121.31 1364.04 1122.26 1361.47L1122.99 1359.5C1124.64 1355.04 1129.6 1352.75 1134.06 1354.4C1137.82 1355.79 1140.02 1359.52 1139.66 1363.32C1139.39 1366.13 1139.03 1369.31 1138.52 1371.45C1138.03 1373.84 1137.57 1376.26 1136.96 1378.42C1135.82 1382.92 1134.6 1387.25 1133.33 1391.57C1130.7 1400.15 1128.09 1408.64 1125.24 1417C1119.7 1433.8 1113.89 1450.36 1108.19 1466.92C1096.75 1500.04 1085.25 1532.92 1075.15 1566.16C1065.2 1599.4 1056.73 1632.97 1050.73 1666.74C1044.96 1700.47 1041.42 1734.49 1042.92 1767.75C1043.76 1784.35 1045.94 1800.67 1049.51 1816.43C1050.34 1820.39 1051.69 1824.14 1052.73 1828.02L1054.39 1833.79C1055.05 1835.66 1055.83 1837.48 1056.54 1839.33C1058.05 1842.98 1059.3 1846.76 1060.97 1850.32L1066.31 1860.76C1081.16 1888.15 1105.48 1909 1134.61 1923.53C1193.05 1952.21 1264.26 1960.58 1330.99 1958.78L1351.72 1958.23L1349.75 1977.68V1977.68C1346.33 2018.97 1336.27 2058.59 1325.11 2096.84C1313.96 2135.08 1301.43 2172.42 1292.63 2209.64C1284.09 2245.63 1283.53 2283.6 1289.68 2320.25C1292.82 2338.55 1297.56 2356.66 1304.42 2373.64C1306.19 2377.84 1307.84 2382.13 1309.89 2386.15C1311.77 2390.29 1313.92 2394.21 1316.09 2398.09C1317.11 2400.1 1318.36 2401.87 1319.51 2403.73C1320.71 2405.57 1321.75 2407.44 1323.18 2409.25C1325.9 2412.85 1328.51 2416.58 1331.3 2420.1C1342.57 2434.11 1355.82 2446 1370.81 2454.48C1385.77 2463 1402.43 2468.06 1419.81 2469.66C1437.2 2471.28 1455.23 2469.52 1473.03 2465.45L1479.72 2463.94L1486.36 2461.99C1490.79 2460.71 1495.22 2459.46 1499.58 2457.78L1506.16 2455.43L1509.45 2454.26L1512.34 2452.97L1518.07 2450.43C1519.94 2449.55 1521.58 2448.4 1523.37 2447.43C1527.05 2445.58 1529.86 2442.92 1533.08 2440.68C1535.77 2437.97 1538.72 2435.5 1540.88 2432.43C1545.47 2426.53 1549.06 2419.87 1551.11 2412.29C1555.3 2397.18 1554.65 2379.53 1550.99 2361.97C1547.38 2344.36 1541.14 2326.71 1533.46 2309.6C1529.63 2301.03 1525.44 2292.57 1520.94 2284.27C1516.5 2276.06 1511.54 2267.57 1506.75 2260.27L1506.74 2260.26L1500.55 2251.31L1506.29 2241.38C1523.74 2211.23 1538.97 2179.78 1551.75 2147.28C1564.43 2114.75 1575.21 2081.39 1583.78 2047.37C1592.27 2013.33 1598.77 1978.73 1603.59 1943.84C1608.45 1908.96 1611.91 1873.81 1613.8 1838.5C1615.59 1803.19 1616.34 1767.77 1615.76 1732.32C1615.5 1714.59 1614.96 1696.86 1614.1 1679.13C1613.4 1661.39 1612.41 1643.64 1611.17 1625.91C1606.69 1554.9 1598.57 1484.12 1591.86 1412.54C1591.4 1407.72 1594.94 1403.45 1599.76 1402.99C1604.21 1402.58 1608.18 1405.55 1609.13 1409.79L1609.15 1409.87Z" fill="#371A45"/>
<g opacity="0.25">
<path d="M1633.83 1807.09C1629.23 1808.75 1624.33 1809.63 1619.17 1809.67C1582.25 1809.89 1530.5 1807.09 1493.06 1792.57L1490.91 1811.16C1487.94 1836.92 1464.41 1855.6 1438.64 1852.63L1182.82 1823.19C1157.05 1820.21 1138.41 1796.72 1141.39 1770.91L1143.09 1756.04C1107 1757.35 1065.71 1749.78 1035.26 1742.48C1031.15 1741.52 1027.34 1739.98 1023.85 1738.02C1025.16 1711.02 1029.05 1683.16 1034.61 1655.38C1038.15 1654.46 1041.87 1653.98 1045.67 1653.98C1048.08 1653.98 1050.49 1654.2 1052.94 1654.59C1081.19 1659.19 1119.95 1664.48 1153.51 1665.4L1157.36 1631.98C1160.33 1606.26 1183.82 1587.58 1209.59 1590.55L1465.41 1619.99C1486.01 1622.35 1502.07 1637.84 1506.18 1657.13C1507.19 1661.99 1507.49 1667.06 1506.88 1672.22L1503.29 1703.55C1539.03 1712.99 1587.85 1717.76 1621.97 1720.08C1625.95 1720.34 1629.8 1721.14 1633.39 1722.36C1634.27 1749.92 1634.48 1778.26 1633.83 1807.09Z" fill="#371A45"/>
</g>
<path d="M1177.77 1708.6C1136.63 1719.99 1076.18 1709.66 1035.29 1699.87C1010.76 1694 995.943 1669.04 1002.46 1644.67C1008.4 1622.44 1030.21 1608.28 1052.92 1611.98C1091.5 1618.26 1149.59 1625.81 1187.38 1621.87" fill="white"/>
<g opacity="0.35">
<path d="M1177.78 1708.59C1136.64 1719.98 1076.17 1709.67 1035.28 1699.87C1010.77 1694.01 995.942 1669.04 1002.45 1644.66C1003.83 1639.48 1006.07 1634.72 1009.03 1630.54C1014.24 1643.56 1025.46 1653.92 1040.16 1657.45C1080.99 1667.22 1141.35 1677.55 1182.48 1666.22L1177.78 1708.59Z" fill="#371A45"/>
</g>
<path d="M1134.79 1725.59C1100.1 1725.59 1062.28 1718.69 1032.49 1711.56C1017.47 1707.96 1004.84 1698.67 996.928 1685.39C989.003 1672.09 986.845 1656.53 990.844 1641.57C998.432 1613.23 1026 1595.42 1054.85 1600.12C1111.55 1609.35 1158.17 1612.82 1186.13 1609.92C1192.17 1609.27 1206.84 1610.86 1212.15 1638.93C1217.42 1666.76 1211.15 1711.83 1180.98 1720.19C1167.09 1724.03 1151.29 1725.59 1134.79 1725.59ZM1045.65 1623.41C1031.04 1623.41 1017.97 1633.17 1014.07 1647.78C1011.76 1656.42 1013 1665.41 1017.58 1673.09C1022.14 1680.75 1029.42 1686.11 1038.09 1688.18C1096.34 1702.12 1144.81 1705.25 1174.56 1697.02C1182.09 1694.94 1185.93 1683.45 1187.23 1678.6C1192.33 1659.61 1188.96 1640.06 1185.71 1634.11C1147.28 1637.47 1091.5 1630.44 1050.99 1623.84C1049.2 1623.55 1047.41 1623.41 1045.65 1623.41Z" fill="#371A45"/>
<path d="M1478.43 1743.2C1515.9 1763.64 1577.12 1767.31 1619.17 1767.06C1644.39 1766.92 1664.49 1745.97 1663.68 1720.76C1662.94 1697.76 1644.92 1679.02 1621.96 1677.47C1582.96 1674.82 1524.67 1668.97 1488.77 1656.56" fill="white"/>
<g opacity="0.35">
<path d="M1619.18 1767.06C1577.11 1767.32 1515.9 1763.63 1478.42 1743.19L1483.46 1700.94C1520.94 1721.32 1582.04 1724.97 1624.05 1724.73C1639.16 1724.64 1652.48 1717.04 1660.51 1705.55C1662.39 1710.26 1663.52 1715.4 1663.69 1720.75C1664.49 1745.98 1644.39 1766.93 1619.18 1767.06Z" fill="#371A45"/>
</g>
<path d="M1615.35 1779.09C1570.54 1779.09 1510.82 1774.55 1472.68 1753.75C1445.19 1738.76 1449.32 1693.45 1460.76 1667.55C1472.31 1641.41 1486.94 1643.22 1492.7 1645.2C1519.26 1654.38 1565.45 1661.58 1622.77 1665.48C1652 1667.46 1674.75 1691.06 1675.69 1720.38C1676.19 1735.86 1670.55 1750.52 1659.81 1761.68C1649.1 1772.81 1634.68 1778.99 1619.24 1779.08C1617.95 1779.09 1616.65 1779.09 1615.35 1779.09ZM1487.61 1668.85C1483.1 1673.91 1475.38 1692.18 1476.03 1711.84C1476.2 1716.85 1477.32 1728.91 1484.18 1732.65H1484.18C1510.73 1747.13 1557.21 1755.06 1615.34 1755.06C1616.59 1755.06 1617.84 1755.05 1619.1 1755.05C1628 1755 1636.31 1751.43 1642.49 1745.01C1648.69 1738.57 1651.95 1730.09 1651.66 1721.15C1651.12 1704.23 1638 1690.6 1621.14 1689.46C1580.18 1686.68 1524.26 1680.85 1487.61 1668.85Z" fill="#371A45"/>
<path d="M1506.89 1629.61L1490.9 1768.54C1487.93 1794.32 1464.41 1812.98 1438.66 1810.02L1182.82 1780.58C1157.04 1777.61 1138.4 1754.1 1141.37 1728.31L1157.36 1589.39C1160.32 1563.64 1183.81 1544.97 1209.59 1547.94L1465.43 1577.38C1486.01 1579.75 1502.06 1595.24 1506.17 1614.52C1507.19 1619.36 1507.48 1624.43 1506.89 1629.61Z" fill="white"/>
<g opacity="0.25">
<path d="M1506.89 1629.61L1490.9 1768.54C1487.93 1794.32 1464.41 1812.98 1438.66 1810.02L1182.82 1780.58C1157.04 1777.61 1138.4 1754.1 1141.37 1728.31L1146.75 1681.56C1188.08 1711.06 1286.8 1763.19 1337.05 1744.73C1368.79 1733.07 1374.35 1684.75 1374.35 1684.75C1374.35 1684.75 1442.52 1645.81 1453.81 1685.54C1476.05 1763.82 1500.35 1628.67 1506.17 1614.52C1507.19 1619.36 1507.48 1624.43 1506.89 1629.61Z" fill="#371A45"/>
</g>
<path d="M1444.11 1822.34C1441.84 1822.34 1439.56 1822.21 1437.28 1821.94L1181.44 1792.5C1149.02 1788.77 1125.69 1759.37 1129.42 1726.95L1145.41 1588.02C1149.14 1555.61 1178.55 1532.28 1210.96 1535.99L1466.8 1565.44C1499.21 1569.17 1522.55 1598.58 1518.82 1630.99L1502.83 1769.92C1501.03 1785.57 1493.21 1799.62 1480.8 1809.47C1470.2 1817.88 1457.37 1822.34 1444.11 1822.34ZM1204.18 1559.64C1186.58 1559.64 1171.35 1572.87 1169.29 1590.76L1153.3 1729.7C1151.08 1748.95 1164.94 1766.41 1184.19 1768.63L1440.03 1798.07C1449.32 1799.13 1458.47 1796.5 1465.86 1790.64C1473.23 1784.78 1477.89 1776.45 1478.95 1767.18L1494.95 1628.24C1497.15 1608.99 1483.3 1591.53 1464.05 1589.32L1208.21 1559.87C1206.86 1559.72 1205.51 1559.64 1204.18 1559.64Z" fill="#371A45"/>
<path d="M1455.15 1694.05C1452.58 1716.36 1432.42 1732.37 1410.1 1729.8C1387.79 1727.23 1371.78 1707.07 1374.35 1684.75C1376.92 1662.44 1397.09 1646.43 1419.4 1649C1441.71 1651.57 1457.72 1671.74 1455.15 1694.05Z" fill="#22A7F0"/>
<g opacity="0.5">
<path d="M1455.16 1694.05C1454.77 1697.46 1453.97 1700.71 1452.82 1703.79C1450.41 1685.76 1436.04 1670.94 1417.14 1668.76C1398.23 1666.59 1380.88 1677.76 1374.44 1694.77C1374.01 1691.51 1373.97 1688.15 1374.36 1684.75C1376.93 1662.43 1397.1 1646.43 1419.41 1649C1441.73 1651.57 1457.73 1671.73 1455.16 1694.05Z" fill="white"/>
</g>
<g opacity="0.35">
<path d="M1455.15 1694.04C1452.59 1716.37 1432.41 1732.36 1410.1 1729.79C1387.8 1727.23 1371.78 1707.07 1374.35 1684.74C1374.78 1681.01 1375.73 1677.41 1377.06 1674.09C1379.85 1691.67 1394.07 1705.99 1412.6 1708.12C1431.13 1710.26 1448.22 1699.54 1454.93 1683.05C1455.49 1686.59 1455.59 1690.3 1455.15 1694.04Z" fill="#371A45"/>
</g>
<path d="M1414.85 1737.28C1413 1737.28 1411.14 1737.18 1409.28 1736.96C1396.58 1735.5 1385.2 1729.18 1377.25 1719.16C1369.3 1709.15 1365.72 1696.63 1367.19 1683.93C1368.65 1671.22 1374.97 1659.85 1384.99 1651.9C1395.01 1643.95 1407.52 1640.38 1420.23 1641.84C1446.45 1644.86 1465.33 1668.65 1462.32 1694.88C1460.86 1707.58 1454.53 1718.96 1444.51 1726.91C1435.97 1733.69 1425.6 1737.28 1414.85 1737.28ZM1414.68 1655.94C1407.17 1655.94 1399.93 1658.45 1393.95 1663.19C1386.95 1668.75 1382.53 1676.7 1381.51 1685.58C1380.49 1694.45 1382.99 1703.2 1388.54 1710.2C1394.1 1717.2 1402.05 1721.61 1410.93 1722.64C1429.29 1724.74 1445.87 1711.55 1447.99 1693.23C1449.01 1684.35 1446.51 1675.6 1440.96 1668.6C1435.41 1661.6 1427.46 1657.19 1418.57 1656.17C1417.27 1656.02 1415.97 1655.94 1414.68 1655.94Z" fill="#371A45"/>
<path d="M1286.89 1804.56C1286.44 1804.56 1285.97 1804.53 1285.51 1804.48C1278.91 1803.72 1274.18 1797.76 1274.94 1791.16L1282.66 1724.12C1284.53 1707.81 1278.55 1691.31 1266.64 1679.99C1249.28 1663.48 1240.56 1639.44 1243.3 1615.67L1250.55 1552.65C1251.3 1546.05 1257.34 1541.32 1263.86 1542.08C1270.45 1542.84 1275.19 1548.8 1274.42 1555.4L1267.17 1618.42C1265.29 1634.74 1271.28 1651.24 1283.19 1662.57C1300.54 1679.05 1309.27 1703.09 1306.53 1726.87L1298.82 1793.91C1298.11 1800.04 1292.91 1804.56 1286.89 1804.56Z" fill="#371A45"/>
<path d="M1182.63 1914.47C1187.41 1955.79 1192.28 2002.72 1197.1 2049.93C1205.43 2131.71 1183.2 2315.45 1028.09 2307.09C929.094 2301.75 871.219 2244.74 934.028 2067.98C934.028 2067.98 816.717 1814.2 928.201 1708.08C958.11 1679.62 993.858 1665.87 1028.72 1666.79L1039.37 1667.53C1169.9 1687.19 1240.71 1842.7 1240.71 1842.7" fill="white"/>
<g opacity="0.25">
<path d="M1570.53 2408.62C1566.68 2436.23 1551.46 2460.6 1516.03 2474.33C1428.23 2508.41 1356.75 2493.36 1307.49 2421.31C1278.1 2378.31 1255.17 2293.01 1276.13 2207C1294.37 2132.07 1325.87 2057.97 1332.3 1980.1C1332.3 1980.1 1245.32 1977.33 1187.98 1962.5C1190.24 1983.68 1193.49 2014.53 1197.08 2049.92C1205.44 2131.72 1183.21 2315.45 1028.09 2307.09C961.252 2303.51 913.132 2276.34 908.32 2204.64C929.361 2231.16 964.182 2242.92 1006.53 2245.2C1161.65 2253.55 1183.87 2069.82 1175.56 1988.02C1174.68 1979.53 1175.69 1884.38 1178.14 1871.04C1178.14 1871.04 1240.26 1900.43 1282.38 1914.47C1337.72 1932.91 1427.86 1931.49 1490.39 1919.74C1497.6 1918.39 1502.44 1926.88 1497.53 1932.34C1455.58 1978.99 1346.28 2107.38 1324.12 2201.98C1306.05 2279.18 1307.8 2411.86 1414.76 2441.78C1463.53 2455.43 1520.49 2436.06 1570.53 2408.62Z" fill="#371A45"/>
</g>
<path d="M1191.32 1913.46C1198.08 1946.46 1203.48 1979.64 1208.36 2012.89C1209.65 2021.19 1210.77 2029.52 1211.92 2037.84C1212.47 2042.05 1213.09 2046.03 1213.6 2050.44C1214.15 2054.87 1214.59 2059.28 1214.91 2063.68C1216.04 2081.29 1215.93 2098.8 1214.64 2116.29C1211.74 2151.17 1204.81 2186.11 1190.87 2219.53C1183.78 2236.16 1174.79 2252.38 1163.16 2267.09C1151.56 2281.76 1137.37 2295.07 1120.76 2304.93C1104.21 2314.82 1085.66 2321.28 1067 2324.31C1048.34 2327.32 1029.4 2327.08 1011.66 2325.03C1002.64 2324.03 993.54 2322.53 984.441 2320.22C975.355 2318 966.239 2315.05 957.363 2310.94C948.487 2306.89 939.826 2301.81 931.855 2295.51C923.941 2289.14 916.842 2281.56 911.002 2273.18C905.123 2264.82 900.521 2255.67 897.301 2246.34C893.998 2237.02 891.715 2227.52 890.595 2218.12C888.11 2199.29 888.845 2180.92 891.076 2163.2C895.547 2127.67 905.669 2094.36 917.542 2062.13V2062.12L918.146 2075.33C913.505 2065.02 909.607 2055.33 905.714 2045.24C901.899 2035.22 898.22 2025.17 894.843 2015C887.971 1994.72 882.035 1974.1 877.017 1953.18C867.109 1911.36 860.809 1868.06 863.119 1823.61C864.348 1801.44 868.215 1778.91 876.129 1757.17C884.016 1735.5 896.326 1714.66 913.067 1697.73C929.366 1681.13 948.899 1667.59 970.985 1658.74C982 1654.33 993.623 1651.26 1005.49 1649.55C1011.46 1648.72 1017.33 1648.24 1023.52 1648.16C1030.28 1648.01 1035.11 1648.62 1040.66 1648.93L1041.42 1648.97L1042.14 1649.09C1054.68 1651.18 1067.09 1654.05 1079.04 1658.24C1090.93 1662.47 1102.54 1667.47 1113.41 1673.66C1135.27 1685.79 1154.89 1701.07 1172.32 1718.09C1189.6 1735.24 1205.54 1753.56 1218.4 1773.86C1224.94 1783.93 1230.79 1794.4 1235.92 1805.21C1241.08 1816.08 1245.45 1827.03 1248.68 1839.07C1249.94 1843.8 1247.14 1848.66 1242.41 1849.93C1238.82 1850.89 1235.15 1849.51 1233.04 1846.72L1232.75 1846.33C1219.26 1828.45 1205.69 1810.25 1191.78 1793.03C1177.75 1775.81 1163.52 1758.95 1147.51 1744.13C1131.48 1729.41 1114.19 1716.33 1095.55 1706.3C1086.25 1701.22 1076.57 1697.14 1066.77 1693.55C1056.93 1690.07 1046.8 1687.74 1036.59 1685.97L1038.06 1686.13C1033.17 1685.83 1027.58 1685.24 1023.86 1685.41C1019.59 1685.45 1015.01 1685.81 1010.61 1686.41C1001.76 1687.64 993.024 1690 984.551 1693.21C967.665 1699.69 951.838 1710.27 938.711 1723.35C925.832 1736.06 916.086 1751.88 909.572 1769.46C903.032 1787.03 899.467 1806.18 898.273 1825.77C895.81 1865.05 901.724 1905.54 911.055 1945.05C915.801 1964.83 921.449 1984.48 928.011 2003.85C931.231 2013.55 934.752 2023.15 938.387 2032.69C942.018 2042.14 945.959 2051.86 949.914 2060.64L952.749 2066.94L950.518 2073.84V2073.85C940.321 2104.85 931.445 2136.31 928.094 2167.48C926.388 2183.02 926.178 2198.45 928.365 2212.85C929.371 2220.08 931.003 2226.99 933.339 2233.44C935.574 2239.95 938.641 2245.9 942.425 2251.23C956.997 2273.02 985.545 2283.48 1015.96 2286.73C1031.5 2288.5 1046.41 2288.46 1060.86 2286.2C1075.28 2284 1088.96 2279.33 1101.29 2272.16C1126.01 2257.75 1144.42 2232.96 1157 2204.87C1169.45 2176.54 1176.47 2145.04 1179.65 2113.24C1181.15 2097.32 1181.96 2081.24 1181.44 2065.37C1181.33 2061.4 1181.22 2057.44 1180.95 2053.52C1180.74 2049.58 1180.35 2045.24 1180.05 2041.12C1179.41 2032.77 1178.75 2024.43 1178.27 2016.07C1176.03 1982.64 1174.31 1949.15 1173.94 1915.47L1173.94 1915.32C1173.89 1910.47 1177.78 1906.5 1182.63 1906.45C1186.9 1906.4 1190.5 1909.42 1191.32 1913.46Z" fill="#371A45"/>
<path d="M1332.32 1958.74C1340.47 1957.68 1348.71 1957.73 1357.14 1957.78C1365.58 1957.8 1374.09 1957.6 1382.68 1957.28C1391.24 1956.87 1399.89 1956.57 1408.53 1955.92L1434.46 1953.99L1434.75 1953.97C1439.6 1953.61 1443.83 1957.25 1444.19 1962.11C1444.49 1966.09 1442.08 1969.65 1438.53 1971.01C1429.96 1974.27 1421.55 1977.12 1412.91 1979.7C1404.29 1982.23 1395.62 1984.74 1386.82 1986.8C1378.02 1988.94 1369.1 1990.69 1360.06 1992.27C1351 1993.78 1341.71 1994.66 1332.31 1993.74C1322.65 1992.78 1315.6 1984.17 1316.55 1974.51C1317.37 1966.22 1323.83 1959.84 1331.75 1958.81L1332.32 1958.74Z" fill="#371A45"/>
<path d="M1855.17 1120.88C1850.11 1120.12 1846.64 1115.4 1847.41 1110.35L1887.39 846.844C1888.15 841.791 1892.87 838.318 1897.92 839.084C1950.93 847.124 1987.37 896.613 1979.33 949.619L1965.7 1039.48C1957.66 1092.48 1908.17 1128.92 1855.17 1120.88Z" fill="white"/>
<path d="M1869.78 1125.45C1864.79 1125.45 1859.74 1125.07 1854.65 1124.3C1847.72 1123.25 1842.94 1116.76 1843.99 1109.83L1883.97 846.327C1884.48 842.972 1886.26 840.016 1888.99 838.002C1891.72 835.993 1895.09 835.16 1898.44 835.668C1924.98 839.696 1948.37 853.82 1964.3 875.441C1980.22 897.06 1986.77 923.588 1982.74 950.136L1969.11 1039.99C1961.57 1089.71 1918.61 1125.45 1869.78 1125.45ZM1855.68 1117.47C1906.73 1125.22 1954.54 1089.99 1962.29 1038.96L1975.92 949.101C1979.67 924.377 1973.56 899.672 1958.73 879.538C1943.91 859.404 1922.12 846.249 1897.4 842.499C1895.86 842.27 1894.34 842.648 1893.09 843.563C1891.84 844.481 1891.03 845.829 1890.8 847.359L1850.82 1110.87C1850.34 1114.03 1852.52 1116.99 1855.68 1117.47Z" fill="#371A45"/>
<g opacity="0.35">
<path d="M1972.09 997.339L1965.71 1039.48C1957.66 1092.47 1908.18 1128.93 1855.16 1120.9C1850.1 1120.14 1846.64 1115.4 1847.4 1110.34L1858 1040.29C1858.94 1043.7 1861.8 1046.39 1865.51 1046.98L1871.75 1047.92C1913.64 1054.28 1953.36 1032.83 1972.09 997.339Z" fill="#371A45"/>
</g>
<path d="M1869.79 1141.22C1864.01 1141.22 1858.17 1140.79 1852.28 1139.9C1836.75 1137.54 1826.04 1122.99 1828.39 1107.47L1868.37 843.959C1869.51 836.449 1873.51 829.816 1879.64 825.299C1885.76 820.787 1893.28 818.937 1900.79 820.07C1931.52 824.731 1958.58 841.071 1977 866.086C1995.42 891.098 2003 921.789 1998.34 952.502L1984.72 1042.36C1975.98 1099.87 1926.28 1141.22 1869.79 1141.22ZM1868.01 1102.74C1906.44 1103.44 1940.75 1075.68 1946.69 1036.59L1960.32 946.735C1963.44 926.176 1958.36 905.634 1946.04 888.893C1935.7 874.86 1921.3 864.904 1904.81 860.214L1868.01 1102.74ZM1858.05 1101.87C1858.06 1101.87 1858.06 1101.88 1858.07 1101.88C1858.07 1101.88 1858.06 1101.87 1858.05 1101.87ZM1906.4 849.711V849.728C1906.4 849.723 1906.4 849.716 1906.4 849.711Z" fill="#371A45"/>
<path d="M1028.16 707.124C1033.21 707.89 1036.68 712.606 1035.92 717.662L995.937 981.164C995.167 986.217 990.451 989.69 985.403 988.924C932.397 980.884 895.949 931.395 903.989 878.389L917.62 788.532C925.666 735.532 975.15 699.084 1028.16 707.124Z" fill="white"/>
<path d="M986.797 992.484C986.167 992.484 985.528 992.438 984.888 992.34C958.34 988.312 934.947 974.188 919.024 952.567C903.096 930.948 896.548 904.42 900.577 877.872L914.21 788.016C922.521 733.214 973.932 695.406 1028.67 703.709C1035.6 704.756 1040.38 711.246 1039.34 718.177L999.352 981.683C998.394 987.968 992.964 992.484 986.797 992.484ZM1013.54 709.474C968.066 709.474 928.061 742.755 921.035 789.052L907.402 878.908C903.652 903.632 909.756 928.337 924.585 948.471C939.414 968.605 961.201 981.76 985.923 985.51C989.068 985.974 992.041 983.808 992.525 980.644L1032.51 717.145C1032.98 713.983 1030.8 711.02 1027.64 710.541C1022.9 709.821 1018.19 709.474 1013.54 709.474Z" fill="#371A45"/>
<g opacity="0.35">
<path d="M1007.05 908.068L995.95 981.166C995.189 986.219 990.447 989.687 985.394 988.926C957.576 984.692 934.287 969.053 919.628 947.46C906.386 927.959 900.183 903.575 903.998 878.408L909.737 840.547C919.746 876.051 949.755 904.275 988.618 910.18L998.233 911.637C1001.75 912.162 1005.02 910.675 1007.05 908.068Z" fill="#371A45"/>
</g>
<path d="M986.807 1008.26C985.391 1008.26 983.96 1008.16 982.52 1007.94C951.807 1003.28 924.747 986.937 906.319 961.923C887.896 936.911 880.318 906.22 884.976 875.507L898.609 785.651C908.233 722.25 967.579 678.515 1031.03 688.112C1046.55 690.458 1057.27 704.999 1054.93 720.526L1014.95 984.051C1012.8 998.141 1000.63 1008.26 986.807 1008.26ZM1013.55 725.25C975.737 725.25 942.476 752.923 936.636 791.419L923.003 881.273C919.883 901.832 924.956 922.374 937.285 939.115C947.622 953.148 962.021 963.104 978.515 967.794L1015.31 725.27C1014.72 725.255 1014.14 725.25 1013.55 725.25Z" fill="#371A45"/>
<g opacity="0.35">
<path d="M1894.35 951.529C1892.66 972.199 1889.48 992.995 1884.79 1013.83C1829.64 1258.51 1586.6 1412.19 1341.9 1357.1C1097.21 1301.94 943.534 1058.91 998.631 814.205C1000.21 807.171 1001.96 800.163 1003.86 793.304C985.145 1015.71 1132.81 1223.46 1356.69 1273.9C1594.36 1327.41 1830.41 1183.99 1894.35 951.529Z" fill="#371A45"/>
</g>
<path d="M1442.63 1382.78C1408.07 1382.78 1373.28 1378.93 1338.74 1371.15C1086.68 1314.37 927.802 1063.11 984.58 811.041C1012.08 688.934 1085.49 584.847 1191.28 517.953C1297.08 451.066 1422.58 429.376 1544.69 456.874C1666.8 484.381 1770.88 557.79 1837.78 663.58C1904.67 769.371 1926.36 894.879 1898.85 1016.99C1871.35 1139.09 1797.94 1243.18 1692.15 1310.07C1616.28 1358.05 1530.25 1382.78 1442.63 1382.78ZM1440.86 474.108C1358.62 474.108 1277.91 497.309 1206.7 542.333C1107.42 605.109 1038.53 702.79 1012.72 817.379C959.434 1053.93 1108.53 1289.73 1345.08 1343.01C1459.65 1368.82 1577.45 1348.47 1676.73 1285.69C1776.01 1222.92 1844.9 1125.24 1870.72 1010.65C1896.53 896.058 1876.17 778.275 1813.4 678.995C1750.63 579.718 1652.94 510.826 1538.35 485.013C1505.95 477.714 1473.29 474.108 1440.86 474.108Z" fill="#371A45"/>
<path d="M1885.06 827.057C1881.55 827.057 1878.08 825.524 1875.71 822.565L1874.72 821.332L1874.04 819.821C1821.2 699.277 1689.23 608.847 1511.98 571.718C1333.74 534.387 1176.32 566.249 1080.08 659.116L1078.28 660.554C1073.02 664.026 1065.9 662.839 1062.06 657.724C1058.25 652.653 1059.06 645.556 1063.76 641.459C1165.85 543.251 1330.96 509.257 1516.91 548.192C1701.74 586.905 1839.86 682.286 1895.94 809.908C1898.24 814.825 1897 820.872 1892.58 824.412C1890.35 826.19 1887.7 827.057 1885.06 827.057Z" fill="#371A45"/>
<path d="M714.221 156.196V2352.42C714.221 2368.12 701.447 2380.85 685.743 2380.85C670.039 2380.85 657.265 2368.12 657.265 2352.42V156.196C657.265 140.448 670.039 127.718 685.743 127.718C693.617 127.718 700.704 130.911 705.866 136.029C711.028 141.191 714.221 148.322 714.221 156.196Z" fill="#D8D8D8"/>
<g opacity="0.25">
<path d="M714.221 869.02H657.265V1142.3H714.221V869.02Z" fill="#371A45"/>
</g>
<path d="M685.742 2395.29C662.099 2395.29 642.866 2376.05 642.866 2352.41V156.176C642.866 132.533 662.099 113.3 685.742 113.3C709.384 113.3 728.623 132.533 728.623 156.176V2352.41C728.623 2376.05 709.385 2395.29 685.742 2395.29ZM685.742 142.142C678.008 142.142 671.714 148.438 671.714 156.175V2352.41C671.714 2360.15 678.008 2366.44 685.742 2366.44C693.481 2366.44 699.775 2360.14 699.775 2352.41V156.176C699.775 148.439 693.481 142.142 685.742 142.142Z" fill="#371A45"/>
<path d="M567.928 1051.69C592.18 1082.04 679.85 1086.79 708.638 1058.17C733.122 1033.81 702.772 1010.36 694.228 1004.5C692.894 1003.57 692.076 1003.1 692.076 1003.1C692.076 1003.1 723.787 988.93 726.123 960.465C726.276 958.623 726.307 956.72 726.175 954.721C724.242 922.454 635.317 905.363 597.263 916.4C568.811 924.659 559.196 937.848 558.028 950.827C556.772 964.65 565.097 978.246 570.421 985.412C572.875 988.68 574.669 990.583 574.669 990.583C574.669 990.583 548.487 1027.39 567.928 1051.69Z" fill="white"/>
<g opacity="0.25">
<path d="M570.422 985.414C594.801 994.329 643.24 1008.63 694.225 1004.5C692.895 1003.57 692.077 1003.1 692.077 1003.1C692.077 1003.1 723.788 988.931 726.124 960.466C696.535 970.877 614.08 993.927 558.029 950.829C556.77 964.652 565.094 978.249 570.422 985.414Z" fill="#371A45"/>
</g>
<g opacity="0.25">
<path d="M567.928 1051.69C592.18 1082.04 679.85 1086.79 708.638 1058.17C720.677 1046.21 719.456 1034.47 714.102 1024.91C712.842 1026.7 711.32 1028.52 709.491 1030.34C680.746 1058.96 593.077 1054.2 568.829 1023.89C566.314 1020.74 564.533 1017.4 563.422 1013.93C559.76 1025.81 558.719 1040.14 567.928 1051.69Z" fill="#371A45"/>
</g>
<path d="M644.966 1096.47C641.47 1096.47 637.92 1096.37 634.326 1096.17C597.978 1094.12 567.549 1081.98 552.925 1063.7C534.751 1041.02 541.494 1011.87 551.538 991.962C544.033 980.524 535.459 962.25 539.868 942.755C542.72 930.17 552.144 912.821 580.874 901.656C584.346 900.267 588.149 898.97 591.997 897.874C628.97 887.188 710.054 897.92 736.25 930.857C741.846 937.861 744.922 945.559 745.361 953.704C746.66 975.76 735.927 992.986 723.315 1004.84C729.79 1012.43 735.546 1022.11 736.909 1033.4C738.081 1043.08 736.475 1057.6 722.187 1071.8C706.396 1087.52 678.022 1096.47 644.966 1096.47ZM626.011 932.142C617.149 932.142 609.038 932.982 602.603 934.842C599.942 935.599 597.408 936.463 594.981 937.435C588.961 939.776 578.926 944.574 577.393 951.195C575.46 959.547 584.39 972.755 588.765 977.499C594.932 984.191 595.635 994.364 590.357 1001.77C586.67 1007.04 574.473 1029.09 582.945 1039.66C589.039 1047.28 608.389 1056.18 636.495 1057.77C662.144 1059.23 685.655 1053.9 695.059 1044.54C695.064 1044.54 695.069 1044.53 695.074 1044.53C697.701 1041.92 698.931 1039.74 698.731 1038.04C698.067 1032.29 688.467 1023.44 682.086 1019.52C676.007 1015.79 672.457 1008.97 672.921 1001.85C673.39 994.737 677.716 988.436 684.23 985.528C684.357 985.469 707.985 974.315 706.969 955.945C706.969 955.947 706.969 955.947 706.969 955.947C706.935 955.947 706.73 955.52 706.178 954.829C696.104 942.164 656.597 932.142 626.011 932.142Z" fill="#371A45"/>
<path d="M721.197 942.827C701.813 918.452 630.321 906.808 597.259 916.374C593.838 917.345 590.693 918.439 587.836 919.585C579.459 907.857 569.376 886.61 584.809 864.593C606.699 833.32 707.759 841.649 738.332 880.179C759.273 906.602 741.18 930.167 721.197 942.827Z" fill="white"/>
<path d="M721.206 962.057C715.522 962.057 709.917 959.537 706.147 954.796C693.183 938.49 631.245 926.551 602.607 934.845C599.936 935.602 597.407 936.464 594.99 937.433C586.762 940.726 577.348 937.982 572.192 930.763C553.823 905.06 552.685 876.918 569.062 853.556C580.688 836.95 604.833 827.264 637.05 826.298C676.264 825.102 729.208 837.748 753.393 868.227C767.216 885.668 767.973 901.972 766.176 912.582C762.123 936.481 742.699 951.967 731.483 959.071C728.306 961.085 724.741 962.057 721.206 962.057ZM626.196 893.886C658.159 893.886 697.295 901.818 721.587 917.858C725.259 913.905 727.637 909.823 728.257 906.151C728.526 904.576 729.336 899.789 723.262 892.125C710.249 875.726 672.813 863.714 638.208 864.737C617.134 865.369 603.921 870.821 600.562 875.618C598.448 878.638 593.682 885.437 597.256 896.56C605.537 894.779 615.464 893.886 626.196 893.886Z" fill="#371A45"/>
<path d="M657.129 1025.43C607.251 1025.43 568.994 1009.09 567.012 1008.23C557.276 1003.99 552.813 992.666 557.051 982.927C561.28 973.2 572.608 968.738 582.32 972.951C583.262 973.351 633.36 994.313 688.609 984.186C699 982.272 709.068 989.184 710.992 999.63C712.906 1010.08 705.992 1020.1 695.548 1022.01C682.285 1024.44 669.355 1025.43 657.129 1025.43Z" fill="#371A45"/>
<path d="M859.586 1074.75L781.632 1074.88C779.882 1072.96 778.22 1071.04 776.733 1069.07C742.918 1025.76 770.346 979.608 771.44 977.815C718.29 1031.31 670.302 1003.14 677.213 968.847C678.438 962.81 681.281 955.986 685.393 948.812C711.727 902.617 790.162 841.024 822.402 868.409C822.402 868.409 905.562 966.66 859.586 1074.75Z" fill="white"/>
<g opacity="0.25">
<path d="M776.733 1069.07C742.918 1025.76 770.346 979.608 771.44 977.814C718.29 1031.31 670.301 1003.14 677.213 968.846C678.438 962.809 681.281 955.985 685.393 948.811C687.799 959.704 695.104 969.546 714.221 968.278C755.123 965.522 781.457 919.896 797.949 948.155C814.704 976.808 775.552 1032.1 776.733 1069.07Z" fill="#371A45"/>
</g>
<path d="M843.495 1067.91C849.79 1052.63 854.099 1036.59 855.341 1020.13C856.758 1003.71 855.512 986.988 851.999 970.575C848.591 954.14 842.773 938.037 835.459 922.609C831.78 914.897 827.673 907.364 823.21 900.072C820.975 896.437 818.656 892.841 816.237 889.372C815.038 887.635 813.809 885.916 812.571 884.258C811.394 882.657 809.946 880.798 809.036 879.695L811.07 881.733C809.246 880.285 807.024 879.401 803.126 879.218C799.316 879.065 794.399 879.913 789.338 881.523C784.255 883.085 778.962 885.504 773.76 888.251C768.532 890.972 763.371 894.187 758.327 897.669C738.231 911.615 719.464 929.695 705.741 949.31C702.408 954.205 699.424 959.21 697.263 963.991C696.182 966.366 695.29 968.711 694.796 970.71L694.394 972.206L694.324 973.418C694.35 974.197 693.935 975.032 694.136 975.754C694.018 978.807 695.326 981.349 697.098 983.646C698.992 985.842 701.556 988.016 705.261 988.917C712.326 991.327 722.3 989.744 731.757 985.356C741.337 980.92 750.532 973.68 759.036 965.434V965.43C764.596 958.527 774.697 957.438 781.604 962.993C786.057 966.58 788.091 972.061 787.479 977.354L786.333 986.978C786.246 987.735 785.436 989.726 784.942 991.235C784.4 992.88 783.835 994.525 783.328 996.217C782.773 997.875 782.418 999.612 781.863 1001.27L780.647 1006.35C779.151 1013.13 778.407 1019.85 778.495 1026.5C778.521 1033.19 779.475 1039.78 781.242 1046.63C781.846 1050.18 783.219 1053.54 784.19 1057.33C785.297 1061.04 786.998 1064.63 788.079 1068.96L788.508 1070.68C789.72 1075.56 786.749 1080.5 781.872 1081.71C779.527 1082.29 777.147 1081.9 775.196 1080.8C766.495 1075.88 758.542 1068.87 752.956 1059.84C749.885 1055.47 747.816 1050.51 745.808 1045.49C744.889 1042.95 744.312 1040.31 743.599 1037.7C742.807 1035.08 742.448 1032.42 742.103 1029.73C740.598 1019.02 741.18 1008.12 743.586 997.874C744.925 992.795 746.381 987.76 748.529 982.983C749.544 980.586 750.655 978.206 751.967 975.892C753.306 973.442 754.474 971.535 756.591 968.53L783.888 990.074L783.879 990.079C773.17 1000.49 761.158 1010.26 746.359 1017.16C742.623 1018.82 738.944 1020.55 734.762 1021.6L728.651 1023.36C726.516 1023.76 724.32 1024.06 722.151 1024.37C717.886 1025.21 713.227 1024.99 708.682 1024.92C706.42 1024.93 704.032 1024.32 701.718 1023.99C699.391 1023.58 697.077 1023.21 694.763 1022.3C685.48 1019.69 676.526 1013.75 669.938 1005.71C663.385 997.669 659.137 987.091 659.151 976.64C658.906 974.02 659.418 971.522 659.615 968.963C659.768 967.699 659.904 966.4 660.114 965.183L660.954 961.802C662.118 957.305 663.671 953.368 665.346 949.636C668.723 942.195 672.7 935.677 676.908 929.483C685.394 917.217 694.966 906.425 705.198 896.333C715.522 886.346 726.48 877.067 738.505 868.83C744.498 864.692 750.736 860.794 757.407 857.308C764.061 853.808 771.012 850.584 778.746 848.17C786.454 845.773 794.879 843.931 804.494 844.246C806.839 844.233 809.354 844.596 811.865 845.016C814.328 845.305 816.926 846.193 819.45 846.976C821.983 847.702 824.459 849.141 826.904 850.327C829.288 851.679 831.502 853.398 833.711 855.038C834.315 855.488 834.848 855.996 835.312 856.552L835.749 857.081C837.757 859.509 839.1 861.285 840.653 863.371C842.153 865.383 843.593 867.395 844.993 869.425C847.819 873.476 850.474 877.588 853.038 881.757C858.147 890.099 862.819 898.686 867.041 907.518C875.422 925.191 882.172 943.822 886.232 963.297C890.388 982.715 891.949 1002.96 890.213 1023.07C888.673 1043.21 883.406 1063.04 875.703 1081.6C871.998 1090.53 861.761 1094.76 852.838 1091.05C843.91 1087.35 839.679 1077.11 843.385 1068.19L843.495 1067.91Z" fill="#371A45"/>
<path d="M765.978 95.232C765.978 139.546 730.055 175.465 685.745 175.465C641.431 175.465 605.508 139.546 605.508 95.232C605.508 50.923 641.431 15 685.745 15C730.055 15 765.978 50.923 765.978 95.232Z" fill="#FFC33D"/>
<path d="M685.747 189.887C633.55 189.887 591.084 147.426 591.084 95.234C591.084 43.039 633.55 0.578003 685.747 0.578003C737.94 0.578003 780.4 43.039 780.4 95.234C780.4 147.426 737.939 189.887 685.747 189.887ZM685.747 29.42C649.453 29.42 619.932 58.944 619.932 95.233C619.932 131.52 649.453 161.043 685.747 161.043C722.031 161.043 751.553 131.519 751.553 95.233C751.553 58.944 722.031 29.42 685.747 29.42Z" fill="#371A45"/>
<path d="M1663.68 1732.78C1662.32 1732.78 1660.93 1732.54 1659.58 1732.05C1653.35 1729.79 1650.12 1722.91 1652.37 1716.68C1652.9 1715.24 1705.7 1573 1834.78 1578.36C1841.41 1578.63 1846.57 1584.23 1846.3 1590.86C1846.03 1597.49 1840.4 1602.64 1833.8 1602.38C1831.84 1602.3 1829.89 1602.26 1827.97 1602.26C1720.88 1602.26 1675.43 1723.62 1674.98 1724.86C1673.2 1729.74 1668.58 1732.78 1663.68 1732.78Z" fill="#371A45"/>
<path d="M1498.7 2107.69C1411.89 2107.69 1318.85 2063.83 1312.89 2060.98C1303.31 2056.39 1299.28 2044.92 1303.86 2035.33C1308.44 2025.75 1319.93 2021.71 1329.5 2026.29C1384.15 2052.4 1537.22 2104.42 1588.7 2032.45C1594.87 2023.81 1606.88 2021.81 1615.52 2028C1624.16 2034.17 1626.16 2046.18 1619.97 2054.82C1591.49 2094.65 1546.02 2107.69 1498.7 2107.69Z" fill="#371A45"/>
<path d="M882.881 1742.37C884.119 1740.79 885.431 1739.24 886.801 1737.74C887.536 1736.91 888.065 1736.49 888.647 1735.97L890.392 1734.46C892.824 1732.28 894.92 1730.98 897.151 1729.4C901.517 1726.48 905.843 1724.16 910.143 1722.07C918.774 1717.94 927.409 1714.51 936.211 1711.83C953.74 1706.16 971.885 1703.21 990.24 1702.07C1008.59 1701.18 1027.26 1702.35 1045.53 1706.49C1063.76 1710.64 1081.63 1717.52 1097.74 1727.42C1113.86 1737.29 1128.16 1749.89 1140.17 1764.07C1152.24 1778.27 1161.38 1794.32 1168.79 1810.73C1183.2 1843.81 1190.1 1878.74 1191.29 1913.24C1191.46 1918.1 1187.66 1922.17 1182.81 1922.34C1178.6 1922.48 1174.98 1919.65 1173.98 1915.74L1173.97 1915.69C1165.7 1883.51 1155.45 1852.38 1140.39 1824.73C1125.4 1797.16 1104.92 1773.63 1079.05 1759.07C1053.34 1744.28 1022.8 1738.52 992.235 1740.13C976.942 1740.81 961.579 1743.37 946.832 1747.46C939.422 1749.41 932.269 1752.03 925.589 1754.93C922.243 1756.37 919.115 1758.03 916.337 1759.59C915.086 1760.37 913.524 1761.2 912.807 1761.84L912.112 1762.33C911.88 1762.49 911.552 1762.7 911.631 1762.69C911.592 1762.76 911.5 1762.78 911.325 1762.76L890.94 1760.95C884.601 1760.38 879.921 1754.79 880.485 1748.45C880.685 1746.14 881.551 1744.07 882.881 1742.37Z" fill="#371A45"/>
<g opacity="0.3">
<path d="M543.082 162.651C543.334 162.752 543.637 162.752 543.94 162.803L540.659 158.815C541.517 160.076 542.325 161.388 543.082 162.651Z" fill="#371A45"/>
</g>
<path d="M600.243 484.808L600.165 490.452L595.472 493.587C594.204 494.434 594.457 496.368 595.902 496.86L601.245 498.678L602.776 504.111C603.19 505.579 605.108 505.935 606.021 504.714L609.401 500.194L615.041 500.416C616.565 500.476 617.497 498.762 616.617 497.516L613.363 492.904L615.317 487.609C615.845 486.178 614.503 484.763 613.046 485.214L607.654 486.884L603.222 483.389C602.025 482.444 600.264 483.283 600.243 484.808Z" fill="#FFD243"/>
<path d="M602.776 504.111C603.189 505.579 605.109 505.934 606.022 504.713L609.402 500.195L615.042 500.416C616.566 500.476 617.497 498.763 616.619 497.516L615.609 496.084C615.465 496.944 614.72 497.673 613.716 497.634L608.076 497.413L604.697 501.931C604.097 502.734 603.06 502.857 602.302 502.427L602.776 504.111Z" fill="#FFA92C"/>
<g opacity="0.6">
<path d="M613.046 485.214L606.803 487.181L608.051 488.164L613.265 486.514L613.423 486.087C613.543 485.758 613.555 485.432 613.481 485.134C613.337 485.143 613.192 485.169 613.046 485.214Z" fill="white"/>
</g>
<g opacity="0.6">
<path d="M595.136 493.876C595.321 494.121 595.581 494.317 595.912 494.431L596.805 494.736C596.902 494.624 597.018 494.525 597.15 494.436L601.844 491.301L601.922 485.656C601.937 484.566 602.842 483.827 603.794 483.839L603.222 483.388C602.022 482.445 600.262 483.284 600.241 484.808L600.162 490.451L595.471 493.587C595.345 493.672 595.234 493.769 595.136 493.876Z" fill="white"/>
</g>
<path d="M612.99 493.723L615.318 487.608C615.743 486.457 614.956 485.314 613.872 485.153L611.446 491.536L612.99 493.723Z" fill="#FFA92C"/>
<path d="M595.9 496.859L602.059 498.821L601.334 496.244L594.905 494.19C594.347 495.133 594.738 496.464 595.9 496.859Z" fill="#FFA92C"/>
<path d="M604.556 506.586C604.375 506.586 604.19 506.571 604.004 506.537C602.881 506.33 601.992 505.516 601.685 504.418L600.318 499.56L595.533 497.932C594.454 497.566 593.697 496.636 593.546 495.505C593.4 494.375 593.898 493.278 594.845 492.646L599.044 489.843L599.112 484.794C599.127 483.654 599.776 482.641 600.801 482.15C601.831 481.662 603.028 481.791 603.926 482.497L607.891 485.624L612.71 484.132C613.809 483.788 614.971 484.098 615.747 484.926C616.533 485.751 616.777 486.93 616.382 488.002L614.634 492.738L617.544 496.864C618.198 497.794 618.272 498.993 617.725 499.996C617.188 500.999 616.167 501.6 614.996 501.549L609.952 501.349L606.93 505.392C606.357 506.156 605.483 506.586 604.556 506.586ZM602.095 484.122C601.953 484.122 601.841 484.166 601.778 484.195C601.661 484.251 601.382 484.427 601.378 484.822L601.29 491.062L596.105 494.529C595.773 494.749 595.778 495.078 595.797 495.21C595.812 495.339 595.89 495.659 596.266 495.786L602.174 497.795L603.863 503.801C603.975 504.184 604.288 504.282 604.42 504.306C604.542 504.316 604.869 504.357 605.113 504.033L608.848 499.038L615.083 499.282C615.503 499.301 615.674 499.03 615.732 498.913C615.795 498.796 615.917 498.491 615.688 498.168L612.094 493.068L614.252 487.214C614.389 486.843 614.193 486.579 614.101 486.484C614.013 486.386 613.74 486.176 613.383 486.294L607.421 488.142L602.519 484.275C602.373 484.159 602.222 484.122 602.095 484.122Z" fill="#371A45"/>
<path d="M33.296 836.02C32.084 846.42 42.586 854.196 52.129 849.803C113.119 821.781 165.224 778.109 213.895 761.902C226.467 757.712 239.846 756.853 253.024 758.368C418.728 777.15 557.017 751.249 653.35 657.138L658.55 173.203C633.71 194.61 605.032 211.574 573.375 225.106C534.347 241.717 490.725 252.925 443.922 260.499C413.427 265.447 382.578 266.861 351.729 266.962C339.763 267.013 327.898 267.719 316.134 269.032C271.452 273.98 228.233 287.461 187.489 304.627C136.95 325.883 90.146 352.794 49.0489 376.068C36.3259 383.238 27.4399 395.608 24.5109 409.896C0.88192 525.313 30.115 637.197 35.517 748.019C36.932 777.402 36.679 806.737 33.296 836.02Z" fill="#371A45"/>
<path d="M46.4991 852.701C43.4281 852.701 40.3951 851.734 37.7831 849.837C33.3051 846.59 31.02 841.355 31.665 835.831C34.722 809.364 35.4441 780.665 33.8771 748.097C32.2171 714.015 28.2181 679.144 24.3511 645.421C15.5771 568.858 6.49904 489.686 22.901 409.564C25.943 394.728 35.181 381.996 48.243 374.635L54.386 371.151C93.922 348.746 138.727 323.351 186.857 303.109C233.258 283.561 275.485 271.879 315.954 267.396C327.897 266.065 339.933 265.367 351.725 265.318C388.102 265.196 417.316 263.15 443.659 258.873C493.791 250.763 536.013 239.222 572.731 223.595C605.885 209.423 633.605 192.533 657.477 171.957L660.236 169.581L654.987 657.835L654.499 658.313C563.64 747.073 432.273 780.342 252.839 760C239.016 758.416 226.071 759.573 214.421 763.462C188.054 772.239 160.432 789.282 131.184 807.327C106.335 822.659 80.637 838.514 52.82 851.297C50.771 852.238 48.6281 852.701 46.4991 852.701ZM656.865 176.791C633.364 196.532 606.225 212.853 574.018 226.618C537.05 242.353 494.579 253.967 444.184 262.121C417.666 266.423 388.291 268.483 351.733 268.605C340.058 268.654 328.144 269.345 316.313 270.663C276.162 275.109 234.233 286.715 188.13 306.139C140.176 326.305 95.459 351.649 56.006 374.013L49.8591 377.497C37.6231 384.394 28.9751 396.323 26.1241 410.224C9.82507 489.833 18.873 568.74 27.618 645.048C31.49 678.822 35.494 713.749 37.159 747.939C38.736 780.688 38.009 809.563 34.927 836.208V836.21C34.424 840.539 36.211 844.638 39.712 847.177C43.164 849.687 47.554 850.102 51.441 848.31C79.083 835.612 104.693 819.812 129.459 804.531C158.873 786.384 186.656 769.243 213.38 760.344C225.489 756.308 238.902 755.1 253.209 756.736C431.266 776.919 561.632 744.102 651.715 656.438L656.865 176.791Z" fill="white"/>
<path d="M46.455 866.212C40.601 866.212 34.824 864.371 29.844 860.76C21.499 854.713 17.051 844.571 18.228 834.293C25.318 772.609 18.321 711.473 10.914 646.749C2.04197 569.212 -7.13802 489.037 9.67398 406.883C13.497 388.226 25.128 372.191 41.588 362.884L48.531 358.956C132.589 311.363 237.203 252.132 351.68 251.815C387.11 251.717 415.645 249.728 441.49 245.558C532.437 230.89 600.201 203.461 648.653 161.703C653.155 157.819 659.517 156.93 664.927 159.442C670.322 161.952 673.75 167.389 673.687 173.341L668.472 657.276C668.428 661.297 666.788 665.135 663.912 667.945C569.996 759.747 435.03 794.234 251.3 773.397C239.401 772.047 228.424 773.011 218.668 776.261C193.795 784.545 166.822 801.188 138.258 818.81C113.068 834.354 87.018 850.426 58.453 863.551C54.575 865.333 50.498 866.212 46.455 866.212ZM643.057 204.247C593.057 238.842 528.316 262.238 446.314 275.465C418.863 279.894 388.819 282.005 351.768 282.108C245.225 282.403 144.439 339.466 63.458 385.318L56.5 389.254C47.662 394.249 41.412 402.889 39.352 412.96C23.507 490.384 32.409 568.124 41.012 643.304C48.175 705.884 55.577 770.565 48.663 834.696C74.478 822.567 98.8 807.56 122.354 793.028C152.452 774.456 180.884 756.915 209.092 747.52C223.042 742.869 238.389 741.453 254.712 743.294C425.855 762.708 551.392 732.376 638.247 650.589L643.057 204.247Z" fill="#371A45"/>
<path d="M564.393 541.145C564.602 570.992 555.177 594.774 536.14 612.483L536.133 612.498C534.509 614.023 532.793 615.507 531.007 616.941C526.225 620.781 519.362 620.608 514.891 616.41L497.823 600.355L530.554 527.219L553.255 529.202C559.477 529.734 564.344 534.903 564.393 541.145Z" fill="#9595B5"/>
<path d="M404.654 600.774L407.786 646.008C408.126 650.914 411.142 655.234 415.631 657.243L439.189 667.786C445.771 670.731 453.501 667.903 456.628 661.406L479.374 614.147" fill="#FB132B"/>
<path d="M518.67 426.992L542.229 437.535C548.811 440.48 551.846 448.133 549.092 454.782L529.013 503.236L492.314 474.501L469.247 456.426L504.878 428.775L505.075 428.623C508.95 425.614 514.18 424.982 518.67 426.992Z" fill="#FB132B"/>
<path d="M560.458 586.866C566.453 573.47 569.41 558.186 569.288 541.106C569.225 532.305 562.514 525.088 553.676 524.321L530.978 522.346C528.282 522.109 525.902 524.106 525.674 526.801C525.439 529.496 527.434 531.87 530.129 532.105L552.827 534.08C556.538 534.403 559.465 537.519 559.491 541.176C559.714 572.304 549.387 595.84 527.927 613.122C525.048 615.441 520.887 615.317 518.246 612.833L501.184 596.782C499.213 594.929 496.114 595.023 494.26 596.994C492.403 598.957 492.5 602.064 494.472 603.918L511.534 619.969C517.718 625.785 527.407 626.12 534.072 620.751C545.766 611.337 554.574 600.011 560.458 586.866Z" fill="#371A45"/>
<path d="M483.846 616.145C484.925 613.733 483.893 610.887 481.498 609.733C479.06 608.56 476.133 609.585 474.96 612.023L452.213 659.283C450.223 663.42 445.382 665.191 441.19 663.315L417.633 652.772C414.789 651.499 412.887 648.777 412.672 645.668L409.541 600.435C409.353 597.736 407.013 595.7 404.315 595.886C401.618 596.073 399.583 598.408 399.766 601.112L402.898 646.345C403.366 653.071 407.477 658.96 413.631 661.714L437.188 672.257C446.257 676.315 456.734 672.483 461.041 663.531L483.788 616.271C483.808 616.229 483.827 616.187 483.846 616.145Z" fill="#371A45"/>
<path d="M533.478 505.244C533.497 505.202 533.516 505.16 533.533 505.117L553.619 456.668C557.425 447.492 553.303 437.124 544.234 433.065L520.677 422.522C514.525 419.769 507.394 420.625 502.067 424.759L466.247 452.562C464.106 454.228 463.723 457.3 465.381 459.436C467.042 461.573 470.117 461.961 472.255 460.303L508.073 432.499C510.536 430.588 513.831 430.191 516.675 431.464L540.232 442.007C544.424 443.883 546.328 448.675 544.569 452.915L524.483 501.364C523.447 503.863 524.632 506.729 527.131 507.765C529.588 508.782 532.398 507.655 533.478 505.244Z" fill="#371A45"/>
<path d="M525.042 498.745C531.307 503.966 534.07 512.309 532.216 520.247C524.355 553.773 511.325 581.775 494.264 605.462C489.594 611.937 481.629 615.219 473.728 614.065C472.446 613.879 471.163 613.692 469.91 613.482L469.903 613.497C363.728 597.469 282.907 564.714 227.431 515.246C198.411 489.357 176.344 458.901 161.199 423.865C155.774 411.323 162.223 396.914 175.197 392.587C182.528 390.146 189.934 388.034 197.369 386.267C226.633 379.319 256.657 377.601 287.462 381.107C362.13 389.587 441.336 428.799 525.042 498.745Z" fill="#F6F6F6"/>
<path d="M287.462 381.107C301.102 430.642 268.848 500.65 227.431 515.246C198.411 489.357 176.344 458.901 161.199 423.865C155.774 411.323 162.223 396.914 175.197 392.587C211.414 380.537 248.828 376.701 287.462 381.107Z" fill="#FB132B"/>
<path d="M499.559 609.279C493.461 617.744 483.202 622.057 472.784 620.534C390.332 608.468 321.855 586.121 269.256 554.11C216.234 521.84 177.859 478.895 155.204 426.463C151.894 418.807 151.944 410.065 155.34 402.478C158.735 394.892 165.22 389.031 173.135 386.397C227.299 368.369 284.857 368.359 344.212 386.369C403.093 404.235 465.342 440.358 529.235 493.735C537.431 500.582 541.009 511.313 538.569 521.738C534.694 538.282 529.438 553.968 522.848 568.694C516.362 583.186 508.584 596.748 499.559 609.279ZM167.194 421.281C210.454 521.394 313.906 584.083 474.674 607.609C480.249 608.423 485.723 606.139 488.958 601.646C506.386 577.447 518.457 550.338 525.849 518.762C527.157 513.172 525.245 507.425 520.86 503.761C396.284 399.685 280.68 364.368 177.26 398.792C172.744 400.295 169.194 403.5 167.263 407.815C165.331 412.13 165.306 416.912 167.194 421.281Z" fill="#371A45"/>
<path d="M530.82 566.576L527.266 574.517C525.714 577.986 521.643 579.54 518.174 577.987L443.258 544.46C439.789 542.908 438.235 538.837 439.788 535.368L443.342 527.427C444.894 523.958 448.965 522.404 452.434 523.957L527.35 557.484C530.818 559.036 532.372 563.107 530.82 566.576Z" fill="#FB132B"/>
<path d="M512.851 580.078L445.244 549.822C437.711 546.451 434.325 537.579 437.696 530.046L437.979 529.414C441.35 521.881 450.222 518.495 457.755 521.866L525.362 552.122C532.895 555.493 536.281 564.365 532.91 571.898L532.627 572.53C529.256 580.063 520.385 583.449 512.851 580.078ZM445.148 533.38C443.615 536.805 445.154 540.837 448.579 542.37L516.186 572.626C519.611 574.159 523.643 572.62 525.176 569.195L525.459 568.563C526.992 565.138 525.453 561.106 522.028 559.573L454.421 529.317C450.996 527.784 446.964 529.323 445.431 532.748L445.148 533.38Z" fill="#371A45"/>
<path d="M370.723 534.09C395.361 527.189 409.74 501.622 402.839 476.984C395.938 452.346 370.371 437.967 345.733 444.868C321.095 451.769 306.716 477.336 313.617 501.974C320.518 526.612 346.085 540.991 370.723 534.09Z" fill="#FB132B"/>
<path d="M338.027 534.759C313.065 523.588 301.846 494.192 313.017 469.23C324.188 444.268 353.584 433.049 378.546 444.22C403.508 455.391 414.727 484.787 403.556 509.749C392.385 534.711 362.989 545.93 338.027 534.759ZM340.695 528.798C362.369 538.498 387.894 528.756 397.594 507.082C407.294 485.408 397.552 459.883 375.878 450.183C354.204 440.483 328.679 450.225 318.979 471.899C309.279 493.573 319.021 519.098 340.695 528.798Z" fill="#371A45"/>
<path d="M368.556 516.242C383.334 510.601 390.742 494.048 385.101 479.269C379.461 464.491 362.908 457.083 348.129 462.723C333.351 468.364 325.944 484.917 331.584 499.696C337.225 514.474 353.778 521.882 368.556 516.242Z" fill="#09CBFF"/>
<path d="M345.254 518.611C329.195 511.424 321.978 492.514 329.164 476.456C336.351 460.397 355.261 453.18 371.32 460.367C387.378 467.553 394.595 486.463 387.408 502.522C380.222 518.58 361.312 525.798 345.254 518.611ZM347.922 512.65C360.692 518.365 375.732 512.624 381.447 499.855C387.163 487.084 381.422 472.044 368.652 466.329C355.881 460.613 340.841 466.354 335.125 479.125C329.41 491.894 335.151 506.934 347.922 512.65Z" fill="#371A45"/>
<path d="M283.361 463.128C295.338 436.366 300.028 405.225 292.966 379.589C292.128 376.547 288.982 374.759 285.939 375.597C282.893 376.435 281.109 379.579 281.947 382.624C294.54 428.353 264.491 496.13 225.529 509.849C222.554 510.895 220.987 514.158 222.038 517.138C223.087 520.114 226.35 521.677 229.327 520.629C251.708 512.745 271.257 490.174 283.361 463.128Z" fill="#371A45"/>
<path d="M188.044 654.221L185.929 662.276L178.094 665.1C175.977 665.863 175.654 668.723 177.547 669.939L184.555 674.44L184.82 682.764C184.892 685.014 187.512 686.205 189.254 684.779L195.7 679.505L203.699 681.825C205.861 682.452 207.803 680.328 206.986 678.231L203.962 670.471L208.64 663.581C209.904 661.719 208.485 659.215 206.238 659.344L197.923 659.822L192.816 653.243C191.435 651.467 188.615 652.044 188.044 654.221Z" fill="#FFD243"/>
<path d="M184.82 682.765C184.891 685.015 187.513 686.204 189.255 684.779L195.699 679.508L203.698 681.826C205.859 682.453 207.802 680.33 206.987 678.233L206.049 675.824C205.538 677.004 204.212 677.784 202.788 677.372L194.789 675.054L188.345 680.325C187.2 681.262 185.672 681.07 184.739 680.184L184.82 682.765Z" fill="#FFA92C"/>
<g opacity="0.6">
<path d="M206.236 659.346L196.597 659.948L198.035 661.799L206.089 661.287L206.467 660.731C206.756 660.302 206.889 659.839 206.889 659.387C206.679 659.348 206.461 659.333 206.236 659.346Z" fill="white"/>
</g>
<g opacity="0.6">
<path d="M177.512 665.395C177.689 665.811 177.993 666.184 178.427 666.465L179.598 667.219C179.777 667.093 179.977 666.993 180.198 666.911L188.033 664.088L190.148 656.032C190.556 654.477 192.115 653.739 193.475 654.094L192.816 653.245C191.433 651.468 188.613 652.045 188.042 654.221L185.926 662.274L178.094 665.1C177.884 665.177 177.689 665.276 177.512 665.395Z" fill="white"/>
</g>
<path d="M203.136 671.513L208.64 663.581C209.657 662.083 208.935 660.167 207.44 659.552L201.7 667.833L203.136 671.513Z" fill="#FFA92C"/>
<path d="M177.547 669.939L185.671 674.935L185.547 670.987L177.069 665.763C175.935 666.915 176.023 668.96 177.547 669.939Z" fill="#FFA92C"/>
<path d="M187.539 686.53C187.002 686.53 186.455 686.415 185.942 686.183C184.599 685.573 183.735 684.276 183.686 682.802L183.442 675.073L176.938 670.896C175.693 670.098 175.024 668.691 175.19 667.224C175.356 665.757 176.323 664.536 177.71 664.035L184.98 661.413L186.948 653.933C187.319 652.507 188.452 651.435 189.897 651.14C191.371 650.845 192.812 651.389 193.71 652.551L198.456 658.659L206.171 658.217C207.65 658.119 209.008 658.876 209.74 660.158C210.468 661.442 210.404 662.997 209.574 664.221L205.233 670.617L208.041 677.822C208.578 679.196 208.29 680.727 207.294 681.816C206.303 682.907 204.789 683.33 203.383 682.917L195.956 680.761L189.97 685.656C189.267 686.232 188.408 686.53 187.539 686.53ZM189.136 654.508L186.875 663.141L178.481 666.168C177.9 666.376 177.514 666.866 177.441 667.477C177.373 668.09 177.641 668.654 178.159 668.986L185.669 673.808L185.952 682.729C185.971 683.344 186.318 683.864 186.88 684.118C187.442 684.379 188.062 684.289 188.535 683.903L195.439 678.251L204.013 680.739C204.589 680.912 205.2 680.744 205.624 680.285C206.039 679.831 206.151 679.218 205.932 678.644L202.685 670.329L207.7 662.946C208.047 662.436 208.071 661.811 207.768 661.276C207.465 660.746 206.987 660.507 206.298 660.478L197.397 660.988L191.923 653.942C191.547 653.456 190.961 653.229 190.351 653.361C189.746 653.483 189.292 653.912 189.136 654.508Z" fill="#371A45"/>
<path d="M102.052 737.519L99.937 745.574L92.102 748.398C89.985 749.161 89.662 752.021 91.555 753.237L98.562 757.738L98.827 766.062C98.899 768.312 101.519 769.502 103.261 768.077L109.707 762.803L117.706 765.123C119.868 765.75 121.81 763.626 120.993 761.529L117.969 753.769L122.647 746.879C123.911 745.017 122.492 742.513 120.245 742.642L111.93 743.12L106.823 736.541C105.444 734.766 102.624 735.343 102.052 737.519Z" fill="#FFD243"/>
<path d="M98.8281 766.064C98.8991 768.314 101.521 769.503 103.263 768.078L109.707 762.807L117.706 765.125C119.867 765.752 121.81 763.629 120.995 761.532L120.057 759.123C119.546 760.304 118.22 761.083 116.796 760.671L108.797 758.353L102.353 763.624C101.208 764.561 99.6801 764.369 98.7471 763.483L98.8281 766.064Z" fill="#FFA92C"/>
<g opacity="0.6">
<path d="M120.245 742.645L110.606 743.247L112.044 745.098L120.098 744.586L120.476 744.03C120.765 743.601 120.898 743.138 120.898 742.686C120.687 742.647 120.47 742.632 120.245 742.645Z" fill="white"/>
</g>
<g opacity="0.6">
<path d="M91.521 748.693C91.698 749.109 92.003 749.482 92.436 749.763L93.607 750.517C93.786 750.391 93.986 750.291 94.207 750.21L102.042 747.387L104.157 739.331C104.565 737.776 106.124 737.038 107.484 737.393L106.825 736.544C105.442 734.767 102.622 735.344 102.051 737.52L99.935 745.573L92.103 748.399C91.892 748.476 91.698 748.575 91.521 748.693Z" fill="white"/>
</g>
<path d="M117.145 754.812L122.649 746.88C123.666 745.381 122.944 743.466 121.449 742.851L115.709 751.132L117.145 754.812Z" fill="#FFA92C"/>
<path d="M91.5549 753.238L99.6789 758.234L99.5549 754.286L91.0769 749.062C89.9439 750.214 90.0319 752.259 91.5549 753.238Z" fill="#FFA92C"/>
<path d="M101.548 769.83C101.006 769.83 100.464 769.715 99.9509 769.481C98.6079 768.871 97.7439 767.574 97.6949 766.1L97.4509 758.373L90.9469 754.193C89.7019 753.395 89.0328 751.988 89.1988 750.521C89.3648 749.054 90.3319 747.833 91.7179 747.332L98.9889 744.71L100.957 737.229C101.328 735.803 102.461 734.734 103.906 734.439C105.337 734.139 106.806 734.676 107.72 735.848L112.466 741.956L120.181 741.514C121.612 741.385 123.018 742.173 123.75 743.455C124.477 744.739 124.414 746.294 123.584 747.518L119.243 753.915L122.046 761.122C122.583 762.494 122.3 764.025 121.304 765.114C120.318 766.2 118.823 766.642 117.388 766.215L109.966 764.059L103.98 768.956C103.276 769.533 102.417 769.83 101.548 769.83ZM103.144 737.807L100.883 746.44L92.4889 749.467C91.9079 749.675 91.5218 750.165 91.4488 750.776C91.3808 751.389 91.6489 751.953 92.1669 752.285L99.6769 757.109L99.9599 766.027C99.9799 766.642 100.326 767.162 100.888 767.419C101.445 767.673 102.07 767.602 102.543 767.202L109.447 761.55L118.021 764.038C118.607 764.211 119.212 764.04 119.632 763.586C120.042 763.132 120.159 762.519 119.935 761.945L116.693 753.627L121.708 746.244C122.055 745.734 122.079 745.109 121.776 744.574C121.473 744.044 121.009 743.759 120.306 743.776L111.405 744.286L105.931 737.24C105.555 736.757 104.969 736.534 104.359 736.659C103.755 736.784 103.301 737.211 103.144 737.807Z" fill="#371A45"/>
<path d="M608.192 288.455L603.392 295.261L595.064 295.166C592.813 295.14 591.51 297.706 592.859 299.508L597.849 306.176L595.185 314.067C594.465 316.2 596.503 318.232 598.633 317.506L606.517 314.821L613.198 319.793C615.004 321.137 617.566 319.827 617.534 317.576L617.416 309.248L624.209 304.43C626.045 303.128 625.591 300.286 623.441 299.621L615.485 297.16L613.002 289.21C612.332 287.062 609.489 286.616 608.192 288.455Z" fill="#FFD243"/>
<path d="M595.184 314.068C594.463 316.2 596.504 318.232 598.634 317.506L606.515 314.822L613.197 319.792C615.002 321.136 617.564 319.826 617.535 317.576L617.499 314.991C616.607 315.918 615.093 316.184 613.903 315.3L607.221 310.33L599.34 313.014C597.939 313.491 596.576 312.776 596.011 311.621L595.184 314.068Z" fill="#FFA92C"/>
<g opacity="0.6">
<path d="M623.441 299.622L614.2 296.813L614.899 299.05L622.623 301.388L623.172 301C623.592 300.699 623.879 300.312 624.037 299.889C623.855 299.778 623.656 299.688 623.441 299.622Z" fill="white"/>
</g>
<g opacity="0.6">
<path d="M594.416 295.238C594.437 295.69 594.591 296.146 594.899 296.561L595.732 297.677C595.944 297.622 596.167 297.598 596.402 297.599L604.73 297.695L609.53 290.888C610.456 289.574 612.175 289.428 613.324 290.237L613.004 289.211C612.33 287.063 609.487 286.616 608.19 288.455L603.39 295.259L595.065 295.166C594.84 295.164 594.623 295.189 594.416 295.238Z" fill="white"/>
</g>
<path d="M616.28 309.935L624.211 304.43C625.688 303.382 625.682 301.335 624.496 300.236L616.222 305.985L616.28 309.935Z" fill="#FFA92C"/>
<path d="M592.859 299.507L598.722 307.03L599.987 303.288L593.873 295.428C592.407 296.111 591.774 298.057 592.859 299.507Z" fill="#FFA92C"/>
<path d="M614.814 321.469C614.003 321.469 613.203 321.21 612.524 320.705L606.318 316.086L598.999 318.579C597.603 319.067 596.084 318.699 595.039 317.661C593.994 316.618 593.638 315.102 594.111 313.704L596.582 306.38L591.953 300.189C591.069 299.01 590.932 297.46 591.601 296.144C592.265 294.826 593.51 294.005 595.078 294.035L602.812 294.123L607.265 287.805C608.115 286.599 609.584 286.001 611.005 286.221C612.465 286.45 613.647 287.468 614.086 288.877L616.386 296.257L623.779 298.542C625.185 298.979 626.206 300.156 626.44 301.613C626.669 303.07 626.069 304.504 624.863 305.358L618.559 309.831L618.667 317.563C618.691 319.038 617.886 320.371 616.577 321.042C616.016 321.327 615.415 321.469 614.814 321.469ZM606.719 313.556L613.877 318.886C614.365 319.25 614.99 319.308 615.542 319.023C616.089 318.742 616.411 318.21 616.401 317.595L616.274 308.672L623.554 303.506C624.057 303.152 624.296 302.576 624.199 301.968C624.101 301.36 623.696 300.886 623.105 300.703L614.58 298.066L611.919 289.548C611.738 288.96 611.265 288.552 610.654 288.457C610.063 288.374 609.472 288.608 609.121 289.109V289.111L603.975 296.401L595.049 296.298C595.044 296.298 595.039 296.298 595.034 296.298C594.424 296.298 593.896 296.623 593.623 297.165C593.345 297.714 593.398 298.337 593.769 298.828L599.111 305.974L596.259 314.429C596.059 315.015 596.205 315.62 596.64 316.057C597.075 316.492 597.7 316.628 598.266 316.435L606.719 313.556Z" fill="#371A45"/>
<path d="M120.055 533.333L116.802 537.946L111.158 537.881C109.633 537.864 108.75 539.603 109.663 540.824L113.045 545.343L111.24 550.691C110.752 552.136 112.133 553.514 113.577 553.022L118.92 551.202L123.448 554.572C124.672 555.483 126.408 554.595 126.387 553.069L126.307 547.425L130.911 544.16C132.155 543.278 131.848 541.351 130.39 540.901L124.998 539.233L123.315 533.845C122.861 532.39 120.934 532.087 120.055 533.333Z" fill="#FFD243"/>
<path d="M111.24 550.692C110.751 552.137 112.134 553.514 113.578 553.022L118.919 551.203L123.448 554.571C124.672 555.482 126.408 554.594 126.388 553.069L126.364 551.317C125.76 551.945 124.733 552.126 123.926 551.527L119.397 548.158L114.056 549.977C113.107 550.3 112.182 549.816 111.8 549.033L111.24 550.692Z" fill="#FFA92C"/>
<g opacity="0.6">
<path d="M130.39 540.901L124.128 538.997L124.602 540.513L129.836 542.098L130.208 541.835C130.493 541.631 130.687 541.369 130.794 541.082C130.671 541.008 130.536 540.947 130.39 540.901Z" fill="white"/>
</g>
<g opacity="0.6">
<path d="M110.719 537.931C110.733 538.237 110.838 538.546 111.046 538.828L111.611 539.584C111.754 539.547 111.905 539.531 112.065 539.531L117.709 539.596L120.962 534.983C121.59 534.092 122.754 533.993 123.533 534.542L123.316 533.847C122.859 532.391 120.932 532.088 120.053 533.335L116.8 537.946L111.158 537.883C111.007 537.88 110.86 537.897 110.719 537.931Z" fill="white"/>
</g>
<path d="M125.537 547.891L130.912 544.16C131.913 543.45 131.909 542.063 131.105 541.318L125.498 545.214L125.537 547.891Z" fill="#FFA92C"/>
<path d="M109.664 540.824L113.638 545.922L114.495 543.386L110.351 538.059C109.358 538.522 108.929 539.841 109.664 540.824Z" fill="#FFA92C"/>
<path d="M124.546 556.073C123.921 556.073 123.301 555.873 122.773 555.482L118.72 552.467L113.945 554.093C112.885 554.462 111.699 554.198 110.883 553.385C110.077 552.582 109.799 551.41 110.165 550.328L111.781 545.545L108.754 541.502C108.07 540.589 107.968 539.393 108.485 538.375C108.998 537.369 110.008 536.749 111.136 536.749C111.146 536.749 111.156 536.749 111.17 536.749L116.219 536.805L119.124 532.679C119.778 531.746 120.877 531.287 122.02 531.456C123.143 531.634 124.056 532.42 124.398 533.509L125.902 538.326L130.726 539.82C131.815 540.154 132.601 541.063 132.782 542.188C132.963 543.313 132.499 544.424 131.566 545.086L127.45 548.006L127.518 553.055C127.538 554.19 126.917 555.221 125.907 555.741C125.474 555.963 125.01 556.073 124.546 556.073ZM119.121 549.938L124.126 553.663C124.443 553.895 124.761 553.788 124.873 553.724C124.99 553.663 125.259 553.482 125.254 553.087L125.166 546.844L130.259 543.236C130.581 543.007 130.567 542.677 130.547 542.548C130.527 542.419 130.435 542.101 130.059 541.986L124.097 540.138L122.232 534.186C122.115 533.805 121.797 533.715 121.671 533.695C121.534 533.68 121.207 533.668 120.982 533.986L117.383 539.086L111.143 539.015C111.143 539.015 111.138 539.015 111.133 539.015C110.747 539.015 110.567 539.286 110.508 539.403C110.449 539.52 110.332 539.828 110.571 540.145L114.311 545.14L112.314 551.056C112.187 551.43 112.392 551.688 112.485 551.781C112.578 551.874 112.832 552.079 113.213 551.949L119.121 549.938Z" fill="#371A45"/>
<path d="M318.006 635.654L314.753 640.267L309.109 640.202C307.584 640.184 306.701 641.924 307.614 643.145L310.996 647.664L309.19 653.012C308.702 654.457 310.083 655.835 311.527 655.343L316.87 653.523L321.398 656.893C322.622 657.804 324.358 656.916 324.337 655.391L324.257 649.747L328.861 646.482C330.105 645.6 329.797 643.673 328.34 643.223L322.948 641.555L321.265 636.167C320.812 634.71 318.885 634.408 318.006 635.654Z" fill="#FFD243"/>
<path d="M309.191 653.013C308.702 654.458 310.086 655.835 311.529 655.343L316.87 653.524L321.399 656.892C322.622 657.803 324.359 656.915 324.339 655.39L324.314 653.638C323.71 654.266 322.683 654.447 321.876 653.848L317.347 650.48L312.006 652.299C311.057 652.622 310.132 652.138 309.75 651.355L309.191 653.013Z" fill="#FFA92C"/>
<g opacity="0.6">
<path d="M328.341 643.222L322.078 641.319L322.552 642.835L327.787 644.42L328.159 644.157C328.444 643.953 328.638 643.691 328.745 643.404C328.621 643.328 328.487 643.267 328.341 643.222Z" fill="white"/>
</g>
<g opacity="0.6">
<path d="M308.67 640.251C308.684 640.557 308.789 640.866 308.997 641.148L309.561 641.904C309.704 641.867 309.856 641.85 310.015 641.851L315.659 641.916L318.912 637.303C319.54 636.412 320.704 636.313 321.484 636.862L321.267 636.167C320.81 634.711 318.883 634.409 318.005 635.655L314.752 640.266L309.11 640.203C308.957 640.201 308.811 640.218 308.67 640.251Z" fill="white"/>
</g>
<path d="M323.488 650.212L328.863 646.481C329.864 645.771 329.86 644.384 329.056 643.639L323.448 647.535L323.488 650.212Z" fill="#FFA92C"/>
<path d="M307.615 643.145L311.589 648.243L312.446 645.707L308.302 640.38C307.308 640.843 306.879 642.162 307.615 643.145Z" fill="#FFA92C"/>
<path d="M322.495 658.395C321.87 658.395 321.25 658.195 320.723 657.802L316.67 654.789L311.895 656.415C310.816 656.788 309.639 656.513 308.833 655.705C308.027 654.899 307.749 653.73 308.115 652.648L309.731 647.868L306.709 643.825C306.025 642.917 305.918 641.718 306.436 640.7C306.944 639.692 307.959 639.069 309.092 639.069C309.102 639.069 309.112 639.069 309.126 639.069L314.17 639.128L317.08 635C317.734 634.07 318.867 633.606 319.971 633.779C321.099 633.955 322.007 634.741 322.349 635.83L323.853 640.649L328.677 642.141C329.766 642.478 330.557 643.386 330.733 644.514C330.914 645.639 330.45 646.748 329.517 647.407L325.401 650.327L325.469 655.376C325.489 656.514 324.868 657.546 323.853 658.066C323.418 658.285 322.954 658.395 322.495 658.395ZM317.07 652.26L322.075 655.983C322.392 656.222 322.695 656.105 322.817 656.047C322.934 655.986 323.208 655.805 323.203 655.407L323.115 649.169L328.208 645.556C328.53 645.327 328.516 644.999 328.496 644.87C328.476 644.741 328.384 644.423 328.003 644.304L322.046 642.461L320.181 636.506C320.064 636.125 319.751 636.037 319.62 636.018C319.498 635.991 319.171 635.976 318.936 636.308L315.332 641.408L309.097 641.335C309.097 641.335 309.092 641.335 309.087 641.335C308.696 641.335 308.516 641.606 308.457 641.723C308.398 641.84 308.286 642.148 308.52 642.465L312.26 647.463L310.263 653.376C310.136 653.749 310.341 654.008 310.434 654.101C310.527 654.194 310.776 654.409 311.162 654.269L317.07 652.26Z" fill="#371A45"/>
<path d="M91.0851 421.708L87.832 426.321L82.188 426.256C80.663 426.239 79.779 427.978 80.693 429.199L84.075 433.718L82.2701 439.066C81.7821 440.511 83.163 441.889 84.607 441.397L89.95 439.577L94.4781 442.947C95.7021 443.858 97.439 442.97 97.417 441.445L97.337 435.801L101.941 432.536C103.185 431.654 102.878 429.728 101.42 429.277L96.028 427.609L94.345 422.221C93.891 420.764 91.9641 420.461 91.0851 421.708Z" fill="#FFD243"/>
<path d="M82.2697 439.066C81.7807 440.511 83.1637 441.888 84.6077 441.396L89.9487 439.577L94.4777 442.945C95.7007 443.856 97.4377 442.968 97.4177 441.443L97.3937 439.691C96.7897 440.319 95.7627 440.5 94.9557 439.901L90.4267 436.533L85.0857 438.352C84.1367 438.676 83.2117 438.191 82.8297 437.408L82.2697 439.066Z" fill="#FFA92C"/>
<g opacity="0.6">
<path d="M101.42 429.276L95.1567 427.372L95.6307 428.888L100.866 430.473L101.238 430.21C101.523 430.006 101.717 429.744 101.824 429.457C101.701 429.382 101.566 429.321 101.42 429.276Z" fill="white"/>
</g>
<g opacity="0.6">
<path d="M81.749 426.305C81.763 426.611 81.867 426.92 82.076 427.202L82.64 427.958C82.783 427.921 82.935 427.904 83.094 427.905L88.738 427.97L91.991 423.356C92.619 422.465 93.783 422.366 94.562 422.915L94.345 422.22C93.888 420.764 91.961 420.462 91.082 421.708L87.829 426.319L82.187 426.256C82.037 426.255 81.89 426.271 81.749 426.305Z" fill="white"/>
</g>
<path d="M96.5668 436.265L101.942 432.534C102.943 431.824 102.939 430.437 102.135 429.692L96.5278 433.589L96.5668 436.265Z" fill="#FFA92C"/>
<path d="M80.6939 429.198L84.667 434.296L85.524 431.76L81.38 426.433C80.388 426.896 79.9579 428.215 80.6939 429.198Z" fill="#FFA92C"/>
<path d="M95.5758 444.447C94.9508 444.447 94.3259 444.247 93.8039 443.856L89.7508 440.841L84.9759 442.467C83.9109 442.836 82.7299 442.567 81.9139 441.759C81.1079 440.956 80.8298 439.784 81.1958 438.702L82.8119 433.919L79.7848 429.876C79.1008 428.963 78.9989 427.767 79.5169 426.749C80.0299 425.743 81.0399 425.123 82.1679 425.123C82.1779 425.123 82.1879 425.123 82.2019 425.123L87.2508 425.179L90.1559 421.055C90.8149 420.12 91.8989 419.663 93.0519 419.829C94.1749 420.007 95.0878 420.793 95.4298 421.882L96.9339 426.699L101.758 428.193C102.842 428.527 103.628 429.433 103.814 430.559C103.995 431.684 103.531 432.795 102.603 433.457L98.4819 436.379L98.5498 441.428C98.5648 442.568 97.9439 443.598 96.9289 444.116C96.4989 444.337 96.0348 444.447 95.5758 444.447ZM90.1509 438.312L95.1559 442.038C95.4729 442.27 95.7859 442.163 95.8979 442.099C96.0149 442.04 96.2889 441.857 96.2839 441.459L96.1958 435.219L101.289 431.611C101.611 431.384 101.597 431.052 101.572 430.922C101.552 430.79 101.465 430.475 101.089 430.361L95.1269 428.513L93.2619 422.561C93.1449 422.18 92.8269 422.09 92.6999 422.07C92.5679 422.05 92.2409 422.046 92.0119 422.36L88.4129 427.46L82.1728 427.389C82.1728 427.389 82.1679 427.389 82.1629 427.389C81.7769 427.389 81.5969 427.66 81.5379 427.777C81.4789 427.894 81.3619 428.202 81.6009 428.519L85.3409 433.514L83.3439 439.429C83.2169 439.803 83.4219 440.061 83.5149 440.154C83.6079 440.247 83.8469 440.454 84.2419 440.323L90.1509 438.312Z" fill="#371A45"/>
<path d="M395.943 346.365L394.45 351.808L389.119 353.664C387.678 354.165 387.438 356.101 388.713 356.94L393.428 360.042L393.546 365.685C393.578 367.21 395.344 368.037 396.536 367.084L400.944 363.558L406.347 365.19C407.807 365.631 409.139 364.206 408.601 362.779L406.61 357.498L409.832 352.863C410.703 351.611 409.759 349.903 408.235 349.974L402.597 350.236L399.185 345.74C398.262 344.525 396.347 344.894 395.943 346.365Z" fill="#FFD243"/>
<path d="M393.546 365.686C393.577 367.211 395.346 368.037 396.537 367.084L400.943 363.56L406.346 365.191C407.806 365.632 409.138 364.208 408.601 362.78L407.983 361.141C407.628 361.937 406.724 362.455 405.762 362.166L400.358 360.535L395.952 364.059C395.169 364.686 394.135 364.544 393.509 363.937L393.546 365.686Z" fill="#FFA92C"/>
<g opacity="0.6">
<path d="M408.234 349.974L401.697 350.31L402.658 351.575L408.12 351.288L408.38 350.914C408.579 350.626 408.672 350.313 408.676 350.006C408.534 349.979 408.386 349.967 408.234 349.974Z" fill="white"/>
</g>
<g opacity="0.6">
<path d="M388.723 353.859C388.84 354.142 389.043 354.398 389.335 354.591L390.123 355.111C390.245 355.027 390.382 354.961 390.532 354.907L395.863 353.052L397.356 347.608C397.644 346.557 398.706 346.069 399.625 346.32L399.185 345.74C398.261 344.526 396.346 344.895 395.942 346.366L394.448 351.808L389.12 353.665C388.976 353.714 388.844 353.78 388.723 353.859Z" fill="white"/>
</g>
<path d="M406.042 358.197L409.831 352.862C410.531 351.854 410.057 350.551 409.048 350.123L405.097 355.692L406.042 358.197Z" fill="#FFA92C"/>
<path d="M388.713 356.939L394.182 360.385L394.127 357.708L388.421 354.105C387.643 354.878 387.687 356.264 388.713 356.939Z" fill="#FFA92C"/>
<path d="M395.391 368.624C394.966 368.624 394.537 368.531 394.131 368.341C393.096 367.86 392.437 366.852 392.412 365.709L392.305 360.663L388.086 357.887C387.139 357.262 386.636 356.171 386.773 355.04C386.914 353.907 387.671 352.97 388.746 352.594L393.512 350.934L394.85 346.066C395.153 344.965 396.037 344.149 397.155 343.932C398.249 343.72 399.396 344.144 400.09 345.053L403.142 349.076L408.181 348.842C409.436 348.788 410.373 349.381 410.925 350.378C411.477 351.377 411.413 352.578 410.759 353.513L407.883 357.656L409.66 362.383C410.065 363.445 409.831 364.624 409.055 365.459C408.279 366.289 407.121 366.611 406.023 366.274L401.189 364.816L397.244 367.97C396.704 368.4 396.05 368.624 395.391 368.624ZM397.036 346.666L395.386 352.682L389.492 354.733C389.116 354.865 389.038 355.187 389.023 355.319C389.003 355.451 389.003 355.778 389.331 355.993L394.551 359.423L394.678 365.661C394.688 366.059 394.966 366.232 395.088 366.289C395.21 366.34 395.513 366.45 395.825 366.201L400.698 362.302L406.675 364.106C407.071 364.218 407.31 364.008 407.398 363.911C407.486 363.816 407.681 363.552 407.539 363.184L405.342 357.339L408.897 352.217C409.126 351.892 409.004 351.59 408.941 351.475C408.878 351.36 408.55 351.082 408.287 351.109L402.056 351.397L398.282 346.426C398.048 346.116 397.72 346.133 397.584 346.16C397.456 346.183 397.139 346.283 397.036 346.666Z" fill="#371A45"/>
<path d="M533.78 658.538L530.527 663.151L524.883 663.086C523.358 663.069 522.475 664.808 523.388 666.029L526.77 670.548L524.964 675.896C524.476 677.341 525.857 678.719 527.301 678.227L532.644 676.407L537.172 679.777C538.396 680.688 540.132 679.8 540.111 678.274L540.031 672.63L544.635 669.365C545.879 668.482 545.572 666.556 544.114 666.106L538.722 664.438L537.039 659.05C536.586 657.594 534.659 657.291 533.78 658.538Z" fill="#FFD243"/>
<path d="M524.965 675.896C524.476 677.341 525.859 678.718 527.303 678.226L532.644 676.407L537.173 679.775C538.396 680.686 540.133 679.798 540.113 678.273L540.089 676.521C539.485 677.149 538.458 677.33 537.651 676.73L533.122 673.362L527.781 675.181C526.832 675.504 525.907 675.02 525.525 674.237L524.965 675.896Z" fill="#FFA92C"/>
<g opacity="0.6">
<path d="M544.115 666.106L537.853 664.202L538.327 665.718L543.561 667.303L543.933 667.04C544.218 666.836 544.412 666.574 544.519 666.287C544.395 666.212 544.261 666.151 544.115 666.106Z" fill="white"/>
</g>
<g opacity="0.6">
<path d="M524.444 663.135C524.458 663.441 524.563 663.75 524.771 664.032L525.335 664.788C525.479 664.751 525.63 664.734 525.789 664.735L531.433 664.8L534.686 660.187C535.314 659.296 536.478 659.197 537.257 659.745L537.04 659.05C536.583 657.594 534.656 657.292 533.777 658.538L530.524 663.149L524.882 663.086C524.731 663.085 524.584 663.102 524.444 663.135Z" fill="white"/>
</g>
<path d="M539.262 673.095L544.637 669.364C545.638 668.654 545.634 667.267 544.83 666.522L539.222 670.418L539.262 673.095Z" fill="#FFA92C"/>
<path d="M523.389 666.028L527.363 671.126L528.22 668.59L524.076 663.263C523.082 663.727 522.653 665.046 523.389 666.028Z" fill="#FFA92C"/>
<path d="M538.267 681.276C537.642 681.276 537.022 681.078 536.499 680.688L532.446 677.673L527.666 679.299C526.601 679.672 525.425 679.399 524.609 678.593C523.803 677.787 523.525 676.613 523.891 675.532L525.507 670.752L522.48 666.709C521.796 665.796 521.694 664.597 522.212 663.579C522.725 662.576 523.735 661.956 524.858 661.956C524.873 661.956 524.882 661.956 524.897 661.956L529.946 662.012L532.851 657.888C533.51 656.953 534.604 656.482 535.747 656.662C536.87 656.838 537.783 657.624 538.125 658.713L539.629 663.532L544.453 665.024C545.542 665.361 546.328 666.269 546.509 667.397C546.69 668.52 546.221 669.628 545.293 670.288L541.177 673.21L541.245 678.261C541.26 679.401 540.64 680.431 539.624 680.949C539.194 681.168 538.73 681.276 538.267 681.276ZM532.847 675.143L537.852 678.869C538.16 679.103 538.472 678.986 538.594 678.93C538.711 678.871 538.985 678.688 538.98 678.29L538.892 672.052L543.985 668.439C544.303 668.212 544.293 667.882 544.268 667.753C544.249 667.621 544.161 667.304 543.78 667.187L537.823 665.344L535.958 659.389C535.841 659.011 535.523 658.92 535.396 658.901C535.264 658.881 534.937 658.876 534.708 659.191L531.109 664.291L524.869 664.22C524.869 664.22 524.864 664.22 524.859 664.22C524.473 664.22 524.293 664.488 524.234 664.606C524.175 664.723 524.058 665.033 524.297 665.351L528.037 670.346L526.04 676.259C525.913 676.635 526.118 676.894 526.211 676.986C526.304 677.076 526.548 677.289 526.934 677.155L532.847 675.143Z" fill="#371A45"/>
<mask id="mask0_385_6" style="mask-type:luminance" maskUnits="userSpaceOnUse" x="15" y="173" width="644" height="679">
<path d="M33.296 836.02C32.084 846.42 42.586 854.196 52.129 849.803C113.119 821.781 165.224 778.109 213.895 761.902C226.467 757.712 239.846 756.853 253.024 758.368C418.728 777.15 557.017 751.249 653.35 657.138L658.55 173.203C633.71 194.61 605.032 211.574 573.375 225.106C534.347 241.717 490.725 252.925 443.922 260.499C413.427 265.447 382.578 266.861 351.729 266.962C339.763 267.013 327.898 267.719 316.134 269.032C271.452 273.98 228.233 287.461 187.489 304.627C136.95 325.883 90.146 352.794 49.0489 376.068C36.3259 383.238 27.4399 395.608 24.5109 409.896C0.88192 525.313 30.115 637.197 35.517 748.019C36.932 777.402 36.679 806.737 33.296 836.02Z" fill="white"/>
</mask>
<g mask="url(#mask0_385_6)">
<path d="M-16.2147 769.833C-15.6297 775.183 -14.7167 780.533 -13.4827 785.848C-10.6507 798.061 -6.09269 810.088 0.306314 821.594C37.1943 887.972 120.899 911.877 187.278 874.996C240.131 845.627 266.054 786.568 255.803 730.212C253.178 715.788 248.192 701.549 240.68 688.024C228.945 666.916 212.481 650.102 193.341 638.182C190.266 636.256 187.113 634.458 183.903 632.796C166.618 623.829 147.586 618.607 128.125 617.516C127.954 617.509 127.783 617.495 127.611 617.487C126.42 617.423 125.228 617.373 124.03 617.344C121.654 617.28 119.279 617.28 116.903 617.337C100.76 617.744 84.5093 621.011 68.9223 627.353C63.7723 629.436 58.6853 631.861 53.7063 634.629C52.6363 635.228 51.5733 635.827 50.5243 636.455C49.8893 636.826 49.2613 637.211 48.6413 637.596C2.08928 666.067 -21.8507 718.314 -16.2147 769.833Z" fill="#FFD243"/>
<path d="M187.275 874.993C120.896 911.875 37.1953 887.97 0.306297 821.591C-6.0887 810.085 -10.6517 798.061 -13.4817 785.85C-14.7197 780.536 -15.6287 775.185 -16.2137 769.833C-17.2567 760.301 -17.2867 750.739 -16.3487 741.305C-16.3037 741.74 -16.2587 742.176 -16.2137 742.611C-15.6287 747.963 -14.7197 753.314 -13.4817 758.628C-10.6517 770.84 -6.0887 782.863 0.306297 794.369C37.1963 860.748 120.897 884.653 187.275 847.771C228.225 825.014 253.008 784.439 257.324 741.103C262.608 794.038 236.729 847.508 187.275 874.993Z" fill="#FCAC38"/>
<path d="M86.2549 688.68C71.7449 689.401 61.4949 684.454 63.3609 677.631C65.2269 670.808 78.5028 664.693 93.0128 663.972C107.523 663.251 117.773 668.198 115.907 675.021C114.04 681.844 100.765 687.959 86.2549 688.68Z" fill="#FFD243"/>
<path d="M36.8509 769.884C40.6049 786.637 35.4649 800.198 25.3699 800.173C15.2749 800.148 3.13687 786.976 -0.617134 770.222C-4.37113 753.469 1.68089 739.478 11.7749 739.503C21.8709 739.528 33.0969 753.13 36.8509 769.884Z" fill="#FCAC38"/>
<path d="M46.654 757.192C62.201 771.3 55.776 807.269 32.538 808.301C31.793 808.244 31.234 807.592 31.29 806.847C31.329 806.298 31.687 805.866 32.164 805.675C44.106 799.471 46.912 784.495 46.539 772.172C46.275 767.81 45.441 763.485 43.917 758.981C43.316 757.393 45.462 756.013 46.654 757.192Z" fill="#FF8A3B"/>
<path d="M183.293 660.975C190.833 661.284 196.776 666.752 196.568 673.187C196.36 679.622 190.078 684.588 182.538 684.279C174.998 683.97 169.055 678.503 169.263 672.068C169.471 665.633 175.753 660.666 183.293 660.975Z" fill="#FCAC38"/>
<path d="M183.444 669.049C188.634 671.32 191.248 676.517 189.282 680.655C187.316 684.793 181.515 686.307 176.324 684.036C171.134 681.765 168.52 676.568 170.486 672.43C172.453 668.291 178.254 666.778 183.444 669.049Z" fill="#FFD243"/>
<path d="M182.572 683.574C203.833 679.714 191.919 657.046 175.338 665.371C171.307 667.595 169.044 672.683 171.229 677.734C171.713 678.752 170.252 679.648 169.552 678.798C159.276 665.009 179.101 651.97 191.713 659.319C207.743 667.719 199.156 689.16 182.472 686.037C181.105 685.791 181.221 683.699 182.572 683.574Z" fill="#FF8A3B"/>
<path d="M166.786 665.427C157.323 688.463 197.299 696.843 202.323 674.536C202.498 673.427 204.199 673.509 204.308 674.6C205.51 696.839 170.884 700.871 162.331 682.109C159.232 676.157 160.346 668.377 164.765 664.014C165.719 663.009 167.389 664.214 166.786 665.427Z" fill="#FF8A3B"/>
<path d="M220.38 706.409C189.621 718.296 202.703 764.582 232.619 768.549C234.116 768.703 234.105 771.044 232.623 771.199C215.172 773.624 198.714 759.109 194.943 742.403C189.984 725.627 201.108 703.563 219.773 703.177C221.623 703.093 222.111 705.825 220.38 706.409Z" fill="#FF8A3B"/>
<path d="M232.943 760.477C243.629 758.583 250.439 746.596 248.154 733.703C245.869 720.809 235.355 711.892 224.669 713.786C213.983 715.68 207.173 727.667 209.457 740.56C211.742 753.453 222.257 762.37 232.943 760.477Z" fill="#FCAC38"/>
<path d="M229.484 757.284C222.494 757.367 215.386 752.61 211.735 744.615C206.878 733.968 209.99 721.605 218.687 716.998C219.914 716.346 221.189 715.886 222.487 715.608C227.618 717.699 232.218 722.09 235.006 728.19C239.938 739.005 237.413 751.429 229.484 757.284Z" fill="#FFD243"/>
<path d="M245.609 729.512C240.841 722.713 232.926 718.687 226.053 719.929C209.868 723.15 212.64 746.28 225.465 752.722C232.225 756.617 240.928 755.354 245.921 748.909C246.827 747.691 248.811 748.882 248.214 750.242C236.786 772.929 205.516 756.896 205.922 734.787C205.331 723.963 213.88 712.624 225.153 712.148C236.234 711.315 245.529 719.116 248.546 728.029C249.192 729.805 246.629 731.054 245.609 729.512Z" fill="#FF8A3B"/>
<path d="M68.5541 730.942C70.1401 779.05 132.721 782.353 149.306 741.036C149.831 739.573 152.164 740.241 151.857 741.757C145.993 777.859 95.3901 792.436 72.6191 762.552C65.4561 753.439 62.898 741.278 65.285 730.587C65.678 728.705 68.5881 729.034 68.5541 730.942Z" fill="#FF8A3B"/>
<path d="M138.454 740.932C142.577 726.279 132.892 710.734 116.82 706.211C100.748 701.688 84.3768 709.9 80.2529 724.553C76.1291 739.207 85.8148 754.752 101.886 759.275C117.958 763.798 134.33 755.586 138.454 740.932Z" fill="#FCAC38"/>
<path d="M134.126 740.295C131.562 749.717 123.089 757.255 112.008 758.783C97.2532 760.811 83.4552 751.411 81.1852 737.786C80.8622 735.863 80.7902 733.956 80.9482 732.096C85.4382 726.088 92.5123 721.764 100.968 720.595C115.955 718.537 130.051 727.174 134.126 740.295Z" fill="#FFD243"/>
<path d="M106.566 706.245C84.466 712.007 77.8111 743.952 100.734 752.224C110.099 755.581 121.615 752.16 128.282 744.14C135.155 736.362 136.888 723.781 130.46 714.267C129.536 712.981 131.435 711.455 132.506 712.583C153.784 735.242 125.901 770.575 97.8771 760.592C67.1871 750.02 74.9341 705.772 105.979 703.007C107.922 702.818 108.427 705.746 106.566 706.245Z" fill="#FF8A3B"/>
<path d="M187.218 809.896C193.687 813.301 198.739 818.27 201.562 824.614C206.678 836.11 203.053 848.814 193.696 859.997C187.557 867.334 178.841 873.725 168.253 878.015C141.526 888.845 112.992 882.19 104.519 863.152C101.366 856.068 101.436 848.267 104.143 840.706C108.711 827.947 121.046 816.55 137.828 809.75L187.218 809.896Z" fill="#FFD243"/>
<path d="M203.065 823.945C209.678 835.236 205.936 850.051 198.555 860.056C180.492 885.236 141.209 896.464 114.556 878.587C109.485 874.787 105.222 869.646 103.308 863.691C103.081 862.993 103.464 862.241 104.163 862.014C104.771 861.816 105.42 862.082 105.728 862.614C111.465 872.551 122.386 877.355 133.165 878.747C162.035 883.02 208.575 859.289 200.061 825.283C199.358 823.451 202.179 822.209 203.065 823.945Z" fill="#FF8A3B"/>
<path d="M160.404 871.428C181.58 865.824 195.446 848.805 191.373 833.415C187.301 818.024 166.833 810.09 145.656 815.694C124.48 821.297 110.614 838.316 114.687 853.707C118.759 869.097 139.228 877.031 160.404 871.428Z" fill="#FCAC38"/>
<path d="M154.811 872.561C173.089 869.287 186.233 857.291 184.169 845.765C182.104 834.24 165.614 827.551 147.336 830.825C129.058 834.099 115.914 846.096 117.978 857.621C120.043 869.146 136.533 875.835 154.811 872.561Z" fill="#FFD243"/>
<path d="M126.229 871.128C109.056 864.426 106.991 842.736 118.127 829.468C132.997 810.505 162.368 802.029 183.57 815.398C208.64 833.154 188.853 864.732 165.085 871.011C163.561 871.519 162.657 869.24 164.09 868.555C175.899 862.516 188.064 851.166 187.923 837.452C186.015 815.299 156.322 814.464 140.477 822.421C122.003 829.542 106.549 854.793 127.76 868.219C129.442 869.244 127.994 871.903 126.229 871.128Z" fill="#FF8A3B"/>
<path d="M68.1052 679.354C63.2792 676.179 59.6882 671.883 57.9552 666.677C54.8152 657.243 58.6422 647.531 66.8592 639.455C72.2502 634.156 79.5962 629.8 88.2522 627.239C110.103 620.775 132.033 628.201 137.233 643.824C139.168 649.637 138.514 655.767 135.804 661.505C131.231 671.188 120.655 679.204 106.935 683.262L68.1052 679.354Z" fill="#FFD243"/>
<path d="M56.3962 667.197C47.7322 646.655 69.4991 627.323 87.8391 622.769C106.08 617.4 133.278 622.275 138.492 643.406C138.805 644.904 136.61 645.62 135.977 644.243C119.96 614.648 55.5582 631.795 59.5162 666.157C59.9492 668.003 57.1492 668.914 56.3962 667.197Z" fill="#FF8A3B"/>
<path d="M101.253 677.857C118.338 675.077 130.55 662.758 128.529 650.342C126.509 637.925 111.021 630.114 93.9365 632.893C76.8519 635.673 64.6398 647.993 66.6601 660.409C68.6804 672.825 84.1682 680.637 101.253 677.857Z" fill="#FCAC38"/>
<path d="M101.02 665.943C115.646 664.772 126.904 656.347 126.166 647.124C125.428 637.902 112.972 631.375 98.3463 632.546C83.7201 633.717 72.4618 642.142 73.2001 651.365C73.9384 660.587 86.3937 667.114 101.02 665.943Z" fill="#FFD243"/>
<path d="M120.963 635.596C134.405 642.081 134.514 660.003 124.537 669.839C111.107 684.054 86.8672 688.506 70.8412 675.992C51.9952 659.627 70.1802 635.589 90.1262 632.726C91.6672 632.404 92.3273 634.714 90.8773 635.267C81.3763 639.212 71.3012 647.255 70.4622 657.716C70.4762 674.542 92.9913 676.987 105.52 672.235C120.138 668.21 134.062 650.474 119.153 638.343C117.649 637.146 119.302 634.713 120.963 635.596Z" fill="#FF8A3B"/>
<path d="M30.6959 794.16C37.971 791.692 40.0302 778.377 35.2951 764.421C30.56 750.465 20.8238 741.152 13.5487 743.621C6.2736 746.089 4.2145 759.404 8.94955 773.36C13.6846 787.316 23.4207 796.629 30.6959 794.16Z" fill="#FFD243"/>
<path d="M-1.35385 747.178C4.25415 732.927 21.5991 736.323 29.9301 745.746C42.0061 758.641 48.4362 779.568 38.4862 795.706C23.7792 814.771 1.56018 793.314 -1.34982 776.245C-1.74882 774.727 0.516125 773.953 1.14713 775.362C5.38412 783.895 12.4761 793.236 21.7841 795.289C37.6181 796.591 35.7272 773.861 31.4842 763.722C27.9302 752.079 12.0851 734.377 1.54715 748.729C0.501149 750.354 -2.11185 748.918 -1.35385 747.178Z" fill="#FF8A3B"/>
<g opacity="0.6">
<path d="M47.0191 665.309C46.3371 681.93 19.1691 695.555 8.62211 738.753C4.14711 757.078 -10.7989 736.154 3.90409 701.789C17.5321 669.94 47.5001 653.594 47.0191 665.309Z" fill="white"/>
</g>
<g opacity="0.6">
<path d="M87.7638 642.856C83.9028 647.733 71.8698 649.423 61.1828 656.548C49.7578 664.166 41.5948 657.636 58.8178 641.47C77.1778 624.237 95.0418 633.663 87.7638 642.856Z" fill="white"/>
</g>
<path d="M120.732 896.725C70.8201 896.725 22.3341 870.387 -3.57993 823.751C-10.0399 812.142 -14.8249 799.728 -17.8129 786.852C-19.0829 781.391 -20.0299 775.827 -20.6349 770.316C-26.5869 715.904 -0.30291 662.32 46.3231 633.805C46.9481 633.414 47.6121 633.012 48.2861 632.619C49.3311 631.992 50.4301 631.369 51.5381 630.751C56.6111 627.929 61.8991 625.402 67.2561 623.232C83.0671 616.801 99.7371 613.322 116.792 612.895C119.253 612.834 121.699 612.836 124.15 612.902C125.38 612.931 126.616 612.983 127.846 613.049L128.373 613.078C148.309 614.196 168.217 619.65 185.946 628.852C189.281 630.576 192.562 632.451 195.702 634.418C215.97 647.04 232.87 664.833 244.564 685.863C252.152 699.52 257.401 714.173 260.174 729.418C271.058 789.257 242.63 849.323 189.432 878.883C167.656 890.98 144.038 896.725 120.732 896.725ZM-11.7969 769.349C-11.2309 774.51 -10.3419 779.723 -9.15091 784.842C-6.35291 796.91 -1.86594 808.546 4.19406 819.432C39.8241 883.558 120.991 906.746 185.117 871.109C234.985 843.401 261.631 787.098 251.426 731.009C248.833 716.722 243.906 702.987 236.792 690.181C225.835 670.467 209.995 653.789 190.991 641.956C188.047 640.11 184.98 638.36 181.86 636.744C165.229 628.116 146.567 623.001 127.876 621.954L127.612 617.486L127.378 621.924C126.226 621.863 125.078 621.817 123.926 621.787C121.616 621.726 119.317 621.729 117.007 621.78C101.035 622.183 85.4201 625.442 70.6011 631.47C65.5721 633.506 60.6161 635.874 55.8651 638.513C54.8441 639.087 53.8241 639.665 52.8081 640.271C52.1731 640.642 51.5771 641.006 50.9921 641.37C7.2611 668.117 -17.3779 718.346 -11.7969 769.349Z" fill="#371A45"/>
</g>
<g filter="url(#filter0_dd_385_6)">
<path d="M1027.5 724C1081 613.5 1098.61 613.576 1155 559.5C1244.5 501 1359.39 465.249 1462 467C1530.5 479.5 1626.5 460 1781.5 633C1828.29 698.87 1833 699.5 1872 771.5C1693.5 547 1510.5 554 1448 533.5C1317.73 531.227 1236.26 525.43 1123.5 604C1093.35 624.975 1050.33 679.5 1027.5 724Z" fill="white"/>
<path d="M1037.17 705.573C1058.94 662.501 1074.61 638.976 1090.54 620.922C1099.59 610.668 1108.73 602.171 1119.15 592.85C1129.55 583.539 1141.22 573.404 1155.31 559.893C1244.72 501.465 1359.47 465.761 1461.95 467.501C1479.08 470.623 1497.97 471.754 1518.96 474.379C1540 477.009 1563.22 481.144 1589.15 490.284C1640.98 508.561 1703.66 546.876 1781.11 633.318C1826.8 697.632 1832.34 699.72 1868.87 766.8C1780.71 657.443 1691.64 604.06 1616.68 575.533C1578.7 561.082 1544.36 553.013 1515.61 547.276C1486.83 541.532 1463.74 538.138 1448.16 533.025L1448.08 533.002L1448.01 533C1382.9 531.864 1329.91 529.844 1279.11 537.94C1229.08 545.914 1181.17 563.697 1125.85 601.762L1123.21 603.59C1108.08 614.118 1089.75 633.037 1072.36 654.867C1059.59 670.898 1047.32 688.519 1037.17 705.573Z" stroke="black"/>
</g>
<defs>
<filter id="filter0_dd_385_6" x="1023.5" y="466.938" width="852.5" height="312.562" filterUnits="userSpaceOnUse" color-interpolation-filters="sRGB">
<feFlood flood-opacity="0" result="BackgroundImageFix"/>
<feColorMatrix in="SourceAlpha" type="matrix" values="0 0 0 0 0 0 0 0 0 0 0 0 0 0 0 0 0 0 127 0" result="hardAlpha"/>
<feOffset dy="4"/>
<feGaussianBlur stdDeviation="2"/>
<feComposite in2="hardAlpha" operator="out"/>
<feColorMatrix type="matrix" values="0 0 0 0 0 0 0 0 0 0 0 0 0 0 0 0 0 0 0.25 0"/>
<feBlend mode="normal" in2="BackgroundImageFix" result="effect1_dropShadow_385_6"/>
<feColorMatrix in="SourceAlpha" type="matrix" values="0 0 0 0 0 0 0 0 0 0 0 0 0 0 0 0 0 0 127 0" result="hardAlpha"/>
<feOffset dy="4"/>
<feGaussianBlur stdDeviation="2"/>
<feComposite in2="hardAlpha" operator="out"/>
<feColorMatrix type="matrix" values="0 0 0 0 0 0 0 0 0 0 0 0 0 0 0 0 0 0 0.25 0"/>
<feBlend mode="normal" in2="effect1_dropShadow_385_6" result="effect2_dropShadow_385_6"/>
<feBlend mode="normal" in="SourceGraphic" in2="effect2_dropShadow_385_6" result="shape"/>
</filter>
</defs>
</svg>
