<svg width="646" height="646" viewBox="0 0 646 646" fill="none" xmlns="http://www.w3.org/2000/svg">
<path d="M323.47 645.02C501.582 645.02 645.97 500.632 645.97 322.52C645.97 144.408 501.582 0.0200195 323.47 0.0200195C145.358 0.0200195 0.969971 144.408 0.969971 322.52C0.969971 500.632 145.358 645.02 323.47 645.02Z" fill="#F15A29"/>
<path d="M48.95 153.28C179.99 151.57 377.27 139.27 545.29 88.54C579.77 121.24 607.01 161.46 624.42 206.6C512.05 239.84 285.86 292.1 3.72002 281.06C9.67002 234.66 25.43 191.34 48.95 153.28Z" fill="#F7941E"/>
<path d="M1.08002 327.05C1.28002 341.37 2.37004 355.47 4.38004 369.29C304.54 392.91 554.5 333.15 645.58 307.19C644.64 287.09 641.79 267.49 637.33 248.52C420.81 322.04 115.71 327.76 1.08002 327.05Z" fill="#EF4136"/>
<path d="M613.01 464.53C629.52 430.93 640.42 394.08 644.33 355.15C406.96 414.99 152.8 419.92 15.06 416.98C28.42 460.67 50.95 500.27 80.19 533.9C78.03 531.41 75.81 528.96 73.72 526.4C236.76 517.6 429.08 499.77 613.01 464.53Z" fill="#F7941E"/>
<path d="M612.99 464.56L613.01 464.52C429.08 499.77 236.76 517.6 73.71 526.39C75.8 528.95 78.02 531.4 80.18 533.89C82.8 536.9 85.45 539.89 88.18 542.8C90.56 545.34 92.96 547.86 95.42 550.33C98.74 553.64 102.15 556.85 105.6 560.03C108.85 563.02 112.17 565.93 115.54 568.78C119.08 571.78 122.66 574.73 126.33 577.57C128.87 579.54 131.46 581.47 134.06 583.36C137.92 586.17 141.86 588.88 145.85 591.51C147.95 592.91 150 594.37 152.14 595.71C157.92 599.34 163.84 602.75 169.85 606.02C172.25 607.32 174.7 608.56 177.14 609.8C181.78 612.17 186.49 614.43 191.25 616.58C193.37 617.54 195.47 618.54 197.62 619.46C204.23 622.26 210.96 624.85 217.79 627.22C219.79 627.91 221.82 628.52 223.83 629.17C229.36 630.97 234.95 632.63 240.6 634.12C242.71 634.69 244.81 635.26 246.93 635.79C254.28 637.58 261.71 639.16 269.24 640.44C270.55 640.66 271.88 640.8 273.19 641.01C279.74 642.04 286.36 642.85 293.04 643.48C295.18 643.69 297.32 643.87 299.47 644.04C307.41 644.63 315.39 645.03 323.48 645.03C330.55 645.03 337.56 644.72 344.52 644.27C346.2 644.16 347.87 644.05 349.54 643.92C356.43 643.36 363.28 642.66 370.04 641.68C370.42 641.63 370.78 641.55 371.16 641.49C377.65 640.53 384.06 639.32 390.41 637.98C391.94 637.66 393.46 637.34 394.98 636.99C401.6 635.49 408.16 633.84 414.62 631.93C415.11 631.78 415.6 631.62 416.09 631.47C422.21 629.63 428.24 627.59 434.21 625.4C435.46 624.94 436.72 624.49 437.97 624.02C444.33 621.6 450.61 619.02 456.77 616.22C457.2 616.02 457.62 615.81 458.05 615.61C463.94 612.9 469.72 610 475.42 606.94C476.32 606.46 477.22 605.99 478.12 605.49C484.18 602.17 490.14 598.68 495.96 594.99C496.25 594.8 496.54 594.6 496.83 594.41C502.52 590.78 508.08 586.95 513.52 582.97C514.02 582.6 514.53 582.25 515.03 581.88C520.73 577.65 526.3 573.27 531.7 568.69C531.83 568.57 531.95 568.46 532.09 568.35C537.52 563.73 542.81 558.94 547.92 553.96C548.05 553.84 548.18 553.73 548.31 553.6C553.54 548.51 558.6 543.25 563.47 537.81C563.47 537.81 563.49 537.78 563.51 537.77C583.16 515.88 599.86 491.26 612.99 464.56Z" fill="#EF4136"/>
<path opacity="0.3" d="M428.44 77.2899C429.79 86.8699 392.08 100.06 344.22 106.76C296.36 113.46 256.48 111.14 255.14 101.56C253.8 91.9899 292.38 85 340.23 78.29C388.09 71.59 427.1 67.7199 428.44 77.2899Z" fill="#414042"/>
<path opacity="0.3" d="M280.97 56.7501C281.85 63.0001 257.25 71.6098 226.02 75.9798C194.79 80.3598 168.76 78.8399 167.89 72.5899C167.02 66.3499 192.19 61.7901 223.41 57.4001C254.64 53.0301 280.1 50.5101 280.97 56.7501Z" fill="#414042"/>
<path opacity="0.3" d="M224.32 236.72C224.81 246.39 186.08 256.17 137.81 258.58C89.54 260.99 50.02 255.14 49.54 245.47C49.07 235.82 88.1 232.3 136.36 229.87C184.63 227.46 223.84 227.07 224.32 236.72Z" fill="#414042"/>
<path opacity="0.3" d="M519.14 536.17C520.76 545.71 483.44 559.94 435.77 567.97C388.11 576 348.18 574.8 346.58 565.26C344.98 555.73 383.34 547.68 430.98 539.65C478.65 531.58 517.54 526.64 519.14 536.17Z" fill="#414042"/>
<path opacity="0.3" d="M386.06 172.38C386.9 178.61 363.31 186.93 333.37 190.98C303.42 195.02 278.47 193.27 277.63 187.03C276.79 180.81 300.92 176.52 330.86 172.47C360.81 168.41 385.21 166.16 386.06 172.38Z" fill="#414042"/>
<path opacity="0.3" d="M287.84 453.93C288.55 460.18 264.8 468.01 234.79 471.45C204.76 474.88 179.85 472.61 179.14 466.36C178.43 460.12 202.65 456.33 232.67 452.89C262.68 449.45 287.12 447.69 287.84 453.93Z" fill="#414042"/>
<path opacity="0.3" d="M581.44 174.86C583.11 182.21 555.82 194.62 520.5 202.62C485.17 210.58 455.2 211.11 453.55 203.74C451.89 196.42 480.24 188.76 515.57 180.78C550.88 172.78 579.78 167.53 581.44 174.86Z" fill="#414042"/>
<path opacity="0.3" d="M540.98 307.09C542.42 314.67 512.93 326.61 475.12 333.79C437.3 340.96 405.49 340.67 404.05 333.09C402.63 325.53 433.03 318.48 470.84 311.3C508.65 304.13 539.54 299.53 540.98 307.09Z" fill="#414042"/>
<path opacity="0.2" d="M582.91 130.99C480.75 276.07 285.49 512.3 83.1 537.47C142.15 603.47 227.94 645.03 323.47 645.03C501.58 645.03 645.97 500.65 645.97 322.53C645.97 250.79 622.52 184.55 582.91 130.99Z" fill="#212A3C"/>
<path opacity="0.2" d="M645.79 315.66C541.69 443.32 363.09 604.64 136.38 585.13C189.15 622.8 253.69 645.02 323.47 645.02C501.58 645.02 645.97 500.64 645.97 322.52C645.97 320.22 645.84 317.95 645.79 315.66Z" fill="#212A3C"/>
<path opacity="0.3" d="M433.43 81.61C476.7 155.25 427.41 264.51 323.33 325.66C219.26 386.81 99.82 376.69 56.55 303.05C13.28 229.41 62.58 120.14 166.64 58.9901C270.71 -2.14993 390.16 7.97 433.43 81.61Z" fill="url(#paint0_linear_208_405)"/>
<path opacity="0.3" d="M337.81 72.0598C363.65 116.04 329.63 183.99 261.83 223.83C194.04 263.66 118.13 260.3 92.3 216.32C66.44 172.34 100.45 104.4 168.26 64.5501C236.05 24.7201 311.96 28.0798 337.81 72.0598Z" fill="white"/>
<defs>
<linearGradient id="paint0_linear_208_405" x1="173.786" y1="101.055" x2="323.462" y2="289.453" gradientUnits="userSpaceOnUse">
<stop stop-color="white"/>
<stop offset="1" stop-color="white" stop-opacity="0"/>
</linearGradient>
</defs>
</svg>
