<svg width="1647" height="1647" viewBox="0 0 1647 1647" fill="none" xmlns="http://www.w3.org/2000/svg">
<path d="M1489.44 980.585C1576.26 612.915 1348.58 244.479 980.911 157.661C613.24 70.8438 244.804 298.521 157.987 666.191C71.1693 1033.86 298.846 1402.3 666.517 1489.12C1034.19 1575.93 1402.62 1348.26 1489.44 980.585Z" fill="#F58466"/>
<path d="M951.7 1137.06C855.64 1137.06 746.9 1132.84 735.28 1137.06C723.67 1141.29 682.5 1168.74 589.6 1168.74C496.69 1168.74 408.02 1128.62 358.4 1121.24C317.58 1115.15 236.08 1099.79 197.28 1098.06C251.08 1220.54 339.69 1324.17 450.66 1396.54C552.79 1399.04 665.05 1400.92 718.39 1398.88C795.47 1395.95 1070.05 1381.78 1230.22 1373.43C1312.09 1312.84 1379.88 1234.43 1428 1143.92C1331.22 1142.21 1031.89 1137.06 951.7 1137.06Z" fill="#E05B41"/>
<path d="M186.56 574.38H192.65C192.65 574.38 283.43 588.09 291.88 588.09C300.33 588.09 414.34 588.09 414.34 588.09L516.75 585.98L874.63 578.6L997.09 568.03C997.09 568.03 1154.38 557.48 1163.89 557.48C1173.4 557.48 1344.42 574.37 1349.69 574.37C1354.97 574.37 1414.09 572.25 1414.09 572.25L1456.41 563.07C1435.02 511.13 1407.46 462.4 1374.58 417.79C1361.85 416.68 1349.61 415.37 1340.17 413.9C1306.39 408.62 1243.05 413.9 1212.44 417.06C1181.82 420.22 767.99 416.01 767.99 416.01C767.99 416.01 734.21 421.28 725.76 422.34C717.31 423.39 608.58 418.12 603.3 416.01C598.02 413.9 524.12 406.5 519.9 405.44C515.67 404.39 449.17 399.11 437.56 393.84C425.94 388.56 397.44 387.49 397.44 387.49L285.09 401.82C244.37 453.83 211.02 511.84 186.56 574.38Z" fill="#E05B41"/>
<path d="M245.79 631.03H282.38L471 608.5C471 608.5 614.57 594.44 637.09 591.6C659.61 588.79 715.92 588.8 715.92 588.8C715.92 588.8 977.74 585.98 991.81 585.98C1005.89 585.98 1177.62 574.72 1177.62 574.72C1177.62 574.72 1281.78 577.54 1295.85 577.54C1309.92 577.54 1408.47 591.6 1425.35 594.43C1434.44 595.93 1454.09 598.26 1470.33 600.09C1463.71 580.9 1456.27 562.12 1448.03 543.74C1443.59 543.74 1439.63 543.74 1436.61 543.74C1419.72 543.74 1383.12 543.74 1369.05 543.74C1354.97 543.74 1343.71 543.74 1332.45 543.74C1321.19 543.74 1155.09 543.74 1155.09 543.74L1112.86 540.93C1112.86 540.93 1036.85 535.3 1008.7 532.48C980.55 529.66 935.51 532.48 921.43 532.48C907.35 532.48 811.63 532.48 794.74 532.48C777.85 532.48 608.94 538.11 592.04 540.93C575.15 543.74 521.66 546.56 501.95 549.37C482.24 552.18 442.83 549.37 417.5 549.37C392.16 549.37 369.64 552.19 369.64 552.19L285.19 560.64L191.54 561.71C184.58 578.53 178.29 595.69 172.66 613.16C204.2 622.35 245.79 631.03 245.79 631.03Z" fill="#FED09E"/>
<path d="M1169.18 1341.31C1169.18 1341.31 1025.61 1355.39 1003.09 1358.2C980.57 1361.01 924.26 1361.01 924.26 1361.01C924.26 1361.01 662.44 1363.82 648.37 1363.82C634.3 1363.82 462.57 1375.09 462.57 1375.09C462.57 1375.09 442.02 1374.53 417.94 1373.92C433.33 1385.27 449.2 1396 465.53 1406.05C477.5 1406.05 485.09 1406.05 485.09 1406.05L527.32 1408.88C527.32 1408.88 603.33 1414.51 631.48 1417.32C659.63 1420.13 704.67 1417.32 718.76 1417.32C732.83 1417.32 828.55 1417.32 845.44 1417.32C862.33 1417.32 1031.24 1411.69 1048.13 1408.88C1065.02 1406.06 1118.51 1403.24 1138.22 1400.42C1150.92 1398.61 1171.76 1399.13 1191.77 1399.74C1225.27 1378.29 1256.86 1354.13 1286.04 1327.36L1169.18 1341.31Z" fill="#FED09E"/>
<path d="M1394.76 1119.03C1343.94 1119.03 1307.23 1119.03 1284.64 1119.03C1262.05 1119.03 1191.47 1116.82 1129.35 1112.42C1083.83 1109.19 1038.47 1104.07 992.94 1100.93C950.51 1098.01 908.02 1095.94 865.53 1093.96C719.47 1087.14 571.06 1064.43 424.9 1071.07C346.37 1074.64 267.81 1076.64 189.25 1078.95C193.21 1088.75 197.38 1098.45 201.78 1108.02C211.12 1108.02 218.12 1108.02 220.22 1108.02C228.7 1108.02 248.46 1114.63 273.87 1119.04C312.5 1125.74 353.25 1129.65 390.44 1142.55C465.14 1168.48 539.38 1208.62 620.96 1200.61C653.63 1197.41 688.24 1195.32 719.9 1186.39C773.69 1171.21 825.35 1159.13 881.45 1155.78C936.74 1152.48 992.14 1154.32 1047.49 1154.32C1047.57 1154.32 1112.45 1154.32 1140.66 1154.32C1168.89 1154.32 1270.53 1160.93 1293.12 1160.93C1315.72 1160.93 1358.06 1165.33 1372.18 1169.75C1382.34 1172.92 1401.21 1173.81 1411.03 1174.06C1421.71 1156.22 1431.66 1137.9 1440.71 1119.05C1426.1 1119.03 1410.43 1119.03 1394.76 1119.03ZM589.74 1162.44C556.4 1161.32 529.79 1148.11 530.3 1132.94C530.81 1117.75 558.24 1106.36 591.58 1107.47C624.91 1108.58 651.54 1121.8 651.01 1136.97C650.51 1152.15 623.08 1163.56 589.74 1162.44Z" fill="#FED09E"/>
<path d="M262.69 432.08C267.22 431.81 271.9 431.49 276.76 431.15C316.17 428.34 437.23 431.15 468.2 431.15C499.17 431.15 656.81 442.41 690.6 442.41C724.38 442.41 867.95 445.23 927.07 445.23C986.19 445.23 1073.46 470.56 1248 473.38C1304.43 474.28 1360.52 473.42 1410.65 471.85C1379.26 419.56 1341.03 371.89 1297.28 329.89C1296.81 329.86 1296.33 329.83 1295.86 329.8C1239.56 326.99 1188.89 332.62 1132.58 338.25C1050.94 346.69 969.3 332.62 887.66 326.99C755.35 315.73 611.77 304.46 479.46 315.73C435.38 319.56 391.63 325.68 347.88 332.09C316.4 362.58 287.86 396.05 262.69 432.08ZM674.95 342.37C752.69 344.97 815.16 363.83 814.47 384.48C813.78 405.14 750.19 419.78 672.45 417.18C594.71 414.58 532.24 395.73 532.93 375.08C533.63 354.41 597.21 339.77 674.95 342.37Z" fill="#FED09E"/>
<path d="M178.22 819.65C186.67 819.65 223.26 825.28 245.79 828.09C315.66 836.82 386.64 831.51 456.24 842.95C514.03 852.44 574.15 854.78 631.24 866.41C671.73 874.65 709.35 893.95 748.28 907.36C858.12 945.16 977.57 949.55 1090.78 924.81C1145.77 912.82 1197.92 891.26 1251.77 875.35C1305.08 859.58 1359.13 854.44 1414.1 847.8C1414.1 847.8 1465.98 847.8 1507.17 847.8C1507.45 839.65 1507.78 831.5 1507.78 823.27C1507.78 814.5 1507.45 805.81 1507.12 797.12C1449.15 792.23 1391.34 790.73 1333.06 788.13C1253.3 784.58 1184.96 747.97 1111.13 722.5C1052.62 702.3 991.75 687.73 929.62 686.5C830.96 684.54 745.7 732.7 651.22 752.46C580.34 767.29 505.54 760.79 433.62 760.52C343.8 760.18 253.97 760.55 164.15 760.55C156.43 760.55 149.32 760.55 142.66 760.55C140.84 780.51 139.79 800.71 139.73 821.15C159.52 820.28 175.39 819.65 178.22 819.65ZM946.36 749.31C1033.38 752.21 1102.85 786.69 1101.54 826.33C1100.21 865.94 1028.59 895.71 941.57 892.79C854.55 889.88 785.08 855.41 786.4 815.78C787.73 776.17 859.34 746.39 946.36 749.31Z" fill="#FED09E"/>
<path opacity="0.2" d="M284.04 1243.72C441.55 1445.61 706.44 1550.43 972.97 1490.85C1341.66 1408.43 1573.73 1042.72 1491.3 674.02C1469.96 578.53 1429.48 492.33 1375.01 418.23C1210.05 678.17 744.71 1331.47 284.04 1243.72Z" fill="#212A3C"/>
<path opacity="0.2" d="M319.09 1284.99C479.11 1459.54 725.28 1546.22 972.97 1490.85C1320.28 1413.21 1546.23 1084.2 1502.4 738.13C1318.64 1002.82 891.88 1483.8 319.09 1284.99Z" fill="#212A3C"/>
<path opacity="0.3" d="M1019.68 291.04C1110.69 440.93 1012.75 666.72 800.9 795.34C589.06 923.97 343.56 906.74 252.55 756.84C161.53 606.94 259.47 381.16 471.31 252.54C683.15 123.91 928.65 141.15 1019.68 291.04Z" fill="url(#paint0_linear_208_235)"/>
<path opacity="0.3" d="M823.08 274.28C877.44 363.8 809.63 504.3 671.63 588.09C533.62 671.9 377.67 667.24 323.34 577.72C268.96 488.19 336.76 347.68 474.77 263.89C612.79 180.09 768.72 184.73 823.08 274.28Z" fill="white"/>
<defs>
<linearGradient id="paint0_linear_208_235" x1="487.234" y1="338.645" x2="800.111" y2="720.969" gradientUnits="userSpaceOnUse">
<stop stop-color="white"/>
<stop offset="1" stop-color="white" stop-opacity="0"/>
</linearGradient>
</defs>
</svg>
