<svg width="2094" height="1334" viewBox="0 0 2094 1334" fill="none" xmlns="http://www.w3.org/2000/svg">
<path fill-rule="evenodd" clip-rule="evenodd" d="M829.46 1200.06L720.729 1257L668.484 1284.33L154.832 302.896C131.577 258.523 148.729 203.72 193.102 180.466L193.377 180.358C237.75 157.103 292.552 174.255 315.807 218.628L343.842 272.249L829.46 1200.06Z" fill="#996250"/>
<g opacity="0.2">
<path fill-rule="evenodd" clip-rule="evenodd" d="M720.729 1257L668.484 1284.33L154.832 302.897C131.577 258.524 148.729 203.721 193.102 180.467L193.377 180.359C237.75 157.104 292.552 174.256 315.807 218.629L343.842 272.25L271.358 313.267C255.864 322.035 250.053 341.47 258.193 357.303L720.729 1257Z" fill="#39005E"/>
</g>
<path d="M668.477 1306.3C666.275 1306.3 664.063 1305.97 661.919 1305.3C656.362 1303.56 651.724 1299.69 649.023 1294.52L135.361 313.092C106.552 258.046 127.895 189.825 182.939 161.017C238.222 132.083 306.45 153.426 335.258 208.465L848.92 1189.9C854.545 1200.64 850.395 1213.91 839.647 1219.53L678.656 1303.8C675.489 1305.46 671.992 1306.3 668.477 1306.3ZM235.322 191.967C224.585 191.967 213.701 194.483 203.55 199.798C169.712 217.506 156.69 259.136 174.268 292.725L677.749 1254.71L799.829 1190.81L296.352 228.833C284.082 205.394 260.103 191.967 235.322 191.967Z" fill="#371A45"/>
<path d="M586.044 471.28L208.348 668.952L247.53 743.819L625.227 546.147L586.044 471.28Z" fill="#ADADAD"/>
<path d="M247.53 765.748C245.323 765.748 243.116 765.416 240.972 764.747C235.415 763.006 230.777 759.132 228.076 753.971L188.896 679.105C183.271 668.36 187.421 655.094 198.168 649.469L575.858 451.793C586.605 446.173 599.872 450.328 605.492 461.065L644.677 535.931C647.377 541.092 647.919 547.113 646.181 552.672C644.443 558.229 640.566 562.87 635.405 565.57L257.71 763.246C254.541 764.904 251.045 765.748 247.53 765.748ZM237.984 678.197L256.802 714.154L595.586 536.842L576.768 500.885L237.984 678.197Z" fill="#371A45"/>
<path fill-rule="evenodd" clip-rule="evenodd" d="M309.437 202.074L144.826 288.228C115.997 303.317 80.3941 292.178 65.3051 263.348L29.415 194.775C14.326 165.946 25.465 130.343 54.295 115.254L218.906 29.0996C247.735 14.0106 283.338 25.1496 298.427 53.9796L334.317 122.553C349.405 151.382 338.266 186.985 309.437 202.074Z" fill="#606060"/>
<g opacity="0.6">
<path fill-rule="evenodd" clip-rule="evenodd" d="M340.975 153.108L310.005 94.0356C294.901 65.1876 259.334 54.0146 230.486 69.1196L65.8773 155.291C46.8293 165.288 35.4723 184.221 34.3753 204.197L29.4312 194.783C14.3272 165.935 25.4443 130.368 54.2923 115.263L218.9 29.0916C247.748 13.9876 283.315 25.1596 298.42 53.9526L334.333 122.549C339.441 132.294 341.525 142.845 340.975 153.108Z" fill="white"/>
</g>
<g opacity="0.2">
<path fill-rule="evenodd" clip-rule="evenodd" d="M309.418 202.069L144.809 288.24C116.016 303.345 80.3943 292.172 65.2903 263.324L29.4323 194.783C14.9793 167.201 24.5503 133.437 50.6583 117.33C50.9293 117.935 51.2003 118.54 51.5273 119.091L87.4413 187.687C102.545 216.535 138.112 227.653 166.96 212.548L331.568 126.432C332.834 125.78 334.046 125.073 335.203 124.366C348.937 152.877 337.661 187.291 309.418 202.069Z" fill="#39005E"/>
</g>
<path d="M117.637 316.893C88.4822 316.893 60.2792 301.102 45.8502 273.531L9.9612 204.954C-10.7178 165.447 4.6002 116.477 44.1072 95.7987L208.726 9.6438C248.238 -11.0322 297.203 4.28775 317.881 43.7968L353.77 112.369C374.449 151.881 359.126 200.85 319.615 221.529L155.006 307.684C143.067 313.932 130.264 316.893 117.637 316.893ZM246.162 44.3447C240.395 44.3447 234.546 45.6997 229.092 48.5537L64.4732 134.709C46.4212 144.16 39.4192 166.538 48.8682 184.592L84.7572 253.169C94.2102 271.223 116.583 278.22 134.645 268.774L299.254 182.619C317.311 173.168 324.313 150.79 314.864 132.734L278.975 64.1648C272.378 51.5638 259.488 44.3447 246.162 44.3447Z" fill="#371A45"/>
<path fill-rule="evenodd" clip-rule="evenodd" d="M2064.19 274.514C2079.59 245.85 2068.84 210.129 2040.17 194.727L1876.51 106.788C1847.84 91.3866 1812.12 102.138 1796.72 130.802L1760.09 198.981C1744.69 227.645 1755.44 263.366 1784.1 278.768" fill="#606060"/>
<path fill-rule="evenodd" clip-rule="evenodd" d="M1937.85 336.197L1413.55 1311.98L1386.73 1297.56L1253.5 1225.97L1747.63 306.342L1777.8 250.182C1801.54 206.065 1856.52 189.51 1900.64 213.246L1900.91 213.357C1945.03 237.093 1961.59 292.079 1937.85 336.197Z" fill="#996250"/>
<g opacity="0.2">
<path fill-rule="evenodd" clip-rule="evenodd" d="M1937.85 336.197L1413.55 1311.98L1386.73 1297.56L1822.06 409.45C1836.72 379.535 1824.25 343.4 1794.26 328.894L1747.63 306.342L1777.8 250.182C1801.53 206.065 1856.52 189.51 1900.64 213.246L1900.91 213.357C1945.03 237.093 1961.58 292.079 1937.85 336.197Z" fill="#39005E"/>
</g>
<path d="M1413.55 1333.96C1410.04 1333.96 1406.48 1333.11 1403.17 1331.34L1243.11 1245.33C1237.98 1242.58 1234.15 1237.89 1232.48 1232.32C1230.8 1226.74 1231.4 1220.73 1234.16 1215.59L1758.47 239.808C1772.71 213.297 1796.43 193.919 1825.24 185.245C1854.06 176.568 1884.53 179.642 1911.05 193.885C1937.8 208.262 1957.18 231.978 1965.86 260.797C1974.53 289.618 1971.46 320.089 1957.21 346.6L1432.91 1322.39C1428.95 1329.76 1421.38 1333.96 1413.55 1333.96ZM1283.24 1217.04L1404.62 1282.26L1918.53 325.812C1927.22 309.635 1929.09 291.041 1923.8 273.456C1918.51 255.868 1906.69 241.395 1890.5 232.704C1874.08 223.876 1855.47 222.006 1837.9 227.299C1820.31 232.592 1805.84 244.416 1797.15 260.595L1283.24 1217.04Z" fill="#371A45"/>
<path d="M1464.8 574.311L1840.32 776.076L1880.32 701.64L1504.79 499.875L1464.8 574.311Z" fill="#ADADAD"/>
<path d="M1840.37 798.012C1836.77 798.012 1833.2 797.131 1829.97 795.397L1454.45 593.625C1443.77 587.885 1439.76 574.572 1445.5 563.889L1485.5 489.453C1488.25 484.324 1492.94 480.498 1498.51 478.821C1504.09 477.139 1510.1 477.744 1515.24 480.503L1890.76 682.275C1901.44 688.015 1905.45 701.328 1899.7 712.011L1859.71 786.447C1856.95 791.576 1852.27 795.402 1846.7 797.079C1844.63 797.704 1842.49 798.012 1840.37 798.012ZM1494.58 565.331L1831.42 746.317L1850.63 710.567L1513.79 529.581L1494.58 565.331Z" fill="#371A45"/>
<path fill-rule="evenodd" clip-rule="evenodd" d="M1784.36 233.696L1948.02 321.635C1976.68 337.036 2012.41 326.285 2027.81 297.621L2064.44 229.442C2079.84 200.778 2069.09 165.057 2040.43 149.655L1876.76 61.7158C1848.1 46.3148 1812.38 57.0658 1796.97 85.7298L1760.34 153.909C1744.94 182.573 1755.69 218.294 1784.36 233.696Z" fill="#606060"/>
<g opacity="0.6">
<path fill-rule="evenodd" clip-rule="evenodd" d="M2066.86 224.36C2061.88 212.146 2052.71 201.502 2040.18 194.737L1876.51 106.782C1847.83 91.3645 1812.15 102.149 1796.73 130.776L1760.07 198.979C1759.19 200.621 1758.41 202.318 1757.68 204.016C1751.29 188.336 1751.67 170.002 1760.32 153.91L1796.98 85.7085C1812.39 57.0815 1848.08 46.2965 1876.76 61.7135L2040.42 149.668C2067.46 164.142 2078.54 196.701 2066.86 224.36Z" fill="white"/>
</g>
<g opacity="0.2">
<path fill-rule="evenodd" clip-rule="evenodd" d="M2064.42 229.453L2027.81 297.6C2012.4 326.282 1976.71 337.012 1948.03 321.65L1784.37 233.694C1755.69 218.277 1744.96 182.591 1760.32 153.909L1765.42 144.385C1770.38 151.109 1776.88 156.854 1784.76 161.069L1948.43 249.025C1977.11 264.387 2012.79 253.657 2028.21 224.975L2059.71 166.297C2073.01 184.046 2075.62 208.598 2064.42 229.453Z" fill="#39005E"/>
</g>
<path d="M1975.8 350.648C1962.62 350.648 1949.57 347.391 1937.63 340.978L1773.96 253.039C1734.68 231.931 1719.89 182.8 1741 143.518L1777.64 75.3388C1787.86 56.3078 1804.88 42.3997 1825.57 36.1737C1846.26 29.9527 1868.13 32.1528 1887.16 42.3748L2050.82 130.314C2069.85 140.539 2083.76 157.563 2089.99 178.249C2096.21 198.935 2094.01 220.81 2083.78 239.838L2047.15 308.014C2036.93 327.045 2019.9 340.953 1999.22 347.179C1991.51 349.498 1983.63 350.648 1975.8 350.648ZM1794.75 214.352L1958.42 302.291C1967.11 306.964 1977.11 307.965 1986.56 305.125C1996.01 302.281 2003.79 295.923 2008.47 287.227L2045.1 219.048C2049.77 210.352 2050.78 200.357 2047.94 190.903C2045.09 181.45 2038.73 173.672 2030.03 168.999L1866.37 81.0598C1857.67 76.3868 1847.67 75.3787 1838.23 78.2257C1828.78 81.0697 1820.99 87.4278 1816.32 96.1238L1779.68 164.303C1770.04 182.255 1776.8 204.706 1794.75 214.352Z" fill="#371A45"/>
</svg>
