<svg width="3053" height="3467" viewBox="0 0 3053 3467" fill="none" xmlns="http://www.w3.org/2000/svg">
<g opacity="0.2">
<path d="M1879.87 3333.69C1880.26 3260.46 1514.29 3199.12 1062.44 3196.68C610.589 3194.24 243.973 3251.63 243.577 3324.85C243.182 3398.08 609.157 3459.42 1061.01 3461.86C1512.85 3464.3 1879.47 3406.91 1879.87 3333.69Z" fill="#371A45"/>
</g>
<path d="M1933.71 2428.72C1933.71 2428.72 1961.24 2555.9 1841.1 2579.95C1723.44 2603.52 1639.96 2579.85 1600.55 2499.16C1599.68 2497.45 1598.86 2495.69 1598.05 2493.93C1598.05 2493.93 1694.48 2932.08 1665 3164.85C1665 3164.85 1697.51 3173.48 1722.31 3196.07C1739.95 3212.19 1753.71 3235.38 1749.14 3267.63C1738.13 3345.2 1614.65 3337.5 1484.06 3347.38C1353.4 3357.21 1219.26 3363.57 1205.8 3243.49C1192.35 3123.47 1169.85 2858.63 1050.18 2727.44C1050.18 2727.44 945.952 3005.64 916.7 3196.08C916.7 3196.08 969.292 3256.31 958.41 3309.23C947.528 3362.09 795.626 3393.05 615.703 3377.9C435.835 3362.82 393.494 3355.56 452.284 2932.36C452.284 2932.36 500.901 2431.53 508.388 2346.86C515.93 2262.2 495.355 2149.16 495.355 2149.16C495.355 2149.16 441.592 2304.17 416.391 2395.77C416.391 2395.77 503.839 2537.38 366.103 2557.82C366.103 2557.82 383.283 2639.11 199.655 2659.24C50.5222 2675.62 7.06517 2520.41 26.8132 2361.54C31.3502 2324.72 39.2911 2287.77 50.1321 2252.64C107.636 2065.86 285.361 1394.9 1057.47 1386.42C1339.43 1383.34 1609.96 1566.08 1746.09 1880.71C1831.37 2077.87 1885.82 2200.91 1924.03 2261.34C1927.67 2267.13 1931.16 2272.36 1934.54 2276.99C1973.06 2330.12 1972.77 2383.04 1933.71 2428.72Z" fill="white"/>
<path d="M704.331 3403.64C674.502 3403.64 644.043 3402.34 613.882 3399.81C536.992 3393.36 476.255 3388.27 440.318 3343.33C396.949 3289.09 394.547 3188.57 430.464 2929.82C432.158 2912.35 479.194 2427.43 486.524 2344.92C489.268 2314.01 488.062 2278.76 485.513 2246.99C470.166 2293.48 452.276 2349.31 439.986 2392.83C452.305 2415.59 479.703 2475.58 457.125 2524.14C445.074 2550.05 421.612 2567.46 387.272 2576.03C385.499 2585.77 381.344 2597.75 372.301 2610.25C345.104 2647.84 287.828 2671.68 202.067 2681.1C141.51 2687.75 90.9097 2668.79 55.7537 2626.27C-16.5413 2538.82 -9.70029 2372.35 29.1427 2246.16C30.9937 2240.15 32.9657 2233.64 35.0807 2226.67C99.1137 2015.49 293.982 1372.87 1057.24 1364.46C1202.16 1362.75 1344.52 1408.51 1469.13 1496.47C1595.95 1585.98 1698.69 1715.83 1766.25 1871.98C1854.08 2074.99 1914.49 2211.95 1952.29 2264.09C1994.78 2322.69 1996.27 2382.99 1956.88 2434.93C1959.5 2456.16 1961.6 2504.43 1935.17 2544.77C1915.78 2574.37 1885.58 2593.46 1845.42 2601.5C1755.82 2619.43 1686.15 2611.07 1637.14 2576.62C1662.86 2712.66 1705.66 2976.39 1688.78 3149.76C1728.53 3165.99 1780.24 3204.81 1770.88 3270.72C1759.09 3353.87 1655.75 3359.52 1546.34 3365.51C1526.58 3366.59 1506.15 3367.71 1485.69 3369.25C1365.22 3378.37 1200.23 3390.84 1183.98 3245.95C1183.21 3239.08 1182.41 3231.74 1181.57 3223.97C1168.8 3106.81 1145.89 2896.5 1057.55 2771.65C1029.3 2851.34 963.676 3045.16 939.892 3189.91C955.175 3210 990.336 3262.98 979.921 3313.64C967.154 3375.7 842.779 3403.63 704.331 3403.64ZM495.342 2127.21C495.903 2127.21 496.47 2127.23 497.041 2127.27C506.992 2128.04 515.171 2135.42 516.953 2145.24C517.817 2149.97 537.959 2262.19 530.264 2348.81C522.823 2432.58 474.619 2929.49 474.131 2934.5C474.102 2934.81 474.068 2935.1 474.024 2935.41C441.27 3171.27 441.426 3274.4 474.615 3315.9C497.633 3344.68 541.68 3349.68 617.555 3356.05C816.862 3372.75 931.393 3331.56 936.901 3304.79C943.976 3270.4 912.741 3225.04 900.109 3210.46C895.885 3205.59 893.996 3199.09 894.972 3192.72C924.249 3002.26 1025.34 2731.16 1029.63 2719.71C1032.31 2712.55 1038.53 2707.3 1046.04 2705.85C1053.52 2704.42 1061.26 2706.97 1066.42 2712.62C1184.09 2841.65 1210.85 3087.27 1225.22 3219.22C1226.06 3226.93 1226.86 3234.23 1227.62 3241.06C1238.3 3336.28 1344.57 3335.87 1482.37 3325.46C1503.29 3323.88 1523.95 3322.75 1543.94 3321.66C1653.9 3315.64 1721.12 3308.79 1727.4 3264.55C1735.58 3206.95 1660.14 3186.26 1659.38 3186.06C1648.75 3183.24 1641.84 3172.99 1643.22 3162.08C1671.91 2935.7 1577.58 2503.01 1576.63 2498.67C1574.21 2487.69 1580.48 2476.65 1591.15 2473.11C1601.84 2469.55 1613.45 2474.66 1618.08 2484.91C1650.79 2557.31 1722.33 2581.36 1836.8 2558.44C1864.89 2552.81 1885.58 2540.19 1898.29 2520.92C1922.52 2484.22 1912.32 2433.81 1912.21 2433.3C1910.82 2426.64 1912.57 2419.63 1917 2414.45C1949.35 2376.64 1949.26 2334.72 1916.73 2289.87C1876.2 2233.96 1817.61 2101.28 1725.94 1889.42C1597.3 1592.1 1344.4 1408.34 1064.77 1408.34C1062.41 1408.34 1060.08 1408.35 1057.73 1408.38C326.661 1416.43 138.829 2035.86 77.1058 2239.41C74.9718 2246.45 72.9798 2253.02 71.1148 2259.08C29.2688 2395.02 36.8718 2534.5 89.6008 2598.29C115.241 2629.3 151.442 2642.48 197.272 2637.45C290.783 2627.17 324.054 2600.83 335.563 2586.05C344.967 2573.97 344.684 2564.04 344.513 2562.05C342.926 2556.09 344.103 2550.4 347.467 2545.2C350.9 2539.89 356.618 2537.04 362.863 2536.11C391.52 2531.86 409.826 2521.63 417.272 2505.68C431.715 2474.76 408.019 2424.17 397.672 2407.28C394.498 2402.1 393.59 2395.81 395.201 2389.95C420.303 2298.69 474.068 2143.53 474.605 2141.97C477.691 2133.08 486.06 2127.21 495.342 2127.21Z" fill="#371A45"/>
<path d="M1657.41 3185.44C1656.99 3185.21 1655.81 3184.77 1654.88 3184.39C1653.95 3184 1652.83 3183.63 1651.78 3183.25C1649.69 3182.48 1647.5 3181.77 1645.27 3181.08C1640.9 3179.62 1636.27 3178.48 1631.72 3177.25C1622.49 3175.03 1613.1 3173.03 1603.55 3171.69C1584.49 3168.91 1565 3167.52 1545.45 3168.04C1540.54 3167.99 1535.68 3168.52 1530.77 3168.73C1525.87 3168.99 1520.95 3169.25 1516.09 3169.94L1501.4 3171.65C1496.53 3172.41 1491.69 3173.36 1486.81 3174.2C1476.99 3175.65 1467.47 3178.43 1457.77 3180.67C1448.13 3183.15 1438.73 3186.47 1429.13 3189.34L1428.46 3189.54C1424.3 3190.78 1419.92 3188.42 1418.68 3184.26C1417.52 3180.4 1419.48 3176.35 1423.09 3174.79C1432.6 3170.69 1442 3166.12 1451.73 3162.37C1461.53 3158.86 1471.23 3154.81 1481.35 3152.07C1486.38 3150.59 1491.39 3149 1496.46 3147.6L1511.83 3143.97C1516.94 3142.65 1522.14 3141.75 1527.35 3140.87C1532.56 3140.03 1537.75 3138.87 1543.01 3138.3C1564.01 3135.31 1585.37 3134.32 1606.84 3134.97C1617.58 3135.23 1628.34 3136.22 1639.14 3137.54C1644.56 3138.33 1649.95 3139.04 1655.41 3140.16C1658.13 3140.67 1660.87 3141.21 1663.66 3141.89C1665.05 3142.22 1666.4 3142.49 1667.88 3142.9C1669.37 3143.31 1670.62 3143.6 1672.6 3144.23L1674.82 3144.94C1686.46 3148.68 1692.87 3161.15 1689.14 3172.79C1685.41 3184.43 1672.94 3190.84 1661.29 3187.11C1659.96 3186.68 1658.6 3186.08 1657.41 3185.44Z" fill="#371A45"/>
<path d="M906.564 3215.55C904.564 3214.41 901.435 3212.81 898.683 3211.49C895.839 3210.11 892.924 3208.76 889.977 3207.46C884.076 3204.87 878.075 3202.37 871.959 3200.09C859.764 3195.47 847.257 3191.47 834.571 3188.1C809.197 3181.28 783.07 3177.16 756.758 3175.59C743.596 3174.92 730.401 3174.96 717.205 3175.62C704.036 3176.48 690.872 3177.9 677.825 3180.2C651.736 3184.78 626.153 3192.62 601.597 3203.2L601.48 3203.25C596.475 3205.41 590.669 3203.1 588.514 3198.09C586.458 3193.33 588.49 3187.81 593.014 3185.44C618.075 3172.37 644.743 3161.98 672.406 3155C686.239 3151.5 700.304 3148.92 714.474 3146.95C728.663 3145.19 742.955 3144.09 757.287 3143.77C785.932 3143.37 814.675 3145.76 842.914 3151.16C857.045 3153.83 871.056 3157.19 884.923 3161.31C891.866 3163.33 898.756 3165.61 905.643 3168.05C909.085 3169.28 912.52 3170.57 915.973 3171.94C919.528 3173.35 922.64 3174.63 926.786 3176.56C937.78 3181.71 942.526 3194.79 937.387 3205.78C932.245 3216.78 919.164 3221.52 908.171 3216.38C907.653 3216.14 907.15 3215.88 906.662 3215.6L906.564 3215.55Z" fill="#371A45"/>
<path d="M1355.39 3018.48C1255.33 3018.48 1172.63 3011 1165.51 3010.34C1153.44 3009.21 1144.56 2998.52 1145.68 2986.44C1146.81 2974.37 1157.44 2965.53 1169.58 2966.61C1173.16 2966.94 1528.67 2999.07 1655.79 2930.82C1666.47 2925.07 1679.78 2929.08 1685.52 2939.78C1691.25 2950.46 1687.24 2963.77 1676.56 2969.51C1603.04 3008.98 1468.18 3018.48 1355.39 3018.48Z" fill="#371A45"/>
<path d="M829.457 3006.39C660.145 3006.39 457.709 2967.3 446.522 2965.1C434.618 2962.78 426.859 2951.24 429.188 2939.34C431.512 2927.44 443.065 2919.69 454.95 2922.01C458.48 2922.7 809.384 2990.46 964.291 2949.15C976 2946.02 988.041 2952.99 991.166 2964.71C994.291 2976.43 987.323 2988.46 975.609 2991.58C935.4 3002.31 884.145 3006.39 829.457 3006.39Z" fill="#371A45"/>
<path d="M797.22 2644.82C846.727 2666.54 898.223 2682.22 950.767 2690.92C977.039 2695.21 1003.53 2697.95 1030.1 2698.68L1050.03 2699.04L1070.08 2698.41L1090.12 2697.79C1096.79 2697.52 1103.41 2696.73 1110.07 2696.23C1163.26 2691.98 1215.72 2681.12 1266.04 2663.76C1290.93 2654.43 1315.54 2644.12 1339 2631.48C1344.79 2628.21 1350.69 2625.09 1356.42 2621.69C1362 2618.12 1367.84 2614.82 1373.33 2611.11C1378.89 2607.45 1384.39 2603.72 1389.68 2599.76C1395.01 2595.98 1400.4 2591.68 1404.89 2587.82L1405.54 2587.27C1410.1 2583.35 1416.97 2583.88 1420.89 2588.44C1424.48 2592.62 1424.34 2598.74 1420.77 2602.75C1415.54 2608.64 1410.68 2613.57 1405.38 2618.53C1400.17 2623.49 1394.7 2628.07 1389.19 2632.63C1383.75 2637.28 1377.92 2641.34 1372.24 2645.68C1366.46 2649.85 1360.5 2653.73 1354.62 2657.78C1330.65 2673.18 1305.22 2686.19 1278.99 2697.34C1226.22 2718.88 1170.06 2731.64 1113.54 2736.62C1106.47 2737.19 1099.41 2738.22 1092.33 2738.4L1071.07 2738.87L1049.82 2739.32L1028.45 2738.72C999.997 2737.17 971.625 2733.58 943.798 2727.54C888.141 2715.66 834.455 2694.71 786.598 2664.87C781.266 2661.55 779.638 2654.53 782.963 2649.2C785.993 2644.34 792.091 2642.56 797.184 2644.8L797.22 2644.82Z" fill="#371A45"/>
<path d="M611.683 1773.97L516.493 2155.08C513.554 2166.85 501.63 2174.01 489.86 2171.07C478.09 2168.13 470.932 2156.2 473.871 2144.43C473.964 2144.06 474.086 2143.63 474.196 2143.27L590.173 1767.96C591.994 1762.07 598.249 1758.77 604.145 1760.59C609.83 1762.34 613.097 1768.26 611.683 1773.97Z" fill="#371A45"/>
<path d="M481.065 2213.02C473.98 2213.02 467.027 2209.6 462.794 2203.27C458.258 2196.56 353.981 2046.89 119.811 2076.66C107.785 2078.19 96.7836 2069.68 95.2546 2057.65C93.7216 2045.62 102.237 2034.62 114.264 2033.09C376.72 1999.69 494.435 2171.55 499.318 2178.88C506.042 2188.97 503.317 2202.6 493.224 2209.33C489.483 2211.83 485.249 2213.02 481.065 2213.02Z" fill="#371A45"/>
<g opacity="0.2">
<path d="M1933.75 2417.39C1933.75 2417.39 1961.28 2544.57 1841.14 2568.62C1723.48 2592.19 1640 2568.51 1600.59 2487.82C1575.97 2401.94 1540.4 2309.35 1489.88 2262.36C1489.88 2262.36 1512.89 1978.23 1499.54 1858.65C1499.54 1858.65 1602.45 1862.4 1643.21 2030.11C1683.91 2197.87 1658.39 2356.6 1745.23 2398.63C1832.01 2440.66 1886.01 2435.02 1910.37 2356.49C1918.64 2329.75 1922.53 2290.35 1924.07 2250.01C1927.72 2255.8 1931.2 2261.03 1934.58 2265.66C1973.1 2318.79 1972.81 2371.71 1933.75 2417.39Z" fill="#371A45"/>
</g>
<path d="M1446.24 2207.17C1440.43 2207.17 1434.64 2204.89 1430.33 2200.35C1421.97 2191.57 1422.31 2177.67 1431.1 2169.31C1437.54 2163.18 1591.38 2018.85 1802.86 1994.89C1814.9 1993.47 1825.78 2002.19 1827.15 2014.24C1828.52 2026.29 1819.85 2037.17 1807.8 2038.53C1610.82 2060.85 1462.84 2199.72 1461.37 2201.12C1457.12 2205.17 1451.68 2207.17 1446.24 2207.17Z" fill="#371A45"/>
<path d="M366.09 2579.8C357.345 2579.8 349.083 2574.54 345.67 2565.92C345.499 2565.49 328.39 2523.2 294.581 2494.2C285.377 2486.3 284.317 2472.44 292.213 2463.23C300.099 2454.03 313.966 2452.96 323.175 2460.87C365.47 2497.15 385.675 2547.66 386.515 2549.79C390.958 2561.08 385.411 2573.83 374.127 2578.26C371.49 2579.3 368.766 2579.8 366.09 2579.8Z" fill="#371A45"/>
<path d="M376.34 2481.65C373.874 2482.26 370.62 2482.58 367.766 2483.03C364.802 2483.51 361.912 2483.88 359.026 2484.4C353.279 2485.27 347.713 2486.38 342.317 2487.53C331.524 2489.87 321.575 2493.01 312.378 2497.02C307.634 2498.8 303.455 2501.45 298.94 2503.63C294.821 2506.43 290.278 2508.72 286.25 2512.02C281.787 2514.78 277.981 2518.54 273.481 2521.97C269.021 2525.47 265.192 2529.83 259.907 2533.59L257.805 2535.09C251.904 2539.29 243.718 2537.91 239.519 2532.01C237.373 2529 236.692 2525.35 237.314 2521.98C237.995 2518.36 239.011 2514.81 240.095 2511.24C241.247 2507.7 242.221 2504.03 244.121 2500.75C247.61 2494.06 251.34 2487.28 256.655 2481.52C261.391 2475.26 267.656 2470.4 273.821 2465.41C280.459 2461.17 287.239 2456.85 294.661 2454.21C309.263 2448.31 324.871 2445.89 339.822 2446.67C347.31 2447.19 354.663 2448.23 361.775 2450.23C365.327 2451.18 368.838 2452.32 372.256 2453.77C375.774 2455.2 378.87 2456.7 382.656 2458.89C388.379 2462.19 390.339 2469.51 387.036 2475.23C385.349 2478.15 382.617 2480.09 379.585 2480.85L376.34 2481.65Z" fill="#371A45"/>
<path d="M1953.89 2437.31C1952.6 2440.27 1951.69 2442.07 1950.56 2444.28C1949.5 2446.43 1948.34 2448.4 1947.21 2450.45C1944.89 2454.46 1942.49 2458.41 1939.82 2462.2C1934.54 2469.81 1928.7 2477.13 1921.89 2483.86C1915.32 2490.74 1907.45 2496.77 1899.15 2502.25C1894.73 2504.7 1890.38 2507.3 1885.66 2509.28L1878.44 2512.03C1877.23 2512.47 1876.04 2512.96 1874.81 2513.34L1871.02 2514.25C1865.95 2515.45 1860.91 2516.72 1855.71 2516.91L1847.96 2517.48C1845.39 2517.58 1842.86 2517.25 1840.31 2517.13L1832.68 2516.55C1830.18 2516.3 1828.02 2515.73 1825.68 2515.33C1821.07 2514.46 1816.47 2513.6 1811.97 2512.13C1793.91 2506.99 1776.51 2498.52 1761.6 2485.97C1746.72 2473.65 1733.94 2456.63 1728.8 2435.1C1728.06 2432.49 1727.95 2429.59 1727.56 2426.84C1727.21 2424.06 1726.94 2421.28 1727.21 2418.4C1727.37 2415.55 1727.49 2412.69 1727.82 2409.87C1728.43 2407.07 1729.09 2404.27 1729.8 2401.5C1730.37 2398.66 1731.63 2396.13 1732.75 2393.54C1733.98 2391.03 1734.93 2388.26 1736.5 2386.04C1739.56 2381.5 1742.46 2376.88 1746.35 2372.94C1753.95 2364.92 1764.31 2358.37 1775.27 2355.5C1786.23 2352.53 1797.07 2352.72 1806.81 2354.48C1816.56 2356.28 1825.47 2359.5 1833.64 2363.56C1837.75 2365.55 1841.65 2367.84 1845.42 2370.28C1849.29 2372.78 1852.66 2375.14 1856.61 2378.45C1862.18 2383.13 1862.91 2391.44 1858.23 2397.01C1854.48 2401.48 1848.38 2402.83 1843.24 2400.77L1841.79 2400.18C1839 2399.05 1835.33 2397.43 1832.03 2396.21C1828.62 2394.95 1825.18 2393.85 1821.8 2392.81C1815.02 2390.77 1808.3 2389.46 1802.06 2388.93C1795.82 2388.57 1790.15 2389.02 1785.58 2390.66C1780.97 2392.22 1777.27 2394.74 1773.89 2398.54C1766.77 2406.95 1764.66 2416.24 1767.16 2426.09C1770 2436.01 1777.35 2446.36 1787.69 2454.07C1797.89 2461.87 1810.15 2467.8 1823.21 2471.17C1826.42 2472.2 1829.78 2472.71 1833.13 2473.26C1834.77 2473.5 1836.54 2473.96 1838.06 2474.04L1842.53 2474.22C1844 2474.24 1845.51 2474.51 1846.96 2474.39L1851.29 2473.91C1854.21 2473.88 1856.97 2472.94 1859.76 2472.27L1861.86 2471.78C1862.55 2471.54 1863.22 2471.21 1863.89 2470.94L1867.96 2469.3C1870.65 2468.11 1873.23 2466.45 1875.9 2465.07C1880.99 2461.55 1886.1 2457.8 1890.65 2452.92C1895.34 2448.3 1899.59 2442.91 1903.49 2437.24C1905.45 2434.41 1907.29 2431.47 1909.04 2428.52C1909.86 2427.03 1910.78 2425.54 1911.51 2424.07C1912.25 2422.69 1913.13 2420.87 1913.48 2420.14L1913.91 2419.2C1919.05 2408.22 1932.11 2403.48 1943.09 2408.62C1953.9 2413.67 1958.65 2426.44 1953.89 2437.31Z" fill="#371A45"/>
<path d="M1639.22 2571.91C1637.71 2571.91 1636.18 2571.75 1634.64 2571.42C1622.78 2568.9 1615.2 2557.25 1617.72 2545.38C1643.28 2424.99 1739.69 2411.83 1743.78 2411.33C1755.8 2409.92 1766.77 2418.42 1768.25 2430.46C1769.71 2442.44 1761.23 2453.36 1749.27 2454.9C1746.04 2455.36 1679.48 2465.93 1660.68 2554.5C1658.49 2564.83 1649.37 2571.91 1639.22 2571.91Z" fill="#371A45"/>
<path d="M1576.11 2493.99C1576.17 2430.42 1572.91 2365.73 1568.4 2301.7C1563.64 2237.57 1557.01 2173.54 1547.26 2110.02C1542.43 2078.25 1536.98 2046.58 1530.44 2015.16C1523.97 1983.72 1516.78 1952.43 1508.16 1921.57C1491.27 1859.75 1469.97 1799.23 1441.97 1741.67L1441.92 1741.56C1440.06 1737.75 1441.65 1733.15 1445.46 1731.29C1449.04 1729.56 1453.32 1730.87 1455.37 1734.18C1489.84 1790.19 1514.44 1851.65 1533.74 1914.09C1543.55 1945.32 1551.89 1976.94 1559.5 2008.71C1567.17 2040.47 1573.74 2072.46 1579.68 2104.55C1591.64 2168.73 1600.45 2233.4 1607.35 2298.26C1610.8 2330.69 1613.47 2363.19 1615.58 2395.75C1617.67 2428.4 1619.36 2460.72 1620.03 2493.91C1620.27 2506.04 1610.64 2516.07 1598.51 2516.31C1586.39 2516.56 1576.36 2506.92 1576.12 2494.8C1576.12 2494.68 1576.11 2494.56 1576.11 2494.45V2493.99Z" fill="#371A45"/>
<path d="M429.555 1602.2C429.555 1602.2 796.9 1642.62 1159.91 1948.1C1522.91 2253.57 1598.07 2493.95 1598.07 2493.95C1598.07 2493.95 1637.26 2425.94 1654.15 2348.39C1654.15 2348.39 1483.15 2009.2 1153.73 1785.72C824.311 1562.25 545.124 1520.11 545.124 1520.11C545.124 1520.11 469.512 1566.67 429.555 1602.2Z" fill="#996250"/>
<g opacity="0.6">
<path d="M1610.37 2470.39C1619.88 2446.89 1629.47 2418.89 1635.89 2389.45C1635.89 2389.45 1464.92 2050.24 1135.5 1826.78C806.073 1603.32 526.88 1561.18 526.88 1561.18C526.88 1561.18 492.895 1582.13 458.451 1606.64C439.75 1603.3 429.545 1602.2 429.545 1602.2C469.538 1566.68 545.109 1520.1 545.109 1520.1C545.109 1520.1 824.302 1562.25 1153.73 1785.71C1483.15 2009.17 1654.18 2348.37 1654.18 2348.37C1643.37 2398.1 1623.3 2443.94 1610.37 2470.39Z" fill="white"/>
</g>
<path d="M1598.08 2515.91C1597.27 2515.91 1596.47 2515.87 1595.66 2515.78C1587 2514.82 1579.72 2508.82 1577.11 2500.5C1576.38 2498.19 1498.47 2261.69 1145.77 1964.9C792.586 1667.69 430.75 1624.42 427.137 1624.02C418.519 1623.06 411.263 1617.12 408.636 1608.86C406.009 1600.59 408.48 1591.55 414.964 1585.79C455.887 1549.4 530.452 1503.36 533.607 1501.41C538.031 1498.69 543.275 1497.61 548.397 1498.4C559.999 1500.15 836.307 1543.86 1166.06 1767.55C1496.4 1991.65 1666.67 2324.45 1673.76 2338.51C1676.02 2343 1676.68 2348.14 1675.6 2353.06C1658.19 2433.02 1618.76 2502.02 1617.09 2504.91C1613.15 2511.76 1605.86 2515.91 1598.08 2515.91ZM482.299 1588.55C596.244 1610.79 884.818 1687.91 1174.04 1931.29C1448.31 2162.09 1560.18 2355.29 1599.97 2440.68C1610.56 2416.87 1622.85 2385.19 1630.93 2351.42C1604.69 2302.53 1436.46 2004.06 1141.4 1803.9C850.571 1606.6 596.743 1552.01 549.629 1543.2C536.908 1551.24 508.866 1569.28 482.299 1588.55Z" fill="#371A45"/>
<path d="M1496.56 1544.79C1496.56 1544.79 1441.25 1804.93 1109.07 2048.4C776.901 2291.86 508.394 2346.87 508.394 2346.87C508.394 2346.87 511.015 2267.13 505.082 2219.98C505.082 2219.98 824.295 2128.15 1120.37 1863.18C1368.61 1641.03 1411.31 1484.93 1411.31 1484.93L1496.56 1544.79Z" fill="#996250"/>
<g opacity="0.6">
<path d="M1496.55 1544.77C1496.55 1544.77 1493.5 1559.24 1484.42 1584.5L1446.42 1557.83C1438.81 1552.49 1428.2 1555.33 1424.36 1563.8C1405.79 1604.86 1341.3 1720.13 1145.78 1895.13C849.706 2160.1 530.478 2251.9 530.478 2251.9C532.689 2269.32 528.069 2321.39 528.451 2342.03C515.367 2345.42 508.387 2346.86 508.387 2346.86C508.387 2346.86 511.017 2267.11 505.07 2219.98C505.07 2219.98 824.298 2128.17 1120.37 1863.21C1368.61 1641.02 1411.29 1484.91 1411.29 1484.91L1496.55 1544.77Z" fill="white"/>
</g>
<path d="M508.395 2368.82C503.258 2368.82 498.234 2367.02 494.235 2363.65C489.098 2359.32 486.227 2352.86 486.447 2346.14C486.476 2345.37 488.942 2267.58 483.293 2222.73C481.94 2212 488.61 2201.88 499.001 2198.88C502.15 2197.97 817.155 2105.07 1105.73 1846.82C1344.85 1632.83 1389.72 1480.57 1390.15 1479.06C1392.08 1472.21 1397.22 1466.67 1403.93 1464.28C1410.65 1461.89 1418.1 1462.87 1423.93 1466.96L1509.18 1526.81C1516.38 1531.87 1519.88 1540.74 1518.04 1549.35C1515.71 1560.31 1457.13 1820.51 1122.05 2066.1C789.831 2309.61 523.957 2366.09 512.805 2368.38C511.339 2368.68 509.865 2368.82 508.395 2368.82ZM528.693 2235.63C530.846 2263.36 531.081 2295.76 530.885 2318.57C606.354 2297.81 831.823 2224.38 1096.09 2030.69C1374.87 1826.36 1454.69 1609.74 1471.37 1553.93L1421.96 1519.24C1398.14 1575.11 1326.6 1708.1 1135.02 1879.55C874.567 2112.63 600.377 2212.3 528.693 2235.63Z" fill="#371A45"/>
<path d="M1532.13 2127.45L1315.1 2126.27L1315.9 1979.82L1532.93 1981C1558.26 1981.14 1578.69 2001.79 1578.55 2027.13L1578.26 2081.83C1578.12 2107.16 1557.47 2127.59 1532.13 2127.45Z" fill="white"/>
<path d="M773.344 1976.87L772.547 2123.32L509.602 2121.89L509.667 2109.87L550.47 1975.65L773.344 1976.87Z" fill="white"/>
<path d="M1532.39 2149.41C1532.26 2149.41 1532.14 2149.41 1532.01 2149.41L1314.98 2148.23C1309.16 2148.2 1303.59 2145.86 1299.49 2141.72C1295.39 2137.58 1293.11 2131.98 1293.14 2126.16L1293.94 1979.7C1293.97 1973.88 1296.31 1968.31 1300.45 1964.21C1304.6 1960.12 1310.31 1957.92 1316.01 1957.86L1533.04 1959.04C1551.16 1959.14 1568.16 1966.29 1580.9 1979.18C1593.65 1992.06 1600.61 2009.13 1600.51 2027.25L1600.22 2081.94C1600.01 2119.23 1569.61 2149.41 1532.39 2149.41ZM1337.17 2104.43L1532.25 2105.49C1532.25 2105.49 1532.25 2105.49 1532.25 2105.49C1532.3 2105.49 1532.34 2105.49 1532.39 2105.49C1545.51 2105.49 1556.23 2094.85 1556.3 2081.71L1556.59 2027.01C1556.63 2020.62 1554.18 2014.6 1549.68 2010.06C1545.19 2005.51 1539.2 2003 1532.81 2002.96L1337.74 2001.9L1337.17 2104.43Z" fill="#371A45"/>
<path d="M772.555 2145.28C772.511 2145.28 772.472 2145.28 772.433 2145.28L509.484 2143.85C503.659 2143.82 498.083 2141.48 493.991 2137.33C489.894 2133.19 487.609 2127.59 487.643 2121.77L487.711 2109.75C487.726 2107.63 488.043 2105.52 488.658 2103.49L529.459 1969.26C532.272 1960.01 540.807 1953.69 550.47 1953.69C550.509 1953.69 550.548 1953.69 550.592 1953.69L773.468 1954.91C785.592 1954.98 795.367 1964.86 795.304 1976.98L794.508 2123.44C794.445 2135.53 784.625 2145.28 772.555 2145.28ZM535.597 2100.08L750.709 2101.25L751.27 1998.7L566.719 1997.7L535.597 2100.08Z" fill="#371A45"/>
<path d="M1455.42 2280.55L820.213 2277.1C793.415 2276.95 771.808 2255.11 771.954 2228.31L773.93 1864.83C774.076 1838.03 795.918 1816.42 822.717 1816.57L1457.93 1820.02C1484.73 1820.17 1506.33 1842.01 1506.19 1868.81L1504.21 2232.29C1504.06 2259.09 1482.22 2280.7 1455.42 2280.55Z" fill="white"/>
<g opacity="0.2">
<path d="M1504.66 2153.77L1504.23 2232.27C1504.08 2259.06 1482.23 2280.68 1455.44 2280.54L820.195 2277.08C793.406 2276.94 771.786 2255.08 771.932 2228.29L772.359 2149.79C772.213 2176.58 793.833 2198.44 820.622 2198.58L1455.86 2202.04C1482.65 2202.18 1504.51 2180.56 1504.66 2153.77Z" fill="#371A45"/>
</g>
<path d="M1455.69 2302.51C1455.56 2302.51 1455.43 2302.51 1455.3 2302.51L820.094 2299.05C801.266 2298.95 783.61 2291.52 770.368 2278.14C757.131 2264.76 749.894 2247.02 749.997 2228.19L751.974 1864.71C752.072 1845.89 759.498 1828.22 772.887 1814.98C786.271 1801.74 804.225 1794.63 822.838 1794.61L1458.04 1798.06C1476.87 1798.17 1494.53 1805.59 1507.77 1818.98C1521.01 1832.36 1528.25 1850.1 1528.15 1868.93L1526.17 2232.41C1525.96 2271.14 1494.37 2302.51 1455.69 2302.51ZM1455.54 2258.59C1455.59 2258.59 1455.63 2258.59 1455.68 2258.59C1470.27 2258.59 1482.17 2246.77 1482.25 2232.17L1484.23 1868.69C1484.27 1861.59 1481.54 1854.91 1476.55 1849.86C1471.56 1844.81 1464.9 1842.02 1457.8 1841.98L822.599 1838.53C822.545 1838.53 822.497 1838.53 822.448 1838.53C815.407 1838.53 808.781 1841.25 803.771 1846.2C798.727 1851.19 795.929 1857.85 795.89 1864.95L793.912 2228.43C793.873 2235.53 796.598 2242.21 801.588 2247.26C806.578 2252.3 813.233 2255.1 820.333 2255.14L1455.54 2258.59Z" fill="#371A45"/>
<path d="M1455.68 2302.51C1455.56 2302.51 1455.43 2302.51 1455.3 2302.51L936.548 2299.69C897.681 2299.47 866.24 2267.69 866.45 2228.82L868.427 1865.34C868.525 1846.52 875.951 1828.86 889.34 1815.62C902.631 1802.47 920.214 1795.25 938.891 1795.25C939.028 1795.25 939.155 1795.25 939.291 1795.25L1458.04 1798.06C1476.87 1798.17 1494.53 1805.59 1507.77 1818.98C1521.01 1832.36 1528.25 1850.1 1528.14 1868.93L1526.17 2232.41C1525.96 2271.14 1494.37 2302.51 1455.68 2302.51ZM1455.54 2258.59C1455.58 2258.59 1455.63 2258.59 1455.68 2258.59C1470.26 2258.59 1482.17 2246.77 1482.25 2232.17L1484.23 1868.69C1484.27 1861.59 1481.54 1854.91 1476.55 1849.86C1471.56 1844.81 1464.9 1842.02 1457.8 1841.98L939.053 1839.16C938.999 1839.16 938.951 1839.16 938.902 1839.16C931.861 1839.16 925.235 1841.89 920.225 1846.84C915.181 1851.83 912.383 1858.48 912.344 1865.58L910.367 2229.06C910.289 2243.71 922.139 2255.69 936.788 2255.77L1455.54 2258.59Z" fill="#371A45"/>
<path d="M1381.37 2029.63C1381.6 2038.15 1371.52 2107.25 1371.52 2107.25C1371.52 2107.25 1349.74 2107.85 1322.99 2108.58C1289.57 2109.51 1261.53 2075.65 1260.35 2032.97C1259.17 1990.29 1285.31 1954.94 1318.72 1954.02C1341.28 1953.39 1367.26 1952.68 1367.26 1952.68C1367.26 1952.68 1380.98 2015.75 1381.37 2029.63Z" fill="#22A7F0"/>
<path d="M1381.37 2029.63C1381.6 2038.15 1371.52 2107.25 1371.52 2107.25C1371.52 2107.25 1349.74 2107.85 1322.99 2108.58C1289.57 2109.51 1261.53 2075.65 1260.35 2032.97C1259.17 1990.29 1285.31 1954.94 1318.72 1954.02C1341.28 1953.39 1367.26 1952.68 1367.26 1952.68C1367.26 1952.68 1380.98 2015.75 1381.37 2029.63Z" fill="#137CE5"/>
<path d="M1321.68 2124.49C1280.33 2124.49 1245.87 2084.07 1244.47 2033.41C1243.05 1982.04 1276.17 1939.3 1318.29 1938.14L1352.18 1937.2C1368.22 1936.83 1382.55 1947.95 1385.86 1963.82C1393.18 1998.83 1397.01 2020.83 1397.25 2029.19V2029.19C1397.31 2031.65 1397.47 2037.41 1389.36 2094.79C1387.06 2111 1373.51 2123.08 1357.13 2123.53L1323.43 2124.46C1322.85 2124.48 1322.26 2124.49 1321.68 2124.49ZM1353.1 1968.96C1353.08 1968.96 1353.07 1968.96 1353.05 1968.96L1319.16 1969.89C1294.55 1970.57 1275.29 1998.67 1276.22 2032.53C1277.15 2065.97 1297.44 2092.72 1321.64 2092.72C1321.95 2092.72 1322.25 2092.72 1322.55 2092.71L1356.26 2091.77C1357.1 2091.75 1357.79 2091.15 1357.9 2090.34C1365 2040.12 1365.47 2031.32 1365.49 2029.99C1365.33 2025.15 1362.43 2006.97 1354.76 1970.32C1354.6 1969.52 1353.9 1968.96 1353.1 1968.96Z" fill="#371A45"/>
<path d="M1371.52 2107.16C1404.93 2106.24 1431.07 2070.89 1429.89 2028.21C1428.71 1985.53 1400.67 1951.67 1367.25 1952.6C1333.83 1953.52 1307.7 1988.87 1308.87 2031.55C1310.05 2074.23 1338.1 2108.08 1371.52 2107.16Z" fill="#22A7F0"/>
<g opacity="0.7">
<path d="M1429.04 2044.21C1422.32 2009.27 1397.29 1983.62 1368.15 1984.44C1338.9 1985.26 1315.29 2012.34 1310.59 2047.69C1309.58 2042.54 1309.01 2037.16 1308.85 2031.64C1307.73 1988.95 1333.86 1953.61 1367.28 1952.69C1400.69 1951.78 1428.72 1985.59 1429.91 2028.28C1430.07 2033.75 1429.75 2039.08 1429.04 2044.21Z" fill="white"/>
</g>
<path d="M1371.54 2107.22C1338.13 2108.2 1310.04 2074.33 1308.85 2031.64C1308.61 2021.83 1309.76 2012.44 1312.13 2003.7C1321.64 2032.48 1344.27 2052.43 1370.02 2051.69C1395.76 2050.95 1417.19 2029.87 1425.1 2000.68C1427.96 2009.19 1429.66 2018.53 1429.91 2028.28C1431.1 2070.97 1404.96 2106.31 1371.54 2107.22Z" fill="#137CE5"/>
<path d="M1370.21 2123.15C1328.86 2123.15 1294.4 2082.72 1293 2032.07C1291.59 1980.7 1324.7 1937.97 1366.82 1936.8C1409.01 1935.63 1444.35 1976.48 1445.78 2027.85C1447.2 2079.22 1414.08 2121.96 1371.96 2123.13C1371.38 2123.14 1370.8 2123.15 1370.21 2123.15ZM1368.6 1968.54C1368.3 1968.54 1368 1968.55 1367.7 1968.55C1343.09 1969.23 1323.82 1997.33 1324.76 2031.19C1325.69 2065.05 1346.55 2092.16 1371.09 2091.37C1395.7 2090.69 1414.96 2062.59 1414.02 2028.73C1413.1 1995.29 1392.81 1968.54 1368.6 1968.54Z" fill="#371A45"/>
<path d="M1166.09 2293.88C1166.05 2293.88 1166.01 2293.88 1165.96 2293.88C1153.84 2293.81 1144.06 2283.93 1144.13 2271.8L1144.88 2133.14C1144.97 2116.58 1137 2100.93 1123.55 2091.28L1103.2 2076.67C1078.22 2058.74 1063.39 2029.66 1063.56 1998.9L1064.55 1817.89C1064.61 1805.75 1074.69 1796.05 1086.63 1796.05C1098.75 1796.12 1108.53 1806 1108.46 1818.13L1107.48 1999.14C1107.39 2015.69 1115.37 2031.34 1128.81 2041L1149.16 2055.6C1174.15 2073.54 1188.97 2102.61 1188.8 2133.38L1188.04 2272.04C1187.97 2284.13 1178.16 2293.88 1166.09 2293.88Z" fill="#371A45"/>
<path d="M1001.77 1622.24C997.246 1622.24 992.739 1622.2 988.246 1622.12C718.041 1617.06 470.546 1468.27 342.338 1233.82C247.9 1061.21 226.908 862.782 283.227 675.089C340 485.897 468.31 330.299 644.526 236.959C713.276 200.599 786.401 175.24 861.87 161.588C870.107 160.016 878.667 158.614 888.013 157.308C911.265 153.895 934.873 151.556 958.179 150.357C1011.75 147.623 1065.9 150.66 1119.11 159.397C1171.83 167.991 1223.77 182.219 1273.48 201.685C1289.47 207.93 1305.22 214.707 1320.31 221.822C1343.81 232.928 1366.56 245.106 1387.9 258.013C1500.66 325.784 1593.57 422.52 1656.59 537.759C1765.6 736.975 1776.22 970.454 1685.75 1178.33C1635.59 1293.57 1555.85 1394.6 1455.15 1470.5C1433.82 1486.56 1411.54 1501.56 1388.93 1515.09C1378.55 1521.34 1367.27 1527.72 1354.41 1534.62C1319.37 1553.17 1282.75 1569.01 1245.56 1581.71C1214.4 1592.42 1181.93 1601.19 1149.05 1607.76C1110.57 1615.46 1070.91 1620.16 1031.18 1621.71C1021.41 1622.06 1011.56 1622.24 1001.77 1622.24ZM996.381 153.333C983.695 153.333 971.025 153.655 958.383 154.302C935.2 155.493 911.713 157.82 888.573 161.216C879.276 162.517 870.785 163.909 862.592 165.471C787.504 179.055 714.765 204.28 646.371 240.449C471.103 333.291 343.475 488.052 287.011 676.223C230.995 862.895 251.879 1060.25 345.805 1231.93C473.334 1465.13 719.531 1613.13 988.32 1618.17C1002.45 1618.4 1016.83 1618.27 1031.03 1617.76C1070.54 1616.22 1110 1611.55 1148.28 1603.88C1180.98 1597.35 1213.28 1588.63 1244.27 1577.97C1281.28 1565.34 1317.71 1549.58 1352.56 1531.13C1365.34 1524.27 1376.57 1517.92 1386.89 1511.7C1409.39 1498.24 1431.56 1483.32 1452.77 1467.34C1552.92 1391.85 1632.23 1291.37 1682.12 1176.75C1772.11 970.004 1761.54 737.792 1653.12 539.652C1590.44 425.028 1498.03 328.807 1385.86 261.393C1364.63 248.554 1342.01 236.442 1318.62 225.394C1303.62 218.316 1287.95 211.576 1272.05 205.362C1222.59 185.997 1170.92 171.844 1118.47 163.294C1078.09 156.668 1037.17 153.333 996.381 153.333Z" fill="#371A45"/>
<path d="M344.077 1232.86C476.734 1475.51 727.601 1615.28 988.297 1620.13C1002.54 1620.38 1016.81 1620.25 1031.09 1619.73C1070.31 1618.21 1109.62 1613.62 1148.65 1605.83C1180.97 1599.35 1213.18 1590.76 1244.9 1579.85C1281.78 1567.28 1318.04 1551.66 1353.5 1532.9C1365.19 1526.57 1376.71 1520.14 1387.92 1513.43C1410.95 1499.63 1432.91 1484.73 1453.96 1468.91C1557.04 1391.21 1634.9 1290.24 1683.94 1177.52C1710.9 1115.62 1729.17 1050.19 1738.12 983.271C1688.83 1089.75 1613.44 1185.04 1515.1 1259.18C1494.09 1275.06 1472.1 1289.9 1449.07 1303.69C1437.9 1310.43 1426.38 1316.85 1414.64 1323.16C1379.18 1341.93 1342.93 1357.55 1306.09 1370.14C1274.33 1381.03 1242.16 1389.63 1209.84 1396.11C1170.81 1403.9 1131.46 1408.48 1092.28 1410.01C1077.95 1410.52 1063.69 1410.65 1049.44 1410.4C788.747 1405.55 537.926 1265.79 405.223 1023.13C327.771 881.584 302.233 726.286 322.049 578.454C228.413 780.414 228.654 1021.93 344.077 1232.86Z" fill="#E8E8E8"/>
<path d="M1001.76 1635.47C997.168 1635.47 992.588 1635.43 988.027 1635.36C713.056 1630.21 461.206 1478.78 330.722 1240.17C234.575 1064.43 213.202 862.396 270.551 671.285C328.349 478.673 458.959 320.272 638.329 225.262C708.29 188.26 782.709 162.457 859.511 148.56C867.846 146.971 876.616 145.535 886.176 144.197C909.75 140.735 933.779 138.355 957.499 137.136C1012.02 134.353 1067.11 137.446 1121.25 146.333C1174.88 155.076 1227.72 169.551 1278.31 189.358C1294.57 195.711 1310.6 202.605 1325.96 209.851C1349.88 221.152 1373.02 233.542 1394.75 246.684C1509.49 315.646 1604.06 414.108 1668.2 531.406C1779.18 734.236 1790 971.958 1697.89 1183.61C1646.81 1300.94 1565.63 1403.8 1463.11 1481.07C1441.41 1497.41 1418.73 1512.68 1395.72 1526.45C1385.19 1532.79 1373.72 1539.28 1360.67 1546.28C1324.95 1565.2 1287.68 1581.32 1249.83 1594.23C1218.15 1605.13 1185.1 1614.06 1151.64 1620.74C1112.48 1628.58 1072.12 1633.36 1031.69 1634.94C1021.73 1635.29 1011.72 1635.47 1001.76 1635.47ZM996.387 166.573C983.921 166.573 971.475 166.888 959.058 167.523C936.294 168.692 913.228 170.978 890.498 174.315C881.333 175.597 873.047 176.954 865.073 178.475C791.201 191.839 719.751 216.62 652.563 252.152C480.454 343.319 355.131 495.277 299.692 680.03C244.702 863.282 265.205 1057.03 357.417 1225.57C482.676 1454.63 724.517 1599.99 988.564 1604.94C1002.45 1605.18 1016.58 1605.04 1030.56 1604.53C1069.33 1603.02 1108.08 1598.43 1145.67 1590.9C1177.81 1584.49 1209.53 1575.92 1239.97 1565.45C1276.35 1553.04 1312.13 1537.56 1346.36 1519.43C1358.89 1512.72 1369.93 1506.47 1380.06 1500.36C1402.19 1487.12 1423.96 1472.46 1444.81 1456.77C1543.13 1382.65 1621.01 1284 1669.99 1171.47C1758.33 968.504 1747.95 740.53 1641.51 546.009C1579.95 433.441 1489.19 338.946 1379.04 272.742C1358.16 260.115 1335.94 248.221 1312.96 237.364C1298.24 230.418 1282.85 223.8 1267.23 217.694C1218.63 198.666 1167.87 184.762 1116.34 176.361C1076.66 169.847 1036.45 166.573 996.387 166.573Z" fill="#371A45"/>
<path d="M1001.75 1642.22C997.123 1642.22 992.509 1642.18 987.914 1642.1C710.517 1636.91 456.444 1484.13 324.804 1243.41C227.783 1066.08 206.22 862.2 264.091 669.346C322.406 474.993 454.193 315.164 635.17 219.3C705.751 181.973 780.824 155.941 858.31 141.925C866.694 140.326 875.566 138.871 885.244 137.518C908.979 134.032 933.223 131.629 957.153 130.401C1012.13 127.593 1067.72 130.711 1122.34 139.678C1176.43 148.494 1229.74 163.098 1280.77 183.076C1297.17 189.482 1313.34 196.44 1328.83 203.75C1352.96 215.151 1376.31 227.651 1398.24 240.913C1513.99 310.481 1609.4 409.824 1674.12 528.171C1786.11 732.841 1797.03 972.724 1704.07 1186.3V1186.31C1652.53 1304.7 1570.62 1408.48 1467.18 1486.46C1445.28 1502.94 1422.4 1518.35 1399.18 1532.24C1388.58 1538.63 1377.01 1545.18 1363.86 1552.23C1327.8 1571.32 1290.2 1587.59 1252.01 1600.62C1220.06 1611.61 1186.72 1620.61 1152.96 1627.35C1113.46 1635.27 1072.74 1640.09 1031.95 1641.68C1021.9 1642.04 1011.8 1642.22 1001.75 1642.22ZM996.381 173.316C984.037 173.316 971.703 173.631 959.399 174.258C936.855 175.418 913.998 177.681 891.474 180.989C882.377 182.261 874.198 183.599 866.332 185.1C793.085 198.352 722.289 222.905 655.712 258.115C485.219 348.428 361.068 498.957 306.151 681.968C251.683 863.477 271.996 1055.38 363.334 1222.33C487.436 1449.27 727.055 1593.29 988.691 1598.19C1002.44 1598.42 1016.46 1598.28 1030.32 1597.79C1068.71 1596.29 1107.1 1591.75 1144.35 1584.29C1176.19 1577.93 1207.62 1569.44 1237.77 1559.07C1273.83 1546.77 1309.29 1531.43 1343.21 1513.47C1355.6 1506.82 1366.55 1500.63 1376.58 1494.59C1398.53 1481.46 1420.1 1466.93 1440.75 1451.38C1538.15 1377.96 1615.28 1280.24 1663.8 1168.78V1168.78C1751.3 967.737 1741.02 741.926 1635.59 549.245C1574.61 437.724 1484.7 344.111 1375.57 278.522C1354.87 266.005 1332.86 254.22 1310.08 243.461C1295.5 236.581 1280.26 230.023 1264.77 223.974C1216.61 205.119 1166.31 191.34 1115.25 183.017C1075.93 176.563 1036.09 173.316 996.381 173.316Z" fill="#371A45"/>
<path d="M838.541 190.212C324.454 269.5 162.793 880.539 500.263 1287.22L513.544 1296.59C387.485 826.257 628.014 323.497 1146.36 233.514C1051.68 191.127 946.479 173.58 838.541 190.212Z" fill="white"/>
<path d="M1106.83 1611.46C946.942 1611.46 792.601 1564.37 668.773 1475.52C518.099 1367.4 422.723 1208.31 392.953 1015.45C365.614 838.268 416.688 656.759 536.771 504.367C670.111 335.151 873.25 223.852 1080.17 206.642C1195.13 197.084 1300.5 208.7 1393.36 241.178L1395.26 241.844L1396.99 242.882C1512.44 312.269 1607.56 411.307 1672.07 529.291C1783.72 733.324 1794.6 972.46 1701.93 1185.38C1650.56 1303.4 1568.89 1406.86 1465.77 1484.59C1443.94 1501.03 1421.14 1516.39 1397.99 1530.24C1387.41 1536.61 1375.87 1543.14 1362.76 1550.18C1326.82 1569.21 1289.33 1585.42 1251.25 1598.41L1248.29 1599.17C1201.09 1607.41 1153.71 1611.46 1106.83 1611.46ZM1156.65 242.652C1132.75 242.652 1108.34 243.685 1083.42 245.757C887.157 262.08 694.325 367.837 567.602 528.657C454.335 672.404 406.083 843.159 431.743 1009.47C459.868 1191.66 549.746 1341.79 691.66 1443.63C842.895 1552.15 1042.68 1594.8 1240.03 1560.77C1275.65 1548.52 1310.73 1533.31 1344.3 1515.53C1356.74 1508.86 1367.72 1502.65 1377.78 1496.58C1399.8 1483.42 1421.44 1468.84 1442.15 1453.24C1539.87 1379.59 1617.26 1281.54 1665.94 1169.71C1753.74 968 1743.42 741.442 1637.64 548.127C1576.78 436.828 1487.2 343.315 1378.5 277.566C1311.32 254.334 1236.95 242.652 1156.65 242.652Z" fill="#371A45"/>
<path d="M1106.74 1536.43C1023.09 1536.43 939.932 1521.83 861.06 1491.91C648.194 1411.18 505.821 1233.34 470.45 1004.02C446.036 845.777 491.637 683.705 598.848 547.655C717.837 396.652 899.131 297.33 1083.81 281.972C1402.03 255.517 1625.58 408.176 1748.2 735.737L1749.04 738.654C1750.56 746.003 1785.71 920.07 1747.04 1045.39C1709.32 1167.57 1652.99 1278.12 1650.61 1282.77L1649.17 1285.15L1601.4 1352.73L1599.4 1354.39C1455.7 1473.65 1280.17 1536.43 1106.74 1536.43ZM1151.5 318.348C1130.5 318.348 1109.02 319.261 1087.06 321.087C913.038 335.56 742.051 429.339 629.673 571.949C529.276 699.354 486.509 850.672 509.238 998.033C542.397 1212.99 675.703 1379.63 874.975 1455.21C1103.46 1541.88 1370.44 1492.26 1572.35 1325.83L1616.28 1263.67C1622.53 1251.28 1674.92 1145.95 1709.53 1033.81C1743.46 923.863 1714.13 764.762 1710.88 748.004C1603.58 462.608 1415.59 318.348 1151.5 318.348Z" fill="#371A45"/>
<path d="M157.912 997.67C162.371 1142.46 252.811 1261.5 359.951 1263.52C467.091 1265.55 550.324 1149.8 545.865 1005.01C545.855 1004.11 545.799 1003.14 545.739 1002.23C540.249 858.698 450.213 741.162 343.826 739.162C261.06 737.593 192.563 806.315 167.724 904.394C160.427 933.273 156.901 964.743 157.912 997.67Z" fill="white"/>
<path d="M157.912 997.671C162.371 1142.46 252.811 1261.5 359.951 1263.52C467.091 1265.55 550.324 1149.8 545.865 1005.01C545.855 1004.11 545.799 1003.14 545.739 1002.23C534.418 1016.87 516.536 1031.15 491.547 1025.75C447.779 1016.27 366.844 921.692 366.844 921.692C366.844 921.692 280.543 913.629 167.725 904.395C160.427 933.274 156.901 964.744 157.912 997.671Z" fill="#E8E8E8"/>
<path d="M362.773 1285.49C361.699 1285.49 360.62 1285.48 359.536 1285.46C241.05 1283.22 140.747 1154.43 135.942 998.348C133.173 908.355 161.811 826.151 214.516 772.811C251.362 735.531 296 716.261 344.218 717.208C462.704 719.442 563.007 848.241 567.812 1004.32C570.58 1094.31 541.943 1176.52 489.233 1229.86C453.222 1266.3 409.56 1285.49 362.773 1285.49ZM179.838 996.995C183.935 1130.04 264.916 1239.75 360.365 1241.55C395.946 1242.22 429.808 1227.51 457.997 1198.99C501.64 1154.82 526.283 1082.55 523.915 1005.67C519.818 872.623 438.837 762.916 343.388 761.114C307.826 760.428 273.945 775.157 245.756 803.68C202.113 847.845 177.47 920.113 179.838 996.995Z" fill="#371A45"/>
<path d="M308.135 1232.87C388.463 1225.75 445.113 1124.45 434.667 1006.6C424.221 888.762 350.634 799.004 270.306 806.124C189.978 813.245 133.328 914.548 143.774 1032.39C154.22 1150.23 227.807 1239.99 308.135 1232.87Z" fill="white"/>
<path d="M296.655 1233.23C215.722 1231.07 146.835 1133.65 142.73 1015.58C142.257 1002.76 142.641 990.221 143.682 978.077C167.74 1058.73 223.456 1116.95 286.369 1118.56C357.414 1120.38 414.346 1049.34 425.193 953.057C431.167 975.162 434.832 998.841 435.704 1023.39C439.809 1141.46 377.542 1235.38 296.655 1233.23Z" fill="#E8E8E8"/>
<path d="M299.408 1255.22C298.285 1255.22 297.167 1255.21 296.044 1255.18C202.333 1252.68 125.346 1147.77 120.775 1016.36V1016.35C118.114 939.865 142.045 868.478 184.784 825.395C212.709 797.238 246.386 782.888 282.357 783.825C376.073 786.327 453.06 891.232 457.625 1022.65C460.286 1099.13 436.36 1170.52 393.621 1213.6C366.567 1240.88 334.057 1255.22 299.408 1255.22ZM164.662 1014.83C168.305 1119.49 229.008 1209.46 297.216 1211.28C320.614 1211.92 343.261 1202.02 362.445 1182.67C396.81 1148.03 415.985 1088.78 413.739 1024.18C410.101 919.509 349.398 829.546 281.185 827.725C257.655 827.061 235.14 836.983 215.961 856.321C181.596 890.965 162.421 950.219 164.662 1014.83Z" fill="#371A45"/>
<g opacity="0.2">
<path d="M1749.15 3267.63C1738.13 3345.2 1614.65 3337.5 1484.06 3347.38C1353.41 3357.21 1219.26 3363.57 1205.8 3243.49C1192.35 3123.47 1169.85 2858.64 1050.18 2727.44C1050.18 2727.44 945.954 3005.64 916.702 3196.08C916.702 3196.08 969.294 3256.31 958.412 3309.23C947.53 3362.09 795.628 3393.05 615.705 3377.91C435.837 3362.82 393.496 3355.56 452.286 2932.36C452.286 2932.36 500.903 2431.53 508.39 2346.86C515.932 2262.2 495.357 2149.16 495.357 2149.16C495.357 2149.16 441.594 2304.17 416.393 2395.77C416.393 2395.77 503.841 2537.38 366.105 2557.82C366.105 2557.82 383.285 2639.11 199.657 2659.25C50.5241 2675.62 7.06712 2520.41 26.8151 2361.54C50.1971 2422.87 89.2811 2493.9 147.731 2506.63C254.049 2529.82 241.323 2386.58 318.927 2380.2C388.457 2374.48 417.582 2076.17 548.239 1792.85C565.126 1756.32 618.996 1763.31 626.467 1802.82C633.459 1839.53 638.878 1882.76 638.634 1927.61C637.97 2049.81 499.311 3168.61 556.215 3243.69C613.119 3318.77 962.132 3301.89 866.093 3175.22L778.925 3163.82C778.925 3163.82 888.35 2756.86 833.167 2678.34C833.167 2678.34 852.097 2679.98 883.325 2681.52C822.54 2660.3 765.51 2628.23 716.248 2586.78C712.469 2583.61 715.943 2577.54 720.631 2579.1C834.904 2616.94 915.878 2628.82 1109.17 2610.83C1257.41 2597.05 1350.47 2562.25 1427.94 2528.15C1440.56 2522.59 1451.61 2538.51 1442.02 2548.43C1407.32 2584.37 1367.45 2615.33 1324.15 2640.33C1342.96 2633.51 1360.35 2625.65 1375.82 2616.67C1375.82 2616.67 1364.51 2687.65 1311.51 2743.02C1289.21 2766.23 1278.06 2797.9 1282.55 2829.82C1293.17 2905.8 1311.35 3044.73 1318.81 3156.76C1322.32 3209.04 1364.86 3250.01 1417.22 3251.39C1529.69 3254.25 1703.62 3249.93 1719.07 3196.43C1719.07 3196.43 1720.22 3196.27 1722.31 3196.07C1739.95 3212.19 1753.71 3235.38 1749.15 3267.63Z" fill="#371A45"/>
</g>
</svg>
